<?xml version="1.0" encoding="UTF-8"?>
<svg width="320px" height="752px" viewBox="0 0 320 752" version="1.1" xmlns="http://www.w3.org/2000/svg" xmlns:xlink="http://www.w3.org/1999/xlink">
    <!-- Generator: Sketch 54.1 (76490) - https://sketchapp.com -->
    <title>dangky</title>
    <desc>Created with Sketch.</desc>
    <g id="dangky" stroke="none" stroke-width="1" fill="none" fill-rule="evenodd">
        <rect fill="#FFFFFF" x="0" y="0" width="320" height="752"></rect>
        <path d="M0.00147110516,4.3907976 L5.18185728,1.28256589 C8.13100257,-0.486921279 11.8307452,-0.420958389 14.7149396,1.45253168 L15.0988505,1.7019092 C18.0803644,3.63861514 21.9225778,3.63861514 24.9040917,1.7019092 L25.0988505,1.57539941 C28.0803644,-0.361306527 31.9225778,-0.361306527 34.9040917,1.57539941 L35.0988505,1.7019092 C38.0803644,3.63861514 41.9225778,3.63861514 44.9040917,1.7019092 L45.0988505,1.57539941 C48.0803644,-0.361306527 51.9225778,-0.361306527 54.9040917,1.57539941 L55.0988505,1.7019092 C58.0803644,3.63861514 61.9225778,3.63861514 64.9040917,1.7019092 L65.0988505,1.57539941 C68.0803644,-0.361306527 71.9225778,-0.361306527 74.9040917,1.57539941 L75.0988505,1.7019092 C78.0803644,3.63861514 81.9225778,3.63861514 84.9040917,1.7019092 L85.0988505,1.57539941 C88.0803644,-0.361306527 91.9225778,-0.361306527 94.9040917,1.57539941 L95.0988505,1.7019092 C98.0803644,3.63861514 101.922578,3.63861514 104.904092,1.7019092 L105.097534,1.57625461 C108.079719,-0.360887454 111.922917,-0.360416031 114.904627,1.57745759 L115.096337,1.70205427 C118.079056,3.64058347 121.923732,3.64034645 124.906212,1.70144949 L125.094958,1.57874615 C128.077591,-0.360250549 131.922493,-0.360379791 134.905256,1.57841639 L135.095105,1.70181815 C138.077684,3.64049475 141.922316,3.64049475 144.904895,1.70181815 L145.095105,1.57818185 C148.077684,-0.360494753 151.922316,-0.360494753 154.904895,1.57818185 L155.095105,1.70181815 C158.077684,3.64049475 161.922316,3.64049475 164.904895,1.70181815 L165.095105,1.57818185 C168.077684,-0.360494753 171.922316,-0.360494753 174.904895,1.57818185 L175.095105,1.70181815 C178.077684,3.64049475 181.922316,3.64049475 184.904895,1.70181815 L185.095105,1.57818185 C188.077684,-0.360494753 191.922316,-0.360494753 194.904895,1.57818185 L195.095105,1.70181815 C198.077684,3.64049475 201.922316,3.64049475 204.904895,1.70181815 L205.095105,1.57818185 C208.077684,-0.360494753 211.922316,-0.360494753 214.904895,1.57818185 L215.095105,1.70181815 C218.077684,3.64049475 221.922316,3.64049475 224.904895,1.70181815 L225.095105,1.57818185 C228.077684,-0.360494753 231.922316,-0.360494753 234.904895,1.57818185 L235.095105,1.70181815 C238.077684,3.64049475 241.922316,3.64049475 244.904895,1.70181815 L245.095105,1.57818185 C248.077684,-0.360494753 251.922316,-0.360494753 254.904895,1.57818185 L255.095105,1.70181815 C258.077684,3.64049475 261.922316,3.64049475 264.904895,1.70181815 L265.095105,1.57818185 C268.077684,-0.360494753 271.922316,-0.360494753 274.904895,1.57818185 L275.095105,1.70181815 C278.077684,3.64049475 281.922316,3.64049475 284.904895,1.70181815 L285.095105,1.57818185 C288.077684,-0.360494753 291.922316,-0.360494753 294.904895,1.57818185 L295.095105,1.70181815 C298.077684,3.64049475 301.922316,3.64049475 304.904895,1.70181815 L305.095105,1.57818185 C308.077684,-0.360494753 311.922316,-0.360494753 314.904895,1.57818185 L320,4.89 L320,188 L0,188 L0.00147110516,4.3907976 Z" id="Rectangle" fill="#E1F5FE" transform="translate(160.000000, 94.000000) scale(1, -1) translate(-160.000000, -94.000000) "></path>
        <text id="—-Hãy-chắc-chắn-rằng" font-family="Georgia-Italic, Georgia" font-size="14" font-style="italic" font-weight="normal" line-spacing="22" fill="#5D6A80">
            <tspan x="30" y="99">— Hãy chắc chắn rằng bạn đã đọc &amp; </tspan>
            <tspan x="30" y="121">đồng ý với Chanchan những điều dưới </tspan>
            <tspan x="30" y="143">đây trước khi đăng ký.</tspan>
        </text>
        <text id="Đăng-ký" font-family="SFCompactDisplay-Semibold, SF Compact Display" font-size="26" font-weight="500" line-spacing="26" letter-spacing="-1.56" fill="#191F2C">
            <tspan x="30" y="65">Đăng ký</tspan>
        </text>
        <text id="Bạn-hiện-đang-sinh-s" font-family="SFCompactDisplay-Regular, SF Compact Display" font-size="15" font-weight="normal" line-spacing="22" fill="#4D5B72">
            <tspan x="30" y="270">Bạn hiện đang sinh sống làm việc tại </tspan>
            <tspan x="30" y="292">Việt Nam có độ tuổi 20 - 45 &amp; hiện đang </tspan>
            <tspan x="30" y="314">độc thân.</tspan>
        </text>
        <text id="Chanchan-là-Chương-t" font-family="SFCompactDisplay-Regular, SF Compact Display" font-size="15" font-weight="normal" line-spacing="22" fill="#4D5B72">
            <tspan x="30" y="400">Chanchan là Chương trình trả phí. Sau </tspan>
            <tspan x="30" y="422">khi đăng ký &amp; hoàn tất thanh toán </tspan>
            <tspan x="30" y="444">chương trình của bạn được khởi tạo tại </tspan>
            <tspan x="30" y="466">Chanchan.</tspan>
        </text>
        <text id="i/." font-family="Georgia-Italic, Georgia" font-size="18" font-style="italic" font-weight="normal" line-spacing="20" letter-spacing="-0.720000029" fill="#343D51">
            <tspan x="30" y="239">i/.</tspan>
            <tspan x="46.4816015" y="239"> </tspan>
        </text>
        <text id="Về-bạn" font-family="SFCompactDisplay-Semibold, SF Compact Display" font-size="20" font-weight="500" line-spacing="20" letter-spacing="-1" fill="#343D51">
            <tspan x="53" y="239">Về bạn</tspan>
        </text>
        <text id="ii/." font-family="Georgia-Italic, Georgia" font-size="18" font-style="italic" font-weight="normal" line-spacing="20" letter-spacing="-0.720000029" fill="#343D51">
            <tspan x="30" y="369">ii/.</tspan>
            <tspan x="51.1141405" y="369"> </tspan>
        </text>
        <text id="Về-chương-trình" font-family="SFCompactDisplay-Semibold, SF Compact Display" font-size="20" font-weight="500" line-spacing="20" letter-spacing="-1" fill="#343D51">
            <tspan x="58" y="369">Về chương trình</tspan>
        </text>
        <text id="Tiền-thân-của-Chanch" font-family="Georgia-Italic, Georgia" font-size="14" font-style="italic" font-weight="normal" line-spacing="22" fill="#5D6A80">
            <tspan x="50" y="497">Tiền thân của Chanchan là Phiên bản </tspan>
            <tspan x="50" y="519">offline được vận hành bởi các Chuyên </tspan>
            <tspan x="50" y="541">gia tâm lý. Bằng công nghệ Team </tspan>
            <tspan x="50" y="563">phát triển đã truyền tải toàn bộ tinh </tspan>
            <tspan x="50" y="585">hoa của Phiên bản trước vào phiên </tspan>
            <tspan x="50" y="607">bản hiện tại là Chanchan với mức phí </tspan>
            <tspan x="50" y="629">đơn giản hơn với tất cả mọi người.</tspan>
        </text>
        <polygon id="Triangle" fill="#343D51" points="32 490 32 669 30 669 30 490"></polygon>
        <text id="Chanchan-có-hai-lựa" font-family="SFCompactDisplay-Regular, SF Compact Display" font-size="15" font-weight="normal" line-spacing="22" fill="#4D5B72">
            <tspan x="31" y="702">Chanchan có hai lựa chọn về Chương </tspan>
            <tspan x="31" y="724">trình khi bạn đăng ký mới.</tspan>
        </text>
        <path d="M55.1590294,669 C54.0259548,669 53.159499,668.790478 52.559636,668.371429 C51.959773,667.952379 51.5498728,667.364366 51.329923,666.607373 C51.1099732,665.85038 51,664.964977 51,663.951152 L53.9793047,663.951152 C53.9793047,664.545932 54.0159625,665.046081 54.0892791,665.451613 C54.1625957,665.857145 54.2958965,666.161289 54.4891857,666.364055 C54.6824749,666.566821 54.9724044,666.661444 55.3589828,666.647926 C55.7455611,666.634409 56.025493,666.485716 56.1987868,666.201843 C56.3720805,665.917971 56.4787212,665.512445 56.5187121,664.985253 C56.558703,664.458062 56.5786981,663.836256 56.5786981,663.119816 C56.5786981,662.538553 56.5453729,662.024887 56.4787214,661.578802 C56.41207,661.132717 56.2821016,660.781261 56.0888124,660.524424 C55.8955232,660.267587 55.5989288,660.139171 55.1990201,660.139171 C54.8391023,660.139171 54.5425078,660.267587 54.3092277,660.524424 C54.0759477,660.781261 53.905989,661.146234 53.7993467,661.619355 L51.1599627,661.619355 L51.3799113,652.292166 L58.8181755,652.292166 L58.8181755,654.98894 L53.9193187,654.98894 L53.7393607,658.618433 C53.8993242,658.415667 54.1692585,658.239939 54.5491717,658.091244 C54.929085,657.942549 55.3389852,657.854685 55.7788848,657.82765 C56.618693,657.746543 57.3151901,657.908754 57.8683971,658.314286 C58.4216041,658.719818 58.8315044,659.317968 59.0981102,660.108756 C59.364716,660.899543 59.4980168,661.862667 59.4980168,662.998157 C59.4980168,663.863292 59.4446965,664.664205 59.3380542,665.400922 C59.2314119,666.137638 59.0247955,666.772962 58.7181988,667.306912 C58.4116022,667.840863 57.9717092,668.256527 57.3985068,668.553917 C56.8253044,668.851307 56.0788194,669 55.1590294,669 Z M64.4363566,668.716129 L64.4363566,664.883871 L59.5175045,664.883871 L59.5175045,662.430415 L63.7365199,652.292166 L67.33568,652.292166 L67.33568,662.491244 L68.895316,662.491244 L68.895316,664.883871 L67.33568,664.883871 L67.33568,668.716129 L64.4363566,668.716129 Z M61.9569352,662.491244 L64.4363566,662.491244 L64.4363566,655.516129 L61.9569352,662.491244 Z M73.4996712,669 C72.5265601,669 71.7200897,668.797237 71.0802358,668.391705 C70.4403819,667.986173 69.9604987,667.428575 69.6405718,666.718894 C69.3206448,666.009213 69.1606838,665.188023 69.1606838,664.2553 L69.1606838,656.894931 C69.1606838,655.935172 69.3139798,655.093706 69.6205764,654.370507 C69.9271731,653.647308 70.4003913,653.082951 71.0402451,652.677419 C71.680099,652.271887 72.4998995,652.069124 73.4996712,652.069124 C74.4861126,652.069124 75.2959155,652.271887 75.9291042,652.677419 C76.562293,653.082951 77.0321786,653.647308 77.3387753,654.370507 C77.6453719,655.093706 77.798668,655.935172 77.798668,656.894931 L77.798668,664.2553 C77.798668,665.188023 77.6387069,666.009213 77.3187799,666.718894 C76.998853,667.428575 76.5189698,667.986173 75.8791159,668.391705 C75.239262,668.797237 74.4461217,669 73.4996712,669 Z M73.4996712,666.242396 C73.859589,666.242396 74.1195257,666.127497 74.2794892,665.897696 C74.4394527,665.667894 74.5460934,665.394164 74.5994146,665.076498 C74.6527357,664.758831 74.6793959,664.464825 74.6793959,664.19447 L74.6793959,656.95576 C74.6793959,656.65837 74.6560682,656.347467 74.6094122,656.023041 C74.5627562,655.698616 74.459448,655.418127 74.2994845,655.181567 C74.1395211,654.945006 73.8729193,654.826728 73.4996712,654.826728 C73.1264231,654.826728 72.8564888,654.945006 72.6898602,655.181567 C72.5232316,655.418127 72.4165909,655.698616 72.3699348,656.023041 C72.3232788,656.347467 72.2999512,656.65837 72.2999512,656.95576 L72.2999512,664.19447 C72.2999512,664.464825 72.3266113,664.758831 72.3799325,665.076498 C72.4332537,665.394164 72.5465594,665.667894 72.7198532,665.897696 C72.8931469,666.127497 73.1530837,666.242396 73.4996712,666.242396 Z M78.6579596,668.716129 L78.6579596,665.735484 L81.5372877,665.735484 L81.5372877,668.716129 L78.6579596,668.716129 Z M86.5976692,669 C85.6245581,669 84.8180877,668.797237 84.1782339,668.391705 C83.53838,667.986173 83.0584968,667.428575 82.7385698,666.718894 C82.4186429,666.009213 82.2586818,665.188023 82.2586818,664.2553 L82.2586818,656.894931 C82.2586818,655.935172 82.4119778,655.093706 82.7185745,654.370507 C83.0251711,653.647308 83.4983893,653.082951 84.1382432,652.677419 C84.7780971,652.271887 85.5978976,652.069124 86.5976692,652.069124 C87.5841106,652.069124 88.3939136,652.271887 89.0271023,652.677419 C89.660291,653.082951 90.1301767,653.647308 90.4367733,654.370507 C90.74337,655.093706 90.896666,655.935172 90.896666,656.894931 L90.896666,664.2553 C90.896666,665.188023 90.7367049,666.009213 90.416778,666.718894 C90.0968511,667.428575 89.6169678,667.986173 88.977114,668.391705 C88.3372601,668.797237 87.5441198,669 86.5976692,669 Z M86.5976692,666.242396 C86.9575871,666.242396 87.2175238,666.127497 87.3774873,665.897696 C87.5374507,665.667894 87.6440914,665.394164 87.6974126,665.076498 C87.7507338,664.758831 87.7773939,664.464825 87.7773939,664.19447 L87.7773939,656.95576 C87.7773939,656.65837 87.7540663,656.347467 87.7074103,656.023041 C87.6607543,655.698616 87.5574461,655.418127 87.3974826,655.181567 C87.2375191,654.945006 86.9709173,654.826728 86.5976692,654.826728 C86.2244211,654.826728 85.9544868,654.945006 85.7878582,655.181567 C85.6212296,655.418127 85.5145889,655.698616 85.4679329,656.023041 C85.4212769,656.347467 85.3979492,656.65837 85.3979492,656.95576 L85.3979492,664.19447 C85.3979492,664.464825 85.4246094,664.758831 85.4779306,665.076498 C85.5312517,665.394164 85.6445575,665.667894 85.8178512,665.897696 C85.991145,666.127497 86.2510817,666.242396 86.5976692,666.242396 Z M96.2549078,669 C95.2817966,669 94.4753262,668.797237 93.8354724,668.391705 C93.1956185,667.986173 92.7157353,667.428575 92.3958083,666.718894 C92.0758814,666.009213 91.9159203,665.188023 91.9159203,664.2553 L91.9159203,656.894931 C91.9159203,655.935172 92.0692164,655.093706 92.375813,654.370507 C92.6824097,653.647308 93.1556278,653.082951 93.7954817,652.677419 C94.4353356,652.271887 95.2551361,652.069124 96.2549078,652.069124 C97.2413491,652.069124 98.0511521,652.271887 98.6843408,652.677419 C99.3175295,653.082951 99.7874152,653.647308 100.094012,654.370507 C100.400608,655.093706 100.553905,655.935172 100.553905,656.894931 L100.553905,664.2553 C100.553905,665.188023 100.393943,666.009213 100.074016,666.718894 C99.7540896,667.428575 99.2742063,667.986173 98.6343525,668.391705 C97.9944986,668.797237 97.2013583,669 96.2549078,669 Z M96.2549078,666.242396 C96.6148256,666.242396 96.8747623,666.127497 97.0347258,665.897696 C97.1946892,665.667894 97.30133,665.394164 97.3546511,665.076498 C97.4079723,664.758831 97.4346324,664.464825 97.4346324,664.19447 L97.4346324,656.95576 C97.4346324,656.65837 97.4113048,656.347467 97.3646488,656.023041 C97.3179928,655.698616 97.2146846,655.418127 97.0547211,655.181567 C96.8947576,654.945006 96.6281558,654.826728 96.2549078,654.826728 C95.8816597,654.826728 95.6117253,654.945006 95.4450967,655.181567 C95.2784681,655.418127 95.1718274,655.698616 95.1251714,656.023041 C95.0785154,656.347467 95.0551877,656.65837 95.0551877,656.95576 L95.0551877,664.19447 C95.0551877,664.464825 95.0818479,664.758831 95.1351691,665.076498 C95.1884902,665.394164 95.301796,665.667894 95.4750897,665.897696 C95.6483835,666.127497 95.9083202,666.242396 96.2549078,666.242396 Z M105.912146,669 C104.939035,669 104.132565,668.797237 103.492711,668.391705 C102.852857,667.986173 102.372974,667.428575 102.053047,666.718894 C101.73312,666.009213 101.573159,665.188023 101.573159,664.2553 L101.573159,656.894931 C101.573159,655.935172 101.726455,655.093706 102.033052,654.370507 C102.339648,653.647308 102.812866,653.082951 103.45272,652.677419 C104.092574,652.271887 104.912375,652.069124 105.912146,652.069124 C106.898588,652.069124 107.708391,652.271887 108.341579,652.677419 C108.974768,653.082951 109.444654,653.647308 109.75125,654.370507 C110.057847,655.093706 110.211143,655.935172 110.211143,656.894931 L110.211143,664.2553 C110.211143,665.188023 110.051182,666.009213 109.731255,666.718894 C109.411328,667.428575 108.931445,667.986173 108.291591,668.391705 C107.651737,668.797237 106.858597,669 105.912146,669 Z M105.912146,666.242396 C106.272064,666.242396 106.532001,666.127497 106.691964,665.897696 C106.851928,665.667894 106.958568,665.394164 107.01189,665.076498 C107.065211,664.758831 107.091871,664.464825 107.091871,664.19447 L107.091871,656.95576 C107.091871,656.65837 107.068543,656.347467 107.021887,656.023041 C106.975231,655.698616 106.871923,655.418127 106.71196,655.181567 C106.551996,654.945006 106.285394,654.826728 105.912146,654.826728 C105.538898,654.826728 105.268964,654.945006 105.102335,655.181567 C104.935707,655.418127 104.829066,655.698616 104.78241,656.023041 C104.735754,656.347467 104.712426,656.65837 104.712426,656.95576 L104.712426,664.19447 C104.712426,664.464825 104.739086,664.758831 104.792408,665.076498 C104.845729,665.394164 104.959034,665.667894 105.132328,665.897696 C105.305622,666.127497 105.565559,666.242396 105.912146,666.242396 Z M117.453984,668.716129 L114.374703,652.292166 L117.234035,652.292166 L119.153587,663.647005 L120.953167,652.292166 L123.932472,652.292166 L120.853191,668.716129 L117.453984,668.716129 Z M124.382953,668.716129 L124.382953,652.292166 L126.682416,652.292166 L130.281576,660.848848 L130.281576,652.292166 L133.000942,652.292166 L133.000942,668.716129 L130.801455,668.716129 L127.202295,659.632258 L127.202295,668.716129 L124.382953,668.716129 Z M134.26014,668.716129 L134.26014,652.292166 L138.219216,652.292166 C139.592236,652.292166 140.661976,652.471273 141.428467,652.829493 C142.194959,653.187713 142.73816,653.74869 143.058087,654.512442 C143.378014,655.276194 143.537975,656.252836 143.537975,657.442396 L143.537975,663.423963 C143.537975,664.640559 143.378014,665.640856 143.058087,666.424885 C142.73816,667.208913 142.201624,667.786788 141.448463,668.158525 C140.695301,668.530263 139.645557,668.716129 138.299198,668.716129 L134.26014,668.716129 Z M137.55937,666.384332 L138.259207,666.384332 C138.8724,666.384332 139.308961,666.28633 139.568901,666.090323 C139.828842,665.894315 139.992135,665.603689 140.058787,665.218433 C140.125438,664.833178 140.158764,664.356685 140.158764,663.78894 L140.158764,657.01659 C140.158764,656.448845 140.115441,655.992628 140.028794,655.647926 C139.942147,655.303224 139.768856,655.04977 139.508915,654.887558 C139.248975,654.725345 138.825744,654.64424 138.239212,654.64424 L137.55937,654.64424 L137.55937,666.384332 Z M147.910783,668.716129 L152.749653,652.292166 L154.529238,652.292166 L149.670372,668.716129 L147.910783,668.716129 Z M160.667181,668.716129 L160.667181,654.786175 L158.167764,654.786175 L158.167764,652.292166 L166.445832,652.292166 L166.445832,654.786175 L163.986406,654.786175 L163.986406,668.716129 L160.667181,668.716129 Z M166.749511,668.716129 L166.749511,652.292166 L170.048741,652.292166 L170.048741,659.04424 L172.908074,659.04424 L172.908074,652.292166 L176.207304,652.292166 L176.207304,668.716129 L172.908074,668.716129 L172.908074,661.436866 L170.048741,661.436866 L170.048741,668.716129 L166.749511,668.716129 Z M176.698557,668.716129 L179.837824,652.292166 L183.49697,652.292166 L186.616242,668.716129 L183.556956,668.716129 L182.977092,665.106912 L180.417689,665.106912 L179.797833,668.716129 L176.698557,668.716129 Z M180.717619,663.058986 L182.657166,663.058986 L181.677395,656.428571 L180.717619,663.058986 Z M180.717619,651.0553 L181.95733,647 L185.016616,647 L182.55719,651.0553 L180.717619,651.0553 Z M186.944955,668.716129 L186.944955,652.292166 L189.244418,652.292166 L192.843578,660.848848 L192.843578,652.292166 L195.562943,652.292166 L195.562943,668.716129 L193.363457,668.716129 L189.764297,659.632258 L189.764297,668.716129 L186.944955,668.716129 Z M200.961176,668.959447 C199.868092,668.959447 199.001636,668.72627 198.361783,668.259908 C197.721929,667.793546 197.265373,667.131187 196.992102,666.272811 C196.718831,665.414435 196.582198,664.417517 196.582198,663.282028 L196.582198,657.787097 C196.582198,656.611054 196.722164,655.597239 197.0021,654.745622 C197.282036,653.894005 197.771917,653.238405 198.471757,652.778802 C199.171597,652.319199 200.121366,652.089401 201.321092,652.089401 C202.480827,652.089401 203.397271,652.285405 204.07045,652.677419 C204.74363,653.069434 205.226846,653.623652 205.520112,654.340092 C205.813378,655.056532 205.960009,655.908136 205.960009,656.894931 L205.960009,657.847926 L202.740761,657.847926 L202.740761,656.692166 C202.740761,656.259598 202.7141,655.877728 202.660779,655.546544 C202.607458,655.215359 202.484155,654.955147 202.290866,654.765899 C202.097576,654.57665 201.787652,654.482028 201.361083,654.482028 C200.921183,654.482028 200.601261,654.596927 200.401307,654.826728 C200.201352,655.05653 200.074716,655.350536 200.021395,655.708756 C199.968074,656.066976 199.941414,656.448846 199.941414,656.854378 L199.941414,664.133641 C199.941414,664.593243 199.981404,665.005528 200.061386,665.370507 C200.141368,665.735486 200.291331,666.019354 200.511281,666.22212 C200.731231,666.424886 201.04782,666.526267 201.461059,666.526267 C201.874298,666.526267 202.19422,666.418127 202.420835,666.201843 C202.64745,665.98556 202.804079,665.691553 202.890726,665.319816 C202.977372,664.948078 203.020695,664.525655 203.020695,664.052535 L203.020695,662.308756 L201.441064,662.308756 L201.441064,660.281106 L206,660.281106 L206,668.716129 L203.840504,668.716129 L203.640551,667.235945 C203.427266,667.736101 203.107344,668.148385 202.680775,668.472811 C202.254205,668.797237 201.681012,668.959447 200.961176,668.959447 Z" id="540.000VND/THÁNG" fill="#343D51" fill-rule="nonzero"></path>
    </g>
</svg>