<?xml version="1.0" encoding="UTF-8"?>
<svg width="320px" height="680px" viewBox="0 0 320 680" version="1.1" xmlns="http://www.w3.org/2000/svg" xmlns:xlink="http://www.w3.org/1999/xlink">
    <!-- Generator: Sketch 54.1 (76490) - https://sketchapp.com -->
    <title>dangky</title>
    <desc>Created with Sketch.</desc>
    <g id="dangky" stroke="none" stroke-width="1" fill="none" fill-rule="evenodd">
        <rect fill="#FFFFFF" x="0" y="0" width="320" height="680"></rect>
        <path d="M0.00147110516,4.3907976 L5.18185728,1.28256589 C8.13100257,-0.486921279 11.8307452,-0.420958389 14.7149396,1.45253168 L15.0988505,1.7019092 C18.0803644,3.63861514 21.9225778,3.63861514 24.9040917,1.7019092 L25.0988505,1.57539941 C28.0803644,-0.361306527 31.9225778,-0.361306527 34.9040917,1.57539941 L35.0988505,1.7019092 C38.0803644,3.63861514 41.9225778,3.63861514 44.9040917,1.7019092 L45.0988505,1.57539941 C48.0803644,-0.361306527 51.9225778,-0.361306527 54.9040917,1.57539941 L55.0988505,1.7019092 C58.0803644,3.63861514 61.9225778,3.63861514 64.9040917,1.7019092 L65.0988505,1.57539941 C68.0803644,-0.361306527 71.9225778,-0.361306527 74.9040917,1.57539941 L75.0988505,1.7019092 C78.0803644,3.63861514 81.9225778,3.63861514 84.9040917,1.7019092 L85.0988505,1.57539941 C88.0803644,-0.361306527 91.9225778,-0.361306527 94.9040917,1.57539941 L95.0988505,1.7019092 C98.0803644,3.63861514 101.922578,3.63861514 104.904092,1.7019092 L105.097534,1.57625461 C108.079719,-0.360887454 111.922917,-0.360416031 114.904627,1.57745759 L115.096337,1.70205427 C118.079056,3.64058347 121.923732,3.64034645 124.906212,1.70144949 L125.094958,1.57874615 C128.077591,-0.360250549 131.922493,-0.360379791 134.905256,1.57841639 L135.095105,1.70181815 C138.077684,3.64049475 141.922316,3.64049475 144.904895,1.70181815 L145.095105,1.57818185 C148.077684,-0.360494753 151.922316,-0.360494753 154.904895,1.57818185 L155.095105,1.70181815 C158.077684,3.64049475 161.922316,3.64049475 164.904895,1.70181815 L165.095105,1.57818185 C168.077684,-0.360494753 171.922316,-0.360494753 174.904895,1.57818185 L175.095105,1.70181815 C178.077684,3.64049475 181.922316,3.64049475 184.904895,1.70181815 L185.095105,1.57818185 C188.077684,-0.360494753 191.922316,-0.360494753 194.904895,1.57818185 L195.095105,1.70181815 C198.077684,3.64049475 201.922316,3.64049475 204.904895,1.70181815 L205.095105,1.57818185 C208.077684,-0.360494753 211.922316,-0.360494753 214.904895,1.57818185 L215.095105,1.70181815 C218.077684,3.64049475 221.922316,3.64049475 224.904895,1.70181815 L225.095105,1.57818185 C228.077684,-0.360494753 231.922316,-0.360494753 234.904895,1.57818185 L235.095105,1.70181815 C238.077684,3.64049475 241.922316,3.64049475 244.904895,1.70181815 L245.095105,1.57818185 C248.077684,-0.360494753 251.922316,-0.360494753 254.904895,1.57818185 L255.095105,1.70181815 C258.077684,3.64049475 261.922316,3.64049475 264.904895,1.70181815 L265.095105,1.57818185 C268.077684,-0.360494753 271.922316,-0.360494753 274.904895,1.57818185 L275.095105,1.70181815 C278.077684,3.64049475 281.922316,3.64049475 284.904895,1.70181815 L285.095105,1.57818185 C288.077684,-0.360494753 291.922316,-0.360494753 294.904895,1.57818185 L295.095105,1.70181815 C298.077684,3.64049475 301.922316,3.64049475 304.904895,1.70181815 L305.095105,1.57818185 C308.077684,-0.360494753 311.922316,-0.360494753 314.904895,1.57818185 L320,4.89 L320,188 L0,188 L0.00147110516,4.3907976 Z" id="Rectangle" fill="#E1F5FE" transform="translate(160.000000, 94.000000) scale(1, -1) translate(-160.000000, -94.000000) "></path>
        <text id="—-Hãy-chắc-chắn-rằng" font-family="Georgia-Italic, Georgia" font-size="14" font-style="italic" font-weight="normal" line-spacing="22" fill="#5D6A80">
            <tspan x="30" y="99">— Hãy chắc chắn rằng bạn đã đọc &amp; </tspan>
            <tspan x="30" y="121">đồng ý với Chanchan những điều dưới </tspan>
            <tspan x="30" y="143">đây trước khi đăng ký.</tspan>
        </text>
        <text id="Đăng-ký" font-family="SFCompactDisplay-Semibold, SF Compact Display" font-size="26" font-weight="500" line-spacing="26" letter-spacing="-1.56" fill="#191F2C">
            <tspan x="30" y="65">Đăng ký</tspan>
        </text>
        <text id="Bạn-hiện-đang-sinh-s" font-family="SFCompactDisplay-Regular, SF Compact Display" font-size="15" font-weight="normal" line-spacing="22" fill="#4D5B72">
            <tspan x="30" y="270">Bạn hiện đang sinh sống làm việc tại </tspan>
            <tspan x="30" y="292">Việt Nam có độ tuổi 20 - 45 &amp; hiện đang </tspan>
            <tspan x="30" y="314">độc thân.</tspan>
        </text>
        <text id="Chanchan-là-Chương-t" font-family="SFCompactDisplay-Regular, SF Compact Display" font-size="15" font-weight="normal" line-spacing="22" fill="#4D5B72">
            <tspan x="30" y="400">Chanchan là Chương trình trả phí. Sau </tspan>
            <tspan x="30" y="422">khi đăng ký &amp; hoàn tất thanh toán </tspan>
            <tspan x="30" y="444">chương trình của bạn được kích hoạt tại </tspan>
            <tspan x="30" y="466">Chanchan.</tspan>
        </text>
        <text id="i/." font-family="Georgia-Italic, Georgia" font-size="18" font-style="italic" font-weight="normal" line-spacing="20" letter-spacing="-0.720000029" fill="#343D51">
            <tspan x="30" y="239">i/.</tspan>
            <tspan x="46.4816015" y="239"> </tspan>
        </text>
        <text id="Về-bạn" font-family="SFCompactDisplay-Semibold, SF Compact Display" font-size="20" font-weight="500" line-spacing="20" letter-spacing="-1" fill="#343D51">
            <tspan x="53" y="239">Về bạn</tspan>
        </text>
        <text id="ii/." font-family="Georgia-Italic, Georgia" font-size="18" font-style="italic" font-weight="normal" line-spacing="20" letter-spacing="-0.720000029" fill="#343D51">
            <tspan x="30" y="369">ii/.</tspan>
            <tspan x="51.1141405" y="369"> </tspan>
        </text>
        <text id="Về-chương-trình" font-family="SFCompactDisplay-Semibold, SF Compact Display" font-size="20" font-weight="500" line-spacing="20" letter-spacing="-1" fill="#343D51">
            <tspan x="58" y="369">Về chương trình</tspan>
        </text>
        <text id="Bạn-sẽ-hoàn-thành-&amp;" font-family="Georgia-Italic, Georgia" font-size="14" font-style="italic" font-weight="normal" line-spacing="22" fill="#5D6A80">
            <tspan x="30" y="499">Bạn sẽ hoàn thành &amp; kết thúc chương </tspan>
            <tspan x="30" y="521">trình khi bạn &amp; “người ấy” tìm thấy nhau </tspan>
            <tspan x="30" y="543">trong những Triển vọng mà cả hai đang </tspan>
            <tspan x="30" y="565">có ở Chanchan. Kết quả này luôn có xác </tspan>
            <tspan x="30" y="587">nhận của hai người.</tspan>
        </text>
        <text id="Chanchan-có-hai-lựa" font-family="SFCompactDisplay-Regular, SF Compact Display" font-size="15" font-weight="normal" line-spacing="22" fill="#4D5B72">
            <tspan x="30" y="622">Chanchan có hai lựa chọn về Chương </tspan>
            <tspan x="30" y="644">trình khi bạn đăng ký mới.</tspan>
        </text>
    </g>
</svg>