<?xml version="1.0" encoding="UTF-8"?>
<svg width="320px" height="680px" viewBox="0 0 320 680" version="1.1" xmlns="http://www.w3.org/2000/svg" xmlns:xlink="http://www.w3.org/1999/xlink">
    <!-- Generator: Sketch 54.1 (76490) - https://sketchapp.com -->
    <title>fancung</title>
    <desc>Created with Sketch.</desc>
    <defs>
        <polygon id="path-1" points="273 631 273 645 272 645 272 631 268 631 272.5 622 277 631"></polygon>
        <filter x="-100.0%" y="-21.7%" width="255.6%" height="160.9%" filterUnits="objectBoundingBox" id="filter-2">
            <feOffset dx="-2" dy="2" in="SourceAlpha" result="shadowOffsetOuter1"></feOffset>
            <feGaussianBlur stdDeviation="2" in="shadowOffsetOuter1" result="shadowBlurOuter1"></feGaussianBlur>
            <feColorMatrix values="0 0 0 0 0   0 0 0 0 0   0 0 0 0 0  0 0 0 0.5 0" type="matrix" in="shadowBlurOuter1"></feColorMatrix>
        </filter>
    </defs>
    <g id="fancung" stroke="none" stroke-width="1" fill="none" fill-rule="evenodd">
        <path d="M3.04720534,1.0003845e-11 C3.01573507,0.166825717 3,0.339902531 3,0.519230769 C3,1.19872135 3.22884537,1.78204885 3.68654298,2.26923077 C4.14424058,2.75641269 4.68408094,3 5.30608025,3 C5.91634372,3 6.45325017,2.75961779 6.91681569,2.27884615 C7.38038122,1.79807452 7.6121605,1.21154192 7.6121605,0.519230769 C7.6121605,0.339902531 7.59622108,0.166825717 7.5643421,1.00044556e-11 L12.7468253,1.00044417e-11 C12.7153551,0.166825717 12.69962,0.339902531 12.69962,0.519230769 C12.69962,1.19872135 12.9284654,1.78204885 13.386163,2.26923077 C13.8438606,2.75641269 14.3837009,3 15.0057002,3 C15.6159637,3 16.1528702,2.75961779 16.6164357,2.27884615 C17.0800012,1.79807452 17.3117805,1.21154192 17.3117805,0.519230769 C17.3117805,0.339902531 17.2958411,0.166825717 17.2639621,1.00042336e-11 L22.4464453,1.00044417e-11 C22.414975,0.166825717 22.39924,0.339902531 22.39924,0.519230769 C22.39924,1.19872135 22.6280853,1.78204885 23.0857829,2.26923077 C23.5434805,2.75641269 24.0833209,3 24.7053202,3 C25.3273195,3 25.8671599,2.75641269 26.3248575,2.26923077 C26.7825551,1.78204885 27.0114005,1.19872135 27.0114005,0.519230769 C27.0114005,0.339902531 26.9956654,0.166825717 26.9641951,1.00042336e-11 L32.1460653,1.00044417e-11 C32.114595,0.166825717 32.09886,0.339902531 32.09886,0.519230769 C32.09886,1.19872135 32.3277053,1.78204885 32.7854029,2.26923077 C33.2431005,2.75641269 33.7829409,3 34.4049402,3 C35.0152037,3 35.5521101,2.75961779 36.0156756,2.27884615 C36.4792412,1.79807452 36.7110205,1.21154192 36.7110205,0.519230769 C36.7110205,0.339902531 36.695081,0.166825717 36.6632021,1.00042336e-11 L41.8456853,1.00044417e-11 C41.814215,0.166825717 41.7984799,0.339902531 41.7984799,0.519230769 C41.7984799,1.19872135 42.0273253,1.78204885 42.4850229,2.26923077 C42.9427205,2.75641269 43.4825609,3 44.1045602,3 C44.7148237,3 45.2517301,2.75961779 45.7152956,2.27884615 C46.1788612,1.79807452 46.4106404,1.21154192 46.4106404,0.519230769 C46.4106404,0.339902531 46.394701,0.166825717 46.362822,1.00042336e-11 L51.5453053,1.00044417e-11 C51.513835,0.166825717 51.4980999,0.339902531 51.4980999,0.519230769 C51.4980999,1.19872135 51.7269453,1.78204885 52.1846429,2.26923077 C52.6423405,2.75641269 53.1821809,3 53.8041802,3 C54.4261795,3 54.9660198,2.75641269 55.4237174,2.26923077 C55.8814151,1.78204885 56.1102604,1.19872135 56.1102604,0.519230769 C56.1102604,0.339902531 56.0945254,0.166825717 56.0630551,1.00042336e-11 L61.2449252,1.00044417e-11 C61.213455,0.166825717 61.1977199,0.339902531 61.1977199,0.519230769 C61.1977199,1.19872135 61.4265653,1.78204885 61.8842629,2.26923077 C62.3419605,2.75641269 62.8818008,3 63.5038002,3 C64.1140636,3 64.6509701,2.75961779 65.1145356,2.27884615 C65.5781011,1.79807452 65.8098804,1.21154192 65.8098804,0.519230769 C65.8098804,0.339902531 65.793941,0.166825717 65.762062,1.00044556e-11 L70.9445452,1.00044417e-11 C70.913075,0.166825717 70.8973399,0.339902531 70.8973399,0.519230769 C70.8973399,1.19872135 71.1261853,1.78204885 71.5838829,2.26923077 C72.0415805,2.75641269 72.5814208,3 73.2034201,3 C73.8136836,3 74.3505901,2.75961779 74.8141556,2.27884615 C75.2777211,1.79807452 75.5095004,1.21154192 75.5095004,0.519230769 C75.5095004,0.339902531 75.493561,0.166825717 75.461682,1.00044556e-11 L80.6441652,1.00044417e-11 C80.6126949,0.166825717 80.5969599,0.339902531 80.5969599,0.519230769 C80.5969599,1.19872135 80.8258052,1.78204885 81.2835029,2.26923077 C81.7412005,2.75641269 82.2810408,3 82.9030401,3 C83.5250394,3 84.0648798,2.75641269 84.5225774,2.26923077 C84.980275,1.78204885 85.2091204,1.19872135 85.2091204,0.519230769 C85.2091204,0.339902531 85.1933853,0.166825717 85.161915,1.00042336e-11 L90.3437852,1.00044417e-11 C90.3123149,0.166825717 90.2965799,0.339902531 90.2965799,0.519230769 C90.2965799,1.19872135 90.5254252,1.78204885 90.9831228,2.26923077 C91.4408204,2.75641269 91.9806608,3 92.6026601,3 C93.2129236,3 93.74983,2.75961779 94.2133956,2.27884615 C94.6769611,1.79807452 94.9087404,1.21154192 94.9087404,0.519230769 C94.9087404,0.339902531 94.8928009,0.166825717 94.860922,1.00042336e-11 L100.043405,1.00044417e-11 C100.011935,0.166825717 99.9961998,0.339902531 99.9961998,0.519230769 C99.9961998,1.19872135 100.225045,1.78204885 100.682743,2.26923077 C101.14044,2.75641269 101.680281,3 102.30228,3 C102.912544,3 103.44945,2.75961779 103.913016,2.27884615 C104.376581,1.79807452 104.60836,1.21154192 104.60836,0.519230769 C104.60836,0.339902531 104.592421,0.166825717 104.560542,1.00042336e-11 L109.743025,1.00044417e-11 C109.711555,0.166825717 109.69582,0.339902531 109.69582,0.519230769 C109.69582,1.19872135 109.924665,1.78204885 110.382363,2.26923077 C110.84006,2.75641269 111.379901,3 112.0019,3 C112.623899,3 113.16374,2.75641269 113.621437,2.26923077 C114.079135,1.78204885 114.30798,1.19872135 114.30798,0.519230769 C114.30798,0.339902531 114.292245,0.166825717 114.260775,9.9962677e-12 L119.442645,1.00044417e-11 C119.411175,0.166825717 119.39544,0.339902531 119.39544,0.519230769 C119.39544,1.19872135 119.624285,1.78204885 120.081983,2.26923077 C120.53968,2.75641269 121.079521,3 121.70152,3 C122.311784,3 122.84869,2.75961779 123.312256,2.27884615 C123.775821,1.79807452 124.0076,1.21154192 124.0076,0.519230769 C124.0076,0.339902531 123.991661,0.166825717 123.959782,1.00042336e-11 L129.142265,1.00044417e-11 C129.110795,0.166825717 129.09506,0.339902531 129.09506,0.519230769 C129.09506,1.19872135 129.323905,1.78204885 129.781603,2.26923077 C130.2393,2.75641269 130.779141,3 131.40114,3 C132.011404,3 132.54831,2.75961779 133.011875,2.27884615 C133.475441,1.79807452 133.70722,1.21154192 133.70722,0.519230769 C133.70722,0.339902531 133.691281,0.166825717 133.659402,1.00042336e-11 L138.841885,1.00044417e-11 C138.810415,0.166825717 138.79468,0.339902531 138.79468,0.519230769 C138.79468,1.19872135 139.023525,1.78204885 139.481223,2.26923077 C139.93892,2.75641269 140.478761,3 141.10076,3 C141.722759,3 142.2626,2.75641269 142.720297,2.26923077 C143.177995,1.78204885 143.40684,1.19872135 143.40684,0.519230769 C143.40684,0.339902531 143.391105,0.166825717 143.359635,9.96674965e-12 L148.541505,1.00044417e-11 C148.510035,0.166825717 148.4943,0.339902531 148.4943,0.519230769 C148.4943,1.19872135 148.723145,1.78204885 149.180843,2.26923077 C149.63854,2.75641269 150.178381,3 150.80038,3 C151.410643,3 151.94755,2.75961779 152.411115,2.27884615 C152.874681,1.79807452 153.10646,1.21154192 153.10646,0.519230769 C153.10646,0.339902531 153.090521,0.166825717 153.058642,1.00042336e-11 L158.241125,1.00044417e-11 C158.209655,0.166825717 158.19392,0.339902531 158.19392,0.519230769 C158.19392,1.19872135 158.422765,1.78204885 158.880463,2.26923077 C159.33816,2.75641269 159.878001,3 160.5,3 C161.110263,3 161.64717,2.75961779 162.110735,2.27884615 C162.574301,1.79807452 162.80608,1.21154192 162.80608,0.519230769 C162.80608,0.339902531 162.790141,0.166825717 162.758262,1.00120329e-11 L167.940745,1.00044417e-11 C167.909275,0.166825717 167.89354,0.339902531 167.89354,0.519230769 C167.89354,1.19872135 168.122385,1.78204885 168.580083,2.26923077 C169.03778,2.75641269 169.577621,3 170.19962,3 C170.821619,3 171.36146,2.75641269 171.819157,2.26923077 C172.276855,1.78204885 172.5057,1.19872135 172.5057,0.519230769 C172.5057,0.339902531 172.489965,0.166825717 172.458495,9.96674965e-12 L177.640365,1.00044417e-11 C177.608895,0.166825717 177.59316,0.339902531 177.59316,0.519230769 C177.59316,1.19872135 177.822005,1.78204885 178.279703,2.26923077 C178.7374,2.75641269 179.277241,3 179.89924,3 C180.509503,3 181.04641,2.75961779 181.509975,2.27884615 C181.973541,1.79807452 182.20532,1.21154192 182.20532,0.519230769 C182.20532,0.339902531 182.189381,0.166825717 182.157502,1.00044556e-11 L187.339985,1.00044417e-11 C187.308515,0.166825717 187.29278,0.339902531 187.29278,0.519230769 C187.29278,1.19872135 187.521625,1.78204885 187.979323,2.26923077 C188.43702,2.75641269 188.976861,3 189.59886,3 C190.209123,3 190.74603,2.75961779 191.209595,2.27884615 C191.673161,1.79807452 191.90494,1.21154192 191.90494,0.519230769 C191.90494,0.339902531 191.889001,0.166825717 191.857122,1.00042336e-11 L197.039605,1.00044417e-11 C197.008135,0.166825717 196.9924,0.339902531 196.9924,0.519230769 C196.9924,1.19872135 197.221245,1.78204885 197.678943,2.26923077 C198.13664,2.75641269 198.676481,3 199.29848,3 C199.920479,3 200.46032,2.75641269 200.918017,2.26923077 C201.375715,1.78204885 201.60456,1.19872135 201.60456,0.519230769 C201.60456,0.339902531 201.588825,0.166825717 201.557355,9.96674965e-12 L206.739225,1.00044417e-11 C206.707755,0.166825717 206.69202,0.339902531 206.69202,0.519230769 C206.69202,1.19872135 206.920865,1.78204885 207.378563,2.26923077 C207.83626,2.75641269 208.376101,3 208.9981,3 C209.608363,3 210.14527,2.75961779 210.608835,2.27884615 C211.072401,1.79807452 211.30418,1.21154192 211.30418,0.519230769 C211.30418,0.339902531 211.288241,0.166825717 211.256362,1.00042336e-11 L216.438845,1.00044417e-11 C216.407375,0.166825717 216.39164,0.339902531 216.39164,0.519230769 C216.39164,1.19872135 216.620485,1.78204885 217.078183,2.26923077 C217.53588,2.75641269 218.075721,3 218.69772,3 C219.307983,3 219.84489,2.75961779 220.308455,2.27884615 C220.772021,1.79807452 221.0038,1.21154192 221.0038,0.519230769 C221.0038,0.339902531 220.987861,0.166825717 220.955982,1.00042336e-11 L226.138465,1.00044417e-11 C226.106995,0.166825717 226.09126,0.339902531 226.09126,0.519230769 C226.09126,1.19872135 226.320105,1.78204885 226.777803,2.26923077 C227.2355,2.75641269 227.775341,3 228.39734,3 C229.019339,3 229.55918,2.75641269 230.016877,2.26923077 C230.474575,1.78204885 230.70342,1.19872135 230.70342,0.519230769 C230.70342,0.339902531 230.687685,0.166825717 230.656215,1.00042336e-11 L235.838085,1.00044417e-11 C235.806615,0.166825717 235.79088,0.339902531 235.79088,0.519230769 C235.79088,1.19872135 236.019725,1.78204885 236.477423,2.26923077 C236.93512,2.75641269 237.474961,3 238.09696,3 C238.707223,3 239.24413,2.75961779 239.707695,2.27884615 C240.171261,1.79807452 240.40304,1.21154192 240.40304,0.519230769 C240.40304,0.339902531 240.387101,0.166825717 240.355222,1.00223441e-11 L245.537705,1.00044417e-11 C245.506235,0.166825717 245.4905,0.339902531 245.4905,0.519230769 C245.4905,1.19872135 245.719345,1.78204885 246.177043,2.26923077 C246.63474,2.75641269 247.174581,3 247.79658,3 C248.406843,3 248.94375,2.75961779 249.407315,2.27884615 C249.870881,1.79807452 250.10266,1.21154192 250.10266,0.519230769 C250.10266,0.339902531 250.086721,0.166825717 250.054842,1.00120329e-11 L255.237325,1.00044417e-11 C255.205855,0.166825717 255.19012,0.339902531 255.19012,0.519230769 C255.19012,1.19872135 255.418965,1.78204885 255.876663,2.26923077 C256.33436,2.75641269 256.874201,3 257.4962,3 C258.118199,3 258.65804,2.75641269 259.115737,2.26923077 C259.573435,1.78204885 259.80228,1.19872135 259.80228,0.519230769 C259.80228,0.339902531 259.786545,0.166825717 259.755075,1.00042336e-11 L264.936945,1.00044417e-11 C264.905475,0.166825717 264.88974,0.339902531 264.88974,0.519230769 C264.88974,1.19872135 265.118585,1.78204885 265.576283,2.26923077 C266.03398,2.75641269 266.573821,3 267.19582,3 C267.806083,3 268.34299,2.75961779 268.806555,2.27884615 C269.270121,1.79807452 269.5019,1.21154192 269.5019,0.519230769 C269.5019,0.339902531 269.485961,0.166825717 269.454082,9.94844485e-12 L274.636565,1.00044417e-11 C274.605095,0.166825717 274.58936,0.339902531 274.58936,0.519230769 C274.58936,1.19872135 274.818205,1.78204885 275.275903,2.26923077 C275.7336,2.75641269 276.273441,3 276.89544,3 C277.505703,3 278.04261,2.75961779 278.506175,2.27884615 C278.969741,1.79807452 279.20152,1.21154192 279.20152,0.519230769 C279.20152,0.339902531 279.185581,0.166825717 279.153702,1.00044556e-11 L284.336185,1.00044417e-11 C284.304715,0.166825717 284.28898,0.339902531 284.28898,0.519230769 C284.28898,1.19872135 284.517825,1.78204885 284.975523,2.26923077 C285.43322,2.75641269 285.97306,3 286.59506,3 C287.217059,3 287.756899,2.75641269 288.214597,2.26923077 C288.672295,1.78204885 288.90114,1.19872135 288.90114,0.519230769 C288.90114,0.339902531 288.885405,0.166825717 288.853935,1.00042336e-11 L294.035805,1.00044417e-11 C294.004335,0.166825717 293.9886,0.339902531 293.9886,0.519230769 C293.9886,1.19872135 294.217445,1.78204885 294.675143,2.26923077 C295.13284,2.75641269 295.67268,3 296.29468,3 C296.904943,3 297.44185,2.75961779 297.905415,2.27884615 C298.368981,1.79807452 298.60076,1.21154192 298.60076,0.519230769 C298.60076,0.339902531 298.584821,0.166825717 298.552942,1.00044556e-11 L303.735425,1.00044417e-11 C303.703955,0.166825717 303.68822,0.339902531 303.68822,0.519230769 C303.68822,1.19872135 303.917065,1.78204885 304.374762,2.26923077 C304.83246,2.75641269 305.3723,3 305.9943,3 C306.604563,3 307.14147,2.75961779 307.605035,2.27884615 C308.068601,1.79807452 308.30038,1.21154192 308.30038,0.519230769 C308.30038,0.339902531 308.284441,0.166825717 308.252562,1.00042336e-11 L313.435045,1.00044417e-11 C313.403575,0.166825717 313.387839,0.339902531 313.387839,0.519230769 C313.387839,1.19872135 313.616685,1.78204885 314.074382,2.26923077 C314.53208,2.75641269 315.07192,3 315.69392,3 C316.315919,3 316.855759,2.75641269 317.313457,2.26923077 C317.771155,1.78204885 318,1.19872135 318,0.519230769 C318,0.339902531 317.984265,0.166825717 317.952795,1.00044556e-11 L320,1.00044417e-11 L320,680 L0,680 L0,1.00044417e-11 L3.04720534,1.00044417e-11 Z" id="Rectangle-2" fill="#ECF5FA"></path>
        <text id="Bằng-cách-trở-thành" font-family="SFCompactDisplay-Regular, SF Compact Display" font-size="15" font-weight="normal" line-spacing="22" fill="#4D5B72">
            <tspan x="30" y="84">Bằng cách trở thành Fan cứng, bạn sẽ </tspan>
            <tspan x="30" y="106">đồng hành cùng Team phát triển làm </tspan>
            <tspan x="30" y="128">cho Chanchan trở nên tuyệt vời hơn với </tspan>
            <tspan x="30" y="150">tất cả mọi người.</tspan>
        </text>
        <text id="Bạn-cùng-những-Fan-c" font-family="SFCompactDisplay-Regular, SF Compact Display" font-size="15" font-weight="normal" line-spacing="22" fill="#4D5B72">
            <tspan x="30" y="222">Bạn cùng những Fan cứng khác sẽ là </tspan>
            <tspan x="30" y="244">những Thành viên đầu tiên nhận được </tspan>
            <tspan x="30" y="266">những Phiên bản cập nhật mới nhất của </tspan>
            <tspan x="30" y="288">Chanchan trước thời điểm phát hành.</tspan>
        </text>
        <text id="Bằng-cách-sử-dụng-ph" font-family="SFCompactDisplay-Regular, SF Compact Display" font-size="15" font-weight="normal" line-spacing="22" fill="#4D5B72">
            <tspan x="30" y="322">Bằng cách sử dụng phiên bản mới nhất </tspan>
            <tspan x="30" y="344">này, bạn cùng các Fan cứng phản hồi </tspan>
            <tspan x="30" y="366">cho Team biết được rằng những chi tiết/</tspan>
            <tspan x="30" y="388">tính năng nào trong Chanchan khiến </tspan>
            <tspan x="30" y="410">bạn có trải nghiệm chưa tốt, hoặc nên </tspan>
            <tspan x="30" y="432">ra sao để bạn có trải nghiệm tốt hơn khi </tspan>
            <tspan x="30" y="454">sử dụng.</tspan>
        </text>
        <text id="Bằng-cách-này-bạn-gi" font-family="SFCompactDisplay-Regular, SF Compact Display" font-size="15" font-weight="normal" line-spacing="22" fill="#4D5B72">
            <tspan x="30" y="488">Bằng cách này bạn giúp chúng tôi cải </tspan>
            <tspan x="30" y="510">tiến kịp thời để có thể mang lại những </tspan>
            <tspan x="30" y="532">Phiên bản tốt nhất với trải nghiệm tuyệt </tspan>
            <tspan x="30" y="554">vời nhất đến tất cả Thành viên tại thời </tspan>
            <tspan x="30" y="576">điểm phát hành chính thức của mỗi </tspan>
            <tspan x="30" y="598">Phiên bản.</tspan>
        </text>
        <text id="—-Tôi-đã-hiểu." font-family="Georgia-Italic, Georgia" font-size="14" font-style="italic" font-weight="normal" line-spacing="22" fill="#5D6A80">
            <tspan x="30" y="635">— Tôi đã hiểu. </tspan>
        </text>
        <circle id="Oval" fill-opacity="0.5" fill="#B3E5FC" cx="272" cy="633" r="18"></circle>
        <g id="Line-2" fill-rule="nonzero">
            <use fill="black" fill-opacity="1" filter="url(#filter-2)" xlink:href="#path-1"></use>
            <use fill="#343D51" xlink:href="#path-1"></use>
        </g>
        <text id="—-Điều-này-xảy-ra-nh" font-family="Georgia-Italic, Georgia" font-size="14" font-style="italic" font-weight="normal" line-spacing="22" fill="#5D6A80">
            <tspan x="30" y="187">— Điều này xảy ra như thế nào?</tspan>
        </text>
        <path d="M49.2243882,54.0155329 C48.813989,54.7675415 47.9345621,55.4134976 46.4102221,55.4134976 C44.3875402,55.4134976 43,54.2372791 43,52.309052 C43,50.4772362 44.2898261,49.3010177 46.693593,49.3010177 L49.2243882,49.3010177 L49.2243882,48.3754687 C49.2243882,47.3535083 48.599018,46.7846813 47.5143915,46.7846813 C46.4590792,46.7846813 45.8532517,47.334226 45.7848519,48.1537225 L43.381085,48.1537225 C43.4592563,46.4472416 44.573197,44.8660953 47.5632485,44.8660953 C49.9474726,44.8660953 51.7649548,45.9651848 51.7649548,48.3465453 L51.7649548,55.2592394 L49.3318737,55.2592394 L49.3318737,54.0155329 L49.2243882,54.0155329 Z M47.240792,53.5623996 C48.3449613,53.5623996 49.2243882,52.8971612 49.2243882,51.9041243 L49.2243882,50.8243171 L47.2505634,50.8243171 C46.1170798,50.8243171 45.5601094,51.3642207 45.5601094,52.1451527 C45.5601094,53.0996251 46.3809079,53.5623996 47.240792,53.5623996 Z M53.0266393,55.2592394 L53.0266393,45.0299946 L55.5281203,45.0299946 L55.5281203,46.5243706 L55.6356058,46.5243706 C55.9678337,45.8205678 56.9156605,44.8660953 58.6452001,44.8660953 C60.7558247,44.8660953 62.2313076,46.1676486 62.2313076,48.6743439 L62.2313076,55.2592394 L59.6614267,55.2592394 L59.6614267,49.2238886 C59.6614267,47.6523835 58.7429142,47.0257097 57.6387449,47.0257097 C56.3098331,47.0257097 55.5867487,47.970541 55.5867487,49.2624531 L55.5867487,55.2592394 L53.0266393,55.2592394 Z M65.7806746,50.5158007 L65.7806746,49.6673808 C65.7806746,46.832887 67.5004428,44.8468131 70.3927801,44.8468131 C73.011518,44.8468131 74.6042579,46.4858061 74.6628864,48.4525978 L72.2884337,48.4525978 C72.151634,47.6041778 71.4676353,46.8714515 70.5100371,46.8714515 C69.1713539,46.8714515 68.3603269,47.9512587 68.3603269,49.6963042 L68.3603269,50.5061596 C68.3603269,52.309052 69.1908967,53.4081414 70.5198085,53.4081414 C71.6630635,53.4081414 72.2200338,52.7236208 72.3372908,51.9426888 L74.7117434,51.9426888 C74.4967724,54.2276379 72.8356327,55.442421 70.3830087,55.442421 C67.5199856,55.442421 65.7806746,53.4949116 65.7806746,50.5158007 Z M81.9144452,53.7648634 C81.5919887,54.5650777 80.6343905,55.4134976 78.9243937,55.4134976 C76.8039977,55.4134976 75.3773719,54.1987145 75.3773719,51.7884306 L75.3773719,45.0299946 L77.9472527,45.0299946 L77.9472527,51.1135512 C77.9472527,52.8007499 78.9146223,53.2635244 79.930849,53.2635244 C81.0838753,53.2635244 81.9633022,52.5211569 81.9633022,51.0846277 L81.9633022,45.0299946 L84.2498122,45.0299946 C85.1096963,45.0299946 85.2758103,44.557579 85.2758103,43.7862882 L85.2758103,42.4365292 L87.3375778,42.4365292 L87.3375778,44.0465988 C87.3375778,45.5891805 86.5070079,46.8039636 84.7676969,46.8039636 L84.5429545,46.8039636 L84.5429545,55.2592394 L82.0317021,55.2592394 L82.0317021,53.7648634 L81.9144452,53.7648634 Z M80.8200473,43.8055704 L79.0123364,43.8055704 L80.9959327,41 L83.2628998,41 L80.8200473,43.8055704 Z M87.3973788,55.2592394 L87.3973788,45.0299946 L89.8988598,45.0299946 L89.8988598,46.5243706 L90.0063453,46.5243706 C90.3385733,45.8205678 91.2864,44.8660953 93.0159396,44.8660953 C95.1265642,44.8660953 96.6020471,46.1676486 96.6020471,48.6743439 L96.6020471,55.2592394 L94.0321663,55.2592394 L94.0321663,49.2238886 C94.0321663,47.6523835 93.1136537,47.0257097 92.0094844,47.0257097 C90.6805726,47.0257097 89.9574883,47.970541 89.9574883,49.2624531 L89.9574883,55.2592394 L87.3973788,55.2592394 Z M102.22178,57.1392608 C103.599549,57.1392608 104.430119,56.3486877 104.430119,54.9700054 L104.430119,53.5141939 L104.322634,53.5141939 C103.931777,54.4108195 102.847151,55.1242635 101.400982,55.1242635 C99.0460722,55.1242635 97.4435609,53.4563471 97.4435609,50.3133369 L97.4435609,49.677022 C97.4435609,46.5725763 99.0363008,44.8950187 101.400982,44.8950187 C102.827608,44.8950187 103.931777,45.5988216 104.351948,46.5340118 L104.459433,46.5340118 L104.459433,45.0299946 L107,45.0299946 L107,55.1339047 C107,57.929834 104.527833,59 102.182695,59 C99.2024148,59 97.8148745,57.6020354 97.6683034,55.8955544 L100.160013,55.8955544 C100.326127,56.6186395 101.088297,57.1392608 102.22178,57.1392608 Z M102.280409,46.9196572 C100.912412,46.9196572 100.081842,47.9223353 100.081842,49.7637922 L100.081842,50.3615426 C100.081842,52.1933583 100.912412,53.2153187 102.280409,53.2153187 C103.609321,53.2153187 104.430119,52.1837172 104.430119,50.3615426 L104.430119,49.7637922 C104.430119,47.9608998 103.570235,46.9196572 102.280409,46.9196572 Z" id="ancứng" fill="#343D51" fill-rule="nonzero"></path>
        <path d="M44,36.4144609 C44,36.651174 43.9625922,36.9115544 43.8877756,37.1956101 C43.8129589,37.4796657 43.6913836,37.7211094 43.5230461,37.9199484 C43.3266523,38.1566614 43.1068816,38.3365606 42.8637275,38.4596514 C42.6205733,38.5827422 42.2558475,38.6442866 41.7695391,38.6442866 C41.0307244,38.6442866 40.4509039,38.3839062 40.0300601,37.8631375 C39.6092163,37.3423688 39.160323,36.4760121 38.6833667,35.2640413 C38.3092834,35.4250062 38.0053452,35.8416149 37.7715431,36.5138799 C37.537741,37.186145 37.4208417,38.6300728 37.4208417,40.8457069 L37.4208417,41.9677211 L41.2925852,41.9677211 L41.2925852,43.5016139 L37.4488978,43.5016139 L37.4488978,53.2872821 C37.4488978,53.6565545 37.5330653,53.9429729 37.7014028,54.1465462 C37.8697403,54.3501194 38.089511,54.4992464 38.3607214,54.5939316 C38.5851715,54.6696797 38.8797577,54.7430597 39.244489,54.8140736 C39.6092203,54.8850875 39.9365383,54.9347965 40.2264529,54.9632021 L40.2264529,56 L30.757515,56 L30.757515,54.9632021 C31.0006692,54.944265 31.2368058,54.9205941 31.4659319,54.8921885 C31.6950579,54.8637829 31.8984627,54.816441 32.0761523,54.7501614 C32.375419,54.6365391 32.5788238,54.4732096 32.6863727,54.2601679 C32.7939217,54.0471261 32.8476954,53.7654418 32.8476954,53.4151065 L32.8476954,43.5016139 L30,43.5016139 L30,41.9677211 L32.8476954,41.9677211 C32.8476954,40.9545893 32.9926505,39.9722449 33.2825651,39.0206585 C33.5724797,38.0690721 34.021373,37.219285 34.6292585,36.4712718 C35.2184398,35.7327271 35.9946512,35.1362192 36.9579158,34.6817301 C37.9211805,34.2272411 39.0527657,34 40.3527054,34 C41.5123638,34 42.4101505,34.2225069 43.0460922,34.6675274 C43.6820339,35.112548 44,35.6948533 44,36.4144609 Z" id="f" fill="#343D51" fill-rule="nonzero"></path>
        <path d="M3.04720534,676 C3.01573507,676.166826 3,676.339903 3,676.519231 C3,677.198721 3.22884537,677.782049 3.68654298,678.269231 C4.14424058,678.756413 4.68408094,679 5.30608025,679 C5.91634372,679 6.45325017,678.759618 6.91681569,678.278846 C7.38038122,677.798075 7.6121605,677.211542 7.6121605,676.519231 C7.6121605,676.339903 7.59622108,676.166826 7.5643421,676 L12.7468253,676 C12.7153551,676.166826 12.69962,676.339903 12.69962,676.519231 C12.69962,677.198721 12.9284654,677.782049 13.386163,678.269231 C13.8438606,678.756413 14.3837009,679 15.0057002,679 C15.6159637,679 16.1528702,678.759618 16.6164357,678.278846 C17.0800012,677.798075 17.3117805,677.211542 17.3117805,676.519231 C17.3117805,676.339903 17.2958411,676.166826 17.2639621,676 L22.4464453,676 C22.414975,676.166826 22.39924,676.339903 22.39924,676.519231 C22.39924,677.198721 22.6280853,677.782049 23.0857829,678.269231 C23.5434805,678.756413 24.0833209,679 24.7053202,679 C25.3273195,679 25.8671599,678.756413 26.3248575,678.269231 C26.7825551,677.782049 27.0114005,677.198721 27.0114005,676.519231 C27.0114005,676.339903 26.9956654,676.166826 26.9641951,676 L32.1460653,676 C32.114595,676.166826 32.09886,676.339903 32.09886,676.519231 C32.09886,677.198721 32.3277053,677.782049 32.7854029,678.269231 C33.2431005,678.756413 33.7829409,679 34.4049402,679 C35.0152037,679 35.5521101,678.759618 36.0156756,678.278846 C36.4792412,677.798075 36.7110205,677.211542 36.7110205,676.519231 C36.7110205,676.339903 36.695081,676.166826 36.6632021,676 L41.8456853,676 C41.814215,676.166826 41.7984799,676.339903 41.7984799,676.519231 C41.7984799,677.198721 42.0273253,677.782049 42.4850229,678.269231 C42.9427205,678.756413 43.4825609,679 44.1045602,679 C44.7148237,679 45.2517301,678.759618 45.7152956,678.278846 C46.1788612,677.798075 46.4106404,677.211542 46.4106404,676.519231 C46.4106404,676.339903 46.394701,676.166826 46.362822,676 L51.5453053,676 C51.513835,676.166826 51.4980999,676.339903 51.4980999,676.519231 C51.4980999,677.198721 51.7269453,677.782049 52.1846429,678.269231 C52.6423405,678.756413 53.1821809,679 53.8041802,679 C54.4261795,679 54.9660198,678.756413 55.4237174,678.269231 C55.8814151,677.782049 56.1102604,677.198721 56.1102604,676.519231 C56.1102604,676.339903 56.0945254,676.166826 56.0630551,676 L61.2449252,676 C61.213455,676.166826 61.1977199,676.339903 61.1977199,676.519231 C61.1977199,677.198721 61.4265653,677.782049 61.8842629,678.269231 C62.3419605,678.756413 62.8818008,679 63.5038002,679 C64.1140636,679 64.6509701,678.759618 65.1145356,678.278846 C65.5781011,677.798075 65.8098804,677.211542 65.8098804,676.519231 C65.8098804,676.339903 65.793941,676.166826 65.762062,676 L70.9445452,676 C70.913075,676.166826 70.8973399,676.339903 70.8973399,676.519231 C70.8973399,677.198721 71.1261853,677.782049 71.5838829,678.269231 C72.0415805,678.756413 72.5814208,679 73.2034201,679 C73.8136836,679 74.3505901,678.759618 74.8141556,678.278846 C75.2777211,677.798075 75.5095004,677.211542 75.5095004,676.519231 C75.5095004,676.339903 75.493561,676.166826 75.461682,676 L80.6441652,676 C80.6126949,676.166826 80.5969599,676.339903 80.5969599,676.519231 C80.5969599,677.198721 80.8258052,677.782049 81.2835029,678.269231 C81.7412005,678.756413 82.2810408,679 82.9030401,679 C83.5250394,679 84.0648798,678.756413 84.5225774,678.269231 C84.980275,677.782049 85.2091204,677.198721 85.2091204,676.519231 C85.2091204,676.339903 85.1933853,676.166826 85.161915,676 L90.3437852,676 C90.3123149,676.166826 90.2965799,676.339903 90.2965799,676.519231 C90.2965799,677.198721 90.5254252,677.782049 90.9831228,678.269231 C91.4408204,678.756413 91.9806608,679 92.6026601,679 C93.2129236,679 93.74983,678.759618 94.2133956,678.278846 C94.6769611,677.798075 94.9087404,677.211542 94.9087404,676.519231 C94.9087404,676.339903 94.8928009,676.166826 94.860922,676 L100.043405,676 C100.011935,676.166826 99.9961998,676.339903 99.9961998,676.519231 C99.9961998,677.198721 100.225045,677.782049 100.682743,678.269231 C101.14044,678.756413 101.680281,679 102.30228,679 C102.912544,679 103.44945,678.759618 103.913016,678.278846 C104.376581,677.798075 104.60836,677.211542 104.60836,676.519231 C104.60836,676.339903 104.592421,676.166826 104.560542,676 L109.743025,676 C109.711555,676.166826 109.69582,676.339903 109.69582,676.519231 C109.69582,677.198721 109.924665,677.782049 110.382363,678.269231 C110.84006,678.756413 111.379901,679 112.0019,679 C112.623899,679 113.16374,678.756413 113.621437,678.269231 C114.079135,677.782049 114.30798,677.198721 114.30798,676.519231 C114.30798,676.339903 114.292245,676.166826 114.260775,676 L119.442645,676 C119.411175,676.166826 119.39544,676.339903 119.39544,676.519231 C119.39544,677.198721 119.624285,677.782049 120.081983,678.269231 C120.53968,678.756413 121.079521,679 121.70152,679 C122.311784,679 122.84869,678.759618 123.312256,678.278846 C123.775821,677.798075 124.0076,677.211542 124.0076,676.519231 C124.0076,676.339903 123.991661,676.166826 123.959782,676 L129.142265,676 C129.110795,676.166826 129.09506,676.339903 129.09506,676.519231 C129.09506,677.198721 129.323905,677.782049 129.781603,678.269231 C130.2393,678.756413 130.779141,679 131.40114,679 C132.011404,679 132.54831,678.759618 133.011875,678.278846 C133.475441,677.798075 133.70722,677.211542 133.70722,676.519231 C133.70722,676.339903 133.691281,676.166826 133.659402,676 L138.841885,676 C138.810415,676.166826 138.79468,676.339903 138.79468,676.519231 C138.79468,677.198721 139.023525,677.782049 139.481223,678.269231 C139.93892,678.756413 140.478761,679 141.10076,679 C141.722759,679 142.2626,678.756413 142.720297,678.269231 C143.177995,677.782049 143.40684,677.198721 143.40684,676.519231 C143.40684,676.339903 143.391105,676.166826 143.359635,676 L148.541505,676 C148.510035,676.166826 148.4943,676.339903 148.4943,676.519231 C148.4943,677.198721 148.723145,677.782049 149.180843,678.269231 C149.63854,678.756413 150.178381,679 150.80038,679 C151.410643,679 151.94755,678.759618 152.411115,678.278846 C152.874681,677.798075 153.10646,677.211542 153.10646,676.519231 C153.10646,676.339903 153.090521,676.166826 153.058642,676 L158.241125,676 C158.209655,676.166826 158.19392,676.339903 158.19392,676.519231 C158.19392,677.198721 158.422765,677.782049 158.880463,678.269231 C159.33816,678.756413 159.878001,679 160.5,679 C161.110263,679 161.64717,678.759618 162.110735,678.278846 C162.574301,677.798075 162.80608,677.211542 162.80608,676.519231 C162.80608,676.339903 162.790141,676.166826 162.758262,676 L167.940745,676 C167.909275,676.166826 167.89354,676.339903 167.89354,676.519231 C167.89354,677.198721 168.122385,677.782049 168.580083,678.269231 C169.03778,678.756413 169.577621,679 170.19962,679 C170.821619,679 171.36146,678.756413 171.819157,678.269231 C172.276855,677.782049 172.5057,677.198721 172.5057,676.519231 C172.5057,676.339903 172.489965,676.166826 172.458495,676 L177.640365,676 C177.608895,676.166826 177.59316,676.339903 177.59316,676.519231 C177.59316,677.198721 177.822005,677.782049 178.279703,678.269231 C178.7374,678.756413 179.277241,679 179.89924,679 C180.509503,679 181.04641,678.759618 181.509975,678.278846 C181.973541,677.798075 182.20532,677.211542 182.20532,676.519231 C182.20532,676.339903 182.189381,676.166826 182.157502,676 L187.339985,676 C187.308515,676.166826 187.29278,676.339903 187.29278,676.519231 C187.29278,677.198721 187.521625,677.782049 187.979323,678.269231 C188.43702,678.756413 188.976861,679 189.59886,679 C190.209123,679 190.74603,678.759618 191.209595,678.278846 C191.673161,677.798075 191.90494,677.211542 191.90494,676.519231 C191.90494,676.339903 191.889001,676.166826 191.857122,676 L197.039605,676 C197.008135,676.166826 196.9924,676.339903 196.9924,676.519231 C196.9924,677.198721 197.221245,677.782049 197.678943,678.269231 C198.13664,678.756413 198.676481,679 199.29848,679 C199.920479,679 200.46032,678.756413 200.918017,678.269231 C201.375715,677.782049 201.60456,677.198721 201.60456,676.519231 C201.60456,676.339903 201.588825,676.166826 201.557355,676 L206.739225,676 C206.707755,676.166826 206.69202,676.339903 206.69202,676.519231 C206.69202,677.198721 206.920865,677.782049 207.378563,678.269231 C207.83626,678.756413 208.376101,679 208.9981,679 C209.608363,679 210.14527,678.759618 210.608835,678.278846 C211.072401,677.798075 211.30418,677.211542 211.30418,676.519231 C211.30418,676.339903 211.288241,676.166826 211.256362,676 L216.438845,676 C216.407375,676.166826 216.39164,676.339903 216.39164,676.519231 C216.39164,677.198721 216.620485,677.782049 217.078183,678.269231 C217.53588,678.756413 218.075721,679 218.69772,679 C219.307983,679 219.84489,678.759618 220.308455,678.278846 C220.772021,677.798075 221.0038,677.211542 221.0038,676.519231 C221.0038,676.339903 220.987861,676.166826 220.955982,676 L226.138465,676 C226.106995,676.166826 226.09126,676.339903 226.09126,676.519231 C226.09126,677.198721 226.320105,677.782049 226.777803,678.269231 C227.2355,678.756413 227.775341,679 228.39734,679 C229.019339,679 229.55918,678.756413 230.016877,678.269231 C230.474575,677.782049 230.70342,677.198721 230.70342,676.519231 C230.70342,676.339903 230.687685,676.166826 230.656215,676 L235.838085,676 C235.806615,676.166826 235.79088,676.339903 235.79088,676.519231 C235.79088,677.198721 236.019725,677.782049 236.477423,678.269231 C236.93512,678.756413 237.474961,679 238.09696,679 C238.707223,679 239.24413,678.759618 239.707695,678.278846 C240.171261,677.798075 240.40304,677.211542 240.40304,676.519231 C240.40304,676.339903 240.387101,676.166826 240.355222,676 L245.537705,676 C245.506235,676.166826 245.4905,676.339903 245.4905,676.519231 C245.4905,677.198721 245.719345,677.782049 246.177043,678.269231 C246.63474,678.756413 247.174581,679 247.79658,679 C248.406843,679 248.94375,678.759618 249.407315,678.278846 C249.870881,677.798075 250.10266,677.211542 250.10266,676.519231 C250.10266,676.339903 250.086721,676.166826 250.054842,676 L255.237325,676 C255.205855,676.166826 255.19012,676.339903 255.19012,676.519231 C255.19012,677.198721 255.418965,677.782049 255.876663,678.269231 C256.33436,678.756413 256.874201,679 257.4962,679 C258.118199,679 258.65804,678.756413 259.115737,678.269231 C259.573435,677.782049 259.80228,677.198721 259.80228,676.519231 C259.80228,676.339903 259.786545,676.166826 259.755075,676 L264.936945,676 C264.905475,676.166826 264.88974,676.339903 264.88974,676.519231 C264.88974,677.198721 265.118585,677.782049 265.576283,678.269231 C266.03398,678.756413 266.573821,679 267.19582,679 C267.806083,679 268.34299,678.759618 268.806555,678.278846 C269.270121,677.798075 269.5019,677.211542 269.5019,676.519231 C269.5019,676.339903 269.485961,676.166826 269.454082,676 L274.636565,676 C274.605095,676.166826 274.58936,676.339903 274.58936,676.519231 C274.58936,677.198721 274.818205,677.782049 275.275903,678.269231 C275.7336,678.756413 276.273441,679 276.89544,679 C277.505703,679 278.04261,678.759618 278.506175,678.278846 C278.969741,677.798075 279.20152,677.211542 279.20152,676.519231 C279.20152,676.339903 279.185581,676.166826 279.153702,676 L284.336185,676 C284.304715,676.166826 284.28898,676.339903 284.28898,676.519231 C284.28898,677.198721 284.517825,677.782049 284.975523,678.269231 C285.43322,678.756413 285.97306,679 286.59506,679 C287.217059,679 287.756899,678.756413 288.214597,678.269231 C288.672295,677.782049 288.90114,677.198721 288.90114,676.519231 C288.90114,676.339903 288.885405,676.166826 288.853935,676 L294.035805,676 C294.004335,676.166826 293.9886,676.339903 293.9886,676.519231 C293.9886,677.198721 294.217445,677.782049 294.675143,678.269231 C295.13284,678.756413 295.67268,679 296.29468,679 C296.904943,679 297.44185,678.759618 297.905415,678.278846 C298.368981,677.798075 298.60076,677.211542 298.60076,676.519231 C298.60076,676.339903 298.584821,676.166826 298.552942,676 L303.735425,676 C303.703955,676.166826 303.68822,676.339903 303.68822,676.519231 C303.68822,677.198721 303.917065,677.782049 304.374762,678.269231 C304.83246,678.756413 305.3723,679 305.9943,679 C306.604563,679 307.14147,678.759618 307.605035,678.278846 C308.068601,677.798075 308.30038,677.211542 308.30038,676.519231 C308.30038,676.339903 308.284441,676.166826 308.252562,676 L313.435045,676 C313.403575,676.166826 313.387839,676.339903 313.387839,676.519231 C313.387839,677.198721 313.616685,677.782049 314.074382,678.269231 C314.53208,678.756413 315.07192,679 315.69392,679 C316.315919,679 316.855759,678.756413 317.313457,678.269231 C317.771155,677.782049 318,677.198721 318,676.519231 C318,676.339903 317.984265,676.166826 317.952795,676 L320,676 L320,680 L0,680 L0,676 L3.04720534,676 Z" id="Rectangle-2" fill="#FFFFFF"></path>
    </g>
</svg>