<?xml version="1.0" encoding="UTF-8"?>
<svg width="320px" height="668px" viewBox="0 0 320 668" version="1.1" xmlns="http://www.w3.org/2000/svg" xmlns:xlink="http://www.w3.org/1999/xlink">
    <!-- Generator: Sketch 54.1 (76490) - https://sketchapp.com -->
    <title>fancung</title>
    <desc>Created with Sketch.</desc>
    <defs>
        <polygon id="path-1" points="273 623 273 637 272 637 272 623 268 623 272.5 614 277 623"></polygon>
        <filter x="-100.0%" y="-21.7%" width="255.6%" height="160.9%" filterUnits="objectBoundingBox" id="filter-2">
            <feOffset dx="-2" dy="2" in="SourceAlpha" result="shadowOffsetOuter1"></feOffset>
            <feGaussianBlur stdDeviation="2" in="shadowOffsetOuter1" result="shadowBlurOuter1"></feGaussianBlur>
            <feColorMatrix values="0 0 0 0 0   0 0 0 0 0   0 0 0 0 0  0 0 0 0.5 0" type="matrix" in="shadowBlurOuter1"></feColorMatrix>
        </filter>
    </defs>
    <g id="fancung" stroke="none" stroke-width="1" fill="none" fill-rule="evenodd">
        <rect fill="#F0F6FA" x="0" y="0" width="320" height="668"></rect>
        <text id="Bằng-cách-trở-thành" font-family="SFCompactDisplay-Regular, SF Compact Display" font-size="15" font-weight="normal" line-spacing="22" fill="#4D5B72">
            <tspan x="30" y="76">Bằng cách trở thành Fan cứng, bạn sẽ </tspan>
            <tspan x="30" y="98">đồng hành cùng Team phát triển làm </tspan>
            <tspan x="30" y="120">cho Chanchan trở nên tuyệt vời hơn với </tspan>
            <tspan x="30" y="142">tất cả mọi người.</tspan>
        </text>
        <text id="Bạn-cùng-những-Fan-c" font-family="SFCompactDisplay-Regular, SF Compact Display" font-size="15" font-weight="normal" line-spacing="22" fill="#4D5B72">
            <tspan x="30" y="214">Bạn cùng những Fan cứng khác sẽ là </tspan>
            <tspan x="30" y="236">những Thành viên đầu tiên nhận được </tspan>
            <tspan x="30" y="258">những Phiên bản cập nhật mới nhất của </tspan>
            <tspan x="30" y="280">Chanchan trước thời điểm phát hành.</tspan>
        </text>
        <text id="Bằng-cách-sử-dụng-ph" font-family="SFCompactDisplay-Regular, SF Compact Display" font-size="15" font-weight="normal" line-spacing="22" fill="#4D5B72">
            <tspan x="30" y="314">Bằng cách sử dụng phiên bản mới nhất </tspan>
            <tspan x="30" y="336">này, bạn cùng các Fan cứng phản hồi </tspan>
            <tspan x="30" y="358">cho Team biết được rằng những chi tiết/</tspan>
            <tspan x="30" y="380">tính năng nào trong Chanchan khiến </tspan>
            <tspan x="30" y="402">bạn có trải nghiệm chưa tốt, hoặc nên </tspan>
            <tspan x="30" y="424">ra sao để bạn có trải nghiệm tốt hơn khi </tspan>
            <tspan x="30" y="446">sử dụng.</tspan>
        </text>
        <text id="Bằng-cách-này-bạn-gi" font-family="SFCompactDisplay-Regular, SF Compact Display" font-size="15" font-weight="normal" line-spacing="22" fill="#4D5B72">
            <tspan x="30" y="480">Bằng cách này bạn giúp chúng tôi cải </tspan>
            <tspan x="30" y="502">tiến kịp thời để có thể mang lại những </tspan>
            <tspan x="30" y="524">Phiên bản tốt nhất với trải nghiệm tuyệt </tspan>
            <tspan x="30" y="546">vời nhất đến tất cả Thành viên tại thời </tspan>
            <tspan x="30" y="568">điểm phát hành chính thức của mỗi </tspan>
            <tspan x="30" y="590">Phiên bản.</tspan>
        </text>
        <text id="—-Tôi-đã-hiểu." font-family="Georgia-Italic, Georgia" font-size="14" font-style="italic" font-weight="normal" line-spacing="22" fill="#5D6A80">
            <tspan x="30" y="627">— Tôi đã hiểu. </tspan>
        </text>
        <circle id="Oval" fill="#DADFE7" cx="272" cy="625" r="18"></circle>
        <g id="Line-2" fill-rule="nonzero">
            <use fill="black" fill-opacity="1" filter="url(#filter-2)" xlink:href="#path-1"></use>
            <use fill="#343D51" xlink:href="#path-1"></use>
        </g>
        <text id="—-Điều-này-xảy-ra-nh" font-family="Georgia-Italic, Georgia" font-size="14" font-style="italic" font-weight="normal" line-spacing="22" fill="#5D6A80">
            <tspan x="30" y="179">— Điều này xảy ra như thế nào?</tspan>
        </text>
        <path d="M48.9628906,45.7402344 C48.5527344,46.5019531 47.6738281,47.15625 46.1503906,47.15625 C44.1289063,47.15625 42.7421875,45.9648438 42.7421875,44.0117188 C42.7421875,42.15625 44.03125,40.9648438 46.4335938,40.9648438 L48.9628906,40.9648438 L48.9628906,40.0273438 C48.9628906,38.9921875 48.3378906,38.4160156 47.2539063,38.4160156 C46.1992188,38.4160156 45.59375,38.9726562 45.5253906,39.8027344 L43.1230469,39.8027344 C43.2011719,38.0742188 44.3144531,36.4726562 47.3027344,36.4726562 C49.6855469,36.4726562 51.5019531,37.5859375 51.5019531,39.9980469 L51.5019531,47 L49.0703125,47 L49.0703125,45.7402344 L48.9628906,45.7402344 Z M46.9804688,45.28125 C48.0839844,45.28125 48.9628906,44.6074219 48.9628906,43.6015625 L48.9628906,42.5078125 L46.9902344,42.5078125 C45.8574219,42.5078125 45.3007813,43.0546875 45.3007813,43.8457031 C45.3007813,44.8125 46.1210938,45.28125 46.9804688,45.28125 Z M52.7628906,47 L52.7628906,36.6386719 L55.2628906,36.6386719 L55.2628906,38.1523438 L55.3703125,38.1523438 C55.7023438,37.4394531 56.6496094,36.4726562 58.378125,36.4726562 C60.4875,36.4726562 61.9621094,37.7910156 61.9621094,40.3300781 L61.9621094,47 L59.39375,47 L59.39375,40.8867188 C59.39375,39.2949219 58.4757813,38.6601562 57.3722656,38.6601562 C56.0441406,38.6601562 55.3214844,39.6171875 55.3214844,40.9257812 L55.3214844,47 L52.7628906,47 Z M65.509375,42.1953125 L65.509375,41.3359375 C65.509375,38.4648438 67.228125,36.453125 70.11875,36.453125 C72.7359375,36.453125 74.3277344,38.1132812 74.3863281,40.1054688 L72.0132813,40.1054688 C71.8765625,39.2460938 71.1929688,38.5039062 70.2359375,38.5039062 C68.8980469,38.5039062 68.0875,39.5976562 68.0875,41.3652344 L68.0875,42.1855469 C68.0875,44.0117188 68.9175781,45.125 70.2457031,45.125 C71.3882813,45.125 71.9449219,44.4316406 72.0621094,43.640625 L74.4351563,43.640625 C74.2203125,45.9550781 72.5601563,47.1855469 70.1089844,47.1855469 C67.2476563,47.1855469 65.509375,45.2128906 65.509375,42.1953125 Z M81.6335938,45.4863281 C81.3113281,46.296875 80.3542969,47.15625 78.6453125,47.15625 C76.5261719,47.15625 75.1003906,45.9257812 75.1003906,43.484375 L75.1003906,36.6386719 L77.66875,36.6386719 L77.66875,42.8007812 C77.66875,44.5097656 78.6355469,44.9785156 79.6511719,44.9785156 C80.8035156,44.9785156 81.6824219,44.2265625 81.6824219,42.7714844 L81.6824219,36.6386719 L83.9675781,36.6386719 C84.8269531,36.6386719 84.9929688,36.1601562 84.9929688,35.3789062 L84.9929688,34.0117188 L87.0535156,34.0117188 L87.0535156,35.6425781 C87.0535156,37.2050781 86.2234375,38.4355469 84.4851563,38.4355469 L84.2605469,38.4355469 L84.2605469,47 L81.7507813,47 L81.7507813,45.4863281 L81.6335938,45.4863281 Z M80.5398438,35.3984375 L78.7332031,35.3984375 L80.715625,32.5566406 L82.98125,32.5566406 L80.5398438,35.3984375 Z M87.1132813,47 L87.1132813,36.6386719 L89.6132813,36.6386719 L89.6132813,38.1523438 L89.7207031,38.1523438 C90.0527344,37.4394531 91,36.4726562 92.7285156,36.4726562 C94.8378906,36.4726562 96.3125,37.7910156 96.3125,40.3300781 L96.3125,47 L93.7441406,47 L93.7441406,40.8867188 C93.7441406,39.2949219 92.8261719,38.6601562 91.7226563,38.6601562 C90.3945313,38.6601562 89.671875,39.6171875 89.671875,40.9257812 L89.671875,47 L87.1132813,47 Z M101.928906,48.9042969 C103.305859,48.9042969 104.135938,48.1035156 104.135938,46.7070312 L104.135938,45.2324219 L104.028516,45.2324219 C103.637891,46.140625 102.553906,46.8632812 101.108594,46.8632812 C98.7550781,46.8632812 97.1535156,45.1738281 97.1535156,41.9902344 L97.1535156,41.3457031 C97.1535156,38.2011719 98.7453125,36.5019531 101.108594,36.5019531 C102.534375,36.5019531 103.637891,37.2148438 104.057813,38.1621094 L104.165234,38.1621094 L104.165234,36.6386719 L106.704297,36.6386719 L106.704297,46.8730469 C106.704297,49.7050781 104.233594,50.7890625 101.889844,50.7890625 C98.9113281,50.7890625 97.5246094,49.3730469 97.378125,47.6445312 L99.8683594,47.6445312 C100.034375,48.3769531 100.796094,48.9042969 101.928906,48.9042969 Z M101.9875,38.5527344 C100.620313,38.5527344 99.7902344,39.5683594 99.7902344,41.4335938 L99.7902344,42.0390625 C99.7902344,43.8945312 100.620313,44.9296875 101.9875,44.9296875 C103.315625,44.9296875 104.135938,43.8847656 104.135938,42.0390625 L104.135938,41.4335938 C104.135938,39.6074219 103.276563,38.5527344 101.9875,38.5527344 Z" id="ancứng" fill="#343D51" fill-rule="nonzero"></path>
        <path d="M115.5,43.5992556 C114.006203,42.0620347 113.849876,41.8883375 113.276675,41.1240695 C112.425558,40.0037221 112,38.9962779 112,38.1451613 C112,37.6414392 112.165012,37.1029777 112.434243,36.7208437 C112.781638,36.2344913 113.259305,36 113.91067,36 C114.284119,36 114.562035,36.0781638 114.787841,36.2344913 C115.083127,36.442928 115.308933,36.8076923 115.378412,37.1985112 C115.439206,37.4851117 115.447891,37.5111663 115.5,37.5111663 C115.552109,37.5111663 115.578164,37.4590571 115.621588,37.1985112 C115.699752,36.7729529 115.951613,36.382134 116.272953,36.1997519 C116.48139,36.0868486 116.846154,36 117.158809,36 C117.523573,36 117.888337,36.1215881 118.192308,36.3300248 C118.722084,36.6947891 119,37.3287841 119,38.162531 C119,38.8138958 118.843672,39.3610422 118.470223,40.0210918 C118.03598,40.7940447 117.480149,41.5148883 116.629032,42.4094293 C115.708437,43.382134 115.708437,43.382134 115.5,43.5992556 Z" id="♥" fill="#343D51" fill-rule="nonzero"></path>
        <path d="M44.2167969,28.4072266 C44.2167969,28.6432303 44.1790368,28.9028306 44.1035156,29.1860352 C44.0279944,29.4692397 43.9052743,29.7099599 43.7353516,29.9082031 C43.5371084,30.1442069 43.3152682,30.3235671 43.0698242,30.4462891 C42.8243803,30.569011 42.4562199,30.6303711 41.965332,30.6303711 C41.2195601,30.6303711 40.6342795,30.3707708 40.2094727,29.8515625 C39.7846658,29.3323542 39.3315454,28.4685933 38.8500977,27.2602539 C38.4724916,27.4207365 38.1656913,27.8360969 37.9296875,28.5063477 C37.6936837,29.1765984 37.5756836,30.6161999 37.5756836,32.8251953 L37.5756836,33.9438477 L41.4838867,33.9438477 L41.4838867,35.4731445 L37.6040039,35.4731445 L37.6040039,45.2294922 C37.6040039,45.5976581 37.688964,45.8832184 37.8588867,46.0861816 C38.0288094,46.2891449 38.2506497,46.437825 38.5244141,46.5322266 C38.7509777,46.6077478 39.048338,46.6809078 39.4165039,46.751709 C39.7846698,46.8225101 40.1150702,46.8720702 40.4077148,46.9003906 L40.4077148,47.934082 L30.8496094,47.934082 L30.8496094,46.9003906 C31.0950533,46.8815103 31.3334136,46.8579103 31.5646973,46.8295898 C31.795981,46.8012694 32.0013012,46.7540693 32.1806641,46.6879883 C32.4827489,46.5747065 32.6880691,46.4118663 32.7966309,46.1994629 C32.9051926,45.9870595 32.9594727,45.7062192 32.9594727,45.3569336 L32.9594727,35.4731445 L30.0849609,35.4731445 L30.0849609,33.9438477 L32.9594727,33.9438477 C32.9594727,32.9337515 33.1057928,31.9543504 33.3984375,31.0056152 C33.6910822,30.05688 34.1442027,29.2096391 34.7578125,28.4638672 C35.352542,27.7275354 36.1360628,27.1328148 37.1083984,26.6796875 C38.080734,26.2265602 39.2229752,26 40.5351562,26 C41.705735,26 42.611976,26.2218402 43.2539062,26.6655273 C43.8958365,27.1092145 44.2167969,27.6897751 44.2167969,28.4072266 Z" id="f" fill="#343D51" fill-rule="nonzero"></path>
    </g>
</svg>