<?xml version="1.0" encoding="UTF-8"?>
<svg width="320px" height="555px" viewBox="0 0 320 555" version="1.1" xmlns="http://www.w3.org/2000/svg" xmlns:xlink="http://www.w3.org/1999/xlink">
    <!-- Generator: Sketch 54.1 (76490) - https://sketchapp.com -->
    <title>1_1</title>
    <desc>Created with Sketch.</desc>
    <g id="1_1" stroke="none" stroke-width="1" fill="none" fill-rule="evenodd">
        <rect fill="#FFFFFF" x="0" y="0" width="320" height="555"></rect>
        <rect id="Rectangle" fill="#ECF6FF" x="0" y="22" width="320" height="533"></rect>
        <path d="M0,0 L17.4177705,0 C25.532023,-1.49056401e-15 33.3734706,2.92959288 39.5,8.25 L39.5,8.25 C44.949329,12.982312 53.050671,12.982312 58.5,8.25 L58.5,8.25 C64.6265294,2.92959288 72.467977,1.49056401e-15 80.5822295,0 L320,0 L320,24 L0,24 L0,0 Z" id="Rectangle" fill="#ECF6FF"></path>
        <g id="move" transform="translate(30.000000, 47.000000)">
            <text id="Triển-vọng" font-family="GMVDINPro-CondBlack, GMV DIN Cond" font-size="24" font-style="condensed" font-weight="700" line-spacing="25" letter-spacing="-0.720000029" fill="#1E2432">
                <tspan x="0" y="18">Triển vọng</tspan>
            </text>
            <text id="Khi-hai-thành-viên-m" font-family="GMVDINPro, GMV DIN Pro" font-size="15" font-weight="normal" line-spacing="20" letter-spacing="-0.3" fill="#343D51">
                <tspan x="0" y="76">Khi hai thành viên muốn có cơ hội với </tspan>
                <tspan x="0" y="96">nhau chương trình sẽ đánh dấu cả hai là </tspan>
                <tspan x="0" y="116">Triển vọng của nhau.</tspan>
            </text>
            <text id="Cách-chương-trình-tì" font-family="GMVDINPro, GMV DIN Pro" font-size="15" font-weight="normal" line-spacing="20" letter-spacing="-0.3" fill="#343D51">
                <tspan x="0" y="152">Cách chương trình tìm ra triển vọng cho </tspan>
                <tspan x="0" y="172">thành viên như sau.</tspan>
            </text>
            <text id="—" font-family="GMVDINPro, GMV DIN Pro" font-size="15" font-weight="normal" line-spacing="20" letter-spacing="-0.3" fill="#343D51">
                <tspan x="0" y="52">—</tspan>
            </text>
            <text id="Tìm-hiểu" font-family="GMVDINPro-Black, GMV DIN Pro" font-size="15" font-style="expanded" font-weight="700" line-spacing="20" letter-spacing="-0.3" fill="#343D51">
                <tspan x="20" y="204">Tìm hiểu</tspan>
            </text>
            <text id="Sau-khi-hoàn-tất-đăn" font-family="GMVDINPro, GMV DIN Pro" font-size="15" font-weight="normal" line-spacing="20" letter-spacing="-0.3" fill="#343D51">
                <tspan x="20" y="228">Sau khi hoàn tất đăng ký, chuyên gia </tspan>
                <tspan x="20" y="248">tâm lý của Chanchan sẽ trò chuyện </tspan>
                <tspan x="20" y="268">với thành viên để hiểu về thành viên &amp; </tspan>
                <tspan x="20" y="288">người mà thành viên có xu hướng phù </tspan>
                <tspan x="20" y="308">hợp.</tspan>
            </text>
            <text id="Chúng-tôi-không-tin" font-family="GMVDINPro-Italic, GMV DIN Pro" font-size="15" font-style="italic" font-weight="normal" line-spacing="20" letter-spacing="-0.3" fill="#343D51">
                <tspan x="20" y="332">Chúng tôi không tin vào việc chỉ điền </tspan>
                <tspan x="20" y="352">form. Qua trò chuyện chúng tôi hiểu </tspan>
                <tspan x="20" y="372">được thành viên của mình nhiều hơn.</tspan>
            </text>
            <text id="●" font-family="GMVDINPro, GMV DIN Pro" font-size="10" font-weight="normal" line-spacing="18" letter-spacing="-0.2" fill="#343D51">
                <tspan x="0" y="203">●</tspan>
            </text>
            <text id="Khi-xác-định-được-ha" font-family="GMVDINPro, GMV DIN Pro" font-size="15" font-weight="normal" line-spacing="20" letter-spacing="-0.3" fill="#343D51">
                <tspan x="20" y="424">Khi xác định được hai thành viên có </tspan>
                <tspan x="20" y="444">xuất phát điểm ban đầu phù hợp qua </tspan>
                <tspan x="20" y="464">ngoại hình, học vấn, thu nhập… </tspan>
                <tspan x="20" y="484">chương trình sẽ gợi ý cả hai với nhau </tspan>
                <tspan x="20" y="504">qua ảnh. </tspan>
            </text>
            <text id="Gợi-ý" font-family="GMVDINPro-Black, GMV DIN Pro" font-size="15" font-style="expanded" font-weight="700" line-spacing="20" letter-spacing="-0.3" fill="#343D51">
                <tspan x="20" y="400">Gợi ý</tspan>
            </text>
            <text id="●" font-family="GMVDINPro, GMV DIN Pro" font-size="10" font-weight="normal" line-spacing="18" letter-spacing="-0.2" fill="#343D51">
                <tspan x="0" y="399">●</tspan>
            </text>
        </g>
        <path d="M52.705699,1.3821871 L55.5734635,3.8258129 C56.0854788,4.26210181 56.1468672,5.03085429 55.7105783,5.54286962 C55.6959136,5.5600796 55.6807726,5.57687791 55.6651728,5.59324501 L55.6651728,5.59324501 C55.1725546,6.11009359 54.3560562,6.13517091 53.8326482,5.64952779 L51.8200513,3.78214377 C50.1978424,2.27698046 47.6852356,2.29146415 46.0804866,3.81522895 L44.1600999,5.63870283 C43.6440547,6.1287056 42.8287088,6.10836726 42.3377359,5.59324501 L42.3377359,5.59324501 C41.8695489,5.1020294 41.8882173,4.32427992 42.3794329,3.85609293 C42.3933541,3.84282443 42.4075848,3.8298846 42.4221133,3.81728413 L45.1919908,1.41499824 C47.3441828,-0.451575377 50.5372874,-0.465519144 52.705699,1.3821871 Z" id="Triangle" fill="#ECF6FF" transform="translate(49.000000, 3.000000) scale(1, -1) translate(-49.000000, -3.000000) "></path>
    </g>
</svg>