<?xml version="1.0" encoding="UTF-8"?>
<svg width="1920px" height="220px" viewBox="0 0 1920 220" version="1.1" xmlns="http://www.w3.org/2000/svg" xmlns:xlink="http://www.w3.org/1999/xlink">
    <!-- Generator: Sketch 54.1 (76490) - https://sketchapp.com -->
    <title>menu_des_overlay</title>
    <desc>Created with Sketch.</desc>
    <defs>
        <filter x="-10.5%" y="-120.0%" width="121.1%" height="340.0%" filterUnits="objectBoundingBox" id="filter-1">
            <feGaussianBlur stdDeviation="40" in="SourceGraphic"></feGaussianBlur>
        </filter>
        <linearGradient x1="2.68613371%" y1="57.2839578%" x2="94.6318171%" y2="42.7160422%" id="linearGradient-2">
            <stop stop-color="#311B92" offset="0%"></stop>
            <stop stop-color="#1A237E" offset="100%"></stop>
        </linearGradient>
        <filter x="-45.8%" y="-120.0%" width="191.6%" height="340.0%" filterUnits="objectBoundingBox" id="filter-3">
            <feGaussianBlur stdDeviation="40" in="SourceGraphic"></feGaussianBlur>
        </filter>
        <linearGradient x1="2.68613371%" y1="57.2839578%" x2="154.582237%" y2="22.6997489%" id="linearGradient-4">
            <stop stop-color="#311B92" offset="0%"></stop>
            <stop stop-color="#09041C" offset="100%"></stop>
        </linearGradient>
        <linearGradient x1="0%" y1="50.1097121%" x2="129.313678%" y2="50.1097121%" id="linearGradient-5">
            <stop stop-color="#F50057" offset="0%"></stop>
            <stop stop-color="#D500F9" offset="30.2368183%"></stop>
            <stop stop-color="#651FFF" offset="100%"></stop>
        </linearGradient>
    </defs>
    <g id="menu_des_overlay" stroke="none" stroke-width="1" fill="none" fill-rule="evenodd">
        <g id="menu_blur" transform="translate(260.000000, 120.000000)">
            <path d="M11,0 L1138,0 L1138,100 L0,100 L0,11 C-7.43989126e-16,4.92486775 4.92486775,1.11598369e-15 11,0 Z" id="Rectangle" fill="#343D51" opacity="0.48" filter="url(#filter-1)"></path>
            <path d="M1138,0 L1389,0 C1395.07513,-1.11598369e-15 1400,4.92486775 1400,11 L1400,100 L1138,100 L1138,0 Z M1191.62924,48.9029392 C1191.62924,43.5714286 1193.84806,40.6185919 1197.7721,40.6185919 C1201.18251,40.6185919 1203.3397,42.9767601 1203.40134,46.2987013 L1208.74295,46.2987013 L1208.74295,45.786056 C1208.74295,39.9419002 1204.1204,35.9432673 1197.73101,35.9432673 C1190.25275,35.9432673 1186,40.8851675 1186,48.923445 L1186,52.1223513 C1186,60.0991114 1190.25275,65 1197.73101,65 C1204.09986,65 1208.74295,61.1038961 1208.74295,55.4853042 L1208.74295,54.9521531 L1203.40134,54.9521531 C1203.3397,58.089542 1201.18251,60.3246753 1197.7721,60.3246753 C1193.84806,60.3246753 1191.62924,57.4128503 1191.62924,52.163363 L1191.62924,48.9029392 Z M1210.24357,64.4668489 L1215.64682,64.4668489 L1215.64682,51.7122351 C1215.64682,48.9644566 1217.18767,46.9548872 1219.98174,46.9548872 C1222.34438,46.9548872 1224.25503,48.2877649 1224.25503,51.6302119 L1224.25503,64.4668489 L1229.65828,64.4668489 L1229.65828,50.4613807 C1229.65828,45.1298701 1226.51495,42.3615858 1222.11839,42.3615858 C1218.50252,42.3615858 1216.57133,44.391661 1215.87281,45.8885851 L1215.64682,45.8885851 L1215.64682,35 L1210.24357,35 L1210.24357,64.4668489 Z M1243.75278,61.8215995 L1243.97877,61.8215995 L1243.97877,64.4668489 L1249.09439,64.4668489 L1249.09439,49.7641832 C1249.09439,44.6992481 1245.27309,42.3615858 1240.26019,42.3615858 C1233.97352,42.3615858 1231.63142,45.7245386 1231.46707,49.354067 L1236.52106,49.354067 C1236.66487,47.6110731 1237.93864,46.442242 1240.15746,46.442242 C1242.43792,46.442242 1243.75278,47.6520848 1243.75278,49.8257006 L1243.75278,51.7942584 L1238.43171,51.7942584 C1233.37772,51.7942584 1230.66583,54.2959672 1230.66583,58.1920711 C1230.66583,62.2932331 1233.58317,64.7949419 1237.83592,64.7949419 C1241.04088,64.7949419 1242.8899,63.4210526 1243.75278,61.8215995 Z M1239.58221,60.8578264 C1237.77428,60.8578264 1236.04853,59.8735475 1236.04853,57.8434723 C1236.04853,56.1825017 1237.21958,55.0341763 1239.60276,55.0341763 L1243.75278,55.0341763 L1243.75278,57.3308271 C1243.75278,59.4429255 1241.90376,60.8578264 1239.58221,60.8578264 Z M1251.33462,64.4668489 L1256.71732,64.4668489 L1256.71732,51.7122351 C1256.71732,48.9644566 1258.23763,46.9548872 1261.0317,46.9548872 C1263.35325,46.9548872 1265.28445,48.2877649 1265.28445,51.6302119 L1265.28445,64.4668489 L1270.6877,64.4668489 L1270.6877,50.4613807 C1270.6877,45.1298701 1267.58545,42.3615858 1263.14781,42.3615858 C1259.5114,42.3615858 1257.51857,44.391661 1256.82005,45.8885851 L1256.59406,45.8885851 L1256.59406,42.7101846 L1251.33462,42.7101846 L1251.33462,64.4668489 Z M1271.98287,54.3779904 C1271.98287,60.7142857 1275.63982,64.8564593 1281.65941,64.8564593 C1286.81612,64.8564593 1290.30872,62.2727273 1290.7607,57.4128503 L1285.76834,57.4128503 C1285.52181,59.0738209 1284.35076,60.5297334 1281.94703,60.5297334 C1279.15296,60.5297334 1277.40666,58.1920711 1277.40666,54.3574846 L1277.40666,52.6349966 C1277.40666,48.923445 1279.11187,46.6267943 1281.92649,46.6267943 C1283.93987,46.6267943 1285.37799,48.1852358 1285.66562,49.9897471 L1290.65797,49.9897471 C1290.53471,45.8065619 1287.18593,42.3205742 1281.67995,42.3205742 C1275.59873,42.3205742 1271.98287,46.544771 1271.98287,52.5734792 L1271.98287,54.3779904 Z M1292.05587,64.4668489 L1297.45912,64.4668489 L1297.45912,51.7122351 C1297.45912,48.9644566 1298.99997,46.9548872 1301.79404,46.9548872 C1304.15668,46.9548872 1306.06733,48.2877649 1306.06733,51.6302119 L1306.06733,64.4668489 L1311.47058,64.4668489 L1311.47058,50.4613807 C1311.47058,45.1298701 1308.32725,42.3615858 1303.93069,42.3615858 C1300.31483,42.3615858 1298.38363,44.391661 1297.68511,45.8885851 L1297.45912,45.8885851 L1297.45912,35 L1292.05587,35 L1292.05587,64.4668489 Z M1325.56508,61.8215995 L1325.79107,61.8215995 L1325.79107,64.4668489 L1330.9067,64.4668489 L1330.9067,49.7641832 C1330.9067,44.6992481 1327.08539,42.3615858 1322.07249,42.3615858 C1315.78582,42.3615858 1313.44373,45.7245386 1313.27937,49.354067 L1318.33336,49.354067 C1318.47717,47.6110731 1319.75094,46.442242 1321.96976,46.442242 C1324.25022,46.442242 1325.56508,47.6520848 1325.56508,49.8257006 L1325.56508,51.7942584 L1320.24401,51.7942584 C1315.19002,51.7942584 1312.47813,54.2959672 1312.47813,58.1920711 C1312.47813,62.2932331 1315.39547,64.7949419 1319.64822,64.7949419 C1322.85318,64.7949419 1324.7022,63.4210526 1325.56508,61.8215995 Z M1321.39451,60.8578264 C1319.58658,60.8578264 1317.86083,59.8735475 1317.86083,57.8434723 C1317.86083,56.1825017 1319.03188,55.0341763 1321.41506,55.0341763 L1325.56508,55.0341763 L1325.56508,57.3308271 C1325.56508,59.4429255 1323.71606,60.8578264 1321.39451,60.8578264 Z M1333.14692,64.4668489 L1338.52962,64.4668489 L1338.52962,51.7122351 C1338.52962,48.9644566 1340.04993,46.9548872 1342.844,46.9548872 C1345.16555,46.9548872 1347.09675,48.2877649 1347.09675,51.6302119 L1347.09675,64.4668489 L1352.5,64.4668489 L1352.5,50.4613807 C1352.5,45.1298701 1349.39775,42.3615858 1344.96011,42.3615858 C1341.3237,42.3615858 1339.33087,44.391661 1338.63235,45.8885851 L1338.40636,45.8885851 L1338.40636,42.7101846 L1333.14692,42.7101846 L1333.14692,64.4668489 Z" id="Rectangle-3" fill="url(#linearGradient-2)" opacity="0.92" filter="url(#filter-3)"></path>
        </g>
        <g id="menu" transform="translate(260.000000, 120.000000)">
            <path d="M11,0 L1138,0 L1138,100 L0,100 L0,11 C-7.43989126e-16,4.92486775 4.92486775,1.11598369e-15 11,0 Z" id="Rectangle" fill="#FFFFFF"></path>
            <path d="M1138,0 L1389,0 C1395.07513,-1.11598369e-15 1400,4.92486775 1400,11 L1400,100 L1138,100 L1138,0 Z M1191.62924,48.9029392 C1191.62924,43.5714286 1193.84806,40.6185919 1197.7721,40.6185919 C1201.18251,40.6185919 1203.3397,42.9767601 1203.40134,46.2987013 L1208.74295,46.2987013 L1208.74295,45.786056 C1208.74295,39.9419002 1204.1204,35.9432673 1197.73101,35.9432673 C1190.25275,35.9432673 1186,40.8851675 1186,48.923445 L1186,52.1223513 C1186,60.0991114 1190.25275,65 1197.73101,65 C1204.09986,65 1208.74295,61.1038961 1208.74295,55.4853042 L1208.74295,54.9521531 L1203.40134,54.9521531 C1203.3397,58.089542 1201.18251,60.3246753 1197.7721,60.3246753 C1193.84806,60.3246753 1191.62924,57.4128503 1191.62924,52.163363 L1191.62924,48.9029392 Z M1210.24357,64.4668489 L1215.64682,64.4668489 L1215.64682,51.7122351 C1215.64682,48.9644566 1217.18767,46.9548872 1219.98174,46.9548872 C1222.34438,46.9548872 1224.25503,48.2877649 1224.25503,51.6302119 L1224.25503,64.4668489 L1229.65828,64.4668489 L1229.65828,50.4613807 C1229.65828,45.1298701 1226.51495,42.3615858 1222.11839,42.3615858 C1218.50252,42.3615858 1216.57133,44.391661 1215.87281,45.8885851 L1215.64682,45.8885851 L1215.64682,35 L1210.24357,35 L1210.24357,64.4668489 Z M1243.75278,61.8215995 L1243.97877,61.8215995 L1243.97877,64.4668489 L1249.09439,64.4668489 L1249.09439,49.7641832 C1249.09439,44.6992481 1245.27309,42.3615858 1240.26019,42.3615858 C1233.97352,42.3615858 1231.63142,45.7245386 1231.46707,49.354067 L1236.52106,49.354067 C1236.66487,47.6110731 1237.93864,46.442242 1240.15746,46.442242 C1242.43792,46.442242 1243.75278,47.6520848 1243.75278,49.8257006 L1243.75278,51.7942584 L1238.43171,51.7942584 C1233.37772,51.7942584 1230.66583,54.2959672 1230.66583,58.1920711 C1230.66583,62.2932331 1233.58317,64.7949419 1237.83592,64.7949419 C1241.04088,64.7949419 1242.8899,63.4210526 1243.75278,61.8215995 Z M1239.58221,60.8578264 C1237.77428,60.8578264 1236.04853,59.8735475 1236.04853,57.8434723 C1236.04853,56.1825017 1237.21958,55.0341763 1239.60276,55.0341763 L1243.75278,55.0341763 L1243.75278,57.3308271 C1243.75278,59.4429255 1241.90376,60.8578264 1239.58221,60.8578264 Z M1251.33462,64.4668489 L1256.71732,64.4668489 L1256.71732,51.7122351 C1256.71732,48.9644566 1258.23763,46.9548872 1261.0317,46.9548872 C1263.35325,46.9548872 1265.28445,48.2877649 1265.28445,51.6302119 L1265.28445,64.4668489 L1270.6877,64.4668489 L1270.6877,50.4613807 C1270.6877,45.1298701 1267.58545,42.3615858 1263.14781,42.3615858 C1259.5114,42.3615858 1257.51857,44.391661 1256.82005,45.8885851 L1256.59406,45.8885851 L1256.59406,42.7101846 L1251.33462,42.7101846 L1251.33462,64.4668489 Z M1271.98287,54.3779904 C1271.98287,60.7142857 1275.63982,64.8564593 1281.65941,64.8564593 C1286.81612,64.8564593 1290.30872,62.2727273 1290.7607,57.4128503 L1285.76834,57.4128503 C1285.52181,59.0738209 1284.35076,60.5297334 1281.94703,60.5297334 C1279.15296,60.5297334 1277.40666,58.1920711 1277.40666,54.3574846 L1277.40666,52.6349966 C1277.40666,48.923445 1279.11187,46.6267943 1281.92649,46.6267943 C1283.93987,46.6267943 1285.37799,48.1852358 1285.66562,49.9897471 L1290.65797,49.9897471 C1290.53471,45.8065619 1287.18593,42.3205742 1281.67995,42.3205742 C1275.59873,42.3205742 1271.98287,46.544771 1271.98287,52.5734792 L1271.98287,54.3779904 Z M1292.05587,64.4668489 L1297.45912,64.4668489 L1297.45912,51.7122351 C1297.45912,48.9644566 1298.99997,46.9548872 1301.79404,46.9548872 C1304.15668,46.9548872 1306.06733,48.2877649 1306.06733,51.6302119 L1306.06733,64.4668489 L1311.47058,64.4668489 L1311.47058,50.4613807 C1311.47058,45.1298701 1308.32725,42.3615858 1303.93069,42.3615858 C1300.31483,42.3615858 1298.38363,44.391661 1297.68511,45.8885851 L1297.45912,45.8885851 L1297.45912,35 L1292.05587,35 L1292.05587,64.4668489 Z M1325.56508,61.8215995 L1325.79107,61.8215995 L1325.79107,64.4668489 L1330.9067,64.4668489 L1330.9067,49.7641832 C1330.9067,44.6992481 1327.08539,42.3615858 1322.07249,42.3615858 C1315.78582,42.3615858 1313.44373,45.7245386 1313.27937,49.354067 L1318.33336,49.354067 C1318.47717,47.6110731 1319.75094,46.442242 1321.96976,46.442242 C1324.25022,46.442242 1325.56508,47.6520848 1325.56508,49.8257006 L1325.56508,51.7942584 L1320.24401,51.7942584 C1315.19002,51.7942584 1312.47813,54.2959672 1312.47813,58.1920711 C1312.47813,62.2932331 1315.39547,64.7949419 1319.64822,64.7949419 C1322.85318,64.7949419 1324.7022,63.4210526 1325.56508,61.8215995 Z M1321.39451,60.8578264 C1319.58658,60.8578264 1317.86083,59.8735475 1317.86083,57.8434723 C1317.86083,56.1825017 1319.03188,55.0341763 1321.41506,55.0341763 L1325.56508,55.0341763 L1325.56508,57.3308271 C1325.56508,59.4429255 1323.71606,60.8578264 1321.39451,60.8578264 Z M1333.14692,64.4668489 L1338.52962,64.4668489 L1338.52962,51.7122351 C1338.52962,48.9644566 1340.04993,46.9548872 1342.844,46.9548872 C1345.16555,46.9548872 1347.09675,48.2877649 1347.09675,51.6302119 L1347.09675,64.4668489 L1352.5,64.4668489 L1352.5,50.4613807 C1352.5,45.1298701 1349.39775,42.3615858 1344.96011,42.3615858 C1341.3237,42.3615858 1339.33087,44.391661 1338.63235,45.8885851 L1338.40636,45.8885851 L1338.40636,42.7101846 L1333.14692,42.7101846 L1333.14692,64.4668489 Z" id="Rectangle-3" fill="url(#linearGradient-4)"></path>
            <path d="M1191.64614,48.9029392 L1191.64614,52.163363 C1191.64614,57.4128503 1193.87163,60.3246753 1197.80745,60.3246753 C1201.2281,60.3246753 1203.39177,58.089542 1203.45359,54.9521531 L1208.81125,54.9521531 L1208.81125,55.4853042 C1208.81125,61.1038961 1204.15421,65 1197.76624,65 C1190.26552,65 1186,60.0991114 1186,52.1223513 L1186,48.923445 C1186,40.8851675 1190.26552,35.9432673 1197.76624,35.9432673 C1204.17482,35.9432673 1208.81125,39.9419002 1208.81125,45.786056 L1208.81125,46.2987013 L1203.45359,46.2987013 C1203.39177,42.9767601 1201.2281,40.6185919 1197.80745,40.6185919 C1193.87163,40.6185919 1191.64614,43.5714286 1191.64614,48.9029392 Z M1210.31637,64.4668489 L1210.31637,35 L1215.73584,35 L1215.73584,45.8885851 L1215.96251,45.8885851 C1216.66313,44.391661 1218.60013,42.3615858 1222.22685,42.3615858 C1226.63661,42.3615858 1229.78939,45.1298701 1229.78939,50.4613807 L1229.78939,64.4668489 L1224.36991,64.4668489 L1224.36991,51.6302119 C1224.36991,48.2877649 1222.45352,46.9548872 1220.08379,46.9548872 C1217.28132,46.9548872 1215.73584,48.9644566 1215.73584,51.7122351 L1215.73584,64.4668489 L1210.31637,64.4668489 Z M1243.92621,61.8215995 C1243.06074,63.4210526 1241.20617,64.7949419 1237.99158,64.7949419 C1233.72606,64.7949419 1230.79996,62.2932331 1230.79996,58.1920711 C1230.79996,54.2959672 1233.52,51.7942584 1238.58916,51.7942584 L1243.92621,51.7942584 L1243.92621,49.8257006 C1243.92621,47.6520848 1242.6074,46.442242 1240.3201,46.442242 C1238.09461,46.442242 1236.81702,47.6110731 1236.67277,49.354067 L1231.60361,49.354067 C1231.76846,45.7245386 1234.11758,42.3615858 1240.42313,42.3615858 C1245.45108,42.3615858 1249.28387,44.6992481 1249.28387,49.7641832 L1249.28387,64.4668489 L1244.15288,64.4668489 L1244.15288,61.8215995 L1243.92621,61.8215995 Z M1239.74312,60.8578264 C1242.07164,60.8578264 1243.92621,59.4429255 1243.92621,57.3308271 L1243.92621,55.0341763 L1239.76373,55.0341763 C1237.37339,55.0341763 1236.19882,56.1825017 1236.19882,57.8434723 C1236.19882,59.8735475 1237.92976,60.8578264 1239.74312,60.8578264 Z M1251.53082,64.4668489 L1251.53082,42.7101846 L1256.80605,42.7101846 L1256.80605,45.8885851 L1257.03272,45.8885851 C1257.73334,44.391661 1259.73215,42.3615858 1263.37948,42.3615858 C1267.83046,42.3615858 1270.94202,45.1298701 1270.94202,50.4613807 L1270.94202,64.4668489 L1265.52254,64.4668489 L1265.52254,51.6302119 C1265.52254,48.2877649 1263.58554,46.9548872 1261.25702,46.9548872 C1258.45456,46.9548872 1256.92969,48.9644566 1256.92969,51.7122351 L1256.92969,64.4668489 L1251.53082,64.4668489 Z M1272.24108,54.3779904 L1272.24108,52.5734792 C1272.24108,46.544771 1275.8678,42.3205742 1281.96728,42.3205742 C1287.48979,42.3205742 1290.84862,45.8065619 1290.97226,49.9897471 L1285.96492,49.9897471 C1285.67643,48.1852358 1284.23398,46.6267943 1282.21456,46.6267943 C1279.39148,46.6267943 1277.68116,48.923445 1277.68116,52.6349966 L1277.68116,54.3574846 C1277.68116,58.1920711 1279.4327,60.5297334 1282.23516,60.5297334 C1284.64611,60.5297334 1285.82067,59.0738209 1286.06795,57.4128503 L1291.07529,57.4128503 C1290.62195,62.2727273 1287.11887,64.8564593 1281.94667,64.8564593 C1275.90901,64.8564593 1272.24108,60.7142857 1272.24108,54.3779904 Z M1292.37435,64.4668489 L1292.37435,35 L1297.79383,35 L1297.79383,45.8885851 L1298.0205,45.8885851 C1298.72111,44.391661 1300.65811,42.3615858 1304.28483,42.3615858 C1308.6946,42.3615858 1311.84737,45.1298701 1311.84737,50.4613807 L1311.84737,64.4668489 L1306.4279,64.4668489 L1306.4279,51.6302119 C1306.4279,48.2877649 1304.5115,46.9548872 1302.14177,46.9548872 C1299.33931,46.9548872 1297.79383,48.9644566 1297.79383,51.7122351 L1297.79383,64.4668489 L1292.37435,64.4668489 Z M1325.9842,61.8215995 C1325.11873,63.4210526 1323.26416,64.7949419 1320.04956,64.7949419 C1315.78404,64.7949419 1312.85794,62.2932331 1312.85794,58.1920711 C1312.85794,54.2959672 1315.57798,51.7942584 1320.64715,51.7942584 L1325.9842,51.7942584 L1325.9842,49.8257006 C1325.9842,47.6520848 1324.66539,46.442242 1322.37808,46.442242 C1320.15259,46.442242 1318.875,47.6110731 1318.73075,49.354067 L1313.66159,49.354067 C1313.82644,45.7245386 1316.17556,42.3615858 1322.48111,42.3615858 C1327.50907,42.3615858 1331.34185,44.6992481 1331.34185,49.7641832 L1331.34185,64.4668489 L1326.21087,64.4668489 L1326.21087,61.8215995 L1325.9842,61.8215995 Z M1321.8011,60.8578264 C1324.12962,60.8578264 1325.9842,59.4429255 1325.9842,57.3308271 L1325.9842,55.0341763 L1321.82171,55.0341763 C1319.43137,55.0341763 1318.25681,56.1825017 1318.25681,57.8434723 C1318.25681,59.8735475 1319.98774,60.8578264 1321.8011,60.8578264 Z M1333.5888,64.4668489 L1333.5888,42.7101846 L1338.86403,42.7101846 L1338.86403,45.8885851 L1339.0907,45.8885851 C1339.79132,44.391661 1341.79014,42.3615858 1345.43746,42.3615858 C1349.88844,42.3615858 1353,45.1298701 1353,50.4613807 L1353,64.4668489 L1347.58053,64.4668489 L1347.58053,51.6302119 C1347.58053,48.2877649 1345.64353,46.9548872 1343.31501,46.9548872 C1340.51254,46.9548872 1338.98767,48.9644566 1338.98767,51.7122351 L1338.98767,64.4668489 L1333.5888,64.4668489 Z" id="Chanchan" fill="url(#linearGradient-5)" opacity="0.85905878"></path>
        </g>
        <g id="Group" transform="translate(376.000000, 120.000000)" stroke="#979797" stroke-linecap="square">
            <path d="M0.5,0 L0.5,100" id="Line"></path>
            <path d="M178.5,0 L178.5,100" id="Line"></path>
            <path d="M324.5,0 L324.5,100" id="Line"></path>
            <path d="M467.5,0 L467.5,100" id="Line"></path>
            <path d="M613.5,0 L613.5,100" id="Line"></path>
            <path d="M757.5,0 L757.5,100" id="Line"></path>
            <path d="M918.5,0 L918.5,100" id="Line"></path>
        </g>
    </g>
</svg>