<?xml version="1.0" encoding="UTF-8"?>
<svg width="1920px" height="220px" viewBox="0 0 1920 220" version="1.1" xmlns="http://www.w3.org/2000/svg" xmlns:xlink="http://www.w3.org/1999/xlink">
    <!-- Generator: Sketch 54.1 (76490) - https://sketchapp.com -->
    <title>menu_des</title>
    <desc>Created with Sketch.</desc>
    <defs>
        <filter x="-10.5%" y="-120.0%" width="121.1%" height="340.0%" filterUnits="objectBoundingBox" id="filter-1">
            <feGaussianBlur stdDeviation="40" in="SourceGraphic"></feGaussianBlur>
        </filter>
        <linearGradient x1="2.68613371%" y1="57.2839578%" x2="94.6318171%" y2="42.7160422%" id="linearGradient-2">
            <stop stop-color="#311B92" offset="0%"></stop>
            <stop stop-color="#1A237E" offset="100%"></stop>
        </linearGradient>
        <filter x="-45.8%" y="-120.0%" width="191.6%" height="340.0%" filterUnits="objectBoundingBox" id="filter-3">
            <feGaussianBlur stdDeviation="40" in="SourceGraphic"></feGaussianBlur>
        </filter>
        <linearGradient x1="2.68613371%" y1="57.2839578%" x2="154.582237%" y2="22.6997489%" id="linearGradient-4">
            <stop stop-color="#311B92" offset="0%"></stop>
            <stop stop-color="#09041C" offset="100%"></stop>
        </linearGradient>
        <linearGradient x1="0%" y1="50.1097121%" x2="129.313678%" y2="50.1097121%" id="linearGradient-5">
            <stop stop-color="#F50057" offset="0%"></stop>
            <stop stop-color="#D500F9" offset="30.2368183%"></stop>
            <stop stop-color="#651FFF" offset="100%"></stop>
        </linearGradient>
    </defs>
    <g id="menu_des" stroke="none" stroke-width="1" fill="none" fill-rule="evenodd">
        <path d="M271,120 L1398,120 L1398,220 L260,220 L260,131 C260,124.924868 264.924868,120 271,120 Z" id="menu_blur" fill="#343D51" opacity="0.48" filter="url(#filter-1)"></path>
        <path d="M1398,120 L1649,120 C1655.07513,120 1660,124.924868 1660,131 L1660,220 L1398,220 L1398,120 Z M1451.62924,168.902939 C1451.62924,163.571429 1453.84806,160.618592 1457.7721,160.618592 C1461.18251,160.618592 1463.3397,162.97676 1463.40134,166.298701 L1468.74295,166.298701 L1468.74295,165.786056 C1468.74295,159.9419 1464.1204,155.943267 1457.73101,155.943267 C1450.25275,155.943267 1446,160.885167 1446,168.923445 L1446,172.122351 C1446,180.099111 1450.25275,185 1457.73101,185 C1464.09986,185 1468.74295,181.103896 1468.74295,175.485304 L1468.74295,174.952153 L1463.40134,174.952153 C1463.3397,178.089542 1461.18251,180.324675 1457.7721,180.324675 C1453.84806,180.324675 1451.62924,177.41285 1451.62924,172.163363 L1451.62924,168.902939 Z M1470.24357,184.466849 L1475.64682,184.466849 L1475.64682,171.712235 C1475.64682,168.964457 1477.18767,166.954887 1479.98174,166.954887 C1482.34438,166.954887 1484.25503,168.287765 1484.25503,171.630212 L1484.25503,184.466849 L1489.65828,184.466849 L1489.65828,170.461381 C1489.65828,165.12987 1486.51495,162.361586 1482.11839,162.361586 C1478.50252,162.361586 1476.57133,164.391661 1475.87281,165.888585 L1475.64682,165.888585 L1475.64682,155 L1470.24357,155 L1470.24357,184.466849 Z M1503.75278,181.821599 L1503.97877,181.821599 L1503.97877,184.466849 L1509.09439,184.466849 L1509.09439,169.764183 C1509.09439,164.699248 1505.27309,162.361586 1500.26019,162.361586 C1493.97352,162.361586 1491.63142,165.724539 1491.46707,169.354067 L1496.52106,169.354067 C1496.66487,167.611073 1497.93864,166.442242 1500.15746,166.442242 C1502.43792,166.442242 1503.75278,167.652085 1503.75278,169.825701 L1503.75278,171.794258 L1498.43171,171.794258 C1493.37772,171.794258 1490.66583,174.295967 1490.66583,178.192071 C1490.66583,182.293233 1493.58317,184.794942 1497.83592,184.794942 C1501.04088,184.794942 1502.8899,183.421053 1503.75278,181.821599 Z M1499.58221,180.857826 C1497.77428,180.857826 1496.04853,179.873548 1496.04853,177.843472 C1496.04853,176.182502 1497.21958,175.034176 1499.60276,175.034176 L1503.75278,175.034176 L1503.75278,177.330827 C1503.75278,179.442925 1501.90376,180.857826 1499.58221,180.857826 Z M1511.33462,184.466849 L1516.71732,184.466849 L1516.71732,171.712235 C1516.71732,168.964457 1518.23763,166.954887 1521.0317,166.954887 C1523.35325,166.954887 1525.28445,168.287765 1525.28445,171.630212 L1525.28445,184.466849 L1530.6877,184.466849 L1530.6877,170.461381 C1530.6877,165.12987 1527.58545,162.361586 1523.14781,162.361586 C1519.5114,162.361586 1517.51857,164.391661 1516.82005,165.888585 L1516.59406,165.888585 L1516.59406,162.710185 L1511.33462,162.710185 L1511.33462,184.466849 Z M1531.98287,174.37799 C1531.98287,180.714286 1535.63982,184.856459 1541.65941,184.856459 C1546.81612,184.856459 1550.30872,182.272727 1550.7607,177.41285 L1545.76834,177.41285 C1545.52181,179.073821 1544.35076,180.529733 1541.94703,180.529733 C1539.15296,180.529733 1537.40666,178.192071 1537.40666,174.357485 L1537.40666,172.634997 C1537.40666,168.923445 1539.11187,166.626794 1541.92649,166.626794 C1543.93987,166.626794 1545.37799,168.185236 1545.66562,169.989747 L1550.65797,169.989747 C1550.53471,165.806562 1547.18593,162.320574 1541.67995,162.320574 C1535.59873,162.320574 1531.98287,166.544771 1531.98287,172.573479 L1531.98287,174.37799 Z M1552.05587,184.466849 L1557.45912,184.466849 L1557.45912,171.712235 C1557.45912,168.964457 1558.99997,166.954887 1561.79404,166.954887 C1564.15668,166.954887 1566.06733,168.287765 1566.06733,171.630212 L1566.06733,184.466849 L1571.47058,184.466849 L1571.47058,170.461381 C1571.47058,165.12987 1568.32725,162.361586 1563.93069,162.361586 C1560.31483,162.361586 1558.38363,164.391661 1557.68511,165.888585 L1557.45912,165.888585 L1557.45912,155 L1552.05587,155 L1552.05587,184.466849 Z M1585.56508,181.821599 L1585.79107,181.821599 L1585.79107,184.466849 L1590.9067,184.466849 L1590.9067,169.764183 C1590.9067,164.699248 1587.08539,162.361586 1582.07249,162.361586 C1575.78582,162.361586 1573.44373,165.724539 1573.27937,169.354067 L1578.33336,169.354067 C1578.47717,167.611073 1579.75094,166.442242 1581.96976,166.442242 C1584.25022,166.442242 1585.56508,167.652085 1585.56508,169.825701 L1585.56508,171.794258 L1580.24401,171.794258 C1575.19002,171.794258 1572.47813,174.295967 1572.47813,178.192071 C1572.47813,182.293233 1575.39547,184.794942 1579.64822,184.794942 C1582.85318,184.794942 1584.7022,183.421053 1585.56508,181.821599 Z M1581.39451,180.857826 C1579.58658,180.857826 1577.86083,179.873548 1577.86083,177.843472 C1577.86083,176.182502 1579.03188,175.034176 1581.41506,175.034176 L1585.56508,175.034176 L1585.56508,177.330827 C1585.56508,179.442925 1583.71606,180.857826 1581.39451,180.857826 Z M1593.14692,184.466849 L1598.52962,184.466849 L1598.52962,171.712235 C1598.52962,168.964457 1600.04993,166.954887 1602.844,166.954887 C1605.16555,166.954887 1607.09675,168.287765 1607.09675,171.630212 L1607.09675,184.466849 L1612.5,184.466849 L1612.5,170.461381 C1612.5,165.12987 1609.39775,162.361586 1604.96011,162.361586 C1601.3237,162.361586 1599.33087,164.391661 1598.63235,165.888585 L1598.40636,165.888585 L1598.40636,162.710185 L1593.14692,162.710185 L1593.14692,184.466849 Z" id="chanchan_blur" fill="url(#linearGradient-2)" opacity="0.92" filter="url(#filter-3)"></path>
        <g id="menu" transform="translate(260.000000, 120.000000)">
            <path d="M11,0 L1138,0 L1138,100 L0,100 L0,11 C-7.43989126e-16,4.92486775 4.92486775,1.11598369e-15 11,0 Z" id="menu_bg" fill="#FFFFFF"></path>
            <path d="M1138,0 L1389,0 C1395.07513,-1.11598369e-15 1400,4.92486775 1400,11 L1400,100 L1138,100 L1138,0 Z M1191.62924,48.9029392 C1191.62924,43.5714286 1193.84806,40.6185919 1197.7721,40.6185919 C1201.18251,40.6185919 1203.3397,42.9767601 1203.40134,46.2987013 L1208.74295,46.2987013 L1208.74295,45.786056 C1208.74295,39.9419002 1204.1204,35.9432673 1197.73101,35.9432673 C1190.25275,35.9432673 1186,40.8851675 1186,48.923445 L1186,52.1223513 C1186,60.0991114 1190.25275,65 1197.73101,65 C1204.09986,65 1208.74295,61.1038961 1208.74295,55.4853042 L1208.74295,54.9521531 L1203.40134,54.9521531 C1203.3397,58.089542 1201.18251,60.3246753 1197.7721,60.3246753 C1193.84806,60.3246753 1191.62924,57.4128503 1191.62924,52.163363 L1191.62924,48.9029392 Z M1210.24357,64.4668489 L1215.64682,64.4668489 L1215.64682,51.7122351 C1215.64682,48.9644566 1217.18767,46.9548872 1219.98174,46.9548872 C1222.34438,46.9548872 1224.25503,48.2877649 1224.25503,51.6302119 L1224.25503,64.4668489 L1229.65828,64.4668489 L1229.65828,50.4613807 C1229.65828,45.1298701 1226.51495,42.3615858 1222.11839,42.3615858 C1218.50252,42.3615858 1216.57133,44.391661 1215.87281,45.8885851 L1215.64682,45.8885851 L1215.64682,35 L1210.24357,35 L1210.24357,64.4668489 Z M1243.75278,61.8215995 L1243.97877,61.8215995 L1243.97877,64.4668489 L1249.09439,64.4668489 L1249.09439,49.7641832 C1249.09439,44.6992481 1245.27309,42.3615858 1240.26019,42.3615858 C1233.97352,42.3615858 1231.63142,45.7245386 1231.46707,49.354067 L1236.52106,49.354067 C1236.66487,47.6110731 1237.93864,46.442242 1240.15746,46.442242 C1242.43792,46.442242 1243.75278,47.6520848 1243.75278,49.8257006 L1243.75278,51.7942584 L1238.43171,51.7942584 C1233.37772,51.7942584 1230.66583,54.2959672 1230.66583,58.1920711 C1230.66583,62.2932331 1233.58317,64.7949419 1237.83592,64.7949419 C1241.04088,64.7949419 1242.8899,63.4210526 1243.75278,61.8215995 Z M1239.58221,60.8578264 C1237.77428,60.8578264 1236.04853,59.8735475 1236.04853,57.8434723 C1236.04853,56.1825017 1237.21958,55.0341763 1239.60276,55.0341763 L1243.75278,55.0341763 L1243.75278,57.3308271 C1243.75278,59.4429255 1241.90376,60.8578264 1239.58221,60.8578264 Z M1251.33462,64.4668489 L1256.71732,64.4668489 L1256.71732,51.7122351 C1256.71732,48.9644566 1258.23763,46.9548872 1261.0317,46.9548872 C1263.35325,46.9548872 1265.28445,48.2877649 1265.28445,51.6302119 L1265.28445,64.4668489 L1270.6877,64.4668489 L1270.6877,50.4613807 C1270.6877,45.1298701 1267.58545,42.3615858 1263.14781,42.3615858 C1259.5114,42.3615858 1257.51857,44.391661 1256.82005,45.8885851 L1256.59406,45.8885851 L1256.59406,42.7101846 L1251.33462,42.7101846 L1251.33462,64.4668489 Z M1271.98287,54.3779904 C1271.98287,60.7142857 1275.63982,64.8564593 1281.65941,64.8564593 C1286.81612,64.8564593 1290.30872,62.2727273 1290.7607,57.4128503 L1285.76834,57.4128503 C1285.52181,59.0738209 1284.35076,60.5297334 1281.94703,60.5297334 C1279.15296,60.5297334 1277.40666,58.1920711 1277.40666,54.3574846 L1277.40666,52.6349966 C1277.40666,48.923445 1279.11187,46.6267943 1281.92649,46.6267943 C1283.93987,46.6267943 1285.37799,48.1852358 1285.66562,49.9897471 L1290.65797,49.9897471 C1290.53471,45.8065619 1287.18593,42.3205742 1281.67995,42.3205742 C1275.59873,42.3205742 1271.98287,46.544771 1271.98287,52.5734792 L1271.98287,54.3779904 Z M1292.05587,64.4668489 L1297.45912,64.4668489 L1297.45912,51.7122351 C1297.45912,48.9644566 1298.99997,46.9548872 1301.79404,46.9548872 C1304.15668,46.9548872 1306.06733,48.2877649 1306.06733,51.6302119 L1306.06733,64.4668489 L1311.47058,64.4668489 L1311.47058,50.4613807 C1311.47058,45.1298701 1308.32725,42.3615858 1303.93069,42.3615858 C1300.31483,42.3615858 1298.38363,44.391661 1297.68511,45.8885851 L1297.45912,45.8885851 L1297.45912,35 L1292.05587,35 L1292.05587,64.4668489 Z M1325.56508,61.8215995 L1325.79107,61.8215995 L1325.79107,64.4668489 L1330.9067,64.4668489 L1330.9067,49.7641832 C1330.9067,44.6992481 1327.08539,42.3615858 1322.07249,42.3615858 C1315.78582,42.3615858 1313.44373,45.7245386 1313.27937,49.354067 L1318.33336,49.354067 C1318.47717,47.6110731 1319.75094,46.442242 1321.96976,46.442242 C1324.25022,46.442242 1325.56508,47.6520848 1325.56508,49.8257006 L1325.56508,51.7942584 L1320.24401,51.7942584 C1315.19002,51.7942584 1312.47813,54.2959672 1312.47813,58.1920711 C1312.47813,62.2932331 1315.39547,64.7949419 1319.64822,64.7949419 C1322.85318,64.7949419 1324.7022,63.4210526 1325.56508,61.8215995 Z M1321.39451,60.8578264 C1319.58658,60.8578264 1317.86083,59.8735475 1317.86083,57.8434723 C1317.86083,56.1825017 1319.03188,55.0341763 1321.41506,55.0341763 L1325.56508,55.0341763 L1325.56508,57.3308271 C1325.56508,59.4429255 1323.71606,60.8578264 1321.39451,60.8578264 Z M1333.14692,64.4668489 L1338.52962,64.4668489 L1338.52962,51.7122351 C1338.52962,48.9644566 1340.04993,46.9548872 1342.844,46.9548872 C1345.16555,46.9548872 1347.09675,48.2877649 1347.09675,51.6302119 L1347.09675,64.4668489 L1352.5,64.4668489 L1352.5,50.4613807 C1352.5,45.1298701 1349.39775,42.3615858 1344.96011,42.3615858 C1341.3237,42.3615858 1339.33087,44.391661 1338.63235,45.8885851 L1338.40636,45.8885851 L1338.40636,42.7101846 L1333.14692,42.7101846 L1333.14692,64.4668489 Z" id="chanchan_bg" fill="url(#linearGradient-4)"></path>
            <path d="M1191.64614,48.9029392 L1191.64614,52.163363 C1191.64614,57.4128503 1193.87163,60.3246753 1197.80745,60.3246753 C1201.2281,60.3246753 1203.39177,58.089542 1203.45359,54.9521531 L1208.81125,54.9521531 L1208.81125,55.4853042 C1208.81125,61.1038961 1204.15421,65 1197.76624,65 C1190.26552,65 1186,60.0991114 1186,52.1223513 L1186,48.923445 C1186,40.8851675 1190.26552,35.9432673 1197.76624,35.9432673 C1204.17482,35.9432673 1208.81125,39.9419002 1208.81125,45.786056 L1208.81125,46.2987013 L1203.45359,46.2987013 C1203.39177,42.9767601 1201.2281,40.6185919 1197.80745,40.6185919 C1193.87163,40.6185919 1191.64614,43.5714286 1191.64614,48.9029392 Z M1210.31637,64.4668489 L1210.31637,35 L1215.73584,35 L1215.73584,45.8885851 L1215.96251,45.8885851 C1216.66313,44.391661 1218.60013,42.3615858 1222.22685,42.3615858 C1226.63661,42.3615858 1229.78939,45.1298701 1229.78939,50.4613807 L1229.78939,64.4668489 L1224.36991,64.4668489 L1224.36991,51.6302119 C1224.36991,48.2877649 1222.45352,46.9548872 1220.08379,46.9548872 C1217.28132,46.9548872 1215.73584,48.9644566 1215.73584,51.7122351 L1215.73584,64.4668489 L1210.31637,64.4668489 Z M1243.92621,61.8215995 C1243.06074,63.4210526 1241.20617,64.7949419 1237.99158,64.7949419 C1233.72606,64.7949419 1230.79996,62.2932331 1230.79996,58.1920711 C1230.79996,54.2959672 1233.52,51.7942584 1238.58916,51.7942584 L1243.92621,51.7942584 L1243.92621,49.8257006 C1243.92621,47.6520848 1242.6074,46.442242 1240.3201,46.442242 C1238.09461,46.442242 1236.81702,47.6110731 1236.67277,49.354067 L1231.60361,49.354067 C1231.76846,45.7245386 1234.11758,42.3615858 1240.42313,42.3615858 C1245.45108,42.3615858 1249.28387,44.6992481 1249.28387,49.7641832 L1249.28387,64.4668489 L1244.15288,64.4668489 L1244.15288,61.8215995 L1243.92621,61.8215995 Z M1239.74312,60.8578264 C1242.07164,60.8578264 1243.92621,59.4429255 1243.92621,57.3308271 L1243.92621,55.0341763 L1239.76373,55.0341763 C1237.37339,55.0341763 1236.19882,56.1825017 1236.19882,57.8434723 C1236.19882,59.8735475 1237.92976,60.8578264 1239.74312,60.8578264 Z M1251.53082,64.4668489 L1251.53082,42.7101846 L1256.80605,42.7101846 L1256.80605,45.8885851 L1257.03272,45.8885851 C1257.73334,44.391661 1259.73215,42.3615858 1263.37948,42.3615858 C1267.83046,42.3615858 1270.94202,45.1298701 1270.94202,50.4613807 L1270.94202,64.4668489 L1265.52254,64.4668489 L1265.52254,51.6302119 C1265.52254,48.2877649 1263.58554,46.9548872 1261.25702,46.9548872 C1258.45456,46.9548872 1256.92969,48.9644566 1256.92969,51.7122351 L1256.92969,64.4668489 L1251.53082,64.4668489 Z M1272.24108,54.3779904 L1272.24108,52.5734792 C1272.24108,46.544771 1275.8678,42.3205742 1281.96728,42.3205742 C1287.48979,42.3205742 1290.84862,45.8065619 1290.97226,49.9897471 L1285.96492,49.9897471 C1285.67643,48.1852358 1284.23398,46.6267943 1282.21456,46.6267943 C1279.39148,46.6267943 1277.68116,48.923445 1277.68116,52.6349966 L1277.68116,54.3574846 C1277.68116,58.1920711 1279.4327,60.5297334 1282.23516,60.5297334 C1284.64611,60.5297334 1285.82067,59.0738209 1286.06795,57.4128503 L1291.07529,57.4128503 C1290.62195,62.2727273 1287.11887,64.8564593 1281.94667,64.8564593 C1275.90901,64.8564593 1272.24108,60.7142857 1272.24108,54.3779904 Z M1292.37435,64.4668489 L1292.37435,35 L1297.79383,35 L1297.79383,45.8885851 L1298.0205,45.8885851 C1298.72111,44.391661 1300.65811,42.3615858 1304.28483,42.3615858 C1308.6946,42.3615858 1311.84737,45.1298701 1311.84737,50.4613807 L1311.84737,64.4668489 L1306.4279,64.4668489 L1306.4279,51.6302119 C1306.4279,48.2877649 1304.5115,46.9548872 1302.14177,46.9548872 C1299.33931,46.9548872 1297.79383,48.9644566 1297.79383,51.7122351 L1297.79383,64.4668489 L1292.37435,64.4668489 Z M1325.9842,61.8215995 C1325.11873,63.4210526 1323.26416,64.7949419 1320.04956,64.7949419 C1315.78404,64.7949419 1312.85794,62.2932331 1312.85794,58.1920711 C1312.85794,54.2959672 1315.57798,51.7942584 1320.64715,51.7942584 L1325.9842,51.7942584 L1325.9842,49.8257006 C1325.9842,47.6520848 1324.66539,46.442242 1322.37808,46.442242 C1320.15259,46.442242 1318.875,47.6110731 1318.73075,49.354067 L1313.66159,49.354067 C1313.82644,45.7245386 1316.17556,42.3615858 1322.48111,42.3615858 C1327.50907,42.3615858 1331.34185,44.6992481 1331.34185,49.7641832 L1331.34185,64.4668489 L1326.21087,64.4668489 L1326.21087,61.8215995 L1325.9842,61.8215995 Z M1321.8011,60.8578264 C1324.12962,60.8578264 1325.9842,59.4429255 1325.9842,57.3308271 L1325.9842,55.0341763 L1321.82171,55.0341763 C1319.43137,55.0341763 1318.25681,56.1825017 1318.25681,57.8434723 C1318.25681,59.8735475 1319.98774,60.8578264 1321.8011,60.8578264 Z M1333.5888,64.4668489 L1333.5888,42.7101846 L1338.86403,42.7101846 L1338.86403,45.8885851 L1339.0907,45.8885851 C1339.79132,44.391661 1341.79014,42.3615858 1345.43746,42.3615858 C1349.88844,42.3615858 1353,45.1298701 1353,50.4613807 L1353,64.4668489 L1347.58053,64.4668489 L1347.58053,51.6302119 C1347.58053,48.2877649 1345.64353,46.9548872 1343.31501,46.9548872 C1340.51254,46.9548872 1338.98767,48.9644566 1338.98767,51.7122351 L1338.98767,64.4668489 L1333.5888,64.4668489 Z" id="chanchan" fill="url(#linearGradient-5)" opacity="0.85905878"></path>
        </g>
        <text id="Tổng-quan" font-family="SFCompactDisplay-Medium, SF Compact Display" font-size="28" font-weight="400" line-spacing="42" letter-spacing="-1.456" fill="#343D51">
            <tspan x="318.828367" y="176">Tổng quan</tspan>
        </text>
        <text id="Hoạt-động" font-family="SFCompactDisplay-Medium, SF Compact Display" font-size="28" font-weight="400" line-spacing="42" letter-spacing="-1.456" fill="#343D51">
            <tspan x="496.212156" y="176">Hoạt động</tspan>
        </text>
        <text id="Faq" font-family="SFCompactDisplay-Medium, SF Compact Display" font-size="28" font-weight="400" line-spacing="42" letter-spacing="-1.456" fill="#343D51">
            <tspan x="680.11857" y="176">Faq</tspan>
        </text>
        <text id="Chúng-tôi" font-family="SFCompactDisplay-Medium, SF Compact Display" font-size="28" font-weight="400" line-spacing="42" letter-spacing="-1.456" fill="#343D51">
            <tspan x="789.689695" y="176">Chúng tôi</tspan>
        </text>
        <text id="Chương-trình" opacity="0.63952753" font-family="SFCompactDisplay-Medium, SF Compact Display" font-size="28" font-weight="400" line-spacing="42" letter-spacing="-1.456" fill="#343D51">
            <tspan x="1059.82194" y="176">Chương trình</tspan>
        </text>
        <text id="Blog" font-family="SFCompactDisplay-Medium, SF Compact Display" font-size="28" font-weight="400" line-spacing="42" letter-spacing="-1.456" fill="#343D51">
            <tspan x="964.014539" y="176">Blog</tspan>
        </text>
        <text id="Đăng-ký" font-family="SFCompactDisplay-Medium, SF Compact Display" font-size="28" font-weight="400" line-spacing="42" letter-spacing="-1.456" fill="#343D51">
            <tspan x="1249.68682" y="176">Đăng ký</tspan>
        </text>
    </g>
</svg>