<?xml version="1.0" encoding="UTF-8"?>
<svg width="320px" height="183px" viewBox="0 0 320 183" version="1.1" xmlns="http://www.w3.org/2000/svg" xmlns:xlink="http://www.w3.org/1999/xlink">
    <!-- Generator: Sketch 54.1 (76490) - https://sketchapp.com -->
    <title>blog_grey</title>
    <desc>Created with Sketch.</desc>
    <g id="blog_grey" stroke="none" stroke-width="1" fill="none" fill-rule="evenodd">
        <rect fill="#ECF5FA" x="0" y="0" width="320" height="183"></rect>
        <text id="B." font-family="Georgia-Bold, Georgia" font-size="52" font-weight="bold" fill="#191F2C">
            <tspan x="30" y="88">B.</tspan>
        </text>
        <text id="—-Hiểu-hơn-về-Chanch" font-family="Georgia-Italic, Georgia" font-size="15" font-style="italic" font-weight="normal" line-spacing="20" fill="#5D6A80">
            <tspan x="30" y="125">— Hiểu hơn về Chanchan qua những </tspan>
            <tspan x="30" y="145">bài viết</tspan>
        </text>
        <path d="M3.04720534,179 C3.01573507,179.166826 3,179.339903 3,179.519231 C3,180.198721 3.22884537,180.782049 3.68654298,181.269231 C4.14424058,181.756413 4.68408094,182 5.30608025,182 C5.91634372,182 6.45325017,181.759618 6.91681569,181.278846 C7.38038122,180.798075 7.6121605,180.211542 7.6121605,179.519231 C7.6121605,179.339903 7.59622108,179.166826 7.5643421,179 L12.7468253,179 C12.7153551,179.166826 12.69962,179.339903 12.69962,179.519231 C12.69962,180.198721 12.9284654,180.782049 13.386163,181.269231 C13.8438606,181.756413 14.3837009,182 15.0057002,182 C15.6159637,182 16.1528702,181.759618 16.6164357,181.278846 C17.0800012,180.798075 17.3117805,180.211542 17.3117805,179.519231 C17.3117805,179.339903 17.2958411,179.166826 17.2639621,179 L22.4464453,179 C22.414975,179.166826 22.39924,179.339903 22.39924,179.519231 C22.39924,180.198721 22.6280853,180.782049 23.0857829,181.269231 C23.5434805,181.756413 24.0833209,182 24.7053202,182 C25.3273195,182 25.8671599,181.756413 26.3248575,181.269231 C26.7825551,180.782049 27.0114005,180.198721 27.0114005,179.519231 C27.0114005,179.339903 26.9956654,179.166826 26.9641951,179 L32.1460653,179 C32.114595,179.166826 32.09886,179.339903 32.09886,179.519231 C32.09886,180.198721 32.3277053,180.782049 32.7854029,181.269231 C33.2431005,181.756413 33.7829409,182 34.4049402,182 C35.0152037,182 35.5521101,181.759618 36.0156756,181.278846 C36.4792412,180.798075 36.7110205,180.211542 36.7110205,179.519231 C36.7110205,179.339903 36.695081,179.166826 36.6632021,179 L41.8456853,179 C41.814215,179.166826 41.7984799,179.339903 41.7984799,179.519231 C41.7984799,180.198721 42.0273253,180.782049 42.4850229,181.269231 C42.9427205,181.756413 43.4825609,182 44.1045602,182 C44.7148237,182 45.2517301,181.759618 45.7152956,181.278846 C46.1788612,180.798075 46.4106404,180.211542 46.4106404,179.519231 C46.4106404,179.339903 46.394701,179.166826 46.362822,179 L51.5453053,179 C51.513835,179.166826 51.4980999,179.339903 51.4980999,179.519231 C51.4980999,180.198721 51.7269453,180.782049 52.1846429,181.269231 C52.6423405,181.756413 53.1821809,182 53.8041802,182 C54.4261795,182 54.9660198,181.756413 55.4237174,181.269231 C55.8814151,180.782049 56.1102604,180.198721 56.1102604,179.519231 C56.1102604,179.339903 56.0945254,179.166826 56.0630551,179 L61.2449252,179 C61.213455,179.166826 61.1977199,179.339903 61.1977199,179.519231 C61.1977199,180.198721 61.4265653,180.782049 61.8842629,181.269231 C62.3419605,181.756413 62.8818008,182 63.5038002,182 C64.1140636,182 64.6509701,181.759618 65.1145356,181.278846 C65.5781011,180.798075 65.8098804,180.211542 65.8098804,179.519231 C65.8098804,179.339903 65.793941,179.166826 65.762062,179 L70.9445452,179 C70.913075,179.166826 70.8973399,179.339903 70.8973399,179.519231 C70.8973399,180.198721 71.1261853,180.782049 71.5838829,181.269231 C72.0415805,181.756413 72.5814208,182 73.2034201,182 C73.8136836,182 74.3505901,181.759618 74.8141556,181.278846 C75.2777211,180.798075 75.5095004,180.211542 75.5095004,179.519231 C75.5095004,179.339903 75.493561,179.166826 75.461682,179 L80.6441652,179 C80.6126949,179.166826 80.5969599,179.339903 80.5969599,179.519231 C80.5969599,180.198721 80.8258052,180.782049 81.2835029,181.269231 C81.7412005,181.756413 82.2810408,182 82.9030401,182 C83.5250394,182 84.0648798,181.756413 84.5225774,181.269231 C84.980275,180.782049 85.2091204,180.198721 85.2091204,179.519231 C85.2091204,179.339903 85.1933853,179.166826 85.161915,179 L90.3437852,179 C90.3123149,179.166826 90.2965799,179.339903 90.2965799,179.519231 C90.2965799,180.198721 90.5254252,180.782049 90.9831228,181.269231 C91.4408204,181.756413 91.9806608,182 92.6026601,182 C93.2129236,182 93.74983,181.759618 94.2133956,181.278846 C94.6769611,180.798075 94.9087404,180.211542 94.9087404,179.519231 C94.9087404,179.339903 94.8928009,179.166826 94.860922,179 L100.043405,179 C100.011935,179.166826 99.9961998,179.339903 99.9961998,179.519231 C99.9961998,180.198721 100.225045,180.782049 100.682743,181.269231 C101.14044,181.756413 101.680281,182 102.30228,182 C102.912544,182 103.44945,181.759618 103.913016,181.278846 C104.376581,180.798075 104.60836,180.211542 104.60836,179.519231 C104.60836,179.339903 104.592421,179.166826 104.560542,179 L109.743025,179 C109.711555,179.166826 109.69582,179.339903 109.69582,179.519231 C109.69582,180.198721 109.924665,180.782049 110.382363,181.269231 C110.84006,181.756413 111.379901,182 112.0019,182 C112.623899,182 113.16374,181.756413 113.621437,181.269231 C114.079135,180.782049 114.30798,180.198721 114.30798,179.519231 C114.30798,179.339903 114.292245,179.166826 114.260775,179 L119.442645,179 C119.411175,179.166826 119.39544,179.339903 119.39544,179.519231 C119.39544,180.198721 119.624285,180.782049 120.081983,181.269231 C120.53968,181.756413 121.079521,182 121.70152,182 C122.311784,182 122.84869,181.759618 123.312256,181.278846 C123.775821,180.798075 124.0076,180.211542 124.0076,179.519231 C124.0076,179.339903 123.991661,179.166826 123.959782,179 L129.142265,179 C129.110795,179.166826 129.09506,179.339903 129.09506,179.519231 C129.09506,180.198721 129.323905,180.782049 129.781603,181.269231 C130.2393,181.756413 130.779141,182 131.40114,182 C132.011404,182 132.54831,181.759618 133.011875,181.278846 C133.475441,180.798075 133.70722,180.211542 133.70722,179.519231 C133.70722,179.339903 133.691281,179.166826 133.659402,179 L138.841885,179 C138.810415,179.166826 138.79468,179.339903 138.79468,179.519231 C138.79468,180.198721 139.023525,180.782049 139.481223,181.269231 C139.93892,181.756413 140.478761,182 141.10076,182 C141.722759,182 142.2626,181.756413 142.720297,181.269231 C143.177995,180.782049 143.40684,180.198721 143.40684,179.519231 C143.40684,179.339903 143.391105,179.166826 143.359635,179 L148.541505,179 C148.510035,179.166826 148.4943,179.339903 148.4943,179.519231 C148.4943,180.198721 148.723145,180.782049 149.180843,181.269231 C149.63854,181.756413 150.178381,182 150.80038,182 C151.410643,182 151.94755,181.759618 152.411115,181.278846 C152.874681,180.798075 153.10646,180.211542 153.10646,179.519231 C153.10646,179.339903 153.090521,179.166826 153.058642,179 L158.241125,179 C158.209655,179.166826 158.19392,179.339903 158.19392,179.519231 C158.19392,180.198721 158.422765,180.782049 158.880463,181.269231 C159.33816,181.756413 159.878001,182 160.5,182 C161.110263,182 161.64717,181.759618 162.110735,181.278846 C162.574301,180.798075 162.80608,180.211542 162.80608,179.519231 C162.80608,179.339903 162.790141,179.166826 162.758262,179 L167.940745,179 C167.909275,179.166826 167.89354,179.339903 167.89354,179.519231 C167.89354,180.198721 168.122385,180.782049 168.580083,181.269231 C169.03778,181.756413 169.577621,182 170.19962,182 C170.821619,182 171.36146,181.756413 171.819157,181.269231 C172.276855,180.782049 172.5057,180.198721 172.5057,179.519231 C172.5057,179.339903 172.489965,179.166826 172.458495,179 L177.640365,179 C177.608895,179.166826 177.59316,179.339903 177.59316,179.519231 C177.59316,180.198721 177.822005,180.782049 178.279703,181.269231 C178.7374,181.756413 179.277241,182 179.89924,182 C180.509503,182 181.04641,181.759618 181.509975,181.278846 C181.973541,180.798075 182.20532,180.211542 182.20532,179.519231 C182.20532,179.339903 182.189381,179.166826 182.157502,179 L187.339985,179 C187.308515,179.166826 187.29278,179.339903 187.29278,179.519231 C187.29278,180.198721 187.521625,180.782049 187.979323,181.269231 C188.43702,181.756413 188.976861,182 189.59886,182 C190.209123,182 190.74603,181.759618 191.209595,181.278846 C191.673161,180.798075 191.90494,180.211542 191.90494,179.519231 C191.90494,179.339903 191.889001,179.166826 191.857122,179 L197.039605,179 C197.008135,179.166826 196.9924,179.339903 196.9924,179.519231 C196.9924,180.198721 197.221245,180.782049 197.678943,181.269231 C198.13664,181.756413 198.676481,182 199.29848,182 C199.920479,182 200.46032,181.756413 200.918017,181.269231 C201.375715,180.782049 201.60456,180.198721 201.60456,179.519231 C201.60456,179.339903 201.588825,179.166826 201.557355,179 L206.739225,179 C206.707755,179.166826 206.69202,179.339903 206.69202,179.519231 C206.69202,180.198721 206.920865,180.782049 207.378563,181.269231 C207.83626,181.756413 208.376101,182 208.9981,182 C209.608363,182 210.14527,181.759618 210.608835,181.278846 C211.072401,180.798075 211.30418,180.211542 211.30418,179.519231 C211.30418,179.339903 211.288241,179.166826 211.256362,179 L216.438845,179 C216.407375,179.166826 216.39164,179.339903 216.39164,179.519231 C216.39164,180.198721 216.620485,180.782049 217.078183,181.269231 C217.53588,181.756413 218.075721,182 218.69772,182 C219.307983,182 219.84489,181.759618 220.308455,181.278846 C220.772021,180.798075 221.0038,180.211542 221.0038,179.519231 C221.0038,179.339903 220.987861,179.166826 220.955982,179 L226.138465,179 C226.106995,179.166826 226.09126,179.339903 226.09126,179.519231 C226.09126,180.198721 226.320105,180.782049 226.777803,181.269231 C227.2355,181.756413 227.775341,182 228.39734,182 C229.019339,182 229.55918,181.756413 230.016877,181.269231 C230.474575,180.782049 230.70342,180.198721 230.70342,179.519231 C230.70342,179.339903 230.687685,179.166826 230.656215,179 L235.838085,179 C235.806615,179.166826 235.79088,179.339903 235.79088,179.519231 C235.79088,180.198721 236.019725,180.782049 236.477423,181.269231 C236.93512,181.756413 237.474961,182 238.09696,182 C238.707223,182 239.24413,181.759618 239.707695,181.278846 C240.171261,180.798075 240.40304,180.211542 240.40304,179.519231 C240.40304,179.339903 240.387101,179.166826 240.355222,179 L245.537705,179 C245.506235,179.166826 245.4905,179.339903 245.4905,179.519231 C245.4905,180.198721 245.719345,180.782049 246.177043,181.269231 C246.63474,181.756413 247.174581,182 247.79658,182 C248.406843,182 248.94375,181.759618 249.407315,181.278846 C249.870881,180.798075 250.10266,180.211542 250.10266,179.519231 C250.10266,179.339903 250.086721,179.166826 250.054842,179 L255.237325,179 C255.205855,179.166826 255.19012,179.339903 255.19012,179.519231 C255.19012,180.198721 255.418965,180.782049 255.876663,181.269231 C256.33436,181.756413 256.874201,182 257.4962,182 C258.118199,182 258.65804,181.756413 259.115737,181.269231 C259.573435,180.782049 259.80228,180.198721 259.80228,179.519231 C259.80228,179.339903 259.786545,179.166826 259.755075,179 L264.936945,179 C264.905475,179.166826 264.88974,179.339903 264.88974,179.519231 C264.88974,180.198721 265.118585,180.782049 265.576283,181.269231 C266.03398,181.756413 266.573821,182 267.19582,182 C267.806083,182 268.34299,181.759618 268.806555,181.278846 C269.270121,180.798075 269.5019,180.211542 269.5019,179.519231 C269.5019,179.339903 269.485961,179.166826 269.454082,179 L274.636565,179 C274.605095,179.166826 274.58936,179.339903 274.58936,179.519231 C274.58936,180.198721 274.818205,180.782049 275.275903,181.269231 C275.7336,181.756413 276.273441,182 276.89544,182 C277.505703,182 278.04261,181.759618 278.506175,181.278846 C278.969741,180.798075 279.20152,180.211542 279.20152,179.519231 C279.20152,179.339903 279.185581,179.166826 279.153702,179 L284.336185,179 C284.304715,179.166826 284.28898,179.339903 284.28898,179.519231 C284.28898,180.198721 284.517825,180.782049 284.975523,181.269231 C285.43322,181.756413 285.97306,182 286.59506,182 C287.217059,182 287.756899,181.756413 288.214597,181.269231 C288.672295,180.782049 288.90114,180.198721 288.90114,179.519231 C288.90114,179.339903 288.885405,179.166826 288.853935,179 L294.035805,179 C294.004335,179.166826 293.9886,179.339903 293.9886,179.519231 C293.9886,180.198721 294.217445,180.782049 294.675143,181.269231 C295.13284,181.756413 295.67268,182 296.29468,182 C296.904943,182 297.44185,181.759618 297.905415,181.278846 C298.368981,180.798075 298.60076,180.211542 298.60076,179.519231 C298.60076,179.339903 298.584821,179.166826 298.552942,179 L303.735425,179 C303.703955,179.166826 303.68822,179.339903 303.68822,179.519231 C303.68822,180.198721 303.917065,180.782049 304.374762,181.269231 C304.83246,181.756413 305.3723,182 305.9943,182 C306.604563,182 307.14147,181.759618 307.605035,181.278846 C308.068601,180.798075 308.30038,180.211542 308.30038,179.519231 C308.30038,179.339903 308.284441,179.166826 308.252562,179 L313.435045,179 C313.403575,179.166826 313.387839,179.339903 313.387839,179.519231 C313.387839,180.198721 313.616685,180.782049 314.074382,181.269231 C314.53208,181.756413 315.07192,182 315.69392,182 C316.315919,182 316.855759,181.756413 317.313457,181.269231 C317.771155,180.782049 318,180.198721 318,179.519231 C318,179.339903 317.984265,179.166826 317.952795,179 L320,179 L320,183 L0,183 L0,179 L3.04720534,179 Z" id="Rectangle-2" fill="#FFFFFF"></path>
    </g>
</svg>