<?xml version="1.0" encoding="UTF-8"?>
<svg width="320px" height="568px" viewBox="0 0 320 568" version="1.1" xmlns="http://www.w3.org/2000/svg" xmlns:xlink="http://www.w3.org/1999/xlink">
    <!-- Generator: Sketch 54.1 (76490) - https://sketchapp.com -->
    <title>slide_event5</title>
    <desc>Created with Sketch.</desc>
    <defs>
        <linearGradient x1="0%" y1="77.3706436%" x2="100%" y2="22.6293564%" id="linearGradient-1">
            <stop stop-color="#651FFF" offset="0%"></stop>
            <stop stop-color="#304FFE" offset="100%"></stop>
        </linearGradient>
    </defs>
    <g id="slide_event5" stroke="none" stroke-width="1" fill="none" fill-rule="evenodd">
        <text id="Cafe-bóc-phốt-tình-c" font-family="GMVDINPro-Bold, GMV DIN Pro" font-size="16" font-weight="bold" letter-spacing="-0.319999993" fill="#343D51">
            <tspan x="80" y="42">Cafe bóc phốt tình cũ</tspan>
        </text>
        <text id="08:30-Tối-nay-tại-Cộ" font-family="GMVDINPro, GMV DIN Pro" font-size="15" font-weight="normal" letter-spacing="-0.300000012" fill="#5D6A80">
            <tspan x="80" y="64">08:30 Tối nay tại Cộng cafe</tspan>
            <tspan x="247.595" y="64">…</tspan>
        </text>
        <text id="Uầy-!" opacity="0.92" font-family="GMVDINPro, GMV DIN Pro" font-size="16" font-weight="normal" letter-spacing="-0.319999993" fill="#FFFFFF">
            <tspan x="70" y="104">Uầy </tspan>
            <tspan x="99.2" y="104">!</tspan>
        </text>
        <text id="Thấy-trời-báo-mưa.-M" opacity="0.92" font-family="GMVDINPro, GMV DIN Pro" font-size="16" font-weight="normal" line-spacing="21" letter-spacing="-0.319999993" fill="#FFFFFF">
            <tspan x="70" y="152">Thấy trời báo mưa. Mang </tspan>
            <tspan x="70" y="173">áo mưa nhé các tình yêu</tspan>
            <tspan x="233.728" y="173">.</tspan>
        </text>
        <text id="Căng!-Đã-đến-rồi-nhé" opacity="0.92" font-family="GMVDINPro, GMV DIN Pro" font-size="16" font-weight="normal" letter-spacing="-0.319999993" fill="#FFFFFF">
            <tspan x="70" y="265">Căng! Đã đến rồi nh</tspan>
            <tspan x="204.096" y="265">é</tspan>
        </text>
        <text id="Có.-Cho-500-địa-chỉ" opacity="0.92" font-family="GMVDINPro, GMV DIN Pro" font-size="16" font-weight="normal" letter-spacing="-0.319999993" fill="#FFFFFF">
            <tspan x="70" y="400">Có. Cho 500 địa ch</tspan>
            <tspan x="193.872" y="400">ỉ</tspan>
        </text>
        <text id="Ahuhu.-Không-dắt-xe" opacity="0.92" font-family="GMVDINPro, GMV DIN Pro" font-size="16" font-weight="normal" line-spacing="21" letter-spacing="-0.319999993" fill="#FFFFFF">
            <tspan x="70" y="312">Ahuhu. Không dắt xe ra </tspan>
            <tspan x="70" y="333">được có ai qua Xuân Thuỷ </tspan>
            <tspan x="70" y="354">không cho em đi nhờ với </tspan>
            <tspan x="237.056" y="354">ạ</tspan>
        </text>
        <text id="Em-cân-hết" opacity="0.92" font-family="GMVDINPro, GMV DIN Pro" font-size="16" font-weight="normal" letter-spacing="-0.319999993" fill="#FFFFFF">
            <tspan x="178" y="218">Em cân hế</tspan>
            <tspan x="249.424" y="218">t</tspan>
        </text>
        <text id="Aa" font-family="GMVDINPro, GMV DIN Pro" font-size="16" font-weight="normal" letter-spacing="-0.319999993" fill="#556279">
            <tspan x="110" y="523.617284">A</tspan>
            <tspan x="119.456" y="523.617284">a</tspan>
        </text>
        <path d="M45.7383513,520.831541 C49.4539068,520.831541 52.4767025,523.854337 52.4767025,527.569892 C52.4767025,527.807484 52.284129,528 52.046595,528 C51.8090609,528 51.6164875,527.807484 51.6164875,527.569892 C51.6164875,524.328659 48.9795842,521.691756 45.7383513,521.691756 C42.4971183,521.691756 39.8602151,524.328659 39.8602151,527.569892 C39.8602151,527.807484 39.6676416,528 39.4301075,528 C39.1925735,528 39,527.807484 39,527.569892 C39,523.854337 42.0227957,520.831541 45.7383513,520.831541 Z M45.7383513,519.168459 C43.7620358,519.168459 42.1541219,517.560602 42.1541219,515.584229 C42.1541219,513.607857 43.7620358,512 45.7383513,512 C47.7146667,512 49.3225806,513.607857 49.3225806,515.584229 C49.3225806,517.560602 47.7146667,519.168459 45.7383513,519.168459 Z M45.7383513,512.860215 C44.2363584,512.860215 43.0143369,514.082237 43.0143369,515.584229 C43.0143369,517.086222 44.2363584,518.308244 45.7383513,518.308244 C47.2403441,518.308244 48.4623656,517.086222 48.4623656,515.584229 C48.4623656,514.082237 47.2403441,512.860215 45.7383513,512.860215 Z M55.2007168,519.168459 C53.2244014,519.168459 51.6164875,517.560602 51.6164875,515.584229 C51.6164875,513.607857 53.2244014,512 55.2007168,512 C57.1770323,512 58.7849462,513.607857 58.7849462,515.584229 C58.7849462,517.560602 57.1770323,519.168459 55.2007168,519.168459 Z M55.2007168,512.860215 C53.698724,512.860215 52.4767025,514.082237 52.4767025,515.584229 C52.4767025,517.086222 53.698724,518.308244 55.2007168,518.308244 C56.7027097,518.308244 57.9247312,517.086222 57.9247312,515.584229 C57.9247312,514.082237 56.7027097,512.860215 55.2007168,512.860215 Z M59.8548244,523.978896 C58.7316129,522.525362 57.0352115,521.691756 55.2007168,521.691756 C54.0227384,521.691756 52.8863943,522.038824 51.9144659,522.695398 C51.7177061,522.828387 51.4503513,522.776659 51.3173047,522.579728 C51.1843728,522.38291 51.2361004,522.115556 51.4329749,521.982566 C52.5475842,521.229534 53.8504659,520.831541 55.2007168,520.831541 C57.3036559,520.831541 59.2481434,521.786953 60.5355412,523.452903 C60.6807455,523.640889 60.6461649,523.910996 60.4581792,524.056258 C60.3798423,524.116703 60.2872832,524.146007 60.1954695,524.146007 C60.0668387,524.146065 59.9395842,524.088545 59.8548244,523.978896 Z" id="mem" fill="url(#linearGradient-1)"></path>
        <text id="Nay-đông!-Dự-là-sẽ-c" opacity="0.92" font-family="GMVDINPro, GMV DIN Pro" font-size="16" font-weight="normal" line-spacing="21" letter-spacing="-0.319999993" fill="#FFFFFF">
            <tspan x="70" y="447">Nay đông! Dự là sẽ có </tspan>
            <tspan x="70" y="468">nhiều biến :3</tspan>
        </text>
    </g>
</svg>