<?xml version="1.0" encoding="UTF-8"?>
<svg width="320px" height="568px" viewBox="0 0 320 568" version="1.1" xmlns="http://www.w3.org/2000/svg" xmlns:xlink="http://www.w3.org/1999/xlink">
    <!-- Generator: Sketch 54.1 (76490) - https://sketchapp.com -->
    <title>slide_finish9</title>
    <desc>Created with Sketch.</desc>
    <defs>
        <linearGradient x1="0%" y1="53.3597225%" x2="139.523584%" y2="44.4827691%" id="linearGradient-1">
            <stop stop-color="#D500F9" offset="0%"></stop>
            <stop stop-color="#651FFF" offset="100%"></stop>
        </linearGradient>
        <filter x="-12.0%" y="-100.0%" width="124.0%" height="300.0%" filterUnits="objectBoundingBox" id="filter-2">
            <feGaussianBlur stdDeviation="10" in="SourceGraphic"></feGaussianBlur>
        </filter>
        <linearGradient x1="0%" y1="58.6284786%" x2="139.523584%" y2="35.8305829%" id="linearGradient-3">
            <stop stop-color="#D500F9" offset="0%"></stop>
            <stop stop-color="#651FFF" offset="100%"></stop>
        </linearGradient>
        <text id="text-4" font-family="GMVDINPro-Bold, GMV DIN Pro" font-size="18" font-style="expanded" font-weight="bold" letter-spacing="-0.720000029" fill="#FFFFFF">
            <tspan x="92.3830002" y="513">Cảm ơn Chanchan</tspan>
        </text>
        <filter x="-5.9%" y="-33.3%" width="110.3%" height="183.3%" filterUnits="objectBoundingBox" id="filter-5">
            <feOffset dx="-1" dy="2" in="SourceAlpha" result="shadowOffsetOuter1"></feOffset>
            <feGaussianBlur stdDeviation="2" in="shadowOffsetOuter1" result="shadowBlurOuter1"></feGaussianBlur>
            <feColorMatrix values="0 0 0 0 0   0 0 0 0 0   0 0 0 0 0  0 0 0 0.1 0" type="matrix" in="shadowBlurOuter1"></feColorMatrix>
        </filter>
    </defs>
    <g id="slide_finish9" stroke="none" stroke-width="1" fill="none" fill-rule="evenodd">
        <text id="Lời-tạm-biệt" font-family="GMVDINPro-Bold, GMV DIN Pro" font-size="24" font-style="expanded" font-weight="bold" letter-spacing="-1.44" fill="#343D51">
            <tspan x="30" y="271">Lời tạm biệt</tspan>
        </text>
        <g id="move" transform="translate(30.000000, 296.000000)" font-size="16" font-weight="normal" letter-spacing="-0.319999993" line-spacing="21">
            <text id="Chanchan-chúc-hai-bạ" font-family="GMVDINPro, GMV DIN Pro" fill="#4D5B72">
                <tspan x="0" y="12">Chanchan chúc hai bạn luôn bên </tspan>
                <tspan x="0" y="33">nhau. Chúc cho tình cảm này còn mãi </tspan>
                <tspan x="0" y="54">bên bạn theo năm tháng. Chanchan sẽ </tspan>
                <tspan x="0" y="75">nhớ đến hai bạn.</tspan>
            </text>
            <text id="Nói-lời-tạm-biệt-cùn" font-family="GMVDINPro-Italic, GMV DIN Pro" font-style="italic" fill="#8C96A8">
                <tspan x="0" y="112">Nói lời tạm biệt cùng tấm hình kỷ niệm</tspan>
                <tspan x="0" y="133">……………………………………………………………</tspan>
                <tspan x="0" y="154">……………………………………………………………</tspan>
            </text>
        </g>
        <rect id="Rectangle" fill="url(#linearGradient-1)" opacity="0.72" filter="url(#filter-2)" transform="translate(155.000000, 518.000000) scale(-1, 1) translate(-155.000000, -518.000000) " x="30" y="503" width="250" height="30" rx="5"></rect>
        <rect id="Rectangle" fill="url(#linearGradient-3)" transform="translate(160.000000, 509.000000) scale(-1, 1) translate(-160.000000, -509.000000) " x="30" y="484" width="260" height="50" rx="5"></rect>
        <path d="M260.15,507.5 L260.25,507.65 L264.15,511.85 C264.25,511.95 264.35,512 264.5,512 C264.65,512 264.75,511.95 264.85,511.85 L272.85,503.55 C273.05,503.35 273.05,503.05 272.85,502.85 L272.15,502.15 C271.95,501.95 271.65,501.95 271.45,502.15 L271.4,502.15 L264.7,509.1 C264.6,509.2 264.45,509.2 264.35,509.1 L261.6,506.15 L261.55,506.1 C261.35,505.9 261.05,505.9 260.85,506.1 L260.15,506.8 C260.05,506.9 260,507.05 260,507.15 C260,507.25 260.05,507.4 260.15,507.5 Z" id="check" fill="#FFFFFF" opacity="0.6"></path>
        <g id="Cảm-ơn-Chanchan" fill="#FFFFFF" fill-opacity="1">
            <use filter="url(#filter-5)" xlink:href="#text-4"></use>
            <use xlink:href="#text-4"></use>
        </g>
    </g>
</svg>