<?xml version="1.0" encoding="UTF-8"?>
<svg width="640px" height="1243px" viewBox="0 0 640 1243" version="1.1" xmlns="http://www.w3.org/2000/svg" xmlns:xlink="http://www.w3.org/1999/xlink">
    <title>1_pc</title>
    <defs>
        <rect id="path-1" x="15" y="248" width="290" height="534" rx="19"></rect>
        <filter x="-6.7%" y="-2.2%" width="110.7%" height="105.8%" filterUnits="objectBoundingBox" id="filter-2">
            <feOffset dx="-4" dy="4" in="SourceAlpha" result="shadowOffsetOuter1"></feOffset>
            <feGaussianBlur stdDeviation="4.5" in="shadowOffsetOuter1" result="shadowBlurOuter1"></feGaussianBlur>
            <feColorMatrix values="0 0 0 0 0.42745098   0 0 0 0 0.447058824   0 0 0 0 0.470588235  0 0 0 0.0999260749 0" type="matrix" in="shadowBlurOuter1"></feColorMatrix>
        </filter>
        <rect id="path-3" x="3" y="0" width="4.8" height="6.6"></rect>
        <linearGradient x1="-41.2211541%" y1="158.95067%" x2="184.057905%" y2="0%" id="linearGradient-5">
            <stop stop-color="#277AFF" offset="0%"></stop>
            <stop stop-color="#03A9F4" offset="100%"></stop>
        </linearGradient>
        <linearGradient x1="0%" y1="128.824167%" x2="240.989022%" y2="-154.098837%" id="linearGradient-6">
            <stop stop-color="#F50057" offset="0%"></stop>
            <stop stop-color="#AA00FF" offset="100%"></stop>
        </linearGradient>
        <rect id="path-7" x="0" y="0" width="4.8" height="6.6"></rect>
        <linearGradient x1="-19.7158884%" y1="56.73876%" x2="121.647364%" y2="39.200064%" id="linearGradient-9">
            <stop stop-color="#3D5AFE" offset="0%"></stop>
            <stop stop-color="#00B0FF" offset="100%"></stop>
        </linearGradient>
        <filter x="-13.0%" y="-44.1%" width="126.1%" height="188.2%" filterUnits="objectBoundingBox" id="filter-10">
            <feGaussianBlur stdDeviation="10" in="SourceGraphic"></feGaussianBlur>
        </filter>
        <linearGradient x1="-19.7158884%" y1="55.7036865%" x2="121.647364%" y2="40.8589342%" id="linearGradient-11">
            <stop stop-color="#3D5AFE" offset="0%"></stop>
            <stop stop-color="#00B0FF" offset="100%"></stop>
        </linearGradient>
    </defs>
    <g id="Chanchan-8" stroke="none" stroke-width="1" fill="none" fill-rule="evenodd">
        <g id="paid-set">
            <g id="1" transform="translate(160.000000, 110.000000)">
                <rect id="Rectangle" fill="#F0F6FA" x="0" y="225" width="320" height="908"></rect>
                <g id="Rectangle">
                    <use fill="black" fill-opacity="1" filter="url(#filter-2)" xlink:href="#path-1"></use>
                    <use fill="#FFFFFF" fill-rule="evenodd" xlink:href="#path-1"></use>
                </g>
                <g id="shield" transform="translate(35.000000, 430.000000)">
                    <path d="M17.9939861,3.54032019 L17.9939861,10.3134988 C17.9939861,14.277174 15.9838329,18.1068306 12.5772807,19.9328492 L10.6728724,20.9535452 C9.6367239,21.5087471 8.39718794,21.5109606 7.35686311,20.9535452 L5.45245476,19.9328492 C2.04506729,18.1063712 0.03574942,14.2762552 0.03574942,10.3134988 L0.03574942,3.54032019 C0.03574942,2.60983295 0.6492529,1.79753596 1.49496056,1.60876566 L8.00962413,0.112385151 C8.67767053,-0.0370858469 9.35085383,-0.0374199536 10.0163527,0.111549884 L16.5385336,1.60960093 C17.3804826,1.79753596 17.9939861,2.60983295 17.9939861,3.54032019 Z" id="Path" fill="#03A9F4" fill-rule="nonzero"></path>
                    <path d="M17.9939861,3.54032019 L17.9939861,10.3134988 C17.9939861,14.277174 15.9838329,18.1068306 12.5772807,19.9328492 L10.6728724,20.9535452 C10.1537541,21.2316891 9.58410209,21.370761 9.01486775,21.370761 L9.01486775,-1.636449e-05 C9.72054292,-1.636449e-05 9.37862645,-0.0349141531 16.5385336,1.60960093 C17.3804826,1.79753596 17.9939861,2.60983295 17.9939861,3.54032019 Z" id="Path" fill="#277AFF" fill-rule="nonzero"></path>
                    <path d="M15.3211323,5.66022738 L15.3211323,10.2658886 C15.3211323,11.6896009 14.9494385,13.0606914 14.2895777,14.230065 C13.1185754,16.30658 11.6851323,16.9018329 10.2368631,17.6780464 C9.47271926,18.0876195 8.55801856,18.0881624 7.79287239,17.6780464 L6.49779118,16.9839397 C4.19579582,15.7502506 2.70860325,13.1133132 2.70860325,10.2658886 L2.70860325,5.66022738 C2.70860325,4.93438051 3.1918051,4.29999536 3.85751276,4.15131787 C8.69295592,3.04049652 8.50873782,3.05251891 9.01486775,3.05251891 C9.52358701,3.05251891 9.33640371,3.04045476 14.1759814,4.15215313 C14.8379304,4.29999536 15.3211323,4.93438051 15.3211323,5.66022738 Z" id="Path" fill="#ECF9FD" fill-rule="nonzero"></path>
                    <path d="M15.3211323,5.66022738 L15.3211323,10.2658886 C15.3211323,11.6896009 14.9494385,13.0606914 14.2895777,14.230065 C13.1185754,16.30658 11.6851323,16.9018329 10.2368631,17.6780464 C9.8543109,17.8831044 9.43458933,17.9854246 9.01486775,17.9854246 L9.01486775,3.05251891 C9.52358701,3.05251891 9.33640371,3.04045476 14.1759814,4.15215313 C14.8379304,4.29999536 15.3211323,4.93438051 15.3211323,5.66022738 Z" id="Path" fill="#D9F3FC" fill-rule="nonzero"></path>
                    <g id="correct" transform="translate(6.000000, 7.200000)">
                        <path d="M2.75701023,6.08998909 C2.68828187,6.15912134 2.59451243,6.19769269 2.49710798,6.19769269 C2.39970353,6.19769269 2.30593409,6.15912134 2.23720573,6.08998909 L0.161555401,4.01400219 C-0.0538518003,3.79859499 -0.0538518003,3.44929875 0.161555401,3.23429545 L0.421457648,2.97432587 C0.636932176,2.75891867 0.985824515,2.75891867 1.20123172,2.97432587 L2.49710798,4.27026945 L5.99875398,0.768556135 C6.21422849,0.553148934 6.56345742,0.553148934 6.77852805,0.768556135 L7.0384303,1.02852571 C7.2538375,1.24393291 7.2538375,1.59316182 7.0384303,1.80823245 L2.75701023,6.08998909 Z" id="Path" fill="#03A9F4" fill-rule="nonzero"></path>
                        <g id="Group-7">
                            <mask id="mask-4" fill="white">
                                <use xlink:href="#path-3"></use>
                            </mask>
                            <g id="Rectangle"></g>
                            <path d="M2.75701023,6.08998909 C2.68828187,6.15912134 2.59451243,6.19769269 2.49710798,6.19769269 C2.39970353,6.19769269 2.30593409,6.15912134 2.23720573,6.08998909 L0.161555401,4.01400219 C-0.0538518003,3.79859499 -0.0538518003,3.44929875 0.161555401,3.23429545 L0.421457648,2.97432587 C0.636932176,2.75891867 0.985824515,2.75891867 1.20123172,2.97432587 L2.49710798,4.27026945 L5.99875398,0.768556135 C6.21422849,0.553148934 6.56345742,0.553148934 6.77852805,0.768556135 L7.0384303,1.02852571 C7.2538375,1.24393291 7.2538375,1.59316182 7.0384303,1.80823245 L2.75701023,6.08998909 Z" id="Path" fill="#1976D2" fill-rule="nonzero" mask="url(#mask-4)"></path>
                        </g>
                    </g>
                </g>
                <path d="M44,607 C48.9705627,607 53,611.029437 53,616 C53,620.970563 48.9705627,625 44,625 C39.0294373,625 35,620.970563 35,616 C35,611.029437 39.0294373,607 44,607 Z M48.8401618,615.679675 L45.2288098,611.772739 C45.1257212,611.661215 44.988324,611.6 44.8418212,611.6 C44.6951557,611.6 44.5578398,611.661303 44.4547512,611.772739 L44.1268678,612.127539 C44.0238605,612.238887 43.967113,612.387614 43.967113,612.546193 C43.967113,612.704683 44.0238605,612.858424 44.1268678,612.969772 L46.2336795,615.253985 L39.5402394,615.253985 C39.2384533,615.253985 39,615.509575 39,615.836143 L39,616.337736 C39,616.664303 39.2384533,616.945663 39.5402394,616.945663 L46.2575817,616.945663 L44.1269491,619.24263 C44.0239418,619.354153 43.9671943,619.498835 43.9671943,619.657413 C43.9671943,619.815816 44.0239418,619.962608 44.1269491,620.074044 L44.4548325,620.427701 C44.5579211,620.539225 44.695237,620.6 44.8419025,620.6 C44.9884053,620.6 45.1258025,620.538433 45.2288911,620.42691 L48.8402431,616.520061 C48.9435755,616.408185 49.0004043,616.258842 49,616.100088 C49.000323,615.940806 48.9435755,615.791375 48.8401618,615.679675 Z" id="Rectangle-2" fill="url(#linearGradient-5)"></path>
                <path d="M44,1039 C48.9705627,1039 53,1043.02944 53,1048 C53,1052.97056 48.9705627,1057 44,1057 C39.0294373,1057 35,1052.97056 35,1048 C35,1043.02944 39.0294373,1039 44,1039 Z M44.8418212,1043.6 C44.6951557,1043.6 44.5578398,1043.6613 44.4547512,1043.77274 L44.1268678,1044.12754 C44.0238605,1044.23889 43.967113,1044.38761 43.967113,1044.54619 C43.967113,1044.70468 44.0238605,1044.85842 44.1268678,1044.96977 L46.2336795,1047.25399 L39.5402394,1047.25399 C39.2384533,1047.25399 39,1047.50958 39,1047.83614 L39,1048.33774 C39,1048.6643 39.2384533,1048.94566 39.5402394,1048.94566 L46.2575817,1048.94566 L44.1269491,1051.24263 C44.0239418,1051.35415 43.9671943,1051.49884 43.9671943,1051.65741 C43.9671943,1051.81582 44.0239418,1051.96261 44.1269491,1052.07404 L44.4548325,1052.4277 C44.5579211,1052.53922 44.695237,1052.6 44.8419025,1052.6 C44.9884053,1052.6 45.1258025,1052.53843 45.2288911,1052.42691 L48.8402431,1048.52006 C48.9435755,1048.40819 49.0004043,1048.25884 49,1048.10009 C49.000323,1047.94081 48.9435755,1047.79137 48.8401618,1047.67968 L45.2288098,1043.77274 C45.1257212,1043.66121 44.988324,1043.6 44.8418212,1043.6 Z" id="Rectangle-2" fill="url(#linearGradient-6)" opacity="0.4"></path>
                <g id="shield" opacity="0.698347024" transform="translate(35.000000, 967.000000)">
                    <path d="M17.9939861,3.54032019 L17.9939861,10.3134988 C17.9939861,14.277174 15.9838329,18.1068306 12.5772807,19.9328492 L10.6728724,20.9535452 C9.6367239,21.5087471 8.39718794,21.5109606 7.35686311,20.9535452 L5.45245476,19.9328492 C2.04506729,18.1063712 0.03574942,14.2762552 0.03574942,10.3134988 L0.03574942,3.54032019 C0.03574942,2.60983295 0.6492529,1.79753596 1.49496056,1.60876566 L8.00962413,0.112385151 C8.67767053,-0.0370858469 9.35085383,-0.0374199536 10.0163527,0.111549884 L16.5385336,1.60960093 C17.3804826,1.79753596 17.9939861,2.60983295 17.9939861,3.54032019 Z" id="Path" fill="#C3C9D5" fill-rule="nonzero"></path>
                    <path d="M17.9939861,3.54032019 L17.9939861,10.3134988 C17.9939861,14.277174 15.9838329,18.1068306 12.5772807,19.9328492 L10.6728724,20.9535452 C10.1537541,21.2316891 9.58410209,21.370761 9.01486775,21.370761 L9.01486775,-1.636449e-05 C9.72054292,-1.636449e-05 9.37862645,-0.0349141531 16.5385336,1.60960093 C17.3804826,1.79753596 17.9939861,2.60983295 17.9939861,3.54032019 Z" id="Path" fill="#A7B0BF" fill-rule="nonzero"></path>
                    <path d="M15.3211323,5.66022738 L15.3211323,10.2658886 C15.3211323,11.6896009 14.9494385,13.0606914 14.2895777,14.230065 C13.1185754,16.30658 11.6851323,16.9018329 10.2368631,17.6780464 C9.47271926,18.0876195 8.55801856,18.0881624 7.79287239,17.6780464 L6.49779118,16.9839397 C4.19579582,15.7502506 2.70860325,13.1133132 2.70860325,10.2658886 L2.70860325,5.66022738 C2.70860325,4.93438051 3.1918051,4.29999536 3.85751276,4.15131787 C8.69295592,3.04049652 8.50873782,3.05251891 9.01486775,3.05251891 C9.52358701,3.05251891 9.33640371,3.04045476 14.1759814,4.15215313 C14.8379304,4.29999536 15.3211323,4.93438051 15.3211323,5.66022738 Z" id="Path" fill="#F0F6FA" fill-rule="nonzero"></path>
                    <path d="M15.3211323,5.66022738 L15.3211323,10.2658886 C15.3211323,11.6896009 14.9494385,13.0606914 14.2895777,14.230065 C13.1185754,16.30658 11.6851323,16.9018329 10.2368631,17.6780464 C9.8543109,17.8831044 9.43458933,17.9854246 9.01486775,17.9854246 L9.01486775,3.05251891 C9.52358701,3.05251891 9.33640371,3.04045476 14.1759814,4.15215313 C14.8379304,4.29999536 15.3211323,4.93438051 15.3211323,5.66022738 Z" id="Path" fill="#DADFE7" fill-rule="nonzero"></path>
                    <g id="correct" transform="translate(6.000000, 7.200000)">
                        <path d="M2.75701023,6.08998909 C2.68828187,6.15912134 2.59451243,6.19769269 2.49710798,6.19769269 C2.39970353,6.19769269 2.30593409,6.15912134 2.23720573,6.08998909 L0.161555401,4.01400219 C-0.0538518003,3.79859499 -0.0538518003,3.44929875 0.161555401,3.23429545 L0.421457648,2.97432587 C0.636932176,2.75891867 0.985824515,2.75891867 1.20123172,2.97432587 L2.49710798,4.27026945 L5.99875398,0.768556135 C6.21422849,0.553148934 6.56345742,0.553148934 6.77852805,0.768556135 L7.0384303,1.02852571 C7.2538375,1.24393291 7.2538375,1.59316182 7.0384303,1.80823245 L2.75701023,6.08998909 Z" id="Path" fill="#C3C9D5" fill-rule="nonzero"></path>
                        <g id="Group-7" transform="translate(3.000000, 0.000000)">
                            <mask id="mask-8" fill="white">
                                <use xlink:href="#path-7"></use>
                            </mask>
                            <g id="Rectangle"></g>
                            <path d="M-0.242989774,6.08998909 C-0.31171813,6.15912134 -0.405487573,6.19769269 -0.502892021,6.19769269 C-0.600296469,6.19769269 -0.694065912,6.15912134 -0.762794268,6.08998909 L-2.8384446,4.01400219 C-3.0538518,3.79859499 -3.0538518,3.44929875 -2.8384446,3.23429545 L-2.57854235,2.97432587 C-2.36306782,2.75891867 -2.01417549,2.75891867 -1.79876828,2.97432587 L-0.502892021,4.27026945 L2.99875398,0.768556135 C3.21422849,0.553148934 3.56345742,0.553148934 3.77852805,0.768556135 L4.0384303,1.02852571 C4.2538375,1.24393291 4.2538375,1.59316182 4.0384303,1.80823245 L-0.242989774,6.08998909 Z" id="Path" fill="#A7B0BF" fill-rule="nonzero" mask="url(#mask-8)"></path>
                        </g>
                    </g>
                </g>
                <path d="M44,894 C48.9705627,894 53,898.029437 53,903 C53,907.970563 48.9705627,912 44,912 C39.0294373,912 35,907.970563 35,903 C35,898.029437 39.0294373,894 44,894 Z M48.414641,899.231178 C48.1159312,898.922941 47.6308901,898.922941 47.3316193,899.231178 L47.3316193,899.231178 L42.4682124,904.241954 L40.6683807,902.387524 C40.3692034,902.079287 39.8846298,902.079287 39.585359,902.387524 L39.585359,902.387524 L39.2243829,902.759527 C38.9252057,903.067186 38.9252057,903.567011 39.2243829,903.875248 L39.2243829,903.875248 L42.1072364,906.845882 C42.2026926,906.944806 42.3329282,907 42.4682124,907 C42.6034966,907 42.7337322,906.944806 42.8291885,906.845882 L42.8291885,906.845882 L48.7756171,900.718902 C49.0747943,900.411147 49.0747943,899.911418 48.7756171,899.603181 L48.7756171,899.603181 Z" id="Rectangle-2" fill="url(#linearGradient-6)"></path>
                <path d="M44,358 C48.9705627,358 53,362.029437 53,367 C53,371.970563 48.9705627,376 44,376 C39.0294373,376 35,371.970563 35,367 C35,362.029437 39.0294373,358 44,358 Z M48.414641,363.231178 C48.1159312,362.922941 47.6308901,362.922941 47.3316193,363.231178 L47.3316193,363.231178 L42.4682124,368.241954 L40.6683807,366.387524 C40.3692034,366.079287 39.8846298,366.079287 39.585359,366.387524 L39.585359,366.387524 L39.2243829,366.759527 C38.9252057,367.067186 38.9252057,367.567011 39.2243829,367.875248 L39.2243829,367.875248 L42.1072364,370.845882 C42.2026926,370.944806 42.3329282,371 42.4682124,371 C42.6034966,371 42.7337322,370.944806 42.8291885,370.845882 L42.8291885,370.845882 L48.7756171,364.718902 C49.0747943,364.411147 49.0747943,363.911418 48.7756171,363.603181 L48.7756171,363.603181 Z" id="Rectangle-2" fill="url(#linearGradient-5)" opacity="0.4"></path>
                <rect id="Rectangle" fill-opacity="0.5" fill="url(#linearGradient-9)" filter="url(#filter-10)" x="41" y="691" width="230" height="68" rx="10"></rect>
                <rect id="Rectangle" fill="url(#linearGradient-11)" x="35" y="687" width="250" height="68" rx="10"></rect>
                <path d="M244,712 C248.970563,712 253,716.029437 253,721 C253,725.970563 248.970563,730 244,730 C239.029437,730 235,725.970563 235,721 C235,716.029437 239.029437,712 244,712 Z M244.841821,716.6 C244.695156,716.6 244.55784,716.661303 244.454751,716.772739 L244.126868,717.127539 C244.023861,717.238887 243.967113,717.387614 243.967113,717.546193 C243.967113,717.704683 244.023861,717.858424 244.126868,717.969772 L246.233679,720.253985 L239.540239,720.253985 C239.238453,720.253985 239,720.509575 239,720.836143 L239,721.337736 C239,721.664303 239.238453,721.945663 239.540239,721.945663 L246.257582,721.945663 L244.126949,724.24263 C244.023942,724.354153 243.967194,724.498835 243.967194,724.657413 C243.967194,724.815816 244.023942,724.962608 244.126949,725.074044 L244.454833,725.427701 C244.557921,725.539225 244.695237,725.6 244.841902,725.6 C244.988405,725.6 245.125803,725.538433 245.228891,725.42691 L248.840243,721.520061 C248.943576,721.408185 249.000404,721.258842 249,721.100088 C249.000323,720.940806 248.943576,720.791375 248.840162,720.679675 L245.22881,716.772739 C245.125721,716.661215 244.988324,716.6 244.841821,716.6 Z" id="Rectangle-2" fill="#FFFFFF" opacity="0.414276482"></path>
                <text id="360.000đ-cho-03-thán" font-family="SFCompactDisplay-Light, SF Compact Display" font-size="16" font-weight="300" line-spacing="24" fill="#556279">
                    <tspan x="70" y="398">360.000đ cho 03 tháng</tspan>
                </text>
                <text id="Thời-điểm-thanh-toán" font-family="SFCompactDisplay-Semibold, SF Compact Display" font-size="18" font-weight="500" letter-spacing="-0.72" fill="#1E2432">
                    <tspan x="70" y="621">Thời điểm thanh toán</tspan>
                </text>
                <text id="Thanh-toán-ngay" font-family="SFCompactDisplay-Light, SF Compact Display" font-size="16" font-weight="300" line-spacing="24" fill="#556279">
                    <tspan x="70" y="648">Thanh toán ngay</tspan>
                </text>
                <text id="Đảm-bảo" font-family="SFCompactDisplay-Semibold, SF Compact Display" font-size="18" font-weight="500" letter-spacing="-0.72" fill="#1E2432">
                    <tspan x="70" y="444">Đảm bảo</tspan>
                </text>
                <text id="Hoàn-phí-sau-03-thán" font-family="SFCompactDisplay-Light, SF Compact Display" font-size="16" font-weight="300" line-spacing="24" fill="#556279">
                    <tspan x="70" y="471">Hoàn phí sau 03 tháng nếu </tspan>
                    <tspan x="70" y="495">không có kết nối thành công</tspan>
                </text>
                <text id="Kết-nối-thành-công-l" font-family="SFCompactText-LightItalic, SF Compact Text" font-size="16" font-style="italic" font-weight="300" line-spacing="24" fill="#556279">
                    <tspan x="70" y="527">Kết nối thành công là khi bạn </tspan>
                    <tspan x="70" y="551">và đối phương, cả hai đồng ý </tspan>
                    <tspan x="70" y="575">hẹn hò</tspan>
                </text>
                <text id="Thanh-toán-ngay" opacity="0.9" font-family="SFCompactDisplay-Semibold, SF Compact Display" font-size="18" font-weight="500" letter-spacing="-0.72" fill="#FFFFFF">
                    <tspan x="98.2955078" y="725">Thanh toán ngay</tspan>
                </text>
                <text id="/01-tháng" font-family="SFCompactDisplay-Light, SF Compact Display" font-size="16" font-weight="300" line-spacing="24" fill="#556279">
                    <tspan x="70" y="934">/01 tháng</tspan>
                </text>
                <text id="360.000đ" font-family="SFCompactDisplay-Semibold, SF Compact Display" font-size="18" font-weight="500" letter-spacing="-0.72" fill="#1E2432">
                    <tspan x="70" y="907">360.000đ</tspan>
                </text>
                <text id="Thời-điểm-thanh-toán" font-family="SFCompactDisplay-Semibold, SF Compact Display" font-size="18" font-weight="500" letter-spacing="-0.72" fill="#1E2432">
                    <tspan x="70" y="1053">Thời điểm thanh toán</tspan>
                </text>
                <text id="Sau-lần-kết-nối-đầu" font-family="SFCompactDisplay-Light, SF Compact Display" font-size="16" font-weight="300" line-spacing="24" fill="#556279">
                    <tspan x="70" y="1080">Sau lần kết nối đầu tiên</tspan>
                </text>
                <text id="Đảm-bảo" font-family="SFCompactDisplay-Semibold, SF Compact Display" font-size="18" font-weight="500" letter-spacing="-0.72" fill="#1E2432">
                    <tspan x="70" y="980">Đảm bảo</tspan>
                </text>
                <text id="Không-áp-dụng" font-family="SFCompactDisplay-Light, SF Compact Display" font-size="16" font-weight="300" line-spacing="24" fill="#556279">
                    <tspan x="70" y="1007">Không áp dụng</tspan>
                </text>
                <text id="Thanh-toán-sau" font-family="GMVDINPro-CondBold, GMV DIN Cond" font-size="24" font-style="condensed" font-weight="bold" fill="#121721">
                    <tspan x="35" y="852">Thanh toán sau</tspan>
                </text>
                <text id="Mức-phí-tượng-trưng" font-family="SFCompactDisplay-Semibold, SF Compact Display" font-size="18" font-weight="500" letter-spacing="-0.72" fill="#1E2432">
                    <tspan x="70" y="371">Mức phí tượng trưng</tspan>
                </text>
                <text id="Thanh-toán-ngay" font-family="GMVDINPro-CondBold, GMV DIN Cond" font-size="24" font-style="condensed" font-weight="bold" fill="#1864DD">
                    <tspan x="35" y="316">Thanh toán ngay</tspan>
                </text>
                <text id="Chanchan-đang-trong" font-family="SFCompactDisplay-Light, SF Compact Display" font-size="16" font-weight="300" line-spacing="24" fill="#121721">
                    <tspan x="35" y="131">Chanchan đang trong giai đoạn tăng </tspan>
                    <tspan x="35" y="155">tốc nên chúng tôi có chính sách Ưu </tspan>
                    <tspan x="35" y="179">tiên phí và Đảm bảo đặc biệt áp </tspan>
                    <tspan x="35" y="203">dụng với lựa chọn Thanh toán ngay</tspan>
                </text>
                <text id="Có-hai-lựa-chọn-than" font-family="SFCompactText-LightItalic, SF Compact Text" font-size="16" font-style="italic" font-weight="300" line-spacing="24" fill="#1E2432">
                    <tspan x="35" y="99">Có hai lựa chọn thanh toán! </tspan>
                </text>
                <text id="Thiết-lập-thanh-toán" font-family="GMVDINPro-CondBlack, GMV DIN Cond" font-size="30" font-style="condensed" font-weight="800" fill="#121721">
                    <tspan x="35" y="23">Thiết lập</tspan>
                    <tspan x="35" y="53">thanh toán</tspan>
                </text>
            </g>
            <g id="bg_left" transform="translate(0.000000, 0.000000)">
                <rect id="Rectangle" fill="#F0F6FA" x="-4.54747351e-13" y="0" width="160" height="1554"></rect>
                <line x1="160.5" y1="0" x2="160.5" y2="1554" id="Line" stroke="#DADFE7" stroke-width="0.5" stroke-linecap="square"></line>
            </g>
            <g id="bg_right" transform="translate(479.000000, 0.000000)">
                <rect id="Rectangle" fill="#F0F6FA" x="1" y="0" width="160" height="1554"></rect>
                <line x1="1.5" y1="0" x2="1.5" y2="1554" id="Line" stroke="#DADFE7" stroke-width="0.5" stroke-linecap="square"></line>
            </g>
        </g>
    </g>
</svg>