<?xml version="1.0" encoding="UTF-8"?>
<svg width="320px" height="311px" viewBox="0 0 320 311" version="1.1" xmlns="http://www.w3.org/2000/svg" xmlns:xlink="http://www.w3.org/1999/xlink">
    <title>2</title>
    <g id="Page-1" stroke="none" stroke-width="1" fill="none" fill-rule="evenodd">
        <g id="paid-set" transform="translate(0.000000, -1264.000000)" fill="#121721">
            <g id="2" transform="translate(0.000000, 1264.000000)">
                <text id="Tiếp-theo-cho-Chanch" font-family="SFCompactText-LightItalic, SF Compact Text" font-size="16" font-style="italic" font-weight="300" line-spacing="24">
                    <tspan x="35" y="99.1538086">Tiếp theo cho Chanchan biết lựa </tspan>
                    <tspan x="35" y="123.153809">chọn Thanh toán của bạn bằng </tspan>
                    <tspan x="35" y="147.153809">nhấn Like</tspan>
                </text>
                <path d="M42.5805664,61.6694336 C45.0986328,61.6694336 47.0102539,59.7709961 47.0102539,57.2265625 C47.0102539,54.8535156 45.3359375,53.0078125 43.0288086,53.0078125 C41.8291016,53.0078125 40.7744141,53.5087891 40.128418,54.2207031 L39.8779297,54.2207031 C40.3920898,52.0849609 42.6201172,50.5161133 45.2172852,50.5161133 C45.3491211,50.5161133 45.5073242,50.5161133 45.6391602,50.5292969 L45.8896484,49.0263672 C45.6523438,49.0131836 45.4282227,49 45.1645508,49 C41.1699219,49 37.8476562,51.7158203 37.8476562,56.1323242 C37.8476562,59.7314453 40.0229492,61.6694336 42.5805664,61.6694336 Z M53.0351562,61.6694336 C55.5532227,61.6694336 57.4648438,59.7709961 57.4648438,57.2265625 C57.4648438,54.8535156 55.7905273,53.0078125 53.4833984,53.0078125 C52.2836914,53.0078125 51.2290039,53.5087891 50.5830078,54.2207031 L50.3325195,54.2207031 C50.8466797,52.0849609 53.074707,50.5161133 55.671875,50.5161133 C55.8037109,50.5161133 55.9619141,50.5161133 56.09375,50.5292969 L56.3442383,49.0263672 C56.1069336,49.0131836 55.8828125,49 55.6191406,49 C51.6245117,49 48.3022461,51.7158203 48.3022461,56.1323242 C48.3022461,59.7314453 50.4775391,61.6694336 53.0351562,61.6694336 Z" id="❝" fill-rule="nonzero"></path>
            </g>
        </g>
    </g>
</svg>