<?xml version="1.0" encoding="UTF-8"?>
<svg width="640px" height="311px" viewBox="0 0 640 311" version="1.1" xmlns="http://www.w3.org/2000/svg" xmlns:xlink="http://www.w3.org/1999/xlink">
    <title>2_pc</title>
    <g id="Chanchan-8" stroke="none" stroke-width="1" fill="none" fill-rule="evenodd">
        <g id="paid-set" transform="translate(0.000000, -1243.000000)">
            <g id="2" transform="translate(195.000000, 1292.000000)" fill="#121721">
                <text id="Tiếp-theo-cho-Chanch" font-family="SFCompactText-LightItalic, SF Compact Text" font-size="16" font-style="italic" font-weight="300" line-spacing="24">
                    <tspan x="0" y="50.1538086">Tiếp theo cho Chanchan biết lựa </tspan>
                    <tspan x="0" y="74.1538086">chọn Thanh toán của bạn bằng </tspan>
                    <tspan x="0" y="98.1538086">nhấn Like</tspan>
                </text>
                <path d="M7.58056641,12.6694336 C10.0986328,12.6694336 12.0102539,10.7709961 12.0102539,8.2265625 C12.0102539,5.85351562 10.3359375,4.0078125 8.02880859,4.0078125 C6.82910156,4.0078125 5.77441406,4.50878906 5.12841797,5.22070312 L4.87792969,5.22070312 C5.39208984,3.08496094 7.62011719,1.51611328 10.2172852,1.51611328 C10.3491211,1.51611328 10.5073242,1.51611328 10.6391602,1.52929688 L10.8896484,0.0263671875 C10.6523438,0.0131835938 10.4282227,0 10.1645508,0 C6.16992188,0 2.84765625,2.71582031 2.84765625,7.13232422 C2.84765625,10.7314453 5.02294922,12.6694336 7.58056641,12.6694336 Z M18.0351562,12.6694336 C20.5532227,12.6694336 22.4648438,10.7709961 22.4648438,8.2265625 C22.4648438,5.85351562 20.7905273,4.0078125 18.4833984,4.0078125 C17.2836914,4.0078125 16.2290039,4.50878906 15.5830078,5.22070312 L15.3325195,5.22070312 C15.8466797,3.08496094 18.074707,1.51611328 20.671875,1.51611328 C20.8037109,1.51611328 20.9619141,1.51611328 21.09375,1.52929688 L21.3442383,0.0263671875 C21.1069336,0.0131835938 20.8828125,0 20.6191406,0 C16.6245117,0 13.3022461,2.71582031 13.3022461,7.13232422 C13.3022461,10.7314453 15.4775391,12.6694336 18.0351562,12.6694336 Z" id="❝" fill-rule="nonzero"></path>
            </g>
            <g id="bg_left" transform="translate(0.000000, 0.000000)">
                <rect id="Rectangle" fill="#F0F6FA" x="-4.54747351e-13" y="0" width="160" height="1554"></rect>
                <line x1="160.5" y1="0" x2="160.5" y2="1554" id="Line" stroke="#DADFE7" stroke-width="0.5" stroke-linecap="square"></line>
            </g>
            <g id="bg_right" transform="translate(479.000000, 0.000000)">
                <rect id="Rectangle" fill="#F0F6FA" x="1" y="0" width="160" height="1554"></rect>
                <line x1="1.5" y1="0" x2="1.5" y2="1554" id="Line" stroke="#DADFE7" stroke-width="0.5" stroke-linecap="square"></line>
            </g>
        </g>
    </g>
</svg>