<?xml version="1.0" encoding="UTF-8"?>
<svg width="320px" height="640px" viewBox="0 0 320 640" version="1.1" xmlns="http://www.w3.org/2000/svg" xmlns:xlink="http://www.w3.org/1999/xlink">
    <title>1</title>
    <g id="Chanchan" stroke="none" stroke-width="1" fill="none" fill-rule="evenodd">
        <g id="Group-4" fill="#121721" transform="translate(35.000000, 150.000000)">
            <text id="Không-khó-để-đưa-ra" font-family="SFCompactDisplay-Light, SF Compact Display" font-size="16" font-weight="300" line-spacing="24">
                <tspan x="0" y="159">Không khó để đưa ra một vài ví dụ </tspan>
                <tspan x="0" y="183">thực tế để thấy sự ảnh hưởng của </tspan>
                <tspan x="0" y="207">các mối quan hệ gia đình, của người </tspan>
                <tspan x="0" y="231">chồng, người vợ… lên cuộc sống của </tspan>
                <tspan x="0" y="255">mỗi chúng ta rõ rệt như thế nào.</tspan>
            </text>
            <text id="Bạn-thân-mến!" font-family="SFCompactDisplay-Light, SF Compact Display" font-size="16" font-weight="300" line-spacing="24">
                <tspan x="0" y="127">Bạn thân mến!</tspan>
            </text>
            <text id="Thư-ngỏ-từ-Đội-ngũ" font-family="SFCompactDisplay-Semibold, SF Compact Display" font-size="30" font-weight="500" letter-spacing="-1.12">
                <tspan x="0" y="29">Thư ngỏ </tspan>
                <tspan x="0" y="65">từ Đội ngũ</tspan>
            </text>
            <text id="Là-những-người-đã-có" font-family="SFCompactDisplay-Light, SF Compact Display" font-size="16" font-weight="300" line-spacing="24">
                <tspan x="0" y="295">Là những người đã có gia đình, </tspan>
                <tspan x="0" y="319">chúng tôi càng hiểu và càng trân </tspan>
                <tspan x="0" y="343">trọng những gì đang có. </tspan>
            </text>
            <path d="M2.2421875,386 L3.6875,377.75 L3.765625,377.75 L5.7109375,385.171875 L6.484375,385.171875 L11.0546875,377.75 L11.125,377.75 L9.671875,386 L10.78125,386 L12.65625,375.335938 L11.4375,375.335938 L6.3671875,383.648438 L6.3125,383.648438 L4.1171875,375.335938 L3.0234375,375.335938 L1.140625,386 L2.2421875,386 Z M20.046875,373.820312 C20.78125,373.820312 21.390625,373.148438 21.46875,372.21875 L20.71875,372.21875 C20.640625,372.789062 20.40625,373.09375 20.0625,373.09375 C19.4453125,373.09375 19.390625,371.921875 18.265625,371.921875 C17.5078125,371.921875 16.9375,372.546875 16.84375,373.523438 L17.59375,373.523438 C17.65625,372.945312 17.8828125,372.65625 18.25,372.65625 C18.9140625,372.65625 18.953125,373.820312 20.046875,373.820312 Z M17.21875,376.453125 L18.8125,374.953125 L18.84375,374.953125 L19.8203125,376.453125 L20.7734375,376.453125 L19.3125,374.242188 L18.5703125,374.242188 L16.171875,376.453125 L17.21875,376.453125 Z M17.265625,386.132812 C19.296875,386.132812 20.4921875,384.96875 20.84375,383.03125 L21.046875,381.914062 C21.109375,381.570312 21.140625,381.1875 21.140625,380.953125 C21.140625,378.898438 19.765625,377.6875 17.828125,377.6875 C16.09375,377.6875 14.6953125,378.796875 14.3515625,380.765625 L14.1640625,381.875 C14.09375,382.234375 14.0703125,382.625 14.0703125,383.007812 C14.0703125,384.96875 15.4609375,386.132812 17.265625,386.132812 Z M17.40625,385.132812 C16.0234375,385.132812 15.1875,384.195312 15.1875,382.828125 C15.1875,382.46875 15.2265625,382.210938 15.2734375,381.953125 L15.4453125,380.984375 C15.7265625,379.382812 16.65625,378.6875 17.796875,378.6875 C19.15625,378.6875 20,379.632812 20,380.945312 C20,381.0625 19.9921875,381.453125 19.953125,381.703125 L19.7734375,382.742188 C19.5078125,384.273438 18.6640625,385.132812 17.40625,385.132812 Z M25.1484375,376.1875 C25.65625,376.1875 26.03125,375.820312 26.03125,375.328125 C26.03125,374.828125 25.65625,374.453125 25.1484375,374.453125 C24.671875,374.453125 24.2890625,374.828125 24.2890625,375.328125 C24.2890625,375.820312 24.671875,376.1875 25.1484375,376.1875 Z M23.984375,386 L25.421875,377.820312 L24.28125,377.820312 L22.84375,386 L23.984375,386 Z M33.3984375,388.96875 C35.4609375,388.96875 36.6875,387.984375 37.0625,385.867188 L38.4765625,377.820312 L37.3515625,377.820312 L37.0703125,379.429688 L36.9765625,379.429688 C36.734375,378.53125 35.8671875,377.6875 34.46875,377.6875 C32.953125,377.6875 31.5,378.59375 31.1015625,380.6875 L30.921875,381.640625 C30.859375,381.953125 30.8125,382.476562 30.8125,382.757812 C30.8125,384.6875 32.2421875,385.851562 33.7578125,385.851562 C35.046875,385.851562 35.8203125,385.1875 36.1171875,384.46875 L36.2109375,384.46875 L36,385.664062 C35.7265625,387.234375 34.9453125,387.992188 33.46875,387.992188 C32.25,387.992188 31.4609375,387.304688 31.4609375,386.65625 L31.4609375,386.554688 L31.4609375,386.554688 L30.34375,386.554688 C30.34375,386.5625 30.3359375,386.65625 30.3359375,386.671875 C30.3359375,387.867188 31.5234375,388.96875 33.3984375,388.96875 Z M34.109375,384.890625 C32.8046875,384.890625 31.9375,384.109375 31.9375,382.585938 C31.9375,382.375 31.9921875,381.945312 32.03125,381.71875 L32.1640625,381.039062 C32.4375,379.554688 33.3046875,378.65625 34.5234375,378.65625 C35.7890625,378.65625 36.71875,379.539062 36.71875,380.976562 C36.71875,381.046875 36.71875,381.28125 36.640625,381.71875 L36.4921875,382.554688 C36.2578125,383.921875 35.3203125,384.890625 34.109375,384.890625 Z M42.3203125,376.1875 C42.828125,376.1875 43.203125,375.820312 43.203125,375.328125 C43.203125,374.828125 42.828125,374.453125 42.3203125,374.453125 C41.84375,374.453125 41.4609375,374.828125 41.4609375,375.328125 C41.4609375,375.820312 41.84375,376.1875 42.3203125,376.1875 Z M41.15625,386 L42.59375,377.820312 L41.453125,377.820312 L40.015625,386 L41.15625,386 Z M46.53125,386.132812 C47.8046875,386.132812 48.625,385.4375 48.90625,384.875 L48.984375,384.875 L48.7890625,386 L49.8984375,386 L50.703125,381.4375 C50.78125,381.046875 50.8515625,380.59375 50.8515625,380.164062 C50.8515625,378.703125 49.859375,377.6875 48.0078125,377.6875 C46.2890625,377.6875 45.1796875,378.546875 44.9609375,379.71875 L46.0703125,379.71875 C46.25,379.171875 46.8359375,378.671875 47.921875,378.671875 C49.265625,378.671875 49.765625,379.46875 49.765625,380.265625 C49.765625,380.421875 49.7421875,380.601562 49.7265625,380.695312 L49.640625,381.242188 L47.3671875,381.242188 C45.2890625,381.242188 44.21875,382.164062 44.078125,383.507812 C44.0625,383.640625 44.0625,383.765625 44.0625,383.867188 C44.0625,385.289062 45.1796875,386.132812 46.53125,386.132812 Z M46.8046875,385.15625 C45.8046875,385.15625 45.2109375,384.578125 45.2109375,383.757812 C45.2109375,382.898438 45.875,382.179688 47.265625,382.179688 L49.4375,382.179688 L49.25,383.25 C49.046875,384.367188 48,385.15625 46.8046875,385.15625 Z M59.453125,386.117188 C60.8203125,386.117188 61.6015625,385.25 61.8359375,384.617188 L61.9296875,384.617188 L61.6875,386 L62.8046875,386 L64.4453125,376.726562 L65.7265625,376.726562 L65.890625,375.8125 L64.609375,375.8125 L64.796875,374.773438 L63.640625,374.773438 L63.4609375,375.8125 L61.6640625,375.8125 L61.5078125,376.726562 L63.3046875,376.726562 L62.828125,379.429688 L62.734375,379.429688 C62.59375,378.671875 61.703125,377.6875 60.2734375,377.6875 C58.34375,377.6875 57.1875,378.9375 56.8828125,380.546875 L56.59375,382.078125 C56.53125,382.375 56.515625,382.734375 56.515625,383.039062 C56.515625,384.90625 57.75,386.117188 59.453125,386.117188 Z M59.7890625,385.109375 C58.484375,385.109375 57.65625,384.265625 57.65625,382.867188 C57.65625,382.59375 57.6796875,382.296875 57.703125,382.15625 L57.9453125,380.9375 C58.203125,379.640625 58.9921875,378.664062 60.3203125,378.664062 C61.3828125,378.664062 62.515625,379.429688 62.515625,381.03125 C62.515625,381.101562 62.5,381.234375 62.46875,381.429688 L62.25,382.703125 C62,384.101562 61.109375,385.109375 59.7890625,385.109375 Z M68.8203125,376.460938 L67.3515625,373.71875 L66.1015625,373.71875 L67.9453125,376.460938 L68.8203125,376.460938 Z M66.9453125,386 L68.3984375,377.820312 L67.2578125,377.820312 L65.8046875,386 L66.9453125,386 Z M71.078125,386 L71.921875,381.195312 C72.15625,379.859375 72.9921875,378.65625 74.4609375,378.65625 C75.6796875,378.65625 76.1484375,379.5 76.1484375,380.460938 C76.1484375,380.820312 76.0859375,381.226562 76.046875,381.445312 L75.2421875,386 L76.3828125,386 L77.1796875,381.515625 C77.25,381.109375 77.3203125,380.664062 77.3203125,380.25 C77.3203125,378.914062 76.546875,377.6875 74.796875,377.6875 C73.6171875,377.6875 72.7734375,378.25 72.328125,379.1875 L72.2421875,379.1875 L72.4921875,377.820312 L71.375,377.820312 L69.9296875,386 L71.078125,386 Z M80.34375,386 L81.1875,381.195312 C81.421875,379.859375 82.2734375,378.65625 83.7421875,378.65625 C84.9609375,378.65625 85.453125,379.492188 85.453125,380.453125 C85.453125,380.804688 85.390625,381.234375 85.3515625,381.445312 L84.546875,386 L85.6953125,386 L86.484375,381.515625 C86.5546875,381.109375 86.625,380.65625 86.625,380.25 C86.625,378.898438 85.7890625,377.6875 84.0703125,377.6875 C82.8515625,377.6875 82.0078125,378.28125 81.59375,379.1875 L81.5078125,379.1875 L82.3203125,374.773438 L81.1875,374.773438 L79.1953125,386 L80.34375,386 Z M93.4375,386 L95.421875,374.773438 L94.2734375,374.773438 L92.2890625,386 L93.4375,386 Z M99.3671875,386.132812 C100.554688,386.132812 101.414062,385.46875 101.804688,384.585938 L101.898438,384.585938 L101.648438,386 L102.726562,386 L104.164062,377.820312 L103.070312,377.820312 L102.226562,382.585938 C102,383.921875 101.1875,385.109375 99.7265625,385.109375 C98.5234375,385.109375 97.9453125,384.414062 97.9453125,383.390625 C97.9453125,383.054688 98,382.640625 98.0546875,382.34375 L98.8671875,377.820312 L97.734375,377.820312 L96.921875,382.273438 C96.84375,382.648438 96.765625,383.15625 96.765625,383.59375 C96.765625,384.992188 97.6875,386.132812 99.3671875,386.132812 Z M108.960938,376.460938 L110.578125,374.296875 L110.601562,374.296875 L111.507812,376.460938 L112.507812,376.460938 L111.164062,373.523438 L110.242188,373.523438 L107.921875,376.460938 L108.960938,376.460938 Z M108.953125,386.132812 C110.984375,386.132812 112.179688,384.96875 112.53125,383.03125 L112.734375,381.914062 C112.796875,381.570312 112.828125,381.1875 112.828125,380.953125 C112.828125,378.898438 111.453125,377.6875 109.515625,377.6875 C107.78125,377.6875 106.382812,378.796875 106.039062,380.765625 L105.851562,381.875 C105.78125,382.234375 105.757812,382.625 105.757812,383.007812 C105.757812,384.96875 107.148438,386.132812 108.953125,386.132812 Z M109.09375,385.132812 C107.710938,385.132812 106.875,384.195312 106.875,382.828125 C106.875,382.46875 106.914062,382.210938 106.960938,381.953125 L107.132812,380.984375 C107.414062,379.382812 108.34375,378.6875 109.484375,378.6875 C110.84375,378.6875 111.6875,379.632812 111.6875,380.945312 C111.6875,381.0625 111.679688,381.453125 111.640625,381.703125 L111.460938,382.742188 C111.195312,384.273438 110.351562,385.132812 109.09375,385.132812 Z M115.546875,386 L116.390625,381.195312 C116.625,379.859375 117.460938,378.65625 118.929688,378.65625 C120.148438,378.65625 120.617188,379.5 120.617188,380.460938 C120.617188,380.820312 120.554688,381.226562 120.515625,381.445312 L119.710938,386 L120.851562,386 L121.648438,381.515625 C121.71875,381.109375 121.789062,380.664062 121.789062,380.25 C121.789062,378.914062 121.015625,377.6875 119.265625,377.6875 C118.085938,377.6875 117.242188,378.25 116.796875,379.1875 L116.710938,379.1875 L116.960938,377.820312 L115.84375,377.820312 L114.398438,386 L115.546875,386 Z M130.40625,386.117188 C131.773438,386.117188 132.554688,385.25 132.789062,384.617188 L132.882812,384.617188 L132.640625,386 L133.757812,386 L135.398438,376.726562 L136.679688,376.726562 L136.84375,375.8125 L135.5625,375.8125 L135.75,374.773438 L134.59375,374.773438 L134.414062,375.8125 L132.617188,375.8125 L132.460938,376.726562 L134.257812,376.726562 L133.78125,379.429688 L133.6875,379.429688 C133.546875,378.671875 132.65625,377.6875 131.226562,377.6875 C129.296875,377.6875 128.140625,378.9375 127.835938,380.546875 L127.546875,382.078125 C127.484375,382.375 127.46875,382.734375 127.46875,383.039062 C127.46875,384.90625 128.703125,386.117188 130.40625,386.117188 Z M130.742188,385.109375 C129.4375,385.109375 128.609375,384.265625 128.609375,382.867188 C128.609375,382.59375 128.632812,382.296875 128.65625,382.15625 L128.898438,380.9375 C129.15625,379.640625 129.945312,378.664062 131.273438,378.664062 C132.335938,378.664062 133.46875,379.429688 133.46875,381.03125 C133.46875,381.101562 133.453125,381.234375 133.421875,381.429688 L133.203125,382.703125 C132.953125,384.101562 132.0625,385.109375 130.742188,385.109375 Z M139.578125,386.132812 C140.765625,386.132812 141.625,385.46875 142.015625,384.585938 L142.109375,384.585938 L141.859375,386 L142.9375,386 L144.226562,378.640625 L144.351562,378.640625 C145.671875,378.640625 146.40625,377.773438 146.617188,376.5625 L146.78125,375.609375 L145.757812,375.609375 L145.578125,376.578125 C145.453125,377.3125 145.109375,377.820312 144.265625,377.820312 L143.28125,377.820312 L142.4375,382.585938 C142.210938,383.921875 141.398438,385.109375 139.9375,385.109375 C138.734375,385.109375 138.15625,384.414062 138.15625,383.390625 C138.15625,383.054688 138.210938,382.640625 138.265625,382.34375 L139.078125,377.820312 L137.945312,377.820312 L137.125,382.273438 C137.054688,382.648438 136.976562,383.15625 136.976562,383.59375 C136.976562,384.992188 137.890625,386.132812 139.578125,386.132812 Z M149.984375,386.132812 C152.015625,386.132812 153.210938,384.96875 153.5625,383.03125 L153.765625,381.914062 C153.820312,381.570312 153.851562,381.1875 153.851562,380.953125 C153.851562,380.023438 153.515625,379.242188 153.1875,378.84375 L153.210938,378.78125 C154.421875,378.765625 154.828125,377.960938 155.054688,376.6875 L155.25,375.609375 L154.21875,375.609375 L154.007812,376.78125 C153.867188,377.554688 153.476562,378.03125 152.6875,378.03125 C151.953125,378.03125 151.453125,377.6875 150.539062,377.6875 C148.8125,377.6875 147.414062,378.796875 147.070312,380.765625 L146.875,381.875 C146.8125,382.234375 146.789062,382.625 146.789062,383.007812 C146.789062,384.96875 148.171875,386.132812 149.984375,386.132812 Z M150.125,385.132812 C148.742188,385.132812 147.90625,384.195312 147.90625,382.828125 C147.90625,382.46875 147.9375,382.210938 147.984375,381.953125 L148.164062,380.984375 C148.445312,379.382812 149.375,378.6875 150.515625,378.6875 C151.867188,378.6875 152.710938,379.632812 152.710938,380.945312 L152.710026,381.103066 C152.707749,381.274235 152.699777,381.524554 152.671875,381.703125 L152.492188,382.742188 C152.21875,384.273438 151.382812,385.132812 150.125,385.132812 Z M149.25,388.546875 C149.703125,388.546875 150.023438,388.25 150.023438,387.804688 C150.023438,387.367188 149.703125,387.054688 149.25,387.054688 C148.804688,387.054688 148.484375,387.367188 148.484375,387.804688 C148.484375,388.25 148.804688,388.546875 149.25,388.546875 Z M158.789062,386.132812 C160.429688,386.132812 161.65625,385.273438 161.882812,383.984375 L160.734375,383.984375 C160.585938,384.59375 159.914062,385.125 158.84375,385.125 C157.453125,385.125 156.726562,384.242188 156.726562,382.757812 C156.726562,382.5 156.75,382.25 156.8125,381.914062 L156.976562,380.96875 C157.242188,379.484375 158.15625,378.65625 159.359375,378.65625 C160.632812,378.65625 161.28125,379.507812 161.28125,380.25 L161.28125,380.34375 L161.28125,380.34375 L162.390625,380.34375 C162.398438,380.335938 162.398438,380.257812 162.398438,380.242188 C162.398438,378.875 161.28125,377.6875 159.367188,377.6875 C157.554688,377.6875 156.234375,378.71875 155.898438,380.671875 L155.695312,381.84375 C155.625,382.257812 155.59375,382.695312 155.59375,383.007812 C155.59375,384.921875 156.867188,386.132812 158.789062,386.132812 Z M171.382812,386.132812 C173.296875,386.132812 174.460938,384.859375 174.75,383.21875 L175.015625,381.679688 C175.070312,381.359375 175.085938,381.007812 175.085938,380.734375 C175.085938,378.835938 173.914062,377.6875 172.203125,377.6875 C170.820312,377.6875 170.117188,378.492188 169.820312,379.117188 L169.726562,379.117188 L170.515625,374.773438 L169.375,374.773438 L167.375,386 L168.507812,386 L168.804688,384.328125 L168.890625,384.328125 C169.09375,385.171875 170.023438,386.132812 171.382812,386.132812 Z M171.351562,385.09375 C170.34375,385.09375 169.195312,384.34375 169.1875,382.71875 C169.1875,382.679688 169.1875,382.507812 169.226562,382.320312 L169.429688,381.046875 C169.65625,379.679688 170.546875,378.648438 171.875,378.648438 C173.164062,378.648438 173.984375,379.484375 173.984375,380.882812 C173.984375,381.09375 173.976562,381.382812 173.945312,381.585938 L173.726562,382.828125 C173.5,384.085938 172.648438,385.09375 171.351562,385.09375 Z M181.421875,374.09375 L184.0625,371.359375 L182.84375,371.359375 L180.515625,374.09375 L181.421875,374.09375 Z M180.882812,376.492188 C182.132812,376.492188 183.179688,375.632812 183.3125,374.4375 L182.476562,374.4375 C182.335938,375.25 181.78125,375.742188 180.976562,375.742188 C180.21875,375.742188 179.726562,375.320312 179.726562,374.6875 C179.726562,374.578125 179.734375,374.507812 179.742188,374.4375 L178.914062,374.4375 C178.875,374.570312 178.867188,374.6875 178.867188,374.828125 C178.867188,375.742188 179.632812,376.492188 180.882812,376.492188 Z M179.039062,386.132812 C180.3125,386.132812 181.132812,385.4375 181.414062,384.875 L181.492188,384.875 L181.296875,386 L182.40625,386 L183.210938,381.4375 C183.289062,381.046875 183.359375,380.59375 183.359375,380.164062 C183.359375,378.703125 182.367188,377.6875 180.515625,377.6875 C178.796875,377.6875 177.6875,378.546875 177.46875,379.71875 L178.578125,379.71875 C178.757812,379.171875 179.34375,378.671875 180.429688,378.671875 C181.773438,378.671875 182.273438,379.46875 182.273438,380.265625 C182.273438,380.421875 182.25,380.601562 182.234375,380.695312 L182.148438,381.242188 L179.875,381.242188 C177.796875,381.242188 176.726562,382.164062 176.585938,383.507812 C176.570312,383.640625 176.570312,383.765625 176.570312,383.867188 C176.570312,385.289062 177.6875,386.132812 179.039062,386.132812 Z M179.3125,385.15625 C178.3125,385.15625 177.71875,384.578125 177.71875,383.757812 C177.71875,382.898438 178.382812,382.179688 179.773438,382.179688 L181.945312,382.179688 L181.757812,383.25 C181.554688,384.367188 180.507812,385.15625 179.3125,385.15625 Z M187.867188,386.070312 C188.25,386.070312 188.742188,386.023438 188.96875,385.96875 L189.140625,385.023438 C188.90625,385.070312 188.476562,385.109375 188.132812,385.109375 C187.421875,385.109375 187.109375,384.851562 187.109375,384.265625 C187.109375,384.03125 187.148438,383.773438 187.273438,383.054688 L188.023438,378.765625 L189.875,378.765625 L190.046875,377.820312 L188.195312,377.820312 L188.546875,375.773438 L187.421875,375.773438 L187.046875,377.820312 L185.75,377.820312 L185.578125,378.765625 L186.882812,378.765625 L186.046875,383.5 C185.976562,383.929688 185.929688,384.296875 185.929688,384.546875 C185.929688,385.5625 186.578125,386.070312 187.867188,386.070312 Z M197.789062,386.117188 C199.15625,386.117188 199.9375,385.25 200.171875,384.617188 L200.265625,384.617188 L200.023438,386 L201.140625,386 L202.78125,376.726562 L204.0625,376.726562 L204.226562,375.8125 L202.945312,375.8125 L203.132812,374.773438 L201.976562,374.773438 L201.796875,375.8125 L200,375.8125 L199.84375,376.726562 L201.640625,376.726562 L201.164062,379.429688 L201.070312,379.429688 C200.929688,378.671875 200.039062,377.6875 198.609375,377.6875 C196.679688,377.6875 195.523438,378.9375 195.21875,380.546875 L194.929688,382.078125 C194.867188,382.375 194.851562,382.734375 194.851562,383.039062 C194.851562,384.90625 196.085938,386.117188 197.789062,386.117188 Z M198.125,385.109375 C196.820312,385.109375 195.992188,384.265625 195.992188,382.867188 C195.992188,382.59375 196.015625,382.296875 196.039062,382.15625 L196.28125,380.9375 C196.539062,379.640625 197.328125,378.664062 198.65625,378.664062 C199.71875,378.664062 200.851562,379.429688 200.851562,381.03125 C200.851562,381.101562 200.835938,381.234375 200.804688,381.429688 L200.585938,382.703125 C200.335938,384.101562 199.445312,385.109375 198.125,385.109375 Z M211.921875,375.023438 L210.617188,372.320312 L209.53125,372.320312 L211.132812,375.023438 L211.921875,375.023438 Z M206.960938,376.453125 L208.554688,374.9375 L208.585938,374.9375 L209.5625,376.453125 L210.523438,376.453125 L209.0625,374.21875 L208.320312,374.21875 L205.921875,376.453125 L206.960938,376.453125 Z M206.414062,386.132812 C207.6875,386.132812 208.507812,385.4375 208.789062,384.875 L208.867188,384.875 L208.671875,386 L209.78125,386 L210.585938,381.4375 C210.664062,381.046875 210.734375,380.59375 210.734375,380.164062 C210.734375,378.703125 209.742188,377.6875 207.890625,377.6875 C206.171875,377.6875 205.0625,378.546875 204.84375,379.71875 L205.953125,379.71875 C206.132812,379.171875 206.71875,378.671875 207.804688,378.671875 C209.148438,378.671875 209.648438,379.46875 209.648438,380.265625 C209.648438,380.421875 209.625,380.601562 209.609375,380.695312 L209.523438,381.242188 L207.25,381.242188 C205.171875,381.242188 204.101562,382.164062 203.960938,383.507812 C203.945312,383.640625 203.945312,383.765625 203.945312,383.867188 C203.945312,385.289062 205.0625,386.132812 206.414062,386.132812 Z M206.6875,385.15625 C205.6875,385.15625 205.09375,384.578125 205.09375,383.757812 C205.09375,382.898438 205.757812,382.179688 207.148438,382.179688 L209.320312,382.179688 L209.132812,383.25 C208.929688,384.367188 207.882812,385.15625 206.6875,385.15625 Z M215.539062,386.132812 C216.726562,386.132812 217.585938,385.46875 217.976562,384.585938 L218.070312,384.585938 L217.820312,386 L218.898438,386 L220.335938,377.820312 L219.242188,377.820312 L218.398438,382.585938 C218.171875,383.921875 217.359375,385.109375 215.898438,385.109375 C214.695312,385.109375 214.117188,384.414062 214.117188,383.390625 C214.117188,383.054688 214.171875,382.640625 214.226562,382.34375 L215.039062,377.820312 L213.90625,377.820312 L213.09375,382.273438 C213.015625,382.648438 212.9375,383.15625 212.9375,383.59375 C212.9375,384.992188 213.859375,386.132812 215.539062,386.132812 Z M228.0625,386.070312 C228.445312,386.070312 228.9375,386.023438 229.164062,385.96875 L229.335938,385.023438 C229.101562,385.070312 228.671875,385.109375 228.328125,385.109375 C227.617188,385.109375 227.304688,384.851562 227.304688,384.265625 C227.304688,384.03125 227.34375,383.773438 227.46875,383.054688 L228.21875,378.765625 L230.070312,378.765625 L230.242188,377.820312 L228.390625,377.820312 L228.742188,375.773438 L227.617188,375.773438 L227.242188,377.820312 L225.945312,377.820312 L225.773438,378.765625 L227.078125,378.765625 L226.242188,383.5 C226.171875,383.929688 226.125,384.296875 226.125,384.546875 C226.125,385.5625 226.773438,386.070312 228.0625,386.070312 Z M236.773438,376.460938 L235.304688,373.71875 L234.054688,373.71875 L235.898438,376.460938 L236.773438,376.460938 Z M234.1875,386.132812 C235.375,386.132812 236.234375,385.46875 236.625,384.585938 L236.71875,384.585938 L236.46875,386 L237.546875,386 L238.835938,378.640625 L238.960938,378.640625 C240.28125,378.640625 241.015625,377.773438 241.226562,376.5625 L241.390625,375.609375 L240.367188,375.609375 L240.1875,376.578125 C240.0625,377.3125 239.71875,377.820312 238.875,377.820312 L237.890625,377.820312 L237.046875,382.585938 C236.820312,383.921875 236.007812,385.109375 234.546875,385.109375 C233.34375,385.109375 232.765625,384.414062 232.765625,383.390625 C232.765625,383.054688 232.820312,382.640625 232.875,382.34375 L233.6875,377.820312 L232.554688,377.820312 L231.734375,382.273438 C231.664062,382.648438 231.585938,383.15625 231.585938,383.59375 C231.585938,384.992188 232.5,386.132812 234.1875,386.132812 Z M2.1640625,410 L3.0078125,405.195312 C3.2421875,403.859375 4.09375,402.65625 5.5625,402.65625 C6.78125,402.65625 7.2734375,403.492188 7.2734375,404.453125 C7.2734375,404.804688 7.2109375,405.234375 7.171875,405.445312 L6.3671875,410 L7.515625,410 L8.3046875,405.515625 C8.375,405.109375 8.4453125,404.65625 8.4453125,404.25 C8.4453125,402.898438 7.609375,401.6875 5.890625,401.6875 C4.671875,401.6875 3.828125,402.28125 3.4140625,403.1875 L3.328125,403.1875 L4.140625,398.773438 L3.0078125,398.773438 L1.015625,410 L2.1640625,410 Z M12.7265625,410.132812 C14,410.132812 14.8203125,409.4375 15.1015625,408.875 L15.1796875,408.875 L14.984375,410 L16.09375,410 L16.8984375,405.4375 C16.9765625,405.046875 17.046875,404.59375 17.046875,404.164062 C17.046875,402.703125 16.0546875,401.6875 14.203125,401.6875 C12.484375,401.6875 11.375,402.546875 11.15625,403.71875 L12.265625,403.71875 C12.4453125,403.171875 13.03125,402.671875 14.1171875,402.671875 C15.4609375,402.671875 15.9609375,403.46875 15.9609375,404.265625 C15.9609375,404.421875 15.9375,404.601562 15.921875,404.695312 L15.8359375,405.242188 L13.5625,405.242188 C11.484375,405.242188 10.4140625,406.164062 10.2734375,407.507812 C10.2578125,407.640625 10.2578125,407.765625 10.2578125,407.867188 C10.2578125,409.289062 11.375,410.132812 12.7265625,410.132812 Z M13,409.15625 C12,409.15625 11.40625,408.578125 11.40625,407.757812 C11.40625,406.898438 12.0703125,406.179688 13.4609375,406.179688 L15.6328125,406.179688 L15.4453125,407.25 C15.2421875,408.367188 14.1953125,409.15625 13,409.15625 Z M21.34375,400.1875 C21.8515625,400.1875 22.2265625,399.820312 22.2265625,399.328125 C22.2265625,398.828125 21.8515625,398.453125 21.34375,398.453125 C20.8671875,398.453125 20.484375,398.828125 20.484375,399.328125 C20.484375,399.820312 20.8671875,400.1875 21.34375,400.1875 Z M20.1796875,410 L21.6171875,401.820312 L20.4765625,401.820312 L19.0390625,410 L20.1796875,410 Z M27.9609375,410 L28.8046875,405.195312 C29.0390625,403.859375 29.875,402.65625 31.34375,402.65625 C32.5625,402.65625 33.03125,403.5 33.03125,404.460938 C33.03125,404.820312 32.96875,405.226562 32.9296875,405.445312 L32.125,410 L33.265625,410 L34.0625,405.515625 C34.1328125,405.109375 34.203125,404.664062 34.203125,404.25 C34.203125,402.914062 33.4296875,401.6875 31.6796875,401.6875 C30.5,401.6875 29.65625,402.25 29.2109375,403.1875 L29.125,403.1875 L29.375,401.820312 L28.2578125,401.820312 L26.8125,410 L27.9609375,410 Z M38.859375,412.96875 C40.921875,412.96875 42.1484375,411.984375 42.5234375,409.867188 L43.9375,401.820312 L42.8125,401.820312 L42.53125,403.429688 L42.4375,403.429688 C42.1953125,402.53125 41.328125,401.6875 39.9296875,401.6875 C38.4140625,401.6875 36.9609375,402.59375 36.5625,404.6875 L36.3828125,405.640625 C36.3203125,405.953125 36.2734375,406.476562 36.2734375,406.757812 C36.2734375,408.6875 37.703125,409.851562 39.21875,409.851562 C40.5078125,409.851562 41.28125,409.1875 41.578125,408.46875 L41.671875,408.46875 L41.4609375,409.664062 C41.1875,411.234375 40.40625,411.992188 38.9296875,411.992188 C37.7109375,411.992188 36.921875,411.304688 36.921875,410.65625 L36.921875,410.554688 L36.921875,410.554688 L35.8046875,410.554688 C35.8046875,410.5625 35.796875,410.65625 35.796875,410.671875 C35.796875,411.867188 36.984375,412.96875 38.859375,412.96875 Z M39.5703125,408.890625 C38.265625,408.890625 37.3984375,408.109375 37.3984375,406.585938 C37.3984375,406.375 37.453125,405.945312 37.4921875,405.71875 L37.625,405.039062 C37.8984375,403.554688 38.765625,402.65625 39.984375,402.65625 C41.25,402.65625 42.1796875,403.539062 42.1796875,404.976562 C42.1796875,405.046875 42.1796875,405.28125 42.1015625,405.71875 L41.953125,406.554688 C41.71875,407.921875 40.78125,408.890625 39.5703125,408.890625 Z M48.2890625,410.132812 C49.4765625,410.132812 50.3359375,409.46875 50.7265625,408.585938 L50.8203125,408.585938 L50.5703125,410 L51.6484375,410 L52.9375,402.640625 L53.0625,402.640625 C54.3828125,402.640625 55.1171875,401.773438 55.328125,400.5625 L55.4921875,399.609375 L54.46875,399.609375 L54.2890625,400.578125 C54.1640625,401.3125 53.8203125,401.820312 52.9765625,401.820312 L51.9921875,401.820312 L51.1484375,406.585938 C50.921875,407.921875 50.109375,409.109375 48.6484375,409.109375 C47.4453125,409.109375 46.8671875,408.414062 46.8671875,407.390625 C46.8671875,407.054688 46.921875,406.640625 46.9765625,406.34375 L47.7890625,401.820312 L46.65625,401.820312 L45.8359375,406.273438 C45.765625,406.648438 45.6875,407.15625 45.6875,407.59375 C45.6875,408.992188 46.6015625,410.132812 48.2890625,410.132812 Z M60.6640625,400.460938 L59.1953125,397.71875 L57.9453125,397.71875 L59.7890625,400.460938 L60.6640625,400.460938 Z M58.6953125,410.132812 C60.7265625,410.132812 61.921875,408.96875 62.2734375,407.03125 L62.4765625,405.914062 C62.53125,405.570312 62.5625,405.1875 62.5625,404.953125 C62.5625,404.023438 62.2265625,403.242188 61.8984375,402.84375 L61.921875,402.78125 C63.1328125,402.765625 63.5390625,401.960938 63.765625,400.6875 L63.9609375,399.609375 L62.9296875,399.609375 L62.71875,400.78125 C62.578125,401.554688 62.1875,402.03125 61.3984375,402.03125 C60.6640625,402.03125 60.1640625,401.6875 59.25,401.6875 C57.5234375,401.6875 56.125,402.796875 55.78125,404.765625 L55.5859375,405.875 C55.5234375,406.234375 55.5,406.625 55.5,407.007812 C55.5,408.96875 56.8828125,410.132812 58.6953125,410.132812 Z M58.8359375,409.132812 C57.453125,409.132812 56.6171875,408.195312 56.6171875,406.828125 C56.6171875,406.46875 56.6484375,406.210938 56.6953125,405.953125 L56.875,404.984375 C57.15625,403.382812 58.0859375,402.6875 59.2265625,402.6875 C60.578125,402.6875 61.421875,403.632812 61.421875,404.945312 C61.421875,405.0625 61.421875,405.453125 61.3828125,405.703125 L61.203125,406.742188 C60.9296875,408.273438 60.09375,409.132812 58.8359375,409.132812 Z M66.578125,400.1875 C67.0859375,400.1875 67.4609375,399.820312 67.4609375,399.328125 C67.4609375,398.828125 67.0859375,398.453125 66.578125,398.453125 C66.1015625,398.453125 65.71875,398.828125 65.71875,399.328125 C65.71875,399.820312 66.1015625,400.1875 66.578125,400.1875 Z M65.4140625,410 L66.8515625,401.820312 L65.7109375,401.820312 L64.2734375,410 L65.4140625,410 Z M69.1953125,410.132812 C69.765625,410.132812 70.203125,409.703125 70.203125,409.15625 C70.203125,408.578125 69.765625,408.148438 69.1953125,408.148438 C68.65625,408.148438 68.21875,408.578125 68.21875,409.15625 C68.21875,409.703125 68.65625,410.132812 69.1953125,410.132812 Z M81.171875,410 L82.7109375,401.265625 L82.78125,401.265625 L86.8828125,410 L88.015625,410 L89.8984375,399.335938 L88.7421875,399.335938 L87.1875,408.09375 L87.1171875,408.09375 L83.0546875,399.335938 L81.8984375,399.335938 L80.015625,410 L81.171875,410 Z M94.359375,400.460938 L95.9765625,398.296875 L96,398.296875 L96.90625,400.460938 L97.90625,400.460938 L96.5625,397.523438 L95.640625,397.523438 L93.3203125,400.460938 L94.359375,400.460938 Z M94.3828125,410.132812 C96.203125,410.132812 97.359375,409.015625 97.546875,408.015625 L96.40625,408.015625 C96.2421875,408.578125 95.546875,409.125 94.453125,409.125 C92.9375,409.125 92.3671875,408.070312 92.3671875,406.945312 C92.3671875,406.664062 92.40625,406.359375 92.453125,406.179688 L97.8828125,406.179688 C97.8984375,406.101562 98.078125,405.109375 98.078125,405.078125 C98.3125,403.570312 97.5703125,401.6875 95.15625,401.6875 C93.2734375,401.6875 91.9375,402.835938 91.6171875,404.664062 L91.40625,405.820312 C91.3515625,406.109375 91.28125,406.59375 91.28125,407.054688 C91.28125,409.0625 92.59375,410.132812 94.3828125,410.132812 Z M96.9609375,405.257812 L92.640625,405.257812 C92.640625,405.242188 92.75,404.726562 92.75,404.710938 C93.046875,403.3125 94.0234375,402.65625 95.1171875,402.65625 C96.546875,402.65625 97.2109375,403.734375 96.9921875,405.054688 C96.9921875,405.09375 96.96875,405.234375 96.9609375,405.257812 Z M100.789062,410 L101.632812,405.195312 C101.867188,403.859375 102.703125,402.65625 104.171875,402.65625 C105.390625,402.65625 105.859375,403.5 105.859375,404.460938 C105.859375,404.820312 105.796875,405.226562 105.757812,405.445312 L104.953125,410 L106.09375,410 L106.890625,405.515625 C106.960938,405.109375 107.03125,404.664062 107.03125,404.25 C107.03125,402.914062 106.257812,401.6875 104.507812,401.6875 C103.328125,401.6875 102.484375,402.25 102.039062,403.1875 L101.953125,403.1875 L102.203125,401.820312 L101.085938,401.820312 L99.640625,410 L100.789062,410 Z M113.710938,410 L114.5625,405.15625 C114.796875,403.804688 115.539062,402.65625 116.921875,402.65625 C118.046875,402.65625 118.453125,403.4375 118.453125,404.421875 C118.453125,404.773438 118.414062,405.140625 118.375,405.359375 L117.554688,410 L118.695312,410 L119.554688,405.164062 C119.8125,403.71875 120.546875,402.65625 121.789062,402.65625 C122.867188,402.65625 123.28125,403.421875 123.28125,404.4375 C123.28125,404.78125 123.226562,405.15625 123.1875,405.375 L122.375,410 L123.515625,410 L124.320312,405.445312 C124.382812,405.070312 124.460938,404.578125 124.460938,404.15625 C124.460938,402.820312 123.726562,401.6875 122.078125,401.6875 C120.625,401.6875 119.90625,402.609375 119.625,403.25 L119.546875,403.25 C119.28125,402.367188 118.507812,401.6875 117.257812,401.6875 C116.046875,401.6875 115.296875,402.390625 114.960938,403.1875 L114.875,403.1875 L115.117188,401.820312 L114.007812,401.820312 L112.5625,410 L113.710938,410 Z M129.703125,400.460938 L131.320312,398.296875 L131.34375,398.296875 L132.25,400.460938 L133.25,400.460938 L131.90625,397.523438 L130.984375,397.523438 L128.664062,400.460938 L129.703125,400.460938 Z M129.695312,410.132812 C131.726562,410.132812 132.921875,408.96875 133.273438,407.03125 L133.476562,405.914062 C133.539062,405.570312 133.570312,405.1875 133.570312,404.953125 C133.570312,402.898438 132.195312,401.6875 130.257812,401.6875 C128.523438,401.6875 127.125,402.796875 126.78125,404.765625 L126.59375,405.875 C126.523438,406.234375 126.5,406.625 126.5,407.007812 C126.5,408.96875 127.890625,410.132812 129.695312,410.132812 Z M129.835938,409.132812 C128.453125,409.132812 127.617188,408.195312 127.617188,406.828125 C127.617188,406.46875 127.65625,406.210938 127.703125,405.953125 L127.875,404.984375 C128.15625,403.382812 129.085938,402.6875 130.226562,402.6875 C131.585938,402.6875 132.429688,403.632812 132.429688,404.945312 C132.429688,405.0625 132.421875,405.453125 132.382812,405.703125 L132.203125,406.742188 C131.9375,408.273438 131.09375,409.132812 129.835938,409.132812 Z M128.984375,412.546875 C129.4375,412.546875 129.757812,412.25 129.757812,411.804688 C129.757812,411.367188 129.4375,411.054688 128.984375,411.054688 C128.539062,411.054688 128.21875,411.367188 128.21875,411.804688 C128.21875,412.25 128.539062,412.546875 128.984375,412.546875 Z M137.789062,410.070312 C138.171875,410.070312 138.664062,410.023438 138.890625,409.96875 L139.0625,409.023438 C138.828125,409.070312 138.398438,409.109375 138.054688,409.109375 C137.34375,409.109375 137.03125,408.851562 137.03125,408.265625 C137.03125,408.03125 137.070312,407.773438 137.195312,407.054688 L137.945312,402.765625 L139.796875,402.765625 L139.96875,401.820312 L138.117188,401.820312 L138.46875,399.773438 L137.34375,399.773438 L136.96875,401.820312 L135.671875,401.820312 L135.5,402.765625 L136.804688,402.765625 L135.96875,407.5 C135.898438,407.929688 135.851562,408.296875 135.851562,408.546875 C135.851562,409.5625 136.5,410.070312 137.789062,410.070312 Z M147.984375,410.132812 C149.625,410.132812 150.851562,409.273438 151.078125,407.984375 L149.929688,407.984375 C149.78125,408.59375 149.109375,409.125 148.039062,409.125 C146.648438,409.125 145.921875,408.242188 145.921875,406.757812 C145.921875,406.5 145.945312,406.25 146.007812,405.914062 L146.171875,404.96875 C146.4375,403.484375 147.351562,402.65625 148.554688,402.65625 C149.828125,402.65625 150.476562,403.507812 150.476562,404.25 L150.476562,404.34375 L150.476562,404.34375 L151.585938,404.34375 C151.59375,404.335938 151.59375,404.257812 151.59375,404.242188 C151.59375,402.875 150.476562,401.6875 148.5625,401.6875 C146.75,401.6875 145.429688,402.71875 145.09375,404.671875 L144.890625,405.84375 C144.820312,406.257812 144.789062,406.695312 144.789062,407.007812 C144.789062,408.921875 146.0625,410.132812 147.984375,410.132812 Z M157.242188,400.460938 L159.9375,397.71875 L158.664062,397.71875 L156.28125,400.460938 L157.242188,400.460938 Z M155.3125,410.132812 C156.585938,410.132812 157.40625,409.4375 157.6875,408.875 L157.765625,408.875 L157.570312,410 L158.679688,410 L159.484375,405.4375 C159.5625,405.046875 159.632812,404.59375 159.632812,404.164062 C159.632812,402.703125 158.640625,401.6875 156.789062,401.6875 C155.070312,401.6875 153.960938,402.546875 153.742188,403.71875 L154.851562,403.71875 C155.03125,403.171875 155.617188,402.671875 156.703125,402.671875 C158.046875,402.671875 158.546875,403.46875 158.546875,404.265625 C158.546875,404.421875 158.523438,404.601562 158.507812,404.695312 L158.421875,405.242188 L156.148438,405.242188 C154.070312,405.242188 153,406.164062 152.859375,407.507812 C152.84375,407.640625 152.84375,407.765625 152.84375,407.867188 C152.84375,409.289062 153.960938,410.132812 155.3125,410.132812 Z M155.585938,409.15625 C154.585938,409.15625 153.992188,408.578125 153.992188,407.757812 C153.992188,406.898438 154.65625,406.179688 156.046875,406.179688 L158.21875,406.179688 L158.03125,407.25 C157.828125,408.367188 156.78125,409.15625 155.585938,409.15625 Z M164.851562,410.132812 C166.492188,410.132812 167.71875,409.273438 167.945312,407.984375 L166.796875,407.984375 C166.648438,408.59375 165.976562,409.125 164.90625,409.125 C163.515625,409.125 162.789062,408.242188 162.789062,406.757812 C162.789062,406.5 162.8125,406.25 162.875,405.914062 L163.039062,404.96875 C163.304688,403.484375 164.21875,402.65625 165.421875,402.65625 C166.695312,402.65625 167.34375,403.507812 167.34375,404.25 L167.34375,404.34375 L167.34375,404.34375 L168.453125,404.34375 C168.460938,404.335938 168.460938,404.257812 168.460938,404.242188 C168.460938,402.875 167.34375,401.6875 165.429688,401.6875 C163.617188,401.6875 162.296875,402.71875 161.960938,404.671875 L161.757812,405.84375 C161.6875,406.257812 161.65625,406.695312 161.65625,407.007812 C161.65625,408.921875 162.929688,410.132812 164.851562,410.132812 Z M170.929688,410 L171.773438,405.195312 C172.007812,403.859375 172.859375,402.65625 174.328125,402.65625 C175.546875,402.65625 176.039062,403.492188 176.039062,404.453125 C176.039062,404.804688 175.976562,405.234375 175.9375,405.445312 L175.132812,410 L176.28125,410 L177.070312,405.515625 C177.140625,405.109375 177.210938,404.65625 177.210938,404.25 C177.210938,402.898438 176.375,401.6875 174.65625,401.6875 C173.4375,401.6875 172.59375,402.28125 172.179688,403.1875 L172.09375,403.1875 L172.90625,398.773438 L171.773438,398.773438 L169.78125,410 L170.929688,410 Z M185.398438,410.070312 C185.78125,410.070312 186.273438,410.023438 186.5,409.96875 L186.671875,409.023438 C186.4375,409.070312 186.007812,409.109375 185.664062,409.109375 C184.953125,409.109375 184.640625,408.851562 184.640625,408.265625 C184.640625,408.03125 184.679688,407.773438 184.804688,407.054688 L185.554688,402.765625 L187.40625,402.765625 L187.578125,401.820312 L185.726562,401.820312 L186.078125,399.773438 L184.953125,399.773438 L184.578125,401.820312 L183.28125,401.820312 L183.109375,402.765625 L184.414062,402.765625 L183.578125,407.5 C183.507812,407.929688 183.460938,408.296875 183.460938,408.546875 C183.460938,409.5625 184.109375,410.070312 185.398438,410.070312 Z M191.523438,410.132812 C192.710938,410.132812 193.570312,409.46875 193.960938,408.585938 L194.054688,408.585938 L193.804688,410 L194.882812,410 L196.171875,402.640625 L196.296875,402.640625 C197.617188,402.640625 198.351562,401.773438 198.5625,400.5625 L198.726562,399.609375 L197.703125,399.609375 L197.523438,400.578125 C197.398438,401.3125 197.054688,401.820312 196.210938,401.820312 L195.226562,401.820312 L194.382812,406.585938 C194.15625,407.921875 193.34375,409.109375 191.882812,409.109375 C190.679688,409.109375 190.101562,408.414062 190.101562,407.390625 C190.101562,407.054688 190.15625,406.640625 190.210938,406.34375 L191.023438,401.820312 L189.890625,401.820312 L189.070312,406.273438 C189,406.648438 188.921875,407.15625 188.921875,407.59375 C188.921875,408.992188 189.835938,410.132812 191.523438,410.132812 Z M191.398438,412.546875 C191.851562,412.546875 192.171875,412.25 192.171875,411.804688 C192.171875,411.367188 191.851562,411.054688 191.398438,411.054688 C190.953125,411.054688 190.632812,411.367188 190.632812,411.804688 C190.632812,412.25 190.953125,412.546875 191.398438,412.546875 Z M203.359375,410 L204.203125,405.195312 C204.4375,403.859375 205.273438,402.65625 206.742188,402.65625 C207.960938,402.65625 208.429688,403.5 208.429688,404.460938 C208.429688,404.820312 208.367188,405.226562 208.328125,405.445312 L207.523438,410 L208.664062,410 L209.460938,405.515625 C209.53125,405.109375 209.601562,404.664062 209.601562,404.25 C209.601562,402.914062 208.828125,401.6875 207.078125,401.6875 C205.898438,401.6875 205.054688,402.25 204.609375,403.1875 L204.523438,403.1875 L204.773438,401.820312 L203.65625,401.820312 L202.210938,410 L203.359375,410 Z M212.625,410 L213.46875,405.195312 C213.703125,403.859375 214.554688,402.65625 216.023438,402.65625 C217.242188,402.65625 217.734375,403.492188 217.734375,404.453125 C217.734375,404.804688 217.671875,405.234375 217.632812,405.445312 L216.828125,410 L217.976562,410 L218.765625,405.515625 C218.835938,405.109375 218.90625,404.65625 218.90625,404.25 C218.90625,402.898438 218.070312,401.6875 216.351562,401.6875 C215.132812,401.6875 214.289062,402.28125 213.875,403.1875 L213.789062,403.1875 L214.601562,398.773438 L213.46875,398.773438 L211.476562,410 L212.625,410 Z M223.226562,400.1875 C223.734375,400.1875 224.109375,399.820312 224.109375,399.328125 C224.109375,398.828125 223.734375,398.453125 223.226562,398.453125 C222.75,398.453125 222.367188,398.828125 222.367188,399.328125 C222.367188,399.820312 222.75,400.1875 223.226562,400.1875 Z M222.0625,410 L223.5,401.820312 L222.359375,401.820312 L220.921875,410 L222.0625,410 Z M228.257812,400.460938 L229.875,398.296875 L229.898438,398.296875 L230.804688,400.460938 L231.804688,400.460938 L230.460938,397.523438 L229.539062,397.523438 L227.21875,400.460938 L228.257812,400.460938 Z M228.28125,410.132812 C230.101562,410.132812 231.257812,409.015625 231.445312,408.015625 L230.304688,408.015625 C230.140625,408.578125 229.445312,409.125 228.351562,409.125 C226.835938,409.125 226.265625,408.070312 226.265625,406.945312 C226.265625,406.664062 226.304688,406.359375 226.351562,406.179688 L231.78125,406.179688 C231.796875,406.101562 231.976562,405.109375 231.976562,405.078125 C232.210938,403.570312 231.46875,401.6875 229.054688,401.6875 C227.171875,401.6875 225.835938,402.835938 225.515625,404.664062 L225.304688,405.820312 C225.25,406.109375 225.179688,406.59375 225.179688,407.054688 C225.179688,409.0625 226.492188,410.132812 228.28125,410.132812 Z M230.859375,405.257812 L226.539062,405.257812 C226.539062,405.242188 226.648438,404.726562 226.648438,404.710938 C226.945312,403.3125 227.921875,402.65625 229.015625,402.65625 C230.445312,402.65625 231.109375,403.734375 230.890625,405.054688 C230.890625,405.09375 230.867188,405.234375 230.859375,405.257812 Z M234.6875,410 L235.53125,405.195312 C235.765625,403.859375 236.601562,402.65625 238.070312,402.65625 C239.289062,402.65625 239.757812,403.5 239.757812,404.460938 C239.757812,404.820312 239.695312,405.226562 239.65625,405.445312 L238.851562,410 L239.992188,410 L240.789062,405.515625 C240.859375,405.109375 240.929688,404.664062 240.929688,404.25 C240.929688,402.914062 240.15625,401.6875 238.40625,401.6875 C237.226562,401.6875 236.382812,402.25 235.9375,403.1875 L235.851562,403.1875 L236.101562,401.820312 L234.984375,401.820312 L233.539062,410 L234.6875,410 Z M242.796875,412.765625 L244.640625,408.40625 L243.25,408.40625 L241.75,412.765625 L242.796875,412.765625 Z M4.375,434.132812 C6.015625,434.132812 7.2421875,433.273438 7.46875,431.984375 L6.3203125,431.984375 C6.171875,432.59375 5.5,433.125 4.4296875,433.125 C3.0390625,433.125 2.3125,432.242188 2.3125,430.757812 C2.3125,430.5 2.3359375,430.25 2.3984375,429.914062 L2.5625,428.96875 C2.828125,427.484375 3.7421875,426.65625 4.9453125,426.65625 C6.21875,426.65625 6.8671875,427.507812 6.8671875,428.25 L6.8671875,428.34375 L6.8671875,428.34375 L7.9765625,428.34375 C7.984375,428.335938 7.984375,428.257812 7.984375,428.242188 C7.984375,426.875 6.8671875,425.6875 4.953125,425.6875 C3.140625,425.6875 1.8203125,426.71875 1.484375,428.671875 L1.28125,429.84375 C1.2109375,430.257812 1.1796875,430.695312 1.1796875,431.007812 C1.1796875,432.921875 2.453125,434.132812 4.375,434.132812 Z M10.453125,434 L11.296875,429.195312 C11.53125,427.859375 12.3828125,426.65625 13.8515625,426.65625 C15.0703125,426.65625 15.5625,427.492188 15.5625,428.453125 C15.5625,428.804688 15.5,429.234375 15.4609375,429.445312 L14.65625,434 L15.8046875,434 L16.59375,429.515625 C16.6640625,429.109375 16.734375,428.65625 16.734375,428.25 C16.734375,426.898438 15.8984375,425.6875 14.1796875,425.6875 C12.9609375,425.6875 12.1171875,426.28125 11.703125,427.1875 L11.6171875,427.1875 L12.4296875,422.773438 L11.296875,422.773438 L9.3046875,434 L10.453125,434 Z M23.4921875,424.460938 L26.1875,421.71875 L24.9140625,421.71875 L22.53125,424.460938 L23.4921875,424.460938 Z M21.5625,434.132812 C22.75,434.132812 23.609375,433.46875 24,432.585938 L24.09375,432.585938 L23.84375,434 L24.921875,434 L26.359375,425.820312 L25.265625,425.820312 L24.421875,430.585938 C24.1953125,431.921875 23.3828125,433.109375 21.921875,433.109375 C20.71875,433.109375 20.140625,432.414062 20.140625,431.390625 C20.140625,431.054688 20.1953125,430.640625 20.25,430.34375 L21.0625,425.820312 L19.9296875,425.820312 L19.1171875,430.273438 C19.0390625,430.648438 18.9609375,431.15625 18.9609375,431.59375 C18.9609375,432.992188 19.8828125,434.132812 21.5625,434.132812 Z M28.9296875,434 L29.7734375,429.195312 C30.0078125,427.859375 30.84375,426.65625 32.3125,426.65625 C33.53125,426.65625 34,427.5 34,428.460938 C34,428.820312 33.9375,429.226562 33.8984375,429.445312 L33.09375,434 L34.234375,434 L35.03125,429.515625 C35.1015625,429.109375 35.171875,428.664062 35.171875,428.25 C35.171875,426.914062 34.3984375,425.6875 32.6484375,425.6875 C31.46875,425.6875 30.625,426.25 30.1796875,427.1875 L30.09375,427.1875 L30.34375,425.820312 L29.2265625,425.820312 L27.78125,434 L28.9296875,434 Z M39.828125,436.96875 C41.890625,436.96875 43.1171875,435.984375 43.4921875,433.867188 L44.90625,425.820312 L43.78125,425.820312 L43.5,427.429688 L43.40625,427.429688 C43.1640625,426.53125 42.296875,425.6875 40.8984375,425.6875 C39.3828125,425.6875 37.9296875,426.59375 37.53125,428.6875 L37.3515625,429.640625 C37.2890625,429.953125 37.2421875,430.476562 37.2421875,430.757812 C37.2421875,432.6875 38.671875,433.851562 40.1875,433.851562 C41.4765625,433.851562 42.25,433.1875 42.546875,432.46875 L42.640625,432.46875 L42.4296875,433.664062 C42.15625,435.234375 41.375,435.992188 39.8984375,435.992188 C38.6796875,435.992188 37.890625,435.304688 37.890625,434.65625 L37.890625,434.554688 L37.890625,434.554688 L36.7734375,434.554688 C36.7734375,434.5625 36.765625,434.65625 36.765625,434.671875 C36.765625,435.867188 37.953125,436.96875 39.828125,436.96875 Z M40.5390625,432.890625 C39.234375,432.890625 38.3671875,432.109375 38.3671875,430.585938 C38.3671875,430.375 38.421875,429.945312 38.4609375,429.71875 L38.59375,429.039062 C38.8671875,427.554688 39.734375,426.65625 40.953125,426.65625 C42.21875,426.65625 43.1484375,427.539062 43.1484375,428.976562 C43.1484375,429.046875 43.1484375,429.28125 43.0703125,429.71875 L42.921875,430.554688 C42.6875,431.921875 41.75,432.890625 40.5390625,432.890625 Z M52.6171875,434.070312 C53,434.070312 53.4921875,434.023438 53.71875,433.96875 L53.890625,433.023438 C53.65625,433.070312 53.2265625,433.109375 52.8828125,433.109375 C52.171875,433.109375 51.859375,432.851562 51.859375,432.265625 C51.859375,432.03125 51.8984375,431.773438 52.0234375,431.054688 L52.7734375,426.765625 L54.625,426.765625 L54.796875,425.820312 L52.9453125,425.820312 L53.296875,423.773438 L52.171875,423.773438 L51.796875,425.820312 L50.5,425.820312 L50.328125,426.765625 L51.6328125,426.765625 L50.796875,431.5 C50.7265625,431.929688 50.6796875,432.296875 50.6796875,432.546875 C50.6796875,433.5625 51.328125,434.070312 52.6171875,434.070312 Z M59.171875,424.460938 L60.7890625,422.296875 L60.8125,422.296875 L61.71875,424.460938 L62.71875,424.460938 L61.375,421.523438 L60.453125,421.523438 L58.1328125,424.460938 L59.171875,424.460938 Z M59.1640625,434.132812 C61.1953125,434.132812 62.390625,432.96875 62.7421875,431.03125 L62.9453125,429.914062 C63.0078125,429.570312 63.0390625,429.1875 63.0390625,428.953125 C63.0390625,426.898438 61.6640625,425.6875 59.7265625,425.6875 C57.9921875,425.6875 56.59375,426.796875 56.25,428.765625 L56.0625,429.875 C55.9921875,430.234375 55.96875,430.625 55.96875,431.007812 C55.96875,432.96875 57.359375,434.132812 59.1640625,434.132812 Z M59.3046875,433.132812 C57.921875,433.132812 57.0859375,432.195312 57.0859375,430.828125 C57.0859375,430.46875 57.125,430.210938 57.171875,429.953125 L57.34375,428.984375 C57.625,427.382812 58.5546875,426.6875 59.6953125,426.6875 C61.0546875,426.6875 61.8984375,427.632812 61.8984375,428.945312 C61.8984375,429.0625 61.890625,429.453125 61.8515625,429.703125 L61.671875,430.742188 C61.40625,432.273438 60.5625,433.132812 59.3046875,433.132812 Z M67.046875,424.1875 C67.5546875,424.1875 67.9296875,423.820312 67.9296875,423.328125 C67.9296875,422.828125 67.5546875,422.453125 67.046875,422.453125 C66.5703125,422.453125 66.1875,422.828125 66.1875,423.328125 C66.1875,423.820312 66.5703125,424.1875 67.046875,424.1875 Z M65.8828125,434 L67.3203125,425.820312 L66.1796875,425.820312 L64.7421875,434 L65.8828125,434 Z M75.875,434.132812 C77.515625,434.132812 78.7421875,433.273438 78.96875,431.984375 L77.8203125,431.984375 C77.671875,432.59375 77,433.125 75.9296875,433.125 C74.5390625,433.125 73.8125,432.242188 73.8125,430.757812 C73.8125,430.5 73.8359375,430.25 73.8984375,429.914062 L74.0625,428.96875 C74.328125,427.484375 75.2421875,426.65625 76.4453125,426.65625 C77.71875,426.65625 78.3671875,427.507812 78.3671875,428.25 L78.3671875,428.34375 L78.3671875,428.34375 L79.4765625,428.34375 C79.484375,428.335938 79.484375,428.257812 79.484375,428.242188 C79.484375,426.875 78.3671875,425.6875 76.453125,425.6875 C74.640625,425.6875 73.3203125,426.71875 72.984375,428.671875 L72.78125,429.84375 C72.7109375,430.257812 72.6796875,430.695312 72.6796875,431.007812 C72.6796875,432.921875 73.953125,434.132812 75.875,434.132812 Z M86.65625,424.414062 C87.546875,424.414062 88.109375,423.554688 88.1796875,422.65625 L87.375,422.65625 C87.3046875,423.234375 87.0625,423.609375 86.671875,423.609375 C86.03125,423.609375 85.9921875,422.390625 84.7421875,422.390625 C83.8671875,422.390625 83.296875,423.132812 83.2109375,424.148438 L84.015625,424.148438 C84.078125,423.5625 84.2890625,423.195312 84.71875,423.195312 C85.4140625,423.195312 85.4453125,424.414062 86.65625,424.414062 Z M83.75,434.132812 C84.9375,434.132812 85.796875,433.46875 86.1875,432.585938 L86.28125,432.585938 L86.03125,434 L87.109375,434 L88.546875,425.820312 L87.453125,425.820312 L86.609375,430.585938 C86.3828125,431.921875 85.5703125,433.109375 84.109375,433.109375 C82.90625,433.109375 82.328125,432.414062 82.328125,431.390625 C82.328125,431.054688 82.3828125,430.640625 82.4375,430.34375 L83.25,425.820312 L82.1171875,425.820312 L81.3046875,430.273438 C81.2265625,430.648438 81.1484375,431.15625 81.1484375,431.59375 C81.1484375,432.992188 82.0703125,434.132812 83.75,434.132812 Z M91.1171875,434 L91.9609375,429.195312 C92.1953125,427.859375 93.03125,426.65625 94.5,426.65625 C95.71875,426.65625 96.1875,427.5 96.1875,428.460938 C96.1875,428.820312 96.125,429.226562 96.0859375,429.445312 L95.28125,434 L96.421875,434 L97.21875,429.515625 C97.2890625,429.109375 97.359375,428.664062 97.359375,428.25 C97.359375,426.914062 96.5859375,425.6875 94.8359375,425.6875 C93.65625,425.6875 92.8125,426.25 92.3671875,427.1875 L92.28125,427.1875 L92.53125,425.820312 L91.4140625,425.820312 L89.96875,434 L91.1171875,434 Z M102.015625,436.96875 C104.078125,436.96875 105.304688,435.984375 105.679688,433.867188 L107.09375,425.820312 L105.96875,425.820312 L105.6875,427.429688 L105.59375,427.429688 C105.351562,426.53125 104.484375,425.6875 103.085938,425.6875 C101.570312,425.6875 100.117188,426.59375 99.71875,428.6875 L99.5390625,429.640625 C99.4765625,429.953125 99.4296875,430.476562 99.4296875,430.757812 C99.4296875,432.6875 100.859375,433.851562 102.375,433.851562 C103.664062,433.851562 104.4375,433.1875 104.734375,432.46875 L104.828125,432.46875 L104.617188,433.664062 C104.34375,435.234375 103.5625,435.992188 102.085938,435.992188 C100.867188,435.992188 100.078125,435.304688 100.078125,434.65625 L100.078125,434.554688 L100.078125,434.554688 L98.9609375,434.554688 C98.9609375,434.5625 98.953125,434.65625 98.953125,434.671875 C98.953125,435.867188 100.140625,436.96875 102.015625,436.96875 Z M102.726562,432.890625 C101.421875,432.890625 100.554688,432.109375 100.554688,430.585938 C100.554688,430.375 100.609375,429.945312 100.648438,429.71875 L100.78125,429.039062 C101.054688,427.554688 101.921875,426.65625 103.140625,426.65625 C104.40625,426.65625 105.335938,427.539062 105.335938,428.976562 L105.33508,429.048172 C105.332079,429.161073 105.318576,429.378472 105.257812,429.71875 L105.109375,430.554688 C104.875,431.921875 103.9375,432.890625 102.726562,432.890625 Z M114.804688,434.070312 C115.1875,434.070312 115.679688,434.023438 115.90625,433.96875 L116.078125,433.023438 C115.84375,433.070312 115.414062,433.109375 115.070312,433.109375 C114.359375,433.109375 114.046875,432.851562 114.046875,432.265625 C114.046875,432.03125 114.085938,431.773438 114.210938,431.054688 L114.960938,426.765625 L116.8125,426.765625 L116.984375,425.820312 L115.132812,425.820312 L115.484375,423.773438 L114.359375,423.773438 L113.984375,425.820312 L112.6875,425.820312 L112.515625,426.765625 L113.820312,426.765625 L112.984375,431.5 C112.914062,431.929688 112.867188,432.296875 112.867188,432.546875 C112.867188,433.5625 113.515625,434.070312 114.804688,434.070312 Z M119.257812,434 L120.09375,429.25 C120.328125,427.890625 121.117188,426.75 122.59375,426.75 C122.796875,426.75 123.101562,426.773438 123.265625,426.828125 L123.507812,425.75 C123.351562,425.726562 123.054688,425.6875 122.828125,425.6875 C121.601562,425.6875 120.789062,426.429688 120.476562,427.203125 L120.390625,427.203125 L120.640625,425.820312 L119.554688,425.820312 L118.109375,434 L119.257812,434 Z M127,424.460938 L128.617188,422.296875 L128.640625,422.296875 L129.546875,424.460938 L130.546875,424.460938 L129.203125,421.523438 L128.28125,421.523438 L125.960938,424.460938 L127,424.460938 Z M126.398438,434.132812 C127.671875,434.132812 128.492188,433.4375 128.773438,432.875 L128.851562,432.875 L128.65625,434 L129.765625,434 L130.570312,429.4375 C130.648438,429.046875 130.71875,428.59375 130.71875,428.164062 C130.71875,426.703125 129.726562,425.6875 127.875,425.6875 C126.15625,425.6875 125.046875,426.546875 124.828125,427.71875 L125.9375,427.71875 C126.117188,427.171875 126.703125,426.671875 127.789062,426.671875 C129.132812,426.671875 129.632812,427.46875 129.632812,428.265625 C129.632812,428.421875 129.609375,428.601562 129.59375,428.695312 L129.507812,429.242188 L127.234375,429.242188 C125.15625,429.242188 124.085938,430.164062 123.945312,431.507812 C123.929688,431.640625 123.929688,431.765625 123.929688,431.867188 C123.929688,433.289062 125.046875,434.132812 126.398438,434.132812 Z M126.671875,433.15625 C125.671875,433.15625 125.078125,432.578125 125.078125,431.757812 C125.078125,430.898438 125.742188,430.179688 127.132812,430.179688 L129.304688,430.179688 L129.117188,431.25 C128.914062,432.367188 127.867188,433.15625 126.671875,433.15625 Z M133.726562,434 L134.570312,429.195312 C134.804688,427.859375 135.640625,426.65625 137.109375,426.65625 C138.328125,426.65625 138.796875,427.5 138.796875,428.460938 C138.796875,428.820312 138.734375,429.226562 138.695312,429.445312 L137.890625,434 L139.03125,434 L139.828125,429.515625 C139.898438,429.109375 139.96875,428.664062 139.96875,428.25 C139.96875,426.914062 139.195312,425.6875 137.445312,425.6875 C136.265625,425.6875 135.421875,426.25 134.976562,427.1875 L134.890625,427.1875 L135.140625,425.820312 L134.023438,425.820312 L132.578125,434 L133.726562,434 Z M148.148438,434.070312 C148.53125,434.070312 149.023438,434.023438 149.25,433.96875 L149.421875,433.023438 C149.1875,433.070312 148.757812,433.109375 148.414062,433.109375 C147.703125,433.109375 147.390625,432.851562 147.390625,432.265625 C147.390625,432.03125 147.429688,431.773438 147.554688,431.054688 L148.304688,426.765625 L150.15625,426.765625 L150.328125,425.820312 L148.476562,425.820312 L148.828125,423.773438 L147.703125,423.773438 L147.328125,425.820312 L146.03125,425.820312 L145.859375,426.765625 L147.164062,426.765625 L146.328125,431.5 C146.257812,431.929688 146.210938,432.296875 146.210938,432.546875 C146.210938,433.5625 146.859375,434.070312 148.148438,434.070312 Z M152.601562,434 L153.4375,429.25 C153.671875,427.890625 154.460938,426.75 155.9375,426.75 C156.140625,426.75 156.445312,426.773438 156.609375,426.828125 L156.851562,425.75 C156.695312,425.726562 156.398438,425.6875 156.171875,425.6875 C154.945312,425.6875 154.132812,426.429688 153.820312,427.203125 L153.734375,427.203125 L153.984375,425.820312 L152.898438,425.820312 L151.453125,434 L152.601562,434 Z M160.695312,434.132812 C162.726562,434.132812 163.921875,432.96875 164.273438,431.03125 L164.476562,429.914062 C164.539062,429.570312 164.570312,429.1875 164.570312,428.953125 C164.570312,426.898438 163.195312,425.6875 161.257812,425.6875 C159.523438,425.6875 158.125,426.796875 157.78125,428.765625 L157.59375,429.875 C157.523438,430.234375 157.5,430.625 157.5,431.007812 C157.5,432.96875 158.890625,434.132812 160.695312,434.132812 Z M160.835938,433.132812 C159.453125,433.132812 158.617188,432.195312 158.617188,430.828125 C158.617188,430.46875 158.65625,430.210938 158.703125,429.953125 L158.875,428.984375 C159.15625,427.382812 160.085938,426.6875 161.226562,426.6875 C162.585938,426.6875 163.429688,427.632812 163.429688,428.945312 C163.429688,429.0625 163.421875,429.453125 163.382812,429.703125 L163.203125,430.742188 C162.9375,432.273438 162.09375,433.132812 160.835938,433.132812 Z M159.984375,436.546875 C160.4375,436.546875 160.757812,436.25 160.757812,435.804688 C160.757812,435.367188 160.4375,435.054688 159.984375,435.054688 C159.539062,435.054688 159.21875,435.367188 159.21875,435.804688 C159.21875,436.25 159.539062,436.546875 159.984375,436.546875 Z M167.289062,434 L168.132812,429.195312 C168.367188,427.859375 169.203125,426.65625 170.671875,426.65625 C171.890625,426.65625 172.359375,427.5 172.359375,428.460938 C172.359375,428.820312 172.296875,429.226562 172.257812,429.445312 L171.453125,434 L172.59375,434 L173.390625,429.515625 C173.460938,429.109375 173.53125,428.664062 173.53125,428.25 C173.53125,426.914062 172.757812,425.6875 171.007812,425.6875 C169.828125,425.6875 168.984375,426.25 168.539062,427.1875 L168.453125,427.1875 L168.703125,425.820312 L167.585938,425.820312 L166.140625,434 L167.289062,434 Z M178.1875,436.96875 C180.25,436.96875 181.476562,435.984375 181.851562,433.867188 L183.265625,425.820312 L182.140625,425.820312 L181.859375,427.429688 L181.765625,427.429688 C181.523438,426.53125 180.65625,425.6875 179.257812,425.6875 C177.742188,425.6875 176.289062,426.59375 175.890625,428.6875 L175.710938,429.640625 C175.648438,429.953125 175.601562,430.476562 175.601562,430.757812 C175.601562,432.6875 177.03125,433.851562 178.546875,433.851562 C179.835938,433.851562 180.609375,433.1875 180.90625,432.46875 L181,432.46875 L180.789062,433.664062 C180.515625,435.234375 179.734375,435.992188 178.257812,435.992188 C177.039062,435.992188 176.25,435.304688 176.25,434.65625 L176.25,434.554688 L176.25,434.554688 L175.132812,434.554688 C175.132812,434.5625 175.125,434.65625 175.125,434.671875 C175.125,435.867188 176.3125,436.96875 178.1875,436.96875 Z M178.898438,432.890625 C177.59375,432.890625 176.726562,432.109375 176.726562,430.585938 C176.726562,430.375 176.78125,429.945312 176.820312,429.71875 L176.953125,429.039062 C177.226562,427.554688 178.09375,426.65625 179.3125,426.65625 C180.578125,426.65625 181.507812,427.539062 181.507812,428.976562 C181.507812,429.046875 181.507812,429.28125 181.429688,429.71875 L181.28125,430.554688 C181.046875,431.921875 180.109375,432.890625 178.898438,432.890625 Z M191.429688,434 L195.570312,425.820312 L194.40625,425.820312 L191.046875,432.726562 L190.96875,432.726562 L189.984375,425.820312 L188.8125,425.820312 L190.195312,434 L191.429688,434 Z M201.242188,424.460938 L199.773438,421.71875 L198.523438,421.71875 L200.367188,424.460938 L201.242188,424.460938 Z M198.65625,434.132812 C199.929688,434.132812 200.75,433.4375 201.03125,432.875 L201.109375,432.875 L200.914062,434 L202.023438,434 L202.828125,429.4375 C202.90625,429.046875 202.976562,428.59375 202.976562,428.164062 C202.976562,426.703125 201.984375,425.6875 200.132812,425.6875 C198.414062,425.6875 197.304688,426.546875 197.085938,427.71875 L198.195312,427.71875 C198.375,427.171875 198.960938,426.671875 200.046875,426.671875 C201.390625,426.671875 201.890625,427.46875 201.890625,428.265625 C201.890625,428.421875 201.867188,428.601562 201.851562,428.695312 L201.765625,429.242188 L199.492188,429.242188 C197.414062,429.242188 196.34375,430.164062 196.203125,431.507812 C196.1875,431.640625 196.1875,431.765625 196.1875,431.867188 C196.1875,433.289062 197.304688,434.132812 198.65625,434.132812 Z M198.929688,433.15625 C197.929688,433.15625 197.335938,432.578125 197.335938,431.757812 C197.335938,430.898438 198,430.179688 199.390625,430.179688 L201.5625,430.179688 L201.375,431.25 C201.171875,432.367188 200.125,433.15625 198.929688,433.15625 Z M209.640625,434 L210.492188,429.15625 C210.726562,427.804688 211.46875,426.65625 212.851562,426.65625 C213.976562,426.65625 214.382812,427.4375 214.382812,428.421875 C214.382812,428.773438 214.34375,429.140625 214.304688,429.359375 L213.484375,434 L214.625,434 L215.484375,429.164062 C215.742188,427.71875 216.476562,426.65625 217.71875,426.65625 C218.796875,426.65625 219.210938,427.421875 219.210938,428.4375 C219.210938,428.78125 219.15625,429.15625 219.117188,429.375 L218.304688,434 L219.445312,434 L220.25,429.445312 C220.3125,429.070312 220.390625,428.578125 220.390625,428.15625 C220.390625,426.820312 219.65625,425.6875 218.007812,425.6875 C216.554688,425.6875 215.835938,426.609375 215.554688,427.25 L215.476562,427.25 C215.210938,426.367188 214.4375,425.6875 213.1875,425.6875 C211.976562,425.6875 211.226562,426.390625 210.890625,427.1875 L210.804688,427.1875 L211.046875,425.820312 L209.9375,425.820312 L208.492188,434 L209.640625,434 Z M225.203125,434.132812 C226.390625,434.132812 227.25,433.46875 227.640625,432.585938 L227.734375,432.585938 L227.484375,434 L228.5625,434 L230,425.820312 L228.90625,425.820312 L228.0625,430.585938 C227.835938,431.921875 227.023438,433.109375 225.5625,433.109375 C224.359375,433.109375 223.78125,432.414062 223.78125,431.390625 C223.78125,431.054688 223.835938,430.640625 223.890625,430.34375 L224.703125,425.820312 L223.570312,425.820312 L222.757812,430.273438 C222.679688,430.648438 222.601562,431.15625 222.601562,431.59375 C222.601562,432.992188 223.523438,434.132812 225.203125,434.132812 Z M239.03125,423.023438 L241.742188,420.320312 L240.5,420.320312 L238.125,423.023438 L239.03125,423.023438 Z M234.742188,424.453125 L236.34375,422.9375 L236.375,422.9375 L237.351562,424.453125 L238.304688,424.453125 L236.84375,422.21875 L236.101562,422.21875 L233.703125,424.453125 L234.742188,424.453125 Z M234.789062,434.132812 C236.820312,434.132812 238.015625,432.96875 238.367188,431.03125 L238.570312,429.914062 C238.632812,429.570312 238.664062,429.1875 238.664062,428.953125 C238.664062,426.898438 237.289062,425.6875 235.351562,425.6875 C233.617188,425.6875 232.21875,426.796875 231.875,428.765625 L231.6875,429.875 C231.617188,430.234375 231.59375,430.625 231.59375,431.007812 C231.59375,432.96875 232.984375,434.132812 234.789062,434.132812 Z M234.929688,433.132812 C233.546875,433.132812 232.710938,432.195312 232.710938,430.828125 C232.710938,430.46875 232.75,430.210938 232.796875,429.953125 L232.96875,428.984375 C233.25,427.382812 234.179688,426.6875 235.320312,426.6875 C236.679688,426.6875 237.523438,427.632812 237.523438,428.945312 C237.523438,429.0625 237.515625,429.453125 237.476562,429.703125 L237.296875,430.742188 C237.03125,432.273438 236.1875,433.132812 234.929688,433.132812 Z M241.382812,434 L242.226562,429.195312 C242.460938,427.859375 243.296875,426.65625 244.765625,426.65625 C245.984375,426.65625 246.453125,427.5 246.453125,428.460938 C246.453125,428.820312 246.390625,429.226562 246.351562,429.445312 L245.546875,434 L246.6875,434 L247.484375,429.515625 C247.554688,429.109375 247.625,428.664062 247.625,428.25 C247.625,426.914062 246.851562,425.6875 245.101562,425.6875 C243.921875,425.6875 243.078125,426.25 242.632812,427.1875 L242.546875,427.1875 L242.796875,425.820312 L241.679688,425.820312 L240.234375,434 L241.382812,434 Z M4.1171875,458 L8.2578125,449.820312 L7.09375,449.820312 L3.734375,456.726562 L3.65625,456.726562 L2.671875,449.820312 L1.5,449.820312 L2.8828125,458 L4.1171875,458 Z M11.984375,458.132812 C13.171875,458.132812 14.03125,457.46875 14.421875,456.585938 L14.515625,456.585938 L14.265625,458 L15.34375,458 L16.78125,449.820312 L15.6875,449.820312 L14.84375,454.585938 C14.6171875,455.921875 13.8046875,457.109375 12.34375,457.109375 C11.140625,457.109375 10.5625,456.414062 10.5625,455.390625 C10.5625,455.054688 10.6171875,454.640625 10.671875,454.34375 L11.484375,449.820312 L10.3515625,449.820312 L9.5390625,454.273438 C9.4609375,454.648438 9.3828125,455.15625 9.3828125,455.59375 C9.3828125,456.992188 10.3046875,458.132812 11.984375,458.132812 Z M19.3515625,458 L20.1953125,453.195312 C20.4296875,451.859375 21.265625,450.65625 22.734375,450.65625 C23.953125,450.65625 24.421875,451.5 24.421875,452.460938 C24.421875,452.820312 24.359375,453.226562 24.3203125,453.445312 L23.515625,458 L24.65625,458 L25.453125,453.515625 C25.5234375,453.109375 25.59375,452.664062 25.59375,452.25 C25.59375,450.914062 24.8203125,449.6875 23.0703125,449.6875 C21.890625,449.6875 21.046875,450.25 20.6015625,451.1875 L20.515625,451.1875 L20.765625,449.820312 L19.6484375,449.820312 L18.203125,458 L19.3515625,458 Z M34.2109375,458.117188 C35.578125,458.117188 36.359375,457.25 36.59375,456.617188 L36.6875,456.617188 L36.4453125,458 L37.5625,458 L39.203125,448.726562 L40.484375,448.726562 L40.6484375,447.8125 L39.3671875,447.8125 L39.5546875,446.773438 L38.3984375,446.773438 L38.21875,447.8125 L36.421875,447.8125 L36.265625,448.726562 L38.0625,448.726562 L37.5859375,451.429688 L37.4921875,451.429688 C37.3515625,450.671875 36.4609375,449.6875 35.03125,449.6875 C33.1015625,449.6875 31.9453125,450.9375 31.640625,452.546875 L31.3515625,454.078125 C31.2890625,454.375 31.2734375,454.734375 31.2734375,455.039062 C31.2734375,456.90625 32.5078125,458.117188 34.2109375,458.117188 Z M34.546875,457.109375 C33.2421875,457.109375 32.4140625,456.265625 32.4140625,454.867188 C32.4140625,454.59375 32.4375,454.296875 32.4609375,454.15625 L32.703125,452.9375 C32.9609375,451.640625 33.75,450.664062 35.078125,450.664062 C36.140625,450.664062 37.2734375,451.429688 37.2734375,453.03125 C37.2734375,453.101562 37.2578125,453.234375 37.2265625,453.429688 L37.0078125,454.703125 C36.7578125,456.101562 35.8671875,457.109375 34.546875,457.109375 Z M45.21875,446.09375 L47.859375,443.359375 L46.640625,443.359375 L44.3125,446.09375 L45.21875,446.09375 Z M44.6796875,448.492188 C45.9296875,448.492188 46.9765625,447.632812 47.109375,446.4375 L46.2734375,446.4375 C46.1328125,447.25 45.578125,447.742188 44.7734375,447.742188 C44.015625,447.742188 43.5234375,447.320312 43.5234375,446.6875 C43.5234375,446.578125 43.53125,446.507812 43.5390625,446.4375 L42.7109375,446.4375 C42.671875,446.570312 42.6640625,446.6875 42.6640625,446.828125 C42.6640625,447.742188 43.4296875,448.492188 44.6796875,448.492188 Z M42.8359375,458.132812 C44.109375,458.132812 44.9296875,457.4375 45.2109375,456.875 L45.2890625,456.875 L45.09375,458 L46.203125,458 L47.0078125,453.4375 C47.0859375,453.046875 47.15625,452.59375 47.15625,452.164062 C47.15625,450.703125 46.1640625,449.6875 44.3125,449.6875 C42.59375,449.6875 41.484375,450.546875 41.265625,451.71875 L42.375,451.71875 C42.5546875,451.171875 43.140625,450.671875 44.2265625,450.671875 C45.5703125,450.671875 46.0703125,451.46875 46.0703125,452.265625 C46.0703125,452.421875 46.046875,452.601562 46.03125,452.695312 L45.9453125,453.242188 L43.671875,453.242188 C41.59375,453.242188 40.5234375,454.164062 40.3828125,455.507812 C40.3671875,455.640625 40.3671875,455.765625 40.3671875,455.867188 C40.3671875,457.289062 41.484375,458.132812 42.8359375,458.132812 Z M43.109375,457.15625 C42.109375,457.15625 41.515625,456.578125 41.515625,455.757812 C41.515625,454.898438 42.1796875,454.179688 43.5703125,454.179688 L45.7421875,454.179688 L45.5546875,455.25 C45.3515625,456.367188 44.3046875,457.15625 43.109375,457.15625 Z M49.6875,460.703125 L50.4375,456.328125 L50.53125,456.328125 C50.6875,457.078125 51.5546875,458.132812 52.96875,458.132812 C54.90625,458.132812 56.109375,456.835938 56.3671875,455.21875 L56.6484375,453.679688 C56.7109375,453.359375 56.7109375,453.007812 56.7109375,452.734375 C56.7109375,450.84375 55.5,449.6875 53.796875,449.6875 C52.3984375,449.6875 51.6953125,450.5 51.4296875,451.117188 L51.3359375,451.117188 L51.5703125,449.820312 L50.453125,449.820312 L48.5390625,460.703125 L49.6875,460.703125 Z M52.9296875,457.09375 C51.9140625,457.09375 50.78125,456.320312 50.78125,454.71875 C50.7734375,454.679688 50.78125,454.507812 50.8125,454.320312 L51.0234375,453.046875 C51.25,451.65625 52.1484375,450.648438 53.453125,450.648438 C54.7578125,450.648438 55.609375,451.492188 55.609375,452.882812 C55.609375,453.101562 55.6015625,453.390625 55.5703125,453.585938 L55.3515625,454.828125 C55.125,456.0625 54.265625,457.09375 52.9296875,457.09375 Z M65.2890625,458.132812 C66.9296875,458.132812 68.15625,457.273438 68.3828125,455.984375 L67.234375,455.984375 C67.0859375,456.59375 66.4140625,457.125 65.34375,457.125 C63.953125,457.125 63.2265625,456.242188 63.2265625,454.757812 C63.2265625,454.5 63.25,454.25 63.3125,453.914062 L63.4765625,452.96875 C63.7421875,451.484375 64.65625,450.65625 65.859375,450.65625 C67.1328125,450.65625 67.78125,451.507812 67.78125,452.25 L67.78125,452.34375 L67.78125,452.34375 L68.890625,452.34375 C68.8984375,452.335938 68.8984375,452.257812 68.8984375,452.242188 C68.8984375,450.875 67.78125,449.6875 65.8671875,449.6875 C64.0546875,449.6875 62.734375,450.71875 62.3984375,452.671875 L62.1953125,453.84375 C62.125,454.257812 62.09375,454.695312 62.09375,455.007812 C62.09375,456.921875 63.3671875,458.132812 65.2890625,458.132812 Z M71.3671875,458 L72.2109375,453.195312 C72.4453125,451.859375 73.296875,450.65625 74.765625,450.65625 C75.984375,450.65625 76.4765625,451.492188 76.4765625,452.453125 C76.4765625,452.804688 76.4140625,453.234375 76.375,453.445312 L75.5703125,458 L76.71875,458 L77.5078125,453.515625 C77.578125,453.109375 77.6484375,452.65625 77.6484375,452.25 C77.6484375,450.898438 76.8125,449.6875 75.09375,449.6875 C73.875,449.6875 73.03125,450.28125 72.6171875,451.1875 L72.53125,451.1875 L73.34375,446.773438 L72.2109375,446.773438 L70.21875,458 L71.3671875,458 Z M82.8984375,458.132812 C84.9296875,458.132812 86.125,456.96875 86.4765625,455.03125 L86.6796875,453.914062 C86.7421875,453.570312 86.7734375,453.1875 86.7734375,452.953125 C86.7734375,450.898438 85.3984375,449.6875 83.4609375,449.6875 C81.7265625,449.6875 80.328125,450.796875 79.984375,452.765625 L79.796875,453.875 C79.7265625,454.234375 79.703125,454.625 79.703125,455.007812 C79.703125,456.96875 81.09375,458.132812 82.8984375,458.132812 Z M83.0390625,457.132812 C81.65625,457.132812 80.8203125,456.195312 80.8203125,454.828125 C80.8203125,454.46875 80.859375,454.210938 80.90625,453.953125 L81.078125,452.984375 C81.359375,451.382812 82.2890625,450.6875 83.4296875,450.6875 C84.7890625,450.6875 85.6328125,451.632812 85.6328125,452.945312 C85.6328125,453.0625 85.625,453.453125 85.5859375,453.703125 L85.40625,454.742188 C85.140625,456.273438 84.296875,457.132812 83.0390625,457.132812 Z M95.359375,458.132812 C97,458.132812 98.2265625,457.273438 98.453125,455.984375 L97.3046875,455.984375 C97.15625,456.59375 96.484375,457.125 95.4140625,457.125 C94.0234375,457.125 93.296875,456.242188 93.296875,454.757812 C93.296875,454.5 93.3203125,454.25 93.3828125,453.914062 L93.546875,452.96875 C93.8125,451.484375 94.7265625,450.65625 95.9296875,450.65625 C97.203125,450.65625 97.8515625,451.507812 97.8515625,452.25 L97.8515625,452.34375 L97.8515625,452.34375 L98.9609375,452.34375 C98.96875,452.335938 98.96875,452.257812 98.96875,452.242188 C98.96875,450.875 97.8515625,449.6875 95.9375,449.6875 C94.125,449.6875 92.8046875,450.71875 92.46875,452.671875 L92.265625,453.84375 C92.1953125,454.257812 92.1640625,454.695312 92.1640625,455.007812 C92.1640625,456.921875 93.4375,458.132812 95.359375,458.132812 Z M101.4375,458 L102.28125,453.195312 C102.515625,451.859375 103.367188,450.65625 104.835938,450.65625 C106.054688,450.65625 106.546875,451.492188 106.546875,452.453125 C106.546875,452.804688 106.484375,453.234375 106.445312,453.445312 L105.640625,458 L106.789062,458 L107.578125,453.515625 C107.648438,453.109375 107.71875,452.65625 107.71875,452.25 C107.71875,450.898438 106.882812,449.6875 105.164062,449.6875 C103.945312,449.6875 103.101562,450.28125 102.6875,451.1875 L102.601562,451.1875 L103.414062,446.773438 L102.28125,446.773438 L100.289062,458 L101.4375,458 Z M112.546875,458.132812 C113.734375,458.132812 114.59375,457.46875 114.984375,456.585938 L115.078125,456.585938 L114.828125,458 L115.90625,458 L117.34375,449.820312 L116.25,449.820312 L115.40625,454.585938 C115.179688,455.921875 114.367188,457.109375 112.90625,457.109375 C111.703125,457.109375 111.125,456.414062 111.125,455.390625 C111.125,455.054688 111.179688,454.640625 111.234375,454.34375 L112.046875,449.820312 L110.914062,449.820312 L110.101562,454.273438 C110.023438,454.648438 109.945312,455.15625 109.945312,455.59375 C109.945312,456.992188 110.867188,458.132812 112.546875,458.132812 Z M118.945312,460.835938 C120.351562,460.835938 120.96875,460.382812 121.78125,458.78125 L122.171875,458.015625 L126.445312,449.820312 L125.21875,449.820312 L121.851562,456.664062 L121.773438,456.664062 L120.648438,449.820312 L119.429688,449.820312 L120.992188,457.929688 L120.726562,458.5 C120.273438,459.492188 119.804688,459.867188 119.0625,459.867188 C118.804688,459.867188 118.539062,459.835938 118.351562,459.789062 L118.140625,460.734375 C118.3125,460.78125 118.648438,460.835938 118.945312,460.835938 Z M130.453125,448.460938 L132.070312,446.296875 L132.09375,446.296875 L133,448.460938 L134,448.460938 L132.65625,445.523438 L131.734375,445.523438 L129.414062,448.460938 L130.453125,448.460938 Z M130.476562,458.132812 C132.296875,458.132812 133.453125,457.015625 133.640625,456.015625 L132.5,456.015625 C132.335938,456.578125 131.640625,457.125 130.546875,457.125 C129.03125,457.125 128.460938,456.070312 128.460938,454.945312 C128.460938,454.664062 128.5,454.359375 128.546875,454.179688 L133.976562,454.179688 C133.992188,454.101562 134.171875,453.109375 134.171875,453.078125 C134.40625,451.570312 133.664062,449.6875 131.25,449.6875 C129.367188,449.6875 128.03125,450.835938 127.710938,452.664062 L127.5,453.820312 C127.445312,454.109375 127.375,454.59375 127.375,455.054688 C127.375,457.0625 128.6875,458.132812 130.476562,458.132812 Z M133.054688,453.257812 L128.734375,453.257812 C128.734375,453.242188 128.84375,452.726562 128.84375,452.710938 C129.140625,451.3125 130.117188,450.65625 131.210938,450.65625 C132.640625,450.65625 133.304688,451.734375 133.085938,453.054688 C133.085938,453.09375 133.0625,453.234375 133.054688,453.257812 Z M130.03125,460.546875 C130.484375,460.546875 130.804688,460.25 130.804688,459.804688 C130.804688,459.367188 130.484375,459.054688 130.03125,459.054688 C129.585938,459.054688 129.265625,459.367188 129.265625,459.804688 C129.265625,460.25 129.585938,460.546875 130.03125,460.546875 Z M136.882812,458 L137.726562,453.195312 C137.960938,451.859375 138.796875,450.65625 140.265625,450.65625 C141.484375,450.65625 141.953125,451.5 141.953125,452.460938 C141.953125,452.820312 141.890625,453.226562 141.851562,453.445312 L141.046875,458 L142.1875,458 L142.984375,453.515625 C143.054688,453.109375 143.125,452.664062 143.125,452.25 C143.125,450.914062 142.351562,449.6875 140.601562,449.6875 C139.421875,449.6875 138.578125,450.25 138.132812,451.1875 L138.046875,451.1875 L138.296875,449.820312 L137.179688,449.820312 L135.734375,458 L136.882812,458 Z M149.929688,458 L151.914062,446.773438 L150.765625,446.773438 L148.78125,458 L149.929688,458 Z M157.789062,448.460938 L160.484375,445.71875 L159.210938,445.71875 L156.828125,448.460938 L157.789062,448.460938 Z M155.859375,458.132812 C157.046875,458.132812 157.90625,457.46875 158.296875,456.585938 L158.390625,456.585938 L158.140625,458 L159.21875,458 L160.507812,450.640625 L160.632812,450.640625 C161.953125,450.640625 162.6875,449.773438 162.898438,448.5625 L163.0625,447.609375 L162.039062,447.609375 L161.859375,448.578125 C161.734375,449.3125 161.390625,449.820312 160.546875,449.820312 L159.5625,449.820312 L158.71875,454.585938 C158.492188,455.921875 157.679688,457.109375 156.21875,457.109375 C155.015625,457.109375 154.4375,456.414062 154.4375,455.390625 C154.4375,455.054688 154.492188,454.640625 154.546875,454.34375 L155.359375,449.820312 L154.226562,449.820312 L153.40625,454.273438 C153.335938,454.648438 153.257812,455.15625 153.257812,455.59375 C153.257812,456.992188 154.171875,458.132812 155.859375,458.132812 Z M165.289062,458.132812 C166.5625,458.132812 167.382812,457.4375 167.664062,456.875 L167.742188,456.875 L167.546875,458 L168.65625,458 L169.460938,453.4375 C169.539062,453.046875 169.609375,452.59375 169.609375,452.164062 C169.609375,450.703125 168.617188,449.6875 166.765625,449.6875 C165.046875,449.6875 163.9375,450.546875 163.71875,451.71875 L164.828125,451.71875 C165.007812,451.171875 165.59375,450.671875 166.679688,450.671875 C168.023438,450.671875 168.523438,451.46875 168.523438,452.265625 C168.523438,452.421875 168.5,452.601562 168.484375,452.695312 L168.398438,453.242188 L166.125,453.242188 C164.046875,453.242188 162.976562,454.164062 162.835938,455.507812 C162.820312,455.640625 162.820312,455.765625 162.820312,455.867188 C162.820312,457.289062 163.9375,458.132812 165.289062,458.132812 Z M165.5625,457.15625 C164.5625,457.15625 163.96875,456.578125 163.96875,455.757812 C163.96875,454.898438 164.632812,454.179688 166.023438,454.179688 L168.195312,454.179688 L168.007812,455.25 C167.804688,456.367188 166.757812,457.15625 165.5625,457.15625 Z M178.210938,458.117188 C179.578125,458.117188 180.359375,457.25 180.59375,456.617188 L180.6875,456.617188 L180.445312,458 L181.5625,458 L183.203125,448.726562 L184.484375,448.726562 L184.648438,447.8125 L183.367188,447.8125 L183.554688,446.773438 L182.398438,446.773438 L182.21875,447.8125 L180.421875,447.8125 L180.265625,448.726562 L182.0625,448.726562 L181.585938,451.429688 L181.492188,451.429688 C181.351562,450.671875 180.460938,449.6875 179.03125,449.6875 C177.101562,449.6875 175.945312,450.9375 175.640625,452.546875 L175.351562,454.078125 C175.289062,454.375 175.273438,454.734375 175.273438,455.039062 C175.273438,456.90625 176.507812,458.117188 178.210938,458.117188 Z M178.546875,457.109375 C177.242188,457.109375 176.414062,456.265625 176.414062,454.867188 C176.414062,454.59375 176.4375,454.296875 176.460938,454.15625 L176.703125,452.9375 C176.960938,451.640625 177.75,450.664062 179.078125,450.664062 C180.140625,450.664062 181.273438,451.429688 181.273438,453.03125 C181.273438,453.101562 181.257812,453.234375 181.226562,453.429688 L181.007812,454.703125 C180.757812,456.101562 179.867188,457.109375 178.546875,457.109375 Z M187.8125,448.460938 L189.429688,446.296875 L189.453125,446.296875 L190.359375,448.460938 L191.359375,448.460938 L190.015625,445.523438 L189.09375,445.523438 L186.773438,448.460938 L187.8125,448.460938 Z M187.804688,458.132812 C189.835938,458.132812 191.03125,456.96875 191.382812,455.03125 L191.585938,453.914062 C191.648438,453.570312 191.679688,453.1875 191.679688,452.953125 C191.679688,450.898438 190.304688,449.6875 188.367188,449.6875 C186.632812,449.6875 185.234375,450.796875 184.890625,452.765625 L184.703125,453.875 C184.632812,454.234375 184.609375,454.625 184.609375,455.007812 C184.609375,456.96875 186,458.132812 187.804688,458.132812 Z M187.945312,457.132812 C186.5625,457.132812 185.726562,456.195312 185.726562,454.828125 C185.726562,454.46875 185.765625,454.210938 185.8125,453.953125 L185.984375,452.984375 C186.265625,451.382812 187.195312,450.6875 188.335938,450.6875 C189.695312,450.6875 190.539062,451.632812 190.539062,452.945312 C190.539062,453.0625 190.53125,453.453125 190.492188,453.703125 L190.3125,454.742188 C190.046875,456.273438 189.203125,457.132812 187.945312,457.132812 Z M195.6875,448.1875 C196.195312,448.1875 196.570312,447.820312 196.570312,447.328125 C196.570312,446.828125 196.195312,446.453125 195.6875,446.453125 C195.210938,446.453125 194.828125,446.828125 194.828125,447.328125 C194.828125,447.820312 195.210938,448.1875 195.6875,448.1875 Z M194.523438,458 L195.960938,449.820312 L194.820312,449.820312 L193.382812,458 L194.523438,458 Z M198.304688,458.132812 C198.875,458.132812 199.3125,457.703125 199.3125,457.15625 C199.3125,456.578125 198.875,456.148438 198.304688,456.148438 C197.765625,456.148438 197.328125,456.578125 197.328125,457.15625 C197.328125,457.703125 197.765625,458.132812 198.304688,458.132812 Z" id="Mỗigiađìnhluônđượcbắtđầutừhaingười.Nênmộtcáchtựnhiên,chúngtôicũngtrântrọngvàmuốnvunđắpchochuyệnlứađôi." fill-rule="nonzero"></path>
        </g>
    </g>
</svg>