<?xml version="1.0" encoding="UTF-8"?>
<svg width="320px" height="529px" viewBox="0 0 320 529" version="1.1" xmlns="http://www.w3.org/2000/svg" xmlns:xlink="http://www.w3.org/1999/xlink">
    <title>3</title>
    <g id="Chanchan" stroke="none" stroke-width="1" fill="none" fill-rule="evenodd">
        <g id="open-letter" transform="translate(0.000000, -1463.000000)" fill="#121721">
            <g id="Group-6" transform="translate(35.000000, 1485.000000)">
                <text id="Như-bất-cứ-sản-phẩm" font-family="SFCompactDisplay-Light, SF Compact Display" font-size="16" font-weight="300" line-spacing="23">
                    <tspan x="0" y="117">Như bất cứ sản phẩm mới nào, sự </tspan>
                    <tspan x="0" y="140">thành công luôn cần bắt đầu từ Thế </tspan>
                    <tspan x="0" y="163">hệ người dùng đầu tiên. Chúng tôi </tspan>
                    <tspan x="0" y="186">mong rằng qua những chia sẻ trên </tspan>
                    <tspan x="0" y="209">sẽ  nhận được sự đồng hành, </tspan>
                    <tspan x="0" y="232">ủng hộ cũng như những ý </tspan>
                    <tspan x="0" y="255">kiến đóng góp của bạn.</tspan>
                </text>
                <text id="Chanchan-là-một-sản" font-family="SFCompactDisplay-Light, SF Compact Display" font-size="16" font-weight="300" line-spacing="23">
                    <tspan x="0" y="55">Chanchan là một sản phẩm mới </tspan>
                    <tspan x="0" y="78">đang trong Giai đoạn Thử nghiệm. </tspan>
                </text>
                <text id="Mong-muốn" font-family="SFCompactDisplay-Semibold, SF Compact Display" font-size="20" font-weight="500" letter-spacing="-0.8">
                    <tspan x="0" y="19">Mong muốn</tspan>
                </text>
                <path d="M5.390625,297.226562 C7.3203125,297.226562 8.90625,296.15625 9.25,294.570312 C9.28125,294.453125 9.3046875,294.289062 9.3046875,294.234375 L8.15625,294.234375 C7.90625,295.398438 6.8671875,296.15625 5.4765625,296.15625 C3.6796875,296.15625 2.6171875,295.023438 2.6171875,293.140625 C2.6171875,292.804688 2.671875,292.148438 2.71875,291.898438 L3.046875,290.25 C3.4375,288.28125 4.515625,287.1875 6.1953125,287.1875 C7.6875,287.1875 8.734375,288.148438 8.84375,289.304688 C8.8515625,289.367188 8.8515625,289.4375 8.84375,289.53125 L9.96875,289.53125 C9.9765625,289.492188 9.984375,289.398438 9.984375,289.265625 C9.984375,287.554688 8.4375,286.109375 6.21875,286.109375 C3.953125,286.109375 2.375,287.601562 1.90625,290.03125 L1.5234375,291.992188 C1.484375,292.21875 1.453125,292.75 1.453125,293.179688 C1.453125,295.65625 2.96875,297.226562 5.390625,297.226562 Z M15.46875,287.75 C16.3984375,287.34375 16.8671875,286.828125 16.8671875,286.015625 C16.8671875,285.34375 16.328125,284.835938 15.421875,284.835938 C14.9765625,284.835938 14.75,284.890625 14.546875,284.984375 L14.4375,285.695312 C14.6171875,285.625 14.8359375,285.554688 15.2578125,285.554688 C15.6953125,285.554688 16.0078125,285.820312 16.0078125,286.140625 C16.0078125,286.492188 15.8125,286.765625 15.09375,287.125 L15.46875,287.75 Z M13.4921875,297.132812 C14.765625,297.132812 15.5859375,296.4375 15.8671875,295.875 L15.9453125,295.875 L15.75,297 L16.859375,297 L17.6640625,292.4375 C17.7421875,292.046875 17.8125,291.59375 17.8125,291.164062 C17.8125,289.703125 16.8203125,288.6875 14.96875,288.6875 C13.25,288.6875 12.140625,289.546875 11.921875,290.71875 L13.03125,290.71875 C13.2109375,290.171875 13.796875,289.671875 14.8828125,289.671875 C16.2265625,289.671875 16.7265625,290.46875 16.7265625,291.265625 C16.7265625,291.421875 16.703125,291.601562 16.6875,291.695312 L16.6015625,292.242188 L14.328125,292.242188 C12.25,292.242188 11.1796875,293.164062 11.0390625,294.507812 C11.0234375,294.640625 11.0234375,294.765625 11.0234375,294.867188 C11.0234375,296.289062 12.140625,297.132812 13.4921875,297.132812 Z M13.765625,296.15625 C12.765625,296.15625 12.171875,295.578125 12.171875,294.757812 C12.171875,293.898438 12.8359375,293.179688 14.2265625,293.179688 L16.3984375,293.179688 L16.2109375,294.25 C16.0078125,295.367188 14.9609375,296.15625 13.765625,296.15625 Z M20.8203125,297 L21.671875,292.15625 C21.90625,290.804688 22.6484375,289.65625 24.03125,289.65625 C25.15625,289.65625 25.5625,290.4375 25.5625,291.421875 C25.5625,291.773438 25.5234375,292.140625 25.484375,292.359375 L24.6640625,297 L25.8046875,297 L26.6640625,292.164062 C26.921875,290.71875 27.65625,289.65625 28.8984375,289.65625 C29.9765625,289.65625 30.390625,290.421875 30.390625,291.4375 C30.390625,291.78125 30.3359375,292.15625 30.296875,292.375 L29.484375,297 L30.625,297 L31.4296875,292.445312 C31.4921875,292.070312 31.5703125,291.578125 31.5703125,291.15625 C31.5703125,289.820312 30.8359375,288.6875 29.1875,288.6875 C27.734375,288.6875 27.015625,289.609375 26.734375,290.25 L26.65625,290.25 C26.390625,289.367188 25.6171875,288.6875 24.3671875,288.6875 C23.15625,288.6875 22.40625,289.390625 22.0703125,290.1875 L21.984375,290.1875 L22.2265625,288.820312 L21.1171875,288.820312 L19.671875,297 L20.8203125,297 Z M40.46875,297.132812 C42.5,297.132812 43.6953125,295.96875 44.046875,294.03125 L44.25,292.914062 C44.3046875,292.570312 44.3359375,292.1875 44.3359375,291.953125 C44.3359375,291.023438 44,290.242188 43.671875,289.84375 L43.6953125,289.78125 C44.90625,289.765625 45.3125,288.960938 45.5390625,287.6875 L45.734375,286.609375 L44.703125,286.609375 L44.4921875,287.78125 C44.3515625,288.554688 43.9609375,289.03125 43.171875,289.03125 C42.4375,289.03125 41.9375,288.6875 41.0234375,288.6875 C39.296875,288.6875 37.8984375,289.796875 37.5546875,291.765625 L37.359375,292.875 C37.296875,293.234375 37.2734375,293.625 37.2734375,294.007812 C37.2734375,295.96875 38.65625,297.132812 40.46875,297.132812 Z M40.609375,296.132812 C39.2265625,296.132812 38.390625,295.195312 38.390625,293.828125 C38.390625,293.46875 38.421875,293.210938 38.46875,292.953125 L38.6484375,291.984375 C38.9296875,290.382812 39.859375,289.6875 41,289.6875 C42.3515625,289.6875 43.1953125,290.632812 43.1953125,291.945312 C43.1953125,292.0625 43.1953125,292.453125 43.15625,292.703125 L42.9765625,293.742188 C42.703125,295.273438 41.8671875,296.132812 40.609375,296.132812 Z M47.0859375,297 L47.9296875,292.195312 C48.1640625,290.859375 49,289.65625 50.46875,289.65625 C51.6875,289.65625 52.15625,290.5 52.15625,291.460938 C52.15625,291.820312 52.09375,292.226562 52.0546875,292.445312 L51.25,297 L52.390625,297 L53.1875,292.515625 C53.2578125,292.109375 53.328125,291.664062 53.328125,291.25 C53.328125,289.914062 52.5546875,288.6875 50.8046875,288.6875 C49.625,288.6875 48.78125,289.25 48.3359375,290.1875 L48.25,290.1875 L48.5,288.820312 L47.3828125,288.820312 L45.9375,297 L47.0859375,297 Z M62.8671875,297.132812 C64.78125,297.132812 65.9453125,295.859375 66.234375,294.21875 L66.5,292.679688 C66.5546875,292.359375 66.5703125,292.007812 66.5703125,291.734375 C66.5703125,289.835938 65.3984375,288.6875 63.6875,288.6875 C62.3046875,288.6875 61.6015625,289.492188 61.3046875,290.117188 L61.2109375,290.117188 L62,285.773438 L60.859375,285.773438 L58.859375,297 L59.9921875,297 L60.2890625,295.328125 L60.375,295.328125 C60.578125,296.171875 61.5078125,297.132812 62.8671875,297.132812 Z M62.8359375,296.09375 C61.828125,296.09375 60.6796875,295.34375 60.671875,293.71875 C60.671875,293.679688 60.671875,293.507812 60.7109375,293.320312 L60.9140625,292.046875 C61.140625,290.679688 62.03125,289.648438 63.359375,289.648438 C64.6484375,289.648438 65.46875,290.484375 65.46875,291.882812 C65.46875,292.09375 65.4609375,292.382812 65.4296875,292.585938 L65.2109375,293.828125 C64.984375,295.085938 64.1328125,296.09375 62.8359375,296.09375 Z M70.5234375,297.132812 C71.796875,297.132812 72.6171875,296.4375 72.8984375,295.875 L72.9765625,295.875 L72.78125,297 L73.890625,297 L74.6953125,292.4375 C74.7734375,292.046875 74.84375,291.59375 74.84375,291.164062 C74.84375,289.703125 73.8515625,288.6875 72,288.6875 C70.28125,288.6875 69.171875,289.546875 68.953125,290.71875 L70.0625,290.71875 C70.2421875,290.171875 70.828125,289.671875 71.9140625,289.671875 C73.2578125,289.671875 73.7578125,290.46875 73.7578125,291.265625 C73.7578125,291.421875 73.734375,291.601562 73.71875,291.695312 L73.6328125,292.242188 L71.359375,292.242188 C69.28125,292.242188 68.2109375,293.164062 68.0703125,294.507812 C68.0546875,294.640625 68.0546875,294.765625 68.0546875,294.867188 C68.0546875,296.289062 69.171875,297.132812 70.5234375,297.132812 Z M70.796875,296.15625 C69.796875,296.15625 69.203125,295.578125 69.203125,294.757812 C69.203125,293.898438 69.8671875,293.179688 71.2578125,293.179688 L73.4296875,293.179688 L73.2421875,294.25 C73.0390625,295.367188 71.9921875,296.15625 70.796875,296.15625 Z M70.265625,299.546875 C70.71875,299.546875 71.0390625,299.25 71.0390625,298.804688 C71.0390625,298.367188 70.71875,298.054688 70.265625,298.054688 C69.8203125,298.054688 69.5,298.367188 69.5,298.804688 C69.5,299.25 69.8203125,299.546875 70.265625,299.546875 Z M77.8515625,297 L78.6953125,292.195312 C78.9296875,290.859375 79.765625,289.65625 81.234375,289.65625 C82.453125,289.65625 82.921875,290.5 82.921875,291.460938 C82.921875,291.820312 82.859375,292.226562 82.8203125,292.445312 L82.015625,297 L83.15625,297 L83.953125,292.515625 C84.0234375,292.109375 84.09375,291.664062 84.09375,291.25 C84.09375,289.914062 83.3203125,288.6875 81.5703125,288.6875 C80.390625,288.6875 79.546875,289.25 79.1015625,290.1875 L79.015625,290.1875 L79.265625,288.820312 L78.1484375,288.820312 L76.703125,297 L77.8515625,297 Z M92.7109375,297.117188 C94.078125,297.117188 94.859375,296.25 95.09375,295.617188 L95.1875,295.617188 L94.9453125,297 L96.0625,297 L97.703125,287.726562 L98.984375,287.726562 L99.1484375,286.8125 L97.8671875,286.8125 L98.0546875,285.773438 L96.8984375,285.773438 L96.71875,286.8125 L94.921875,286.8125 L94.765625,287.726562 L96.5625,287.726562 L96.0859375,290.429688 L95.9921875,290.429688 C95.8515625,289.671875 94.9609375,288.6875 93.53125,288.6875 C91.6015625,288.6875 90.4453125,289.9375 90.140625,291.546875 L89.8515625,293.078125 C89.7890625,293.375 89.7734375,293.734375 89.7734375,294.039062 C89.7734375,295.90625 91.0078125,297.117188 92.7109375,297.117188 Z M93.046875,296.109375 C91.7421875,296.109375 90.9140625,295.265625 90.9140625,293.867188 C90.9140625,293.59375 90.9375,293.296875 90.9609375,293.15625 L91.203125,291.9375 C91.4609375,290.640625 92.25,289.664062 93.578125,289.664062 C94.640625,289.664062 95.7734375,290.429688 95.7734375,292.03125 C95.7734375,292.101562 95.7578125,292.234375 95.7265625,292.429688 L95.5078125,293.703125 C95.2578125,295.101562 94.3671875,296.109375 93.046875,296.109375 Z M104.242188,287.414062 C105.132812,287.414062 105.695312,286.554688 105.765625,285.65625 L104.960938,285.65625 C104.890625,286.234375 104.648438,286.609375 104.257812,286.609375 C103.617188,286.609375 103.578125,285.390625 102.328125,285.390625 C101.453125,285.390625 100.882812,286.132812 100.796875,287.148438 L101.601562,287.148438 C101.664062,286.5625 101.875,286.195312 102.304688,286.195312 C103,286.195312 103.03125,287.414062 104.242188,287.414062 Z M101.335938,297.132812 C102.609375,297.132812 103.429688,296.4375 103.710938,295.875 L103.789062,295.875 L103.59375,297 L104.703125,297 L105.507812,292.4375 C105.585938,292.046875 105.65625,291.59375 105.65625,291.164062 C105.65625,289.703125 104.664062,288.6875 102.8125,288.6875 C101.09375,288.6875 99.984375,289.546875 99.765625,290.71875 L100.875,290.71875 C101.054688,290.171875 101.640625,289.671875 102.726562,289.671875 C104.070312,289.671875 104.570312,290.46875 104.570312,291.265625 C104.570312,291.421875 104.546875,291.601562 104.53125,291.695312 L104.445312,292.242188 L102.171875,292.242188 C100.09375,292.242188 99.0234375,293.164062 98.8828125,294.507812 C98.8671875,294.640625 98.8671875,294.765625 98.8671875,294.867188 C98.8671875,296.289062 99.984375,297.132812 101.335938,297.132812 Z M101.609375,296.15625 C100.609375,296.15625 100.015625,295.578125 100.015625,294.757812 C100.015625,293.898438 100.679688,293.179688 102.070312,293.179688 L104.242188,293.179688 L104.054688,294.25 C103.851562,295.367188 102.804688,296.15625 101.609375,296.15625 Z M114.257812,297.117188 C115.625,297.117188 116.40625,296.25 116.640625,295.617188 L116.734375,295.617188 L116.492188,297 L117.609375,297 L119.601562,285.773438 L118.445312,285.773438 L117.632812,290.429688 L117.539062,290.429688 C117.398438,289.671875 116.507812,288.6875 115.078125,288.6875 C113.148438,288.6875 111.992188,289.9375 111.6875,291.546875 L111.398438,293.078125 C111.335938,293.375 111.320312,293.734375 111.320312,294.039062 C111.320312,295.90625 112.554688,297.117188 114.257812,297.117188 Z M114.59375,296.109375 C113.289062,296.109375 112.460938,295.265625 112.460938,293.867188 C112.460938,293.59375 112.484375,293.296875 112.507812,293.15625 L112.75,291.9375 C113.007812,290.640625 113.796875,289.664062 115.125,289.664062 C116.1875,289.664062 117.320312,290.429688 117.320312,292.03125 C117.320312,292.101562 117.304688,292.234375 117.273438,292.429688 L117.054688,293.703125 C116.804688,295.101562 115.914062,296.109375 114.59375,296.109375 Z M125.445312,287.460938 L123.976562,284.71875 L122.726562,284.71875 L124.570312,287.460938 L125.445312,287.460938 Z M122.859375,297.132812 C124.132812,297.132812 124.953125,296.4375 125.234375,295.875 L125.3125,295.875 L125.117188,297 L126.226562,297 L127.03125,292.4375 C127.109375,292.046875 127.179688,291.59375 127.179688,291.164062 C127.179688,289.703125 126.1875,288.6875 124.335938,288.6875 C122.617188,288.6875 121.507812,289.546875 121.289062,290.71875 L122.398438,290.71875 C122.578125,290.171875 123.164062,289.671875 124.25,289.671875 C125.59375,289.671875 126.09375,290.46875 126.09375,291.265625 C126.09375,291.421875 126.070312,291.601562 126.054688,291.695312 L125.96875,292.242188 L123.695312,292.242188 C121.617188,292.242188 120.546875,293.164062 120.40625,294.507812 C120.390625,294.640625 120.390625,294.765625 120.390625,294.867188 C120.390625,296.289062 121.507812,297.132812 122.859375,297.132812 Z M123.132812,296.15625 C122.132812,296.15625 121.539062,295.578125 121.539062,294.757812 C121.539062,293.898438 122.203125,293.179688 123.59375,293.179688 L125.765625,293.179688 L125.578125,294.25 C125.375,295.367188 124.328125,296.15625 123.132812,296.15625 Z M130.1875,297 L131.03125,292.195312 C131.265625,290.859375 132.101562,289.65625 133.570312,289.65625 C134.789062,289.65625 135.257812,290.5 135.257812,291.460938 C135.257812,291.820312 135.195312,292.226562 135.15625,292.445312 L134.351562,297 L135.492188,297 L136.289062,292.515625 C136.359375,292.109375 136.429688,291.664062 136.429688,291.25 C136.429688,289.914062 135.65625,288.6875 133.90625,288.6875 C132.726562,288.6875 131.882812,289.25 131.4375,290.1875 L131.351562,290.1875 L131.601562,288.820312 L130.484375,288.820312 L129.039062,297 L130.1875,297 Z M139.453125,297 L140.296875,292.195312 C140.53125,290.859375 141.382812,289.65625 142.851562,289.65625 C144.070312,289.65625 144.5625,290.492188 144.5625,291.453125 C144.5625,291.804688 144.5,292.234375 144.460938,292.445312 L143.65625,297 L144.804688,297 L145.59375,292.515625 C145.664062,292.109375 145.734375,291.65625 145.734375,291.25 C145.734375,289.898438 144.898438,288.6875 143.179688,288.6875 C141.960938,288.6875 141.117188,289.28125 140.703125,290.1875 L140.617188,290.1875 L141.429688,285.773438 L140.296875,285.773438 L138.304688,297 L139.453125,297 Z M3.6640625,321.070312 C4.046875,321.070312 4.5390625,321.023438 4.765625,320.96875 L4.9375,320.023438 C4.703125,320.070312 4.2734375,320.109375 3.9296875,320.109375 C3.21875,320.109375 2.90625,319.851562 2.90625,319.265625 C2.90625,319.03125 2.9453125,318.773438 3.0703125,318.054688 L3.8203125,313.765625 L5.671875,313.765625 L5.84375,312.820312 L3.9921875,312.820312 L4.34375,310.773438 L3.21875,310.773438 L2.84375,312.820312 L1.546875,312.820312 L1.375,313.765625 L2.6796875,313.765625 L1.84375,318.5 C1.7734375,318.929688 1.7265625,319.296875 1.7265625,319.546875 C1.7265625,320.5625 2.375,321.070312 3.6640625,321.070312 Z M7.9921875,321 L8.8359375,316.195312 C9.0703125,314.859375 9.921875,313.65625 11.390625,313.65625 C12.609375,313.65625 13.1015625,314.492188 13.1015625,315.453125 C13.1015625,315.804688 13.0390625,316.234375 13,316.445312 L12.1953125,321 L13.34375,321 L14.1328125,316.515625 C14.203125,316.109375 14.2734375,315.65625 14.2734375,315.25 C14.2734375,313.898438 13.4375,312.6875 11.71875,312.6875 C10.5,312.6875 9.65625,313.28125 9.2421875,314.1875 L9.15625,314.1875 L9.96875,309.773438 L8.8359375,309.773438 L6.84375,321 L7.9921875,321 Z M21.5,311.460938 L20.03125,308.71875 L18.78125,308.71875 L20.625,311.460938 L21.5,311.460938 Z M19.53125,321.132812 C21.5625,321.132812 22.7578125,319.96875 23.109375,318.03125 L23.3125,316.914062 C23.3671875,316.570312 23.3984375,316.1875 23.3984375,315.953125 C23.3984375,315.023438 23.0625,314.242188 22.734375,313.84375 L22.7578125,313.78125 C23.96875,313.765625 24.375,312.960938 24.6015625,311.6875 L24.796875,310.609375 L23.765625,310.609375 L23.5546875,311.78125 C23.4140625,312.554688 23.0234375,313.03125 22.234375,313.03125 C21.5,313.03125 21,312.6875 20.0859375,312.6875 C18.359375,312.6875 16.9609375,313.796875 16.6171875,315.765625 L16.421875,316.875 C16.359375,317.234375 16.3359375,317.625 16.3359375,318.007812 C16.3359375,319.96875 17.71875,321.132812 19.53125,321.132812 Z M19.671875,320.132812 C18.2890625,320.132812 17.453125,319.195312 17.453125,317.828125 C17.453125,317.46875 17.484375,317.210938 17.53125,316.953125 L17.7109375,315.984375 C17.9921875,314.382812 18.921875,313.6875 20.0625,313.6875 C21.4140625,313.6875 22.2578125,314.632812 22.2578125,315.945312 C22.2578125,316.0625 22.2578125,316.453125 22.21875,316.703125 L22.0390625,317.742188 C21.765625,319.273438 20.9296875,320.132812 19.671875,320.132812 Z M27.4140625,311.1875 C27.921875,311.1875 28.296875,310.820312 28.296875,310.328125 C28.296875,309.828125 27.921875,309.453125 27.4140625,309.453125 C26.9375,309.453125 26.5546875,309.828125 26.5546875,310.328125 C26.5546875,310.820312 26.9375,311.1875 27.4140625,311.1875 Z M26.25,321 L27.6875,312.820312 L26.546875,312.820312 L25.109375,321 L26.25,321 Z M35.6640625,323.96875 C37.7265625,323.96875 38.953125,322.984375 39.328125,320.867188 L40.7421875,312.820312 L39.6171875,312.820312 L39.3359375,314.429688 L39.2421875,314.429688 C39,313.53125 38.1328125,312.6875 36.734375,312.6875 C35.21875,312.6875 33.765625,313.59375 33.3671875,315.6875 L33.1875,316.640625 C33.125,316.953125 33.078125,317.476562 33.078125,317.757812 C33.078125,319.6875 34.5078125,320.851562 36.0234375,320.851562 C37.3125,320.851562 38.0859375,320.1875 38.3828125,319.46875 L38.4765625,319.46875 L38.265625,320.664062 C37.9921875,322.234375 37.2109375,322.992188 35.734375,322.992188 C34.515625,322.992188 33.7265625,322.304688 33.7265625,321.65625 L33.7265625,321.554688 L33.7265625,321.554688 L32.609375,321.554688 C32.609375,321.5625 32.6015625,321.65625 32.6015625,321.671875 C32.6015625,322.867188 33.7890625,323.96875 35.6640625,323.96875 Z M36.375,319.890625 C35.0703125,319.890625 34.203125,319.109375 34.203125,317.585938 C34.203125,317.375 34.2578125,316.945312 34.296875,316.71875 L34.4296875,316.039062 C34.703125,314.554688 35.5703125,313.65625 36.7890625,313.65625 C38.0546875,313.65625 38.984375,314.539062 38.984375,315.976562 C38.984375,316.046875 38.984375,316.28125 38.90625,316.71875 L38.7578125,317.554688 C38.5234375,318.921875 37.5859375,319.890625 36.375,319.890625 Z M44.5859375,311.1875 C45.09375,311.1875 45.46875,310.820312 45.46875,310.328125 C45.46875,309.828125 45.09375,309.453125 44.5859375,309.453125 C44.109375,309.453125 43.7265625,309.828125 43.7265625,310.328125 C43.7265625,310.820312 44.109375,311.1875 44.5859375,311.1875 Z M43.421875,321 L44.859375,312.820312 L43.71875,312.820312 L42.28125,321 L43.421875,321 Z M48.796875,321.132812 C50.0703125,321.132812 50.890625,320.4375 51.171875,319.875 L51.25,319.875 L51.0546875,321 L52.1640625,321 L52.96875,316.4375 C53.046875,316.046875 53.1171875,315.59375 53.1171875,315.164062 C53.1171875,313.703125 52.125,312.6875 50.2734375,312.6875 C48.5546875,312.6875 47.4453125,313.546875 47.2265625,314.71875 L48.3359375,314.71875 C48.515625,314.171875 49.1015625,313.671875 50.1875,313.671875 C51.53125,313.671875 52.03125,314.46875 52.03125,315.265625 C52.03125,315.421875 52.0078125,315.601562 51.9921875,315.695312 L51.90625,316.242188 L49.6328125,316.242188 C47.5546875,316.242188 46.484375,317.164062 46.34375,318.507812 C46.328125,318.640625 46.328125,318.765625 46.328125,318.867188 C46.328125,320.289062 47.4453125,321.132812 48.796875,321.132812 Z M49.0703125,320.15625 C48.0703125,320.15625 47.4765625,319.578125 47.4765625,318.757812 C47.4765625,317.898438 48.140625,317.179688 49.53125,317.179688 L51.703125,317.179688 L51.515625,318.25 C51.3125,319.367188 50.265625,320.15625 49.0703125,320.15625 Z M56.125,321 L56.96875,316.195312 C57.203125,314.859375 58.0390625,313.65625 59.5078125,313.65625 C60.7265625,313.65625 61.1953125,314.5 61.1953125,315.460938 C61.1953125,315.820312 61.1328125,316.226562 61.09375,316.445312 L60.2890625,321 L61.4296875,321 L62.2265625,316.515625 C62.296875,316.109375 62.3671875,315.664062 62.3671875,315.25 C62.3671875,313.914062 61.59375,312.6875 59.84375,312.6875 C58.6640625,312.6875 57.8203125,313.25 57.375,314.1875 L57.2890625,314.1875 L57.5390625,312.820312 L56.421875,312.820312 L54.9765625,321 L56.125,321 Z M66.140625,317.710938 L67.65625,310.335938 L66.375,310.335938 L65.28125,317.710938 L66.140625,317.710938 Z M65.359375,321.132812 C65.9375,321.132812 66.375,320.703125 66.375,320.15625 C66.375,319.578125 65.9375,319.148438 65.359375,319.148438 C64.828125,319.148438 64.390625,319.578125 64.390625,320.15625 C64.390625,320.703125 64.828125,321.132812 65.359375,321.132812 Z M76.3671875,321.226562 C78.5703125,321.226562 80.1328125,320.0625 80.1328125,318.070312 C80.1328125,316.34375 78.8984375,315.757812 77.5078125,315.210938 L76.875,314.960938 C75.734375,314.507812 74.859375,314 74.859375,312.984375 C74.859375,311.71875 76.0703125,311.15625 77.2109375,311.15625 C78.484375,311.15625 79.5,311.882812 79.5,312.960938 C79.5,313.054688 79.4921875,313.09375 79.4921875,313.101562 L80.59375,313.101562 C80.59375,313.09375 80.609375,312.859375 80.609375,312.828125 C80.609375,311.109375 79,310.117188 77.2265625,310.117188 C75.234375,310.117188 73.65625,311.1875 73.65625,313.039062 C73.65625,314.71875 75.0546875,315.53125 76.421875,316.039062 L76.921875,316.226562 C78.0078125,316.632812 78.921875,317.0625 78.921875,318.179688 C78.921875,319.390625 77.921875,320.1875 76.421875,320.1875 C74.765625,320.1875 73.7890625,319.234375 73.7890625,318.257812 C73.7890625,318.195312 73.796875,318.109375 73.8046875,318.046875 L72.65625,318.046875 C72.640625,318.148438 72.6328125,318.289062 72.6328125,318.40625 C72.6328125,319.835938 74.0546875,321.226562 76.3671875,321.226562 Z M84.484375,321.132812 C85.7578125,321.132812 86.578125,320.4375 86.859375,319.875 L86.9375,319.875 L86.7421875,321 L87.8515625,321 L88.65625,316.4375 C88.734375,316.046875 88.8046875,315.59375 88.8046875,315.164062 C88.8046875,313.703125 87.8125,312.6875 85.9609375,312.6875 C84.2421875,312.6875 83.1328125,313.546875 82.9140625,314.71875 L84.0234375,314.71875 C84.203125,314.171875 84.7890625,313.671875 85.875,313.671875 C87.21875,313.671875 87.71875,314.46875 87.71875,315.265625 C87.71875,315.421875 87.6953125,315.601562 87.6796875,315.695312 L87.59375,316.242188 L85.3203125,316.242188 C83.2421875,316.242188 82.171875,317.164062 82.03125,318.507812 C82.015625,318.640625 82.015625,318.765625 82.015625,318.867188 C82.015625,320.289062 83.1328125,321.132812 84.484375,321.132812 Z M84.7578125,320.15625 C83.7578125,320.15625 83.1640625,319.578125 83.1640625,318.757812 C83.1640625,317.898438 83.828125,317.179688 85.21875,317.179688 L87.390625,317.179688 L87.203125,318.25 C87,319.367188 85.953125,320.15625 84.7578125,320.15625 Z M93.609375,321.132812 C94.796875,321.132812 95.65625,320.46875 96.046875,319.585938 L96.140625,319.585938 L95.890625,321 L96.96875,321 L98.40625,312.820312 L97.3125,312.820312 L96.46875,317.585938 C96.2421875,318.921875 95.4296875,320.109375 93.96875,320.109375 C92.765625,320.109375 92.1875,319.414062 92.1875,318.390625 C92.1875,318.054688 92.2421875,317.640625 92.296875,317.34375 L93.109375,312.820312 L91.9765625,312.820312 L91.1640625,317.273438 C91.0859375,317.648438 91.0078125,318.15625 91.0078125,318.59375 C91.0078125,319.992188 91.9296875,321.132812 93.609375,321.132812 Z M106.570312,321.117188 C107.9375,321.117188 108.71875,320.25 108.953125,319.617188 L109.046875,319.617188 L108.804688,321 L109.921875,321 L111.5625,311.726562 L112.84375,311.726562 L113.007812,310.8125 L111.726562,310.8125 L111.914062,309.773438 L110.757812,309.773438 L110.578125,310.8125 L108.78125,310.8125 L108.625,311.726562 L110.421875,311.726562 L109.945312,314.429688 L109.851562,314.429688 C109.710938,313.671875 108.820312,312.6875 107.390625,312.6875 C105.460938,312.6875 104.304688,313.9375 104,315.546875 L103.710938,317.078125 C103.648438,317.375 103.632812,317.734375 103.632812,318.039062 C103.632812,319.90625 104.867188,321.117188 106.570312,321.117188 Z M106.90625,320.109375 C105.601562,320.109375 104.773438,319.265625 104.773438,317.867188 C104.773438,317.59375 104.796875,317.296875 104.820312,317.15625 L105.0625,315.9375 C105.320312,314.640625 106.109375,313.664062 107.4375,313.664062 C108.5,313.664062 109.632812,314.429688 109.632812,316.03125 C109.632812,316.101562 109.617188,316.234375 109.585938,316.429688 L109.367188,317.703125 C109.117188,319.101562 108.226562,320.109375 106.90625,320.109375 Z M115.796875,311.460938 L117.414062,309.296875 L117.4375,309.296875 L118.34375,311.460938 L119.34375,311.460938 L118,308.523438 L117.078125,308.523438 L114.757812,311.460938 L115.796875,311.460938 Z M115.195312,321.132812 C116.46875,321.132812 117.289062,320.4375 117.570312,319.875 L117.648438,319.875 L117.453125,321 L118.5625,321 L119.367188,316.4375 C119.445312,316.046875 119.515625,315.59375 119.515625,315.164062 C119.515625,313.703125 118.523438,312.6875 116.671875,312.6875 C114.953125,312.6875 113.84375,313.546875 113.625,314.71875 L114.734375,314.71875 C114.914062,314.171875 115.5,313.671875 116.585938,313.671875 C117.929688,313.671875 118.429688,314.46875 118.429688,315.265625 C118.429688,315.421875 118.40625,315.601562 118.390625,315.695312 L118.304688,316.242188 L116.03125,316.242188 C113.953125,316.242188 112.882812,317.164062 112.742188,318.507812 C112.726562,318.640625 112.726562,318.765625 112.726562,318.867188 C112.726562,320.289062 113.84375,321.132812 115.195312,321.132812 Z M115.46875,320.15625 C114.46875,320.15625 113.875,319.578125 113.875,318.757812 C113.875,317.898438 114.539062,317.179688 115.929688,317.179688 L118.101562,317.179688 L117.914062,318.25 C117.710938,319.367188 116.664062,320.15625 115.46875,320.15625 Z M121.382812,323.835938 C122.789062,323.835938 123.40625,323.382812 124.21875,321.78125 L124.609375,321.015625 L128.882812,312.820312 L127.65625,312.820312 L124.289062,319.664062 L124.210938,319.664062 L123.085938,312.820312 L121.867188,312.820312 L123.429688,320.929688 L123.164062,321.5 C122.710938,322.492188 122.242188,322.867188 121.5,322.867188 C121.242188,322.867188 120.976562,322.835938 120.789062,322.789062 L120.578125,323.734375 C120.75,323.78125 121.085938,323.835938 121.382812,323.835938 Z M5.0234375,345.132812 C6.9375,345.132812 8.1015625,343.859375 8.390625,342.21875 L8.65625,340.679688 C8.7109375,340.359375 8.7265625,340.007812 8.7265625,339.734375 C8.7265625,337.835938 7.5546875,336.6875 5.84375,336.6875 C4.4609375,336.6875 3.7578125,337.492188 3.4609375,338.117188 L3.3671875,338.117188 L4.15625,333.773438 L3.015625,333.773438 L1.015625,345 L2.1484375,345 L2.4453125,343.328125 L2.53125,343.328125 C2.734375,344.171875 3.6640625,345.132812 5.0234375,345.132812 Z M4.9921875,344.09375 C3.984375,344.09375 2.8359375,343.34375 2.828125,341.71875 C2.828125,341.679688 2.828125,341.507812 2.8671875,341.320312 L3.0703125,340.046875 C3.296875,338.679688 4.1875,337.648438 5.515625,337.648438 C6.8046875,337.648438 7.625,338.484375 7.625,339.882812 C7.625,340.09375 7.6171875,340.382812 7.5859375,340.585938 L7.3671875,341.828125 C7.140625,343.085938 6.2890625,344.09375 4.9921875,344.09375 Z M12.6796875,345.132812 C13.953125,345.132812 14.7734375,344.4375 15.0546875,343.875 L15.1328125,343.875 L14.9375,345 L16.046875,345 L16.8515625,340.4375 C16.9296875,340.046875 17,339.59375 17,339.164062 C17,337.703125 16.0078125,336.6875 14.15625,336.6875 C12.4375,336.6875 11.328125,337.546875 11.109375,338.71875 L12.21875,338.71875 C12.3984375,338.171875 12.984375,337.671875 14.0703125,337.671875 C15.4140625,337.671875 15.9140625,338.46875 15.9140625,339.265625 C15.9140625,339.421875 15.890625,339.601562 15.875,339.695312 L15.7890625,340.242188 L13.515625,340.242188 C11.4375,340.242188 10.3671875,341.164062 10.2265625,342.507812 C10.2109375,342.640625 10.2109375,342.765625 10.2109375,342.867188 C10.2109375,344.289062 11.328125,345.132812 12.6796875,345.132812 Z M12.953125,344.15625 C11.953125,344.15625 11.359375,343.578125 11.359375,342.757812 C11.359375,341.898438 12.0234375,341.179688 13.4140625,341.179688 L15.5859375,341.179688 L15.3984375,342.25 C15.1953125,343.367188 14.1484375,344.15625 12.953125,344.15625 Z M12.421875,347.546875 C12.875,347.546875 13.1953125,347.25 13.1953125,346.804688 C13.1953125,346.367188 12.875,346.054688 12.421875,346.054688 C11.9765625,346.054688 11.65625,346.367188 11.65625,346.804688 C11.65625,347.25 11.9765625,347.546875 12.421875,347.546875 Z M20.0078125,345 L20.8515625,340.195312 C21.0859375,338.859375 21.921875,337.65625 23.390625,337.65625 C24.609375,337.65625 25.078125,338.5 25.078125,339.460938 C25.078125,339.820312 25.015625,340.226562 24.9765625,340.445312 L24.171875,345 L25.3125,345 L26.109375,340.515625 C26.1796875,340.109375 26.25,339.664062 26.25,339.25 C26.25,337.914062 25.4765625,336.6875 23.7265625,336.6875 C22.546875,336.6875 21.703125,337.25 21.2578125,338.1875 L21.171875,338.1875 L21.421875,336.820312 L20.3046875,336.820312 L18.859375,345 L20.0078125,345 Z M35.140625,345.132812 C36.78125,345.132812 38.0078125,344.273438 38.234375,342.984375 L37.0859375,342.984375 C36.9375,343.59375 36.265625,344.125 35.1953125,344.125 C33.8046875,344.125 33.078125,343.242188 33.078125,341.757812 C33.078125,341.5 33.1015625,341.25 33.1640625,340.914062 L33.328125,339.96875 C33.59375,338.484375 34.5078125,337.65625 35.7109375,337.65625 C36.984375,337.65625 37.6328125,338.507812 37.6328125,339.25 L37.6328125,339.34375 L37.6328125,339.34375 L38.7421875,339.34375 C38.75,339.335938 38.75,339.257812 38.75,339.242188 C38.75,337.875 37.6328125,336.6875 35.71875,336.6875 C33.90625,336.6875 32.5859375,337.71875 32.25,339.671875 L32.046875,340.84375 C31.9765625,341.257812 31.9453125,341.695312 31.9453125,342.007812 C31.9453125,343.921875 33.21875,345.132812 35.140625,345.132812 Z M44.7734375,335.460938 L47.46875,332.71875 L46.1953125,332.71875 L43.8125,335.460938 L44.7734375,335.460938 Z M43.4375,345.132812 C45.46875,345.132812 46.6640625,343.96875 47.015625,342.03125 L47.21875,340.914062 C47.28125,340.570312 47.3125,340.1875 47.3125,339.953125 C47.3125,337.898438 45.9375,336.6875 44,336.6875 C42.265625,336.6875 40.8671875,337.796875 40.5234375,339.765625 L40.3359375,340.875 C40.265625,341.234375 40.2421875,341.625 40.2421875,342.007812 C40.2421875,343.96875 41.6328125,345.132812 43.4375,345.132812 Z M43.578125,344.132812 C42.1953125,344.132812 41.359375,343.195312 41.359375,341.828125 C41.359375,341.46875 41.3984375,341.210938 41.4453125,340.953125 L41.6171875,339.984375 C41.8984375,338.382812 42.828125,337.6875 43.96875,337.6875 C45.328125,337.6875 46.171875,338.632812 46.171875,339.945312 C46.171875,340.0625 46.1640625,340.453125 46.125,340.703125 L45.9453125,341.742188 C45.6796875,343.273438 44.8359375,344.132812 43.578125,344.132812 Z M55.1875,345.070312 C55.5703125,345.070312 56.0625,345.023438 56.2890625,344.96875 L56.4609375,344.023438 C56.2265625,344.070312 55.796875,344.109375 55.453125,344.109375 C54.7421875,344.109375 54.4296875,343.851562 54.4296875,343.265625 C54.4296875,343.03125 54.46875,342.773438 54.59375,342.054688 L55.34375,337.765625 L57.1953125,337.765625 L57.3671875,336.820312 L55.515625,336.820312 L55.8671875,334.773438 L54.7421875,334.773438 L54.3671875,336.820312 L53.0703125,336.820312 L52.8984375,337.765625 L54.203125,337.765625 L53.3671875,342.5 C53.296875,342.929688 53.25,343.296875 53.25,343.546875 C53.25,344.5625 53.8984375,345.070312 55.1875,345.070312 Z M59.515625,345 L60.359375,340.195312 C60.59375,338.859375 61.4453125,337.65625 62.9140625,337.65625 C64.1328125,337.65625 64.625,338.492188 64.625,339.453125 C64.625,339.804688 64.5625,340.234375 64.5234375,340.445312 L63.71875,345 L64.8671875,345 L65.65625,340.515625 C65.7265625,340.109375 65.796875,339.65625 65.796875,339.25 C65.796875,337.898438 64.9609375,336.6875 63.2421875,336.6875 C62.0234375,336.6875 61.1796875,337.28125 60.765625,338.1875 L60.6796875,338.1875 L61.4921875,333.773438 L60.359375,333.773438 L58.3671875,345 L59.515625,345 Z M74.4609375,333.921875 C75.3046875,333.664062 75.8359375,333.0625 75.8359375,332.351562 C75.8359375,331.609375 75.3125,331.210938 74.328125,331.210938 C74.1171875,331.210938 73.8984375,331.25 73.7578125,331.296875 L73.640625,331.96875 C73.8046875,331.90625 74.046875,331.867188 74.2265625,331.867188 C74.7734375,331.867188 75.0546875,332.0625 75.0546875,332.460938 C75.0546875,332.828125 74.7265625,333.148438 74.15625,333.328125 L74.4609375,333.921875 Z M70.84375,335.453125 L72.4453125,333.9375 L72.4765625,333.9375 L73.453125,335.453125 L74.40625,335.453125 L72.9453125,333.21875 L72.203125,333.21875 L69.8046875,335.453125 L70.84375,335.453125 Z M70.921875,345.132812 C72.7421875,345.132812 73.8984375,344.015625 74.0859375,343.015625 L72.9453125,343.015625 C72.78125,343.578125 72.0859375,344.125 70.9921875,344.125 C69.4765625,344.125 68.90625,343.070312 68.90625,341.945312 C68.90625,341.664062 68.9453125,341.359375 68.9921875,341.179688 L74.421875,341.179688 C74.4375,341.101562 74.6171875,340.109375 74.6171875,340.078125 C74.8515625,338.570312 74.109375,336.6875 71.6953125,336.6875 C69.8125,336.6875 68.4765625,337.835938 68.15625,339.664062 L67.9453125,340.820312 C67.890625,341.109375 67.8203125,341.59375 67.8203125,342.054688 C67.8203125,344.0625 69.1328125,345.132812 70.921875,345.132812 Z M73.5,340.257812 L69.1796875,340.257812 C69.1796875,340.242188 69.2890625,339.726562 69.2890625,339.710938 C69.5859375,338.3125 70.5625,337.65625 71.65625,337.65625 C73.0859375,337.65625 73.75,338.734375 73.53125,340.054688 C73.53125,340.09375 73.5078125,340.234375 73.5,340.257812 Z M79.84375,347.835938 C81.25,347.835938 81.8671875,347.382812 82.6796875,345.78125 L83.0703125,345.015625 L87.34375,336.820312 L86.1171875,336.820312 L82.75,343.664062 L82.671875,343.664062 L81.546875,336.820312 L80.328125,336.820312 L81.890625,344.929688 L81.625,345.5 C81.171875,346.492188 80.703125,346.867188 79.9609375,346.867188 C79.703125,346.867188 79.4375,346.835938 79.25,346.789062 L79.0390625,347.734375 C79.2109375,347.78125 79.546875,347.835938 79.84375,347.835938 Z M91.3515625,335.460938 L92.96875,333.296875 L92.9921875,333.296875 L93.8984375,335.460938 L94.8984375,335.460938 L93.5546875,332.523438 L92.6328125,332.523438 L90.3125,335.460938 L91.3515625,335.460938 Z M91.375,345.132812 C93.1953125,345.132812 94.3515625,344.015625 94.5390625,343.015625 L93.3984375,343.015625 C93.234375,343.578125 92.5390625,344.125 91.4453125,344.125 C89.9296875,344.125 89.359375,343.070312 89.359375,341.945312 C89.359375,341.664062 89.3984375,341.359375 89.4453125,341.179688 L94.875,341.179688 C94.890625,341.101562 95.0703125,340.109375 95.0703125,340.078125 C95.3046875,338.570312 94.5625,336.6875 92.1484375,336.6875 C90.265625,336.6875 88.9296875,337.835938 88.609375,339.664062 L88.3984375,340.820312 C88.34375,341.109375 88.2734375,341.59375 88.2734375,342.054688 C88.2734375,344.0625 89.5859375,345.132812 91.375,345.132812 Z M93.953125,340.257812 L89.6328125,340.257812 C89.6328125,340.242188 89.7421875,339.726562 89.7421875,339.710938 C90.0390625,338.3125 91.015625,337.65625 92.109375,337.65625 C93.5390625,337.65625 94.203125,338.734375 93.984375,340.054688 C93.984375,340.09375 93.9609375,340.234375 93.953125,340.257812 Z M99.578125,345.132812 C100.765625,345.132812 101.625,344.46875 102.015625,343.585938 L102.109375,343.585938 L101.859375,345 L102.9375,345 L104.375,336.820312 L103.28125,336.820312 L102.4375,341.585938 C102.210938,342.921875 101.398438,344.109375 99.9375,344.109375 C98.734375,344.109375 98.15625,343.414062 98.15625,342.390625 C98.15625,342.054688 98.2109375,341.640625 98.265625,341.34375 L99.078125,336.820312 L97.9453125,336.820312 L97.1328125,341.273438 C97.0546875,341.648438 96.9765625,342.15625 96.9765625,342.59375 C96.9765625,343.992188 97.8984375,345.132812 99.578125,345.132812 Z M112.8125,345.132812 C114.453125,345.132812 115.679688,344.273438 115.90625,342.984375 L114.757812,342.984375 C114.609375,343.59375 113.9375,344.125 112.867188,344.125 C111.476562,344.125 110.75,343.242188 110.75,341.757812 C110.75,341.5 110.773438,341.25 110.835938,340.914062 L111,339.96875 C111.265625,338.484375 112.179688,337.65625 113.382812,337.65625 C114.65625,337.65625 115.304688,338.507812 115.304688,339.25 L115.304688,339.34375 L115.304688,339.34375 L116.414062,339.34375 C116.421875,339.335938 116.421875,339.257812 116.421875,339.242188 C116.421875,337.875 115.304688,336.6875 113.390625,336.6875 C111.578125,336.6875 110.257812,337.71875 109.921875,339.671875 L109.71875,340.84375 C109.648438,341.257812 109.617188,341.695312 109.617188,342.007812 C109.617188,343.921875 110.890625,345.132812 112.8125,345.132812 Z M125.648438,334.023438 L124.34375,331.320312 L123.257812,331.320312 L124.859375,334.023438 L125.648438,334.023438 Z M120.6875,335.453125 L122.28125,333.9375 L122.3125,333.9375 L123.289062,335.453125 L124.25,335.453125 L122.789062,333.21875 L122.046875,333.21875 L119.648438,335.453125 L120.6875,335.453125 Z M120.140625,345.132812 C121.414062,345.132812 122.234375,344.4375 122.515625,343.875 L122.59375,343.875 L122.398438,345 L123.507812,345 L124.3125,340.4375 C124.390625,340.046875 124.460938,339.59375 124.460938,339.164062 C124.460938,337.703125 123.46875,336.6875 121.617188,336.6875 C119.898438,336.6875 118.789062,337.546875 118.570312,338.71875 L119.679688,338.71875 C119.859375,338.171875 120.445312,337.671875 121.53125,337.671875 C122.875,337.671875 123.375,338.46875 123.375,339.265625 C123.375,339.421875 123.351562,339.601562 123.335938,339.695312 L123.25,340.242188 L120.976562,340.242188 C118.898438,340.242188 117.828125,341.164062 117.6875,342.507812 C117.671875,342.640625 117.671875,342.765625 117.671875,342.867188 C117.671875,344.289062 118.789062,345.132812 120.140625,345.132812 Z M120.414062,344.15625 C119.414062,344.15625 118.820312,343.578125 118.820312,342.757812 C118.820312,341.898438 119.484375,341.179688 120.875,341.179688 L123.046875,341.179688 L122.859375,342.25 C122.65625,343.367188 121.609375,344.15625 120.414062,344.15625 Z M129.265625,345.132812 C130.453125,345.132812 131.3125,344.46875 131.703125,343.585938 L131.796875,343.585938 L131.546875,345 L132.625,345 L134.0625,336.820312 L132.96875,336.820312 L132.125,341.585938 C131.898438,342.921875 131.085938,344.109375 129.625,344.109375 C128.421875,344.109375 127.84375,343.414062 127.84375,342.390625 C127.84375,342.054688 127.898438,341.640625 127.953125,341.34375 L128.765625,336.820312 L127.632812,336.820312 L126.820312,341.273438 C126.742188,341.648438 126.664062,342.15625 126.664062,342.59375 C126.664062,343.992188 127.585938,345.132812 129.265625,345.132812 Z M5.390625,369.226562 C7.3203125,369.226562 8.90625,368.15625 9.25,366.570312 C9.28125,366.453125 9.3046875,366.289062 9.3046875,366.234375 L8.15625,366.234375 C7.90625,367.398438 6.8671875,368.15625 5.4765625,368.15625 C3.6796875,368.15625 2.6171875,367.023438 2.6171875,365.140625 C2.6171875,364.804688 2.671875,364.148438 2.71875,363.898438 L3.046875,362.25 C3.4375,360.28125 4.515625,359.1875 6.1953125,359.1875 C7.6875,359.1875 8.734375,360.148438 8.84375,361.304688 C8.8515625,361.367188 8.8515625,361.4375 8.84375,361.53125 L9.96875,361.53125 C9.9765625,361.492188 9.984375,361.398438 9.984375,361.265625 C9.984375,359.554688 8.4375,358.109375 6.21875,358.109375 C3.953125,358.109375 2.375,359.601562 1.90625,362.03125 L1.5234375,363.992188 C1.484375,364.21875 1.453125,364.75 1.453125,365.179688 C1.453125,367.65625 2.96875,369.226562 5.390625,369.226562 Z M12.2421875,369 L13.0859375,364.195312 C13.3203125,362.859375 14.171875,361.65625 15.640625,361.65625 C16.859375,361.65625 17.3515625,362.492188 17.3515625,363.453125 C17.3515625,363.804688 17.2890625,364.234375 17.25,364.445312 L16.4453125,369 L17.59375,369 L18.3828125,364.515625 C18.453125,364.109375 18.5234375,363.65625 18.5234375,363.25 C18.5234375,361.898438 17.6875,360.6875 15.96875,360.6875 C14.75,360.6875 13.90625,361.28125 13.4921875,362.1875 L13.40625,362.1875 L14.21875,357.773438 L13.0859375,357.773438 L11.09375,369 L12.2421875,369 Z M22.8046875,369.132812 C24.078125,369.132812 24.8984375,368.4375 25.1796875,367.875 L25.2578125,367.875 L25.0625,369 L26.171875,369 L26.9765625,364.4375 C27.0546875,364.046875 27.125,363.59375 27.125,363.164062 C27.125,361.703125 26.1328125,360.6875 24.28125,360.6875 C22.5625,360.6875 21.453125,361.546875 21.234375,362.71875 L22.34375,362.71875 C22.5234375,362.171875 23.109375,361.671875 24.1953125,361.671875 C25.5390625,361.671875 26.0390625,362.46875 26.0390625,363.265625 C26.0390625,363.421875 26.015625,363.601562 26,363.695312 L25.9140625,364.242188 L23.640625,364.242188 C21.5625,364.242188 20.4921875,365.164062 20.3515625,366.507812 C20.3359375,366.640625 20.3359375,366.765625 20.3359375,366.867188 C20.3359375,368.289062 21.453125,369.132812 22.8046875,369.132812 Z M23.078125,368.15625 C22.078125,368.15625 21.484375,367.578125 21.484375,366.757812 C21.484375,365.898438 22.1484375,365.179688 23.5390625,365.179688 L25.7109375,365.179688 L25.5234375,366.25 C25.3203125,367.367188 24.2734375,368.15625 23.078125,368.15625 Z M30.1328125,369 L30.9765625,364.195312 C31.2109375,362.859375 32.046875,361.65625 33.515625,361.65625 C34.734375,361.65625 35.203125,362.5 35.203125,363.460938 C35.203125,363.820312 35.140625,364.226562 35.1015625,364.445312 L34.296875,369 L35.4375,369 L36.234375,364.515625 C36.3046875,364.109375 36.375,363.664062 36.375,363.25 C36.375,361.914062 35.6015625,360.6875 33.8515625,360.6875 C32.671875,360.6875 31.828125,361.25 31.3828125,362.1875 L31.296875,362.1875 L31.546875,360.820312 L30.4296875,360.820312 L28.984375,369 L30.1328125,369 Z M41.609375,369.132812 C43.25,369.132812 44.4765625,368.273438 44.703125,366.984375 L43.5546875,366.984375 C43.40625,367.59375 42.734375,368.125 41.6640625,368.125 C40.2734375,368.125 39.546875,367.242188 39.546875,365.757812 C39.546875,365.5 39.5703125,365.25 39.6328125,364.914062 L39.796875,363.96875 C40.0625,362.484375 40.9765625,361.65625 42.1796875,361.65625 C43.453125,361.65625 44.1015625,362.507812 44.1015625,363.25 L44.1015625,363.34375 L44.1015625,363.34375 L45.2109375,363.34375 C45.21875,363.335938 45.21875,363.257812 45.21875,363.242188 C45.21875,361.875 44.1015625,360.6875 42.1875,360.6875 C40.375,360.6875 39.0546875,361.71875 38.71875,363.671875 L38.515625,364.84375 C38.4453125,365.257812 38.4140625,365.695312 38.4140625,366.007812 C38.4140625,367.921875 39.6875,369.132812 41.609375,369.132812 Z M47.6875,369 L48.53125,364.195312 C48.765625,362.859375 49.6171875,361.65625 51.0859375,361.65625 C52.3046875,361.65625 52.796875,362.492188 52.796875,363.453125 C52.796875,363.804688 52.734375,364.234375 52.6953125,364.445312 L51.890625,369 L53.0390625,369 L53.828125,364.515625 C53.8984375,364.109375 53.96875,363.65625 53.96875,363.25 C53.96875,361.898438 53.1328125,360.6875 51.4140625,360.6875 C50.1953125,360.6875 49.3515625,361.28125 48.9375,362.1875 L48.8515625,362.1875 L49.6640625,357.773438 L48.53125,357.773438 L46.5390625,369 L47.6875,369 Z M58.25,369.132812 C59.5234375,369.132812 60.34375,368.4375 60.625,367.875 L60.703125,367.875 L60.5078125,369 L61.6171875,369 L62.421875,364.4375 C62.5,364.046875 62.5703125,363.59375 62.5703125,363.164062 C62.5703125,361.703125 61.578125,360.6875 59.7265625,360.6875 C58.0078125,360.6875 56.8984375,361.546875 56.6796875,362.71875 L57.7890625,362.71875 C57.96875,362.171875 58.5546875,361.671875 59.640625,361.671875 C60.984375,361.671875 61.484375,362.46875 61.484375,363.265625 C61.484375,363.421875 61.4609375,363.601562 61.4453125,363.695312 L61.359375,364.242188 L59.0859375,364.242188 C57.0078125,364.242188 55.9375,365.164062 55.796875,366.507812 C55.78125,366.640625 55.78125,366.765625 55.78125,366.867188 C55.78125,368.289062 56.8984375,369.132812 58.25,369.132812 Z M58.5234375,368.15625 C57.5234375,368.15625 56.9296875,367.578125 56.9296875,366.757812 C56.9296875,365.898438 57.59375,365.179688 58.984375,365.179688 L61.15625,365.179688 L60.96875,366.25 C60.765625,367.367188 59.71875,368.15625 58.5234375,368.15625 Z M65.578125,369 L66.421875,364.195312 C66.65625,362.859375 67.4921875,361.65625 68.9609375,361.65625 C70.1796875,361.65625 70.6484375,362.5 70.6484375,363.460938 C70.6484375,363.820312 70.5859375,364.226562 70.546875,364.445312 L69.7421875,369 L70.8828125,369 L71.6796875,364.515625 C71.75,364.109375 71.8203125,363.664062 71.8203125,363.25 C71.8203125,361.914062 71.046875,360.6875 69.296875,360.6875 C68.1171875,360.6875 67.2734375,361.25 66.828125,362.1875 L66.7421875,362.1875 L66.9921875,360.820312 L65.875,360.820312 L64.4296875,369 L65.578125,369 Z M79.578125,362.6875 L81.078125,358.328125 L80.03125,358.328125 L78.1875,362.6875 L79.578125,362.6875 Z M82.640625,362.6875 L84.140625,358.328125 L83.09375,358.328125 L81.25,362.6875 L82.640625,362.6875 Z M87.484375,369.070312 C87.8671875,369.070312 88.359375,369.023438 88.5859375,368.96875 L88.7578125,368.023438 C88.5234375,368.070312 88.09375,368.109375 87.75,368.109375 C87.0390625,368.109375 86.7265625,367.851562 86.7265625,367.265625 C86.7265625,367.03125 86.765625,366.773438 86.890625,366.054688 L87.640625,361.765625 L89.4921875,361.765625 L89.6640625,360.820312 L87.8125,360.820312 L88.1640625,358.773438 L87.0390625,358.773438 L86.6640625,360.820312 L85.3671875,360.820312 L85.1953125,361.765625 L86.5,361.765625 L85.6640625,366.5 C85.59375,366.929688 85.546875,367.296875 85.546875,367.546875 C85.546875,368.5625 86.1953125,369.070312 87.484375,369.070312 Z M93.1015625,359.1875 C93.609375,359.1875 93.984375,358.820312 93.984375,358.328125 C93.984375,357.828125 93.609375,357.453125 93.1015625,357.453125 C92.625,357.453125 92.2421875,357.828125 92.2421875,358.328125 C92.2421875,358.820312 92.625,359.1875 93.1015625,359.1875 Z M91.9375,369 L93.375,360.820312 L92.234375,360.820312 L90.796875,369 L91.9375,369 Z M102.367188,358.023438 L105.078125,355.320312 L103.835938,355.320312 L101.460938,358.023438 L102.367188,358.023438 Z M98.078125,359.453125 L99.6796875,357.9375 L99.7109375,357.9375 L100.6875,359.453125 L101.640625,359.453125 L100.179688,357.21875 L99.4375,357.21875 L97.0390625,359.453125 L98.078125,359.453125 Z M98.15625,369.132812 C99.9765625,369.132812 101.132812,368.015625 101.320312,367.015625 L100.179688,367.015625 C100.015625,367.578125 99.3203125,368.125 98.2265625,368.125 C96.7109375,368.125 96.140625,367.070312 96.140625,365.945312 C96.140625,365.664062 96.1796875,365.359375 96.2265625,365.179688 L101.65625,365.179688 C101.671875,365.101562 101.851562,364.109375 101.851562,364.078125 C102.085938,362.570312 101.34375,360.6875 98.9296875,360.6875 C97.046875,360.6875 95.7109375,361.835938 95.390625,363.664062 L95.1796875,364.820312 C95.125,365.109375 95.0546875,365.59375 95.0546875,366.054688 C95.0546875,368.0625 96.3671875,369.132812 98.15625,369.132812 Z M100.734375,364.257812 L96.4140625,364.257812 C96.4140625,364.242188 96.5234375,363.726562 96.5234375,363.710938 C96.8203125,362.3125 97.796875,361.65625 98.890625,361.65625 C100.320312,361.65625 100.984375,362.734375 100.765625,364.054688 C100.765625,364.09375 100.742188,364.234375 100.734375,364.257812 Z M104.085938,371.703125 L104.835938,367.328125 L104.929688,367.328125 C105.085938,368.078125 105.953125,369.132812 107.367188,369.132812 C109.304688,369.132812 110.507812,367.835938 110.765625,366.21875 L111.046875,364.679688 C111.109375,364.359375 111.109375,364.007812 111.109375,363.734375 C111.109375,361.84375 109.898438,360.6875 108.195312,360.6875 C106.796875,360.6875 106.09375,361.5 105.828125,362.117188 L105.734375,362.117188 L105.96875,360.820312 L104.851562,360.820312 L102.9375,371.703125 L104.085938,371.703125 Z M107.328125,368.09375 C106.3125,368.09375 105.179688,367.320312 105.179688,365.71875 C105.171875,365.679688 105.179688,365.507812 105.210938,365.320312 L105.421875,364.046875 C105.648438,362.65625 106.546875,361.648438 107.851563,361.648438 C109.15625,361.648438 110.007813,362.492188 110.007813,363.882812 C110.007813,364.101562 110,364.390625 109.96875,364.585938 L109.75,365.828125 C109.523438,367.0625 108.664063,368.09375 107.328125,368.09375 Z M118.976562,369.070312 C119.359375,369.070312 119.851562,369.023438 120.078125,368.96875 L120.25,368.023438 C120.015625,368.070312 119.585938,368.109375 119.242188,368.109375 C118.53125,368.109375 118.21875,367.851562 118.21875,367.265625 C118.21875,367.03125 118.257812,366.773438 118.382812,366.054688 L119.132812,361.765625 L120.984375,361.765625 L121.15625,360.820312 L119.304688,360.820312 L119.65625,358.773438 L118.53125,358.773438 L118.15625,360.820312 L116.859375,360.820312 L116.6875,361.765625 L117.992188,361.765625 L117.15625,366.5 C117.085938,366.929688 117.039062,367.296875 117.039062,367.546875 C117.039062,368.5625 117.6875,369.070312 118.976562,369.070312 Z M125.101562,369.132812 C126.289062,369.132812 127.148438,368.46875 127.539062,367.585938 L127.632812,367.585938 L127.382812,369 L128.460938,369 L129.898438,360.820312 L128.804688,360.820312 L127.960938,365.585938 C127.734375,366.921875 126.921875,368.109375 125.460938,368.109375 C124.257812,368.109375 123.679688,367.414062 123.679688,366.390625 C123.679688,366.054688 123.734375,365.640625 123.789062,365.34375 L124.601562,360.820312 L123.46875,360.820312 L122.65625,365.273438 C122.578125,365.648438 122.5,366.15625 122.5,366.59375 C122.5,367.992188 123.421875,369.132812 125.101562,369.132812 Z M124.976562,371.546875 C125.429688,371.546875 125.75,371.25 125.75,370.804688 C125.75,370.367188 125.429688,370.054688 124.976562,370.054688 C124.53125,370.054688 124.210938,370.367188 124.210938,370.804688 C124.210938,371.25 124.53125,371.546875 124.976562,371.546875 Z M134.679688,369.132812 C136.320312,369.132812 137.546875,368.273438 137.773438,366.984375 L136.625,366.984375 C136.476562,367.59375 135.804688,368.125 134.734375,368.125 C133.34375,368.125 132.617188,367.242188 132.617188,365.757812 C132.617188,365.5 132.640625,365.25 132.703125,364.914062 L132.867188,363.96875 C133.132812,362.484375 134.046875,361.65625 135.25,361.65625 C136.523438,361.65625 137.171875,362.507812 137.171875,363.25 L137.171875,363.34375 L137.171875,363.34375 L138.28125,363.34375 C138.289062,363.335938 138.289062,363.257812 138.289062,363.242188 C138.289062,361.875 137.171875,360.6875 135.257812,360.6875 C133.445312,360.6875 132.125,361.71875 131.789062,363.671875 L131.585938,364.84375 C131.515625,365.257812 131.484375,365.695312 131.484375,366.007812 C131.484375,367.921875 132.757812,369.132812 134.679688,369.132812 Z M144.320312,362.6875 L146.164062,358.328125 L144.773438,358.328125 L143.273438,362.6875 L144.320312,362.6875 Z M141.257812,362.6875 L143.101562,358.328125 L141.710938,358.328125 L140.210938,362.6875 L141.257812,362.6875 Z M4.375,393.132812 C6.015625,393.132812 7.2421875,392.273438 7.46875,390.984375 L6.3203125,390.984375 C6.171875,391.59375 5.5,392.125 4.4296875,392.125 C3.0390625,392.125 2.3125,391.242188 2.3125,389.757812 C2.3125,389.5 2.3359375,389.25 2.3984375,388.914062 L2.5625,387.96875 C2.828125,386.484375 3.7421875,385.65625 4.9453125,385.65625 C6.21875,385.65625 6.8671875,386.507812 6.8671875,387.25 L6.8671875,387.34375 L6.8671875,387.34375 L7.9765625,387.34375 C7.984375,387.335938 7.984375,387.257812 7.984375,387.242188 C7.984375,385.875 6.8671875,384.6875 4.953125,384.6875 C3.140625,384.6875 1.8203125,385.71875 1.484375,387.671875 L1.28125,388.84375 C1.2109375,389.257812 1.1796875,389.695312 1.1796875,390.007812 C1.1796875,391.921875 2.453125,393.132812 4.375,393.132812 Z M12.6796875,383.460938 L14.296875,381.296875 L14.3203125,381.296875 L15.2265625,383.460938 L16.2265625,383.460938 L14.8828125,380.523438 L13.9609375,380.523438 L11.640625,383.460938 L12.6796875,383.460938 Z M12.671875,393.132812 C14.703125,393.132812 15.8984375,391.96875 16.25,390.03125 L16.453125,388.914062 C16.515625,388.570312 16.546875,388.1875 16.546875,387.953125 C16.546875,385.898438 15.171875,384.6875 13.234375,384.6875 C11.5,384.6875 10.1015625,385.796875 9.7578125,387.765625 L9.5703125,388.875 C9.5,389.234375 9.4765625,389.625 9.4765625,390.007812 C9.4765625,391.96875 10.8671875,393.132812 12.671875,393.132812 Z M12.8125,392.132812 C11.4296875,392.132812 10.59375,391.195312 10.59375,389.828125 C10.59375,389.46875 10.6328125,389.210938 10.6796875,388.953125 L10.8515625,387.984375 C11.1328125,386.382812 12.0625,385.6875 13.203125,385.6875 C14.5625,385.6875 15.40625,386.632812 15.40625,387.945312 C15.40625,388.0625 15.3984375,388.453125 15.359375,388.703125 L15.1796875,389.742188 C14.9140625,391.273438 14.0703125,392.132812 12.8125,392.132812 Z M19.265625,393 L20.109375,388.195312 C20.34375,386.859375 21.1796875,385.65625 22.6484375,385.65625 C23.8671875,385.65625 24.3359375,386.5 24.3359375,387.460938 C24.3359375,387.820312 24.2734375,388.226562 24.234375,388.445312 L23.4296875,393 L24.5703125,393 L25.3671875,388.515625 C25.4375,388.109375 25.5078125,387.664062 25.5078125,387.25 C25.5078125,385.914062 24.734375,384.6875 22.984375,384.6875 C21.8046875,384.6875 20.9609375,385.25 20.515625,386.1875 L20.4296875,386.1875 L20.6796875,384.820312 L19.5625,384.820312 L18.1171875,393 L19.265625,393 Z M30.1640625,395.96875 C32.2265625,395.96875 33.453125,394.984375 33.828125,392.867188 L35.2421875,384.820312 L34.1171875,384.820312 L33.8359375,386.429688 L33.7421875,386.429688 C33.5,385.53125 32.6328125,384.6875 31.234375,384.6875 C29.71875,384.6875 28.265625,385.59375 27.8671875,387.6875 L27.6875,388.640625 C27.625,388.953125 27.578125,389.476562 27.578125,389.757812 C27.578125,391.6875 29.0078125,392.851562 30.5234375,392.851562 C31.8125,392.851562 32.5859375,392.1875 32.8828125,391.46875 L32.9765625,391.46875 L32.765625,392.664062 C32.4921875,394.234375 31.7109375,394.992188 30.234375,394.992188 C29.015625,394.992188 28.2265625,394.304688 28.2265625,393.65625 L28.2265625,393.554688 L28.2265625,393.554688 L27.109375,393.554688 C27.109375,393.5625 27.1015625,393.65625 27.1015625,393.671875 C27.1015625,394.867188 28.2890625,395.96875 30.1640625,395.96875 Z M30.875,391.890625 C29.5703125,391.890625 28.703125,391.109375 28.703125,389.585938 C28.703125,389.375 28.7578125,388.945312 28.796875,388.71875 L28.9296875,388.039062 C29.203125,386.554688 30.0703125,385.65625 31.2890625,385.65625 C32.5546875,385.65625 33.484375,386.539062 33.484375,387.976562 C33.484375,388.046875 33.484375,388.28125 33.40625,388.71875 L33.2578125,389.554688 C33.0234375,390.921875 32.0859375,391.890625 30.875,391.890625 Z M43.40625,393 L47.546875,384.820312 L46.3828125,384.820312 L43.0234375,391.726562 L42.9453125,391.726562 L41.9609375,384.820312 L40.7890625,384.820312 L42.171875,393 L43.40625,393 Z M50.765625,383.1875 C51.2734375,383.1875 51.6484375,382.820312 51.6484375,382.328125 C51.6484375,381.828125 51.2734375,381.453125 50.765625,381.453125 C50.2890625,381.453125 49.90625,381.828125 49.90625,382.328125 C49.90625,382.820312 50.2890625,383.1875 50.765625,383.1875 Z M49.6015625,393 L51.0390625,384.820312 L49.8984375,384.820312 L48.4609375,393 L49.6015625,393 Z M55.796875,383.460938 L57.4140625,381.296875 L57.4375,381.296875 L58.34375,383.460938 L59.34375,383.460938 L58,380.523438 L57.078125,380.523438 L54.7578125,383.460938 L55.796875,383.460938 Z M55.8203125,393.132812 C57.640625,393.132812 58.796875,392.015625 58.984375,391.015625 L57.84375,391.015625 C57.6796875,391.578125 56.984375,392.125 55.890625,392.125 C54.375,392.125 53.8046875,391.070312 53.8046875,389.945312 C53.8046875,389.664062 53.84375,389.359375 53.890625,389.179688 L59.3203125,389.179688 C59.3359375,389.101562 59.515625,388.109375 59.515625,388.078125 C59.75,386.570312 59.0078125,384.6875 56.59375,384.6875 C54.7109375,384.6875 53.375,385.835938 53.0546875,387.664062 L52.84375,388.820312 C52.7890625,389.109375 52.71875,389.59375 52.71875,390.054688 C52.71875,392.0625 54.03125,393.132812 55.8203125,393.132812 Z M58.3984375,388.257812 L54.078125,388.257812 C54.078125,388.242188 54.1875,387.726562 54.1875,387.710938 C54.484375,386.3125 55.4609375,385.65625 56.5546875,385.65625 C57.984375,385.65625 58.6484375,386.734375 58.4296875,388.054688 C58.4296875,388.09375 58.40625,388.234375 58.3984375,388.257812 Z M55.375,395.546875 C55.828125,395.546875 56.1484375,395.25 56.1484375,394.804688 C56.1484375,394.367188 55.828125,394.054688 55.375,394.054688 C54.9296875,394.054688 54.609375,394.367188 54.609375,394.804688 C54.609375,395.25 54.9296875,395.546875 55.375,395.546875 Z M64.4375,393.132812 C66.078125,393.132812 67.3046875,392.273438 67.53125,390.984375 L66.3828125,390.984375 C66.234375,391.59375 65.5625,392.125 64.4921875,392.125 C63.1015625,392.125 62.375,391.242188 62.375,389.757812 C62.375,389.5 62.3984375,389.25 62.4609375,388.914062 L62.625,387.96875 C62.890625,386.484375 63.8046875,385.65625 65.0078125,385.65625 C66.28125,385.65625 66.9296875,386.507812 66.9296875,387.25 L66.9296875,387.34375 L66.9296875,387.34375 L68.0390625,387.34375 C68.046875,387.335938 68.046875,387.257812 68.046875,387.242188 C68.046875,385.875 66.9296875,384.6875 65.015625,384.6875 C63.203125,384.6875 61.8828125,385.71875 61.546875,387.671875 L61.34375,388.84375 C61.2734375,389.257812 61.2421875,389.695312 61.2421875,390.007812 C61.2421875,391.921875 62.515625,393.132812 64.4375,393.132812 Z" id="Cảmơnbạnđãdànhthờigian!SauđâybạncóthểyêucầuChanchan“tiếptục”côngviệc" fill-rule="nonzero"></path>
            </g>
        </g>
    </g>
</svg>