<?xml version="1.0" encoding="UTF-8"?>
<svg width="320px" height="519px" viewBox="0 0 320 519" version="1.1" xmlns="http://www.w3.org/2000/svg" xmlns:xlink="http://www.w3.org/1999/xlink">
    <title>3</title>
    <g id="Chanchan" stroke="none" stroke-width="1" fill="none" fill-rule="evenodd">
        <g id="open-letter" transform="translate(0.000000, -1463.000000)" fill="#121721">
            <g id="Group-6" transform="translate(35.000000, 1485.000000)">
                <text id="Như-bất-kỳ-Sản-phẩm" font-family="SFCompactDisplay-Light, SF Compact Display" font-size="16" font-weight="300" line-spacing="23">
                    <tspan x="0" y="117">Như bất kỳ Sản phẩm mới nào, sự </tspan>
                    <tspan x="0" y="140">thành công luôn cần bắt đầu từ Thế </tspan>
                    <tspan x="0" y="163">hệ người dùng đầu tiên. Chúng tôi </tspan>
                    <tspan x="0" y="186">mong rằng qua những chia sẻ </tspan>
                    <tspan x="0" y="209">trên sẽ  nhận được sự đồng </tspan>
                    <tspan x="0" y="232">hành, ủng hộ cũng như </tspan>
                    <tspan x="0" y="255">những ý kiến đóng góp </tspan>
                    <tspan x="0" y="278">của các bạn.</tspan>
                </text>
                <text id="Chanchan-là-một-sản" font-family="SFCompactDisplay-Light, SF Compact Display" font-size="16" font-weight="300" line-spacing="23">
                    <tspan x="0" y="55">Chanchan là một sản phẩm mới </tspan>
                    <tspan x="0" y="78">đang trong Giai đoạn Thử nghiệm. </tspan>
                </text>
                <text id="Mong-muốn" font-family="SFCompactDisplay-Semibold, SF Compact Display" font-size="20" font-weight="500" letter-spacing="-0.8">
                    <tspan x="0" y="19">Mong muốn</tspan>
                </text>
                <path d="M5.390625,316.226562 C7.3203125,316.226562 8.90625,315.15625 9.25,313.570312 C9.28125,313.453125 9.3046875,313.289062 9.3046875,313.234375 L8.15625,313.234375 C7.90625,314.398438 6.8671875,315.15625 5.4765625,315.15625 C3.6796875,315.15625 2.6171875,314.023438 2.6171875,312.140625 C2.6171875,311.804688 2.671875,311.148438 2.71875,310.898438 L3.046875,309.25 C3.4375,307.28125 4.515625,306.1875 6.1953125,306.1875 C7.6875,306.1875 8.734375,307.148438 8.84375,308.304688 C8.8515625,308.367188 8.8515625,308.4375 8.84375,308.53125 L9.96875,308.53125 C9.9765625,308.492188 9.984375,308.398438 9.984375,308.265625 C9.984375,306.554688 8.4375,305.109375 6.21875,305.109375 C3.953125,305.109375 2.375,306.601562 1.90625,309.03125 L1.5234375,310.992188 C1.484375,311.21875 1.453125,311.75 1.453125,312.179688 C1.453125,314.65625 2.96875,316.226562 5.390625,316.226562 Z M15.46875,306.75 C16.3984375,306.34375 16.8671875,305.828125 16.8671875,305.015625 C16.8671875,304.34375 16.328125,303.835938 15.421875,303.835938 C14.9765625,303.835938 14.75,303.890625 14.546875,303.984375 L14.4375,304.695312 C14.6171875,304.625 14.8359375,304.554688 15.2578125,304.554688 C15.6953125,304.554688 16.0078125,304.820312 16.0078125,305.140625 C16.0078125,305.492188 15.8125,305.765625 15.09375,306.125 L15.46875,306.75 Z M13.4921875,316.132812 C14.765625,316.132812 15.5859375,315.4375 15.8671875,314.875 L15.9453125,314.875 L15.75,316 L16.859375,316 L17.6640625,311.4375 C17.7421875,311.046875 17.8125,310.59375 17.8125,310.164062 C17.8125,308.703125 16.8203125,307.6875 14.96875,307.6875 C13.25,307.6875 12.140625,308.546875 11.921875,309.71875 L13.03125,309.71875 C13.2109375,309.171875 13.796875,308.671875 14.8828125,308.671875 C16.2265625,308.671875 16.7265625,309.46875 16.7265625,310.265625 C16.7265625,310.421875 16.703125,310.601562 16.6875,310.695312 L16.6015625,311.242188 L14.328125,311.242188 C12.25,311.242188 11.1796875,312.164062 11.0390625,313.507812 C11.0234375,313.640625 11.0234375,313.765625 11.0234375,313.867188 C11.0234375,315.289062 12.140625,316.132812 13.4921875,316.132812 Z M13.765625,315.15625 C12.765625,315.15625 12.171875,314.578125 12.171875,313.757812 C12.171875,312.898438 12.8359375,312.179688 14.2265625,312.179688 L16.3984375,312.179688 L16.2109375,313.25 C16.0078125,314.367188 14.9609375,315.15625 13.765625,315.15625 Z M20.8203125,316 L21.671875,311.15625 C21.90625,309.804688 22.6484375,308.65625 24.03125,308.65625 C25.15625,308.65625 25.5625,309.4375 25.5625,310.421875 C25.5625,310.773438 25.5234375,311.140625 25.484375,311.359375 L24.6640625,316 L25.8046875,316 L26.6640625,311.164062 C26.921875,309.71875 27.65625,308.65625 28.8984375,308.65625 C29.9765625,308.65625 30.390625,309.421875 30.390625,310.4375 C30.390625,310.78125 30.3359375,311.15625 30.296875,311.375 L29.484375,316 L30.625,316 L31.4296875,311.445312 C31.4921875,311.070312 31.5703125,310.578125 31.5703125,310.15625 C31.5703125,308.820312 30.8359375,307.6875 29.1875,307.6875 C27.734375,307.6875 27.015625,308.609375 26.734375,309.25 L26.65625,309.25 C26.390625,308.367188 25.6171875,307.6875 24.3671875,307.6875 C23.15625,307.6875 22.40625,308.390625 22.0703125,309.1875 L21.984375,309.1875 L22.2265625,307.820312 L21.1171875,307.820312 L19.671875,316 L20.8203125,316 Z M40.46875,316.132812 C42.5,316.132812 43.6953125,314.96875 44.046875,313.03125 L44.25,311.914062 C44.3046875,311.570312 44.3359375,311.1875 44.3359375,310.953125 C44.3359375,310.023438 44,309.242188 43.671875,308.84375 L43.6953125,308.78125 C44.90625,308.765625 45.3125,307.960938 45.5390625,306.6875 L45.734375,305.609375 L44.703125,305.609375 L44.4921875,306.78125 C44.3515625,307.554688 43.9609375,308.03125 43.171875,308.03125 C42.4375,308.03125 41.9375,307.6875 41.0234375,307.6875 C39.296875,307.6875 37.8984375,308.796875 37.5546875,310.765625 L37.359375,311.875 C37.296875,312.234375 37.2734375,312.625 37.2734375,313.007812 C37.2734375,314.96875 38.65625,316.132812 40.46875,316.132812 Z M40.609375,315.132812 C39.2265625,315.132812 38.390625,314.195312 38.390625,312.828125 C38.390625,312.46875 38.421875,312.210938 38.46875,311.953125 L38.6484375,310.984375 C38.9296875,309.382812 39.859375,308.6875 41,308.6875 C42.3515625,308.6875 43.1953125,309.632812 43.1953125,310.945312 C43.1953125,311.0625 43.1953125,311.453125 43.15625,311.703125 L42.9765625,312.742188 C42.703125,314.273438 41.8671875,315.132812 40.609375,315.132812 Z M47.0859375,316 L47.9296875,311.195312 C48.1640625,309.859375 49,308.65625 50.46875,308.65625 C51.6875,308.65625 52.15625,309.5 52.15625,310.460938 C52.15625,310.820312 52.09375,311.226562 52.0546875,311.445312 L51.25,316 L52.390625,316 L53.1875,311.515625 C53.2578125,311.109375 53.328125,310.664062 53.328125,310.25 C53.328125,308.914062 52.5546875,307.6875 50.8046875,307.6875 C49.625,307.6875 48.78125,308.25 48.3359375,309.1875 L48.25,309.1875 L48.5,307.820312 L47.3828125,307.820312 L45.9375,316 L47.0859375,316 Z M62.8671875,316.132812 C64.78125,316.132812 65.9453125,314.859375 66.234375,313.21875 L66.5,311.679688 C66.5546875,311.359375 66.5703125,311.007812 66.5703125,310.734375 C66.5703125,308.835938 65.3984375,307.6875 63.6875,307.6875 C62.3046875,307.6875 61.6015625,308.492188 61.3046875,309.117188 L61.2109375,309.117188 L62,304.773438 L60.859375,304.773438 L58.859375,316 L59.9921875,316 L60.2890625,314.328125 L60.375,314.328125 C60.578125,315.171875 61.5078125,316.132812 62.8671875,316.132812 Z M62.8359375,315.09375 C61.828125,315.09375 60.6796875,314.34375 60.671875,312.71875 C60.671875,312.679688 60.671875,312.507812 60.7109375,312.320312 L60.9140625,311.046875 C61.140625,309.679688 62.03125,308.648438 63.359375,308.648438 C64.6484375,308.648438 65.46875,309.484375 65.46875,310.882812 C65.46875,311.09375 65.4609375,311.382812 65.4296875,311.585938 L65.2109375,312.828125 C64.984375,314.085938 64.1328125,315.09375 62.8359375,315.09375 Z M70.5234375,316.132812 C71.796875,316.132812 72.6171875,315.4375 72.8984375,314.875 L72.9765625,314.875 L72.78125,316 L73.890625,316 L74.6953125,311.4375 C74.7734375,311.046875 74.84375,310.59375 74.84375,310.164062 C74.84375,308.703125 73.8515625,307.6875 72,307.6875 C70.28125,307.6875 69.171875,308.546875 68.953125,309.71875 L70.0625,309.71875 C70.2421875,309.171875 70.828125,308.671875 71.9140625,308.671875 C73.2578125,308.671875 73.7578125,309.46875 73.7578125,310.265625 C73.7578125,310.421875 73.734375,310.601562 73.71875,310.695312 L73.6328125,311.242188 L71.359375,311.242188 C69.28125,311.242188 68.2109375,312.164062 68.0703125,313.507812 C68.0546875,313.640625 68.0546875,313.765625 68.0546875,313.867188 C68.0546875,315.289062 69.171875,316.132812 70.5234375,316.132812 Z M70.796875,315.15625 C69.796875,315.15625 69.203125,314.578125 69.203125,313.757812 C69.203125,312.898438 69.8671875,312.179688 71.2578125,312.179688 L73.4296875,312.179688 L73.2421875,313.25 C73.0390625,314.367188 71.9921875,315.15625 70.796875,315.15625 Z M70.265625,318.546875 C70.71875,318.546875 71.0390625,318.25 71.0390625,317.804688 C71.0390625,317.367188 70.71875,317.054688 70.265625,317.054688 C69.8203125,317.054688 69.5,317.367188 69.5,317.804688 C69.5,318.25 69.8203125,318.546875 70.265625,318.546875 Z M77.8515625,316 L78.6953125,311.195312 C78.9296875,309.859375 79.765625,308.65625 81.234375,308.65625 C82.453125,308.65625 82.921875,309.5 82.921875,310.460938 C82.921875,310.820312 82.859375,311.226562 82.8203125,311.445312 L82.015625,316 L83.15625,316 L83.953125,311.515625 C84.0234375,311.109375 84.09375,310.664062 84.09375,310.25 C84.09375,308.914062 83.3203125,307.6875 81.5703125,307.6875 C80.390625,307.6875 79.546875,308.25 79.1015625,309.1875 L79.015625,309.1875 L79.265625,307.820312 L78.1484375,307.820312 L76.703125,316 L77.8515625,316 Z M92.7109375,316.117188 C94.078125,316.117188 94.859375,315.25 95.09375,314.617188 L95.1875,314.617188 L94.9453125,316 L96.0625,316 L97.703125,306.726562 L98.984375,306.726562 L99.1484375,305.8125 L97.8671875,305.8125 L98.0546875,304.773438 L96.8984375,304.773438 L96.71875,305.8125 L94.921875,305.8125 L94.765625,306.726562 L96.5625,306.726562 L96.0859375,309.429688 L95.9921875,309.429688 C95.8515625,308.671875 94.9609375,307.6875 93.53125,307.6875 C91.6015625,307.6875 90.4453125,308.9375 90.140625,310.546875 L89.8515625,312.078125 C89.7890625,312.375 89.7734375,312.734375 89.7734375,313.039062 C89.7734375,314.90625 91.0078125,316.117188 92.7109375,316.117188 Z M93.046875,315.109375 C91.7421875,315.109375 90.9140625,314.265625 90.9140625,312.867188 C90.9140625,312.59375 90.9375,312.296875 90.9609375,312.15625 L91.203125,310.9375 C91.4609375,309.640625 92.25,308.664062 93.578125,308.664062 C94.640625,308.664062 95.7734375,309.429688 95.7734375,311.03125 C95.7734375,311.101562 95.7578125,311.234375 95.7265625,311.429688 L95.5078125,312.703125 C95.2578125,314.101562 94.3671875,315.109375 93.046875,315.109375 Z M104.242188,306.414062 C105.132812,306.414062 105.695312,305.554688 105.765625,304.65625 L104.960938,304.65625 C104.890625,305.234375 104.648438,305.609375 104.257812,305.609375 C103.617188,305.609375 103.578125,304.390625 102.328125,304.390625 C101.453125,304.390625 100.882812,305.132812 100.796875,306.148438 L101.601562,306.148438 C101.664062,305.5625 101.875,305.195312 102.304688,305.195312 C103,305.195312 103.03125,306.414062 104.242188,306.414062 Z M101.335938,316.132812 C102.609375,316.132812 103.429688,315.4375 103.710938,314.875 L103.789062,314.875 L103.59375,316 L104.703125,316 L105.507812,311.4375 C105.585938,311.046875 105.65625,310.59375 105.65625,310.164062 C105.65625,308.703125 104.664062,307.6875 102.8125,307.6875 C101.09375,307.6875 99.984375,308.546875 99.765625,309.71875 L100.875,309.71875 C101.054688,309.171875 101.640625,308.671875 102.726562,308.671875 C104.070312,308.671875 104.570312,309.46875 104.570312,310.265625 C104.570312,310.421875 104.546875,310.601562 104.53125,310.695312 L104.445312,311.242188 L102.171875,311.242188 C100.09375,311.242188 99.0234375,312.164062 98.8828125,313.507812 C98.8671875,313.640625 98.8671875,313.765625 98.8671875,313.867188 C98.8671875,315.289062 99.984375,316.132812 101.335938,316.132812 Z M101.609375,315.15625 C100.609375,315.15625 100.015625,314.578125 100.015625,313.757812 C100.015625,312.898438 100.679688,312.179688 102.070312,312.179688 L104.242188,312.179688 L104.054688,313.25 C103.851562,314.367188 102.804688,315.15625 101.609375,315.15625 Z M114.257812,316.117188 C115.625,316.117188 116.40625,315.25 116.640625,314.617188 L116.734375,314.617188 L116.492188,316 L117.609375,316 L119.601562,304.773438 L118.445312,304.773438 L117.632812,309.429688 L117.539062,309.429688 C117.398438,308.671875 116.507812,307.6875 115.078125,307.6875 C113.148438,307.6875 111.992188,308.9375 111.6875,310.546875 L111.398438,312.078125 C111.335938,312.375 111.320312,312.734375 111.320312,313.039062 C111.320312,314.90625 112.554688,316.117188 114.257812,316.117188 Z M114.59375,315.109375 C113.289062,315.109375 112.460938,314.265625 112.460938,312.867188 C112.460938,312.59375 112.484375,312.296875 112.507812,312.15625 L112.75,310.9375 C113.007812,309.640625 113.796875,308.664062 115.125,308.664062 C116.1875,308.664062 117.320312,309.429688 117.320312,311.03125 C117.320312,311.101562 117.304688,311.234375 117.273438,311.429688 L117.054688,312.703125 C116.804688,314.101562 115.914062,315.109375 114.59375,315.109375 Z M125.445312,306.460938 L123.976562,303.71875 L122.726562,303.71875 L124.570312,306.460938 L125.445312,306.460938 Z M122.859375,316.132812 C124.132812,316.132812 124.953125,315.4375 125.234375,314.875 L125.3125,314.875 L125.117188,316 L126.226562,316 L127.03125,311.4375 C127.109375,311.046875 127.179688,310.59375 127.179688,310.164062 C127.179688,308.703125 126.1875,307.6875 124.335938,307.6875 C122.617188,307.6875 121.507812,308.546875 121.289062,309.71875 L122.398438,309.71875 C122.578125,309.171875 123.164062,308.671875 124.25,308.671875 C125.59375,308.671875 126.09375,309.46875 126.09375,310.265625 C126.09375,310.421875 126.070312,310.601562 126.054688,310.695312 L125.96875,311.242188 L123.695312,311.242188 C121.617188,311.242188 120.546875,312.164062 120.40625,313.507812 C120.390625,313.640625 120.390625,313.765625 120.390625,313.867188 C120.390625,315.289062 121.507812,316.132812 122.859375,316.132812 Z M123.132812,315.15625 C122.132812,315.15625 121.539062,314.578125 121.539062,313.757812 C121.539062,312.898438 122.203125,312.179688 123.59375,312.179688 L125.765625,312.179688 L125.578125,313.25 C125.375,314.367188 124.328125,315.15625 123.132812,315.15625 Z M130.1875,316 L131.03125,311.195312 C131.265625,309.859375 132.101562,308.65625 133.570312,308.65625 C134.789062,308.65625 135.257812,309.5 135.257812,310.460938 C135.257812,310.820312 135.195312,311.226562 135.15625,311.445312 L134.351562,316 L135.492188,316 L136.289062,311.515625 C136.359375,311.109375 136.429688,310.664062 136.429688,310.25 C136.429688,308.914062 135.65625,307.6875 133.90625,307.6875 C132.726562,307.6875 131.882812,308.25 131.4375,309.1875 L131.351562,309.1875 L131.601562,307.820312 L130.484375,307.820312 L129.039062,316 L130.1875,316 Z M139.453125,316 L140.296875,311.195312 C140.53125,309.859375 141.382812,308.65625 142.851562,308.65625 C144.070312,308.65625 144.5625,309.492188 144.5625,310.453125 C144.5625,310.804688 144.5,311.234375 144.460938,311.445312 L143.65625,316 L144.804688,316 L145.59375,311.515625 C145.664062,311.109375 145.734375,310.65625 145.734375,310.25 C145.734375,308.898438 144.898438,307.6875 143.179688,307.6875 C141.960938,307.6875 141.117188,308.28125 140.703125,309.1875 L140.617188,309.1875 L141.429688,304.773438 L140.296875,304.773438 L138.304688,316 L139.453125,316 Z M3.6640625,340.070312 C4.046875,340.070312 4.5390625,340.023438 4.765625,339.96875 L4.9375,339.023438 C4.703125,339.070312 4.2734375,339.109375 3.9296875,339.109375 C3.21875,339.109375 2.90625,338.851562 2.90625,338.265625 C2.90625,338.03125 2.9453125,337.773438 3.0703125,337.054688 L3.8203125,332.765625 L5.671875,332.765625 L5.84375,331.820312 L3.9921875,331.820312 L4.34375,329.773438 L3.21875,329.773438 L2.84375,331.820312 L1.546875,331.820312 L1.375,332.765625 L2.6796875,332.765625 L1.84375,337.5 C1.7734375,337.929688 1.7265625,338.296875 1.7265625,338.546875 C1.7265625,339.5625 2.375,340.070312 3.6640625,340.070312 Z M7.9921875,340 L8.8359375,335.195312 C9.0703125,333.859375 9.921875,332.65625 11.390625,332.65625 C12.609375,332.65625 13.1015625,333.492188 13.1015625,334.453125 C13.1015625,334.804688 13.0390625,335.234375 13,335.445312 L12.1953125,340 L13.34375,340 L14.1328125,335.515625 C14.203125,335.109375 14.2734375,334.65625 14.2734375,334.25 C14.2734375,332.898438 13.4375,331.6875 11.71875,331.6875 C10.5,331.6875 9.65625,332.28125 9.2421875,333.1875 L9.15625,333.1875 L9.96875,328.773438 L8.8359375,328.773438 L6.84375,340 L7.9921875,340 Z M21.5,330.460938 L20.03125,327.71875 L18.78125,327.71875 L20.625,330.460938 L21.5,330.460938 Z M19.53125,340.132812 C21.5625,340.132812 22.7578125,338.96875 23.109375,337.03125 L23.3125,335.914062 C23.3671875,335.570312 23.3984375,335.1875 23.3984375,334.953125 C23.3984375,334.023438 23.0625,333.242188 22.734375,332.84375 L22.7578125,332.78125 C23.96875,332.765625 24.375,331.960938 24.6015625,330.6875 L24.796875,329.609375 L23.765625,329.609375 L23.5546875,330.78125 C23.4140625,331.554688 23.0234375,332.03125 22.234375,332.03125 C21.5,332.03125 21,331.6875 20.0859375,331.6875 C18.359375,331.6875 16.9609375,332.796875 16.6171875,334.765625 L16.421875,335.875 C16.359375,336.234375 16.3359375,336.625 16.3359375,337.007812 C16.3359375,338.96875 17.71875,340.132812 19.53125,340.132812 Z M19.671875,339.132812 C18.2890625,339.132812 17.453125,338.195312 17.453125,336.828125 C17.453125,336.46875 17.484375,336.210938 17.53125,335.953125 L17.7109375,334.984375 C17.9921875,333.382812 18.921875,332.6875 20.0625,332.6875 C21.4140625,332.6875 22.2578125,333.632812 22.2578125,334.945312 C22.2578125,335.0625 22.2578125,335.453125 22.21875,335.703125 L22.0390625,336.742188 C21.765625,338.273438 20.9296875,339.132812 19.671875,339.132812 Z M27.4140625,330.1875 C27.921875,330.1875 28.296875,329.820312 28.296875,329.328125 C28.296875,328.828125 27.921875,328.453125 27.4140625,328.453125 C26.9375,328.453125 26.5546875,328.828125 26.5546875,329.328125 C26.5546875,329.820312 26.9375,330.1875 27.4140625,330.1875 Z M26.25,340 L27.6875,331.820312 L26.546875,331.820312 L25.109375,340 L26.25,340 Z M35.6640625,342.96875 C37.7265625,342.96875 38.953125,341.984375 39.328125,339.867188 L40.7421875,331.820312 L39.6171875,331.820312 L39.3359375,333.429688 L39.2421875,333.429688 C39,332.53125 38.1328125,331.6875 36.734375,331.6875 C35.21875,331.6875 33.765625,332.59375 33.3671875,334.6875 L33.1875,335.640625 C33.125,335.953125 33.078125,336.476562 33.078125,336.757812 C33.078125,338.6875 34.5078125,339.851562 36.0234375,339.851562 C37.3125,339.851562 38.0859375,339.1875 38.3828125,338.46875 L38.4765625,338.46875 L38.265625,339.664062 C37.9921875,341.234375 37.2109375,341.992188 35.734375,341.992188 C34.515625,341.992188 33.7265625,341.304688 33.7265625,340.65625 L33.7265625,340.554688 L33.7265625,340.554688 L32.609375,340.554688 C32.609375,340.5625 32.6015625,340.65625 32.6015625,340.671875 C32.6015625,341.867188 33.7890625,342.96875 35.6640625,342.96875 Z M36.375,338.890625 C35.0703125,338.890625 34.203125,338.109375 34.203125,336.585938 C34.203125,336.375 34.2578125,335.945312 34.296875,335.71875 L34.4296875,335.039062 C34.703125,333.554688 35.5703125,332.65625 36.7890625,332.65625 C38.0546875,332.65625 38.984375,333.539062 38.984375,334.976562 C38.984375,335.046875 38.984375,335.28125 38.90625,335.71875 L38.7578125,336.554688 C38.5234375,337.921875 37.5859375,338.890625 36.375,338.890625 Z M44.5859375,330.1875 C45.09375,330.1875 45.46875,329.820312 45.46875,329.328125 C45.46875,328.828125 45.09375,328.453125 44.5859375,328.453125 C44.109375,328.453125 43.7265625,328.828125 43.7265625,329.328125 C43.7265625,329.820312 44.109375,330.1875 44.5859375,330.1875 Z M43.421875,340 L44.859375,331.820312 L43.71875,331.820312 L42.28125,340 L43.421875,340 Z M48.796875,340.132812 C50.0703125,340.132812 50.890625,339.4375 51.171875,338.875 L51.25,338.875 L51.0546875,340 L52.1640625,340 L52.96875,335.4375 C53.046875,335.046875 53.1171875,334.59375 53.1171875,334.164062 C53.1171875,332.703125 52.125,331.6875 50.2734375,331.6875 C48.5546875,331.6875 47.4453125,332.546875 47.2265625,333.71875 L48.3359375,333.71875 C48.515625,333.171875 49.1015625,332.671875 50.1875,332.671875 C51.53125,332.671875 52.03125,333.46875 52.03125,334.265625 C52.03125,334.421875 52.0078125,334.601562 51.9921875,334.695312 L51.90625,335.242188 L49.6328125,335.242188 C47.5546875,335.242188 46.484375,336.164062 46.34375,337.507812 C46.328125,337.640625 46.328125,337.765625 46.328125,337.867188 C46.328125,339.289062 47.4453125,340.132812 48.796875,340.132812 Z M49.0703125,339.15625 C48.0703125,339.15625 47.4765625,338.578125 47.4765625,337.757812 C47.4765625,336.898438 48.140625,336.179688 49.53125,336.179688 L51.703125,336.179688 L51.515625,337.25 C51.3125,338.367188 50.265625,339.15625 49.0703125,339.15625 Z M56.125,340 L56.96875,335.195312 C57.203125,333.859375 58.0390625,332.65625 59.5078125,332.65625 C60.7265625,332.65625 61.1953125,333.5 61.1953125,334.460938 C61.1953125,334.820312 61.1328125,335.226562 61.09375,335.445312 L60.2890625,340 L61.4296875,340 L62.2265625,335.515625 C62.296875,335.109375 62.3671875,334.664062 62.3671875,334.25 C62.3671875,332.914062 61.59375,331.6875 59.84375,331.6875 C58.6640625,331.6875 57.8203125,332.25 57.375,333.1875 L57.2890625,333.1875 L57.5390625,331.820312 L56.421875,331.820312 L54.9765625,340 L56.125,340 Z M66.140625,336.710938 L67.65625,329.335938 L66.375,329.335938 L65.28125,336.710938 L66.140625,336.710938 Z M65.359375,340.132812 C65.9375,340.132812 66.375,339.703125 66.375,339.15625 C66.375,338.578125 65.9375,338.148438 65.359375,338.148438 C64.828125,338.148438 64.390625,338.578125 64.390625,339.15625 C64.390625,339.703125 64.828125,340.132812 65.359375,340.132812 Z M76.3671875,340.226562 C78.5703125,340.226562 80.1328125,339.0625 80.1328125,337.070312 C80.1328125,335.34375 78.8984375,334.757812 77.5078125,334.210938 L76.875,333.960938 C75.734375,333.507812 74.859375,333 74.859375,331.984375 C74.859375,330.71875 76.0703125,330.15625 77.2109375,330.15625 C78.484375,330.15625 79.5,330.882812 79.5,331.960938 C79.5,332.054688 79.4921875,332.09375 79.4921875,332.101562 L80.59375,332.101562 C80.59375,332.09375 80.609375,331.859375 80.609375,331.828125 C80.609375,330.109375 79,329.117188 77.2265625,329.117188 C75.234375,329.117188 73.65625,330.1875 73.65625,332.039062 C73.65625,333.71875 75.0546875,334.53125 76.421875,335.039062 L76.921875,335.226562 C78.0078125,335.632812 78.921875,336.0625 78.921875,337.179688 C78.921875,338.390625 77.921875,339.1875 76.421875,339.1875 C74.765625,339.1875 73.7890625,338.234375 73.7890625,337.257812 C73.7890625,337.195312 73.796875,337.109375 73.8046875,337.046875 L72.65625,337.046875 C72.640625,337.148438 72.6328125,337.289062 72.6328125,337.40625 C72.6328125,338.835938 74.0546875,340.226562 76.3671875,340.226562 Z M84.484375,340.132812 C85.7578125,340.132812 86.578125,339.4375 86.859375,338.875 L86.9375,338.875 L86.7421875,340 L87.8515625,340 L88.65625,335.4375 C88.734375,335.046875 88.8046875,334.59375 88.8046875,334.164062 C88.8046875,332.703125 87.8125,331.6875 85.9609375,331.6875 C84.2421875,331.6875 83.1328125,332.546875 82.9140625,333.71875 L84.0234375,333.71875 C84.203125,333.171875 84.7890625,332.671875 85.875,332.671875 C87.21875,332.671875 87.71875,333.46875 87.71875,334.265625 C87.71875,334.421875 87.6953125,334.601562 87.6796875,334.695312 L87.59375,335.242188 L85.3203125,335.242188 C83.2421875,335.242188 82.171875,336.164062 82.03125,337.507812 C82.015625,337.640625 82.015625,337.765625 82.015625,337.867188 C82.015625,339.289062 83.1328125,340.132812 84.484375,340.132812 Z M84.7578125,339.15625 C83.7578125,339.15625 83.1640625,338.578125 83.1640625,337.757812 C83.1640625,336.898438 83.828125,336.179688 85.21875,336.179688 L87.390625,336.179688 L87.203125,337.25 C87,338.367188 85.953125,339.15625 84.7578125,339.15625 Z M93.609375,340.132812 C94.796875,340.132812 95.65625,339.46875 96.046875,338.585938 L96.140625,338.585938 L95.890625,340 L96.96875,340 L98.40625,331.820312 L97.3125,331.820312 L96.46875,336.585938 C96.2421875,337.921875 95.4296875,339.109375 93.96875,339.109375 C92.765625,339.109375 92.1875,338.414062 92.1875,337.390625 C92.1875,337.054688 92.2421875,336.640625 92.296875,336.34375 L93.109375,331.820312 L91.9765625,331.820312 L91.1640625,336.273438 C91.0859375,336.648438 91.0078125,337.15625 91.0078125,337.59375 C91.0078125,338.992188 91.9296875,340.132812 93.609375,340.132812 Z M106.570312,340.117188 C107.9375,340.117188 108.71875,339.25 108.953125,338.617188 L109.046875,338.617188 L108.804688,340 L109.921875,340 L111.5625,330.726562 L112.84375,330.726562 L113.007812,329.8125 L111.726562,329.8125 L111.914062,328.773438 L110.757812,328.773438 L110.578125,329.8125 L108.78125,329.8125 L108.625,330.726562 L110.421875,330.726562 L109.945312,333.429688 L109.851562,333.429688 C109.710938,332.671875 108.820312,331.6875 107.390625,331.6875 C105.460938,331.6875 104.304688,332.9375 104,334.546875 L103.710938,336.078125 C103.648438,336.375 103.632812,336.734375 103.632812,337.039062 C103.632812,338.90625 104.867188,340.117188 106.570312,340.117188 Z M106.90625,339.109375 C105.601562,339.109375 104.773438,338.265625 104.773438,336.867188 C104.773438,336.59375 104.796875,336.296875 104.820312,336.15625 L105.0625,334.9375 C105.320312,333.640625 106.109375,332.664062 107.4375,332.664062 C108.5,332.664062 109.632812,333.429688 109.632812,335.03125 C109.632812,335.101562 109.617188,335.234375 109.585938,335.429688 L109.367188,336.703125 C109.117188,338.101562 108.226562,339.109375 106.90625,339.109375 Z M115.796875,330.460938 L117.414062,328.296875 L117.4375,328.296875 L118.34375,330.460938 L119.34375,330.460938 L118,327.523438 L117.078125,327.523438 L114.757812,330.460938 L115.796875,330.460938 Z M115.195312,340.132812 C116.46875,340.132812 117.289062,339.4375 117.570312,338.875 L117.648438,338.875 L117.453125,340 L118.5625,340 L119.367188,335.4375 C119.445312,335.046875 119.515625,334.59375 119.515625,334.164062 C119.515625,332.703125 118.523438,331.6875 116.671875,331.6875 C114.953125,331.6875 113.84375,332.546875 113.625,333.71875 L114.734375,333.71875 C114.914062,333.171875 115.5,332.671875 116.585938,332.671875 C117.929688,332.671875 118.429688,333.46875 118.429688,334.265625 C118.429688,334.421875 118.40625,334.601562 118.390625,334.695312 L118.304688,335.242188 L116.03125,335.242188 C113.953125,335.242188 112.882812,336.164062 112.742188,337.507812 C112.726562,337.640625 112.726562,337.765625 112.726562,337.867188 C112.726562,339.289062 113.84375,340.132812 115.195312,340.132812 Z M115.46875,339.15625 C114.46875,339.15625 113.875,338.578125 113.875,337.757812 C113.875,336.898438 114.539062,336.179688 115.929688,336.179688 L118.101562,336.179688 L117.914062,337.25 C117.710938,338.367188 116.664062,339.15625 115.46875,339.15625 Z M121.382812,342.835938 C122.789062,342.835938 123.40625,342.382812 124.21875,340.78125 L124.609375,340.015625 L128.882812,331.820312 L127.65625,331.820312 L124.289062,338.664062 L124.210938,338.664062 L123.085938,331.820312 L121.867188,331.820312 L123.429688,339.929688 L123.164062,340.5 C122.710938,341.492188 122.242188,341.867188 121.5,341.867188 C121.242188,341.867188 120.976562,341.835938 120.789062,341.789062 L120.578125,342.734375 C120.75,342.78125 121.085938,342.835938 121.382812,342.835938 Z M4.1015625,364.117188 C5.46875,364.117188 6.25,363.25 6.484375,362.617188 L6.578125,362.617188 L6.3359375,364 L7.453125,364 L9.09375,354.726562 L10.375,354.726562 L10.5390625,353.8125 L9.2578125,353.8125 L9.4453125,352.773438 L8.2890625,352.773438 L8.109375,353.8125 L6.3125,353.8125 L6.15625,354.726562 L7.953125,354.726562 L7.4765625,357.429688 L7.3828125,357.429688 C7.2421875,356.671875 6.3515625,355.6875 4.921875,355.6875 C2.9921875,355.6875 1.8359375,356.9375 1.53125,358.546875 L1.2421875,360.078125 C1.1796875,360.375 1.1640625,360.734375 1.1640625,361.039062 C1.1640625,362.90625 2.3984375,364.117188 4.1015625,364.117188 Z M4.4375,363.109375 C3.1328125,363.109375 2.3046875,362.265625 2.3046875,360.867188 C2.3046875,360.59375 2.328125,360.296875 2.3515625,360.15625 L2.59375,358.9375 C2.8515625,357.640625 3.640625,356.664062 4.96875,356.664062 C6.03125,356.664062 7.1640625,357.429688 7.1640625,359.03125 C7.1640625,359.101562 7.1484375,359.234375 7.1171875,359.429688 L6.8984375,360.703125 C6.6484375,362.101562 5.7578125,363.109375 4.4375,363.109375 Z M17.109375,352.921875 C17.953125,352.664062 18.484375,352.0625 18.484375,351.351562 C18.484375,350.609375 17.9609375,350.210938 16.9765625,350.210938 C16.765625,350.210938 16.546875,350.25 16.40625,350.296875 L16.2890625,350.96875 C16.453125,350.90625 16.6953125,350.867188 16.875,350.867188 C17.421875,350.867188 17.703125,351.0625 17.703125,351.460938 C17.703125,351.828125 17.375,352.148438 16.8046875,352.328125 L17.109375,352.921875 Z M13.4921875,354.453125 L15.09375,352.9375 L15.125,352.9375 L16.1015625,354.453125 L17.0546875,354.453125 L15.59375,352.21875 L14.8515625,352.21875 L12.453125,354.453125 L13.4921875,354.453125 Z M13.5703125,364.132812 C15.390625,364.132812 16.546875,363.015625 16.734375,362.015625 L15.59375,362.015625 C15.4296875,362.578125 14.734375,363.125 13.640625,363.125 C12.125,363.125 11.5546875,362.070312 11.5546875,360.945312 C11.5546875,360.664062 11.59375,360.359375 11.640625,360.179688 L17.0703125,360.179688 C17.0859375,360.101562 17.265625,359.109375 17.265625,359.078125 C17.5,357.570312 16.7578125,355.6875 14.34375,355.6875 C12.4609375,355.6875 11.125,356.835938 10.8046875,358.664062 L10.59375,359.820312 C10.5390625,360.109375 10.46875,360.59375 10.46875,361.054688 C10.46875,363.0625 11.78125,364.132812 13.5703125,364.132812 Z M16.1484375,359.257812 L11.828125,359.257812 C11.828125,359.242188 11.9375,358.726562 11.9375,358.710938 C12.234375,357.3125 13.2109375,356.65625 14.3046875,356.65625 C15.734375,356.65625 16.3984375,357.734375 16.1796875,359.054688 C16.1796875,359.09375 16.15625,359.234375 16.1484375,359.257812 Z M23.625,364 L24.234375,360.546875 L25.3671875,359.648438 L27.6484375,364 L28.921875,364 L26.265625,359.039062 L30.28125,355.820312 L28.6875,355.820312 L24.5625,359.179688 L24.484375,359.179688 L25.6015625,352.773438 L24.4609375,352.773438 L22.484375,364 L23.625,364 Z M33.1875,354.460938 L35.8828125,351.71875 L34.609375,351.71875 L32.2265625,354.460938 L33.1875,354.460938 Z M31.96875,364 L33.421875,355.820312 L32.28125,355.820312 L30.828125,364 L31.96875,364 Z M38.3125,364.132812 C39.953125,364.132812 41.1796875,363.273438 41.40625,361.984375 L40.2578125,361.984375 C40.109375,362.59375 39.4375,363.125 38.3671875,363.125 C36.9765625,363.125 36.25,362.242188 36.25,360.757812 C36.25,360.5 36.2734375,360.25 36.3359375,359.914062 L36.5,358.96875 C36.765625,357.484375 37.6796875,356.65625 38.8828125,356.65625 C40.15625,356.65625 40.8046875,357.507812 40.8046875,358.25 L40.8046875,358.34375 L40.8046875,358.34375 L41.9140625,358.34375 C41.921875,358.335938 41.921875,358.257812 41.921875,358.242188 C41.921875,356.875 40.8046875,355.6875 38.890625,355.6875 C37.078125,355.6875 35.7578125,356.71875 35.421875,358.671875 L35.21875,359.84375 C35.1484375,360.257812 35.1171875,360.695312 35.1171875,361.007812 C35.1171875,362.921875 36.390625,364.132812 38.3125,364.132812 Z M44.390625,364 L45.234375,359.195312 C45.46875,357.859375 46.3203125,356.65625 47.7890625,356.65625 C49.0078125,356.65625 49.5,357.492188 49.5,358.453125 C49.5,358.804688 49.4375,359.234375 49.3984375,359.445312 L48.59375,364 L49.7421875,364 L50.53125,359.515625 C50.6015625,359.109375 50.671875,358.65625 50.671875,358.25 C50.671875,356.898438 49.8359375,355.6875 48.1171875,355.6875 C46.8984375,355.6875 46.0546875,356.28125 45.640625,357.1875 L45.5546875,357.1875 L46.3671875,352.773438 L45.234375,352.773438 L43.2421875,364 L44.390625,364 Z M57.359375,364 L58.203125,359.195312 C58.4375,357.859375 59.2890625,356.65625 60.7578125,356.65625 C61.9765625,356.65625 62.46875,357.492188 62.46875,358.453125 C62.46875,358.804688 62.40625,359.234375 62.3671875,359.445312 L61.5625,364 L62.7109375,364 L63.5,359.515625 C63.5703125,359.109375 63.640625,358.65625 63.640625,358.25 C63.640625,356.898438 62.8046875,355.6875 61.0859375,355.6875 C59.8671875,355.6875 59.0234375,356.28125 58.609375,357.1875 L58.5234375,357.1875 L59.3359375,352.773438 L58.203125,352.773438 L56.2109375,364 L57.359375,364 Z M68.890625,364.132812 C70.921875,364.132812 72.1171875,362.96875 72.46875,361.03125 L72.671875,359.914062 C72.734375,359.570312 72.765625,359.1875 72.765625,358.953125 C72.765625,356.898438 71.390625,355.6875 69.453125,355.6875 C67.71875,355.6875 66.3203125,356.796875 65.9765625,358.765625 L65.7890625,359.875 C65.71875,360.234375 65.6953125,360.625 65.6953125,361.007812 C65.6953125,362.96875 67.0859375,364.132812 68.890625,364.132812 Z M69.03125,363.132812 C67.6484375,363.132812 66.8125,362.195312 66.8125,360.828125 C66.8125,360.46875 66.8515625,360.210938 66.8984375,359.953125 L67.0703125,358.984375 C67.3515625,357.382812 68.28125,356.6875 69.421875,356.6875 C70.78125,356.6875 71.625,357.632812 71.625,358.945312 C71.625,359.0625 71.6171875,359.453125 71.578125,359.703125 L71.3984375,360.742188 C71.1328125,362.273438 70.2890625,363.132812 69.03125,363.132812 Z M76.734375,364.132812 C78.0078125,364.132812 78.828125,363.4375 79.109375,362.875 L79.1875,362.875 L78.9921875,364 L80.1015625,364 L80.90625,359.4375 C80.984375,359.046875 81.0546875,358.59375 81.0546875,358.164062 C81.0546875,356.703125 80.0625,355.6875 78.2109375,355.6875 C76.4921875,355.6875 75.3828125,356.546875 75.1640625,357.71875 L76.2734375,357.71875 C76.453125,357.171875 77.0390625,356.671875 78.125,356.671875 C79.46875,356.671875 79.96875,357.46875 79.96875,358.265625 C79.96875,358.421875 79.9453125,358.601562 79.9296875,358.695312 L79.84375,359.242188 L77.5703125,359.242188 C75.4921875,359.242188 74.421875,360.164062 74.28125,361.507812 C74.265625,361.640625 74.265625,361.765625 74.265625,361.867188 C74.265625,363.289062 75.3828125,364.132812 76.734375,364.132812 Z M77.0078125,363.15625 C76.0078125,363.15625 75.4140625,362.578125 75.4140625,361.757812 C75.4140625,360.898438 76.078125,360.179688 77.46875,360.179688 L79.640625,360.179688 L79.453125,361.25 C79.25,362.367188 78.203125,363.15625 77.0078125,363.15625 Z M76.4765625,366.546875 C76.9296875,366.546875 77.25,366.25 77.25,365.804688 C77.25,365.367188 76.9296875,365.054688 76.4765625,365.054688 C76.03125,365.054688 75.7109375,365.367188 75.7109375,365.804688 C75.7109375,366.25 76.03125,366.546875 76.4765625,366.546875 Z M85.5625,364.070312 C85.9453125,364.070312 86.4375,364.023438 86.6640625,363.96875 L86.8359375,363.023438 C86.6015625,363.070312 86.171875,363.109375 85.828125,363.109375 C85.1171875,363.109375 84.8046875,362.851562 84.8046875,362.265625 C84.8046875,362.03125 84.84375,361.773438 84.96875,361.054688 L85.71875,356.765625 L87.5703125,356.765625 L87.7421875,355.820312 L85.890625,355.820312 L86.2421875,353.773438 L85.1171875,353.773438 L84.7421875,355.820312 L83.4453125,355.820312 L83.2734375,356.765625 L84.578125,356.765625 L83.7421875,361.5 C83.671875,361.929688 83.625,362.296875 83.625,362.546875 C83.625,363.5625 84.2734375,364.070312 85.5625,364.070312 Z M96.015625,364 C99.4453125,364 101.375,362.5625 101.875,359.71875 C101.875,359.6875 102.070312,358.570312 102.070312,358.523438 C102.140625,358.117188 102.164062,357.625 102.164062,357.328125 C102.164062,354.945312 100.734375,353.335938 97.90625,353.335938 L95.0390625,353.335938 L94.1953125,358.03125 L92.953125,358.03125 L92.7734375,359.054688 L94.0234375,359.054688 L93.1484375,364 L96.015625,364 Z M96.03125,362.96875 L94.5,362.96875 L95.1953125,359.054688 L97.703125,359.054688 L97.8828125,358.03125 L95.3671875,358.03125 L96.015625,354.367188 L97.59375,354.367188 C99.8671875,354.367188 100.992188,355.453125 100.992188,357.453125 C100.992188,357.734375 100.96875,358.21875 100.914062,358.523438 C100.914062,358.570312 100.734375,359.570312 100.726562,359.601562 C100.320312,361.867188 98.6015625,362.96875 96.03125,362.96875 Z M108.070312,354.492188 C109.328125,354.492188 110.367188,353.632812 110.5,352.4375 L109.664062,352.4375 C109.523438,353.25 108.96875,353.742188 108.171875,353.742188 C107.40625,353.742188 106.914062,353.320312 106.914062,352.6875 C106.914062,352.578125 106.921875,352.507812 106.9375,352.4375 L106.101562,352.4375 C106.070312,352.570312 106.054688,352.6875 106.054688,352.828125 C106.054688,353.742188 106.828125,354.492188 108.070312,354.492188 Z M106.15625,364.132812 C107.429688,364.132812 108.25,363.4375 108.53125,362.875 L108.609375,362.875 L108.414062,364 L109.523438,364 L110.328125,359.4375 C110.40625,359.046875 110.476562,358.59375 110.476562,358.164062 C110.476562,356.703125 109.484375,355.6875 107.632812,355.6875 C105.914062,355.6875 104.804688,356.546875 104.585938,357.71875 L105.695312,357.71875 C105.875,357.171875 106.460938,356.671875 107.546875,356.671875 C108.890625,356.671875 109.390625,357.46875 109.390625,358.265625 C109.390625,358.421875 109.367188,358.601562 109.351562,358.695312 L109.265625,359.242188 L106.992188,359.242188 C104.914062,359.242188 103.84375,360.164062 103.703125,361.507812 C103.6875,361.640625 103.6875,361.765625 103.6875,361.867188 C103.6875,363.289062 104.804688,364.132812 106.15625,364.132812 Z M106.429688,363.15625 C105.429688,363.15625 104.835938,362.578125 104.835938,361.757812 C104.835938,360.898438 105.5,360.179688 106.890625,360.179688 L109.0625,360.179688 L108.875,361.25 C108.671875,362.367188 107.625,363.15625 106.429688,363.15625 Z M113.484375,364 L114.328125,359.195312 C114.5625,357.859375 115.398438,356.65625 116.867188,356.65625 C118.085938,356.65625 118.554688,357.5 118.554688,358.460938 C118.554688,358.820312 118.492188,359.226562 118.453125,359.445312 L117.648438,364 L118.789062,364 L119.585938,359.515625 C119.65625,359.109375 119.726562,358.664062 119.726562,358.25 C119.726562,356.914062 118.953125,355.6875 117.203125,355.6875 C116.023438,355.6875 115.179688,356.25 114.734375,357.1875 L114.648438,357.1875 L114.898438,355.820312 L113.78125,355.820312 L112.335938,364 L113.484375,364 Z M124.382812,366.96875 C126.445312,366.96875 127.671875,365.984375 128.046875,363.867188 L129.460938,355.820312 L128.335938,355.820312 L128.054688,357.429688 L127.960938,357.429688 C127.71875,356.53125 126.851562,355.6875 125.453125,355.6875 C123.9375,355.6875 122.484375,356.59375 122.085938,358.6875 L121.90625,359.640625 C121.84375,359.953125 121.796875,360.476562 121.796875,360.757812 C121.796875,362.6875 123.226562,363.851562 124.742188,363.851562 C126.03125,363.851562 126.804688,363.1875 127.101562,362.46875 L127.195312,362.46875 L126.984375,363.664062 C126.710938,365.234375 125.929688,365.992188 124.453125,365.992188 C123.234375,365.992188 122.445312,365.304688 122.445312,364.65625 L122.445312,364.554688 L122.445312,364.554688 L121.328125,364.554688 C121.328125,364.5625 121.320312,364.65625 121.320312,364.671875 C121.320312,365.867188 122.507812,366.96875 124.382812,366.96875 Z M125.09375,362.890625 C123.789062,362.890625 122.921875,362.109375 122.921875,360.585938 C122.921875,360.375 122.976562,359.945312 123.015625,359.71875 L123.148438,359.039062 C123.421875,357.554688 124.289062,356.65625 125.507812,356.65625 C126.773438,356.65625 127.703125,357.539062 127.703125,358.976562 C127.703125,359.046875 127.703125,359.28125 127.625,359.71875 L127.476562,360.554688 C127.242188,361.921875 126.304688,362.890625 125.09375,362.890625 Z M2.15625,388 L2.765625,384.546875 L3.8984375,383.648438 L6.1796875,388 L7.453125,388 L4.796875,383.039062 L8.8125,379.820312 L7.21875,379.820312 L3.09375,383.179688 L3.015625,383.179688 L4.1328125,376.773438 L2.9921875,376.773438 L1.015625,388 L2.15625,388 Z M13.7734375,378.460938 L16.46875,375.71875 L15.1953125,375.71875 L12.8125,378.460938 L13.7734375,378.460938 Z M9.3828125,390.835938 C10.7890625,390.835938 11.40625,390.382812 12.21875,388.78125 L12.609375,388.015625 L16.8828125,379.820312 L15.65625,379.820312 L12.2890625,386.664062 L12.2109375,386.664062 L11.0859375,379.820312 L9.8671875,379.820312 L11.4296875,387.929688 L11.1640625,388.5 C10.7109375,389.492188 10.2421875,389.867188 9.5,389.867188 C9.2421875,389.867188 8.9765625,389.835938 8.7890625,389.789062 L8.578125,390.734375 C8.75,390.78125 9.0859375,390.835938 9.3828125,390.835938 Z M25.3359375,388.132812 C27.25,388.132812 28.4140625,386.859375 28.703125,385.21875 L28.96875,383.679688 C29.0234375,383.359375 29.0390625,383.007812 29.0390625,382.734375 C29.0390625,380.835938 27.8671875,379.6875 26.15625,379.6875 C24.7734375,379.6875 24.0703125,380.492188 23.7734375,381.117188 L23.6796875,381.117188 L24.46875,376.773438 L23.328125,376.773438 L21.328125,388 L22.4609375,388 L22.7578125,386.328125 L22.84375,386.328125 C23.046875,387.171875 23.9765625,388.132812 25.3359375,388.132812 Z M25.3046875,387.09375 C24.296875,387.09375 23.1484375,386.34375 23.140625,384.71875 C23.140625,384.679688 23.140625,384.507812 23.1796875,384.320312 L23.3828125,383.046875 C23.609375,381.679688 24.5,380.648438 25.828125,380.648438 C27.1171875,380.648438 27.9375,381.484375 27.9375,382.882812 C27.9375,383.09375 27.9296875,383.382812 27.8984375,383.585938 L27.6796875,384.828125 C27.453125,386.085938 26.6015625,387.09375 25.3046875,387.09375 Z M32.9921875,388.132812 C34.265625,388.132812 35.0859375,387.4375 35.3671875,386.875 L35.4453125,386.875 L35.25,388 L36.359375,388 L37.1640625,383.4375 C37.2421875,383.046875 37.3125,382.59375 37.3125,382.164062 C37.3125,380.703125 36.3203125,379.6875 34.46875,379.6875 C32.75,379.6875 31.640625,380.546875 31.421875,381.71875 L32.53125,381.71875 C32.7109375,381.171875 33.296875,380.671875 34.3828125,380.671875 C35.7265625,380.671875 36.2265625,381.46875 36.2265625,382.265625 C36.2265625,382.421875 36.203125,382.601562 36.1875,382.695312 L36.1015625,383.242188 L33.828125,383.242188 C31.75,383.242188 30.6796875,384.164062 30.5390625,385.507812 C30.5234375,385.640625 30.5234375,385.765625 30.5234375,385.867188 C30.5234375,387.289062 31.640625,388.132812 32.9921875,388.132812 Z M33.265625,387.15625 C32.265625,387.15625 31.671875,386.578125 31.671875,385.757812 C31.671875,384.898438 32.3359375,384.179688 33.7265625,384.179688 L35.8984375,384.179688 L35.7109375,385.25 C35.5078125,386.367188 34.4609375,387.15625 33.265625,387.15625 Z M32.734375,390.546875 C33.1875,390.546875 33.5078125,390.25 33.5078125,389.804688 C33.5078125,389.367188 33.1875,389.054688 32.734375,389.054688 C32.2890625,389.054688 31.96875,389.367188 31.96875,389.804688 C31.96875,390.25 32.2890625,390.546875 32.734375,390.546875 Z M40.3203125,388 L41.1640625,383.195312 C41.3984375,381.859375 42.234375,380.65625 43.703125,380.65625 C44.921875,380.65625 45.390625,381.5 45.390625,382.460938 C45.390625,382.820312 45.328125,383.226562 45.2890625,383.445312 L44.484375,388 L45.625,388 L46.421875,383.515625 C46.4921875,383.109375 46.5625,382.664062 46.5625,382.25 C46.5625,380.914062 45.7890625,379.6875 44.0390625,379.6875 C42.859375,379.6875 42.015625,380.25 41.5703125,381.1875 L41.484375,381.1875 L41.734375,379.820312 L40.6171875,379.820312 L39.171875,388 L40.3203125,388 Z M53.2421875,388 L54.0859375,383.195312 C54.3203125,381.859375 55.171875,380.65625 56.640625,380.65625 C57.859375,380.65625 58.3515625,381.492188 58.3515625,382.453125 C58.3515625,382.804688 58.2890625,383.234375 58.25,383.445312 L57.4453125,388 L58.59375,388 L59.3828125,383.515625 C59.453125,383.109375 59.5234375,382.65625 59.5234375,382.25 C59.5234375,380.898438 58.6875,379.6875 56.96875,379.6875 C55.75,379.6875 54.90625,380.28125 54.4921875,381.1875 L54.40625,381.1875 L55.21875,376.773438 L54.0859375,376.773438 L52.09375,388 L53.2421875,388 Z M66.7109375,378.414062 C67.6015625,378.414062 68.1640625,377.554688 68.234375,376.65625 L67.4296875,376.65625 C67.359375,377.234375 67.1171875,377.609375 66.7265625,377.609375 C66.0859375,377.609375 66.046875,376.390625 64.796875,376.390625 C63.921875,376.390625 63.3515625,377.132812 63.265625,378.148438 L64.0703125,378.148438 C64.1328125,377.5625 64.34375,377.195312 64.7734375,377.195312 C65.46875,377.195312 65.5,378.414062 66.7109375,378.414062 Z M63.8046875,388.132812 C65.078125,388.132812 65.8984375,387.4375 66.1796875,386.875 L66.2578125,386.875 L66.0625,388 L67.171875,388 L67.9765625,383.4375 C68.0546875,383.046875 68.125,382.59375 68.125,382.164062 C68.125,380.703125 67.1328125,379.6875 65.28125,379.6875 C63.5625,379.6875 62.453125,380.546875 62.234375,381.71875 L63.34375,381.71875 C63.5234375,381.171875 64.109375,380.671875 65.1953125,380.671875 C66.5390625,380.671875 67.0390625,381.46875 67.0390625,382.265625 C67.0390625,382.421875 67.015625,382.601562 67,382.695312 L66.9140625,383.242188 L64.640625,383.242188 C62.5625,383.242188 61.4921875,384.164062 61.3515625,385.507812 C61.3359375,385.640625 61.3359375,385.765625 61.3359375,385.867188 C61.3359375,387.289062 62.453125,388.132812 63.8046875,388.132812 Z M64.078125,387.15625 C63.078125,387.15625 62.484375,386.578125 62.484375,385.757812 C62.484375,384.898438 63.1484375,384.179688 64.5390625,384.179688 L66.7109375,384.179688 L66.5234375,385.25 C66.3203125,386.367188 65.2734375,387.15625 64.078125,387.15625 Z M69.9921875,390.835938 C71.3984375,390.835938 72.015625,390.382812 72.828125,388.78125 L73.21875,388.015625 L77.4921875,379.820312 L76.265625,379.820312 L72.8984375,386.664062 L72.8203125,386.664062 L71.6953125,379.820312 L70.4765625,379.820312 L72.0390625,387.929688 L71.7734375,388.5 C71.3203125,389.492188 70.8515625,389.867188 70.109375,389.867188 C69.8515625,389.867188 69.5859375,389.835938 69.3984375,389.789062 L69.1875,390.734375 C69.359375,390.78125 69.6953125,390.835938 69.9921875,390.835938 Z M83.0859375,388 L83.9296875,383.195312 C84.1640625,381.859375 85,380.65625 86.46875,380.65625 C87.6875,380.65625 88.15625,381.5 88.15625,382.460938 C88.15625,382.820312 88.09375,383.226562 88.0546875,383.445312 L87.25,388 L88.390625,388 L89.1875,383.515625 C89.2578125,383.109375 89.328125,382.664062 89.328125,382.25 C89.328125,380.914062 88.5546875,379.6875 86.8046875,379.6875 C85.625,379.6875 84.78125,380.25 84.3359375,381.1875 L84.25,381.1875 L84.5,379.820312 L83.3828125,379.820312 L81.9375,388 L83.0859375,388 Z M92.3515625,388 L93.1953125,383.195312 C93.4296875,381.859375 94.28125,380.65625 95.75,380.65625 C96.96875,380.65625 97.4609375,381.492188 97.4609375,382.453125 C97.4609375,382.804688 97.3984375,383.234375 97.359375,383.445312 L96.5546875,388 L97.703125,388 L98.4921875,383.515625 C98.5625,383.109375 98.6328125,382.65625 98.6328125,382.25 C98.6328125,380.898438 97.796875,379.6875 96.078125,379.6875 C94.859375,379.6875 94.015625,380.28125 93.6015625,381.1875 L93.515625,381.1875 L94.328125,376.773438 L93.1953125,376.773438 L91.203125,388 L92.3515625,388 Z M103.515625,378.460938 L105.132812,376.296875 L105.15625,376.296875 L106.0625,378.460938 L107.0625,378.460938 L105.71875,375.523438 L104.796875,375.523438 L102.476562,378.460938 L103.515625,378.460938 Z M102.914062,388.132812 C104.1875,388.132812 105.007812,387.4375 105.289062,386.875 L105.367188,386.875 L105.171875,388 L106.28125,388 L107.085938,383.4375 C107.164062,383.046875 107.234375,382.59375 107.234375,382.164062 C107.234375,380.703125 106.242188,379.6875 104.390625,379.6875 C102.671875,379.6875 101.5625,380.546875 101.34375,381.71875 L102.453125,381.71875 C102.632812,381.171875 103.21875,380.671875 104.304688,380.671875 C105.648438,380.671875 106.148438,381.46875 106.148438,382.265625 C106.148438,382.421875 106.125,382.601562 106.109375,382.695312 L106.023438,383.242188 L103.75,383.242188 C101.671875,383.242188 100.601562,384.164062 100.460938,385.507812 C100.445312,385.640625 100.445312,385.765625 100.445312,385.867188 C100.445312,387.289062 101.5625,388.132812 102.914062,388.132812 Z M103.1875,387.15625 C102.1875,387.15625 101.59375,386.578125 101.59375,385.757812 C101.59375,384.898438 102.257812,384.179688 103.648438,384.179688 L105.820312,384.179688 L105.632812,385.25 C105.429688,386.367188 104.382812,387.15625 103.1875,387.15625 Z M102.65625,390.546875 C103.109375,390.546875 103.429688,390.25 103.429688,389.804688 C103.429688,389.367188 103.109375,389.054688 102.65625,389.054688 C102.210938,389.054688 101.890625,389.367188 101.890625,389.804688 C101.890625,390.25 102.210938,390.546875 102.65625,390.546875 Z M109.765625,390.703125 L110.515625,386.328125 L110.609375,386.328125 C110.765625,387.078125 111.632812,388.132812 113.046875,388.132812 C114.984375,388.132812 116.1875,386.835938 116.445312,385.21875 L116.726562,383.679688 C116.789062,383.359375 116.789062,383.007812 116.789062,382.734375 C116.789062,380.84375 115.578125,379.6875 113.875,379.6875 C112.476562,379.6875 111.773438,380.5 111.507812,381.117188 L111.414062,381.117188 L111.648438,379.820312 L110.53125,379.820312 L108.617188,390.703125 L109.765625,390.703125 Z M113.007813,387.09375 C111.992188,387.09375 110.859375,386.320312 110.859375,384.71875 C110.851563,384.679688 110.859375,384.507812 110.890625,384.320312 L111.101563,383.046875 C111.328125,381.65625 112.226563,380.648438 113.53125,380.648438 C114.835938,380.648438 115.6875,381.492188 115.6875,382.882812 C115.6875,383.101562 115.679688,383.390625 115.648438,383.585938 L115.429688,384.828125 C115.203125,386.0625 114.34375,387.09375 113.007813,387.09375 Z M123.234375,388 L124.679688,379.75 L124.757812,379.75 L126.703125,387.171875 L127.476562,387.171875 L132.046875,379.75 L132.117188,379.75 L130.664062,388 L131.773438,388 L133.648438,377.335938 L132.429688,377.335938 L127.359375,385.648438 L127.304688,385.648438 L125.109375,377.335938 L124.015625,377.335938 L122.132812,388 L123.234375,388 Z M137.75,378.460938 L139.367188,376.296875 L139.390625,376.296875 L140.296875,378.460938 L141.296875,378.460938 L139.953125,375.523438 L139.03125,375.523438 L136.710938,378.460938 L137.75,378.460938 Z M137.148438,388.132812 C138.421875,388.132812 139.242188,387.4375 139.523438,386.875 L139.601562,386.875 L139.40625,388 L140.515625,388 L141.320312,383.4375 C141.398438,383.046875 141.46875,382.59375 141.46875,382.164062 C141.46875,380.703125 140.476562,379.6875 138.625,379.6875 C136.90625,379.6875 135.796875,380.546875 135.578125,381.71875 L136.6875,381.71875 C136.867188,381.171875 137.453125,380.671875 138.539062,380.671875 C139.882812,380.671875 140.382812,381.46875 140.382812,382.265625 C140.382812,382.421875 140.359375,382.601562 140.34375,382.695312 L140.257812,383.242188 L137.984375,383.242188 C135.90625,383.242188 134.835938,384.164062 134.695312,385.507812 C134.679688,385.640625 134.679688,385.765625 134.679688,385.867188 C134.679688,387.289062 135.796875,388.132812 137.148438,388.132812 Z M137.421875,387.15625 C136.421875,387.15625 135.828125,386.578125 135.828125,385.757812 C135.828125,384.898438 136.492188,384.179688 137.882812,384.179688 L140.054688,384.179688 L139.867188,385.25 C139.664062,386.367188 138.617188,387.15625 137.421875,387.15625 Z M136.890625,390.546875 C137.34375,390.546875 137.664062,390.25 137.664062,389.804688 C137.664062,389.367188 137.34375,389.054688 136.890625,389.054688 C136.445312,389.054688 136.125,389.367188 136.125,389.804688 C136.125,390.25 136.445312,390.546875 136.890625,390.546875 Z M145.976562,388.070312 C146.359375,388.070312 146.851562,388.023438 147.078125,387.96875 L147.25,387.023438 C147.015625,387.070312 146.585938,387.109375 146.242188,387.109375 C145.53125,387.109375 145.21875,386.851562 145.21875,386.265625 C145.21875,386.03125 145.257812,385.773438 145.382812,385.054688 L146.132812,380.765625 L147.984375,380.765625 L148.15625,379.820312 L146.304688,379.820312 L146.65625,377.773438 L145.53125,377.773438 L145.15625,379.820312 L143.859375,379.820312 L143.6875,380.765625 L144.992188,380.765625 L144.15625,385.5 C144.085938,385.929688 144.039062,386.296875 144.039062,386.546875 C144.039062,387.5625 144.6875,388.070312 145.976562,388.070312 Z M2.15625,412 L2.765625,408.546875 L3.8984375,407.648438 L6.1796875,412 L7.453125,412 L4.796875,407.039062 L8.8125,403.820312 L7.21875,403.820312 L3.09375,407.179688 L3.015625,407.179688 L4.1328125,400.773438 L2.9921875,400.773438 L1.015625,412 L2.15625,412 Z M10.5234375,412 L11.3671875,407.195312 C11.6015625,405.859375 12.453125,404.65625 13.921875,404.65625 C15.140625,404.65625 15.6328125,405.492188 15.6328125,406.453125 C15.6328125,406.804688 15.5703125,407.234375 15.53125,407.445312 L14.7265625,412 L15.875,412 L16.6640625,407.515625 C16.734375,407.109375 16.8046875,406.65625 16.8046875,406.25 C16.8046875,404.898438 15.96875,403.6875 14.25,403.6875 C13.03125,403.6875 12.1875,404.28125 11.7734375,405.1875 L11.6875,405.1875 L12.5,400.773438 L11.3671875,400.773438 L9.375,412 L10.5234375,412 Z M25.25,400.921875 C26.09375,400.664062 26.625,400.0625 26.625,399.351562 C26.625,398.609375 26.1015625,398.210938 25.1171875,398.210938 C24.90625,398.210938 24.6875,398.25 24.546875,398.296875 L24.4296875,398.96875 C24.59375,398.90625 24.8359375,398.867188 25.015625,398.867188 C25.5625,398.867188 25.84375,399.0625 25.84375,399.460938 C25.84375,399.828125 25.515625,400.148438 24.9453125,400.328125 L25.25,400.921875 Z M21.6328125,402.453125 L23.234375,400.9375 L23.265625,400.9375 L24.2421875,402.453125 L25.1953125,402.453125 L23.734375,400.21875 L22.9921875,400.21875 L20.59375,402.453125 L21.6328125,402.453125 Z M21.0859375,412.132812 C22.359375,412.132812 23.1796875,411.4375 23.4609375,410.875 L23.5390625,410.875 L23.34375,412 L24.453125,412 L25.2578125,407.4375 C25.3359375,407.046875 25.40625,406.59375 25.40625,406.164062 C25.40625,404.703125 24.4140625,403.6875 22.5625,403.6875 C20.84375,403.6875 19.734375,404.546875 19.515625,405.71875 L20.625,405.71875 C20.8046875,405.171875 21.390625,404.671875 22.4765625,404.671875 C23.8203125,404.671875 24.3203125,405.46875 24.3203125,406.265625 C24.3203125,406.421875 24.296875,406.601562 24.28125,406.695312 L24.1953125,407.242188 L21.921875,407.242188 C19.84375,407.242188 18.7734375,408.164062 18.6328125,409.507812 C18.6171875,409.640625 18.6171875,409.765625 18.6171875,409.867188 C18.6171875,411.289062 19.734375,412.132812 21.0859375,412.132812 Z M21.359375,411.15625 C20.359375,411.15625 19.765625,410.578125 19.765625,409.757812 C19.765625,408.898438 20.4296875,408.179688 21.8203125,408.179688 L23.9921875,408.179688 L23.8046875,409.25 C23.6015625,410.367188 22.5546875,411.15625 21.359375,411.15625 Z M30.2109375,412.132812 C31.3984375,412.132812 32.2578125,411.46875 32.6484375,410.585938 L32.7421875,410.585938 L32.4921875,412 L33.5703125,412 L35.0078125,403.820312 L33.9140625,403.820312 L33.0703125,408.585938 C32.84375,409.921875 32.03125,411.109375 30.5703125,411.109375 C29.3671875,411.109375 28.7890625,410.414062 28.7890625,409.390625 C28.7890625,409.054688 28.84375,408.640625 28.8984375,408.34375 L29.7109375,403.820312 L28.578125,403.820312 L27.765625,408.273438 C27.6875,408.648438 27.609375,409.15625 27.609375,409.59375 C27.609375,410.992188 28.53125,412.132812 30.2109375,412.132812 Z M41.359375,412 L43.34375,400.773438 L42.1953125,400.773438 L40.2109375,412 L41.359375,412 Z M49.328125,402.460938 L47.859375,399.71875 L46.609375,399.71875 L48.453125,402.460938 L49.328125,402.460938 Z M46.7421875,412.132812 C48.015625,412.132812 48.8359375,411.4375 49.1171875,410.875 L49.1953125,410.875 L49,412 L50.109375,412 L50.9140625,407.4375 C50.9921875,407.046875 51.0625,406.59375 51.0625,406.164062 C51.0625,404.703125 50.0703125,403.6875 48.21875,403.6875 C46.5,403.6875 45.390625,404.546875 45.171875,405.71875 L46.28125,405.71875 C46.4609375,405.171875 47.046875,404.671875 48.1328125,404.671875 C49.4765625,404.671875 49.9765625,405.46875 49.9765625,406.265625 C49.9765625,406.421875 49.953125,406.601562 49.9375,406.695312 L49.8515625,407.242188 L47.578125,407.242188 C45.5,407.242188 44.4296875,408.164062 44.2890625,409.507812 C44.2734375,409.640625 44.2734375,409.765625 44.2734375,409.867188 C44.2734375,411.289062 45.390625,412.132812 46.7421875,412.132812 Z M47.015625,411.15625 C46.015625,411.15625 45.421875,410.578125 45.421875,409.757812 C45.421875,408.898438 46.0859375,408.179688 47.4765625,408.179688 L49.6484375,408.179688 L49.4609375,409.25 C49.2578125,410.367188 48.2109375,411.15625 47.015625,411.15625 Z M60.8671875,412.203125 C63.2734375,412.203125 64.828125,410.804688 65.109375,408.976562 C65.125,408.90625 65.1484375,408.734375 65.15625,408.703125 L63.140625,408.703125 C62.9375,409.671875 62.15625,410.296875 61.03125,410.296875 C59.6015625,410.296875 58.8203125,409.34375 58.8203125,407.929688 C58.8203125,407.640625 58.859375,407.125 58.9140625,406.84375 L59.15625,405.625 C59.5078125,403.835938 60.390625,403.007812 61.671875,403.007812 C62.8046875,403.007812 63.6328125,403.75 63.703125,404.75 C63.7109375,404.84375 63.703125,405 63.6875,405.132812 L65.703125,405.132812 C65.7578125,404.96875 65.7734375,404.703125 65.7734375,404.53125 C65.7734375,402.726562 64.1796875,401.140625 61.6875,401.140625 C59.140625,401.140625 57.5,402.742188 57.0390625,405.296875 L56.734375,406.898438 C56.6796875,407.210938 56.6640625,407.671875 56.6640625,407.914062 C56.6640625,410.617188 58.2421875,412.203125 60.8671875,412.203125 Z M68.5390625,412 L69.375,407.289062 C69.578125,406.117188 70.2421875,405.25 71.34375,405.25 C72.2734375,405.25 72.65625,405.851562 72.65625,406.617188 C72.65625,406.914062 72.6015625,407.289062 72.5703125,407.492188 L71.78125,412 L73.8515625,412 L74.625,407.601562 C74.7265625,407.015625 74.796875,406.523438 74.796875,406.109375 C74.796875,404.695312 73.9140625,403.570312 72.2578125,403.570312 C71.125,403.570312 70.2890625,404.101562 69.8671875,404.984375 L69.75,404.984375 L70.515625,400.773438 L68.4453125,400.773438 L66.46875,412 L68.5390625,412 Z M78.609375,412.125 C79.8046875,412.125 80.546875,411.507812 80.8359375,410.921875 L80.9453125,410.921875 L80.75,412 L82.6953125,412 L83.5390625,407.226562 C83.59375,406.914062 83.6484375,406.5625 83.6484375,406.28125 C83.6484375,404.578125 82.4609375,403.570312 80.4453125,403.570312 C78.3203125,403.570312 77.1953125,404.703125 77,405.96875 L78.9453125,405.96875 C79.0859375,405.507812 79.5390625,405.15625 80.3046875,405.15625 C81.265625,405.15625 81.6640625,405.703125 81.6640625,406.28125 C81.6640625,406.382812 81.6484375,406.5 81.6328125,406.570312 L81.546875,407.125 L79.5234375,407.125 C77.5,407.125 76.2265625,407.992188 76.140625,409.585938 C76.1328125,409.65625 76.1328125,409.726562 76.1328125,409.78125 C76.1328125,411.273438 77.234375,412.125 78.609375,412.125 Z M79.3984375,410.578125 C78.65625,410.578125 78.1875,410.140625 78.1875,409.53125 C78.1875,408.898438 78.6875,408.382812 79.7109375,408.382812 L81.3125,408.382812 L81.1484375,409.289062 C81,410.046875 80.2421875,410.578125 79.3984375,410.578125 Z M87.0625,412 L87.890625,407.289062 C88.109375,406.070312 88.7421875,405.25 89.84375,405.25 C90.6875,405.25 91.125,405.8125 91.125,406.625 C91.125,406.890625 91.078125,407.265625 91.0390625,407.492188 L90.25,412 L92.3203125,412 L93.09375,407.601562 C93.171875,407.164062 93.2734375,406.609375 93.2734375,406.101562 C93.2734375,404.6875 92.4296875,403.570312 90.7578125,403.570312 C89.5390625,403.570312 88.765625,404.179688 88.359375,404.984375 L88.2421875,404.984375 L88.4765625,403.695312 L86.4453125,403.695312 L84.9921875,412 L87.0625,412 Z M98.34375,412.148438 C100.140625,412.148438 101.648438,411.257812 101.882812,409.507812 L99.921875,409.507812 C99.796875,410.039062 99.296875,410.421875 98.46875,410.421875 C97.359375,410.421875 96.8671875,409.726562 96.8671875,408.648438 C96.8671875,408.453125 96.8828125,408.203125 96.9375,407.898438 L97.09375,407.054688 C97.3046875,405.867188 98.0234375,405.242188 98.921875,405.242188 C99.8984375,405.242188 100.367188,405.929688 100.367188,406.507812 C100.367188,406.53125 100.367188,406.585938 100.359375,406.617188 L102.304688,406.617188 C102.320312,406.570312 102.328125,406.476562 102.328125,406.382812 C102.328125,404.648438 100.882812,403.546875 98.9375,403.546875 C97.0546875,403.546875 95.5078125,404.570312 95.1171875,406.773438 L94.9453125,407.726562 C94.875,408.117188 94.8359375,408.53125 94.8359375,408.851562 C94.8359375,410.890625 96.203125,412.148438 98.34375,412.148438 Z M105.296875,412 L106.132812,407.289062 C106.335938,406.117188 107,405.25 108.101562,405.25 C109.03125,405.25 109.414062,405.851562 109.414062,406.617188 C109.414062,406.914062 109.359375,407.289062 109.328125,407.492188 L108.539062,412 L110.609375,412 L111.382812,407.601562 C111.484375,407.015625 111.554688,406.523438 111.554688,406.109375 C111.554688,404.695312 110.671875,403.570312 109.015625,403.570312 C107.882812,403.570312 107.046875,404.101562 106.625,404.984375 L106.507812,404.984375 L107.273438,400.773438 L105.203125,400.773438 L103.226562,412 L105.296875,412 Z M115.367188,412.125 C116.5625,412.125 117.304688,411.507812 117.59375,410.921875 L117.703125,410.921875 L117.507812,412 L119.453125,412 L120.296875,407.226562 C120.351562,406.914062 120.40625,406.5625 120.40625,406.28125 C120.40625,404.578125 119.21875,403.570312 117.203125,403.570312 C115.078125,403.570312 113.953125,404.703125 113.757812,405.96875 L115.703125,405.96875 C115.84375,405.507812 116.296875,405.15625 117.0625,405.15625 C118.023438,405.15625 118.421875,405.703125 118.421875,406.28125 C118.421875,406.382812 118.40625,406.5 118.390625,406.570312 L118.304688,407.125 L116.28125,407.125 C114.257812,407.125 112.984375,407.992188 112.898438,409.585938 C112.890625,409.65625 112.890625,409.726562 112.890625,409.78125 C112.890625,411.273438 113.992188,412.125 115.367188,412.125 Z M116.15625,410.578125 C115.414062,410.578125 114.945312,410.140625 114.945312,409.53125 C114.945312,408.898438 115.445312,408.382812 116.46875,408.382812 L118.070312,408.382812 L117.90625,409.289062 C117.757812,410.046875 117,410.578125 116.15625,410.578125 Z M123.820312,412 L124.648438,407.289062 C124.867188,406.070312 125.5,405.25 126.601562,405.25 C127.445312,405.25 127.882812,405.8125 127.882812,406.625 C127.882812,406.890625 127.835938,407.265625 127.796875,407.492188 L127.007812,412 L129.078125,412 L129.851562,407.601562 C129.929688,407.164062 130.03125,406.609375 130.03125,406.101562 C130.03125,404.6875 129.1875,403.570312 127.515625,403.570312 C126.296875,403.570312 125.523438,404.179688 125.117188,404.984375 L125,404.984375 L125.234375,403.695312 L123.203125,403.695312 L121.75,412 L123.820312,412 Z" id="Cảmơnbạnđãdànhthờigian!SauđâyđểkíchhoạtĐăngkýbạnhãynhậpMậtkhẩulàChanchan" fill-rule="nonzero"></path>
                <text id="chanchan" opacity="0" font-family="SFCompactDisplay-Light, SF Compact Display" font-size="24" font-weight="300" line-spacing="23" fill-opacity="0">
                    <tspan x="41" y="417">chanchan</tspan>
                </text>
            </g>
        </g>
    </g>
</svg>