<?xml version="1.0" encoding="UTF-8"?>
<svg width="320px" height="519px" viewBox="0 0 320 519" version="1.1" xmlns="http://www.w3.org/2000/svg" xmlns:xlink="http://www.w3.org/1999/xlink">
    <title>3</title>
    <g id="Chanchan" stroke="none" stroke-width="1" fill="none" fill-rule="evenodd">
        <g id="open-letter" transform="translate(0.000000, -1463.000000)">
            <g id="Group-6" transform="translate(35.000000, 1485.000000)">
                <text id="Như-bất-kỳ-Sản-phẩm" font-family="SFCompactDisplay-Light, SF Compact Display" font-size="16" font-weight="300" line-spacing="23" fill="#121721">
                    <tspan x="0" y="117">Như bất kỳ Sản phẩm mới nào, sự </tspan>
                    <tspan x="0" y="140">thành công luôn cần bắt đầu từ Thế </tspan>
                    <tspan x="0" y="163">hệ người dùng đầu tiên. Chúng tôi </tspan>
                    <tspan x="0" y="186">mong rằng qua những chia sẻ </tspan>
                    <tspan x="0" y="209">trên sẽ  nhận được sự đồng </tspan>
                    <tspan x="0" y="232">hành, ủng hộ cũng như </tspan>
                    <tspan x="0" y="255">những ý kiến đóng góp </tspan>
                    <tspan x="0" y="278">của các bạn.</tspan>
                </text>
                <text id="Chanchan-là-một-sản" font-family="SFCompactDisplay-Light, SF Compact Display" font-size="16" font-weight="300" line-spacing="23" fill="#121721">
                    <tspan x="0" y="55">Chanchan là một sản phẩm mới </tspan>
                    <tspan x="0" y="78">đang trong Giai đoạn Thử nghiệm. </tspan>
                </text>
                <text id="Mong-muốn" font-family="SFCompactDisplay-Semibold, SF Compact Display" font-size="20" font-weight="500" letter-spacing="-0.8" fill="#121721">
                    <tspan x="0" y="19">Mong muốn</tspan>
                </text>
                <rect id="Rectangle" fill="#32C5FF" opacity="0.649249181" x="56" y="389" width="75" height="8"></rect>
                <path d="M5.390625,320.226562 C7.3203125,320.226562 8.90625,319.15625 9.25,317.570312 C9.28125,317.453125 9.3046875,317.289062 9.3046875,317.234375 L8.15625,317.234375 C7.90625,318.398438 6.8671875,319.15625 5.4765625,319.15625 C3.6796875,319.15625 2.6171875,318.023438 2.6171875,316.140625 C2.6171875,315.804688 2.671875,315.148438 2.71875,314.898438 L3.046875,313.25 C3.4375,311.28125 4.515625,310.1875 6.1953125,310.1875 C7.6875,310.1875 8.734375,311.148438 8.84375,312.304688 C8.8515625,312.367188 8.8515625,312.4375 8.84375,312.53125 L9.96875,312.53125 C9.9765625,312.492188 9.984375,312.398438 9.984375,312.265625 C9.984375,310.554688 8.4375,309.109375 6.21875,309.109375 C3.953125,309.109375 2.375,310.601562 1.90625,313.03125 L1.5234375,314.992188 C1.484375,315.21875 1.453125,315.75 1.453125,316.179688 C1.453125,318.65625 2.96875,320.226562 5.390625,320.226562 Z M15.46875,310.75 C16.3984375,310.34375 16.8671875,309.828125 16.8671875,309.015625 C16.8671875,308.34375 16.328125,307.835938 15.421875,307.835938 C14.9765625,307.835938 14.75,307.890625 14.546875,307.984375 L14.4375,308.695312 C14.6171875,308.625 14.8359375,308.554688 15.2578125,308.554688 C15.6953125,308.554688 16.0078125,308.820312 16.0078125,309.140625 C16.0078125,309.492188 15.8125,309.765625 15.09375,310.125 L15.46875,310.75 Z M13.4921875,320.132812 C14.765625,320.132812 15.5859375,319.4375 15.8671875,318.875 L15.9453125,318.875 L15.75,320 L16.859375,320 L17.6640625,315.4375 C17.7421875,315.046875 17.8125,314.59375 17.8125,314.164062 C17.8125,312.703125 16.8203125,311.6875 14.96875,311.6875 C13.25,311.6875 12.140625,312.546875 11.921875,313.71875 L13.03125,313.71875 C13.2109375,313.171875 13.796875,312.671875 14.8828125,312.671875 C16.2265625,312.671875 16.7265625,313.46875 16.7265625,314.265625 C16.7265625,314.421875 16.703125,314.601562 16.6875,314.695312 L16.6015625,315.242188 L14.328125,315.242188 C12.25,315.242188 11.1796875,316.164062 11.0390625,317.507812 C11.0234375,317.640625 11.0234375,317.765625 11.0234375,317.867188 C11.0234375,319.289062 12.140625,320.132812 13.4921875,320.132812 Z M13.765625,319.15625 C12.765625,319.15625 12.171875,318.578125 12.171875,317.757812 C12.171875,316.898438 12.8359375,316.179688 14.2265625,316.179688 L16.3984375,316.179688 L16.2109375,317.25 C16.0078125,318.367188 14.9609375,319.15625 13.765625,319.15625 Z M20.8203125,320 L21.671875,315.15625 C21.90625,313.804688 22.6484375,312.65625 24.03125,312.65625 C25.15625,312.65625 25.5625,313.4375 25.5625,314.421875 C25.5625,314.773438 25.5234375,315.140625 25.484375,315.359375 L24.6640625,320 L25.8046875,320 L26.6640625,315.164062 C26.921875,313.71875 27.65625,312.65625 28.8984375,312.65625 C29.9765625,312.65625 30.390625,313.421875 30.390625,314.4375 C30.390625,314.78125 30.3359375,315.15625 30.296875,315.375 L29.484375,320 L30.625,320 L31.4296875,315.445312 C31.4921875,315.070312 31.5703125,314.578125 31.5703125,314.15625 C31.5703125,312.820312 30.8359375,311.6875 29.1875,311.6875 C27.734375,311.6875 27.015625,312.609375 26.734375,313.25 L26.65625,313.25 C26.390625,312.367188 25.6171875,311.6875 24.3671875,311.6875 C23.15625,311.6875 22.40625,312.390625 22.0703125,313.1875 L21.984375,313.1875 L22.2265625,311.820312 L21.1171875,311.820312 L19.671875,320 L20.8203125,320 Z M40.46875,320.132812 C42.5,320.132812 43.6953125,318.96875 44.046875,317.03125 L44.25,315.914062 C44.3046875,315.570312 44.3359375,315.1875 44.3359375,314.953125 C44.3359375,314.023438 44,313.242188 43.671875,312.84375 L43.6953125,312.78125 C44.90625,312.765625 45.3125,311.960938 45.5390625,310.6875 L45.734375,309.609375 L44.703125,309.609375 L44.4921875,310.78125 C44.3515625,311.554688 43.9609375,312.03125 43.171875,312.03125 C42.4375,312.03125 41.9375,311.6875 41.0234375,311.6875 C39.296875,311.6875 37.8984375,312.796875 37.5546875,314.765625 L37.359375,315.875 C37.296875,316.234375 37.2734375,316.625 37.2734375,317.007812 C37.2734375,318.96875 38.65625,320.132812 40.46875,320.132812 Z M40.609375,319.132812 C39.2265625,319.132812 38.390625,318.195312 38.390625,316.828125 C38.390625,316.46875 38.421875,316.210938 38.46875,315.953125 L38.6484375,314.984375 C38.9296875,313.382812 39.859375,312.6875 41,312.6875 C42.3515625,312.6875 43.1953125,313.632812 43.1953125,314.945312 C43.1953125,315.0625 43.1953125,315.453125 43.15625,315.703125 L42.9765625,316.742188 C42.703125,318.273438 41.8671875,319.132812 40.609375,319.132812 Z M47.0859375,320 L47.9296875,315.195312 C48.1640625,313.859375 49,312.65625 50.46875,312.65625 C51.6875,312.65625 52.15625,313.5 52.15625,314.460938 C52.15625,314.820312 52.09375,315.226562 52.0546875,315.445312 L51.25,320 L52.390625,320 L53.1875,315.515625 C53.2578125,315.109375 53.328125,314.664062 53.328125,314.25 C53.328125,312.914062 52.5546875,311.6875 50.8046875,311.6875 C49.625,311.6875 48.78125,312.25 48.3359375,313.1875 L48.25,313.1875 L48.5,311.820312 L47.3828125,311.820312 L45.9375,320 L47.0859375,320 Z M62.8671875,320.132812 C64.78125,320.132812 65.9453125,318.859375 66.234375,317.21875 L66.5,315.679688 C66.5546875,315.359375 66.5703125,315.007812 66.5703125,314.734375 C66.5703125,312.835938 65.3984375,311.6875 63.6875,311.6875 C62.3046875,311.6875 61.6015625,312.492188 61.3046875,313.117188 L61.2109375,313.117188 L62,308.773438 L60.859375,308.773438 L58.859375,320 L59.9921875,320 L60.2890625,318.328125 L60.375,318.328125 C60.578125,319.171875 61.5078125,320.132812 62.8671875,320.132812 Z M62.8359375,319.09375 C61.828125,319.09375 60.6796875,318.34375 60.671875,316.71875 C60.671875,316.679688 60.671875,316.507812 60.7109375,316.320312 L60.9140625,315.046875 C61.140625,313.679688 62.03125,312.648438 63.359375,312.648438 C64.6484375,312.648438 65.46875,313.484375 65.46875,314.882812 C65.46875,315.09375 65.4609375,315.382812 65.4296875,315.585938 L65.2109375,316.828125 C64.984375,318.085938 64.1328125,319.09375 62.8359375,319.09375 Z M70.5234375,320.132812 C71.796875,320.132812 72.6171875,319.4375 72.8984375,318.875 L72.9765625,318.875 L72.78125,320 L73.890625,320 L74.6953125,315.4375 C74.7734375,315.046875 74.84375,314.59375 74.84375,314.164062 C74.84375,312.703125 73.8515625,311.6875 72,311.6875 C70.28125,311.6875 69.171875,312.546875 68.953125,313.71875 L70.0625,313.71875 C70.2421875,313.171875 70.828125,312.671875 71.9140625,312.671875 C73.2578125,312.671875 73.7578125,313.46875 73.7578125,314.265625 C73.7578125,314.421875 73.734375,314.601562 73.71875,314.695312 L73.6328125,315.242188 L71.359375,315.242188 C69.28125,315.242188 68.2109375,316.164062 68.0703125,317.507812 C68.0546875,317.640625 68.0546875,317.765625 68.0546875,317.867188 C68.0546875,319.289062 69.171875,320.132812 70.5234375,320.132812 Z M70.796875,319.15625 C69.796875,319.15625 69.203125,318.578125 69.203125,317.757812 C69.203125,316.898438 69.8671875,316.179688 71.2578125,316.179688 L73.4296875,316.179688 L73.2421875,317.25 C73.0390625,318.367188 71.9921875,319.15625 70.796875,319.15625 Z M70.265625,322.546875 C70.71875,322.546875 71.0390625,322.25 71.0390625,321.804688 C71.0390625,321.367188 70.71875,321.054688 70.265625,321.054688 C69.8203125,321.054688 69.5,321.367188 69.5,321.804688 C69.5,322.25 69.8203125,322.546875 70.265625,322.546875 Z M77.8515625,320 L78.6953125,315.195312 C78.9296875,313.859375 79.765625,312.65625 81.234375,312.65625 C82.453125,312.65625 82.921875,313.5 82.921875,314.460938 C82.921875,314.820312 82.859375,315.226562 82.8203125,315.445312 L82.015625,320 L83.15625,320 L83.953125,315.515625 C84.0234375,315.109375 84.09375,314.664062 84.09375,314.25 C84.09375,312.914062 83.3203125,311.6875 81.5703125,311.6875 C80.390625,311.6875 79.546875,312.25 79.1015625,313.1875 L79.015625,313.1875 L79.265625,311.820312 L78.1484375,311.820312 L76.703125,320 L77.8515625,320 Z M92.7109375,320.117188 C94.078125,320.117188 94.859375,319.25 95.09375,318.617188 L95.1875,318.617188 L94.9453125,320 L96.0625,320 L97.703125,310.726562 L98.984375,310.726562 L99.1484375,309.8125 L97.8671875,309.8125 L98.0546875,308.773438 L96.8984375,308.773438 L96.71875,309.8125 L94.921875,309.8125 L94.765625,310.726562 L96.5625,310.726562 L96.0859375,313.429688 L95.9921875,313.429688 C95.8515625,312.671875 94.9609375,311.6875 93.53125,311.6875 C91.6015625,311.6875 90.4453125,312.9375 90.140625,314.546875 L89.8515625,316.078125 C89.7890625,316.375 89.7734375,316.734375 89.7734375,317.039062 C89.7734375,318.90625 91.0078125,320.117188 92.7109375,320.117188 Z M93.046875,319.109375 C91.7421875,319.109375 90.9140625,318.265625 90.9140625,316.867188 C90.9140625,316.59375 90.9375,316.296875 90.9609375,316.15625 L91.203125,314.9375 C91.4609375,313.640625 92.25,312.664062 93.578125,312.664062 C94.640625,312.664062 95.7734375,313.429688 95.7734375,315.03125 C95.7734375,315.101562 95.7578125,315.234375 95.7265625,315.429688 L95.5078125,316.703125 C95.2578125,318.101562 94.3671875,319.109375 93.046875,319.109375 Z M104.242188,310.414062 C105.132812,310.414062 105.695312,309.554688 105.765625,308.65625 L104.960938,308.65625 C104.890625,309.234375 104.648438,309.609375 104.257812,309.609375 C103.617188,309.609375 103.578125,308.390625 102.328125,308.390625 C101.453125,308.390625 100.882812,309.132812 100.796875,310.148438 L101.601562,310.148438 C101.664062,309.5625 101.875,309.195312 102.304688,309.195312 C103,309.195312 103.03125,310.414062 104.242188,310.414062 Z M101.335938,320.132812 C102.609375,320.132812 103.429688,319.4375 103.710938,318.875 L103.789062,318.875 L103.59375,320 L104.703125,320 L105.507812,315.4375 C105.585938,315.046875 105.65625,314.59375 105.65625,314.164062 C105.65625,312.703125 104.664062,311.6875 102.8125,311.6875 C101.09375,311.6875 99.984375,312.546875 99.765625,313.71875 L100.875,313.71875 C101.054688,313.171875 101.640625,312.671875 102.726562,312.671875 C104.070312,312.671875 104.570312,313.46875 104.570312,314.265625 C104.570312,314.421875 104.546875,314.601562 104.53125,314.695312 L104.445312,315.242188 L102.171875,315.242188 C100.09375,315.242188 99.0234375,316.164062 98.8828125,317.507812 C98.8671875,317.640625 98.8671875,317.765625 98.8671875,317.867188 C98.8671875,319.289062 99.984375,320.132812 101.335938,320.132812 Z M101.609375,319.15625 C100.609375,319.15625 100.015625,318.578125 100.015625,317.757812 C100.015625,316.898438 100.679688,316.179688 102.070312,316.179688 L104.242188,316.179688 L104.054688,317.25 C103.851562,318.367188 102.804688,319.15625 101.609375,319.15625 Z M114.257812,320.117188 C115.625,320.117188 116.40625,319.25 116.640625,318.617188 L116.734375,318.617188 L116.492188,320 L117.609375,320 L119.601562,308.773438 L118.445312,308.773438 L117.632812,313.429688 L117.539062,313.429688 C117.398438,312.671875 116.507812,311.6875 115.078125,311.6875 C113.148438,311.6875 111.992188,312.9375 111.6875,314.546875 L111.398438,316.078125 C111.335938,316.375 111.320312,316.734375 111.320312,317.039062 C111.320312,318.90625 112.554688,320.117188 114.257812,320.117188 Z M114.59375,319.109375 C113.289062,319.109375 112.460938,318.265625 112.460938,316.867188 C112.460938,316.59375 112.484375,316.296875 112.507812,316.15625 L112.75,314.9375 C113.007812,313.640625 113.796875,312.664062 115.125,312.664062 C116.1875,312.664062 117.320312,313.429688 117.320312,315.03125 C117.320312,315.101562 117.304688,315.234375 117.273438,315.429688 L117.054688,316.703125 C116.804688,318.101562 115.914062,319.109375 114.59375,319.109375 Z M125.445312,310.460938 L123.976562,307.71875 L122.726562,307.71875 L124.570312,310.460938 L125.445312,310.460938 Z M122.859375,320.132812 C124.132812,320.132812 124.953125,319.4375 125.234375,318.875 L125.3125,318.875 L125.117188,320 L126.226562,320 L127.03125,315.4375 C127.109375,315.046875 127.179688,314.59375 127.179688,314.164062 C127.179688,312.703125 126.1875,311.6875 124.335938,311.6875 C122.617188,311.6875 121.507812,312.546875 121.289062,313.71875 L122.398438,313.71875 C122.578125,313.171875 123.164062,312.671875 124.25,312.671875 C125.59375,312.671875 126.09375,313.46875 126.09375,314.265625 C126.09375,314.421875 126.070312,314.601562 126.054688,314.695312 L125.96875,315.242188 L123.695312,315.242188 C121.617188,315.242188 120.546875,316.164062 120.40625,317.507812 C120.390625,317.640625 120.390625,317.765625 120.390625,317.867188 C120.390625,319.289062 121.507812,320.132812 122.859375,320.132812 Z M123.132812,319.15625 C122.132812,319.15625 121.539062,318.578125 121.539062,317.757812 C121.539062,316.898438 122.203125,316.179688 123.59375,316.179688 L125.765625,316.179688 L125.578125,317.25 C125.375,318.367188 124.328125,319.15625 123.132812,319.15625 Z M130.1875,320 L131.03125,315.195312 C131.265625,313.859375 132.101562,312.65625 133.570312,312.65625 C134.789062,312.65625 135.257812,313.5 135.257812,314.460938 C135.257812,314.820312 135.195312,315.226562 135.15625,315.445312 L134.351562,320 L135.492188,320 L136.289062,315.515625 C136.359375,315.109375 136.429688,314.664062 136.429688,314.25 C136.429688,312.914062 135.65625,311.6875 133.90625,311.6875 C132.726562,311.6875 131.882812,312.25 131.4375,313.1875 L131.351562,313.1875 L131.601562,311.820312 L130.484375,311.820312 L129.039062,320 L130.1875,320 Z M139.453125,320 L140.296875,315.195312 C140.53125,313.859375 141.382812,312.65625 142.851562,312.65625 C144.070312,312.65625 144.5625,313.492188 144.5625,314.453125 C144.5625,314.804688 144.5,315.234375 144.460938,315.445312 L143.65625,320 L144.804688,320 L145.59375,315.515625 C145.664062,315.109375 145.734375,314.65625 145.734375,314.25 C145.734375,312.898438 144.898438,311.6875 143.179688,311.6875 C141.960938,311.6875 141.117188,312.28125 140.703125,313.1875 L140.617188,313.1875 L141.429688,308.773438 L140.296875,308.773438 L138.304688,320 L139.453125,320 Z M3.6640625,344.070312 C4.046875,344.070312 4.5390625,344.023438 4.765625,343.96875 L4.9375,343.023438 C4.703125,343.070312 4.2734375,343.109375 3.9296875,343.109375 C3.21875,343.109375 2.90625,342.851562 2.90625,342.265625 C2.90625,342.03125 2.9453125,341.773438 3.0703125,341.054688 L3.8203125,336.765625 L5.671875,336.765625 L5.84375,335.820312 L3.9921875,335.820312 L4.34375,333.773438 L3.21875,333.773438 L2.84375,335.820312 L1.546875,335.820312 L1.375,336.765625 L2.6796875,336.765625 L1.84375,341.5 C1.7734375,341.929688 1.7265625,342.296875 1.7265625,342.546875 C1.7265625,343.5625 2.375,344.070312 3.6640625,344.070312 Z M7.9921875,344 L8.8359375,339.195312 C9.0703125,337.859375 9.921875,336.65625 11.390625,336.65625 C12.609375,336.65625 13.1015625,337.492188 13.1015625,338.453125 C13.1015625,338.804688 13.0390625,339.234375 13,339.445312 L12.1953125,344 L13.34375,344 L14.1328125,339.515625 C14.203125,339.109375 14.2734375,338.65625 14.2734375,338.25 C14.2734375,336.898438 13.4375,335.6875 11.71875,335.6875 C10.5,335.6875 9.65625,336.28125 9.2421875,337.1875 L9.15625,337.1875 L9.96875,332.773438 L8.8359375,332.773438 L6.84375,344 L7.9921875,344 Z M21.5,334.460938 L20.03125,331.71875 L18.78125,331.71875 L20.625,334.460938 L21.5,334.460938 Z M19.53125,344.132812 C21.5625,344.132812 22.7578125,342.96875 23.109375,341.03125 L23.3125,339.914062 C23.3671875,339.570312 23.3984375,339.1875 23.3984375,338.953125 C23.3984375,338.023438 23.0625,337.242188 22.734375,336.84375 L22.7578125,336.78125 C23.96875,336.765625 24.375,335.960938 24.6015625,334.6875 L24.796875,333.609375 L23.765625,333.609375 L23.5546875,334.78125 C23.4140625,335.554688 23.0234375,336.03125 22.234375,336.03125 C21.5,336.03125 21,335.6875 20.0859375,335.6875 C18.359375,335.6875 16.9609375,336.796875 16.6171875,338.765625 L16.421875,339.875 C16.359375,340.234375 16.3359375,340.625 16.3359375,341.007812 C16.3359375,342.96875 17.71875,344.132812 19.53125,344.132812 Z M19.671875,343.132812 C18.2890625,343.132812 17.453125,342.195312 17.453125,340.828125 C17.453125,340.46875 17.484375,340.210938 17.53125,339.953125 L17.7109375,338.984375 C17.9921875,337.382812 18.921875,336.6875 20.0625,336.6875 C21.4140625,336.6875 22.2578125,337.632812 22.2578125,338.945312 C22.2578125,339.0625 22.2578125,339.453125 22.21875,339.703125 L22.0390625,340.742188 C21.765625,342.273438 20.9296875,343.132812 19.671875,343.132812 Z M27.4140625,334.1875 C27.921875,334.1875 28.296875,333.820312 28.296875,333.328125 C28.296875,332.828125 27.921875,332.453125 27.4140625,332.453125 C26.9375,332.453125 26.5546875,332.828125 26.5546875,333.328125 C26.5546875,333.820312 26.9375,334.1875 27.4140625,334.1875 Z M26.25,344 L27.6875,335.820312 L26.546875,335.820312 L25.109375,344 L26.25,344 Z M35.6640625,346.96875 C37.7265625,346.96875 38.953125,345.984375 39.328125,343.867188 L40.7421875,335.820312 L39.6171875,335.820312 L39.3359375,337.429688 L39.2421875,337.429688 C39,336.53125 38.1328125,335.6875 36.734375,335.6875 C35.21875,335.6875 33.765625,336.59375 33.3671875,338.6875 L33.1875,339.640625 C33.125,339.953125 33.078125,340.476562 33.078125,340.757812 C33.078125,342.6875 34.5078125,343.851562 36.0234375,343.851562 C37.3125,343.851562 38.0859375,343.1875 38.3828125,342.46875 L38.4765625,342.46875 L38.265625,343.664062 C37.9921875,345.234375 37.2109375,345.992188 35.734375,345.992188 C34.515625,345.992188 33.7265625,345.304688 33.7265625,344.65625 L33.7265625,344.554688 L33.7265625,344.554688 L32.609375,344.554688 C32.609375,344.5625 32.6015625,344.65625 32.6015625,344.671875 C32.6015625,345.867188 33.7890625,346.96875 35.6640625,346.96875 Z M36.375,342.890625 C35.0703125,342.890625 34.203125,342.109375 34.203125,340.585938 C34.203125,340.375 34.2578125,339.945312 34.296875,339.71875 L34.4296875,339.039062 C34.703125,337.554688 35.5703125,336.65625 36.7890625,336.65625 C38.0546875,336.65625 38.984375,337.539062 38.984375,338.976562 C38.984375,339.046875 38.984375,339.28125 38.90625,339.71875 L38.7578125,340.554688 C38.5234375,341.921875 37.5859375,342.890625 36.375,342.890625 Z M44.5859375,334.1875 C45.09375,334.1875 45.46875,333.820312 45.46875,333.328125 C45.46875,332.828125 45.09375,332.453125 44.5859375,332.453125 C44.109375,332.453125 43.7265625,332.828125 43.7265625,333.328125 C43.7265625,333.820312 44.109375,334.1875 44.5859375,334.1875 Z M43.421875,344 L44.859375,335.820312 L43.71875,335.820312 L42.28125,344 L43.421875,344 Z M48.796875,344.132812 C50.0703125,344.132812 50.890625,343.4375 51.171875,342.875 L51.25,342.875 L51.0546875,344 L52.1640625,344 L52.96875,339.4375 C53.046875,339.046875 53.1171875,338.59375 53.1171875,338.164062 C53.1171875,336.703125 52.125,335.6875 50.2734375,335.6875 C48.5546875,335.6875 47.4453125,336.546875 47.2265625,337.71875 L48.3359375,337.71875 C48.515625,337.171875 49.1015625,336.671875 50.1875,336.671875 C51.53125,336.671875 52.03125,337.46875 52.03125,338.265625 C52.03125,338.421875 52.0078125,338.601562 51.9921875,338.695312 L51.90625,339.242188 L49.6328125,339.242188 C47.5546875,339.242188 46.484375,340.164062 46.34375,341.507812 C46.328125,341.640625 46.328125,341.765625 46.328125,341.867188 C46.328125,343.289062 47.4453125,344.132812 48.796875,344.132812 Z M49.0703125,343.15625 C48.0703125,343.15625 47.4765625,342.578125 47.4765625,341.757812 C47.4765625,340.898438 48.140625,340.179688 49.53125,340.179688 L51.703125,340.179688 L51.515625,341.25 C51.3125,342.367188 50.265625,343.15625 49.0703125,343.15625 Z M56.125,344 L56.96875,339.195312 C57.203125,337.859375 58.0390625,336.65625 59.5078125,336.65625 C60.7265625,336.65625 61.1953125,337.5 61.1953125,338.460938 C61.1953125,338.820312 61.1328125,339.226562 61.09375,339.445312 L60.2890625,344 L61.4296875,344 L62.2265625,339.515625 C62.296875,339.109375 62.3671875,338.664062 62.3671875,338.25 C62.3671875,336.914062 61.59375,335.6875 59.84375,335.6875 C58.6640625,335.6875 57.8203125,336.25 57.375,337.1875 L57.2890625,337.1875 L57.5390625,335.820312 L56.421875,335.820312 L54.9765625,344 L56.125,344 Z M66.140625,340.710938 L67.65625,333.335938 L66.375,333.335938 L65.28125,340.710938 L66.140625,340.710938 Z M65.359375,344.132812 C65.9375,344.132812 66.375,343.703125 66.375,343.15625 C66.375,342.578125 65.9375,342.148438 65.359375,342.148438 C64.828125,342.148438 64.390625,342.578125 64.390625,343.15625 C64.390625,343.703125 64.828125,344.132812 65.359375,344.132812 Z M76.3671875,344.226562 C78.5703125,344.226562 80.1328125,343.0625 80.1328125,341.070312 C80.1328125,339.34375 78.8984375,338.757812 77.5078125,338.210938 L76.875,337.960938 C75.734375,337.507812 74.859375,337 74.859375,335.984375 C74.859375,334.71875 76.0703125,334.15625 77.2109375,334.15625 C78.484375,334.15625 79.5,334.882812 79.5,335.960938 C79.5,336.054688 79.4921875,336.09375 79.4921875,336.101562 L80.59375,336.101562 C80.59375,336.09375 80.609375,335.859375 80.609375,335.828125 C80.609375,334.109375 79,333.117188 77.2265625,333.117188 C75.234375,333.117188 73.65625,334.1875 73.65625,336.039062 C73.65625,337.71875 75.0546875,338.53125 76.421875,339.039062 L76.921875,339.226562 C78.0078125,339.632812 78.921875,340.0625 78.921875,341.179688 C78.921875,342.390625 77.921875,343.1875 76.421875,343.1875 C74.765625,343.1875 73.7890625,342.234375 73.7890625,341.257812 C73.7890625,341.195312 73.796875,341.109375 73.8046875,341.046875 L72.65625,341.046875 C72.640625,341.148438 72.6328125,341.289062 72.6328125,341.40625 C72.6328125,342.835938 74.0546875,344.226562 76.3671875,344.226562 Z M84.484375,344.132812 C85.7578125,344.132812 86.578125,343.4375 86.859375,342.875 L86.9375,342.875 L86.7421875,344 L87.8515625,344 L88.65625,339.4375 C88.734375,339.046875 88.8046875,338.59375 88.8046875,338.164062 C88.8046875,336.703125 87.8125,335.6875 85.9609375,335.6875 C84.2421875,335.6875 83.1328125,336.546875 82.9140625,337.71875 L84.0234375,337.71875 C84.203125,337.171875 84.7890625,336.671875 85.875,336.671875 C87.21875,336.671875 87.71875,337.46875 87.71875,338.265625 C87.71875,338.421875 87.6953125,338.601562 87.6796875,338.695312 L87.59375,339.242188 L85.3203125,339.242188 C83.2421875,339.242188 82.171875,340.164062 82.03125,341.507812 C82.015625,341.640625 82.015625,341.765625 82.015625,341.867188 C82.015625,343.289062 83.1328125,344.132812 84.484375,344.132812 Z M84.7578125,343.15625 C83.7578125,343.15625 83.1640625,342.578125 83.1640625,341.757812 C83.1640625,340.898438 83.828125,340.179688 85.21875,340.179688 L87.390625,340.179688 L87.203125,341.25 C87,342.367188 85.953125,343.15625 84.7578125,343.15625 Z M93.609375,344.132812 C94.796875,344.132812 95.65625,343.46875 96.046875,342.585938 L96.140625,342.585938 L95.890625,344 L96.96875,344 L98.40625,335.820312 L97.3125,335.820312 L96.46875,340.585938 C96.2421875,341.921875 95.4296875,343.109375 93.96875,343.109375 C92.765625,343.109375 92.1875,342.414062 92.1875,341.390625 C92.1875,341.054688 92.2421875,340.640625 92.296875,340.34375 L93.109375,335.820312 L91.9765625,335.820312 L91.1640625,340.273438 C91.0859375,340.648438 91.0078125,341.15625 91.0078125,341.59375 C91.0078125,342.992188 91.9296875,344.132812 93.609375,344.132812 Z M106.570312,344.117188 C107.9375,344.117188 108.71875,343.25 108.953125,342.617188 L109.046875,342.617188 L108.804688,344 L109.921875,344 L111.5625,334.726562 L112.84375,334.726562 L113.007812,333.8125 L111.726562,333.8125 L111.914062,332.773438 L110.757812,332.773438 L110.578125,333.8125 L108.78125,333.8125 L108.625,334.726562 L110.421875,334.726562 L109.945312,337.429688 L109.851562,337.429688 C109.710938,336.671875 108.820312,335.6875 107.390625,335.6875 C105.460938,335.6875 104.304688,336.9375 104,338.546875 L103.710938,340.078125 C103.648438,340.375 103.632812,340.734375 103.632812,341.039062 C103.632812,342.90625 104.867188,344.117188 106.570312,344.117188 Z M106.90625,343.109375 C105.601562,343.109375 104.773438,342.265625 104.773438,340.867188 C104.773438,340.59375 104.796875,340.296875 104.820312,340.15625 L105.0625,338.9375 C105.320312,337.640625 106.109375,336.664062 107.4375,336.664062 C108.5,336.664062 109.632812,337.429688 109.632812,339.03125 C109.632812,339.101562 109.617188,339.234375 109.585938,339.429688 L109.367188,340.703125 C109.117188,342.101562 108.226562,343.109375 106.90625,343.109375 Z M115.796875,334.460938 L117.414062,332.296875 L117.4375,332.296875 L118.34375,334.460938 L119.34375,334.460938 L118,331.523438 L117.078125,331.523438 L114.757812,334.460938 L115.796875,334.460938 Z M115.195312,344.132812 C116.46875,344.132812 117.289062,343.4375 117.570312,342.875 L117.648438,342.875 L117.453125,344 L118.5625,344 L119.367188,339.4375 C119.445312,339.046875 119.515625,338.59375 119.515625,338.164062 C119.515625,336.703125 118.523438,335.6875 116.671875,335.6875 C114.953125,335.6875 113.84375,336.546875 113.625,337.71875 L114.734375,337.71875 C114.914062,337.171875 115.5,336.671875 116.585938,336.671875 C117.929688,336.671875 118.429688,337.46875 118.429688,338.265625 C118.429688,338.421875 118.40625,338.601562 118.390625,338.695312 L118.304688,339.242188 L116.03125,339.242188 C113.953125,339.242188 112.882812,340.164062 112.742188,341.507812 C112.726562,341.640625 112.726562,341.765625 112.726562,341.867188 C112.726562,343.289062 113.84375,344.132812 115.195312,344.132812 Z M115.46875,343.15625 C114.46875,343.15625 113.875,342.578125 113.875,341.757812 C113.875,340.898438 114.539062,340.179688 115.929688,340.179688 L118.101562,340.179688 L117.914062,341.25 C117.710938,342.367188 116.664062,343.15625 115.46875,343.15625 Z M121.382812,346.835938 C122.789062,346.835938 123.40625,346.382812 124.21875,344.78125 L124.609375,344.015625 L128.882812,335.820312 L127.65625,335.820312 L124.289062,342.664062 L124.210938,342.664062 L123.085938,335.820312 L121.867188,335.820312 L123.429688,343.929688 L123.164062,344.5 C122.710938,345.492188 122.242188,345.867188 121.5,345.867188 C121.242188,345.867188 120.976562,345.835938 120.789062,345.789062 L120.578125,346.734375 C120.75,346.78125 121.085938,346.835938 121.382812,346.835938 Z M5.0234375,368.132812 C6.9375,368.132812 8.1015625,366.859375 8.390625,365.21875 L8.65625,363.679688 C8.7109375,363.359375 8.7265625,363.007812 8.7265625,362.734375 C8.7265625,360.835938 7.5546875,359.6875 5.84375,359.6875 C4.4609375,359.6875 3.7578125,360.492188 3.4609375,361.117188 L3.3671875,361.117188 L4.15625,356.773438 L3.015625,356.773438 L1.015625,368 L2.1484375,368 L2.4453125,366.328125 L2.53125,366.328125 C2.734375,367.171875 3.6640625,368.132812 5.0234375,368.132812 Z M4.9921875,367.09375 C3.984375,367.09375 2.8359375,366.34375 2.828125,364.71875 C2.828125,364.679688 2.828125,364.507812 2.8671875,364.320312 L3.0703125,363.046875 C3.296875,361.679688 4.1875,360.648438 5.515625,360.648438 C6.8046875,360.648438 7.625,361.484375 7.625,362.882812 C7.625,363.09375 7.6171875,363.382812 7.5859375,363.585938 L7.3671875,364.828125 C7.140625,366.085938 6.2890625,367.09375 4.9921875,367.09375 Z M12.6796875,368.132812 C13.953125,368.132812 14.7734375,367.4375 15.0546875,366.875 L15.1328125,366.875 L14.9375,368 L16.046875,368 L16.8515625,363.4375 C16.9296875,363.046875 17,362.59375 17,362.164062 C17,360.703125 16.0078125,359.6875 14.15625,359.6875 C12.4375,359.6875 11.328125,360.546875 11.109375,361.71875 L12.21875,361.71875 C12.3984375,361.171875 12.984375,360.671875 14.0703125,360.671875 C15.4140625,360.671875 15.9140625,361.46875 15.9140625,362.265625 C15.9140625,362.421875 15.890625,362.601562 15.875,362.695312 L15.7890625,363.242188 L13.515625,363.242188 C11.4375,363.242188 10.3671875,364.164062 10.2265625,365.507812 C10.2109375,365.640625 10.2109375,365.765625 10.2109375,365.867188 C10.2109375,367.289062 11.328125,368.132812 12.6796875,368.132812 Z M12.953125,367.15625 C11.953125,367.15625 11.359375,366.578125 11.359375,365.757812 C11.359375,364.898438 12.0234375,364.179688 13.4140625,364.179688 L15.5859375,364.179688 L15.3984375,365.25 C15.1953125,366.367188 14.1484375,367.15625 12.953125,367.15625 Z M12.421875,370.546875 C12.875,370.546875 13.1953125,370.25 13.1953125,369.804688 C13.1953125,369.367188 12.875,369.054688 12.421875,369.054688 C11.9765625,369.054688 11.65625,369.367188 11.65625,369.804688 C11.65625,370.25 11.9765625,370.546875 12.421875,370.546875 Z M20.0078125,368 L20.8515625,363.195312 C21.0859375,361.859375 21.921875,360.65625 23.390625,360.65625 C24.609375,360.65625 25.078125,361.5 25.078125,362.460938 C25.078125,362.820312 25.015625,363.226562 24.9765625,363.445312 L24.171875,368 L25.3125,368 L26.109375,363.515625 C26.1796875,363.109375 26.25,362.664062 26.25,362.25 C26.25,360.914062 25.4765625,359.6875 23.7265625,359.6875 C22.546875,359.6875 21.703125,360.25 21.2578125,361.1875 L21.171875,361.1875 L21.421875,359.820312 L20.3046875,359.820312 L18.859375,368 L20.0078125,368 Z M32.9296875,368 L33.7734375,363.195312 C34.0078125,361.859375 34.859375,360.65625 36.328125,360.65625 C37.546875,360.65625 38.0390625,361.492188 38.0390625,362.453125 C38.0390625,362.804688 37.9765625,363.234375 37.9375,363.445312 L37.1328125,368 L38.28125,368 L39.0703125,363.515625 C39.140625,363.109375 39.2109375,362.65625 39.2109375,362.25 C39.2109375,360.898438 38.375,359.6875 36.65625,359.6875 C35.4375,359.6875 34.59375,360.28125 34.1796875,361.1875 L34.09375,361.1875 L34.90625,356.773438 L33.7734375,356.773438 L31.78125,368 L32.9296875,368 Z M46.3984375,358.414062 C47.2890625,358.414062 47.8515625,357.554688 47.921875,356.65625 L47.1171875,356.65625 C47.046875,357.234375 46.8046875,357.609375 46.4140625,357.609375 C45.7734375,357.609375 45.734375,356.390625 44.484375,356.390625 C43.609375,356.390625 43.0390625,357.132812 42.953125,358.148438 L43.7578125,358.148438 C43.8203125,357.5625 44.03125,357.195312 44.4609375,357.195312 C45.15625,357.195312 45.1875,358.414062 46.3984375,358.414062 Z M43.4921875,368.132812 C44.765625,368.132812 45.5859375,367.4375 45.8671875,366.875 L45.9453125,366.875 L45.75,368 L46.859375,368 L47.6640625,363.4375 C47.7421875,363.046875 47.8125,362.59375 47.8125,362.164062 C47.8125,360.703125 46.8203125,359.6875 44.96875,359.6875 C43.25,359.6875 42.140625,360.546875 41.921875,361.71875 L43.03125,361.71875 C43.2109375,361.171875 43.796875,360.671875 44.8828125,360.671875 C46.2265625,360.671875 46.7265625,361.46875 46.7265625,362.265625 C46.7265625,362.421875 46.703125,362.601562 46.6875,362.695312 L46.6015625,363.242188 L44.328125,363.242188 C42.25,363.242188 41.1796875,364.164062 41.0390625,365.507812 C41.0234375,365.640625 41.0234375,365.765625 41.0234375,365.867188 C41.0234375,367.289062 42.140625,368.132812 43.4921875,368.132812 Z M43.765625,367.15625 C42.765625,367.15625 42.171875,366.578125 42.171875,365.757812 C42.171875,364.898438 42.8359375,364.179688 44.2265625,364.179688 L46.3984375,364.179688 L46.2109375,365.25 C46.0078125,366.367188 44.9609375,367.15625 43.765625,367.15625 Z M49.6796875,370.835938 C51.0859375,370.835938 51.703125,370.382812 52.515625,368.78125 L52.90625,368.015625 L57.1796875,359.820312 L55.953125,359.820312 L52.5859375,366.664062 L52.5078125,366.664062 L51.3828125,359.820312 L50.1640625,359.820312 L51.7265625,367.929688 L51.4609375,368.5 C51.0078125,369.492188 50.5390625,369.867188 49.796875,369.867188 C49.5390625,369.867188 49.2734375,369.835938 49.0859375,369.789062 L48.875,370.734375 C49.046875,370.78125 49.3828125,370.835938 49.6796875,370.835938 Z M62.7734375,368 L63.6171875,363.195312 C63.8515625,361.859375 64.6875,360.65625 66.15625,360.65625 C67.375,360.65625 67.84375,361.5 67.84375,362.460938 C67.84375,362.820312 67.78125,363.226562 67.7421875,363.445312 L66.9375,368 L68.078125,368 L68.875,363.515625 C68.9453125,363.109375 69.015625,362.664062 69.015625,362.25 C69.015625,360.914062 68.2421875,359.6875 66.4921875,359.6875 C65.3125,359.6875 64.46875,360.25 64.0234375,361.1875 L63.9375,361.1875 L64.1875,359.820312 L63.0703125,359.820312 L61.625,368 L62.7734375,368 Z M72.0390625,368 L72.8828125,363.195312 C73.1171875,361.859375 73.96875,360.65625 75.4375,360.65625 C76.65625,360.65625 77.1484375,361.492188 77.1484375,362.453125 C77.1484375,362.804688 77.0859375,363.234375 77.046875,363.445312 L76.2421875,368 L77.390625,368 L78.1796875,363.515625 C78.25,363.109375 78.3203125,362.65625 78.3203125,362.25 C78.3203125,360.898438 77.484375,359.6875 75.765625,359.6875 C74.546875,359.6875 73.703125,360.28125 73.2890625,361.1875 L73.203125,361.1875 L74.015625,356.773438 L72.8828125,356.773438 L70.890625,368 L72.0390625,368 Z M83.203125,358.460938 L84.8203125,356.296875 L84.84375,356.296875 L85.75,358.460938 L86.75,358.460938 L85.40625,355.523438 L84.484375,355.523438 L82.1640625,358.460938 L83.203125,358.460938 Z M82.6015625,368.132812 C83.875,368.132812 84.6953125,367.4375 84.9765625,366.875 L85.0546875,366.875 L84.859375,368 L85.96875,368 L86.7734375,363.4375 C86.8515625,363.046875 86.921875,362.59375 86.921875,362.164062 C86.921875,360.703125 85.9296875,359.6875 84.078125,359.6875 C82.359375,359.6875 81.25,360.546875 81.03125,361.71875 L82.140625,361.71875 C82.3203125,361.171875 82.90625,360.671875 83.9921875,360.671875 C85.3359375,360.671875 85.8359375,361.46875 85.8359375,362.265625 C85.8359375,362.421875 85.8125,362.601562 85.796875,362.695312 L85.7109375,363.242188 L83.4375,363.242188 C81.359375,363.242188 80.2890625,364.164062 80.1484375,365.507812 C80.1328125,365.640625 80.1328125,365.765625 80.1328125,365.867188 C80.1328125,367.289062 81.25,368.132812 82.6015625,368.132812 Z M82.875,367.15625 C81.875,367.15625 81.28125,366.578125 81.28125,365.757812 C81.28125,364.898438 81.9453125,364.179688 83.3359375,364.179688 L85.5078125,364.179688 L85.3203125,365.25 C85.1171875,366.367188 84.0703125,367.15625 82.875,367.15625 Z M82.34375,370.546875 C82.796875,370.546875 83.1171875,370.25 83.1171875,369.804688 C83.1171875,369.367188 82.796875,369.054688 82.34375,369.054688 C81.8984375,369.054688 81.578125,369.367188 81.578125,369.804688 C81.578125,370.25 81.8984375,370.546875 82.34375,370.546875 Z M89.453125,370.703125 L90.203125,366.328125 L90.296875,366.328125 C90.453125,367.078125 91.3203125,368.132812 92.734375,368.132812 C94.671875,368.132812 95.875,366.835938 96.1328125,365.21875 L96.4140625,363.679688 C96.4765625,363.359375 96.4765625,363.007812 96.4765625,362.734375 C96.4765625,360.84375 95.265625,359.6875 93.5625,359.6875 C92.1640625,359.6875 91.4609375,360.5 91.1953125,361.117188 L91.1015625,361.117188 L91.3359375,359.820312 L90.21875,359.820312 L88.3046875,370.703125 L89.453125,370.703125 Z M92.6953125,367.09375 C91.6796875,367.09375 90.546875,366.320312 90.546875,364.71875 C90.5390625,364.679688 90.546875,364.507812 90.578125,364.320312 L90.7890625,363.046875 C91.015625,361.65625 91.9140625,360.648438 93.21875,360.648438 C94.5234375,360.648438 95.375,361.492188 95.375,362.882812 C95.375,363.101562 95.3671875,363.390625 95.3359375,363.585938 L95.1171875,364.828125 C94.890625,366.0625 94.03125,367.09375 92.6953125,367.09375 Z M102.921875,368 L104.367188,359.75 L104.445312,359.75 L106.390625,367.171875 L107.164062,367.171875 L111.734375,359.75 L111.804688,359.75 L110.351562,368 L111.460938,368 L113.335938,357.335938 L112.117188,357.335938 L107.046875,365.648438 L106.992188,365.648438 L104.796875,357.335938 L103.703125,357.335938 L101.820312,368 L102.921875,368 Z M117.4375,358.460938 L119.054688,356.296875 L119.078125,356.296875 L119.984375,358.460938 L120.984375,358.460938 L119.640625,355.523438 L118.71875,355.523438 L116.398438,358.460938 L117.4375,358.460938 Z M116.835938,368.132812 C118.109375,368.132812 118.929688,367.4375 119.210938,366.875 L119.289062,366.875 L119.09375,368 L120.203125,368 L121.007812,363.4375 C121.085938,363.046875 121.15625,362.59375 121.15625,362.164062 C121.15625,360.703125 120.164062,359.6875 118.3125,359.6875 C116.59375,359.6875 115.484375,360.546875 115.265625,361.71875 L116.375,361.71875 C116.554688,361.171875 117.140625,360.671875 118.226562,360.671875 C119.570312,360.671875 120.070312,361.46875 120.070312,362.265625 C120.070312,362.421875 120.046875,362.601562 120.03125,362.695312 L119.945312,363.242188 L117.671875,363.242188 C115.59375,363.242188 114.523438,364.164062 114.382812,365.507812 C114.367188,365.640625 114.367188,365.765625 114.367188,365.867188 C114.367188,367.289062 115.484375,368.132812 116.835938,368.132812 Z M117.109375,367.15625 C116.109375,367.15625 115.515625,366.578125 115.515625,365.757812 C115.515625,364.898438 116.179688,364.179688 117.570312,364.179688 L119.742188,364.179688 L119.554688,365.25 C119.351562,366.367188 118.304688,367.15625 117.109375,367.15625 Z M116.578125,370.546875 C117.03125,370.546875 117.351562,370.25 117.351562,369.804688 C117.351562,369.367188 117.03125,369.054688 116.578125,369.054688 C116.132812,369.054688 115.8125,369.367188 115.8125,369.804688 C115.8125,370.25 116.132812,370.546875 116.578125,370.546875 Z M125.664062,368.070312 C126.046875,368.070312 126.539062,368.023438 126.765625,367.96875 L126.9375,367.023438 C126.703125,367.070312 126.273438,367.109375 125.929688,367.109375 C125.21875,367.109375 124.90625,366.851562 124.90625,366.265625 C124.90625,366.03125 124.945312,365.773438 125.070312,365.054688 L125.820312,360.765625 L127.671875,360.765625 L127.84375,359.820312 L125.992188,359.820312 L126.34375,357.773438 L125.21875,357.773438 L124.84375,359.820312 L123.546875,359.820312 L123.375,360.765625 L124.679688,360.765625 L123.84375,365.5 C123.773438,365.929688 123.726562,366.296875 123.726562,366.546875 C123.726562,367.5625 124.375,368.070312 125.664062,368.070312 Z M2.15625,392 L2.765625,388.546875 L3.8984375,387.648438 L6.1796875,392 L7.453125,392 L4.796875,387.039062 L8.8125,383.820312 L7.21875,383.820312 L3.09375,387.179688 L3.015625,387.179688 L4.1328125,380.773438 L2.9921875,380.773438 L1.015625,392 L2.15625,392 Z M10.5234375,392 L11.3671875,387.195312 C11.6015625,385.859375 12.453125,384.65625 13.921875,384.65625 C15.140625,384.65625 15.6328125,385.492188 15.6328125,386.453125 C15.6328125,386.804688 15.5703125,387.234375 15.53125,387.445312 L14.7265625,392 L15.875,392 L16.6640625,387.515625 C16.734375,387.109375 16.8046875,386.65625 16.8046875,386.25 C16.8046875,384.898438 15.96875,383.6875 14.25,383.6875 C13.03125,383.6875 12.1875,384.28125 11.7734375,385.1875 L11.6875,385.1875 L12.5,380.773438 L11.3671875,380.773438 L9.375,392 L10.5234375,392 Z M25.25,380.921875 C26.09375,380.664062 26.625,380.0625 26.625,379.351562 C26.625,378.609375 26.1015625,378.210938 25.1171875,378.210938 C24.90625,378.210938 24.6875,378.25 24.546875,378.296875 L24.4296875,378.96875 C24.59375,378.90625 24.8359375,378.867188 25.015625,378.867188 C25.5625,378.867188 25.84375,379.0625 25.84375,379.460938 C25.84375,379.828125 25.515625,380.148438 24.9453125,380.328125 L25.25,380.921875 Z M21.6328125,382.453125 L23.234375,380.9375 L23.265625,380.9375 L24.2421875,382.453125 L25.1953125,382.453125 L23.734375,380.21875 L22.9921875,380.21875 L20.59375,382.453125 L21.6328125,382.453125 Z M21.0859375,392.132812 C22.359375,392.132812 23.1796875,391.4375 23.4609375,390.875 L23.5390625,390.875 L23.34375,392 L24.453125,392 L25.2578125,387.4375 C25.3359375,387.046875 25.40625,386.59375 25.40625,386.164062 C25.40625,384.703125 24.4140625,383.6875 22.5625,383.6875 C20.84375,383.6875 19.734375,384.546875 19.515625,385.71875 L20.625,385.71875 C20.8046875,385.171875 21.390625,384.671875 22.4765625,384.671875 C23.8203125,384.671875 24.3203125,385.46875 24.3203125,386.265625 C24.3203125,386.421875 24.296875,386.601562 24.28125,386.695312 L24.1953125,387.242188 L21.921875,387.242188 C19.84375,387.242188 18.7734375,388.164062 18.6328125,389.507812 C18.6171875,389.640625 18.6171875,389.765625 18.6171875,389.867188 C18.6171875,391.289062 19.734375,392.132812 21.0859375,392.132812 Z M21.359375,391.15625 C20.359375,391.15625 19.765625,390.578125 19.765625,389.757812 C19.765625,388.898438 20.4296875,388.179688 21.8203125,388.179688 L23.9921875,388.179688 L23.8046875,389.25 C23.6015625,390.367188 22.5546875,391.15625 21.359375,391.15625 Z M30.2109375,392.132812 C31.3984375,392.132812 32.2578125,391.46875 32.6484375,390.585938 L32.7421875,390.585938 L32.4921875,392 L33.5703125,392 L35.0078125,383.820312 L33.9140625,383.820312 L33.0703125,388.585938 C32.84375,389.921875 32.03125,391.109375 30.5703125,391.109375 C29.3671875,391.109375 28.7890625,390.414062 28.7890625,389.390625 C28.7890625,389.054688 28.84375,388.640625 28.8984375,388.34375 L29.7109375,383.820312 L28.578125,383.820312 L27.765625,388.273438 C27.6875,388.648438 27.609375,389.15625 27.609375,389.59375 C27.609375,390.992188 28.53125,392.132812 30.2109375,392.132812 Z M41.359375,392 L43.34375,380.773438 L42.1953125,380.773438 L40.2109375,392 L41.359375,392 Z M49.328125,382.460938 L47.859375,379.71875 L46.609375,379.71875 L48.453125,382.460938 L49.328125,382.460938 Z M46.7421875,392.132812 C48.015625,392.132812 48.8359375,391.4375 49.1171875,390.875 L49.1953125,390.875 L49,392 L50.109375,392 L50.9140625,387.4375 C50.9921875,387.046875 51.0625,386.59375 51.0625,386.164062 C51.0625,384.703125 50.0703125,383.6875 48.21875,383.6875 C46.5,383.6875 45.390625,384.546875 45.171875,385.71875 L46.28125,385.71875 C46.4609375,385.171875 47.046875,384.671875 48.1328125,384.671875 C49.4765625,384.671875 49.9765625,385.46875 49.9765625,386.265625 C49.9765625,386.421875 49.953125,386.601562 49.9375,386.695312 L49.8515625,387.242188 L47.578125,387.242188 C45.5,387.242188 44.4296875,388.164062 44.2890625,389.507812 C44.2734375,389.640625 44.2734375,389.765625 44.2734375,389.867188 C44.2734375,391.289062 45.390625,392.132812 46.7421875,392.132812 Z M47.015625,391.15625 C46.015625,391.15625 45.421875,390.578125 45.421875,389.757812 C45.421875,388.898438 46.0859375,388.179688 47.4765625,388.179688 L49.6484375,388.179688 L49.4609375,389.25 C49.2578125,390.367188 48.2109375,391.15625 47.015625,391.15625 Z M60.8671875,392.203125 C63.2734375,392.203125 64.828125,390.804688 65.109375,388.976562 C65.125,388.90625 65.1484375,388.734375 65.15625,388.703125 L63.140625,388.703125 C62.9375,389.671875 62.15625,390.296875 61.03125,390.296875 C59.6015625,390.296875 58.8203125,389.34375 58.8203125,387.929688 C58.8203125,387.640625 58.859375,387.125 58.9140625,386.84375 L59.15625,385.625 C59.5078125,383.835938 60.390625,383.007812 61.671875,383.007812 C62.8046875,383.007812 63.6328125,383.75 63.703125,384.75 C63.7109375,384.84375 63.703125,385 63.6875,385.132812 L65.703125,385.132812 C65.7578125,384.96875 65.7734375,384.703125 65.7734375,384.53125 C65.7734375,382.726562 64.1796875,381.140625 61.6875,381.140625 C59.140625,381.140625 57.5,382.742188 57.0390625,385.296875 L56.734375,386.898438 C56.6796875,387.210938 56.6640625,387.671875 56.6640625,387.914062 C56.6640625,390.617188 58.2421875,392.203125 60.8671875,392.203125 Z M68.5390625,392 L69.375,387.289062 C69.578125,386.117188 70.2421875,385.25 71.34375,385.25 C72.2734375,385.25 72.65625,385.851562 72.65625,386.617188 C72.65625,386.914062 72.6015625,387.289062 72.5703125,387.492188 L71.78125,392 L73.8515625,392 L74.625,387.601562 C74.7265625,387.015625 74.796875,386.523438 74.796875,386.109375 C74.796875,384.695312 73.9140625,383.570312 72.2578125,383.570312 C71.125,383.570312 70.2890625,384.101562 69.8671875,384.984375 L69.75,384.984375 L70.515625,380.773438 L68.4453125,380.773438 L66.46875,392 L68.5390625,392 Z M78.609375,392.125 C79.8046875,392.125 80.546875,391.507812 80.8359375,390.921875 L80.9453125,390.921875 L80.75,392 L82.6953125,392 L83.5390625,387.226562 C83.59375,386.914062 83.6484375,386.5625 83.6484375,386.28125 C83.6484375,384.578125 82.4609375,383.570312 80.4453125,383.570312 C78.3203125,383.570312 77.1953125,384.703125 77,385.96875 L78.9453125,385.96875 C79.0859375,385.507812 79.5390625,385.15625 80.3046875,385.15625 C81.265625,385.15625 81.6640625,385.703125 81.6640625,386.28125 C81.6640625,386.382812 81.6484375,386.5 81.6328125,386.570312 L81.546875,387.125 L79.5234375,387.125 C77.5,387.125 76.2265625,387.992188 76.140625,389.585938 C76.1328125,389.65625 76.1328125,389.726562 76.1328125,389.78125 C76.1328125,391.273438 77.234375,392.125 78.609375,392.125 Z M79.3984375,390.578125 C78.65625,390.578125 78.1875,390.140625 78.1875,389.53125 C78.1875,388.898438 78.6875,388.382812 79.7109375,388.382812 L81.3125,388.382812 L81.1484375,389.289062 C81,390.046875 80.2421875,390.578125 79.3984375,390.578125 Z M87.0625,392 L87.890625,387.289062 C88.109375,386.070312 88.7421875,385.25 89.84375,385.25 C90.6875,385.25 91.125,385.8125 91.125,386.625 C91.125,386.890625 91.078125,387.265625 91.0390625,387.492188 L90.25,392 L92.3203125,392 L93.09375,387.601562 C93.171875,387.164062 93.2734375,386.609375 93.2734375,386.101562 C93.2734375,384.6875 92.4296875,383.570312 90.7578125,383.570312 C89.5390625,383.570312 88.765625,384.179688 88.359375,384.984375 L88.2421875,384.984375 L88.4765625,383.695312 L86.4453125,383.695312 L84.9921875,392 L87.0625,392 Z M98.34375,392.148438 C100.140625,392.148438 101.648438,391.257812 101.882812,389.507812 L99.921875,389.507812 C99.796875,390.039062 99.296875,390.421875 98.46875,390.421875 C97.359375,390.421875 96.8671875,389.726562 96.8671875,388.648438 C96.8671875,388.453125 96.8828125,388.203125 96.9375,387.898438 L97.09375,387.054688 C97.3046875,385.867188 98.0234375,385.242188 98.921875,385.242188 C99.8984375,385.242188 100.367188,385.929688 100.367188,386.507812 C100.367188,386.53125 100.367188,386.585938 100.359375,386.617188 L102.304688,386.617188 C102.320312,386.570312 102.328125,386.476562 102.328125,386.382812 C102.328125,384.648438 100.882812,383.546875 98.9375,383.546875 C97.0546875,383.546875 95.5078125,384.570312 95.1171875,386.773438 L94.9453125,387.726562 C94.875,388.117188 94.8359375,388.53125 94.8359375,388.851562 C94.8359375,390.890625 96.203125,392.148438 98.34375,392.148438 Z M105.296875,392 L106.132812,387.289062 C106.335938,386.117188 107,385.25 108.101562,385.25 C109.03125,385.25 109.414062,385.851562 109.414062,386.617188 C109.414062,386.914062 109.359375,387.289062 109.328125,387.492188 L108.539062,392 L110.609375,392 L111.382812,387.601562 C111.484375,387.015625 111.554688,386.523438 111.554688,386.109375 C111.554688,384.695312 110.671875,383.570312 109.015625,383.570312 C107.882812,383.570312 107.046875,384.101562 106.625,384.984375 L106.507812,384.984375 L107.273438,380.773438 L105.203125,380.773438 L103.226562,392 L105.296875,392 Z M115.367188,392.125 C116.5625,392.125 117.304688,391.507812 117.59375,390.921875 L117.703125,390.921875 L117.507812,392 L119.453125,392 L120.296875,387.226562 C120.351562,386.914062 120.40625,386.5625 120.40625,386.28125 C120.40625,384.578125 119.21875,383.570312 117.203125,383.570312 C115.078125,383.570312 113.953125,384.703125 113.757812,385.96875 L115.703125,385.96875 C115.84375,385.507812 116.296875,385.15625 117.0625,385.15625 C118.023438,385.15625 118.421875,385.703125 118.421875,386.28125 C118.421875,386.382812 118.40625,386.5 118.390625,386.570312 L118.304688,387.125 L116.28125,387.125 C114.257812,387.125 112.984375,387.992188 112.898438,389.585938 C112.890625,389.65625 112.890625,389.726562 112.890625,389.78125 C112.890625,391.273438 113.992188,392.125 115.367188,392.125 Z M116.15625,390.578125 C115.414062,390.578125 114.945312,390.140625 114.945312,389.53125 C114.945312,388.898438 115.445312,388.382812 116.46875,388.382812 L118.070312,388.382812 L117.90625,389.289062 C117.757812,390.046875 117,390.578125 116.15625,390.578125 Z M123.820312,392 L124.648438,387.289062 C124.867188,386.070312 125.5,385.25 126.601562,385.25 C127.445312,385.25 127.882812,385.8125 127.882812,386.625 C127.882812,386.890625 127.835938,387.265625 127.796875,387.492188 L127.007812,392 L129.078125,392 L129.851562,387.601562 C129.929688,387.164062 130.03125,386.609375 130.03125,386.101562 C130.03125,384.6875 129.1875,383.570312 127.515625,383.570312 C126.296875,383.570312 125.523438,384.179688 125.117188,384.984375 L125,384.984375 L125.234375,383.695312 L123.203125,383.695312 L121.75,392 L123.820312,392 Z M4.1015625,416.117188 C5.46875,416.117188 6.25,415.25 6.484375,414.617188 L6.578125,414.617188 L6.3359375,416 L7.453125,416 L9.09375,406.726562 L10.375,406.726562 L10.5390625,405.8125 L9.2578125,405.8125 L9.4453125,404.773438 L8.2890625,404.773438 L8.109375,405.8125 L6.3125,405.8125 L6.15625,406.726562 L7.953125,406.726562 L7.4765625,409.429688 L7.3828125,409.429688 C7.2421875,408.671875 6.3515625,407.6875 4.921875,407.6875 C2.9921875,407.6875 1.8359375,408.9375 1.53125,410.546875 L1.2421875,412.078125 C1.1796875,412.375 1.1640625,412.734375 1.1640625,413.039062 C1.1640625,414.90625 2.3984375,416.117188 4.1015625,416.117188 Z M4.4375,415.109375 C3.1328125,415.109375 2.3046875,414.265625 2.3046875,412.867188 C2.3046875,412.59375 2.328125,412.296875 2.3515625,412.15625 L2.59375,410.9375 C2.8515625,409.640625 3.640625,408.664062 4.96875,408.664062 C6.03125,408.664062 7.1640625,409.429688 7.1640625,411.03125 C7.1640625,411.101562 7.1484375,411.234375 7.1171875,411.429688 L6.8984375,412.703125 C6.6484375,414.101562 5.7578125,415.109375 4.4375,415.109375 Z M17.109375,404.921875 C17.953125,404.664062 18.484375,404.0625 18.484375,403.351562 C18.484375,402.609375 17.9609375,402.210938 16.9765625,402.210938 C16.765625,402.210938 16.546875,402.25 16.40625,402.296875 L16.2890625,402.96875 C16.453125,402.90625 16.6953125,402.867188 16.875,402.867188 C17.421875,402.867188 17.703125,403.0625 17.703125,403.460938 C17.703125,403.828125 17.375,404.148438 16.8046875,404.328125 L17.109375,404.921875 Z M13.4921875,406.453125 L15.09375,404.9375 L15.125,404.9375 L16.1015625,406.453125 L17.0546875,406.453125 L15.59375,404.21875 L14.8515625,404.21875 L12.453125,406.453125 L13.4921875,406.453125 Z M13.5703125,416.132812 C15.390625,416.132812 16.546875,415.015625 16.734375,414.015625 L15.59375,414.015625 C15.4296875,414.578125 14.734375,415.125 13.640625,415.125 C12.125,415.125 11.5546875,414.070312 11.5546875,412.945312 C11.5546875,412.664062 11.59375,412.359375 11.640625,412.179688 L17.0703125,412.179688 C17.0859375,412.101562 17.265625,411.109375 17.265625,411.078125 C17.5,409.570312 16.7578125,407.6875 14.34375,407.6875 C12.4609375,407.6875 11.125,408.835938 10.8046875,410.664062 L10.59375,411.820312 C10.5390625,412.109375 10.46875,412.59375 10.46875,413.054688 C10.46875,415.0625 11.78125,416.132812 13.5703125,416.132812 Z M16.1484375,411.257812 L11.828125,411.257812 C11.828125,411.242188 11.9375,410.726562 11.9375,410.710938 C12.234375,409.3125 13.2109375,408.65625 14.3046875,408.65625 C15.734375,408.65625 16.3984375,409.734375 16.1796875,411.054688 C16.1796875,411.09375 16.15625,411.234375 16.1484375,411.257812 Z M25.1328125,416.070312 C25.515625,416.070312 26.0078125,416.023438 26.234375,415.96875 L26.40625,415.023438 C26.171875,415.070312 25.7421875,415.109375 25.3984375,415.109375 C24.6875,415.109375 24.375,414.851562 24.375,414.265625 C24.375,414.03125 24.4140625,413.773438 24.5390625,413.054688 L25.2890625,408.765625 L27.140625,408.765625 L27.3125,407.820312 L25.4609375,407.820312 L25.8125,405.773438 L24.6875,405.773438 L24.3125,407.820312 L23.015625,407.820312 L22.84375,408.765625 L24.1484375,408.765625 L23.3125,413.5 C23.2421875,413.929688 23.1953125,414.296875 23.1953125,414.546875 C23.1953125,415.5625 23.84375,416.070312 25.1328125,416.070312 Z M30.75,406.1875 C31.2578125,406.1875 31.6328125,405.820312 31.6328125,405.328125 C31.6328125,404.828125 31.2578125,404.453125 30.75,404.453125 C30.2734375,404.453125 29.890625,404.828125 29.890625,405.328125 C29.890625,405.820312 30.2734375,406.1875 30.75,406.1875 Z M29.5859375,416 L31.0234375,407.820312 L29.8828125,407.820312 L28.4453125,416 L29.5859375,416 Z M40.015625,405.023438 L42.7265625,402.320312 L41.484375,402.320312 L39.109375,405.023438 L40.015625,405.023438 Z M35.7265625,406.453125 L37.328125,404.9375 L37.359375,404.9375 L38.3359375,406.453125 L39.2890625,406.453125 L37.828125,404.21875 L37.0859375,404.21875 L34.6875,406.453125 L35.7265625,406.453125 Z M35.8046875,416.132812 C37.625,416.132812 38.78125,415.015625 38.96875,414.015625 L37.828125,414.015625 C37.6640625,414.578125 36.96875,415.125 35.875,415.125 C34.359375,415.125 33.7890625,414.070312 33.7890625,412.945312 C33.7890625,412.664062 33.828125,412.359375 33.875,412.179688 L39.3046875,412.179688 C39.3203125,412.101562 39.5,411.109375 39.5,411.078125 C39.734375,409.570312 38.9921875,407.6875 36.578125,407.6875 C34.6953125,407.6875 33.359375,408.835938 33.0390625,410.664062 L32.828125,411.820312 C32.7734375,412.109375 32.703125,412.59375 32.703125,413.054688 C32.703125,415.0625 34.015625,416.132812 35.8046875,416.132812 Z M38.3828125,411.257812 L34.0625,411.257812 C34.0625,411.242188 34.171875,410.726562 34.171875,410.710938 C34.46875,409.3125 35.4453125,408.65625 36.5390625,408.65625 C37.96875,408.65625 38.6328125,409.734375 38.4140625,411.054688 C38.4140625,411.09375 38.390625,411.234375 38.3828125,411.257812 Z M41.734375,418.703125 L42.484375,414.328125 L42.578125,414.328125 C42.734375,415.078125 43.6015625,416.132812 45.015625,416.132812 C46.953125,416.132812 48.15625,414.835938 48.4140625,413.21875 L48.6953125,411.679688 C48.7578125,411.359375 48.7578125,411.007812 48.7578125,410.734375 C48.7578125,408.84375 47.546875,407.6875 45.84375,407.6875 C44.4453125,407.6875 43.7421875,408.5 43.4765625,409.117188 L43.3828125,409.117188 L43.6171875,407.820312 L42.5,407.820312 L40.5859375,418.703125 L41.734375,418.703125 Z M44.9765625,415.09375 C43.9609375,415.09375 42.828125,414.320312 42.828125,412.71875 C42.8203125,412.679688 42.828125,412.507812 42.859375,412.320312 L43.0703125,411.046875 C43.296875,409.65625 44.1953125,408.648438 45.5,408.648438 C46.8046875,408.648438 47.65625,409.492188 47.65625,410.882812 C47.65625,411.101562 47.6484375,411.390625 47.6171875,411.585938 L47.3984375,412.828125 C47.171875,414.0625 46.3125,415.09375 44.9765625,415.09375 Z M56.625,416.070312 C57.0078125,416.070312 57.5,416.023438 57.7265625,415.96875 L57.8984375,415.023438 C57.6640625,415.070312 57.234375,415.109375 56.890625,415.109375 C56.1796875,415.109375 55.8671875,414.851562 55.8671875,414.265625 C55.8671875,414.03125 55.90625,413.773438 56.03125,413.054688 L56.78125,408.765625 L58.6328125,408.765625 L58.8046875,407.820312 L56.953125,407.820312 L57.3046875,405.773438 L56.1796875,405.773438 L55.8046875,407.820312 L54.5078125,407.820312 L54.3359375,408.765625 L55.640625,408.765625 L54.8046875,413.5 C54.734375,413.929688 54.6875,414.296875 54.6875,414.546875 C54.6875,415.5625 55.3359375,416.070312 56.625,416.070312 Z M62.75,416.132812 C63.9375,416.132812 64.796875,415.46875 65.1875,414.585938 L65.28125,414.585938 L65.03125,416 L66.109375,416 L67.546875,407.820312 L66.453125,407.820312 L65.609375,412.585938 C65.3828125,413.921875 64.5703125,415.109375 63.109375,415.109375 C61.90625,415.109375 61.328125,414.414062 61.328125,413.390625 C61.328125,413.054688 61.3828125,412.640625 61.4375,412.34375 L62.25,407.820312 L61.1171875,407.820312 L60.3046875,412.273438 C60.2265625,412.648438 60.1484375,413.15625 60.1484375,413.59375 C60.1484375,414.992188 61.0703125,416.132812 62.75,416.132812 Z M62.625,418.546875 C63.078125,418.546875 63.3984375,418.25 63.3984375,417.804688 C63.3984375,417.367188 63.078125,417.054688 62.625,417.054688 C62.1796875,417.054688 61.859375,417.367188 61.859375,417.804688 C61.859375,418.25 62.1796875,418.546875 62.625,418.546875 Z M72.328125,416.132812 C73.96875,416.132812 75.1953125,415.273438 75.421875,413.984375 L74.2734375,413.984375 C74.125,414.59375 73.453125,415.125 72.3828125,415.125 C70.9921875,415.125 70.265625,414.242188 70.265625,412.757812 C70.265625,412.5 70.2890625,412.25 70.3515625,411.914062 L70.515625,410.96875 C70.78125,409.484375 71.6953125,408.65625 72.8984375,408.65625 C74.171875,408.65625 74.8203125,409.507812 74.8203125,410.25 L74.8203125,410.34375 L74.8203125,410.34375 L75.9296875,410.34375 C75.9375,410.335938 75.9375,410.257812 75.9375,410.242188 C75.9375,408.875 74.8203125,407.6875 72.90625,407.6875 C71.09375,407.6875 69.7734375,408.71875 69.4375,410.671875 L69.234375,411.84375 C69.1640625,412.257812 69.1328125,412.695312 69.1328125,413.007812 C69.1328125,414.921875 70.40625,416.132812 72.328125,416.132812 Z M84.53125,416 C87.9609375,416 89.890625,414.5625 90.390625,411.71875 C90.390625,411.6875 90.5859375,410.570312 90.5859375,410.523438 C90.65625,410.117188 90.6796875,409.625 90.6796875,409.328125 C90.6796875,406.945312 89.25,405.335938 86.421875,405.335938 L83.5546875,405.335938 L82.7109375,410.03125 L81.46875,410.03125 L81.2890625,411.054688 L82.5390625,411.054688 L81.6640625,416 L84.53125,416 Z M84.546875,414.96875 L83.015625,414.96875 L83.7109375,411.054688 L86.21875,411.054688 L86.3984375,410.03125 L83.8828125,410.03125 L84.53125,406.367188 L86.109375,406.367188 C88.3828125,406.367188 89.5078125,407.453125 89.5078125,409.453125 C89.5078125,409.734375 89.484375,410.21875 89.4296875,410.523438 C89.4296875,410.570312 89.25,411.570312 89.2421875,411.601562 C88.8359375,413.867188 87.1171875,414.96875 84.546875,414.96875 Z M96.5859375,406.492188 C97.84375,406.492188 98.8828125,405.632812 99.015625,404.4375 L98.1796875,404.4375 C98.0390625,405.25 97.484375,405.742188 96.6875,405.742188 C95.921875,405.742188 95.4296875,405.320312 95.4296875,404.6875 C95.4296875,404.578125 95.4375,404.507812 95.453125,404.4375 L94.6171875,404.4375 C94.5859375,404.570312 94.5703125,404.6875 94.5703125,404.828125 C94.5703125,405.742188 95.34375,406.492188 96.5859375,406.492188 Z M94.671875,416.132812 C95.9453125,416.132812 96.765625,415.4375 97.046875,414.875 L97.125,414.875 L96.9296875,416 L98.0390625,416 L98.84375,411.4375 C98.921875,411.046875 98.9921875,410.59375 98.9921875,410.164062 C98.9921875,408.703125 98,407.6875 96.1484375,407.6875 C94.4296875,407.6875 93.3203125,408.546875 93.1015625,409.71875 L94.2109375,409.71875 C94.390625,409.171875 94.9765625,408.671875 96.0625,408.671875 C97.40625,408.671875 97.90625,409.46875 97.90625,410.265625 C97.90625,410.421875 97.8828125,410.601562 97.8671875,410.695312 L97.78125,411.242188 L95.5078125,411.242188 C93.4296875,411.242188 92.359375,412.164062 92.21875,413.507812 C92.203125,413.640625 92.203125,413.765625 92.203125,413.867188 C92.203125,415.289062 93.3203125,416.132812 94.671875,416.132812 Z M94.9453125,415.15625 C93.9453125,415.15625 93.3515625,414.578125 93.3515625,413.757812 C93.3515625,412.898438 94.015625,412.179688 95.40625,412.179688 L97.578125,412.179688 L97.390625,413.25 C97.1875,414.367188 96.140625,415.15625 94.9453125,415.15625 Z M102,416 L102.84375,411.195312 C103.078125,409.859375 103.914062,408.65625 105.382812,408.65625 C106.601562,408.65625 107.070312,409.5 107.070312,410.460938 C107.070312,410.820312 107.007812,411.226562 106.96875,411.445312 L106.164062,416 L107.304688,416 L108.101562,411.515625 C108.171875,411.109375 108.242188,410.664062 108.242188,410.25 C108.242188,408.914062 107.46875,407.6875 105.71875,407.6875 C104.539062,407.6875 103.695312,408.25 103.25,409.1875 L103.164062,409.1875 L103.414062,407.820312 L102.296875,407.820312 L100.851562,416 L102,416 Z M112.898438,418.96875 C114.960938,418.96875 116.1875,417.984375 116.5625,415.867188 L117.976562,407.820312 L116.851562,407.820312 L116.570312,409.429688 L116.476562,409.429688 C116.234375,408.53125 115.367188,407.6875 113.96875,407.6875 C112.453125,407.6875 111,408.59375 110.601562,410.6875 L110.421875,411.640625 C110.359375,411.953125 110.3125,412.476562 110.3125,412.757812 C110.3125,414.6875 111.742188,415.851562 113.257812,415.851562 C114.546875,415.851562 115.320312,415.1875 115.617188,414.46875 L115.710938,414.46875 L115.5,415.664062 C115.226562,417.234375 114.445312,417.992188 112.96875,417.992188 C111.75,417.992188 110.960938,417.304688 110.960938,416.65625 L110.960938,416.554688 L110.960938,416.554688 L109.84375,416.554688 C109.84375,416.5625 109.835938,416.65625 109.835938,416.671875 C109.835938,417.867188 111.023438,418.96875 112.898438,418.96875 Z M113.609375,414.890625 C112.304688,414.890625 111.4375,414.109375 111.4375,412.585938 C111.4375,412.375 111.492188,411.945312 111.53125,411.71875 L111.664062,411.039062 C111.9375,409.554688 112.804688,408.65625 114.023438,408.65625 C115.289062,408.65625 116.21875,409.539062 116.21875,410.976562 C116.21875,411.046875 116.21875,411.28125 116.140625,411.71875 L115.992188,412.554688 C115.757812,413.921875 114.820312,414.890625 113.609375,414.890625 Z M124.179688,416 L124.789062,412.546875 L125.921875,411.648438 L128.203125,416 L129.476562,416 L126.820312,411.039062 L130.835938,407.820312 L129.242188,407.820312 L125.117188,411.179688 L125.039062,411.179688 L126.15625,404.773438 L125.015625,404.773438 L123.039062,416 L124.179688,416 Z M135.796875,406.460938 L138.492188,403.71875 L137.21875,403.71875 L134.835938,406.460938 L135.796875,406.460938 Z M131.40625,418.835938 C132.8125,418.835938 133.429688,418.382812 134.242188,416.78125 L134.632812,416.015625 L138.90625,407.820312 L137.679688,407.820312 L134.3125,414.664062 L134.234375,414.664062 L133.109375,407.820312 L131.890625,407.820312 L133.453125,415.929688 L133.1875,416.5 C132.734375,417.492188 132.265625,417.867188 131.523438,417.867188 C131.265625,417.867188 131,417.835938 130.8125,417.789062 L130.601562,418.734375 C130.773438,418.78125 131.109375,418.835938 131.40625,418.835938 Z" id="Cảmơnbạnđãdànhthờigian!SauđâybạnhãynhậpMậtkhẩulàChanchanđểtiếptụcĐăngký" fill="#121721" fill-rule="nonzero"></path>
            </g>
        </g>
    </g>
</svg>