<?xml version="1.0" encoding="UTF-8"?>
<svg width="320px" height="519px" viewBox="0 0 320 519" version="1.1" xmlns="http://www.w3.org/2000/svg" xmlns:xlink="http://www.w3.org/1999/xlink">
    <title>3</title>
    <g id="Chanchan" stroke="none" stroke-width="1" fill="none" fill-rule="evenodd">
        <g id="open-letter" transform="translate(0.000000, -1463.000000)" fill="#121721">
            <g id="Group-6" transform="translate(35.000000, 1485.000000)">
                <text id="Như-bất-kỳ-Sản-phẩm" font-family="SFCompactDisplay-Light, SF Compact Display" font-size="16" font-weight="300" line-spacing="23">
                    <tspan x="0" y="117">Như bất kỳ Sản phẩm mới nào, sự </tspan>
                    <tspan x="0" y="140">thành công luôn cần bắt đầu từ Thế </tspan>
                    <tspan x="0" y="163">hệ người dùng đầu tiên. Chúng tôi </tspan>
                    <tspan x="0" y="186">mong rằng qua những chia sẻ </tspan>
                    <tspan x="0" y="209">trên sẽ  nhận được sự đồng </tspan>
                    <tspan x="0" y="232">hành, ủng hộ cũng như </tspan>
                    <tspan x="0" y="255">những ý kiến đóng góp </tspan>
                    <tspan x="0" y="278">của các bạn.</tspan>
                </text>
                <text id="Chanchan-là-một-sản" font-family="SFCompactDisplay-Light, SF Compact Display" font-size="16" font-weight="300" line-spacing="23">
                    <tspan x="0" y="55">Chanchan là một sản phẩm mới </tspan>
                    <tspan x="0" y="78">đang trong Giai đoạn Thử nghiệm. </tspan>
                </text>
                <text id="Mong-muốn" font-family="SFCompactDisplay-Semibold, SF Compact Display" font-size="20" font-weight="500" letter-spacing="-0.8">
                    <tspan x="0" y="19">Mong muốn</tspan>
                </text>
                <path d="M5.390625,320.226562 C7.3203125,320.226562 8.90625,319.15625 9.25,317.570312 C9.28125,317.453125 9.3046875,317.289062 9.3046875,317.234375 L8.15625,317.234375 C7.90625,318.398438 6.8671875,319.15625 5.4765625,319.15625 C3.6796875,319.15625 2.6171875,318.023438 2.6171875,316.140625 C2.6171875,315.804688 2.671875,315.148438 2.71875,314.898438 L3.046875,313.25 C3.4375,311.28125 4.515625,310.1875 6.1953125,310.1875 C7.6875,310.1875 8.734375,311.148438 8.84375,312.304688 C8.8515625,312.367188 8.8515625,312.4375 8.84375,312.53125 L9.96875,312.53125 C9.9765625,312.492188 9.984375,312.398438 9.984375,312.265625 C9.984375,310.554688 8.4375,309.109375 6.21875,309.109375 C3.953125,309.109375 2.375,310.601562 1.90625,313.03125 L1.5234375,314.992188 C1.484375,315.21875 1.453125,315.75 1.453125,316.179688 C1.453125,318.65625 2.96875,320.226562 5.390625,320.226562 Z M15.46875,310.75 C16.3984375,310.34375 16.8671875,309.828125 16.8671875,309.015625 C16.8671875,308.34375 16.328125,307.835938 15.421875,307.835938 C14.9765625,307.835938 14.75,307.890625 14.546875,307.984375 L14.4375,308.695312 C14.6171875,308.625 14.8359375,308.554688 15.2578125,308.554688 C15.6953125,308.554688 16.0078125,308.820312 16.0078125,309.140625 C16.0078125,309.492188 15.8125,309.765625 15.09375,310.125 L15.46875,310.75 Z M13.4921875,320.132812 C14.765625,320.132812 15.5859375,319.4375 15.8671875,318.875 L15.9453125,318.875 L15.75,320 L16.859375,320 L17.6640625,315.4375 C17.7421875,315.046875 17.8125,314.59375 17.8125,314.164062 C17.8125,312.703125 16.8203125,311.6875 14.96875,311.6875 C13.25,311.6875 12.140625,312.546875 11.921875,313.71875 L13.03125,313.71875 C13.2109375,313.171875 13.796875,312.671875 14.8828125,312.671875 C16.2265625,312.671875 16.7265625,313.46875 16.7265625,314.265625 C16.7265625,314.421875 16.703125,314.601562 16.6875,314.695312 L16.6015625,315.242188 L14.328125,315.242188 C12.25,315.242188 11.1796875,316.164062 11.0390625,317.507812 C11.0234375,317.640625 11.0234375,317.765625 11.0234375,317.867188 C11.0234375,319.289062 12.140625,320.132812 13.4921875,320.132812 Z M13.765625,319.15625 C12.765625,319.15625 12.171875,318.578125 12.171875,317.757812 C12.171875,316.898438 12.8359375,316.179688 14.2265625,316.179688 L16.3984375,316.179688 L16.2109375,317.25 C16.0078125,318.367188 14.9609375,319.15625 13.765625,319.15625 Z M20.8203125,320 L21.671875,315.15625 C21.90625,313.804688 22.6484375,312.65625 24.03125,312.65625 C25.15625,312.65625 25.5625,313.4375 25.5625,314.421875 C25.5625,314.773438 25.5234375,315.140625 25.484375,315.359375 L24.6640625,320 L25.8046875,320 L26.6640625,315.164062 C26.921875,313.71875 27.65625,312.65625 28.8984375,312.65625 C29.9765625,312.65625 30.390625,313.421875 30.390625,314.4375 C30.390625,314.78125 30.3359375,315.15625 30.296875,315.375 L29.484375,320 L30.625,320 L31.4296875,315.445312 C31.4921875,315.070312 31.5703125,314.578125 31.5703125,314.15625 C31.5703125,312.820312 30.8359375,311.6875 29.1875,311.6875 C27.734375,311.6875 27.015625,312.609375 26.734375,313.25 L26.65625,313.25 C26.390625,312.367188 25.6171875,311.6875 24.3671875,311.6875 C23.15625,311.6875 22.40625,312.390625 22.0703125,313.1875 L21.984375,313.1875 L22.2265625,311.820312 L21.1171875,311.820312 L19.671875,320 L20.8203125,320 Z M40.46875,320.132812 C42.5,320.132812 43.6953125,318.96875 44.046875,317.03125 L44.25,315.914062 C44.3046875,315.570312 44.3359375,315.1875 44.3359375,314.953125 C44.3359375,314.023438 44,313.242188 43.671875,312.84375 L43.6953125,312.78125 C44.90625,312.765625 45.3125,311.960938 45.5390625,310.6875 L45.734375,309.609375 L44.703125,309.609375 L44.4921875,310.78125 C44.3515625,311.554688 43.9609375,312.03125 43.171875,312.03125 C42.4375,312.03125 41.9375,311.6875 41.0234375,311.6875 C39.296875,311.6875 37.8984375,312.796875 37.5546875,314.765625 L37.359375,315.875 C37.296875,316.234375 37.2734375,316.625 37.2734375,317.007812 C37.2734375,318.96875 38.65625,320.132812 40.46875,320.132812 Z M40.609375,319.132812 C39.2265625,319.132812 38.390625,318.195312 38.390625,316.828125 C38.390625,316.46875 38.421875,316.210938 38.46875,315.953125 L38.6484375,314.984375 C38.9296875,313.382812 39.859375,312.6875 41,312.6875 C42.3515625,312.6875 43.1953125,313.632812 43.1953125,314.945312 C43.1953125,315.0625 43.1953125,315.453125 43.15625,315.703125 L42.9765625,316.742188 C42.703125,318.273438 41.8671875,319.132812 40.609375,319.132812 Z M47.0859375,320 L47.9296875,315.195312 C48.1640625,313.859375 49,312.65625 50.46875,312.65625 C51.6875,312.65625 52.15625,313.5 52.15625,314.460938 C52.15625,314.820312 52.09375,315.226562 52.0546875,315.445312 L51.25,320 L52.390625,320 L53.1875,315.515625 C53.2578125,315.109375 53.328125,314.664062 53.328125,314.25 C53.328125,312.914062 52.5546875,311.6875 50.8046875,311.6875 C49.625,311.6875 48.78125,312.25 48.3359375,313.1875 L48.25,313.1875 L48.5,311.820312 L47.3828125,311.820312 L45.9375,320 L47.0859375,320 Z M62.8671875,320.132812 C64.78125,320.132812 65.9453125,318.859375 66.234375,317.21875 L66.5,315.679688 C66.5546875,315.359375 66.5703125,315.007812 66.5703125,314.734375 C66.5703125,312.835938 65.3984375,311.6875 63.6875,311.6875 C62.3046875,311.6875 61.6015625,312.492188 61.3046875,313.117188 L61.2109375,313.117188 L62,308.773438 L60.859375,308.773438 L58.859375,320 L59.9921875,320 L60.2890625,318.328125 L60.375,318.328125 C60.578125,319.171875 61.5078125,320.132812 62.8671875,320.132812 Z M62.8359375,319.09375 C61.828125,319.09375 60.6796875,318.34375 60.671875,316.71875 C60.671875,316.679688 60.671875,316.507812 60.7109375,316.320312 L60.9140625,315.046875 C61.140625,313.679688 62.03125,312.648438 63.359375,312.648438 C64.6484375,312.648438 65.46875,313.484375 65.46875,314.882812 C65.46875,315.09375 65.4609375,315.382812 65.4296875,315.585938 L65.2109375,316.828125 C64.984375,318.085938 64.1328125,319.09375 62.8359375,319.09375 Z M70.5234375,320.132812 C71.796875,320.132812 72.6171875,319.4375 72.8984375,318.875 L72.9765625,318.875 L72.78125,320 L73.890625,320 L74.6953125,315.4375 C74.7734375,315.046875 74.84375,314.59375 74.84375,314.164062 C74.84375,312.703125 73.8515625,311.6875 72,311.6875 C70.28125,311.6875 69.171875,312.546875 68.953125,313.71875 L70.0625,313.71875 C70.2421875,313.171875 70.828125,312.671875 71.9140625,312.671875 C73.2578125,312.671875 73.7578125,313.46875 73.7578125,314.265625 C73.7578125,314.421875 73.734375,314.601562 73.71875,314.695312 L73.6328125,315.242188 L71.359375,315.242188 C69.28125,315.242188 68.2109375,316.164062 68.0703125,317.507812 C68.0546875,317.640625 68.0546875,317.765625 68.0546875,317.867188 C68.0546875,319.289062 69.171875,320.132812 70.5234375,320.132812 Z M70.796875,319.15625 C69.796875,319.15625 69.203125,318.578125 69.203125,317.757812 C69.203125,316.898438 69.8671875,316.179688 71.2578125,316.179688 L73.4296875,316.179688 L73.2421875,317.25 C73.0390625,318.367188 71.9921875,319.15625 70.796875,319.15625 Z M70.265625,322.546875 C70.71875,322.546875 71.0390625,322.25 71.0390625,321.804688 C71.0390625,321.367188 70.71875,321.054688 70.265625,321.054688 C69.8203125,321.054688 69.5,321.367188 69.5,321.804688 C69.5,322.25 69.8203125,322.546875 70.265625,322.546875 Z M77.8515625,320 L78.6953125,315.195312 C78.9296875,313.859375 79.765625,312.65625 81.234375,312.65625 C82.453125,312.65625 82.921875,313.5 82.921875,314.460938 C82.921875,314.820312 82.859375,315.226562 82.8203125,315.445312 L82.015625,320 L83.15625,320 L83.953125,315.515625 C84.0234375,315.109375 84.09375,314.664062 84.09375,314.25 C84.09375,312.914062 83.3203125,311.6875 81.5703125,311.6875 C80.390625,311.6875 79.546875,312.25 79.1015625,313.1875 L79.015625,313.1875 L79.265625,311.820312 L78.1484375,311.820312 L76.703125,320 L77.8515625,320 Z M92.7109375,320.117188 C94.078125,320.117188 94.859375,319.25 95.09375,318.617188 L95.1875,318.617188 L94.9453125,320 L96.0625,320 L97.703125,310.726562 L98.984375,310.726562 L99.1484375,309.8125 L97.8671875,309.8125 L98.0546875,308.773438 L96.8984375,308.773438 L96.71875,309.8125 L94.921875,309.8125 L94.765625,310.726562 L96.5625,310.726562 L96.0859375,313.429688 L95.9921875,313.429688 C95.8515625,312.671875 94.9609375,311.6875 93.53125,311.6875 C91.6015625,311.6875 90.4453125,312.9375 90.140625,314.546875 L89.8515625,316.078125 C89.7890625,316.375 89.7734375,316.734375 89.7734375,317.039062 C89.7734375,318.90625 91.0078125,320.117188 92.7109375,320.117188 Z M93.046875,319.109375 C91.7421875,319.109375 90.9140625,318.265625 90.9140625,316.867188 C90.9140625,316.59375 90.9375,316.296875 90.9609375,316.15625 L91.203125,314.9375 C91.4609375,313.640625 92.25,312.664062 93.578125,312.664062 C94.640625,312.664062 95.7734375,313.429688 95.7734375,315.03125 C95.7734375,315.101562 95.7578125,315.234375 95.7265625,315.429688 L95.5078125,316.703125 C95.2578125,318.101562 94.3671875,319.109375 93.046875,319.109375 Z M104.242188,310.414062 C105.132812,310.414062 105.695312,309.554688 105.765625,308.65625 L104.960938,308.65625 C104.890625,309.234375 104.648438,309.609375 104.257812,309.609375 C103.617188,309.609375 103.578125,308.390625 102.328125,308.390625 C101.453125,308.390625 100.882812,309.132812 100.796875,310.148438 L101.601562,310.148438 C101.664062,309.5625 101.875,309.195312 102.304688,309.195312 C103,309.195312 103.03125,310.414062 104.242188,310.414062 Z M101.335938,320.132812 C102.609375,320.132812 103.429688,319.4375 103.710938,318.875 L103.789062,318.875 L103.59375,320 L104.703125,320 L105.507812,315.4375 C105.585938,315.046875 105.65625,314.59375 105.65625,314.164062 C105.65625,312.703125 104.664062,311.6875 102.8125,311.6875 C101.09375,311.6875 99.984375,312.546875 99.765625,313.71875 L100.875,313.71875 C101.054688,313.171875 101.640625,312.671875 102.726562,312.671875 C104.070312,312.671875 104.570312,313.46875 104.570312,314.265625 C104.570312,314.421875 104.546875,314.601562 104.53125,314.695312 L104.445312,315.242188 L102.171875,315.242188 C100.09375,315.242188 99.0234375,316.164062 98.8828125,317.507812 C98.8671875,317.640625 98.8671875,317.765625 98.8671875,317.867188 C98.8671875,319.289062 99.984375,320.132812 101.335938,320.132812 Z M101.609375,319.15625 C100.609375,319.15625 100.015625,318.578125 100.015625,317.757812 C100.015625,316.898438 100.679688,316.179688 102.070312,316.179688 L104.242188,316.179688 L104.054688,317.25 C103.851562,318.367188 102.804688,319.15625 101.609375,319.15625 Z M114.257812,320.117188 C115.625,320.117188 116.40625,319.25 116.640625,318.617188 L116.734375,318.617188 L116.492188,320 L117.609375,320 L119.601562,308.773438 L118.445312,308.773438 L117.632812,313.429688 L117.539062,313.429688 C117.398438,312.671875 116.507812,311.6875 115.078125,311.6875 C113.148438,311.6875 111.992188,312.9375 111.6875,314.546875 L111.398438,316.078125 C111.335938,316.375 111.320312,316.734375 111.320312,317.039062 C111.320312,318.90625 112.554688,320.117188 114.257812,320.117188 Z M114.59375,319.109375 C113.289062,319.109375 112.460938,318.265625 112.460938,316.867188 C112.460938,316.59375 112.484375,316.296875 112.507812,316.15625 L112.75,314.9375 C113.007812,313.640625 113.796875,312.664062 115.125,312.664062 C116.1875,312.664062 117.320312,313.429688 117.320312,315.03125 C117.320312,315.101562 117.304688,315.234375 117.273438,315.429688 L117.054688,316.703125 C116.804688,318.101562 115.914062,319.109375 114.59375,319.109375 Z M125.445312,310.460938 L123.976562,307.71875 L122.726562,307.71875 L124.570312,310.460938 L125.445312,310.460938 Z M122.859375,320.132812 C124.132812,320.132812 124.953125,319.4375 125.234375,318.875 L125.3125,318.875 L125.117188,320 L126.226562,320 L127.03125,315.4375 C127.109375,315.046875 127.179688,314.59375 127.179688,314.164062 C127.179688,312.703125 126.1875,311.6875 124.335938,311.6875 C122.617188,311.6875 121.507812,312.546875 121.289062,313.71875 L122.398438,313.71875 C122.578125,313.171875 123.164062,312.671875 124.25,312.671875 C125.59375,312.671875 126.09375,313.46875 126.09375,314.265625 C126.09375,314.421875 126.070312,314.601562 126.054688,314.695312 L125.96875,315.242188 L123.695312,315.242188 C121.617188,315.242188 120.546875,316.164062 120.40625,317.507812 C120.390625,317.640625 120.390625,317.765625 120.390625,317.867188 C120.390625,319.289062 121.507812,320.132812 122.859375,320.132812 Z M123.132812,319.15625 C122.132812,319.15625 121.539062,318.578125 121.539062,317.757812 C121.539062,316.898438 122.203125,316.179688 123.59375,316.179688 L125.765625,316.179688 L125.578125,317.25 C125.375,318.367188 124.328125,319.15625 123.132812,319.15625 Z M130.1875,320 L131.03125,315.195312 C131.265625,313.859375 132.101562,312.65625 133.570312,312.65625 C134.789062,312.65625 135.257812,313.5 135.257812,314.460938 C135.257812,314.820312 135.195312,315.226562 135.15625,315.445312 L134.351562,320 L135.492188,320 L136.289062,315.515625 C136.359375,315.109375 136.429688,314.664062 136.429688,314.25 C136.429688,312.914062 135.65625,311.6875 133.90625,311.6875 C132.726562,311.6875 131.882812,312.25 131.4375,313.1875 L131.351562,313.1875 L131.601562,311.820312 L130.484375,311.820312 L129.039062,320 L130.1875,320 Z M139.453125,320 L140.296875,315.195312 C140.53125,313.859375 141.382812,312.65625 142.851562,312.65625 C144.070312,312.65625 144.5625,313.492188 144.5625,314.453125 C144.5625,314.804688 144.5,315.234375 144.460938,315.445312 L143.65625,320 L144.804688,320 L145.59375,315.515625 C145.664062,315.109375 145.734375,314.65625 145.734375,314.25 C145.734375,312.898438 144.898438,311.6875 143.179688,311.6875 C141.960938,311.6875 141.117188,312.28125 140.703125,313.1875 L140.617188,313.1875 L141.429688,308.773438 L140.296875,308.773438 L138.304688,320 L139.453125,320 Z M3.6640625,344.070312 C4.046875,344.070312 4.5390625,344.023438 4.765625,343.96875 L4.9375,343.023438 C4.703125,343.070312 4.2734375,343.109375 3.9296875,343.109375 C3.21875,343.109375 2.90625,342.851562 2.90625,342.265625 C2.90625,342.03125 2.9453125,341.773438 3.0703125,341.054688 L3.8203125,336.765625 L5.671875,336.765625 L5.84375,335.820312 L3.9921875,335.820312 L4.34375,333.773438 L3.21875,333.773438 L2.84375,335.820312 L1.546875,335.820312 L1.375,336.765625 L2.6796875,336.765625 L1.84375,341.5 C1.7734375,341.929688 1.7265625,342.296875 1.7265625,342.546875 C1.7265625,343.5625 2.375,344.070312 3.6640625,344.070312 Z M7.9921875,344 L8.8359375,339.195312 C9.0703125,337.859375 9.921875,336.65625 11.390625,336.65625 C12.609375,336.65625 13.1015625,337.492188 13.1015625,338.453125 C13.1015625,338.804688 13.0390625,339.234375 13,339.445312 L12.1953125,344 L13.34375,344 L14.1328125,339.515625 C14.203125,339.109375 14.2734375,338.65625 14.2734375,338.25 C14.2734375,336.898438 13.4375,335.6875 11.71875,335.6875 C10.5,335.6875 9.65625,336.28125 9.2421875,337.1875 L9.15625,337.1875 L9.96875,332.773438 L8.8359375,332.773438 L6.84375,344 L7.9921875,344 Z M21.5,334.460938 L20.03125,331.71875 L18.78125,331.71875 L20.625,334.460938 L21.5,334.460938 Z M19.53125,344.132812 C21.5625,344.132812 22.7578125,342.96875 23.109375,341.03125 L23.3125,339.914062 C23.3671875,339.570312 23.3984375,339.1875 23.3984375,338.953125 C23.3984375,338.023438 23.0625,337.242188 22.734375,336.84375 L22.7578125,336.78125 C23.96875,336.765625 24.375,335.960938 24.6015625,334.6875 L24.796875,333.609375 L23.765625,333.609375 L23.5546875,334.78125 C23.4140625,335.554688 23.0234375,336.03125 22.234375,336.03125 C21.5,336.03125 21,335.6875 20.0859375,335.6875 C18.359375,335.6875 16.9609375,336.796875 16.6171875,338.765625 L16.421875,339.875 C16.359375,340.234375 16.3359375,340.625 16.3359375,341.007812 C16.3359375,342.96875 17.71875,344.132812 19.53125,344.132812 Z M19.671875,343.132812 C18.2890625,343.132812 17.453125,342.195312 17.453125,340.828125 C17.453125,340.46875 17.484375,340.210938 17.53125,339.953125 L17.7109375,338.984375 C17.9921875,337.382812 18.921875,336.6875 20.0625,336.6875 C21.4140625,336.6875 22.2578125,337.632812 22.2578125,338.945312 C22.2578125,339.0625 22.2578125,339.453125 22.21875,339.703125 L22.0390625,340.742188 C21.765625,342.273438 20.9296875,343.132812 19.671875,343.132812 Z M27.4140625,334.1875 C27.921875,334.1875 28.296875,333.820312 28.296875,333.328125 C28.296875,332.828125 27.921875,332.453125 27.4140625,332.453125 C26.9375,332.453125 26.5546875,332.828125 26.5546875,333.328125 C26.5546875,333.820312 26.9375,334.1875 27.4140625,334.1875 Z M26.25,344 L27.6875,335.820312 L26.546875,335.820312 L25.109375,344 L26.25,344 Z M35.6640625,346.96875 C37.7265625,346.96875 38.953125,345.984375 39.328125,343.867188 L40.7421875,335.820312 L39.6171875,335.820312 L39.3359375,337.429688 L39.2421875,337.429688 C39,336.53125 38.1328125,335.6875 36.734375,335.6875 C35.21875,335.6875 33.765625,336.59375 33.3671875,338.6875 L33.1875,339.640625 C33.125,339.953125 33.078125,340.476562 33.078125,340.757812 C33.078125,342.6875 34.5078125,343.851562 36.0234375,343.851562 C37.3125,343.851562 38.0859375,343.1875 38.3828125,342.46875 L38.4765625,342.46875 L38.265625,343.664062 C37.9921875,345.234375 37.2109375,345.992188 35.734375,345.992188 C34.515625,345.992188 33.7265625,345.304688 33.7265625,344.65625 L33.7265625,344.554688 L33.7265625,344.554688 L32.609375,344.554688 C32.609375,344.5625 32.6015625,344.65625 32.6015625,344.671875 C32.6015625,345.867188 33.7890625,346.96875 35.6640625,346.96875 Z M36.375,342.890625 C35.0703125,342.890625 34.203125,342.109375 34.203125,340.585938 C34.203125,340.375 34.2578125,339.945312 34.296875,339.71875 L34.4296875,339.039062 C34.703125,337.554688 35.5703125,336.65625 36.7890625,336.65625 C38.0546875,336.65625 38.984375,337.539062 38.984375,338.976562 C38.984375,339.046875 38.984375,339.28125 38.90625,339.71875 L38.7578125,340.554688 C38.5234375,341.921875 37.5859375,342.890625 36.375,342.890625 Z M44.5859375,334.1875 C45.09375,334.1875 45.46875,333.820312 45.46875,333.328125 C45.46875,332.828125 45.09375,332.453125 44.5859375,332.453125 C44.109375,332.453125 43.7265625,332.828125 43.7265625,333.328125 C43.7265625,333.820312 44.109375,334.1875 44.5859375,334.1875 Z M43.421875,344 L44.859375,335.820312 L43.71875,335.820312 L42.28125,344 L43.421875,344 Z M48.796875,344.132812 C50.0703125,344.132812 50.890625,343.4375 51.171875,342.875 L51.25,342.875 L51.0546875,344 L52.1640625,344 L52.96875,339.4375 C53.046875,339.046875 53.1171875,338.59375 53.1171875,338.164062 C53.1171875,336.703125 52.125,335.6875 50.2734375,335.6875 C48.5546875,335.6875 47.4453125,336.546875 47.2265625,337.71875 L48.3359375,337.71875 C48.515625,337.171875 49.1015625,336.671875 50.1875,336.671875 C51.53125,336.671875 52.03125,337.46875 52.03125,338.265625 C52.03125,338.421875 52.0078125,338.601562 51.9921875,338.695312 L51.90625,339.242188 L49.6328125,339.242188 C47.5546875,339.242188 46.484375,340.164062 46.34375,341.507812 C46.328125,341.640625 46.328125,341.765625 46.328125,341.867188 C46.328125,343.289062 47.4453125,344.132812 48.796875,344.132812 Z M49.0703125,343.15625 C48.0703125,343.15625 47.4765625,342.578125 47.4765625,341.757812 C47.4765625,340.898438 48.140625,340.179688 49.53125,340.179688 L51.703125,340.179688 L51.515625,341.25 C51.3125,342.367188 50.265625,343.15625 49.0703125,343.15625 Z M56.125,344 L56.96875,339.195312 C57.203125,337.859375 58.0390625,336.65625 59.5078125,336.65625 C60.7265625,336.65625 61.1953125,337.5 61.1953125,338.460938 C61.1953125,338.820312 61.1328125,339.226562 61.09375,339.445312 L60.2890625,344 L61.4296875,344 L62.2265625,339.515625 C62.296875,339.109375 62.3671875,338.664062 62.3671875,338.25 C62.3671875,336.914062 61.59375,335.6875 59.84375,335.6875 C58.6640625,335.6875 57.8203125,336.25 57.375,337.1875 L57.2890625,337.1875 L57.5390625,335.820312 L56.421875,335.820312 L54.9765625,344 L56.125,344 Z M66.140625,340.710938 L67.65625,333.335938 L66.375,333.335938 L65.28125,340.710938 L66.140625,340.710938 Z M65.359375,344.132812 C65.9375,344.132812 66.375,343.703125 66.375,343.15625 C66.375,342.578125 65.9375,342.148438 65.359375,342.148438 C64.828125,342.148438 64.390625,342.578125 64.390625,343.15625 C64.390625,343.703125 64.828125,344.132812 65.359375,344.132812 Z M76.3671875,344.226562 C78.5703125,344.226562 80.1328125,343.0625 80.1328125,341.070312 C80.1328125,339.34375 78.8984375,338.757812 77.5078125,338.210938 L76.875,337.960938 C75.734375,337.507812 74.859375,337 74.859375,335.984375 C74.859375,334.71875 76.0703125,334.15625 77.2109375,334.15625 C78.484375,334.15625 79.5,334.882812 79.5,335.960938 C79.5,336.054688 79.4921875,336.09375 79.4921875,336.101562 L80.59375,336.101562 C80.59375,336.09375 80.609375,335.859375 80.609375,335.828125 C80.609375,334.109375 79,333.117188 77.2265625,333.117188 C75.234375,333.117188 73.65625,334.1875 73.65625,336.039062 C73.65625,337.71875 75.0546875,338.53125 76.421875,339.039062 L76.921875,339.226562 C78.0078125,339.632812 78.921875,340.0625 78.921875,341.179688 C78.921875,342.390625 77.921875,343.1875 76.421875,343.1875 C74.765625,343.1875 73.7890625,342.234375 73.7890625,341.257812 C73.7890625,341.195312 73.796875,341.109375 73.8046875,341.046875 L72.65625,341.046875 C72.640625,341.148438 72.6328125,341.289062 72.6328125,341.40625 C72.6328125,342.835938 74.0546875,344.226562 76.3671875,344.226562 Z M84.484375,344.132812 C85.7578125,344.132812 86.578125,343.4375 86.859375,342.875 L86.9375,342.875 L86.7421875,344 L87.8515625,344 L88.65625,339.4375 C88.734375,339.046875 88.8046875,338.59375 88.8046875,338.164062 C88.8046875,336.703125 87.8125,335.6875 85.9609375,335.6875 C84.2421875,335.6875 83.1328125,336.546875 82.9140625,337.71875 L84.0234375,337.71875 C84.203125,337.171875 84.7890625,336.671875 85.875,336.671875 C87.21875,336.671875 87.71875,337.46875 87.71875,338.265625 C87.71875,338.421875 87.6953125,338.601562 87.6796875,338.695312 L87.59375,339.242188 L85.3203125,339.242188 C83.2421875,339.242188 82.171875,340.164062 82.03125,341.507812 C82.015625,341.640625 82.015625,341.765625 82.015625,341.867188 C82.015625,343.289062 83.1328125,344.132812 84.484375,344.132812 Z M84.7578125,343.15625 C83.7578125,343.15625 83.1640625,342.578125 83.1640625,341.757812 C83.1640625,340.898438 83.828125,340.179688 85.21875,340.179688 L87.390625,340.179688 L87.203125,341.25 C87,342.367188 85.953125,343.15625 84.7578125,343.15625 Z M93.609375,344.132812 C94.796875,344.132812 95.65625,343.46875 96.046875,342.585938 L96.140625,342.585938 L95.890625,344 L96.96875,344 L98.40625,335.820312 L97.3125,335.820312 L96.46875,340.585938 C96.2421875,341.921875 95.4296875,343.109375 93.96875,343.109375 C92.765625,343.109375 92.1875,342.414062 92.1875,341.390625 C92.1875,341.054688 92.2421875,340.640625 92.296875,340.34375 L93.109375,335.820312 L91.9765625,335.820312 L91.1640625,340.273438 C91.0859375,340.648438 91.0078125,341.15625 91.0078125,341.59375 C91.0078125,342.992188 91.9296875,344.132812 93.609375,344.132812 Z M106.570312,344.117188 C107.9375,344.117188 108.71875,343.25 108.953125,342.617188 L109.046875,342.617188 L108.804688,344 L109.921875,344 L111.5625,334.726562 L112.84375,334.726562 L113.007812,333.8125 L111.726562,333.8125 L111.914062,332.773438 L110.757812,332.773438 L110.578125,333.8125 L108.78125,333.8125 L108.625,334.726562 L110.421875,334.726562 L109.945312,337.429688 L109.851562,337.429688 C109.710938,336.671875 108.820312,335.6875 107.390625,335.6875 C105.460938,335.6875 104.304688,336.9375 104,338.546875 L103.710938,340.078125 C103.648438,340.375 103.632812,340.734375 103.632812,341.039062 C103.632812,342.90625 104.867188,344.117188 106.570312,344.117188 Z M106.90625,343.109375 C105.601562,343.109375 104.773438,342.265625 104.773438,340.867188 C104.773438,340.59375 104.796875,340.296875 104.820312,340.15625 L105.0625,338.9375 C105.320312,337.640625 106.109375,336.664062 107.4375,336.664062 C108.5,336.664062 109.632812,337.429688 109.632812,339.03125 C109.632812,339.101562 109.617188,339.234375 109.585938,339.429688 L109.367188,340.703125 C109.117188,342.101562 108.226562,343.109375 106.90625,343.109375 Z M115.796875,334.460938 L117.414062,332.296875 L117.4375,332.296875 L118.34375,334.460938 L119.34375,334.460938 L118,331.523438 L117.078125,331.523438 L114.757812,334.460938 L115.796875,334.460938 Z M115.195312,344.132812 C116.46875,344.132812 117.289062,343.4375 117.570312,342.875 L117.648438,342.875 L117.453125,344 L118.5625,344 L119.367188,339.4375 C119.445312,339.046875 119.515625,338.59375 119.515625,338.164062 C119.515625,336.703125 118.523438,335.6875 116.671875,335.6875 C114.953125,335.6875 113.84375,336.546875 113.625,337.71875 L114.734375,337.71875 C114.914062,337.171875 115.5,336.671875 116.585938,336.671875 C117.929688,336.671875 118.429688,337.46875 118.429688,338.265625 C118.429688,338.421875 118.40625,338.601562 118.390625,338.695312 L118.304688,339.242188 L116.03125,339.242188 C113.953125,339.242188 112.882812,340.164062 112.742188,341.507812 C112.726562,341.640625 112.726562,341.765625 112.726562,341.867188 C112.726562,343.289062 113.84375,344.132812 115.195312,344.132812 Z M115.46875,343.15625 C114.46875,343.15625 113.875,342.578125 113.875,341.757812 C113.875,340.898438 114.539062,340.179688 115.929688,340.179688 L118.101562,340.179688 L117.914062,341.25 C117.710938,342.367188 116.664062,343.15625 115.46875,343.15625 Z M121.382812,346.835938 C122.789062,346.835938 123.40625,346.382812 124.21875,344.78125 L124.609375,344.015625 L128.882812,335.820312 L127.65625,335.820312 L124.289062,342.664062 L124.210938,342.664062 L123.085938,335.820312 L121.867188,335.820312 L123.429688,343.929688 L123.164062,344.5 C122.710938,345.492188 122.242188,345.867188 121.5,345.867188 C121.242188,345.867188 120.976562,345.835938 120.789062,345.789062 L120.578125,346.734375 C120.75,346.78125 121.085938,346.835938 121.382812,346.835938 Z M5.0234375,368.132812 C6.9375,368.132812 8.1015625,366.859375 8.390625,365.21875 L8.65625,363.679688 C8.7109375,363.359375 8.7265625,363.007812 8.7265625,362.734375 C8.7265625,360.835938 7.5546875,359.6875 5.84375,359.6875 C4.4609375,359.6875 3.7578125,360.492188 3.4609375,361.117188 L3.3671875,361.117188 L4.15625,356.773438 L3.015625,356.773438 L1.015625,368 L2.1484375,368 L2.4453125,366.328125 L2.53125,366.328125 C2.734375,367.171875 3.6640625,368.132812 5.0234375,368.132812 Z M4.9921875,367.09375 C3.984375,367.09375 2.8359375,366.34375 2.828125,364.71875 C2.828125,364.679688 2.828125,364.507812 2.8671875,364.320312 L3.0703125,363.046875 C3.296875,361.679688 4.1875,360.648438 5.515625,360.648438 C6.8046875,360.648438 7.625,361.484375 7.625,362.882812 C7.625,363.09375 7.6171875,363.382812 7.5859375,363.585938 L7.3671875,364.828125 C7.140625,366.085938 6.2890625,367.09375 4.9921875,367.09375 Z M12.6796875,368.132812 C13.953125,368.132812 14.7734375,367.4375 15.0546875,366.875 L15.1328125,366.875 L14.9375,368 L16.046875,368 L16.8515625,363.4375 C16.9296875,363.046875 17,362.59375 17,362.164062 C17,360.703125 16.0078125,359.6875 14.15625,359.6875 C12.4375,359.6875 11.328125,360.546875 11.109375,361.71875 L12.21875,361.71875 C12.3984375,361.171875 12.984375,360.671875 14.0703125,360.671875 C15.4140625,360.671875 15.9140625,361.46875 15.9140625,362.265625 C15.9140625,362.421875 15.890625,362.601562 15.875,362.695312 L15.7890625,363.242188 L13.515625,363.242188 C11.4375,363.242188 10.3671875,364.164062 10.2265625,365.507812 C10.2109375,365.640625 10.2109375,365.765625 10.2109375,365.867188 C10.2109375,367.289062 11.328125,368.132812 12.6796875,368.132812 Z M12.953125,367.15625 C11.953125,367.15625 11.359375,366.578125 11.359375,365.757812 C11.359375,364.898438 12.0234375,364.179688 13.4140625,364.179688 L15.5859375,364.179688 L15.3984375,365.25 C15.1953125,366.367188 14.1484375,367.15625 12.953125,367.15625 Z M12.421875,370.546875 C12.875,370.546875 13.1953125,370.25 13.1953125,369.804688 C13.1953125,369.367188 12.875,369.054688 12.421875,369.054688 C11.9765625,369.054688 11.65625,369.367188 11.65625,369.804688 C11.65625,370.25 11.9765625,370.546875 12.421875,370.546875 Z M20.0078125,368 L20.8515625,363.195312 C21.0859375,361.859375 21.921875,360.65625 23.390625,360.65625 C24.609375,360.65625 25.078125,361.5 25.078125,362.460938 C25.078125,362.820312 25.015625,363.226562 24.9765625,363.445312 L24.171875,368 L25.3125,368 L26.109375,363.515625 C26.1796875,363.109375 26.25,362.664062 26.25,362.25 C26.25,360.914062 25.4765625,359.6875 23.7265625,359.6875 C22.546875,359.6875 21.703125,360.25 21.2578125,361.1875 L21.171875,361.1875 L21.421875,359.820312 L20.3046875,359.820312 L18.859375,368 L20.0078125,368 Z M35.140625,368.132812 C36.78125,368.132812 38.0078125,367.273438 38.234375,365.984375 L37.0859375,365.984375 C36.9375,366.59375 36.265625,367.125 35.1953125,367.125 C33.8046875,367.125 33.078125,366.242188 33.078125,364.757812 C33.078125,364.5 33.1015625,364.25 33.1640625,363.914062 L33.328125,362.96875 C33.59375,361.484375 34.5078125,360.65625 35.7109375,360.65625 C36.984375,360.65625 37.6328125,361.507812 37.6328125,362.25 L37.6328125,362.34375 L37.6328125,362.34375 L38.7421875,362.34375 C38.75,362.335938 38.75,362.257812 38.75,362.242188 C38.75,360.875 37.6328125,359.6875 35.71875,359.6875 C33.90625,359.6875 32.5859375,360.71875 32.25,362.671875 L32.046875,363.84375 C31.9765625,364.257812 31.9453125,364.695312 31.9453125,365.007812 C31.9453125,366.921875 33.21875,368.132812 35.140625,368.132812 Z M44.7734375,358.460938 L47.46875,355.71875 L46.1953125,355.71875 L43.8125,358.460938 L44.7734375,358.460938 Z M43.4375,368.132812 C45.46875,368.132812 46.6640625,366.96875 47.015625,365.03125 L47.21875,363.914062 C47.28125,363.570312 47.3125,363.1875 47.3125,362.953125 C47.3125,360.898438 45.9375,359.6875 44,359.6875 C42.265625,359.6875 40.8671875,360.796875 40.5234375,362.765625 L40.3359375,363.875 C40.265625,364.234375 40.2421875,364.625 40.2421875,365.007812 C40.2421875,366.96875 41.6328125,368.132812 43.4375,368.132812 Z M43.578125,367.132812 C42.1953125,367.132812 41.359375,366.195312 41.359375,364.828125 C41.359375,364.46875 41.3984375,364.210938 41.4453125,363.953125 L41.6171875,362.984375 C41.8984375,361.382812 42.828125,360.6875 43.96875,360.6875 C45.328125,360.6875 46.171875,361.632812 46.171875,362.945312 C46.171875,363.0625 46.1640625,363.453125 46.125,363.703125 L45.9453125,364.742188 C45.6796875,366.273438 44.8359375,367.132812 43.578125,367.132812 Z M55.1875,368.070312 C55.5703125,368.070312 56.0625,368.023438 56.2890625,367.96875 L56.4609375,367.023438 C56.2265625,367.070312 55.796875,367.109375 55.453125,367.109375 C54.7421875,367.109375 54.4296875,366.851562 54.4296875,366.265625 C54.4296875,366.03125 54.46875,365.773438 54.59375,365.054688 L55.34375,360.765625 L57.1953125,360.765625 L57.3671875,359.820312 L55.515625,359.820312 L55.8671875,357.773438 L54.7421875,357.773438 L54.3671875,359.820312 L53.0703125,359.820312 L52.8984375,360.765625 L54.203125,360.765625 L53.3671875,365.5 C53.296875,365.929688 53.25,366.296875 53.25,366.546875 C53.25,367.5625 53.8984375,368.070312 55.1875,368.070312 Z M59.515625,368 L60.359375,363.195312 C60.59375,361.859375 61.4453125,360.65625 62.9140625,360.65625 C64.1328125,360.65625 64.625,361.492188 64.625,362.453125 C64.625,362.804688 64.5625,363.234375 64.5234375,363.445312 L63.71875,368 L64.8671875,368 L65.65625,363.515625 C65.7265625,363.109375 65.796875,362.65625 65.796875,362.25 C65.796875,360.898438 64.9609375,359.6875 63.2421875,359.6875 C62.0234375,359.6875 61.1796875,360.28125 60.765625,361.1875 L60.6796875,361.1875 L61.4921875,356.773438 L60.359375,356.773438 L58.3671875,368 L59.515625,368 Z M74.4609375,356.921875 C75.3046875,356.664062 75.8359375,356.0625 75.8359375,355.351562 C75.8359375,354.609375 75.3125,354.210938 74.328125,354.210938 C74.1171875,354.210938 73.8984375,354.25 73.7578125,354.296875 L73.640625,354.96875 C73.8046875,354.90625 74.046875,354.867188 74.2265625,354.867188 C74.7734375,354.867188 75.0546875,355.0625 75.0546875,355.460938 C75.0546875,355.828125 74.7265625,356.148438 74.15625,356.328125 L74.4609375,356.921875 Z M70.84375,358.453125 L72.4453125,356.9375 L72.4765625,356.9375 L73.453125,358.453125 L74.40625,358.453125 L72.9453125,356.21875 L72.203125,356.21875 L69.8046875,358.453125 L70.84375,358.453125 Z M70.921875,368.132812 C72.7421875,368.132812 73.8984375,367.015625 74.0859375,366.015625 L72.9453125,366.015625 C72.78125,366.578125 72.0859375,367.125 70.9921875,367.125 C69.4765625,367.125 68.90625,366.070312 68.90625,364.945312 C68.90625,364.664062 68.9453125,364.359375 68.9921875,364.179688 L74.421875,364.179688 C74.4375,364.101562 74.6171875,363.109375 74.6171875,363.078125 C74.8515625,361.570312 74.109375,359.6875 71.6953125,359.6875 C69.8125,359.6875 68.4765625,360.835938 68.15625,362.664062 L67.9453125,363.820312 C67.890625,364.109375 67.8203125,364.59375 67.8203125,365.054688 C67.8203125,367.0625 69.1328125,368.132812 70.921875,368.132812 Z M73.5,363.257812 L69.1796875,363.257812 C69.1796875,363.242188 69.2890625,362.726562 69.2890625,362.710938 C69.5859375,361.3125 70.5625,360.65625 71.65625,360.65625 C73.0859375,360.65625 73.75,361.734375 73.53125,363.054688 C73.53125,363.09375 73.5078125,363.234375 73.5,363.257812 Z M82.484375,368.070312 C82.8671875,368.070312 83.359375,368.023438 83.5859375,367.96875 L83.7578125,367.023438 C83.5234375,367.070312 83.09375,367.109375 82.75,367.109375 C82.0390625,367.109375 81.7265625,366.851562 81.7265625,366.265625 C81.7265625,366.03125 81.765625,365.773438 81.890625,365.054688 L82.640625,360.765625 L84.4921875,360.765625 L84.6640625,359.820312 L82.8125,359.820312 L83.1640625,357.773438 L82.0390625,357.773438 L81.6640625,359.820312 L80.3671875,359.820312 L80.1953125,360.765625 L81.5,360.765625 L80.6640625,365.5 C80.59375,365.929688 80.546875,366.296875 80.546875,366.546875 C80.546875,367.5625 81.1953125,368.070312 82.484375,368.070312 Z M88.1015625,358.1875 C88.609375,358.1875 88.984375,357.820312 88.984375,357.328125 C88.984375,356.828125 88.609375,356.453125 88.1015625,356.453125 C87.625,356.453125 87.2421875,356.828125 87.2421875,357.328125 C87.2421875,357.820312 87.625,358.1875 88.1015625,358.1875 Z M86.9375,368 L88.375,359.820312 L87.234375,359.820312 L85.796875,368 L86.9375,368 Z M97.3671875,357.023438 L100.078125,354.320312 L98.8359375,354.320312 L96.4609375,357.023438 L97.3671875,357.023438 Z M93.078125,358.453125 L94.6796875,356.9375 L94.7109375,356.9375 L95.6875,358.453125 L96.640625,358.453125 L95.1796875,356.21875 L94.4375,356.21875 L92.0390625,358.453125 L93.078125,358.453125 Z M93.15625,368.132812 C94.9765625,368.132812 96.1328125,367.015625 96.3203125,366.015625 L95.1796875,366.015625 C95.015625,366.578125 94.3203125,367.125 93.2265625,367.125 C91.7109375,367.125 91.140625,366.070312 91.140625,364.945312 C91.140625,364.664062 91.1796875,364.359375 91.2265625,364.179688 L96.65625,364.179688 C96.671875,364.101562 96.8515625,363.109375 96.8515625,363.078125 C97.0859375,361.570312 96.34375,359.6875 93.9296875,359.6875 C92.046875,359.6875 90.7109375,360.835938 90.390625,362.664062 L90.1796875,363.820312 C90.125,364.109375 90.0546875,364.59375 90.0546875,365.054688 C90.0546875,367.0625 91.3671875,368.132812 93.15625,368.132812 Z M95.734375,363.257812 L91.4140625,363.257812 C91.4140625,363.242188 91.5234375,362.726562 91.5234375,362.710938 C91.8203125,361.3125 92.796875,360.65625 93.890625,360.65625 C95.3203125,360.65625 95.984375,361.734375 95.765625,363.054688 C95.765625,363.09375 95.7421875,363.234375 95.734375,363.257812 Z M99.0859375,370.703125 L99.8359375,366.328125 L99.9296875,366.328125 C100.085938,367.078125 100.953125,368.132812 102.367188,368.132812 C104.304688,368.132812 105.507812,366.835938 105.765625,365.21875 L106.046875,363.679688 C106.109375,363.359375 106.109375,363.007812 106.109375,362.734375 C106.109375,360.84375 104.898438,359.6875 103.195312,359.6875 C101.796875,359.6875 101.09375,360.5 100.828125,361.117188 L100.734375,361.117188 L100.96875,359.820312 L99.8515625,359.820312 L97.9375,370.703125 L99.0859375,370.703125 Z M102.328125,367.09375 C101.3125,367.09375 100.179688,366.320312 100.179688,364.71875 C100.171875,364.679688 100.179688,364.507812 100.210938,364.320312 L100.421875,363.046875 C100.648438,361.65625 101.546875,360.648438 102.851563,360.648438 C104.15625,360.648438 105.007813,361.492188 105.007813,362.882812 C105.007813,363.101562 105,363.390625 104.96875,363.585938 L104.75,364.828125 C104.523438,366.0625 103.664063,367.09375 102.328125,367.09375 Z M113.976562,368.070312 C114.359375,368.070312 114.851562,368.023438 115.078125,367.96875 L115.25,367.023438 C115.015625,367.070312 114.585938,367.109375 114.242188,367.109375 C113.53125,367.109375 113.21875,366.851562 113.21875,366.265625 C113.21875,366.03125 113.257812,365.773438 113.382812,365.054688 L114.132812,360.765625 L115.984375,360.765625 L116.15625,359.820312 L114.304688,359.820312 L114.65625,357.773438 L113.53125,357.773438 L113.15625,359.820312 L111.859375,359.820312 L111.6875,360.765625 L112.992188,360.765625 L112.15625,365.5 C112.085938,365.929688 112.039062,366.296875 112.039062,366.546875 C112.039062,367.5625 112.6875,368.070312 113.976562,368.070312 Z M120.101562,368.132812 C121.289062,368.132812 122.148438,367.46875 122.539062,366.585938 L122.632812,366.585938 L122.382812,368 L123.460938,368 L124.898438,359.820312 L123.804688,359.820312 L122.960938,364.585938 C122.734375,365.921875 121.921875,367.109375 120.460938,367.109375 C119.257812,367.109375 118.679688,366.414062 118.679688,365.390625 C118.679688,365.054688 118.734375,364.640625 118.789062,364.34375 L119.601562,359.820312 L118.46875,359.820312 L117.65625,364.273438 C117.578125,364.648438 117.5,365.15625 117.5,365.59375 C117.5,366.992188 118.421875,368.132812 120.101562,368.132812 Z M119.976562,370.546875 C120.429688,370.546875 120.75,370.25 120.75,369.804688 C120.75,369.367188 120.429688,369.054688 119.976562,369.054688 C119.53125,369.054688 119.210938,369.367188 119.210938,369.804688 C119.210938,370.25 119.53125,370.546875 119.976562,370.546875 Z M129.679688,368.132812 C131.320312,368.132812 132.546875,367.273438 132.773438,365.984375 L131.625,365.984375 C131.476562,366.59375 130.804688,367.125 129.734375,367.125 C128.34375,367.125 127.617188,366.242188 127.617188,364.757812 C127.617188,364.5 127.640625,364.25 127.703125,363.914062 L127.867188,362.96875 C128.132812,361.484375 129.046875,360.65625 130.25,360.65625 C131.523438,360.65625 132.171875,361.507812 132.171875,362.25 L132.171875,362.34375 L132.171875,362.34375 L133.28125,362.34375 C133.289062,362.335938 133.289062,362.257812 133.289062,362.242188 C133.289062,360.875 132.171875,359.6875 130.257812,359.6875 C128.445312,359.6875 127.125,360.71875 126.789062,362.671875 L126.585938,363.84375 C126.515625,364.257812 126.484375,364.695312 126.484375,365.007812 C126.484375,366.921875 127.757812,368.132812 129.679688,368.132812 Z M5.0234375,392.132812 C6.9375,392.132812 8.1015625,390.859375 8.390625,389.21875 L8.65625,387.679688 C8.7109375,387.359375 8.7265625,387.007812 8.7265625,386.734375 C8.7265625,384.835938 7.5546875,383.6875 5.84375,383.6875 C4.4609375,383.6875 3.7578125,384.492188 3.4609375,385.117188 L3.3671875,385.117188 L4.15625,380.773438 L3.015625,380.773438 L1.015625,392 L2.1484375,392 L2.4453125,390.328125 L2.53125,390.328125 C2.734375,391.171875 3.6640625,392.132812 5.0234375,392.132812 Z M4.9921875,391.09375 C3.984375,391.09375 2.8359375,390.34375 2.828125,388.71875 C2.828125,388.679688 2.828125,388.507812 2.8671875,388.320312 L3.0703125,387.046875 C3.296875,385.679688 4.1875,384.648438 5.515625,384.648438 C6.8046875,384.648438 7.625,385.484375 7.625,386.882812 C7.625,387.09375 7.6171875,387.382812 7.5859375,387.585938 L7.3671875,388.828125 C7.140625,390.085938 6.2890625,391.09375 4.9921875,391.09375 Z M15.296875,380.09375 L13.921875,377.359375 L12.796875,377.359375 L14.453125,380.09375 L15.296875,380.09375 Z M14.5234375,382.492188 C15.7734375,382.492188 16.8203125,381.632812 16.953125,380.4375 L16.1171875,380.4375 C15.9765625,381.25 15.421875,381.742188 14.6171875,381.742188 C13.859375,381.742188 13.3671875,381.320312 13.3671875,380.6875 C13.3671875,380.578125 13.375,380.507812 13.3828125,380.4375 L12.5546875,380.4375 C12.515625,380.570312 12.5078125,380.6875 12.5078125,380.828125 C12.5078125,381.742188 13.2734375,382.492188 14.5234375,382.492188 Z M12.6796875,392.132812 C13.953125,392.132812 14.7734375,391.4375 15.0546875,390.875 L15.1328125,390.875 L14.9375,392 L16.046875,392 L16.8515625,387.4375 C16.9296875,387.046875 17,386.59375 17,386.164062 C17,384.703125 16.0078125,383.6875 14.15625,383.6875 C12.4375,383.6875 11.328125,384.546875 11.109375,385.71875 L12.21875,385.71875 C12.3984375,385.171875 12.984375,384.671875 14.0703125,384.671875 C15.4140625,384.671875 15.9140625,385.46875 15.9140625,386.265625 C15.9140625,386.421875 15.890625,386.601562 15.875,386.695312 L15.7890625,387.242188 L13.515625,387.242188 C11.4375,387.242188 10.3671875,388.164062 10.2265625,389.507812 C10.2109375,389.640625 10.2109375,389.765625 10.2109375,389.867188 C10.2109375,391.289062 11.328125,392.132812 12.6796875,392.132812 Z M12.953125,391.15625 C11.953125,391.15625 11.359375,390.578125 11.359375,389.757812 C11.359375,388.898438 12.0234375,388.179688 13.4140625,388.179688 L15.5859375,388.179688 L15.3984375,389.25 C15.1953125,390.367188 14.1484375,391.15625 12.953125,391.15625 Z M20.0078125,392 L20.8515625,387.195312 C21.0859375,385.859375 21.921875,384.65625 23.390625,384.65625 C24.609375,384.65625 25.078125,385.5 25.078125,386.460938 C25.078125,386.820312 25.015625,387.226562 24.9765625,387.445312 L24.171875,392 L25.3125,392 L26.109375,387.515625 C26.1796875,387.109375 26.25,386.664062 26.25,386.25 C26.25,384.914062 25.4765625,383.6875 23.7265625,383.6875 C22.546875,383.6875 21.703125,384.25 21.2578125,385.1875 L21.171875,385.1875 L21.421875,383.820312 L20.3046875,383.820312 L18.859375,392 L20.0078125,392 Z M30.90625,394.96875 C32.96875,394.96875 34.1953125,393.984375 34.5703125,391.867188 L35.984375,383.820312 L34.859375,383.820312 L34.578125,385.429688 L34.484375,385.429688 C34.2421875,384.53125 33.375,383.6875 31.9765625,383.6875 C30.4609375,383.6875 29.0078125,384.59375 28.609375,386.6875 L28.4296875,387.640625 C28.3671875,387.953125 28.3203125,388.476562 28.3203125,388.757812 C28.3203125,390.6875 29.75,391.851562 31.265625,391.851562 C32.5546875,391.851562 33.328125,391.1875 33.625,390.46875 L33.71875,390.46875 L33.5078125,391.664062 C33.234375,393.234375 32.453125,393.992188 30.9765625,393.992188 C29.7578125,393.992188 28.96875,393.304688 28.96875,392.65625 L28.96875,392.554688 L28.96875,392.554688 L27.8515625,392.554688 C27.8515625,392.5625 27.84375,392.65625 27.84375,392.671875 C27.84375,393.867188 29.03125,394.96875 30.90625,394.96875 Z M31.6171875,390.890625 C30.3125,390.890625 29.4453125,390.109375 29.4453125,388.585938 C29.4453125,388.375 29.5,387.945312 29.5390625,387.71875 L29.671875,387.039062 C29.9453125,385.554688 30.8125,384.65625 32.03125,384.65625 C33.296875,384.65625 34.2265625,385.539062 34.2265625,386.976562 C34.2265625,387.046875 34.2265625,387.28125 34.1484375,387.71875 L34,388.554688 C33.765625,389.921875 32.828125,390.890625 31.6171875,390.890625 Z M44.40625,392.132812 C46.046875,392.132812 47.2734375,391.273438 47.5,389.984375 L46.3515625,389.984375 C46.203125,390.59375 45.53125,391.125 44.4609375,391.125 C43.0703125,391.125 42.34375,390.242188 42.34375,388.757812 C42.34375,388.5 42.3671875,388.25 42.4296875,387.914062 L42.59375,386.96875 C42.859375,385.484375 43.7734375,384.65625 44.9765625,384.65625 C46.25,384.65625 46.8984375,385.507812 46.8984375,386.25 L46.8984375,386.34375 L46.8984375,386.34375 L48.0078125,386.34375 C48.015625,386.335938 48.015625,386.257812 48.015625,386.242188 C48.015625,384.875 46.8984375,383.6875 44.984375,383.6875 C43.171875,383.6875 41.8515625,384.71875 41.515625,386.671875 L41.3125,387.84375 C41.2421875,388.257812 41.2109375,388.695312 41.2109375,389.007812 C41.2109375,390.921875 42.484375,392.132812 44.40625,392.132812 Z M53.6640625,382.460938 L56.359375,379.71875 L55.0859375,379.71875 L52.703125,382.460938 L53.6640625,382.460938 Z M51.734375,392.132812 C53.0078125,392.132812 53.828125,391.4375 54.109375,390.875 L54.1875,390.875 L53.9921875,392 L55.1015625,392 L55.90625,387.4375 C55.984375,387.046875 56.0546875,386.59375 56.0546875,386.164062 C56.0546875,384.703125 55.0625,383.6875 53.2109375,383.6875 C51.4921875,383.6875 50.3828125,384.546875 50.1640625,385.71875 L51.2734375,385.71875 C51.453125,385.171875 52.0390625,384.671875 53.125,384.671875 C54.46875,384.671875 54.96875,385.46875 54.96875,386.265625 C54.96875,386.421875 54.9453125,386.601562 54.9296875,386.695312 L54.84375,387.242188 L52.5703125,387.242188 C50.4921875,387.242188 49.421875,388.164062 49.28125,389.507812 C49.265625,389.640625 49.265625,389.765625 49.265625,389.867188 C49.265625,391.289062 50.3828125,392.132812 51.734375,392.132812 Z M52.0078125,391.15625 C51.0078125,391.15625 50.4140625,390.578125 50.4140625,389.757812 C50.4140625,388.898438 51.078125,388.179688 52.46875,388.179688 L54.640625,388.179688 L54.453125,389.25 C54.25,390.367188 53.203125,391.15625 52.0078125,391.15625 Z M61.2734375,392.132812 C62.9140625,392.132812 64.140625,391.273438 64.3671875,389.984375 L63.21875,389.984375 C63.0703125,390.59375 62.3984375,391.125 61.328125,391.125 C59.9375,391.125 59.2109375,390.242188 59.2109375,388.757812 C59.2109375,388.5 59.234375,388.25 59.296875,387.914062 L59.4609375,386.96875 C59.7265625,385.484375 60.640625,384.65625 61.84375,384.65625 C63.1171875,384.65625 63.765625,385.507812 63.765625,386.25 L63.765625,386.34375 L63.765625,386.34375 L64.875,386.34375 C64.8828125,386.335938 64.8828125,386.257812 64.8828125,386.242188 C64.8828125,384.875 63.765625,383.6875 61.8515625,383.6875 C60.0390625,383.6875 58.71875,384.71875 58.3828125,386.671875 L58.1796875,387.84375 C58.109375,388.257812 58.078125,388.695312 58.078125,389.007812 C58.078125,390.921875 59.3515625,392.132812 61.2734375,392.132812 Z M67.3515625,392 L68.1953125,387.195312 C68.4296875,385.859375 69.28125,384.65625 70.75,384.65625 C71.96875,384.65625 72.4609375,385.492188 72.4609375,386.453125 C72.4609375,386.804688 72.3984375,387.234375 72.359375,387.445312 L71.5546875,392 L72.703125,392 L73.4921875,387.515625 C73.5625,387.109375 73.6328125,386.65625 73.6328125,386.25 C73.6328125,384.898438 72.796875,383.6875 71.078125,383.6875 C69.859375,383.6875 69.015625,384.28125 68.6015625,385.1875 L68.515625,385.1875 L69.328125,380.773438 L68.1953125,380.773438 L66.203125,392 L67.3515625,392 Z M81.3984375,385.6875 L82.8984375,381.328125 L81.8515625,381.328125 L80.0078125,385.6875 L81.3984375,385.6875 Z M84.4609375,385.6875 L85.9609375,381.328125 L84.9140625,381.328125 L83.0703125,385.6875 L84.4609375,385.6875 Z M90.2734375,392 C93.703125,392 95.6328125,390.5625 96.1328125,387.71875 C96.1328125,387.6875 96.328125,386.570312 96.328125,386.523438 C96.3984375,386.117188 96.421875,385.625 96.421875,385.328125 C96.421875,382.945312 94.9921875,381.335938 92.1640625,381.335938 L89.296875,381.335938 L88.453125,386.03125 L87.2109375,386.03125 L87.03125,387.054688 L88.28125,387.054688 L87.40625,392 L90.2734375,392 Z M90.2890625,390.96875 L88.7578125,390.96875 L89.453125,387.054688 L91.9609375,387.054688 L92.140625,386.03125 L89.625,386.03125 L90.2734375,382.367188 L91.8515625,382.367188 C94.125,382.367188 95.25,383.453125 95.25,385.453125 C95.25,385.734375 95.2265625,386.21875 95.171875,386.523438 C95.171875,386.570312 94.9921875,387.570312 94.984375,387.601562 C94.578125,389.867188 92.859375,390.96875 90.2890625,390.96875 Z M102.328125,382.492188 C103.585938,382.492188 104.625,381.632812 104.757812,380.4375 L103.921875,380.4375 C103.78125,381.25 103.226562,381.742188 102.429688,381.742188 C101.664062,381.742188 101.171875,381.320312 101.171875,380.6875 C101.171875,380.578125 101.179688,380.507812 101.195312,380.4375 L100.359375,380.4375 C100.328125,380.570312 100.3125,380.6875 100.3125,380.828125 C100.3125,381.742188 101.085938,382.492188 102.328125,382.492188 Z M100.414062,392.132812 C101.6875,392.132812 102.507812,391.4375 102.789062,390.875 L102.867188,390.875 L102.671875,392 L103.78125,392 L104.585938,387.4375 C104.664062,387.046875 104.734375,386.59375 104.734375,386.164062 C104.734375,384.703125 103.742188,383.6875 101.890625,383.6875 C100.171875,383.6875 99.0625,384.546875 98.84375,385.71875 L99.953125,385.71875 C100.132812,385.171875 100.71875,384.671875 101.804688,384.671875 C103.148438,384.671875 103.648438,385.46875 103.648438,386.265625 C103.648438,386.421875 103.625,386.601562 103.609375,386.695312 L103.523438,387.242188 L101.25,387.242188 C99.171875,387.242188 98.1015625,388.164062 97.9609375,389.507812 C97.9453125,389.640625 97.9453125,389.765625 97.9453125,389.867188 C97.9453125,391.289062 99.0625,392.132812 100.414062,392.132812 Z M100.6875,391.15625 C99.6875,391.15625 99.09375,390.578125 99.09375,389.757812 C99.09375,388.898438 99.7578125,388.179688 101.148438,388.179688 L103.320312,388.179688 L103.132812,389.25 C102.929688,390.367188 101.882812,391.15625 100.6875,391.15625 Z M107.742188,392 L108.585938,387.195312 C108.820312,385.859375 109.65625,384.65625 111.125,384.65625 C112.34375,384.65625 112.8125,385.5 112.8125,386.460938 C112.8125,386.820312 112.75,387.226562 112.710938,387.445312 L111.90625,392 L113.046875,392 L113.84375,387.515625 C113.914062,387.109375 113.984375,386.664062 113.984375,386.25 C113.984375,384.914062 113.210938,383.6875 111.460938,383.6875 C110.28125,383.6875 109.4375,384.25 108.992188,385.1875 L108.90625,385.1875 L109.15625,383.820312 L108.039062,383.820312 L106.59375,392 L107.742188,392 Z M118.640625,394.96875 C120.703125,394.96875 121.929688,393.984375 122.304688,391.867188 L123.71875,383.820312 L122.59375,383.820312 L122.3125,385.429688 L122.21875,385.429688 C121.976562,384.53125 121.109375,383.6875 119.710938,383.6875 C118.195312,383.6875 116.742188,384.59375 116.34375,386.6875 L116.164062,387.640625 C116.101562,387.953125 116.054688,388.476562 116.054688,388.757812 C116.054688,390.6875 117.484375,391.851562 119,391.851562 C120.289062,391.851562 121.0625,391.1875 121.359375,390.46875 L121.453125,390.46875 L121.242188,391.664062 C120.96875,393.234375 120.1875,393.992188 118.710938,393.992188 C117.492188,393.992188 116.703125,393.304688 116.703125,392.65625 L116.703125,392.554688 L116.703125,392.554688 L115.585938,392.554688 C115.585938,392.5625 115.578125,392.65625 115.578125,392.671875 C115.578125,393.867188 116.765625,394.96875 118.640625,394.96875 Z M119.351562,390.890625 C118.046875,390.890625 117.179688,390.109375 117.179688,388.585938 C117.179688,388.375 117.234375,387.945312 117.273438,387.71875 L117.40625,387.039062 C117.679688,385.554688 118.546875,384.65625 119.765625,384.65625 C121.03125,384.65625 121.960938,385.539062 121.960938,386.976562 L121.96008,387.048172 C121.957079,387.161073 121.943576,387.378472 121.882812,387.71875 L121.734375,388.554688 C121.5,389.921875 120.5625,390.890625 119.351562,390.890625 Z M129.921875,392 L130.53125,388.546875 L131.664062,387.648438 L133.945312,392 L135.21875,392 L132.5625,387.039062 L136.578125,383.820312 L134.984375,383.820312 L130.859375,387.179688 L130.78125,387.179688 L131.898438,380.773438 L130.757812,380.773438 L128.78125,392 L129.921875,392 Z M141.539062,382.460938 L144.234375,379.71875 L142.960938,379.71875 L140.578125,382.460938 L141.539062,382.460938 Z M137.148438,394.835938 C138.554688,394.835938 139.171875,394.382812 139.984375,392.78125 L140.375,392.015625 L144.648438,383.820312 L143.421875,383.820312 L140.054688,390.664062 L139.976562,390.664062 L138.851562,383.820312 L137.632812,383.820312 L139.195312,391.929688 L138.929688,392.5 C138.476562,393.492188 138.007812,393.867188 137.265625,393.867188 C137.007812,393.867188 136.742188,393.835938 136.554688,393.789062 L136.34375,394.734375 C136.515625,394.78125 136.851562,394.835938 137.148438,394.835938 Z M150.539062,385.6875 L152.382812,381.328125 L150.992188,381.328125 L149.492188,385.6875 L150.539062,385.6875 Z M147.476562,385.6875 L149.320312,381.328125 L147.929688,381.328125 L146.429688,385.6875 L147.476562,385.6875 Z" id="Cảmơnbạnđãdànhthờigian!Sauđâybạncóthểtiếptụcbằngcách“Đăngký”" fill-rule="nonzero"></path>
                <text id="Chanchan" opacity="0" font-family="SFCompactDisplay-Light, SF Compact Display" font-size="24" font-weight="300" line-spacing="23" fill-opacity="0">
                    <tspan x="41" y="417">Chanchan</tspan>
                </text>
            </g>
        </g>
    </g>
</svg>