<?xml version="1.0" encoding="UTF-8"?>
<svg width="320px" height="529px" viewBox="0 0 320 529" version="1.1" xmlns="http://www.w3.org/2000/svg" xmlns:xlink="http://www.w3.org/1999/xlink">
    <title>3</title>
    <g id="Chanchan" stroke="none" stroke-width="1" fill="none" fill-rule="evenodd">
        <g id="open-letter" transform="translate(0.000000, -1463.000000)" fill="#121721">
            <g id="Group-6" transform="translate(35.000000, 1485.000000)">
                <text id="Như-bất-cứ-sản-phẩm" font-family="SFCompactDisplay-Light, SF Compact Display" font-size="16" font-weight="300" line-spacing="23">
                    <tspan x="0" y="117">Như bất cứ sản phẩm mới nào, sự </tspan>
                    <tspan x="0" y="140">thành công luôn cần bắt đầu từ Thế </tspan>
                    <tspan x="0" y="163">hệ người dùng đầu tiên. Chúng tôi </tspan>
                    <tspan x="0" y="186">mong rằng qua những chia sẻ trên </tspan>
                    <tspan x="0" y="209">chúng tôi sẽ có được sự ủng hộ, </tspan>
                    <tspan x="0" y="232">đồng hành của bạn.</tspan>
                </text>
                <text id="Chanchan-là-một-sản" font-family="SFCompactDisplay-Light, SF Compact Display" font-size="16" font-weight="300" line-spacing="23">
                    <tspan x="0" y="55">Chanchan là một sản phẩm mới </tspan>
                    <tspan x="0" y="78">đang trong Giai đoạn Thử nghiệm. </tspan>
                </text>
                <text id="Mong-muốn" font-family="SFCompactDisplay-Semibold, SF Compact Display" font-size="20" font-weight="500" letter-spacing="-0.8">
                    <tspan x="0" y="19">Mong muốn</tspan>
                </text>
                <path d="M5.390625,274.226562 C7.3203125,274.226562 8.90625,273.15625 9.25,271.570312 C9.28125,271.453125 9.3046875,271.289062 9.3046875,271.234375 L8.15625,271.234375 C7.90625,272.398438 6.8671875,273.15625 5.4765625,273.15625 C3.6796875,273.15625 2.6171875,272.023438 2.6171875,270.140625 C2.6171875,269.804688 2.671875,269.148438 2.71875,268.898438 L3.046875,267.25 C3.4375,265.28125 4.515625,264.1875 6.1953125,264.1875 C7.6875,264.1875 8.734375,265.148438 8.84375,266.304688 C8.8515625,266.367188 8.8515625,266.4375 8.84375,266.53125 L9.96875,266.53125 C9.9765625,266.492188 9.984375,266.398438 9.984375,266.265625 C9.984375,264.554688 8.4375,263.109375 6.21875,263.109375 C3.953125,263.109375 2.375,264.601562 1.90625,267.03125 L1.5234375,268.992188 C1.484375,269.21875 1.453125,269.75 1.453125,270.179688 C1.453125,272.65625 2.96875,274.226562 5.390625,274.226562 Z M15.46875,264.75 C16.3984375,264.34375 16.8671875,263.828125 16.8671875,263.015625 C16.8671875,262.34375 16.328125,261.835938 15.421875,261.835938 C14.9765625,261.835938 14.75,261.890625 14.546875,261.984375 L14.4375,262.695312 C14.6171875,262.625 14.8359375,262.554688 15.2578125,262.554688 C15.6953125,262.554688 16.0078125,262.820312 16.0078125,263.140625 C16.0078125,263.492188 15.8125,263.765625 15.09375,264.125 L15.46875,264.75 Z M13.4921875,274.132812 C14.765625,274.132812 15.5859375,273.4375 15.8671875,272.875 L15.9453125,272.875 L15.75,274 L16.859375,274 L17.6640625,269.4375 C17.7421875,269.046875 17.8125,268.59375 17.8125,268.164062 C17.8125,266.703125 16.8203125,265.6875 14.96875,265.6875 C13.25,265.6875 12.140625,266.546875 11.921875,267.71875 L13.03125,267.71875 C13.2109375,267.171875 13.796875,266.671875 14.8828125,266.671875 C16.2265625,266.671875 16.7265625,267.46875 16.7265625,268.265625 C16.7265625,268.421875 16.703125,268.601562 16.6875,268.695312 L16.6015625,269.242188 L14.328125,269.242188 C12.25,269.242188 11.1796875,270.164062 11.0390625,271.507812 C11.0234375,271.640625 11.0234375,271.765625 11.0234375,271.867188 C11.0234375,273.289062 12.140625,274.132812 13.4921875,274.132812 Z M13.765625,273.15625 C12.765625,273.15625 12.171875,272.578125 12.171875,271.757812 C12.171875,270.898438 12.8359375,270.179688 14.2265625,270.179688 L16.3984375,270.179688 L16.2109375,271.25 C16.0078125,272.367188 14.9609375,273.15625 13.765625,273.15625 Z M20.8203125,274 L21.671875,269.15625 C21.90625,267.804688 22.6484375,266.65625 24.03125,266.65625 C25.15625,266.65625 25.5625,267.4375 25.5625,268.421875 C25.5625,268.773438 25.5234375,269.140625 25.484375,269.359375 L24.6640625,274 L25.8046875,274 L26.6640625,269.164062 C26.921875,267.71875 27.65625,266.65625 28.8984375,266.65625 C29.9765625,266.65625 30.390625,267.421875 30.390625,268.4375 C30.390625,268.78125 30.3359375,269.15625 30.296875,269.375 L29.484375,274 L30.625,274 L31.4296875,269.445312 C31.4921875,269.070312 31.5703125,268.578125 31.5703125,268.15625 C31.5703125,266.820312 30.8359375,265.6875 29.1875,265.6875 C27.734375,265.6875 27.015625,266.609375 26.734375,267.25 L26.65625,267.25 C26.390625,266.367188 25.6171875,265.6875 24.3671875,265.6875 C23.15625,265.6875 22.40625,266.390625 22.0703125,267.1875 L21.984375,267.1875 L22.2265625,265.820312 L21.1171875,265.820312 L19.671875,274 L20.8203125,274 Z M40.46875,274.132812 C42.5,274.132812 43.6953125,272.96875 44.046875,271.03125 L44.25,269.914062 C44.3046875,269.570312 44.3359375,269.1875 44.3359375,268.953125 C44.3359375,268.023438 44,267.242188 43.671875,266.84375 L43.6953125,266.78125 C44.90625,266.765625 45.3125,265.960938 45.5390625,264.6875 L45.734375,263.609375 L44.703125,263.609375 L44.4921875,264.78125 C44.3515625,265.554688 43.9609375,266.03125 43.171875,266.03125 C42.4375,266.03125 41.9375,265.6875 41.0234375,265.6875 C39.296875,265.6875 37.8984375,266.796875 37.5546875,268.765625 L37.359375,269.875 C37.296875,270.234375 37.2734375,270.625 37.2734375,271.007812 C37.2734375,272.96875 38.65625,274.132812 40.46875,274.132812 Z M40.609375,273.132812 C39.2265625,273.132812 38.390625,272.195312 38.390625,270.828125 C38.390625,270.46875 38.421875,270.210938 38.46875,269.953125 L38.6484375,268.984375 C38.9296875,267.382812 39.859375,266.6875 41,266.6875 C42.3515625,266.6875 43.1953125,267.632812 43.1953125,268.945312 C43.1953125,269.0625 43.1953125,269.453125 43.15625,269.703125 L42.9765625,270.742188 C42.703125,272.273438 41.8671875,273.132812 40.609375,273.132812 Z M47.0859375,274 L47.9296875,269.195312 C48.1640625,267.859375 49,266.65625 50.46875,266.65625 C51.6875,266.65625 52.15625,267.5 52.15625,268.460938 C52.15625,268.820312 52.09375,269.226562 52.0546875,269.445312 L51.25,274 L52.390625,274 L53.1875,269.515625 C53.2578125,269.109375 53.328125,268.664062 53.328125,268.25 C53.328125,266.914062 52.5546875,265.6875 50.8046875,265.6875 C49.625,265.6875 48.78125,266.25 48.3359375,267.1875 L48.25,267.1875 L48.5,265.820312 L47.3828125,265.820312 L45.9375,274 L47.0859375,274 Z M62.8671875,274.132812 C64.78125,274.132812 65.9453125,272.859375 66.234375,271.21875 L66.5,269.679688 C66.5546875,269.359375 66.5703125,269.007812 66.5703125,268.734375 C66.5703125,266.835938 65.3984375,265.6875 63.6875,265.6875 C62.3046875,265.6875 61.6015625,266.492188 61.3046875,267.117188 L61.2109375,267.117188 L62,262.773438 L60.859375,262.773438 L58.859375,274 L59.9921875,274 L60.2890625,272.328125 L60.375,272.328125 C60.578125,273.171875 61.5078125,274.132812 62.8671875,274.132812 Z M62.8359375,273.09375 C61.828125,273.09375 60.6796875,272.34375 60.671875,270.71875 C60.671875,270.679688 60.671875,270.507812 60.7109375,270.320312 L60.9140625,269.046875 C61.140625,267.679688 62.03125,266.648438 63.359375,266.648438 C64.6484375,266.648438 65.46875,267.484375 65.46875,268.882812 C65.46875,269.09375 65.4609375,269.382812 65.4296875,269.585938 L65.2109375,270.828125 C64.984375,272.085938 64.1328125,273.09375 62.8359375,273.09375 Z M70.5234375,274.132812 C71.796875,274.132812 72.6171875,273.4375 72.8984375,272.875 L72.9765625,272.875 L72.78125,274 L73.890625,274 L74.6953125,269.4375 C74.7734375,269.046875 74.84375,268.59375 74.84375,268.164062 C74.84375,266.703125 73.8515625,265.6875 72,265.6875 C70.28125,265.6875 69.171875,266.546875 68.953125,267.71875 L70.0625,267.71875 C70.2421875,267.171875 70.828125,266.671875 71.9140625,266.671875 C73.2578125,266.671875 73.7578125,267.46875 73.7578125,268.265625 C73.7578125,268.421875 73.734375,268.601562 73.71875,268.695312 L73.6328125,269.242188 L71.359375,269.242188 C69.28125,269.242188 68.2109375,270.164062 68.0703125,271.507812 C68.0546875,271.640625 68.0546875,271.765625 68.0546875,271.867188 C68.0546875,273.289062 69.171875,274.132812 70.5234375,274.132812 Z M70.796875,273.15625 C69.796875,273.15625 69.203125,272.578125 69.203125,271.757812 C69.203125,270.898438 69.8671875,270.179688 71.2578125,270.179688 L73.4296875,270.179688 L73.2421875,271.25 C73.0390625,272.367188 71.9921875,273.15625 70.796875,273.15625 Z M70.265625,276.546875 C70.71875,276.546875 71.0390625,276.25 71.0390625,275.804688 C71.0390625,275.367188 70.71875,275.054688 70.265625,275.054688 C69.8203125,275.054688 69.5,275.367188 69.5,275.804688 C69.5,276.25 69.8203125,276.546875 70.265625,276.546875 Z M77.8515625,274 L78.6953125,269.195312 C78.9296875,267.859375 79.765625,266.65625 81.234375,266.65625 C82.453125,266.65625 82.921875,267.5 82.921875,268.460938 C82.921875,268.820312 82.859375,269.226562 82.8203125,269.445312 L82.015625,274 L83.15625,274 L83.953125,269.515625 C84.0234375,269.109375 84.09375,268.664062 84.09375,268.25 C84.09375,266.914062 83.3203125,265.6875 81.5703125,265.6875 C80.390625,265.6875 79.546875,266.25 79.1015625,267.1875 L79.015625,267.1875 L79.265625,265.820312 L78.1484375,265.820312 L76.703125,274 L77.8515625,274 Z M92.7109375,274.117188 C94.078125,274.117188 94.859375,273.25 95.09375,272.617188 L95.1875,272.617188 L94.9453125,274 L96.0625,274 L97.703125,264.726562 L98.984375,264.726562 L99.1484375,263.8125 L97.8671875,263.8125 L98.0546875,262.773438 L96.8984375,262.773438 L96.71875,263.8125 L94.921875,263.8125 L94.765625,264.726562 L96.5625,264.726562 L96.0859375,267.429688 L95.9921875,267.429688 C95.8515625,266.671875 94.9609375,265.6875 93.53125,265.6875 C91.6015625,265.6875 90.4453125,266.9375 90.140625,268.546875 L89.8515625,270.078125 C89.7890625,270.375 89.7734375,270.734375 89.7734375,271.039062 C89.7734375,272.90625 91.0078125,274.117188 92.7109375,274.117188 Z M93.046875,273.109375 C91.7421875,273.109375 90.9140625,272.265625 90.9140625,270.867188 C90.9140625,270.59375 90.9375,270.296875 90.9609375,270.15625 L91.203125,268.9375 C91.4609375,267.640625 92.25,266.664062 93.578125,266.664062 C94.640625,266.664062 95.7734375,267.429688 95.7734375,269.03125 C95.7734375,269.101562 95.7578125,269.234375 95.7265625,269.429688 L95.5078125,270.703125 C95.2578125,272.101562 94.3671875,273.109375 93.046875,273.109375 Z M104.242188,264.414062 C105.132812,264.414062 105.695312,263.554688 105.765625,262.65625 L104.960938,262.65625 C104.890625,263.234375 104.648438,263.609375 104.257812,263.609375 C103.617188,263.609375 103.578125,262.390625 102.328125,262.390625 C101.453125,262.390625 100.882812,263.132812 100.796875,264.148438 L101.601562,264.148438 C101.664062,263.5625 101.875,263.195312 102.304688,263.195312 C103,263.195312 103.03125,264.414062 104.242188,264.414062 Z M101.335938,274.132812 C102.609375,274.132812 103.429688,273.4375 103.710938,272.875 L103.789062,272.875 L103.59375,274 L104.703125,274 L105.507812,269.4375 C105.585938,269.046875 105.65625,268.59375 105.65625,268.164062 C105.65625,266.703125 104.664062,265.6875 102.8125,265.6875 C101.09375,265.6875 99.984375,266.546875 99.765625,267.71875 L100.875,267.71875 C101.054688,267.171875 101.640625,266.671875 102.726562,266.671875 C104.070312,266.671875 104.570312,267.46875 104.570312,268.265625 C104.570312,268.421875 104.546875,268.601562 104.53125,268.695312 L104.445312,269.242188 L102.171875,269.242188 C100.09375,269.242188 99.0234375,270.164062 98.8828125,271.507812 C98.8671875,271.640625 98.8671875,271.765625 98.8671875,271.867188 C98.8671875,273.289062 99.984375,274.132812 101.335938,274.132812 Z M101.609375,273.15625 C100.609375,273.15625 100.015625,272.578125 100.015625,271.757812 C100.015625,270.898438 100.679688,270.179688 102.070312,270.179688 L104.242188,270.179688 L104.054688,271.25 C103.851562,272.367188 102.804688,273.15625 101.609375,273.15625 Z M114.257812,274.117188 C115.625,274.117188 116.40625,273.25 116.640625,272.617188 L116.734375,272.617188 L116.492188,274 L117.609375,274 L119.601562,262.773438 L118.445312,262.773438 L117.632812,267.429688 L117.539062,267.429688 C117.398438,266.671875 116.507812,265.6875 115.078125,265.6875 C113.148438,265.6875 111.992188,266.9375 111.6875,268.546875 L111.398438,270.078125 C111.335938,270.375 111.320312,270.734375 111.320312,271.039062 C111.320312,272.90625 112.554688,274.117188 114.257812,274.117188 Z M114.59375,273.109375 C113.289062,273.109375 112.460938,272.265625 112.460938,270.867188 C112.460938,270.59375 112.484375,270.296875 112.507812,270.15625 L112.75,268.9375 C113.007812,267.640625 113.796875,266.664062 115.125,266.664062 C116.1875,266.664062 117.320312,267.429688 117.320312,269.03125 C117.320312,269.101562 117.304688,269.234375 117.273438,269.429688 L117.054688,270.703125 C116.804688,272.101562 115.914062,273.109375 114.59375,273.109375 Z M125.445312,264.460938 L123.976562,261.71875 L122.726562,261.71875 L124.570312,264.460938 L125.445312,264.460938 Z M122.859375,274.132812 C124.132812,274.132812 124.953125,273.4375 125.234375,272.875 L125.3125,272.875 L125.117188,274 L126.226562,274 L127.03125,269.4375 C127.109375,269.046875 127.179688,268.59375 127.179688,268.164062 C127.179688,266.703125 126.1875,265.6875 124.335938,265.6875 C122.617188,265.6875 121.507812,266.546875 121.289062,267.71875 L122.398438,267.71875 C122.578125,267.171875 123.164062,266.671875 124.25,266.671875 C125.59375,266.671875 126.09375,267.46875 126.09375,268.265625 C126.09375,268.421875 126.070312,268.601562 126.054688,268.695312 L125.96875,269.242188 L123.695312,269.242188 C121.617188,269.242188 120.546875,270.164062 120.40625,271.507812 C120.390625,271.640625 120.390625,271.765625 120.390625,271.867188 C120.390625,273.289062 121.507812,274.132812 122.859375,274.132812 Z M123.132812,273.15625 C122.132812,273.15625 121.539062,272.578125 121.539062,271.757812 C121.539062,270.898438 122.203125,270.179688 123.59375,270.179688 L125.765625,270.179688 L125.578125,271.25 C125.375,272.367188 124.328125,273.15625 123.132812,273.15625 Z M130.1875,274 L131.03125,269.195312 C131.265625,267.859375 132.101562,266.65625 133.570312,266.65625 C134.789062,266.65625 135.257812,267.5 135.257812,268.460938 C135.257812,268.820312 135.195312,269.226562 135.15625,269.445312 L134.351562,274 L135.492188,274 L136.289062,269.515625 C136.359375,269.109375 136.429688,268.664062 136.429688,268.25 C136.429688,266.914062 135.65625,265.6875 133.90625,265.6875 C132.726562,265.6875 131.882812,266.25 131.4375,267.1875 L131.351562,267.1875 L131.601562,265.820312 L130.484375,265.820312 L129.039062,274 L130.1875,274 Z M139.453125,274 L140.296875,269.195312 C140.53125,267.859375 141.382812,266.65625 142.851562,266.65625 C144.070312,266.65625 144.5625,267.492188 144.5625,268.453125 C144.5625,268.804688 144.5,269.234375 144.460938,269.445312 L143.65625,274 L144.804688,274 L145.59375,269.515625 C145.664062,269.109375 145.734375,268.65625 145.734375,268.25 C145.734375,266.898438 144.898438,265.6875 143.179688,265.6875 C141.960938,265.6875 141.117188,266.28125 140.703125,267.1875 L140.617188,267.1875 L141.429688,262.773438 L140.296875,262.773438 L138.304688,274 L139.453125,274 Z M153.921875,274.070312 C154.304688,274.070312 154.796875,274.023438 155.023438,273.96875 L155.195312,273.023438 C154.960938,273.070312 154.53125,273.109375 154.1875,273.109375 C153.476562,273.109375 153.164062,272.851562 153.164062,272.265625 C153.164062,272.03125 153.203125,271.773438 153.328125,271.054688 L154.078125,266.765625 L155.929688,266.765625 L156.101562,265.820312 L154.25,265.820312 L154.601562,263.773438 L153.476562,263.773438 L153.101562,265.820312 L151.804688,265.820312 L151.632812,266.765625 L152.9375,266.765625 L152.101562,271.5 C152.03125,271.929688 151.984375,272.296875 151.984375,272.546875 C151.984375,273.5625 152.632812,274.070312 153.921875,274.070312 Z M158.25,274 L159.09375,269.195312 C159.328125,267.859375 160.179688,266.65625 161.648438,266.65625 C162.867188,266.65625 163.359375,267.492188 163.359375,268.453125 C163.359375,268.804688 163.296875,269.234375 163.257812,269.445312 L162.453125,274 L163.601562,274 L164.390625,269.515625 C164.460938,269.109375 164.53125,268.65625 164.53125,268.25 C164.53125,266.898438 163.695312,265.6875 161.976562,265.6875 C160.757812,265.6875 159.914062,266.28125 159.5,267.1875 L159.414062,267.1875 L160.226562,262.773438 L159.09375,262.773438 L157.101562,274 L158.25,274 Z M171.757812,264.460938 L170.289062,261.71875 L169.039062,261.71875 L170.882812,264.460938 L171.757812,264.460938 Z M169.789062,274.132812 C171.820312,274.132812 173.015625,272.96875 173.367188,271.03125 L173.570312,269.914062 C173.625,269.570312 173.65625,269.1875 173.65625,268.953125 C173.65625,268.023438 173.320312,267.242188 172.992188,266.84375 L173.015625,266.78125 C174.226562,266.765625 174.632812,265.960938 174.859375,264.6875 L175.054688,263.609375 L174.023438,263.609375 L173.8125,264.78125 C173.671875,265.554688 173.28125,266.03125 172.492188,266.03125 C171.757812,266.03125 171.257812,265.6875 170.34375,265.6875 C168.617188,265.6875 167.21875,266.796875 166.875,268.765625 L166.679688,269.875 C166.617188,270.234375 166.59375,270.625 166.59375,271.007812 C166.59375,272.96875 167.976562,274.132812 169.789062,274.132812 Z M169.929688,273.132812 C168.546875,273.132812 167.710938,272.195312 167.710938,270.828125 C167.710938,270.46875 167.742188,270.210938 167.789062,269.953125 L167.96875,268.984375 C168.25,267.382812 169.179688,266.6875 170.320312,266.6875 C171.671875,266.6875 172.515625,267.632812 172.515625,268.945312 C172.515625,269.0625 172.515625,269.453125 172.476562,269.703125 L172.296875,270.742188 C172.023438,272.273438 171.1875,273.132812 169.929688,273.132812 Z M177.671875,264.1875 C178.179688,264.1875 178.554688,263.820312 178.554688,263.328125 C178.554688,262.828125 178.179688,262.453125 177.671875,262.453125 C177.195312,262.453125 176.8125,262.828125 176.8125,263.328125 C176.8125,263.820312 177.195312,264.1875 177.671875,264.1875 Z M176.507812,274 L177.945312,265.820312 L176.804688,265.820312 L175.367188,274 L176.507812,274 Z M3.796875,300.96875 C5.859375,300.96875 7.0859375,299.984375 7.4609375,297.867188 L8.875,289.820312 L7.75,289.820312 L7.46875,291.429688 L7.375,291.429688 C7.1328125,290.53125 6.265625,289.6875 4.8671875,289.6875 C3.3515625,289.6875 1.8984375,290.59375 1.5,292.6875 L1.3203125,293.640625 C1.2578125,293.953125 1.2109375,294.476562 1.2109375,294.757812 C1.2109375,296.6875 2.640625,297.851562 4.15625,297.851562 C5.4453125,297.851562 6.21875,297.1875 6.515625,296.46875 L6.609375,296.46875 L6.3984375,297.664062 C6.125,299.234375 5.34375,299.992188 3.8671875,299.992188 C2.6484375,299.992188 1.859375,299.304688 1.859375,298.65625 L1.859375,298.554688 L1.859375,298.554688 L0.7421875,298.554688 C0.7421875,298.5625 0.734375,298.65625 0.734375,298.671875 C0.734375,299.867188 1.921875,300.96875 3.796875,300.96875 Z M4.5078125,296.890625 C3.203125,296.890625 2.3359375,296.109375 2.3359375,294.585938 C2.3359375,294.375 2.390625,293.945312 2.4296875,293.71875 L2.5625,293.039062 C2.8359375,291.554688 3.703125,290.65625 4.921875,290.65625 C6.1875,290.65625 7.1171875,291.539062 7.1171875,292.976562 C7.1171875,293.046875 7.1171875,293.28125 7.0390625,293.71875 L6.890625,294.554688 C6.65625,295.921875 5.71875,296.890625 4.5078125,296.890625 Z M12.71875,288.1875 C13.2265625,288.1875 13.6015625,287.820312 13.6015625,287.328125 C13.6015625,286.828125 13.2265625,286.453125 12.71875,286.453125 C12.2421875,286.453125 11.859375,286.828125 11.859375,287.328125 C11.859375,287.820312 12.2421875,288.1875 12.71875,288.1875 Z M11.5546875,298 L12.9921875,289.820312 L11.8515625,289.820312 L10.4140625,298 L11.5546875,298 Z M16.9296875,298.132812 C18.203125,298.132812 19.0234375,297.4375 19.3046875,296.875 L19.3828125,296.875 L19.1875,298 L20.296875,298 L21.1015625,293.4375 C21.1796875,293.046875 21.25,292.59375 21.25,292.164062 C21.25,290.703125 20.2578125,289.6875 18.40625,289.6875 C16.6875,289.6875 15.578125,290.546875 15.359375,291.71875 L16.46875,291.71875 C16.6484375,291.171875 17.234375,290.671875 18.3203125,290.671875 C19.6640625,290.671875 20.1640625,291.46875 20.1640625,292.265625 C20.1640625,292.421875 20.140625,292.601562 20.125,292.695312 L20.0390625,293.242188 L17.765625,293.242188 C15.6875,293.242188 14.6171875,294.164062 14.4765625,295.507812 C14.4609375,295.640625 14.4609375,295.765625 14.4609375,295.867188 C14.4609375,297.289062 15.578125,298.132812 16.9296875,298.132812 Z M17.203125,297.15625 C16.203125,297.15625 15.609375,296.578125 15.609375,295.757812 C15.609375,294.898438 16.2734375,294.179688 17.6640625,294.179688 L19.8359375,294.179688 L19.6484375,295.25 C19.4453125,296.367188 18.3984375,297.15625 17.203125,297.15625 Z M24.2578125,298 L25.1015625,293.195312 C25.3359375,291.859375 26.171875,290.65625 27.640625,290.65625 C28.859375,290.65625 29.328125,291.5 29.328125,292.460938 C29.328125,292.820312 29.265625,293.226562 29.2265625,293.445312 L28.421875,298 L29.5625,298 L30.359375,293.515625 C30.4296875,293.109375 30.5,292.664062 30.5,292.25 C30.5,290.914062 29.7265625,289.6875 27.9765625,289.6875 C26.796875,289.6875 25.953125,290.25 25.5078125,291.1875 L25.421875,291.1875 L25.671875,289.820312 L24.5546875,289.820312 L23.109375,298 L24.2578125,298 Z M34.2734375,294.710938 L35.7890625,287.335938 L34.5078125,287.335938 L33.4140625,294.710938 L34.2734375,294.710938 Z M33.4921875,298.132812 C34.0703125,298.132812 34.5078125,297.703125 34.5078125,297.15625 C34.5078125,296.578125 34.0703125,296.148438 33.4921875,296.148438 C32.9609375,296.148438 32.5234375,296.578125 32.5234375,297.15625 C32.5234375,297.703125 32.9609375,298.132812 33.4921875,298.132812 Z M44.5,298.226562 C46.703125,298.226562 48.265625,297.0625 48.265625,295.070312 C48.265625,293.34375 47.03125,292.757812 45.640625,292.210938 L45.0078125,291.960938 C43.8671875,291.507812 42.9921875,291 42.9921875,289.984375 C42.9921875,288.71875 44.203125,288.15625 45.34375,288.15625 C46.6171875,288.15625 47.6328125,288.882812 47.6328125,289.960938 C47.6328125,290.054688 47.625,290.09375 47.625,290.101562 L48.7265625,290.101562 C48.7265625,290.09375 48.7421875,289.859375 48.7421875,289.828125 C48.7421875,288.109375 47.1328125,287.117188 45.359375,287.117188 C43.3671875,287.117188 41.7890625,288.1875 41.7890625,290.039062 C41.7890625,291.71875 43.1875,292.53125 44.5546875,293.039062 L45.0546875,293.226562 C46.140625,293.632812 47.0546875,294.0625 47.0546875,295.179688 C47.0546875,296.390625 46.0546875,297.1875 44.5546875,297.1875 C42.8984375,297.1875 41.921875,296.234375 41.921875,295.257812 C41.921875,295.195312 41.9296875,295.109375 41.9375,295.046875 L40.7890625,295.046875 C40.7734375,295.148438 40.765625,295.289062 40.765625,295.40625 C40.765625,296.835938 42.1875,298.226562 44.5,298.226562 Z M52.6171875,298.132812 C53.890625,298.132812 54.7109375,297.4375 54.9921875,296.875 L55.0703125,296.875 L54.875,298 L55.984375,298 L56.7890625,293.4375 C56.8671875,293.046875 56.9375,292.59375 56.9375,292.164062 C56.9375,290.703125 55.9453125,289.6875 54.09375,289.6875 C52.375,289.6875 51.265625,290.546875 51.046875,291.71875 L52.15625,291.71875 C52.3359375,291.171875 52.921875,290.671875 54.0078125,290.671875 C55.3515625,290.671875 55.8515625,291.46875 55.8515625,292.265625 C55.8515625,292.421875 55.828125,292.601562 55.8125,292.695312 L55.7265625,293.242188 L53.453125,293.242188 C51.375,293.242188 50.3046875,294.164062 50.1640625,295.507812 C50.1484375,295.640625 50.1484375,295.765625 50.1484375,295.867188 C50.1484375,297.289062 51.265625,298.132812 52.6171875,298.132812 Z M52.890625,297.15625 C51.890625,297.15625 51.296875,296.578125 51.296875,295.757812 C51.296875,294.898438 51.9609375,294.179688 53.3515625,294.179688 L55.5234375,294.179688 L55.3359375,295.25 C55.1328125,296.367188 54.0859375,297.15625 52.890625,297.15625 Z M61.7421875,298.132812 C62.9296875,298.132812 63.7890625,297.46875 64.1796875,296.585938 L64.2734375,296.585938 L64.0234375,298 L65.1015625,298 L66.5390625,289.820312 L65.4453125,289.820312 L64.6015625,294.585938 C64.375,295.921875 63.5625,297.109375 62.1015625,297.109375 C60.8984375,297.109375 60.3203125,296.414062 60.3203125,295.390625 C60.3203125,295.054688 60.375,294.640625 60.4296875,294.34375 L61.2421875,289.820312 L60.109375,289.820312 L59.296875,294.273438 C59.21875,294.648438 59.140625,295.15625 59.140625,295.59375 C59.140625,296.992188 60.0625,298.132812 61.7421875,298.132812 Z M74.703125,298.117188 C76.0703125,298.117188 76.8515625,297.25 77.0859375,296.617188 L77.1796875,296.617188 L76.9375,298 L78.0546875,298 L79.6953125,288.726562 L80.9765625,288.726562 L81.140625,287.8125 L79.859375,287.8125 L80.046875,286.773438 L78.890625,286.773438 L78.7109375,287.8125 L76.9140625,287.8125 L76.7578125,288.726562 L78.5546875,288.726562 L78.078125,291.429688 L77.984375,291.429688 C77.84375,290.671875 76.953125,289.6875 75.5234375,289.6875 C73.59375,289.6875 72.4375,290.9375 72.1328125,292.546875 L71.84375,294.078125 C71.78125,294.375 71.765625,294.734375 71.765625,295.039062 C71.765625,296.90625 73,298.117188 74.703125,298.117188 Z M75.0390625,297.109375 C73.734375,297.109375 72.90625,296.265625 72.90625,294.867188 C72.90625,294.59375 72.9296875,294.296875 72.953125,294.15625 L73.1953125,292.9375 C73.453125,291.640625 74.2421875,290.664062 75.5703125,290.664062 C76.6328125,290.664062 77.765625,291.429688 77.765625,293.03125 C77.765625,293.101562 77.75,293.234375 77.71875,293.429688 L77.5,294.703125 C77.25,296.101562 76.359375,297.109375 75.0390625,297.109375 Z M83.9296875,288.460938 L85.546875,286.296875 L85.5703125,286.296875 L86.4765625,288.460938 L87.4765625,288.460938 L86.1328125,285.523438 L85.2109375,285.523438 L82.890625,288.460938 L83.9296875,288.460938 Z M83.328125,298.132812 C84.6015625,298.132812 85.421875,297.4375 85.703125,296.875 L85.78125,296.875 L85.5859375,298 L86.6953125,298 L87.5,293.4375 C87.578125,293.046875 87.6484375,292.59375 87.6484375,292.164062 C87.6484375,290.703125 86.65625,289.6875 84.8046875,289.6875 C83.0859375,289.6875 81.9765625,290.546875 81.7578125,291.71875 L82.8671875,291.71875 C83.046875,291.171875 83.6328125,290.671875 84.71875,290.671875 C86.0625,290.671875 86.5625,291.46875 86.5625,292.265625 C86.5625,292.421875 86.5390625,292.601562 86.5234375,292.695312 L86.4375,293.242188 L84.1640625,293.242188 C82.0859375,293.242188 81.015625,294.164062 80.875,295.507812 C80.859375,295.640625 80.859375,295.765625 80.859375,295.867188 C80.859375,297.289062 81.9765625,298.132812 83.328125,298.132812 Z M83.6015625,297.15625 C82.6015625,297.15625 82.0078125,296.578125 82.0078125,295.757812 C82.0078125,294.898438 82.671875,294.179688 84.0625,294.179688 L86.234375,294.179688 L86.046875,295.25 C85.84375,296.367188 84.796875,297.15625 83.6015625,297.15625 Z M89.515625,300.835938 C90.921875,300.835938 91.5390625,300.382812 92.3515625,298.78125 L92.7421875,298.015625 L97.015625,289.820312 L95.7890625,289.820312 L92.421875,296.664062 L92.34375,296.664062 L91.21875,289.820312 L90,289.820312 L91.5625,297.929688 L91.296875,298.5 C90.84375,299.492188 90.375,299.867188 89.6328125,299.867188 C89.375,299.867188 89.109375,299.835938 88.921875,299.789062 L88.7109375,300.734375 C88.8828125,300.78125 89.21875,300.835938 89.515625,300.835938 Z M105.46875,298.132812 C107.382812,298.132812 108.546875,296.859375 108.835938,295.21875 L109.101562,293.679688 C109.15625,293.359375 109.171875,293.007812 109.171875,292.734375 C109.171875,290.835938 108,289.6875 106.289062,289.6875 C104.90625,289.6875 104.203125,290.492188 103.90625,291.117188 L103.8125,291.117188 L104.601562,286.773438 L103.460938,286.773438 L101.460938,298 L102.59375,298 L102.890625,296.328125 L102.976562,296.328125 C103.179688,297.171875 104.109375,298.132812 105.46875,298.132812 Z M105.4375,297.09375 C104.429688,297.09375 103.28125,296.34375 103.273438,294.71875 C103.273438,294.679688 103.273438,294.507812 103.3125,294.320312 L103.515625,293.046875 C103.742188,291.679688 104.632812,290.648438 105.960938,290.648438 C107.25,290.648438 108.070312,291.484375 108.070312,292.882812 C108.070312,293.09375 108.0625,293.382812 108.03125,293.585938 L107.8125,294.828125 C107.585938,296.085938 106.734375,297.09375 105.4375,297.09375 Z M113.125,298.132812 C114.398438,298.132812 115.21875,297.4375 115.5,296.875 L115.578125,296.875 L115.382812,298 L116.492188,298 L117.296875,293.4375 C117.375,293.046875 117.445312,292.59375 117.445312,292.164062 C117.445312,290.703125 116.453125,289.6875 114.601562,289.6875 C112.882812,289.6875 111.773438,290.546875 111.554688,291.71875 L112.664062,291.71875 C112.84375,291.171875 113.429688,290.671875 114.515625,290.671875 C115.859375,290.671875 116.359375,291.46875 116.359375,292.265625 C116.359375,292.421875 116.335938,292.601562 116.320312,292.695312 L116.234375,293.242188 L113.960938,293.242188 C111.882812,293.242188 110.8125,294.164062 110.671875,295.507812 C110.65625,295.640625 110.65625,295.765625 110.65625,295.867188 C110.65625,297.289062 111.773438,298.132812 113.125,298.132812 Z M113.398438,297.15625 C112.398438,297.15625 111.804688,296.578125 111.804688,295.757812 C111.804688,294.898438 112.46875,294.179688 113.859375,294.179688 L116.03125,294.179688 L115.84375,295.25 C115.640625,296.367188 114.59375,297.15625 113.398438,297.15625 Z M112.867188,300.546875 C113.320312,300.546875 113.640625,300.25 113.640625,299.804688 C113.640625,299.367188 113.320312,299.054688 112.867188,299.054688 C112.421875,299.054688 112.101562,299.367188 112.101562,299.804688 C112.101562,300.25 112.421875,300.546875 112.867188,300.546875 Z M120.453125,298 L121.296875,293.195312 C121.53125,291.859375 122.367188,290.65625 123.835938,290.65625 C125.054688,290.65625 125.523438,291.5 125.523438,292.460938 C125.523438,292.820312 125.460938,293.226562 125.421875,293.445312 L124.617188,298 L125.757812,298 L126.554688,293.515625 C126.625,293.109375 126.695312,292.664062 126.695312,292.25 C126.695312,290.914062 125.921875,289.6875 124.171875,289.6875 C122.992188,289.6875 122.148438,290.25 121.703125,291.1875 L121.617188,291.1875 L121.867188,289.820312 L120.75,289.820312 L119.304688,298 L120.453125,298 Z M135.585938,298.132812 C137.226562,298.132812 138.453125,297.273438 138.679688,295.984375 L137.53125,295.984375 C137.382812,296.59375 136.710938,297.125 135.640625,297.125 C134.25,297.125 133.523438,296.242188 133.523438,294.757812 C133.523438,294.5 133.546875,294.25 133.609375,293.914062 L133.773438,292.96875 C134.039062,291.484375 134.953125,290.65625 136.15625,290.65625 C137.429688,290.65625 138.078125,291.507812 138.078125,292.25 L138.078125,292.34375 L138.078125,292.34375 L139.1875,292.34375 C139.195312,292.335938 139.195312,292.257812 139.195312,292.242188 C139.195312,290.875 138.078125,289.6875 136.164062,289.6875 C134.351562,289.6875 133.03125,290.71875 132.695312,292.671875 L132.492188,293.84375 C132.421875,294.257812 132.390625,294.695312 132.390625,295.007812 C132.390625,296.921875 133.664062,298.132812 135.585938,298.132812 Z M145.21875,288.460938 L147.914062,285.71875 L146.640625,285.71875 L144.257812,288.460938 L145.21875,288.460938 Z M143.882812,298.132812 C145.914062,298.132812 147.109375,296.96875 147.460938,295.03125 L147.664062,293.914062 C147.726562,293.570312 147.757812,293.1875 147.757812,292.953125 C147.757812,290.898438 146.382812,289.6875 144.445312,289.6875 C142.710938,289.6875 141.3125,290.796875 140.96875,292.765625 L140.78125,293.875 C140.710938,294.234375 140.6875,294.625 140.6875,295.007812 C140.6875,296.96875 142.078125,298.132812 143.882812,298.132812 Z M144.023438,297.132812 C142.640625,297.132812 141.804688,296.195312 141.804688,294.828125 C141.804688,294.46875 141.84375,294.210938 141.890625,293.953125 L142.0625,292.984375 C142.34375,291.382812 143.273438,290.6875 144.414062,290.6875 C145.773438,290.6875 146.617188,291.632812 146.617188,292.945312 C146.617188,293.0625 146.609375,293.453125 146.570312,293.703125 L146.390625,294.742188 C146.125,296.273438 145.28125,297.132812 144.023438,297.132812 Z M155.632812,298.070312 C156.015625,298.070312 156.507812,298.023438 156.734375,297.96875 L156.90625,297.023438 C156.671875,297.070312 156.242188,297.109375 155.898438,297.109375 C155.1875,297.109375 154.875,296.851562 154.875,296.265625 C154.875,296.03125 154.914062,295.773438 155.039062,295.054688 L155.789062,290.765625 L157.640625,290.765625 L157.8125,289.820312 L155.960938,289.820312 L156.3125,287.773438 L155.1875,287.773438 L154.8125,289.820312 L153.515625,289.820312 L153.34375,290.765625 L154.648438,290.765625 L153.8125,295.5 C153.742188,295.929688 153.695312,296.296875 153.695312,296.546875 C153.695312,297.5625 154.34375,298.070312 155.632812,298.070312 Z M159.960938,298 L160.804688,293.195312 C161.039062,291.859375 161.890625,290.65625 163.359375,290.65625 C164.578125,290.65625 165.070312,291.492188 165.070312,292.453125 C165.070312,292.804688 165.007812,293.234375 164.96875,293.445312 L164.164062,298 L165.3125,298 L166.101562,293.515625 C166.171875,293.109375 166.242188,292.65625 166.242188,292.25 C166.242188,290.898438 165.40625,289.6875 163.6875,289.6875 C162.46875,289.6875 161.625,290.28125 161.210938,291.1875 L161.125,291.1875 L161.9375,286.773438 L160.804688,286.773438 L158.8125,298 L159.960938,298 Z M174.90625,286.921875 C175.75,286.664062 176.28125,286.0625 176.28125,285.351562 C176.28125,284.609375 175.757812,284.210938 174.773438,284.210938 C174.5625,284.210938 174.34375,284.25 174.203125,284.296875 L174.085938,284.96875 C174.25,284.90625 174.492188,284.867188 174.671875,284.867188 C175.21875,284.867188 175.5,285.0625 175.5,285.460938 C175.5,285.828125 175.171875,286.148438 174.601562,286.328125 L174.90625,286.921875 Z M171.289062,288.453125 L172.890625,286.9375 L172.921875,286.9375 L173.898438,288.453125 L174.851562,288.453125 L173.390625,286.21875 L172.648438,286.21875 L170.25,288.453125 L171.289062,288.453125 Z M171.367188,298.132812 C173.1875,298.132812 174.34375,297.015625 174.53125,296.015625 L173.390625,296.015625 C173.226562,296.578125 172.53125,297.125 171.4375,297.125 C169.921875,297.125 169.351562,296.070312 169.351562,294.945312 C169.351562,294.664062 169.390625,294.359375 169.4375,294.179688 L174.867188,294.179688 C174.882812,294.101562 175.0625,293.109375 175.0625,293.078125 C175.296875,291.570312 174.554688,289.6875 172.140625,289.6875 C170.257812,289.6875 168.921875,290.835938 168.601562,292.664062 L168.390625,293.820312 C168.335938,294.109375 168.265625,294.59375 168.265625,295.054688 C168.265625,297.0625 169.578125,298.132812 171.367188,298.132812 Z M173.945312,293.257812 L169.625,293.257812 C169.625,293.242188 169.734375,292.726562 169.734375,292.710938 C170.03125,291.3125 171.007812,290.65625 172.101562,290.65625 C173.53125,290.65625 174.195312,291.734375 173.976562,293.054688 C173.976562,293.09375 173.953125,293.234375 173.945312,293.257812 Z M1.0234375,324.835938 C2.4296875,324.835938 3.046875,324.382812 3.859375,322.78125 L4.25,322.015625 L8.5234375,313.820312 L7.296875,313.820312 L3.9296875,320.664062 L3.8515625,320.664062 L2.7265625,313.820312 L1.5078125,313.820312 L3.0703125,321.929688 L2.8046875,322.5 C2.3515625,323.492188 1.8828125,323.867188 1.140625,323.867188 C0.8828125,323.867188 0.6171875,323.835938 0.4296875,323.789062 L0.21875,324.734375 C0.390625,324.78125 0.7265625,324.835938 1.0234375,324.835938 Z M12.53125,312.460938 L14.1484375,310.296875 L14.171875,310.296875 L15.078125,312.460938 L16.078125,312.460938 L14.734375,309.523438 L13.8125,309.523438 L11.4921875,312.460938 L12.53125,312.460938 Z M12.5546875,322.132812 C14.375,322.132812 15.53125,321.015625 15.71875,320.015625 L14.578125,320.015625 C14.4140625,320.578125 13.71875,321.125 12.625,321.125 C11.109375,321.125 10.5390625,320.070312 10.5390625,318.945312 C10.5390625,318.664062 10.578125,318.359375 10.625,318.179688 L16.0546875,318.179688 C16.0703125,318.101562 16.25,317.109375 16.25,317.078125 C16.484375,315.570312 15.7421875,313.6875 13.328125,313.6875 C11.4453125,313.6875 10.109375,314.835938 9.7890625,316.664062 L9.578125,317.820312 C9.5234375,318.109375 9.453125,318.59375 9.453125,319.054688 C9.453125,321.0625 10.765625,322.132812 12.5546875,322.132812 Z M15.1328125,317.257812 L10.8125,317.257812 C10.8125,317.242188 10.921875,316.726562 10.921875,316.710938 C11.21875,315.3125 12.1953125,314.65625 13.2890625,314.65625 C14.71875,314.65625 15.3828125,315.734375 15.1640625,317.054688 C15.1640625,317.09375 15.140625,317.234375 15.1328125,317.257812 Z M20.7578125,322.132812 C21.9453125,322.132812 22.8046875,321.46875 23.1953125,320.585938 L23.2890625,320.585938 L23.0390625,322 L24.1171875,322 L25.5546875,313.820312 L24.4609375,313.820312 L23.6171875,318.585938 C23.390625,319.921875 22.578125,321.109375 21.1171875,321.109375 C19.9140625,321.109375 19.3359375,320.414062 19.3359375,319.390625 C19.3359375,319.054688 19.390625,318.640625 19.4453125,318.34375 L20.2578125,313.820312 L19.125,313.820312 L18.3125,318.273438 C18.234375,318.648438 18.15625,319.15625 18.15625,319.59375 C18.15625,320.992188 19.078125,322.132812 20.7578125,322.132812 Z M33.9921875,322.132812 C35.6328125,322.132812 36.859375,321.273438 37.0859375,319.984375 L35.9375,319.984375 C35.7890625,320.59375 35.1171875,321.125 34.046875,321.125 C32.65625,321.125 31.9296875,320.242188 31.9296875,318.757812 C31.9296875,318.5 31.953125,318.25 32.015625,317.914062 L32.1796875,316.96875 C32.4453125,315.484375 33.359375,314.65625 34.5625,314.65625 C35.8359375,314.65625 36.484375,315.507812 36.484375,316.25 L36.484375,316.34375 L36.484375,316.34375 L37.59375,316.34375 C37.6015625,316.335938 37.6015625,316.257812 37.6015625,316.242188 C37.6015625,314.875 36.484375,313.6875 34.5703125,313.6875 C32.7578125,313.6875 31.4375,314.71875 31.1015625,316.671875 L30.8984375,317.84375 C30.828125,318.257812 30.796875,318.695312 30.796875,319.007812 C30.796875,320.921875 32.0703125,322.132812 33.9921875,322.132812 Z M46.828125,311.023438 L45.5234375,308.320312 L44.4375,308.320312 L46.0390625,311.023438 L46.828125,311.023438 Z M41.8671875,312.453125 L43.4609375,310.9375 L43.4921875,310.9375 L44.46875,312.453125 L45.4296875,312.453125 L43.96875,310.21875 L43.2265625,310.21875 L40.828125,312.453125 L41.8671875,312.453125 Z M41.3203125,322.132812 C42.59375,322.132812 43.4140625,321.4375 43.6953125,320.875 L43.7734375,320.875 L43.578125,322 L44.6875,322 L45.4921875,317.4375 C45.5703125,317.046875 45.640625,316.59375 45.640625,316.164062 C45.640625,314.703125 44.6484375,313.6875 42.796875,313.6875 C41.078125,313.6875 39.96875,314.546875 39.75,315.71875 L40.859375,315.71875 C41.0390625,315.171875 41.625,314.671875 42.7109375,314.671875 C44.0546875,314.671875 44.5546875,315.46875 44.5546875,316.265625 C44.5546875,316.421875 44.53125,316.601562 44.515625,316.695312 L44.4296875,317.242188 L42.15625,317.242188 C40.078125,317.242188 39.0078125,318.164062 38.8671875,319.507812 C38.8515625,319.640625 38.8515625,319.765625 38.8515625,319.867188 C38.8515625,321.289062 39.96875,322.132812 41.3203125,322.132812 Z M41.59375,321.15625 C40.59375,321.15625 40,320.578125 40,319.757812 C40,318.898438 40.6640625,318.179688 42.0546875,318.179688 L44.2265625,318.179688 L44.0390625,319.25 C43.8359375,320.367188 42.7890625,321.15625 41.59375,321.15625 Z M50.4453125,322.132812 C51.6328125,322.132812 52.4921875,321.46875 52.8828125,320.585938 L52.9765625,320.585938 L52.7265625,322 L53.8046875,322 L55.2421875,313.820312 L54.1484375,313.820312 L53.3046875,318.585938 C53.078125,319.921875 52.265625,321.109375 50.8046875,321.109375 C49.6015625,321.109375 49.0234375,320.414062 49.0234375,319.390625 C49.0234375,319.054688 49.078125,318.640625 49.1328125,318.34375 L49.9453125,313.820312 L48.8125,313.820312 L48,318.273438 C47.921875,318.648438 47.84375,319.15625 47.84375,319.59375 C47.84375,320.992188 48.765625,322.132812 50.4453125,322.132812 Z M64.6953125,322.226562 C66.625,322.226562 68.2109375,321.15625 68.5546875,319.570312 C68.5859375,319.453125 68.609375,319.289062 68.609375,319.234375 L67.4609375,319.234375 C67.2109375,320.398438 66.171875,321.15625 64.78125,321.15625 C62.984375,321.15625 61.921875,320.023438 61.921875,318.140625 C61.921875,317.804688 61.9765625,317.148438 62.0234375,316.898438 L62.3515625,315.25 C62.7421875,313.28125 63.8203125,312.1875 65.5,312.1875 C66.9921875,312.1875 68.0390625,313.148438 68.1484375,314.304688 C68.15625,314.367188 68.15625,314.4375 68.1484375,314.53125 L69.2734375,314.53125 C69.28125,314.492188 69.2890625,314.398438 69.2890625,314.265625 C69.2890625,312.554688 67.7421875,311.109375 65.5234375,311.109375 C63.2578125,311.109375 61.6796875,312.601562 61.2109375,315.03125 L60.828125,316.992188 C60.7890625,317.21875 60.7578125,317.75 60.7578125,318.179688 C60.7578125,320.65625 62.2734375,322.226562 64.6953125,322.226562 Z M71.546875,322 L72.390625,317.195312 C72.625,315.859375 73.4765625,314.65625 74.9453125,314.65625 C76.1640625,314.65625 76.65625,315.492188 76.65625,316.453125 C76.65625,316.804688 76.59375,317.234375 76.5546875,317.445312 L75.75,322 L76.8984375,322 L77.6875,317.515625 C77.7578125,317.109375 77.828125,316.65625 77.828125,316.25 C77.828125,314.898438 76.9921875,313.6875 75.2734375,313.6875 C74.0546875,313.6875 73.2109375,314.28125 72.796875,315.1875 L72.7109375,315.1875 L73.5234375,310.773438 L72.390625,310.773438 L70.3984375,322 L71.546875,322 Z M82.109375,322.132812 C83.3828125,322.132812 84.203125,321.4375 84.484375,320.875 L84.5625,320.875 L84.3671875,322 L85.4765625,322 L86.28125,317.4375 C86.359375,317.046875 86.4296875,316.59375 86.4296875,316.164062 C86.4296875,314.703125 85.4375,313.6875 83.5859375,313.6875 C81.8671875,313.6875 80.7578125,314.546875 80.5390625,315.71875 L81.6484375,315.71875 C81.828125,315.171875 82.4140625,314.671875 83.5,314.671875 C84.84375,314.671875 85.34375,315.46875 85.34375,316.265625 C85.34375,316.421875 85.3203125,316.601562 85.3046875,316.695312 L85.21875,317.242188 L82.9453125,317.242188 C80.8671875,317.242188 79.796875,318.164062 79.65625,319.507812 C79.640625,319.640625 79.640625,319.765625 79.640625,319.867188 C79.640625,321.289062 80.7578125,322.132812 82.109375,322.132812 Z M82.3828125,321.15625 C81.3828125,321.15625 80.7890625,320.578125 80.7890625,319.757812 C80.7890625,318.898438 81.453125,318.179688 82.84375,318.179688 L85.015625,318.179688 L84.828125,319.25 C84.625,320.367188 83.578125,321.15625 82.3828125,321.15625 Z M89.4375,322 L90.28125,317.195312 C90.515625,315.859375 91.3515625,314.65625 92.8203125,314.65625 C94.0390625,314.65625 94.5078125,315.5 94.5078125,316.460938 C94.5078125,316.820312 94.4453125,317.226562 94.40625,317.445312 L93.6015625,322 L94.7421875,322 L95.5390625,317.515625 C95.609375,317.109375 95.6796875,316.664062 95.6796875,316.25 C95.6796875,314.914062 94.90625,313.6875 93.15625,313.6875 C91.9765625,313.6875 91.1328125,314.25 90.6875,315.1875 L90.6015625,315.1875 L90.8515625,313.820312 L89.734375,313.820312 L88.2890625,322 L89.4375,322 Z M100.914062,322.132812 C102.554688,322.132812 103.78125,321.273438 104.007812,319.984375 L102.859375,319.984375 C102.710938,320.59375 102.039062,321.125 100.96875,321.125 C99.578125,321.125 98.8515625,320.242188 98.8515625,318.757812 C98.8515625,318.5 98.875,318.25 98.9375,317.914062 L99.1015625,316.96875 C99.3671875,315.484375 100.28125,314.65625 101.484375,314.65625 C102.757812,314.65625 103.40625,315.507812 103.40625,316.25 L103.40625,316.34375 L103.40625,316.34375 L104.515625,316.34375 C104.523438,316.335938 104.523438,316.257812 104.523438,316.242188 C104.523438,314.875 103.40625,313.6875 101.492188,313.6875 C99.6796875,313.6875 98.359375,314.71875 98.0234375,316.671875 L97.8203125,317.84375 C97.75,318.257812 97.71875,318.695312 97.71875,319.007812 C97.71875,320.921875 98.9921875,322.132812 100.914062,322.132812 Z M106.992188,322 L107.835938,317.195312 C108.070312,315.859375 108.921875,314.65625 110.390625,314.65625 C111.609375,314.65625 112.101562,315.492188 112.101562,316.453125 C112.101562,316.804688 112.039062,317.234375 112,317.445312 L111.195312,322 L112.34375,322 L113.132812,317.515625 C113.203125,317.109375 113.273438,316.65625 113.273438,316.25 C113.273438,314.898438 112.4375,313.6875 110.71875,313.6875 C109.5,313.6875 108.65625,314.28125 108.242188,315.1875 L108.15625,315.1875 L108.96875,310.773438 L107.835938,310.773438 L105.84375,322 L106.992188,322 Z M117.554688,322.132812 C118.828125,322.132812 119.648438,321.4375 119.929688,320.875 L120.007812,320.875 L119.8125,322 L120.921875,322 L121.726562,317.4375 C121.804688,317.046875 121.875,316.59375 121.875,316.164062 C121.875,314.703125 120.882812,313.6875 119.03125,313.6875 C117.3125,313.6875 116.203125,314.546875 115.984375,315.71875 L117.09375,315.71875 C117.273438,315.171875 117.859375,314.671875 118.945312,314.671875 C120.289062,314.671875 120.789062,315.46875 120.789062,316.265625 C120.789062,316.421875 120.765625,316.601562 120.75,316.695312 L120.664062,317.242188 L118.390625,317.242188 C116.3125,317.242188 115.242188,318.164062 115.101562,319.507812 C115.085938,319.640625 115.085938,319.765625 115.085938,319.867188 C115.085938,321.289062 116.203125,322.132812 117.554688,322.132812 Z M117.828125,321.15625 C116.828125,321.15625 116.234375,320.578125 116.234375,319.757812 C116.234375,318.898438 116.898438,318.179688 118.289062,318.179688 L120.460938,318.179688 L120.273438,319.25 C120.070312,320.367188 119.023438,321.15625 117.828125,321.15625 Z M124.882812,322 L125.726562,317.195312 C125.960938,315.859375 126.796875,314.65625 128.265625,314.65625 C129.484375,314.65625 129.953125,315.5 129.953125,316.460938 C129.953125,316.820312 129.890625,317.226562 129.851562,317.445312 L129.046875,322 L130.1875,322 L130.984375,317.515625 C131.054688,317.109375 131.125,316.664062 131.125,316.25 C131.125,314.914062 130.351562,313.6875 128.601562,313.6875 C127.421875,313.6875 126.578125,314.25 126.132812,315.1875 L126.046875,315.1875 L126.296875,313.820312 L125.179688,313.820312 L123.734375,322 L124.882812,322 Z M138.882812,315.6875 L140.382812,311.328125 L139.335938,311.328125 L137.492188,315.6875 L138.882812,315.6875 Z M141.945312,315.6875 L143.445312,311.328125 L142.398438,311.328125 L140.554688,315.6875 L141.945312,315.6875 Z M147.679688,322 L149.382812,312.367188 L152.75,312.367188 L152.914062,311.335938 L145.03125,311.335938 L144.851562,312.367188 L148.226562,312.367188 L146.523438,322 L147.679688,322 Z M155.039062,312.1875 C155.546875,312.1875 155.921875,311.820312 155.921875,311.328125 C155.921875,310.828125 155.546875,310.453125 155.039062,310.453125 C154.5625,310.453125 154.179688,310.828125 154.179688,311.328125 C154.179688,311.820312 154.5625,312.1875 155.039062,312.1875 Z M153.875,322 L155.3125,313.820312 L154.171875,313.820312 L152.734375,322 L153.875,322 Z M164.304688,311.023438 L167.015625,308.320312 L165.773438,308.320312 L163.398438,311.023438 L164.304688,311.023438 Z M160.015625,312.453125 L161.617188,310.9375 L161.648438,310.9375 L162.625,312.453125 L163.578125,312.453125 L162.117188,310.21875 L161.375,310.21875 L158.976562,312.453125 L160.015625,312.453125 Z M160.09375,322.132812 C161.914062,322.132812 163.070312,321.015625 163.257812,320.015625 L162.117188,320.015625 C161.953125,320.578125 161.257812,321.125 160.164062,321.125 C158.648438,321.125 158.078125,320.070312 158.078125,318.945312 C158.078125,318.664062 158.117188,318.359375 158.164062,318.179688 L163.59375,318.179688 C163.609375,318.101562 163.789062,317.109375 163.789062,317.078125 C164.023438,315.570312 163.28125,313.6875 160.867188,313.6875 C158.984375,313.6875 157.648438,314.835938 157.328125,316.664062 L157.117188,317.820312 C157.0625,318.109375 156.992188,318.59375 156.992188,319.054688 C156.992188,321.0625 158.304688,322.132812 160.09375,322.132812 Z M162.671875,317.257812 L158.351562,317.257812 C158.351562,317.242188 158.460938,316.726562 158.460938,316.710938 C158.757812,315.3125 159.734375,314.65625 160.828125,314.65625 C162.257812,314.65625 162.921875,315.734375 162.703125,317.054688 C162.703125,317.09375 162.679688,317.234375 162.671875,317.257812 Z M166.023438,324.703125 L166.773438,320.328125 L166.867188,320.328125 C167.023438,321.078125 167.890625,322.132812 169.304688,322.132812 C171.242188,322.132812 172.445312,320.835938 172.703125,319.21875 L172.984375,317.679688 C173.046875,317.359375 173.046875,317.007812 173.046875,316.734375 C173.046875,314.84375 171.835938,313.6875 170.132812,313.6875 C168.734375,313.6875 168.03125,314.5 167.765625,315.117188 L167.671875,315.117188 L167.90625,313.820312 L166.789062,313.820312 L164.875,324.703125 L166.023438,324.703125 Z M169.265625,321.09375 C168.25,321.09375 167.117187,320.320312 167.117187,318.71875 C167.109375,318.679688 167.117187,318.507812 167.148437,318.320312 L167.359375,317.046875 C167.585937,315.65625 168.484375,314.648438 169.789062,314.648438 C171.09375,314.648438 171.945312,315.492188 171.945312,316.882812 C171.945312,317.101562 171.9375,317.390625 171.90625,317.585938 L171.6875,318.828125 C171.460937,320.0625 170.601562,321.09375 169.265625,321.09375 Z M3.6640625,346.070312 C4.046875,346.070312 4.5390625,346.023438 4.765625,345.96875 L4.9375,345.023438 C4.703125,345.070312 4.2734375,345.109375 3.9296875,345.109375 C3.21875,345.109375 2.90625,344.851562 2.90625,344.265625 C2.90625,344.03125 2.9453125,343.773438 3.0703125,343.054688 L3.8203125,338.765625 L5.671875,338.765625 L5.84375,337.820312 L3.9921875,337.820312 L4.34375,335.773438 L3.21875,335.773438 L2.84375,337.820312 L1.546875,337.820312 L1.375,338.765625 L2.6796875,338.765625 L1.84375,343.5 C1.7734375,343.929688 1.7265625,344.296875 1.7265625,344.546875 C1.7265625,345.5625 2.375,346.070312 3.6640625,346.070312 Z M9.7890625,346.132812 C10.9765625,346.132812 11.8359375,345.46875 12.2265625,344.585938 L12.3203125,344.585938 L12.0703125,346 L13.1484375,346 L14.5859375,337.820312 L13.4921875,337.820312 L12.6484375,342.585938 C12.421875,343.921875 11.609375,345.109375 10.1484375,345.109375 C8.9453125,345.109375 8.3671875,344.414062 8.3671875,343.390625 C8.3671875,343.054688 8.421875,342.640625 8.4765625,342.34375 L9.2890625,337.820312 L8.15625,337.820312 L7.34375,342.273438 C7.265625,342.648438 7.1875,343.15625 7.1875,343.59375 C7.1875,344.992188 8.109375,346.132812 9.7890625,346.132812 Z M9.6640625,348.546875 C10.1171875,348.546875 10.4375,348.25 10.4375,347.804688 C10.4375,347.367188 10.1171875,347.054688 9.6640625,347.054688 C9.21875,347.054688 8.8984375,347.367188 8.8984375,347.804688 C8.8984375,348.25 9.21875,348.546875 9.6640625,348.546875 Z M19.3671875,346.132812 C21.0078125,346.132812 22.234375,345.273438 22.4609375,343.984375 L21.3125,343.984375 C21.1640625,344.59375 20.4921875,345.125 19.421875,345.125 C18.03125,345.125 17.3046875,344.242188 17.3046875,342.757812 C17.3046875,342.5 17.328125,342.25 17.390625,341.914062 L17.5546875,340.96875 C17.8203125,339.484375 18.734375,338.65625 19.9375,338.65625 C21.2109375,338.65625 21.859375,339.507812 21.859375,340.25 L21.859375,340.34375 L21.859375,340.34375 L22.96875,340.34375 C22.9765625,340.335938 22.9765625,340.257812 22.9765625,340.242188 C22.9765625,338.875 21.859375,337.6875 19.9453125,337.6875 C18.1328125,337.6875 16.8125,338.71875 16.4765625,340.671875 L16.2734375,341.84375 C16.203125,342.257812 16.171875,342.695312 16.171875,343.007812 C16.171875,344.921875 17.4453125,346.132812 19.3671875,346.132812 Z M29.0078125,339.6875 L30.8515625,335.328125 L29.4609375,335.328125 L27.9609375,339.6875 L29.0078125,339.6875 Z M25.9453125,339.6875 L27.7890625,335.328125 L26.3984375,335.328125 L24.8984375,339.6875 L25.9453125,339.6875 Z M38.5625,346.132812 C40.203125,346.132812 41.4296875,345.273438 41.65625,343.984375 L40.5078125,343.984375 C40.359375,344.59375 39.6875,345.125 38.6171875,345.125 C37.2265625,345.125 36.5,344.242188 36.5,342.757812 C36.5,342.5 36.5234375,342.25 36.5859375,341.914062 L36.75,340.96875 C37.015625,339.484375 37.9296875,338.65625 39.1328125,338.65625 C40.40625,338.65625 41.0546875,339.507812 41.0546875,340.25 L41.0546875,340.34375 L41.0546875,340.34375 L42.1640625,340.34375 C42.171875,340.335938 42.171875,340.257812 42.171875,340.242188 C42.171875,338.875 41.0546875,337.6875 39.140625,337.6875 C37.328125,337.6875 36.0078125,338.71875 35.671875,340.671875 L35.46875,341.84375 C35.3984375,342.257812 35.3671875,342.695312 35.3671875,343.007812 C35.3671875,344.921875 36.640625,346.132812 38.5625,346.132812 Z M46.8671875,336.460938 L48.484375,334.296875 L48.5078125,334.296875 L49.4140625,336.460938 L50.4140625,336.460938 L49.0703125,333.523438 L48.1484375,333.523438 L45.828125,336.460938 L46.8671875,336.460938 Z M46.859375,346.132812 C48.890625,346.132812 50.0859375,344.96875 50.4375,343.03125 L50.640625,341.914062 C50.703125,341.570312 50.734375,341.1875 50.734375,340.953125 C50.734375,338.898438 49.359375,337.6875 47.421875,337.6875 C45.6875,337.6875 44.2890625,338.796875 43.9453125,340.765625 L43.7578125,341.875 C43.6875,342.234375 43.6640625,342.625 43.6640625,343.007812 C43.6640625,344.96875 45.0546875,346.132812 46.859375,346.132812 Z M47,345.132812 C45.6171875,345.132812 44.78125,344.195312 44.78125,342.828125 C44.78125,342.46875 44.8203125,342.210938 44.8671875,341.953125 L45.0390625,340.984375 C45.3203125,339.382812 46.25,338.6875 47.390625,338.6875 C48.75,338.6875 49.59375,339.632812 49.59375,340.945312 C49.59375,341.0625 49.5859375,341.453125 49.546875,341.703125 L49.3671875,342.742188 C49.1015625,344.273438 48.2578125,345.132812 47,345.132812 Z M53.453125,346 L54.296875,341.195312 C54.53125,339.859375 55.3671875,338.65625 56.8359375,338.65625 C58.0546875,338.65625 58.5234375,339.5 58.5234375,340.460938 C58.5234375,340.820312 58.4609375,341.226562 58.421875,341.445312 L57.6171875,346 L58.7578125,346 L59.5546875,341.515625 C59.625,341.109375 59.6953125,340.664062 59.6953125,340.25 C59.6953125,338.914062 58.921875,337.6875 57.171875,337.6875 C55.9921875,337.6875 55.1484375,338.25 54.703125,339.1875 L54.6171875,339.1875 L54.8671875,337.820312 L53.75,337.820312 L52.3046875,346 L53.453125,346 Z M64.3515625,348.96875 C66.4140625,348.96875 67.640625,347.984375 68.015625,345.867188 L69.4296875,337.820312 L68.3046875,337.820312 L68.0234375,339.429688 L67.9296875,339.429688 C67.6875,338.53125 66.8203125,337.6875 65.421875,337.6875 C63.90625,337.6875 62.453125,338.59375 62.0546875,340.6875 L61.875,341.640625 C61.8125,341.953125 61.765625,342.476562 61.765625,342.757812 C61.765625,344.6875 63.1953125,345.851562 64.7109375,345.851562 C66,345.851562 66.7734375,345.1875 67.0703125,344.46875 L67.1640625,344.46875 L66.953125,345.664062 C66.6796875,347.234375 65.8984375,347.992188 64.421875,347.992188 C63.203125,347.992188 62.4140625,347.304688 62.4140625,346.65625 L62.4140625,346.554688 L62.4140625,346.554688 L61.296875,346.554688 C61.296875,346.5625 61.2890625,346.65625 61.2890625,346.671875 C61.2890625,347.867188 62.4765625,348.96875 64.3515625,348.96875 Z M65.0625,344.890625 C63.7578125,344.890625 62.890625,344.109375 62.890625,342.585938 C62.890625,342.375 62.9453125,341.945312 62.984375,341.71875 L63.1171875,341.039062 C63.390625,339.554688 64.2578125,338.65625 65.4765625,338.65625 C66.7421875,338.65625 67.671875,339.539062 67.671875,340.976562 L67.6710177,341.048172 C67.668017,341.161073 67.6545139,341.378472 67.59375,341.71875 L67.4453125,342.554688 C67.2109375,343.921875 66.2734375,344.890625 65.0625,344.890625 Z M77.59375,346 L81.734375,337.820312 L80.5703125,337.820312 L77.2109375,344.726562 L77.1328125,344.726562 L76.1484375,337.820312 L74.9765625,337.820312 L76.359375,346 L77.59375,346 Z M84.953125,336.1875 C85.4609375,336.1875 85.8359375,335.820312 85.8359375,335.328125 C85.8359375,334.828125 85.4609375,334.453125 84.953125,334.453125 C84.4765625,334.453125 84.09375,334.828125 84.09375,335.328125 C84.09375,335.820312 84.4765625,336.1875 84.953125,336.1875 Z M83.7890625,346 L85.2265625,337.820312 L84.0859375,337.820312 L82.6484375,346 L83.7890625,346 Z M89.984375,336.460938 L91.6015625,334.296875 L91.625,334.296875 L92.53125,336.460938 L93.53125,336.460938 L92.1875,333.523438 L91.265625,333.523438 L88.9453125,336.460938 L89.984375,336.460938 Z M90.0078125,346.132812 C91.828125,346.132812 92.984375,345.015625 93.171875,344.015625 L92.03125,344.015625 C91.8671875,344.578125 91.171875,345.125 90.078125,345.125 C88.5625,345.125 87.9921875,344.070312 87.9921875,342.945312 C87.9921875,342.664062 88.03125,342.359375 88.078125,342.179688 L93.5078125,342.179688 C93.5234375,342.101562 93.703125,341.109375 93.703125,341.078125 C93.9375,339.570312 93.1953125,337.6875 90.78125,337.6875 C88.8984375,337.6875 87.5625,338.835938 87.2421875,340.664062 L87.03125,341.820312 C86.9765625,342.109375 86.90625,342.59375 86.90625,343.054688 C86.90625,345.0625 88.21875,346.132812 90.0078125,346.132812 Z M92.5859375,341.257812 L88.265625,341.257812 C88.265625,341.242188 88.375,340.726562 88.375,340.710938 C88.671875,339.3125 89.6484375,338.65625 90.7421875,338.65625 C92.171875,338.65625 92.8359375,339.734375 92.6171875,341.054688 C92.6171875,341.09375 92.59375,341.234375 92.5859375,341.257812 Z M89.5625,348.546875 C90.015625,348.546875 90.3359375,348.25 90.3359375,347.804688 C90.3359375,347.367188 90.015625,347.054688 89.5625,347.054688 C89.1171875,347.054688 88.796875,347.367188 88.796875,347.804688 C88.796875,348.25 89.1171875,348.546875 89.5625,348.546875 Z M98.625,346.132812 C100.265625,346.132812 101.492188,345.273438 101.71875,343.984375 L100.570312,343.984375 C100.421875,344.59375 99.75,345.125 98.6796875,345.125 C97.2890625,345.125 96.5625,344.242188 96.5625,342.757812 C96.5625,342.5 96.5859375,342.25 96.6484375,341.914062 L96.8125,340.96875 C97.078125,339.484375 97.9921875,338.65625 99.1953125,338.65625 C100.46875,338.65625 101.117188,339.507812 101.117188,340.25 L101.117188,340.34375 L101.117188,340.34375 L102.226562,340.34375 C102.234375,340.335938 102.234375,340.257812 102.234375,340.242188 C102.234375,338.875 101.117188,337.6875 99.203125,337.6875 C97.390625,337.6875 96.0703125,338.71875 95.734375,340.671875 L95.53125,341.84375 C95.4609375,342.257812 95.4296875,342.695312 95.4296875,343.007812 C95.4296875,344.921875 96.703125,346.132812 98.625,346.132812 Z" id="Cảmơnbạnđãdànhthờigian!SauđâybạncóthểyêucầuChanchan“Tiếptục”côngviệc" fill-rule="nonzero"></path>
            </g>
        </g>
    </g>
</svg>