<?xml version="1.0" encoding="UTF-8"?>
<svg width="320px" height="519px" viewBox="0 0 320 519" version="1.1" xmlns="http://www.w3.org/2000/svg" xmlns:xlink="http://www.w3.org/1999/xlink">
    <title>3</title>
    <g id="Chanchan" stroke="none" stroke-width="1" fill="none" fill-rule="evenodd">
        <g id="open-letter" transform="translate(0.000000, -1463.000000)" fill="#121721">
            <g id="Group-6" transform="translate(35.000000, 1485.000000)">
                <text id="Như-bất-kỳ-Sản-phẩm" font-family="SFCompactDisplay-Light, SF Compact Display" font-size="16" font-weight="300" line-spacing="23">
                    <tspan x="0" y="117">Như bất kỳ Sản phẩm mới nào, sự </tspan>
                    <tspan x="0" y="140">thành công luôn cần bắt đầu từ Thế </tspan>
                    <tspan x="0" y="163">hệ người dùng đầu tiên. Chúng tôi </tspan>
                    <tspan x="0" y="186">mong rằng qua những chia sẻ </tspan>
                    <tspan x="0" y="209">trên sẽ  nhận được sự đồng </tspan>
                    <tspan x="0" y="232">hành, ủng hộ cũng như </tspan>
                    <tspan x="0" y="255">những ý kiến đóng góp </tspan>
                    <tspan x="0" y="278">của các bạn.</tspan>
                </text>
                <text id="Chanchan-là-một-sản" font-family="SFCompactDisplay-Light, SF Compact Display" font-size="16" font-weight="300" line-spacing="23">
                    <tspan x="0" y="55">Chanchan là một sản phẩm mới </tspan>
                    <tspan x="0" y="78">đang trong Giai đoạn Thử nghiệm. </tspan>
                </text>
                <text id="Mong-muốn" font-family="SFCompactDisplay-Semibold, SF Compact Display" font-size="20" font-weight="500" letter-spacing="-0.8">
                    <tspan x="0" y="19">Mong muốn</tspan>
                </text>
                <path d="M5.390625,316.226562 C7.3203125,316.226562 8.90625,315.15625 9.25,313.570312 C9.28125,313.453125 9.3046875,313.289062 9.3046875,313.234375 L8.15625,313.234375 C7.90625,314.398438 6.8671875,315.15625 5.4765625,315.15625 C3.6796875,315.15625 2.6171875,314.023438 2.6171875,312.140625 C2.6171875,311.804688 2.671875,311.148438 2.71875,310.898438 L3.046875,309.25 C3.4375,307.28125 4.515625,306.1875 6.1953125,306.1875 C7.6875,306.1875 8.734375,307.148438 8.84375,308.304688 C8.8515625,308.367188 8.8515625,308.4375 8.84375,308.53125 L9.96875,308.53125 C9.9765625,308.492188 9.984375,308.398438 9.984375,308.265625 C9.984375,306.554688 8.4375,305.109375 6.21875,305.109375 C3.953125,305.109375 2.375,306.601562 1.90625,309.03125 L1.5234375,310.992188 C1.484375,311.21875 1.453125,311.75 1.453125,312.179688 C1.453125,314.65625 2.96875,316.226562 5.390625,316.226562 Z M15.46875,306.75 C16.3984375,306.34375 16.8671875,305.828125 16.8671875,305.015625 C16.8671875,304.34375 16.328125,303.835938 15.421875,303.835938 C14.9765625,303.835938 14.75,303.890625 14.546875,303.984375 L14.4375,304.695312 C14.6171875,304.625 14.8359375,304.554688 15.2578125,304.554688 C15.6953125,304.554688 16.0078125,304.820312 16.0078125,305.140625 C16.0078125,305.492188 15.8125,305.765625 15.09375,306.125 L15.46875,306.75 Z M13.4921875,316.132812 C14.765625,316.132812 15.5859375,315.4375 15.8671875,314.875 L15.9453125,314.875 L15.75,316 L16.859375,316 L17.6640625,311.4375 C17.7421875,311.046875 17.8125,310.59375 17.8125,310.164062 C17.8125,308.703125 16.8203125,307.6875 14.96875,307.6875 C13.25,307.6875 12.140625,308.546875 11.921875,309.71875 L13.03125,309.71875 C13.2109375,309.171875 13.796875,308.671875 14.8828125,308.671875 C16.2265625,308.671875 16.7265625,309.46875 16.7265625,310.265625 C16.7265625,310.421875 16.703125,310.601562 16.6875,310.695312 L16.6015625,311.242188 L14.328125,311.242188 C12.25,311.242188 11.1796875,312.164062 11.0390625,313.507812 C11.0234375,313.640625 11.0234375,313.765625 11.0234375,313.867188 C11.0234375,315.289062 12.140625,316.132812 13.4921875,316.132812 Z M13.765625,315.15625 C12.765625,315.15625 12.171875,314.578125 12.171875,313.757812 C12.171875,312.898438 12.8359375,312.179688 14.2265625,312.179688 L16.3984375,312.179688 L16.2109375,313.25 C16.0078125,314.367188 14.9609375,315.15625 13.765625,315.15625 Z M20.8203125,316 L21.671875,311.15625 C21.90625,309.804688 22.6484375,308.65625 24.03125,308.65625 C25.15625,308.65625 25.5625,309.4375 25.5625,310.421875 C25.5625,310.773438 25.5234375,311.140625 25.484375,311.359375 L24.6640625,316 L25.8046875,316 L26.6640625,311.164062 C26.921875,309.71875 27.65625,308.65625 28.8984375,308.65625 C29.9765625,308.65625 30.390625,309.421875 30.390625,310.4375 C30.390625,310.78125 30.3359375,311.15625 30.296875,311.375 L29.484375,316 L30.625,316 L31.4296875,311.445312 C31.4921875,311.070312 31.5703125,310.578125 31.5703125,310.15625 C31.5703125,308.820312 30.8359375,307.6875 29.1875,307.6875 C27.734375,307.6875 27.015625,308.609375 26.734375,309.25 L26.65625,309.25 C26.390625,308.367188 25.6171875,307.6875 24.3671875,307.6875 C23.15625,307.6875 22.40625,308.390625 22.0703125,309.1875 L21.984375,309.1875 L22.2265625,307.820312 L21.1171875,307.820312 L19.671875,316 L20.8203125,316 Z M40.46875,316.132812 C42.5,316.132812 43.6953125,314.96875 44.046875,313.03125 L44.25,311.914062 C44.3046875,311.570312 44.3359375,311.1875 44.3359375,310.953125 C44.3359375,310.023438 44,309.242188 43.671875,308.84375 L43.6953125,308.78125 C44.90625,308.765625 45.3125,307.960938 45.5390625,306.6875 L45.734375,305.609375 L44.703125,305.609375 L44.4921875,306.78125 C44.3515625,307.554688 43.9609375,308.03125 43.171875,308.03125 C42.4375,308.03125 41.9375,307.6875 41.0234375,307.6875 C39.296875,307.6875 37.8984375,308.796875 37.5546875,310.765625 L37.359375,311.875 C37.296875,312.234375 37.2734375,312.625 37.2734375,313.007812 C37.2734375,314.96875 38.65625,316.132812 40.46875,316.132812 Z M40.609375,315.132812 C39.2265625,315.132812 38.390625,314.195312 38.390625,312.828125 C38.390625,312.46875 38.421875,312.210938 38.46875,311.953125 L38.6484375,310.984375 C38.9296875,309.382812 39.859375,308.6875 41,308.6875 C42.3515625,308.6875 43.1953125,309.632812 43.1953125,310.945312 C43.1953125,311.0625 43.1953125,311.453125 43.15625,311.703125 L42.9765625,312.742188 C42.703125,314.273438 41.8671875,315.132812 40.609375,315.132812 Z M47.0859375,316 L47.9296875,311.195312 C48.1640625,309.859375 49,308.65625 50.46875,308.65625 C51.6875,308.65625 52.15625,309.5 52.15625,310.460938 C52.15625,310.820312 52.09375,311.226562 52.0546875,311.445312 L51.25,316 L52.390625,316 L53.1875,311.515625 C53.2578125,311.109375 53.328125,310.664062 53.328125,310.25 C53.328125,308.914062 52.5546875,307.6875 50.8046875,307.6875 C49.625,307.6875 48.78125,308.25 48.3359375,309.1875 L48.25,309.1875 L48.5,307.820312 L47.3828125,307.820312 L45.9375,316 L47.0859375,316 Z M62.8671875,316.132812 C64.78125,316.132812 65.9453125,314.859375 66.234375,313.21875 L66.5,311.679688 C66.5546875,311.359375 66.5703125,311.007812 66.5703125,310.734375 C66.5703125,308.835938 65.3984375,307.6875 63.6875,307.6875 C62.3046875,307.6875 61.6015625,308.492188 61.3046875,309.117188 L61.2109375,309.117188 L62,304.773438 L60.859375,304.773438 L58.859375,316 L59.9921875,316 L60.2890625,314.328125 L60.375,314.328125 C60.578125,315.171875 61.5078125,316.132812 62.8671875,316.132812 Z M62.8359375,315.09375 C61.828125,315.09375 60.6796875,314.34375 60.671875,312.71875 C60.671875,312.679688 60.671875,312.507812 60.7109375,312.320312 L60.9140625,311.046875 C61.140625,309.679688 62.03125,308.648438 63.359375,308.648438 C64.6484375,308.648438 65.46875,309.484375 65.46875,310.882812 C65.46875,311.09375 65.4609375,311.382812 65.4296875,311.585938 L65.2109375,312.828125 C64.984375,314.085938 64.1328125,315.09375 62.8359375,315.09375 Z M70.5234375,316.132812 C71.796875,316.132812 72.6171875,315.4375 72.8984375,314.875 L72.9765625,314.875 L72.78125,316 L73.890625,316 L74.6953125,311.4375 C74.7734375,311.046875 74.84375,310.59375 74.84375,310.164062 C74.84375,308.703125 73.8515625,307.6875 72,307.6875 C70.28125,307.6875 69.171875,308.546875 68.953125,309.71875 L70.0625,309.71875 C70.2421875,309.171875 70.828125,308.671875 71.9140625,308.671875 C73.2578125,308.671875 73.7578125,309.46875 73.7578125,310.265625 C73.7578125,310.421875 73.734375,310.601562 73.71875,310.695312 L73.6328125,311.242188 L71.359375,311.242188 C69.28125,311.242188 68.2109375,312.164062 68.0703125,313.507812 C68.0546875,313.640625 68.0546875,313.765625 68.0546875,313.867188 C68.0546875,315.289062 69.171875,316.132812 70.5234375,316.132812 Z M70.796875,315.15625 C69.796875,315.15625 69.203125,314.578125 69.203125,313.757812 C69.203125,312.898438 69.8671875,312.179688 71.2578125,312.179688 L73.4296875,312.179688 L73.2421875,313.25 C73.0390625,314.367188 71.9921875,315.15625 70.796875,315.15625 Z M70.265625,318.546875 C70.71875,318.546875 71.0390625,318.25 71.0390625,317.804688 C71.0390625,317.367188 70.71875,317.054688 70.265625,317.054688 C69.8203125,317.054688 69.5,317.367188 69.5,317.804688 C69.5,318.25 69.8203125,318.546875 70.265625,318.546875 Z M77.8515625,316 L78.6953125,311.195312 C78.9296875,309.859375 79.765625,308.65625 81.234375,308.65625 C82.453125,308.65625 82.921875,309.5 82.921875,310.460938 C82.921875,310.820312 82.859375,311.226562 82.8203125,311.445312 L82.015625,316 L83.15625,316 L83.953125,311.515625 C84.0234375,311.109375 84.09375,310.664062 84.09375,310.25 C84.09375,308.914062 83.3203125,307.6875 81.5703125,307.6875 C80.390625,307.6875 79.546875,308.25 79.1015625,309.1875 L79.015625,309.1875 L79.265625,307.820312 L78.1484375,307.820312 L76.703125,316 L77.8515625,316 Z M92.7109375,316.117188 C94.078125,316.117188 94.859375,315.25 95.09375,314.617188 L95.1875,314.617188 L94.9453125,316 L96.0625,316 L97.703125,306.726562 L98.984375,306.726562 L99.1484375,305.8125 L97.8671875,305.8125 L98.0546875,304.773438 L96.8984375,304.773438 L96.71875,305.8125 L94.921875,305.8125 L94.765625,306.726562 L96.5625,306.726562 L96.0859375,309.429688 L95.9921875,309.429688 C95.8515625,308.671875 94.9609375,307.6875 93.53125,307.6875 C91.6015625,307.6875 90.4453125,308.9375 90.140625,310.546875 L89.8515625,312.078125 C89.7890625,312.375 89.7734375,312.734375 89.7734375,313.039062 C89.7734375,314.90625 91.0078125,316.117188 92.7109375,316.117188 Z M93.046875,315.109375 C91.7421875,315.109375 90.9140625,314.265625 90.9140625,312.867188 C90.9140625,312.59375 90.9375,312.296875 90.9609375,312.15625 L91.203125,310.9375 C91.4609375,309.640625 92.25,308.664062 93.578125,308.664062 C94.640625,308.664062 95.7734375,309.429688 95.7734375,311.03125 C95.7734375,311.101562 95.7578125,311.234375 95.7265625,311.429688 L95.5078125,312.703125 C95.2578125,314.101562 94.3671875,315.109375 93.046875,315.109375 Z M104.242188,306.414062 C105.132812,306.414062 105.695312,305.554688 105.765625,304.65625 L104.960938,304.65625 C104.890625,305.234375 104.648438,305.609375 104.257812,305.609375 C103.617188,305.609375 103.578125,304.390625 102.328125,304.390625 C101.453125,304.390625 100.882812,305.132812 100.796875,306.148438 L101.601562,306.148438 C101.664062,305.5625 101.875,305.195312 102.304688,305.195312 C103,305.195312 103.03125,306.414062 104.242188,306.414062 Z M101.335938,316.132812 C102.609375,316.132812 103.429688,315.4375 103.710938,314.875 L103.789062,314.875 L103.59375,316 L104.703125,316 L105.507812,311.4375 C105.585938,311.046875 105.65625,310.59375 105.65625,310.164062 C105.65625,308.703125 104.664062,307.6875 102.8125,307.6875 C101.09375,307.6875 99.984375,308.546875 99.765625,309.71875 L100.875,309.71875 C101.054688,309.171875 101.640625,308.671875 102.726562,308.671875 C104.070312,308.671875 104.570312,309.46875 104.570312,310.265625 C104.570312,310.421875 104.546875,310.601562 104.53125,310.695312 L104.445312,311.242188 L102.171875,311.242188 C100.09375,311.242188 99.0234375,312.164062 98.8828125,313.507812 C98.8671875,313.640625 98.8671875,313.765625 98.8671875,313.867188 C98.8671875,315.289062 99.984375,316.132812 101.335938,316.132812 Z M101.609375,315.15625 C100.609375,315.15625 100.015625,314.578125 100.015625,313.757812 C100.015625,312.898438 100.679688,312.179688 102.070312,312.179688 L104.242188,312.179688 L104.054688,313.25 C103.851562,314.367188 102.804688,315.15625 101.609375,315.15625 Z M114.257812,316.117188 C115.625,316.117188 116.40625,315.25 116.640625,314.617188 L116.734375,314.617188 L116.492188,316 L117.609375,316 L119.601562,304.773438 L118.445312,304.773438 L117.632812,309.429688 L117.539062,309.429688 C117.398438,308.671875 116.507812,307.6875 115.078125,307.6875 C113.148438,307.6875 111.992188,308.9375 111.6875,310.546875 L111.398438,312.078125 C111.335938,312.375 111.320312,312.734375 111.320312,313.039062 C111.320312,314.90625 112.554688,316.117188 114.257812,316.117188 Z M114.59375,315.109375 C113.289062,315.109375 112.460938,314.265625 112.460938,312.867188 C112.460938,312.59375 112.484375,312.296875 112.507812,312.15625 L112.75,310.9375 C113.007812,309.640625 113.796875,308.664062 115.125,308.664062 C116.1875,308.664062 117.320312,309.429688 117.320312,311.03125 C117.320312,311.101562 117.304688,311.234375 117.273438,311.429688 L117.054688,312.703125 C116.804688,314.101562 115.914062,315.109375 114.59375,315.109375 Z M125.445312,306.460938 L123.976562,303.71875 L122.726562,303.71875 L124.570312,306.460938 L125.445312,306.460938 Z M122.859375,316.132812 C124.132812,316.132812 124.953125,315.4375 125.234375,314.875 L125.3125,314.875 L125.117188,316 L126.226562,316 L127.03125,311.4375 C127.109375,311.046875 127.179688,310.59375 127.179688,310.164062 C127.179688,308.703125 126.1875,307.6875 124.335938,307.6875 C122.617188,307.6875 121.507812,308.546875 121.289062,309.71875 L122.398438,309.71875 C122.578125,309.171875 123.164062,308.671875 124.25,308.671875 C125.59375,308.671875 126.09375,309.46875 126.09375,310.265625 C126.09375,310.421875 126.070312,310.601562 126.054688,310.695312 L125.96875,311.242188 L123.695312,311.242188 C121.617188,311.242188 120.546875,312.164062 120.40625,313.507812 C120.390625,313.640625 120.390625,313.765625 120.390625,313.867188 C120.390625,315.289062 121.507812,316.132812 122.859375,316.132812 Z M123.132812,315.15625 C122.132812,315.15625 121.539062,314.578125 121.539062,313.757812 C121.539062,312.898438 122.203125,312.179688 123.59375,312.179688 L125.765625,312.179688 L125.578125,313.25 C125.375,314.367188 124.328125,315.15625 123.132812,315.15625 Z M130.1875,316 L131.03125,311.195312 C131.265625,309.859375 132.101562,308.65625 133.570312,308.65625 C134.789062,308.65625 135.257812,309.5 135.257812,310.460938 C135.257812,310.820312 135.195312,311.226562 135.15625,311.445312 L134.351562,316 L135.492188,316 L136.289062,311.515625 C136.359375,311.109375 136.429688,310.664062 136.429688,310.25 C136.429688,308.914062 135.65625,307.6875 133.90625,307.6875 C132.726562,307.6875 131.882812,308.25 131.4375,309.1875 L131.351562,309.1875 L131.601562,307.820312 L130.484375,307.820312 L129.039062,316 L130.1875,316 Z M139.453125,316 L140.296875,311.195312 C140.53125,309.859375 141.382812,308.65625 142.851562,308.65625 C144.070312,308.65625 144.5625,309.492188 144.5625,310.453125 C144.5625,310.804688 144.5,311.234375 144.460938,311.445312 L143.65625,316 L144.804688,316 L145.59375,311.515625 C145.664062,311.109375 145.734375,310.65625 145.734375,310.25 C145.734375,308.898438 144.898438,307.6875 143.179688,307.6875 C141.960938,307.6875 141.117188,308.28125 140.703125,309.1875 L140.617188,309.1875 L141.429688,304.773438 L140.296875,304.773438 L138.304688,316 L139.453125,316 Z M3.6640625,340.070312 C4.046875,340.070312 4.5390625,340.023438 4.765625,339.96875 L4.9375,339.023438 C4.703125,339.070312 4.2734375,339.109375 3.9296875,339.109375 C3.21875,339.109375 2.90625,338.851562 2.90625,338.265625 C2.90625,338.03125 2.9453125,337.773438 3.0703125,337.054688 L3.8203125,332.765625 L5.671875,332.765625 L5.84375,331.820312 L3.9921875,331.820312 L4.34375,329.773438 L3.21875,329.773438 L2.84375,331.820312 L1.546875,331.820312 L1.375,332.765625 L2.6796875,332.765625 L1.84375,337.5 C1.7734375,337.929688 1.7265625,338.296875 1.7265625,338.546875 C1.7265625,339.5625 2.375,340.070312 3.6640625,340.070312 Z M7.9921875,340 L8.8359375,335.195312 C9.0703125,333.859375 9.921875,332.65625 11.390625,332.65625 C12.609375,332.65625 13.1015625,333.492188 13.1015625,334.453125 C13.1015625,334.804688 13.0390625,335.234375 13,335.445312 L12.1953125,340 L13.34375,340 L14.1328125,335.515625 C14.203125,335.109375 14.2734375,334.65625 14.2734375,334.25 C14.2734375,332.898438 13.4375,331.6875 11.71875,331.6875 C10.5,331.6875 9.65625,332.28125 9.2421875,333.1875 L9.15625,333.1875 L9.96875,328.773438 L8.8359375,328.773438 L6.84375,340 L7.9921875,340 Z M21.5,330.460938 L20.03125,327.71875 L18.78125,327.71875 L20.625,330.460938 L21.5,330.460938 Z M19.53125,340.132812 C21.5625,340.132812 22.7578125,338.96875 23.109375,337.03125 L23.3125,335.914062 C23.3671875,335.570312 23.3984375,335.1875 23.3984375,334.953125 C23.3984375,334.023438 23.0625,333.242188 22.734375,332.84375 L22.7578125,332.78125 C23.96875,332.765625 24.375,331.960938 24.6015625,330.6875 L24.796875,329.609375 L23.765625,329.609375 L23.5546875,330.78125 C23.4140625,331.554688 23.0234375,332.03125 22.234375,332.03125 C21.5,332.03125 21,331.6875 20.0859375,331.6875 C18.359375,331.6875 16.9609375,332.796875 16.6171875,334.765625 L16.421875,335.875 C16.359375,336.234375 16.3359375,336.625 16.3359375,337.007812 C16.3359375,338.96875 17.71875,340.132812 19.53125,340.132812 Z M19.671875,339.132812 C18.2890625,339.132812 17.453125,338.195312 17.453125,336.828125 C17.453125,336.46875 17.484375,336.210938 17.53125,335.953125 L17.7109375,334.984375 C17.9921875,333.382812 18.921875,332.6875 20.0625,332.6875 C21.4140625,332.6875 22.2578125,333.632812 22.2578125,334.945312 C22.2578125,335.0625 22.2578125,335.453125 22.21875,335.703125 L22.0390625,336.742188 C21.765625,338.273438 20.9296875,339.132812 19.671875,339.132812 Z M27.4140625,330.1875 C27.921875,330.1875 28.296875,329.820312 28.296875,329.328125 C28.296875,328.828125 27.921875,328.453125 27.4140625,328.453125 C26.9375,328.453125 26.5546875,328.828125 26.5546875,329.328125 C26.5546875,329.820312 26.9375,330.1875 27.4140625,330.1875 Z M26.25,340 L27.6875,331.820312 L26.546875,331.820312 L25.109375,340 L26.25,340 Z M35.6640625,342.96875 C37.7265625,342.96875 38.953125,341.984375 39.328125,339.867188 L40.7421875,331.820312 L39.6171875,331.820312 L39.3359375,333.429688 L39.2421875,333.429688 C39,332.53125 38.1328125,331.6875 36.734375,331.6875 C35.21875,331.6875 33.765625,332.59375 33.3671875,334.6875 L33.1875,335.640625 C33.125,335.953125 33.078125,336.476562 33.078125,336.757812 C33.078125,338.6875 34.5078125,339.851562 36.0234375,339.851562 C37.3125,339.851562 38.0859375,339.1875 38.3828125,338.46875 L38.4765625,338.46875 L38.265625,339.664062 C37.9921875,341.234375 37.2109375,341.992188 35.734375,341.992188 C34.515625,341.992188 33.7265625,341.304688 33.7265625,340.65625 L33.7265625,340.554688 L33.7265625,340.554688 L32.609375,340.554688 C32.609375,340.5625 32.6015625,340.65625 32.6015625,340.671875 C32.6015625,341.867188 33.7890625,342.96875 35.6640625,342.96875 Z M36.375,338.890625 C35.0703125,338.890625 34.203125,338.109375 34.203125,336.585938 C34.203125,336.375 34.2578125,335.945312 34.296875,335.71875 L34.4296875,335.039062 C34.703125,333.554688 35.5703125,332.65625 36.7890625,332.65625 C38.0546875,332.65625 38.984375,333.539062 38.984375,334.976562 C38.984375,335.046875 38.984375,335.28125 38.90625,335.71875 L38.7578125,336.554688 C38.5234375,337.921875 37.5859375,338.890625 36.375,338.890625 Z M44.5859375,330.1875 C45.09375,330.1875 45.46875,329.820312 45.46875,329.328125 C45.46875,328.828125 45.09375,328.453125 44.5859375,328.453125 C44.109375,328.453125 43.7265625,328.828125 43.7265625,329.328125 C43.7265625,329.820312 44.109375,330.1875 44.5859375,330.1875 Z M43.421875,340 L44.859375,331.820312 L43.71875,331.820312 L42.28125,340 L43.421875,340 Z M48.796875,340.132812 C50.0703125,340.132812 50.890625,339.4375 51.171875,338.875 L51.25,338.875 L51.0546875,340 L52.1640625,340 L52.96875,335.4375 C53.046875,335.046875 53.1171875,334.59375 53.1171875,334.164062 C53.1171875,332.703125 52.125,331.6875 50.2734375,331.6875 C48.5546875,331.6875 47.4453125,332.546875 47.2265625,333.71875 L48.3359375,333.71875 C48.515625,333.171875 49.1015625,332.671875 50.1875,332.671875 C51.53125,332.671875 52.03125,333.46875 52.03125,334.265625 C52.03125,334.421875 52.0078125,334.601562 51.9921875,334.695312 L51.90625,335.242188 L49.6328125,335.242188 C47.5546875,335.242188 46.484375,336.164062 46.34375,337.507812 C46.328125,337.640625 46.328125,337.765625 46.328125,337.867188 C46.328125,339.289062 47.4453125,340.132812 48.796875,340.132812 Z M49.0703125,339.15625 C48.0703125,339.15625 47.4765625,338.578125 47.4765625,337.757812 C47.4765625,336.898438 48.140625,336.179688 49.53125,336.179688 L51.703125,336.179688 L51.515625,337.25 C51.3125,338.367188 50.265625,339.15625 49.0703125,339.15625 Z M56.125,340 L56.96875,335.195312 C57.203125,333.859375 58.0390625,332.65625 59.5078125,332.65625 C60.7265625,332.65625 61.1953125,333.5 61.1953125,334.460938 C61.1953125,334.820312 61.1328125,335.226562 61.09375,335.445312 L60.2890625,340 L61.4296875,340 L62.2265625,335.515625 C62.296875,335.109375 62.3671875,334.664062 62.3671875,334.25 C62.3671875,332.914062 61.59375,331.6875 59.84375,331.6875 C58.6640625,331.6875 57.8203125,332.25 57.375,333.1875 L57.2890625,333.1875 L57.5390625,331.820312 L56.421875,331.820312 L54.9765625,340 L56.125,340 Z M66.140625,336.710938 L67.65625,329.335938 L66.375,329.335938 L65.28125,336.710938 L66.140625,336.710938 Z M65.359375,340.132812 C65.9375,340.132812 66.375,339.703125 66.375,339.15625 C66.375,338.578125 65.9375,338.148438 65.359375,338.148438 C64.828125,338.148438 64.390625,338.578125 64.390625,339.15625 C64.390625,339.703125 64.828125,340.132812 65.359375,340.132812 Z M76.3671875,340.226562 C78.5703125,340.226562 80.1328125,339.0625 80.1328125,337.070312 C80.1328125,335.34375 78.8984375,334.757812 77.5078125,334.210938 L76.875,333.960938 C75.734375,333.507812 74.859375,333 74.859375,331.984375 C74.859375,330.71875 76.0703125,330.15625 77.2109375,330.15625 C78.484375,330.15625 79.5,330.882812 79.5,331.960938 C79.5,332.054688 79.4921875,332.09375 79.4921875,332.101562 L80.59375,332.101562 C80.59375,332.09375 80.609375,331.859375 80.609375,331.828125 C80.609375,330.109375 79,329.117188 77.2265625,329.117188 C75.234375,329.117188 73.65625,330.1875 73.65625,332.039062 C73.65625,333.71875 75.0546875,334.53125 76.421875,335.039062 L76.921875,335.226562 C78.0078125,335.632812 78.921875,336.0625 78.921875,337.179688 C78.921875,338.390625 77.921875,339.1875 76.421875,339.1875 C74.765625,339.1875 73.7890625,338.234375 73.7890625,337.257812 C73.7890625,337.195312 73.796875,337.109375 73.8046875,337.046875 L72.65625,337.046875 C72.640625,337.148438 72.6328125,337.289062 72.6328125,337.40625 C72.6328125,338.835938 74.0546875,340.226562 76.3671875,340.226562 Z M84.484375,340.132812 C85.7578125,340.132812 86.578125,339.4375 86.859375,338.875 L86.9375,338.875 L86.7421875,340 L87.8515625,340 L88.65625,335.4375 C88.734375,335.046875 88.8046875,334.59375 88.8046875,334.164062 C88.8046875,332.703125 87.8125,331.6875 85.9609375,331.6875 C84.2421875,331.6875 83.1328125,332.546875 82.9140625,333.71875 L84.0234375,333.71875 C84.203125,333.171875 84.7890625,332.671875 85.875,332.671875 C87.21875,332.671875 87.71875,333.46875 87.71875,334.265625 C87.71875,334.421875 87.6953125,334.601562 87.6796875,334.695312 L87.59375,335.242188 L85.3203125,335.242188 C83.2421875,335.242188 82.171875,336.164062 82.03125,337.507812 C82.015625,337.640625 82.015625,337.765625 82.015625,337.867188 C82.015625,339.289062 83.1328125,340.132812 84.484375,340.132812 Z M84.7578125,339.15625 C83.7578125,339.15625 83.1640625,338.578125 83.1640625,337.757812 C83.1640625,336.898438 83.828125,336.179688 85.21875,336.179688 L87.390625,336.179688 L87.203125,337.25 C87,338.367188 85.953125,339.15625 84.7578125,339.15625 Z M93.609375,340.132812 C94.796875,340.132812 95.65625,339.46875 96.046875,338.585938 L96.140625,338.585938 L95.890625,340 L96.96875,340 L98.40625,331.820312 L97.3125,331.820312 L96.46875,336.585938 C96.2421875,337.921875 95.4296875,339.109375 93.96875,339.109375 C92.765625,339.109375 92.1875,338.414062 92.1875,337.390625 C92.1875,337.054688 92.2421875,336.640625 92.296875,336.34375 L93.109375,331.820312 L91.9765625,331.820312 L91.1640625,336.273438 C91.0859375,336.648438 91.0078125,337.15625 91.0078125,337.59375 C91.0078125,338.992188 91.9296875,340.132812 93.609375,340.132812 Z M106.570312,340.117188 C107.9375,340.117188 108.71875,339.25 108.953125,338.617188 L109.046875,338.617188 L108.804688,340 L109.921875,340 L111.5625,330.726562 L112.84375,330.726562 L113.007812,329.8125 L111.726562,329.8125 L111.914062,328.773438 L110.757812,328.773438 L110.578125,329.8125 L108.78125,329.8125 L108.625,330.726562 L110.421875,330.726562 L109.945312,333.429688 L109.851562,333.429688 C109.710938,332.671875 108.820312,331.6875 107.390625,331.6875 C105.460938,331.6875 104.304688,332.9375 104,334.546875 L103.710938,336.078125 C103.648438,336.375 103.632812,336.734375 103.632812,337.039062 C103.632812,338.90625 104.867188,340.117188 106.570312,340.117188 Z M106.90625,339.109375 C105.601562,339.109375 104.773438,338.265625 104.773438,336.867188 C104.773438,336.59375 104.796875,336.296875 104.820312,336.15625 L105.0625,334.9375 C105.320312,333.640625 106.109375,332.664062 107.4375,332.664062 C108.5,332.664062 109.632812,333.429688 109.632812,335.03125 C109.632812,335.101562 109.617188,335.234375 109.585938,335.429688 L109.367188,336.703125 C109.117188,338.101562 108.226562,339.109375 106.90625,339.109375 Z M115.796875,330.460938 L117.414062,328.296875 L117.4375,328.296875 L118.34375,330.460938 L119.34375,330.460938 L118,327.523438 L117.078125,327.523438 L114.757812,330.460938 L115.796875,330.460938 Z M115.195312,340.132812 C116.46875,340.132812 117.289062,339.4375 117.570312,338.875 L117.648438,338.875 L117.453125,340 L118.5625,340 L119.367188,335.4375 C119.445312,335.046875 119.515625,334.59375 119.515625,334.164062 C119.515625,332.703125 118.523438,331.6875 116.671875,331.6875 C114.953125,331.6875 113.84375,332.546875 113.625,333.71875 L114.734375,333.71875 C114.914062,333.171875 115.5,332.671875 116.585938,332.671875 C117.929688,332.671875 118.429688,333.46875 118.429688,334.265625 C118.429688,334.421875 118.40625,334.601562 118.390625,334.695312 L118.304688,335.242188 L116.03125,335.242188 C113.953125,335.242188 112.882812,336.164062 112.742188,337.507812 C112.726562,337.640625 112.726562,337.765625 112.726562,337.867188 C112.726562,339.289062 113.84375,340.132812 115.195312,340.132812 Z M115.46875,339.15625 C114.46875,339.15625 113.875,338.578125 113.875,337.757812 C113.875,336.898438 114.539062,336.179688 115.929688,336.179688 L118.101562,336.179688 L117.914062,337.25 C117.710938,338.367188 116.664062,339.15625 115.46875,339.15625 Z M121.382812,342.835938 C122.789062,342.835938 123.40625,342.382812 124.21875,340.78125 L124.609375,340.015625 L128.882812,331.820312 L127.65625,331.820312 L124.289062,338.664062 L124.210938,338.664062 L123.085938,331.820312 L121.867188,331.820312 L123.429688,339.929688 L123.164062,340.5 C122.710938,341.492188 122.242188,341.867188 121.5,341.867188 C121.242188,341.867188 120.976562,341.835938 120.789062,341.789062 L120.578125,342.734375 C120.75,342.78125 121.085938,342.835938 121.382812,342.835938 Z M5.0234375,364.132812 C6.9375,364.132812 8.1015625,362.859375 8.390625,361.21875 L8.65625,359.679688 C8.7109375,359.359375 8.7265625,359.007812 8.7265625,358.734375 C8.7265625,356.835938 7.5546875,355.6875 5.84375,355.6875 C4.4609375,355.6875 3.7578125,356.492188 3.4609375,357.117188 L3.3671875,357.117188 L4.15625,352.773438 L3.015625,352.773438 L1.015625,364 L2.1484375,364 L2.4453125,362.328125 L2.53125,362.328125 C2.734375,363.171875 3.6640625,364.132812 5.0234375,364.132812 Z M4.9921875,363.09375 C3.984375,363.09375 2.8359375,362.34375 2.828125,360.71875 C2.828125,360.679688 2.828125,360.507812 2.8671875,360.320312 L3.0703125,359.046875 C3.296875,357.679688 4.1875,356.648438 5.515625,356.648438 C6.8046875,356.648438 7.625,357.484375 7.625,358.882812 C7.625,359.09375 7.6171875,359.382812 7.5859375,359.585938 L7.3671875,360.828125 C7.140625,362.085938 6.2890625,363.09375 4.9921875,363.09375 Z M12.6796875,364.132812 C13.953125,364.132812 14.7734375,363.4375 15.0546875,362.875 L15.1328125,362.875 L14.9375,364 L16.046875,364 L16.8515625,359.4375 C16.9296875,359.046875 17,358.59375 17,358.164062 C17,356.703125 16.0078125,355.6875 14.15625,355.6875 C12.4375,355.6875 11.328125,356.546875 11.109375,357.71875 L12.21875,357.71875 C12.3984375,357.171875 12.984375,356.671875 14.0703125,356.671875 C15.4140625,356.671875 15.9140625,357.46875 15.9140625,358.265625 C15.9140625,358.421875 15.890625,358.601562 15.875,358.695312 L15.7890625,359.242188 L13.515625,359.242188 C11.4375,359.242188 10.3671875,360.164062 10.2265625,361.507812 C10.2109375,361.640625 10.2109375,361.765625 10.2109375,361.867188 C10.2109375,363.289062 11.328125,364.132812 12.6796875,364.132812 Z M12.953125,363.15625 C11.953125,363.15625 11.359375,362.578125 11.359375,361.757812 C11.359375,360.898438 12.0234375,360.179688 13.4140625,360.179688 L15.5859375,360.179688 L15.3984375,361.25 C15.1953125,362.367188 14.1484375,363.15625 12.953125,363.15625 Z M12.421875,366.546875 C12.875,366.546875 13.1953125,366.25 13.1953125,365.804688 C13.1953125,365.367188 12.875,365.054688 12.421875,365.054688 C11.9765625,365.054688 11.65625,365.367188 11.65625,365.804688 C11.65625,366.25 11.9765625,366.546875 12.421875,366.546875 Z M20.0078125,364 L20.8515625,359.195312 C21.0859375,357.859375 21.921875,356.65625 23.390625,356.65625 C24.609375,356.65625 25.078125,357.5 25.078125,358.460938 C25.078125,358.820312 25.015625,359.226562 24.9765625,359.445312 L24.171875,364 L25.3125,364 L26.109375,359.515625 C26.1796875,359.109375 26.25,358.664062 26.25,358.25 C26.25,356.914062 25.4765625,355.6875 23.7265625,355.6875 C22.546875,355.6875 21.703125,356.25 21.2578125,357.1875 L21.171875,357.1875 L21.421875,355.820312 L20.3046875,355.820312 L18.859375,364 L20.0078125,364 Z M32.9296875,364 L33.7734375,359.195312 C34.0078125,357.859375 34.859375,356.65625 36.328125,356.65625 C37.546875,356.65625 38.0390625,357.492188 38.0390625,358.453125 C38.0390625,358.804688 37.9765625,359.234375 37.9375,359.445312 L37.1328125,364 L38.28125,364 L39.0703125,359.515625 C39.140625,359.109375 39.2109375,358.65625 39.2109375,358.25 C39.2109375,356.898438 38.375,355.6875 36.65625,355.6875 C35.4375,355.6875 34.59375,356.28125 34.1796875,357.1875 L34.09375,357.1875 L34.90625,352.773438 L33.7734375,352.773438 L31.78125,364 L32.9296875,364 Z M46.3984375,354.414062 C47.2890625,354.414062 47.8515625,353.554688 47.921875,352.65625 L47.1171875,352.65625 C47.046875,353.234375 46.8046875,353.609375 46.4140625,353.609375 C45.7734375,353.609375 45.734375,352.390625 44.484375,352.390625 C43.609375,352.390625 43.0390625,353.132812 42.953125,354.148438 L43.7578125,354.148438 C43.8203125,353.5625 44.03125,353.195312 44.4609375,353.195312 C45.15625,353.195312 45.1875,354.414062 46.3984375,354.414062 Z M43.4921875,364.132812 C44.765625,364.132812 45.5859375,363.4375 45.8671875,362.875 L45.9453125,362.875 L45.75,364 L46.859375,364 L47.6640625,359.4375 C47.7421875,359.046875 47.8125,358.59375 47.8125,358.164062 C47.8125,356.703125 46.8203125,355.6875 44.96875,355.6875 C43.25,355.6875 42.140625,356.546875 41.921875,357.71875 L43.03125,357.71875 C43.2109375,357.171875 43.796875,356.671875 44.8828125,356.671875 C46.2265625,356.671875 46.7265625,357.46875 46.7265625,358.265625 C46.7265625,358.421875 46.703125,358.601562 46.6875,358.695312 L46.6015625,359.242188 L44.328125,359.242188 C42.25,359.242188 41.1796875,360.164062 41.0390625,361.507812 C41.0234375,361.640625 41.0234375,361.765625 41.0234375,361.867188 C41.0234375,363.289062 42.140625,364.132812 43.4921875,364.132812 Z M43.765625,363.15625 C42.765625,363.15625 42.171875,362.578125 42.171875,361.757812 C42.171875,360.898438 42.8359375,360.179688 44.2265625,360.179688 L46.3984375,360.179688 L46.2109375,361.25 C46.0078125,362.367188 44.9609375,363.15625 43.765625,363.15625 Z M49.6796875,366.835938 C51.0859375,366.835938 51.703125,366.382812 52.515625,364.78125 L52.90625,364.015625 L57.1796875,355.820312 L55.953125,355.820312 L52.5859375,362.664062 L52.5078125,362.664062 L51.3828125,355.820312 L50.1640625,355.820312 L51.7265625,363.929688 L51.4609375,364.5 C51.0078125,365.492188 50.5390625,365.867188 49.796875,365.867188 C49.5390625,365.867188 49.2734375,365.835938 49.0859375,365.789062 L48.875,366.734375 C49.046875,366.78125 49.3828125,366.835938 49.6796875,366.835938 Z M62.7734375,364 L63.6171875,359.195312 C63.8515625,357.859375 64.6875,356.65625 66.15625,356.65625 C67.375,356.65625 67.84375,357.5 67.84375,358.460938 C67.84375,358.820312 67.78125,359.226562 67.7421875,359.445312 L66.9375,364 L68.078125,364 L68.875,359.515625 C68.9453125,359.109375 69.015625,358.664062 69.015625,358.25 C69.015625,356.914062 68.2421875,355.6875 66.4921875,355.6875 C65.3125,355.6875 64.46875,356.25 64.0234375,357.1875 L63.9375,357.1875 L64.1875,355.820312 L63.0703125,355.820312 L61.625,364 L62.7734375,364 Z M72.0390625,364 L72.8828125,359.195312 C73.1171875,357.859375 73.96875,356.65625 75.4375,356.65625 C76.65625,356.65625 77.1484375,357.492188 77.1484375,358.453125 C77.1484375,358.804688 77.0859375,359.234375 77.046875,359.445312 L76.2421875,364 L77.390625,364 L78.1796875,359.515625 C78.25,359.109375 78.3203125,358.65625 78.3203125,358.25 C78.3203125,356.898438 77.484375,355.6875 75.765625,355.6875 C74.546875,355.6875 73.703125,356.28125 73.2890625,357.1875 L73.203125,357.1875 L74.015625,352.773438 L72.8828125,352.773438 L70.890625,364 L72.0390625,364 Z M83.203125,354.460938 L84.8203125,352.296875 L84.84375,352.296875 L85.75,354.460938 L86.75,354.460938 L85.40625,351.523438 L84.484375,351.523438 L82.1640625,354.460938 L83.203125,354.460938 Z M82.6015625,364.132812 C83.875,364.132812 84.6953125,363.4375 84.9765625,362.875 L85.0546875,362.875 L84.859375,364 L85.96875,364 L86.7734375,359.4375 C86.8515625,359.046875 86.921875,358.59375 86.921875,358.164062 C86.921875,356.703125 85.9296875,355.6875 84.078125,355.6875 C82.359375,355.6875 81.25,356.546875 81.03125,357.71875 L82.140625,357.71875 C82.3203125,357.171875 82.90625,356.671875 83.9921875,356.671875 C85.3359375,356.671875 85.8359375,357.46875 85.8359375,358.265625 C85.8359375,358.421875 85.8125,358.601562 85.796875,358.695312 L85.7109375,359.242188 L83.4375,359.242188 C81.359375,359.242188 80.2890625,360.164062 80.1484375,361.507812 C80.1328125,361.640625 80.1328125,361.765625 80.1328125,361.867188 C80.1328125,363.289062 81.25,364.132812 82.6015625,364.132812 Z M82.875,363.15625 C81.875,363.15625 81.28125,362.578125 81.28125,361.757812 C81.28125,360.898438 81.9453125,360.179688 83.3359375,360.179688 L85.5078125,360.179688 L85.3203125,361.25 C85.1171875,362.367188 84.0703125,363.15625 82.875,363.15625 Z M82.34375,366.546875 C82.796875,366.546875 83.1171875,366.25 83.1171875,365.804688 C83.1171875,365.367188 82.796875,365.054688 82.34375,365.054688 C81.8984375,365.054688 81.578125,365.367188 81.578125,365.804688 C81.578125,366.25 81.8984375,366.546875 82.34375,366.546875 Z M89.453125,366.703125 L90.203125,362.328125 L90.296875,362.328125 C90.453125,363.078125 91.3203125,364.132812 92.734375,364.132812 C94.671875,364.132812 95.875,362.835938 96.1328125,361.21875 L96.4140625,359.679688 C96.4765625,359.359375 96.4765625,359.007812 96.4765625,358.734375 C96.4765625,356.84375 95.265625,355.6875 93.5625,355.6875 C92.1640625,355.6875 91.4609375,356.5 91.1953125,357.117188 L91.1015625,357.117188 L91.3359375,355.820312 L90.21875,355.820312 L88.3046875,366.703125 L89.453125,366.703125 Z M92.6953125,363.09375 C91.6796875,363.09375 90.546875,362.320312 90.546875,360.71875 C90.5390625,360.679688 90.546875,360.507812 90.578125,360.320312 L90.7890625,359.046875 C91.015625,357.65625 91.9140625,356.648438 93.21875,356.648438 C94.5234375,356.648438 95.375,357.492188 95.375,358.882812 C95.375,359.101562 95.3671875,359.390625 95.3359375,359.585938 L95.1171875,360.828125 C94.890625,362.0625 94.03125,363.09375 92.6953125,363.09375 Z M102.921875,364 L104.367188,355.75 L104.445312,355.75 L106.390625,363.171875 L107.164062,363.171875 L111.734375,355.75 L111.804688,355.75 L110.351562,364 L111.460938,364 L113.335938,353.335938 L112.117188,353.335938 L107.046875,361.648438 L106.992188,361.648438 L104.796875,353.335938 L103.703125,353.335938 L101.820312,364 L102.921875,364 Z M117.4375,354.460938 L119.054688,352.296875 L119.078125,352.296875 L119.984375,354.460938 L120.984375,354.460938 L119.640625,351.523438 L118.71875,351.523438 L116.398438,354.460938 L117.4375,354.460938 Z M116.835938,364.132812 C118.109375,364.132812 118.929688,363.4375 119.210938,362.875 L119.289062,362.875 L119.09375,364 L120.203125,364 L121.007812,359.4375 C121.085938,359.046875 121.15625,358.59375 121.15625,358.164062 C121.15625,356.703125 120.164062,355.6875 118.3125,355.6875 C116.59375,355.6875 115.484375,356.546875 115.265625,357.71875 L116.375,357.71875 C116.554688,357.171875 117.140625,356.671875 118.226562,356.671875 C119.570312,356.671875 120.070312,357.46875 120.070312,358.265625 C120.070312,358.421875 120.046875,358.601562 120.03125,358.695312 L119.945312,359.242188 L117.671875,359.242188 C115.59375,359.242188 114.523438,360.164062 114.382812,361.507812 C114.367188,361.640625 114.367188,361.765625 114.367188,361.867188 C114.367188,363.289062 115.484375,364.132812 116.835938,364.132812 Z M117.109375,363.15625 C116.109375,363.15625 115.515625,362.578125 115.515625,361.757812 C115.515625,360.898438 116.179688,360.179688 117.570312,360.179688 L119.742188,360.179688 L119.554688,361.25 C119.351562,362.367188 118.304688,363.15625 117.109375,363.15625 Z M116.578125,366.546875 C117.03125,366.546875 117.351562,366.25 117.351562,365.804688 C117.351562,365.367188 117.03125,365.054688 116.578125,365.054688 C116.132812,365.054688 115.8125,365.367188 115.8125,365.804688 C115.8125,366.25 116.132812,366.546875 116.578125,366.546875 Z M125.664062,364.070312 C126.046875,364.070312 126.539062,364.023438 126.765625,363.96875 L126.9375,363.023438 C126.703125,363.070312 126.273438,363.109375 125.929688,363.109375 C125.21875,363.109375 124.90625,362.851562 124.90625,362.265625 C124.90625,362.03125 124.945312,361.773438 125.070312,361.054688 L125.820312,356.765625 L127.671875,356.765625 L127.84375,355.820312 L125.992188,355.820312 L126.34375,353.773438 L125.21875,353.773438 L124.84375,355.820312 L123.546875,355.820312 L123.375,356.765625 L124.679688,356.765625 L123.84375,361.5 C123.773438,361.929688 123.726562,362.296875 123.726562,362.546875 C123.726562,363.5625 124.375,364.070312 125.664062,364.070312 Z M2.15625,388 L2.765625,384.546875 L3.8984375,383.648438 L6.1796875,388 L7.453125,388 L4.796875,383.039062 L8.8125,379.820312 L7.21875,379.820312 L3.09375,383.179688 L3.015625,383.179688 L4.1328125,376.773438 L2.9921875,376.773438 L1.015625,388 L2.15625,388 Z M10.5234375,388 L11.3671875,383.195312 C11.6015625,381.859375 12.453125,380.65625 13.921875,380.65625 C15.140625,380.65625 15.6328125,381.492188 15.6328125,382.453125 C15.6328125,382.804688 15.5703125,383.234375 15.53125,383.445312 L14.7265625,388 L15.875,388 L16.6640625,383.515625 C16.734375,383.109375 16.8046875,382.65625 16.8046875,382.25 C16.8046875,380.898438 15.96875,379.6875 14.25,379.6875 C13.03125,379.6875 12.1875,380.28125 11.7734375,381.1875 L11.6875,381.1875 L12.5,376.773438 L11.3671875,376.773438 L9.375,388 L10.5234375,388 Z M25.25,376.921875 C26.09375,376.664062 26.625,376.0625 26.625,375.351562 C26.625,374.609375 26.1015625,374.210938 25.1171875,374.210938 C24.90625,374.210938 24.6875,374.25 24.546875,374.296875 L24.4296875,374.96875 C24.59375,374.90625 24.8359375,374.867188 25.015625,374.867188 C25.5625,374.867188 25.84375,375.0625 25.84375,375.460938 C25.84375,375.828125 25.515625,376.148438 24.9453125,376.328125 L25.25,376.921875 Z M21.6328125,378.453125 L23.234375,376.9375 L23.265625,376.9375 L24.2421875,378.453125 L25.1953125,378.453125 L23.734375,376.21875 L22.9921875,376.21875 L20.59375,378.453125 L21.6328125,378.453125 Z M21.0859375,388.132812 C22.359375,388.132812 23.1796875,387.4375 23.4609375,386.875 L23.5390625,386.875 L23.34375,388 L24.453125,388 L25.2578125,383.4375 C25.3359375,383.046875 25.40625,382.59375 25.40625,382.164062 C25.40625,380.703125 24.4140625,379.6875 22.5625,379.6875 C20.84375,379.6875 19.734375,380.546875 19.515625,381.71875 L20.625,381.71875 C20.8046875,381.171875 21.390625,380.671875 22.4765625,380.671875 C23.8203125,380.671875 24.3203125,381.46875 24.3203125,382.265625 C24.3203125,382.421875 24.296875,382.601562 24.28125,382.695312 L24.1953125,383.242188 L21.921875,383.242188 C19.84375,383.242188 18.7734375,384.164062 18.6328125,385.507812 C18.6171875,385.640625 18.6171875,385.765625 18.6171875,385.867188 C18.6171875,387.289062 19.734375,388.132812 21.0859375,388.132812 Z M21.359375,387.15625 C20.359375,387.15625 19.765625,386.578125 19.765625,385.757812 C19.765625,384.898438 20.4296875,384.179688 21.8203125,384.179688 L23.9921875,384.179688 L23.8046875,385.25 C23.6015625,386.367188 22.5546875,387.15625 21.359375,387.15625 Z M30.2109375,388.132812 C31.3984375,388.132812 32.2578125,387.46875 32.6484375,386.585938 L32.7421875,386.585938 L32.4921875,388 L33.5703125,388 L35.0078125,379.820312 L33.9140625,379.820312 L33.0703125,384.585938 C32.84375,385.921875 32.03125,387.109375 30.5703125,387.109375 C29.3671875,387.109375 28.7890625,386.414062 28.7890625,385.390625 C28.7890625,385.054688 28.84375,384.640625 28.8984375,384.34375 L29.7109375,379.820312 L28.578125,379.820312 L27.765625,384.273438 C27.6875,384.648438 27.609375,385.15625 27.609375,385.59375 C27.609375,386.992188 28.53125,388.132812 30.2109375,388.132812 Z M41.359375,388 L43.34375,376.773438 L42.1953125,376.773438 L40.2109375,388 L41.359375,388 Z M49.328125,378.460938 L47.859375,375.71875 L46.609375,375.71875 L48.453125,378.460938 L49.328125,378.460938 Z M46.7421875,388.132812 C48.015625,388.132812 48.8359375,387.4375 49.1171875,386.875 L49.1953125,386.875 L49,388 L50.109375,388 L50.9140625,383.4375 C50.9921875,383.046875 51.0625,382.59375 51.0625,382.164062 C51.0625,380.703125 50.0703125,379.6875 48.21875,379.6875 C46.5,379.6875 45.390625,380.546875 45.171875,381.71875 L46.28125,381.71875 C46.4609375,381.171875 47.046875,380.671875 48.1328125,380.671875 C49.4765625,380.671875 49.9765625,381.46875 49.9765625,382.265625 C49.9765625,382.421875 49.953125,382.601562 49.9375,382.695312 L49.8515625,383.242188 L47.578125,383.242188 C45.5,383.242188 44.4296875,384.164062 44.2890625,385.507812 C44.2734375,385.640625 44.2734375,385.765625 44.2734375,385.867188 C44.2734375,387.289062 45.390625,388.132812 46.7421875,388.132812 Z M47.015625,387.15625 C46.015625,387.15625 45.421875,386.578125 45.421875,385.757812 C45.421875,384.898438 46.0859375,384.179688 47.4765625,384.179688 L49.6484375,384.179688 L49.4609375,385.25 C49.2578125,386.367188 48.2109375,387.15625 47.015625,387.15625 Z M60.8671875,388.203125 C63.2734375,388.203125 64.828125,386.804688 65.109375,384.976562 C65.125,384.90625 65.1484375,384.734375 65.15625,384.703125 L63.140625,384.703125 C62.9375,385.671875 62.15625,386.296875 61.03125,386.296875 C59.6015625,386.296875 58.8203125,385.34375 58.8203125,383.929688 C58.8203125,383.640625 58.859375,383.125 58.9140625,382.84375 L59.15625,381.625 C59.5078125,379.835938 60.390625,379.007812 61.671875,379.007812 C62.8046875,379.007812 63.6328125,379.75 63.703125,380.75 C63.7109375,380.84375 63.703125,381 63.6875,381.132812 L65.703125,381.132812 C65.7578125,380.96875 65.7734375,380.703125 65.7734375,380.53125 C65.7734375,378.726562 64.1796875,377.140625 61.6875,377.140625 C59.140625,377.140625 57.5,378.742188 57.0390625,381.296875 L56.734375,382.898438 C56.6796875,383.210938 56.6640625,383.671875 56.6640625,383.914062 C56.6640625,386.617188 58.2421875,388.203125 60.8671875,388.203125 Z M68.5390625,388 L69.375,383.289062 C69.578125,382.117188 70.2421875,381.25 71.34375,381.25 C72.2734375,381.25 72.65625,381.851562 72.65625,382.617188 C72.65625,382.914062 72.6015625,383.289062 72.5703125,383.492188 L71.78125,388 L73.8515625,388 L74.625,383.601562 C74.7265625,383.015625 74.796875,382.523438 74.796875,382.109375 C74.796875,380.695312 73.9140625,379.570312 72.2578125,379.570312 C71.125,379.570312 70.2890625,380.101562 69.8671875,380.984375 L69.75,380.984375 L70.515625,376.773438 L68.4453125,376.773438 L66.46875,388 L68.5390625,388 Z M78.609375,388.125 C79.8046875,388.125 80.546875,387.507812 80.8359375,386.921875 L80.9453125,386.921875 L80.75,388 L82.6953125,388 L83.5390625,383.226562 C83.59375,382.914062 83.6484375,382.5625 83.6484375,382.28125 C83.6484375,380.578125 82.4609375,379.570312 80.4453125,379.570312 C78.3203125,379.570312 77.1953125,380.703125 77,381.96875 L78.9453125,381.96875 C79.0859375,381.507812 79.5390625,381.15625 80.3046875,381.15625 C81.265625,381.15625 81.6640625,381.703125 81.6640625,382.28125 C81.6640625,382.382812 81.6484375,382.5 81.6328125,382.570312 L81.546875,383.125 L79.5234375,383.125 C77.5,383.125 76.2265625,383.992188 76.140625,385.585938 C76.1328125,385.65625 76.1328125,385.726562 76.1328125,385.78125 C76.1328125,387.273438 77.234375,388.125 78.609375,388.125 Z M79.3984375,386.578125 C78.65625,386.578125 78.1875,386.140625 78.1875,385.53125 C78.1875,384.898438 78.6875,384.382812 79.7109375,384.382812 L81.3125,384.382812 L81.1484375,385.289062 C81,386.046875 80.2421875,386.578125 79.3984375,386.578125 Z M87.0625,388 L87.890625,383.289062 C88.109375,382.070312 88.7421875,381.25 89.84375,381.25 C90.6875,381.25 91.125,381.8125 91.125,382.625 C91.125,382.890625 91.078125,383.265625 91.0390625,383.492188 L90.25,388 L92.3203125,388 L93.09375,383.601562 C93.171875,383.164062 93.2734375,382.609375 93.2734375,382.101562 C93.2734375,380.6875 92.4296875,379.570312 90.7578125,379.570312 C89.5390625,379.570312 88.765625,380.179688 88.359375,380.984375 L88.2421875,380.984375 L88.4765625,379.695312 L86.4453125,379.695312 L84.9921875,388 L87.0625,388 Z M98.34375,388.148438 C100.140625,388.148438 101.648438,387.257812 101.882812,385.507812 L99.921875,385.507812 C99.796875,386.039062 99.296875,386.421875 98.46875,386.421875 C97.359375,386.421875 96.8671875,385.726562 96.8671875,384.648438 C96.8671875,384.453125 96.8828125,384.203125 96.9375,383.898438 L97.09375,383.054688 C97.3046875,381.867188 98.0234375,381.242188 98.921875,381.242188 C99.8984375,381.242188 100.367188,381.929688 100.367188,382.507812 C100.367188,382.53125 100.367188,382.585938 100.359375,382.617188 L102.304688,382.617188 C102.320312,382.570312 102.328125,382.476562 102.328125,382.382812 C102.328125,380.648438 100.882812,379.546875 98.9375,379.546875 C97.0546875,379.546875 95.5078125,380.570312 95.1171875,382.773438 L94.9453125,383.726562 C94.875,384.117188 94.8359375,384.53125 94.8359375,384.851562 C94.8359375,386.890625 96.203125,388.148438 98.34375,388.148438 Z M105.296875,388 L106.132812,383.289062 C106.335938,382.117188 107,381.25 108.101562,381.25 C109.03125,381.25 109.414062,381.851562 109.414062,382.617188 C109.414062,382.914062 109.359375,383.289062 109.328125,383.492188 L108.539062,388 L110.609375,388 L111.382812,383.601562 C111.484375,383.015625 111.554688,382.523438 111.554688,382.109375 C111.554688,380.695312 110.671875,379.570312 109.015625,379.570312 C107.882812,379.570312 107.046875,380.101562 106.625,380.984375 L106.507812,380.984375 L107.273438,376.773438 L105.203125,376.773438 L103.226562,388 L105.296875,388 Z M115.367188,388.125 C116.5625,388.125 117.304688,387.507812 117.59375,386.921875 L117.703125,386.921875 L117.507812,388 L119.453125,388 L120.296875,383.226562 C120.351562,382.914062 120.40625,382.5625 120.40625,382.28125 C120.40625,380.578125 119.21875,379.570312 117.203125,379.570312 C115.078125,379.570312 113.953125,380.703125 113.757812,381.96875 L115.703125,381.96875 C115.84375,381.507812 116.296875,381.15625 117.0625,381.15625 C118.023438,381.15625 118.421875,381.703125 118.421875,382.28125 C118.421875,382.382812 118.40625,382.5 118.390625,382.570312 L118.304688,383.125 L116.28125,383.125 C114.257812,383.125 112.984375,383.992188 112.898438,385.585938 C112.890625,385.65625 112.890625,385.726562 112.890625,385.78125 C112.890625,387.273438 113.992188,388.125 115.367188,388.125 Z M116.15625,386.578125 C115.414062,386.578125 114.945312,386.140625 114.945312,385.53125 C114.945312,384.898438 115.445312,384.382812 116.46875,384.382812 L118.070312,384.382812 L117.90625,385.289062 C117.757812,386.046875 117,386.578125 116.15625,386.578125 Z M123.820312,388 L124.648438,383.289062 C124.867188,382.070312 125.5,381.25 126.601562,381.25 C127.445312,381.25 127.882812,381.8125 127.882812,382.625 C127.882812,382.890625 127.835938,383.265625 127.796875,383.492188 L127.007812,388 L129.078125,388 L129.851562,383.601562 C129.929688,383.164062 130.03125,382.609375 130.03125,382.101562 C130.03125,380.6875 129.1875,379.570312 127.515625,379.570312 C126.296875,379.570312 125.523438,380.179688 125.117188,380.984375 L125,380.984375 L125.234375,379.695312 L123.203125,379.695312 L121.75,388 L123.820312,388 Z M4.1015625,412.117188 C5.46875,412.117188 6.25,411.25 6.484375,410.617188 L6.578125,410.617188 L6.3359375,412 L7.453125,412 L9.09375,402.726562 L10.375,402.726562 L10.5390625,401.8125 L9.2578125,401.8125 L9.4453125,400.773438 L8.2890625,400.773438 L8.109375,401.8125 L6.3125,401.8125 L6.15625,402.726562 L7.953125,402.726562 L7.4765625,405.429688 L7.3828125,405.429688 C7.2421875,404.671875 6.3515625,403.6875 4.921875,403.6875 C2.9921875,403.6875 1.8359375,404.9375 1.53125,406.546875 L1.2421875,408.078125 C1.1796875,408.375 1.1640625,408.734375 1.1640625,409.039062 C1.1640625,410.90625 2.3984375,412.117188 4.1015625,412.117188 Z M4.4375,411.109375 C3.1328125,411.109375 2.3046875,410.265625 2.3046875,408.867188 C2.3046875,408.59375 2.328125,408.296875 2.3515625,408.15625 L2.59375,406.9375 C2.8515625,405.640625 3.640625,404.664062 4.96875,404.664062 C6.03125,404.664062 7.1640625,405.429688 7.1640625,407.03125 C7.1640625,407.101562 7.1484375,407.234375 7.1171875,407.429688 L6.8984375,408.703125 C6.6484375,410.101562 5.7578125,411.109375 4.4375,411.109375 Z M17.109375,400.921875 C17.953125,400.664062 18.484375,400.0625 18.484375,399.351562 C18.484375,398.609375 17.9609375,398.210938 16.9765625,398.210938 C16.765625,398.210938 16.546875,398.25 16.40625,398.296875 L16.2890625,398.96875 C16.453125,398.90625 16.6953125,398.867188 16.875,398.867188 C17.421875,398.867188 17.703125,399.0625 17.703125,399.460938 C17.703125,399.828125 17.375,400.148438 16.8046875,400.328125 L17.109375,400.921875 Z M13.4921875,402.453125 L15.09375,400.9375 L15.125,400.9375 L16.1015625,402.453125 L17.0546875,402.453125 L15.59375,400.21875 L14.8515625,400.21875 L12.453125,402.453125 L13.4921875,402.453125 Z M13.5703125,412.132812 C15.390625,412.132812 16.546875,411.015625 16.734375,410.015625 L15.59375,410.015625 C15.4296875,410.578125 14.734375,411.125 13.640625,411.125 C12.125,411.125 11.5546875,410.070312 11.5546875,408.945312 C11.5546875,408.664062 11.59375,408.359375 11.640625,408.179688 L17.0703125,408.179688 C17.0859375,408.101562 17.265625,407.109375 17.265625,407.078125 C17.5,405.570312 16.7578125,403.6875 14.34375,403.6875 C12.4609375,403.6875 11.125,404.835938 10.8046875,406.664062 L10.59375,407.820312 C10.5390625,408.109375 10.46875,408.59375 10.46875,409.054688 C10.46875,411.0625 11.78125,412.132812 13.5703125,412.132812 Z M16.1484375,407.257812 L11.828125,407.257812 C11.828125,407.242188 11.9375,406.726562 11.9375,406.710938 C12.234375,405.3125 13.2109375,404.65625 14.3046875,404.65625 C15.734375,404.65625 16.3984375,405.734375 16.1796875,407.054688 C16.1796875,407.09375 16.15625,407.234375 16.1484375,407.257812 Z M23.625,412 L24.234375,408.546875 L25.3671875,407.648438 L27.6484375,412 L28.921875,412 L26.265625,407.039062 L30.28125,403.820312 L28.6875,403.820312 L24.5625,407.179688 L24.484375,407.179688 L25.6015625,400.773438 L24.4609375,400.773438 L22.484375,412 L23.625,412 Z M33.1875,402.460938 L35.8828125,399.71875 L34.609375,399.71875 L32.2265625,402.460938 L33.1875,402.460938 Z M31.96875,412 L33.421875,403.820312 L32.28125,403.820312 L30.828125,412 L31.96875,412 Z M38.3125,412.132812 C39.953125,412.132812 41.1796875,411.273438 41.40625,409.984375 L40.2578125,409.984375 C40.109375,410.59375 39.4375,411.125 38.3671875,411.125 C36.9765625,411.125 36.25,410.242188 36.25,408.757812 C36.25,408.5 36.2734375,408.25 36.3359375,407.914062 L36.5,406.96875 C36.765625,405.484375 37.6796875,404.65625 38.8828125,404.65625 C40.15625,404.65625 40.8046875,405.507812 40.8046875,406.25 L40.8046875,406.34375 L40.8046875,406.34375 L41.9140625,406.34375 C41.921875,406.335938 41.921875,406.257812 41.921875,406.242188 C41.921875,404.875 40.8046875,403.6875 38.890625,403.6875 C37.078125,403.6875 35.7578125,404.71875 35.421875,406.671875 L35.21875,407.84375 C35.1484375,408.257812 35.1171875,408.695312 35.1171875,409.007812 C35.1171875,410.921875 36.390625,412.132812 38.3125,412.132812 Z M44.390625,412 L45.234375,407.195312 C45.46875,405.859375 46.3203125,404.65625 47.7890625,404.65625 C49.0078125,404.65625 49.5,405.492188 49.5,406.453125 C49.5,406.804688 49.4375,407.234375 49.3984375,407.445312 L48.59375,412 L49.7421875,412 L50.53125,407.515625 C50.6015625,407.109375 50.671875,406.65625 50.671875,406.25 C50.671875,404.898438 49.8359375,403.6875 48.1171875,403.6875 C46.8984375,403.6875 46.0546875,404.28125 45.640625,405.1875 L45.5546875,405.1875 L46.3671875,400.773438 L45.234375,400.773438 L43.2421875,412 L44.390625,412 Z M57.359375,412 L58.203125,407.195312 C58.4375,405.859375 59.2890625,404.65625 60.7578125,404.65625 C61.9765625,404.65625 62.46875,405.492188 62.46875,406.453125 C62.46875,406.804688 62.40625,407.234375 62.3671875,407.445312 L61.5625,412 L62.7109375,412 L63.5,407.515625 C63.5703125,407.109375 63.640625,406.65625 63.640625,406.25 C63.640625,404.898438 62.8046875,403.6875 61.0859375,403.6875 C59.8671875,403.6875 59.0234375,404.28125 58.609375,405.1875 L58.5234375,405.1875 L59.3359375,400.773438 L58.203125,400.773438 L56.2109375,412 L57.359375,412 Z M68.890625,412.132812 C70.921875,412.132812 72.1171875,410.96875 72.46875,409.03125 L72.671875,407.914062 C72.734375,407.570312 72.765625,407.1875 72.765625,406.953125 C72.765625,404.898438 71.390625,403.6875 69.453125,403.6875 C67.71875,403.6875 66.3203125,404.796875 65.9765625,406.765625 L65.7890625,407.875 C65.71875,408.234375 65.6953125,408.625 65.6953125,409.007812 C65.6953125,410.96875 67.0859375,412.132812 68.890625,412.132812 Z M69.03125,411.132812 C67.6484375,411.132812 66.8125,410.195312 66.8125,408.828125 C66.8125,408.46875 66.8515625,408.210938 66.8984375,407.953125 L67.0703125,406.984375 C67.3515625,405.382812 68.28125,404.6875 69.421875,404.6875 C70.78125,404.6875 71.625,405.632812 71.625,406.945312 C71.625,407.0625 71.6171875,407.453125 71.578125,407.703125 L71.3984375,408.742188 C71.1328125,410.273438 70.2890625,411.132812 69.03125,411.132812 Z M76.734375,412.132812 C78.0078125,412.132812 78.828125,411.4375 79.109375,410.875 L79.1875,410.875 L78.9921875,412 L80.1015625,412 L80.90625,407.4375 C80.984375,407.046875 81.0546875,406.59375 81.0546875,406.164062 C81.0546875,404.703125 80.0625,403.6875 78.2109375,403.6875 C76.4921875,403.6875 75.3828125,404.546875 75.1640625,405.71875 L76.2734375,405.71875 C76.453125,405.171875 77.0390625,404.671875 78.125,404.671875 C79.46875,404.671875 79.96875,405.46875 79.96875,406.265625 C79.96875,406.421875 79.9453125,406.601562 79.9296875,406.695312 L79.84375,407.242188 L77.5703125,407.242188 C75.4921875,407.242188 74.421875,408.164062 74.28125,409.507812 C74.265625,409.640625 74.265625,409.765625 74.265625,409.867188 C74.265625,411.289062 75.3828125,412.132812 76.734375,412.132812 Z M77.0078125,411.15625 C76.0078125,411.15625 75.4140625,410.578125 75.4140625,409.757812 C75.4140625,408.898438 76.078125,408.179688 77.46875,408.179688 L79.640625,408.179688 L79.453125,409.25 C79.25,410.367188 78.203125,411.15625 77.0078125,411.15625 Z M76.4765625,414.546875 C76.9296875,414.546875 77.25,414.25 77.25,413.804688 C77.25,413.367188 76.9296875,413.054688 76.4765625,413.054688 C76.03125,413.054688 75.7109375,413.367188 75.7109375,413.804688 C75.7109375,414.25 76.03125,414.546875 76.4765625,414.546875 Z M85.5625,412.070312 C85.9453125,412.070312 86.4375,412.023438 86.6640625,411.96875 L86.8359375,411.023438 C86.6015625,411.070312 86.171875,411.109375 85.828125,411.109375 C85.1171875,411.109375 84.8046875,410.851562 84.8046875,410.265625 C84.8046875,410.03125 84.84375,409.773438 84.96875,409.054688 L85.71875,404.765625 L87.5703125,404.765625 L87.7421875,403.820312 L85.890625,403.820312 L86.2421875,401.773438 L85.1171875,401.773438 L84.7421875,403.820312 L83.4453125,403.820312 L83.2734375,404.765625 L84.578125,404.765625 L83.7421875,409.5 C83.671875,409.929688 83.625,410.296875 83.625,410.546875 C83.625,411.5625 84.2734375,412.070312 85.5625,412.070312 Z M96.015625,412 C99.4453125,412 101.375,410.5625 101.875,407.71875 C101.875,407.6875 102.070312,406.570312 102.070312,406.523438 C102.140625,406.117188 102.164062,405.625 102.164062,405.328125 C102.164062,402.945312 100.734375,401.335938 97.90625,401.335938 L95.0390625,401.335938 L94.1953125,406.03125 L92.953125,406.03125 L92.7734375,407.054688 L94.0234375,407.054688 L93.1484375,412 L96.015625,412 Z M96.03125,410.96875 L94.5,410.96875 L95.1953125,407.054688 L97.703125,407.054688 L97.8828125,406.03125 L95.3671875,406.03125 L96.015625,402.367188 L97.59375,402.367188 C99.8671875,402.367188 100.992188,403.453125 100.992188,405.453125 C100.992188,405.734375 100.96875,406.21875 100.914062,406.523438 C100.914062,406.570312 100.734375,407.570312 100.726562,407.601562 C100.320312,409.867188 98.6015625,410.96875 96.03125,410.96875 Z M108.070312,402.492188 C109.328125,402.492188 110.367188,401.632812 110.5,400.4375 L109.664062,400.4375 C109.523438,401.25 108.96875,401.742188 108.171875,401.742188 C107.40625,401.742188 106.914062,401.320312 106.914062,400.6875 C106.914062,400.578125 106.921875,400.507812 106.9375,400.4375 L106.101562,400.4375 C106.070312,400.570312 106.054688,400.6875 106.054688,400.828125 C106.054688,401.742188 106.828125,402.492188 108.070312,402.492188 Z M106.15625,412.132812 C107.429688,412.132812 108.25,411.4375 108.53125,410.875 L108.609375,410.875 L108.414062,412 L109.523438,412 L110.328125,407.4375 C110.40625,407.046875 110.476562,406.59375 110.476562,406.164062 C110.476562,404.703125 109.484375,403.6875 107.632812,403.6875 C105.914062,403.6875 104.804688,404.546875 104.585938,405.71875 L105.695312,405.71875 C105.875,405.171875 106.460938,404.671875 107.546875,404.671875 C108.890625,404.671875 109.390625,405.46875 109.390625,406.265625 C109.390625,406.421875 109.367188,406.601562 109.351562,406.695312 L109.265625,407.242188 L106.992188,407.242188 C104.914062,407.242188 103.84375,408.164062 103.703125,409.507812 C103.6875,409.640625 103.6875,409.765625 103.6875,409.867188 C103.6875,411.289062 104.804688,412.132812 106.15625,412.132812 Z M106.429688,411.15625 C105.429688,411.15625 104.835938,410.578125 104.835938,409.757812 C104.835938,408.898438 105.5,408.179688 106.890625,408.179688 L109.0625,408.179688 L108.875,409.25 C108.671875,410.367188 107.625,411.15625 106.429688,411.15625 Z M113.484375,412 L114.328125,407.195312 C114.5625,405.859375 115.398438,404.65625 116.867188,404.65625 C118.085938,404.65625 118.554688,405.5 118.554688,406.460938 C118.554688,406.820312 118.492188,407.226562 118.453125,407.445312 L117.648438,412 L118.789062,412 L119.585938,407.515625 C119.65625,407.109375 119.726562,406.664062 119.726562,406.25 C119.726562,404.914062 118.953125,403.6875 117.203125,403.6875 C116.023438,403.6875 115.179688,404.25 114.734375,405.1875 L114.648438,405.1875 L114.898438,403.820312 L113.78125,403.820312 L112.335938,412 L113.484375,412 Z M124.382812,414.96875 C126.445312,414.96875 127.671875,413.984375 128.046875,411.867188 L129.460938,403.820312 L128.335938,403.820312 L128.054688,405.429688 L127.960938,405.429688 C127.71875,404.53125 126.851562,403.6875 125.453125,403.6875 C123.9375,403.6875 122.484375,404.59375 122.085938,406.6875 L121.90625,407.640625 C121.84375,407.953125 121.796875,408.476562 121.796875,408.757812 C121.796875,410.6875 123.226562,411.851562 124.742188,411.851562 C126.03125,411.851562 126.804688,411.1875 127.101562,410.46875 L127.195312,410.46875 L126.984375,411.664062 C126.710938,413.234375 125.929688,413.992188 124.453125,413.992188 C123.234375,413.992188 122.445312,413.304688 122.445312,412.65625 L122.445312,412.554688 L122.445312,412.554688 L121.328125,412.554688 C121.328125,412.5625 121.320312,412.65625 121.320312,412.671875 C121.320312,413.867188 122.507812,414.96875 124.382812,414.96875 Z M125.09375,410.890625 C123.789062,410.890625 122.921875,410.109375 122.921875,408.585938 C122.921875,408.375 122.976562,407.945312 123.015625,407.71875 L123.148438,407.039062 C123.421875,405.554688 124.289062,404.65625 125.507812,404.65625 C126.773438,404.65625 127.703125,405.539062 127.703125,406.976562 C127.703125,407.046875 127.703125,407.28125 127.625,407.71875 L127.476562,408.554688 C127.242188,409.921875 126.304688,410.890625 125.09375,410.890625 Z M135.664062,412 L136.273438,408.546875 L137.40625,407.648438 L139.6875,412 L140.960938,412 L138.304688,407.039062 L142.320312,403.820312 L140.726562,403.820312 L136.601562,407.179688 L136.523438,407.179688 L137.640625,400.773438 L136.5,400.773438 L134.523438,412 L135.664062,412 Z M147.28125,402.460938 L149.976562,399.71875 L148.703125,399.71875 L146.320312,402.460938 L147.28125,402.460938 Z M142.890625,414.835938 C144.296875,414.835938 144.914062,414.382812 145.726562,412.78125 L146.117188,412.015625 L150.390625,403.820312 L149.164062,403.820312 L145.796875,410.664062 L145.71875,410.664062 L144.59375,403.820312 L143.375,403.820312 L144.9375,411.929688 L144.671875,412.5 C144.21875,413.492188 143.75,413.867188 143.007812,413.867188 C142.75,413.867188 142.484375,413.835938 142.296875,413.789062 L142.085938,414.734375 C142.257812,414.78125 142.59375,414.835938 142.890625,414.835938 Z" id="Cảmơnbạnđãdànhthờigian!SauđâybạnhãynhậpMậtkhẩulàChanchanđểkíchhoạtĐăngký" fill-rule="nonzero"></path>
                <text id="chanchan" opacity="0" font-family="SFCompactDisplay-Light, SF Compact Display" font-size="24" font-weight="300" line-spacing="23">
                    <tspan x="38" y="394">chanchan</tspan>
                </text>
            </g>
        </g>
    </g>
</svg>