<?xml version="1.0" encoding="UTF-8"?>
<svg width="320px" height="50px" viewBox="0 0 320 50" version="1.1" xmlns="http://www.w3.org/2000/svg" xmlns:xlink="http://www.w3.org/1999/xlink">
    <!-- Generator: Sketch 54.1 (76490) - https://sketchapp.com -->
    <title>menu_bg</title>
    <desc>Created with Sketch.</desc>
    <defs>
        <linearGradient x1="13.729807%" y1="82.1665116%" x2="116.141476%" y2="-107.821617%" id="linearGradient-1">
            <stop stop-color="#F50057" offset="0%"></stop>
            <stop stop-color="#AA00FF" offset="100%"></stop>
        </linearGradient>
        <path d="M266.473624,13.3199479 L272.499359,22.5903095 C272.800348,23.0533691 272.668964,23.6727527 272.205904,23.9737415 C272.043694,24.0791781 271.854382,24.1352978 271.660916,24.1352978 L259.609446,24.1352978 C259.057161,24.1352978 258.609446,23.6875826 258.609446,23.1352978 C258.609446,22.9418319 258.665565,22.7525198 258.771002,22.5903095 L264.796737,13.3199479 C265.097726,12.8568883 265.71711,12.7255039 266.180169,13.0264927 C266.297432,13.1027138 266.397403,13.2026847 266.473624,13.3199479 Z" id="path-2"></path>
        <filter x="-14.2%" y="-17.7%" width="128.5%" height="135.5%" filterUnits="objectBoundingBox" id="filter-3">
            <feGaussianBlur stdDeviation="1.5" in="SourceAlpha" result="shadowBlurInner1"></feGaussianBlur>
            <feOffset dx="1" dy="1" in="shadowBlurInner1" result="shadowOffsetInner1"></feOffset>
            <feComposite in="shadowOffsetInner1" in2="SourceAlpha" operator="arithmetic" k2="-1" k3="1" result="shadowInnerInner1"></feComposite>
            <feColorMatrix values="0 0 0 0 0   0 0 0 0 0   0 0 0 0 0  0 0 0 0.5 0" type="matrix" in="shadowInnerInner1"></feColorMatrix>
        </filter>
    </defs>
    <g id="menu_bg" stroke="none" stroke-width="1" fill="none" fill-rule="evenodd">
        <rect id="Rectangle" fill="#09041C" x="273.315789" y="26.3684211" width="26.6315789" height="3.63157895" rx="0.5"></rect>
        <rect id="Rectangle" fill="#09041C" x="275.978947" y="16.6842105" width="23.9684211" height="3.63157895" rx="0.5"></rect>
        <rect id="Rectangle" fill="#09041C" x="273.315789" y="7" width="26.6315789" height="3.63157895" rx="0.5"></rect>
        <g id="Triangle" opacity="0.9" transform="translate(265.635239, 18.500059) rotate(90.000000) translate(-265.635239, -18.500059) ">
            <use fill="url(#linearGradient-1)" fill-rule="evenodd" xlink:href="#path-2"></use>
            <use fill="black" fill-opacity="1" filter="url(#filter-3)" xlink:href="#path-2"></use>
        </g>
    </g>
</svg>