<?xml version="1.0" encoding="UTF-8"?>
<svg width="320px" height="917px" viewBox="0 0 320 917" version="1.1" xmlns="http://www.w3.org/2000/svg" xmlns:xlink="http://www.w3.org/1999/xlink">
    <!-- Generator: Sketch 54.1 (76490) - https://sketchapp.com -->
    <title>motcapdoi</title>
    <desc>Created with Sketch.</desc>
    <g id="motcapdoi" stroke="none" stroke-width="1" fill="none" fill-rule="evenodd">
        <rect id="Rectangle" fill="#F0F6FA" x="0" y="222" width="320" height="695"></rect>
        <path d="M3.04720534,218 C3.01573507,218.166826 3,218.339903 3,218.519231 C3,219.198721 3.22884537,219.782049 3.68654298,220.269231 C4.14424058,220.756413 4.68408094,221 5.30608025,221 C5.91634372,221 6.45325017,220.759618 6.91681569,220.278846 C7.38038122,219.798075 7.6121605,219.211542 7.6121605,218.519231 C7.6121605,218.339903 7.59622108,218.166826 7.5643421,218 L12.7468253,218 C12.7153551,218.166826 12.69962,218.339903 12.69962,218.519231 C12.69962,219.198721 12.9284654,219.782049 13.386163,220.269231 C13.8438606,220.756413 14.3837009,221 15.0057002,221 C15.6159637,221 16.1528702,220.759618 16.6164357,220.278846 C17.0800012,219.798075 17.3117805,219.211542 17.3117805,218.519231 C17.3117805,218.339903 17.2958411,218.166826 17.2639621,218 L22.4464453,218 C22.414975,218.166826 22.39924,218.339903 22.39924,218.519231 C22.39924,219.198721 22.6280853,219.782049 23.0857829,220.269231 C23.5434805,220.756413 24.0833209,221 24.7053202,221 C25.3273195,221 25.8671599,220.756413 26.3248575,220.269231 C26.7825551,219.782049 27.0114005,219.198721 27.0114005,218.519231 C27.0114005,218.339903 26.9956654,218.166826 26.9641951,218 L32.1460653,218 C32.114595,218.166826 32.09886,218.339903 32.09886,218.519231 C32.09886,219.198721 32.3277053,219.782049 32.7854029,220.269231 C33.2431005,220.756413 33.7829409,221 34.4049402,221 C35.0152037,221 35.5521101,220.759618 36.0156756,220.278846 C36.4792412,219.798075 36.7110205,219.211542 36.7110205,218.519231 C36.7110205,218.339903 36.695081,218.166826 36.6632021,218 L41.8456853,218 C41.814215,218.166826 41.7984799,218.339903 41.7984799,218.519231 C41.7984799,219.198721 42.0273253,219.782049 42.4850229,220.269231 C42.9427205,220.756413 43.4825609,221 44.1045602,221 C44.7148237,221 45.2517301,220.759618 45.7152956,220.278846 C46.1788612,219.798075 46.4106404,219.211542 46.4106404,218.519231 C46.4106404,218.339903 46.394701,218.166826 46.362822,218 L51.5453053,218 C51.513835,218.166826 51.4980999,218.339903 51.4980999,218.519231 C51.4980999,219.198721 51.7269453,219.782049 52.1846429,220.269231 C52.6423405,220.756413 53.1821809,221 53.8041802,221 C54.4261795,221 54.9660198,220.756413 55.4237174,220.269231 C55.8814151,219.782049 56.1102604,219.198721 56.1102604,218.519231 C56.1102604,218.339903 56.0945254,218.166826 56.0630551,218 L61.2449252,218 C61.213455,218.166826 61.1977199,218.339903 61.1977199,218.519231 C61.1977199,219.198721 61.4265653,219.782049 61.8842629,220.269231 C62.3419605,220.756413 62.8818008,221 63.5038002,221 C64.1140636,221 64.6509701,220.759618 65.1145356,220.278846 C65.5781011,219.798075 65.8098804,219.211542 65.8098804,218.519231 C65.8098804,218.339903 65.793941,218.166826 65.762062,218 L70.9445452,218 C70.913075,218.166826 70.8973399,218.339903 70.8973399,218.519231 C70.8973399,219.198721 71.1261853,219.782049 71.5838829,220.269231 C72.0415805,220.756413 72.5814208,221 73.2034201,221 C73.8136836,221 74.3505901,220.759618 74.8141556,220.278846 C75.2777211,219.798075 75.5095004,219.211542 75.5095004,218.519231 C75.5095004,218.339903 75.493561,218.166826 75.461682,218 L80.6441652,218 C80.6126949,218.166826 80.5969599,218.339903 80.5969599,218.519231 C80.5969599,219.198721 80.8258052,219.782049 81.2835029,220.269231 C81.7412005,220.756413 82.2810408,221 82.9030401,221 C83.5250394,221 84.0648798,220.756413 84.5225774,220.269231 C84.980275,219.782049 85.2091204,219.198721 85.2091204,218.519231 C85.2091204,218.339903 85.1933853,218.166826 85.161915,218 L90.3437852,218 C90.3123149,218.166826 90.2965799,218.339903 90.2965799,218.519231 C90.2965799,219.198721 90.5254252,219.782049 90.9831228,220.269231 C91.4408204,220.756413 91.9806608,221 92.6026601,221 C93.2129236,221 93.74983,220.759618 94.2133956,220.278846 C94.6769611,219.798075 94.9087404,219.211542 94.9087404,218.519231 C94.9087404,218.339903 94.8928009,218.166826 94.860922,218 L100.043405,218 C100.011935,218.166826 99.9961998,218.339903 99.9961998,218.519231 C99.9961998,219.198721 100.225045,219.782049 100.682743,220.269231 C101.14044,220.756413 101.680281,221 102.30228,221 C102.912544,221 103.44945,220.759618 103.913016,220.278846 C104.376581,219.798075 104.60836,219.211542 104.60836,218.519231 C104.60836,218.339903 104.592421,218.166826 104.560542,218 L109.743025,218 C109.711555,218.166826 109.69582,218.339903 109.69582,218.519231 C109.69582,219.198721 109.924665,219.782049 110.382363,220.269231 C110.84006,220.756413 111.379901,221 112.0019,221 C112.623899,221 113.16374,220.756413 113.621437,220.269231 C114.079135,219.782049 114.30798,219.198721 114.30798,218.519231 C114.30798,218.339903 114.292245,218.166826 114.260775,218 L119.442645,218 C119.411175,218.166826 119.39544,218.339903 119.39544,218.519231 C119.39544,219.198721 119.624285,219.782049 120.081983,220.269231 C120.53968,220.756413 121.079521,221 121.70152,221 C122.311784,221 122.84869,220.759618 123.312256,220.278846 C123.775821,219.798075 124.0076,219.211542 124.0076,218.519231 C124.0076,218.339903 123.991661,218.166826 123.959782,218 L129.142265,218 C129.110795,218.166826 129.09506,218.339903 129.09506,218.519231 C129.09506,219.198721 129.323905,219.782049 129.781603,220.269231 C130.2393,220.756413 130.779141,221 131.40114,221 C132.011404,221 132.54831,220.759618 133.011875,220.278846 C133.475441,219.798075 133.70722,219.211542 133.70722,218.519231 C133.70722,218.339903 133.691281,218.166826 133.659402,218 L138.841885,218 C138.810415,218.166826 138.79468,218.339903 138.79468,218.519231 C138.79468,219.198721 139.023525,219.782049 139.481223,220.269231 C139.93892,220.756413 140.478761,221 141.10076,221 C141.722759,221 142.2626,220.756413 142.720297,220.269231 C143.177995,219.782049 143.40684,219.198721 143.40684,218.519231 C143.40684,218.339903 143.391105,218.166826 143.359635,218 L148.541505,218 C148.510035,218.166826 148.4943,218.339903 148.4943,218.519231 C148.4943,219.198721 148.723145,219.782049 149.180843,220.269231 C149.63854,220.756413 150.178381,221 150.80038,221 C151.410643,221 151.94755,220.759618 152.411115,220.278846 C152.874681,219.798075 153.10646,219.211542 153.10646,218.519231 C153.10646,218.339903 153.090521,218.166826 153.058642,218 L158.241125,218 C158.209655,218.166826 158.19392,218.339903 158.19392,218.519231 C158.19392,219.198721 158.422765,219.782049 158.880463,220.269231 C159.33816,220.756413 159.878001,221 160.5,221 C161.110263,221 161.64717,220.759618 162.110735,220.278846 C162.574301,219.798075 162.80608,219.211542 162.80608,218.519231 C162.80608,218.339903 162.790141,218.166826 162.758262,218 L167.940745,218 C167.909275,218.166826 167.89354,218.339903 167.89354,218.519231 C167.89354,219.198721 168.122385,219.782049 168.580083,220.269231 C169.03778,220.756413 169.577621,221 170.19962,221 C170.821619,221 171.36146,220.756413 171.819157,220.269231 C172.276855,219.782049 172.5057,219.198721 172.5057,218.519231 C172.5057,218.339903 172.489965,218.166826 172.458495,218 L177.640365,218 C177.608895,218.166826 177.59316,218.339903 177.59316,218.519231 C177.59316,219.198721 177.822005,219.782049 178.279703,220.269231 C178.7374,220.756413 179.277241,221 179.89924,221 C180.509503,221 181.04641,220.759618 181.509975,220.278846 C181.973541,219.798075 182.20532,219.211542 182.20532,218.519231 C182.20532,218.339903 182.189381,218.166826 182.157502,218 L187.339985,218 C187.308515,218.166826 187.29278,218.339903 187.29278,218.519231 C187.29278,219.198721 187.521625,219.782049 187.979323,220.269231 C188.43702,220.756413 188.976861,221 189.59886,221 C190.209123,221 190.74603,220.759618 191.209595,220.278846 C191.673161,219.798075 191.90494,219.211542 191.90494,218.519231 C191.90494,218.339903 191.889001,218.166826 191.857122,218 L197.039605,218 C197.008135,218.166826 196.9924,218.339903 196.9924,218.519231 C196.9924,219.198721 197.221245,219.782049 197.678943,220.269231 C198.13664,220.756413 198.676481,221 199.29848,221 C199.920479,221 200.46032,220.756413 200.918017,220.269231 C201.375715,219.782049 201.60456,219.198721 201.60456,218.519231 C201.60456,218.339903 201.588825,218.166826 201.557355,218 L206.739225,218 C206.707755,218.166826 206.69202,218.339903 206.69202,218.519231 C206.69202,219.198721 206.920865,219.782049 207.378563,220.269231 C207.83626,220.756413 208.376101,221 208.9981,221 C209.608363,221 210.14527,220.759618 210.608835,220.278846 C211.072401,219.798075 211.30418,219.211542 211.30418,218.519231 C211.30418,218.339903 211.288241,218.166826 211.256362,218 L216.438845,218 C216.407375,218.166826 216.39164,218.339903 216.39164,218.519231 C216.39164,219.198721 216.620485,219.782049 217.078183,220.269231 C217.53588,220.756413 218.075721,221 218.69772,221 C219.307983,221 219.84489,220.759618 220.308455,220.278846 C220.772021,219.798075 221.0038,219.211542 221.0038,218.519231 C221.0038,218.339903 220.987861,218.166826 220.955982,218 L226.138465,218 C226.106995,218.166826 226.09126,218.339903 226.09126,218.519231 C226.09126,219.198721 226.320105,219.782049 226.777803,220.269231 C227.2355,220.756413 227.775341,221 228.39734,221 C229.019339,221 229.55918,220.756413 230.016877,220.269231 C230.474575,219.782049 230.70342,219.198721 230.70342,218.519231 C230.70342,218.339903 230.687685,218.166826 230.656215,218 L235.838085,218 C235.806615,218.166826 235.79088,218.339903 235.79088,218.519231 C235.79088,219.198721 236.019725,219.782049 236.477423,220.269231 C236.93512,220.756413 237.474961,221 238.09696,221 C238.707223,221 239.24413,220.759618 239.707695,220.278846 C240.171261,219.798075 240.40304,219.211542 240.40304,218.519231 C240.40304,218.339903 240.387101,218.166826 240.355222,218 L245.537705,218 C245.506235,218.166826 245.4905,218.339903 245.4905,218.519231 C245.4905,219.198721 245.719345,219.782049 246.177043,220.269231 C246.63474,220.756413 247.174581,221 247.79658,221 C248.406843,221 248.94375,220.759618 249.407315,220.278846 C249.870881,219.798075 250.10266,219.211542 250.10266,218.519231 C250.10266,218.339903 250.086721,218.166826 250.054842,218 L255.237325,218 C255.205855,218.166826 255.19012,218.339903 255.19012,218.519231 C255.19012,219.198721 255.418965,219.782049 255.876663,220.269231 C256.33436,220.756413 256.874201,221 257.4962,221 C258.118199,221 258.65804,220.756413 259.115737,220.269231 C259.573435,219.782049 259.80228,219.198721 259.80228,218.519231 C259.80228,218.339903 259.786545,218.166826 259.755075,218 L264.936945,218 C264.905475,218.166826 264.88974,218.339903 264.88974,218.519231 C264.88974,219.198721 265.118585,219.782049 265.576283,220.269231 C266.03398,220.756413 266.573821,221 267.19582,221 C267.806083,221 268.34299,220.759618 268.806555,220.278846 C269.270121,219.798075 269.5019,219.211542 269.5019,218.519231 C269.5019,218.339903 269.485961,218.166826 269.454082,218 L274.636565,218 C274.605095,218.166826 274.58936,218.339903 274.58936,218.519231 C274.58936,219.198721 274.818205,219.782049 275.275903,220.269231 C275.7336,220.756413 276.273441,221 276.89544,221 C277.505703,221 278.04261,220.759618 278.506175,220.278846 C278.969741,219.798075 279.20152,219.211542 279.20152,218.519231 C279.20152,218.339903 279.185581,218.166826 279.153702,218 L284.336185,218 C284.304715,218.166826 284.28898,218.339903 284.28898,218.519231 C284.28898,219.198721 284.517825,219.782049 284.975523,220.269231 C285.43322,220.756413 285.97306,221 286.59506,221 C287.217059,221 287.756899,220.756413 288.214597,220.269231 C288.672295,219.782049 288.90114,219.198721 288.90114,218.519231 C288.90114,218.339903 288.885405,218.166826 288.853935,218 L294.035805,218 C294.004335,218.166826 293.9886,218.339903 293.9886,218.519231 C293.9886,219.198721 294.217445,219.782049 294.675143,220.269231 C295.13284,220.756413 295.67268,221 296.29468,221 C296.904943,221 297.44185,220.759618 297.905415,220.278846 C298.368981,219.798075 298.60076,219.211542 298.60076,218.519231 C298.60076,218.339903 298.584821,218.166826 298.552942,218 L303.735425,218 C303.703955,218.166826 303.68822,218.339903 303.68822,218.519231 C303.68822,219.198721 303.917065,219.782049 304.374762,220.269231 C304.83246,220.756413 305.3723,221 305.9943,221 C306.604563,221 307.14147,220.759618 307.605035,220.278846 C308.068601,219.798075 308.30038,219.211542 308.30038,218.519231 C308.30038,218.339903 308.284441,218.166826 308.252562,218 L313.435045,218 C313.403575,218.166826 313.387839,218.339903 313.387839,218.519231 C313.387839,219.198721 313.616685,219.782049 314.074382,220.269231 C314.53208,220.756413 315.07192,221 315.69392,221 C316.315919,221 316.855759,220.756413 317.313457,220.269231 C317.771155,219.782049 318,219.198721 318,218.519231 C318,218.339903 317.984265,218.166826 317.952795,218 L320,218 L320,226 L0,226 L0,218 L3.04720534,218 Z" id="Rectangle-2" fill="#F0F6FA"></path>
        <text id="Ngay-sau-đó-hoạt-độn" font-family="SFCompactDisplay-Regular, SF Compact Display" font-size="16" font-weight="normal" line-spacing="21" fill="#556279">
            <tspan x="30" y="151">Ngay sau đó hoạt động Thử thách &amp; </tspan>
            <tspan x="30" y="172">kết nối giữa họ được kích hoạt.</tspan>
        </text>
        <text id="02" font-family="Oswald-Regular_Medium, Oswald" font-size="40" font-weight="400" letter-spacing="-2" fill="#343D51">
            <tspan x="30" y="310">02</tspan>
        </text>
        <text id="—-Chương-trình-ngầm" font-family="Georgia-Italic, Georgia" font-size="15" font-style="italic" font-weight="normal" line-spacing="20" fill="#343D51">
            <tspan x="50" y="348">— Chương trình ngầm thử thách </tspan>
            <tspan x="50" y="368">các cặp đôi để biết</tspan>
        </text>
        <text id="Cả-hai-mong-muốn-có" font-family="SFCompactDisplay-Semibold, SF Compact Display" font-size="18" font-weight="500" line-spacing="20" letter-spacing="-0.9" fill="#343D51">
            <tspan x="50" y="399">Cả hai mong muốn có nhau đến </tspan>
            <tspan x="50" y="419">mức nào?</tspan>
        </text>
        <text id="Sự-chân-thành" font-family="Georgia-Italic, Georgia" font-size="16" font-style="italic" font-weight="normal" line-spacing="20" letter-spacing="-0.64" fill="#556279">
            <tspan x="50" y="457">Sự chân thành</tspan>
        </text>
        <text id="." font-family="Georgia-Italic, Georgia" font-size="16" font-style="italic" font-weight="normal" fill="#556279">
            <tspan x="30" y="458">.</tspan>
        </text>
        <text id="." font-family="Georgia-Italic, Georgia" font-size="16" font-style="italic" font-weight="normal" fill="#556279">
            <tspan x="30" y="548">.</tspan>
        </text>
        <text id="." font-family="Georgia-Italic, Georgia" font-size="16" font-style="italic" font-weight="normal" fill="#556279">
            <tspan x="30" y="638">.</tspan>
        </text>
        <text id="." font-family="Georgia-Italic, Georgia" font-size="16" font-style="italic" font-weight="normal" fill="#556279">
            <tspan x="30" y="749">.</tspan>
        </text>
        <text id="." font-family="Georgia-Italic, Georgia" font-size="16" font-style="italic" font-weight="normal" fill="#556279">
            <tspan x="30" y="838">.</tspan>
        </text>
        <text id="Sự-gắn-bó" font-family="Georgia-Italic, Georgia" font-size="16" font-style="italic" font-weight="normal" line-spacing="20" letter-spacing="-0.64" fill="#556279">
            <tspan x="50" y="547">Sự gắn bó</tspan>
        </text>
        <text id="Sự-tin-tưởng" font-family="Georgia-Italic, Georgia" font-size="16" font-style="italic" font-weight="normal" line-spacing="20" letter-spacing="-0.64" fill="#556279">
            <tspan x="50" y="637">Sự tin tưởng</tspan>
        </text>
        <text id="Sự-quan-tâm" font-family="Georgia-Italic, Georgia" font-size="16" font-style="italic" font-weight="normal" line-spacing="20" letter-spacing="-0.64" fill="#556279">
            <tspan x="50" y="748">Sự quan tâm</tspan>
        </text>
        <text id="Sự-sẻ-chia" font-family="Georgia-Italic, Georgia" font-size="16" font-style="italic" font-weight="normal" letter-spacing="-0.64" fill="#556279">
            <tspan x="50" y="838">Sự sẻ chia</tspan>
        </text>
        <text id="Qua-khả-năng-đến-với" font-family="SFCompactDisplay-Regular, SF Compact Display" font-size="16" font-weight="normal" line-spacing="21" fill="#343D51">
            <tspan x="50" y="485">Qua khả năng đến với nhau bằng </tspan>
            <tspan x="50" y="506">con người thực của mình.</tspan>
        </text>
        <text id="Qua-khả-năng-chia-sẻ" font-family="SFCompactDisplay-Regular, SF Compact Display" font-size="16" font-weight="normal" line-spacing="21" fill="#343D51">
            <tspan x="50" y="665">Qua khả năng chia sẻ những điều </tspan>
            <tspan x="50" y="686">quan trọng &amp; riêng tư giữa hai </tspan>
            <tspan x="50" y="707">người.</tspan>
        </text>
        <text id="Qua-khả-năng-chấp-nh" font-family="SFCompactDisplay-Regular, SF Compact Display" font-size="16" font-weight="normal" line-spacing="21" fill="#343D51">
            <tspan x="50" y="575">Qua khả năng chấp nhận những </tspan>
            <tspan x="50" y="596">giới hạn của nhau.</tspan>
        </text>
        <text id="Qua-khả-năng-cảm-nhậ" font-family="SFCompactDisplay-Regular, SF Compact Display" font-size="16" font-weight="normal" line-spacing="21" fill="#343D51">
            <tspan x="50" y="776">Qua khả năng cảm nhận những </tspan>
            <tspan x="50" y="797">điều không nói.</tspan>
        </text>
        <text id="Qua-khả-năng-bước-ra" font-family="SFCompactDisplay-Regular, SF Compact Display" font-size="16" font-weight="normal" line-spacing="21" fill="#343D51">
            <tspan x="50" y="869">Qua khả năng bước ra vùng thoải </tspan>
            <tspan x="50" y="890">mái của mình để sẻ chia cuộc </tspan>
            <tspan x="50" y="911">sống với đối phương.</tspan>
        </text>
        <rect id="Rectangle" fill="#343D51" x="30" y="334" width="2" height="88"></rect>
        <text id="—-Khi-cả-hai-ngầm-mo" font-family="Georgia-Italic, Georgia" font-size="15" font-style="italic" font-weight="normal" line-spacing="20" fill="#343D51">
            <tspan x="50" y="94">— Khi cả hai ngầm mong muốn có </tspan>
            <tspan x="50" y="114">cơ hội với nhau</tspan>
        </text>
        <text id="Hai-người-sẽ-ngầm-đư" font-family="SFCompactDisplay-Semibold, SF Compact Display" font-size="18" font-weight="500" line-spacing="20" letter-spacing="-0.720000029" fill="#343D51">
            <tspan x="50" y="49">Hai người sẽ ngầm được ghép </tspan>
            <tspan x="50" y="69">đôi</tspan>
        </text>
        <rect id="Rectangle" fill="#343D51" transform="translate(31.000000, 76.000000) scale(-1, 1) translate(-31.000000, -76.000000) " x="30" y="32" width="2" height="88"></rect>
    </g>
</svg>