<?xml version="1.0" encoding="UTF-8"?>
<svg width="320px" height="40px" viewBox="0 0 320 40" version="1.1" xmlns="http://www.w3.org/2000/svg" xmlns:xlink="http://www.w3.org/1999/xlink">
    <!-- Generator: Sketch 54.1 (76490) - https://sketchapp.com -->
    <title>over</title>
    <desc>Created with Sketch.</desc>
    <g id="over" stroke="none" stroke-width="1" fill="none" fill-rule="evenodd">
        <rect fill="#F0F6FA" x="0" y="0" width="320" height="40"></rect>
        <path d="M3.04720534,32 C3.01573507,32.1668257 3,32.3399025 3,32.5192308 C3,33.1987213 3.22884537,33.7820488 3.68654298,34.2692308 C4.14424058,34.7564127 4.68408094,35 5.30608025,35 C5.91634372,35 6.45325017,34.7596178 6.91681569,34.2788462 C7.38038122,33.7980745 7.6121605,33.2115419 7.6121605,32.5192308 C7.6121605,32.3399025 7.59622108,32.1668257 7.5643421,32 L12.7468253,32 C12.7153551,32.1668257 12.69962,32.3399025 12.69962,32.5192308 C12.69962,33.1987213 12.9284654,33.7820488 13.386163,34.2692308 C13.8438606,34.7564127 14.3837009,35 15.0057002,35 C15.6159637,35 16.1528702,34.7596178 16.6164357,34.2788462 C17.0800012,33.7980745 17.3117805,33.2115419 17.3117805,32.5192308 C17.3117805,32.3399025 17.2958411,32.1668257 17.2639621,32 L22.4464453,32 C22.414975,32.1668257 22.39924,32.3399025 22.39924,32.5192308 C22.39924,33.1987213 22.6280853,33.7820488 23.0857829,34.2692308 C23.5434805,34.7564127 24.0833209,35 24.7053202,35 C25.3273195,35 25.8671599,34.7564127 26.3248575,34.2692308 C26.7825551,33.7820488 27.0114005,33.1987213 27.0114005,32.5192308 C27.0114005,32.3399025 26.9956654,32.1668257 26.9641951,32 L32.1460653,32 C32.114595,32.1668257 32.09886,32.3399025 32.09886,32.5192308 C32.09886,33.1987213 32.3277053,33.7820488 32.7854029,34.2692308 C33.2431005,34.7564127 33.7829409,35 34.4049402,35 C35.0152037,35 35.5521101,34.7596178 36.0156756,34.2788462 C36.4792412,33.7980745 36.7110205,33.2115419 36.7110205,32.5192308 C36.7110205,32.3399025 36.695081,32.1668257 36.6632021,32 L41.8456853,32 C41.814215,32.1668257 41.7984799,32.3399025 41.7984799,32.5192308 C41.7984799,33.1987213 42.0273253,33.7820488 42.4850229,34.2692308 C42.9427205,34.7564127 43.4825609,35 44.1045602,35 C44.7148237,35 45.2517301,34.7596178 45.7152956,34.2788462 C46.1788612,33.7980745 46.4106404,33.2115419 46.4106404,32.5192308 C46.4106404,32.3399025 46.394701,32.1668257 46.362822,32 L51.5453053,32 C51.513835,32.1668257 51.4980999,32.3399025 51.4980999,32.5192308 C51.4980999,33.1987213 51.7269453,33.7820488 52.1846429,34.2692308 C52.6423405,34.7564127 53.1821809,35 53.8041802,35 C54.4261795,35 54.9660198,34.7564127 55.4237174,34.2692308 C55.8814151,33.7820488 56.1102604,33.1987213 56.1102604,32.5192308 C56.1102604,32.3399025 56.0945254,32.1668257 56.0630551,32 L61.2449252,32 C61.213455,32.1668257 61.1977199,32.3399025 61.1977199,32.5192308 C61.1977199,33.1987213 61.4265653,33.7820488 61.8842629,34.2692308 C62.3419605,34.7564127 62.8818008,35 63.5038002,35 C64.1140636,35 64.6509701,34.7596178 65.1145356,34.2788462 C65.5781011,33.7980745 65.8098804,33.2115419 65.8098804,32.5192308 C65.8098804,32.3399025 65.793941,32.1668257 65.762062,32 L70.9445452,32 C70.913075,32.1668257 70.8973399,32.3399025 70.8973399,32.5192308 C70.8973399,33.1987213 71.1261853,33.7820488 71.5838829,34.2692308 C72.0415805,34.7564127 72.5814208,35 73.2034201,35 C73.8136836,35 74.3505901,34.7596178 74.8141556,34.2788462 C75.2777211,33.7980745 75.5095004,33.2115419 75.5095004,32.5192308 C75.5095004,32.3399025 75.493561,32.1668257 75.461682,32 L80.6441652,32 C80.6126949,32.1668257 80.5969599,32.3399025 80.5969599,32.5192308 C80.5969599,33.1987213 80.8258052,33.7820488 81.2835029,34.2692308 C81.7412005,34.7564127 82.2810408,35 82.9030401,35 C83.5250394,35 84.0648798,34.7564127 84.5225774,34.2692308 C84.980275,33.7820488 85.2091204,33.1987213 85.2091204,32.5192308 C85.2091204,32.3399025 85.1933853,32.1668257 85.161915,32 L90.3437852,32 C90.3123149,32.1668257 90.2965799,32.3399025 90.2965799,32.5192308 C90.2965799,33.1987213 90.5254252,33.7820488 90.9831228,34.2692308 C91.4408204,34.7564127 91.9806608,35 92.6026601,35 C93.2129236,35 93.74983,34.7596178 94.2133956,34.2788462 C94.6769611,33.7980745 94.9087404,33.2115419 94.9087404,32.5192308 C94.9087404,32.3399025 94.8928009,32.1668257 94.860922,32 L100.043405,32 C100.011935,32.1668257 99.9961998,32.3399025 99.9961998,32.5192308 C99.9961998,33.1987213 100.225045,33.7820488 100.682743,34.2692308 C101.14044,34.7564127 101.680281,35 102.30228,35 C102.912544,35 103.44945,34.7596178 103.913016,34.2788462 C104.376581,33.7980745 104.60836,33.2115419 104.60836,32.5192308 C104.60836,32.3399025 104.592421,32.1668257 104.560542,32 L109.743025,32 C109.711555,32.1668257 109.69582,32.3399025 109.69582,32.5192308 C109.69582,33.1987213 109.924665,33.7820488 110.382363,34.2692308 C110.84006,34.7564127 111.379901,35 112.0019,35 C112.623899,35 113.16374,34.7564127 113.621437,34.2692308 C114.079135,33.7820488 114.30798,33.1987213 114.30798,32.5192308 C114.30798,32.3399025 114.292245,32.1668257 114.260775,32 L119.442645,32 C119.411175,32.1668257 119.39544,32.3399025 119.39544,32.5192308 C119.39544,33.1987213 119.624285,33.7820488 120.081983,34.2692308 C120.53968,34.7564127 121.079521,35 121.70152,35 C122.311784,35 122.84869,34.7596178 123.312256,34.2788462 C123.775821,33.7980745 124.0076,33.2115419 124.0076,32.5192308 C124.0076,32.3399025 123.991661,32.1668257 123.959782,32 L129.142265,32 C129.110795,32.1668257 129.09506,32.3399025 129.09506,32.5192308 C129.09506,33.1987213 129.323905,33.7820488 129.781603,34.2692308 C130.2393,34.7564127 130.779141,35 131.40114,35 C132.011404,35 132.54831,34.7596178 133.011875,34.2788462 C133.475441,33.7980745 133.70722,33.2115419 133.70722,32.5192308 C133.70722,32.3399025 133.691281,32.1668257 133.659402,32 L138.841885,32 C138.810415,32.1668257 138.79468,32.3399025 138.79468,32.5192308 C138.79468,33.1987213 139.023525,33.7820488 139.481223,34.2692308 C139.93892,34.7564127 140.478761,35 141.10076,35 C141.722759,35 142.2626,34.7564127 142.720297,34.2692308 C143.177995,33.7820488 143.40684,33.1987213 143.40684,32.5192308 C143.40684,32.3399025 143.391105,32.1668257 143.359635,32 L148.541505,32 C148.510035,32.1668257 148.4943,32.3399025 148.4943,32.5192308 C148.4943,33.1987213 148.723145,33.7820488 149.180843,34.2692308 C149.63854,34.7564127 150.178381,35 150.80038,35 C151.410643,35 151.94755,34.7596178 152.411115,34.2788462 C152.874681,33.7980745 153.10646,33.2115419 153.10646,32.5192308 C153.10646,32.3399025 153.090521,32.1668257 153.058642,32 L158.241125,32 C158.209655,32.1668257 158.19392,32.3399025 158.19392,32.5192308 C158.19392,33.1987213 158.422765,33.7820488 158.880463,34.2692308 C159.33816,34.7564127 159.878001,35 160.5,35 C161.110263,35 161.64717,34.7596178 162.110735,34.2788462 C162.574301,33.7980745 162.80608,33.2115419 162.80608,32.5192308 C162.80608,32.3399025 162.790141,32.1668257 162.758262,32 L167.940745,32 C167.909275,32.1668257 167.89354,32.3399025 167.89354,32.5192308 C167.89354,33.1987213 168.122385,33.7820488 168.580083,34.2692308 C169.03778,34.7564127 169.577621,35 170.19962,35 C170.821619,35 171.36146,34.7564127 171.819157,34.2692308 C172.276855,33.7820488 172.5057,33.1987213 172.5057,32.5192308 C172.5057,32.3399025 172.489965,32.1668257 172.458495,32 L177.640365,32 C177.608895,32.1668257 177.59316,32.3399025 177.59316,32.5192308 C177.59316,33.1987213 177.822005,33.7820488 178.279703,34.2692308 C178.7374,34.7564127 179.277241,35 179.89924,35 C180.509503,35 181.04641,34.7596178 181.509975,34.2788462 C181.973541,33.7980745 182.20532,33.2115419 182.20532,32.5192308 C182.20532,32.3399025 182.189381,32.1668257 182.157502,32 L187.339985,32 C187.308515,32.1668257 187.29278,32.3399025 187.29278,32.5192308 C187.29278,33.1987213 187.521625,33.7820488 187.979323,34.2692308 C188.43702,34.7564127 188.976861,35 189.59886,35 C190.209123,35 190.74603,34.7596178 191.209595,34.2788462 C191.673161,33.7980745 191.90494,33.2115419 191.90494,32.5192308 C191.90494,32.3399025 191.889001,32.1668257 191.857122,32 L197.039605,32 C197.008135,32.1668257 196.9924,32.3399025 196.9924,32.5192308 C196.9924,33.1987213 197.221245,33.7820488 197.678943,34.2692308 C198.13664,34.7564127 198.676481,35 199.29848,35 C199.920479,35 200.46032,34.7564127 200.918017,34.2692308 C201.375715,33.7820488 201.60456,33.1987213 201.60456,32.5192308 C201.60456,32.3399025 201.588825,32.1668257 201.557355,32 L206.739225,32 C206.707755,32.1668257 206.69202,32.3399025 206.69202,32.5192308 C206.69202,33.1987213 206.920865,33.7820488 207.378563,34.2692308 C207.83626,34.7564127 208.376101,35 208.9981,35 C209.608363,35 210.14527,34.7596178 210.608835,34.2788462 C211.072401,33.7980745 211.30418,33.2115419 211.30418,32.5192308 C211.30418,32.3399025 211.288241,32.1668257 211.256362,32 L216.438845,32 C216.407375,32.1668257 216.39164,32.3399025 216.39164,32.5192308 C216.39164,33.1987213 216.620485,33.7820488 217.078183,34.2692308 C217.53588,34.7564127 218.075721,35 218.69772,35 C219.307983,35 219.84489,34.7596178 220.308455,34.2788462 C220.772021,33.7980745 221.0038,33.2115419 221.0038,32.5192308 C221.0038,32.3399025 220.987861,32.1668257 220.955982,32 L226.138465,32 C226.106995,32.1668257 226.09126,32.3399025 226.09126,32.5192308 C226.09126,33.1987213 226.320105,33.7820488 226.777803,34.2692308 C227.2355,34.7564127 227.775341,35 228.39734,35 C229.019339,35 229.55918,34.7564127 230.016877,34.2692308 C230.474575,33.7820488 230.70342,33.1987213 230.70342,32.5192308 C230.70342,32.3399025 230.687685,32.1668257 230.656215,32 L235.838085,32 C235.806615,32.1668257 235.79088,32.3399025 235.79088,32.5192308 C235.79088,33.1987213 236.019725,33.7820488 236.477423,34.2692308 C236.93512,34.7564127 237.474961,35 238.09696,35 C238.707223,35 239.24413,34.7596178 239.707695,34.2788462 C240.171261,33.7980745 240.40304,33.2115419 240.40304,32.5192308 C240.40304,32.3399025 240.387101,32.1668257 240.355222,32 L245.537705,32 C245.506235,32.1668257 245.4905,32.3399025 245.4905,32.5192308 C245.4905,33.1987213 245.719345,33.7820488 246.177043,34.2692308 C246.63474,34.7564127 247.174581,35 247.79658,35 C248.406843,35 248.94375,34.7596178 249.407315,34.2788462 C249.870881,33.7980745 250.10266,33.2115419 250.10266,32.5192308 C250.10266,32.3399025 250.086721,32.1668257 250.054842,32 L255.237325,32 C255.205855,32.1668257 255.19012,32.3399025 255.19012,32.5192308 C255.19012,33.1987213 255.418965,33.7820488 255.876663,34.2692308 C256.33436,34.7564127 256.874201,35 257.4962,35 C258.118199,35 258.65804,34.7564127 259.115737,34.2692308 C259.573435,33.7820488 259.80228,33.1987213 259.80228,32.5192308 C259.80228,32.3399025 259.786545,32.1668257 259.755075,32 L264.936945,32 C264.905475,32.1668257 264.88974,32.3399025 264.88974,32.5192308 C264.88974,33.1987213 265.118585,33.7820488 265.576283,34.2692308 C266.03398,34.7564127 266.573821,35 267.19582,35 C267.806083,35 268.34299,34.7596178 268.806555,34.2788462 C269.270121,33.7980745 269.5019,33.2115419 269.5019,32.5192308 C269.5019,32.3399025 269.485961,32.1668257 269.454082,32 L274.636565,32 C274.605095,32.1668257 274.58936,32.3399025 274.58936,32.5192308 C274.58936,33.1987213 274.818205,33.7820488 275.275903,34.2692308 C275.7336,34.7564127 276.273441,35 276.89544,35 C277.505703,35 278.04261,34.7596178 278.506175,34.2788462 C278.969741,33.7980745 279.20152,33.2115419 279.20152,32.5192308 C279.20152,32.3399025 279.185581,32.1668257 279.153702,32 L284.336185,32 C284.304715,32.1668257 284.28898,32.3399025 284.28898,32.5192308 C284.28898,33.1987213 284.517825,33.7820488 284.975523,34.2692308 C285.43322,34.7564127 285.97306,35 286.59506,35 C287.217059,35 287.756899,34.7564127 288.214597,34.2692308 C288.672295,33.7820488 288.90114,33.1987213 288.90114,32.5192308 C288.90114,32.3399025 288.885405,32.1668257 288.853935,32 L294.035805,32 C294.004335,32.1668257 293.9886,32.3399025 293.9886,32.5192308 C293.9886,33.1987213 294.217445,33.7820488 294.675143,34.2692308 C295.13284,34.7564127 295.67268,35 296.29468,35 C296.904943,35 297.44185,34.7596178 297.905415,34.2788462 C298.368981,33.7980745 298.60076,33.2115419 298.60076,32.5192308 C298.60076,32.3399025 298.584821,32.1668257 298.552942,32 L303.735425,32 C303.703955,32.1668257 303.68822,32.3399025 303.68822,32.5192308 C303.68822,33.1987213 303.917065,33.7820488 304.374762,34.2692308 C304.83246,34.7564127 305.3723,35 305.9943,35 C306.604563,35 307.14147,34.7596178 307.605035,34.2788462 C308.068601,33.7980745 308.30038,33.2115419 308.30038,32.5192308 C308.30038,32.3399025 308.284441,32.1668257 308.252562,32 L313.435045,32 C313.403575,32.1668257 313.387839,32.3399025 313.387839,32.5192308 C313.387839,33.1987213 313.616685,33.7820488 314.074382,34.2692308 C314.53208,34.7564127 315.07192,35 315.69392,35 C316.315919,35 316.855759,34.7564127 317.313457,34.2692308 C317.771155,33.7820488 318,33.1987213 318,32.5192308 C318,32.3399025 317.984265,32.1668257 317.952795,32 L320,32 L320,40 L0,40 L0,32 L3.04720534,32 Z" id="Rectangle-2" fill="#FFFFFF"></path>
    </g>
</svg>