<?xml version="1.0" encoding="UTF-8"?>
<svg width="320px" height="180px" viewBox="0 0 320 180" version="1.1" xmlns="http://www.w3.org/2000/svg" xmlns:xlink="http://www.w3.org/1999/xlink">
    <!-- Generator: Sketch 54.1 (76490) - https://sketchapp.com -->
    <title>blog</title>
    <desc>Created with Sketch.</desc>
    <g id="blog" stroke="none" stroke-width="1" fill="none" fill-rule="evenodd">
        <rect fill="#FFFFFF" x="0" y="0" width="320" height="180"></rect>
        <path d="M63.7697769,71.6243094 C64.8515943,72.3738527 65.7305578,73.3150266 66.4066937,74.4478591 C67.0828296,75.5806917 67.4208925,76.9136664 67.4208925,78.4468232 C67.4208925,80.2866114 67.036346,81.8410388 66.2672414,83.1101519 C65.4981368,84.3792651 64.3952066,85.3800608 62.9584178,86.1125691 C61.4371121,86.8961826 59.6834109,87.4498142 57.6972617,87.7734807 C55.7111124,88.0971471 53.3742528,88.2589779 50.6866126,88.2589779 L32,88.2589779 L32,86.265884 C32.5240053,86.2147787 33.1832279,86.1381221 33.9776876,86.0359116 C34.7721473,85.9337011 35.3299511,85.8144574 35.6511156,85.6781768 C36.2765413,85.4226507 36.7033457,85.086213 36.9315416,84.6688536 C37.1597374,84.2514942 37.2738337,83.7106387 37.2738337,83.0462707 L37.2738337,57.4937845 C37.2738337,56.8805218 37.1808664,56.3694772 36.994929,55.9606354 C36.8089916,55.5517935 36.3610583,55.1940623 35.6511156,54.8874309 C35.1271103,54.665975 34.5185971,54.4828506 33.8255578,54.3380525 C33.1325185,54.1932543 32.5240053,54.0782693 32,53.9930939 L32,52 L51.5486815,52 C56.4675702,52 60.0172305,52.6813928 62.1977688,54.0441989 C64.378307,55.407005 65.4685598,57.4171138 65.4685598,60.0745856 C65.4685598,61.3011111 65.2234642,62.3785635 64.7332657,63.3069751 C64.2430672,64.2353868 63.5415867,65.040282 62.6288032,65.7216851 C61.8005368,66.3519829 60.8117028,66.8970971 59.6622718,67.3570442 C58.5128408,67.8169913 57.2789113,68.2002747 55.9604462,68.5069061 L55.9604462,68.9924033 C57.2789113,69.1286839 58.6480659,69.4225346 60.0679513,69.8739641 C61.4878367,70.3253936 62.7217662,70.9088362 63.7697769,71.6243094 Z M55.6054767,60.7133978 C55.6054767,58.7032588 55.0434471,57.1360553 53.9193712,56.0117403 C52.7952953,54.8874253 51.1092066,54.3252762 48.8610548,54.3252762 C48.5398902,54.3252762 48.1215374,54.3380524 47.6059838,54.363605 C47.0904301,54.3891576 46.6467226,54.4104511 46.2748479,54.4274862 L46.2748479,67.8680939 L47.5933063,67.8680939 C50.3316567,67.8680939 52.3515824,67.2250295 53.653144,65.9388812 C54.9547056,64.652733 55.6054767,62.9109226 55.6054767,60.7133978 Z M57.3803245,78.1146409 C57.3803245,75.5934496 56.6365862,73.6599975 55.1490872,72.3142265 C53.6615882,70.9684555 51.5233405,70.2955801 48.7342799,70.2955801 C48.4131154,70.2955801 47.986311,70.3083562 47.453854,70.3339088 C46.9213969,70.3594615 46.5283988,70.380755 46.2748479,70.3977901 L46.2748479,83.6595304 C46.4269784,84.2898282 46.9002665,84.8221663 47.6947262,85.2565608 C48.4891859,85.6909552 49.4526651,85.9081492 50.5851927,85.9081492 C52.596697,85.9081492 54.2320762,85.2267564 55.4913793,83.8639503 C56.7506824,82.5011442 57.3803245,80.5847269 57.3803245,78.1146409 Z M80,84.0172652 C80,85.3630362 79.505583,86.5299214 78.5167343,87.5179558 C77.5278855,88.5059902 76.3573428,89 75.005071,89 C73.6358958,89 72.4569015,88.5102489 71.4680527,87.530732 C70.479204,86.5512152 69.984787,85.3800713 69.984787,84.0172652 C69.984787,82.6544591 70.479204,81.4747978 71.4680527,80.4782459 C72.4569015,79.4816939 73.6358958,78.9834254 75.005071,78.9834254 C76.3573428,78.9834254 77.5278855,79.4859526 78.5167343,80.4910221 C79.505583,81.4960916 80,82.6714942 80,84.0172652 Z" id="B." fill="#191F2C" fill-rule="nonzero"></path>
        <text id="—-Hiểu-hơn-về-Chanch" font-family="Georgia-Italic, Georgia" font-size="14" font-style="italic" font-weight="normal" line-spacing="22" fill="#5D6A80">
            <tspan x="30" y="125">— Hiểu hơn về Chanchan qua những bài </tspan>
            <tspan x="30" y="147">viết</tspan>
        </text>
    </g>
</svg>