<?xml version="1.0" encoding="UTF-8"?>
<svg width="320px" height="192px" viewBox="0 0 320 192" version="1.1" xmlns="http://www.w3.org/2000/svg" xmlns:xlink="http://www.w3.org/1999/xlink">
    <!-- Generator: Sketch 54.1 (76490) - https://sketchapp.com -->
    <title>blog</title>
    <desc>Created with Sketch.</desc>
    <g id="blog" stroke="none" stroke-width="1" fill="none" fill-rule="evenodd">
        <rect fill="#FFFFFF" x="0" y="0" width="320" height="192"></rect>
        <path d="M63.5664062,71.4707031 C64.649745,72.2154985 65.5299445,73.1507105 66.2070312,74.2763672 C66.884118,75.4020239 67.2226562,76.7265549 67.2226562,78.25 C67.2226562,80.0781341 66.837569,81.622715 66.0673828,82.8837891 C65.2971967,84.1448631 64.1927155,85.1393193 62.7539062,85.8671875 C61.2304611,86.6458372 59.4742938,87.1959619 57.4853516,87.5175781 C55.4964093,87.8391943 53.1562635,88 50.4648438,88 L31.7519531,88 L31.7519531,86.0195312 C32.2766953,85.9687497 32.936845,85.8925786 33.7324219,85.7910156 C34.5279988,85.6894526 35.0865869,85.5709642 35.4082031,85.4355469 C36.0345083,85.1816394 36.4619129,84.8473328 36.6904297,84.4326172 C36.9189465,84.0179016 37.0332031,83.4804721 37.0332031,82.8203125 L37.0332031,57.4296875 C37.0332031,56.8203095 36.9401051,56.312502 36.7539062,55.90625 C36.5677074,55.499998 36.1191442,55.1445328 35.4082031,54.8398438 C34.8834609,54.6197906 34.274092,54.4378262 33.5800781,54.2939453 C32.8860642,54.1500644 32.2766953,54.0358077 31.7519531,53.9511719 L31.7519531,51.9707031 L51.328125,51.9707031 C56.2539309,51.9707031 59.8085828,52.6477797 61.9921875,54.0019531 C64.1757922,55.3561266 65.2675781,57.3535024 65.2675781,59.9941406 C65.2675781,61.2128967 65.0221379,62.283524 64.53125,63.2060547 C64.0403621,64.1285853 63.3378952,64.928382 62.4238281,65.6054688 C61.5943969,66.231774 60.6041724,66.7734352 59.453125,67.2304688 C58.3020776,67.6875023 57.0664129,68.0683579 55.7460938,68.3730469 L55.7460938,68.8554688 C57.0664129,68.9908861 58.4374929,69.2828754 59.859375,69.7314453 C61.2812571,70.1800153 62.5169218,70.7597621 63.5664062,71.4707031 Z M55.390625,60.6289062 C55.390625,58.6315004 54.8278051,57.0742243 53.7021484,55.9570312 C52.5764918,54.8398382 50.8880321,54.28125 48.6367188,54.28125 C48.3151026,54.28125 47.8961614,54.2939452 47.3798828,54.3193359 C46.8636042,54.3447267 46.4192727,54.3658853 46.046875,54.3828125 L46.046875,67.7382812 L47.3671875,67.7382812 C50.1093887,67.7382812 52.1321549,67.0992902 53.4355469,65.8212891 C54.7389388,64.5432879 55.390625,62.8125109 55.390625,60.6289062 Z M57.1679688,77.9199219 C57.1679688,75.414701 56.4231845,73.4934963 54.9335938,72.15625 C53.444003,70.8190037 51.3027483,70.1503906 48.5097656,70.1503906 C48.1881494,70.1503906 47.7607449,70.1630858 47.2275391,70.1884766 C46.6943333,70.2138673 46.3007825,70.235026 46.046875,70.2519531 L46.046875,83.4296875 C46.1992195,84.0559927 46.6731731,84.5849588 47.46875,85.0166016 C48.2643269,85.4482443 49.229161,85.6640625 50.3632812,85.6640625 C52.3776142,85.6640625 54.0152932,84.9869859 55.2763672,83.6328125 C56.5374412,82.2786391 57.1679688,80.3743612 57.1679688,77.9199219 Z M79.8194531,83.7851562 C79.8194531,85.1224025 79.3243409,86.2818961 78.3341016,87.2636719 C77.3438622,88.2454476 76.1716734,88.7363281 74.8175,88.7363281 C73.4463994,88.7363281 72.2657471,88.2496793 71.2755078,87.2763672 C70.2852685,86.303055 69.7901562,85.1393297 69.7901562,83.7851562 C69.7901562,82.4309828 70.2852685,81.258794 71.2755078,80.2685547 C72.2657471,79.2783154 73.4463994,78.7832031 74.8175,78.7832031 C76.1716734,78.7832031 77.3438622,79.2825471 78.3341016,80.28125 C79.3243409,81.2799529 79.8194531,82.44791 79.8194531,83.7851562 Z" id="B." fill="#191F2C" fill-rule="nonzero"></path>
        <text id="—-Hiểu-hơn-về-Chanch" font-family="Georgia-Italic, Georgia" font-size="14" font-style="italic" font-weight="normal" line-spacing="22" fill="#5D6A80">
            <tspan x="30" y="125">— Hiểu hơn về Chanchan qua những bài </tspan>
            <tspan x="30" y="147">viết</tspan>
        </text>
        <path d="M3.04720534,183 C3.01573507,183.166826 3,183.339903 3,183.519231 C3,184.198721 3.22884537,184.782049 3.68654298,185.269231 C4.14424058,185.756413 4.68408094,186 5.30608025,186 C5.91634372,186 6.45325017,185.759618 6.91681569,185.278846 C7.38038122,184.798075 7.6121605,184.211542 7.6121605,183.519231 C7.6121605,183.339903 7.59622108,183.166826 7.5643421,183 L12.7468253,183 C12.7153551,183.166826 12.69962,183.339903 12.69962,183.519231 C12.69962,184.198721 12.9284654,184.782049 13.386163,185.269231 C13.8438606,185.756413 14.3837009,186 15.0057002,186 C15.6159637,186 16.1528702,185.759618 16.6164357,185.278846 C17.0800012,184.798075 17.3117805,184.211542 17.3117805,183.519231 C17.3117805,183.339903 17.2958411,183.166826 17.2639621,183 L22.4464453,183 C22.414975,183.166826 22.39924,183.339903 22.39924,183.519231 C22.39924,184.198721 22.6280853,184.782049 23.0857829,185.269231 C23.5434805,185.756413 24.0833209,186 24.7053202,186 C25.3273195,186 25.8671599,185.756413 26.3248575,185.269231 C26.7825551,184.782049 27.0114005,184.198721 27.0114005,183.519231 C27.0114005,183.339903 26.9956654,183.166826 26.9641951,183 L32.1460653,183 C32.114595,183.166826 32.09886,183.339903 32.09886,183.519231 C32.09886,184.198721 32.3277053,184.782049 32.7854029,185.269231 C33.2431005,185.756413 33.7829409,186 34.4049402,186 C35.0152037,186 35.5521101,185.759618 36.0156756,185.278846 C36.4792412,184.798075 36.7110205,184.211542 36.7110205,183.519231 C36.7110205,183.339903 36.695081,183.166826 36.6632021,183 L41.8456853,183 C41.814215,183.166826 41.7984799,183.339903 41.7984799,183.519231 C41.7984799,184.198721 42.0273253,184.782049 42.4850229,185.269231 C42.9427205,185.756413 43.4825609,186 44.1045602,186 C44.7148237,186 45.2517301,185.759618 45.7152956,185.278846 C46.1788612,184.798075 46.4106404,184.211542 46.4106404,183.519231 C46.4106404,183.339903 46.394701,183.166826 46.362822,183 L51.5453053,183 C51.513835,183.166826 51.4980999,183.339903 51.4980999,183.519231 C51.4980999,184.198721 51.7269453,184.782049 52.1846429,185.269231 C52.6423405,185.756413 53.1821809,186 53.8041802,186 C54.4261795,186 54.9660198,185.756413 55.4237174,185.269231 C55.8814151,184.782049 56.1102604,184.198721 56.1102604,183.519231 C56.1102604,183.339903 56.0945254,183.166826 56.0630551,183 L61.2449252,183 C61.213455,183.166826 61.1977199,183.339903 61.1977199,183.519231 C61.1977199,184.198721 61.4265653,184.782049 61.8842629,185.269231 C62.3419605,185.756413 62.8818008,186 63.5038002,186 C64.1140636,186 64.6509701,185.759618 65.1145356,185.278846 C65.5781011,184.798075 65.8098804,184.211542 65.8098804,183.519231 C65.8098804,183.339903 65.793941,183.166826 65.762062,183 L70.9445452,183 C70.913075,183.166826 70.8973399,183.339903 70.8973399,183.519231 C70.8973399,184.198721 71.1261853,184.782049 71.5838829,185.269231 C72.0415805,185.756413 72.5814208,186 73.2034201,186 C73.8136836,186 74.3505901,185.759618 74.8141556,185.278846 C75.2777211,184.798075 75.5095004,184.211542 75.5095004,183.519231 C75.5095004,183.339903 75.493561,183.166826 75.461682,183 L80.6441652,183 C80.6126949,183.166826 80.5969599,183.339903 80.5969599,183.519231 C80.5969599,184.198721 80.8258052,184.782049 81.2835029,185.269231 C81.7412005,185.756413 82.2810408,186 82.9030401,186 C83.5250394,186 84.0648798,185.756413 84.5225774,185.269231 C84.980275,184.782049 85.2091204,184.198721 85.2091204,183.519231 C85.2091204,183.339903 85.1933853,183.166826 85.161915,183 L90.3437852,183 C90.3123149,183.166826 90.2965799,183.339903 90.2965799,183.519231 C90.2965799,184.198721 90.5254252,184.782049 90.9831228,185.269231 C91.4408204,185.756413 91.9806608,186 92.6026601,186 C93.2129236,186 93.74983,185.759618 94.2133956,185.278846 C94.6769611,184.798075 94.9087404,184.211542 94.9087404,183.519231 C94.9087404,183.339903 94.8928009,183.166826 94.860922,183 L100.043405,183 C100.011935,183.166826 99.9961998,183.339903 99.9961998,183.519231 C99.9961998,184.198721 100.225045,184.782049 100.682743,185.269231 C101.14044,185.756413 101.680281,186 102.30228,186 C102.912544,186 103.44945,185.759618 103.913016,185.278846 C104.376581,184.798075 104.60836,184.211542 104.60836,183.519231 C104.60836,183.339903 104.592421,183.166826 104.560542,183 L109.743025,183 C109.711555,183.166826 109.69582,183.339903 109.69582,183.519231 C109.69582,184.198721 109.924665,184.782049 110.382363,185.269231 C110.84006,185.756413 111.379901,186 112.0019,186 C112.623899,186 113.16374,185.756413 113.621437,185.269231 C114.079135,184.782049 114.30798,184.198721 114.30798,183.519231 C114.30798,183.339903 114.292245,183.166826 114.260775,183 L119.442645,183 C119.411175,183.166826 119.39544,183.339903 119.39544,183.519231 C119.39544,184.198721 119.624285,184.782049 120.081983,185.269231 C120.53968,185.756413 121.079521,186 121.70152,186 C122.311784,186 122.84869,185.759618 123.312256,185.278846 C123.775821,184.798075 124.0076,184.211542 124.0076,183.519231 C124.0076,183.339903 123.991661,183.166826 123.959782,183 L129.142265,183 C129.110795,183.166826 129.09506,183.339903 129.09506,183.519231 C129.09506,184.198721 129.323905,184.782049 129.781603,185.269231 C130.2393,185.756413 130.779141,186 131.40114,186 C132.011404,186 132.54831,185.759618 133.011875,185.278846 C133.475441,184.798075 133.70722,184.211542 133.70722,183.519231 C133.70722,183.339903 133.691281,183.166826 133.659402,183 L138.841885,183 C138.810415,183.166826 138.79468,183.339903 138.79468,183.519231 C138.79468,184.198721 139.023525,184.782049 139.481223,185.269231 C139.93892,185.756413 140.478761,186 141.10076,186 C141.722759,186 142.2626,185.756413 142.720297,185.269231 C143.177995,184.782049 143.40684,184.198721 143.40684,183.519231 C143.40684,183.339903 143.391105,183.166826 143.359635,183 L148.541505,183 C148.510035,183.166826 148.4943,183.339903 148.4943,183.519231 C148.4943,184.198721 148.723145,184.782049 149.180843,185.269231 C149.63854,185.756413 150.178381,186 150.80038,186 C151.410643,186 151.94755,185.759618 152.411115,185.278846 C152.874681,184.798075 153.10646,184.211542 153.10646,183.519231 C153.10646,183.339903 153.090521,183.166826 153.058642,183 L158.241125,183 C158.209655,183.166826 158.19392,183.339903 158.19392,183.519231 C158.19392,184.198721 158.422765,184.782049 158.880463,185.269231 C159.33816,185.756413 159.878001,186 160.5,186 C161.110263,186 161.64717,185.759618 162.110735,185.278846 C162.574301,184.798075 162.80608,184.211542 162.80608,183.519231 C162.80608,183.339903 162.790141,183.166826 162.758262,183 L167.940745,183 C167.909275,183.166826 167.89354,183.339903 167.89354,183.519231 C167.89354,184.198721 168.122385,184.782049 168.580083,185.269231 C169.03778,185.756413 169.577621,186 170.19962,186 C170.821619,186 171.36146,185.756413 171.819157,185.269231 C172.276855,184.782049 172.5057,184.198721 172.5057,183.519231 C172.5057,183.339903 172.489965,183.166826 172.458495,183 L177.640365,183 C177.608895,183.166826 177.59316,183.339903 177.59316,183.519231 C177.59316,184.198721 177.822005,184.782049 178.279703,185.269231 C178.7374,185.756413 179.277241,186 179.89924,186 C180.509503,186 181.04641,185.759618 181.509975,185.278846 C181.973541,184.798075 182.20532,184.211542 182.20532,183.519231 C182.20532,183.339903 182.189381,183.166826 182.157502,183 L187.339985,183 C187.308515,183.166826 187.29278,183.339903 187.29278,183.519231 C187.29278,184.198721 187.521625,184.782049 187.979323,185.269231 C188.43702,185.756413 188.976861,186 189.59886,186 C190.209123,186 190.74603,185.759618 191.209595,185.278846 C191.673161,184.798075 191.90494,184.211542 191.90494,183.519231 C191.90494,183.339903 191.889001,183.166826 191.857122,183 L197.039605,183 C197.008135,183.166826 196.9924,183.339903 196.9924,183.519231 C196.9924,184.198721 197.221245,184.782049 197.678943,185.269231 C198.13664,185.756413 198.676481,186 199.29848,186 C199.920479,186 200.46032,185.756413 200.918017,185.269231 C201.375715,184.782049 201.60456,184.198721 201.60456,183.519231 C201.60456,183.339903 201.588825,183.166826 201.557355,183 L206.739225,183 C206.707755,183.166826 206.69202,183.339903 206.69202,183.519231 C206.69202,184.198721 206.920865,184.782049 207.378563,185.269231 C207.83626,185.756413 208.376101,186 208.9981,186 C209.608363,186 210.14527,185.759618 210.608835,185.278846 C211.072401,184.798075 211.30418,184.211542 211.30418,183.519231 C211.30418,183.339903 211.288241,183.166826 211.256362,183 L216.438845,183 C216.407375,183.166826 216.39164,183.339903 216.39164,183.519231 C216.39164,184.198721 216.620485,184.782049 217.078183,185.269231 C217.53588,185.756413 218.075721,186 218.69772,186 C219.307983,186 219.84489,185.759618 220.308455,185.278846 C220.772021,184.798075 221.0038,184.211542 221.0038,183.519231 C221.0038,183.339903 220.987861,183.166826 220.955982,183 L226.138465,183 C226.106995,183.166826 226.09126,183.339903 226.09126,183.519231 C226.09126,184.198721 226.320105,184.782049 226.777803,185.269231 C227.2355,185.756413 227.775341,186 228.39734,186 C229.019339,186 229.55918,185.756413 230.016877,185.269231 C230.474575,184.782049 230.70342,184.198721 230.70342,183.519231 C230.70342,183.339903 230.687685,183.166826 230.656215,183 L235.838085,183 C235.806615,183.166826 235.79088,183.339903 235.79088,183.519231 C235.79088,184.198721 236.019725,184.782049 236.477423,185.269231 C236.93512,185.756413 237.474961,186 238.09696,186 C238.707223,186 239.24413,185.759618 239.707695,185.278846 C240.171261,184.798075 240.40304,184.211542 240.40304,183.519231 C240.40304,183.339903 240.387101,183.166826 240.355222,183 L245.537705,183 C245.506235,183.166826 245.4905,183.339903 245.4905,183.519231 C245.4905,184.198721 245.719345,184.782049 246.177043,185.269231 C246.63474,185.756413 247.174581,186 247.79658,186 C248.406843,186 248.94375,185.759618 249.407315,185.278846 C249.870881,184.798075 250.10266,184.211542 250.10266,183.519231 C250.10266,183.339903 250.086721,183.166826 250.054842,183 L255.237325,183 C255.205855,183.166826 255.19012,183.339903 255.19012,183.519231 C255.19012,184.198721 255.418965,184.782049 255.876663,185.269231 C256.33436,185.756413 256.874201,186 257.4962,186 C258.118199,186 258.65804,185.756413 259.115737,185.269231 C259.573435,184.782049 259.80228,184.198721 259.80228,183.519231 C259.80228,183.339903 259.786545,183.166826 259.755075,183 L264.936945,183 C264.905475,183.166826 264.88974,183.339903 264.88974,183.519231 C264.88974,184.198721 265.118585,184.782049 265.576283,185.269231 C266.03398,185.756413 266.573821,186 267.19582,186 C267.806083,186 268.34299,185.759618 268.806555,185.278846 C269.270121,184.798075 269.5019,184.211542 269.5019,183.519231 C269.5019,183.339903 269.485961,183.166826 269.454082,183 L274.636565,183 C274.605095,183.166826 274.58936,183.339903 274.58936,183.519231 C274.58936,184.198721 274.818205,184.782049 275.275903,185.269231 C275.7336,185.756413 276.273441,186 276.89544,186 C277.505703,186 278.04261,185.759618 278.506175,185.278846 C278.969741,184.798075 279.20152,184.211542 279.20152,183.519231 C279.20152,183.339903 279.185581,183.166826 279.153702,183 L284.336185,183 C284.304715,183.166826 284.28898,183.339903 284.28898,183.519231 C284.28898,184.198721 284.517825,184.782049 284.975523,185.269231 C285.43322,185.756413 285.97306,186 286.59506,186 C287.217059,186 287.756899,185.756413 288.214597,185.269231 C288.672295,184.782049 288.90114,184.198721 288.90114,183.519231 C288.90114,183.339903 288.885405,183.166826 288.853935,183 L294.035805,183 C294.004335,183.166826 293.9886,183.339903 293.9886,183.519231 C293.9886,184.198721 294.217445,184.782049 294.675143,185.269231 C295.13284,185.756413 295.67268,186 296.29468,186 C296.904943,186 297.44185,185.759618 297.905415,185.278846 C298.368981,184.798075 298.60076,184.211542 298.60076,183.519231 C298.60076,183.339903 298.584821,183.166826 298.552942,183 L303.735425,183 C303.703955,183.166826 303.68822,183.339903 303.68822,183.519231 C303.68822,184.198721 303.917065,184.782049 304.374762,185.269231 C304.83246,185.756413 305.3723,186 305.9943,186 C306.604563,186 307.14147,185.759618 307.605035,185.278846 C308.068601,184.798075 308.30038,184.211542 308.30038,183.519231 C308.30038,183.339903 308.284441,183.166826 308.252562,183 L313.435045,183 C313.403575,183.166826 313.387839,183.339903 313.387839,183.519231 C313.387839,184.198721 313.616685,184.782049 314.074382,185.269231 C314.53208,185.756413 315.07192,186 315.69392,186 C316.315919,186 316.855759,185.756413 317.313457,185.269231 C317.771155,184.782049 318,184.198721 318,183.519231 C318,183.339903 317.984265,183.166826 317.952795,183 L320,183 L320,192 L0,192 L0,183 L3.04720534,183 Z" id="Rectangle-2" fill="#F0F6FA"></path>
    </g>
</svg>