<?xml version="1.0" encoding="UTF-8"?>
<svg width="320px" height="574px" viewBox="0 0 320 574" version="1.1" xmlns="http://www.w3.org/2000/svg" xmlns:xlink="http://www.w3.org/1999/xlink">
    <!-- Generator: Sketch 54.1 (76490) - https://sketchapp.com -->
    <title>vaitrocuachanchan</title>
    <desc>Created with Sketch.</desc>
    <g id="vaitrocuachanchan" stroke="none" stroke-width="1" fill="none" fill-rule="evenodd">
        <rect fill="#FFFFFF" x="0" y="0" width="320" height="574"></rect>
        <text id="Vai-trò-của-Chanchan" font-family="SFCompactDisplay-Semibold, SF Compact Display" font-size="18" font-weight="500" line-spacing="20" letter-spacing="-0.54" fill="#343D51">
            <tspan x="30" y="109">Vai trò của Chanchan trong các Sự </tspan>
            <tspan x="30" y="129">kiện?</tspan>
        </text>
        <path d="M40.7137331,72 C39.1005722,72 37.6760217,71.7564127 36.4400387,71.2692308 C35.2040557,70.7820488 34.1856907,70.1174464 33.384913,69.2754036 C32.5841353,68.4213316 31.9864623,67.4108954 31.5918762,66.2440646 C31.1972901,65.0772338 31,63.808174 31,62.4368471 C31,61.185812 31.24081,59.9949408 31.7224371,58.8641975 C32.2040643,57.7334543 32.8568624,56.7410616 33.6808511,55.8869896 C34.5280507,55.0088592 35.5812316,54.3081698 36.8404255,53.7849003 C38.0996194,53.2616308 39.4893541,53 41.0096712,53 C43.1450784,53 44.8336495,53.4180078 46.0754352,54.2540361 C47.3172209,55.0900643 47.9381044,56.2177833 47.9381044,57.637227 C47.9381044,58.5033282 47.7176038,59.2010103 47.2765957,59.7302944 C46.8355877,60.2595785 46.0754406,60.5242165 44.9961315,60.5242165 C44.125721,60.5242165 43.3974884,60.3076945 42.811412,59.8746439 C42.2253356,59.4415933 41.9323017,58.8762301 41.9323017,58.1785375 C41.9323017,57.5891075 42.0251441,57.0057009 42.2108317,56.4283001 C42.3965193,55.8508993 42.5067697,55.4118407 42.5415861,55.1111111 C42.4139259,54.8945858 42.2514517,54.729187 42.0541586,54.6149098 C41.8568656,54.5006325 41.5493251,54.4434948 41.131528,54.4434948 C40.6092817,54.4434948 40.1334644,54.5697993 39.7040619,54.8224122 C39.2746594,55.075025 38.8742765,55.5200981 38.5029014,56.1576448 C38.1431317,56.759104 37.8559005,57.5650472 37.6411992,58.5754986 C37.426498,59.58595 37.3191489,60.8008793 37.3191489,62.2203229 C37.3191489,64.3615175 37.8036702,66.0876794 38.7727273,67.3988604 C39.7417843,68.7100414 40.899413,69.365622 42.245648,69.365622 C43.5338556,69.365622 44.5580233,69.0679042 45.3181818,68.4724596 C46.0783404,67.8770151 46.7543491,67.0319776 47.3462282,65.9373219 L48.6518375,66.8755935 C48.2920678,67.6093737 47.8626717,68.2799906 47.3636364,68.8874644 C46.864601,69.4949381 46.266928,70.033236 45.5705996,70.5023742 C44.8394548,70.9955707 44.0967156,71.3684698 43.3423598,71.6210826 C42.588004,71.8736955 41.7118038,72 40.7137331,72 Z M58,68.4273504 C58,69.3776559 57.660545,70.2016426 56.9816248,70.8993352 C56.3027045,71.5970279 55.4990375,71.9458689 54.5705996,71.9458689 C53.6305562,71.9458689 52.8210866,71.6000351 52.1421663,70.9083571 C51.4632461,70.216679 51.1237911,69.3896851 51.1237911,68.4273504 C51.1237911,67.4650158 51.4632461,66.6320073 52.1421663,65.9283001 C52.8210866,65.2245929 53.6305562,64.8727445 54.5705996,64.8727445 C55.4990375,64.8727445 56.3027045,65.2276001 56.9816248,65.9373219 C57.660545,66.6470438 58,67.4770449 58,68.4273504 Z" id="c." fill="#343D51" fill-rule="nonzero"></path>
        <text id="Sự-kiện-được-tạo-ra" font-family="SFCompactDisplay-Regular, SF Compact Display" font-size="15" font-weight="normal" line-spacing="22" fill="#343D51">
            <tspan x="30" y="162">Sự kiện được tạo ra bởi Cộng đồng là </tspan>
            <tspan x="30" y="184">hoạt động riêng tư của mọi người. </tspan>
            <tspan x="30" y="206">Chanchan không tổ chức &amp; can thiệp. </tspan>
        </text>
        <text id="Vai-trò-&amp;-ý-nghĩa-củ" font-family="SFCompactDisplay-Regular, SF Compact Display" font-size="15" font-weight="normal" line-spacing="22" fill="#343D51">
            <tspan x="30" y="240">Vai trò &amp; ý nghĩa của Chanchan trong </tspan>
            <tspan x="30" y="262">các Sự kiện là tìm chọn Thành viên tham </tspan>
            <tspan x="30" y="284">gia theo Logic ưu tiên triển vọng, để mọi </tspan>
            <tspan x="30" y="306">người có thể gặp gỡ hoặc gặp lại đối </tspan>
            <tspan x="30" y="328">phương có nhiều triển vọng nhất với </tspan>
            <tspan x="30" y="350">mình ở đó theo cách tự đơn giản nhất &amp; </tspan>
            <tspan x="30" y="372">tự nhiên nhất. </tspan>
        </text>
        <text id="Để-làm-được-điều-này" font-family="SFCompactDisplay-Regular, SF Compact Display" font-size="15" font-weight="normal" line-spacing="22" fill="#343D51">
            <tspan x="30" y="406">Để làm được điều này Chanchan sử </tspan>
            <tspan x="30" y="428">dụng công nghệ để liên tục đo lường &amp; </tspan>
            <tspan x="30" y="450">so sánh triển vọng giữa các cặp đôi. Từ </tspan>
            <tspan x="30" y="472">đó chọn ra được Sự kiện mà Thành viên </tspan>
            <tspan x="30" y="494">gặp được người có triển vọng nhất với </tspan>
            <tspan x="30" y="516">mình ở đó.</tspan>
        </text>
        <text id="……………………………………………………" font-family="Georgia-Italic, Georgia" font-size="14" font-style="italic" font-weight="normal" line-spacing="22" fill="#DADFE7">
            <tspan x="0" y="565">…………………………………………………………………………</tspan>
        </text>
    </g>
</svg>