<?xml version="1.0" encoding="UTF-8"?>
<svg width="320px" height="302px" viewBox="0 0 320 302" version="1.1" xmlns="http://www.w3.org/2000/svg" xmlns:xlink="http://www.w3.org/1999/xlink">
    <!-- Generator: Sketch 54.1 (76490) - https://sketchapp.com -->
    <title>1</title>
    <desc>Created with Sketch.</desc>
    <g id="1" stroke="none" stroke-width="1" fill="none" fill-rule="evenodd">
        <rect id="Rectangle" fill="#ECF6FF" x="0" y="0" width="320" height="300"></rect>
        <g id="move" transform="translate(30.000000, 47.000000)">
            <g id="Group">
                <g id="Group-2">
                    <text id="Thanh-toán-online" font-family="GMVDINPro-CondBlack, GMV DIN Cond" font-size="28" font-style="condensed" font-weight="700" line-spacing="28" letter-spacing="-0.84" fill="#1E2432">
                        <tspan x="0" y="21">Thanh toán online</tspan>
                    </text>
                    <text id="—" font-family="GMVDINPro, GMV DIN Pro" font-size="15" font-weight="normal" line-spacing="20" letter-spacing="-0.3" fill="#1E2432">
                        <tspan x="0" y="55">—</tspan>
                    </text>
                    <text id="Bạn-có-thể-chọn-một" font-family="GMVDINPro, GMV DIN Pro" font-size="15" font-weight="normal" line-spacing="20" letter-spacing="-0.3" fill="#343D51">
                        <tspan x="0" y="79">Bạn có thể chọn một trong hai hình thức </tspan>
                        <tspan x="0" y="99">dưới đây.</tspan>
                    </text>
                </g>
            </g>
            <text id="Thanh-toán-qua-Momo" font-family="GMVDINPro-CondBlack, GMV DIN Cond" font-size="18" font-style="condensed" font-weight="700" line-spacing="21" letter-spacing="-0.360000014" fill="#343D51">
                <tspan x="30" y="199">Thanh toán qua Momo</tspan>
            </text>
            <text id="_" font-family="Chalkduster" font-size="14" font-weight="normal" line-spacing="38" fill="#D3117E">
                <tspan x="0" y="203">_</tspan>
            </text>
            <text id="B" font-family="GMVDINPro-CondBlack, GMV DIN Cond" font-size="18" font-style="condensed" font-weight="700" line-spacing="21" letter-spacing="-0.360000014" fill="#343D51">
                <tspan x="0" y="199">B</tspan>
            </text>
            <text id="Chuyển-khoản" font-family="GMVDINPro-CondBlack, GMV DIN Cond" font-size="18" font-style="condensed" font-weight="700" line-spacing="21" letter-spacing="-0.360000014" fill="#343D51">
                <tspan x="30" y="138">Chuyển khoản</tspan>
            </text>
            <text id="_" font-family="Chalkduster" font-size="14" font-weight="normal" line-spacing="38" fill="#43A047">
                <tspan x="0" y="142">_</tspan>
            </text>
            <text id="A" font-family="GMVDINPro-CondBlack, GMV DIN Cond" font-size="18" font-style="condensed" font-weight="700" line-spacing="21" letter-spacing="-0.360000014" fill="#343D51">
                <tspan x="0" y="138">A</tspan>
            </text>
            <text id="……………………………………………………" font-family="GMVDINPro, GMV DIN Pro" font-size="15" font-weight="normal" line-spacing="20" fill="#B9C0CF">
                <tspan x="30" y="160">……………………………………………………</tspan>
            </text>
        </g>
        <path d="M0,278 L17.4177705,278 C25.532023,278 33.3734706,280.929593 39.5,286.25 L39.5,286.25 C44.949329,290.982312 53.050671,290.982312 58.5,286.25 L58.5,286.25 C64.6265294,280.929593 72.467977,278 80.5822295,278 L320,278 L320,302 L0,302 L0,278 Z" id="Rectangle" fill="#FFFFFF"></path>
        <path d="M52.705699,279.382187 L55.5734635,281.825813 C56.0854788,282.262102 56.1468672,283.030854 55.7105783,283.54287 C55.6959136,283.56008 55.6807726,283.576878 55.6651728,283.593245 L55.6651728,283.593245 C55.1725546,284.110094 54.3560562,284.135171 53.8326482,283.649528 L51.8200513,281.782144 C50.1978424,280.27698 47.6852356,280.291464 46.0804866,281.815229 L44.1600999,283.638703 C43.6440547,284.128706 42.8287088,284.108367 42.3377359,283.593245 L42.3377359,283.593245 C41.8695489,283.102029 41.8882173,282.32428 42.3794329,281.856093 C42.3933541,281.842824 42.4075848,281.829885 42.4221133,281.817284 L45.1919908,279.414998 C47.3441828,277.548425 50.5372874,277.534481 52.705699,279.382187 Z" id="Triangle" fill="#FFFFFF" transform="translate(49.000000, 281.000000) scale(1, -1) translate(-49.000000, -281.000000) "></path>
    </g>
</svg>