<?xml version="1.0" encoding="UTF-8"?>
<svg width="320px" height="507px" viewBox="0 0 320 507" version="1.1" xmlns="http://www.w3.org/2000/svg" xmlns:xlink="http://www.w3.org/1999/xlink">
    <title>1</title>
    <g id="Chanchan" stroke="none" stroke-width="1" fill="none" fill-rule="evenodd">
        <g id="iPhone-SE">
            <g id="Group-4" transform="translate(35.000000, 167.000000)">
                <text id="Cách-kết-nối" font-family="SFCompactDisplay-Semibold, SF Compact Display" font-size="24" font-weight="500" letter-spacing="-0.896" fill="#1E2432">
                    <tspan x="0" y="135">Cách kết nối</tspan>
                </text>
                <text id="Hai-bạn-sẽ-cùng-nhau" font-family="SFCompactDisplay-Light, SF Compact Display" font-size="16" font-weight="300" line-spacing="23" fill="#121721">
                    <tspan x="0" y="176">Hai bạn sẽ cùng nhau đi qua các </tspan>
                    <tspan x="0" y="199">Chủ đề. Mỗi chủ đề là một Câu hỏi </tspan>
                    <tspan x="0" y="222">mà cả hai sẽ cần cùng trả lời.</tspan>
                </text>
                <text id="Hướng-dẫn-kết-nối" font-family="SFCompactDisplay-Semibold, SF Compact Display" font-size="30" font-weight="500" letter-spacing="-1.12" fill="#1E2432">
                    <tspan x="0" y="29">Hướng dẫn</tspan>
                    <tspan x="0" y="65">kết nối</tspan>
                </text>
            </g>
            <g id="Group-2" transform="translate(35.000000, 416.000000)" fill="#121721" fill-rule="nonzero">
                <path d="M4.9296875,15 C7.65625,15 9.21875,13.7578125 9.21875,11.8046875 C9.21875,10.4375 8.453125,9.6640625 7.3125,9.4453125 L7.328125,9.375 C8.4140625,9.1171875 9.4609375,8.1328125 9.4609375,6.71875 C9.4609375,5.5703125 8.75,4.3359375 6.4609375,4.3359375 L3.0234375,4.3359375 L1.1484375,15 L4.9296875,15 Z M5.640625,8.984375 L3.359375,8.984375 L4,5.3671875 L6.1171875,5.3671875 C7.6171875,5.3671875 8.234375,5.9140625 8.234375,6.890625 C8.234375,8.2421875 7.078125,8.984375 5.640625,8.984375 Z M5.0546875,13.96875 L2.484375,13.96875 L3.1796875,10.0078125 L5.5546875,10.0078125 C7.3359375,10.0078125 8.0390625,10.765625 8.0390625,11.8046875 C8.0390625,13.234375 6.71875,13.96875 5.0546875,13.96875 Z M16.125,3.09375 L14.75,0.359375 L13.625,0.359375 L15.28125,3.09375 L16.125,3.09375 Z M15.3515625,5.4921875 C16.6015625,5.4921875 17.6484375,4.6328125 17.78125,3.4375 L16.9453125,3.4375 C16.8046875,4.25 16.25,4.7421875 15.4453125,4.7421875 C14.6875,4.7421875 14.1953125,4.3203125 14.1953125,3.6875 C14.1953125,3.578125 14.203125,3.5078125 14.2109375,3.4375 L13.3828125,3.4375 C13.34375,3.5703125 13.3359375,3.6875 13.3359375,3.828125 C13.3359375,4.7421875 14.1015625,5.4921875 15.3515625,5.4921875 Z M13.5078125,15.1328125 C14.78125,15.1328125 15.6015625,14.4375 15.8828125,13.875 L15.9609375,13.875 L15.765625,15 L16.875,15 L17.6796875,10.4375 C17.7578125,10.046875 17.828125,9.59375 17.828125,9.1640625 C17.828125,7.703125 16.8359375,6.6875 14.984375,6.6875 C13.265625,6.6875 12.15625,7.546875 11.9375,8.71875 L13.046875,8.71875 C13.2265625,8.171875 13.8125,7.671875 14.8984375,7.671875 C16.2421875,7.671875 16.7421875,8.46875 16.7421875,9.265625 C16.7421875,9.421875 16.71875,9.6015625 16.703125,9.6953125 L16.6171875,10.2421875 L14.34375,10.2421875 C12.265625,10.2421875 11.1953125,11.1640625 11.0546875,12.5078125 C11.0390625,12.640625 11.0390625,12.765625 11.0390625,12.8671875 C11.0390625,14.2890625 12.15625,15.1328125 13.5078125,15.1328125 Z M13.78125,14.15625 C12.78125,14.15625 12.1875,13.578125 12.1875,12.7578125 C12.1875,11.8984375 12.8515625,11.1796875 14.2421875,11.1796875 L16.4140625,11.1796875 L16.2265625,12.25 C16.0234375,13.3671875 14.9765625,14.15625 13.78125,14.15625 Z M20.8359375,15 L21.6796875,10.1953125 C21.9140625,8.859375 22.75,7.65625 24.21875,7.65625 C25.4375,7.65625 25.90625,8.5 25.90625,9.4609375 C25.90625,9.8203125 25.84375,10.2265625 25.8046875,10.4453125 L25,15 L26.140625,15 L26.9375,10.515625 C27.0078125,10.109375 27.078125,9.6640625 27.078125,9.25 C27.078125,7.9140625 26.3046875,6.6875 24.5546875,6.6875 C23.375,6.6875 22.53125,7.25 22.0859375,8.1875 L22,8.1875 L22.25,6.8203125 L21.1328125,6.8203125 L19.6875,15 L20.8359375,15 Z M31.734375,17.96875 C33.796875,17.96875 35.0234375,16.984375 35.3984375,14.8671875 L36.8125,6.8203125 L35.6875,6.8203125 L35.40625,8.4296875 L35.3125,8.4296875 C35.0703125,7.53125 34.203125,6.6875 32.8046875,6.6875 C31.2890625,6.6875 29.8359375,7.59375 29.4375,9.6875 L29.2578125,10.640625 C29.1953125,10.953125 29.1484375,11.4765625 29.1484375,11.7578125 C29.1484375,13.6875 30.578125,14.8515625 32.09375,14.8515625 C33.3828125,14.8515625 34.15625,14.1875 34.453125,13.46875 L34.546875,13.46875 L34.3359375,14.6640625 C34.0625,16.234375 33.28125,16.9921875 31.8046875,16.9921875 C30.5859375,16.9921875 29.796875,16.3046875 29.796875,15.65625 L29.796875,15.5546875 L29.796875,15.5546875 L28.6796875,15.5546875 C28.6796875,15.5625 28.671875,15.65625 28.671875,15.671875 C28.671875,16.8671875 29.859375,17.96875 31.734375,17.96875 Z M32.4453125,13.890625 C31.140625,13.890625 30.2734375,13.109375 30.2734375,11.5859375 C30.2734375,11.375 30.328125,10.9453125 30.3671875,10.71875 L30.5,10.0390625 C30.7734375,8.5546875 31.640625,7.65625 32.859375,7.65625 C34.125,7.65625 35.0546875,8.5390625 35.0546875,9.9765625 C35.0546875,10.046875 35.0546875,10.28125 34.9765625,10.71875 L34.828125,11.5546875 C34.59375,12.921875 33.65625,13.890625 32.4453125,13.890625 Z M45.234375,15.1328125 C46.875,15.1328125 48.1015625,14.2734375 48.328125,12.984375 L47.1796875,12.984375 C47.03125,13.59375 46.359375,14.125 45.2890625,14.125 C43.8984375,14.125 43.171875,13.2421875 43.171875,11.7578125 C43.171875,11.5 43.1953125,11.25 43.2578125,10.9140625 L43.421875,9.96875 C43.6875,8.484375 44.6015625,7.65625 45.8046875,7.65625 C47.078125,7.65625 47.7265625,8.5078125 47.7265625,9.25 L47.7265625,9.34375 L47.7265625,9.34375 L48.8359375,9.34375 C48.84375,9.3359375 48.84375,9.2578125 48.84375,9.2421875 C48.84375,7.875 47.7265625,6.6875 45.8125,6.6875 C44,6.6875 42.6796875,7.71875 42.34375,9.671875 L42.140625,10.84375 C42.0703125,11.2578125 42.0390625,11.6953125 42.0390625,12.0078125 C42.0390625,13.921875 43.3125,15.1328125 45.234375,15.1328125 Z M54.4921875,5.4609375 L57.1875,2.71875 L55.9140625,2.71875 L53.53125,5.4609375 L54.4921875,5.4609375 Z M52.5625,15.1328125 C53.8359375,15.1328125 54.65625,14.4375 54.9375,13.875 L55.015625,13.875 L54.8203125,15 L55.9296875,15 L56.734375,10.4375 C56.8125,10.046875 56.8828125,9.59375 56.8828125,9.1640625 C56.8828125,7.703125 55.890625,6.6875 54.0390625,6.6875 C52.3203125,6.6875 51.2109375,7.546875 50.9921875,8.71875 L52.1015625,8.71875 C52.28125,8.171875 52.8671875,7.671875 53.953125,7.671875 C55.296875,7.671875 55.796875,8.46875 55.796875,9.265625 C55.796875,9.421875 55.7734375,9.6015625 55.7578125,9.6953125 L55.671875,10.2421875 L53.3984375,10.2421875 C51.3203125,10.2421875 50.25,11.1640625 50.109375,12.5078125 C50.09375,12.640625 50.09375,12.765625 50.09375,12.8671875 C50.09375,14.2890625 51.2109375,15.1328125 52.5625,15.1328125 Z M52.8359375,14.15625 C51.8359375,14.15625 51.2421875,13.578125 51.2421875,12.7578125 C51.2421875,11.8984375 51.90625,11.1796875 53.296875,11.1796875 L55.46875,11.1796875 L55.28125,12.25 C55.078125,13.3671875 54.03125,14.15625 52.8359375,14.15625 Z M62.1015625,15.1328125 C63.7421875,15.1328125 64.96875,14.2734375 65.1953125,12.984375 L64.046875,12.984375 C63.8984375,13.59375 63.2265625,14.125 62.15625,14.125 C60.765625,14.125 60.0390625,13.2421875 60.0390625,11.7578125 C60.0390625,11.5 60.0625,11.25 60.125,10.9140625 L60.2890625,9.96875 C60.5546875,8.484375 61.46875,7.65625 62.671875,7.65625 C63.9453125,7.65625 64.59375,8.5078125 64.59375,9.25 L64.59375,9.34375 L64.59375,9.34375 L65.703125,9.34375 C65.7109375,9.3359375 65.7109375,9.2578125 65.7109375,9.2421875 C65.7109375,7.875 64.59375,6.6875 62.6796875,6.6875 C60.8671875,6.6875 59.546875,7.71875 59.2109375,9.671875 L59.0078125,10.84375 C58.9375,11.2578125 58.90625,11.6953125 58.90625,12.0078125 C58.90625,13.921875 60.1796875,15.1328125 62.1015625,15.1328125 Z M68.1796875,15 L69.0234375,10.1953125 C69.2578125,8.859375 70.109375,7.65625 71.578125,7.65625 C72.796875,7.65625 73.2890625,8.4921875 73.2890625,9.453125 C73.2890625,9.8046875 73.2265625,10.234375 73.1875,10.4453125 L72.3828125,15 L73.53125,15 L74.3203125,10.515625 C74.390625,10.109375 74.4609375,9.65625 74.4609375,9.25 C74.4609375,7.8984375 73.625,6.6875 71.90625,6.6875 C70.6875,6.6875 69.84375,7.28125 69.4296875,8.1875 L69.34375,8.1875 L70.15625,3.7734375 L69.0234375,3.7734375 L67.03125,15 L68.1796875,15 Z M81.2734375,15 L83.2578125,3.7734375 L82.109375,3.7734375 L80.125,15 L81.2734375,15 Z M89.0390625,3.09375 L91.6796875,0.359375 L90.4609375,0.359375 L88.1328125,3.09375 L89.0390625,3.09375 Z M88.5,5.4921875 C89.75,5.4921875 90.796875,4.6328125 90.9296875,3.4375 L90.09375,3.4375 C89.953125,4.25 89.3984375,4.7421875 88.59375,4.7421875 C87.8359375,4.7421875 87.34375,4.3203125 87.34375,3.6875 C87.34375,3.578125 87.3515625,3.5078125 87.359375,3.4375 L86.53125,3.4375 C86.4921875,3.5703125 86.484375,3.6875 86.484375,3.828125 C86.484375,4.7421875 87.25,5.4921875 88.5,5.4921875 Z M86.65625,15.1328125 C87.9296875,15.1328125 88.75,14.4375 89.03125,13.875 L89.109375,13.875 L88.9140625,15 L90.0234375,15 L90.828125,10.4375 C90.90625,10.046875 90.9765625,9.59375 90.9765625,9.1640625 C90.9765625,7.703125 89.984375,6.6875 88.1328125,6.6875 C86.4140625,6.6875 85.3046875,7.546875 85.0859375,8.71875 L86.1953125,8.71875 C86.375,8.171875 86.9609375,7.671875 88.046875,7.671875 C89.390625,7.671875 89.890625,8.46875 89.890625,9.265625 C89.890625,9.421875 89.8671875,9.6015625 89.8515625,9.6953125 L89.765625,10.2421875 L87.4921875,10.2421875 C85.4140625,10.2421875 84.34375,11.1640625 84.203125,12.5078125 C84.1875,12.640625 84.1875,12.765625 84.1875,12.8671875 C84.1875,14.2890625 85.3046875,15.1328125 86.65625,15.1328125 Z M86.9296875,14.15625 C85.9296875,14.15625 85.3359375,13.578125 85.3359375,12.7578125 C85.3359375,11.8984375 86,11.1796875 87.390625,11.1796875 L89.5625,11.1796875 L89.375,12.25 C89.171875,13.3671875 88.125,14.15625 86.9296875,14.15625 Z M93.984375,15 L94.828125,10.1953125 C95.0625,8.859375 95.8984375,7.65625 97.3671875,7.65625 C98.5859375,7.65625 99.0546875,8.5 99.0546875,9.4609375 C99.0546875,9.8203125 98.9921875,10.2265625 98.953125,10.4453125 L98.1484375,15 L99.2890625,15 L100.085938,10.515625 C100.15625,10.109375 100.226562,9.6640625 100.226562,9.25 C100.226562,7.9140625 99.453125,6.6875 97.703125,6.6875 C96.5234375,6.6875 95.6796875,7.25 95.234375,8.1875 L95.1484375,8.1875 L95.3984375,6.8203125 L94.28125,6.8203125 L92.8359375,15 L93.984375,15 Z M104.882812,17.96875 C106.945312,17.96875 108.171875,16.984375 108.546875,14.8671875 L109.960938,6.8203125 L108.835938,6.8203125 L108.554688,8.4296875 L108.460938,8.4296875 C108.21875,7.53125 107.351562,6.6875 105.953125,6.6875 C104.4375,6.6875 102.984375,7.59375 102.585938,9.6875 L102.40625,10.640625 C102.34375,10.953125 102.296875,11.4765625 102.296875,11.7578125 C102.296875,13.6875 103.726562,14.8515625 105.242188,14.8515625 C106.53125,14.8515625 107.304688,14.1875 107.601562,13.46875 L107.695312,13.46875 L107.484375,14.6640625 C107.210938,16.234375 106.429688,16.9921875 104.953125,16.9921875 C103.734375,16.9921875 102.945312,16.3046875 102.945312,15.65625 L102.945312,15.5546875 L102.945312,15.5546875 L101.828125,15.5546875 C101.828125,15.5625 101.820312,15.65625 101.820312,15.671875 C101.820312,16.8671875 103.007812,17.96875 104.882812,17.96875 Z M105.59375,13.890625 C104.289062,13.890625 103.421875,13.109375 103.421875,11.5859375 C103.421875,11.375 103.476562,10.9453125 103.515625,10.71875 L103.648438,10.0390625 C103.921875,8.5546875 104.789062,7.65625 106.007812,7.65625 C107.273438,7.65625 108.203125,8.5390625 108.203125,9.9765625 C108.203125,10.046875 108.203125,10.28125 108.125,10.71875 L107.976562,11.5546875 C107.742188,12.921875 106.804688,13.890625 105.59375,13.890625 Z M116.171875,15 L117.015625,10.1953125 C117.25,8.859375 118.085938,7.65625 119.554688,7.65625 C120.773438,7.65625 121.242188,8.5 121.242188,9.4609375 C121.242188,9.8203125 121.179688,10.2265625 121.140625,10.4453125 L120.335938,15 L121.476562,15 L122.273438,10.515625 C122.34375,10.109375 122.414062,9.6640625 122.414062,9.25 C122.414062,7.9140625 121.640625,6.6875 119.890625,6.6875 C118.710938,6.6875 117.867188,7.25 117.421875,8.1875 L117.335938,8.1875 L117.585938,6.8203125 L116.46875,6.8203125 L115.023438,15 L116.171875,15 Z M127.070312,17.96875 C129.132812,17.96875 130.359375,16.984375 130.734375,14.8671875 L132.148438,6.8203125 L131.023438,6.8203125 L130.742188,8.4296875 L130.648438,8.4296875 C130.40625,7.53125 129.539062,6.6875 128.140625,6.6875 C126.625,6.6875 125.171875,7.59375 124.773438,9.6875 L124.59375,10.640625 C124.53125,10.953125 124.484375,11.4765625 124.484375,11.7578125 C124.484375,13.6875 125.914062,14.8515625 127.429688,14.8515625 C128.71875,14.8515625 129.492188,14.1875 129.789062,13.46875 L129.882812,13.46875 L129.671875,14.6640625 C129.398438,16.234375 128.617188,16.9921875 127.140625,16.9921875 C125.921875,16.9921875 125.132812,16.3046875 125.132812,15.65625 L125.132812,15.5546875 L125.132812,15.5546875 L124.015625,15.5546875 C124.015625,15.5625 124.007812,15.65625 124.007812,15.671875 C124.007812,16.8671875 125.195312,17.96875 127.070312,17.96875 Z M127.78125,13.890625 C126.476562,13.890625 125.609375,13.109375 125.609375,11.5859375 C125.609375,11.375 125.664062,10.9453125 125.703125,10.71875 L125.835938,10.0390625 C126.109375,8.5546875 126.976562,7.65625 128.195312,7.65625 C129.460938,7.65625 130.390625,8.5390625 130.390625,9.9765625 C130.390625,10.046875 130.390625,10.28125 130.3125,10.71875 L130.164062,11.5546875 C129.929688,12.921875 128.992188,13.890625 127.78125,13.890625 Z M134.703125,15 L135.546875,10.1953125 C135.78125,8.859375 136.632812,7.65625 138.101562,7.65625 C139.320312,7.65625 139.8125,8.4921875 139.8125,9.453125 C139.8125,9.8046875 139.75,10.234375 139.710938,10.4453125 L138.90625,15 L140.054688,15 L140.84375,10.515625 C140.914062,10.109375 140.984375,9.65625 140.984375,9.25 C140.984375,7.8984375 140.148438,6.6875 138.429688,6.6875 C137.210938,6.6875 136.367188,7.28125 135.953125,8.1875 L135.867188,8.1875 L136.679688,3.7734375 L135.546875,3.7734375 L133.554688,15 L134.703125,15 Z M146.109375,15.1328125 C147.929688,15.1328125 149.085938,14.015625 149.273438,13.015625 L148.132812,13.015625 C147.96875,13.578125 147.273438,14.125 146.179688,14.125 C144.664062,14.125 144.09375,13.0703125 144.09375,11.9453125 C144.09375,11.6640625 144.132812,11.359375 144.179688,11.1796875 L149.609375,11.1796875 C149.625,11.1015625 149.804688,10.109375 149.804688,10.078125 C150.039062,8.5703125 149.296875,6.6875 146.882812,6.6875 C145,6.6875 143.664062,7.8359375 143.34375,9.6640625 L143.132812,10.8203125 C143.078125,11.109375 143.007812,11.59375 143.007812,12.0546875 C143.007812,14.0625 144.320312,15.1328125 146.109375,15.1328125 Z M148.6875,10.2578125 L144.367188,10.2578125 C144.367188,10.2421875 144.476562,9.7265625 144.476562,9.7109375 C144.773438,8.3125 145.75,7.65625 146.84375,7.65625 C148.273438,7.65625 148.9375,8.734375 148.71875,10.0546875 C148.71875,10.09375 148.695312,10.234375 148.6875,10.2578125 Z M158.640625,15 C162.070312,15 164,13.5625 164.5,10.71875 C164.5,10.6875 164.695312,9.5703125 164.695312,9.5234375 C164.765625,9.1171875 164.789062,8.625 164.789062,8.328125 C164.789062,5.9453125 163.359375,4.3359375 160.53125,4.3359375 L157.664062,4.3359375 L156.820312,9.03125 L155.578125,9.03125 L155.398438,10.0546875 L156.648438,10.0546875 L155.773438,15 L158.640625,15 Z M158.65625,13.96875 L157.125,13.96875 L157.820312,10.0546875 L160.328125,10.0546875 L160.507812,9.03125 L157.992188,9.03125 L158.640625,5.3671875 L160.21875,5.3671875 C162.492188,5.3671875 163.617188,6.453125 163.617188,8.453125 C163.617188,8.734375 163.59375,9.21875 163.539062,9.5234375 C163.539062,9.5703125 163.359375,10.5703125 163.351562,10.6015625 C162.945312,12.8671875 161.226562,13.96875 158.65625,13.96875 Z M174.085938,4.0234375 L176.796875,1.3203125 L175.554688,1.3203125 L173.179688,4.0234375 L174.085938,4.0234375 Z M169.796875,5.453125 L171.398438,3.9375 L171.429688,3.9375 L172.40625,5.453125 L173.359375,5.453125 L171.898438,3.21875 L171.15625,3.21875 L168.757812,5.453125 L169.796875,5.453125 Z M169.84375,15.1328125 C171.875,15.1328125 173.070312,13.96875 173.421875,12.03125 L173.625,10.9140625 C173.6875,10.5703125 173.71875,10.1875 173.71875,9.953125 C173.71875,7.8984375 172.34375,6.6875 170.40625,6.6875 C168.671875,6.6875 167.273438,7.796875 166.929688,9.765625 L166.742188,10.875 C166.671875,11.234375 166.648438,11.625 166.648438,12.0078125 C166.648438,13.96875 168.039062,15.1328125 169.84375,15.1328125 Z M169.984375,14.1328125 C168.601562,14.1328125 167.765625,13.1953125 167.765625,11.828125 C167.765625,11.46875 167.804688,11.2109375 167.851562,10.953125 L168.023438,9.984375 C168.304688,8.3828125 169.234375,7.6875 170.375,7.6875 C171.734375,7.6875 172.578125,8.6328125 172.578125,9.9453125 C172.578125,10.0625 172.570312,10.453125 172.53125,10.703125 L172.351562,11.7421875 C172.085938,13.2734375 171.242188,14.1328125 169.984375,14.1328125 Z M177.726562,5.1875 C178.234375,5.1875 178.609375,4.8203125 178.609375,4.328125 C178.609375,3.828125 178.234375,3.453125 177.726562,3.453125 C177.25,3.453125 176.867188,3.828125 176.867188,4.328125 C176.867188,4.8203125 177.25,5.1875 177.726562,5.1875 Z M176.5625,15 L178,6.8203125 L176.859375,6.8203125 L175.421875,15 L176.5625,15 Z M183.867188,17.703125 L184.617188,13.328125 L184.710938,13.328125 C184.867188,14.078125 185.734375,15.1328125 187.148438,15.1328125 C189.085938,15.1328125 190.289062,13.8359375 190.546875,12.21875 L190.828125,10.6796875 C190.890625,10.359375 190.890625,10.0078125 190.890625,9.734375 C190.890625,7.84375 189.679688,6.6875 187.976562,6.6875 C186.578125,6.6875 185.875,7.5 185.609375,8.1171875 L185.515625,8.1171875 L185.75,6.8203125 L184.632812,6.8203125 L182.71875,17.703125 L183.867188,17.703125 Z M187.109375,14.09375 C186.09375,14.09375 184.960938,13.3203125 184.960938,11.71875 C184.953125,11.6796875 184.960938,11.5078125 184.992188,11.3203125 L185.203125,10.046875 C185.429688,8.65625 186.328125,7.6484375 187.632812,7.6484375 C188.9375,7.6484375 189.789062,8.4921875 189.789062,9.8828125 C189.789062,10.1015625 189.78125,10.390625 189.75,10.5859375 L189.53125,11.828125 C189.304688,13.0625 188.445312,14.09375 187.109375,14.09375 Z M193.601562,15 L194.445312,10.1953125 C194.679688,8.859375 195.53125,7.65625 197,7.65625 C198.21875,7.65625 198.710938,8.4921875 198.710938,9.453125 C198.710938,9.8046875 198.648438,10.234375 198.609375,10.4453125 L197.804688,15 L198.953125,15 L199.742188,10.515625 C199.8125,10.109375 199.882812,9.65625 199.882812,9.25 C199.882812,7.8984375 199.046875,6.6875 197.328125,6.6875 C196.109375,6.6875 195.265625,7.28125 194.851562,8.1875 L194.765625,8.1875 L195.578125,3.7734375 L194.445312,3.7734375 L192.453125,15 L193.601562,15 Z M204.710938,15.1328125 C205.898438,15.1328125 206.757812,14.46875 207.148438,13.5859375 L207.242188,13.5859375 L206.992188,15 L208.070312,15 L209.359375,7.640625 L209.484375,7.640625 C210.804688,7.640625 211.539062,6.7734375 211.75,5.5625 L211.914062,4.609375 L210.890625,4.609375 L210.710938,5.578125 C210.585938,6.3125 210.242188,6.8203125 209.398438,6.8203125 L208.414062,6.8203125 L207.570312,11.5859375 C207.34375,12.921875 206.53125,14.109375 205.070312,14.109375 C203.867188,14.109375 203.289062,13.4140625 203.289062,12.390625 C203.289062,12.0546875 203.34375,11.640625 203.398438,11.34375 L204.210938,6.8203125 L203.078125,6.8203125 L202.257812,11.2734375 C202.1875,11.6484375 202.109375,12.15625 202.109375,12.59375 C202.109375,13.9921875 203.023438,15.1328125 204.710938,15.1328125 Z M215.117188,15.1328125 C217.148438,15.1328125 218.34375,13.96875 218.695312,12.03125 L218.898438,10.9140625 C218.953125,10.5703125 218.984375,10.1875 218.984375,9.953125 C218.984375,9.0234375 218.648438,8.2421875 218.320312,7.84375 L218.34375,7.78125 C219.554688,7.765625 219.960938,6.9609375 220.1875,5.6875 L220.382812,4.609375 L219.351562,4.609375 L219.140625,5.78125 C219,6.5546875 218.609375,7.03125 217.820312,7.03125 C217.085938,7.03125 216.585938,6.6875 215.671875,6.6875 C213.945312,6.6875 212.546875,7.796875 212.203125,9.765625 L212.007812,10.875 C211.945312,11.234375 211.921875,11.625 211.921875,12.0078125 C211.921875,13.96875 213.304688,15.1328125 215.117188,15.1328125 Z M215.257812,14.1328125 C213.875,14.1328125 213.039062,13.1953125 213.039062,11.828125 C213.039062,11.46875 213.070312,11.2109375 213.117188,10.953125 L213.296875,9.984375 C213.578125,8.3828125 214.507812,7.6875 215.648438,7.6875 C217,7.6875 217.84375,8.6328125 217.84375,9.9453125 C217.84375,10.0625 217.84375,10.453125 217.804688,10.703125 L217.625,11.7421875 C217.351562,13.2734375 216.515625,14.1328125 215.257812,14.1328125 Z M221.734375,15 L222.578125,10.1953125 C222.8125,8.859375 223.648438,7.65625 225.117188,7.65625 C226.335938,7.65625 226.804688,8.5 226.804688,9.4609375 C226.804688,9.8203125 226.742188,10.2265625 226.703125,10.4453125 L225.898438,15 L227.039062,15 L227.835938,10.515625 C227.90625,10.109375 227.976562,9.6640625 227.976562,9.25 C227.976562,7.9140625 227.203125,6.6875 225.453125,6.6875 C224.273438,6.6875 223.429688,7.25 222.984375,8.1875 L222.898438,8.1875 L223.148438,6.8203125 L222.03125,6.8203125 L220.585938,15 L221.734375,15 Z M232.632812,17.96875 C234.695312,17.96875 235.921875,16.984375 236.296875,14.8671875 L237.710938,6.8203125 L236.585938,6.8203125 L236.304688,8.4296875 L236.210938,8.4296875 C235.96875,7.53125 235.101562,6.6875 233.703125,6.6875 C232.1875,6.6875 230.734375,7.59375 230.335938,9.6875 L230.15625,10.640625 C230.09375,10.953125 230.046875,11.4765625 230.046875,11.7578125 C230.046875,13.6875 231.476562,14.8515625 232.992188,14.8515625 C234.28125,14.8515625 235.054688,14.1875 235.351562,13.46875 L235.445312,13.46875 L235.234375,14.6640625 C234.960938,16.234375 234.179688,16.9921875 232.703125,16.9921875 C231.484375,16.9921875 230.695312,16.3046875 230.695312,15.65625 L230.695312,15.5546875 L230.695312,15.5546875 L229.578125,15.5546875 C229.578125,15.5625 229.570312,15.65625 229.570312,15.671875 C229.570312,16.8671875 230.757812,17.96875 232.632812,17.96875 Z M233.34375,13.890625 C232.039062,13.890625 231.171875,13.109375 231.171875,11.5859375 C231.171875,11.375 231.226562,10.9453125 231.265625,10.71875 L231.398438,10.0390625 C231.671875,8.5546875 232.539062,7.65625 233.757812,7.65625 C235.023438,7.65625 235.953125,8.5390625 235.953125,9.9765625 C235.953125,10.046875 235.953125,10.28125 235.875,10.71875 L235.726562,11.5546875 C235.492188,12.921875 234.554688,13.890625 233.34375,13.890625 Z M3.6640625,39.0703125 C4.046875,39.0703125 4.5390625,39.0234375 4.765625,38.96875 L4.9375,38.0234375 C4.703125,38.0703125 4.2734375,38.109375 3.9296875,38.109375 C3.21875,38.109375 2.90625,37.8515625 2.90625,37.265625 C2.90625,37.03125 2.9453125,36.7734375 3.0703125,36.0546875 L3.8203125,31.765625 L5.671875,31.765625 L5.84375,30.8203125 L3.9921875,30.8203125 L4.34375,28.7734375 L3.21875,28.7734375 L2.84375,30.8203125 L1.546875,30.8203125 L1.375,31.765625 L2.6796875,31.765625 L1.84375,36.5 C1.7734375,36.9296875 1.7265625,37.296875 1.7265625,37.546875 C1.7265625,38.5625 2.375,39.0703125 3.6640625,39.0703125 Z M8.1171875,39 L8.953125,34.25 C9.1875,32.890625 9.9765625,31.75 11.453125,31.75 C11.65625,31.75 11.9609375,31.7734375 12.125,31.828125 L12.3671875,30.75 C12.2109375,30.7265625 11.9140625,30.6875 11.6875,30.6875 C10.4609375,30.6875 9.6484375,31.4296875 9.3359375,32.203125 L9.25,32.203125 L9.5,30.8203125 L8.4140625,30.8203125 L6.96875,39 L8.1171875,39 Z M17.234375,29.75 C18.1640625,29.34375 18.6328125,28.828125 18.6328125,28.015625 C18.6328125,27.34375 18.09375,26.8359375 17.1875,26.8359375 C16.7421875,26.8359375 16.515625,26.890625 16.3125,26.984375 L16.203125,27.6953125 C16.3828125,27.625 16.6015625,27.5546875 17.0234375,27.5546875 C17.4609375,27.5546875 17.7734375,27.8203125 17.7734375,28.140625 C17.7734375,28.4921875 17.578125,28.765625 16.859375,29.125 L17.234375,29.75 Z M15.2578125,39.1328125 C16.53125,39.1328125 17.3515625,38.4375 17.6328125,37.875 L17.7109375,37.875 L17.515625,39 L18.625,39 L19.4296875,34.4375 C19.5078125,34.046875 19.578125,33.59375 19.578125,33.1640625 C19.578125,31.703125 18.5859375,30.6875 16.734375,30.6875 C15.015625,30.6875 13.90625,31.546875 13.6875,32.71875 L14.796875,32.71875 C14.9765625,32.171875 15.5625,31.671875 16.6484375,31.671875 C17.9921875,31.671875 18.4921875,32.46875 18.4921875,33.265625 C18.4921875,33.421875 18.46875,33.6015625 18.453125,33.6953125 L18.3671875,34.2421875 L16.09375,34.2421875 C14.015625,34.2421875 12.9453125,35.1640625 12.8046875,36.5078125 C12.7890625,36.640625 12.7890625,36.765625 12.7890625,36.8671875 C12.7890625,38.2890625 13.90625,39.1328125 15.2578125,39.1328125 Z M15.53125,38.15625 C14.53125,38.15625 13.9375,37.578125 13.9375,36.7578125 C13.9375,35.8984375 14.6015625,35.1796875 15.9921875,35.1796875 L18.1640625,35.1796875 L17.9765625,36.25 C17.7734375,37.3671875 16.7265625,38.15625 15.53125,38.15625 Z M26.3671875,39 L28.3515625,27.7734375 L27.203125,27.7734375 L25.21875,39 L26.3671875,39 Z M34.6953125,29.4609375 L33.2265625,26.71875 L31.9765625,26.71875 L33.8203125,29.4609375 L34.6953125,29.4609375 Z M32.7265625,39.1328125 C34.7578125,39.1328125 35.953125,37.96875 36.3046875,36.03125 L36.5078125,34.9140625 C36.5625,34.5703125 36.59375,34.1875 36.59375,33.953125 C36.59375,33.0234375 36.2578125,32.2421875 35.9296875,31.84375 L35.953125,31.78125 C37.1640625,31.765625 37.5703125,30.9609375 37.796875,29.6875 L37.9921875,28.609375 L36.9609375,28.609375 L36.75,29.78125 C36.609375,30.5546875 36.21875,31.03125 35.4296875,31.03125 C34.6953125,31.03125 34.1953125,30.6875 33.28125,30.6875 C31.5546875,30.6875 30.15625,31.796875 29.8125,33.765625 L29.6171875,34.875 C29.5546875,35.234375 29.53125,35.625 29.53125,36.0078125 C29.53125,37.96875 30.9140625,39.1328125 32.7265625,39.1328125 Z M32.8671875,38.1328125 C31.484375,38.1328125 30.6484375,37.1953125 30.6484375,35.828125 C30.6484375,35.46875 30.6796875,35.2109375 30.7265625,34.953125 L30.90625,33.984375 C31.1875,32.3828125 32.1171875,31.6875 33.2578125,31.6875 C34.609375,31.6875 35.453125,32.6328125 35.453125,33.9453125 C35.453125,34.0625 35.453125,34.453125 35.4140625,34.703125 L35.234375,35.7421875 C34.9609375,37.2734375 34.125,38.1328125 32.8671875,38.1328125 Z M40.609375,29.1875 C41.1171875,29.1875 41.4921875,28.8203125 41.4921875,28.328125 C41.4921875,27.828125 41.1171875,27.453125 40.609375,27.453125 C40.1328125,27.453125 39.75,27.828125 39.75,28.328125 C39.75,28.8203125 40.1328125,29.1875 40.609375,29.1875 Z M39.4453125,39 L40.8828125,30.8203125 L39.7421875,30.8203125 L38.3046875,39 L39.4453125,39 Z M47.2265625,39 L48.0703125,34.1953125 C48.3046875,32.859375 49.15625,31.65625 50.625,31.65625 C51.84375,31.65625 52.3359375,32.4921875 52.3359375,33.453125 C52.3359375,33.8046875 52.2734375,34.234375 52.234375,34.4453125 L51.4296875,39 L52.578125,39 L53.3671875,34.515625 C53.4375,34.109375 53.5078125,33.65625 53.5078125,33.25 C53.5078125,31.8984375 52.671875,30.6875 50.953125,30.6875 C49.734375,30.6875 48.890625,31.28125 48.4765625,32.1875 L48.390625,32.1875 L49.203125,27.7734375 L48.0703125,27.7734375 L46.078125,39 L47.2265625,39 Z M57.7890625,39.1328125 C59.0625,39.1328125 59.8828125,38.4375 60.1640625,37.875 L60.2421875,37.875 L60.046875,39 L61.15625,39 L61.9609375,34.4375 C62.0390625,34.046875 62.109375,33.59375 62.109375,33.1640625 C62.109375,31.703125 61.1171875,30.6875 59.265625,30.6875 C57.546875,30.6875 56.4375,31.546875 56.21875,32.71875 L57.328125,32.71875 C57.5078125,32.171875 58.09375,31.671875 59.1796875,31.671875 C60.5234375,31.671875 61.0234375,32.46875 61.0234375,33.265625 C61.0234375,33.421875 61,33.6015625 60.984375,33.6953125 L60.8984375,34.2421875 L58.625,34.2421875 C56.546875,34.2421875 55.4765625,35.1640625 55.3359375,36.5078125 C55.3203125,36.640625 55.3203125,36.765625 55.3203125,36.8671875 C55.3203125,38.2890625 56.4375,39.1328125 57.7890625,39.1328125 Z M58.0625,38.15625 C57.0625,38.15625 56.46875,37.578125 56.46875,36.7578125 C56.46875,35.8984375 57.1328125,35.1796875 58.5234375,35.1796875 L60.6953125,35.1796875 L60.5078125,36.25 C60.3046875,37.3671875 59.2578125,38.15625 58.0625,38.15625 Z M66.40625,29.1875 C66.9140625,29.1875 67.2890625,28.8203125 67.2890625,28.328125 C67.2890625,27.828125 66.9140625,27.453125 66.40625,27.453125 C65.9296875,27.453125 65.546875,27.828125 65.546875,28.328125 C65.546875,28.8203125 65.9296875,29.1875 66.40625,29.1875 Z M65.2421875,39 L66.6796875,30.8203125 L65.5390625,30.8203125 L64.1015625,39 L65.2421875,39 Z M75.8828125,39.1328125 C77.796875,39.1328125 78.9609375,37.859375 79.25,36.21875 L79.515625,34.6796875 C79.5703125,34.359375 79.5859375,34.0078125 79.5859375,33.734375 C79.5859375,31.8359375 78.4140625,30.6875 76.703125,30.6875 C75.3203125,30.6875 74.6171875,31.4921875 74.3203125,32.1171875 L74.2265625,32.1171875 L75.015625,27.7734375 L73.875,27.7734375 L71.875,39 L73.0078125,39 L73.3046875,37.328125 L73.390625,37.328125 C73.59375,38.171875 74.5234375,39.1328125 75.8828125,39.1328125 Z M75.8515625,38.09375 C74.84375,38.09375 73.6953125,37.34375 73.6875,35.71875 C73.6875,35.6796875 73.6875,35.5078125 73.7265625,35.3203125 L73.9296875,34.046875 C74.15625,32.6796875 75.046875,31.6484375 76.375,31.6484375 C77.6640625,31.6484375 78.484375,32.484375 78.484375,33.8828125 C78.484375,34.09375 78.4765625,34.3828125 78.4453125,34.5859375 L78.2265625,35.828125 C78,37.0859375 77.1484375,38.09375 75.8515625,38.09375 Z M83.5390625,39.1328125 C84.8125,39.1328125 85.6328125,38.4375 85.9140625,37.875 L85.9921875,37.875 L85.796875,39 L86.90625,39 L87.7109375,34.4375 C87.7890625,34.046875 87.859375,33.59375 87.859375,33.1640625 C87.859375,31.703125 86.8671875,30.6875 85.015625,30.6875 C83.296875,30.6875 82.1875,31.546875 81.96875,32.71875 L83.078125,32.71875 C83.2578125,32.171875 83.84375,31.671875 84.9296875,31.671875 C86.2734375,31.671875 86.7734375,32.46875 86.7734375,33.265625 C86.7734375,33.421875 86.75,33.6015625 86.734375,33.6953125 L86.6484375,34.2421875 L84.375,34.2421875 C82.296875,34.2421875 81.2265625,35.1640625 81.0859375,36.5078125 C81.0703125,36.640625 81.0703125,36.765625 81.0703125,36.8671875 C81.0703125,38.2890625 82.1875,39.1328125 83.5390625,39.1328125 Z M83.8125,38.15625 C82.8125,38.15625 82.21875,37.578125 82.21875,36.7578125 C82.21875,35.8984375 82.8828125,35.1796875 84.2734375,35.1796875 L86.4453125,35.1796875 L86.2578125,36.25 C86.0546875,37.3671875 85.0078125,38.15625 83.8125,38.15625 Z M83.28125,41.546875 C83.734375,41.546875 84.0546875,41.25 84.0546875,40.8046875 C84.0546875,40.3671875 83.734375,40.0546875 83.28125,40.0546875 C82.8359375,40.0546875 82.515625,40.3671875 82.515625,40.8046875 C82.515625,41.25 82.8359375,41.546875 83.28125,41.546875 Z M90.8671875,39 L91.7109375,34.1953125 C91.9453125,32.859375 92.78125,31.65625 94.25,31.65625 C95.46875,31.65625 95.9375,32.5 95.9375,33.4609375 C95.9375,33.8203125 95.875,34.2265625 95.8359375,34.4453125 L95.03125,39 L96.171875,39 L96.96875,34.515625 C97.0390625,34.109375 97.109375,33.6640625 97.109375,33.25 C97.109375,31.9140625 96.3359375,30.6875 94.5859375,30.6875 C93.40625,30.6875 92.5625,31.25 92.1171875,32.1875 L92.03125,32.1875 L92.28125,30.8203125 L91.1640625,30.8203125 L89.71875,39 L90.8671875,39 Z M105.539062,39.1640625 C107.398438,39.1640625 108.617188,38.2734375 108.617188,36.671875 C108.617188,35.2109375 107.554688,34.7421875 106.3125,34.3359375 C105.375,34.03125 104.546875,33.75 104.546875,32.890625 C104.546875,32.1640625 105.203125,31.609375 106.257812,31.609375 C107.445312,31.609375 108.09375,32.3515625 108.09375,32.984375 L108.09375,33.0625 L108.09375,33.0625 L109.164062,33.0625 C109.171875,33.0546875 109.171875,32.921875 109.171875,32.90625 C109.171875,31.828125 108.148438,30.6875 106.28125,30.6875 C104.46875,30.6875 103.414062,31.609375 103.414062,33.03125 C103.414062,34.5234375 104.84375,35.015625 105.75,35.296875 C106.671875,35.59375 107.492188,35.8515625 107.492188,36.765625 C107.492188,37.625 106.78125,38.1796875 105.617188,38.1796875 C104.4375,38.1796875 103.632812,37.5703125 103.515625,36.875 C103.507812,36.828125 103.5,36.7734375 103.507812,36.7265625 L102.40625,36.7265625 L102.40625,36.8125 L102.40625,36.8125 C102.40625,38.0703125 103.679688,39.1640625 105.539062,39.1640625 Z M116.140625,29.4140625 C117.03125,29.4140625 117.59375,28.5546875 117.664062,27.65625 L116.859375,27.65625 C116.789062,28.234375 116.546875,28.609375 116.15625,28.609375 C115.515625,28.609375 115.476562,27.390625 114.226562,27.390625 C113.351562,27.390625 112.78125,28.1328125 112.695312,29.1484375 L113.5,29.1484375 C113.5625,28.5625 113.773438,28.1953125 114.203125,28.1953125 C114.898438,28.1953125 114.929688,29.4140625 116.140625,29.4140625 Z M113.859375,39.1328125 C115.679688,39.1328125 116.835938,38.015625 117.023438,37.015625 L115.882812,37.015625 C115.71875,37.578125 115.023438,38.125 113.929688,38.125 C112.414062,38.125 111.84375,37.0703125 111.84375,35.9453125 C111.84375,35.6640625 111.882812,35.359375 111.929688,35.1796875 L117.359375,35.1796875 C117.375,35.1015625 117.554688,34.109375 117.554688,34.078125 C117.789062,32.5703125 117.046875,30.6875 114.632812,30.6875 C112.75,30.6875 111.414062,31.8359375 111.09375,33.6640625 L110.882812,34.8203125 C110.828125,35.109375 110.757812,35.59375 110.757812,36.0546875 C110.757812,38.0625 112.070312,39.1328125 113.859375,39.1328125 Z M116.4375,34.2578125 L112.117188,34.2578125 C112.117188,34.2421875 112.226562,33.7265625 112.226562,33.7109375 C112.523438,32.3125 113.5,31.65625 114.59375,31.65625 C116.023438,31.65625 116.6875,32.734375 116.46875,34.0546875 C116.46875,34.09375 116.445312,34.234375 116.4375,34.2578125 Z M123.921875,39 L124.765625,34.1953125 C125,32.859375 125.851562,31.65625 127.320312,31.65625 C128.539062,31.65625 129.03125,32.4921875 129.03125,33.453125 C129.03125,33.8046875 128.96875,34.234375 128.929688,34.4453125 L128.125,39 L129.273438,39 L130.0625,34.515625 C130.132812,34.109375 130.203125,33.65625 130.203125,33.25 C130.203125,31.8984375 129.367188,30.6875 127.648438,30.6875 C126.429688,30.6875 125.585938,31.28125 125.171875,32.1875 L125.085938,32.1875 L125.898438,27.7734375 L124.765625,27.7734375 L122.773438,39 L123.921875,39 Z M134.523438,29.1875 C135.03125,29.1875 135.40625,28.8203125 135.40625,28.328125 C135.40625,27.828125 135.03125,27.453125 134.523438,27.453125 C134.046875,27.453125 133.664062,27.828125 133.664062,28.328125 C133.664062,28.8203125 134.046875,29.1875 134.523438,29.1875 Z M133.359375,39 L134.796875,30.8203125 L133.65625,30.8203125 L132.21875,39 L133.359375,39 Z M143.117188,27.921875 C143.960938,27.6640625 144.492188,27.0625 144.492188,26.3515625 C144.492188,25.609375 143.96875,25.2109375 142.984375,25.2109375 C142.773438,25.2109375 142.554688,25.25 142.414062,25.296875 L142.296875,25.96875 C142.460938,25.90625 142.703125,25.8671875 142.882812,25.8671875 C143.429688,25.8671875 143.710938,26.0625 143.710938,26.4609375 C143.710938,26.828125 143.382812,27.1484375 142.8125,27.328125 L143.117188,27.921875 Z M139.5,29.453125 L141.101562,27.9375 L141.132812,27.9375 L142.109375,29.453125 L143.0625,29.453125 L141.601562,27.21875 L140.859375,27.21875 L138.460938,29.453125 L139.5,29.453125 Z M139.578125,39.1328125 C141.398438,39.1328125 142.554688,38.015625 142.742188,37.015625 L141.601562,37.015625 C141.4375,37.578125 140.742188,38.125 139.648438,38.125 C138.132812,38.125 137.5625,37.0703125 137.5625,35.9453125 C137.5625,35.6640625 137.601562,35.359375 137.648438,35.1796875 L143.078125,35.1796875 C143.09375,35.1015625 143.273438,34.109375 143.273438,34.078125 C143.507812,32.5703125 142.765625,30.6875 140.351562,30.6875 C138.46875,30.6875 137.132812,31.8359375 136.8125,33.6640625 L136.601562,34.8203125 C136.546875,35.109375 136.476562,35.59375 136.476562,36.0546875 C136.476562,38.0625 137.789062,39.1328125 139.578125,39.1328125 Z M142.15625,34.2578125 L137.835938,34.2578125 C137.835938,34.2421875 137.945312,33.7265625 137.945312,33.7109375 C138.242188,32.3125 139.21875,31.65625 140.3125,31.65625 C141.742188,31.65625 142.40625,32.734375 142.1875,34.0546875 C142.1875,34.09375 142.164062,34.234375 142.15625,34.2578125 Z M147.78125,39.1328125 C148.96875,39.1328125 149.828125,38.46875 150.21875,37.5859375 L150.3125,37.5859375 L150.0625,39 L151.140625,39 L152.578125,30.8203125 L151.484375,30.8203125 L150.640625,35.5859375 C150.414062,36.921875 149.601562,38.109375 148.140625,38.109375 C146.9375,38.109375 146.359375,37.4140625 146.359375,36.390625 C146.359375,36.0546875 146.414062,35.640625 146.46875,35.34375 L147.28125,30.8203125 L146.148438,30.8203125 L145.335938,35.2734375 C145.257812,35.6484375 145.179688,36.15625 145.179688,36.59375 C145.179688,37.9921875 146.101562,39.1328125 147.78125,39.1328125 Z M160.757812,39 L164.898438,30.8203125 L163.734375,30.8203125 L160.375,37.7265625 L160.296875,37.7265625 L159.3125,30.8203125 L158.140625,30.8203125 L159.523438,39 L160.757812,39 Z M173.65625,28.0234375 L172.351562,25.3203125 L171.265625,25.3203125 L172.867188,28.0234375 L173.65625,28.0234375 Z M168.695312,29.453125 L170.289062,27.9375 L170.320312,27.9375 L171.296875,29.453125 L172.257812,29.453125 L170.796875,27.21875 L170.054688,27.21875 L167.65625,29.453125 L168.695312,29.453125 Z M168.773438,39.1328125 C170.59375,39.1328125 171.75,38.015625 171.9375,37.015625 L170.796875,37.015625 C170.632812,37.578125 169.9375,38.125 168.84375,38.125 C167.328125,38.125 166.757812,37.0703125 166.757812,35.9453125 C166.757812,35.6640625 166.796875,35.359375 166.84375,35.1796875 L172.273438,35.1796875 C172.289062,35.1015625 172.46875,34.109375 172.46875,34.078125 C172.703125,32.5703125 171.960938,30.6875 169.546875,30.6875 C167.664062,30.6875 166.328125,31.8359375 166.007812,33.6640625 L165.796875,34.8203125 C165.742188,35.109375 165.671875,35.59375 165.671875,36.0546875 C165.671875,38.0625 166.984375,39.1328125 168.773438,39.1328125 Z M171.351562,34.2578125 L167.03125,34.2578125 C167.03125,34.2421875 167.140625,33.7265625 167.140625,33.7109375 C167.4375,32.3125 168.414062,31.65625 169.507812,31.65625 C170.9375,31.65625 171.601562,32.734375 171.382812,34.0546875 C171.382812,34.09375 171.359375,34.234375 171.351562,34.2578125 Z M178.835938,39 L179.679688,34.1953125 C179.914062,32.859375 180.75,31.65625 182.21875,31.65625 C183.4375,31.65625 183.90625,32.5 183.90625,33.4609375 C183.90625,33.8203125 183.84375,34.2265625 183.804688,34.4453125 L183,39 L184.140625,39 L184.9375,34.515625 C185.007812,34.109375 185.078125,33.6640625 185.078125,33.25 C185.078125,31.9140625 184.304688,30.6875 182.554688,30.6875 C181.375,30.6875 180.53125,31.25 180.085938,32.1875 L180,32.1875 L180.25,30.8203125 L179.132812,30.8203125 L177.6875,39 L178.835938,39 Z M188.101562,39 L188.945312,34.1953125 C189.179688,32.859375 190.03125,31.65625 191.5,31.65625 C192.71875,31.65625 193.210938,32.4921875 193.210938,33.453125 C193.210938,33.8046875 193.148438,34.234375 193.109375,34.4453125 L192.304688,39 L193.453125,39 L194.242188,34.515625 C194.3125,34.109375 194.382812,33.65625 194.382812,33.25 C194.382812,31.8984375 193.546875,30.6875 191.828125,30.6875 C190.609375,30.6875 189.765625,31.28125 189.351562,32.1875 L189.265625,32.1875 L190.078125,27.7734375 L188.945312,27.7734375 L186.953125,39 L188.101562,39 Z M198.664062,39.1328125 C199.9375,39.1328125 200.757812,38.4375 201.039062,37.875 L201.117188,37.875 L200.921875,39 L202.03125,39 L202.835938,34.4375 C202.914062,34.046875 202.984375,33.59375 202.984375,33.1640625 C202.984375,31.703125 201.992188,30.6875 200.140625,30.6875 C198.421875,30.6875 197.3125,31.546875 197.09375,32.71875 L198.203125,32.71875 C198.382812,32.171875 198.96875,31.671875 200.054688,31.671875 C201.398438,31.671875 201.898438,32.46875 201.898438,33.265625 C201.898438,33.421875 201.875,33.6015625 201.859375,33.6953125 L201.773438,34.2421875 L199.5,34.2421875 C197.421875,34.2421875 196.351562,35.1640625 196.210938,36.5078125 C196.195312,36.640625 196.195312,36.765625 196.195312,36.8671875 C196.195312,38.2890625 197.3125,39.1328125 198.664062,39.1328125 Z M198.9375,38.15625 C197.9375,38.15625 197.34375,37.578125 197.34375,36.7578125 C197.34375,35.8984375 198.007812,35.1796875 199.398438,35.1796875 L201.570312,35.1796875 L201.382812,36.25 C201.179688,37.3671875 200.132812,38.15625 198.9375,38.15625 Z M207.789062,39.1328125 C208.976562,39.1328125 209.835938,38.46875 210.226562,37.5859375 L210.320312,37.5859375 L210.070312,39 L211.148438,39 L212.585938,30.8203125 L211.492188,30.8203125 L210.648438,35.5859375 C210.421875,36.921875 209.609375,38.109375 208.148438,38.109375 C206.945312,38.109375 206.367188,37.4140625 206.367188,36.390625 C206.367188,36.0546875 206.421875,35.640625 206.476562,35.34375 L207.289062,30.8203125 L206.15625,30.8203125 L205.34375,35.2734375 C205.265625,35.6484375 205.1875,36.15625 205.1875,36.59375 C205.1875,37.9921875 206.109375,39.1328125 207.789062,39.1328125 Z M220.765625,39 L224.90625,30.8203125 L223.742188,30.8203125 L220.382812,37.7265625 L220.304688,37.7265625 L219.320312,30.8203125 L218.148438,30.8203125 L219.53125,39 L220.765625,39 Z M230.578125,29.4609375 L229.109375,26.71875 L227.859375,26.71875 L229.703125,29.4609375 L230.578125,29.4609375 Z M227.992188,39.1328125 C229.265625,39.1328125 230.085938,38.4375 230.367188,37.875 L230.445312,37.875 L230.25,39 L231.359375,39 L232.164062,34.4375 C232.242188,34.046875 232.3125,33.59375 232.3125,33.1640625 C232.3125,31.703125 231.320312,30.6875 229.46875,30.6875 C227.75,30.6875 226.640625,31.546875 226.421875,32.71875 L227.53125,32.71875 C227.710938,32.171875 228.296875,31.671875 229.382812,31.671875 C230.726562,31.671875 231.226562,32.46875 231.226562,33.265625 C231.226562,33.421875 231.203125,33.6015625 231.1875,33.6953125 L231.101562,34.2421875 L228.828125,34.2421875 C226.75,34.2421875 225.679688,35.1640625 225.539062,36.5078125 C225.523438,36.640625 225.523438,36.765625 225.523438,36.8671875 C225.523438,38.2890625 226.640625,39.1328125 227.992188,39.1328125 Z M228.265625,38.15625 C227.265625,38.15625 226.671875,37.578125 226.671875,36.7578125 C226.671875,35.8984375 227.335938,35.1796875 228.726562,35.1796875 L230.898438,35.1796875 L230.710938,36.25 C230.507812,37.3671875 229.460938,38.15625 228.265625,38.15625 Z M4.375,63.1328125 C6.015625,63.1328125 7.2421875,62.2734375 7.46875,60.984375 L6.3203125,60.984375 C6.171875,61.59375 5.5,62.125 4.4296875,62.125 C3.0390625,62.125 2.3125,61.2421875 2.3125,59.7578125 C2.3125,59.5 2.3359375,59.25 2.3984375,58.9140625 L2.5625,57.96875 C2.828125,56.484375 3.7421875,55.65625 4.9453125,55.65625 C6.21875,55.65625 6.8671875,56.5078125 6.8671875,57.25 L6.8671875,57.34375 L6.8671875,57.34375 L7.9765625,57.34375 C7.984375,57.3359375 7.984375,57.2578125 7.984375,57.2421875 C7.984375,55.875 6.8671875,54.6875 4.953125,54.6875 C3.140625,54.6875 1.8203125,55.71875 1.484375,57.671875 L1.28125,58.84375 C1.2109375,59.2578125 1.1796875,59.6953125 1.1796875,60.0078125 C1.1796875,61.921875 2.453125,63.1328125 4.375,63.1328125 Z M13.6796875,53.75 C14.609375,53.34375 15.078125,52.828125 15.078125,52.015625 C15.078125,51.34375 14.5390625,50.8359375 13.6328125,50.8359375 C13.1875,50.8359375 12.9609375,50.890625 12.7578125,50.984375 L12.6484375,51.6953125 C12.828125,51.625 13.046875,51.5546875 13.46875,51.5546875 C13.90625,51.5546875 14.21875,51.8203125 14.21875,52.140625 C14.21875,52.4921875 14.0234375,52.765625 13.3046875,53.125 L13.6796875,53.75 Z M11.703125,63.1328125 C12.9765625,63.1328125 13.796875,62.4375 14.078125,61.875 L14.15625,61.875 L13.9609375,63 L15.0703125,63 L15.875,58.4375 C15.953125,58.046875 16.0234375,57.59375 16.0234375,57.1640625 C16.0234375,55.703125 15.03125,54.6875 13.1796875,54.6875 C11.4609375,54.6875 10.3515625,55.546875 10.1328125,56.71875 L11.2421875,56.71875 C11.421875,56.171875 12.0078125,55.671875 13.09375,55.671875 C14.4375,55.671875 14.9375,56.46875 14.9375,57.265625 C14.9375,57.421875 14.9140625,57.6015625 14.8984375,57.6953125 L14.8125,58.2421875 L12.5390625,58.2421875 C10.4609375,58.2421875 9.390625,59.1640625 9.25,60.5078125 C9.234375,60.640625 9.234375,60.765625 9.234375,60.8671875 C9.234375,62.2890625 10.3515625,63.1328125 11.703125,63.1328125 Z M11.9765625,62.15625 C10.9765625,62.15625 10.3828125,61.578125 10.3828125,60.7578125 C10.3828125,59.8984375 11.046875,59.1796875 12.4375,59.1796875 L14.609375,59.1796875 L14.421875,60.25 C14.21875,61.3671875 13.171875,62.15625 11.9765625,62.15625 Z M19.03125,63 L19.8828125,58.15625 C20.1171875,56.8046875 20.859375,55.65625 22.2421875,55.65625 C23.3671875,55.65625 23.7734375,56.4375 23.7734375,57.421875 C23.7734375,57.7734375 23.734375,58.140625 23.6953125,58.359375 L22.875,63 L24.015625,63 L24.875,58.1640625 C25.1328125,56.71875 25.8671875,55.65625 27.109375,55.65625 C28.1875,55.65625 28.6015625,56.421875 28.6015625,57.4375 C28.6015625,57.78125 28.546875,58.15625 28.5078125,58.375 L27.6953125,63 L28.8359375,63 L29.640625,58.4453125 C29.703125,58.0703125 29.78125,57.578125 29.78125,57.15625 C29.78125,55.8203125 29.046875,54.6875 27.3984375,54.6875 C25.9453125,54.6875 25.2265625,55.609375 24.9453125,56.25 L24.8671875,56.25 C24.6015625,55.3671875 23.828125,54.6875 22.578125,54.6875 C21.3671875,54.6875 20.6171875,55.390625 20.28125,56.1875 L20.1953125,56.1875 L20.4375,54.8203125 L19.328125,54.8203125 L17.8828125,63 L19.03125,63 Z M36.453125,63 L37.296875,58.1953125 C37.53125,56.859375 38.3671875,55.65625 39.8359375,55.65625 C41.0546875,55.65625 41.5234375,56.5 41.5234375,57.4609375 C41.5234375,57.8203125 41.4609375,58.2265625 41.421875,58.4453125 L40.6171875,63 L41.7578125,63 L42.5546875,58.515625 C42.625,58.109375 42.6953125,57.6640625 42.6953125,57.25 C42.6953125,55.9140625 41.921875,54.6875 40.171875,54.6875 C38.9921875,54.6875 38.1484375,55.25 37.703125,56.1875 L37.6171875,56.1875 L37.8671875,54.8203125 L36.75,54.8203125 L35.3046875,63 L36.453125,63 Z M45.71875,63 L46.5625,58.1953125 C46.796875,56.859375 47.6484375,55.65625 49.1171875,55.65625 C50.3359375,55.65625 50.828125,56.4921875 50.828125,57.453125 C50.828125,57.8046875 50.765625,58.234375 50.7265625,58.4453125 L49.921875,63 L51.0703125,63 L51.859375,58.515625 C51.9296875,58.109375 52,57.65625 52,57.25 C52,55.8984375 51.1640625,54.6875 49.4453125,54.6875 C48.2265625,54.6875 47.3828125,55.28125 46.96875,56.1875 L46.8828125,56.1875 L47.6953125,51.7734375 L46.5625,51.7734375 L44.5703125,63 L45.71875,63 Z M56.8828125,53.4609375 L58.5,51.296875 L58.5234375,51.296875 L59.4296875,53.4609375 L60.4296875,53.4609375 L59.0859375,50.5234375 L58.1640625,50.5234375 L55.84375,53.4609375 L56.8828125,53.4609375 Z M56.28125,63.1328125 C57.5546875,63.1328125 58.375,62.4375 58.65625,61.875 L58.734375,61.875 L58.5390625,63 L59.6484375,63 L60.453125,58.4375 C60.53125,58.046875 60.6015625,57.59375 60.6015625,57.1640625 C60.6015625,55.703125 59.609375,54.6875 57.7578125,54.6875 C56.0390625,54.6875 54.9296875,55.546875 54.7109375,56.71875 L55.8203125,56.71875 C56,56.171875 56.5859375,55.671875 57.671875,55.671875 C59.015625,55.671875 59.515625,56.46875 59.515625,57.265625 C59.515625,57.421875 59.4921875,57.6015625 59.4765625,57.6953125 L59.390625,58.2421875 L57.1171875,58.2421875 C55.0390625,58.2421875 53.96875,59.1640625 53.828125,60.5078125 C53.8125,60.640625 53.8125,60.765625 53.8125,60.8671875 C53.8125,62.2890625 54.9296875,63.1328125 56.28125,63.1328125 Z M56.5546875,62.15625 C55.5546875,62.15625 54.9609375,61.578125 54.9609375,60.7578125 C54.9609375,59.8984375 55.625,59.1796875 57.015625,59.1796875 L59.1875,59.1796875 L59,60.25 C58.796875,61.3671875 57.75,62.15625 56.5546875,62.15625 Z M56.0234375,65.546875 C56.4765625,65.546875 56.796875,65.25 56.796875,64.8046875 C56.796875,64.3671875 56.4765625,64.0546875 56.0234375,64.0546875 C55.578125,64.0546875 55.2578125,64.3671875 55.2578125,64.8046875 C55.2578125,65.25 55.578125,65.546875 56.0234375,65.546875 Z M63.609375,63 L64.453125,58.1953125 C64.6875,56.859375 65.5234375,55.65625 66.9921875,55.65625 C68.2109375,55.65625 68.6796875,56.5 68.6796875,57.4609375 C68.6796875,57.8203125 68.6171875,58.2265625 68.578125,58.4453125 L67.7734375,63 L68.9140625,63 L69.7109375,58.515625 C69.78125,58.109375 69.8515625,57.6640625 69.8515625,57.25 C69.8515625,55.9140625 69.078125,54.6875 67.328125,54.6875 C66.1484375,54.6875 65.3046875,55.25 64.859375,56.1875 L64.7734375,56.1875 L65.0234375,54.8203125 L63.90625,54.8203125 L62.4609375,63 L63.609375,63 Z M78.46875,63.1171875 C79.8359375,63.1171875 80.6171875,62.25 80.8515625,61.6171875 L80.9453125,61.6171875 L80.703125,63 L81.8203125,63 L83.4609375,53.7265625 L84.7421875,53.7265625 L84.90625,52.8125 L83.625,52.8125 L83.8125,51.7734375 L82.65625,51.7734375 L82.4765625,52.8125 L80.6796875,52.8125 L80.5234375,53.7265625 L82.3203125,53.7265625 L81.84375,56.4296875 L81.75,56.4296875 C81.609375,55.671875 80.71875,54.6875 79.2890625,54.6875 C77.359375,54.6875 76.203125,55.9375 75.8984375,57.546875 L75.609375,59.078125 C75.546875,59.375 75.53125,59.734375 75.53125,60.0390625 C75.53125,61.90625 76.765625,63.1171875 78.46875,63.1171875 Z M78.8046875,62.109375 C77.5,62.109375 76.671875,61.265625 76.671875,59.8671875 C76.671875,59.59375 76.6953125,59.296875 76.71875,59.15625 L76.9609375,57.9375 C77.21875,56.640625 78.0078125,55.6640625 79.3359375,55.6640625 C80.3984375,55.6640625 81.53125,56.4296875 81.53125,58.03125 C81.53125,58.1015625 81.515625,58.234375 81.484375,58.4296875 L81.265625,59.703125 C81.015625,61.1015625 80.125,62.109375 78.8046875,62.109375 Z M87.640625,63.1328125 C88.828125,63.1328125 89.6875,62.46875 90.078125,61.5859375 L90.171875,61.5859375 L89.921875,63 L91,63 L92.2890625,55.640625 L92.4140625,55.640625 C93.734375,55.640625 94.46875,54.7734375 94.6796875,53.5625 L94.84375,52.609375 L93.8203125,52.609375 L93.640625,53.578125 C93.515625,54.3125 93.171875,54.8203125 92.328125,54.8203125 L91.34375,54.8203125 L90.5,59.5859375 C90.2734375,60.921875 89.4609375,62.109375 88,62.109375 C86.796875,62.109375 86.21875,61.4140625 86.21875,60.390625 C86.21875,60.0546875 86.2734375,59.640625 86.328125,59.34375 L87.140625,54.8203125 L86.0078125,54.8203125 L85.1875,59.2734375 C85.1171875,59.6484375 85.0390625,60.15625 85.0390625,60.59375 C85.0390625,61.9921875 85.953125,63.1328125 87.640625,63.1328125 Z M98.046875,63.1328125 C100.078125,63.1328125 101.273438,61.96875 101.625,60.03125 L101.828125,58.9140625 C101.882812,58.5703125 101.914062,58.1875 101.914062,57.953125 C101.914062,57.0234375 101.578125,56.2421875 101.25,55.84375 L101.273438,55.78125 C102.484375,55.765625 102.890625,54.9609375 103.117188,53.6875 L103.3125,52.609375 L102.28125,52.609375 L102.070312,53.78125 C101.929688,54.5546875 101.539062,55.03125 100.75,55.03125 C100.015625,55.03125 99.515625,54.6875 98.6015625,54.6875 C96.875,54.6875 95.4765625,55.796875 95.1328125,57.765625 L94.9375,58.875 C94.875,59.234375 94.8515625,59.625 94.8515625,60.0078125 C94.8515625,61.96875 96.234375,63.1328125 98.046875,63.1328125 Z M98.1875,62.1328125 C96.8046875,62.1328125 95.96875,61.1953125 95.96875,59.828125 C95.96875,59.46875 96,59.2109375 96.046875,58.953125 L96.2265625,57.984375 C96.5078125,56.3828125 97.4375,55.6875 98.578125,55.6875 C99.9296875,55.6875 100.773438,56.6328125 100.773438,57.9453125 C100.773438,58.0625 100.773438,58.453125 100.734375,58.703125 L100.554688,59.7421875 C100.28125,61.2734375 99.4453125,62.1328125 98.1875,62.1328125 Z M97.3125,65.546875 C97.765625,65.546875 98.0859375,65.25 98.0859375,64.8046875 C98.0859375,64.3671875 97.765625,64.0546875 97.3125,64.0546875 C96.8671875,64.0546875 96.546875,64.3671875 96.546875,64.8046875 C96.546875,65.25 96.8671875,65.546875 97.3125,65.546875 Z M106.851562,63.1328125 C108.492188,63.1328125 109.71875,62.2734375 109.945312,60.984375 L108.796875,60.984375 C108.648438,61.59375 107.976562,62.125 106.90625,62.125 C105.515625,62.125 104.789062,61.2421875 104.789062,59.7578125 C104.789062,59.5 104.8125,59.25 104.875,58.9140625 L105.039062,57.96875 C105.304688,56.484375 106.21875,55.65625 107.421875,55.65625 C108.695312,55.65625 109.34375,56.5078125 109.34375,57.25 L109.34375,57.34375 L109.34375,57.34375 L110.453125,57.34375 C110.460938,57.3359375 110.460938,57.2578125 110.460938,57.2421875 C110.460938,55.875 109.34375,54.6875 107.429688,54.6875 C105.617188,54.6875 104.296875,55.71875 103.960938,57.671875 L103.757812,58.84375 C103.6875,59.2578125 103.65625,59.6953125 103.65625,60.0078125 C103.65625,61.921875 104.929688,63.1328125 106.851562,63.1328125 Z M118.335938,63.1640625 C120.195312,63.1640625 121.414062,62.2734375 121.414062,60.671875 C121.414062,59.2109375 120.351562,58.7421875 119.109375,58.3359375 C118.171875,58.03125 117.34375,57.75 117.34375,56.890625 C117.34375,56.1640625 118,55.609375 119.054688,55.609375 C120.242188,55.609375 120.890625,56.3515625 120.890625,56.984375 L120.890625,57.0625 L120.890625,57.0625 L121.960938,57.0625 C121.96875,57.0546875 121.96875,56.921875 121.96875,56.90625 C121.96875,55.828125 120.945312,54.6875 119.078125,54.6875 C117.265625,54.6875 116.210938,55.609375 116.210938,57.03125 C116.210938,58.5234375 117.640625,59.015625 118.546875,59.296875 C119.46875,59.59375 120.289062,59.8515625 120.289062,60.765625 C120.289062,61.625 119.578125,62.1796875 118.414062,62.1796875 C117.234375,62.1796875 116.429688,61.5703125 116.3125,60.875 C116.304688,60.828125 116.296875,60.7734375 116.304688,60.7265625 L115.203125,60.7265625 L115.203125,60.8125 L115.203125,60.8125 C115.203125,62.0703125 116.476562,63.1640625 118.335938,63.1640625 Z M126.359375,63.1328125 C127.546875,63.1328125 128.40625,62.46875 128.796875,61.5859375 L128.890625,61.5859375 L128.640625,63 L129.71875,63 L131.007812,55.640625 L131.132812,55.640625 C132.453125,55.640625 133.1875,54.7734375 133.398438,53.5625 L133.5625,52.609375 L132.539062,52.609375 L132.359375,53.578125 C132.234375,54.3125 131.890625,54.8203125 131.046875,54.8203125 L130.0625,54.8203125 L129.21875,59.5859375 C128.992188,60.921875 128.179688,62.109375 126.71875,62.109375 C125.515625,62.109375 124.9375,61.4140625 124.9375,60.390625 C124.9375,60.0546875 124.992188,59.640625 125.046875,59.34375 L125.859375,54.8203125 L124.726562,54.8203125 L123.90625,59.2734375 C123.835938,59.6484375 123.757812,60.15625 123.757812,60.59375 C123.757812,61.9921875 124.671875,63.1328125 126.359375,63.1328125 Z M126.234375,65.546875 C126.6875,65.546875 127.007812,65.25 127.007812,64.8046875 C127.007812,64.3671875 126.6875,64.0546875 126.234375,64.0546875 C125.789062,64.0546875 125.46875,64.3671875 125.46875,64.8046875 C125.46875,65.25 125.789062,65.546875 126.234375,65.546875 Z M137.71875,65.703125 L138.46875,61.328125 L138.5625,61.328125 C138.71875,62.078125 139.585938,63.1328125 141,63.1328125 C142.9375,63.1328125 144.140625,61.8359375 144.398438,60.21875 L144.679688,58.6796875 C144.742188,58.359375 144.742188,58.0078125 144.742188,57.734375 C144.742188,55.84375 143.53125,54.6875 141.828125,54.6875 C140.429688,54.6875 139.726562,55.5 139.460938,56.1171875 L139.367188,56.1171875 L139.601562,54.8203125 L138.484375,54.8203125 L136.570312,65.703125 L137.71875,65.703125 Z M140.960938,62.09375 C139.945312,62.09375 138.8125,61.3203125 138.8125,59.71875 C138.804688,59.6796875 138.8125,59.5078125 138.84375,59.3203125 L139.054688,58.046875 C139.28125,56.65625 140.179688,55.6484375 141.484375,55.6484375 C142.789062,55.6484375 143.640625,56.4921875 143.640625,57.8828125 C143.640625,58.1015625 143.632812,58.390625 143.601562,58.5859375 L143.382812,59.828125 C143.15625,61.0625 142.296875,62.09375 140.960938,62.09375 Z M147.453125,63 L148.296875,58.1953125 C148.53125,56.859375 149.382812,55.65625 150.851562,55.65625 C152.070312,55.65625 152.5625,56.4921875 152.5625,57.453125 C152.5625,57.8046875 152.5,58.234375 152.460938,58.4453125 L151.65625,63 L152.804688,63 L153.59375,58.515625 C153.664062,58.109375 153.734375,57.65625 153.734375,57.25 C153.734375,55.8984375 152.898438,54.6875 151.179688,54.6875 C149.960938,54.6875 149.117188,55.28125 148.703125,56.1875 L148.617188,56.1875 L149.429688,51.7734375 L148.296875,51.7734375 L146.304688,63 L147.453125,63 Z M161.148438,53.4609375 L159.679688,50.71875 L158.429688,50.71875 L160.273438,53.4609375 L161.148438,53.4609375 Z M158.5625,63.1328125 C159.75,63.1328125 160.609375,62.46875 161,61.5859375 L161.09375,61.5859375 L160.84375,63 L161.921875,63 L163.359375,54.8203125 L162.265625,54.8203125 L161.421875,59.5859375 C161.195312,60.921875 160.382812,62.109375 158.921875,62.109375 C157.71875,62.109375 157.140625,61.4140625 157.140625,60.390625 C157.140625,60.0546875 157.195312,59.640625 157.25,59.34375 L158.0625,54.8203125 L156.929688,54.8203125 L156.117188,59.2734375 C156.039062,59.6484375 155.960938,60.15625 155.960938,60.59375 C155.960938,61.9921875 156.882812,63.1328125 158.5625,63.1328125 Z M169.585938,63 L170.429688,58.1953125 C170.664062,56.859375 171.515625,55.65625 172.984375,55.65625 C174.203125,55.65625 174.695312,56.4921875 174.695312,57.453125 C174.695312,57.8046875 174.632812,58.234375 174.59375,58.4453125 L173.789062,63 L174.9375,63 L175.726562,58.515625 C175.796875,58.109375 175.867188,57.65625 175.867188,57.25 C175.867188,55.8984375 175.03125,54.6875 173.3125,54.6875 C172.09375,54.6875 171.25,55.28125 170.835938,56.1875 L170.75,56.1875 L171.5625,51.7734375 L170.429688,51.7734375 L168.4375,63 L169.585938,63 Z M181.125,63.1328125 C183.15625,63.1328125 184.351562,61.96875 184.703125,60.03125 L184.90625,58.9140625 C184.960938,58.5703125 184.992188,58.1875 184.992188,57.953125 C184.992188,57.0234375 184.65625,56.2421875 184.328125,55.84375 L184.351562,55.78125 C185.5625,55.765625 185.96875,54.9609375 186.195312,53.6875 L186.390625,52.609375 L185.359375,52.609375 L185.148438,53.78125 C185.007812,54.5546875 184.617188,55.03125 183.828125,55.03125 C183.09375,55.03125 182.59375,54.6875 181.679688,54.6875 C179.953125,54.6875 178.554688,55.796875 178.210938,57.765625 L178.015625,58.875 C177.953125,59.234375 177.929688,59.625 177.929688,60.0078125 C177.929688,61.96875 179.3125,63.1328125 181.125,63.1328125 Z M181.265625,62.1328125 C179.882812,62.1328125 179.046875,61.1953125 179.046875,59.828125 C179.046875,59.46875 179.078125,59.2109375 179.125,58.953125 L179.304688,57.984375 C179.585938,56.3828125 180.515625,55.6875 181.65625,55.6875 C183.007812,55.6875 183.851562,56.6328125 183.851562,57.9453125 C183.851562,58.0625 183.851562,58.453125 183.8125,58.703125 L183.632812,59.7421875 C183.359375,61.2734375 182.523438,62.1328125 181.265625,62.1328125 Z M180.390625,65.546875 C180.84375,65.546875 181.164062,65.25 181.164062,64.8046875 C181.164062,64.3671875 180.84375,64.0546875 180.390625,64.0546875 C179.945312,64.0546875 179.625,64.3671875 179.625,64.8046875 C179.625,65.25 179.945312,65.546875 180.390625,65.546875 Z M187.242188,65.703125 L187.992188,61.328125 L188.085938,61.328125 C188.242188,62.078125 189.109375,63.1328125 190.523438,63.1328125 C192.460938,63.1328125 193.664062,61.8359375 193.921875,60.21875 L194.203125,58.6796875 C194.265625,58.359375 194.265625,58.0078125 194.265625,57.734375 C194.265625,55.84375 193.054688,54.6875 191.351562,54.6875 C189.953125,54.6875 189.25,55.5 188.984375,56.1171875 L188.890625,56.1171875 L189.125,54.8203125 L188.007812,54.8203125 L186.09375,65.703125 L187.242188,65.703125 Z M190.484375,62.09375 C189.46875,62.09375 188.335938,61.3203125 188.335938,59.71875 C188.328125,59.6796875 188.335938,59.5078125 188.367188,59.3203125 L188.578125,58.046875 C188.804688,56.65625 189.703125,55.6484375 191.007812,55.6484375 C192.3125,55.6484375 193.164062,56.4921875 193.164062,57.8828125 C193.164062,58.1015625 193.15625,58.390625 193.125,58.5859375 L192.90625,59.828125 C192.679688,61.0625 191.820312,62.09375 190.484375,62.09375 Z M196.476562,63.1328125 C197.046875,63.1328125 197.484375,62.703125 197.484375,62.15625 C197.484375,61.578125 197.046875,61.1484375 196.476562,61.1484375 C195.9375,61.1484375 195.5,61.578125 195.5,62.15625 C195.5,62.703125 195.9375,63.1328125 196.476562,63.1328125 Z" id="BằngcáchlắngngheĐốiphươngtrảlờihaibạnsẽhiểuvềnhauvàcảmnhậnđượcsựphùhợp."></path>
            </g>
        </g>
    </g>
</svg>