<?xml version="1.0" encoding="UTF-8"?>
<svg width="320px" height="785px" viewBox="0 0 320 785" version="1.1" xmlns="http://www.w3.org/2000/svg" xmlns:xlink="http://www.w3.org/1999/xlink">
    <title>1</title>
    <g id="Chanchan" stroke="none" stroke-width="1" fill="none" fill-rule="evenodd">
        <g id="Group-2" transform="translate(35.000000, 170.000000)">
            <text id="Lần-kết-nối-đầu-tiên" font-family="SFCompactDisplay-Semibold, SF Compact Display" font-size="24" font-weight="500" letter-spacing="-0.896" fill="#1E2432">
                <tspan x="0" y="201">Lần kết nối đầu tiên</tspan>
            </text>
            <text id="Được-xác-định-bởi-sự" font-family="SFCompactDisplay-Light, SF Compact Display" font-size="16" font-weight="300" line-spacing="23" fill="#121721">
                <tspan x="0" y="242">Được xác định bởi sự phù hợp ở mức </tspan>
                <tspan x="0" y="265">độ cơ bản về các Tiêu chí. Ngoài tiêu </tspan>
                <tspan x="0" y="288">chí Hôn nhân luôn cố định thì các </tspan>
                <tspan x="0" y="311">Tiêu chí còn lại có thể co dãn.</tspan>
            </text>
            <text id="Những-điều-hai-bạn-c" font-family="SFCompactDisplay-Light, SF Compact Display" font-size="16" font-weight="300" line-spacing="23" fill="#121721">
                <tspan x="0" y="107">Những điều hai bạn cần biết về Lần </tspan>
                <tspan x="0" y="130">kết nối đầu tiên</tspan>
            </text>
            <text id="Chanchan-sẽ-giúp-hai" font-family="SFCompactDisplay-Light, SF Compact Display" font-size="16" font-weight="300" line-spacing="23" fill="#121721">
                <tspan x="0" y="423">Chanchan sẽ giúp hai bạn hiểu nhau </tspan>
                <tspan x="0" y="446">bằng cách đưa ra các Chủ đề để hai </tspan>
                <tspan x="0" y="469">bạn trả lời và thảo luận.</tspan>
            </text>
            <path d="M4.9296875,511 C7.65625,511 9.21875,509.757812 9.21875,507.804688 C9.21875,506.4375 8.453125,505.664062 7.3125,505.445312 L7.328125,505.375 C8.4140625,505.117188 9.4609375,504.132812 9.4609375,502.71875 C9.4609375,501.570312 8.75,500.335938 6.4609375,500.335938 L3.0234375,500.335938 L1.1484375,511 L4.9296875,511 Z M5.640625,504.984375 L3.359375,504.984375 L4,501.367188 L6.1171875,501.367188 C7.6171875,501.367188 8.234375,501.914062 8.234375,502.890625 C8.234375,504.242188 7.078125,504.984375 5.640625,504.984375 Z M5.0546875,509.96875 L2.484375,509.96875 L3.1796875,506.007812 L5.5546875,506.007812 C7.3359375,506.007812 8.0390625,506.765625 8.0390625,507.804688 C8.0390625,509.234375 6.71875,509.96875 5.0546875,509.96875 Z M16.125,499.09375 L14.75,496.359375 L13.625,496.359375 L15.28125,499.09375 L16.125,499.09375 Z M15.3515625,501.492188 C16.6015625,501.492188 17.6484375,500.632812 17.78125,499.4375 L16.9453125,499.4375 C16.8046875,500.25 16.25,500.742188 15.4453125,500.742188 C14.6875,500.742188 14.1953125,500.320312 14.1953125,499.6875 C14.1953125,499.578125 14.203125,499.507812 14.2109375,499.4375 L13.3828125,499.4375 C13.34375,499.570312 13.3359375,499.6875 13.3359375,499.828125 C13.3359375,500.742188 14.1015625,501.492188 15.3515625,501.492188 Z M13.5078125,511.132812 C14.78125,511.132812 15.6015625,510.4375 15.8828125,509.875 L15.9609375,509.875 L15.765625,511 L16.875,511 L17.6796875,506.4375 C17.7578125,506.046875 17.828125,505.59375 17.828125,505.164062 C17.828125,503.703125 16.8359375,502.6875 14.984375,502.6875 C13.265625,502.6875 12.15625,503.546875 11.9375,504.71875 L13.046875,504.71875 C13.2265625,504.171875 13.8125,503.671875 14.8984375,503.671875 C16.2421875,503.671875 16.7421875,504.46875 16.7421875,505.265625 C16.7421875,505.421875 16.71875,505.601562 16.703125,505.695312 L16.6171875,506.242188 L14.34375,506.242188 C12.265625,506.242188 11.1953125,507.164062 11.0546875,508.507812 C11.0390625,508.640625 11.0390625,508.765625 11.0390625,508.867188 C11.0390625,510.289062 12.15625,511.132812 13.5078125,511.132812 Z M13.78125,510.15625 C12.78125,510.15625 12.1875,509.578125 12.1875,508.757812 C12.1875,507.898438 12.8515625,507.179688 14.2421875,507.179688 L16.4140625,507.179688 L16.2265625,508.25 C16.0234375,509.367188 14.9765625,510.15625 13.78125,510.15625 Z M20.8359375,511 L21.6796875,506.195312 C21.9140625,504.859375 22.75,503.65625 24.21875,503.65625 C25.4375,503.65625 25.90625,504.5 25.90625,505.460938 C25.90625,505.820312 25.84375,506.226562 25.8046875,506.445312 L25,511 L26.140625,511 L26.9375,506.515625 C27.0078125,506.109375 27.078125,505.664062 27.078125,505.25 C27.078125,503.914062 26.3046875,502.6875 24.5546875,502.6875 C23.375,502.6875 22.53125,503.25 22.0859375,504.1875 L22,504.1875 L22.25,502.820312 L21.1328125,502.820312 L19.6875,511 L20.8359375,511 Z M31.734375,513.96875 C33.796875,513.96875 35.0234375,512.984375 35.3984375,510.867188 L36.8125,502.820312 L35.6875,502.820312 L35.40625,504.429688 L35.3125,504.429688 C35.0703125,503.53125 34.203125,502.6875 32.8046875,502.6875 C31.2890625,502.6875 29.8359375,503.59375 29.4375,505.6875 L29.2578125,506.640625 C29.1953125,506.953125 29.1484375,507.476562 29.1484375,507.757812 C29.1484375,509.6875 30.578125,510.851562 32.09375,510.851562 C33.3828125,510.851562 34.15625,510.1875 34.453125,509.46875 L34.546875,509.46875 L34.3359375,510.664062 C34.0625,512.234375 33.28125,512.992188 31.8046875,512.992188 C30.5859375,512.992188 29.796875,512.304688 29.796875,511.65625 L29.796875,511.554688 L29.796875,511.554688 L28.6796875,511.554688 C28.6796875,511.5625 28.671875,511.65625 28.671875,511.671875 C28.671875,512.867188 29.859375,513.96875 31.734375,513.96875 Z M32.4453125,509.890625 C31.140625,509.890625 30.2734375,509.109375 30.2734375,507.585938 C30.2734375,507.375 30.328125,506.945312 30.3671875,506.71875 L30.5,506.039062 C30.7734375,504.554688 31.640625,503.65625 32.859375,503.65625 C34.125,503.65625 35.0546875,504.539062 35.0546875,505.976562 C35.0546875,506.046875 35.0546875,506.28125 34.9765625,506.71875 L34.828125,507.554688 C34.59375,508.921875 33.65625,509.890625 32.4453125,509.890625 Z M45.234375,511.132812 C46.875,511.132812 48.1015625,510.273438 48.328125,508.984375 L47.1796875,508.984375 C47.03125,509.59375 46.359375,510.125 45.2890625,510.125 C43.8984375,510.125 43.171875,509.242188 43.171875,507.757812 C43.171875,507.5 43.1953125,507.25 43.2578125,506.914062 L43.421875,505.96875 C43.6875,504.484375 44.6015625,503.65625 45.8046875,503.65625 C47.078125,503.65625 47.7265625,504.507812 47.7265625,505.25 L47.7265625,505.34375 L47.7265625,505.34375 L48.8359375,505.34375 C48.84375,505.335938 48.84375,505.257812 48.84375,505.242188 C48.84375,503.875 47.7265625,502.6875 45.8125,502.6875 C44,502.6875 42.6796875,503.71875 42.34375,505.671875 L42.140625,506.84375 C42.0703125,507.257812 42.0390625,507.695312 42.0390625,508.007812 C42.0390625,509.921875 43.3125,511.132812 45.234375,511.132812 Z M54.4921875,501.460938 L57.1875,498.71875 L55.9140625,498.71875 L53.53125,501.460938 L54.4921875,501.460938 Z M52.5625,511.132812 C53.8359375,511.132812 54.65625,510.4375 54.9375,509.875 L55.015625,509.875 L54.8203125,511 L55.9296875,511 L56.734375,506.4375 C56.8125,506.046875 56.8828125,505.59375 56.8828125,505.164062 C56.8828125,503.703125 55.890625,502.6875 54.0390625,502.6875 C52.3203125,502.6875 51.2109375,503.546875 50.9921875,504.71875 L52.1015625,504.71875 C52.28125,504.171875 52.8671875,503.671875 53.953125,503.671875 C55.296875,503.671875 55.796875,504.46875 55.796875,505.265625 C55.796875,505.421875 55.7734375,505.601562 55.7578125,505.695312 L55.671875,506.242188 L53.3984375,506.242188 C51.3203125,506.242188 50.25,507.164062 50.109375,508.507812 C50.09375,508.640625 50.09375,508.765625 50.09375,508.867188 C50.09375,510.289062 51.2109375,511.132812 52.5625,511.132812 Z M52.8359375,510.15625 C51.8359375,510.15625 51.2421875,509.578125 51.2421875,508.757812 C51.2421875,507.898438 51.90625,507.179688 53.296875,507.179688 L55.46875,507.179688 L55.28125,508.25 C55.078125,509.367188 54.03125,510.15625 52.8359375,510.15625 Z M62.1015625,511.132812 C63.7421875,511.132812 64.96875,510.273438 65.1953125,508.984375 L64.046875,508.984375 C63.8984375,509.59375 63.2265625,510.125 62.15625,510.125 C60.765625,510.125 60.0390625,509.242188 60.0390625,507.757812 C60.0390625,507.5 60.0625,507.25 60.125,506.914062 L60.2890625,505.96875 C60.5546875,504.484375 61.46875,503.65625 62.671875,503.65625 C63.9453125,503.65625 64.59375,504.507812 64.59375,505.25 L64.59375,505.34375 L64.59375,505.34375 L65.703125,505.34375 C65.7109375,505.335938 65.7109375,505.257812 65.7109375,505.242188 C65.7109375,503.875 64.59375,502.6875 62.6796875,502.6875 C60.8671875,502.6875 59.546875,503.71875 59.2109375,505.671875 L59.0078125,506.84375 C58.9375,507.257812 58.90625,507.695312 58.90625,508.007812 C58.90625,509.921875 60.1796875,511.132812 62.1015625,511.132812 Z M68.1796875,511 L69.0234375,506.195312 C69.2578125,504.859375 70.109375,503.65625 71.578125,503.65625 C72.796875,503.65625 73.2890625,504.492188 73.2890625,505.453125 C73.2890625,505.804688 73.2265625,506.234375 73.1875,506.445312 L72.3828125,511 L73.53125,511 L74.3203125,506.515625 C74.390625,506.109375 74.4609375,505.65625 74.4609375,505.25 C74.4609375,503.898438 73.625,502.6875 71.90625,502.6875 C70.6875,502.6875 69.84375,503.28125 69.4296875,504.1875 L69.34375,504.1875 L70.15625,499.773438 L69.0234375,499.773438 L67.03125,511 L68.1796875,511 Z M83.359375,511.132812 C85,511.132812 86.2265625,510.273438 86.453125,508.984375 L85.3046875,508.984375 C85.15625,509.59375 84.484375,510.125 83.4140625,510.125 C82.0234375,510.125 81.296875,509.242188 81.296875,507.757812 C81.296875,507.5 81.3203125,507.25 81.3828125,506.914062 L81.546875,505.96875 C81.8125,504.484375 82.7265625,503.65625 83.9296875,503.65625 C85.203125,503.65625 85.8515625,504.507812 85.8515625,505.25 L85.8515625,505.34375 L85.8515625,505.34375 L86.9609375,505.34375 C86.96875,505.335938 86.96875,505.257812 86.96875,505.242188 C86.96875,503.875 85.8515625,502.6875 83.9375,502.6875 C82.125,502.6875 80.8046875,503.71875 80.46875,505.671875 L80.265625,506.84375 C80.1953125,507.257812 80.1640625,507.695312 80.1640625,508.007812 C80.1640625,509.921875 81.4375,511.132812 83.359375,511.132812 Z M89.4375,511 L90.28125,506.195312 C90.515625,504.859375 91.3671875,503.65625 92.8359375,503.65625 C94.0546875,503.65625 94.546875,504.492188 94.546875,505.453125 C94.546875,505.804688 94.484375,506.234375 94.4453125,506.445312 L93.640625,511 L94.7890625,511 L95.578125,506.515625 C95.6484375,506.109375 95.71875,505.65625 95.71875,505.25 C95.71875,503.898438 94.8828125,502.6875 93.1640625,502.6875 C91.9453125,502.6875 91.1015625,503.28125 90.6875,504.1875 L90.6015625,504.1875 L91.4140625,499.773438 L90.28125,499.773438 L88.2890625,511 L89.4375,511 Z M100.039062,501.1875 C100.546875,501.1875 100.921875,500.820312 100.921875,500.328125 C100.921875,499.828125 100.546875,499.453125 100.039062,499.453125 C99.5625,499.453125 99.1796875,499.828125 99.1796875,500.328125 C99.1796875,500.820312 99.5625,501.1875 100.039062,501.1875 Z M98.875,511 L100.3125,502.820312 L99.171875,502.820312 L97.734375,511 L98.875,511 Z M104.25,511.132812 C105.523438,511.132812 106.34375,510.4375 106.625,509.875 L106.703125,509.875 L106.507812,511 L107.617188,511 L108.421875,506.4375 C108.5,506.046875 108.570312,505.59375 108.570312,505.164062 C108.570312,503.703125 107.578125,502.6875 105.726562,502.6875 C104.007812,502.6875 102.898438,503.546875 102.679688,504.71875 L103.789062,504.71875 C103.96875,504.171875 104.554688,503.671875 105.640625,503.671875 C106.984375,503.671875 107.484375,504.46875 107.484375,505.265625 C107.484375,505.421875 107.460938,505.601562 107.445312,505.695312 L107.359375,506.242188 L105.085938,506.242188 C103.007812,506.242188 101.9375,507.164062 101.796875,508.507812 C101.78125,508.640625 101.78125,508.765625 101.78125,508.867188 C101.78125,510.289062 102.898438,511.132812 104.25,511.132812 Z M104.523438,510.15625 C103.523438,510.15625 102.929688,509.578125 102.929688,508.757812 C102.929688,507.898438 103.59375,507.179688 104.984375,507.179688 L107.15625,507.179688 L106.96875,508.25 C106.765625,509.367188 105.71875,510.15625 104.523438,510.15625 Z M116.984375,511.164062 C118.84375,511.164062 120.0625,510.273438 120.0625,508.671875 C120.0625,507.210938 119,506.742188 117.757812,506.335938 C116.820312,506.03125 115.992188,505.75 115.992188,504.890625 C115.992188,504.164062 116.648438,503.609375 117.703125,503.609375 C118.890625,503.609375 119.539062,504.351562 119.539062,504.984375 L119.539062,505.0625 L119.539062,505.0625 L120.609375,505.0625 C120.617188,505.054688 120.617188,504.921875 120.617188,504.90625 C120.617188,503.828125 119.59375,502.6875 117.726562,502.6875 C115.914062,502.6875 114.859375,503.609375 114.859375,505.03125 C114.859375,506.523438 116.289062,507.015625 117.195312,507.296875 C118.117188,507.59375 118.9375,507.851562 118.9375,508.765625 C118.9375,509.625 118.226562,510.179688 117.0625,510.179688 C115.882812,510.179688 115.078125,509.570312 114.960938,508.875 C114.953125,508.828125 114.945312,508.773438 114.953125,508.726562 L113.851562,508.726562 L113.851562,508.8125 L113.851562,508.8125 C113.851562,510.070312 115.125,511.164062 116.984375,511.164062 Z M126.65625,501.75 C127.585938,501.34375 128.054688,500.828125 128.054688,500.015625 C128.054688,499.34375 127.515625,498.835938 126.609375,498.835938 C126.164062,498.835938 125.9375,498.890625 125.734375,498.984375 L125.625,499.695312 C125.804688,499.625 126.023438,499.554688 126.445312,499.554688 C126.882812,499.554688 127.195312,499.820312 127.195312,500.140625 C127.195312,500.492188 127,500.765625 126.28125,501.125 L126.65625,501.75 Z M125.304688,511.132812 C127.125,511.132812 128.28125,510.015625 128.46875,509.015625 L127.328125,509.015625 C127.164062,509.578125 126.46875,510.125 125.375,510.125 C123.859375,510.125 123.289062,509.070312 123.289062,507.945312 C123.289062,507.664062 123.328125,507.359375 123.375,507.179688 L128.804688,507.179688 C128.820312,507.101562 129,506.109375 129,506.078125 C129.234375,504.570312 128.492188,502.6875 126.078125,502.6875 C124.195312,502.6875 122.859375,503.835938 122.539062,505.664062 L122.328125,506.820312 C122.273438,507.109375 122.203125,507.59375 122.203125,508.054688 C122.203125,510.0625 123.515625,511.132812 125.304688,511.132812 Z M127.882812,506.257812 L123.5625,506.257812 C123.5625,506.242188 123.671875,505.726562 123.671875,505.710938 C123.96875,504.3125 124.945312,503.65625 126.039062,503.65625 C127.46875,503.65625 128.132812,504.734375 127.914062,506.054688 C127.914062,506.09375 127.890625,506.234375 127.882812,506.257812 Z M137.320312,511 L141.460938,502.820312 L140.296875,502.820312 L136.9375,509.726562 L136.859375,509.726562 L135.875,502.820312 L134.703125,502.820312 L136.085938,511 L137.320312,511 Z M147.132812,501.460938 L145.664062,498.71875 L144.414062,498.71875 L146.257812,501.460938 L147.132812,501.460938 Z M144.546875,511.132812 C145.820312,511.132812 146.640625,510.4375 146.921875,509.875 L147,509.875 L146.804688,511 L147.914062,511 L148.71875,506.4375 C148.796875,506.046875 148.867188,505.59375 148.867188,505.164062 C148.867188,503.703125 147.875,502.6875 146.023438,502.6875 C144.304688,502.6875 143.195312,503.546875 142.976562,504.71875 L144.085938,504.71875 C144.265625,504.171875 144.851562,503.671875 145.9375,503.671875 C147.28125,503.671875 147.78125,504.46875 147.78125,505.265625 C147.78125,505.421875 147.757812,505.601562 147.742188,505.695312 L147.65625,506.242188 L145.382812,506.242188 C143.304688,506.242188 142.234375,507.164062 142.09375,508.507812 C142.078125,508.640625 142.078125,508.765625 142.078125,508.867188 C142.078125,510.289062 143.195312,511.132812 144.546875,511.132812 Z M144.820312,510.15625 C143.820312,510.15625 143.226562,509.578125 143.226562,508.757812 C143.226562,507.898438 143.890625,507.179688 145.28125,507.179688 L147.453125,507.179688 L147.265625,508.25 C147.0625,509.367188 146.015625,510.15625 144.820312,510.15625 Z M155.65625,511 L157.640625,499.773438 L156.492188,499.773438 L154.507812,511 L155.65625,511 Z M163.421875,499.09375 L166.0625,496.359375 L164.84375,496.359375 L162.515625,499.09375 L163.421875,499.09375 Z M162.882812,501.492188 C164.132812,501.492188 165.179688,500.632812 165.3125,499.4375 L164.476562,499.4375 C164.335938,500.25 163.78125,500.742188 162.976562,500.742188 C162.21875,500.742188 161.726562,500.320312 161.726562,499.6875 C161.726562,499.578125 161.734375,499.507812 161.742188,499.4375 L160.914062,499.4375 C160.875,499.570312 160.867188,499.6875 160.867188,499.828125 C160.867188,500.742188 161.632812,501.492188 162.882812,501.492188 Z M161.039062,511.132812 C162.3125,511.132812 163.132812,510.4375 163.414062,509.875 L163.492188,509.875 L163.296875,511 L164.40625,511 L165.210938,506.4375 C165.289062,506.046875 165.359375,505.59375 165.359375,505.164062 C165.359375,503.703125 164.367188,502.6875 162.515625,502.6875 C160.796875,502.6875 159.6875,503.546875 159.46875,504.71875 L160.578125,504.71875 C160.757812,504.171875 161.34375,503.671875 162.429688,503.671875 C163.773438,503.671875 164.273438,504.46875 164.273438,505.265625 C164.273438,505.421875 164.25,505.601562 164.234375,505.695312 L164.148438,506.242188 L161.875,506.242188 C159.796875,506.242188 158.726562,507.164062 158.585938,508.507812 C158.570312,508.640625 158.570312,508.765625 158.570312,508.867188 C158.570312,510.289062 159.6875,511.132812 161.039062,511.132812 Z M161.3125,510.15625 C160.3125,510.15625 159.71875,509.578125 159.71875,508.757812 C159.71875,507.898438 160.382812,507.179688 161.773438,507.179688 L163.945312,507.179688 L163.757812,508.25 C163.554688,509.367188 162.507812,510.15625 161.3125,510.15625 Z M168.367188,511 L169.210938,506.195312 C169.445312,504.859375 170.28125,503.65625 171.75,503.65625 C172.96875,503.65625 173.4375,504.5 173.4375,505.460938 C173.4375,505.820312 173.375,506.226562 173.335938,506.445312 L172.53125,511 L173.671875,511 L174.46875,506.515625 C174.539062,506.109375 174.609375,505.664062 174.609375,505.25 C174.609375,503.914062 173.835938,502.6875 172.085938,502.6875 C170.90625,502.6875 170.0625,503.25 169.617188,504.1875 L169.53125,504.1875 L169.78125,502.820312 L168.664062,502.820312 L167.21875,511 L168.367188,511 Z M179.265625,513.96875 C181.328125,513.96875 182.554688,512.984375 182.929688,510.867188 L184.34375,502.820312 L183.21875,502.820312 L182.9375,504.429688 L182.84375,504.429688 C182.601562,503.53125 181.734375,502.6875 180.335938,502.6875 C178.820312,502.6875 177.367188,503.59375 176.96875,505.6875 L176.789062,506.640625 C176.726562,506.953125 176.679688,507.476562 176.679688,507.757812 C176.679688,509.6875 178.109375,510.851562 179.625,510.851562 C180.914062,510.851562 181.6875,510.1875 181.984375,509.46875 L182.078125,509.46875 L181.867188,510.664062 C181.59375,512.234375 180.8125,512.992188 179.335938,512.992188 C178.117188,512.992188 177.328125,512.304688 177.328125,511.65625 L177.328125,511.554688 L177.328125,511.554688 L176.210938,511.554688 C176.210938,511.5625 176.203125,511.65625 176.203125,511.671875 C176.203125,512.867188 177.390625,513.96875 179.265625,513.96875 Z M179.976562,509.890625 C178.671875,509.890625 177.804688,509.109375 177.804688,507.585938 C177.804688,507.375 177.859375,506.945312 177.898438,506.71875 L178.03125,506.039062 C178.304688,504.554688 179.171875,503.65625 180.390625,503.65625 C181.65625,503.65625 182.585938,504.539062 182.585938,505.976562 L182.58508,506.048172 C182.582079,506.161073 182.568576,506.378472 182.507812,506.71875 L182.359375,507.554688 C182.125,508.921875 181.1875,509.890625 179.976562,509.890625 Z M190.554688,511 L191.398438,506.195312 C191.632812,504.859375 192.46875,503.65625 193.9375,503.65625 C195.15625,503.65625 195.625,504.5 195.625,505.460938 C195.625,505.820312 195.5625,506.226562 195.523438,506.445312 L194.71875,511 L195.859375,511 L196.65625,506.515625 C196.726562,506.109375 196.796875,505.664062 196.796875,505.25 C196.796875,503.914062 196.023438,502.6875 194.273438,502.6875 C193.09375,502.6875 192.25,503.25 191.804688,504.1875 L191.71875,504.1875 L191.96875,502.820312 L190.851562,502.820312 L189.40625,511 L190.554688,511 Z M201.453125,513.96875 C203.515625,513.96875 204.742188,512.984375 205.117188,510.867188 L206.53125,502.820312 L205.40625,502.820312 L205.125,504.429688 L205.03125,504.429688 C204.789062,503.53125 203.921875,502.6875 202.523438,502.6875 C201.007812,502.6875 199.554688,503.59375 199.15625,505.6875 L198.976562,506.640625 C198.914062,506.953125 198.867188,507.476562 198.867188,507.757812 C198.867188,509.6875 200.296875,510.851562 201.8125,510.851562 C203.101562,510.851562 203.875,510.1875 204.171875,509.46875 L204.265625,509.46875 L204.054688,510.664062 C203.78125,512.234375 203,512.992188 201.523438,512.992188 C200.304688,512.992188 199.515625,512.304688 199.515625,511.65625 L199.515625,511.554688 L199.515625,511.554688 L198.398438,511.554688 C198.398438,511.5625 198.390625,511.65625 198.390625,511.671875 C198.390625,512.867188 199.578125,513.96875 201.453125,513.96875 Z M202.164062,509.890625 C200.859375,509.890625 199.992188,509.109375 199.992188,507.585938 C199.992188,507.375 200.046875,506.945312 200.085938,506.71875 L200.21875,506.039062 C200.492188,504.554688 201.359375,503.65625 202.578125,503.65625 C203.84375,503.65625 204.773438,504.539062 204.773438,505.976562 C204.773438,506.046875 204.773438,506.28125 204.695312,506.71875 L204.546875,507.554688 C204.3125,508.921875 203.375,509.890625 202.164062,509.890625 Z M209.085938,511 L209.929688,506.195312 C210.164062,504.859375 211.015625,503.65625 212.484375,503.65625 C213.703125,503.65625 214.195312,504.492188 214.195312,505.453125 C214.195312,505.804688 214.132812,506.234375 214.09375,506.445312 L213.289062,511 L214.4375,511 L215.226562,506.515625 C215.296875,506.109375 215.367188,505.65625 215.367188,505.25 C215.367188,503.898438 214.53125,502.6875 212.8125,502.6875 C211.59375,502.6875 210.75,503.28125 210.335938,504.1875 L210.25,504.1875 L211.0625,499.773438 L209.929688,499.773438 L207.9375,511 L209.085938,511 Z M220.492188,511.132812 C222.3125,511.132812 223.46875,510.015625 223.65625,509.015625 L222.515625,509.015625 C222.351562,509.578125 221.65625,510.125 220.5625,510.125 C219.046875,510.125 218.476562,509.070312 218.476562,507.945312 C218.476562,507.664062 218.515625,507.359375 218.5625,507.179688 L223.992188,507.179688 C224.007812,507.101562 224.1875,506.109375 224.1875,506.078125 C224.421875,504.570312 223.679688,502.6875 221.265625,502.6875 C219.382812,502.6875 218.046875,503.835938 217.726562,505.664062 L217.515625,506.820312 C217.460938,507.109375 217.390625,507.59375 217.390625,508.054688 C217.390625,510.0625 218.703125,511.132812 220.492188,511.132812 Z M223.070312,506.257812 L218.75,506.257812 C218.75,506.242188 218.859375,505.726562 218.859375,505.710938 C219.15625,504.3125 220.132812,503.65625 221.226562,503.65625 C222.65625,503.65625 223.320312,504.734375 223.101562,506.054688 C223.101562,506.09375 223.078125,506.234375 223.070312,506.257812 Z M2.1640625,535 L3.0078125,530.195312 C3.2421875,528.859375 4.09375,527.65625 5.5625,527.65625 C6.78125,527.65625 7.2734375,528.492188 7.2734375,529.453125 C7.2734375,529.804688 7.2109375,530.234375 7.171875,530.445312 L6.3671875,535 L7.515625,535 L8.3046875,530.515625 C8.375,530.109375 8.4453125,529.65625 8.4453125,529.25 C8.4453125,527.898438 7.609375,526.6875 5.890625,526.6875 C4.671875,526.6875 3.828125,527.28125 3.4140625,528.1875 L3.328125,528.1875 L4.140625,523.773438 L3.0078125,523.773438 L1.015625,535 L2.1640625,535 Z M12.7265625,535.132812 C14,535.132812 14.8203125,534.4375 15.1015625,533.875 L15.1796875,533.875 L14.984375,535 L16.09375,535 L16.8984375,530.4375 C16.9765625,530.046875 17.046875,529.59375 17.046875,529.164062 C17.046875,527.703125 16.0546875,526.6875 14.203125,526.6875 C12.484375,526.6875 11.375,527.546875 11.15625,528.71875 L12.265625,528.71875 C12.4453125,528.171875 13.03125,527.671875 14.1171875,527.671875 C15.4609375,527.671875 15.9609375,528.46875 15.9609375,529.265625 C15.9609375,529.421875 15.9375,529.601562 15.921875,529.695312 L15.8359375,530.242188 L13.5625,530.242188 C11.484375,530.242188 10.4140625,531.164062 10.2734375,532.507812 C10.2578125,532.640625 10.2578125,532.765625 10.2578125,532.867188 C10.2578125,534.289062 11.375,535.132812 12.7265625,535.132812 Z M13,534.15625 C12,534.15625 11.40625,533.578125 11.40625,532.757812 C11.40625,531.898438 12.0703125,531.179688 13.4609375,531.179688 L15.6328125,531.179688 L15.4453125,532.25 C15.2421875,533.367188 14.1953125,534.15625 13,534.15625 Z M21.34375,525.1875 C21.8515625,525.1875 22.2265625,524.820312 22.2265625,524.328125 C22.2265625,523.828125 21.8515625,523.453125 21.34375,523.453125 C20.8671875,523.453125 20.484375,523.828125 20.484375,524.328125 C20.484375,524.820312 20.8671875,525.1875 21.34375,525.1875 Z M20.1796875,535 L21.6171875,526.820312 L20.4765625,526.820312 L19.0390625,535 L20.1796875,535 Z M30.8203125,535.132812 C32.734375,535.132812 33.8984375,533.859375 34.1875,532.21875 L34.453125,530.679688 C34.5078125,530.359375 34.5234375,530.007812 34.5234375,529.734375 C34.5234375,527.835938 33.3515625,526.6875 31.640625,526.6875 C30.2578125,526.6875 29.5546875,527.492188 29.2578125,528.117188 L29.1640625,528.117188 L29.953125,523.773438 L28.8125,523.773438 L26.8125,535 L27.9453125,535 L28.2421875,533.328125 L28.328125,533.328125 C28.53125,534.171875 29.4609375,535.132812 30.8203125,535.132812 Z M30.7890625,534.09375 C29.78125,534.09375 28.6328125,533.34375 28.625,531.71875 C28.625,531.679688 28.625,531.507812 28.6640625,531.320312 L28.8671875,530.046875 C29.09375,528.679688 29.984375,527.648438 31.3125,527.648438 C32.6015625,527.648438 33.421875,528.484375 33.421875,529.882812 C33.421875,530.09375 33.4140625,530.382812 33.3828125,530.585938 L33.1640625,531.828125 C32.9375,533.085938 32.0859375,534.09375 30.7890625,534.09375 Z M38.4765625,535.132812 C39.75,535.132812 40.5703125,534.4375 40.8515625,533.875 L40.9296875,533.875 L40.734375,535 L41.84375,535 L42.6484375,530.4375 C42.7265625,530.046875 42.796875,529.59375 42.796875,529.164062 C42.796875,527.703125 41.8046875,526.6875 39.953125,526.6875 C38.234375,526.6875 37.125,527.546875 36.90625,528.71875 L38.015625,528.71875 C38.1953125,528.171875 38.78125,527.671875 39.8671875,527.671875 C41.2109375,527.671875 41.7109375,528.46875 41.7109375,529.265625 C41.7109375,529.421875 41.6875,529.601562 41.671875,529.695312 L41.5859375,530.242188 L39.3125,530.242188 C37.234375,530.242188 36.1640625,531.164062 36.0234375,532.507812 C36.0078125,532.640625 36.0078125,532.765625 36.0078125,532.867188 C36.0078125,534.289062 37.125,535.132812 38.4765625,535.132812 Z M38.75,534.15625 C37.75,534.15625 37.15625,533.578125 37.15625,532.757812 C37.15625,531.898438 37.8203125,531.179688 39.2109375,531.179688 L41.3828125,531.179688 L41.1953125,532.25 C40.9921875,533.367188 39.9453125,534.15625 38.75,534.15625 Z M38.21875,537.546875 C38.671875,537.546875 38.9921875,537.25 38.9921875,536.804688 C38.9921875,536.367188 38.671875,536.054688 38.21875,536.054688 C37.7734375,536.054688 37.453125,536.367188 37.453125,536.804688 C37.453125,537.25 37.7734375,537.546875 38.21875,537.546875 Z M45.8046875,535 L46.6484375,530.195312 C46.8828125,528.859375 47.71875,527.65625 49.1875,527.65625 C50.40625,527.65625 50.875,528.5 50.875,529.460938 C50.875,529.820312 50.8125,530.226562 50.7734375,530.445312 L49.96875,535 L51.109375,535 L51.90625,530.515625 C51.9765625,530.109375 52.046875,529.664062 52.046875,529.25 C52.046875,527.914062 51.2734375,526.6875 49.5234375,526.6875 C48.34375,526.6875 47.5,527.25 47.0546875,528.1875 L46.96875,528.1875 L47.21875,526.820312 L46.1015625,526.820312 L44.65625,535 L45.8046875,535 Z M60.4765625,535.164062 C62.3359375,535.164062 63.5546875,534.273438 63.5546875,532.671875 C63.5546875,531.210938 62.4921875,530.742188 61.25,530.335938 C60.3125,530.03125 59.484375,529.75 59.484375,528.890625 C59.484375,528.164062 60.140625,527.609375 61.1953125,527.609375 C62.3828125,527.609375 63.03125,528.351562 63.03125,528.984375 L63.03125,529.0625 L63.03125,529.0625 L64.1015625,529.0625 C64.109375,529.054688 64.109375,528.921875 64.109375,528.90625 C64.109375,527.828125 63.0859375,526.6875 61.21875,526.6875 C59.40625,526.6875 58.3515625,527.609375 58.3515625,529.03125 C58.3515625,530.523438 59.78125,531.015625 60.6875,531.296875 C61.609375,531.59375 62.4296875,531.851562 62.4296875,532.765625 C62.4296875,533.625 61.71875,534.179688 60.5546875,534.179688 C59.375,534.179688 58.5703125,533.570312 58.453125,532.875 C58.4453125,532.828125 58.4375,532.773438 58.4453125,532.726562 L57.34375,532.726562 L57.34375,532.8125 L57.34375,532.8125 C57.34375,534.070312 58.6171875,535.164062 60.4765625,535.164062 Z M71.078125,525.414062 C71.96875,525.414062 72.53125,524.554688 72.6015625,523.65625 L71.796875,523.65625 C71.7265625,524.234375 71.484375,524.609375 71.09375,524.609375 C70.453125,524.609375 70.4140625,523.390625 69.1640625,523.390625 C68.2890625,523.390625 67.71875,524.132812 67.6328125,525.148438 L68.4375,525.148438 C68.5,524.5625 68.7109375,524.195312 69.140625,524.195312 C69.8359375,524.195312 69.8671875,525.414062 71.078125,525.414062 Z M68.796875,535.132812 C70.6171875,535.132812 71.7734375,534.015625 71.9609375,533.015625 L70.8203125,533.015625 C70.65625,533.578125 69.9609375,534.125 68.8671875,534.125 C67.3515625,534.125 66.78125,533.070312 66.78125,531.945312 C66.78125,531.664062 66.8203125,531.359375 66.8671875,531.179688 L72.296875,531.179688 C72.3125,531.101562 72.4921875,530.109375 72.4921875,530.078125 C72.7265625,528.570312 71.984375,526.6875 69.5703125,526.6875 C67.6875,526.6875 66.3515625,527.835938 66.03125,529.664062 L65.8203125,530.820312 C65.765625,531.109375 65.6953125,531.59375 65.6953125,532.054688 C65.6953125,534.0625 67.0078125,535.132812 68.796875,535.132812 Z M71.375,530.257812 L67.0546875,530.257812 C67.0546875,530.242188 67.1640625,529.726562 67.1640625,529.710938 C67.4609375,528.3125 68.4375,527.65625 69.53125,527.65625 C70.9609375,527.65625 71.625,528.734375 71.40625,530.054688 C71.40625,530.09375 71.3828125,530.234375 71.375,530.257812 Z M78.859375,535 L79.703125,530.195312 C79.9375,528.859375 80.7890625,527.65625 82.2578125,527.65625 C83.4765625,527.65625 83.96875,528.492188 83.96875,529.453125 C83.96875,529.804688 83.90625,530.234375 83.8671875,530.445312 L83.0625,535 L84.2109375,535 L85,530.515625 C85.0703125,530.109375 85.140625,529.65625 85.140625,529.25 C85.140625,527.898438 84.3046875,526.6875 82.5859375,526.6875 C81.3671875,526.6875 80.5234375,527.28125 80.109375,528.1875 L80.0234375,528.1875 L80.8359375,523.773438 L79.703125,523.773438 L77.7109375,535 L78.859375,535 Z M89.4609375,525.1875 C89.96875,525.1875 90.34375,524.820312 90.34375,524.328125 C90.34375,523.828125 89.96875,523.453125 89.4609375,523.453125 C88.984375,523.453125 88.6015625,523.828125 88.6015625,524.328125 C88.6015625,524.820312 88.984375,525.1875 89.4609375,525.1875 Z M88.296875,535 L89.734375,526.820312 L88.59375,526.820312 L87.15625,535 L88.296875,535 Z M98.0546875,523.921875 C98.8984375,523.664062 99.4296875,523.0625 99.4296875,522.351562 C99.4296875,521.609375 98.90625,521.210938 97.921875,521.210938 C97.7109375,521.210938 97.4921875,521.25 97.3515625,521.296875 L97.234375,521.96875 C97.3984375,521.90625 97.640625,521.867188 97.8203125,521.867188 C98.3671875,521.867188 98.6484375,522.0625 98.6484375,522.460938 C98.6484375,522.828125 98.3203125,523.148438 97.75,523.328125 L98.0546875,523.921875 Z M94.4375,525.453125 L96.0390625,523.9375 L96.0703125,523.9375 L97.046875,525.453125 L98,525.453125 L96.5390625,523.21875 L95.796875,523.21875 L93.3984375,525.453125 L94.4375,525.453125 Z M94.515625,535.132812 C96.3359375,535.132812 97.4921875,534.015625 97.6796875,533.015625 L96.5390625,533.015625 C96.375,533.578125 95.6796875,534.125 94.5859375,534.125 C93.0703125,534.125 92.5,533.070312 92.5,531.945312 C92.5,531.664062 92.5390625,531.359375 92.5859375,531.179688 L98.015625,531.179688 C98.03125,531.101562 98.2109375,530.109375 98.2109375,530.078125 C98.4453125,528.570312 97.703125,526.6875 95.2890625,526.6875 C93.40625,526.6875 92.0703125,527.835938 91.75,529.664062 L91.5390625,530.820312 C91.484375,531.109375 91.4140625,531.59375 91.4140625,532.054688 C91.4140625,534.0625 92.7265625,535.132812 94.515625,535.132812 Z M97.09375,530.257812 L92.7734375,530.257812 C92.7734375,530.242188 92.8828125,529.726562 92.8828125,529.710938 C93.1796875,528.3125 94.15625,527.65625 95.25,527.65625 C96.6796875,527.65625 97.34375,528.734375 97.125,530.054688 C97.125,530.09375 97.1015625,530.234375 97.09375,530.257812 Z M102.71875,535.132812 C103.90625,535.132812 104.765625,534.46875 105.15625,533.585938 L105.25,533.585938 L105,535 L106.078125,535 L107.515625,526.820312 L106.421875,526.820312 L105.578125,531.585938 C105.351562,532.921875 104.539062,534.109375 103.078125,534.109375 C101.875,534.109375 101.296875,533.414062 101.296875,532.390625 C101.296875,532.054688 101.351562,531.640625 101.40625,531.34375 L102.21875,526.820312 L101.085938,526.820312 L100.273438,531.273438 C100.195312,531.648438 100.117188,532.15625 100.117188,532.59375 C100.117188,533.992188 101.039062,535.132812 102.71875,535.132812 Z M113.742188,535 L114.585938,530.195312 C114.820312,528.859375 115.65625,527.65625 117.125,527.65625 C118.34375,527.65625 118.8125,528.5 118.8125,529.460938 C118.8125,529.820312 118.75,530.226562 118.710938,530.445312 L117.90625,535 L119.046875,535 L119.84375,530.515625 C119.914062,530.109375 119.984375,529.664062 119.984375,529.25 C119.984375,527.914062 119.210938,526.6875 117.460938,526.6875 C116.28125,526.6875 115.4375,527.25 114.992188,528.1875 L114.90625,528.1875 L115.15625,526.820312 L114.039062,526.820312 L112.59375,535 L113.742188,535 Z M123.007812,535 L123.851562,530.195312 C124.085938,528.859375 124.9375,527.65625 126.40625,527.65625 C127.625,527.65625 128.117188,528.492188 128.117188,529.453125 C128.117188,529.804688 128.054688,530.234375 128.015625,530.445312 L127.210938,535 L128.359375,535 L129.148438,530.515625 C129.21875,530.109375 129.289062,529.65625 129.289062,529.25 C129.289062,527.898438 128.453125,526.6875 126.734375,526.6875 C125.515625,526.6875 124.671875,527.28125 124.257812,528.1875 L124.171875,528.1875 L124.984375,523.773438 L123.851562,523.773438 L121.859375,535 L123.007812,535 Z M133.570312,535.132812 C134.84375,535.132812 135.664062,534.4375 135.945312,533.875 L136.023438,533.875 L135.828125,535 L136.9375,535 L137.742188,530.4375 C137.820312,530.046875 137.890625,529.59375 137.890625,529.164062 C137.890625,527.703125 136.898438,526.6875 135.046875,526.6875 C133.328125,526.6875 132.21875,527.546875 132,528.71875 L133.109375,528.71875 C133.289062,528.171875 133.875,527.671875 134.960938,527.671875 C136.304688,527.671875 136.804688,528.46875 136.804688,529.265625 C136.804688,529.421875 136.78125,529.601562 136.765625,529.695312 L136.679688,530.242188 L134.40625,530.242188 C132.328125,530.242188 131.257812,531.164062 131.117188,532.507812 C131.101562,532.640625 131.101562,532.765625 131.101562,532.867188 C131.101562,534.289062 132.21875,535.132812 133.570312,535.132812 Z M133.84375,534.15625 C132.84375,534.15625 132.25,533.578125 132.25,532.757812 C132.25,531.898438 132.914062,531.179688 134.304688,531.179688 L136.476562,531.179688 L136.289062,532.25 C136.085938,533.367188 135.039062,534.15625 133.84375,534.15625 Z M142.695312,535.132812 C143.882812,535.132812 144.742188,534.46875 145.132812,533.585938 L145.226562,533.585938 L144.976562,535 L146.054688,535 L147.492188,526.820312 L146.398438,526.820312 L145.554688,531.585938 C145.328125,532.921875 144.515625,534.109375 143.054688,534.109375 C141.851562,534.109375 141.273438,533.414062 141.273438,532.390625 C141.273438,532.054688 141.328125,531.640625 141.382812,531.34375 L142.195312,526.820312 L141.0625,526.820312 L140.25,531.273438 C140.171875,531.648438 140.09375,532.15625 140.09375,532.59375 C140.09375,533.992188 141.015625,535.132812 142.695312,535.132812 Z M155.671875,535 L159.8125,526.820312 L158.648438,526.820312 L155.289062,533.726562 L155.210938,533.726562 L154.226562,526.820312 L153.054688,526.820312 L154.4375,535 L155.671875,535 Z M165.484375,525.460938 L164.015625,522.71875 L162.765625,522.71875 L164.609375,525.460938 L165.484375,525.460938 Z M162.898438,535.132812 C164.171875,535.132812 164.992188,534.4375 165.273438,533.875 L165.351562,533.875 L165.15625,535 L166.265625,535 L167.070312,530.4375 C167.148438,530.046875 167.21875,529.59375 167.21875,529.164062 C167.21875,527.703125 166.226562,526.6875 164.375,526.6875 C162.65625,526.6875 161.546875,527.546875 161.328125,528.71875 L162.4375,528.71875 C162.617188,528.171875 163.203125,527.671875 164.289062,527.671875 C165.632812,527.671875 166.132812,528.46875 166.132812,529.265625 C166.132812,529.421875 166.109375,529.601562 166.09375,529.695312 L166.007812,530.242188 L163.734375,530.242188 C161.65625,530.242188 160.585938,531.164062 160.445312,532.507812 C160.429688,532.640625 160.429688,532.765625 160.429688,532.867188 C160.429688,534.289062 161.546875,535.132812 162.898438,535.132812 Z M163.171875,534.15625 C162.171875,534.15625 161.578125,533.578125 161.578125,532.757812 C161.578125,531.898438 162.242188,531.179688 163.632812,531.179688 L165.804688,531.179688 L165.617188,532.25 C165.414062,533.367188 164.367188,534.15625 163.171875,534.15625 Z M176.09375,535.132812 C177.734375,535.132812 178.960938,534.273438 179.1875,532.984375 L178.039062,532.984375 C177.890625,533.59375 177.21875,534.125 176.148438,534.125 C174.757812,534.125 174.03125,533.242188 174.03125,531.757812 C174.03125,531.5 174.054688,531.25 174.117188,530.914062 L174.28125,529.96875 C174.546875,528.484375 175.460938,527.65625 176.664062,527.65625 C177.9375,527.65625 178.585938,528.507812 178.585938,529.25 L178.585938,529.34375 L178.585938,529.34375 L179.695312,529.34375 C179.703125,529.335938 179.703125,529.257812 179.703125,529.242188 C179.703125,527.875 178.585938,526.6875 176.671875,526.6875 C174.859375,526.6875 173.539062,527.71875 173.203125,529.671875 L173,530.84375 C172.929688,531.257812 172.898438,531.695312 172.898438,532.007812 C172.898438,533.921875 174.171875,535.132812 176.09375,535.132812 Z M185.398438,525.75 C186.328125,525.34375 186.796875,524.828125 186.796875,524.015625 C186.796875,523.34375 186.257812,522.835938 185.351562,522.835938 C184.90625,522.835938 184.679688,522.890625 184.476562,522.984375 L184.367188,523.695312 C184.546875,523.625 184.765625,523.554688 185.1875,523.554688 C185.625,523.554688 185.9375,523.820312 185.9375,524.140625 C185.9375,524.492188 185.742188,524.765625 185.023438,525.125 L185.398438,525.75 Z M183.421875,535.132812 C184.695312,535.132812 185.515625,534.4375 185.796875,533.875 L185.875,533.875 L185.679688,535 L186.789062,535 L187.59375,530.4375 C187.671875,530.046875 187.742188,529.59375 187.742188,529.164062 C187.742188,527.703125 186.75,526.6875 184.898438,526.6875 C183.179688,526.6875 182.070312,527.546875 181.851562,528.71875 L182.960938,528.71875 C183.140625,528.171875 183.726562,527.671875 184.8125,527.671875 C186.15625,527.671875 186.65625,528.46875 186.65625,529.265625 C186.65625,529.421875 186.632812,529.601562 186.617188,529.695312 L186.53125,530.242188 L184.257812,530.242188 C182.179688,530.242188 181.109375,531.164062 180.96875,532.507812 C180.953125,532.640625 180.953125,532.765625 180.953125,532.867188 C180.953125,534.289062 182.070312,535.132812 183.421875,535.132812 Z M183.695312,534.15625 C182.695312,534.15625 182.101562,533.578125 182.101562,532.757812 C182.101562,531.898438 182.765625,531.179688 184.15625,531.179688 L186.328125,531.179688 L186.140625,532.25 C185.9375,533.367188 184.890625,534.15625 183.695312,534.15625 Z M190.75,535 L191.601562,530.15625 C191.835938,528.804688 192.578125,527.65625 193.960938,527.65625 C195.085938,527.65625 195.492188,528.4375 195.492188,529.421875 C195.492188,529.773438 195.453125,530.140625 195.414062,530.359375 L194.59375,535 L195.734375,535 L196.59375,530.164062 C196.851562,528.71875 197.585938,527.65625 198.828125,527.65625 C199.90625,527.65625 200.320312,528.421875 200.320312,529.4375 C200.320312,529.78125 200.265625,530.15625 200.226562,530.375 L199.414062,535 L200.554688,535 L201.359375,530.445312 C201.421875,530.070312 201.5,529.578125 201.5,529.15625 C201.5,527.820312 200.765625,526.6875 199.117188,526.6875 C197.664062,526.6875 196.945312,527.609375 196.664062,528.25 L196.585938,528.25 C196.320312,527.367188 195.546875,526.6875 194.296875,526.6875 C193.085938,526.6875 192.335938,527.390625 192,528.1875 L191.914062,528.1875 L192.15625,526.820312 L191.046875,526.820312 L189.601562,535 L190.75,535 Z M208.171875,535 L209.015625,530.195312 C209.25,528.859375 210.085938,527.65625 211.554688,527.65625 C212.773438,527.65625 213.242188,528.5 213.242188,529.460938 C213.242188,529.820312 213.179688,530.226562 213.140625,530.445312 L212.335938,535 L213.476562,535 L214.273438,530.515625 C214.34375,530.109375 214.414062,529.664062 214.414062,529.25 C214.414062,527.914062 213.640625,526.6875 211.890625,526.6875 C210.710938,526.6875 209.867188,527.25 209.421875,528.1875 L209.335938,528.1875 L209.585938,526.820312 L208.46875,526.820312 L207.023438,535 L208.171875,535 Z M217.4375,535 L218.28125,530.195312 C218.515625,528.859375 219.367188,527.65625 220.835938,527.65625 C222.054688,527.65625 222.546875,528.492188 222.546875,529.453125 C222.546875,529.804688 222.484375,530.234375 222.445312,530.445312 L221.640625,535 L222.789062,535 L223.578125,530.515625 C223.648438,530.109375 223.71875,529.65625 223.71875,529.25 C223.71875,527.898438 222.882812,526.6875 221.164062,526.6875 C219.945312,526.6875 219.101562,527.28125 218.6875,528.1875 L218.601562,528.1875 L219.414062,523.773438 L218.28125,523.773438 L216.289062,535 L217.4375,535 Z M228.601562,525.460938 L230.21875,523.296875 L230.242188,523.296875 L231.148438,525.460938 L232.148438,525.460938 L230.804688,522.523438 L229.882812,522.523438 L227.5625,525.460938 L228.601562,525.460938 Z M228,535.132812 C229.273438,535.132812 230.09375,534.4375 230.375,533.875 L230.453125,533.875 L230.257812,535 L231.367188,535 L232.171875,530.4375 C232.25,530.046875 232.320312,529.59375 232.320312,529.164062 C232.320312,527.703125 231.328125,526.6875 229.476562,526.6875 C227.757812,526.6875 226.648438,527.546875 226.429688,528.71875 L227.539062,528.71875 C227.71875,528.171875 228.304688,527.671875 229.390625,527.671875 C230.734375,527.671875 231.234375,528.46875 231.234375,529.265625 C231.234375,529.421875 231.210938,529.601562 231.195312,529.695312 L231.109375,530.242188 L228.835938,530.242188 C226.757812,530.242188 225.6875,531.164062 225.546875,532.507812 C225.53125,532.640625 225.53125,532.765625 225.53125,532.867188 C225.53125,534.289062 226.648438,535.132812 228,535.132812 Z M228.273438,534.15625 C227.273438,534.15625 226.679688,533.578125 226.679688,532.757812 C226.679688,531.898438 227.34375,531.179688 228.734375,531.179688 L230.90625,531.179688 L230.71875,532.25 C230.515625,533.367188 229.46875,534.15625 228.273438,534.15625 Z M227.742188,537.546875 C228.195312,537.546875 228.515625,537.25 228.515625,536.804688 C228.515625,536.367188 228.195312,536.054688 227.742188,536.054688 C227.296875,536.054688 226.976562,536.367188 226.976562,536.804688 C226.976562,537.25 227.296875,537.546875 227.742188,537.546875 Z M235.328125,535 L236.171875,530.195312 C236.40625,528.859375 237.242188,527.65625 238.710938,527.65625 C239.929688,527.65625 240.398438,528.5 240.398438,529.460938 C240.398438,529.820312 240.335938,530.226562 240.296875,530.445312 L239.492188,535 L240.632812,535 L241.429688,530.515625 C241.5,530.109375 241.570312,529.664062 241.570312,529.25 C241.570312,527.914062 240.796875,526.6875 239.046875,526.6875 C237.867188,526.6875 237.023438,527.25 236.578125,528.1875 L236.492188,528.1875 L236.742188,526.820312 L235.625,526.820312 L234.179688,535 L235.328125,535 Z M4.1015625,559.117188 C5.46875,559.117188 6.25,558.25 6.484375,557.617188 L6.578125,557.617188 L6.3359375,559 L7.453125,559 L9.09375,549.726562 L10.375,549.726562 L10.5390625,548.8125 L9.2578125,548.8125 L9.4453125,547.773438 L8.2890625,547.773438 L8.109375,548.8125 L6.3125,548.8125 L6.15625,549.726562 L7.953125,549.726562 L7.4765625,552.429688 L7.3828125,552.429688 C7.2421875,551.671875 6.3515625,550.6875 4.921875,550.6875 C2.9921875,550.6875 1.8359375,551.9375 1.53125,553.546875 L1.2421875,555.078125 C1.1796875,555.375 1.1640625,555.734375 1.1640625,556.039062 C1.1640625,557.90625 2.3984375,559.117188 4.1015625,559.117188 Z M4.4375,558.109375 C3.1328125,558.109375 2.3046875,557.265625 2.3046875,555.867188 C2.3046875,555.59375 2.328125,555.296875 2.3515625,555.15625 L2.59375,553.9375 C2.8515625,552.640625 3.640625,551.664062 4.96875,551.664062 C6.03125,551.664062 7.1640625,552.429688 7.1640625,554.03125 C7.1640625,554.101562 7.1484375,554.234375 7.1171875,554.429688 L6.8984375,555.703125 C6.6484375,557.101562 5.7578125,558.109375 4.4375,558.109375 Z M13.2734375,559.132812 C14.4609375,559.132812 15.3203125,558.46875 15.7109375,557.585938 L15.8046875,557.585938 L15.5546875,559 L16.6328125,559 L17.921875,551.640625 L18.046875,551.640625 C19.3671875,551.640625 20.1015625,550.773438 20.3125,549.5625 L20.4765625,548.609375 L19.453125,548.609375 L19.2734375,549.578125 C19.1484375,550.3125 18.8046875,550.820312 17.9609375,550.820312 L16.9765625,550.820312 L16.1328125,555.585938 C15.90625,556.921875 15.09375,558.109375 13.6328125,558.109375 C12.4296875,558.109375 11.8515625,557.414062 11.8515625,556.390625 C11.8515625,556.054688 11.90625,555.640625 11.9609375,555.34375 L12.7734375,550.820312 L11.640625,550.820312 L10.8203125,555.273438 C10.75,555.648438 10.671875,556.15625 10.671875,556.59375 C10.671875,557.992188 11.5859375,559.132812 13.2734375,559.132812 Z M23.6796875,559.132812 C25.7109375,559.132812 26.90625,557.96875 27.2578125,556.03125 L27.4609375,554.914062 C27.515625,554.570312 27.546875,554.1875 27.546875,553.953125 C27.546875,553.023438 27.2109375,552.242188 26.8828125,551.84375 L26.90625,551.78125 C28.1171875,551.765625 28.5234375,550.960938 28.75,549.6875 L28.9453125,548.609375 L27.9140625,548.609375 L27.703125,549.78125 C27.5625,550.554688 27.171875,551.03125 26.3828125,551.03125 C25.6484375,551.03125 25.1484375,550.6875 24.234375,550.6875 C22.5078125,550.6875 21.109375,551.796875 20.765625,553.765625 L20.5703125,554.875 C20.5078125,555.234375 20.484375,555.625 20.484375,556.007812 C20.484375,557.96875 21.8671875,559.132812 23.6796875,559.132812 Z M23.8203125,558.132812 C22.4375,558.132812 21.6015625,557.195312 21.6015625,555.828125 C21.6015625,555.46875 21.6328125,555.210938 21.6796875,554.953125 L21.859375,553.984375 C22.140625,552.382812 23.0703125,551.6875 24.2109375,551.6875 C25.5625,551.6875 26.40625,552.632812 26.40625,553.945312 C26.40625,554.0625 26.40625,554.453125 26.3671875,554.703125 L26.1875,555.742188 C25.9140625,557.273438 25.078125,558.132812 23.8203125,558.132812 Z M22.9453125,561.546875 C23.3984375,561.546875 23.71875,561.25 23.71875,560.804688 C23.71875,560.367188 23.3984375,560.054688 22.9453125,560.054688 C22.5,560.054688 22.1796875,560.367188 22.1796875,560.804688 C22.1796875,561.25 22.5,561.546875 22.9453125,561.546875 Z M32.484375,559.132812 C34.125,559.132812 35.3515625,558.273438 35.578125,556.984375 L34.4296875,556.984375 C34.28125,557.59375 33.609375,558.125 32.5390625,558.125 C31.1484375,558.125 30.421875,557.242188 30.421875,555.757812 C30.421875,555.5 30.4453125,555.25 30.5078125,554.914062 L30.671875,553.96875 C30.9375,552.484375 31.8515625,551.65625 33.0546875,551.65625 C34.328125,551.65625 34.9765625,552.507812 34.9765625,553.25 L34.9765625,553.34375 L34.9765625,553.34375 L36.0859375,553.34375 C36.09375,553.335938 36.09375,553.257812 36.09375,553.242188 C36.09375,551.875 34.9765625,550.6875 33.0625,550.6875 C31.25,550.6875 29.9296875,551.71875 29.59375,553.671875 L29.390625,554.84375 C29.3203125,555.257812 29.2890625,555.695312 29.2890625,556.007812 C29.2890625,557.921875 30.5625,559.132812 32.484375,559.132812 Z M43.96875,559.164062 C45.828125,559.164062 47.046875,558.273438 47.046875,556.671875 C47.046875,555.210938 45.984375,554.742188 44.7421875,554.335938 C43.8046875,554.03125 42.9765625,553.75 42.9765625,552.890625 C42.9765625,552.164062 43.6328125,551.609375 44.6875,551.609375 C45.875,551.609375 46.5234375,552.351562 46.5234375,552.984375 L46.5234375,553.0625 L46.5234375,553.0625 L47.59375,553.0625 C47.6015625,553.054688 47.6015625,552.921875 47.6015625,552.90625 C47.6015625,551.828125 46.578125,550.6875 44.7109375,550.6875 C42.8984375,550.6875 41.84375,551.609375 41.84375,553.03125 C41.84375,554.523438 43.2734375,555.015625 44.1796875,555.296875 C45.1015625,555.59375 45.921875,555.851562 45.921875,556.765625 C45.921875,557.625 45.2109375,558.179688 44.046875,558.179688 C42.8671875,558.179688 42.0625,557.570312 41.9453125,556.875 C41.9375,556.828125 41.9296875,556.773438 41.9375,556.726562 L40.8359375,556.726562 L40.8359375,556.8125 L40.8359375,556.8125 C40.8359375,558.070312 42.109375,559.164062 43.96875,559.164062 Z M51.9921875,559.132812 C53.1796875,559.132812 54.0390625,558.46875 54.4296875,557.585938 L54.5234375,557.585938 L54.2734375,559 L55.3515625,559 L56.640625,551.640625 L56.765625,551.640625 C58.0859375,551.640625 58.8203125,550.773438 59.03125,549.5625 L59.1953125,548.609375 L58.171875,548.609375 L57.9921875,549.578125 C57.8671875,550.3125 57.5234375,550.820312 56.6796875,550.820312 L55.6953125,550.820312 L54.8515625,555.585938 C54.625,556.921875 53.8125,558.109375 52.3515625,558.109375 C51.1484375,558.109375 50.5703125,557.414062 50.5703125,556.390625 C50.5703125,556.054688 50.625,555.640625 50.6796875,555.34375 L51.4921875,550.820312 L50.359375,550.820312 L49.5390625,555.273438 C49.46875,555.648438 49.390625,556.15625 49.390625,556.59375 C49.390625,557.992188 50.3046875,559.132812 51.9921875,559.132812 Z M51.8671875,561.546875 C52.3203125,561.546875 52.640625,561.25 52.640625,560.804688 C52.640625,560.367188 52.3203125,560.054688 51.8671875,560.054688 C51.421875,560.054688 51.1015625,560.367188 51.1015625,560.804688 C51.1015625,561.25 51.421875,561.546875 51.8671875,561.546875 Z M63.3515625,561.703125 L64.1015625,557.328125 L64.1953125,557.328125 C64.3515625,558.078125 65.21875,559.132812 66.6328125,559.132812 C68.5703125,559.132812 69.7734375,557.835938 70.03125,556.21875 L70.3125,554.679688 C70.375,554.359375 70.375,554.007812 70.375,553.734375 C70.375,551.84375 69.1640625,550.6875 67.4609375,550.6875 C66.0625,550.6875 65.359375,551.5 65.09375,552.117188 L65,552.117188 L65.234375,550.820312 L64.1171875,550.820312 L62.203125,561.703125 L63.3515625,561.703125 Z M66.59375,558.09375 C65.578125,558.09375 64.4453125,557.320312 64.4453125,555.71875 C64.4375,555.679688 64.4453125,555.507812 64.4765625,555.320312 L64.6875,554.046875 C64.9140625,552.65625 65.8125,551.648438 67.1171875,551.648438 C68.421875,551.648438 69.2734375,552.492188 69.2734375,553.882812 C69.2734375,554.101562 69.265625,554.390625 69.234375,554.585938 L69.015625,555.828125 C68.7890625,557.0625 67.9296875,558.09375 66.59375,558.09375 Z M73.0859375,559 L73.9296875,554.195312 C74.1640625,552.859375 75.015625,551.65625 76.484375,551.65625 C77.703125,551.65625 78.1953125,552.492188 78.1953125,553.453125 C78.1953125,553.804688 78.1328125,554.234375 78.09375,554.445312 L77.2890625,559 L78.4375,559 L79.2265625,554.515625 C79.296875,554.109375 79.3671875,553.65625 79.3671875,553.25 C79.3671875,551.898438 78.53125,550.6875 76.8125,550.6875 C75.59375,550.6875 74.75,551.28125 74.3359375,552.1875 L74.25,552.1875 L75.0625,547.773438 L73.9296875,547.773438 L71.9375,559 L73.0859375,559 Z M86.78125,549.460938 L85.3125,546.71875 L84.0625,546.71875 L85.90625,549.460938 L86.78125,549.460938 Z M84.1953125,559.132812 C85.3828125,559.132812 86.2421875,558.46875 86.6328125,557.585938 L86.7265625,557.585938 L86.4765625,559 L87.5546875,559 L88.9921875,550.820312 L87.8984375,550.820312 L87.0546875,555.585938 C86.828125,556.921875 86.015625,558.109375 84.5546875,558.109375 C83.3515625,558.109375 82.7734375,557.414062 82.7734375,556.390625 C82.7734375,556.054688 82.828125,555.640625 82.8828125,555.34375 L83.6953125,550.820312 L82.5625,550.820312 L81.75,555.273438 C81.671875,555.648438 81.59375,556.15625 81.59375,556.59375 C81.59375,557.992188 82.515625,559.132812 84.1953125,559.132812 Z M95.21875,559 L96.0625,554.195312 C96.296875,552.859375 97.1484375,551.65625 98.6171875,551.65625 C99.8359375,551.65625 100.328125,552.492188 100.328125,553.453125 C100.328125,553.804688 100.265625,554.234375 100.226562,554.445312 L99.421875,559 L100.570312,559 L101.359375,554.515625 C101.429688,554.109375 101.5,553.65625 101.5,553.25 C101.5,551.898438 100.664062,550.6875 98.9453125,550.6875 C97.7265625,550.6875 96.8828125,551.28125 96.46875,552.1875 L96.3828125,552.1875 L97.1953125,547.773438 L96.0625,547.773438 L94.0703125,559 L95.21875,559 Z M106.757812,559.132812 C108.789062,559.132812 109.984375,557.96875 110.335938,556.03125 L110.539062,554.914062 C110.59375,554.570312 110.625,554.1875 110.625,553.953125 C110.625,553.023438 110.289062,552.242188 109.960938,551.84375 L109.984375,551.78125 C111.195312,551.765625 111.601562,550.960938 111.828125,549.6875 L112.023438,548.609375 L110.992188,548.609375 L110.78125,549.78125 C110.640625,550.554688 110.25,551.03125 109.460938,551.03125 C108.726562,551.03125 108.226562,550.6875 107.3125,550.6875 C105.585938,550.6875 104.1875,551.796875 103.84375,553.765625 L103.648438,554.875 C103.585938,555.234375 103.5625,555.625 103.5625,556.007812 C103.5625,557.96875 104.945312,559.132812 106.757812,559.132812 Z M106.898438,558.132812 C105.515625,558.132812 104.679688,557.195312 104.679688,555.828125 C104.679688,555.46875 104.710938,555.210938 104.757812,554.953125 L104.9375,553.984375 C105.21875,552.382812 106.148438,551.6875 107.289062,551.6875 C108.640625,551.6875 109.484375,552.632812 109.484375,553.945312 C109.484375,554.0625 109.484375,554.453125 109.445312,554.703125 L109.265625,555.742188 C108.992188,557.273438 108.15625,558.132812 106.898438,558.132812 Z M106.023438,561.546875 C106.476562,561.546875 106.796875,561.25 106.796875,560.804688 C106.796875,560.367188 106.476562,560.054688 106.023438,560.054688 C105.578125,560.054688 105.257812,560.367188 105.257812,560.804688 C105.257812,561.25 105.578125,561.546875 106.023438,561.546875 Z M112.875,561.703125 L113.625,557.328125 L113.71875,557.328125 C113.875,558.078125 114.742188,559.132812 116.15625,559.132812 C118.09375,559.132812 119.296875,557.835938 119.554688,556.21875 L119.835938,554.679688 C119.898438,554.359375 119.898438,554.007812 119.898438,553.734375 C119.898438,551.84375 118.6875,550.6875 116.984375,550.6875 C115.585938,550.6875 114.882812,551.5 114.617188,552.117188 L114.523438,552.117188 L114.757812,550.820312 L113.640625,550.820312 L111.726562,561.703125 L112.875,561.703125 Z M116.117188,558.09375 C115.101563,558.09375 113.96875,557.320312 113.96875,555.71875 C113.960938,555.679688 113.96875,555.507812 114,555.320312 L114.210938,554.046875 C114.4375,552.65625 115.335938,551.648438 116.640625,551.648438 C117.945313,551.648438 118.796875,552.492188 118.796875,553.882812 C118.796875,554.101562 118.789063,554.390625 118.757813,554.585938 L118.539063,555.828125 C118.3125,557.0625 117.453125,558.09375 116.117188,558.09375 Z M122.109375,559.132812 C122.679688,559.132812 123.117188,558.703125 123.117188,558.15625 C123.117188,557.578125 122.679688,557.148438 122.109375,557.148438 C121.570312,557.148438 121.132812,557.578125 121.132812,558.15625 C121.132812,558.703125 121.570312,559.132812 122.109375,559.132812 Z" id="Bằngcáchchiasẻvàlắngnghehaibạnsẽhiểunhauvàcảmnhậnđượcsựphùhợp." fill="#121721" fill-rule="nonzero"></path>
            <text id="Cách-thức-kết-nối" font-family="SFCompactDisplay-Semibold, SF Compact Display" font-size="24" font-weight="500" letter-spacing="-0.896" fill="#1E2432">
                <tspan x="0" y="382">Cách thức kết nối</tspan>
            </text>
            <text id="Hướng-dẫn-kết-nối" font-family="SFCompactDisplay-Semibold, SF Compact Display" font-size="30" font-weight="500" letter-spacing="-1.12" fill="#8C96A8">
                <tspan x="0" y="29">Hướng dẫn</tspan>
                <tspan x="0" y="65">kết nối</tspan>
            </text>
        </g>
    </g>
</svg>