<?xml version="1.0" encoding="UTF-8"?>
<svg width="320px" height="2204px" viewBox="0 0 320 2204" version="1.1" xmlns="http://www.w3.org/2000/svg" xmlns:xlink="http://www.w3.org/1999/xlink">
    <title>1</title>
    <defs>
        <linearGradient x1="40.5488707%" y1="64.9266776%" x2="106.90084%" y2="-106.23949%" id="linearGradient-1">
            <stop stop-color="#0A0E36" offset="0%"></stop>
            <stop stop-color="#FFA11E" offset="100%"></stop>
        </linearGradient>
        <text id="text-2" font-family="GMVDINPro-CondBlack, GMV DIN Cond" font-size="30" font-style="condensed" font-weight="800" fill="#FFF5D7">
            <tspan x="35" y="145">Hẹn Giấu Mặt!</tspan>
        </text>
        <filter x="-2.6%" y="-21.7%" width="105.2%" height="146.7%" filterUnits="objectBoundingBox" id="filter-3">
            <feOffset dx="0" dy="1" in="SourceAlpha" result="shadowOffsetOuter1"></feOffset>
            <feGaussianBlur stdDeviation="2" in="shadowOffsetOuter1" result="shadowBlurOuter1"></feGaussianBlur>
            <feColorMatrix values="0 0 0 0 0   0 0 0 0 0   0 0 0 0 0  0 0 0 0.5 0" type="matrix" in="shadowBlurOuter1"></feColorMatrix>
        </filter>
        <text id="text-4" font-family="GMVDINPro-CondBlack, GMV DIN Cond" font-size="30" font-style="condensed" font-weight="800" fill="#FFF5D7">
            <tspan x="35" y="199">“</tspan>
        </text>
        <filter x="-2.6%" y="-25.0%" width="105.2%" height="150.0%" filterUnits="objectBoundingBox" id="filter-5">
            <feOffset dx="0" dy="1" in="SourceAlpha" result="shadowOffsetOuter1"></feOffset>
            <feGaussianBlur stdDeviation="2" in="shadowOffsetOuter1" result="shadowBlurOuter1"></feGaussianBlur>
            <feColorMatrix values="0 0 0 0 0   0 0 0 0 0   0 0 0 0 0  0 0 0 0.5 0" type="matrix" in="shadowBlurOuter1"></feColorMatrix>
        </filter>
        <text id="text-6" font-family="SFCompactText-LightItalic, SF Compact Text" font-size="16" font-style="italic" font-weight="300" line-spacing="24" fill="#FFF5D7">
            <tspan x="35" y="325">Người mà bạn có thể nói thật. </tspan>
            <tspan x="35" y="349">Người mà bạn có thể tin tưởng. Có </tspan>
            <tspan x="35" y="373">thể hiện diện trước họ với đầy đủ </tspan>
            <tspan x="35" y="397">ưu điểm và hạn chế của mình?</tspan>
        </text>
        <filter x="-2.6%" y="-5.7%" width="105.2%" height="113.5%" filterUnits="objectBoundingBox" id="filter-7">
            <feOffset dx="0" dy="1" in="SourceAlpha" result="shadowOffsetOuter1"></feOffset>
            <feGaussianBlur stdDeviation="2" in="shadowOffsetOuter1" result="shadowBlurOuter1"></feGaussianBlur>
            <feColorMatrix values="0 0 0 0 0   0 0 0 0 0   0 0 0 0 0  0 0 0 0.5 0" type="matrix" in="shadowBlurOuter1"></feColorMatrix>
        </filter>
        <text id="text-8" font-family="SFCompactText-LightItalic, SF Compact Text" font-size="16" font-style="italic" font-weight="300" line-spacing="24" fill="#FFF5D7">
            <tspan x="35" y="213">Giấu mặt để có thể nói những điều </tspan>
            <tspan x="35" y="237">thật lòng. Để hiểu về nhau rõ ràng </tspan>
            <tspan x="35" y="261">hơn. Để cảm nhận đối phương có </tspan>
            <tspan x="35" y="285">phải là người ấy? </tspan>
        </text>
        <filter x="-2.6%" y="-5.7%" width="105.2%" height="113.5%" filterUnits="objectBoundingBox" id="filter-9">
            <feOffset dx="0" dy="1" in="SourceAlpha" result="shadowOffsetOuter1"></feOffset>
            <feGaussianBlur stdDeviation="2" in="shadowOffsetOuter1" result="shadowBlurOuter1"></feGaussianBlur>
            <feColorMatrix values="0 0 0 0 0   0 0 0 0 0   0 0 0 0 0  0 0 0 0.5 0" type="matrix" in="shadowBlurOuter1"></feColorMatrix>
        </filter>
        <linearGradient x1="15.9216801%" y1="115.606219%" x2="127.7877%" y2="-129.698731%" id="linearGradient-10">
            <stop stop-color="#F50057" offset="0%"></stop>
            <stop stop-color="#651FFF" offset="100%"></stop>
        </linearGradient>
    </defs>
    <g id="1" stroke="none" stroke-width="1" fill="none" fill-rule="evenodd">
        <rect fill="#FFFFFF" x="0" y="0" width="320" height="2204"></rect>
        <polygon id="Rectangle" fill="url(#linearGradient-1)" points="6.9047592e-14 0 320 0 320 466 0 466"></polygon>
        <path d="M362.525,135 C393.715281,135 419,160.284719 419,191.475 L419,191.525 C419,222.715281 393.715281,248 362.525,248 L249.475,248 C218.284719,248 193,222.715281 193,191.525 L193,191.475 C193,160.284719 218.284719,135 249.475,135 L362.525,135 Z M355.39379,177.018592 C347.519861,177.018592 341.136781,183.398602 341.136781,191.268743 C341.136781,199.138884 347.519861,205.518894 355.39379,205.518894 C363.267719,205.518894 369.6508,199.138884 369.6508,191.268743 C369.6508,183.398602 363.267719,177.018592 355.39379,177.018592 Z M305.34758,177.018592 C297.473652,177.018592 291.090571,183.398602 291.090571,191.268743 C291.090571,199.138884 297.473652,205.518894 305.34758,205.518894 C313.221509,205.518894 319.60459,199.138884 319.60459,191.268743 C319.60459,183.398602 313.221509,177.018592 305.34758,177.018592 Z M255.301371,177.018592 C247.427442,177.018592 241.044361,183.398602 241.044361,191.268743 C241.044361,199.138884 247.427442,205.518894 255.301371,205.518894 C263.1753,205.518894 269.55838,199.138884 269.55838,191.268743 C269.55838,183.398602 263.1753,177.018592 255.301371,177.018592 Z" id="Rectangle-3" fill="#FFA722" opacity="0.202520972" transform="translate(306.000000, 191.500000) scale(-1, 1) translate(-306.000000, -191.500000) "></path>
        <path d="M249.525,60 C280.715281,60 306,85.2847188 306,116.475 L306,116.525 C306,147.715281 280.715281,173 249.525,173 L93,173 C85.8202983,173 80,167.179702 80,160 L80,116.475 C80,85.2847188 105.284719,60 136.475,60 L249.525,60 Z M142.301371,102.018592 C134.427442,102.018592 128.044361,108.398602 128.044361,116.268743 C128.044361,124.138884 134.427442,130.518894 142.301371,130.518894 C150.1753,130.518894 156.55838,124.138884 156.55838,116.268743 C156.55838,108.398602 150.1753,102.018592 142.301371,102.018592 Z M192.34758,94.0146082 C184.473652,94.0146082 178.090571,100.394618 178.090571,108.264759 C178.090571,116.1349 184.473652,122.514909 192.34758,122.514909 C200.221509,122.514909 206.60459,116.1349 206.60459,108.264759 C206.60459,100.394618 200.221509,94.0146082 192.34758,94.0146082 Z M242.39379,93.0137229 C234.519861,93.0137229 228.136781,99.3937326 228.136781,107.263874 C228.136781,115.134014 234.519861,121.514024 242.39379,121.514024 C250.267719,121.514024 256.6508,115.134014 256.6508,107.263874 C256.6508,99.3937326 250.267719,93.0137229 242.39379,93.0137229 Z" id="Rectangle-3" fill="#191C3E"></path>
        <g id="Hẹn-Giấu-Mặt!" opacity="0.80321" fill="#FFF5D7" fill-opacity="1">
            <use filter="url(#filter-3)" xlink:href="#text-2"></use>
            <use xlink:href="#text-2"></use>
        </g>
        <g id="“" opacity="0.80321" fill="#FFF5D7" fill-opacity="1">
            <use filter="url(#filter-5)" xlink:href="#text-4"></use>
            <use xlink:href="#text-4"></use>
        </g>
        <text id="—-Sau-khi-bạn-và-đối" font-family="SFCompactDisplay-Light, SF Compact Display" font-size="16" font-weight="300" line-spacing="24" fill="#121721">
            <tspan x="35" y="591">— </tspan>
            <tspan x="35" y="615">Sau khi bạn và đối phương xác nhận </tspan>
            <tspan x="35" y="639">Chanchan sẽ kết nối hai bạn  với </tspan>
            <tspan x="35" y="663">nhau trong một buổi trò chuyện Trực </tspan>
            <tspan x="35" y="687">tiếp và Giấu mặt:</tspan>
        </text>
        <text id="—-Hai-bạn-cùng-quyết" font-family="SFCompactText-LightItalic, SF Compact Text" font-size="16" font-style="italic" font-weight="300" line-spacing="24" fill="#121721">
            <tspan x="35" y="928">— Hai bạn cùng quyết định hẹn hò</tspan>
        </text>
        <text id="Chanchan-sẽ-cung-cấp" font-family="SFCompactDisplay-Light, SF Compact Display" font-size="16" font-weight="300" line-spacing="24" fill="#121721">
            <tspan x="35" y="968">Chanchan sẽ cung cấp thông tin liên </tspan>
            <tspan x="35" y="992">hệ và giúp hai bạn thiết lập buổi hẹn </tspan>
            <tspan x="35" y="1016">thực tế. Đồng thời Chanchan cũng </tspan>
            <tspan x="35" y="1040">sẽ dừng kết nối hai bạn với những </tspan>
            <tspan x="35" y="1064">Thành viên khác cho đến khi buổi </tspan>
            <tspan x="35" y="1088">hẹn của hai người diễn ra.</tspan>
        </text>
        <text id="Hai-bạn-sẽ-cùng-nhau" font-family="SFCompactDisplay-Light, SF Compact Display" font-size="16" font-weight="300" line-spacing="24" fill="#121721">
            <tspan x="35" y="807">Hai bạn sẽ cùng nhau đi qua 21 câu </tspan>
            <tspan x="35" y="831">hỏi thuộc 7 chủ đề để "quyết định" </tspan>
            <tspan x="35" y="855">cả hai có nên hẹn hò?</tspan>
        </text>
        <text id="Chanchan-sẽ-đưa-ra-c" font-family="SFCompactDisplay-Light, SF Compact Display" font-size="16" font-weight="300" line-spacing="24" fill="#121721">
            <tspan x="35" y="723">Chanchan sẽ đưa ra các câu hỏi và </tspan>
            <tspan x="35" y="747">yêu cầu hai bạn cho nhau biết câu </tspan>
            <tspan x="35" y="771">trả lời "thật" của mình!</tspan>
        </text>
        <text id="Chi-tiết" font-family="GMVDINPro-CondBold, GMV DIN Cond" font-size="30" font-style="condensed" font-weight="bold" fill="#121721">
            <tspan x="35" y="549">Chi tiết</tspan>
        </text>
        <text id="Nếu-thành-công" font-family="SFCompactDisplay-Semibold, SF Compact Display" font-size="18" font-weight="500" letter-spacing="-0.72" fill="#1E2432">
            <tspan x="35" y="901">Nếu thành công  </tspan>
        </text>
        <text id="—-Một-hoặc-cả-hai-bạ" font-family="SFCompactText-LightItalic, SF Compact Text" font-size="16" font-style="italic" font-weight="300" line-spacing="24" fill="#121721">
            <tspan x="35" y="1161">—  Một hoặc cả hai bạn không </tspan>
            <tspan x="35" y="1185">quyết định hẹn hò</tspan>
        </text>
        <text id="Nếu-thất-bại" font-family="SFCompactDisplay-Semibold, SF Compact Display" font-size="18" font-weight="500" letter-spacing="-0.72" fill="#1E2432">
            <tspan x="35" y="1134">Nếu thất bại</tspan>
        </text>
        <g id="Người-mà-bạn-có-thể" opacity="0.80321" fill="#FFF5D7" fill-opacity="1">
            <use filter="url(#filter-7)" xlink:href="#text-6"></use>
            <use xlink:href="#text-6"></use>
        </g>
        <g id="Giấu-mặt-để-có-thể-n" opacity="0.80321" fill="#FFF5D7" fill-opacity="1">
            <use filter="url(#filter-9)" xlink:href="#text-8"></use>
            <use xlink:href="#text-8"></use>
        </g>
        <text id="Chừng-nào-cả-hai-bạn" font-family="SFCompactDisplay-Light, SF Compact Display" font-size="16" font-weight="300" line-spacing="24" fill="#121721">
            <tspan x="35" y="1225">Chừng nào cả hai bạn còn dành cho </tspan>
            <tspan x="35" y="1249">nhau cơ hội chừng đó Chanchan còn </tspan>
            <tspan x="35" y="1273">kết nối hai bạn gặp lại. Để giúp hai </tspan>
            <tspan x="35" y="1297">bạn hiểu nhau hơn và có thể dành </tspan>
            <tspan x="35" y="1321">cho nhau thêm một cơ hội nữa. </tspan>
            <tspan x="35" y="1345">Trong một số trường hợp sẽ có sự </tspan>
            <tspan x="35" y="1369">góp mặt của chuyên gia tâm lý nếu </tspan>
            <tspan x="35" y="1393">một trong hai bạn có yêu cầu</tspan>
        </text>
        <text id="Ẩn-danh-và-giấu-mặt" font-family="SFCompactDisplay-Light, SF Compact Display" font-size="16" font-weight="300" line-spacing="24" fill="#121721">
            <tspan x="34" y="1615">Ẩn danh và giấu mặt là nguyên tắc </tspan>
            <tspan x="34" y="1639">hai bạn cần tuân thủ cho đến câu hỏi </tspan>
            <tspan x="34" y="1663">số 21. Nếu vi phạm bạn sẽ bị đánh </tspan>
            <tspan x="34" y="1687">dấu là Không an toàn và áp dụng các </tspan>
            <tspan x="34" y="1711">biện pháp hạn chế.</tspan>
        </text>
        <text id="Ẩn-danh-và-Giấu-mặt!" font-family="SFCompactDisplay-Semibold, SF Compact Display" font-size="18" font-weight="500" letter-spacing="-0.72" fill="#1E2432">
            <tspan x="34" y="1555">Ẩn danh và </tspan>
            <tspan x="34" y="1576">Giấu mặt!</tspan>
        </text>
        <rect id="Rectangle" fill="url(#linearGradient-10)" x="34" y="1756" width="250" height="316" rx="16"></rect>
        <text id="Nếu-đối-phương-hỏi-h" font-family="SFCompactDisplay-Light, SF Compact Display" font-size="16" font-weight="300" line-spacing="23" fill="#FFFFFF">
            <tspan x="69" y="1855">Nếu đối phương hỏi hoặc </tspan>
            <tspan x="69" y="1878">chia sẻ với bạn thông tin </tspan>
            <tspan x="69" y="1901">xác định danh tính. Ví dụ: </tspan>
            <tspan x="69" y="1924">Số điện thoại, Facebook, </tspan>
            <tspan x="69" y="1947">Zalo… Đó là dấu hiệu của </tspan>
            <tspan x="69" y="1970">kết nối Không an toàn.</tspan>
        </text>
        <text id="Trước-câu-hỏi-số-21!" font-family="SFCompactDisplay-Semibold, SF Compact Display" font-size="20" font-weight="500" letter-spacing="-0.8" fill="#FFFFFF">
            <tspan x="69" y="1819">Trước câu hỏi số 21!</tspan>
        </text>
        <text id="Khi-đó-bạn-hãy-yêu-c" font-family="SFCompactDisplay-Light, SF Compact Display" font-size="16" font-weight="300" line-spacing="23" fill="#FFFFFF">
            <tspan x="69" y="2001">Khi đó bạn hãy yêu cầu </tspan>
            <tspan x="69" y="2024">Chanchan “Dừng” kết nối</tspan>
        </text>
        <text id="—-Cảm-ơn-bạn-đã-đọc" font-family="SFCompactText-LightItalic, SF Compact Text" font-size="16" font-style="italic" font-weight="300" line-spacing="24" fill="#121721">
            <tspan x="34" y="2107">— </tspan>
            <tspan x="34" y="2131">Cảm ơn bạn đã đọc Quy định. Sau </tspan>
            <tspan x="34" y="2155">đây bạn có thể nhấn Like hoặc </tspan>
            <tspan x="34" y="2179">“Xác nhận” để tiếp tục</tspan>
        </text>
        <text id="—-Kết-nối-của-hai-bạ" font-family="SFCompactText-LightItalic, SF Compact Text" font-size="16" font-style="italic" font-weight="300" line-spacing="24" fill="#121721">
            <tspan x="35" y="1441">— </tspan>
            <tspan x="35" y="1465">Kết nối của hai bạn được vận hành </tspan>
            <tspan x="35" y="1489">bởi chatbot Chanchan</tspan>
        </text>
    </g>
</svg>