<?xml version="1.0" encoding="UTF-8"?>
<svg width="320px" height="318px" viewBox="0 0 320 318" version="1.1" xmlns="http://www.w3.org/2000/svg" xmlns:xlink="http://www.w3.org/1999/xlink">
    <title>3</title>
    <g id="Chanchan" stroke="none" stroke-width="1" fill="none" fill-rule="evenodd">
        <g id="iPhone-SE" transform="translate(0.000000, -2935.000000)" fill="#121721" fill-rule="nonzero">
            <path d="M40.2063424,2953.54203 C42.1339241,2953.54203 43.718131,2952.46879 44.0615059,2950.87851 C44.0927218,2950.761 44.1161337,2950.59649 44.1161337,2950.54166 L42.9689494,2950.54166 C42.7192222,2951.7089 41.6812936,2952.46879 40.2921861,2952.46879 C38.4972719,2952.46879 37.4359314,2951.33288 37.4359314,2949.44491 C37.4359314,2949.10806 37.4905592,2948.45001 37.537383,2948.19933 L37.86515,2946.54638 C38.2553487,2944.57225 39.3322972,2943.4755 41.0101518,2943.4755 C42.500711,2943.4755 43.5464436,2944.43907 43.6556992,2945.59848 C43.6635032,2945.66115 43.6635032,2945.73166 43.6556992,2945.82567 L44.7794716,2945.82567 C44.7872756,2945.7865 44.7950795,2945.69249 44.7950795,2945.55931 C44.7950795,2943.8437 43.2498925,2942.39443 41.0335637,2942.39443 C38.770411,2942.39443 37.1940081,2943.8907 36.7257697,2946.32703 L36.3433749,2948.29333 C36.304355,2948.52052 36.2731391,2949.05322 36.2731391,2949.48408 C36.2731391,2951.96742 37.7871102,2953.54203 40.2063424,2953.54203 Z M47.0504282,2953.31485 L47.8932575,2948.49702 C48.1273767,2947.15742 48.97801,2945.95101 50.4451572,2945.95101 C51.6625773,2945.95101 52.1542277,2946.78923 52.1542277,2947.7528 C52.1542277,2948.10532 52.0917959,2948.53619 52.052776,2948.7477 L51.2489666,2953.31485 L52.3961509,2953.31485 L53.1843524,2948.8182 C53.2545881,2948.41084 53.3248239,2947.95648 53.3248239,2947.54912 C53.3248239,2946.19386 52.4897986,2944.97961 50.7729242,2944.97961 C49.5555041,2944.97961 48.7126748,2945.57498 48.2990642,2946.48371 L48.2132205,2946.48371 L49.0248338,2942.05757 L47.8932575,2942.05757 L45.9032439,2953.31485 L47.0504282,2953.31485 Z M60.0752621,2943.74969 L62.7676333,2941 L61.4955855,2941 L59.1153732,2943.74969 L60.0752621,2943.74969 Z M58.1476803,2953.44802 C59.3338845,2953.44802 60.1923217,2952.78214 60.5825204,2951.89692 L60.6761681,2951.89692 L60.4264409,2953.31485 L61.5033894,2953.31485 L62.9393208,2945.11278 L61.8467643,2945.11278 L61.0039351,2949.89144 C60.7776198,2951.23104 59.9660064,2952.42179 58.5066631,2952.42179 C57.304851,2952.42179 56.7273569,2951.72457 56.7273569,2950.69833 C56.7273569,2950.36148 56.7819847,2949.94628 56.8366125,2949.64859 L57.6482259,2945.11278 L56.5166496,2945.11278 L55.7050362,2949.57809 C55.6269965,2949.95412 55.5489567,2950.46332 55.5489567,2950.90201 C55.5489567,2952.30428 56.4698257,2953.44802 58.1476803,2953.44802 Z M67.7153533,2953.44802 C69.354188,2953.44802 70.5794121,2952.5863 70.8057273,2951.29371 L69.658543,2951.29371 C69.5102675,2951.90475 68.8391257,2952.43745 67.7699812,2952.43745 C66.3808736,2952.43745 65.655104,2951.55223 65.655104,2950.06379 C65.655104,2949.80527 65.6785159,2949.55459 65.7409477,2949.21773 L65.9048312,2948.26983 C66.1701663,2946.7814 67.0832314,2945.95101 68.2850435,2945.95101 C69.5570914,2945.95101 70.2048213,2946.8049 70.2048213,2947.54912 L70.2048213,2947.64312 L70.2048213,2947.64312 L71.3129857,2947.64312 C71.3207897,2947.63529 71.3207897,2947.55695 71.3207897,2947.54128 C71.3207897,2946.17036 70.2048213,2944.97961 68.2928475,2944.97961 C66.4823253,2944.97961 65.1634536,2946.01368 64.8278827,2947.97215 L64.6249793,2949.14723 C64.5547436,2949.56242 64.5235277,2950.00112 64.5235277,2950.31447 C64.5235277,2952.23377 65.7955755,2953.44802 67.7153533,2953.44802 Z M77.4391058,2953.31485 L78.2819351,2948.49702 C78.5160544,2947.15742 79.3666876,2945.95101 80.8338349,2945.95101 C82.0512549,2945.95101 82.5429053,2946.78923 82.5429053,2947.7528 C82.5429053,2948.10532 82.4804735,2948.53619 82.4414537,2948.7477 L81.6376443,2953.31485 L82.7848285,2953.31485 L83.57303,2948.8182 C83.6432658,2948.41084 83.7135015,2947.95648 83.7135015,2947.54912 C83.7135015,2946.19386 82.8784762,2944.97961 81.1616018,2944.97961 C79.9441817,2944.97961 79.1013525,2945.57498 78.6877418,2946.48371 L78.6018981,2946.48371 L79.4135115,2942.05757 L78.2819351,2942.05757 L76.2919216,2953.31485 L77.4391058,2953.31485 Z M87.9900797,2953.44802 C89.2621276,2953.44802 90.0815449,2952.75081 90.362488,2952.18677 L90.4405278,2952.18677 L90.2454284,2953.31485 L91.3535928,2953.31485 L92.1574022,2948.73987 C92.2354419,2948.34817 92.3056777,2947.89381 92.3056777,2947.46294 C92.3056777,2945.99801 91.3145729,2944.97961 89.4650309,2944.97961 C87.7481565,2944.97961 86.6399921,2945.84133 86.4214808,2947.01641 L87.5296452,2947.01641 C87.7091366,2946.46804 88.2944347,2945.96667 89.3791872,2945.96667 C90.7214709,2945.96667 91.2209252,2946.76573 91.2209252,2947.56478 C91.2209252,2947.72146 91.1975133,2947.90164 91.1819054,2947.99565 L91.0960616,2948.54402 L88.825105,2948.54402 C86.7492477,2948.54402 85.6801032,2949.46842 85.5396316,2950.81584 C85.5240237,2950.94902 85.5240237,2951.07436 85.5240237,2951.1762 C85.5240237,2952.60196 86.6399921,2953.44802 87.9900797,2953.44802 Z M88.2632188,2952.46879 C87.26431,2952.46879 86.671208,2951.88908 86.671208,2951.06653 C86.671208,2950.2048 87.3345458,2949.48408 88.7236533,2949.48408 L90.8931583,2949.48408 L90.7058629,2950.55732 C90.5029596,2951.67757 89.4572269,2952.46879 88.2632188,2952.46879 Z M96.5978638,2943.4755 C97.1051222,2943.4755 97.479713,2943.10731 97.479713,2942.61378 C97.479713,2942.11241 97.1051222,2941.73638 96.5978638,2941.73638 C96.1218214,2941.73638 95.7394266,2942.11241 95.7394266,2942.61378 C95.7394266,2943.10731 96.1218214,2943.4755 96.5978638,2943.4755 Z M95.4350716,2953.31485 L96.8710029,2945.11278 L95.7316226,2945.11278 L94.2956913,2953.31485 L95.4350716,2953.31485 Z M106.064085,2953.44802 C107.976059,2953.44802 109.138851,2952.1711 109.427598,2950.52599 L109.692933,2948.98272 C109.747561,2948.66153 109.763169,2948.309 109.763169,2948.03482 C109.763169,2946.13119 108.592573,2944.97961 106.883503,2944.97961 C105.502199,2944.97961 104.799841,2945.7865 104.50329,2946.41321 L104.409643,2946.41321 L105.197844,2942.05757 L104.058464,2942.05757 L102.060646,2953.31485 L103.192222,2953.31485 L103.488774,2951.6384 L103.574617,2951.6384 C103.777521,2952.48446 104.706194,2953.44802 106.064085,2953.44802 Z M106.032869,2952.40612 C105.026157,2952.40612 103.878972,2951.65407 103.871168,2950.02462 C103.871168,2949.98545 103.871168,2949.81311 103.910188,2949.62509 L104.113091,2948.34817 C104.339407,2946.97724 105.22906,2945.94317 106.555736,2945.94317 C107.843391,2945.94317 108.662809,2946.7814 108.662809,2948.18366 C108.662809,2948.39518 108.655005,2948.68503 108.623789,2948.88871 L108.405278,2950.13429 C108.178962,2951.39555 107.328329,2952.40612 106.032869,2952.40612 Z M113.71198,2953.44802 C114.984028,2953.44802 115.803446,2952.75081 116.084389,2952.18677 L116.162428,2952.18677 L115.967329,2953.31485 L117.075494,2953.31485 L117.879303,2948.73987 C117.957343,2948.34817 118.027578,2947.89381 118.027578,2947.46294 C118.027578,2945.99801 117.036474,2944.97961 115.186932,2944.97961 C113.470057,2944.97961 112.361893,2945.84133 112.143382,2947.01641 L113.251546,2947.01641 C113.431037,2946.46804 114.016335,2945.96667 115.101088,2945.96667 C116.443372,2945.96667 116.942826,2946.76573 116.942826,2947.56478 C116.942826,2947.72146 116.919414,2947.90164 116.903806,2947.99565 L116.817962,2948.54402 L114.547006,2948.54402 C112.471148,2948.54402 111.402004,2949.46842 111.261532,2950.81584 C111.245924,2950.94902 111.245924,2951.07436 111.245924,2951.1762 C111.245924,2952.60196 112.361893,2953.44802 113.71198,2953.44802 Z M113.98512,2952.46879 C112.986211,2952.46879 112.393109,2951.88908 112.393109,2951.06653 C112.393109,2950.2048 113.056447,2949.48408 114.445554,2949.48408 L116.615059,2949.48408 L116.427764,2950.55732 C116.22486,2951.67757 115.179128,2952.46879 113.98512,2952.46879 Z M113.454449,2955.86869 C113.90708,2955.86869 114.227043,2955.571 114.227043,2955.12447 C114.227043,2954.68577 113.90708,2954.37242 113.454449,2954.37242 C113.009623,2954.37242 112.68966,2954.68577 112.68966,2955.12447 C112.68966,2955.571 113.009623,2955.86869 113.454449,2955.86869 Z M121.032109,2953.31485 L121.874938,2948.49702 C122.109057,2947.15742 122.944083,2945.95101 124.41123,2945.95101 C125.62865,2945.95101 126.096888,2946.79707 126.096888,2947.76063 C126.096888,2948.12099 126.034457,2948.52835 125.995437,2948.7477 L125.191627,2953.31485 L126.331008,2953.31485 L127.127013,2948.8182 C127.197249,2948.41084 127.267485,2947.96431 127.267485,2947.54912 C127.267485,2946.20952 126.494891,2944.97961 124.746801,2944.97961 C123.568401,2944.97961 122.725571,2945.54365 122.280745,2946.48371 L122.194901,2946.48371 L122.444628,2945.11278 L121.32866,2945.11278 L119.884924,2953.31485 L121.032109,2953.31485 Z M136.148408,2953.44802 C137.787242,2953.44802 139.012467,2952.5863 139.238782,2951.29371 L138.091598,2951.29371 C137.943322,2951.90475 137.27218,2952.43745 136.203036,2952.43745 C134.813928,2952.43745 134.088158,2951.55223 134.088158,2950.06379 C134.088158,2949.80527 134.11157,2949.55459 134.174002,2949.21773 L134.337886,2948.26983 C134.603221,2946.7814 135.516286,2945.95101 136.718098,2945.95101 C137.990146,2945.95101 138.637876,2946.8049 138.637876,2947.54912 L138.637876,2947.64312 L138.637876,2947.64312 L139.74604,2947.64312 C139.753844,2947.63529 139.753844,2947.55695 139.753844,2947.54128 C139.753844,2946.17036 138.637876,2944.97961 136.725902,2944.97961 C134.91538,2944.97961 133.596508,2946.01368 133.260937,2947.97215 L133.058034,2949.14723 C132.987798,2949.56242 132.956582,2950.00112 132.956582,2950.31447 C132.956582,2952.23377 134.22863,2953.44802 136.148408,2953.44802 Z M145.770709,2943.74969 L148.46308,2941 L147.191032,2941 L144.81082,2943.74969 L145.770709,2943.74969 Z M144.436229,2953.44802 C146.465262,2953.44802 147.659271,2952.28078 148.010449,2950.33798 L148.213353,2949.21773 C148.275785,2948.87304 148.307,2948.48918 148.307,2948.25417 C148.307,2946.19386 146.933501,2944.97961 144.998115,2944.97961 C143.265633,2944.97961 141.868721,2946.09202 141.525346,2948.06615 L141.338051,2949.17856 C141.267815,2949.53892 141.244403,2949.93061 141.244403,2950.31447 C141.244403,2952.28078 142.633511,2953.44802 144.436229,2953.44802 Z M144.576701,2952.44529 C143.195397,2952.44529 142.360372,2951.50522 142.360372,2950.13429 C142.360372,2949.77394 142.399392,2949.51542 142.446215,2949.2569 L142.617903,2948.2855 C142.898846,2946.67956 143.827519,2945.98234 144.966899,2945.98234 C146.324791,2945.98234 147.16762,2946.93024 147.16762,2948.24633 C147.16762,2948.36384 147.159816,2948.75553 147.120796,2949.00622 L146.941305,2950.04812 C146.67597,2951.58356 145.83314,2952.44529 144.576701,2952.44529 Z M154.66724,2953.31485 L155.27595,2949.85228 L156.407526,2948.95138 L158.686287,2953.31485 L159.958335,2953.31485 L157.304983,2948.34034 L161.316226,2945.11278 L159.724215,2945.11278 L155.603717,2948.48135 L155.525677,2948.48135 L156.641645,2942.05757 L155.502265,2942.05757 L153.52786,2953.31485 L154.66724,2953.31485 Z M163.025297,2953.31485 L163.868126,2948.49702 C164.102245,2947.15742 164.952879,2945.95101 166.420026,2945.95101 C167.637446,2945.95101 168.129096,2946.78923 168.129096,2947.7528 C168.129096,2948.10532 168.066664,2948.53619 168.027645,2948.7477 L167.223835,2953.31485 L168.371019,2953.31485 L169.159221,2948.8182 C169.229457,2948.41084 169.299692,2947.95648 169.299692,2947.54912 C169.299692,2946.19386 168.464667,2944.97961 166.747793,2944.97961 C165.530373,2944.97961 164.687543,2945.57498 164.273933,2946.48371 L164.188089,2946.48371 L164.999702,2942.05757 L163.868126,2942.05757 L161.878112,2953.31485 L163.025297,2953.31485 Z M174.543963,2953.44802 C176.572997,2953.44802 177.767005,2952.28078 178.118184,2950.33798 L178.321087,2949.21773 C178.383519,2948.87304 178.414735,2948.48918 178.414735,2948.25417 C178.414735,2946.19386 177.041235,2944.97961 175.10585,2944.97961 C173.373367,2944.97961 171.976456,2946.09202 171.633081,2948.06615 L171.445786,2949.17856 C171.37555,2949.53892 171.352138,2949.93061 171.352138,2950.31447 C171.352138,2952.28078 172.741245,2953.44802 174.543963,2953.44802 Z M174.684435,2952.44529 C173.303132,2952.44529 172.468106,2951.50522 172.468106,2950.13429 C172.468106,2949.77394 172.507126,2949.51542 172.55395,2949.2569 L172.725637,2948.2855 C173.00658,2946.67956 173.935253,2945.98234 175.074634,2945.98234 C176.432525,2945.98234 177.275355,2946.93024 177.275355,2948.24633 C177.275355,2948.36384 177.267551,2948.75553 177.228531,2949.00622 L177.049039,2950.04812 C176.783704,2951.58356 175.940875,2952.44529 174.684435,2952.44529 Z M184.35356,2944.03954 C185.282233,2943.63218 185.750471,2943.11515 185.750471,2942.30042 C185.750471,2941.62671 185.211997,2941.11751 184.306736,2941.11751 C183.861909,2941.11751 183.635594,2941.17235 183.432691,2941.26635 L183.323435,2941.97923 C183.502926,2941.90873 183.721438,2941.83822 184.142852,2941.83822 C184.579875,2941.83822 184.892034,2942.10458 184.892034,2942.42576 C184.892034,2942.77829 184.696935,2943.05247 183.978969,2943.41283 L184.35356,2944.03954 Z M182.379154,2953.44802 C183.651202,2953.44802 184.470619,2952.75081 184.751562,2952.18677 L184.829602,2952.18677 L184.634503,2953.31485 L185.742667,2953.31485 L186.546477,2948.73987 C186.624516,2948.34817 186.694752,2947.89381 186.694752,2947.46294 C186.694752,2945.99801 185.703647,2944.97961 183.854105,2944.97961 C182.137231,2944.97961 181.029066,2945.84133 180.810555,2947.01641 L181.91872,2947.01641 C182.098211,2946.46804 182.683509,2945.96667 183.768262,2945.96667 C185.110545,2945.96667 185.61,2946.76573 185.61,2947.56478 C185.61,2947.72146 185.586588,2947.90164 185.57098,2947.99565 L185.485136,2948.54402 L183.214179,2948.54402 C181.138322,2948.54402 180.069178,2949.46842 179.928706,2950.81584 C179.913098,2950.94902 179.913098,2951.07436 179.913098,2951.1762 C179.913098,2952.60196 181.029066,2953.44802 182.379154,2953.44802 Z M182.652293,2952.46879 C181.653384,2952.46879 181.060282,2951.88908 181.060282,2951.06653 C181.060282,2950.2048 181.72362,2949.48408 183.112728,2949.48408 L185.282233,2949.48408 L185.094937,2950.55732 C184.892034,2951.67757 183.846301,2952.46879 182.652293,2952.46879 Z M189.699282,2953.31485 L190.542112,2948.49702 C190.776231,2947.15742 191.611256,2945.95101 193.078403,2945.95101 C194.295824,2945.95101 194.764062,2946.79707 194.764062,2947.76063 C194.764062,2948.12099 194.70163,2948.52835 194.66261,2948.7477 L193.858801,2953.31485 L194.998181,2953.31485 L195.794187,2948.8182 C195.864422,2948.41084 195.934658,2947.96431 195.934658,2947.54912 C195.934658,2946.20952 195.162065,2944.97961 193.413974,2944.97961 C192.235574,2944.97961 191.392745,2945.54365 190.947918,2946.48371 L190.862075,2946.48371 L191.111802,2945.11278 L189.995833,2945.11278 L188.552098,2953.31485 L189.699282,2953.31485 Z M200.585827,2956.29172 C202.646077,2956.29172 203.871301,2955.30465 204.245891,2953.18167 L205.658411,2945.11278 L204.534638,2945.11278 L204.253695,2946.72656 L204.160048,2946.72656 C203.918124,2945.82567 203.051883,2944.97961 201.654972,2944.97961 C200.141001,2944.97961 198.689461,2945.88834 198.291459,2947.98781 L198.111967,2948.94355 C198.049535,2949.2569 198.002712,2949.78177 198.002712,2950.06379 C198.002712,2951.99876 199.430839,2953.166 200.94481,2953.166 C202.232466,2953.166 203.005059,2952.50012 203.30161,2951.77941 L203.395258,2951.77941 L203.184551,2952.97799 C202.911412,2954.5526 202.131014,2955.31248 200.656063,2955.31248 C199.438643,2955.31248 198.650441,2954.6231 198.650441,2953.97289 L198.650441,2953.87105 L198.650441,2953.87105 L197.534473,2953.87105 C197.534473,2953.87889 197.526669,2953.97289 197.526669,2953.98856 C197.526669,2955.18714 198.712873,2956.29172 200.585827,2956.29172 Z M201.295989,2952.20244 C199.992725,2952.20244 199.126484,2951.41905 199.126484,2949.89144 C199.126484,2949.67993 199.181112,2949.24907 199.220132,2949.02189 L199.352799,2948.34034 C199.625938,2946.8519 200.492179,2945.95101 201.7096,2945.95101 C202.973843,2945.95101 203.902516,2946.83623 203.902516,2948.27767 C203.902516,2948.34817 203.902516,2948.58319 203.824477,2949.02189 L203.676201,2949.86011 C203.442082,2951.23104 202.505605,2952.20244 201.295989,2952.20244 Z M213.360934,2953.38535 C213.743329,2953.38535 214.234979,2953.33835 214.461294,2953.28351 L214.632982,2952.33561 C214.398862,2952.38262 213.969644,2952.42179 213.626269,2952.42179 C212.916107,2952.42179 212.603948,2952.16327 212.603948,2951.57573 C212.603948,2951.34071 212.642968,2951.08219 212.767832,2950.36148 L213.517013,2946.06068 L215.366555,2946.06068 L215.538243,2945.11278 L213.688701,2945.11278 L214.03988,2943.06031 L212.916107,2943.06031 L212.541516,2945.11278 L211.246057,2945.11278 L211.074369,2946.06068 L212.377633,2946.06068 L211.542608,2950.80801 C211.472372,2951.23887 211.425548,2951.60706 211.425548,2951.85775 C211.425548,2952.87615 212.073278,2953.38535 213.360934,2953.38535 Z M217.684336,2953.31485 L218.527165,2948.49702 C218.761284,2947.15742 219.611918,2945.95101 221.079065,2945.95101 C222.296485,2945.95101 222.788135,2946.78923 222.788135,2947.7528 C222.788135,2948.10532 222.725704,2948.53619 222.686684,2948.7477 L221.882874,2953.31485 L223.030059,2953.31485 L223.81826,2948.8182 C223.888496,2948.41084 223.958732,2947.95648 223.958732,2947.54912 C223.958732,2946.19386 223.123706,2944.97961 221.406832,2944.97961 C220.189412,2944.97961 219.346582,2945.57498 218.932972,2946.48371 L218.847128,2946.48371 L219.658741,2942.05757 L218.527165,2942.05757 L216.537152,2953.31485 L217.684336,2953.31485 Z M231.177408,2943.74969 L229.710261,2941 L228.461625,2941 L230.303363,2943.74969 L231.177408,2943.74969 Z M229.210807,2953.44802 C231.23984,2953.44802 232.433848,2952.28078 232.785027,2950.33798 L232.98793,2949.21773 C233.042558,2948.87304 233.073774,2948.48918 233.073774,2948.25417 C233.073774,2947.32193 232.738203,2946.53855 232.410436,2946.13902 L232.433848,2946.07635 C233.643464,2946.06068 234.049271,2945.25379 234.275586,2943.97687 L234.470685,2942.8958 L233.440561,2942.8958 L233.229854,2944.07088 C233.089382,2944.84643 232.699183,2945.3243 231.910982,2945.3243 C231.177408,2945.3243 230.677954,2944.97961 229.764889,2944.97961 C228.04021,2944.97961 226.643299,2946.09202 226.299924,2948.06615 L226.104825,2949.17856 C226.042393,2949.53892 226.018981,2949.93061 226.018981,2950.31447 C226.018981,2952.28078 227.400284,2953.44802 229.210807,2953.44802 Z M229.351278,2952.44529 C227.969975,2952.44529 227.134949,2951.50522 227.134949,2950.13429 C227.134949,2949.77394 227.166165,2949.51542 227.212989,2949.2569 L227.39248,2948.2855 C227.673423,2946.67956 228.602096,2945.98234 229.741477,2945.98234 C231.091564,2945.98234 231.934394,2946.93024 231.934394,2948.24633 C231.934394,2948.36384 231.934394,2948.75553 231.895374,2949.00622 L231.715882,2950.04812 C231.442743,2951.58356 230.607718,2952.44529 229.351278,2952.44529 Z M237.085017,2943.4755 C237.592275,2943.4755 237.966866,2943.10731 237.966866,2942.61378 C237.966866,2942.11241 237.592275,2941.73638 237.085017,2941.73638 C236.608975,2941.73638 236.22658,2942.11241 236.22658,2942.61378 C236.22658,2943.10731 236.608975,2943.4755 237.085017,2943.4755 Z M235.922225,2953.31485 L237.358156,2945.11278 L236.218776,2945.11278 L234.782844,2953.31485 L235.922225,2953.31485 Z M245.326014,2956.29172 C247.386264,2956.29172 248.611488,2955.30465 248.986079,2953.18167 L250.398598,2945.11278 L249.274826,2945.11278 L248.993882,2946.72656 L248.900235,2946.72656 C248.658312,2945.82567 247.79207,2944.97961 246.395159,2944.97961 C244.881188,2944.97961 243.429648,2945.88834 243.031646,2947.98781 L242.852154,2948.94355 C242.789723,2949.2569 242.742899,2949.78177 242.742899,2950.06379 C242.742899,2951.99876 244.171026,2953.166 245.684997,2953.166 C246.972653,2953.166 247.745247,2952.50012 248.041798,2951.77941 L248.135445,2951.77941 L247.924738,2952.97799 C247.651599,2954.5526 246.871201,2955.31248 245.39625,2955.31248 C244.17883,2955.31248 243.390629,2954.6231 243.390629,2953.97289 L243.390629,2953.87105 L243.390629,2953.87105 L242.27466,2953.87105 C242.27466,2953.87889 242.266856,2953.97289 242.266856,2953.98856 C242.266856,2955.18714 243.45306,2956.29172 245.326014,2956.29172 Z M246.036176,2952.20244 C244.732912,2952.20244 243.866671,2951.41905 243.866671,2949.89144 C243.866671,2949.67993 243.921299,2949.24907 243.960319,2949.02189 L244.092986,2948.34034 C244.366125,2946.8519 245.232367,2945.95101 246.449787,2945.95101 C247.714031,2945.95101 248.642704,2946.83623 248.642704,2948.27767 C248.642704,2948.34817 248.642704,2948.58319 248.564664,2949.02189 L248.416388,2949.86011 C248.182269,2951.23104 247.245792,2952.20244 246.036176,2952.20244 Z M254.238154,2943.4755 C254.745412,2943.4755 255.120003,2943.10731 255.120003,2942.61378 C255.120003,2942.11241 254.745412,2941.73638 254.238154,2941.73638 C253.762111,2941.73638 253.379716,2942.11241 253.379716,2942.61378 C253.379716,2943.10731 253.762111,2943.4755 254.238154,2943.4755 Z M253.075361,2953.31485 L254.511293,2945.11278 L253.371912,2945.11278 L251.935981,2953.31485 L253.075361,2953.31485 Z M258.444496,2953.44802 C259.716544,2953.44802 260.535961,2952.75081 260.816904,2952.18677 L260.894944,2952.18677 L260.699845,2953.31485 L261.808009,2953.31485 L262.611818,2948.73987 C262.689858,2948.34817 262.760094,2947.89381 262.760094,2947.46294 C262.760094,2945.99801 261.768989,2944.97961 259.919447,2944.97961 C258.202573,2944.97961 257.094408,2945.84133 256.875897,2947.01641 L257.984061,2947.01641 C258.163553,2946.46804 258.748851,2945.96667 259.833603,2945.96667 C261.175887,2945.96667 261.675341,2946.76573 261.675341,2947.56478 C261.675341,2947.72146 261.651929,2947.90164 261.636322,2947.99565 L261.550478,2948.54402 L259.279521,2948.54402 C257.203664,2948.54402 256.134519,2949.46842 255.994048,2950.81584 C255.97844,2950.94902 255.97844,2951.07436 255.97844,2951.1762 C255.97844,2952.60196 257.094408,2953.44802 258.444496,2953.44802 Z M258.717635,2952.46879 C257.718726,2952.46879 257.125624,2951.88908 257.125624,2951.06653 C257.125624,2950.2048 257.788962,2949.48408 259.17807,2949.48408 L261.347574,2949.48408 L261.160279,2950.55732 C260.957376,2951.67757 259.911643,2952.46879 258.717635,2952.46879 Z M265.764624,2953.31485 L266.607453,2948.49702 C266.841573,2947.15742 267.676598,2945.95101 269.143745,2945.95101 C270.361165,2945.95101 270.829404,2946.79707 270.829404,2947.76063 C270.829404,2948.12099 270.766972,2948.52835 270.727952,2948.7477 L269.924143,2953.31485 L271.063523,2953.31485 L271.859528,2948.8182 C271.929764,2948.41084 272,2947.96431 272,2947.54912 C272,2946.20952 271.227407,2944.97961 269.479316,2944.97961 C268.300916,2944.97961 267.458087,2945.54365 267.01326,2946.48371 L266.927416,2946.48371 L267.177144,2945.11278 L266.061175,2945.11278 L264.61744,2953.31485 L265.764624,2953.31485 Z M38.481664,2977.45101 C38.8640587,2977.45101 39.3557091,2977.404 39.5820244,2977.34917 L39.7537118,2976.40127 C39.5195926,2976.44827 39.090374,2976.48744 38.7469991,2976.48744 C38.0368374,2976.48744 37.7246784,2976.22892 37.7246784,2975.64138 C37.7246784,2975.40637 37.7636983,2975.14785 37.8885619,2974.42713 L38.6377435,2970.12634 L40.4872855,2970.12634 L40.6589729,2969.17844 L38.8094309,2969.17844 L39.1606098,2967.12596 L38.0368374,2967.12596 L37.6622466,2969.17844 L36.3667868,2969.17844 L36.1950994,2970.12634 L37.4983631,2970.12634 L36.6633379,2974.87366 C36.5931021,2975.30453 36.5462782,2975.67272 36.5462782,2975.9234 C36.5462782,2976.94181 37.1940081,2977.45101 38.481664,2977.45101 Z M44.5999802,2977.51368 C45.7861843,2977.51368 46.6446215,2976.8478 47.0348203,2975.96257 L47.128468,2975.96257 L46.8787408,2977.3805 L47.9556893,2977.3805 L49.3916206,2969.17844 L48.2990642,2969.17844 L47.4562349,2973.9571 C47.2299196,2975.29669 46.4183063,2976.48744 44.958963,2976.48744 C43.7571509,2976.48744 43.1796568,2975.79023 43.1796568,2974.76399 C43.1796568,2974.42713 43.2342846,2974.01194 43.2889124,2973.71425 L44.1005258,2969.17844 L42.9689494,2969.17844 L42.1573361,2973.64375 C42.0792963,2974.01977 42.0012566,2974.52897 42.0012566,2974.96767 C42.0012566,2976.36993 42.9221256,2977.51368 44.5999802,2977.51368 Z M50.9914355,2980.2242 C52.3961509,2980.2242 53.0126649,2979.76983 53.8242783,2978.16389 L54.214477,2977.39617 L58.4832512,2969.17844 L57.2580272,2969.17844 L53.8945141,2976.04091 L53.8164743,2976.04091 L52.692702,2969.17844 L51.4752819,2969.17844 L53.0360768,2977.31 L52.7707417,2977.88187 C52.3181112,2978.87677 51.8498727,2979.2528 51.1084951,2979.2528 C50.8509639,2979.2528 50.5856288,2979.22146 50.3983334,2979.17446 L50.1876261,2980.12236 C50.3593135,2980.16936 50.6948844,2980.2242 50.9914355,2980.2242 Z M62.4866903,2967.81534 L64.102113,2965.64536 L64.1255249,2965.64536 L65.030786,2967.81534 L66.0296948,2967.81534 L64.6874111,2964.86981 L63.7665421,2964.86981 L61.4487616,2967.81534 L62.4866903,2967.81534 Z M62.5101022,2977.51368 C64.3284283,2977.51368 65.4834166,2976.39343 65.6707119,2975.3907 L64.5313316,2975.3907 C64.3674482,2975.95474 63.6728944,2976.50311 62.580338,2976.50311 C61.0663669,2976.50311 60.4966767,2975.44554 60.4966767,2974.31746 C60.4966767,2974.03544 60.5356966,2973.72992 60.5825204,2973.54974 L66.0062829,2973.54974 C66.0218908,2973.4714 66.2013822,2972.4765 66.2013822,2972.44516 C66.4355015,2970.93323 65.6941239,2969.04526 63.2826957,2969.04526 C61.4019378,2969.04526 60.0674581,2970.19684 59.7474951,2972.02997 L59.5367878,2973.18938 C59.48216,2973.47923 59.4119242,2973.96493 59.4119242,2974.42713 C59.4119242,2976.44044 60.722992,2977.51368 62.5101022,2977.51368 Z M65.0854138,2972.62534 L60.7698158,2972.62534 C60.7698158,2972.60967 60.8790715,2972.09264 60.8790715,2972.07697 C61.1756225,2970.67471 62.1511193,2970.01666 63.2436758,2970.01666 C64.6718032,2970.01666 65.335141,2971.09774 65.1166297,2972.42166 C65.1166297,2972.46083 65.0932178,2972.60184 65.0854138,2972.62534 Z M62.0652756,2979.93434 C62.5179062,2979.93434 62.8378691,2979.63666 62.8378691,2979.19013 C62.8378691,2978.75143 62.5179062,2978.43808 62.0652756,2978.43808 C61.6204491,2978.43808 61.3004861,2978.75143 61.3004861,2979.19013 C61.3004861,2979.63666 61.6204491,2979.93434 62.0652756,2979.93434 Z M70.4077246,2977.45101 C70.7901194,2977.45101 71.2817698,2977.404 71.5080851,2977.34917 L71.6797725,2976.40127 C71.4456533,2976.44827 71.0164346,2976.48744 70.6730598,2976.48744 C69.9628981,2976.48744 69.6507391,2976.22892 69.6507391,2975.64138 C69.6507391,2975.40637 69.6897589,2975.14785 69.8146225,2974.42713 L70.5638041,2970.12634 L72.4133461,2970.12634 L72.5850336,2969.17844 L70.7354916,2969.17844 L71.0866704,2967.12596 L69.9628981,2967.12596 L69.5883073,2969.17844 L68.2928475,2969.17844 L68.12116,2970.12634 L69.4244238,2970.12634 L68.5893985,2974.87366 C68.5191627,2975.30453 68.4723389,2975.67272 68.4723389,2975.9234 C68.4723389,2976.94181 69.1200688,2977.45101 70.4077246,2977.45101 Z M80.3343805,2977.3805 L84.4704871,2969.17844 L83.3076949,2969.17844 L79.9519857,2976.10358 L79.873946,2976.10358 L78.8906452,2969.17844 L77.7200489,2969.17844 L79.1013525,2977.3805 L80.3343805,2977.3805 Z M90.4405278,2967.81534 L88.9733805,2965.06566 L87.7247446,2965.06566 L89.5664826,2967.81534 L90.4405278,2967.81534 Z M88.4739261,2977.51368 C90.5029596,2977.51368 91.6969677,2976.34643 92.0481466,2974.40363 L92.2510499,2973.28339 C92.3056777,2972.9387 92.3368936,2972.55484 92.3368936,2972.31982 C92.3368936,2971.38759 92.0013227,2970.6042 91.6735558,2970.20468 L91.6969677,2970.142 C92.9065838,2970.12634 93.3123905,2969.31945 93.5387057,2968.04253 L93.7338051,2966.96145 L92.7036804,2966.96145 L92.4929731,2968.13653 C92.3525016,2968.91209 91.9623028,2969.38995 91.1741014,2969.38995 C90.4405278,2969.38995 89.9410734,2969.04526 89.0280083,2969.04526 C87.3033299,2969.04526 85.9064184,2970.15767 85.5630436,2972.13181 L85.3679442,2973.24422 C85.3055124,2973.60458 85.2821005,2973.99627 85.2821005,2974.38013 C85.2821005,2976.34643 86.663404,2977.51368 88.4739261,2977.51368 Z M88.6143977,2976.51094 C87.2330941,2976.51094 86.3980688,2975.57088 86.3980688,2974.19995 C86.3980688,2973.83959 86.4292847,2973.58107 86.4761086,2973.32256 L86.6556,2972.35116 C86.9365431,2970.74521 87.8652161,2970.048 89.0045964,2970.048 C90.354684,2970.048 91.1975133,2970.9959 91.1975133,2972.31199 C91.1975133,2972.4295 91.1975133,2972.82119 91.1584934,2973.07187 L90.979002,2974.11378 C90.7058629,2975.64922 89.8708376,2976.51094 88.6143977,2976.51094 Z M96.3481366,2967.54116 C96.855395,2967.54116 97.2299858,2967.17297 97.2299858,2966.67943 C97.2299858,2966.17807 96.855395,2965.80204 96.3481366,2965.80204 C95.8720942,2965.80204 95.4896994,2966.17807 95.4896994,2966.67943 C95.4896994,2967.17297 95.8720942,2967.54116 96.3481366,2967.54116 Z M95.1853444,2977.3805 L96.6212758,2969.17844 L95.4818954,2969.17844 L94.0459641,2977.3805 L95.1853444,2977.3805 Z M105.166628,2977.51368 C106.805463,2977.51368 108.030687,2976.65195 108.257002,2975.35936 L107.109818,2975.35936 C106.961542,2975.97041 106.2904,2976.50311 105.221256,2976.50311 C103.832148,2976.50311 103.106379,2975.61788 103.106379,2974.12945 C103.106379,2973.87093 103.129791,2973.62024 103.192222,2973.28339 L103.356106,2972.33549 C103.621441,2970.84705 104.534506,2970.01666 105.736318,2970.01666 C107.008366,2970.01666 107.656096,2970.87055 107.656096,2971.61477 L107.656096,2971.70878 L107.656096,2971.70878 L108.76426,2971.70878 C108.772064,2971.70095 108.772064,2971.62261 108.772064,2971.60694 C108.772064,2970.23601 107.656096,2969.04526 105.744122,2969.04526 C103.9336,2969.04526 102.614728,2970.07933 102.279157,2972.0378 L102.076254,2973.21288 C102.006018,2973.62808 101.974802,2974.06677 101.974802,2974.38013 C101.974802,2976.29943 103.24685,2977.51368 105.166628,2977.51368 Z M115.61615,2967.81534 L114.149003,2965.06566 L112.900367,2965.06566 L114.742105,2967.81534 L115.61615,2967.81534 Z M113.033035,2977.51368 C114.219239,2977.51368 115.077676,2976.8478 115.467875,2975.96257 L115.561522,2975.96257 L115.311795,2977.3805 L116.388744,2977.3805 L117.824675,2969.17844 L116.732119,2969.17844 L115.889289,2973.9571 C115.662974,2975.29669 114.851361,2976.48744 113.392017,2976.48744 C112.190205,2976.48744 111.612711,2975.79023 111.612711,2974.76399 C111.612711,2974.42713 111.667339,2974.01194 111.721967,2973.71425 L112.53358,2969.17844 L111.402004,2969.17844 L110.590391,2973.64375 C110.512351,2974.01977 110.434311,2974.52897 110.434311,2974.96767 C110.434311,2976.36993 111.35518,2977.51368 113.033035,2977.51368 Z M120.392183,2977.3805 L121.235012,2972.56267 C121.469131,2971.22308 122.304157,2970.01666 123.771304,2970.01666 C124.988724,2970.01666 125.456962,2970.86272 125.456962,2971.82629 C125.456962,2972.18665 125.394531,2972.59401 125.355511,2972.81335 L124.551701,2977.3805 L125.691082,2977.3805 L126.487087,2972.88386 C126.557323,2972.4765 126.627559,2972.02997 126.627559,2971.61477 C126.627559,2970.27518 125.854965,2969.04526 124.106875,2969.04526 C122.928475,2969.04526 122.085645,2969.6093 121.640819,2970.54937 L121.554975,2970.54937 L121.804702,2969.17844 L120.688734,2969.17844 L119.244999,2977.3805 L120.392183,2977.3805 Z M131.278728,2980.35737 C133.338977,2980.35737 134.564201,2979.37031 134.938792,2977.24733 L136.351311,2969.17844 L135.227539,2969.17844 L134.946596,2970.79222 L134.852948,2970.79222 C134.611025,2969.89132 133.744784,2969.04526 132.347872,2969.04526 C130.833901,2969.04526 129.382362,2969.95399 128.984359,2972.05347 L128.804868,2973.0092 C128.742436,2973.32256 128.695612,2973.84743 128.695612,2974.12945 C128.695612,2976.06441 130.123739,2977.23166 131.63771,2977.23166 C132.925366,2977.23166 133.69796,2976.56578 133.994511,2975.84506 L134.088158,2975.84506 L133.877451,2977.04365 C133.604312,2978.61825 132.823915,2979.37814 131.348963,2979.37814 C130.131543,2979.37814 129.343342,2978.68876 129.343342,2978.03855 L129.343342,2977.93671 L129.343342,2977.93671 L128.227373,2977.93671 C128.227373,2977.94454 128.219569,2978.03855 128.219569,2978.05422 C128.219569,2979.2528 129.405774,2980.35737 131.278728,2980.35737 Z M131.988889,2976.26809 C130.685625,2976.26809 129.819384,2975.48471 129.819384,2973.9571 C129.819384,2973.74559 129.874012,2973.31472 129.913032,2973.08754 L130.0457,2972.40599 C130.318839,2970.91756 131.18508,2970.01666 132.4025,2970.01666 C133.666744,2970.01666 134.595417,2970.90189 134.595417,2972.34332 C134.595417,2972.41383 134.595417,2972.64884 134.517377,2973.08754 L134.369102,2973.92576 C134.134982,2975.29669 133.198505,2976.26809 131.988889,2976.26809 Z M142.555471,2977.3805 L143.3983,2972.56267 C143.63242,2971.22308 144.467445,2970.01666 145.934592,2970.01666 C147.152012,2970.01666 147.620251,2970.86272 147.620251,2971.82629 C147.620251,2972.18665 147.557819,2972.59401 147.518799,2972.81335 L146.71499,2977.3805 L147.85437,2977.3805 L148.650375,2972.88386 C148.720611,2972.4765 148.790847,2972.02997 148.790847,2971.61477 C148.790847,2970.27518 148.018253,2969.04526 146.270163,2969.04526 C145.091763,2969.04526 144.248934,2969.6093 143.804107,2970.54937 L143.718263,2970.54937 L143.96799,2969.17844 L142.852022,2969.17844 L141.408287,2977.3805 L142.555471,2977.3805 Z M151.810985,2977.3805 L152.653814,2972.56267 C152.887934,2971.22308 153.738567,2970.01666 155.205714,2970.01666 C156.423134,2970.01666 156.914785,2970.85489 156.914785,2971.81845 C156.914785,2972.17098 156.852353,2972.60184 156.813333,2972.81335 L156.009523,2977.3805 L157.156708,2977.3805 L157.944909,2972.88386 C158.015145,2972.4765 158.085381,2972.02213 158.085381,2971.61477 C158.085381,2970.25951 157.250355,2969.04526 155.533481,2969.04526 C154.316061,2969.04526 153.473232,2969.64064 153.059621,2970.54937 L152.973777,2970.54937 L153.785391,2966.12323 L152.653814,2966.12323 L150.663801,2977.3805 L151.810985,2977.3805 Z M162.361959,2977.51368 C163.634007,2977.51368 164.453424,2976.81646 164.734367,2976.25242 L164.812407,2976.25242 L164.617308,2977.3805 L165.725472,2977.3805 L166.529281,2972.80552 C166.607321,2972.41383 166.677557,2971.95946 166.677557,2971.5286 C166.677557,2970.06367 165.686452,2969.04526 163.83691,2969.04526 C162.120036,2969.04526 161.011871,2969.90699 160.79336,2971.08207 L161.901524,2971.08207 C162.081016,2970.5337 162.666314,2970.03233 163.751066,2970.03233 C165.09335,2970.03233 165.592804,2970.83139 165.592804,2971.63044 C165.592804,2971.78712 165.569393,2971.9673 165.553785,2972.0613 L165.467941,2972.60967 L163.196984,2972.60967 C161.121127,2972.60967 160.051982,2973.53407 159.911511,2974.8815 C159.895903,2975.01467 159.895903,2975.14001 159.895903,2975.24186 C159.895903,2976.66762 161.011871,2977.51368 162.361959,2977.51368 Z M162.635098,2976.53444 C161.636189,2976.53444 161.043087,2975.95474 161.043087,2975.13218 C161.043087,2974.27046 161.706425,2973.54974 163.095533,2973.54974 L165.265038,2973.54974 L165.077742,2974.62298 C164.874839,2975.74322 163.829106,2976.53444 162.635098,2976.53444 Z M171.477001,2977.51368 C172.663206,2977.51368 173.521643,2976.8478 173.911842,2975.96257 L174.005489,2975.96257 L173.755762,2977.3805 L174.832711,2977.3805 L176.268642,2969.17844 L175.176085,2969.17844 L174.333256,2973.9571 C174.106941,2975.29669 173.295328,2976.48744 171.835984,2976.48744 C170.634172,2976.48744 170.056678,2975.79023 170.056678,2974.76399 C170.056678,2974.42713 170.111306,2974.01194 170.165934,2973.71425 L170.977547,2969.17844 L169.845971,2969.17844 L169.034357,2973.64375 C168.956318,2974.01977 168.878278,2974.52897 168.878278,2974.96767 C168.878278,2976.36993 169.799147,2977.51368 171.477001,2977.51368 Z M179.585331,2974.08244 L181.099302,2966.68727 L179.81945,2966.68727 L178.726894,2974.08244 L179.585331,2974.08244 Z M178.804934,2977.51368 C179.382428,2977.51368 179.81945,2977.08282 179.81945,2976.53444 C179.81945,2975.95474 179.382428,2975.52387 178.804934,2975.52387 C178.274263,2975.52387 177.837241,2975.95474 177.837241,2976.53444 C177.837241,2977.08282 178.274263,2977.51368 178.804934,2977.51368 Z M189.800734,2977.60768 C192.001455,2977.60768 193.56225,2976.44044 193.56225,2974.4428 C193.56225,2972.71151 192.329222,2972.12397 190.940114,2971.5756 L190.307992,2971.32492 C189.168612,2970.87055 188.294567,2970.36135 188.294567,2969.34295 C188.294567,2968.07386 189.504183,2967.50982 190.643563,2967.50982 C191.915611,2967.50982 192.930128,2968.23837 192.930128,2969.31945 C192.930128,2969.41345 192.922324,2969.45262 192.922324,2969.46046 L194.022684,2969.46046 C194.022684,2969.45262 194.038292,2969.21761 194.038292,2969.18627 C194.038292,2967.46282 192.430674,2966.46792 190.659171,2966.46792 C188.669158,2966.46792 187.092755,2967.54116 187.092755,2969.39779 C187.092755,2971.08207 188.489666,2971.89679 189.855362,2972.40599 L190.354816,2972.59401 C191.439569,2973.00137 192.352634,2973.43223 192.352634,2974.55247 C192.352634,2975.76672 191.353725,2976.56578 189.855362,2976.56578 C188.200919,2976.56578 187.225422,2975.61005 187.225422,2974.63081 C187.225422,2974.56814 187.233226,2974.48197 187.24103,2974.4193 L186.093846,2974.4193 C186.078238,2974.52114 186.070434,2974.66215 186.070434,2974.77966 C186.070434,2976.21326 187.490758,2977.60768 189.800734,2977.60768 Z M197.909064,2977.51368 C199.181112,2977.51368 200.000529,2976.81646 200.281472,2976.25242 L200.359512,2976.25242 L200.164413,2977.3805 L201.272577,2977.3805 L202.076386,2972.80552 C202.154426,2972.41383 202.224662,2971.95946 202.224662,2971.5286 C202.224662,2970.06367 201.233557,2969.04526 199.384015,2969.04526 C197.667141,2969.04526 196.558976,2969.90699 196.340465,2971.08207 L197.448629,2971.08207 C197.628121,2970.5337 198.213419,2970.03233 199.298171,2970.03233 C200.640455,2970.03233 201.139909,2970.83139 201.139909,2971.63044 C201.139909,2971.78712 201.116497,2971.9673 201.10089,2972.0613 L201.015046,2972.60967 L198.744089,2972.60967 C196.668232,2972.60967 195.599087,2973.53407 195.458616,2974.8815 C195.443008,2975.01467 195.443008,2975.14001 195.443008,2975.24186 C195.443008,2976.66762 196.558976,2977.51368 197.909064,2977.51368 Z M198.182203,2976.53444 C197.183294,2976.53444 196.590192,2975.95474 196.590192,2975.13218 C196.590192,2974.27046 197.25353,2973.54974 198.642637,2973.54974 L200.812142,2973.54974 L200.624847,2974.62298 C200.421944,2975.74322 199.376211,2976.53444 198.182203,2976.53444 Z M207.024106,2977.51368 C208.210311,2977.51368 209.068748,2976.8478 209.458946,2975.96257 L209.552594,2975.96257 L209.302867,2977.3805 L210.379815,2977.3805 L211.815747,2969.17844 L210.72319,2969.17844 L209.880361,2973.9571 C209.654046,2975.29669 208.842432,2976.48744 207.383089,2976.48744 C206.181277,2976.48744 205.603783,2975.79023 205.603783,2974.76399 C205.603783,2974.42713 205.658411,2974.01194 205.713039,2973.71425 L206.524652,2969.17844 L205.393076,2969.17844 L204.581462,2973.64375 C204.503423,2974.01977 204.425383,2974.52897 204.425383,2974.96767 C204.425383,2976.36993 205.346252,2977.51368 207.024106,2977.51368 Z M219.9709,2977.49801 C221.336596,2977.49801 222.116993,2976.62845 222.351113,2975.99391 L222.44476,2975.99391 L222.202837,2977.3805 L223.318806,2977.3805 L224.95764,2968.0817 L226.237492,2968.0817 L226.401376,2967.16513 L225.121524,2967.16513 L225.308819,2966.12323 L224.153831,2966.12323 L223.974339,2967.16513 L222.179425,2967.16513 L222.023346,2968.0817 L223.81826,2968.0817 L223.342218,2970.79222 L223.24857,2970.79222 C223.108098,2970.03233 222.218445,2969.04526 220.790318,2969.04526 C218.862736,2969.04526 217.707748,2970.29868 217.403393,2971.91246 L217.114646,2973.4479 C217.052214,2973.74559 217.036606,2974.10594 217.036606,2974.41146 C217.036606,2976.28376 218.269634,2977.49801 219.9709,2977.49801 Z M220.306471,2976.48744 C219.003208,2976.48744 218.175986,2975.64138 218.175986,2974.23912 C218.175986,2973.96493 218.199398,2973.66725 218.22281,2973.52624 L218.464733,2972.30415 C218.722264,2971.00373 219.510466,2970.0245 220.837142,2970.0245 C221.898482,2970.0245 223.030059,2970.79222 223.030059,2972.39816 C223.030059,2972.46866 223.014451,2972.60184 222.983235,2972.79769 L222.764723,2974.07461 C222.514996,2975.47687 221.625343,2976.48744 220.306471,2976.48744 Z M229.187395,2967.81534 L230.802817,2965.64536 L230.826229,2965.64536 L231.73149,2967.81534 L232.730399,2967.81534 L231.388115,2964.86981 L230.467246,2964.86981 L228.149466,2967.81534 L229.187395,2967.81534 Z M228.586489,2977.51368 C229.858536,2977.51368 230.677954,2976.81646 230.958897,2976.25242 L231.036937,2976.25242 L230.841837,2977.3805 L231.950002,2977.3805 L232.753811,2972.80552 C232.831851,2972.41383 232.902087,2971.95946 232.902087,2971.5286 C232.902087,2970.06367 231.910982,2969.04526 230.06144,2969.04526 C228.344565,2969.04526 227.236401,2969.90699 227.01789,2971.08207 L228.126054,2971.08207 C228.305545,2970.5337 228.890844,2970.03233 229.975596,2970.03233 C231.31788,2970.03233 231.817334,2970.83139 231.817334,2971.63044 C231.817334,2971.78712 231.793922,2971.9673 231.778314,2972.0613 L231.69247,2972.60967 L229.421514,2972.60967 C227.345657,2972.60967 226.276512,2973.53407 226.13604,2974.8815 C226.120433,2975.01467 226.120433,2975.14001 226.120433,2975.24186 C226.120433,2976.66762 227.236401,2977.51368 228.586489,2977.51368 Z M228.859628,2976.53444 C227.860719,2976.53444 227.267617,2975.95474 227.267617,2975.13218 C227.267617,2974.27046 227.930955,2973.54974 229.320062,2973.54974 L231.489567,2973.54974 L231.302272,2974.62298 C231.099368,2975.74322 230.053636,2976.53444 228.859628,2976.53444 Z M234.767237,2980.2242 C236.171952,2980.2242 236.788466,2979.76983 237.600079,2978.16389 L237.990278,2977.39617 L242.259052,2969.17844 L241.033828,2969.17844 L237.670315,2976.04091 L237.592275,2976.04091 L236.468503,2969.17844 L235.251083,2969.17844 L236.811878,2977.31 L236.546543,2977.88187 C236.093912,2978.87677 235.625674,2979.2528 234.884296,2979.2528 C234.626765,2979.2528 234.36143,2979.22146 234.174134,2979.17446 L233.963427,2980.12236 C234.135115,2980.16936 234.470685,2980.2242 234.767237,2980.2242 Z M250.702953,2977.51368 C252.614927,2977.51368 253.777719,2976.23676 254.066466,2974.59164 L254.331801,2973.04837 C254.386429,2972.72718 254.402037,2972.37466 254.402037,2972.10047 C254.402037,2970.19684 253.231441,2969.04526 251.52237,2969.04526 C250.141067,2969.04526 249.438709,2969.85215 249.142158,2970.47886 L249.04851,2970.47886 L249.836712,2966.12323 L248.697331,2966.12323 L246.699514,2977.3805 L247.83109,2977.3805 L248.127641,2975.70405 L248.213485,2975.70405 C248.416388,2976.55011 249.345061,2977.51368 250.702953,2977.51368 Z M250.671737,2976.47177 C249.665024,2976.47177 248.51784,2975.71972 248.510036,2974.09028 C248.510036,2974.05111 248.510036,2973.87876 248.549056,2973.69075 L248.751959,2972.41383 C248.978275,2971.0429 249.867928,2970.00883 251.194603,2970.00883 C252.482259,2970.00883 253.301677,2970.84705 253.301677,2972.24932 C253.301677,2972.46083 253.293873,2972.75068 253.262657,2972.95436 L253.044145,2974.19995 C252.81783,2975.4612 251.967197,2976.47177 250.671737,2976.47177 Z M258.350848,2977.51368 C259.622896,2977.51368 260.442313,2976.81646 260.723257,2976.25242 L260.801296,2976.25242 L260.606197,2977.3805 L261.714361,2977.3805 L262.518171,2972.80552 C262.59621,2972.41383 262.666446,2971.95946 262.666446,2971.5286 C262.666446,2970.06367 261.675341,2969.04526 259.825799,2969.04526 C258.108925,2969.04526 257.000761,2969.90699 256.782249,2971.08207 L257.890414,2971.08207 C258.069905,2970.5337 258.655203,2970.03233 259.739956,2970.03233 C261.082239,2970.03233 261.581694,2970.83139 261.581694,2971.63044 C261.581694,2971.78712 261.558282,2971.9673 261.542674,2972.0613 L261.45683,2972.60967 L259.185873,2972.60967 C257.110016,2972.60967 256.040872,2973.53407 255.9004,2974.8815 C255.884792,2975.01467 255.884792,2975.14001 255.884792,2975.24186 C255.884792,2976.66762 257.000761,2977.51368 258.350848,2977.51368 Z M258.623987,2976.53444 C257.625079,2976.53444 257.031976,2975.95474 257.031976,2975.13218 C257.031976,2974.27046 257.695314,2973.54974 259.084422,2973.54974 L261.253927,2973.54974 L261.066631,2974.62298 C260.863728,2975.74322 259.817995,2976.53444 258.623987,2976.53444 Z M258.093317,2979.93434 C258.545948,2979.93434 258.865911,2979.63666 258.865911,2979.19013 C258.865911,2978.75143 258.545948,2978.43808 258.093317,2978.43808 C257.64849,2978.43808 257.328527,2978.75143 257.328527,2979.19013 C257.328527,2979.63666 257.64849,2979.93434 258.093317,2979.93434 Z M265.670976,2977.3805 L266.513806,2972.56267 C266.747925,2971.22308 267.58295,2970.01666 269.050098,2970.01666 C270.267518,2970.01666 270.735756,2970.86272 270.735756,2971.82629 C270.735756,2972.18665 270.673324,2972.59401 270.634304,2972.81335 L269.830495,2977.3805 L270.969875,2977.3805 L271.765881,2972.88386 C271.836117,2972.4765 271.906352,2972.02997 271.906352,2971.61477 C271.906352,2970.27518 271.133759,2969.04526 269.385668,2969.04526 C268.207268,2969.04526 267.364439,2969.6093 266.919612,2970.54937 L266.833769,2970.54937 L267.083496,2969.17844 L265.967528,2969.17844 L264.523792,2977.3805 L265.670976,2977.3805 Z M39.1918257,3001.57933 C40.8306604,3001.57933 42.0558844,3000.71761 42.2821997,2999.42502 L41.1350154,2999.42502 C40.9867399,3000.03606 40.315598,3000.56876 39.2464535,3000.56876 C37.857346,3000.56876 37.1315763,2999.68354 37.1315763,2998.1951 C37.1315763,2997.93658 37.1549883,2997.6859 37.2174201,2997.34904 L37.3813035,2996.40114 C37.6466387,2994.91271 38.5597037,2994.08232 39.7615158,2994.08232 C41.0335637,2994.08232 41.6812936,2994.93621 41.6812936,2995.68043 L41.6812936,2995.77443 L41.6812936,2995.77443 L42.789458,2995.77443 C42.797262,2995.7666 42.797262,2995.68826 42.797262,2995.67259 C42.797262,2994.30167 41.6812936,2993.11092 39.7693198,2993.11092 C37.9587977,2993.11092 36.6399259,2994.14499 36.304355,2996.10346 L36.1014517,2997.27854 C36.0312159,2997.69373 36,2998.13243 36,2998.44578 C36,3000.36508 37.2720479,3001.57933 39.1918257,3001.57933 Z M48.8141265,2991.881 L51.5064978,2989.13131 L50.2344499,2989.13131 L47.8542376,2991.881 L48.8141265,2991.881 Z M47.4796468,3001.57933 C49.5086803,3001.57933 50.7026884,3000.41209 51.0538673,2998.46929 L51.2567706,2997.34904 C51.3192024,2997.00435 51.3504183,2996.62049 51.3504183,2996.38548 C51.3504183,2994.32517 49.9769188,2993.11092 48.041533,2993.11092 C46.3090506,2993.11092 44.9121391,2994.22333 44.5687643,2996.19746 L44.3814689,2997.30987 C44.3112331,2997.67023 44.2878212,2998.06192 44.2878212,2998.44578 C44.2878212,3000.41209 45.6769287,3001.57933 47.4796468,3001.57933 Z M47.6201184,3000.5766 C46.2388149,3000.5766 45.4037896,2999.63653 45.4037896,2998.26561 C45.4037896,2997.90525 45.4428094,2997.64673 45.4896333,2997.38821 L45.6613207,2996.41681 C45.9422638,2994.81087 46.8709368,2994.11365 48.0103171,2994.11365 C49.3682087,2994.11365 50.211038,2995.06155 50.211038,2996.37764 C50.211038,2996.49515 50.203234,2996.88684 50.1642141,2997.13753 L49.9847227,2998.17943 C49.7193876,2999.71487 48.8765583,3000.5766 47.6201184,3000.5766 Z M59.2168248,3001.51666 C59.5992196,3001.51666 60.09087,3001.46966 60.3171853,3001.41482 L60.4888727,3000.46692 C60.2547535,3000.51393 59.8255349,3000.5531 59.48216,3000.5531 C58.7719983,3000.5531 58.4598393,3000.29458 58.4598393,2999.70704 C58.4598393,2999.47202 58.4988592,2999.2135 58.6237228,2998.49279 L59.3729043,2994.19199 L61.2224463,2994.19199 L61.3941338,2993.24409 L59.5445918,2993.24409 L59.8957706,2991.19162 L58.7719983,2991.19162 L58.3974075,2993.24409 L57.1019477,2993.24409 L56.9302602,2994.19199 L58.233524,2994.19199 L57.3984987,2998.93932 C57.328263,2999.37018 57.2814391,2999.73837 57.2814391,2999.98906 C57.2814391,3001.00746 57.929169,3001.51666 59.2168248,3001.51666 Z M63.5402268,3001.44616 L64.3830561,2996.62833 C64.6171754,2995.28873 65.4678086,2994.08232 66.9349559,2994.08232 C68.1523759,2994.08232 68.6440263,2994.92054 68.6440263,2995.88411 C68.6440263,2996.23663 68.5815945,2996.6675 68.5425747,2996.87901 L67.7387653,3001.44616 L68.8859495,3001.44616 L69.674151,2996.94952 C69.7443868,2996.54215 69.8146225,2996.08779 69.8146225,2995.68043 C69.8146225,2994.32517 68.9795972,2993.11092 67.2627228,2993.11092 C66.0453027,2993.11092 65.2024735,2993.70629 64.7888628,2994.61502 L64.7030191,2994.61502 L65.5146325,2990.18888 L64.3830561,2990.18888 L62.3930426,3001.44616 L63.5402268,3001.44616 Z M78.4692305,2990.33773 C79.3120598,2990.07921 79.8427301,2989.476 79.8427301,2988.76312 C79.8427301,2988.0189 79.3198638,2987.61937 78.3365629,2987.61937 C78.1258556,2987.61937 77.9073443,2987.65854 77.7668728,2987.70555 L77.6498132,2988.37926 C77.8136966,2988.31659 78.0556199,2988.27742 78.2351113,2988.27742 C78.7813895,2988.27742 79.0623326,2988.47327 79.0623326,2988.87279 C79.0623326,2989.24098 78.7345657,2989.56217 78.1648755,2989.74235 L78.4692305,2990.33773 Z M74.8559902,2991.87317 L76.455805,2990.35339 L76.4870209,2990.35339 L77.4625178,2991.87317 L78.4146027,2991.87317 L76.9552594,2989.63268 L76.2138818,2989.63268 L73.8180616,2991.87317 L74.8559902,2991.87317 Z M74.93403,3001.57933 C76.7523561,3001.57933 77.9073443,3000.45909 78.0946397,2999.45635 L76.9552594,2999.45635 C76.7913759,3000.02039 76.0968222,3000.56876 75.0042657,3000.56876 C73.4902946,3000.56876 72.9206045,2999.51119 72.9206045,2998.38311 C72.9206045,2998.10109 72.9596244,2997.79557 73.0064482,2997.61539 L78.4302106,2997.61539 C78.4458186,2997.53706 78.62531,2996.54215 78.62531,2996.51082 C78.8594293,2994.99888 78.1180517,2993.11092 75.7066235,2993.11092 C73.8258655,2993.11092 72.4913859,2994.2625 72.1714229,2996.09562 L71.9607156,2997.25504 C71.9060878,2997.54489 71.835852,2998.03059 71.835852,2998.49279 C71.835852,3000.50609 73.1469197,3001.57933 74.93403,3001.57933 Z M77.5093416,2996.691 L73.1937436,2996.691 C73.1937436,2996.67533 73.3029992,2996.15829 73.3029992,2996.14263 C73.5995503,2994.74036 74.5750471,2994.08232 75.6676036,2994.08232 C77.095731,2994.08232 77.7590688,2995.16339 77.5405575,2996.48732 C77.5405575,2996.52649 77.5171456,2996.6675 77.5093416,2996.691 Z M86.0624979,2995.11639 L87.5608611,2990.74509 L86.5151285,2990.74509 L84.6733904,2995.11639 L86.0624979,2995.11639 Z M89.121656,2995.11639 L90.6200192,2990.74509 L89.5742866,2990.74509 L87.7325485,2995.11639 L89.121656,2995.11639 Z M91.7593995,3001.44616 L95.3726398,2996.94168 L95.4350716,2996.94952 L97.6670084,3001.44616 L98.9546642,3001.44616 L96.223273,2996.12696 L100.819814,2990.75292 L99.3916868,2990.75292 L95.6535829,2995.20256 L95.5911511,2995.19473 L93.46847,2990.75292 L92.1808141,2990.75292 L94.7951457,2996.04862 L90.3234681,3001.44616 L91.7593995,3001.44616 Z M105.033961,2991.881 L107.726332,2989.13131 L106.454284,2989.13131 L104.074072,2991.881 L105.033961,2991.881 Z M103.106379,3001.57933 C104.378427,3001.57933 105.197844,3000.88212 105.478787,3000.31808 L105.556827,3000.31808 L105.361727,3001.44616 L106.469892,3001.44616 L107.273701,2996.87118 C107.351741,2996.47948 107.421977,2996.02512 107.421977,2995.59426 C107.421977,2994.12932 106.430872,2993.11092 104.58133,2993.11092 C102.864456,2993.11092 101.756291,2993.97264 101.53778,2995.14772 L102.645944,2995.14772 C102.825436,2994.59935 103.410734,2994.09799 104.495486,2994.09799 C105.83777,2994.09799 106.337224,2994.89704 106.337224,2995.6961 C106.337224,2995.85277 106.313812,2996.03295 106.298204,2996.12696 L106.212361,2996.67533 L103.941404,2996.67533 C101.865547,2996.67533 100.796402,2997.59973 100.655931,2998.94715 C100.640323,2999.08033 100.640323,2999.20567 100.640323,2999.30751 C100.640323,3000.73328 101.756291,3001.57933 103.106379,3001.57933 Z M103.379518,3000.6001 C102.380609,3000.6001 101.787507,3000.02039 101.787507,2999.19784 C101.787507,2998.33611 102.450845,2997.61539 103.839952,2997.61539 L106.009457,2997.61539 L105.822162,2998.68863 C105.619259,2999.80888 104.573526,3000.6001 103.379518,3000.6001 Z M112.635032,3001.57933 C114.273867,3001.57933 115.499091,3000.71761 115.725406,2999.42502 L114.578222,2999.42502 C114.429946,3000.03606 113.758804,3000.56876 112.68966,3000.56876 C111.300552,3000.56876 110.574783,2999.68354 110.574783,2998.1951 C110.574783,2997.93658 110.598195,2997.6859 110.660626,2997.34904 L110.82451,2996.40114 C111.089845,2994.91271 112.00291,2994.08232 113.204722,2994.08232 C114.47677,2994.08232 115.1245,2994.93621 115.1245,2995.68043 L115.1245,2995.77443 L115.1245,2995.77443 L116.232664,2995.77443 C116.240468,2995.7666 116.240468,2995.68826 116.240468,2995.67259 C116.240468,2994.30167 115.1245,2993.11092 113.212526,2993.11092 C111.402004,2993.11092 110.083132,2994.14499 109.747561,2996.10346 L109.544658,2997.27854 C109.474422,2997.69373 109.443206,2998.13243 109.443206,2998.44578 C109.443206,3000.36508 110.715254,3001.57933 112.635032,3001.57933 Z M122.358784,3001.44616 L123.201614,2996.62833 C123.435733,2995.28873 124.270758,2994.08232 125.737905,2994.08232 C126.955326,2994.08232 127.423564,2994.92838 127.423564,2995.89194 C127.423564,2996.2523 127.361132,2996.65966 127.322112,2996.87901 L126.518303,3001.44616 L127.657683,3001.44616 L128.453689,2996.94952 C128.523924,2996.54215 128.59416,2996.09562 128.59416,2995.68043 C128.59416,2994.34084 127.821567,2993.11092 126.073476,2993.11092 C124.895076,2993.11092 124.052247,2993.67496 123.60742,2994.61502 L123.521577,2994.61502 L123.771304,2993.24409 L122.655335,2993.24409 L121.2116,3001.44616 L122.358784,3001.44616 Z M131.614298,3001.44616 L132.457128,2996.62833 C132.691247,2995.28873 133.54188,2994.08232 135.009027,2994.08232 C136.226448,2994.08232 136.718098,2994.92054 136.718098,2995.88411 C136.718098,2996.23663 136.655666,2996.6675 136.616646,2996.87901 L135.812837,3001.44616 L136.960021,3001.44616 L137.748223,2996.94952 C137.818458,2996.54215 137.888694,2996.08779 137.888694,2995.68043 C137.888694,2994.32517 137.053669,2993.11092 135.336794,2993.11092 C134.119374,2993.11092 133.276545,2993.70629 132.862934,2994.61502 L132.777091,2994.61502 L133.588704,2990.18888 L132.457128,2990.18888 L130.467114,3001.44616 L131.614298,3001.44616 Z M142.766178,2991.881 L144.381601,2989.71102 L144.405013,2989.71102 L145.310274,2991.881 L146.309183,2991.881 L144.966899,2988.93546 L144.04603,2988.93546 L141.72825,2991.881 L142.766178,2991.881 Z M142.165272,3001.57933 C143.43732,3001.57933 144.256738,3000.88212 144.537681,3000.31808 L144.61572,3000.31808 L144.420621,3001.44616 L145.528785,3001.44616 L146.332595,2996.87118 C146.410635,2996.47948 146.48087,2996.02512 146.48087,2995.59426 C146.48087,2994.12932 145.489766,2993.11092 143.640224,2993.11092 C141.923349,2993.11092 140.815185,2993.97264 140.596673,2995.14772 L141.704838,2995.14772 C141.884329,2994.59935 142.469627,2994.09799 143.55438,2994.09799 C144.896663,2994.09799 145.396118,2994.89704 145.396118,2995.6961 C145.396118,2995.85277 145.372706,2996.03295 145.357098,2996.12696 L145.271254,2996.67533 L143.000298,2996.67533 C140.92444,2996.67533 139.855296,2997.59973 139.714824,2998.94715 C139.699216,2999.08033 139.699216,2999.20567 139.699216,2999.30751 C139.699216,3000.73328 140.815185,3001.57933 142.165272,3001.57933 Z M142.438411,3000.6001 C141.439503,3000.6001 140.846401,3000.02039 140.846401,2999.19784 C140.846401,2998.33611 141.509738,2997.61539 142.898846,2997.61539 L145.068351,2997.61539 L144.881056,2998.68863 C144.678152,2999.80888 143.63242,3000.6001 142.438411,3000.6001 Z M141.907741,3004 C142.360372,3004 142.680335,3003.70231 142.680335,3003.25578 C142.680335,3002.81709 142.360372,3002.50373 141.907741,3002.50373 C141.462915,3002.50373 141.142952,3002.81709 141.142952,3003.25578 C141.142952,3003.70231 141.462915,3004 141.907741,3004 Z M149.485401,3001.44616 L150.32823,2996.62833 C150.562349,2995.28873 151.397374,2994.08232 152.864522,2994.08232 C154.081942,2994.08232 154.55018,2994.92838 154.55018,2995.89194 C154.55018,2996.2523 154.487748,2996.65966 154.448729,2996.87901 L153.644919,3001.44616 L154.784299,3001.44616 L155.580305,2996.94952 C155.650541,2996.54215 155.720776,2996.09562 155.720776,2995.68043 C155.720776,2994.34084 154.948183,2993.11092 153.200093,2993.11092 C152.021692,2993.11092 151.178863,2993.67496 150.734037,2994.61502 L150.648193,2994.61502 L150.89792,2993.24409 L149.781952,2993.24409 L148.338216,3001.44616 L149.485401,3001.44616 Z M162.50243,2995.11639 L164.344169,2990.74509 L162.955061,2990.74509 L161.456698,2995.11639 L162.50243,2995.11639 Z M159.443272,2995.11639 L161.28501,2990.74509 L159.895903,2990.74509 L158.39754,2995.11639 L159.443272,2995.11639 Z M171.773552,3001.56367 C173.139248,3001.56367 173.919646,3000.69411 174.153765,3000.05956 L174.247412,3000.05956 L174.005489,3001.44616 L175.121458,3001.44616 L176.760292,2992.14735 L178.040144,2992.14735 L178.204028,2991.23079 L176.924176,2991.23079 L177.111471,2990.18888 L175.956483,2990.18888 L175.776992,2991.23079 L173.982077,2991.23079 L173.825998,2992.14735 L175.620912,2992.14735 L175.14487,2994.85787 L175.051222,2994.85787 C174.91075,2994.09799 174.021097,2993.11092 172.59297,2993.11092 C170.665388,2993.11092 169.5104,2994.36434 169.206045,2995.97811 L168.917298,2997.51355 C168.854866,2997.81124 168.839258,2998.1716 168.839258,2998.47712 C168.839258,3000.34942 170.072286,3001.56367 171.773552,3001.56367 Z M172.109123,3000.5531 C170.80586,3000.5531 169.978638,2999.70704 169.978638,2998.30477 C169.978638,2998.03059 170.00205,2997.7329 170.025462,2997.59189 L170.267385,2996.36981 C170.524917,2995.06939 171.313118,2994.09015 172.639794,2994.09015 C173.701134,2994.09015 174.832711,2994.85787 174.832711,2996.46381 C174.832711,2996.53432 174.817103,2996.6675 174.785887,2996.86334 L174.567375,2998.14026 C174.317648,2999.54253 173.427995,3000.5531 172.109123,3000.5531 Z M184.76717,2990.33773 C185.61,2990.07921 186.14067,2989.476 186.14067,2988.76312 C186.14067,2988.0189 185.617804,2987.61937 184.634503,2987.61937 C184.423796,2987.61937 184.205284,2987.65854 184.064813,2987.70555 L183.947753,2988.37926 C184.111637,2988.31659 184.35356,2988.27742 184.533051,2988.27742 C185.079329,2988.27742 185.360272,2988.47327 185.360272,2988.87279 C185.360272,2989.24098 185.032506,2989.56217 184.462815,2989.74235 L184.76717,2990.33773 Z M181.15393,2991.87317 L182.753745,2990.35339 L182.784961,2990.35339 L183.760458,2991.87317 L184.712543,2991.87317 L183.253199,2989.63268 L182.511822,2989.63268 L180.116001,2991.87317 L181.15393,2991.87317 Z M181.23197,3001.57933 C183.050296,3001.57933 184.205284,3000.45909 184.39258,2999.45635 L183.253199,2999.45635 C183.089316,3000.02039 182.394762,3000.56876 181.302206,3000.56876 C179.788235,3000.56876 179.218544,2999.51119 179.218544,2998.38311 C179.218544,2998.10109 179.257564,2997.79557 179.304388,2997.61539 L184.728151,2997.61539 C184.743758,2997.53706 184.92325,2996.54215 184.92325,2996.51082 C185.157369,2994.99888 184.415992,2993.11092 182.004563,2993.11092 C180.123805,2993.11092 178.789326,2994.2625 178.469363,2996.09562 L178.258655,2997.25504 C178.204028,2997.54489 178.133792,2998.03059 178.133792,2998.49279 C178.133792,3000.50609 179.44486,3001.57933 181.23197,3001.57933 Z M183.807282,2996.691 L179.491683,2996.691 C179.491683,2996.67533 179.600939,2996.15829 179.600939,2996.14263 C179.89749,2994.74036 180.872987,2994.08232 181.965543,2994.08232 C183.393671,2994.08232 184.057009,2995.16339 183.838497,2996.48732 C183.838497,2996.52649 183.815085,2996.6675 183.807282,2996.691 Z M191.275685,3001.44616 L191.884395,2997.98359 L193.015972,2997.08269 L195.294732,3001.44616 L196.56678,3001.44616 L193.913429,2996.47165 L197.924672,2993.24409 L196.332661,2993.24409 L192.212162,2996.61266 L192.134123,2996.61266 L193.250091,2990.18888 L192.110711,2990.18888 L190.136305,3001.44616 L191.275685,3001.44616 Z M205.697431,2990.43957 L208.40541,2987.72905 L207.164578,2987.72905 L204.79217,2990.43957 L205.697431,2990.43957 Z M201.413049,2991.87317 L203.012863,2990.35339 L203.044079,2990.35339 L204.019576,2991.87317 L204.971661,2991.87317 L203.512318,2989.63268 L202.77094,2989.63268 L200.37512,2991.87317 L201.413049,2991.87317 Z M201.491088,3001.57933 C203.309414,3001.57933 204.464403,3000.45909 204.651698,2999.45635 L203.512318,2999.45635 C203.348434,3000.02039 202.65388,3000.56876 201.561324,3000.56876 C200.047353,3000.56876 199.477663,2999.51119 199.477663,2998.38311 C199.477663,2998.10109 199.516683,2997.79557 199.563506,2997.61539 L204.987269,2997.61539 C205.002877,2997.53706 205.182368,2996.54215 205.182368,2996.51082 C205.416488,2994.99888 204.67511,2993.11092 202.263682,2993.11092 C200.382924,2993.11092 199.048444,2994.2625 198.728481,2996.09562 L198.517774,2997.25504 C198.463146,2997.54489 198.39291,2998.03059 198.39291,2998.49279 C198.39291,3000.50609 199.703978,3001.57933 201.491088,3001.57933 Z M204.0664,2996.691 L199.750802,2996.691 C199.750802,2996.67533 199.860058,2996.15829 199.860058,2996.14263 C200.156609,2994.74036 201.132105,2994.08232 202.224662,2994.08232 C203.652789,2994.08232 204.316127,2995.16339 204.097616,2996.48732 C204.097616,2996.52649 204.074204,2996.6675 204.0664,2996.691 Z M209.388711,3001.51666 C209.771105,3001.51666 210.262756,3001.46966 210.489071,3001.41482 L210.660759,3000.46692 C210.426639,3000.51393 209.997421,3000.5531 209.654046,3000.5531 C208.943884,3000.5531 208.631725,3000.29458 208.631725,2999.70704 C208.631725,2999.47202 208.670745,2999.2135 208.795609,2998.49279 L209.54479,2994.19199 L211.394332,2994.19199 L211.56602,2993.24409 L209.716478,2993.24409 L210.067656,2991.19162 L208.943884,2991.19162 L208.569293,2993.24409 L207.273834,2993.24409 L207.102146,2994.19199 L208.40541,2994.19199 L207.570385,2998.93932 C207.500149,2999.37018 207.453325,2999.73837 207.453325,2999.98906 C207.453325,3001.00746 208.101055,3001.51666 209.388711,3001.51666 Z M217.364373,3001.44616 L218.207202,2996.62833 C218.441321,2995.28873 219.276347,2994.08232 220.743494,2994.08232 C221.960914,2994.08232 222.429152,2994.92838 222.429152,2995.89194 C222.429152,2996.2523 222.366721,2996.65966 222.327701,2996.87901 L221.523891,3001.44616 L222.663272,3001.44616 L223.459277,2996.94952 C223.529513,2996.54215 223.599749,2996.09562 223.599749,2995.68043 C223.599749,2994.34084 222.827155,2993.11092 221.079065,2993.11092 C219.900665,2993.11092 219.057835,2993.67496 218.613009,2994.61502 L218.527165,2994.61502 L218.776892,2993.24409 L217.660924,2993.24409 L216.217189,3001.44616 L217.364373,3001.44616 Z M233.073774,2990.43957 L235.781753,2987.72905 L234.540921,2987.72905 L232.168513,2990.43957 L233.073774,2990.43957 Z M228.789392,2991.87317 L230.389207,2990.35339 L230.420423,2990.35339 L231.395919,2991.87317 L232.348004,2991.87317 L230.888661,2989.63268 L230.147283,2989.63268 L227.751463,2991.87317 L228.789392,2991.87317 Z M228.836216,3001.57933 C230.865249,3001.57933 232.059257,3000.41209 232.410436,2998.46929 L232.61334,2997.34904 C232.675771,2997.00435 232.706987,2996.62049 232.706987,2996.38548 C232.706987,2994.32517 231.333488,2993.11092 229.398102,2993.11092 C227.66562,2993.11092 226.268708,2994.22333 225.925333,2996.19746 L225.738038,2997.30987 C225.667802,2997.67023 225.64439,2998.06192 225.64439,2998.44578 C225.64439,3000.41209 227.033498,3001.57933 228.836216,3001.57933 Z M228.976687,3000.5766 C227.595384,3000.5766 226.760358,2999.63653 226.760358,2998.26561 C226.760358,2997.90525 226.799378,2997.64673 226.846202,2997.38821 L227.01789,2996.41681 C227.298833,2994.81087 228.227506,2994.11365 229.366886,2994.11365 C230.724778,2994.11365 231.567607,2995.06155 231.567607,2996.37764 C231.567607,2996.49515 231.559803,2996.88684 231.520783,2997.13753 L231.341292,2998.17943 C231.075956,2999.71487 230.233127,3000.5766 228.976687,3000.5766 Z M236.710426,2991.60681 C237.217685,2991.60681 237.592275,2991.23862 237.592275,2990.74509 C237.592275,2990.24372 237.217685,2989.86769 236.710426,2989.86769 C236.234384,2989.86769 235.851989,2990.24372 235.851989,2990.74509 C235.851989,2991.23862 236.234384,2991.60681 236.710426,2991.60681 Z M235.547634,3001.44616 L236.983565,2993.24409 L235.844185,2993.24409 L234.408254,3001.44616 L235.547634,3001.44616 Z" id="Chchaibnckhongthigiantuytvicngnhau!SauybncthXcnhnktni"></path>
        </g>
    </g>
</svg>