<?xml version="1.0" encoding="UTF-8"?>
<svg width="320px" height="280px" viewBox="0 0 320 280" version="1.1" xmlns="http://www.w3.org/2000/svg" xmlns:xlink="http://www.w3.org/1999/xlink">
    <title>3</title>
    <g id="Chanchan" stroke="none" stroke-width="1" fill="none" fill-rule="evenodd">
        <g id="iPhone-SE" transform="translate(0.000000, -2560.000000)" fill-rule="nonzero">
            <g id="Group-2" transform="translate(35.000000, 416.000000)" fill="#121721">
                <path d="M39.5546875,2187 L41.2578125,2177.36719 L44.625,2177.36719 L44.7890625,2176.33594 L36.90625,2176.33594 L36.7265625,2177.36719 L40.1015625,2177.36719 L38.3984375,2187 L39.5546875,2187 Z M45.6875,2187 L46.5234375,2182.25 C46.7578125,2180.89062 47.546875,2179.75 49.0234375,2179.75 C49.2265625,2179.75 49.53125,2179.77344 49.6953125,2179.82812 L49.9375,2178.75 C49.78125,2178.72656 49.484375,2178.6875 49.2578125,2178.6875 C48.03125,2178.6875 47.21875,2179.42969 46.90625,2180.20312 L46.8203125,2180.20312 L47.0703125,2178.82031 L45.984375,2178.82031 L44.5390625,2187 L45.6875,2187 Z M53.6328125,2177.46094 L55.25,2175.29688 L55.2734375,2175.29688 L56.1796875,2177.46094 L57.1796875,2177.46094 L55.8359375,2174.52344 L54.9140625,2174.52344 L52.59375,2177.46094 L53.6328125,2177.46094 Z M53.65625,2187.13281 C55.4765625,2187.13281 56.6328125,2186.01562 56.8203125,2185.01562 L55.6796875,2185.01562 C55.515625,2185.57812 54.8203125,2186.125 53.7265625,2186.125 C52.2109375,2186.125 51.640625,2185.07031 51.640625,2183.94531 C51.640625,2183.66406 51.6796875,2183.35938 51.7265625,2183.17969 L57.15625,2183.17969 C57.171875,2183.10156 57.3515625,2182.10938 57.3515625,2182.07812 C57.5859375,2180.57031 56.84375,2178.6875 54.4296875,2178.6875 C52.546875,2178.6875 51.2109375,2179.83594 50.890625,2181.66406 L50.6796875,2182.82031 C50.625,2183.10938 50.5546875,2183.59375 50.5546875,2184.05469 C50.5546875,2186.0625 51.8671875,2187.13281 53.65625,2187.13281 Z M56.234375,2182.25781 L51.9140625,2182.25781 C51.9140625,2182.24219 52.0234375,2181.72656 52.0234375,2181.71094 C52.3203125,2180.3125 53.296875,2179.65625 54.390625,2179.65625 C55.8203125,2179.65625 56.484375,2180.73438 56.265625,2182.05469 C56.265625,2182.09375 56.2421875,2182.23438 56.234375,2182.25781 Z M60.0625,2187 L60.90625,2182.19531 C61.140625,2180.85938 61.9765625,2179.65625 63.4453125,2179.65625 C64.6640625,2179.65625 65.1328125,2180.5 65.1328125,2181.46094 C65.1328125,2181.82031 65.0703125,2182.22656 65.03125,2182.44531 L64.2265625,2187 L65.3671875,2187 L66.1640625,2182.51562 C66.234375,2182.10938 66.3046875,2181.66406 66.3046875,2181.25 C66.3046875,2179.91406 65.53125,2178.6875 63.78125,2178.6875 C62.6015625,2178.6875 61.7578125,2179.25 61.3125,2180.1875 L61.2265625,2180.1875 L61.4765625,2178.82031 L60.359375,2178.82031 L58.9140625,2187 L60.0625,2187 Z M73.109375,2187 L75.09375,2175.77344 L73.9453125,2175.77344 L71.9609375,2187 L73.109375,2187 Z M81.078125,2177.46094 L79.609375,2174.71875 L78.359375,2174.71875 L80.203125,2177.46094 L81.078125,2177.46094 Z M78.4921875,2187.13281 C79.765625,2187.13281 80.5859375,2186.4375 80.8671875,2185.875 L80.9453125,2185.875 L80.75,2187 L81.859375,2187 L82.6640625,2182.4375 C82.7421875,2182.04688 82.8125,2181.59375 82.8125,2181.16406 C82.8125,2179.70312 81.8203125,2178.6875 79.96875,2178.6875 C78.25,2178.6875 77.140625,2179.54688 76.921875,2180.71875 L78.03125,2180.71875 C78.2109375,2180.17188 78.796875,2179.67188 79.8828125,2179.67188 C81.2265625,2179.67188 81.7265625,2180.46875 81.7265625,2181.26562 C81.7265625,2181.42188 81.703125,2181.60156 81.6875,2181.69531 L81.6015625,2182.24219 L79.328125,2182.24219 C77.25,2182.24219 76.1796875,2183.16406 76.0390625,2184.50781 C76.0234375,2184.64062 76.0234375,2184.76562 76.0234375,2184.86719 C76.0234375,2186.28906 77.140625,2187.13281 78.4921875,2187.13281 Z M78.765625,2186.15625 C77.765625,2186.15625 77.171875,2185.57812 77.171875,2184.75781 C77.171875,2183.89844 77.8359375,2183.17969 79.2265625,2183.17969 L81.3984375,2183.17969 L81.2109375,2184.25 C81.0078125,2185.36719 79.9609375,2186.15625 78.765625,2186.15625 Z M89.4765625,2187 L90.328125,2182.15625 C90.5625,2180.80469 91.3046875,2179.65625 92.6875,2179.65625 C93.8125,2179.65625 94.21875,2180.4375 94.21875,2181.42188 C94.21875,2181.77344 94.1796875,2182.14062 94.140625,2182.35938 L93.3203125,2187 L94.4609375,2187 L95.3203125,2182.16406 C95.578125,2180.71875 96.3125,2179.65625 97.5546875,2179.65625 C98.6328125,2179.65625 99.046875,2180.42188 99.046875,2181.4375 C99.046875,2181.78125 98.9921875,2182.15625 98.953125,2182.375 L98.140625,2187 L99.28125,2187 L100.085938,2182.44531 C100.148438,2182.07031 100.226562,2181.57812 100.226562,2181.15625 C100.226562,2179.82031 99.4921875,2178.6875 97.84375,2178.6875 C96.390625,2178.6875 95.671875,2179.60938 95.390625,2180.25 L95.3125,2180.25 C95.046875,2179.36719 94.2734375,2178.6875 93.0234375,2178.6875 C91.8125,2178.6875 91.0625,2179.39062 90.7265625,2180.1875 L90.640625,2180.1875 L90.8828125,2178.82031 L89.7734375,2178.82031 L88.328125,2187 L89.4765625,2187 Z M105.46875,2177.46094 L107.085938,2175.29688 L107.109375,2175.29688 L108.015625,2177.46094 L109.015625,2177.46094 L107.671875,2174.52344 L106.75,2174.52344 L104.429688,2177.46094 L105.46875,2177.46094 Z M105.460938,2187.13281 C107.492188,2187.13281 108.6875,2185.96875 109.039062,2184.03125 L109.242188,2182.91406 C109.304688,2182.57031 109.335938,2182.1875 109.335938,2181.95312 C109.335938,2179.89844 107.960938,2178.6875 106.023438,2178.6875 C104.289062,2178.6875 102.890625,2179.79688 102.546875,2181.76562 L102.359375,2182.875 C102.289062,2183.23438 102.265625,2183.625 102.265625,2184.00781 C102.265625,2185.96875 103.65625,2187.13281 105.460938,2187.13281 Z M105.601562,2186.13281 C104.21875,2186.13281 103.382812,2185.19531 103.382812,2183.82812 C103.382812,2183.46875 103.421875,2183.21094 103.46875,2182.95312 L103.640625,2181.98438 C103.921875,2180.38281 104.851562,2179.6875 105.992188,2179.6875 C107.351562,2179.6875 108.195312,2180.63281 108.195312,2181.94531 C108.195312,2182.0625 108.1875,2182.45312 108.148438,2182.70312 L107.96875,2183.74219 C107.703125,2185.27344 106.859375,2186.13281 105.601562,2186.13281 Z M117.210938,2187.07031 C117.59375,2187.07031 118.085938,2187.02344 118.3125,2186.96875 L118.484375,2186.02344 C118.25,2186.07031 117.820312,2186.10938 117.476562,2186.10938 C116.765625,2186.10938 116.453125,2185.85156 116.453125,2185.26562 C116.453125,2185.03125 116.492188,2184.77344 116.617188,2184.05469 L117.367188,2179.76562 L119.21875,2179.76562 L119.390625,2178.82031 L117.539062,2178.82031 L117.890625,2176.77344 L116.765625,2176.77344 L116.390625,2178.82031 L115.09375,2178.82031 L114.921875,2179.76562 L116.226562,2179.76562 L115.390625,2184.5 C115.320312,2184.92969 115.273438,2185.29688 115.273438,2185.54688 C115.273438,2186.5625 115.921875,2187.07031 117.210938,2187.07031 Z M124.765625,2177.75 C125.695312,2177.34375 126.164062,2176.82812 126.164062,2176.01562 C126.164062,2175.34375 125.625,2174.83594 124.71875,2174.83594 C124.273438,2174.83594 124.046875,2174.89062 123.84375,2174.98438 L123.734375,2175.69531 C123.914062,2175.625 124.132812,2175.55469 124.554688,2175.55469 C124.992188,2175.55469 125.304688,2175.82031 125.304688,2176.14062 C125.304688,2176.49219 125.109375,2176.76562 124.390625,2177.125 L124.765625,2177.75 Z M122.789062,2187.13281 C124.0625,2187.13281 124.882812,2186.4375 125.164062,2185.875 L125.242188,2185.875 L125.046875,2187 L126.15625,2187 L126.960938,2182.4375 C127.039062,2182.04688 127.109375,2181.59375 127.109375,2181.16406 C127.109375,2179.70312 126.117188,2178.6875 124.265625,2178.6875 C122.546875,2178.6875 121.4375,2179.54688 121.21875,2180.71875 L122.328125,2180.71875 C122.507812,2180.17188 123.09375,2179.67188 124.179688,2179.67188 C125.523438,2179.67188 126.023438,2180.46875 126.023438,2181.26562 C126.023438,2181.42188 126,2181.60156 125.984375,2181.69531 L125.898438,2182.24219 L123.625,2182.24219 C121.546875,2182.24219 120.476562,2183.16406 120.335938,2184.50781 C120.320312,2184.64062 120.320312,2184.76562 120.320312,2184.86719 C120.320312,2186.28906 121.4375,2187.13281 122.789062,2187.13281 Z M123.0625,2186.15625 C122.0625,2186.15625 121.46875,2185.57812 121.46875,2184.75781 C121.46875,2183.89844 122.132812,2183.17969 123.523438,2183.17969 L125.695312,2183.17969 L125.507812,2184.25 C125.304688,2185.36719 124.257812,2186.15625 123.0625,2186.15625 Z M135.523438,2187.16406 C137.382812,2187.16406 138.601562,2186.27344 138.601562,2184.67188 C138.601562,2183.21094 137.539062,2182.74219 136.296875,2182.33594 C135.359375,2182.03125 134.53125,2181.75 134.53125,2180.89062 C134.53125,2180.16406 135.1875,2179.60938 136.242188,2179.60938 C137.429688,2179.60938 138.078125,2180.35156 138.078125,2180.98438 L138.078125,2181.0625 L138.078125,2181.0625 L139.148438,2181.0625 C139.15625,2181.05469 139.15625,2180.92188 139.15625,2180.90625 C139.15625,2179.82812 138.132812,2178.6875 136.265625,2178.6875 C134.453125,2178.6875 133.398438,2179.60938 133.398438,2181.03125 C133.398438,2182.52344 134.828125,2183.01562 135.734375,2183.29688 C136.65625,2183.59375 137.476562,2183.85156 137.476562,2184.76562 C137.476562,2185.625 136.765625,2186.17969 135.601562,2186.17969 C134.421875,2186.17969 133.617188,2185.57031 133.5,2184.875 C133.492188,2184.82812 133.484375,2184.77344 133.492188,2184.72656 L132.390625,2184.72656 L132.390625,2184.8125 L132.390625,2184.8125 C132.390625,2186.07031 133.664062,2187.16406 135.523438,2187.16406 Z M143.976562,2187.13281 C146.007812,2187.13281 147.203125,2185.96875 147.554688,2184.03125 L147.757812,2182.91406 C147.8125,2182.57031 147.84375,2182.1875 147.84375,2181.95312 C147.84375,2181.02344 147.507812,2180.24219 147.179688,2179.84375 L147.203125,2179.78125 C148.414062,2179.76562 148.820312,2178.96094 149.046875,2177.6875 L149.242188,2176.60938 L148.210938,2176.60938 L148,2177.78125 C147.859375,2178.55469 147.46875,2179.03125 146.679688,2179.03125 C145.945312,2179.03125 145.445312,2178.6875 144.53125,2178.6875 C142.804688,2178.6875 141.40625,2179.79688 141.0625,2181.76562 L140.867188,2182.875 C140.804688,2183.23438 140.78125,2183.625 140.78125,2184.00781 C140.78125,2185.96875 142.164062,2187.13281 143.976562,2187.13281 Z M144.117188,2186.13281 C142.734375,2186.13281 141.898438,2185.19531 141.898438,2183.82812 C141.898438,2183.46875 141.929688,2183.21094 141.976562,2182.95312 L142.15625,2181.98438 C142.4375,2180.38281 143.367188,2179.6875 144.507812,2179.6875 C145.859375,2179.6875 146.703125,2180.63281 146.703125,2181.94531 C146.703125,2182.0625 146.703125,2182.45312 146.664062,2182.70312 L146.484375,2183.74219 C146.210938,2185.27344 145.375,2186.13281 144.117188,2186.13281 Z M154.375,2187 L156.359375,2175.77344 L155.210938,2175.77344 L153.226562,2187 L154.375,2187 Z M160.304688,2187.13281 C161.492188,2187.13281 162.351562,2186.46875 162.742188,2185.58594 L162.835938,2185.58594 L162.585938,2187 L163.664062,2187 L164.953125,2179.64062 L165.078125,2179.64062 C166.398438,2179.64062 167.132812,2178.77344 167.34375,2177.5625 L167.507812,2176.60938 L166.484375,2176.60938 L166.304688,2177.57812 C166.179688,2178.3125 165.835938,2178.82031 164.992188,2178.82031 L164.007812,2178.82031 L163.164062,2183.58594 C162.9375,2184.92188 162.125,2186.10938 160.664062,2186.10938 C159.460938,2186.10938 158.882812,2185.41406 158.882812,2184.39062 C158.882812,2184.05469 158.9375,2183.64062 158.992188,2183.34375 L159.804688,2178.82031 L158.671875,2178.82031 L157.851562,2183.27344 C157.78125,2183.64844 157.703125,2184.15625 157.703125,2184.59375 C157.703125,2185.99219 158.617188,2187.13281 160.304688,2187.13281 Z M170.710938,2187.13281 C172.742188,2187.13281 173.9375,2185.96875 174.289062,2184.03125 L174.492188,2182.91406 C174.546875,2182.57031 174.578125,2182.1875 174.578125,2181.95312 C174.578125,2181.02344 174.242188,2180.24219 173.914062,2179.84375 L173.9375,2179.78125 C175.148438,2179.76562 175.554688,2178.96094 175.78125,2177.6875 L175.976562,2176.60938 L174.945312,2176.60938 L174.734375,2177.78125 C174.59375,2178.55469 174.203125,2179.03125 173.414062,2179.03125 C172.679688,2179.03125 172.179688,2178.6875 171.265625,2178.6875 C169.539062,2178.6875 168.140625,2179.79688 167.796875,2181.76562 L167.601562,2182.875 C167.539062,2183.23438 167.515625,2183.625 167.515625,2184.00781 C167.515625,2185.96875 168.898438,2187.13281 170.710938,2187.13281 Z M170.851562,2186.13281 C169.46875,2186.13281 168.632812,2185.19531 168.632812,2183.82812 C168.632812,2183.46875 168.664062,2183.21094 168.710938,2182.95312 L168.890625,2181.98438 C169.171875,2180.38281 170.101562,2179.6875 171.242188,2179.6875 C172.59375,2179.6875 173.4375,2180.63281 173.4375,2181.94531 C173.4375,2182.0625 173.4375,2182.45312 173.398438,2182.70312 L173.21875,2183.74219 C172.945312,2185.27344 172.109375,2186.13281 170.851562,2186.13281 Z M169.976562,2189.54688 C170.429688,2189.54688 170.75,2189.25 170.75,2188.80469 C170.75,2188.36719 170.429688,2188.05469 169.976562,2188.05469 C169.53125,2188.05469 169.210938,2188.36719 169.210938,2188.80469 C169.210938,2189.25 169.53125,2189.54688 169.976562,2189.54688 Z M179.515625,2187.13281 C181.15625,2187.13281 182.382812,2186.27344 182.609375,2184.98438 L181.460938,2184.98438 C181.3125,2185.59375 180.640625,2186.125 179.570312,2186.125 C178.179688,2186.125 177.453125,2185.24219 177.453125,2183.75781 C177.453125,2183.5 177.476562,2183.25 177.539062,2182.91406 L177.703125,2181.96875 C177.96875,2180.48438 178.882812,2179.65625 180.085938,2179.65625 C181.359375,2179.65625 182.007812,2180.50781 182.007812,2181.25 L182.007812,2181.34375 L182.007812,2181.34375 L183.117188,2181.34375 C183.125,2181.33594 183.125,2181.25781 183.125,2181.24219 C183.125,2179.875 182.007812,2178.6875 180.09375,2178.6875 C178.28125,2178.6875 176.960938,2179.71875 176.625,2181.67188 L176.421875,2182.84375 C176.351562,2183.25781 176.320312,2183.69531 176.320312,2184.00781 C176.320312,2185.92188 177.59375,2187.13281 179.515625,2187.13281 Z M191.203125,2187 L195.34375,2178.82031 L194.179688,2178.82031 L190.820312,2185.72656 L190.742188,2185.72656 L189.757812,2178.82031 L188.585938,2178.82031 L189.96875,2187 L191.203125,2187 Z M204.101562,2176.02344 L202.796875,2173.32031 L201.710938,2173.32031 L203.3125,2176.02344 L204.101562,2176.02344 Z M199.140625,2177.45312 L200.734375,2175.9375 L200.765625,2175.9375 L201.742188,2177.45312 L202.703125,2177.45312 L201.242188,2175.21875 L200.5,2175.21875 L198.101562,2177.45312 L199.140625,2177.45312 Z M199.21875,2187.13281 C201.039062,2187.13281 202.195312,2186.01562 202.382812,2185.01562 L201.242188,2185.01562 C201.078125,2185.57812 200.382812,2186.125 199.289062,2186.125 C197.773438,2186.125 197.203125,2185.07031 197.203125,2183.94531 C197.203125,2183.66406 197.242188,2183.35938 197.289062,2183.17969 L202.71875,2183.17969 C202.734375,2183.10156 202.914062,2182.10938 202.914062,2182.07812 C203.148438,2180.57031 202.40625,2178.6875 199.992188,2178.6875 C198.109375,2178.6875 196.773438,2179.83594 196.453125,2181.66406 L196.242188,2182.82031 C196.1875,2183.10938 196.117188,2183.59375 196.117188,2184.05469 C196.117188,2186.0625 197.429688,2187.13281 199.21875,2187.13281 Z M201.796875,2182.25781 L197.476562,2182.25781 C197.476562,2182.24219 197.585938,2181.72656 197.585938,2181.71094 C197.882812,2180.3125 198.859375,2179.65625 199.953125,2179.65625 C201.382812,2179.65625 202.046875,2180.73438 201.828125,2182.05469 C201.828125,2182.09375 201.804688,2182.23438 201.796875,2182.25781 Z M39.375,2211.13281 C41.015625,2211.13281 42.2421875,2210.27344 42.46875,2208.98438 L41.3203125,2208.98438 C41.171875,2209.59375 40.5,2210.125 39.4296875,2210.125 C38.0390625,2210.125 37.3125,2209.24219 37.3125,2207.75781 C37.3125,2207.5 37.3359375,2207.25 37.3984375,2206.91406 L37.5625,2205.96875 C37.828125,2204.48438 38.7421875,2203.65625 39.9453125,2203.65625 C41.21875,2203.65625 41.8671875,2204.50781 41.8671875,2205.25 L41.8671875,2205.34375 L41.8671875,2205.34375 L42.9765625,2205.34375 C42.984375,2205.33594 42.984375,2205.25781 42.984375,2205.24219 C42.984375,2203.875 41.8671875,2202.6875 39.953125,2202.6875 C38.140625,2202.6875 36.8203125,2203.71875 36.484375,2205.67188 L36.28125,2206.84375 C36.2109375,2207.25781 36.1796875,2207.69531 36.1796875,2208.00781 C36.1796875,2209.92188 37.453125,2211.13281 39.375,2211.13281 Z M48.6328125,2201.46094 L51.328125,2198.71875 L50.0546875,2198.71875 L47.671875,2201.46094 L48.6328125,2201.46094 Z M46.703125,2211.13281 C47.9765625,2211.13281 48.796875,2210.4375 49.078125,2209.875 L49.15625,2209.875 L48.9609375,2211 L50.0703125,2211 L50.875,2206.4375 C50.953125,2206.04688 51.0234375,2205.59375 51.0234375,2205.16406 C51.0234375,2203.70312 50.03125,2202.6875 48.1796875,2202.6875 C46.4609375,2202.6875 45.3515625,2203.54688 45.1328125,2204.71875 L46.2421875,2204.71875 C46.421875,2204.17188 47.0078125,2203.67188 48.09375,2203.67188 C49.4375,2203.67188 49.9375,2204.46875 49.9375,2205.26562 C49.9375,2205.42188 49.9140625,2205.60156 49.8984375,2205.69531 L49.8125,2206.24219 L47.5390625,2206.24219 C45.4609375,2206.24219 44.390625,2207.16406 44.25,2208.50781 C44.234375,2208.64062 44.234375,2208.76562 44.234375,2208.86719 C44.234375,2210.28906 45.3515625,2211.13281 46.703125,2211.13281 Z M46.9765625,2210.15625 C45.9765625,2210.15625 45.3828125,2209.57812 45.3828125,2208.75781 C45.3828125,2207.89844 46.046875,2207.17969 47.4375,2207.17969 L49.609375,2207.17969 L49.421875,2208.25 C49.21875,2209.36719 48.171875,2210.15625 46.9765625,2210.15625 Z M56.2421875,2211.13281 C57.8828125,2211.13281 59.109375,2210.27344 59.3359375,2208.98438 L58.1875,2208.98438 C58.0390625,2209.59375 57.3671875,2210.125 56.296875,2210.125 C54.90625,2210.125 54.1796875,2209.24219 54.1796875,2207.75781 C54.1796875,2207.5 54.203125,2207.25 54.265625,2206.91406 L54.4296875,2205.96875 C54.6953125,2204.48438 55.609375,2203.65625 56.8125,2203.65625 C58.0859375,2203.65625 58.734375,2204.50781 58.734375,2205.25 L58.734375,2205.34375 L58.734375,2205.34375 L59.84375,2205.34375 C59.8515625,2205.33594 59.8515625,2205.25781 59.8515625,2205.24219 C59.8515625,2203.875 58.734375,2202.6875 56.8203125,2202.6875 C55.0078125,2202.6875 53.6875,2203.71875 53.3515625,2205.67188 L53.1484375,2206.84375 C53.078125,2207.25781 53.046875,2207.69531 53.046875,2208.00781 C53.046875,2209.92188 54.3203125,2211.13281 56.2421875,2211.13281 Z M62.3203125,2211 L63.1640625,2206.19531 C63.3984375,2204.85938 64.25,2203.65625 65.71875,2203.65625 C66.9375,2203.65625 67.4296875,2204.49219 67.4296875,2205.45312 C67.4296875,2205.80469 67.3671875,2206.23438 67.328125,2206.44531 L66.5234375,2211 L67.671875,2211 L68.4609375,2206.51562 C68.53125,2206.10938 68.6015625,2205.65625 68.6015625,2205.25 C68.6015625,2203.89844 67.765625,2202.6875 66.046875,2202.6875 C64.828125,2202.6875 63.984375,2203.28125 63.5703125,2204.1875 L63.484375,2204.1875 L64.296875,2199.77344 L63.1640625,2199.77344 L61.171875,2211 L62.3203125,2211 Z M75.2890625,2211 L76.140625,2206.15625 C76.375,2204.80469 77.1171875,2203.65625 78.5,2203.65625 C79.625,2203.65625 80.03125,2204.4375 80.03125,2205.42188 C80.03125,2205.77344 79.9921875,2206.14062 79.953125,2206.35938 L79.1328125,2211 L80.2734375,2211 L81.1328125,2206.16406 C81.390625,2204.71875 82.125,2203.65625 83.3671875,2203.65625 C84.4453125,2203.65625 84.859375,2204.42188 84.859375,2205.4375 C84.859375,2205.78125 84.8046875,2206.15625 84.765625,2206.375 L83.953125,2211 L85.09375,2211 L85.8984375,2206.44531 C85.9609375,2206.07031 86.0390625,2205.57812 86.0390625,2205.15625 C86.0390625,2203.82031 85.3046875,2202.6875 83.65625,2202.6875 C82.203125,2202.6875 81.484375,2203.60938 81.203125,2204.25 L81.125,2204.25 C80.859375,2203.36719 80.0859375,2202.6875 78.8359375,2202.6875 C77.625,2202.6875 76.875,2203.39062 76.5390625,2204.1875 L76.453125,2204.1875 L76.6953125,2202.82031 L75.5859375,2202.82031 L74.140625,2211 L75.2890625,2211 Z M92.890625,2201.46094 L91.421875,2198.71875 L90.171875,2198.71875 L92.015625,2201.46094 L92.890625,2201.46094 Z M90.3046875,2211.13281 C91.578125,2211.13281 92.3984375,2210.4375 92.6796875,2209.875 L92.7578125,2209.875 L92.5625,2211 L93.671875,2211 L94.4765625,2206.4375 C94.5546875,2206.04688 94.625,2205.59375 94.625,2205.16406 C94.625,2203.70312 93.6328125,2202.6875 91.78125,2202.6875 C90.0625,2202.6875 88.953125,2203.54688 88.734375,2204.71875 L89.84375,2204.71875 C90.0234375,2204.17188 90.609375,2203.67188 91.6953125,2203.67188 C93.0390625,2203.67188 93.5390625,2204.46875 93.5390625,2205.26562 C93.5390625,2205.42188 93.515625,2205.60156 93.5,2205.69531 L93.4140625,2206.24219 L91.140625,2206.24219 C89.0625,2206.24219 87.9921875,2207.16406 87.8515625,2208.50781 C87.8359375,2208.64062 87.8359375,2208.76562 87.8359375,2208.86719 C87.8359375,2210.28906 88.953125,2211.13281 90.3046875,2211.13281 Z M90.578125,2210.15625 C89.578125,2210.15625 88.984375,2209.57812 88.984375,2208.75781 C88.984375,2207.89844 89.6484375,2207.17969 91.0390625,2207.17969 L93.2109375,2207.17969 L93.0234375,2208.25 C92.8203125,2209.36719 91.7734375,2210.15625 90.578125,2210.15625 Z M101.429688,2211 L102.101562,2207.20312 L103.757812,2205.75781 L106.648438,2211 L108.007812,2211 L104.648438,2205.07812 L109.78125,2200.33594 L108.296875,2200.33594 L102.429688,2205.69531 L102.335938,2205.69531 L103.3125,2200.33594 L102.148438,2200.33594 L100.265625,2211 L101.429688,2211 Z M116.820312,2200.02344 L119.53125,2197.32031 L118.289062,2197.32031 L115.914062,2200.02344 L116.820312,2200.02344 Z M112.53125,2201.45312 L114.132812,2199.9375 L114.164062,2199.9375 L115.140625,2201.45312 L116.09375,2201.45312 L114.632812,2199.21875 L113.890625,2199.21875 L111.492188,2201.45312 L112.53125,2201.45312 Z M112.609375,2211.13281 C114.429688,2211.13281 115.585938,2210.01562 115.773438,2209.01562 L114.632812,2209.01562 C114.46875,2209.57812 113.773438,2210.125 112.679688,2210.125 C111.164062,2210.125 110.59375,2209.07031 110.59375,2207.94531 C110.59375,2207.66406 110.632812,2207.35938 110.679688,2207.17969 L116.109375,2207.17969 C116.125,2207.10156 116.304688,2206.10938 116.304688,2206.07812 C116.539062,2204.57031 115.796875,2202.6875 113.382812,2202.6875 C111.5,2202.6875 110.164062,2203.83594 109.84375,2205.66406 L109.632812,2206.82031 C109.578125,2207.10938 109.507812,2207.59375 109.507812,2208.05469 C109.507812,2210.0625 110.820312,2211.13281 112.609375,2211.13281 Z M115.1875,2206.25781 L110.867188,2206.25781 C110.867188,2206.24219 110.976562,2205.72656 110.976562,2205.71094 C111.273438,2204.3125 112.25,2203.65625 113.34375,2203.65625 C114.773438,2203.65625 115.4375,2204.73438 115.21875,2206.05469 C115.21875,2206.09375 115.195312,2206.23438 115.1875,2206.25781 Z M120.515625,2211.07031 C120.898438,2211.07031 121.390625,2211.02344 121.617188,2210.96875 L121.789062,2210.02344 C121.554688,2210.07031 121.125,2210.10938 120.78125,2210.10938 C120.070312,2210.10938 119.757812,2209.85156 119.757812,2209.26562 C119.757812,2209.03125 119.796875,2208.77344 119.921875,2208.05469 L120.671875,2203.76562 L122.523438,2203.76562 L122.695312,2202.82031 L120.84375,2202.82031 L121.195312,2200.77344 L120.070312,2200.77344 L119.695312,2202.82031 L118.398438,2202.82031 L118.226562,2203.76562 L119.53125,2203.76562 L118.695312,2208.5 C118.625,2208.92969 118.578125,2209.29688 118.578125,2209.54688 C118.578125,2210.5625 119.226562,2211.07031 120.515625,2211.07031 Z M128.5,2211 L129.34375,2206.19531 C129.578125,2204.85938 130.414062,2203.65625 131.882812,2203.65625 C133.101562,2203.65625 133.570312,2204.5 133.570312,2205.46094 C133.570312,2205.82031 133.507812,2206.22656 133.46875,2206.44531 L132.664062,2211 L133.804688,2211 L134.601562,2206.51562 C134.671875,2206.10938 134.742188,2205.66406 134.742188,2205.25 C134.742188,2203.91406 133.96875,2202.6875 132.21875,2202.6875 C131.039062,2202.6875 130.195312,2203.25 129.75,2204.1875 L129.664062,2204.1875 L129.914062,2202.82031 L128.796875,2202.82031 L127.351562,2211 L128.5,2211 Z M144.226562,2200.02344 L146.9375,2197.32031 L145.695312,2197.32031 L143.320312,2200.02344 L144.226562,2200.02344 Z M139.9375,2201.45312 L141.539062,2199.9375 L141.570312,2199.9375 L142.546875,2201.45312 L143.5,2201.45312 L142.039062,2199.21875 L141.296875,2199.21875 L138.898438,2201.45312 L139.9375,2201.45312 Z M139.984375,2211.13281 C142.015625,2211.13281 143.210938,2209.96875 143.5625,2208.03125 L143.765625,2206.91406 C143.828125,2206.57031 143.859375,2206.1875 143.859375,2205.95312 C143.859375,2203.89844 142.484375,2202.6875 140.546875,2202.6875 C138.8125,2202.6875 137.414062,2203.79688 137.070312,2205.76562 L136.882812,2206.875 C136.8125,2207.23438 136.789062,2207.625 136.789062,2208.00781 C136.789062,2209.96875 138.179688,2211.13281 139.984375,2211.13281 Z M140.125,2210.13281 C138.742188,2210.13281 137.90625,2209.19531 137.90625,2207.82812 C137.90625,2207.46875 137.945312,2207.21094 137.992188,2206.95312 L138.164062,2205.98438 C138.445312,2204.38281 139.375,2203.6875 140.515625,2203.6875 C141.875,2203.6875 142.71875,2204.63281 142.71875,2205.94531 C142.71875,2206.0625 142.710938,2206.45312 142.671875,2206.70312 L142.492188,2207.74219 C142.226562,2209.27344 141.382812,2210.13281 140.125,2210.13281 Z M147.867188,2201.1875 C148.375,2201.1875 148.75,2200.82031 148.75,2200.32812 C148.75,2199.82812 148.375,2199.45312 147.867188,2199.45312 C147.390625,2199.45312 147.007812,2199.82812 147.007812,2200.32812 C147.007812,2200.82031 147.390625,2201.1875 147.867188,2201.1875 Z M146.703125,2211 L148.140625,2202.82031 L147,2202.82031 L145.5625,2211 L146.703125,2211 Z M156.234375,2211.16406 C158.09375,2211.16406 159.3125,2210.27344 159.3125,2208.67188 C159.3125,2207.21094 158.25,2206.74219 157.007812,2206.33594 C156.070312,2206.03125 155.242188,2205.75 155.242188,2204.89062 C155.242188,2204.16406 155.898438,2203.60938 156.953125,2203.60938 C158.140625,2203.60938 158.789062,2204.35156 158.789062,2204.98438 L158.789062,2205.0625 L158.789062,2205.0625 L159.859375,2205.0625 C159.867188,2205.05469 159.867188,2204.92188 159.867188,2204.90625 C159.867188,2203.82812 158.84375,2202.6875 156.976562,2202.6875 C155.164062,2202.6875 154.109375,2203.60938 154.109375,2205.03125 C154.109375,2206.52344 155.539062,2207.01562 156.445312,2207.29688 C157.367188,2207.59375 158.1875,2207.85156 158.1875,2208.76562 C158.1875,2209.625 157.476562,2210.17969 156.3125,2210.17969 C155.132812,2210.17969 154.328125,2209.57031 154.210938,2208.875 C154.203125,2208.82812 154.195312,2208.77344 154.203125,2208.72656 L153.101562,2208.72656 L153.101562,2208.8125 L153.101562,2208.8125 C153.101562,2210.07031 154.375,2211.16406 156.234375,2211.16406 Z M166.835938,2201.41406 C167.726562,2201.41406 168.289062,2200.55469 168.359375,2199.65625 L167.554688,2199.65625 C167.484375,2200.23438 167.242188,2200.60938 166.851562,2200.60938 C166.210938,2200.60938 166.171875,2199.39062 164.921875,2199.39062 C164.046875,2199.39062 163.476562,2200.13281 163.390625,2201.14844 L164.195312,2201.14844 C164.257812,2200.5625 164.46875,2200.19531 164.898438,2200.19531 C165.59375,2200.19531 165.625,2201.41406 166.835938,2201.41406 Z M164.554688,2211.13281 C166.375,2211.13281 167.53125,2210.01562 167.71875,2209.01562 L166.578125,2209.01562 C166.414062,2209.57812 165.71875,2210.125 164.625,2210.125 C163.109375,2210.125 162.539062,2209.07031 162.539062,2207.94531 C162.539062,2207.66406 162.578125,2207.35938 162.625,2207.17969 L168.054688,2207.17969 C168.070312,2207.10156 168.25,2206.10938 168.25,2206.07812 C168.484375,2204.57031 167.742188,2202.6875 165.328125,2202.6875 C163.445312,2202.6875 162.109375,2203.83594 161.789062,2205.66406 L161.578125,2206.82031 C161.523438,2207.10938 161.453125,2207.59375 161.453125,2208.05469 C161.453125,2210.0625 162.765625,2211.13281 164.554688,2211.13281 Z M167.132812,2206.25781 L162.8125,2206.25781 C162.8125,2206.24219 162.921875,2205.72656 162.921875,2205.71094 C163.21875,2204.3125 164.195312,2203.65625 165.289062,2203.65625 C166.71875,2203.65625 167.382812,2204.73438 167.164062,2206.05469 C167.164062,2206.09375 167.140625,2206.23438 167.132812,2206.25781 Z M176.554688,2211.11719 C177.921875,2211.11719 178.703125,2210.25 178.9375,2209.61719 L179.03125,2209.61719 L178.789062,2211 L179.90625,2211 L181.898438,2199.77344 L180.742188,2199.77344 L179.929688,2204.42969 L179.835938,2204.42969 C179.695312,2203.67188 178.804688,2202.6875 177.375,2202.6875 C175.445312,2202.6875 174.289062,2203.9375 173.984375,2205.54688 L173.695312,2207.07812 C173.632812,2207.375 173.617188,2207.73438 173.617188,2208.03906 C173.617188,2209.90625 174.851562,2211.11719 176.554688,2211.11719 Z M176.890625,2210.10938 C175.585938,2210.10938 174.757812,2209.26562 174.757812,2207.86719 C174.757812,2207.59375 174.78125,2207.29688 174.804688,2207.15625 L175.046875,2205.9375 C175.304688,2204.64062 176.09375,2203.66406 177.421875,2203.66406 C178.484375,2203.66406 179.617188,2204.42969 179.617188,2206.03125 C179.617188,2206.10156 179.601562,2206.23438 179.570312,2206.42969 L179.351562,2207.70312 C179.101562,2209.10156 178.210938,2210.10938 176.890625,2210.10938 Z M185.195312,2201.1875 C185.703125,2201.1875 186.078125,2200.82031 186.078125,2200.32812 C186.078125,2199.82812 185.703125,2199.45312 185.195312,2199.45312 C184.71875,2199.45312 184.335938,2199.82812 184.335938,2200.32812 C184.335938,2200.82031 184.71875,2201.1875 185.195312,2201.1875 Z M184.03125,2211 L185.46875,2202.82031 L184.328125,2202.82031 L182.890625,2211 L184.03125,2211 Z M193,2198.82031 C193.734375,2198.82031 194.34375,2198.14844 194.421875,2197.21875 L193.671875,2197.21875 C193.59375,2197.78906 193.359375,2198.09375 193.015625,2198.09375 C192.398438,2198.09375 192.34375,2196.92188 191.21875,2196.92188 C190.460938,2196.92188 189.890625,2197.54688 189.796875,2198.52344 L190.546875,2198.52344 C190.609375,2197.94531 190.835938,2197.65625 191.203125,2197.65625 C191.867188,2197.65625 191.90625,2198.82031 193,2198.82031 Z M190.171875,2201.45312 L191.765625,2199.95312 L191.796875,2199.95312 L192.773438,2201.45312 L193.726562,2201.45312 L192.265625,2199.24219 L191.523438,2199.24219 L189.125,2201.45312 L190.171875,2201.45312 Z M190.25,2211.13281 C192.070312,2211.13281 193.226562,2210.01562 193.414062,2209.01562 L192.273438,2209.01562 C192.109375,2209.57812 191.414062,2210.125 190.320312,2210.125 C188.804688,2210.125 188.234375,2209.07031 188.234375,2207.94531 C188.234375,2207.66406 188.273438,2207.35938 188.320312,2207.17969 L193.75,2207.17969 C193.765625,2207.10156 193.945312,2206.10938 193.945312,2206.07812 C194.179688,2204.57031 193.4375,2202.6875 191.023438,2202.6875 C189.140625,2202.6875 187.804688,2203.83594 187.484375,2205.66406 L187.273438,2206.82031 C187.21875,2207.10938 187.148438,2207.59375 187.148438,2208.05469 C187.148438,2210.0625 188.460938,2211.13281 190.25,2211.13281 Z M192.828125,2206.25781 L188.507812,2206.25781 C188.507812,2206.24219 188.617188,2205.72656 188.617188,2205.71094 C188.914062,2204.3125 189.890625,2203.65625 190.984375,2203.65625 C192.414062,2203.65625 193.078125,2204.73438 192.859375,2206.05469 C192.859375,2206.09375 192.835938,2206.23438 192.828125,2206.25781 Z M196.65625,2211 L197.5,2206.19531 C197.734375,2204.85938 198.570312,2203.65625 200.039062,2203.65625 C201.257812,2203.65625 201.726562,2204.5 201.726562,2205.46094 C201.726562,2205.82031 201.664062,2206.22656 201.625,2206.44531 L200.820312,2211 L201.960938,2211 L202.757812,2206.51562 C202.828125,2206.10938 202.898438,2205.66406 202.898438,2205.25 C202.898438,2203.91406 202.125,2202.6875 200.375,2202.6875 C199.195312,2202.6875 198.351562,2203.25 197.90625,2204.1875 L197.820312,2204.1875 L198.070312,2202.82031 L196.953125,2202.82031 L195.507812,2211 L196.65625,2211 Z M37.1640625,2235 L38,2230.25 C38.234375,2228.89062 39.0234375,2227.75 40.5,2227.75 C40.703125,2227.75 41.0078125,2227.77344 41.171875,2227.82812 L41.4140625,2226.75 C41.2578125,2226.72656 40.9609375,2226.6875 40.734375,2226.6875 C39.5078125,2226.6875 38.6953125,2227.42969 38.3828125,2228.20312 L38.296875,2228.20312 L38.546875,2226.82031 L37.4609375,2226.82031 L36.015625,2235 L37.1640625,2235 Z M44.3046875,2235.13281 C45.578125,2235.13281 46.3984375,2234.4375 46.6796875,2233.875 L46.7578125,2233.875 L46.5625,2235 L47.671875,2235 L48.4765625,2230.4375 C48.5546875,2230.04688 48.625,2229.59375 48.625,2229.16406 C48.625,2227.70312 47.6328125,2226.6875 45.78125,2226.6875 C44.0625,2226.6875 42.953125,2227.54688 42.734375,2228.71875 L43.84375,2228.71875 C44.0234375,2228.17188 44.609375,2227.67188 45.6953125,2227.67188 C47.0390625,2227.67188 47.5390625,2228.46875 47.5390625,2229.26562 C47.5390625,2229.42188 47.515625,2229.60156 47.5,2229.69531 L47.4140625,2230.24219 L45.140625,2230.24219 C43.0625,2230.24219 41.9921875,2231.16406 41.8515625,2232.50781 C41.8359375,2232.64062 41.8359375,2232.76562 41.8359375,2232.86719 C41.8359375,2234.28906 42.953125,2235.13281 44.3046875,2235.13281 Z M44.578125,2234.15625 C43.578125,2234.15625 42.984375,2233.57812 42.984375,2232.75781 C42.984375,2231.89844 43.6484375,2231.17969 45.0390625,2231.17969 L47.2109375,2231.17969 L47.0234375,2232.25 C46.8203125,2233.36719 45.7734375,2234.15625 44.578125,2234.15625 Z M51.2890625,2235.13281 C51.859375,2235.13281 52.296875,2234.70312 52.296875,2234.15625 C52.296875,2233.57812 51.859375,2233.14844 51.2890625,2233.14844 C50.75,2233.14844 50.3125,2233.57812 50.3125,2234.15625 C50.3125,2234.70312 50.75,2235.13281 51.2890625,2235.13281 Z M62.0859375,2235.22656 C64.2890625,2235.22656 65.8515625,2234.0625 65.8515625,2232.07031 C65.8515625,2230.34375 64.6171875,2229.75781 63.2265625,2229.21094 L62.59375,2228.96094 C61.453125,2228.50781 60.578125,2228 60.578125,2226.98438 C60.578125,2225.71875 61.7890625,2225.15625 62.9296875,2225.15625 C64.203125,2225.15625 65.21875,2225.88281 65.21875,2226.96094 C65.21875,2227.05469 65.2109375,2227.09375 65.2109375,2227.10156 L66.3125,2227.10156 C66.3125,2227.09375 66.328125,2226.85938 66.328125,2226.82812 C66.328125,2225.10938 64.71875,2224.11719 62.9453125,2224.11719 C60.953125,2224.11719 59.375,2225.1875 59.375,2227.03906 C59.375,2228.71875 60.7734375,2229.53125 62.140625,2230.03906 L62.640625,2230.22656 C63.7265625,2230.63281 64.640625,2231.0625 64.640625,2232.17969 C64.640625,2233.39062 63.640625,2234.1875 62.140625,2234.1875 C60.484375,2234.1875 59.5078125,2233.23438 59.5078125,2232.25781 C59.5078125,2232.19531 59.515625,2232.10938 59.5234375,2232.04688 L58.375,2232.04688 C58.359375,2232.14844 58.3515625,2232.28906 58.3515625,2232.40625 C58.3515625,2233.83594 59.7734375,2235.22656 62.0859375,2235.22656 Z M70.203125,2235.13281 C71.4765625,2235.13281 72.296875,2234.4375 72.578125,2233.875 L72.65625,2233.875 L72.4609375,2235 L73.5703125,2235 L74.375,2230.4375 C74.453125,2230.04688 74.5234375,2229.59375 74.5234375,2229.16406 C74.5234375,2227.70312 73.53125,2226.6875 71.6796875,2226.6875 C69.9609375,2226.6875 68.8515625,2227.54688 68.6328125,2228.71875 L69.7421875,2228.71875 C69.921875,2228.17188 70.5078125,2227.67188 71.59375,2227.67188 C72.9375,2227.67188 73.4375,2228.46875 73.4375,2229.26562 C73.4375,2229.42188 73.4140625,2229.60156 73.3984375,2229.69531 L73.3125,2230.24219 L71.0390625,2230.24219 C68.9609375,2230.24219 67.890625,2231.16406 67.75,2232.50781 C67.734375,2232.64062 67.734375,2232.76562 67.734375,2232.86719 C67.734375,2234.28906 68.8515625,2235.13281 70.203125,2235.13281 Z M70.4765625,2234.15625 C69.4765625,2234.15625 68.8828125,2233.57812 68.8828125,2232.75781 C68.8828125,2231.89844 69.546875,2231.17969 70.9375,2231.17969 L73.109375,2231.17969 L72.921875,2232.25 C72.71875,2233.36719 71.671875,2234.15625 70.4765625,2234.15625 Z M79.328125,2235.13281 C80.515625,2235.13281 81.375,2234.46875 81.765625,2233.58594 L81.859375,2233.58594 L81.609375,2235 L82.6875,2235 L84.125,2226.82031 L83.03125,2226.82031 L82.1875,2231.58594 C81.9609375,2232.92188 81.1484375,2234.10938 79.6875,2234.10938 C78.484375,2234.10938 77.90625,2233.41406 77.90625,2232.39062 C77.90625,2232.05469 77.9609375,2231.64062 78.015625,2231.34375 L78.828125,2226.82031 L77.6953125,2226.82031 L76.8828125,2231.27344 C76.8046875,2231.64844 76.7265625,2232.15625 76.7265625,2232.59375 C76.7265625,2233.99219 77.6484375,2235.13281 79.328125,2235.13281 Z M92.2890625,2235.11719 C93.65625,2235.11719 94.4375,2234.25 94.671875,2233.61719 L94.765625,2233.61719 L94.5234375,2235 L95.640625,2235 L97.28125,2225.72656 L98.5625,2225.72656 L98.7265625,2224.8125 L97.4453125,2224.8125 L97.6328125,2223.77344 L96.4765625,2223.77344 L96.296875,2224.8125 L94.5,2224.8125 L94.34375,2225.72656 L96.140625,2225.72656 L95.6640625,2228.42969 L95.5703125,2228.42969 C95.4296875,2227.67188 94.5390625,2226.6875 93.109375,2226.6875 C91.1796875,2226.6875 90.0234375,2227.9375 89.71875,2229.54688 L89.4296875,2231.07812 C89.3671875,2231.375 89.3515625,2231.73438 89.3515625,2232.03906 C89.3515625,2233.90625 90.5859375,2235.11719 92.2890625,2235.11719 Z M92.625,2234.10938 C91.3203125,2234.10938 90.4921875,2233.26562 90.4921875,2231.86719 C90.4921875,2231.59375 90.515625,2231.29688 90.5390625,2231.15625 L90.78125,2229.9375 C91.0390625,2228.64062 91.828125,2227.66406 93.15625,2227.66406 C94.21875,2227.66406 95.3515625,2228.42969 95.3515625,2230.03125 C95.3515625,2230.10156 95.3359375,2230.23438 95.3046875,2230.42969 L95.0859375,2231.70312 C94.8359375,2233.10156 93.9453125,2234.10938 92.625,2234.10938 Z M101.515625,2225.46094 L103.132812,2223.29688 L103.15625,2223.29688 L104.0625,2225.46094 L105.0625,2225.46094 L103.71875,2222.52344 L102.796875,2222.52344 L100.476562,2225.46094 L101.515625,2225.46094 Z M100.914062,2235.13281 C102.1875,2235.13281 103.007812,2234.4375 103.289062,2233.875 L103.367188,2233.875 L103.171875,2235 L104.28125,2235 L105.085938,2230.4375 C105.164062,2230.04688 105.234375,2229.59375 105.234375,2229.16406 C105.234375,2227.70312 104.242188,2226.6875 102.390625,2226.6875 C100.671875,2226.6875 99.5625,2227.54688 99.34375,2228.71875 L100.453125,2228.71875 C100.632812,2228.17188 101.21875,2227.67188 102.304688,2227.67188 C103.648438,2227.67188 104.148438,2228.46875 104.148438,2229.26562 C104.148438,2229.42188 104.125,2229.60156 104.109375,2229.69531 L104.023438,2230.24219 L101.75,2230.24219 C99.671875,2230.24219 98.6015625,2231.16406 98.4609375,2232.50781 C98.4453125,2232.64062 98.4453125,2232.76562 98.4453125,2232.86719 C98.4453125,2234.28906 99.5625,2235.13281 100.914062,2235.13281 Z M101.1875,2234.15625 C100.1875,2234.15625 99.59375,2233.57812 99.59375,2232.75781 C99.59375,2231.89844 100.257812,2231.17969 101.648438,2231.17969 L103.820312,2231.17969 L103.632812,2232.25 C103.429688,2233.36719 102.382812,2234.15625 101.1875,2234.15625 Z M107.101562,2237.83594 C108.507812,2237.83594 109.125,2237.38281 109.9375,2235.78125 L110.328125,2235.01562 L114.601562,2226.82031 L113.375,2226.82031 L110.007812,2233.66406 L109.929688,2233.66406 L108.804688,2226.82031 L107.585938,2226.82031 L109.148438,2234.92969 L108.882812,2235.5 C108.429688,2236.49219 107.960938,2236.86719 107.21875,2236.86719 C106.960938,2236.86719 106.695312,2236.83594 106.507812,2236.78906 L106.296875,2237.73438 C106.46875,2237.78125 106.804688,2237.83594 107.101562,2237.83594 Z M123.054688,2235.13281 C124.96875,2235.13281 126.132812,2233.85938 126.421875,2232.21875 L126.6875,2230.67969 C126.742188,2230.35938 126.757812,2230.00781 126.757812,2229.73438 C126.757812,2227.83594 125.585938,2226.6875 123.875,2226.6875 C122.492188,2226.6875 121.789062,2227.49219 121.492188,2228.11719 L121.398438,2228.11719 L122.1875,2223.77344 L121.046875,2223.77344 L119.046875,2235 L120.179688,2235 L120.476562,2233.32812 L120.5625,2233.32812 C120.765625,2234.17188 121.695312,2235.13281 123.054688,2235.13281 Z M123.023438,2234.09375 C122.015625,2234.09375 120.867188,2233.34375 120.859375,2231.71875 C120.859375,2231.67969 120.859375,2231.50781 120.898438,2231.32031 L121.101562,2230.04688 C121.328125,2228.67969 122.21875,2227.64844 123.546875,2227.64844 C124.835938,2227.64844 125.65625,2228.48438 125.65625,2229.88281 C125.65625,2230.09375 125.648438,2230.38281 125.617188,2230.58594 L125.398438,2231.82812 C125.171875,2233.08594 124.320312,2234.09375 123.023438,2234.09375 Z M130.710938,2235.13281 C131.984375,2235.13281 132.804688,2234.4375 133.085938,2233.875 L133.164062,2233.875 L132.96875,2235 L134.078125,2235 L134.882812,2230.4375 C134.960938,2230.04688 135.03125,2229.59375 135.03125,2229.16406 C135.03125,2227.70312 134.039062,2226.6875 132.1875,2226.6875 C130.46875,2226.6875 129.359375,2227.54688 129.140625,2228.71875 L130.25,2228.71875 C130.429688,2228.17188 131.015625,2227.67188 132.101562,2227.67188 C133.445312,2227.67188 133.945312,2228.46875 133.945312,2229.26562 C133.945312,2229.42188 133.921875,2229.60156 133.90625,2229.69531 L133.820312,2230.24219 L131.546875,2230.24219 C129.46875,2230.24219 128.398438,2231.16406 128.257812,2232.50781 C128.242188,2232.64062 128.242188,2232.76562 128.242188,2232.86719 C128.242188,2234.28906 129.359375,2235.13281 130.710938,2235.13281 Z M130.984375,2234.15625 C129.984375,2234.15625 129.390625,2233.57812 129.390625,2232.75781 C129.390625,2231.89844 130.054688,2231.17969 131.445312,2231.17969 L133.617188,2231.17969 L133.429688,2232.25 C133.226562,2233.36719 132.179688,2234.15625 130.984375,2234.15625 Z M130.453125,2237.54688 C130.90625,2237.54688 131.226562,2237.25 131.226562,2236.80469 C131.226562,2236.36719 130.90625,2236.05469 130.453125,2236.05469 C130.007812,2236.05469 129.6875,2236.36719 129.6875,2236.80469 C129.6875,2237.25 130.007812,2237.54688 130.453125,2237.54688 Z M138.039062,2235 L138.882812,2230.19531 C139.117188,2228.85938 139.953125,2227.65625 141.421875,2227.65625 C142.640625,2227.65625 143.109375,2228.5 143.109375,2229.46094 C143.109375,2229.82031 143.046875,2230.22656 143.007812,2230.44531 L142.203125,2235 L143.34375,2235 L144.140625,2230.51562 C144.210938,2230.10938 144.28125,2229.66406 144.28125,2229.25 C144.28125,2227.91406 143.507812,2226.6875 141.757812,2226.6875 C140.578125,2226.6875 139.734375,2227.25 139.289062,2228.1875 L139.203125,2228.1875 L139.453125,2226.82031 L138.335938,2226.82031 L136.890625,2235 L138.039062,2235 Z M153.171875,2235.13281 C154.8125,2235.13281 156.039062,2234.27344 156.265625,2232.98438 L155.117188,2232.98438 C154.96875,2233.59375 154.296875,2234.125 153.226562,2234.125 C151.835938,2234.125 151.109375,2233.24219 151.109375,2231.75781 C151.109375,2231.5 151.132812,2231.25 151.195312,2230.91406 L151.359375,2229.96875 C151.625,2228.48438 152.539062,2227.65625 153.742188,2227.65625 C155.015625,2227.65625 155.664062,2228.50781 155.664062,2229.25 L155.664062,2229.34375 L155.664062,2229.34375 L156.773438,2229.34375 C156.78125,2229.33594 156.78125,2229.25781 156.78125,2229.24219 C156.78125,2227.875 155.664062,2226.6875 153.75,2226.6875 C151.9375,2226.6875 150.617188,2227.71875 150.28125,2229.67188 L150.078125,2230.84375 C150.007812,2231.25781 149.976562,2231.69531 149.976562,2232.00781 C149.976562,2233.92188 151.25,2235.13281 153.171875,2235.13281 Z M162.804688,2225.46094 L165.5,2222.71875 L164.226562,2222.71875 L161.84375,2225.46094 L162.804688,2225.46094 Z M161.46875,2235.13281 C163.5,2235.13281 164.695312,2233.96875 165.046875,2232.03125 L165.25,2230.91406 C165.3125,2230.57031 165.34375,2230.1875 165.34375,2229.95312 C165.34375,2227.89844 163.96875,2226.6875 162.03125,2226.6875 C160.296875,2226.6875 158.898438,2227.79688 158.554688,2229.76562 L158.367188,2230.875 C158.296875,2231.23438 158.273438,2231.625 158.273438,2232.00781 C158.273438,2233.96875 159.664062,2235.13281 161.46875,2235.13281 Z M161.609375,2234.13281 C160.226562,2234.13281 159.390625,2233.19531 159.390625,2231.82812 C159.390625,2231.46875 159.429688,2231.21094 159.476562,2230.95312 L159.648438,2229.98438 C159.929688,2228.38281 160.859375,2227.6875 162,2227.6875 C163.359375,2227.6875 164.203125,2228.63281 164.203125,2229.94531 C164.203125,2230.0625 164.195312,2230.45312 164.15625,2230.70312 L163.976562,2231.74219 C163.710938,2233.27344 162.867188,2234.13281 161.609375,2234.13281 Z M173.21875,2235.07031 C173.601562,2235.07031 174.09375,2235.02344 174.320312,2234.96875 L174.492188,2234.02344 C174.257812,2234.07031 173.828125,2234.10938 173.484375,2234.10938 C172.773438,2234.10938 172.460938,2233.85156 172.460938,2233.26562 C172.460938,2233.03125 172.5,2232.77344 172.625,2232.05469 L173.375,2227.76562 L175.226562,2227.76562 L175.398438,2226.82031 L173.546875,2226.82031 L173.898438,2224.77344 L172.773438,2224.77344 L172.398438,2226.82031 L171.101562,2226.82031 L170.929688,2227.76562 L172.234375,2227.76562 L171.398438,2232.5 C171.328125,2232.92969 171.28125,2233.29688 171.28125,2233.54688 C171.28125,2234.5625 171.929688,2235.07031 173.21875,2235.07031 Z M177.546875,2235 L178.390625,2230.19531 C178.625,2228.85938 179.476562,2227.65625 180.945312,2227.65625 C182.164062,2227.65625 182.65625,2228.49219 182.65625,2229.45312 C182.65625,2229.80469 182.59375,2230.23438 182.554688,2230.44531 L181.75,2235 L182.898438,2235 L183.6875,2230.51562 C183.757812,2230.10938 183.828125,2229.65625 183.828125,2229.25 C183.828125,2227.89844 182.992188,2226.6875 181.273438,2226.6875 C180.054688,2226.6875 179.210938,2227.28125 178.796875,2228.1875 L178.710938,2228.1875 L179.523438,2223.77344 L178.390625,2223.77344 L176.398438,2235 L177.546875,2235 Z M192.492188,2223.92188 C193.335938,2223.66406 193.867188,2223.0625 193.867188,2222.35156 C193.867188,2221.60938 193.34375,2221.21094 192.359375,2221.21094 C192.148438,2221.21094 191.929688,2221.25 191.789062,2221.29688 L191.671875,2221.96875 C191.835938,2221.90625 192.078125,2221.86719 192.257812,2221.86719 C192.804688,2221.86719 193.085938,2222.0625 193.085938,2222.46094 C193.085938,2222.82812 192.757812,2223.14844 192.1875,2223.32812 L192.492188,2223.92188 Z M188.875,2225.45312 L190.476562,2223.9375 L190.507812,2223.9375 L191.484375,2225.45312 L192.4375,2225.45312 L190.976562,2223.21875 L190.234375,2223.21875 L187.835938,2225.45312 L188.875,2225.45312 Z M188.953125,2235.13281 C190.773438,2235.13281 191.929688,2234.01562 192.117188,2233.01562 L190.976562,2233.01562 C190.8125,2233.57812 190.117188,2234.125 189.023438,2234.125 C187.507812,2234.125 186.9375,2233.07031 186.9375,2231.94531 C186.9375,2231.66406 186.976562,2231.35938 187.023438,2231.17969 L192.453125,2231.17969 C192.46875,2231.10156 192.648438,2230.10938 192.648438,2230.07812 C192.882812,2228.57031 192.140625,2226.6875 189.726562,2226.6875 C187.84375,2226.6875 186.507812,2227.83594 186.1875,2229.66406 L185.976562,2230.82031 C185.921875,2231.10938 185.851562,2231.59375 185.851562,2232.05469 C185.851562,2234.0625 187.164062,2235.13281 188.953125,2235.13281 Z M191.53125,2230.25781 L187.210938,2230.25781 C187.210938,2230.24219 187.320312,2229.72656 187.320312,2229.71094 C187.617188,2228.3125 188.59375,2227.65625 189.6875,2227.65625 C191.117188,2227.65625 191.78125,2228.73438 191.5625,2230.05469 C191.5625,2230.09375 191.539062,2230.23438 191.53125,2230.25781 Z M38.2421875,2252.6875 L39.7421875,2248.32812 L38.6953125,2248.32812 L36.8515625,2252.6875 L38.2421875,2252.6875 Z M41.3046875,2252.6875 L42.8046875,2248.32812 L41.7578125,2248.32812 L39.9140625,2252.6875 L41.3046875,2252.6875 Z M43.9453125,2259 L47.5625,2254.50781 L47.625,2254.51562 L49.859375,2259 L51.1484375,2259 L48.4140625,2253.69531 L53.015625,2248.33594 L51.5859375,2248.33594 L47.84375,2252.77344 L47.78125,2252.76562 L45.65625,2248.33594 L44.3671875,2248.33594 L46.984375,2253.61719 L42.5078125,2259 L43.9453125,2259 Z M57.234375,2249.46094 L59.9296875,2246.71875 L58.65625,2246.71875 L56.2734375,2249.46094 L57.234375,2249.46094 Z M55.3046875,2259.13281 C56.578125,2259.13281 57.3984375,2258.4375 57.6796875,2257.875 L57.7578125,2257.875 L57.5625,2259 L58.671875,2259 L59.4765625,2254.4375 C59.5546875,2254.04688 59.625,2253.59375 59.625,2253.16406 C59.625,2251.70312 58.6328125,2250.6875 56.78125,2250.6875 C55.0625,2250.6875 53.953125,2251.54688 53.734375,2252.71875 L54.84375,2252.71875 C55.0234375,2252.17188 55.609375,2251.67188 56.6953125,2251.67188 C58.0390625,2251.67188 58.5390625,2252.46875 58.5390625,2253.26562 C58.5390625,2253.42188 58.515625,2253.60156 58.5,2253.69531 L58.4140625,2254.24219 L56.140625,2254.24219 C54.0625,2254.24219 52.9921875,2255.16406 52.8515625,2256.50781 C52.8359375,2256.64062 52.8359375,2256.76562 52.8359375,2256.86719 C52.8359375,2258.28906 53.953125,2259.13281 55.3046875,2259.13281 Z M55.578125,2258.15625 C54.578125,2258.15625 53.984375,2257.57812 53.984375,2256.75781 C53.984375,2255.89844 54.6484375,2255.17969 56.0390625,2255.17969 L58.2109375,2255.17969 L58.0234375,2256.25 C57.8203125,2257.36719 56.7734375,2258.15625 55.578125,2258.15625 Z M64.84375,2259.13281 C66.484375,2259.13281 67.7109375,2258.27344 67.9375,2256.98438 L66.7890625,2256.98438 C66.640625,2257.59375 65.96875,2258.125 64.8984375,2258.125 C63.5078125,2258.125 62.78125,2257.24219 62.78125,2255.75781 C62.78125,2255.5 62.8046875,2255.25 62.8671875,2254.91406 L63.03125,2253.96875 C63.296875,2252.48438 64.2109375,2251.65625 65.4140625,2251.65625 C66.6875,2251.65625 67.3359375,2252.50781 67.3359375,2253.25 L67.3359375,2253.34375 L67.3359375,2253.34375 L68.4453125,2253.34375 C68.453125,2253.33594 68.453125,2253.25781 68.453125,2253.24219 C68.453125,2251.875 67.3359375,2250.6875 65.421875,2250.6875 C63.609375,2250.6875 62.2890625,2251.71875 61.953125,2253.67188 L61.75,2254.84375 C61.6796875,2255.25781 61.6484375,2255.69531 61.6484375,2256.00781 C61.6484375,2257.92188 62.921875,2259.13281 64.84375,2259.13281 Z M74.578125,2259 L75.421875,2254.19531 C75.65625,2252.85938 76.4921875,2251.65625 77.9609375,2251.65625 C79.1796875,2251.65625 79.6484375,2252.5 79.6484375,2253.46094 C79.6484375,2253.82031 79.5859375,2254.22656 79.546875,2254.44531 L78.7421875,2259 L79.8828125,2259 L80.6796875,2254.51562 C80.75,2254.10938 80.8203125,2253.66406 80.8203125,2253.25 C80.8203125,2251.91406 80.046875,2250.6875 78.296875,2250.6875 C77.1171875,2250.6875 76.2734375,2251.25 75.828125,2252.1875 L75.7421875,2252.1875 L75.9921875,2250.82031 L74.875,2250.82031 L73.4296875,2259 L74.578125,2259 Z M83.84375,2259 L84.6875,2254.19531 C84.921875,2252.85938 85.7734375,2251.65625 87.2421875,2251.65625 C88.4609375,2251.65625 88.953125,2252.49219 88.953125,2253.45312 C88.953125,2253.80469 88.890625,2254.23438 88.8515625,2254.44531 L88.046875,2259 L89.1953125,2259 L89.984375,2254.51562 C90.0546875,2254.10938 90.125,2253.65625 90.125,2253.25 C90.125,2251.89844 89.2890625,2250.6875 87.5703125,2250.6875 C86.3515625,2250.6875 85.5078125,2251.28125 85.09375,2252.1875 L85.0078125,2252.1875 L85.8203125,2247.77344 L84.6875,2247.77344 L82.6953125,2259 L83.84375,2259 Z M95.0078125,2249.46094 L96.625,2247.29688 L96.6484375,2247.29688 L97.5546875,2249.46094 L98.5546875,2249.46094 L97.2109375,2246.52344 L96.2890625,2246.52344 L93.96875,2249.46094 L95.0078125,2249.46094 Z M94.40625,2259.13281 C95.6796875,2259.13281 96.5,2258.4375 96.78125,2257.875 L96.859375,2257.875 L96.6640625,2259 L97.7734375,2259 L98.578125,2254.4375 C98.65625,2254.04688 98.7265625,2253.59375 98.7265625,2253.16406 C98.7265625,2251.70312 97.734375,2250.6875 95.8828125,2250.6875 C94.1640625,2250.6875 93.0546875,2251.54688 92.8359375,2252.71875 L93.9453125,2252.71875 C94.125,2252.17188 94.7109375,2251.67188 95.796875,2251.67188 C97.140625,2251.67188 97.640625,2252.46875 97.640625,2253.26562 C97.640625,2253.42188 97.6171875,2253.60156 97.6015625,2253.69531 L97.515625,2254.24219 L95.2421875,2254.24219 C93.1640625,2254.24219 92.09375,2255.16406 91.953125,2256.50781 C91.9375,2256.64062 91.9375,2256.76562 91.9375,2256.86719 C91.9375,2258.28906 93.0546875,2259.13281 94.40625,2259.13281 Z M94.6796875,2258.15625 C93.6796875,2258.15625 93.0859375,2257.57812 93.0859375,2256.75781 C93.0859375,2255.89844 93.75,2255.17969 95.140625,2255.17969 L97.3125,2255.17969 L97.125,2256.25 C96.921875,2257.36719 95.875,2258.15625 94.6796875,2258.15625 Z M94.1484375,2261.54688 C94.6015625,2261.54688 94.921875,2261.25 94.921875,2260.80469 C94.921875,2260.36719 94.6015625,2260.05469 94.1484375,2260.05469 C93.703125,2260.05469 93.3828125,2260.36719 93.3828125,2260.80469 C93.3828125,2261.25 93.703125,2261.54688 94.1484375,2261.54688 Z M101.734375,2259 L102.578125,2254.19531 C102.8125,2252.85938 103.648438,2251.65625 105.117188,2251.65625 C106.335938,2251.65625 106.804688,2252.5 106.804688,2253.46094 C106.804688,2253.82031 106.742188,2254.22656 106.703125,2254.44531 L105.898438,2259 L107.039062,2259 L107.835938,2254.51562 C107.90625,2254.10938 107.976562,2253.66406 107.976562,2253.25 C107.976562,2251.91406 107.203125,2250.6875 105.453125,2250.6875 C104.273438,2250.6875 103.429688,2251.25 102.984375,2252.1875 L102.898438,2252.1875 L103.148438,2250.82031 L102.03125,2250.82031 L100.585938,2259 L101.734375,2259 Z M114.765625,2252.6875 L116.609375,2248.32812 L115.21875,2248.32812 L113.71875,2252.6875 L114.765625,2252.6875 Z M111.703125,2252.6875 L113.546875,2248.32812 L112.15625,2248.32812 L110.65625,2252.6875 L111.703125,2252.6875 Z M124.046875,2259.11719 C125.414062,2259.11719 126.195312,2258.25 126.429688,2257.61719 L126.523438,2257.61719 L126.28125,2259 L127.398438,2259 L129.039062,2249.72656 L130.320312,2249.72656 L130.484375,2248.8125 L129.203125,2248.8125 L129.390625,2247.77344 L128.234375,2247.77344 L128.054688,2248.8125 L126.257812,2248.8125 L126.101562,2249.72656 L127.898438,2249.72656 L127.421875,2252.42969 L127.328125,2252.42969 C127.1875,2251.67188 126.296875,2250.6875 124.867188,2250.6875 C122.9375,2250.6875 121.78125,2251.9375 121.476562,2253.54688 L121.1875,2255.07812 C121.125,2255.375 121.109375,2255.73438 121.109375,2256.03906 C121.109375,2257.90625 122.34375,2259.11719 124.046875,2259.11719 Z M124.382812,2258.10938 C123.078125,2258.10938 122.25,2257.26562 122.25,2255.86719 C122.25,2255.59375 122.273438,2255.29688 122.296875,2255.15625 L122.539062,2253.9375 C122.796875,2252.64062 123.585938,2251.66406 124.914062,2251.66406 C125.976562,2251.66406 127.109375,2252.42969 127.109375,2254.03125 C127.109375,2254.10156 127.09375,2254.23438 127.0625,2254.42969 L126.84375,2255.70312 C126.59375,2257.10156 125.703125,2258.10938 124.382812,2258.10938 Z M137.054688,2247.92188 C137.898438,2247.66406 138.429688,2247.0625 138.429688,2246.35156 C138.429688,2245.60938 137.90625,2245.21094 136.921875,2245.21094 C136.710938,2245.21094 136.492188,2245.25 136.351562,2245.29688 L136.234375,2245.96875 C136.398438,2245.90625 136.640625,2245.86719 136.820312,2245.86719 C137.367188,2245.86719 137.648438,2246.0625 137.648438,2246.46094 C137.648438,2246.82812 137.320312,2247.14844 136.75,2247.32812 L137.054688,2247.92188 Z M133.4375,2249.45312 L135.039062,2247.9375 L135.070312,2247.9375 L136.046875,2249.45312 L137,2249.45312 L135.539062,2247.21875 L134.796875,2247.21875 L132.398438,2249.45312 L133.4375,2249.45312 Z M133.515625,2259.13281 C135.335938,2259.13281 136.492188,2258.01562 136.679688,2257.01562 L135.539062,2257.01562 C135.375,2257.57812 134.679688,2258.125 133.585938,2258.125 C132.070312,2258.125 131.5,2257.07031 131.5,2255.94531 C131.5,2255.66406 131.539062,2255.35938 131.585938,2255.17969 L137.015625,2255.17969 C137.03125,2255.10156 137.210938,2254.10938 137.210938,2254.07812 C137.445312,2252.57031 136.703125,2250.6875 134.289062,2250.6875 C132.40625,2250.6875 131.070312,2251.83594 130.75,2253.66406 L130.539062,2254.82031 C130.484375,2255.10938 130.414062,2255.59375 130.414062,2256.05469 C130.414062,2258.0625 131.726562,2259.13281 133.515625,2259.13281 Z M136.09375,2254.25781 L131.773438,2254.25781 C131.773438,2254.24219 131.882812,2253.72656 131.882812,2253.71094 C132.179688,2252.3125 133.15625,2251.65625 134.25,2251.65625 C135.679688,2251.65625 136.34375,2252.73438 136.125,2254.05469 C136.125,2254.09375 136.101562,2254.23438 136.09375,2254.25781 Z M143.570312,2259 L144.179688,2255.54688 L145.3125,2254.64844 L147.59375,2259 L148.867188,2259 L146.210938,2254.03906 L150.226562,2250.82031 L148.632812,2250.82031 L144.507812,2254.17969 L144.429688,2254.17969 L145.546875,2247.77344 L144.40625,2247.77344 L142.429688,2259 L143.570312,2259 Z M158.007812,2248.02344 L160.71875,2245.32031 L159.476562,2245.32031 L157.101562,2248.02344 L158.007812,2248.02344 Z M153.71875,2249.45312 L155.320312,2247.9375 L155.351562,2247.9375 L156.328125,2249.45312 L157.28125,2249.45312 L155.820312,2247.21875 L155.078125,2247.21875 L152.679688,2249.45312 L153.71875,2249.45312 Z M153.796875,2259.13281 C155.617188,2259.13281 156.773438,2258.01562 156.960938,2257.01562 L155.820312,2257.01562 C155.65625,2257.57812 154.960938,2258.125 153.867188,2258.125 C152.351562,2258.125 151.78125,2257.07031 151.78125,2255.94531 C151.78125,2255.66406 151.820312,2255.35938 151.867188,2255.17969 L157.296875,2255.17969 C157.3125,2255.10156 157.492188,2254.10938 157.492188,2254.07812 C157.726562,2252.57031 156.984375,2250.6875 154.570312,2250.6875 C152.6875,2250.6875 151.351562,2251.83594 151.03125,2253.66406 L150.820312,2254.82031 C150.765625,2255.10938 150.695312,2255.59375 150.695312,2256.05469 C150.695312,2258.0625 152.007812,2259.13281 153.796875,2259.13281 Z M156.375,2254.25781 L152.054688,2254.25781 C152.054688,2254.24219 152.164062,2253.72656 152.164062,2253.71094 C152.460938,2252.3125 153.4375,2251.65625 154.53125,2251.65625 C155.960938,2251.65625 156.625,2252.73438 156.40625,2254.05469 C156.40625,2254.09375 156.382812,2254.23438 156.375,2254.25781 Z M161.703125,2259.07031 C162.085938,2259.07031 162.578125,2259.02344 162.804688,2258.96875 L162.976562,2258.02344 C162.742188,2258.07031 162.3125,2258.10938 161.96875,2258.10938 C161.257812,2258.10938 160.945312,2257.85156 160.945312,2257.26562 C160.945312,2257.03125 160.984375,2256.77344 161.109375,2256.05469 L161.859375,2251.76562 L163.710938,2251.76562 L163.882812,2250.82031 L162.03125,2250.82031 L162.382812,2248.77344 L161.257812,2248.77344 L160.882812,2250.82031 L159.585938,2250.82031 L159.414062,2251.76562 L160.71875,2251.76562 L159.882812,2256.5 C159.8125,2256.92969 159.765625,2257.29688 159.765625,2257.54688 C159.765625,2258.5625 160.414062,2259.07031 161.703125,2259.07031 Z M169.6875,2259 L170.53125,2254.19531 C170.765625,2252.85938 171.601562,2251.65625 173.070312,2251.65625 C174.289062,2251.65625 174.757812,2252.5 174.757812,2253.46094 C174.757812,2253.82031 174.695312,2254.22656 174.65625,2254.44531 L173.851562,2259 L174.992188,2259 L175.789062,2254.51562 C175.859375,2254.10938 175.929688,2253.66406 175.929688,2253.25 C175.929688,2251.91406 175.15625,2250.6875 173.40625,2250.6875 C172.226562,2250.6875 171.382812,2251.25 170.9375,2252.1875 L170.851562,2252.1875 L171.101562,2250.82031 L169.984375,2250.82031 L168.539062,2259 L169.6875,2259 Z M185.414062,2248.02344 L188.125,2245.32031 L186.882812,2245.32031 L184.507812,2248.02344 L185.414062,2248.02344 Z M181.125,2249.45312 L182.726562,2247.9375 L182.757812,2247.9375 L183.734375,2249.45312 L184.6875,2249.45312 L183.226562,2247.21875 L182.484375,2247.21875 L180.085938,2249.45312 L181.125,2249.45312 Z M181.171875,2259.13281 C183.203125,2259.13281 184.398438,2257.96875 184.75,2256.03125 L184.953125,2254.91406 C185.015625,2254.57031 185.046875,2254.1875 185.046875,2253.95312 C185.046875,2251.89844 183.671875,2250.6875 181.734375,2250.6875 C180,2250.6875 178.601562,2251.79688 178.257812,2253.76562 L178.070312,2254.875 C178,2255.23438 177.976562,2255.625 177.976562,2256.00781 C177.976562,2257.96875 179.367188,2259.13281 181.171875,2259.13281 Z M181.3125,2258.13281 C179.929688,2258.13281 179.09375,2257.19531 179.09375,2255.82812 C179.09375,2255.46875 179.132812,2255.21094 179.179688,2254.95312 L179.351562,2253.98438 C179.632812,2252.38281 180.5625,2251.6875 181.703125,2251.6875 C183.0625,2251.6875 183.90625,2252.63281 183.90625,2253.94531 C183.90625,2254.0625 183.898438,2254.45312 183.859375,2254.70312 L183.679688,2255.74219 C183.414062,2257.27344 182.570312,2258.13281 181.3125,2258.13281 Z M189.054688,2249.1875 C189.5625,2249.1875 189.9375,2248.82031 189.9375,2248.32812 C189.9375,2247.82812 189.5625,2247.45312 189.054688,2247.45312 C188.578125,2247.45312 188.195312,2247.82812 188.195312,2248.32812 C188.195312,2248.82031 188.578125,2249.1875 189.054688,2249.1875 Z M187.890625,2259 L189.328125,2250.82031 L188.1875,2250.82031 L186.75,2259 L187.890625,2259 Z" id="TrnlmtslcvcchmKtnisdinra.SauybncthXcnhnktni"></path>
            </g>
            <path d="M36.6647564,2606 L36.6647564,2597.44014 L32.4527221,2597.44014 C32.4527221,2595.8838 32.6733524,2594.60681 33.1146132,2593.60915 C33.5558739,2592.6115 34.5587393,2592.09272 36.1232092,2592.05282 L36.1232092,2592.05282 L35.4011461,2589 C32.6332378,2589 30.7578797,2589.86796 29.7750716,2591.60387 C28.7922636,2593.33979 28.2406877,2595.92371 28.1203438,2599.35563 C28.0802292,2600.31338 28.0501433,2601.36092 28.030086,2602.49824 C28.0100287,2603.63556 28,2604.80282 28,2606 L28,2606 L36.6647564,2606 Z M49,2606 L49,2597.44014 L44.7879656,2597.44014 C44.7879656,2595.8838 45.008596,2594.60681 45.4498567,2593.60915 C45.8911175,2592.6115 46.8939828,2592.09272 48.4584527,2592.05282 L48.4584527,2592.05282 L47.7363897,2589 C44.9684814,2589 43.0931232,2589.86796 42.1103152,2591.60387 C41.1275072,2593.33979 40.5759312,2595.92371 40.4555874,2599.35563 C40.4154728,2600.31338 40.3853868,2601.36092 40.3653295,2602.49824 C40.3452722,2603.63556 40.3352436,2604.80282 40.3352436,2606 L40.3352436,2606 L49,2606 Z" id="" fill="#D81B60"></path>
        </g>
    </g>
</svg>