<?xml version="1.0" encoding="UTF-8"?>
<svg width="260px" height="460px" viewBox="0 0 260 460" version="1.1" xmlns="http://www.w3.org/2000/svg" xmlns:xlink="http://www.w3.org/1999/xlink">
    <!-- Generator: Sketch 54.1 (76490) - https://sketchapp.com -->
    <title>slide_re1</title>
    <desc>Created with Sketch.</desc>
    <defs>
        <linearGradient x1="-39.8704324%" y1="61.1879621%" x2="268.816186%" y2="25.7840571%" id="linearGradient-1">
            <stop stop-color="#F50057" offset="0%"></stop>
            <stop stop-color="#AA00FF" offset="100%"></stop>
        </linearGradient>
        <filter x="-8.2%" y="-39.1%" width="116.4%" height="178.3%" filterUnits="objectBoundingBox" id="filter-2">
            <feGaussianBlur stdDeviation="6" in="SourceGraphic"></feGaussianBlur>
        </filter>
        <linearGradient x1="-39.8704324%" y1="305.906127%" x2="268.816186%" y2="-503.899638%" id="linearGradient-3">
            <stop stop-color="#F50057" offset="0%"></stop>
            <stop stop-color="#AA00FF" offset="100%"></stop>
        </linearGradient>
        <text id="text-4" font-family="SFCompactDisplay-Regular, SF Compact Display" font-size="14" font-weight="normal" line-spacing="20" letter-spacing="-0.42" fill="#FFFFFF">
            <tspan x="66.12" y="233">tháng</tspan>
        </text>
        <filter x="-22.1%" y="-27.5%" width="138.2%" height="165.0%" filterUnits="objectBoundingBox" id="filter-5">
            <feOffset dx="-1" dy="1" in="SourceAlpha" result="shadowOffsetOuter1"></feOffset>
            <feGaussianBlur stdDeviation="2" in="shadowOffsetOuter1" result="shadowBlurOuter1"></feGaussianBlur>
            <feColorMatrix values="0 0 0 0 0   0 0 0 0 0   0 0 0 0 0  0 0 0 0.5 0" type="matrix" in="shadowBlurOuter1"></feColorMatrix>
        </filter>
        <path d="M51.472,237.224 C50.6933294,237.224 50.0480026,237.064002 49.536,236.744 C49.0239974,236.423998 48.6400013,235.984003 48.384,235.424 C48.1279987,234.863997 48,234.216004 48,233.48 L48,227.672 C48,226.914663 48.1226654,226.25067 48.368,225.68 C48.6133346,225.10933 48.9919974,224.664002 49.504,224.344 C50.0160026,224.023998 50.671996,223.864 51.472,223.864 C52.2613373,223.864 52.9093308,224.023998 53.416,224.344 C53.9226692,224.664002 54.2986654,225.10933 54.544,225.68 C54.7893346,226.25067 54.912,226.914663 54.912,227.672 L54.912,233.48 C54.912,234.216004 54.7840013,234.863997 54.528,235.424 C54.2719987,235.984003 53.8880026,236.423998 53.376,236.744 C52.8639974,237.064002 52.2293371,237.224 51.472,237.224 Z M51.472,235.048 C51.7600014,235.048 51.9679994,234.957334 52.096,234.776 C52.2240006,234.594666 52.3093331,234.378668 52.352,234.128 C52.3946669,233.877332 52.416,233.645334 52.416,233.432 L52.416,227.72 C52.416,227.485332 52.3973335,227.240001 52.36,226.984 C52.3226665,226.727999 52.2400006,226.506668 52.112,226.32 C51.9839994,226.133332 51.7706682,226.04 51.472,226.04 C51.1733318,226.04 50.957334,226.133332 50.824,226.32 C50.690666,226.506668 50.6053335,226.727999 50.568,226.984 C50.5306665,227.240001 50.512,227.485332 50.512,227.72 L50.512,233.432 C50.512,233.645334 50.5333331,233.877332 50.576,234.128 C50.6186669,234.378668 50.7093326,234.594666 50.848,234.776 C50.9866674,234.957334 51.1946653,235.048 51.472,235.048 Z M59.4235937,237.224 C58.5595894,237.224 57.8742629,237.061335 57.3675937,236.736 C56.8609245,236.410665 56.4955949,235.952003 56.2715937,235.36 C56.0475926,234.767997 55.9355937,234.088004 55.9355937,233.32 L55.9355937,232.856 L58.3995937,232.856 L58.3995937,233.288 C58.4102605,233.704002 58.4449268,234.047999 58.5035937,234.32 C58.5622607,234.592001 58.6662597,234.797333 58.8155937,234.936 C58.9649278,235.074667 59.178259,235.144 59.4555937,235.144 C59.7435952,235.144 59.9569264,235.072001 60.0955937,234.928 C60.2342611,234.783999 60.3302601,234.573335 60.3835937,234.296 C60.4369273,234.018665 60.4635937,233.677335 60.4635937,233.272 C60.4635937,232.62133 60.3675947,232.117335 60.1755937,231.76 C59.9835928,231.402665 59.5995966,231.218667 59.0235937,231.208 L58.5915937,231.208 L58.5915937,229.384 L58.9755937,229.384 C59.5515966,229.384 59.9435927,229.229335 60.1515937,228.92 C60.3595948,228.610665 60.4635937,228.125337 60.4635937,227.464 C60.4635937,226.951997 60.3889278,226.552001 60.2395937,226.264 C60.0902597,225.975999 59.8129291,225.832 59.4075937,225.832 C59.0022584,225.832 58.7355944,225.991998 58.6075937,226.312 C58.4795931,226.632002 58.4102605,227.042664 58.3995937,227.544 L58.3995937,228.12 L55.9355937,228.12 L55.9355937,227.416 C55.9355937,226.658663 56.074259,226.016003 56.3515937,225.488 C56.6289285,224.959997 57.0235912,224.557335 57.5355937,224.28 C58.0475963,224.002665 58.6715901,223.864 59.4075937,223.864 C60.1435974,223.864 60.7729245,223.997332 61.2955937,224.264 C61.818263,224.530668 62.2155924,224.919997 62.4875937,225.432 C62.7595951,225.944003 62.8955937,226.578663 62.8955937,227.336 C62.8955937,228.093337 62.738262,228.722664 62.4235937,229.224 C62.1089255,229.725336 61.7222627,230.045333 61.2635937,230.184 C61.5835953,230.290667 61.8662592,230.466665 62.1115937,230.712 C62.3569283,230.957335 62.5489264,231.285331 62.6875937,231.696 C62.8262611,232.106669 62.8955937,232.615997 62.8955937,233.224 C62.8955937,234.002671 62.7835949,234.69333 62.5595937,235.296 C62.3355926,235.89867 61.9675963,236.370665 61.4555937,236.712 C60.9435912,237.053335 60.2662646,237.224 59.4235937,237.224 Z" id="path-6"></path>
        <filter x="-50.4%" y="-41.2%" width="187.3%" height="197.3%" filterUnits="objectBoundingBox" id="filter-7">
            <feOffset dx="-1" dy="1" in="SourceAlpha" result="shadowOffsetOuter1"></feOffset>
            <feGaussianBlur stdDeviation="2" in="shadowOffsetOuter1" result="shadowBlurOuter1"></feGaussianBlur>
            <feColorMatrix values="0 0 0 0 0   0 0 0 0 0   0 0 0 0 0  0 0 0 0.5 0" type="matrix" in="shadowBlurOuter1"></feColorMatrix>
        </filter>
        <text id="text-8" font-family="SFCompactDisplay-Semibold, SF Compact Display" font-size="26" font-weight="500" line-spacing="26" letter-spacing="-1.56" fill="#FFFFFF">
            <tspan x="20" y="201">Trải nghiệm</tspan>
        </text>
        <filter x="-6.2%" y="-21.2%" width="110.7%" height="153.8%" filterUnits="objectBoundingBox" id="filter-9">
            <feOffset dx="-1" dy="1" in="SourceAlpha" result="shadowOffsetOuter1"></feOffset>
            <feGaussianBlur stdDeviation="2" in="shadowOffsetOuter1" result="shadowBlurOuter1"></feGaussianBlur>
            <feColorMatrix values="0 0 0 0 0   0 0 0 0 0   0 0 0 0 0  0 0 0 0.5 0" type="matrix" in="shadowBlurOuter1"></feColorMatrix>
        </filter>
        <polygon id="path-10" points="33.15625 232.15625 32.9296875 233.09375 20.8125 233.09375 21.0390625 232.15625"></polygon>
        <filter x="-60.8%" y="-546.9%" width="205.3%" height="1393.8%" filterUnits="objectBoundingBox" id="filter-11">
            <feOffset dx="-1" dy="1" in="SourceAlpha" result="shadowOffsetOuter1"></feOffset>
            <feGaussianBlur stdDeviation="2" in="shadowOffsetOuter1" result="shadowBlurOuter1"></feGaussianBlur>
            <feColorMatrix values="0 0 0 0 0   0 0 0 0 0   0 0 0 0 0  0 0 0 0.5 0" type="matrix" in="shadowBlurOuter1"></feColorMatrix>
        </filter>
    </defs>
    <g id="slide_re1" stroke="none" stroke-width="1" fill="none" fill-rule="evenodd">
        <g id="btn" transform="translate(18.000000, 390.000000)">
            <rect id="shadow" fill-opacity="0.5" fill="url(#linearGradient-1)" filter="url(#filter-2)" x="0" y="2" width="220" height="46" rx="4"></rect>
            <rect id="btn.bg" fill="url(#linearGradient-1)" x="2" y="0" width="220" height="46" rx="4"></rect>
            <text id="Đăng-ký" font-family="SFCompactDisplay-Semibold, SF Compact Display" font-size="16" font-weight="500" line-spacing="16" letter-spacing="-0.48" fill="#FFFFFF">
                <tspan x="86" y="28">Đăng ký</tspan>
            </text>
        </g>
        <g id="save" transform="translate(19.020000, 341.136000)">
            <text id="Tiết-kiệm-40%" font-family="SFCompactDisplay-Regular, SF Compact Display" font-size="15" font-weight="normal" line-spacing="20" fill="#4D5B72">
                <tspan x="24.99" y="14.864">Tiết kiệm 40%</tspan>
            </text>
            <path d="M11.3480283,5.73995342 C11.337332,5.74852543 11.3269461,5.757823 11.3169229,5.76784615 L11.2823076,5.76784615 L6.64384586,10.5793846 C6.57461529,10.6486154 6.47076943,10.6486154 6.40153821,10.5793846 L4.49769236,8.53707694 L4.46307707,8.50246153 C4.32461529,8.364 4.11692293,8.364 3.97846179,8.50246153 L3.49384586,8.98707694 C3.42461529,9.05630771 3.39,9.16015382 3.39,9.22938458 C3.39,9.29861541 3.42461529,9.40246153 3.49384586,9.47169229 L3.56307707,9.57553847 L6.26307707,12.4832308 C6.33230764,12.5524615 6.40153821,12.5870769 6.50538471,12.5870769 C6.60923057,12.5870769 6.67846179,12.5524615 6.74769236,12.4832308 L12.1784787,6.84879025 C12.6944473,7.73473895 12.99,8.76485446 12.99,9.864 C12.99,13.1777085 10.3037085,15.864 6.99,15.864 C3.6762915,15.864 0.99,13.1777085 0.99,9.864 C0.99,6.5502915 3.6762915,3.864 6.99,3.864 C8.70636765,3.864 10.2544104,4.58468449 11.3480283,5.73995342 Z" id="check" fill="url(#linearGradient-3)"></path>
        </g>
        <g id="tháng" opacity="0.9" fill="#FFFFFF" fill-opacity="1">
            <use filter="url(#filter-5)" xlink:href="#text-4"></use>
            <use xlink:href="#text-4"></use>
        </g>
        <g id="03" opacity="0.92" fill-rule="nonzero">
            <use fill="black" fill-opacity="1" filter="url(#filter-7)" xlink:href="#path-6"></use>
            <use fill="#FFFFFF" xlink:href="#path-6"></use>
        </g>
        <g id="Trải-nghiệm" fill="#FFFFFF" fill-opacity="1">
            <use filter="url(#filter-9)" xlink:href="#text-8"></use>
            <use xlink:href="#text-8"></use>
        </g>
        <g id="—" opacity="0.92" fill-rule="nonzero">
            <use fill="black" fill-opacity="1" filter="url(#filter-11)" xlink:href="#path-10"></use>
            <use fill="#FFFFFF" xlink:href="#path-10"></use>
        </g>
        <g id="price" transform="translate(20.000000, 303.000000)">
            <path d="M5.04,18.28 C3.906661,18.28 3.040003,18.0733354 2.44,17.66 C1.839997,17.2466646 1.4300011,16.6666704 1.21,15.92 C0.9899989,15.1733296 0.88,14.3 0.88,13.3 L3.86,13.3 C3.86,13.8866696 3.8966663,14.379998 3.97,14.78 C4.0433337,15.180002 4.1766657,15.479999 4.37,15.68 C4.5633343,15.880001 4.8533314,15.9733334 5.24,15.96 C5.6266686,15.9466666 5.9066658,15.8000014 6.08,15.52 C6.2533342,15.2399986 6.3599998,14.8400026 6.4,14.32 C6.4400002,13.7999974 6.46,13.1866702 6.46,12.48 C6.46,11.9066638 6.426667,11.4000022 6.36,10.96 C6.293333,10.5199978 6.1633343,10.1733346 5.97,9.92 C5.7766657,9.6666654 5.480002,9.54 5.08,9.54 C4.7199982,9.54 4.4233345,9.6666654 4.19,9.92 C3.9566655,10.1733346 3.7866672,10.533331 3.68,11 L1.04,11 L1.26,1.8 L8.7,1.8 L8.7,4.46 L3.8,4.46 L3.62,8.04 C3.7800008,7.839999 4.0499981,7.6666674 4.43,7.52 C4.8100019,7.3733326 5.2199978,7.2866668 5.66,7.26 C6.5000042,7.1799996 7.1966639,7.339998 7.75,7.74 C8.3033361,8.140002 8.713332,8.7299961 8.98,9.51 C9.246668,10.2900039 9.38,11.2399944 9.38,12.36 C9.38,13.2133376 9.3266672,14.0033297 9.22,14.73 C9.1133328,15.4566703 8.9066682,16.0833307 8.6,16.61 C8.2933318,17.1366693 7.8533362,17.5466652 7.28,17.84 C6.7066638,18.1333348 5.9600046,18.28 5.04,18.28 Z M14.5194922,18 L14.5194922,14.22 L9.59949219,14.22 L9.59949219,11.8 L13.8194922,1.8 L17.4194922,1.8 L17.4194922,11.86 L18.9794922,11.86 L18.9794922,14.22 L17.4194922,14.22 L17.4194922,18 L14.5194922,18 Z M12.0394922,11.86 L14.5194922,11.86 L14.5194922,4.98 L12.0394922,11.86 Z M23.7849219,18.28 C22.8115837,18.28 22.0049251,18.080002 21.3649219,17.68 C20.7249187,17.279998 20.2449235,16.7300035 19.9249219,16.03 C19.6049203,15.3299965 19.4449219,14.5200046 19.4449219,13.6 L19.4449219,6.34 C19.4449219,5.3933286 19.5982537,4.5633369 19.9049219,3.85 C20.2115901,3.1366631 20.6849187,2.580002 21.3249219,2.18 C21.9649251,1.779998 22.7849169,1.58 23.7849219,1.58 C24.7715935,1.58 25.5815854,1.779998 26.2149219,2.18 C26.8482584,2.580002 27.3182537,3.1366631 27.6249219,3.85 C27.9315901,4.5633369 28.0849219,5.3933286 28.0849219,6.34 L28.0849219,13.6 C28.0849219,14.5200046 27.9249235,15.3299965 27.6049219,16.03 C27.2849203,16.7300035 26.8049251,17.279998 26.1649219,17.68 C25.5249187,18.080002 24.7315933,18.28 23.7849219,18.28 Z M23.7849219,15.56 C24.1449237,15.56 24.4049211,15.4466678 24.5649219,15.22 C24.7249227,14.9933322 24.8315883,14.7233349 24.8849219,14.41 C24.9382555,14.0966651 24.9649219,13.806668 24.9649219,13.54 L24.9649219,6.4 C24.9649219,6.1066652 24.9415888,5.8000016 24.8949219,5.48 C24.848255,5.1599984 24.7449227,4.8833345 24.5849219,4.65 C24.4249211,4.4166655 24.1582571,4.3 23.7849219,4.3 C23.4115867,4.3 23.1415894,4.4166655 22.9749219,4.65 C22.8082544,4.8833345 22.7015888,5.1599984 22.6549219,5.48 C22.608255,5.8000016 22.5849219,6.1066652 22.5849219,6.4 L22.5849219,13.54 C22.5849219,13.806668 22.6115883,14.0966651 22.6649219,14.41 C22.7182555,14.7233349 22.8315877,14.9933322 23.0049219,15.22 C23.1782561,15.4466678 23.4382535,15.56 23.7849219,15.56 Z M29.1444141,18 L29.1444141,15.06 L32.0244141,15.06 L32.0244141,18 L29.1444141,18 Z M37.2859766,18.28 C36.3126384,18.28 35.5059798,18.080002 34.8659766,17.68 C34.2259734,17.279998 33.7459782,16.7300035 33.4259766,16.03 C33.105975,15.3299965 32.9459766,14.5200046 32.9459766,13.6 L32.9459766,6.34 C32.9459766,5.3933286 33.0993084,4.5633369 33.4059766,3.85 C33.7126448,3.1366631 34.1859734,2.580002 34.8259766,2.18 C35.4659798,1.779998 36.2859716,1.58 37.2859766,1.58 C38.2726482,1.58 39.0826401,1.779998 39.7159766,2.18 C40.3493131,2.580002 40.8193084,3.1366631 41.1259766,3.85 C41.4326448,4.5633369 41.5859766,5.3933286 41.5859766,6.34 L41.5859766,13.6 C41.5859766,14.5200046 41.4259782,15.3299965 41.1059766,16.03 C40.785975,16.7300035 40.3059798,17.279998 39.6659766,17.68 C39.0259734,18.080002 38.232648,18.28 37.2859766,18.28 Z M37.2859766,15.56 C37.6459784,15.56 37.9059758,15.4466678 38.0659766,15.22 C38.2259774,14.9933322 38.332643,14.7233349 38.3859766,14.41 C38.4393102,14.0966651 38.4659766,13.806668 38.4659766,13.54 L38.4659766,6.4 C38.4659766,6.1066652 38.4426435,5.8000016 38.3959766,5.48 C38.3493097,5.1599984 38.2459774,4.8833345 38.0859766,4.65 C37.9259758,4.4166655 37.6593118,4.3 37.2859766,4.3 C36.9126414,4.3 36.6426441,4.4166655 36.4759766,4.65 C36.3093091,4.8833345 36.2026435,5.1599984 36.1559766,5.48 C36.1093097,5.8000016 36.0859766,6.1066652 36.0859766,6.4 L36.0859766,13.54 C36.0859766,13.806668 36.112643,14.0966651 36.1659766,14.41 C36.2193102,14.7233349 36.3326424,14.9933322 36.5059766,15.22 C36.6793108,15.4466678 36.9393082,15.56 37.2859766,15.56 Z M47.1454688,18.28 C46.1721306,18.28 45.365472,18.080002 44.7254688,17.68 C44.0854656,17.279998 43.6054704,16.7300035 43.2854688,16.03 C42.9654672,15.3299965 42.8054688,14.5200046 42.8054688,13.6 L42.8054688,6.34 C42.8054688,5.3933286 42.9588006,4.5633369 43.2654688,3.85 C43.572137,3.1366631 44.0454656,2.580002 44.6854688,2.18 C45.325472,1.779998 46.1454638,1.58 47.1454688,1.58 C48.1321404,1.58 48.9421323,1.779998 49.5754688,2.18 C50.2088053,2.580002 50.6788006,3.1366631 50.9854688,3.85 C51.292137,4.5633369 51.4454688,5.3933286 51.4454688,6.34 L51.4454688,13.6 C51.4454688,14.5200046 51.2854704,15.3299965 50.9654688,16.03 C50.6454672,16.7300035 50.165472,17.279998 49.5254688,17.68 C48.8854656,18.080002 48.0921402,18.28 47.1454688,18.28 Z M47.1454688,15.56 C47.5054706,15.56 47.765468,15.4466678 47.9254688,15.22 C48.0854696,14.9933322 48.1921352,14.7233349 48.2454688,14.41 C48.2988024,14.0966651 48.3254688,13.806668 48.3254688,13.54 L48.3254688,6.4 C48.3254688,6.1066652 48.3021357,5.8000016 48.2554688,5.48 C48.2088019,5.1599984 48.1054696,4.8833345 47.9454688,4.65 C47.785468,4.4166655 47.518804,4.3 47.1454688,4.3 C46.7721336,4.3 46.5021363,4.4166655 46.3354688,4.65 C46.1688013,4.8833345 46.0621357,5.1599984 46.0154688,5.48 C45.9688019,5.8000016 45.9454688,6.1066652 45.9454688,6.4 L45.9454688,13.54 C45.9454688,13.806668 45.9721352,14.0966651 46.0254688,14.41 C46.0788024,14.7233349 46.1921346,14.9933322 46.3654688,15.22 C46.538803,15.4466678 46.7988004,15.56 47.1454688,15.56 Z M57.0049609,18.28 C56.0316227,18.28 55.2249641,18.080002 54.5849609,17.68 C53.9449577,17.279998 53.4649625,16.7300035 53.1449609,16.03 C52.8249593,15.3299965 52.6649609,14.5200046 52.6649609,13.6 L52.6649609,6.34 C52.6649609,5.3933286 52.8182927,4.5633369 53.1249609,3.85 C53.4316291,3.1366631 53.9049577,2.580002 54.5449609,2.18 C55.1849641,1.779998 56.0049559,1.58 57.0049609,1.58 C57.9916325,1.58 58.8016244,1.779998 59.4349609,2.18 C60.0682974,2.580002 60.5382927,3.1366631 60.8449609,3.85 C61.1516291,4.5633369 61.3049609,5.3933286 61.3049609,6.34 L61.3049609,13.6 C61.3049609,14.5200046 61.1449625,15.3299965 60.8249609,16.03 C60.5049593,16.7300035 60.0249641,17.279998 59.3849609,17.68 C58.7449577,18.080002 57.9516323,18.28 57.0049609,18.28 Z M57.0049609,15.56 C57.3649627,15.56 57.6249601,15.4466678 57.7849609,15.22 C57.9449617,14.9933322 58.0516273,14.7233349 58.1049609,14.41 C58.1582945,14.0966651 58.1849609,13.806668 58.1849609,13.54 L58.1849609,6.4 C58.1849609,6.1066652 58.1616278,5.8000016 58.1149609,5.48 C58.068294,5.1599984 57.9649617,4.8833345 57.8049609,4.65 C57.6449601,4.4166655 57.3782961,4.3 57.0049609,4.3 C56.6316257,4.3 56.3616284,4.4166655 56.1949609,4.65 C56.0282934,4.8833345 55.9216278,5.1599984 55.8749609,5.48 C55.828294,5.8000016 55.8049609,6.1066652 55.8049609,6.4 L55.8049609,13.54 C55.8049609,13.806668 55.8316273,14.0966651 55.8849609,14.41 C55.9382945,14.7233349 56.0516267,14.9933322 56.2249609,15.22 C56.3982951,15.4466678 56.6582925,15.56 57.0049609,15.56 Z M80.8321484,18 L78.2149609,14.1230469 L78.2051953,14.1230469 L75.6075391,18 L73.7032422,18 L77.2286328,12.8632812 L73.7911328,7.73632812 L75.8028516,7.73632812 L78.3126172,11.6328125 L78.3223828,11.6328125 L80.8321484,7.73632812 L82.7559766,7.73632812 L79.2989453,12.8632812 L82.8341016,18 L80.8321484,18 Z M92.5478516,18.28 C91.5745134,18.28 90.7678548,18.080002 90.1278516,17.68 C89.4878484,17.279998 89.0078532,16.7300035 88.6878516,16.03 C88.36785,15.3299965 88.2078516,14.5200046 88.2078516,13.6 L88.2078516,6.34 C88.2078516,5.3933286 88.3611834,4.5633369 88.6678516,3.85 C88.9745198,3.1366631 89.4478484,2.580002 90.0878516,2.18 C90.7278548,1.779998 91.5478466,1.58 92.5478516,1.58 C93.5345232,1.58 94.3445151,1.779998 94.9778516,2.18 C95.6111881,2.580002 96.0811834,3.1366631 96.3878516,3.85 C96.6945198,4.5633369 96.8478516,5.3933286 96.8478516,6.34 L96.8478516,13.6 C96.8478516,14.5200046 96.6878532,15.3299965 96.3678516,16.03 C96.04785,16.7300035 95.5678548,17.279998 94.9278516,17.68 C94.2878484,18.080002 93.494523,18.28 92.5478516,18.28 Z M92.5478516,15.56 C92.9078534,15.56 93.1678508,15.4466678 93.3278516,15.22 C93.4878524,14.9933322 93.594518,14.7233349 93.6478516,14.41 C93.7011852,14.0966651 93.7278516,13.806668 93.7278516,13.54 L93.7278516,6.4 C93.7278516,6.1066652 93.7045185,5.8000016 93.6578516,5.48 C93.6111847,5.1599984 93.5078524,4.8833345 93.3478516,4.65 C93.1878508,4.4166655 92.9211868,4.3 92.5478516,4.3 C92.1745164,4.3 91.9045191,4.4166655 91.7378516,4.65 C91.5711841,4.8833345 91.4645185,5.1599984 91.4178516,5.48 C91.3711847,5.8000016 91.3478516,6.1066652 91.3478516,6.4 L91.3478516,13.54 C91.3478516,13.806668 91.374518,14.0966651 91.4278516,14.41 C91.4811852,14.7233349 91.5945174,14.9933322 91.7678516,15.22 C91.9411858,15.4466678 92.2011832,15.56 92.5478516,15.56 Z M102.087344,18.28 C101.007338,18.28 100.15068,18.0766687 99.5173438,17.67 C98.8840073,17.2633313 98.4273452,16.6900037 98.1473438,15.95 C97.8673424,15.2099963 97.7273438,14.3600048 97.7273438,13.4 L97.7273438,12.82 L100.807344,12.82 L100.807344,13.36 C100.820677,13.8800026 100.86401,14.3099983 100.937344,14.65 C101.010677,14.9900017 101.140676,15.2466658 101.327344,15.42 C101.514011,15.5933342 101.780675,15.68 102.127344,15.68 C102.487346,15.68 102.75401,15.5900009 102.927344,15.41 C103.100678,15.2299991 103.220677,14.9666684 103.287344,14.62 C103.354011,14.2733316 103.387344,13.8466692 103.387344,13.34 C103.387344,12.5266626 103.267345,11.8966689 103.027344,11.45 C102.787343,11.0033311 102.307347,10.7733334 101.587344,10.76 L101.047344,10.76 L101.047344,8.48 L101.527344,8.48 C102.247347,8.48 102.737342,8.2866686 102.997344,7.9 C103.257345,7.5133314 103.387344,6.9066708 103.387344,6.08 C103.387344,5.4399968 103.294011,4.9400018 103.107344,4.58 C102.920676,4.2199982 102.574013,4.04 102.067344,4.04 C101.560675,4.04 101.227345,4.239998 101.067344,4.64 C100.907343,5.040002 100.820677,5.5533302 100.807344,6.18 L100.807344,6.9 L97.7273438,6.9 L97.7273438,6.02 C97.7273438,5.0733286 97.9006754,4.2700033 98.2473438,3.61 C98.5940122,2.9499967 99.0873406,2.4466684 99.7273438,2.1 C100.367347,1.7533316 101.147339,1.58 102.067344,1.58 C102.987348,1.58 103.774007,1.746665 104.427344,2.08 C105.08068,2.413335 105.577342,2.8999968 105.917344,3.54 C106.257345,4.1800032 106.427344,4.9733286 106.427344,5.92 C106.427344,6.8666714 106.230679,7.6533302 105.837344,8.28 C105.444008,8.9066698 104.96068,9.3066658 104.387344,9.48 C104.787346,9.613334 105.140676,9.8333318 105.447344,10.14 C105.754012,10.4466682 105.99401,10.8566641 106.167344,11.37 C106.340678,11.8833359 106.427344,12.5199962 106.427344,13.28 C106.427344,14.2533382 106.287345,15.1166629 106.007344,15.87 C105.727342,16.6233371 105.267347,17.2133312 104.627344,17.64 C103.987341,18.0666688 103.140682,18.28 102.087344,18.28 Z" id="540.000x03" fill="#8C96A8" fill-rule="nonzero"></path>
            <rect id="Rectangle" fill="#8C96A8" x="0" y="13" width="108" height="1"></rect>
            <path d="M123.16,18.22 C122.159995,18.22 121.360003,18.0633349 120.76,17.75 C120.159997,17.4366651 119.726668,16.9700031 119.46,16.35 C119.193332,15.7299969 119.06,14.9733378 119.06,14.08 L119.06,13.84 L121.98,13.84 C121.98,14.5200034 122.049999,15.026665 122.19,15.36 C122.330001,15.693335 122.659997,15.86 123.18,15.86 C123.500002,15.86 123.746666,15.760001 123.92,15.56 C124.093334,15.359999 124.213333,15.0200024 124.28,14.54 C124.346667,14.0599976 124.38,13.4133374 124.38,12.6 L124.38,10.94 C124.193332,11.2333348 123.920002,11.4599992 123.56,11.62 C123.199998,11.7800008 122.786669,11.8666666 122.32,11.88 C121.453329,11.8933334 120.760003,11.6833355 120.24,11.25 C119.719997,10.8166645 119.350001,10.233337 119.13,9.5 C118.909999,8.766663 118.8,7.9533378 118.8,7.06 C118.8,5.9533278 118.939999,4.9933374 119.22,4.18 C119.500001,3.3666626 119.96333,2.7333356 120.61,2.28 C121.25667,1.8266644 122.106661,1.6 123.16,1.6 C124.186672,1.6 125.019997,1.8166645 125.66,2.25 C126.300003,2.6833355 126.766665,3.2866628 127.06,4.06 C127.353335,4.8333372 127.5,5.7399948 127.5,6.78 L127.5,12.68 C127.5,13.7333386 127.380001,14.6799958 127.14,15.52 C126.899999,16.3600042 126.46667,17.0199976 125.84,17.5 C125.21333,17.9800024 124.320006,18.22 123.16,18.22 Z M123.18,9.52 C123.486668,9.52 123.736666,9.4366675 123.93,9.27 C124.123334,9.1033325 124.273333,8.9400008 124.38,8.78 L124.38,6.2 C124.38,5.7866646 124.346667,5.4066684 124.28,5.06 C124.213333,4.7133316 124.093334,4.4333344 123.92,4.22 C123.746666,4.0066656 123.493335,3.9 123.16,3.9 C122.826665,3.9 122.573334,4.0133322 122.4,4.24 C122.226666,4.4666678 122.11,4.7866646 122.05,5.2 C121.99,5.6133354 121.96,6.1133304 121.96,6.7 C121.96,7.2466694 121.98,7.7333312 122.02,8.16 C122.06,8.5866688 122.163333,8.9199988 122.33,9.16 C122.496668,9.4000012 122.779998,9.52 123.18,9.52 Z M133.046719,18.22 C132.020047,18.22 131.183389,17.9900023 130.536719,17.53 C129.890049,17.0699977 129.41672,16.440004 129.116719,15.64 C128.816717,14.839996 128.666719,13.9266718 128.666719,12.9 L128.666719,7.14 C128.666719,6.0866614 128.790051,5.1400042 129.036719,4.3 C129.283387,3.4599958 129.720049,2.8000024 130.346719,2.32 C130.973389,1.8399976 131.866713,1.6 133.026719,1.6 C134.026724,1.6 134.823382,1.7566651 135.416719,2.07 C136.010055,2.3833349 136.440051,2.8466636 136.706719,3.46 C136.973387,4.0733364 137.106719,4.8266622 137.106719,5.72 C137.106719,5.7600002 137.110052,5.8033331 137.116719,5.85 C137.123385,5.8966669 137.126719,5.9399998 137.126719,5.98 L134.206719,5.98 C134.206719,5.2999966 134.140053,4.793335 134.006719,4.46 C133.873385,4.126665 133.553388,3.96 133.046719,3.96 C132.726717,3.96 132.47672,4.059999 132.296719,4.26 C132.116718,4.460001 131.990052,4.7966643 131.916719,5.27 C131.843385,5.7433357 131.806719,6.3933292 131.806719,7.22 L131.806719,8.88 C131.980053,8.5866652 132.25005,8.3600008 132.616719,8.2 C132.983387,8.0399992 133.406716,7.9533334 133.886719,7.94 C134.740056,7.9133332 135.423383,8.1033313 135.936719,8.51 C136.450055,8.9166687 136.820051,9.4766631 137.046719,10.19 C137.273387,10.9033369 137.386719,11.7066622 137.386719,12.6 C137.386719,13.6933388 137.253387,14.6666624 136.986719,15.52 C136.720051,16.3733376 136.270055,17.0366643 135.636719,17.51 C135.003382,17.9833357 134.140058,18.22 133.046719,18.22 Z M133.086719,15.92 C133.420054,15.92 133.670051,15.8066678 133.836719,15.58 C134.003386,15.3533322 134.116718,15.0333354 134.176719,14.62 C134.236719,14.2066646 134.266719,13.7066696 134.266719,13.12 C134.266719,12.5599972 134.250052,12.0700021 134.216719,11.65 C134.183385,11.2299979 134.080053,10.9000012 133.906719,10.66 C133.733385,10.4199988 133.446721,10.3 133.046719,10.3 C132.860051,10.3 132.683386,10.3366663 132.516719,10.41 C132.350051,10.4833337 132.206719,10.5766661 132.086719,10.69 C131.966718,10.8033339 131.873386,10.9199994 131.806719,11.04 L131.806719,13.62 C131.806719,14.020002 131.843385,14.3966649 131.916719,14.75 C131.990052,15.1033351 132.120051,15.3866656 132.306719,15.6 C132.493386,15.8133344 132.753384,15.92 133.086719,15.92 Z M142.657695,18.28 C141.684357,18.28 140.877699,18.080002 140.237695,17.68 C139.597692,17.279998 139.117697,16.7300035 138.797695,16.03 C138.477694,15.3299965 138.317695,14.5200046 138.317695,13.6 L138.317695,6.34 C138.317695,5.3933286 138.471027,4.5633369 138.777695,3.85 C139.084364,3.1366631 139.557692,2.580002 140.197695,2.18 C140.837699,1.779998 141.65769,1.58 142.657695,1.58 C143.644367,1.58 144.454359,1.779998 145.087695,2.18 C145.721032,2.580002 146.191027,3.1366631 146.497695,3.85 C146.804364,4.5633369 146.957695,5.3933286 146.957695,6.34 L146.957695,13.6 C146.957695,14.5200046 146.797697,15.3299965 146.477695,16.03 C146.157694,16.7300035 145.677699,17.279998 145.037695,17.68 C144.397692,18.080002 143.604367,18.28 142.657695,18.28 Z M142.657695,15.56 C143.017697,15.56 143.277695,15.4466678 143.437695,15.22 C143.597696,14.9933322 143.704362,14.7233349 143.757695,14.41 C143.811029,14.0966651 143.837695,13.806668 143.837695,13.54 L143.837695,6.4 C143.837695,6.1066652 143.814362,5.8000016 143.767695,5.48 C143.721028,5.1599984 143.617696,4.8833345 143.457695,4.65 C143.297695,4.4166655 143.031031,4.3 142.657695,4.3 C142.28436,4.3 142.014363,4.4166655 141.847695,4.65 C141.681028,4.8833345 141.574362,5.1599984 141.527695,5.48 C141.481028,5.8000016 141.457695,6.1066652 141.457695,6.4 L141.457695,13.54 C141.457695,13.806668 141.484362,14.0966651 141.537695,14.41 C141.591029,14.7233349 141.704361,14.9933322 141.877695,15.22 C142.05103,15.4466678 142.311027,15.56 142.657695,15.56 Z M148.017188,18 L148.017188,15.06 L150.897188,15.06 L150.897188,18 L148.017188,18 Z M156.15875,18.28 C155.185412,18.28 154.378753,18.080002 153.73875,17.68 C153.098747,17.279998 152.618752,16.7300035 152.29875,16.03 C151.978748,15.3299965 151.81875,14.5200046 151.81875,13.6 L151.81875,6.34 C151.81875,5.3933286 151.972082,4.5633369 152.27875,3.85 C152.585418,3.1366631 153.058747,2.580002 153.69875,2.18 C154.338753,1.779998 155.158745,1.58 156.15875,1.58 C157.145422,1.58 157.955414,1.779998 158.58875,2.18 C159.222087,2.580002 159.692082,3.1366631 159.99875,3.85 C160.305418,4.5633369 160.45875,5.3933286 160.45875,6.34 L160.45875,13.6 C160.45875,14.5200046 160.298752,15.3299965 159.97875,16.03 C159.658748,16.7300035 159.178753,17.279998 158.53875,17.68 C157.898747,18.080002 157.105421,18.28 156.15875,18.28 Z M156.15875,15.56 C156.518752,15.56 156.778749,15.4466678 156.93875,15.22 C157.098751,14.9933322 157.205416,14.7233349 157.25875,14.41 C157.312084,14.0966651 157.33875,13.806668 157.33875,13.54 L157.33875,6.4 C157.33875,6.1066652 157.315417,5.8000016 157.26875,5.48 C157.222083,5.1599984 157.118751,4.8833345 156.95875,4.65 C156.798749,4.4166655 156.532085,4.3 156.15875,4.3 C155.785415,4.3 155.515418,4.4166655 155.34875,4.65 C155.182083,4.8833345 155.075417,5.1599984 155.02875,5.48 C154.982083,5.8000016 154.95875,6.1066652 154.95875,6.4 L154.95875,13.54 C154.95875,13.806668 154.985416,14.0966651 155.03875,14.41 C155.092084,14.7233349 155.205416,14.9933322 155.37875,15.22 C155.552084,15.4466678 155.812082,15.56 156.15875,15.56 Z M166.018242,18.28 C165.044904,18.28 164.238245,18.080002 163.598242,17.68 C162.958239,17.279998 162.478244,16.7300035 162.158242,16.03 C161.838241,15.3299965 161.678242,14.5200046 161.678242,13.6 L161.678242,6.34 C161.678242,5.3933286 161.831574,4.5633369 162.138242,3.85 C162.44491,3.1366631 162.918239,2.580002 163.558242,2.18 C164.198245,1.779998 165.018237,1.58 166.018242,1.58 C167.004914,1.58 167.814906,1.779998 168.448242,2.18 C169.081579,2.580002 169.551574,3.1366631 169.858242,3.85 C170.16491,4.5633369 170.318242,5.3933286 170.318242,6.34 L170.318242,13.6 C170.318242,14.5200046 170.158244,15.3299965 169.838242,16.03 C169.518241,16.7300035 169.038245,17.279998 168.398242,17.68 C167.758239,18.080002 166.964914,18.28 166.018242,18.28 Z M166.018242,15.56 C166.378244,15.56 166.638241,15.4466678 166.798242,15.22 C166.958243,14.9933322 167.064909,14.7233349 167.118242,14.41 C167.171576,14.0966651 167.198242,13.806668 167.198242,13.54 L167.198242,6.4 C167.198242,6.1066652 167.174909,5.8000016 167.128242,5.48 C167.081575,5.1599984 166.978243,4.8833345 166.818242,4.65 C166.658241,4.4166655 166.391577,4.3 166.018242,4.3 C165.644907,4.3 165.37491,4.4166655 165.208242,4.65 C165.041575,4.8833345 164.934909,5.1599984 164.888242,5.48 C164.841575,5.8000016 164.818242,6.1066652 164.818242,6.4 L164.818242,13.54 C164.818242,13.806668 164.844909,14.0966651 164.898242,14.41 C164.951576,14.7233349 165.064908,14.9933322 165.238242,15.22 C165.411576,15.4466678 165.671574,15.56 166.018242,15.56 Z M175.877734,18.28 C174.904396,18.28 174.097738,18.080002 173.457734,17.68 C172.817731,17.279998 172.337736,16.7300035 172.017734,16.03 C171.697733,15.3299965 171.537734,14.5200046 171.537734,13.6 L171.537734,6.34 C171.537734,5.3933286 171.691066,4.5633369 171.997734,3.85 C172.304403,3.1366631 172.777731,2.580002 173.417734,2.18 C174.057738,1.779998 174.877729,1.58 175.877734,1.58 C176.864406,1.58 177.674398,1.779998 178.307734,2.18 C178.941071,2.580002 179.411066,3.1366631 179.717734,3.85 C180.024403,4.5633369 180.177734,5.3933286 180.177734,6.34 L180.177734,13.6 C180.177734,14.5200046 180.017736,15.3299965 179.697734,16.03 C179.377733,16.7300035 178.897738,17.279998 178.257734,17.68 C177.617731,18.080002 176.824406,18.28 175.877734,18.28 Z M175.877734,15.56 C176.237736,15.56 176.497734,15.4466678 176.657734,15.22 C176.817735,14.9933322 176.924401,14.7233349 176.977734,14.41 C177.031068,14.0966651 177.057734,13.806668 177.057734,13.54 L177.057734,6.4 C177.057734,6.1066652 177.034401,5.8000016 176.987734,5.48 C176.941067,5.1599984 176.837735,4.8833345 176.677734,4.65 C176.517734,4.4166655 176.25107,4.3 175.877734,4.3 C175.504399,4.3 175.234402,4.4166655 175.067734,4.65 C174.901067,4.8833345 174.794401,5.1599984 174.747734,5.48 C174.701067,5.8000016 174.677734,6.1066652 174.677734,6.4 L174.677734,13.54 C174.677734,13.806668 174.704401,14.0966651 174.757734,14.41 C174.811068,14.7233349 174.9244,14.9933322 175.097734,15.22 C175.271069,15.4466678 175.531066,15.56 175.877734,15.56 Z" id="960.000" fill="#343D51" fill-rule="nonzero"></path>
            <path d="M65.7939453,3.73144531 C64.7275391,3.73144531 63.9550781,4.52441406 63.9550781,6.12402344 L63.9550781,6.69140625 C63.9550781,8.29101562 64.7275391,9.08398438 65.8144531,9.08398438 C67.0175781,9.08398438 67.7285156,8.22265625 67.7285156,6.69824219 L67.7285156,6.12402344 C67.7285156,4.67480469 67.0039062,3.73144531 65.7939453,3.73144531 Z M67.7558594,8.91992188 C67.359375,9.65820312 66.59375,10.109375 65.6298828,10.109375 C63.7568359,10.109375 62.7587891,8.73535156 62.7587891,6.73242188 L62.7587891,6.08300781 C62.7587891,4.12792969 63.8183594,2.70605469 65.6298828,2.70605469 C66.5800781,2.70605469 67.3046875,3.17773438 67.6669922,3.81347656 L67.7011719,3.81347656 L67.7011719,1.98828125 L65.8486328,1.98828125 L65.8486328,1.09960938 L67.7148438,1.09960938 L67.7148438,0.176757812 L68.9111328,0.176757812 L68.9111328,1.09960938 L69.7177734,1.09960938 L69.7177734,1.98828125 L68.9179688,1.98828125 L68.9179688,10 L67.7900391,10 L67.7900391,8.91992188 L67.7558594,8.91992188 Z" id="đ" fill="#8C96A8" fill-rule="nonzero"></path>
            <path d="M184.793945,3.73144531 C183.727539,3.73144531 182.955078,4.52441406 182.955078,6.12402344 L182.955078,6.69140625 C182.955078,8.29101562 183.727539,9.08398438 184.814453,9.08398438 C186.017578,9.08398438 186.728516,8.22265625 186.728516,6.69824219 L186.728516,6.12402344 C186.728516,4.67480469 186.003906,3.73144531 184.793945,3.73144531 Z M186.755859,8.91992188 C186.359375,9.65820312 185.59375,10.109375 184.629883,10.109375 C182.756836,10.109375 181.758789,8.73535156 181.758789,6.73242188 L181.758789,6.08300781 C181.758789,4.12792969 182.818359,2.70605469 184.629883,2.70605469 C185.580078,2.70605469 186.304688,3.17773438 186.666992,3.81347656 L186.701172,3.81347656 L186.701172,1.98828125 L184.848633,1.98828125 L184.848633,1.09960938 L186.714844,1.09960938 L186.714844,0.176757812 L187.911133,0.176757812 L187.911133,1.09960938 L188.717773,1.09960938 L188.717773,1.98828125 L187.917969,1.98828125 L187.917969,10 L186.790039,10 L186.790039,8.91992188 L186.755859,8.91992188 Z" id="đ" fill="#343D51" fill-rule="nonzero"></path>
        </g>
    </g>
</svg>