<?xml version="1.0" encoding="UTF-8"?>
<svg width="320px" height="568px" viewBox="0 0 320 568" version="1.1" xmlns="http://www.w3.org/2000/svg" xmlns:xlink="http://www.w3.org/1999/xlink">
    <!-- Generator: Sketch 54.1 (76490) - https://sketchapp.com -->
    <title>slide_finish9</title>
    <desc>Created with Sketch.</desc>
    <defs>
        <linearGradient x1="0%" y1="58.6284786%" x2="139.523584%" y2="35.8305829%" id="linearGradient-1">
            <stop stop-color="#D500F9" offset="0%"></stop>
            <stop stop-color="#651FFF" offset="100%"></stop>
        </linearGradient>
        <filter x="-4.6%" y="-24.0%" width="109.2%" height="148.0%" filterUnits="objectBoundingBox" id="filter-2">
            <feGaussianBlur stdDeviation="4" in="SourceGraphic"></feGaussianBlur>
        </filter>
    </defs>
    <g id="slide_finish9" stroke="none" stroke-width="1" fill="none" fill-rule="evenodd">
        <text id="Lời-tạm-biệt" font-family="SFCompactDisplay-Semibold, SF Compact Display" font-size="24" font-weight="500" letter-spacing="-1.20000005" fill="#343D51">
            <tspan x="30" y="269">Lời tạm biệt</tspan>
        </text>
        <text id="Chanchan-chúc-hai-bạ" font-family="SFCompactDisplay-Regular, SF Compact Display" font-size="15" font-weight="normal" line-spacing="22" fill="#4D5B72">
            <tspan x="30" y="301">Chanchan chúc hai bạn luôn bên nhau. </tspan>
            <tspan x="30" y="323">Chúc cho tình cảm này còn mãi bên bạn </tspan>
            <tspan x="30" y="345">theo năm tháng. Chanchan sẽ nhớ đến </tspan>
            <tspan x="30" y="367">hai bạn.</tspan>
        </text>
        <text id="Nói-lời-tạm-biệt-chư" font-family="Georgia-Italic, Georgia" font-size="14" font-style="italic" font-weight="normal" line-spacing="22" fill="#5D6A80">
            <tspan x="30" y="398">Nói lời tạm biệt chương trình</tspan>
            <tspan x="30" y="420">……………………………………………………………</tspan>
            <tspan x="30" y="442">……………………………………………………………</tspan>
        </text>
        <rect id="Rectangle" fill-opacity="0.3" fill="url(#linearGradient-1)" filter="url(#filter-2)" x="28" y="486" width="260" height="50" rx="5"></rect>
        <rect id="Rectangle" fill="url(#linearGradient-1)" x="30" y="484" width="260" height="50" rx="5"></rect>
        <path d="M260.15,508.5 L260.25,508.65 L264.15,512.85 C264.25,512.95 264.35,513 264.5,513 C264.65,513 264.75,512.95 264.85,512.85 L272.85,504.55 C273.05,504.35 273.05,504.05 272.85,503.85 L272.15,503.15 C271.95,502.95 271.65,502.95 271.45,503.15 L271.4,503.15 L264.7,510.1 C264.6,510.2 264.45,510.2 264.35,510.1 L261.6,507.15 L261.55,507.1 C261.35,506.9 261.05,506.9 260.85,507.1 L260.15,507.8 C260.05,507.9 260,508.05 260,508.15 C260,508.25 260.05,508.4 260.15,508.5 Z" id="check" fill="#FFFFFF" opacity="0.6"></path>
        <text id="Cảm-ơn-Chanchan" opacity="0.92" font-family="SFCompactDisplay-Semibold, SF Compact Display" font-size="16" font-weight="500" line-spacing="16" letter-spacing="-0.48" fill="#FFFFFF">
            <tspan x="98" y="513">Cảm ơn Chanchan</tspan>
        </text>
    </g>
</svg>