<?xml version="1.0" encoding="UTF-8"?>
<svg width="260px" height="460px" viewBox="0 0 260 460" version="1.1" xmlns="http://www.w3.org/2000/svg" xmlns:xlink="http://www.w3.org/1999/xlink">
    <!-- Generator: Sketch 54.1 (76490) - https://sketchapp.com -->
    <title>slide_re2</title>
    <desc>Created with Sketch.</desc>
    <defs>
        <linearGradient x1="-39.8704324%" y1="61.1879621%" x2="268.816186%" y2="25.7840571%" id="linearGradient-1">
            <stop stop-color="#AA00FF" offset="0%"></stop>
            <stop stop-color="#651FFF" offset="100%"></stop>
        </linearGradient>
        <filter x="-8.2%" y="-39.1%" width="116.4%" height="178.3%" filterUnits="objectBoundingBox" id="filter-2">
            <feGaussianBlur stdDeviation="6" in="SourceGraphic"></feGaussianBlur>
        </filter>
        <linearGradient x1="-39.8704324%" y1="305.906127%" x2="268.816186%" y2="-503.899638%" id="linearGradient-3">
            <stop stop-color="#AA00FF" offset="0%"></stop>
            <stop stop-color="#651FFF" offset="100%"></stop>
        </linearGradient>
        <text id="text-4" font-family="SFCompactDisplay-Regular, SF Compact Display" font-size="14" font-weight="normal" line-spacing="20" letter-spacing="-0.42" fill="#FFFFFF">
            <tspan x="18.12" y="13">tháng</tspan>
        </text>
        <filter x="-22.1%" y="-27.5%" width="138.2%" height="165.0%" filterUnits="objectBoundingBox" id="filter-5">
            <feOffset dx="-1" dy="1" in="SourceAlpha" result="shadowOffsetOuter1"></feOffset>
            <feGaussianBlur stdDeviation="2" in="shadowOffsetOuter1" result="shadowBlurOuter1"></feGaussianBlur>
            <feColorMatrix values="0 0 0 0 0   0 0 0 0 0   0 0 0 0 0  0 0 0 0.5 0" type="matrix" in="shadowBlurOuter1"></feColorMatrix>
        </filter>
        <path d="M3.472,17.224 C2.69332944,17.224 2.04800256,17.0640016 1.536,16.744 C1.02399744,16.4239984 0.64000128,15.9840028 0.384,15.424 C0.12799872,14.8639972 -7.63833441e-14,14.2160037 -7.63833441e-14,13.48 L-7.63833441e-14,7.672 C-7.63833441e-14,6.91466288 0.12266544,6.25066952 0.368,5.68 C0.61333456,5.10933048 0.99199744,4.6640016 1.504,4.344 C2.01600256,4.0239984 2.671996,3.864 3.472,3.864 C4.26133728,3.864 4.9093308,4.0239984 5.416,4.344 C5.9226692,4.6640016 6.29866544,5.10933048 6.544,5.68 C6.78933456,6.25066952 6.912,6.91466288 6.912,7.672 L6.912,13.48 C6.912,14.2160037 6.78400128,14.8639972 6.528,15.424 C6.27199872,15.9840028 5.88800256,16.4239984 5.376,16.744 C4.86399744,17.0640016 4.22933712,17.224 3.472,17.224 Z M3.472,15.048 C3.76000144,15.048 3.96799936,14.9573342 4.096,14.776 C4.22400064,14.5946658 4.30933312,14.3786679 4.352,14.128 C4.39466688,13.8773321 4.416,13.6453344 4.416,13.432 L4.416,7.72 C4.416,7.48533216 4.39733352,7.24000128 4.36,6.984 C4.32266648,6.72799872 4.24000064,6.5066676 4.112,6.32 C3.98399936,6.1333324 3.77066816,6.04 3.472,6.04 C3.17333184,6.04 2.957334,6.1333324 2.824,6.32 C2.690666,6.5066676 2.60533352,6.72799872 2.568,6.984 C2.53066648,7.24000128 2.512,7.48533216 2.512,7.72 L2.512,13.432 C2.512,13.6453344 2.53333312,13.8773321 2.576,14.128 C2.61866688,14.3786679 2.70933264,14.5946658 2.848,14.776 C2.98666736,14.9573342 3.19466528,15.048 3.472,15.048 Z M11.6795937,17.176 C10.8582563,17.176 10.1889297,16.9920018 9.67159375,16.624 C9.15425783,16.2559982 8.77559495,15.7520032 8.53559375,15.112 C8.29559255,14.4719968 8.17559375,13.7413374 8.17559375,12.92 L8.17559375,8.312 C8.17559375,7.46932912 8.27425943,6.71200336 8.47159375,6.04 C8.66892807,5.36799664 9.01825791,4.84000192 9.51959375,4.456 C10.0209296,4.07199808 10.7355891,3.88 11.6635937,3.88 C12.4635977,3.88 13.1009247,4.00533208 13.5755937,4.256 C14.0502628,4.50666792 14.3942593,4.87733088 14.6075937,5.368 C14.8209281,5.85866912 14.9275937,6.46132976 14.9275937,7.176 C14.9275937,7.20800016 14.9302604,7.24266648 14.9355937,7.28 C14.9409271,7.31733352 14.9435937,7.35199984 14.9435937,7.384 L12.6075937,7.384 C12.6075937,6.83999728 12.5542609,6.434668 12.4475937,6.168 C12.3409265,5.901332 12.0849291,5.768 11.6795937,5.768 C11.4235925,5.768 11.2235945,5.8479992 11.0795937,6.008 C10.935593,6.1680008 10.8342607,6.43733144 10.7755937,6.816 C10.7169268,7.19466856 10.6875937,7.71466336 10.6875937,8.376 L10.6875937,9.704 C10.8262611,9.46933216 11.0422589,9.28800064 11.3355937,9.16 C11.6289285,9.03199936 11.9675918,8.96266672 12.3515937,8.952 C13.0342638,8.93066656 13.580925,9.08266504 13.9915937,9.408 C14.4022625,9.73333496 14.6982595,10.1813305 14.8795937,10.752 C15.060928,11.3226695 15.1515937,11.9653298 15.1515937,12.68 C15.1515937,13.554671 15.0449281,14.3333299 14.8315937,15.016 C14.6182593,15.6986701 14.2582629,16.2293314 13.7515937,16.608 C13.2449245,16.9866686 12.5542648,17.176 11.6795937,17.176 Z M11.7115937,15.336 C11.9782617,15.336 12.1782597,15.2453342 12.3115937,15.064 C12.4449277,14.8826658 12.5355935,14.6266683 12.5835937,14.296 C12.631594,13.9653317 12.6555937,13.5653357 12.6555937,13.096 C12.6555937,12.6479978 12.6422605,12.2560017 12.6155937,11.92 C12.5889269,11.5839983 12.5062611,11.320001 12.3675937,11.128 C12.2289264,10.935999 11.9995953,10.84 11.6795937,10.84 C11.5302597,10.84 11.3889277,10.869333 11.2555937,10.928 C11.1222597,10.986667 11.0075942,11.0613329 10.9115937,11.152 C10.8155933,11.2426671 10.7409273,11.3359995 10.6875937,11.432 L10.6875937,13.496 C10.6875937,13.8160016 10.7169268,14.1173319 10.7755937,14.4 C10.8342607,14.6826681 10.9382597,14.9093325 11.0875937,15.08 C11.2369278,15.2506675 11.4449257,15.336 11.7115937,15.336 Z" id="path-6"></path>
        <filter x="-49.5%" y="-41.2%" width="185.8%" height="197.3%" filterUnits="objectBoundingBox" id="filter-7">
            <feOffset dx="-1" dy="1" in="SourceAlpha" result="shadowOffsetOuter1"></feOffset>
            <feGaussianBlur stdDeviation="2" in="shadowOffsetOuter1" result="shadowBlurOuter1"></feGaussianBlur>
            <feColorMatrix values="0 0 0 0 0   0 0 0 0 0   0 0 0 0 0  0 0 0 0.5 0" type="matrix" in="shadowBlurOuter1"></feColorMatrix>
        </filter>
        <text id="text-8" font-family="SFCompactDisplay-Semibold, SF Compact Display" font-size="26" font-weight="500" line-spacing="26" letter-spacing="-1.56" fill="#FFFFFF">
            <tspan x="20" y="150">Tin tưởng</tspan>
        </text>
        <filter x="-7.6%" y="-21.2%" width="113.1%" height="153.8%" filterUnits="objectBoundingBox" id="filter-9">
            <feOffset dx="-1" dy="1" in="SourceAlpha" result="shadowOffsetOuter1"></feOffset>
            <feGaussianBlur stdDeviation="2" in="shadowOffsetOuter1" result="shadowBlurOuter1"></feGaussianBlur>
            <feColorMatrix values="0 0 0 0 0   0 0 0 0 0   0 0 0 0 0  0 0 0 0.5 0" type="matrix" in="shadowBlurOuter1"></feColorMatrix>
        </filter>
        <text id="text-10" font-family="SFCompactDisplay-Regular, SF Compact Display" font-size="14" font-weight="normal" line-spacing="18" fill="#FFFFFF">
            <tspan x="20" y="218">Tặng thêm 06 tháng nếu bạn không </tspan>
            <tspan x="20" y="236">hoàn thành chương trình.</tspan>
        </text>
        <filter x="-3.4%" y="-15.3%" width="105.9%" height="136.1%" filterUnits="objectBoundingBox" id="filter-11">
            <feOffset dx="-1" dy="1" in="SourceAlpha" result="shadowOffsetOuter1"></feOffset>
            <feGaussianBlur stdDeviation="2" in="shadowOffsetOuter1" result="shadowBlurOuter1"></feGaussianBlur>
            <feColorMatrix values="0 0 0 0 0   0 0 0 0 0   0 0 0 0 0  0 0 0 0.5 0" type="matrix" in="shadowBlurOuter1"></feColorMatrix>
        </filter>
        <polygon id="path-12" points="33.15625 181.15625 32.9296875 182.09375 20.8125 182.09375 21.0390625 181.15625"></polygon>
        <filter x="-60.8%" y="-546.9%" width="205.3%" height="1393.8%" filterUnits="objectBoundingBox" id="filter-13">
            <feOffset dx="-1" dy="1" in="SourceAlpha" result="shadowOffsetOuter1"></feOffset>
            <feGaussianBlur stdDeviation="2" in="shadowOffsetOuter1" result="shadowBlurOuter1"></feGaussianBlur>
            <feColorMatrix values="0 0 0 0 0   0 0 0 0 0   0 0 0 0 0  0 0 0 0.5 0" type="matrix" in="shadowBlurOuter1"></feColorMatrix>
        </filter>
    </defs>
    <g id="slide_re2" stroke="none" stroke-width="1" fill="none" fill-rule="evenodd">
        <g id="btn" transform="translate(18.000000, 390.000000)">
            <rect id="shadow" fill-opacity="0.5" fill="url(#linearGradient-1)" filter="url(#filter-2)" x="0" y="2" width="220" height="46" rx="4"></rect>
            <rect id="btn.bg" fill="url(#linearGradient-1)" x="2" y="0" width="220" height="46" rx="4"></rect>
            <text id="Đăng-ký" font-family="SFCompactDisplay-Semibold, SF Compact Display" font-size="16" font-weight="500" line-spacing="16" letter-spacing="-0.48" fill="#FFFFFF">
                <tspan x="86" y="28">Đăng ký</tspan>
            </text>
        </g>
        <g id="save" transform="translate(19.020000, 341.136000)">
            <text id="Tiết-kiệm-50%" font-family="SFCompactDisplay-Regular, SF Compact Display" font-size="15" font-weight="normal" line-spacing="20" fill="#4D5B72">
                <tspan x="24.99" y="14.864">Tiết kiệm 50%</tspan>
            </text>
            <path d="M11.3480283,5.73995342 C11.337332,5.74852543 11.3269461,5.757823 11.3169229,5.76784615 L11.2823076,5.76784615 L6.64384586,10.5793846 C6.57461529,10.6486154 6.47076943,10.6486154 6.40153821,10.5793846 L4.49769236,8.53707694 L4.46307707,8.50246153 C4.32461529,8.364 4.11692293,8.364 3.97846179,8.50246153 L3.49384586,8.98707694 C3.42461529,9.05630771 3.39,9.16015382 3.39,9.22938458 C3.39,9.29861541 3.42461529,9.40246153 3.49384586,9.47169229 L3.56307707,9.57553847 L6.26307707,12.4832308 C6.33230764,12.5524615 6.40153821,12.5870769 6.50538471,12.5870769 C6.60923057,12.5870769 6.67846179,12.5524615 6.74769236,12.4832308 L12.1784787,6.84879025 C12.6944473,7.73473895 12.99,8.76485446 12.99,9.864 C12.99,13.1777085 10.3037085,15.864 6.99,15.864 C3.6762915,15.864 0.99,13.1777085 0.99,9.864 C0.99,6.5502915 3.6762915,3.864 6.99,3.864 C8.70636765,3.864 10.2544104,4.58468449 11.3480283,5.73995342 Z" id="check" fill="url(#linearGradient-3)"></path>
        </g>
        <g id="Group" transform="translate(48.000000, 169.000000)">
            <g id="tháng" opacity="0.9" fill="#FFFFFF" fill-opacity="1">
                <use filter="url(#filter-5)" xlink:href="#text-4"></use>
                <use xlink:href="#text-4"></use>
            </g>
            <g id="06" opacity="0.92" fill-rule="nonzero">
                <use fill="black" fill-opacity="1" filter="url(#filter-7)" xlink:href="#path-6"></use>
                <use fill="#FFFFFF" xlink:href="#path-6"></use>
            </g>
        </g>
        <g id="Tin-tưởng" fill="#FFFFFF" fill-opacity="1">
            <use filter="url(#filter-9)" xlink:href="#text-8"></use>
            <use xlink:href="#text-8"></use>
        </g>
        <g id="price" transform="translate(20.000000, 303.000000)">
            <path d="M5.04,18.28 C3.906661,18.28 3.040003,18.0733354 2.44,17.66 C1.839997,17.2466646 1.4300011,16.6666704 1.21,15.92 C0.9899989,15.1733296 0.88,14.3 0.88,13.3 L3.86,13.3 C3.86,13.8866696 3.8966663,14.379998 3.97,14.78 C4.0433337,15.180002 4.1766657,15.479999 4.37,15.68 C4.5633343,15.880001 4.8533314,15.9733334 5.24,15.96 C5.6266686,15.9466666 5.9066658,15.8000014 6.08,15.52 C6.2533342,15.2399986 6.3599998,14.8400026 6.4,14.32 C6.4400002,13.7999974 6.46,13.1866702 6.46,12.48 C6.46,11.9066638 6.426667,11.4000022 6.36,10.96 C6.293333,10.5199978 6.1633343,10.1733346 5.97,9.92 C5.7766657,9.6666654 5.480002,9.54 5.08,9.54 C4.7199982,9.54 4.4233345,9.6666654 4.19,9.92 C3.9566655,10.1733346 3.7866672,10.533331 3.68,11 L1.04,11 L1.26,1.8 L8.7,1.8 L8.7,4.46 L3.8,4.46 L3.62,8.04 C3.7800008,7.839999 4.0499981,7.6666674 4.43,7.52 C4.8100019,7.3733326 5.2199978,7.2866668 5.66,7.26 C6.5000042,7.1799996 7.1966639,7.339998 7.75,7.74 C8.3033361,8.140002 8.713332,8.7299961 8.98,9.51 C9.246668,10.2900039 9.38,11.2399944 9.38,12.36 C9.38,13.2133376 9.3266672,14.0033297 9.22,14.73 C9.1133328,15.4566703 8.9066682,16.0833307 8.6,16.61 C8.2933318,17.1366693 7.8533362,17.5466652 7.28,17.84 C6.7066638,18.1333348 5.9600046,18.28 5.04,18.28 Z M14.5194922,18 L14.5194922,14.22 L9.59949219,14.22 L9.59949219,11.8 L13.8194922,1.8 L17.4194922,1.8 L17.4194922,11.86 L18.9794922,11.86 L18.9794922,14.22 L17.4194922,14.22 L17.4194922,18 L14.5194922,18 Z M12.0394922,11.86 L14.5194922,11.86 L14.5194922,4.98 L12.0394922,11.86 Z M23.7849219,18.28 C22.8115837,18.28 22.0049251,18.080002 21.3649219,17.68 C20.7249187,17.279998 20.2449235,16.7300035 19.9249219,16.03 C19.6049203,15.3299965 19.4449219,14.5200046 19.4449219,13.6 L19.4449219,6.34 C19.4449219,5.3933286 19.5982537,4.5633369 19.9049219,3.85 C20.2115901,3.1366631 20.6849187,2.580002 21.3249219,2.18 C21.9649251,1.779998 22.7849169,1.58 23.7849219,1.58 C24.7715935,1.58 25.5815854,1.779998 26.2149219,2.18 C26.8482584,2.580002 27.3182537,3.1366631 27.6249219,3.85 C27.9315901,4.5633369 28.0849219,5.3933286 28.0849219,6.34 L28.0849219,13.6 C28.0849219,14.5200046 27.9249235,15.3299965 27.6049219,16.03 C27.2849203,16.7300035 26.8049251,17.279998 26.1649219,17.68 C25.5249187,18.080002 24.7315933,18.28 23.7849219,18.28 Z M23.7849219,15.56 C24.1449237,15.56 24.4049211,15.4466678 24.5649219,15.22 C24.7249227,14.9933322 24.8315883,14.7233349 24.8849219,14.41 C24.9382555,14.0966651 24.9649219,13.806668 24.9649219,13.54 L24.9649219,6.4 C24.9649219,6.1066652 24.9415888,5.8000016 24.8949219,5.48 C24.848255,5.1599984 24.7449227,4.8833345 24.5849219,4.65 C24.4249211,4.4166655 24.1582571,4.3 23.7849219,4.3 C23.4115867,4.3 23.1415894,4.4166655 22.9749219,4.65 C22.8082544,4.8833345 22.7015888,5.1599984 22.6549219,5.48 C22.608255,5.8000016 22.5849219,6.1066652 22.5849219,6.4 L22.5849219,13.54 C22.5849219,13.806668 22.6115883,14.0966651 22.6649219,14.41 C22.7182555,14.7233349 22.8315877,14.9933322 23.0049219,15.22 C23.1782561,15.4466678 23.4382535,15.56 23.7849219,15.56 Z M29.1444141,18 L29.1444141,15.06 L32.0244141,15.06 L32.0244141,18 L29.1444141,18 Z M37.2859766,18.28 C36.3126384,18.28 35.5059798,18.080002 34.8659766,17.68 C34.2259734,17.279998 33.7459782,16.7300035 33.4259766,16.03 C33.105975,15.3299965 32.9459766,14.5200046 32.9459766,13.6 L32.9459766,6.34 C32.9459766,5.3933286 33.0993084,4.5633369 33.4059766,3.85 C33.7126448,3.1366631 34.1859734,2.580002 34.8259766,2.18 C35.4659798,1.779998 36.2859716,1.58 37.2859766,1.58 C38.2726482,1.58 39.0826401,1.779998 39.7159766,2.18 C40.3493131,2.580002 40.8193084,3.1366631 41.1259766,3.85 C41.4326448,4.5633369 41.5859766,5.3933286 41.5859766,6.34 L41.5859766,13.6 C41.5859766,14.5200046 41.4259782,15.3299965 41.1059766,16.03 C40.785975,16.7300035 40.3059798,17.279998 39.6659766,17.68 C39.0259734,18.080002 38.232648,18.28 37.2859766,18.28 Z M37.2859766,15.56 C37.6459784,15.56 37.9059758,15.4466678 38.0659766,15.22 C38.2259774,14.9933322 38.332643,14.7233349 38.3859766,14.41 C38.4393102,14.0966651 38.4659766,13.806668 38.4659766,13.54 L38.4659766,6.4 C38.4659766,6.1066652 38.4426435,5.8000016 38.3959766,5.48 C38.3493097,5.1599984 38.2459774,4.8833345 38.0859766,4.65 C37.9259758,4.4166655 37.6593118,4.3 37.2859766,4.3 C36.9126414,4.3 36.6426441,4.4166655 36.4759766,4.65 C36.3093091,4.8833345 36.2026435,5.1599984 36.1559766,5.48 C36.1093097,5.8000016 36.0859766,6.1066652 36.0859766,6.4 L36.0859766,13.54 C36.0859766,13.806668 36.112643,14.0966651 36.1659766,14.41 C36.2193102,14.7233349 36.3326424,14.9933322 36.5059766,15.22 C36.6793108,15.4466678 36.9393082,15.56 37.2859766,15.56 Z M47.1454688,18.28 C46.1721306,18.28 45.365472,18.080002 44.7254688,17.68 C44.0854656,17.279998 43.6054704,16.7300035 43.2854688,16.03 C42.9654672,15.3299965 42.8054688,14.5200046 42.8054688,13.6 L42.8054688,6.34 C42.8054688,5.3933286 42.9588006,4.5633369 43.2654688,3.85 C43.572137,3.1366631 44.0454656,2.580002 44.6854688,2.18 C45.325472,1.779998 46.1454638,1.58 47.1454688,1.58 C48.1321404,1.58 48.9421323,1.779998 49.5754688,2.18 C50.2088053,2.580002 50.6788006,3.1366631 50.9854688,3.85 C51.292137,4.5633369 51.4454688,5.3933286 51.4454688,6.34 L51.4454688,13.6 C51.4454688,14.5200046 51.2854704,15.3299965 50.9654688,16.03 C50.6454672,16.7300035 50.165472,17.279998 49.5254688,17.68 C48.8854656,18.080002 48.0921402,18.28 47.1454688,18.28 Z M47.1454688,15.56 C47.5054706,15.56 47.765468,15.4466678 47.9254688,15.22 C48.0854696,14.9933322 48.1921352,14.7233349 48.2454688,14.41 C48.2988024,14.0966651 48.3254688,13.806668 48.3254688,13.54 L48.3254688,6.4 C48.3254688,6.1066652 48.3021357,5.8000016 48.2554688,5.48 C48.2088019,5.1599984 48.1054696,4.8833345 47.9454688,4.65 C47.785468,4.4166655 47.518804,4.3 47.1454688,4.3 C46.7721336,4.3 46.5021363,4.4166655 46.3354688,4.65 C46.1688013,4.8833345 46.0621357,5.1599984 46.0154688,5.48 C45.9688019,5.8000016 45.9454688,6.1066652 45.9454688,6.4 L45.9454688,13.54 C45.9454688,13.806668 45.9721352,14.0966651 46.0254688,14.41 C46.0788024,14.7233349 46.1921346,14.9933322 46.3654688,15.22 C46.538803,15.4466678 46.7988004,15.56 47.1454688,15.56 Z M57.0049609,18.28 C56.0316227,18.28 55.2249641,18.080002 54.5849609,17.68 C53.9449577,17.279998 53.4649625,16.7300035 53.1449609,16.03 C52.8249593,15.3299965 52.6649609,14.5200046 52.6649609,13.6 L52.6649609,6.34 C52.6649609,5.3933286 52.8182927,4.5633369 53.1249609,3.85 C53.4316291,3.1366631 53.9049577,2.580002 54.5449609,2.18 C55.1849641,1.779998 56.0049559,1.58 57.0049609,1.58 C57.9916325,1.58 58.8016244,1.779998 59.4349609,2.18 C60.0682974,2.580002 60.5382927,3.1366631 60.8449609,3.85 C61.1516291,4.5633369 61.3049609,5.3933286 61.3049609,6.34 L61.3049609,13.6 C61.3049609,14.5200046 61.1449625,15.3299965 60.8249609,16.03 C60.5049593,16.7300035 60.0249641,17.279998 59.3849609,17.68 C58.7449577,18.080002 57.9516323,18.28 57.0049609,18.28 Z M57.0049609,15.56 C57.3649627,15.56 57.6249601,15.4466678 57.7849609,15.22 C57.9449617,14.9933322 58.0516273,14.7233349 58.1049609,14.41 C58.1582945,14.0966651 58.1849609,13.806668 58.1849609,13.54 L58.1849609,6.4 C58.1849609,6.1066652 58.1616278,5.8000016 58.1149609,5.48 C58.068294,5.1599984 57.9649617,4.8833345 57.8049609,4.65 C57.6449601,4.4166655 57.3782961,4.3 57.0049609,4.3 C56.6316257,4.3 56.3616284,4.4166655 56.1949609,4.65 C56.0282934,4.8833345 55.9216278,5.1599984 55.8749609,5.48 C55.828294,5.8000016 55.8049609,6.1066652 55.8049609,6.4 L55.8049609,13.54 C55.8049609,13.806668 55.8316273,14.0966651 55.8849609,14.41 C55.9382945,14.7233349 56.0516267,14.9933322 56.2249609,15.22 C56.3982951,15.4466678 56.6582925,15.56 57.0049609,15.56 Z M80.8321484,18 L78.2149609,14.1230469 L78.2051953,14.1230469 L75.6075391,18 L73.7032422,18 L77.2286328,12.8632812 L73.7911328,7.73632812 L75.8028516,7.73632812 L78.3126172,11.6328125 L78.3223828,11.6328125 L80.8321484,7.73632812 L82.7559766,7.73632812 L79.2989453,12.8632812 L82.8341016,18 L80.8321484,18 Z M92.5478516,18.28 C91.5745134,18.28 90.7678548,18.080002 90.1278516,17.68 C89.4878484,17.279998 89.0078532,16.7300035 88.6878516,16.03 C88.36785,15.3299965 88.2078516,14.5200046 88.2078516,13.6 L88.2078516,6.34 C88.2078516,5.3933286 88.3611834,4.5633369 88.6678516,3.85 C88.9745198,3.1366631 89.4478484,2.580002 90.0878516,2.18 C90.7278548,1.779998 91.5478466,1.58 92.5478516,1.58 C93.5345232,1.58 94.3445151,1.779998 94.9778516,2.18 C95.6111881,2.580002 96.0811834,3.1366631 96.3878516,3.85 C96.6945198,4.5633369 96.8478516,5.3933286 96.8478516,6.34 L96.8478516,13.6 C96.8478516,14.5200046 96.6878532,15.3299965 96.3678516,16.03 C96.04785,16.7300035 95.5678548,17.279998 94.9278516,17.68 C94.2878484,18.080002 93.494523,18.28 92.5478516,18.28 Z M92.5478516,15.56 C92.9078534,15.56 93.1678508,15.4466678 93.3278516,15.22 C93.4878524,14.9933322 93.594518,14.7233349 93.6478516,14.41 C93.7011852,14.0966651 93.7278516,13.806668 93.7278516,13.54 L93.7278516,6.4 C93.7278516,6.1066652 93.7045185,5.8000016 93.6578516,5.48 C93.6111847,5.1599984 93.5078524,4.8833345 93.3478516,4.65 C93.1878508,4.4166655 92.9211868,4.3 92.5478516,4.3 C92.1745164,4.3 91.9045191,4.4166655 91.7378516,4.65 C91.5711841,4.8833345 91.4645185,5.1599984 91.4178516,5.48 C91.3711847,5.8000016 91.3478516,6.1066652 91.3478516,6.4 L91.3478516,13.54 C91.3478516,13.806668 91.374518,14.0966651 91.4278516,14.41 C91.4811852,14.7233349 91.5945174,14.9933322 91.7678516,15.22 C91.9411858,15.4466678 92.2011832,15.56 92.5478516,15.56 Z M102.407344,18.22 C101.380672,18.22 100.544014,17.9900023 99.8973438,17.53 C99.2506739,17.0699977 98.7773453,16.440004 98.4773438,15.64 C98.1773423,14.839996 98.0273438,13.9266718 98.0273438,12.9 L98.0273438,7.14 C98.0273438,6.0866614 98.1506759,5.1400042 98.3973438,4.3 C98.6440117,3.4599958 99.080674,2.8000024 99.7073438,2.32 C100.334014,1.8399976 101.227338,1.6 102.387344,1.6 C103.387349,1.6 104.184007,1.7566651 104.777344,2.07 C105.37068,2.3833349 105.800676,2.8466636 106.067344,3.46 C106.334012,4.0733364 106.467344,4.8266622 106.467344,5.72 C106.467344,5.7600002 106.470677,5.8033331 106.477344,5.85 C106.48401,5.8966669 106.487344,5.9399998 106.487344,5.98 L103.567344,5.98 C103.567344,5.2999966 103.500678,4.793335 103.367344,4.46 C103.23401,4.126665 102.914013,3.96 102.407344,3.96 C102.087342,3.96 101.837345,4.059999 101.657344,4.26 C101.477343,4.460001 101.350677,4.7966643 101.277344,5.27 C101.20401,5.7433357 101.167344,6.3933292 101.167344,7.22 L101.167344,8.88 C101.340678,8.5866652 101.610675,8.3600008 101.977344,8.2 C102.344012,8.0399992 102.767341,7.9533334 103.247344,7.94 C104.100681,7.9133332 104.784008,8.1033313 105.297344,8.51 C105.81068,8.9166687 106.180676,9.4766631 106.407344,10.19 C106.634012,10.9033369 106.747344,11.7066622 106.747344,12.6 C106.747344,13.6933388 106.614012,14.6666624 106.347344,15.52 C106.080676,16.3733376 105.63068,17.0366643 104.997344,17.51 C104.364007,17.9833357 103.500683,18.22 102.407344,18.22 Z M102.447344,15.92 C102.780679,15.92 103.030676,15.8066678 103.197344,15.58 C103.364011,15.3533322 103.477343,15.0333354 103.537344,14.62 C103.597344,14.2066646 103.627344,13.7066696 103.627344,13.12 C103.627344,12.5599972 103.610677,12.0700021 103.577344,11.65 C103.54401,11.2299979 103.440678,10.9000012 103.267344,10.66 C103.09401,10.4199988 102.807346,10.3 102.407344,10.3 C102.220676,10.3 102.044011,10.3366663 101.877344,10.41 C101.710676,10.4833337 101.567344,10.5766661 101.447344,10.69 C101.327343,10.8033339 101.234011,10.9199994 101.167344,11.04 L101.167344,13.62 C101.167344,14.020002 101.20401,14.3966649 101.277344,14.75 C101.350677,15.1033351 101.480676,15.3866656 101.667344,15.6 C101.854011,15.8133344 102.114009,15.92 102.447344,15.92 Z" id="540.000x06" fill="#8C96A8" fill-rule="nonzero"></path>
            <rect id="Rectangle" fill="#8C96A8" x="0" y="13" width="108" height="1"></rect>
            <path d="M120.82,18 L120.82,5 C120.699999,5.066667 120.536668,5.1366663 120.33,5.21 C120.123332,5.2833337 119.900001,5.3633329 119.66,5.45 C119.419999,5.5366671 119.193334,5.6166663 118.98,5.69 C118.766666,5.7633337 118.600001,5.8266664 118.48,5.88 L118.48,3.6 C118.640001,3.5199996 118.856665,3.413334 119.13,3.28 C119.403335,3.146666 119.693332,3.0000008 120,2.84 C120.306668,2.6799992 120.596665,2.5066676 120.87,2.32 C121.143335,2.1333324 121.353333,1.9600008 121.5,1.8 L123.9,1.8 L123.9,18 L120.82,18 Z M125.749805,18 L125.749805,15.06 L128.629805,15.06 L128.629805,18 L125.749805,18 Z M133.891367,18.22 C132.864695,18.22 132.028037,17.9900023 131.381367,17.53 C130.734697,17.0699977 130.261369,16.440004 129.961367,15.64 C129.661366,14.839996 129.511367,13.9266718 129.511367,12.9 L129.511367,7.14 C129.511367,6.0866614 129.634699,5.1400042 129.881367,4.3 C130.128035,3.4599958 130.564697,2.8000024 131.191367,2.32 C131.818037,1.8399976 132.711361,1.6 133.871367,1.6 C134.871372,1.6 135.668031,1.7566651 136.261367,2.07 C136.854703,2.3833349 137.284699,2.8466636 137.551367,3.46 C137.818035,4.0733364 137.951367,4.8266622 137.951367,5.72 C137.951367,5.7600002 137.9547,5.8033331 137.961367,5.85 C137.968034,5.8966669 137.971367,5.9399998 137.971367,5.98 L135.051367,5.98 C135.051367,5.2999966 134.984701,4.793335 134.851367,4.46 C134.718033,4.126665 134.398036,3.96 133.891367,3.96 C133.571366,3.96 133.321368,4.059999 133.141367,4.26 C132.961366,4.460001 132.834701,4.7966643 132.761367,5.27 C132.688033,5.7433357 132.651367,6.3933292 132.651367,7.22 L132.651367,8.88 C132.824701,8.5866652 133.094699,8.3600008 133.461367,8.2 C133.828036,8.0399992 134.251365,7.9533334 134.731367,7.94 C135.584705,7.9133332 136.268031,8.1033313 136.781367,8.51 C137.294703,8.9166687 137.664699,9.4766631 137.891367,10.19 C138.118035,10.9033369 138.231367,11.7066622 138.231367,12.6 C138.231367,13.6933388 138.098035,14.6666624 137.831367,15.52 C137.564699,16.3733376 137.114704,17.0366643 136.481367,17.51 C135.848031,17.9833357 134.984706,18.22 133.891367,18.22 Z M133.931367,15.92 C134.264702,15.92 134.5147,15.8066678 134.681367,15.58 C134.848035,15.3533322 134.961367,15.0333354 135.021367,14.62 C135.081367,14.2066646 135.111367,13.7066696 135.111367,13.12 C135.111367,12.5599972 135.094701,12.0700021 135.061367,11.65 C135.028034,11.2299979 134.924701,10.9000012 134.751367,10.66 C134.578033,10.4199988 134.291369,10.3 133.891367,10.3 C133.7047,10.3 133.528035,10.3366663 133.361367,10.41 C133.1947,10.4833337 133.051368,10.5766661 132.931367,10.69 C132.811367,10.8033339 132.718034,10.9199994 132.651367,11.04 L132.651367,13.62 C132.651367,14.020002 132.688033,14.3966649 132.761367,14.75 C132.834701,15.1033351 132.9647,15.3866656 133.151367,15.6 C133.338035,15.8133344 133.598032,15.92 133.931367,15.92 Z M138.762344,18 L138.762344,15.82 L142.702344,9.76 C142.995679,9.3066644 143.272342,8.8733354 143.532344,8.46 C143.792345,8.0466646 144.005676,7.6233355 144.172344,7.19 C144.339011,6.7566645 144.422344,6.2933358 144.422344,5.8 C144.422344,5.2799974 144.322345,4.8833347 144.122344,4.61 C143.922343,4.3366653 143.635679,4.2 143.262344,4.2 C142.862342,4.2 142.555678,4.3099989 142.342344,4.53 C142.129009,4.7500011 141.982344,5.0399982 141.902344,5.4 C141.822343,5.7600018 141.782344,6.1533312 141.782344,6.58 L141.782344,7.34 L138.762344,7.34 L138.762344,6.54 C138.762344,5.5799952 138.912342,4.7266704 139.212344,3.98 C139.512345,3.2333296 139.985674,2.6500021 140.632344,2.23 C141.279014,1.8099979 142.129005,1.6 143.182344,1.6 C144.609018,1.6 145.68234,1.9733296 146.402344,2.72 C147.122347,3.4666704 147.482344,4.5133266 147.482344,5.86 C147.482344,6.5133366 147.382345,7.1166639 147.182344,7.67 C146.982343,8.2233361 146.719012,8.7566641 146.392344,9.27 C146.065675,9.7833359 145.715679,10.3133306 145.342344,10.86 L142.222344,15.56 L147.042344,15.56 L147.042344,18 L138.762344,18 Z M152.509063,18.28 C151.535724,18.28 150.729066,18.080002 150.089063,17.68 C149.449059,17.279998 148.969064,16.7300035 148.649063,16.03 C148.329061,15.3299965 148.169062,14.5200046 148.169062,13.6 L148.169062,6.34 C148.169062,5.3933286 148.322394,4.5633369 148.629063,3.85 C148.935731,3.1366631 149.409059,2.580002 150.049062,2.18 C150.689066,1.779998 151.509057,1.58 152.509063,1.58 C153.495734,1.58 154.305726,1.779998 154.939063,2.18 C155.572399,2.580002 156.042394,3.1366631 156.349063,3.85 C156.655731,4.5633369 156.809063,5.3933286 156.809063,6.34 L156.809063,13.6 C156.809063,14.5200046 156.649064,15.3299965 156.329063,16.03 C156.009061,16.7300035 155.529066,17.279998 154.889063,17.68 C154.249059,18.080002 153.455734,18.28 152.509063,18.28 Z M152.509063,15.56 C152.869064,15.56 153.129062,15.4466678 153.289062,15.22 C153.449063,14.9933322 153.555729,14.7233349 153.609062,14.41 C153.662396,14.0966651 153.689063,13.806668 153.689063,13.54 L153.689063,6.4 C153.689063,6.1066652 153.665729,5.8000016 153.619062,5.48 C153.572396,5.1599984 153.469063,4.8833345 153.309063,4.65 C153.149062,4.4166655 152.882398,4.3 152.509063,4.3 C152.135727,4.3 151.86573,4.4166655 151.699063,4.65 C151.532395,4.8833345 151.425729,5.1599984 151.379063,5.48 C151.332396,5.8000016 151.309063,6.1066652 151.309063,6.4 L151.309063,13.54 C151.309063,13.806668 151.335729,14.0966651 151.389063,14.41 C151.442396,14.7233349 151.555728,14.9933322 151.729062,15.22 C151.902397,15.4466678 152.162394,15.56 152.509063,15.56 Z M157.868555,18 L157.868555,15.06 L160.748555,15.06 L160.748555,18 L157.868555,18 Z M166.010117,18.28 C165.036779,18.28 164.23012,18.080002 163.590117,17.68 C162.950114,17.279998 162.470119,16.7300035 162.150117,16.03 C161.830116,15.3299965 161.670117,14.5200046 161.670117,13.6 L161.670117,6.34 C161.670117,5.3933286 161.823449,4.5633369 162.130117,3.85 C162.436785,3.1366631 162.910114,2.580002 163.550117,2.18 C164.19012,1.779998 165.010112,1.58 166.010117,1.58 C166.996789,1.58 167.806781,1.779998 168.440117,2.18 C169.073454,2.580002 169.543449,3.1366631 169.850117,3.85 C170.156785,4.5633369 170.310117,5.3933286 170.310117,6.34 L170.310117,13.6 C170.310117,14.5200046 170.150119,15.3299965 169.830117,16.03 C169.510116,16.7300035 169.03012,17.279998 168.390117,17.68 C167.750114,18.080002 166.956789,18.28 166.010117,18.28 Z M166.010117,15.56 C166.370119,15.56 166.630116,15.4466678 166.790117,15.22 C166.950118,14.9933322 167.056784,14.7233349 167.110117,14.41 C167.163451,14.0966651 167.190117,13.806668 167.190117,13.54 L167.190117,6.4 C167.190117,6.1066652 167.166784,5.8000016 167.120117,5.48 C167.07345,5.1599984 166.970118,4.8833345 166.810117,4.65 C166.650116,4.4166655 166.383452,4.3 166.010117,4.3 C165.636782,4.3 165.366785,4.4166655 165.200117,4.65 C165.03345,4.8833345 164.926784,5.1599984 164.880117,5.48 C164.83345,5.8000016 164.810117,6.1066652 164.810117,6.4 L164.810117,13.54 C164.810117,13.806668 164.836784,14.0966651 164.890117,14.41 C164.943451,14.7233349 165.056783,14.9933322 165.230117,15.22 C165.403451,15.4466678 165.663449,15.56 166.010117,15.56 Z M175.869609,18.28 C174.896271,18.28 174.089613,18.080002 173.449609,17.68 C172.809606,17.279998 172.329611,16.7300035 172.009609,16.03 C171.689608,15.3299965 171.529609,14.5200046 171.529609,13.6 L171.529609,6.34 C171.529609,5.3933286 171.682941,4.5633369 171.989609,3.85 C172.296278,3.1366631 172.769606,2.580002 173.409609,2.18 C174.049613,1.779998 174.869604,1.58 175.869609,1.58 C176.856281,1.58 177.666273,1.779998 178.299609,2.18 C178.932946,2.580002 179.402941,3.1366631 179.709609,3.85 C180.016278,4.5633369 180.169609,5.3933286 180.169609,6.34 L180.169609,13.6 C180.169609,14.5200046 180.009611,15.3299965 179.689609,16.03 C179.369608,16.7300035 178.889613,17.279998 178.249609,17.68 C177.609606,18.080002 176.816281,18.28 175.869609,18.28 Z M175.869609,15.56 C176.229611,15.56 176.489609,15.4466678 176.649609,15.22 C176.80961,14.9933322 176.916276,14.7233349 176.969609,14.41 C177.022943,14.0966651 177.049609,13.806668 177.049609,13.54 L177.049609,6.4 C177.049609,6.1066652 177.026276,5.8000016 176.979609,5.48 C176.932942,5.1599984 176.82961,4.8833345 176.669609,4.65 C176.509609,4.4166655 176.242945,4.3 175.869609,4.3 C175.496274,4.3 175.226277,4.4166655 175.059609,4.65 C174.892942,4.8833345 174.786276,5.1599984 174.739609,5.48 C174.692942,5.8000016 174.669609,6.1066652 174.669609,6.4 L174.669609,13.54 C174.669609,13.806668 174.696276,14.0966651 174.749609,14.41 C174.802943,14.7233349 174.916275,14.9933322 175.089609,15.22 C175.262944,15.4466678 175.522941,15.56 175.869609,15.56 Z M185.729102,18.28 C184.755763,18.28 183.949105,18.080002 183.309102,17.68 C182.669098,17.279998 182.189103,16.7300035 181.869102,16.03 C181.5491,15.3299965 181.389102,14.5200046 181.389102,13.6 L181.389102,6.34 C181.389102,5.3933286 181.542433,4.5633369 181.849102,3.85 C182.15577,3.1366631 182.629098,2.580002 183.269102,2.18 C183.909105,1.779998 184.729097,1.58 185.729102,1.58 C186.715773,1.58 187.525765,1.779998 188.159102,2.18 C188.792438,2.580002 189.262433,3.1366631 189.569102,3.85 C189.87577,4.5633369 190.029102,5.3933286 190.029102,6.34 L190.029102,13.6 C190.029102,14.5200046 189.869103,15.3299965 189.549102,16.03 C189.2291,16.7300035 188.749105,17.279998 188.109102,17.68 C187.469098,18.080002 186.675773,18.28 185.729102,18.28 Z M185.729102,15.56 C186.089103,15.56 186.349101,15.4466678 186.509102,15.22 C186.669102,14.9933322 186.775768,14.7233349 186.829102,14.41 C186.882435,14.0966651 186.909102,13.806668 186.909102,13.54 L186.909102,6.4 C186.909102,6.1066652 186.885768,5.8000016 186.839102,5.48 C186.792435,5.1599984 186.689102,4.8833345 186.529102,4.65 C186.369101,4.4166655 186.102437,4.3 185.729102,4.3 C185.355766,4.3 185.085769,4.4166655 184.919102,4.65 C184.752434,4.8833345 184.645768,5.1599984 184.599102,5.48 C184.552435,5.8000016 184.529102,6.1066652 184.529102,6.4 L184.529102,13.54 C184.529102,13.806668 184.555768,14.0966651 184.609102,14.41 C184.662435,14.7233349 184.775767,14.9933322 184.949102,15.22 C185.122436,15.4466678 185.382433,15.56 185.729102,15.56 Z" id="1.620.000" fill="#343D51" fill-rule="nonzero"></path>
            <path d="M65.7939453,3.73144531 C64.7275391,3.73144531 63.9550781,4.52441406 63.9550781,6.12402344 L63.9550781,6.69140625 C63.9550781,8.29101562 64.7275391,9.08398438 65.8144531,9.08398438 C67.0175781,9.08398438 67.7285156,8.22265625 67.7285156,6.69824219 L67.7285156,6.12402344 C67.7285156,4.67480469 67.0039062,3.73144531 65.7939453,3.73144531 Z M67.7558594,8.91992188 C67.359375,9.65820312 66.59375,10.109375 65.6298828,10.109375 C63.7568359,10.109375 62.7587891,8.73535156 62.7587891,6.73242188 L62.7587891,6.08300781 C62.7587891,4.12792969 63.8183594,2.70605469 65.6298828,2.70605469 C66.5800781,2.70605469 67.3046875,3.17773438 67.6669922,3.81347656 L67.7011719,3.81347656 L67.7011719,1.98828125 L65.8486328,1.98828125 L65.8486328,1.09960938 L67.7148438,1.09960938 L67.7148438,0.176757812 L68.9111328,0.176757812 L68.9111328,1.09960938 L69.7177734,1.09960938 L69.7177734,1.98828125 L68.9179688,1.98828125 L68.9179688,10 L67.7900391,10 L67.7900391,8.91992188 L67.7558594,8.91992188 Z" id="đ" fill="#8C96A8" fill-rule="nonzero"></path>
            <path d="M194.793945,3.73144531 C193.727539,3.73144531 192.955078,4.52441406 192.955078,6.12402344 L192.955078,6.69140625 C192.955078,8.29101562 193.727539,9.08398438 194.814453,9.08398438 C196.017578,9.08398438 196.728516,8.22265625 196.728516,6.69824219 L196.728516,6.12402344 C196.728516,4.67480469 196.003906,3.73144531 194.793945,3.73144531 Z M196.755859,8.91992188 C196.359375,9.65820312 195.59375,10.109375 194.629883,10.109375 C192.756836,10.109375 191.758789,8.73535156 191.758789,6.73242188 L191.758789,6.08300781 C191.758789,4.12792969 192.818359,2.70605469 194.629883,2.70605469 C195.580078,2.70605469 196.304688,3.17773438 196.666992,3.81347656 L196.701172,3.81347656 L196.701172,1.98828125 L194.848633,1.98828125 L194.848633,1.09960938 L196.714844,1.09960938 L196.714844,0.176757812 L197.911133,0.176757812 L197.911133,1.09960938 L198.717773,1.09960938 L198.717773,1.98828125 L197.917969,1.98828125 L197.917969,10 L196.790039,10 L196.790039,8.91992188 L196.755859,8.91992188 Z" id="đ" fill="#343D51" fill-rule="nonzero"></path>
        </g>
        <g id="Tặng-thêm-06-tháng-n" opacity="0.8" fill="#FFFFFF" fill-opacity="1">
            <use filter="url(#filter-11)" xlink:href="#text-10"></use>
            <use xlink:href="#text-10"></use>
        </g>
        <g id="—" opacity="0.92" fill-rule="nonzero">
            <use fill="black" fill-opacity="1" filter="url(#filter-13)" xlink:href="#path-12"></use>
            <use fill="#FFFFFF" xlink:href="#path-12"></use>
        </g>
    </g>
</svg>