<?xml version="1.0" encoding="UTF-8"?>
<svg width="320px" height="568px" viewBox="0 0 320 568" version="1.1" xmlns="http://www.w3.org/2000/svg" xmlns:xlink="http://www.w3.org/1999/xlink">
    <!-- Generator: Sketch 54.1 (76490) - https://sketchapp.com -->
    <title>slide_event3</title>
    <desc>Created with Sketch.</desc>
    <defs>
        <linearGradient x1="-39.8704324%" y1="82.0412641%" x2="268.816186%" y2="-19.3521677%" id="linearGradient-1">
            <stop stop-color="#F50057" offset="0%"></stop>
            <stop stop-color="#AA00FF" offset="100%"></stop>
        </linearGradient>
        <filter x="-13.8%" y="-39.1%" width="127.7%" height="178.3%" filterUnits="objectBoundingBox" id="filter-2">
            <feGaussianBlur stdDeviation="6" in="SourceGraphic"></feGaussianBlur>
        </filter>
        <linearGradient x1="100%" y1="50%" x2="-57.0524305%" y2="99.9927334%" id="linearGradient-3">
            <stop stop-color="#F50057" offset="0%"></stop>
            <stop stop-color="#AA00FF" offset="100%"></stop>
        </linearGradient>
        <linearGradient x1="0%" y1="77.3706436%" x2="100%" y2="22.6293564%" id="linearGradient-4">
            <stop stop-color="#651FFF" offset="0%"></stop>
            <stop stop-color="#304FFE" offset="100%"></stop>
        </linearGradient>
        <text id="text-5" font-family="SFCompactDisplay-Regular, SF Compact Display" font-size="15" font-weight="normal" line-spacing="22" fill="#FFFFFF">
            <tspan x="0" y="74">07:45 Tối nay tại Rạp quốc gia, 87 Láng </tspan>
            <tspan x="0" y="96">hạ, Hà nội</tspan>
        </text>
        <filter x="-1.2%" y="-6.8%" width="102.3%" height="113.6%" filterUnits="objectBoundingBox" id="filter-6">
            <feOffset dx="0" dy="0" in="SourceAlpha" result="shadowOffsetOuter1"></feOffset>
            <feGaussianBlur stdDeviation="1" in="shadowOffsetOuter1" result="shadowBlurOuter1"></feGaussianBlur>
            <feColorMatrix values="0 0 0 0 0   0 0 0 0 0   0 0 0 0 0  0 0 0 0.5 0" type="matrix" in="shadowBlurOuter1"></feColorMatrix>
        </filter>
        <text id="text-7" font-family="SFCompactDisplay-Semibold, SF Compact Display" font-size="20" font-weight="500" letter-spacing="-1" fill="#FFFFFF">
            <tspan x="0" y="19">Đón xuất chiếu đầu phim The </tspan>
            <tspan x="0" y="43">Joker</tspan>
        </text>
        <filter x="-3.5%" y="-18.8%" width="106.9%" height="137.5%" filterUnits="objectBoundingBox" id="filter-8">
            <feOffset dx="0" dy="0" in="SourceAlpha" result="shadowOffsetOuter1"></feOffset>
            <feGaussianBlur stdDeviation="3" in="shadowOffsetOuter1" result="shadowBlurOuter1"></feGaussianBlur>
            <feColorMatrix values="0 0 0 0 0   0 0 0 0 0   0 0 0 0 0  0 0 0 0.5 0" type="matrix" in="shadowBlurOuter1"></feColorMatrix>
        </filter>
    </defs>
    <g id="slide_event3" stroke="none" stroke-width="1" fill="none" fill-rule="evenodd">
        <rect id="shadow" fill-opacity="0.5" fill="url(#linearGradient-1)" filter="url(#filter-2)" x="158" y="494" width="130" height="46" rx="4"></rect>
        <rect id="btn.bg" fill="url(#linearGradient-1)" x="160" y="492" width="130" height="46" rx="4"></rect>
        <text id="+-Muốn-đến" font-family="SFCompactDisplay-Semibold, SF Compact Display" font-size="16" font-weight="500" line-spacing="16" letter-spacing="-0.48" fill="#FFFFFF">
            <tspan x="186" y="520">+ Muốn đến</tspan>
        </text>
        <path d="M37.9970932,452 C40.2054599,452 42.204927,452.897562 43.6563719,454.342493 C45.1020032,455.793623 46,457.792121 46,459.999419 C46,462.206716 45.1020032,464.205215 43.6563719,465.656344 C42.2045394,467.101275 40.2054599,467.998837 37.9970932,467.998837 C35.7887266,467.998837 33.7896471,467.101275 32.3440157,465.656344 C30.8921832,464.205215 30,462.207103 30,459.999419 C30,457.792121 30.8917957,455.793623 32.3436281,454.342493 C33.7896471,452.897562 35.7887266,452 37.9970932,452 L37.9970932,452 Z M41.7154277,460.688182 C41.9553327,460.688182 42.1460165,460.884972 42.1460165,461.124761 C42.1460165,461.364549 41.9553327,461.561339 41.7154277,461.561339 L37.6490565,461.561339 L37.6366543,461.561339 C37.4765884,461.561339 37.3351258,461.469142 37.2614878,461.340144 L37.2552867,461.333946 L37.2552867,461.333946 L37.2490856,461.32155 L37.2490856,461.32155 L37.2490856,461.315352 L37.2490856,461.315352 L37.2428845,461.302956 L37.2428845,461.302956 L37.2366834,461.29056 L37.2366834,461.29056 L37.2366834,461.284362 L37.2366834,461.284362 L37.2304823,461.271965 L37.2304823,461.271965 L37.2242812,461.265767 L37.2242812,461.265767 L37.2242812,461.253371 L37.2242812,461.253371 L37.2180801,461.240975 L37.2180801,461.240975 L37.2180801,461.234777 L37.2180801,461.234777 L37.211879,461.222381 L37.211879,461.222381 L37.211879,461.209984 L37.211879,461.209984 L37.211879,461.203786 L37.211879,461.197588 L37.2056779,461.19139 L37.2056779,461.19139 L37.2056779,461.178994 L37.2056779,461.178994 L37.2056779,461.166598 L37.2056779,461.166598 L37.2056779,461.155751 L37.2056779,461.155751 L37.2056779,461.149553 L37.2056779,461.149553 L37.2056779,461.137157 L37.2056779,461.137157 L37.2056779,461.124761 L37.2056779,461.124761 L37.2056779,455.91681 C37.2056779,455.677021 37.3963617,455.486429 37.6362667,455.486429 C37.8761718,455.486429 38.0730567,455.677021 38.0730567,455.91681 L38.0730567,460.688182 L41.7154277,460.688182 Z M43.0413003,454.957654 C41.7495337,453.666513 39.9655548,452.873157 37.9970932,452.873157 C36.0286316,452.873157 34.2446528,453.666126 32.9528862,454.957654 C31.6673207,456.248795 30.8673788,458.03191 30.8673788,459.999419 C30.8673788,461.966927 31.6669331,463.750042 32.9528862,465.04157 C34.2446528,466.332711 36.0286316,467.126068 37.9970932,467.126068 C39.9655548,467.126068 41.7495337,466.332711 43.0413003,465.04157 C44.3330669,463.750429 45.1330087,461.967314 45.1330087,459.999419 C45.1330087,458.03191 44.3334544,456.248795 43.0413003,454.957654 L43.0413003,454.957654 Z" id="time" fill="url(#linearGradient-3)" fill-rule="nonzero"></path>
        <path d="M166.738351,460.831541 C170.453907,460.831541 173.476703,463.854337 173.476703,467.569892 C173.476703,467.807484 173.284129,468 173.046595,468 C172.809061,468 172.616487,467.807484 172.616487,467.569892 C172.616487,464.328659 169.979584,461.691756 166.738351,461.691756 C163.497118,461.691756 160.860215,464.328659 160.860215,467.569892 C160.860215,467.807484 160.667642,468 160.430108,468 C160.192573,468 160,467.807484 160,467.569892 C160,463.854337 163.022796,460.831541 166.738351,460.831541 Z M166.738351,459.168459 C164.762036,459.168459 163.154122,457.560602 163.154122,455.584229 C163.154122,453.607857 164.762036,452 166.738351,452 C168.714667,452 170.322581,453.607857 170.322581,455.584229 C170.322581,457.560602 168.714667,459.168459 166.738351,459.168459 Z M166.738351,452.860215 C165.236358,452.860215 164.014337,454.082237 164.014337,455.584229 C164.014337,457.086222 165.236358,458.308244 166.738351,458.308244 C168.240344,458.308244 169.462366,457.086222 169.462366,455.584229 C169.462366,454.082237 168.240344,452.860215 166.738351,452.860215 Z M176.200717,459.168459 C174.224401,459.168459 172.616487,457.560602 172.616487,455.584229 C172.616487,453.607857 174.224401,452 176.200717,452 C178.177032,452 179.784946,453.607857 179.784946,455.584229 C179.784946,457.560602 178.177032,459.168459 176.200717,459.168459 Z M176.200717,452.860215 C174.698724,452.860215 173.476703,454.082237 173.476703,455.584229 C173.476703,457.086222 174.698724,458.308244 176.200717,458.308244 C177.70271,458.308244 178.924731,457.086222 178.924731,455.584229 C178.924731,454.082237 177.70271,452.860215 176.200717,452.860215 Z M180.854824,463.978896 C179.731613,462.525362 178.035211,461.691756 176.200717,461.691756 C175.022738,461.691756 173.886394,462.038824 172.914466,462.695398 C172.717706,462.828387 172.450351,462.776659 172.317305,462.579728 C172.184373,462.38291 172.2361,462.115556 172.432975,461.982566 C173.547584,461.229534 174.850466,460.831541 176.200717,460.831541 C178.303656,460.831541 180.248143,461.786953 181.535541,463.452903 C181.680746,463.640889 181.646165,463.910996 181.458179,464.056258 C181.379842,464.116703 181.287283,464.146007 181.19547,464.146007 C181.066839,464.146065 180.939584,464.088545 180.854824,463.978896 Z" id="mem" fill="url(#linearGradient-4)"></path>
        <g id="txt" transform="translate(30.000000, 176.000000)">
            <text id="Ôi!-Mong-phim-này-mã" font-family="SFCompactDisplay-Regular, SF Compact Display" font-size="15" font-weight="normal" line-spacing="22" fill="#4D5B72">
                <tspan x="0" y="226">Ôi! Mong phim này mãi. Cần lắm một cạ </tspan>
                <tspan x="0" y="248">đi cùng cho tự tin ạ. </tspan>
            </text>
            <text id="Người-dẫn-sự-kiện" font-family="SFCompactDisplay-Regular, SF Compact Display" font-size="14" font-weight="normal" line-spacing="14" fill="#8C96A8">
                <tspan x="60" y="195">Người dẫn sự kiện</tspan>
            </text>
            <text id="Triển-vọng" font-family="SFCompactDisplay-Semibold, SF Compact Display" font-size="16" font-weight="500" line-spacing="20" letter-spacing="-0.479999989" fill="#343D51">
                <tspan x="60" y="169">Triển vọng</tspan>
            </text>
            <g id="07:45-Tối-nay-tại-Rạ" opacity="0.92" fill="#FFFFFF" fill-opacity="1">
                <use filter="url(#filter-6)" xlink:href="#text-5"></use>
                <use xlink:href="#text-5"></use>
            </g>
            <g id="Đón-xuất-chiếu-đầu-p" fill="#FFFFFF" fill-opacity="1">
                <use filter="url(#filter-8)" xlink:href="#text-7"></use>
                <use xlink:href="#text-7"></use>
            </g>
            <text id="Bỏ-qua" font-family="SFCompactDisplay-Semibold, SF Compact Display" font-size="16" font-weight="500" line-spacing="16" letter-spacing="-0.479999989" fill="#8C96A8">
                <tspan x="27" y="343">Bỏ qua</tspan>
            </text>
            <text id="45m" font-family="SFCompactDisplay-Regular, SF Compact Display" font-size="14" font-weight="normal" line-spacing="20" fill="#F50057">
                <tspan x="26" y="287">45m</tspan>
            </text>
            <text id="01-/-02" font-family="SFCompactDisplay-Regular, SF Compact Display" font-size="14" font-weight="normal" line-spacing="20">
                <tspan x="162" y="287" fill="#304FFE">01</tspan>
                <tspan x="175.405273" y="287" fill="#8C96A8"> / 02 </tspan>
            </text>
        </g>
    </g>
</svg>