<?xml version="1.0" encoding="UTF-8"?>
<svg width="320px" height="568px" viewBox="0 0 320 568" version="1.1" xmlns="http://www.w3.org/2000/svg" xmlns:xlink="http://www.w3.org/1999/xlink">
    <!-- Generator: Sketch 54.1 (76490) - https://sketchapp.com -->
    <title>slide_event4</title>
    <desc>Created with Sketch.</desc>
    <defs>
        <linearGradient x1="-39.8704324%" y1="55.3064694%" x2="268.816186%" y2="38.5143371%" id="linearGradient-1">
            <stop stop-color="#AA00FF" offset="0%"></stop>
            <stop stop-color="#304FFE" offset="100%"></stop>
        </linearGradient>
        <filter x="-14.4%" y="-100.0%" width="128.8%" height="300.0%" filterUnits="objectBoundingBox" id="filter-2">
            <feGaussianBlur stdDeviation="12" in="SourceGraphic"></feGaussianBlur>
        </filter>
        <linearGradient x1="-39.8704324%" y1="59.463984%" x2="268.816186%" y2="29.5155459%" id="linearGradient-3">
            <stop stop-color="#AA00FF" offset="0%"></stop>
            <stop stop-color="#304FFE" offset="100%"></stop>
        </linearGradient>
        <linearGradient x1="-19.2170046%" y1="135.811454%" x2="127.921317%" y2="-29.127438%" id="linearGradient-4">
            <stop stop-color="#304FFE" offset="0%"></stop>
            <stop stop-color="#651FFF" offset="100%"></stop>
        </linearGradient>
        <linearGradient x1="100%" y1="50%" x2="-57.0524305%" y2="99.9927334%" id="linearGradient-5">
            <stop stop-color="#F50057" offset="0%"></stop>
            <stop stop-color="#AA00FF" offset="100%"></stop>
        </linearGradient>
        <linearGradient x1="0%" y1="77.3706436%" x2="100%" y2="22.6293564%" id="linearGradient-6">
            <stop stop-color="#651FFF" offset="0%"></stop>
            <stop stop-color="#304FFE" offset="100%"></stop>
        </linearGradient>
        <text id="text-7" font-family="SFCompactDisplay-Regular, SF Compact Display" font-size="16" font-weight="normal" line-spacing="21" fill="#FFFFFF">
            <tspan x="30" y="253">08:30 Tối nay tại Cộng cafe, 08 Thái </tspan>
            <tspan x="30" y="274">hà, Đống đa, Hà nội</tspan>
        </text>
        <filter x="-1.2%" y="-7.1%" width="102.3%" height="114.3%" filterUnits="objectBoundingBox" id="filter-8">
            <feOffset dx="0" dy="0" in="SourceAlpha" result="shadowOffsetOuter1"></feOffset>
            <feGaussianBlur stdDeviation="1" in="shadowOffsetOuter1" result="shadowBlurOuter1"></feGaussianBlur>
            <feColorMatrix values="0 0 0 0 0   0 0 0 0 0   0 0 0 0 0  0 0 0 0.5 0" type="matrix" in="shadowBlurOuter1"></feColorMatrix>
        </filter>
        <text id="text-9" font-family="SFCompactDisplay-Semibold, SF Compact Display" font-size="20" font-weight="500" letter-spacing="-1" fill="#FFFFFF">
            <tspan x="30" y="221">Cafe bóc phốt tình cũ</tspan>
        </text>
        <filter x="-5.3%" y="-37.5%" width="110.6%" height="175.0%" filterUnits="objectBoundingBox" id="filter-10">
            <feOffset dx="0" dy="0" in="SourceAlpha" result="shadowOffsetOuter1"></feOffset>
            <feGaussianBlur stdDeviation="3" in="shadowOffsetOuter1" result="shadowBlurOuter1"></feGaussianBlur>
            <feColorMatrix values="0 0 0 0 0   0 0 0 0 0   0 0 0 0 0  0 0 0 0.5 0" type="matrix" in="shadowBlurOuter1"></feColorMatrix>
        </filter>
    </defs>
    <g id="slide_event4" stroke="none" stroke-width="1" fill="none" fill-rule="evenodd">
        <rect id="shadow" fill="url(#linearGradient-1)" opacity="0.72" filter="url(#filter-2)" x="30" y="500" width="250" height="36" rx="4"></rect>
        <rect id="btn" fill="url(#linearGradient-3)" x="30" y="486" width="260" height="50" rx="4"></rect>
        <path d="M48.1499996,511.5 L48.2500002,511.65 L52.1500002,515.85 C52.2499999,515.95 52.3499996,516 52.5,516 C52.6499997,516 52.7500003,515.95 52.8500001,515.85 L60.8500004,507.55 C61.0499998,507.35 61.0499998,507.05 60.8500004,506.85 L60.1499996,506.15 C59.9500002,505.95 59.6500001,505.95 59.4499998,506.15 L59.3999999,506.15 L52.6999996,513.1 C52.5999998,513.2 52.4500003,513.2 52.3499996,513.1 L49.6000001,510.15 L49.5500002,510.1 C49.3499999,509.9 49.0499998,509.9 48.8500004,510.1 L48.1499996,510.8 C48.0499999,510.9 48,511.05 48,511.15 C48,511.25 48.0499999,511.4 48.1499996,511.5 Z" id="check" fill="#FFFFFF" opacity="0.6"></path>
        <text id="Sự-kiện-của-bạn-tối" opacity="0.92" font-family="SFCompactDisplay-Semibold, SF Compact Display" font-size="18" font-weight="500" letter-spacing="-0.720000029" fill="#FFFFFF">
            <tspan x="75.4850785" y="516">Sự kiện của bạn tối nay</tspan>
        </text>
        <path d="M190.358028,334.875953 C190.347332,334.884525 190.336946,334.893823 190.326923,334.903846 L190.292308,334.903846 L185.653846,339.715385 C185.584615,339.784615 185.480769,339.784615 185.411538,339.715385 L183.507692,337.673077 L183.473077,337.638462 C183.334615,337.5 183.126923,337.5 182.988462,337.638462 L182.503846,338.123077 C182.434615,338.192308 182.4,338.296154 182.4,338.365385 C182.4,338.434615 182.434615,338.538462 182.503846,338.607692 L182.573077,338.711538 L185.273077,341.619231 C185.342308,341.688462 185.411538,341.723077 185.515385,341.723077 C185.619231,341.723077 185.688462,341.688462 185.757692,341.619231 L191.188479,335.98479 C191.704447,336.870739 192,337.900854 192,339 C192,342.313708 189.313708,345 186,345 C182.686292,345 180,342.313708 180,339 C180,335.686292 182.686292,333 186,333 C187.716368,333 189.26441,333.720684 190.358028,334.875953 Z" id="check" fill="url(#linearGradient-4)"></path>
        <path d="M37.9970932,450 C40.2054599,450 42.204927,450.897562 43.6563719,452.342493 C45.1020032,453.793623 46,455.792121 46,457.999419 C46,460.206716 45.1020032,462.205215 43.6563719,463.656344 C42.2045394,465.101275 40.2054599,465.998837 37.9970932,465.998837 C35.7887266,465.998837 33.7896471,465.101275 32.3440157,463.656344 C30.8921832,462.205215 30,460.207103 30,457.999419 C30,455.792121 30.8917957,453.793623 32.3436281,452.342493 C33.7896471,450.897562 35.7887266,450 37.9970932,450 L37.9970932,450 Z M41.7154277,458.688182 C41.9553327,458.688182 42.1460165,458.884972 42.1460165,459.124761 C42.1460165,459.364549 41.9553327,459.561339 41.7154277,459.561339 L37.6490565,459.561339 L37.6366543,459.561339 C37.4765884,459.561339 37.3351258,459.469142 37.2614878,459.340144 L37.2552867,459.333946 L37.2552867,459.333946 L37.2490856,459.32155 L37.2490856,459.32155 L37.2490856,459.315352 L37.2490856,459.315352 L37.2428845,459.302956 L37.2428845,459.302956 L37.2366834,459.29056 L37.2366834,459.29056 L37.2366834,459.284362 L37.2366834,459.284362 L37.2304823,459.271965 L37.2304823,459.271965 L37.2242812,459.265767 L37.2242812,459.265767 L37.2242812,459.253371 L37.2242812,459.253371 L37.2180801,459.240975 L37.2180801,459.240975 L37.2180801,459.234777 L37.2180801,459.234777 L37.211879,459.222381 L37.211879,459.222381 L37.211879,459.209984 L37.211879,459.209984 L37.211879,459.203786 L37.211879,459.197588 L37.2056779,459.19139 L37.2056779,459.19139 L37.2056779,459.178994 L37.2056779,459.178994 L37.2056779,459.166598 L37.2056779,459.166598 L37.2056779,459.155751 L37.2056779,459.155751 L37.2056779,459.149553 L37.2056779,459.149553 L37.2056779,459.137157 L37.2056779,459.137157 L37.2056779,459.124761 L37.2056779,459.124761 L37.2056779,453.91681 C37.2056779,453.677021 37.3963617,453.486429 37.6362667,453.486429 C37.8761718,453.486429 38.0730567,453.677021 38.0730567,453.91681 L38.0730567,458.688182 L41.7154277,458.688182 Z M43.0413003,452.957654 C41.7495337,451.666513 39.9655548,450.873157 37.9970932,450.873157 C36.0286316,450.873157 34.2446528,451.666126 32.9528862,452.957654 C31.6673207,454.248795 30.8673788,456.03191 30.8673788,457.999419 C30.8673788,459.966927 31.6669331,461.750042 32.9528862,463.04157 C34.2446528,464.332711 36.0286316,465.126068 37.9970932,465.126068 C39.9655548,465.126068 41.7495337,464.332711 43.0413003,463.04157 C44.3330669,461.750429 45.1330087,459.967314 45.1330087,457.999419 C45.1330087,456.03191 44.3334544,454.248795 43.0413003,452.957654 L43.0413003,452.957654 Z" id="time" fill="url(#linearGradient-5)" fill-rule="nonzero"></path>
        <path d="M166.738351,458.831541 C170.453907,458.831541 173.476703,461.854337 173.476703,465.569892 C173.476703,465.807484 173.284129,466 173.046595,466 C172.809061,466 172.616487,465.807484 172.616487,465.569892 C172.616487,462.328659 169.979584,459.691756 166.738351,459.691756 C163.497118,459.691756 160.860215,462.328659 160.860215,465.569892 C160.860215,465.807484 160.667642,466 160.430108,466 C160.192573,466 160,465.807484 160,465.569892 C160,461.854337 163.022796,458.831541 166.738351,458.831541 Z M166.738351,457.168459 C164.762036,457.168459 163.154122,455.560602 163.154122,453.584229 C163.154122,451.607857 164.762036,450 166.738351,450 C168.714667,450 170.322581,451.607857 170.322581,453.584229 C170.322581,455.560602 168.714667,457.168459 166.738351,457.168459 Z M166.738351,450.860215 C165.236358,450.860215 164.014337,452.082237 164.014337,453.584229 C164.014337,455.086222 165.236358,456.308244 166.738351,456.308244 C168.240344,456.308244 169.462366,455.086222 169.462366,453.584229 C169.462366,452.082237 168.240344,450.860215 166.738351,450.860215 Z M176.200717,457.168459 C174.224401,457.168459 172.616487,455.560602 172.616487,453.584229 C172.616487,451.607857 174.224401,450 176.200717,450 C178.177032,450 179.784946,451.607857 179.784946,453.584229 C179.784946,455.560602 178.177032,457.168459 176.200717,457.168459 Z M176.200717,450.860215 C174.698724,450.860215 173.476703,452.082237 173.476703,453.584229 C173.476703,455.086222 174.698724,456.308244 176.200717,456.308244 C177.70271,456.308244 178.924731,455.086222 178.924731,453.584229 C178.924731,452.082237 177.70271,450.860215 176.200717,450.860215 Z M180.854824,461.978896 C179.731613,460.525362 178.035211,459.691756 176.200717,459.691756 C175.022738,459.691756 173.886394,460.038824 172.914466,460.695398 C172.717706,460.828387 172.450351,460.776659 172.317305,460.579728 C172.184373,460.38291 172.2361,460.115556 172.432975,459.982566 C173.547584,459.229534 174.850466,458.831541 176.200717,458.831541 C178.303656,458.831541 180.248143,459.786953 181.535541,461.452903 C181.680746,461.640889 181.646165,461.910996 181.458179,462.056258 C181.379842,462.116703 181.287283,462.146007 181.19547,462.146007 C181.066839,462.146065 180.939584,462.088545 180.854824,461.978896 Z" id="mem" fill="url(#linearGradient-6)"></path>
        <text id="Tối-nay-cafe-kể-tội" font-family="SFCompactDisplay-Regular, SF Compact Display" font-size="16" font-weight="normal" line-spacing="21" fill="#4D5B72">
            <tspan x="30" y="403">Tối nay cafe kể tội người yêu cũ. Tiện </tspan>
            <tspan x="30" y="424">tay xoá tội luôn nhé các tình yêu  :”&gt;</tspan>
        </text>
        <text id="Người-dẫn-sự-kiện" font-family="SFCompactDisplay-Regular, SF Compact Display" font-size="16" font-weight="normal" fill="#8C96A8">
            <tspan x="90" y="368">Người dẫn sự kiện</tspan>
        </text>
        <text id="Ánh-Dương" font-family="SFCompactDisplay-Semibold, SF Compact Display" font-size="18" font-weight="500" letter-spacing="-0.720000029" fill="#343D51">
            <tspan x="90" y="345">Ánh Dươn</tspan>
            <tspan x="164.123789" y="345">g</tspan>
        </text>
        <g id="08:30-Tối-nay-tại-Cộ" opacity="0.92" fill="#FFFFFF" fill-opacity="1">
            <use filter="url(#filter-8)" xlink:href="#text-7"></use>
            <use xlink:href="#text-7"></use>
        </g>
        <g id="Cafe-bóc-phốt-tình-c" fill="#FFFFFF" fill-opacity="1">
            <use filter="url(#filter-10)" xlink:href="#text-9"></use>
            <use xlink:href="#text-9"></use>
        </g>
        <text id="01h-30m" font-family="SFCompactDisplay-Regular, SF Compact Display" font-size="15" font-weight="normal" fill="#F50057">
            <tspan x="56" y="462">01h 30m</tspan>
        </text>
        <text id="04-/-06" font-family="SFCompactDisplay-Regular, SF Compact Display" font-size="15" font-weight="normal">
            <tspan x="192" y="462" fill="#304FFE">04</tspan>
            <tspan x="208.984863" y="462" fill="#8C96A8"> / 06 </tspan>
        </text>
    </g>
</svg>