<?xml version="1.0" encoding="UTF-8"?>
<svg width="320px" height="568px" viewBox="0 0 320 568" version="1.1" xmlns="http://www.w3.org/2000/svg" xmlns:xlink="http://www.w3.org/1999/xlink">
    <!-- Generator: Sketch 54.1 (76490) - https://sketchapp.com -->
    <title>slide_event1</title>
    <desc>Created with Sketch.</desc>
    <defs>
        <linearGradient x1="7.79684971%" y1="-34.6496161%" x2="134.352802%" y2="196.500644%" id="linearGradient-1">
            <stop stop-color="#F50057" offset="0%"></stop>
            <stop stop-color="#AA00FF" offset="100%"></stop>
        </linearGradient>
    </defs>
    <g id="slide_event1" stroke="none" stroke-width="1" fill="none" fill-rule="evenodd">
        <path d="M159.502139,541.831362 C159.6592,541.988422 159.870627,542.072993 160.076013,542.072993 C160.281399,542.072993 160.492827,541.994463 160.649887,541.831362 L165.832872,536.648377 C166.153033,536.328215 166.153033,535.81475 165.832872,535.494588 C165.512711,535.174427 164.999245,535.174427 164.679084,535.494588 L160.891518,539.288195 L160.891518,522.742512 C160.891518,522.289454 160.529071,521.927007 160.076013,521.927007 C159.622955,521.927007 159.260508,522.289454 159.260508,522.742512 L159.260508,539.288195 L155.466902,535.494588 C155.14674,535.174427 154.633275,535.174427 154.313114,535.494588 C153.992952,535.81475 153.992952,536.328215 154.313114,536.648377 L159.502139,541.831362 Z" id="next" fill="url(#linearGradient-1)" fill-rule="nonzero" transform="translate(160.072993, 532.000000) rotate(-90.000000) translate(-160.072993, -532.000000) "></path>
        <text id="Chanchan-đang-thấy-c" font-family="SFCompactDisplay-Regular, SF Compact Display" font-size="15" font-weight="normal" line-spacing="22" fill="#4D5B72">
            <tspan x="30" y="478">Chanchan đang thấy có vài sự kiện có </tspan>
            <tspan x="30" y="500">thể phù hợp với bạn tối nay. </tspan>
        </text>
        <text id="Tối-nay-bạn-rảnh" font-family="SFCompactDisplay-Semibold, SF Compact Display" font-size="24" font-weight="500" line-spacing="24" letter-spacing="-1.44" fill="#343D51">
            <tspan x="30" y="447">Tối nay bạn rảnh</tspan>
        </text>
    </g>
</svg>