<?xml version="1.0" encoding="UTF-8"?>
<svg width="320px" height="355px" viewBox="0 0 320 355" version="1.1" xmlns="http://www.w3.org/2000/svg" xmlns:xlink="http://www.w3.org/1999/xlink">
    <title>1</title>
    <g id="1" stroke="none" stroke-width="1" fill="none" fill-rule="evenodd">
        <text id="—-Chanchan-là-sản-ph" font-family="SFCompactDisplay-Light, SF Compact Display" font-size="16" font-weight="300" line-spacing="23" fill="#121721">
            <tspan x="35" y="209">—</tspan>
            <tspan x="35" y="232">Chanchan là sản phẩm </tspan>
            <tspan x="35" y="255">mới đang trong giai đoạn </tspan>
            <tspan x="35" y="278">ra mắt. Chúng tôi có chính </tspan>
            <tspan x="35" y="301">sách Ưu tiên và Đảm bảo áp </tspan>
            <tspan x="35" y="324">dụng với Thành viên đăng ký mới </tspan>
            <tspan x="35" y="347">trong giai đoạn này</tspan>
        </text>
        <text id="Chính-sách-Thành" font-family="GMVDINPro-CondBlack, GMV DIN Cond" font-size="30" font-style="condensed" font-weight="800" fill="#121721">
            <tspan x="35" y="125">Chính sách</tspan>
            <tspan x="35" y="155">Thành viên</tspan>
        </text>
        <g id="Group" transform="translate(-5.160648, 0.000000)">
            <polygon id="Triangle" fill="#39B34C" transform="translate(17.010939, 262.600309) rotate(-22.000000) translate(-17.010939, -262.600309) " points="9.41067092 253.125945 28.761754 248 28.8612304 275.591883 5.16064841 277.200618"></polygon>
            <polygon id="Rectangle" fill="#03AEEE" transform="translate(9.000000, 120.512046) rotate(77.000000) translate(-9.000000, -120.512046) " points="-4 115.512046 22 116.707427 21.3472829 124.316665 -4 125.512046"></polygon>
            <polygon id="Triangle" fill="#F15C25" transform="translate(281.123521, 17.629463) rotate(56.000000) translate(-281.123521, -17.629463) " points="276.623521 11.1294628 285.623521 21.1581644 276.876313 24.1294628"></polygon>
            <polygon id="Triangle" fill="#F15C25" transform="translate(244.579749, 260.331751) rotate(-41.000000) translate(-244.579749, -260.331751) " points="242.266295 249.043628 254.851961 269.814504 234.307537 271.619875"></polygon>
            <path d="M4.16064841,3 C15.3507936,9.34988998 28.9773927,9.67375689 40.4565714,3.86265458 L42.1606484,3 L42.1606484,3 L42.1606484,14.2879316 L41.5678164,14.5851392 C29.77424,20.4976758 15.8587893,20.3871147 4.16064841,14.2879316 L4.16064841,14.2879316 L4.16064841,14.2879316 L4.16064841,3 Z" id="Rectangle" fill="#FCBB65" transform="translate(23.160648, 13.500000) rotate(9.000000) translate(-23.160648, -13.500000) "></path>
        </g>
    </g>
</svg>