<?xml version="1.0" encoding="UTF-8"?>
<svg width="320px" height="487px" viewBox="0 0 320 487" version="1.1" xmlns="http://www.w3.org/2000/svg" xmlns:xlink="http://www.w3.org/1999/xlink">
    <!-- Generator: Sketch 54.1 (76490) - https://sketchapp.com -->
    <title>chanchanla</title>
    <desc>Created with Sketch.</desc>
    <defs>
        <linearGradient x1="-31.2535442%" y1="34.7889397%" x2="100%" y2="63.7452061%" id="linearGradient-1">
            <stop stop-color="#F50057" offset="0%"></stop>
            <stop stop-color="#AA00FF" offset="100%"></stop>
        </linearGradient>
        <filter x="-14.4%" y="-64.3%" width="128.8%" height="228.6%" filterUnits="objectBoundingBox" id="filter-2">
            <feGaussianBlur stdDeviation="12" in="SourceGraphic"></feGaussianBlur>
        </filter>
        <linearGradient x1="-36.069949%" y1="38.3945579%" x2="107.247342%" y2="66.2808319%" id="linearGradient-3">
            <stop stop-color="#F50057" offset="0%"></stop>
            <stop stop-color="#AA00FF" offset="100%"></stop>
        </linearGradient>
        <text id="text-4" font-family="SFCompactDisplay-Semibold, SF Compact Display" font-size="20" font-weight="500" letter-spacing="-1" fill="#FFFFFF">
            <tspan x="127.12793" y="416">Đăng ký</tspan>
        </text>
        <filter x="-11.4%" y="-22.9%" width="121.2%" height="154.2%" filterUnits="objectBoundingBox" id="filter-5">
            <feOffset dx="-1" dy="1" in="SourceAlpha" result="shadowOffsetOuter1"></feOffset>
            <feGaussianBlur stdDeviation="2" in="shadowOffsetOuter1" result="shadowBlurOuter1"></feGaussianBlur>
            <feColorMatrix values="0 0 0 0 0   0 0 0 0 0   0 0 0 0 0  0 0 0 0.25 0" type="matrix" in="shadowBlurOuter1"></feColorMatrix>
        </filter>
    </defs>
    <g id="chanchanla" stroke="none" stroke-width="1" fill="none" fill-rule="evenodd">
        <text id="Ở-chanchan-mọi-người" font-family="SFCompactDisplay-Semibold, SF Compact Display" font-size="20" font-weight="500" line-spacing="22" letter-spacing="-1" fill="#343D51">
            <tspan x="30" y="51">Ở chanchan mọi người đều tìm </tspan>
            <tspan x="30" y="73">một tình yêu thực sự.</tspan>
        </text>
        <text id="Khi-hai-Thành-viên-b" font-family="Georgia-Italic, Georgia" font-size="16" font-style="italic" font-weight="normal" line-spacing="21" fill="#343D51">
            <tspan x="30" y="144">Khi hai Thành viên bất kỳ mong </tspan>
            <tspan x="30" y="165">muốn có cơ hội với nhau khi nhìn </tspan>
            <tspan x="30" y="186">thấy nhau lần đầu.</tspan>
        </text>
        <text id="&lt;-Nếu-cả-hai-mong-mu" font-family="Georgia-Italic, Georgia" font-size="16" font-style="italic" font-weight="normal" line-spacing="21" fill="#343D51">
            <tspan x="30" y="271">&lt; Nếu cả hai mong muốn có nhau </tspan>
            <tspan x="30" y="292">thật lòng thì chắc chắn… họ sẽ tìm </tspan>
            <tspan x="30" y="313">thấy nhau trong Chương trình. /&gt;</tspan>
        </text>
        <text id="Chương-trình-sẽ-thử" font-family="SFCompactDisplay-Semibold, SF Compact Display" font-size="18" font-weight="500" line-spacing="20" letter-spacing="-0.720000029" fill="#343D51">
            <tspan x="30" y="221">Chương trình sẽ thử thách cả hai </tspan>
            <tspan x="30" y="241">người</tspan>
            <tspan x="74.370703" y="241">.</tspan>
        </text>
        <text id="—" font-family="Georgia" font-size="15" font-weight="normal" line-spacing="21" fill="#5D6A80">
            <tspan x="30" y="102">—</tspan>
        </text>
        <text id="Chúng-tôi-làm-như-th" font-family="SFCompactDisplay-Regular, SF Compact Display" font-size="16" font-weight="normal" line-spacing="21" fill="#556279">
            <tspan x="50" y="103">Chúng tôi làm như thế nào?</tspan>
        </text>
        <text id="……………………………………………………" font-family="Georgia-Italic, Georgia" font-size="14" font-style="italic" font-weight="normal" fill="#DADFE7">
            <tspan x="30" y="348">……………………………………………………………</tspan>
        </text>
        <path d="M280,400 L280,446 C280,448.761424 277.761424,451 275,451 L35,451 C32.2385763,451 30,448.761424 30,446 L30,400 C30,397.238576 32.2385763,395 35,395 L275,395 C277.761424,395 280,397.238576 280,400 Z" id="Triangle" fill="url(#linearGradient-1)" opacity="0.5" filter="url(#filter-2)" transform="translate(155.000000, 423.000000) scale(-1, 1) translate(-155.000000, -423.000000) "></path>
        <path d="M290,388 L290,434 C290,436.761424 287.761424,439 285,439 L35,439 C32.2385763,439 30,436.761424 30,434 L30,388 C30,385.238576 32.2385763,383 35,383 L285,383 C287.761424,383 290,385.238576 290,388 Z" id="Triangle" fill="url(#linearGradient-3)" transform="translate(160.000000, 411.000000) scale(-1, 1) translate(-160.000000, -411.000000) "></path>
        <polygon id="Line" fill="#FFFFFF" fill-rule="nonzero" opacity="0.4" points="261 411 244 411 244 410 261 410 261 406 270 410.5 261 415"></polygon>
        <g id="Đăng-ký" fill="#FFFFFF" fill-opacity="1">
            <use filter="url(#filter-5)" xlink:href="#text-4"></use>
            <use xlink:href="#text-4"></use>
        </g>
    </g>
</svg>