<?xml version="1.0" encoding="UTF-8"?>
<svg width="320px" height="509px" viewBox="0 0 320 509" version="1.1" xmlns="http://www.w3.org/2000/svg" xmlns:xlink="http://www.w3.org/1999/xlink">
    <!-- Generator: Sketch 54.1 (76490) - https://sketchapp.com -->
    <title>chodenkhi</title>
    <desc>Created with Sketch.</desc>
    <g id="chodenkhi" stroke="none" stroke-width="1" fill="none" fill-rule="evenodd">
        <polygon id="Rectangle" fill="#F0F6FA" points="0 171 320 171 320 509 0 509"></polygon>
        <text id="03" font-family="Oswald-Regular_Medium, Oswald" font-size="40" font-weight="400" letter-spacing="-2" fill="#3D5AFE">
            <tspan x="30" y="257">03</tspan>
        </text>
        <text id="Cho-đến-khi…" font-family="Georgia-Italic, Georgia" font-size="15" font-style="italic" font-weight="normal" line-spacing="20" fill="#343D51">
            <tspan x="30" y="295">Cho đến khi…</tspan>
        </text>
        <text id="Cả-hai-chắc-chắn-về" font-family="Georgia-Italic, Georgia" font-size="15" font-style="italic" font-weight="normal" line-spacing="20" fill="#343D51">
            <tspan x="50" y="331">Cả hai chắc chắn về cảm nhận của </tspan>
            <tspan x="50" y="351">mình.</tspan>
        </text>
        <circle id="Oval" fill="#343D51" cx="34" cy="381" r="4"></circle>
        <circle id="Oval" fill="#343D51" cx="34" cy="327" r="4"></circle>
        <text id="Cả-hai-cảm-thấy-Thử" font-family="SFCompactDisplay-Semibold, SF Compact Display" font-size="18" font-weight="500" line-spacing="20" letter-spacing="-0.720000029" fill="#343D51">
            <tspan x="50" y="386">Cả hai cảm thấy Thử thách từ </tspan>
            <tspan x="50" y="406">Chương trình không còn là cần </tspan>
            <tspan x="50" y="426">thiết nữa.</tspan>
        </text>
        <text id="Cả-hai-xác-nhận-hoàn" font-family="SFCompactDisplay-Regular, SF Compact Display" font-size="16" font-weight="normal" line-spacing="20" fill="#343D51">
            <tspan x="30" y="464">Cả hai xác nhận hoàn thành &amp; kết </tspan>
            <tspan x="30" y="484">thúc chương trình ở Chanchan.</tspan>
        </text>
        <text id="Một-cách-tự-nhiên…" font-family="SFCompactDisplay-Semibold, SF Compact Display" font-size="18" font-weight="500" letter-spacing="-0.720000029" fill="#343D51">
            <tspan x="50" y="49">Một cách tự nhiên</tspan>
            <tspan x="182.920156" y="49">…</tspan>
        </text>
        <text id="Cả-hai-dần-thân-thuộ" font-family="Georgia-Italic, Georgia" font-size="15" font-style="italic" font-weight="normal" line-spacing="20" fill="#343D51">
            <tspan x="50" y="79">Cả hai dần thân thuộc qua những </tspan>
            <tspan x="50" y="99">lần gặp gỡ, hiểu nhau nhiều hơn &amp; </tspan>
            <tspan x="50" y="119">sẻ chia nhiều hơn trong cuộc sống.</tspan>
        </text>
        <polygon id="Triangle" fill="#343D51" points="32 32 32 125 30 125 30 32"></polygon>
        <path d="M3.04720534,165 C3.01573507,165.166826 3,165.339903 3,165.519231 C3,166.198721 3.22884537,166.782049 3.68654298,167.269231 C4.14424058,167.756413 4.68408094,168 5.30608025,168 C5.91634372,168 6.45325017,167.759618 6.91681569,167.278846 C7.38038122,166.798075 7.6121605,166.211542 7.6121605,165.519231 C7.6121605,165.339903 7.59622108,165.166826 7.5643421,165 L12.7468253,165 C12.7153551,165.166826 12.69962,165.339903 12.69962,165.519231 C12.69962,166.198721 12.9284654,166.782049 13.386163,167.269231 C13.8438606,167.756413 14.3837009,168 15.0057002,168 C15.6159637,168 16.1528702,167.759618 16.6164357,167.278846 C17.0800012,166.798075 17.3117805,166.211542 17.3117805,165.519231 C17.3117805,165.339903 17.2958411,165.166826 17.2639621,165 L22.4464453,165 C22.414975,165.166826 22.39924,165.339903 22.39924,165.519231 C22.39924,166.198721 22.6280853,166.782049 23.0857829,167.269231 C23.5434805,167.756413 24.0833209,168 24.7053202,168 C25.3273195,168 25.8671599,167.756413 26.3248575,167.269231 C26.7825551,166.782049 27.0114005,166.198721 27.0114005,165.519231 C27.0114005,165.339903 26.9956654,165.166826 26.9641951,165 L32.1460653,165 C32.114595,165.166826 32.09886,165.339903 32.09886,165.519231 C32.09886,166.198721 32.3277053,166.782049 32.7854029,167.269231 C33.2431005,167.756413 33.7829409,168 34.4049402,168 C35.0152037,168 35.5521101,167.759618 36.0156756,167.278846 C36.4792412,166.798075 36.7110205,166.211542 36.7110205,165.519231 C36.7110205,165.339903 36.695081,165.166826 36.6632021,165 L41.8456853,165 C41.814215,165.166826 41.7984799,165.339903 41.7984799,165.519231 C41.7984799,166.198721 42.0273253,166.782049 42.4850229,167.269231 C42.9427205,167.756413 43.4825609,168 44.1045602,168 C44.7148237,168 45.2517301,167.759618 45.7152956,167.278846 C46.1788612,166.798075 46.4106404,166.211542 46.4106404,165.519231 C46.4106404,165.339903 46.394701,165.166826 46.362822,165 L51.5453053,165 C51.513835,165.166826 51.4980999,165.339903 51.4980999,165.519231 C51.4980999,166.198721 51.7269453,166.782049 52.1846429,167.269231 C52.6423405,167.756413 53.1821809,168 53.8041802,168 C54.4261795,168 54.9660198,167.756413 55.4237174,167.269231 C55.8814151,166.782049 56.1102604,166.198721 56.1102604,165.519231 C56.1102604,165.339903 56.0945254,165.166826 56.0630551,165 L61.2449252,165 C61.213455,165.166826 61.1977199,165.339903 61.1977199,165.519231 C61.1977199,166.198721 61.4265653,166.782049 61.8842629,167.269231 C62.3419605,167.756413 62.8818008,168 63.5038002,168 C64.1140636,168 64.6509701,167.759618 65.1145356,167.278846 C65.5781011,166.798075 65.8098804,166.211542 65.8098804,165.519231 C65.8098804,165.339903 65.793941,165.166826 65.762062,165 L70.9445452,165 C70.913075,165.166826 70.8973399,165.339903 70.8973399,165.519231 C70.8973399,166.198721 71.1261853,166.782049 71.5838829,167.269231 C72.0415805,167.756413 72.5814208,168 73.2034201,168 C73.8136836,168 74.3505901,167.759618 74.8141556,167.278846 C75.2777211,166.798075 75.5095004,166.211542 75.5095004,165.519231 C75.5095004,165.339903 75.493561,165.166826 75.461682,165 L80.6441652,165 C80.6126949,165.166826 80.5969599,165.339903 80.5969599,165.519231 C80.5969599,166.198721 80.8258052,166.782049 81.2835029,167.269231 C81.7412005,167.756413 82.2810408,168 82.9030401,168 C83.5250394,168 84.0648798,167.756413 84.5225774,167.269231 C84.980275,166.782049 85.2091204,166.198721 85.2091204,165.519231 C85.2091204,165.339903 85.1933853,165.166826 85.161915,165 L90.3437852,165 C90.3123149,165.166826 90.2965799,165.339903 90.2965799,165.519231 C90.2965799,166.198721 90.5254252,166.782049 90.9831228,167.269231 C91.4408204,167.756413 91.9806608,168 92.6026601,168 C93.2129236,168 93.74983,167.759618 94.2133956,167.278846 C94.6769611,166.798075 94.9087404,166.211542 94.9087404,165.519231 C94.9087404,165.339903 94.8928009,165.166826 94.860922,165 L100.043405,165 C100.011935,165.166826 99.9961998,165.339903 99.9961998,165.519231 C99.9961998,166.198721 100.225045,166.782049 100.682743,167.269231 C101.14044,167.756413 101.680281,168 102.30228,168 C102.912544,168 103.44945,167.759618 103.913016,167.278846 C104.376581,166.798075 104.60836,166.211542 104.60836,165.519231 C104.60836,165.339903 104.592421,165.166826 104.560542,165 L109.743025,165 C109.711555,165.166826 109.69582,165.339903 109.69582,165.519231 C109.69582,166.198721 109.924665,166.782049 110.382363,167.269231 C110.84006,167.756413 111.379901,168 112.0019,168 C112.623899,168 113.16374,167.756413 113.621437,167.269231 C114.079135,166.782049 114.30798,166.198721 114.30798,165.519231 C114.30798,165.339903 114.292245,165.166826 114.260775,165 L119.442645,165 C119.411175,165.166826 119.39544,165.339903 119.39544,165.519231 C119.39544,166.198721 119.624285,166.782049 120.081983,167.269231 C120.53968,167.756413 121.079521,168 121.70152,168 C122.311784,168 122.84869,167.759618 123.312256,167.278846 C123.775821,166.798075 124.0076,166.211542 124.0076,165.519231 C124.0076,165.339903 123.991661,165.166826 123.959782,165 L129.142265,165 C129.110795,165.166826 129.09506,165.339903 129.09506,165.519231 C129.09506,166.198721 129.323905,166.782049 129.781603,167.269231 C130.2393,167.756413 130.779141,168 131.40114,168 C132.011404,168 132.54831,167.759618 133.011875,167.278846 C133.475441,166.798075 133.70722,166.211542 133.70722,165.519231 C133.70722,165.339903 133.691281,165.166826 133.659402,165 L138.841885,165 C138.810415,165.166826 138.79468,165.339903 138.79468,165.519231 C138.79468,166.198721 139.023525,166.782049 139.481223,167.269231 C139.93892,167.756413 140.478761,168 141.10076,168 C141.722759,168 142.2626,167.756413 142.720297,167.269231 C143.177995,166.782049 143.40684,166.198721 143.40684,165.519231 C143.40684,165.339903 143.391105,165.166826 143.359635,165 L148.541505,165 C148.510035,165.166826 148.4943,165.339903 148.4943,165.519231 C148.4943,166.198721 148.723145,166.782049 149.180843,167.269231 C149.63854,167.756413 150.178381,168 150.80038,168 C151.410643,168 151.94755,167.759618 152.411115,167.278846 C152.874681,166.798075 153.10646,166.211542 153.10646,165.519231 C153.10646,165.339903 153.090521,165.166826 153.058642,165 L158.241125,165 C158.209655,165.166826 158.19392,165.339903 158.19392,165.519231 C158.19392,166.198721 158.422765,166.782049 158.880463,167.269231 C159.33816,167.756413 159.878001,168 160.5,168 C161.110263,168 161.64717,167.759618 162.110735,167.278846 C162.574301,166.798075 162.80608,166.211542 162.80608,165.519231 C162.80608,165.339903 162.790141,165.166826 162.758262,165 L167.940745,165 C167.909275,165.166826 167.89354,165.339903 167.89354,165.519231 C167.89354,166.198721 168.122385,166.782049 168.580083,167.269231 C169.03778,167.756413 169.577621,168 170.19962,168 C170.821619,168 171.36146,167.756413 171.819157,167.269231 C172.276855,166.782049 172.5057,166.198721 172.5057,165.519231 C172.5057,165.339903 172.489965,165.166826 172.458495,165 L177.640365,165 C177.608895,165.166826 177.59316,165.339903 177.59316,165.519231 C177.59316,166.198721 177.822005,166.782049 178.279703,167.269231 C178.7374,167.756413 179.277241,168 179.89924,168 C180.509503,168 181.04641,167.759618 181.509975,167.278846 C181.973541,166.798075 182.20532,166.211542 182.20532,165.519231 C182.20532,165.339903 182.189381,165.166826 182.157502,165 L187.339985,165 C187.308515,165.166826 187.29278,165.339903 187.29278,165.519231 C187.29278,166.198721 187.521625,166.782049 187.979323,167.269231 C188.43702,167.756413 188.976861,168 189.59886,168 C190.209123,168 190.74603,167.759618 191.209595,167.278846 C191.673161,166.798075 191.90494,166.211542 191.90494,165.519231 C191.90494,165.339903 191.889001,165.166826 191.857122,165 L197.039605,165 C197.008135,165.166826 196.9924,165.339903 196.9924,165.519231 C196.9924,166.198721 197.221245,166.782049 197.678943,167.269231 C198.13664,167.756413 198.676481,168 199.29848,168 C199.920479,168 200.46032,167.756413 200.918017,167.269231 C201.375715,166.782049 201.60456,166.198721 201.60456,165.519231 C201.60456,165.339903 201.588825,165.166826 201.557355,165 L206.739225,165 C206.707755,165.166826 206.69202,165.339903 206.69202,165.519231 C206.69202,166.198721 206.920865,166.782049 207.378563,167.269231 C207.83626,167.756413 208.376101,168 208.9981,168 C209.608363,168 210.14527,167.759618 210.608835,167.278846 C211.072401,166.798075 211.30418,166.211542 211.30418,165.519231 C211.30418,165.339903 211.288241,165.166826 211.256362,165 L216.438845,165 C216.407375,165.166826 216.39164,165.339903 216.39164,165.519231 C216.39164,166.198721 216.620485,166.782049 217.078183,167.269231 C217.53588,167.756413 218.075721,168 218.69772,168 C219.307983,168 219.84489,167.759618 220.308455,167.278846 C220.772021,166.798075 221.0038,166.211542 221.0038,165.519231 C221.0038,165.339903 220.987861,165.166826 220.955982,165 L226.138465,165 C226.106995,165.166826 226.09126,165.339903 226.09126,165.519231 C226.09126,166.198721 226.320105,166.782049 226.777803,167.269231 C227.2355,167.756413 227.775341,168 228.39734,168 C229.019339,168 229.55918,167.756413 230.016877,167.269231 C230.474575,166.782049 230.70342,166.198721 230.70342,165.519231 C230.70342,165.339903 230.687685,165.166826 230.656215,165 L235.838085,165 C235.806615,165.166826 235.79088,165.339903 235.79088,165.519231 C235.79088,166.198721 236.019725,166.782049 236.477423,167.269231 C236.93512,167.756413 237.474961,168 238.09696,168 C238.707223,168 239.24413,167.759618 239.707695,167.278846 C240.171261,166.798075 240.40304,166.211542 240.40304,165.519231 C240.40304,165.339903 240.387101,165.166826 240.355222,165 L245.537705,165 C245.506235,165.166826 245.4905,165.339903 245.4905,165.519231 C245.4905,166.198721 245.719345,166.782049 246.177043,167.269231 C246.63474,167.756413 247.174581,168 247.79658,168 C248.406843,168 248.94375,167.759618 249.407315,167.278846 C249.870881,166.798075 250.10266,166.211542 250.10266,165.519231 C250.10266,165.339903 250.086721,165.166826 250.054842,165 L255.237325,165 C255.205855,165.166826 255.19012,165.339903 255.19012,165.519231 C255.19012,166.198721 255.418965,166.782049 255.876663,167.269231 C256.33436,167.756413 256.874201,168 257.4962,168 C258.118199,168 258.65804,167.756413 259.115737,167.269231 C259.573435,166.782049 259.80228,166.198721 259.80228,165.519231 C259.80228,165.339903 259.786545,165.166826 259.755075,165 L264.936945,165 C264.905475,165.166826 264.88974,165.339903 264.88974,165.519231 C264.88974,166.198721 265.118585,166.782049 265.576283,167.269231 C266.03398,167.756413 266.573821,168 267.19582,168 C267.806083,168 268.34299,167.759618 268.806555,167.278846 C269.270121,166.798075 269.5019,166.211542 269.5019,165.519231 C269.5019,165.339903 269.485961,165.166826 269.454082,165 L274.636565,165 C274.605095,165.166826 274.58936,165.339903 274.58936,165.519231 C274.58936,166.198721 274.818205,166.782049 275.275903,167.269231 C275.7336,167.756413 276.273441,168 276.89544,168 C277.505703,168 278.04261,167.759618 278.506175,167.278846 C278.969741,166.798075 279.20152,166.211542 279.20152,165.519231 C279.20152,165.339903 279.185581,165.166826 279.153702,165 L284.336185,165 C284.304715,165.166826 284.28898,165.339903 284.28898,165.519231 C284.28898,166.198721 284.517825,166.782049 284.975523,167.269231 C285.43322,167.756413 285.97306,168 286.59506,168 C287.217059,168 287.756899,167.756413 288.214597,167.269231 C288.672295,166.782049 288.90114,166.198721 288.90114,165.519231 C288.90114,165.339903 288.885405,165.166826 288.853935,165 L294.035805,165 C294.004335,165.166826 293.9886,165.339903 293.9886,165.519231 C293.9886,166.198721 294.217445,166.782049 294.675143,167.269231 C295.13284,167.756413 295.67268,168 296.29468,168 C296.904943,168 297.44185,167.759618 297.905415,167.278846 C298.368981,166.798075 298.60076,166.211542 298.60076,165.519231 C298.60076,165.339903 298.584821,165.166826 298.552942,165 L303.735425,165 C303.703955,165.166826 303.68822,165.339903 303.68822,165.519231 C303.68822,166.198721 303.917065,166.782049 304.374762,167.269231 C304.83246,167.756413 305.3723,168 305.9943,168 C306.604563,168 307.14147,167.759618 307.605035,167.278846 C308.068601,166.798075 308.30038,166.211542 308.30038,165.519231 C308.30038,165.339903 308.284441,165.166826 308.252562,165 L313.435045,165 C313.403575,165.166826 313.387839,165.339903 313.387839,165.519231 C313.387839,166.198721 313.616685,166.782049 314.074382,167.269231 C314.53208,167.756413 315.07192,168 315.69392,168 C316.315919,168 316.855759,167.756413 317.313457,167.269231 C317.771155,166.782049 318,166.198721 318,165.519231 C318,165.339903 317.984265,165.166826 317.952795,165 L320,165 L320,173 L0,173 L0,165 L3.04720534,165 Z" id="Rectangle-2" fill="#F0F6FA"></path>
    </g>
</svg>