<?xml version="1.0" encoding="UTF-8"?>
<svg width="320px" height="600px" viewBox="0 0 320 600" version="1.1" xmlns="http://www.w3.org/2000/svg" xmlns:xlink="http://www.w3.org/1999/xlink">
    <!-- Generator: Sketch 54.1 (76490) - https://sketchapp.com -->
    <title>chuongtrinh</title>
    <desc>Created with Sketch.</desc>
    <g id="chuongtrinh" stroke="none" stroke-width="1" fill="none" fill-rule="evenodd">
        <path d="M3.04720534,9.97597838e-12 C3.01573507,0.16593598 3,0.338089718 3,0.516461538 C3,1.19232817 3.22884537,1.77254459 3.68654298,2.25712821 C4.14424058,2.74171182 4.68408094,2.984 5.30608025,2.984 C5.91634372,2.984 6.45325017,2.74489983 6.91681569,2.26669231 C7.38038122,1.78848479 7.6121605,1.20508037 7.6121605,0.516461538 C7.6121605,0.338089718 7.59622108,0.16593598 7.5643421,9.97589511e-12 L12.7468253,9.97602001e-12 C12.7153551,0.16593598 12.69962,0.338089718 12.69962,0.516461538 C12.69962,1.19232817 12.9284654,1.77254459 13.386163,2.25712821 C13.8438606,2.74171182 14.3837009,2.984 15.0057002,2.984 C15.6159637,2.984 16.1528702,2.74489983 16.6164357,2.26669231 C17.0800012,1.78848479 17.3117805,1.20508037 17.3117805,0.516461538 C17.3117805,0.338089718 17.2958411,0.16593598 17.2639621,9.97589511e-12 L22.4464453,9.97602001e-12 C22.414975,0.16593598 22.39924,0.338089718 22.39924,0.516461538 C22.39924,1.19232817 22.6280853,1.77254459 23.0857829,2.25712821 C23.5434805,2.74171182 24.0833209,2.984 24.7053202,2.984 C25.3273195,2.984 25.8671599,2.74171182 26.3248575,2.25712821 C26.7825551,1.77254459 27.0114005,1.19232817 27.0114005,0.516461538 C27.0114005,0.338089718 26.9956654,0.16593598 26.9641951,9.97589511e-12 L32.1460653,9.97602001e-12 C32.114595,0.16593598 32.09886,0.338089718 32.09886,0.516461538 C32.09886,1.19232817 32.3277053,1.77254459 32.7854029,2.25712821 C33.2431005,2.74171182 33.7829409,2.984 34.4049402,2.984 C35.0152037,2.984 35.5521101,2.74489983 36.0156756,2.26669231 C36.4792412,1.78848479 36.7110205,1.20508037 36.7110205,0.516461538 C36.7110205,0.338089718 36.695081,0.16593598 36.6632021,9.97572858e-12 L41.8456853,9.97602001e-12 C41.814215,0.16593598 41.7984799,0.338089718 41.7984799,0.516461538 C41.7984799,1.19232817 42.0273253,1.77254459 42.4850229,2.25712821 C42.9427205,2.74171182 43.4825609,2.984 44.1045602,2.984 C44.7148237,2.984 45.2517301,2.74489983 45.7152956,2.26669231 C46.1788612,1.78848479 46.4106404,1.20508037 46.4106404,0.516461538 C46.4106404,0.338089718 46.394701,0.16593598 46.362822,9.97589511e-12 L51.5453053,9.97602001e-12 C51.513835,0.16593598 51.4980999,0.338089718 51.4980999,0.516461538 C51.4980999,1.19232817 51.7269453,1.77254459 52.1846429,2.25712821 C52.6423405,2.74171182 53.1821809,2.984 53.8041802,2.984 C54.4261795,2.984 54.9660198,2.74171182 55.4237174,2.25712821 C55.8814151,1.77254459 56.1102604,1.19232817 56.1102604,0.516461538 C56.1102604,0.338089718 56.0945254,0.16593598 56.0630551,9.97589511e-12 L61.2449252,9.97602001e-12 C61.213455,0.16593598 61.1977199,0.338089718 61.1977199,0.516461538 C61.1977199,1.19232817 61.4265653,1.77254459 61.8842629,2.25712821 C62.3419605,2.74171182 62.8818008,2.984 63.5038002,2.984 C64.1140636,2.984 64.6509701,2.74489983 65.1145356,2.26669231 C65.5781011,1.78848479 65.8098804,1.20508037 65.8098804,0.516461538 C65.8098804,0.338089718 65.793941,0.16593598 65.762062,9.97589511e-12 L70.9445452,9.97602001e-12 C70.913075,0.16593598 70.8973399,0.338089718 70.8973399,0.516461538 C70.8973399,1.19232817 71.1261853,1.77254459 71.5838829,2.25712821 C72.0415805,2.74171182 72.5814208,2.984 73.2034201,2.984 C73.8136836,2.984 74.3505901,2.74489983 74.8141556,2.26669231 C75.2777211,1.78848479 75.5095004,1.20508037 75.5095004,0.516461538 C75.5095004,0.338089718 75.493561,0.16593598 75.461682,9.97572858e-12 L80.6441652,9.97602001e-12 C80.6126949,0.16593598 80.5969599,0.338089718 80.5969599,0.516461538 C80.5969599,1.19232817 80.8258052,1.77254459 81.2835029,2.25712821 C81.7412005,2.74171182 82.2810408,2.984 82.9030401,2.984 C83.5250394,2.984 84.0648798,2.74171182 84.5225774,2.25712821 C84.980275,1.77254459 85.2091204,1.19232817 85.2091204,0.516461538 C85.2091204,0.338089718 85.1933853,0.16593598 85.161915,9.97572858e-12 L90.3437852,9.97602001e-12 C90.3123149,0.16593598 90.2965799,0.338089718 90.2965799,0.516461538 C90.2965799,1.19232817 90.5254252,1.77254459 90.9831228,2.25712821 C91.4408204,2.74171182 91.9806608,2.984 92.6026601,2.984 C93.2129236,2.984 93.74983,2.74489983 94.2133956,2.26669231 C94.6769611,1.78848479 94.9087404,1.20508037 94.9087404,0.516461538 C94.9087404,0.338089718 94.8928009,0.16593598 94.860922,9.97589511e-12 L100.043405,9.97602001e-12 C100.011935,0.16593598 99.9961998,0.338089718 99.9961998,0.516461538 C99.9961998,1.19232817 100.225045,1.77254459 100.682743,2.25712821 C101.14044,2.74171182 101.680281,2.984 102.30228,2.984 C102.912544,2.984 103.44945,2.74489983 103.913016,2.26669231 C104.376581,1.78848479 104.60836,1.20508037 104.60836,0.516461538 C104.60836,0.338089718 104.592421,0.16593598 104.560542,9.94408722e-12 L109.743025,9.97602001e-12 C109.711555,0.16593598 109.69582,0.338089718 109.69582,0.516461538 C109.69582,1.19232817 109.924665,1.77254459 110.382363,2.25712821 C110.84006,2.74171182 111.379901,2.984 112.0019,2.984 C112.623899,2.984 113.16374,2.74171182 113.621437,2.25712821 C114.079135,1.77254459 114.30798,1.19232817 114.30798,0.516461538 C114.30798,0.338089718 114.292245,0.16593598 114.260775,9.97572858e-12 L119.442645,9.97602001e-12 C119.411175,0.16593598 119.39544,0.338089718 119.39544,0.516461538 C119.39544,1.19232817 119.624285,1.77254459 120.081983,2.25712821 C120.53968,2.74171182 121.079521,2.984 121.70152,2.984 C122.311784,2.984 122.84869,2.74489983 123.312256,2.26669231 C123.775821,1.78848479 124.0076,1.20508037 124.0076,0.516461538 C124.0076,0.338089718 123.991661,0.16593598 123.959782,9.96046301e-12 L129.142265,9.97602001e-12 C129.110795,0.16593598 129.09506,0.338089718 129.09506,0.516461538 C129.09506,1.19232817 129.323905,1.77254459 129.781603,2.25712821 C130.2393,2.74171182 130.779141,2.984 131.40114,2.984 C132.011404,2.984 132.54831,2.74489983 133.011875,2.26669231 C133.475441,1.78848479 133.70722,1.20508037 133.70722,0.516461538 C133.70722,0.338089718 133.691281,0.16593598 133.659402,9.97572858e-12 L138.841885,9.97602001e-12 C138.810415,0.16593598 138.79468,0.338089718 138.79468,0.516461538 C138.79468,1.19232817 139.023525,1.77254459 139.481223,2.25712821 C139.93892,2.74171182 140.478761,2.984 141.10076,2.984 C141.722759,2.984 142.2626,2.74171182 142.720297,2.25712821 C143.177995,1.77254459 143.40684,1.19232817 143.40684,0.516461538 C143.40684,0.338089718 143.391105,0.16593598 143.359635,9.97589511e-12 L148.541505,9.97602001e-12 C148.510035,0.16593598 148.4943,0.338089718 148.4943,0.516461538 C148.4943,1.19232817 148.723145,1.77254459 149.180843,2.25712821 C149.63854,2.74171182 150.178381,2.984 150.80038,2.984 C151.410643,2.984 151.94755,2.74489983 152.411115,2.26669231 C152.874681,1.78848479 153.10646,1.20508037 153.10646,0.516461538 C153.10646,0.338089718 153.090521,0.16593598 153.058642,9.97589511e-12 L158.241125,9.97602001e-12 C158.209655,0.16593598 158.19392,0.338089718 158.19392,0.516461538 C158.19392,1.19232817 158.422765,1.77254459 158.880463,2.25712821 C159.33816,2.74171182 159.878001,2.984 160.5,2.984 C161.110263,2.984 161.64717,2.74489983 162.110735,2.26669231 C162.574301,1.78848479 162.80608,1.20508037 162.80608,0.516461538 C162.80608,0.338089718 162.790141,0.16593598 162.758262,9.97572858e-12 L167.940745,9.97602001e-12 C167.909275,0.16593598 167.89354,0.338089718 167.89354,0.516461538 C167.89354,1.19232817 168.122385,1.77254459 168.580083,2.25712821 C169.03778,2.74171182 169.577621,2.984 170.19962,2.984 C170.821619,2.984 171.36146,2.74171182 171.819157,2.25712821 C172.276855,1.77254459 172.5057,1.19232817 172.5057,0.516461538 C172.5057,0.338089718 172.489965,0.16593598 172.458495,9.97572858e-12 L177.640365,9.97602001e-12 C177.608895,0.16593598 177.59316,0.338089718 177.59316,0.516461538 C177.59316,1.19232817 177.822005,1.77254459 178.279703,2.25712821 C178.7374,2.74171182 179.277241,2.984 179.89924,2.984 C180.509503,2.984 181.04641,2.74489983 181.509975,2.26669231 C181.973541,1.78848479 182.20532,1.20508037 182.20532,0.516461538 C182.20532,0.338089718 182.189381,0.16593598 182.157502,9.97572858e-12 L187.339985,9.97602001e-12 C187.308515,0.16593598 187.29278,0.338089718 187.29278,0.516461538 C187.29278,1.19232817 187.521625,1.77254459 187.979323,2.25712821 C188.43702,2.74171182 188.976861,2.984 189.59886,2.984 C190.209123,2.984 190.74603,2.74489983 191.209595,2.26669231 C191.673161,1.78848479 191.90494,1.20508037 191.90494,0.516461538 C191.90494,0.338089718 191.889001,0.16593598 191.857122,9.97572858e-12 L197.039605,9.97602001e-12 C197.008135,0.16593598 196.9924,0.338089718 196.9924,0.516461538 C196.9924,1.19232817 197.221245,1.77254459 197.678943,2.25712821 C198.13664,2.74171182 198.676481,2.984 199.29848,2.984 C199.920479,2.984 200.46032,2.74171182 200.918017,2.25712821 C201.375715,1.77254459 201.60456,1.19232817 201.60456,0.516461538 C201.60456,0.338089718 201.588825,0.16593598 201.557355,9.97572858e-12 L206.739225,9.97602001e-12 C206.707755,0.16593598 206.69202,0.338089718 206.69202,0.516461538 C206.69202,1.19232817 206.920865,1.77254459 207.378563,2.25712821 C207.83626,2.74171182 208.376101,2.984 208.9981,2.984 C209.608363,2.984 210.14527,2.74489983 210.608835,2.26669231 C211.072401,1.78848479 211.30418,1.20508037 211.30418,0.516461538 C211.30418,0.338089718 211.288241,0.16593598 211.256362,9.97572858e-12 L216.438845,9.97602001e-12 C216.407375,0.16593598 216.39164,0.338089718 216.39164,0.516461538 C216.39164,1.19232817 216.620485,1.77254459 217.078183,2.25712821 C217.53588,2.74171182 218.075721,2.984 218.69772,2.984 C219.307983,2.984 219.84489,2.74489983 220.308455,2.26669231 C220.772021,1.78848479 221.0038,1.20508037 221.0038,0.516461538 C221.0038,0.338089718 220.987861,0.16593598 220.955982,9.97589511e-12 L226.138465,9.97602001e-12 C226.106995,0.16593598 226.09126,0.338089718 226.09126,0.516461538 C226.09126,1.19232817 226.320105,1.77254459 226.777803,2.25712821 C227.2355,2.74171182 227.775341,2.984 228.39734,2.984 C229.019339,2.984 229.55918,2.74171182 230.016877,2.25712821 C230.474575,1.77254459 230.70342,1.19232817 230.70342,0.516461538 C230.70342,0.338089718 230.687685,0.16593598 230.656215,9.97572858e-12 L235.838085,9.97602001e-12 C235.806615,0.16593598 235.79088,0.338089718 235.79088,0.516461538 C235.79088,1.19232817 236.019725,1.77254459 236.477423,2.25712821 C236.93512,2.74171182 237.474961,2.984 238.09696,2.984 C238.707223,2.984 239.24413,2.74489983 239.707695,2.26669231 C240.171261,1.78848479 240.40304,1.20508037 240.40304,0.516461538 C240.40304,0.338089718 240.387101,0.16593598 240.355222,9.97572858e-12 L245.537705,9.97602001e-12 C245.506235,0.16593598 245.4905,0.338089718 245.4905,0.516461538 C245.4905,1.19232817 245.719345,1.77254459 246.177043,2.25712821 C246.63474,2.74171182 247.174581,2.984 247.79658,2.984 C248.406843,2.984 248.94375,2.74489983 249.407315,2.26669231 C249.870881,1.78848479 250.10266,1.20508037 250.10266,0.516461538 C250.10266,0.338089718 250.086721,0.16593598 250.054842,9.97572858e-12 L255.237325,9.97602001e-12 C255.205855,0.16593598 255.19012,0.338089718 255.19012,0.516461538 C255.19012,1.19232817 255.418965,1.77254459 255.876663,2.25712821 C256.33436,2.74171182 256.874201,2.984 257.4962,2.984 C258.118199,2.984 258.65804,2.74171182 259.115737,2.25712821 C259.573435,1.77254459 259.80228,1.19232817 259.80228,0.516461538 C259.80228,0.338089718 259.786545,0.16593598 259.755075,9.97572858e-12 L264.936945,9.97602001e-12 C264.905475,0.16593598 264.88974,0.338089718 264.88974,0.516461538 C264.88974,1.19232817 265.118585,1.77254459 265.576283,2.25712821 C266.03398,2.74171182 266.573821,2.984 267.19582,2.984 C267.806083,2.984 268.34299,2.74489983 268.806555,2.26669231 C269.270121,1.78848479 269.5019,1.20508037 269.5019,0.516461538 C269.5019,0.338089718 269.485961,0.16593598 269.454082,9.97589511e-12 L274.636565,9.97602001e-12 C274.605095,0.16593598 274.58936,0.338089718 274.58936,0.516461538 C274.58936,1.19232817 274.818205,1.77254459 275.275903,2.25712821 C275.7336,2.74171182 276.273441,2.984 276.89544,2.984 C277.505703,2.984 278.04261,2.74489983 278.506175,2.26669231 C278.969741,1.78848479 279.20152,1.20508037 279.20152,0.516461538 C279.20152,0.338089718 279.185581,0.16593598 279.153702,9.92024518e-12 L284.336185,9.97602001e-12 C284.304715,0.16593598 284.28898,0.338089718 284.28898,0.516461538 C284.28898,1.19232817 284.517825,1.77254459 284.975523,2.25712821 C285.43322,2.74171182 285.97306,2.984 286.59506,2.984 C287.217059,2.984 287.756899,2.74171182 288.214597,2.25712821 C288.672295,1.77254459 288.90114,1.19232817 288.90114,0.516461538 C288.90114,0.338089718 288.885405,0.16593598 288.853935,9.97572858e-12 L294.035805,9.97602001e-12 C294.004335,0.16593598 293.9886,0.338089718 293.9886,0.516461538 C293.9886,1.19232817 294.217445,1.77254459 294.675143,2.25712821 C295.13284,2.74171182 295.67268,2.984 296.29468,2.984 C296.904943,2.984 297.44185,2.74489983 297.905415,2.26669231 C298.368981,1.78848479 298.60076,1.20508037 298.60076,0.516461538 C298.60076,0.338089718 298.584821,0.16593598 298.552942,9.97589511e-12 L303.735425,9.97602001e-12 C303.703955,0.16593598 303.68822,0.338089718 303.68822,0.516461538 C303.68822,1.19232817 303.917065,1.77254459 304.374762,2.25712821 C304.83246,2.74171182 305.3723,2.984 305.9943,2.984 C306.604563,2.984 307.14147,2.74489983 307.605035,2.26669231 C308.068601,1.78848479 308.30038,1.20508037 308.30038,0.516461538 C308.30038,0.338089718 308.284441,0.16593598 308.252562,9.97589511e-12 L313.435045,9.97602001e-12 C313.403575,0.16593598 313.387839,0.338089718 313.387839,0.516461538 C313.387839,1.19232817 313.616685,1.77254459 314.074382,2.25712821 C314.53208,2.74171182 315.07192,2.984 315.69392,2.984 C316.315919,2.984 316.855759,2.74171182 317.313457,2.25712821 C317.771155,1.77254459 318,1.19232817 318,0.516461538 C318,0.338089718 317.984265,0.16593598 317.952795,9.97572858e-12 L320,9.97602001e-12 L320,373 L0,373 L0,9.97602001e-12 L3.04720534,9.97602001e-12 Z" id="Rectangle-2" fill="#F0F6FA"></path>
        <path d="M3.04720534,367 C3.01573507,367.166826 3,367.339903 3,367.519231 C3,368.198721 3.22884537,368.782049 3.68654298,369.269231 C4.14424058,369.756413 4.68408094,370 5.30608025,370 C5.91634372,370 6.45325017,369.759618 6.91681569,369.278846 C7.38038122,368.798075 7.6121605,368.211542 7.6121605,367.519231 C7.6121605,367.339903 7.59622108,367.166826 7.5643421,367 L12.7468253,367 C12.7153551,367.166826 12.69962,367.339903 12.69962,367.519231 C12.69962,368.198721 12.9284654,368.782049 13.386163,369.269231 C13.8438606,369.756413 14.3837009,370 15.0057002,370 C15.6159637,370 16.1528702,369.759618 16.6164357,369.278846 C17.0800012,368.798075 17.3117805,368.211542 17.3117805,367.519231 C17.3117805,367.339903 17.2958411,367.166826 17.2639621,367 L22.4464453,367 C22.414975,367.166826 22.39924,367.339903 22.39924,367.519231 C22.39924,368.198721 22.6280853,368.782049 23.0857829,369.269231 C23.5434805,369.756413 24.0833209,370 24.7053202,370 C25.3273195,370 25.8671599,369.756413 26.3248575,369.269231 C26.7825551,368.782049 27.0114005,368.198721 27.0114005,367.519231 C27.0114005,367.339903 26.9956654,367.166826 26.9641951,367 L32.1460653,367 C32.114595,367.166826 32.09886,367.339903 32.09886,367.519231 C32.09886,368.198721 32.3277053,368.782049 32.7854029,369.269231 C33.2431005,369.756413 33.7829409,370 34.4049402,370 C35.0152037,370 35.5521101,369.759618 36.0156756,369.278846 C36.4792412,368.798075 36.7110205,368.211542 36.7110205,367.519231 C36.7110205,367.339903 36.695081,367.166826 36.6632021,367 L41.8456853,367 C41.814215,367.166826 41.7984799,367.339903 41.7984799,367.519231 C41.7984799,368.198721 42.0273253,368.782049 42.4850229,369.269231 C42.9427205,369.756413 43.4825609,370 44.1045602,370 C44.7148237,370 45.2517301,369.759618 45.7152956,369.278846 C46.1788612,368.798075 46.4106404,368.211542 46.4106404,367.519231 C46.4106404,367.339903 46.394701,367.166826 46.362822,367 L51.5453053,367 C51.513835,367.166826 51.4980999,367.339903 51.4980999,367.519231 C51.4980999,368.198721 51.7269453,368.782049 52.1846429,369.269231 C52.6423405,369.756413 53.1821809,370 53.8041802,370 C54.4261795,370 54.9660198,369.756413 55.4237174,369.269231 C55.8814151,368.782049 56.1102604,368.198721 56.1102604,367.519231 C56.1102604,367.339903 56.0945254,367.166826 56.0630551,367 L61.2449252,367 C61.213455,367.166826 61.1977199,367.339903 61.1977199,367.519231 C61.1977199,368.198721 61.4265653,368.782049 61.8842629,369.269231 C62.3419605,369.756413 62.8818008,370 63.5038002,370 C64.1140636,370 64.6509701,369.759618 65.1145356,369.278846 C65.5781011,368.798075 65.8098804,368.211542 65.8098804,367.519231 C65.8098804,367.339903 65.793941,367.166826 65.762062,367 L70.9445452,367 C70.913075,367.166826 70.8973399,367.339903 70.8973399,367.519231 C70.8973399,368.198721 71.1261853,368.782049 71.5838829,369.269231 C72.0415805,369.756413 72.5814208,370 73.2034201,370 C73.8136836,370 74.3505901,369.759618 74.8141556,369.278846 C75.2777211,368.798075 75.5095004,368.211542 75.5095004,367.519231 C75.5095004,367.339903 75.493561,367.166826 75.461682,367 L80.6441652,367 C80.6126949,367.166826 80.5969599,367.339903 80.5969599,367.519231 C80.5969599,368.198721 80.8258052,368.782049 81.2835029,369.269231 C81.7412005,369.756413 82.2810408,370 82.9030401,370 C83.5250394,370 84.0648798,369.756413 84.5225774,369.269231 C84.980275,368.782049 85.2091204,368.198721 85.2091204,367.519231 C85.2091204,367.339903 85.1933853,367.166826 85.161915,367 L90.3437852,367 C90.3123149,367.166826 90.2965799,367.339903 90.2965799,367.519231 C90.2965799,368.198721 90.5254252,368.782049 90.9831228,369.269231 C91.4408204,369.756413 91.9806608,370 92.6026601,370 C93.2129236,370 93.74983,369.759618 94.2133956,369.278846 C94.6769611,368.798075 94.9087404,368.211542 94.9087404,367.519231 C94.9087404,367.339903 94.8928009,367.166826 94.860922,367 L100.043405,367 C100.011935,367.166826 99.9961998,367.339903 99.9961998,367.519231 C99.9961998,368.198721 100.225045,368.782049 100.682743,369.269231 C101.14044,369.756413 101.680281,370 102.30228,370 C102.912544,370 103.44945,369.759618 103.913016,369.278846 C104.376581,368.798075 104.60836,368.211542 104.60836,367.519231 C104.60836,367.339903 104.592421,367.166826 104.560542,367 L109.743025,367 C109.711555,367.166826 109.69582,367.339903 109.69582,367.519231 C109.69582,368.198721 109.924665,368.782049 110.382363,369.269231 C110.84006,369.756413 111.379901,370 112.0019,370 C112.623899,370 113.16374,369.756413 113.621437,369.269231 C114.079135,368.782049 114.30798,368.198721 114.30798,367.519231 C114.30798,367.339903 114.292245,367.166826 114.260775,367 L119.442645,367 C119.411175,367.166826 119.39544,367.339903 119.39544,367.519231 C119.39544,368.198721 119.624285,368.782049 120.081983,369.269231 C120.53968,369.756413 121.079521,370 121.70152,370 C122.311784,370 122.84869,369.759618 123.312256,369.278846 C123.775821,368.798075 124.0076,368.211542 124.0076,367.519231 C124.0076,367.339903 123.991661,367.166826 123.959782,367 L129.142265,367 C129.110795,367.166826 129.09506,367.339903 129.09506,367.519231 C129.09506,368.198721 129.323905,368.782049 129.781603,369.269231 C130.2393,369.756413 130.779141,370 131.40114,370 C132.011404,370 132.54831,369.759618 133.011875,369.278846 C133.475441,368.798075 133.70722,368.211542 133.70722,367.519231 C133.70722,367.339903 133.691281,367.166826 133.659402,367 L138.841885,367 C138.810415,367.166826 138.79468,367.339903 138.79468,367.519231 C138.79468,368.198721 139.023525,368.782049 139.481223,369.269231 C139.93892,369.756413 140.478761,370 141.10076,370 C141.722759,370 142.2626,369.756413 142.720297,369.269231 C143.177995,368.782049 143.40684,368.198721 143.40684,367.519231 C143.40684,367.339903 143.391105,367.166826 143.359635,367 L148.541505,367 C148.510035,367.166826 148.4943,367.339903 148.4943,367.519231 C148.4943,368.198721 148.723145,368.782049 149.180843,369.269231 C149.63854,369.756413 150.178381,370 150.80038,370 C151.410643,370 151.94755,369.759618 152.411115,369.278846 C152.874681,368.798075 153.10646,368.211542 153.10646,367.519231 C153.10646,367.339903 153.090521,367.166826 153.058642,367 L158.241125,367 C158.209655,367.166826 158.19392,367.339903 158.19392,367.519231 C158.19392,368.198721 158.422765,368.782049 158.880463,369.269231 C159.33816,369.756413 159.878001,370 160.5,370 C161.110263,370 161.64717,369.759618 162.110735,369.278846 C162.574301,368.798075 162.80608,368.211542 162.80608,367.519231 C162.80608,367.339903 162.790141,367.166826 162.758262,367 L167.940745,367 C167.909275,367.166826 167.89354,367.339903 167.89354,367.519231 C167.89354,368.198721 168.122385,368.782049 168.580083,369.269231 C169.03778,369.756413 169.577621,370 170.19962,370 C170.821619,370 171.36146,369.756413 171.819157,369.269231 C172.276855,368.782049 172.5057,368.198721 172.5057,367.519231 C172.5057,367.339903 172.489965,367.166826 172.458495,367 L177.640365,367 C177.608895,367.166826 177.59316,367.339903 177.59316,367.519231 C177.59316,368.198721 177.822005,368.782049 178.279703,369.269231 C178.7374,369.756413 179.277241,370 179.89924,370 C180.509503,370 181.04641,369.759618 181.509975,369.278846 C181.973541,368.798075 182.20532,368.211542 182.20532,367.519231 C182.20532,367.339903 182.189381,367.166826 182.157502,367 L187.339985,367 C187.308515,367.166826 187.29278,367.339903 187.29278,367.519231 C187.29278,368.198721 187.521625,368.782049 187.979323,369.269231 C188.43702,369.756413 188.976861,370 189.59886,370 C190.209123,370 190.74603,369.759618 191.209595,369.278846 C191.673161,368.798075 191.90494,368.211542 191.90494,367.519231 C191.90494,367.339903 191.889001,367.166826 191.857122,367 L197.039605,367 C197.008135,367.166826 196.9924,367.339903 196.9924,367.519231 C196.9924,368.198721 197.221245,368.782049 197.678943,369.269231 C198.13664,369.756413 198.676481,370 199.29848,370 C199.920479,370 200.46032,369.756413 200.918017,369.269231 C201.375715,368.782049 201.60456,368.198721 201.60456,367.519231 C201.60456,367.339903 201.588825,367.166826 201.557355,367 L206.739225,367 C206.707755,367.166826 206.69202,367.339903 206.69202,367.519231 C206.69202,368.198721 206.920865,368.782049 207.378563,369.269231 C207.83626,369.756413 208.376101,370 208.9981,370 C209.608363,370 210.14527,369.759618 210.608835,369.278846 C211.072401,368.798075 211.30418,368.211542 211.30418,367.519231 C211.30418,367.339903 211.288241,367.166826 211.256362,367 L216.438845,367 C216.407375,367.166826 216.39164,367.339903 216.39164,367.519231 C216.39164,368.198721 216.620485,368.782049 217.078183,369.269231 C217.53588,369.756413 218.075721,370 218.69772,370 C219.307983,370 219.84489,369.759618 220.308455,369.278846 C220.772021,368.798075 221.0038,368.211542 221.0038,367.519231 C221.0038,367.339903 220.987861,367.166826 220.955982,367 L226.138465,367 C226.106995,367.166826 226.09126,367.339903 226.09126,367.519231 C226.09126,368.198721 226.320105,368.782049 226.777803,369.269231 C227.2355,369.756413 227.775341,370 228.39734,370 C229.019339,370 229.55918,369.756413 230.016877,369.269231 C230.474575,368.782049 230.70342,368.198721 230.70342,367.519231 C230.70342,367.339903 230.687685,367.166826 230.656215,367 L235.838085,367 C235.806615,367.166826 235.79088,367.339903 235.79088,367.519231 C235.79088,368.198721 236.019725,368.782049 236.477423,369.269231 C236.93512,369.756413 237.474961,370 238.09696,370 C238.707223,370 239.24413,369.759618 239.707695,369.278846 C240.171261,368.798075 240.40304,368.211542 240.40304,367.519231 C240.40304,367.339903 240.387101,367.166826 240.355222,367 L245.537705,367 C245.506235,367.166826 245.4905,367.339903 245.4905,367.519231 C245.4905,368.198721 245.719345,368.782049 246.177043,369.269231 C246.63474,369.756413 247.174581,370 247.79658,370 C248.406843,370 248.94375,369.759618 249.407315,369.278846 C249.870881,368.798075 250.10266,368.211542 250.10266,367.519231 C250.10266,367.339903 250.086721,367.166826 250.054842,367 L255.237325,367 C255.205855,367.166826 255.19012,367.339903 255.19012,367.519231 C255.19012,368.198721 255.418965,368.782049 255.876663,369.269231 C256.33436,369.756413 256.874201,370 257.4962,370 C258.118199,370 258.65804,369.756413 259.115737,369.269231 C259.573435,368.782049 259.80228,368.198721 259.80228,367.519231 C259.80228,367.339903 259.786545,367.166826 259.755075,367 L264.936945,367 C264.905475,367.166826 264.88974,367.339903 264.88974,367.519231 C264.88974,368.198721 265.118585,368.782049 265.576283,369.269231 C266.03398,369.756413 266.573821,370 267.19582,370 C267.806083,370 268.34299,369.759618 268.806555,369.278846 C269.270121,368.798075 269.5019,368.211542 269.5019,367.519231 C269.5019,367.339903 269.485961,367.166826 269.454082,367 L274.636565,367 C274.605095,367.166826 274.58936,367.339903 274.58936,367.519231 C274.58936,368.198721 274.818205,368.782049 275.275903,369.269231 C275.7336,369.756413 276.273441,370 276.89544,370 C277.505703,370 278.04261,369.759618 278.506175,369.278846 C278.969741,368.798075 279.20152,368.211542 279.20152,367.519231 C279.20152,367.339903 279.185581,367.166826 279.153702,367 L284.336185,367 C284.304715,367.166826 284.28898,367.339903 284.28898,367.519231 C284.28898,368.198721 284.517825,368.782049 284.975523,369.269231 C285.43322,369.756413 285.97306,370 286.59506,370 C287.217059,370 287.756899,369.756413 288.214597,369.269231 C288.672295,368.782049 288.90114,368.198721 288.90114,367.519231 C288.90114,367.339903 288.885405,367.166826 288.853935,367 L294.035805,367 C294.004335,367.166826 293.9886,367.339903 293.9886,367.519231 C293.9886,368.198721 294.217445,368.782049 294.675143,369.269231 C295.13284,369.756413 295.67268,370 296.29468,370 C296.904943,370 297.44185,369.759618 297.905415,369.278846 C298.368981,368.798075 298.60076,368.211542 298.60076,367.519231 C298.60076,367.339903 298.584821,367.166826 298.552942,367 L303.735425,367 C303.703955,367.166826 303.68822,367.339903 303.68822,367.519231 C303.68822,368.198721 303.917065,368.782049 304.374762,369.269231 C304.83246,369.756413 305.3723,370 305.9943,370 C306.604563,370 307.14147,369.759618 307.605035,369.278846 C308.068601,368.798075 308.30038,368.211542 308.30038,367.519231 C308.30038,367.339903 308.284441,367.166826 308.252562,367 L313.435045,367 C313.403575,367.166826 313.387839,367.339903 313.387839,367.519231 C313.387839,368.198721 313.616685,368.782049 314.074382,369.269231 C314.53208,369.756413 315.07192,370 315.69392,370 C316.315919,370 316.855759,369.756413 317.313457,369.269231 C317.771155,368.782049 318,368.198721 318,367.519231 C318,367.339903 317.984265,367.166826 317.952795,367 L320,367 L320,375 L0,375 L0,367 L3.04720534,367 Z" id="Rectangle-2" fill="#FFFFFF"></path>
        <text id="Tìm-hiểu" font-family="SFCompactDisplay-Semibold, SF Compact Display" font-size="26" font-weight="500" letter-spacing="-1.56" fill="#343D51">
            <tspan x="30" y="69">Tìm hiểu</tspan>
        </text>
        <text id="Chương-trình-của-mỗi" font-family="SFCompactDisplay-Regular, SF Compact Display" font-size="16" font-weight="normal" line-spacing="21" fill="#343D51">
            <tspan x="30" y="110">Chương trình của mỗi Thành viên </tspan>
            <tspan x="30" y="131">gồm 03 bước</tspan>
        </text>
        <text id="Ghép-đôi" font-family="SFCompactDisplay-Semibold, SF Compact Display" font-size="18" font-weight="500" letter-spacing="-0.720000029" fill="#8C96A8">
            <tspan x="80" y="187">Ghép đôi</tspan>
        </text>
        <path d="M274.499982,183 C274.302839,183 274.105721,182.927972 273.955418,182.784218 L269.225656,178.258317 C268.924781,177.970413 268.924781,177.503627 269.225656,177.21584 C269.526409,176.928053 270.014128,176.928053 270.315027,177.21584 L274.499982,181.220608 L278.684961,177.21598 C278.985835,176.928193 279.473506,176.928193 279.774234,177.21598 C280.075255,177.503767 280.075255,177.970553 279.774234,178.258457 L275.044546,182.784358 C274.894169,182.928135 274.697051,183 274.499982,183 Z" id="Path" fill="#8C96A8" fill-rule="nonzero"></path>
        <text id="01" font-family="Oswald-Regular_Medium, Oswald" font-size="28" font-weight="400" fill="#F8BBD0">
            <tspan x="30" y="190">01</tspan>
        </text>
        <text id="………………………………………………" font-family="Georgia-Italic, Georgia" font-size="14" font-style="italic" font-weight="normal" fill="#DADFE7">
            <tspan x="80" y="212">………………………………………………</tspan>
        </text>
        <text id="Thử-thách-&amp;-kết-nối" font-family="SFCompactDisplay-Semibold, SF Compact Display" font-size="18" font-weight="500" letter-spacing="-0.720000029" fill="#8C96A8">
            <tspan x="80" y="257">Thử thách &amp; kết nối</tspan>
        </text>
        <path d="M274.499982,253 C274.302839,253 274.105721,252.927972 273.955418,252.784218 L269.225656,248.258317 C268.924781,247.970413 268.924781,247.503627 269.225656,247.21584 C269.526409,246.928053 270.014128,246.928053 270.315027,247.21584 L274.499982,251.220608 L278.684961,247.21598 C278.985835,246.928193 279.473506,246.928193 279.774234,247.21598 C280.075255,247.503767 280.075255,247.970553 279.774234,248.258457 L275.044546,252.784358 C274.894169,252.928135 274.697051,253 274.499982,253 Z" id="Path" fill="#8C96A8" fill-rule="nonzero"></path>
        <text id="02" font-family="Oswald-Regular_Medium, Oswald" font-size="28" font-weight="400" fill="#D1C4E9">
            <tspan x="30" y="260">02</tspan>
        </text>
        <text id="………………………………………………" font-family="Georgia-Italic, Georgia" font-size="14" font-style="italic" font-weight="normal" fill="#DADFE7">
            <tspan x="80" y="282">………………………………………………</tspan>
        </text>
        <text id="Hoàn-thành" font-family="SFCompactDisplay-Semibold, SF Compact Display" font-size="18" font-weight="500" letter-spacing="-0.720000029" fill="#8C96A8">
            <tspan x="80" y="327">Hoàn thành</tspan>
        </text>
        <path d="M274.499982,323 C274.302839,323 274.105721,322.927972 273.955418,322.784218 L269.225656,318.258317 C268.924781,317.970413 268.924781,317.503627 269.225656,317.21584 C269.526409,316.928053 270.014128,316.928053 270.315027,317.21584 L274.499982,321.220608 L278.684961,317.21598 C278.985835,316.928193 279.473506,316.928193 279.774234,317.21598 C280.075255,317.503767 280.075255,317.970553 279.774234,318.258457 L275.044546,322.784358 C274.894169,322.928135 274.697051,323 274.499982,323 Z" id="Path" fill="#8C96A8" fill-rule="nonzero"></path>
        <text id="03" font-family="Oswald-Regular_Medium, Oswald" font-size="28" font-weight="400" fill="#BBDEFB">
            <tspan x="30" y="330">03</tspan>
        </text>
        <text id="01" font-family="Oswald-Regular_Medium, Oswald" font-size="40" font-weight="400" letter-spacing="-2" fill="#343D51">
            <tspan x="30" y="459">01</tspan>
        </text>
        <text id="Ngầm-ghép-đôi" font-family="SFCompactDisplay-Semibold, SF Compact Display" font-size="18" font-weight="500" line-spacing="22" letter-spacing="-0.720000029" fill="#343D51">
            <tspan x="30" y="500">Ngầm ghép đôi</tspan>
        </text>
        <text id="Dựa-trên-mong-muốn-c" font-family="SFCompactDisplay-Regular, SF Compact Display" font-size="16" font-weight="normal" line-spacing="21" fill="#556279">
            <tspan x="30" y="532">Dựa trên mong muốn cơ bản về người </tspan>
            <tspan x="30" y="553">mình muốn tìm, Chương trình đề cử </tspan>
            <tspan x="30" y="574">với Thành viên những lượt Ghép đôi.</tspan>
        </text>
    </g>
</svg>