<?xml version="1.0" encoding="UTF-8"?>
<svg width="320px" height="429px" viewBox="0 0 320 429" version="1.1" xmlns="http://www.w3.org/2000/svg" xmlns:xlink="http://www.w3.org/1999/xlink">
    <!-- Generator: Sketch 54.1 (76490) - https://sketchapp.com -->
    <title>lienhe</title>
    <desc>Created with Sketch.</desc>
    <defs>
        <path d="M46.4227295,381.657593 C42.1452332,382.114136 37.8547668,382.114136 33.5772705,381.657593 C31.871643,381.475555 30.5244446,380.128357 30.3424072,378.422577 C29.8858643,374.145081 29.8858643,369.854767 30.3424072,365.577271 C30.5244446,363.871643 31.871643,362.524445 33.5772705,362.342407 C37.8547668,361.885864 42.1450805,361.885864 46.4225769,362.342407 C48.128357,362.524445 49.4755554,363.871643 49.6575928,365.577271 C50.1141357,369.854767 50.1141357,374.145081 49.6575928,378.422577 C49.4755554,380.128357 48.1285095,381.475555 46.4227295,381.657593 Z M40.2908325,381.999084 C41.4561463,381.993439 42.6213074,381.953918 43.7860107,381.880676 L43.7860107,373.760712 L46.1050415,373.760712 L46.3851929,370.842773 L43.7860107,370.842773 L43.7860107,368.989899 C43.7860107,368.580658 44.1177368,368.248932 44.5269775,368.248932 L46.3851929,368.248932 L46.3851929,365.330841 L43.4458923,365.330841 C41.7033386,365.330841 40.2908325,366.7435 40.2908325,368.486053 L40.2908325,370.842773 L38.5928345,370.842773 L38.5928345,373.760712 L40.2908325,373.760712 L40.2908325,381.999084 Z" id="path-1"></path>
        <filter x="-10.0%" y="-10.0%" width="120.0%" height="120.0%" filterUnits="objectBoundingBox" id="filter-2">
            <feGaussianBlur stdDeviation="1.5" in="SourceAlpha" result="shadowBlurInner1"></feGaussianBlur>
            <feOffset dx="-1" dy="1" in="shadowBlurInner1" result="shadowOffsetInner1"></feOffset>
            <feComposite in="shadowOffsetInner1" in2="SourceAlpha" operator="arithmetic" k2="-1" k3="1" result="shadowInnerInner1"></feComposite>
            <feColorMatrix values="0 0 0 0 0   0 0 0 0 0   0 0 0 0 0  0 0 0 0.5 0" type="matrix" in="shadowInnerInner1"></feColorMatrix>
        </filter>
        <path d="M39.4996039,148 C44.7376958,148 48.9994718,152.29413 49,157.572253 C49,158.948993 48.7205999,160.263468 48.169194,161.479491 C45.7932367,166.716903 41.2393845,172.245681 39.9004823,173.815069 C39.8001307,173.932414 39.6538285,174 39.499868,174 C39.3459074,174 39.1996053,173.932414 39.0992536,173.815069 C37.7598232,172.245415 33.2059711,166.716371 30.830806,161.479491 C30.2796642,160.263468 30,158.948993 30,157.572253 C30,152.29413 34.261776,148 39.4996039,148 Z M39.4996039,162.544109 C42.220718,162.544109 44.4345282,160.313493 44.4342641,157.571987 C44.4342641,154.830215 42.2204539,152.599599 39.4996039,152.599599 C36.7787538,152.599599 34.5649436,154.830215 34.5649436,157.571987 C34.5649436,160.313493 36.7787538,162.544109 39.4996039,162.544109 Z" id="path-3"></path>
        <filter x="-10.5%" y="-7.7%" width="121.1%" height="115.4%" filterUnits="objectBoundingBox" id="filter-4">
            <feGaussianBlur stdDeviation="1.5" in="SourceAlpha" result="shadowBlurInner1"></feGaussianBlur>
            <feOffset dx="-1" dy="1" in="shadowBlurInner1" result="shadowOffsetInner1"></feOffset>
            <feComposite in="shadowOffsetInner1" in2="SourceAlpha" operator="arithmetic" k2="-1" k3="1" result="shadowInnerInner1"></feComposite>
            <feColorMatrix values="0 0 0 0 0   0 0 0 0 0   0 0 0 0 0  0 0 0 0.5 0" type="matrix" in="shadowInnerInner1"></feColorMatrix>
        </filter>
        <path d="M40.5,257 C44.9272842,257 48.5294495,260.602165 48.5294495,265.029449 C48.5294495,268.748573 48.5294495,271.196693 48.5294495,274.911812 C48.5294495,275.933517 47.6982422,276.764725 46.6765366,276.764725 L42.2391586,276.764725 C41.9832916,277.482018 41.3041306,278 40.5,278 C39.4782944,278 38.6470871,277.168793 38.6470871,276.147087 C38.6470871,275.125381 39.4782944,274.294174 40.5,274.294174 C41.3041306,274.294174 41.9832916,274.811996 42.2391586,275.529449 L46.6765366,275.529449 C47.0166778,275.529449 47.2941742,275.252594 47.2941742,274.911812 L47.2941742,274.18042 C47.0999908,274.249634 46.8941116,274.294174 46.6765366,274.294174 C45.6546707,274.294174 44.8234634,273.462967 44.8234634,272.441101 L44.8234634,266.264725 C44.8234634,265.243019 45.6546707,264.411812 46.6765366,264.411812 C46.8841782,264.411812 47.0820465,264.448822 47.2678985,264.512428 C47.0019379,261.007515 44.0710831,258.235275 40.5,258.235275 C36.9269943,258.235275 33.9953384,261.010078 33.731781,264.517395 C33.9187546,264.453949 34.1155014,264.411812 34.3234634,264.411812 C35.3453293,264.411812 36.1765366,265.243019 36.1765366,266.264725 L36.1765366,272.441101 C36.1765366,273.462967 35.3453293,274.294174 34.3234634,274.294174 C33.3017578,274.294174 32.4705505,273.462967 32.4705505,272.441101 L32.4705505,265.029449 C32.4705505,260.602165 36.0727158,257 40.5,257 Z M49.7647247,265.760841 C50.4820175,266.016708 51,266.695869 51,267.5 L51,271.205826 C51,272.010117 50.4820175,272.689278 49.7647247,272.944984 L49.7647247,265.760841 Z M30,267.5 C30,266.695869 30.5179825,266.016708 31.2352753,265.760841 L31.2352753,272.944984 C30.5179825,272.689278 30,272.010117 30,271.205826 L30,267.5 Z" id="path-5"></path>
        <filter x="-9.5%" y="-9.5%" width="119.0%" height="119.0%" filterUnits="objectBoundingBox" id="filter-6">
            <feGaussianBlur stdDeviation="1.5" in="SourceAlpha" result="shadowBlurInner1"></feGaussianBlur>
            <feOffset dx="-1" dy="1" in="shadowBlurInner1" result="shadowOffsetInner1"></feOffset>
            <feComposite in="shadowOffsetInner1" in2="SourceAlpha" operator="arithmetic" k2="-1" k3="1" result="shadowInnerInner1"></feComposite>
            <feColorMatrix values="0 0 0 0 0   0 0 0 0 0   0 0 0 0 0  0 0 0 0.5 0" type="matrix" in="shadowInnerInner1"></feColorMatrix>
        </filter>
    </defs>
    <g id="lienhe" stroke="none" stroke-width="1" fill="none" fill-rule="evenodd">
        <path d="M3.04720534,1.09127291e-11 C3.01573507,0.166825717 3,0.339902531 3,0.519230769 C3,1.19872135 3.22884537,1.78204885 3.68654298,2.26923077 C4.14424058,2.75641269 4.68408094,3 5.30608025,3 C5.91634372,3 6.45325017,2.75961779 6.91681569,2.27884615 C7.38038122,1.79807452 7.6121605,1.21154192 7.6121605,0.519230769 C7.6121605,0.339902531 7.59622108,0.166825717 7.5643421,1.09138254e-11 L12.7468253,1.09139364e-11 C12.7153551,0.166825717 12.69962,0.339902531 12.69962,0.519230769 C12.69962,1.19872135 12.9284654,1.78204885 13.386163,2.26923077 C13.8438606,2.75641269 14.3837009,3 15.0057002,3 C15.6159637,3 16.1528702,2.75961779 16.6164357,2.27884615 C17.0800012,1.79807452 17.3117805,1.21154192 17.3117805,0.519230769 C17.3117805,0.339902531 17.2958411,0.166825717 17.2639621,1.09138254e-11 L22.4464453,1.09139364e-11 C22.414975,0.166825717 22.39924,0.339902531 22.39924,0.519230769 C22.39924,1.19872135 22.6280853,1.78204885 23.0857829,2.26923077 C23.5434805,2.75641269 24.0833209,3 24.7053202,3 C25.3273195,3 25.8671599,2.75641269 26.3248575,2.26923077 C26.7825551,1.78204885 27.0114005,1.19872135 27.0114005,0.519230769 C27.0114005,0.339902531 26.9956654,0.166825717 26.9641951,1.09138254e-11 L32.1460653,1.09139364e-11 C32.114595,0.166825717 32.09886,0.339902531 32.09886,0.519230769 C32.09886,1.19872135 32.3277053,1.78204885 32.7854029,2.26923077 C33.2431005,2.75641269 33.7829409,3 34.4049402,3 C35.0152037,3 35.5521101,2.75961779 36.0156756,2.27884615 C36.4792412,1.79807452 36.7110205,1.21154192 36.7110205,0.519230769 C36.7110205,0.339902531 36.695081,0.166825717 36.6632021,1.09140058e-11 L41.8456853,1.09139364e-11 C41.814215,0.166825717 41.7984799,0.339902531 41.7984799,0.519230769 C41.7984799,1.19872135 42.0273253,1.78204885 42.4850229,2.26923077 C42.9427205,2.75641269 43.4825609,3 44.1045602,3 C44.7148237,3 45.2517301,2.75961779 45.7152956,2.27884615 C46.1788612,1.79807452 46.4106404,1.21154192 46.4106404,0.519230769 C46.4106404,0.339902531 46.394701,0.166825717 46.362822,1.09138254e-11 L51.5453053,1.09139364e-11 C51.513835,0.166825717 51.4980999,0.339902531 51.4980999,0.519230769 C51.4980999,1.19872135 51.7269453,1.78204885 52.1846429,2.26923077 C52.6423405,2.75641269 53.1821809,3 53.8041802,3 C54.4261795,3 54.9660198,2.75641269 55.4237174,2.26923077 C55.8814151,1.78204885 56.1102604,1.19872135 56.1102604,0.519230769 C56.1102604,0.339902531 56.0945254,0.166825717 56.0630551,1.09138254e-11 L61.2449252,1.09139364e-11 C61.213455,0.166825717 61.1977199,0.339902531 61.1977199,0.519230769 C61.1977199,1.19872135 61.4265653,1.78204885 61.8842629,2.26923077 C62.3419605,2.75641269 62.8818008,3 63.5038002,3 C64.1140636,3 64.6509701,2.75961779 65.1145356,2.27884615 C65.5781011,1.79807452 65.8098804,1.21154192 65.8098804,0.519230769 C65.8098804,0.339902531 65.793941,0.166825717 65.762062,1.09140058e-11 L70.9445452,1.09139364e-11 C70.913075,0.166825717 70.8973399,0.339902531 70.8973399,0.519230769 C70.8973399,1.19872135 71.1261853,1.78204885 71.5838829,2.26923077 C72.0415805,2.75641269 72.5814208,3 73.2034201,3 C73.8136836,3 74.3505901,2.75961779 74.8141556,2.27884615 C75.2777211,1.79807452 75.5095004,1.21154192 75.5095004,0.519230769 C75.5095004,0.339902531 75.493561,0.166825717 75.461682,1.08820175e-11 L80.6441652,1.09139364e-11 C80.6126949,0.166825717 80.5969599,0.339902531 80.5969599,0.519230769 C80.5969599,1.19872135 80.8258052,1.78204885 81.2835029,2.26923077 C81.7412005,2.75641269 82.2810408,3 82.9030401,3 C83.5250394,3 84.0648798,2.75641269 84.5225774,2.26923077 C84.980275,1.78204885 85.2091204,1.19872135 85.2091204,0.519230769 C85.2091204,0.339902531 85.1933853,0.166825717 85.161915,1.09138254e-11 L90.3437852,1.09139364e-11 C90.3123149,0.166825717 90.2965799,0.339902531 90.2965799,0.519230769 C90.2965799,1.19872135 90.5254252,1.78204885 90.9831228,2.26923077 C91.4408204,2.75641269 91.9806608,3 92.6026601,3 C93.2129236,3 93.74983,2.75961779 94.2133956,2.27884615 C94.6769611,1.79807452 94.9087404,1.21154192 94.9087404,0.519230769 C94.9087404,0.339902531 94.8928009,0.166825717 94.860922,1.09138254e-11 L100.043405,1.09139364e-11 C100.011935,0.166825717 99.9961998,0.339902531 99.9961998,0.519230769 C99.9961998,1.19872135 100.225045,1.78204885 100.682743,2.26923077 C101.14044,2.75641269 101.680281,3 102.30228,3 C102.912544,3 103.44945,2.75961779 103.913016,2.27884615 C104.376581,1.79807452 104.60836,1.21154192 104.60836,0.519230769 C104.60836,0.339902531 104.592421,0.166825717 104.560542,1.09140058e-11 L109.743025,1.09139364e-11 C109.711555,0.166825717 109.69582,0.339902531 109.69582,0.519230769 C109.69582,1.19872135 109.924665,1.78204885 110.382363,2.26923077 C110.84006,2.75641269 111.379901,3 112.0019,3 C112.623899,3 113.16374,2.75641269 113.621437,2.26923077 C114.079135,1.78204885 114.30798,1.19872135 114.30798,0.519230769 C114.30798,0.339902531 114.292245,0.166825717 114.260775,1.09138254e-11 L119.442645,1.09139364e-11 C119.411175,0.166825717 119.39544,0.339902531 119.39544,0.519230769 C119.39544,1.19872135 119.624285,1.78204885 120.081983,2.26923077 C120.53968,2.75641269 121.079521,3 121.70152,3 C122.311784,3 122.84869,2.75961779 123.312256,2.27884615 C123.775821,1.79807452 124.0076,1.21154192 124.0076,0.519230769 C124.0076,0.339902531 123.991661,0.166825717 123.959782,1.09138254e-11 L129.142265,1.09139364e-11 C129.110795,0.166825717 129.09506,0.339902531 129.09506,0.519230769 C129.09506,1.19872135 129.323905,1.78204885 129.781603,2.26923077 C130.2393,2.75641269 130.779141,3 131.40114,3 C132.011404,3 132.54831,2.75961779 133.011875,2.27884615 C133.475441,1.79807452 133.70722,1.21154192 133.70722,0.519230769 C133.70722,0.339902531 133.691281,0.166825717 133.659402,1.09140058e-11 L138.841885,1.09139364e-11 C138.810415,0.166825717 138.79468,0.339902531 138.79468,0.519230769 C138.79468,1.19872135 139.023525,1.78204885 139.481223,2.26923077 C139.93892,2.75641269 140.478761,3 141.10076,3 C141.722759,3 142.2626,2.75641269 142.720297,2.26923077 C143.177995,1.78204885 143.40684,1.19872135 143.40684,0.519230769 C143.40684,0.339902531 143.391105,0.166825717 143.359635,1.09138254e-11 L148.541505,1.09139364e-11 C148.510035,0.166825717 148.4943,0.339902531 148.4943,0.519230769 C148.4943,1.19872135 148.723145,1.78204885 149.180843,2.26923077 C149.63854,2.75641269 150.178381,3 150.80038,3 C151.410643,3 151.94755,2.75961779 152.411115,2.27884615 C152.874681,1.79807452 153.10646,1.21154192 153.10646,0.519230769 C153.10646,0.339902531 153.090521,0.166825717 153.058642,1.09138254e-11 L158.241125,1.09139364e-11 C158.209655,0.166825717 158.19392,0.339902531 158.19392,0.519230769 C158.19392,1.19872135 158.422765,1.78204885 158.880463,2.26923077 C159.33816,2.75641269 159.878001,3 160.5,3 C161.110263,3 161.64717,2.75961779 162.110735,2.27884615 C162.574301,1.79807452 162.80608,1.21154192 162.80608,0.519230769 C162.80608,0.339902531 162.790141,0.166825717 162.758262,1.09138254e-11 L167.940745,1.09139364e-11 C167.909275,0.166825717 167.89354,0.339902531 167.89354,0.519230769 C167.89354,1.19872135 168.122385,1.78204885 168.580083,2.26923077 C169.03778,2.75641269 169.577621,3 170.19962,3 C170.821619,3 171.36146,2.75641269 171.819157,2.26923077 C172.276855,1.78204885 172.5057,1.19872135 172.5057,0.519230769 C172.5057,0.339902531 172.489965,0.166825717 172.458495,1.09140058e-11 L177.640365,1.09139364e-11 C177.608895,0.166825717 177.59316,0.339902531 177.59316,0.519230769 C177.59316,1.19872135 177.822005,1.78204885 178.279703,2.26923077 C178.7374,2.75641269 179.277241,3 179.89924,3 C180.509503,3 181.04641,2.75961779 181.509975,2.27884615 C181.973541,1.79807452 182.20532,1.21154192 182.20532,0.519230769 C182.20532,0.339902531 182.189381,0.166825717 182.157502,1.09138254e-11 L187.339985,1.09139364e-11 C187.308515,0.166825717 187.29278,0.339902531 187.29278,0.519230769 C187.29278,1.19872135 187.521625,1.78204885 187.979323,2.26923077 C188.43702,2.75641269 188.976861,3 189.59886,3 C190.209123,3 190.74603,2.75961779 191.209595,2.27884615 C191.673161,1.79807452 191.90494,1.21154192 191.90494,0.519230769 C191.90494,0.339902531 191.889001,0.166825717 191.857122,1.09138254e-11 L197.039605,1.09139364e-11 C197.008135,0.166825717 196.9924,0.339902531 196.9924,0.519230769 C196.9924,1.19872135 197.221245,1.78204885 197.678943,2.26923077 C198.13664,2.75641269 198.676481,3 199.29848,3 C199.920479,3 200.46032,2.75641269 200.918017,2.26923077 C201.375715,1.78204885 201.60456,1.19872135 201.60456,0.519230769 C201.60456,0.339902531 201.588825,0.166825717 201.557355,1.08763415e-11 L206.739225,1.09139364e-11 C206.707755,0.166825717 206.69202,0.339902531 206.69202,0.519230769 C206.69202,1.19872135 206.920865,1.78204885 207.378563,2.26923077 C207.83626,2.75641269 208.376101,3 208.9981,3 C209.608363,3 210.14527,2.75961779 210.608835,2.27884615 C211.072401,1.79807452 211.30418,1.21154192 211.30418,0.519230769 C211.30418,0.339902531 211.288241,0.166825717 211.256362,1.09140058e-11 L216.438845,1.09139364e-11 C216.407375,0.166825717 216.39164,0.339902531 216.39164,0.519230769 C216.39164,1.19872135 216.620485,1.78204885 217.078183,2.26923077 C217.53588,2.75641269 218.075721,3 218.69772,3 C219.307983,3 219.84489,2.75961779 220.308455,2.27884615 C220.772021,1.79807452 221.0038,1.21154192 221.0038,0.519230769 C221.0038,0.339902531 220.987861,0.166825717 220.955982,1.09138254e-11 L226.138465,1.09139364e-11 C226.106995,0.166825717 226.09126,0.339902531 226.09126,0.519230769 C226.09126,1.19872135 226.320105,1.78204885 226.777803,2.26923077 C227.2355,2.75641269 227.775341,3 228.39734,3 C229.019339,3 229.55918,2.75641269 230.016877,2.26923077 C230.474575,1.78204885 230.70342,1.19872135 230.70342,0.519230769 C230.70342,0.339902531 230.687685,0.166825717 230.656215,1.09138254e-11 L235.838085,1.09139364e-11 C235.806615,0.166825717 235.79088,0.339902531 235.79088,0.519230769 C235.79088,1.19872135 236.019725,1.78204885 236.477423,2.26923077 C236.93512,2.75641269 237.474961,3 238.09696,3 C238.707223,3 239.24413,2.75961779 239.707695,2.27884615 C240.171261,1.79807452 240.40304,1.21154192 240.40304,0.519230769 C240.40304,0.339902531 240.387101,0.166825717 240.355222,1.09140058e-11 L245.537705,1.09139364e-11 C245.506235,0.166825717 245.4905,0.339902531 245.4905,0.519230769 C245.4905,1.19872135 245.719345,1.78204885 246.177043,2.26923077 C246.63474,2.75641269 247.174581,3 247.79658,3 C248.406843,3 248.94375,2.75961779 249.407315,2.27884615 C249.870881,1.79807452 250.10266,1.21154192 250.10266,0.519230769 C250.10266,0.339902531 250.086721,0.166825717 250.054842,1.09140058e-11 L255.237325,1.09139364e-11 C255.205855,0.166825717 255.19012,0.339902531 255.19012,0.519230769 C255.19012,1.19872135 255.418965,1.78204885 255.876663,2.26923077 C256.33436,2.75641269 256.874201,3 257.4962,3 C258.118199,3 258.65804,2.75641269 259.115737,2.26923077 C259.573435,1.78204885 259.80228,1.19872135 259.80228,0.519230769 C259.80228,0.339902531 259.786545,0.166825717 259.755075,1.09138254e-11 L264.936945,1.09139364e-11 C264.905475,0.166825717 264.88974,0.339902531 264.88974,0.519230769 C264.88974,1.19872135 265.118585,1.78204885 265.576283,2.26923077 C266.03398,2.75641269 266.573821,3 267.19582,3 C267.806083,3 268.34299,2.75961779 268.806555,2.27884615 C269.270121,1.79807452 269.5019,1.21154192 269.5019,0.519230769 C269.5019,0.339902531 269.485961,0.166825717 269.454082,1.09140058e-11 L274.636565,1.09139364e-11 C274.605095,0.166825717 274.58936,0.339902531 274.58936,0.519230769 C274.58936,1.19872135 274.818205,1.78204885 275.275903,2.26923077 C275.7336,2.75641269 276.273441,3 276.89544,3 C277.505703,3 278.04261,2.75961779 278.506175,2.27884615 C278.969741,1.79807452 279.20152,1.21154192 279.20152,0.519230769 C279.20152,0.339902531 279.185581,0.166825717 279.153702,1.09140058e-11 L284.336185,1.09139364e-11 C284.304715,0.166825717 284.28898,0.339902531 284.28898,0.519230769 C284.28898,1.19872135 284.517825,1.78204885 284.975523,2.26923077 C285.43322,2.75641269 285.97306,3 286.59506,3 C287.217059,3 287.756899,2.75641269 288.214597,2.26923077 C288.672295,1.78204885 288.90114,1.19872135 288.90114,0.519230769 C288.90114,0.339902531 288.885405,0.166825717 288.853935,1.09138254e-11 L294.035805,1.09139364e-11 C294.004335,0.166825717 293.9886,0.339902531 293.9886,0.519230769 C293.9886,1.19872135 294.217445,1.78204885 294.675143,2.26923077 C295.13284,2.75641269 295.67268,3 296.29468,3 C296.904943,3 297.44185,2.75961779 297.905415,2.27884615 C298.368981,1.79807452 298.60076,1.21154192 298.60076,0.519230769 C298.60076,0.339902531 298.584821,0.166825717 298.552942,1.09138254e-11 L303.735425,1.09139364e-11 C303.703955,0.166825717 303.68822,0.339902531 303.68822,0.519230769 C303.68822,1.19872135 303.917065,1.78204885 304.374762,2.26923077 C304.83246,2.75641269 305.3723,3 305.9943,3 C306.604563,3 307.14147,2.75961779 307.605035,2.27884615 C308.068601,1.79807452 308.30038,1.21154192 308.30038,0.519230769 C308.30038,0.339902531 308.284441,0.166825717 308.252562,1.09138254e-11 L313.435045,1.09139364e-11 C313.403575,0.166825717 313.387839,0.339902531 313.387839,0.519230769 C313.387839,1.19872135 313.616685,1.78204885 314.074382,2.26923077 C314.53208,2.75641269 315.07192,3 315.69392,3 C316.315919,3 316.855759,2.75641269 317.313457,2.26923077 C317.771155,1.78204885 318,1.19872135 318,0.519230769 C318,0.339902531 317.984265,0.166825717 317.952795,1.09138254e-11 L320,1.09139364e-11 L320,429 L0,429 L0,1.09139364e-11 L3.04720534,1.09139364e-11 Z" id="Rectangle-2" fill="#F0F6FA"></path>
        <path d="M3.04720534,421 C3.01573507,421.166826 3,421.339903 3,421.519231 C3,422.198721 3.22884537,422.782049 3.68654298,423.269231 C4.14424058,423.756413 4.68408094,424 5.30608025,424 C5.91634372,424 6.45325017,423.759618 6.91681569,423.278846 C7.38038122,422.798075 7.6121605,422.211542 7.6121605,421.519231 C7.6121605,421.339903 7.59622108,421.166826 7.5643421,421 L12.7468253,421 C12.7153551,421.166826 12.69962,421.339903 12.69962,421.519231 C12.69962,422.198721 12.9284654,422.782049 13.386163,423.269231 C13.8438606,423.756413 14.3837009,424 15.0057002,424 C15.6159637,424 16.1528702,423.759618 16.6164357,423.278846 C17.0800012,422.798075 17.3117805,422.211542 17.3117805,421.519231 C17.3117805,421.339903 17.2958411,421.166826 17.2639621,421 L22.4464453,421 C22.414975,421.166826 22.39924,421.339903 22.39924,421.519231 C22.39924,422.198721 22.6280853,422.782049 23.0857829,423.269231 C23.5434805,423.756413 24.0833209,424 24.7053202,424 C25.3273195,424 25.8671599,423.756413 26.3248575,423.269231 C26.7825551,422.782049 27.0114005,422.198721 27.0114005,421.519231 C27.0114005,421.339903 26.9956654,421.166826 26.9641951,421 L32.1460653,421 C32.114595,421.166826 32.09886,421.339903 32.09886,421.519231 C32.09886,422.198721 32.3277053,422.782049 32.7854029,423.269231 C33.2431005,423.756413 33.7829409,424 34.4049402,424 C35.0152037,424 35.5521101,423.759618 36.0156756,423.278846 C36.4792412,422.798075 36.7110205,422.211542 36.7110205,421.519231 C36.7110205,421.339903 36.695081,421.166826 36.6632021,421 L41.8456853,421 C41.814215,421.166826 41.7984799,421.339903 41.7984799,421.519231 C41.7984799,422.198721 42.0273253,422.782049 42.4850229,423.269231 C42.9427205,423.756413 43.4825609,424 44.1045602,424 C44.7148237,424 45.2517301,423.759618 45.7152956,423.278846 C46.1788612,422.798075 46.4106404,422.211542 46.4106404,421.519231 C46.4106404,421.339903 46.394701,421.166826 46.362822,421 L51.5453053,421 C51.513835,421.166826 51.4980999,421.339903 51.4980999,421.519231 C51.4980999,422.198721 51.7269453,422.782049 52.1846429,423.269231 C52.6423405,423.756413 53.1821809,424 53.8041802,424 C54.4261795,424 54.9660198,423.756413 55.4237174,423.269231 C55.8814151,422.782049 56.1102604,422.198721 56.1102604,421.519231 C56.1102604,421.339903 56.0945254,421.166826 56.0630551,421 L61.2449252,421 C61.213455,421.166826 61.1977199,421.339903 61.1977199,421.519231 C61.1977199,422.198721 61.4265653,422.782049 61.8842629,423.269231 C62.3419605,423.756413 62.8818008,424 63.5038002,424 C64.1140636,424 64.6509701,423.759618 65.1145356,423.278846 C65.5781011,422.798075 65.8098804,422.211542 65.8098804,421.519231 C65.8098804,421.339903 65.793941,421.166826 65.762062,421 L70.9445452,421 C70.913075,421.166826 70.8973399,421.339903 70.8973399,421.519231 C70.8973399,422.198721 71.1261853,422.782049 71.5838829,423.269231 C72.0415805,423.756413 72.5814208,424 73.2034201,424 C73.8136836,424 74.3505901,423.759618 74.8141556,423.278846 C75.2777211,422.798075 75.5095004,422.211542 75.5095004,421.519231 C75.5095004,421.339903 75.493561,421.166826 75.461682,421 L80.6441652,421 C80.6126949,421.166826 80.5969599,421.339903 80.5969599,421.519231 C80.5969599,422.198721 80.8258052,422.782049 81.2835029,423.269231 C81.7412005,423.756413 82.2810408,424 82.9030401,424 C83.5250394,424 84.0648798,423.756413 84.5225774,423.269231 C84.980275,422.782049 85.2091204,422.198721 85.2091204,421.519231 C85.2091204,421.339903 85.1933853,421.166826 85.161915,421 L90.3437852,421 C90.3123149,421.166826 90.2965799,421.339903 90.2965799,421.519231 C90.2965799,422.198721 90.5254252,422.782049 90.9831228,423.269231 C91.4408204,423.756413 91.9806608,424 92.6026601,424 C93.2129236,424 93.74983,423.759618 94.2133956,423.278846 C94.6769611,422.798075 94.9087404,422.211542 94.9087404,421.519231 C94.9087404,421.339903 94.8928009,421.166826 94.860922,421 L100.043405,421 C100.011935,421.166826 99.9961998,421.339903 99.9961998,421.519231 C99.9961998,422.198721 100.225045,422.782049 100.682743,423.269231 C101.14044,423.756413 101.680281,424 102.30228,424 C102.912544,424 103.44945,423.759618 103.913016,423.278846 C104.376581,422.798075 104.60836,422.211542 104.60836,421.519231 C104.60836,421.339903 104.592421,421.166826 104.560542,421 L109.743025,421 C109.711555,421.166826 109.69582,421.339903 109.69582,421.519231 C109.69582,422.198721 109.924665,422.782049 110.382363,423.269231 C110.84006,423.756413 111.379901,424 112.0019,424 C112.623899,424 113.16374,423.756413 113.621437,423.269231 C114.079135,422.782049 114.30798,422.198721 114.30798,421.519231 C114.30798,421.339903 114.292245,421.166826 114.260775,421 L119.442645,421 C119.411175,421.166826 119.39544,421.339903 119.39544,421.519231 C119.39544,422.198721 119.624285,422.782049 120.081983,423.269231 C120.53968,423.756413 121.079521,424 121.70152,424 C122.311784,424 122.84869,423.759618 123.312256,423.278846 C123.775821,422.798075 124.0076,422.211542 124.0076,421.519231 C124.0076,421.339903 123.991661,421.166826 123.959782,421 L129.142265,421 C129.110795,421.166826 129.09506,421.339903 129.09506,421.519231 C129.09506,422.198721 129.323905,422.782049 129.781603,423.269231 C130.2393,423.756413 130.779141,424 131.40114,424 C132.011404,424 132.54831,423.759618 133.011875,423.278846 C133.475441,422.798075 133.70722,422.211542 133.70722,421.519231 C133.70722,421.339903 133.691281,421.166826 133.659402,421 L138.841885,421 C138.810415,421.166826 138.79468,421.339903 138.79468,421.519231 C138.79468,422.198721 139.023525,422.782049 139.481223,423.269231 C139.93892,423.756413 140.478761,424 141.10076,424 C141.722759,424 142.2626,423.756413 142.720297,423.269231 C143.177995,422.782049 143.40684,422.198721 143.40684,421.519231 C143.40684,421.339903 143.391105,421.166826 143.359635,421 L148.541505,421 C148.510035,421.166826 148.4943,421.339903 148.4943,421.519231 C148.4943,422.198721 148.723145,422.782049 149.180843,423.269231 C149.63854,423.756413 150.178381,424 150.80038,424 C151.410643,424 151.94755,423.759618 152.411115,423.278846 C152.874681,422.798075 153.10646,422.211542 153.10646,421.519231 C153.10646,421.339903 153.090521,421.166826 153.058642,421 L158.241125,421 C158.209655,421.166826 158.19392,421.339903 158.19392,421.519231 C158.19392,422.198721 158.422765,422.782049 158.880463,423.269231 C159.33816,423.756413 159.878001,424 160.5,424 C161.110263,424 161.64717,423.759618 162.110735,423.278846 C162.574301,422.798075 162.80608,422.211542 162.80608,421.519231 C162.80608,421.339903 162.790141,421.166826 162.758262,421 L167.940745,421 C167.909275,421.166826 167.89354,421.339903 167.89354,421.519231 C167.89354,422.198721 168.122385,422.782049 168.580083,423.269231 C169.03778,423.756413 169.577621,424 170.19962,424 C170.821619,424 171.36146,423.756413 171.819157,423.269231 C172.276855,422.782049 172.5057,422.198721 172.5057,421.519231 C172.5057,421.339903 172.489965,421.166826 172.458495,421 L177.640365,421 C177.608895,421.166826 177.59316,421.339903 177.59316,421.519231 C177.59316,422.198721 177.822005,422.782049 178.279703,423.269231 C178.7374,423.756413 179.277241,424 179.89924,424 C180.509503,424 181.04641,423.759618 181.509975,423.278846 C181.973541,422.798075 182.20532,422.211542 182.20532,421.519231 C182.20532,421.339903 182.189381,421.166826 182.157502,421 L187.339985,421 C187.308515,421.166826 187.29278,421.339903 187.29278,421.519231 C187.29278,422.198721 187.521625,422.782049 187.979323,423.269231 C188.43702,423.756413 188.976861,424 189.59886,424 C190.209123,424 190.74603,423.759618 191.209595,423.278846 C191.673161,422.798075 191.90494,422.211542 191.90494,421.519231 C191.90494,421.339903 191.889001,421.166826 191.857122,421 L197.039605,421 C197.008135,421.166826 196.9924,421.339903 196.9924,421.519231 C196.9924,422.198721 197.221245,422.782049 197.678943,423.269231 C198.13664,423.756413 198.676481,424 199.29848,424 C199.920479,424 200.46032,423.756413 200.918017,423.269231 C201.375715,422.782049 201.60456,422.198721 201.60456,421.519231 C201.60456,421.339903 201.588825,421.166826 201.557355,421 L206.739225,421 C206.707755,421.166826 206.69202,421.339903 206.69202,421.519231 C206.69202,422.198721 206.920865,422.782049 207.378563,423.269231 C207.83626,423.756413 208.376101,424 208.9981,424 C209.608363,424 210.14527,423.759618 210.608835,423.278846 C211.072401,422.798075 211.30418,422.211542 211.30418,421.519231 C211.30418,421.339903 211.288241,421.166826 211.256362,421 L216.438845,421 C216.407375,421.166826 216.39164,421.339903 216.39164,421.519231 C216.39164,422.198721 216.620485,422.782049 217.078183,423.269231 C217.53588,423.756413 218.075721,424 218.69772,424 C219.307983,424 219.84489,423.759618 220.308455,423.278846 C220.772021,422.798075 221.0038,422.211542 221.0038,421.519231 C221.0038,421.339903 220.987861,421.166826 220.955982,421 L226.138465,421 C226.106995,421.166826 226.09126,421.339903 226.09126,421.519231 C226.09126,422.198721 226.320105,422.782049 226.777803,423.269231 C227.2355,423.756413 227.775341,424 228.39734,424 C229.019339,424 229.55918,423.756413 230.016877,423.269231 C230.474575,422.782049 230.70342,422.198721 230.70342,421.519231 C230.70342,421.339903 230.687685,421.166826 230.656215,421 L235.838085,421 C235.806615,421.166826 235.79088,421.339903 235.79088,421.519231 C235.79088,422.198721 236.019725,422.782049 236.477423,423.269231 C236.93512,423.756413 237.474961,424 238.09696,424 C238.707223,424 239.24413,423.759618 239.707695,423.278846 C240.171261,422.798075 240.40304,422.211542 240.40304,421.519231 C240.40304,421.339903 240.387101,421.166826 240.355222,421 L245.537705,421 C245.506235,421.166826 245.4905,421.339903 245.4905,421.519231 C245.4905,422.198721 245.719345,422.782049 246.177043,423.269231 C246.63474,423.756413 247.174581,424 247.79658,424 C248.406843,424 248.94375,423.759618 249.407315,423.278846 C249.870881,422.798075 250.10266,422.211542 250.10266,421.519231 C250.10266,421.339903 250.086721,421.166826 250.054842,421 L255.237325,421 C255.205855,421.166826 255.19012,421.339903 255.19012,421.519231 C255.19012,422.198721 255.418965,422.782049 255.876663,423.269231 C256.33436,423.756413 256.874201,424 257.4962,424 C258.118199,424 258.65804,423.756413 259.115737,423.269231 C259.573435,422.782049 259.80228,422.198721 259.80228,421.519231 C259.80228,421.339903 259.786545,421.166826 259.755075,421 L264.936945,421 C264.905475,421.166826 264.88974,421.339903 264.88974,421.519231 C264.88974,422.198721 265.118585,422.782049 265.576283,423.269231 C266.03398,423.756413 266.573821,424 267.19582,424 C267.806083,424 268.34299,423.759618 268.806555,423.278846 C269.270121,422.798075 269.5019,422.211542 269.5019,421.519231 C269.5019,421.339903 269.485961,421.166826 269.454082,421 L274.636565,421 C274.605095,421.166826 274.58936,421.339903 274.58936,421.519231 C274.58936,422.198721 274.818205,422.782049 275.275903,423.269231 C275.7336,423.756413 276.273441,424 276.89544,424 C277.505703,424 278.04261,423.759618 278.506175,423.278846 C278.969741,422.798075 279.20152,422.211542 279.20152,421.519231 C279.20152,421.339903 279.185581,421.166826 279.153702,421 L284.336185,421 C284.304715,421.166826 284.28898,421.339903 284.28898,421.519231 C284.28898,422.198721 284.517825,422.782049 284.975523,423.269231 C285.43322,423.756413 285.97306,424 286.59506,424 C287.217059,424 287.756899,423.756413 288.214597,423.269231 C288.672295,422.782049 288.90114,422.198721 288.90114,421.519231 C288.90114,421.339903 288.885405,421.166826 288.853935,421 L294.035805,421 C294.004335,421.166826 293.9886,421.339903 293.9886,421.519231 C293.9886,422.198721 294.217445,422.782049 294.675143,423.269231 C295.13284,423.756413 295.67268,424 296.29468,424 C296.904943,424 297.44185,423.759618 297.905415,423.278846 C298.368981,422.798075 298.60076,422.211542 298.60076,421.519231 C298.60076,421.339903 298.584821,421.166826 298.552942,421 L303.735425,421 C303.703955,421.166826 303.68822,421.339903 303.68822,421.519231 C303.68822,422.198721 303.917065,422.782049 304.374762,423.269231 C304.83246,423.756413 305.3723,424 305.9943,424 C306.604563,424 307.14147,423.759618 307.605035,423.278846 C308.068601,422.798075 308.30038,422.211542 308.30038,421.519231 C308.30038,421.339903 308.284441,421.166826 308.252562,421 L313.435045,421 C313.403575,421.166826 313.387839,421.339903 313.387839,421.519231 C313.387839,422.198721 313.616685,422.782049 314.074382,423.269231 C314.53208,423.756413 315.07192,424 315.69392,424 C316.315919,424 316.855759,423.756413 317.313457,423.269231 C317.771155,422.782049 318,422.198721 318,421.519231 C318,421.339903 317.984265,421.166826 317.952795,421 L320,421 L320,429 L0,429 L0,421 L3.04720534,421 Z" id="Rectangle-2" fill="#FFFFFF"></path>
        <g id="facebook">
            <use fill="#556279" fill-rule="evenodd" xlink:href="#path-1"></use>
            <use fill="black" fill-opacity="1" filter="url(#filter-2)" xlink:href="#path-1"></use>
        </g>
        <g id="location">
            <use fill="#556279" fill-rule="evenodd" xlink:href="#path-3"></use>
            <use fill="black" fill-opacity="1" filter="url(#filter-4)" xlink:href="#path-3"></use>
        </g>
        <g id="phone">
            <use fill="#556279" fill-rule="evenodd" xlink:href="#path-5"></use>
            <use fill="black" fill-opacity="1" filter="url(#filter-6)" xlink:href="#path-5"></use>
        </g>
        <text id="Support@chanchan.vn" font-family="SFCompactDisplay-Semibold, SF Compact Display" font-size="18" font-weight="500" letter-spacing="-0.720000029" fill="#343D51">
            <tspan x="80" y="269">Support@chanchan.vn</tspan>
        </text>
        <text id="090.810.3357" font-family="SFCompactDisplay-Regular, SF Compact Display" font-size="16" font-weight="normal" fill="#5D6A80">
            <tspan x="80" y="300">090.810.3357</tspan>
        </text>
        <text id="fb.com/hello.chancha" font-family="SFCompactDisplay-Semibold, SF Compact Display" font-size="18" font-weight="500" letter-spacing="-0.720000029" fill="#343D51">
            <tspan x="80" y="377">fb.com/hello.chanchan</tspan>
        </text>
        <text id="………………………………………………." font-family="Georgia-Italic, Georgia" font-size="14" font-style="italic" font-weight="normal" fill="#DADFE7">
            <tspan x="80" y="225">……………………………………………….</tspan>
        </text>
        <text id="………………………………………………." font-family="Georgia-Italic, Georgia" font-size="14" font-style="italic" font-weight="normal" fill="#DADFE7">
            <tspan x="80" y="333">……………………………………………….</tspan>
        </text>
        <text id="Espace-coworking" font-family="SFCompactDisplay-Semibold, SF Compact Display" font-size="18" font-weight="500" letter-spacing="-0.720000029" fill="#343D51">
            <tspan x="80" y="161">Espace coworking</tspan>
        </text>
        <text id="01-Đinh-Lễ,-Hoàn-Kiế" font-family="SFCompactDisplay-Regular, SF Compact Display" font-size="16" font-weight="normal" fill="#5D6A80">
            <tspan x="80" y="192">01 Đinh Lễ, Hoàn Kiếm, Hà Nội</tspan>
        </text>
        <text id="—-Liên-hệ-với-đội-ng" font-family="Georgia-Italic, Georgia" font-size="15" font-style="italic" font-weight="normal" fill="#5D6A80">
            <tspan x="30" y="109">— Liên hệ với đội ngũ phát triển</tspan>
        </text>
        <text id="Liên-hệ" font-family="SFCompactDisplay-Semibold, SF Compact Display" font-size="26" font-weight="500" letter-spacing="-1.56" fill="#343D51">
            <tspan x="30" y="69">Liên hệ</tspan>
        </text>
    </g>
</svg>