<?xml version="1.0" encoding="UTF-8"?>
<svg width="320px" height="341px" viewBox="0 0 320 341" version="1.1" xmlns="http://www.w3.org/2000/svg" xmlns:xlink="http://www.w3.org/1999/xlink">
    <title>1</title>
    <defs>
        <rect id="path-1" x="0" y="0" width="321" height="246"></rect>
    </defs>
    <g id="web" stroke="none" stroke-width="1" fill="none" fill-rule="evenodd">
        <g id="Trial">
            <g id="Group-3">
                <mask id="mask-2" fill="white">
                    <use xlink:href="#path-1"></use>
                </mask>
                <g id="Rectangle" transform="translate(160.500000, 123.000000) scale(1, -1) translate(-160.500000, -123.000000) "></g>
                <polygon id="Triangle" fill="#F15C25" mask="url(#mask-2)" transform="translate(56.500000, 10.000000) rotate(-116.000000) translate(-56.500000, -10.000000) " points="55.2613187 4 62 15.0403874 51 16"></polygon>
                <rect id="Rectangle" fill="#313392" mask="url(#mask-2)" transform="translate(304.500000, 15.500000) rotate(-36.000000) translate(-304.500000, -15.500000) " x="299" y="10" width="11" height="11"></rect>
                <path d="M10,105 C15.7612237,108.845235 23.2194776,109.037277 29.1709568,105.493631 L30,105 L30,105 L30,111.987767 L29.7106204,112.158404 C23.6149167,115.752833 16.0325599,115.687191 10,111.987767 L10,111.987767 L10,111.987767 L10,105 Z" id="Rectangle" fill="#FCBB65" mask="url(#mask-2)" transform="translate(20.000000, 111.500000) rotate(-150.000000) translate(-20.000000, -111.500000) "></path>
                <polygon id="Triangle" fill="#F15C25" mask="url(#mask-2)" transform="translate(0.500000, 47.000000) rotate(-112.000000) translate(-0.500000, -47.000000) " points="-0.738681324 41 6 52.0403874 -5 53"></polygon>
                <polygon id="Triangle" fill="#39B34C" mask="url(#mask-2)" transform="translate(203.325338, 166.413500) scale(-1, 1) rotate(-187.000000) translate(-203.325338, -166.413500) " points="198.51516 160.573262 210.76238 157.4135 210.825338 174.421835 195.825338 175.4135"></polygon>
                <polygon id="Triangle" fill="#06E2D2" mask="url(#mask-2)" transform="translate(150.450027, 47.719939) rotate(-123.000000) translate(-150.450027, -47.719939) " points="145.608425 36.2199391 155.213512 37.9919544 155.291629 59.2199391 147.327142 54.0477406"></polygon>
                <polygon id="Triangle" fill="#39B34C" mask="url(#mask-2)" transform="translate(298.500000, 98.000000) scale(-1, 1) rotate(-218.000000) translate(-298.500000, -98.000000) " points="293.689822 92.1597623 305.937042 89 306 106.008335 291 107"></polygon>
                <polygon id="Rectangle" fill="#912A8F" mask="url(#mask-2)" transform="translate(284.000000, 100.500000) rotate(78.000000) translate(-284.000000, -100.500000) " points="275 84 288.694127 85.7121927 293 110.081518 275 117"></polygon>
                <polygon id="Rectangle" fill="#912A8F" mask="url(#mask-2)" transform="translate(166.500000, 29.000000) scale(1, -1) rotate(99.000000) translate(-166.500000, -29.000000) " points="160 17 171.056008 17.1259456 173 35.968377 160 41"></polygon>
                <polygon id="Rectangle" fill="#06E2D2" mask="url(#mask-2)" transform="translate(149.962914, 47.523378) rotate(56.000000) translate(-149.962914, -47.523378) " points="145 36.067623 153.518511 41.1240511 154.925829 58.9791332 145.35313 57.0397558"></polygon>
                <ellipse id="Oval" fill="#D7DE26" mask="url(#mask-2)" transform="translate(237.000000, 37.500000) rotate(-39.000000) translate(-237.000000, -37.500000) " cx="237" cy="37.5" rx="4" ry="6.5"></ellipse>
            </g>
            <g id="1" transform="translate(55.000000, 190.000000)">
                <text id="Trợ-lý-kết-nối!" font-family="GMVDINPro-CondBlack, GMV DIN Cond" font-size="30" font-style="condensed" font-weight="800" line-spacing="38" fill="#121721">
                    <tspan x="5" y="23">Trợ lý </tspan>
                    <tspan x="5" y="61">kết nối!</tspan>
                </text>
                <path d="M13.6647564,133 L13.6647564,124.440141 L9.45272206,124.440141 C9.45272206,122.883803 9.67335244,121.606808 10.1146132,120.609155 C10.5558739,119.611502 11.5587393,119.092723 13.1232092,119.052817 L13.1232092,119.052817 L12.4011461,116 C9.63323782,116 7.75787966,116.867958 6.77507163,118.603873 C5.79226361,120.339789 5.24068768,122.923709 5.12034384,126.355634 C5.08022923,127.31338 5.05014327,128.360915 5.03008596,129.498239 C5.01002865,130.635563 5,131.802817 5,133 L5,133 L13.6647564,133 Z M26,133 L26,124.440141 L21.7879656,124.440141 C21.7879656,122.883803 22.008596,121.606808 22.4498567,120.609155 C22.8911175,119.611502 23.8939828,119.092723 25.4584527,119.052817 L25.4584527,119.052817 L24.7363897,116 C21.9684814,116 20.0931232,116.867958 19.1103152,118.603873 C18.1275072,120.339789 17.5759312,122.923709 17.4555874,126.355634 C17.4154728,127.31338 17.3853868,128.360915 17.3653295,129.498239 C17.3452722,130.635563 17.3352436,131.802817 17.3352436,133 L17.3352436,133 L26,133 Z" id="“" fill="#D81B60" fill-rule="nonzero"></path>
            </g>
        </g>
    </g>
</svg>