<?xml version="1.0" encoding="UTF-8"?>
<svg width="640px" height="701px" viewBox="0 0 640 701" version="1.1" xmlns="http://www.w3.org/2000/svg" xmlns:xlink="http://www.w3.org/1999/xlink">
    <title>1_pc</title>
    <defs>
        <linearGradient x1="106.10273%" y1="28.2144495%" x2="-19.5209292%" y2="70.725509%" id="linearGradient-1">
            <stop stop-color="#304FFE" offset="0%"></stop>
            <stop stop-color="#651FFF" offset="100%"></stop>
        </linearGradient>
        <filter x="-22.2%" y="-65.5%" width="144.4%" height="230.9%" filterUnits="objectBoundingBox" id="filter-2">
            <feGaussianBlur stdDeviation="12" in="SourceGraphic"></feGaussianBlur>
        </filter>
        <linearGradient x1="106.10273%" y1="34.5710241%" x2="-19.5209292%" y2="64.6782326%" id="linearGradient-3">
            <stop stop-color="#304FFE" offset="0%"></stop>
            <stop stop-color="#651FFF" offset="100%"></stop>
        </linearGradient>
        <linearGradient x1="-41.2211541%" y1="158.95067%" x2="184.057905%" y2="0%" id="linearGradient-4">
            <stop stop-color="#277AFF" offset="0%"></stop>
            <stop stop-color="#03A9F4" offset="100%"></stop>
        </linearGradient>
    </defs>
    <g id="Chanchan-8" stroke="none" stroke-width="1" fill="none" fill-rule="evenodd">
        <g id="Trial">
            <g id="1" transform="translate(215.000000, 190.000000)">
                <g id="Group-12" transform="translate(0.000000, 384.000000)">
                    <rect id="Rectangle" fill="url(#linearGradient-1)" opacity="0.797428625" filter="url(#filter-2)" x="25" y="11" width="162" height="55" rx="20"></rect>
                    <rect id="Rectangle" fill="url(#linearGradient-3)" x="0" y="0" width="210" height="60" rx="11"></rect>
                    <text id="Đăng-ký" font-family="SFCompactDisplay-Semibold, SF Compact Display" font-size="20" font-weight="500" fill="#FFFFFF">
                        <tspan x="68.6279297" y="35">Đăng ký</tspan>
                    </text>
                    <path d="M30,19 C23.92525,19 19,23.5595 19,29.184625 C19,32.38975 20.599125,35.248375 23.098875,37.115625 L23.098875,41 L26.844375,38.944375 C27.844,39.22075 28.90275,39.370625 30,39.370625 C36.07475,39.370625 41,34.811125 41,29.186 C41,23.560875 36.07475,19 30,19 Z M31.093125,32.715625 L28.29225,29.72775 L22.826625,32.715625 L28.8395,26.332875 L31.709125,29.32075 L37.106,26.332875 L31.093125,32.715625 Z" id="Shape" fill="#FFFFFF" fill-rule="nonzero"></path>
                </g>
                <text id="Ngầm-học-&amp;-để-kết-nố" font-family="SFCompactText-Italic, SF Compact Text" font-size="16" font-style="italic" font-weight="normal" line-spacing="23" fill="#121721">
                    <tspan x="5" y="180">Ngầm học &amp; để kết nối bạn </tspan>
                    <tspan x="5" y="203">với người phù hợp nhất</tspan>
                </text>
                <text id="Bot-Trợ-lý-kết-nối!" font-family="GMVDINPro-CondBlack, GMV DIN Cond" font-size="30" font-style="condensed" font-weight="800" line-spacing="38" fill="#121721">
                    <tspan x="5" y="23">Bot Trợ lý </tspan>
                    <tspan x="5" y="61">kết nối!</tspan>
                </text>
                <text id="Hẹn-hò-thực-tế" font-family="SFCompactDisplay-Semibold, SF Compact Display" font-size="16" font-weight="500" line-spacing="22" fill="#121721">
                    <tspan x="45" y="251">Hẹn hò thực tế</tspan>
                </text>
                <text id="Nghiêm-túc" font-family="SFCompactDisplay-Semibold, SF Compact Display" font-size="16" font-weight="500" line-spacing="22" fill="#121721">
                    <tspan x="45" y="291">Nghiêm túc</tspan>
                </text>
                <path d="M14,280 C18.9705627,280 23,284.029437 23,289 C23,293.970563 18.9705627,298 14,298 C9.02943725,298 5,293.970563 5,289 C5,284.029437 9.02943725,280 14,280 Z M18.414641,285.231178 C18.1159312,284.922941 17.6308901,284.922941 17.3316193,285.231178 L17.3316193,285.231178 L12.4682124,290.241954 L10.6683807,288.387524 C10.3692034,288.079287 9.88462978,288.079287 9.58535901,288.387524 L9.58535901,288.387524 L9.22438295,288.759527 C8.92520568,289.067186 8.92520568,289.567011 9.22438295,289.875248 L9.22438295,289.875248 L12.1072364,292.845882 C12.2026926,292.944806 12.3329282,293 12.4682124,293 C12.6034966,293 12.7337322,292.944806 12.8291885,292.845882 L12.8291885,292.845882 L18.7756171,286.718902 C19.0747943,286.411147 19.0747943,285.911418 18.7756171,285.603181 L18.7756171,285.603181 Z" id="Rectangle-2" fill="url(#linearGradient-4)"></path>
                <path d="M14,324 C18.9705627,324 23,328.029437 23,333 C23,337.970563 18.9705627,342 14,342 C9.02943725,342 5,337.970563 5,333 C5,328.029437 9.02943725,324 14,324 Z M18.414641,329.231178 C18.1159312,328.922941 17.6308901,328.922941 17.3316193,329.231178 L17.3316193,329.231178 L12.4682124,334.241954 L10.6683807,332.387524 C10.3692034,332.079287 9.88462978,332.079287 9.58535901,332.387524 L9.58535901,332.387524 L9.22438295,332.759527 C8.92520568,333.067186 8.92520568,333.567011 9.22438295,333.875248 L9.22438295,333.875248 L12.1072364,336.845882 C12.2026926,336.944806 12.3329282,337 12.4682124,337 C12.6034966,337 12.7337322,336.944806 12.8291885,336.845882 L12.8291885,336.845882 L18.7756171,330.718902 C19.0747943,330.411147 19.0747943,329.911418 18.7756171,329.603181 L18.7756171,329.603181 Z" id="Rectangle-2" fill="url(#linearGradient-4)"></path>
                <path d="M14,240 C18.9705627,240 23,244.029437 23,249 C23,253.970563 18.9705627,258 14,258 C9.02943725,258 5,253.970563 5,249 C5,244.029437 9.02943725,240 14,240 Z M18.414641,245.231178 C18.1159312,244.922941 17.6308901,244.922941 17.3316193,245.231178 L17.3316193,245.231178 L12.4682124,250.241954 L10.6683807,248.387524 C10.3692034,248.079287 9.88462978,248.079287 9.58535901,248.387524 L9.58535901,248.387524 L9.22438295,248.759527 C8.92520568,249.067186 8.92520568,249.567011 9.22438295,249.875248 L9.22438295,249.875248 L12.1072364,252.845882 C12.2026926,252.944806 12.3329282,253 12.4682124,253 C12.6034966,253 12.7337322,252.944806 12.8291885,252.845882 L12.8291885,252.845882 L18.7756171,246.718902 C19.0747943,246.411147 19.0747943,245.911418 18.7756171,245.603181 L18.7756171,245.603181 Z" id="Rectangle-2" fill="url(#linearGradient-4)"></path>
                <text id="An-toàn" font-family="SFCompactDisplay-Semibold, SF Compact Display" font-size="16" font-weight="500" line-spacing="22" fill="#121721">
                    <tspan x="45" y="336">An toàn</tspan>
                </text>
                <path d="M13.6647564,133 L13.6647564,124.440141 L9.45272206,124.440141 C9.45272206,122.883803 9.67335244,121.606808 10.1146132,120.609155 C10.5558739,119.611502 11.5587393,119.092723 13.1232092,119.052817 L13.1232092,119.052817 L12.4011461,116 C9.63323782,116 7.75787966,116.867958 6.77507163,118.603873 C5.79226361,120.339789 5.24068768,122.923709 5.12034384,126.355634 C5.08022923,127.31338 5.05014327,128.360915 5.03008596,129.498239 C5.01002865,130.635563 5,131.802817 5,133 L5,133 L13.6647564,133 Z M26,133 L26,124.440141 L21.7879656,124.440141 C21.7879656,122.883803 22.008596,121.606808 22.4498567,120.609155 C22.8911175,119.611502 23.8939828,119.092723 25.4584527,119.052817 L25.4584527,119.052817 L24.7363897,116 C21.9684814,116 20.0931232,116.867958 19.1103152,118.603873 C18.1275072,120.339789 17.5759312,122.923709 17.4555874,126.355634 C17.4154728,127.31338 17.3853868,128.360915 17.3653295,129.498239 C17.3452722,130.635563 17.3352436,131.802817 17.3352436,133 L17.3352436,133 L26,133 Z" id="“" fill="#D81B60" fill-rule="nonzero"></path>
            </g>
            <g id="bg_left" transform="translate(0.000000, 0.000000)">
                <rect id="Rectangle" fill="#F0F6FA" x="-4.68958206e-13" y="0" width="160" height="1065"></rect>
                <line x1="160.5" y1="0" x2="160.5" y2="1065" id="Line" stroke="#DADFE7" stroke-width="0.5" stroke-linecap="square"></line>
            </g>
            <g id="bg_right" transform="translate(480.000000, 0.000000)">
                <rect id="Rectangle" fill="#F0F6FA" x="-2.27373675e-13" y="0" width="160" height="1065"></rect>
                <line x1="0.5" y1="0" x2="0.5" y2="1065" id="Line" stroke="#DADFE7" stroke-width="0.5" stroke-linecap="square"></line>
            </g>
        </g>
    </g>
</svg>