<?xml version="1.0" encoding="UTF-8"?>
<svg width="320px" height="806px" viewBox="0 0 320 806" version="1.1" xmlns="http://www.w3.org/2000/svg" xmlns:xlink="http://www.w3.org/1999/xlink">
    <!-- Generator: Sketch 54.1 (76490) - https://sketchapp.com -->
    <title>trienvonggiuahai</title>
    <desc>Created with Sketch.</desc>
    <g id="trienvonggiuahai" stroke="none" stroke-width="1" fill="none" fill-rule="evenodd">
        <rect fill="#FFFFFF" x="0" y="0" width="320" height="806"></rect>
        <text id="Triển-vọng-giữa-hai" font-family="SFCompactDisplay-Semibold, SF Compact Display" font-size="18" font-weight="500" line-spacing="20" letter-spacing="-0.54" fill="#343D51">
            <tspan x="30" y="109">Triển vọng giữa hai Thành viên </tspan>
            <tspan x="30" y="129">được nhận biết như thế nào?</tspan>
        </text>
        <text id="Chanchan-đo-lường-&amp;" font-family="SFCompactDisplay-Regular, SF Compact Display" font-size="15" font-weight="normal" line-spacing="22" fill="#343D51">
            <tspan x="30" y="162">Chanchan đo lường &amp; so sánh triển </tspan>
            <tspan x="30" y="184">vọng dựa trên những khả năng giúp cả </tspan>
            <tspan x="30" y="206">hai bên nhau dài lâu trong cuộc sống </tspan>
            <tspan x="30" y="228">thực. </tspan>
        </text>
        <text id="Sự-chân-thành" font-family="Georgia-Italic, Georgia" font-size="15" font-style="italic" font-weight="normal" line-spacing="22" fill="#8C96A8">
            <tspan x="50" y="266">Sự chân thành</tspan>
        </text>
        <text id="Qua-khả-năng-đến-với" font-family="SFCompactDisplay-Regular, SF Compact Display" font-size="15" font-weight="normal" line-spacing="22" fill="#343D51">
            <tspan x="50" y="296">Qua khả năng đến với nhau bằng con </tspan>
            <tspan x="50" y="318">người thực của mình</tspan>
        </text>
        <text id="—" font-family="Georgia-Italic, Georgia" font-size="15" font-style="italic" font-weight="normal" line-spacing="22" fill="#5D6A80">
            <tspan x="30" y="266">—</tspan>
        </text>
        <text id="Sự-tin-tưởng" font-family="Georgia-Italic, Georgia" font-size="15" font-style="italic" font-weight="normal" line-spacing="22" fill="#5D6A80">
            <tspan x="50" y="498">Sự tin tưởng</tspan>
        </text>
        <text id="Qua-khả-năng-chia-sẻ" font-family="SFCompactDisplay-Regular, SF Compact Display" font-size="15" font-weight="normal" line-spacing="22" fill="#343D51">
            <tspan x="50" y="528">Qua khả năng chia sẻ những điều </tspan>
            <tspan x="50" y="550">quan trọng &amp; riêng tư giữa hai người</tspan>
        </text>
        <text id="Trực-giác" font-family="Georgia-Italic, Georgia" font-size="15" font-style="italic" font-weight="normal" line-spacing="22" fill="#5D6A80">
            <tspan x="50" y="614">Trực giác</tspan>
        </text>
        <text id="—" font-family="Georgia-Italic, Georgia" font-size="15" font-style="italic" font-weight="normal" line-spacing="22" fill="#5D6A80">
            <tspan x="30" y="498">—</tspan>
        </text>
        <text id="—" font-family="Georgia-Italic, Georgia" font-size="15" font-style="italic" font-weight="normal" line-spacing="22" fill="#5D6A80">
            <tspan x="30" y="614">—</tspan>
        </text>
        <text id="Qua-khả-năng-cảm-nhậ" font-family="SFCompactDisplay-Regular, SF Compact Display" font-size="15" font-weight="normal" line-spacing="22" fill="#343D51">
            <tspan x="50" y="644">Qua khả năng cảm nhận những điều </tspan>
            <tspan x="50" y="666">không nói</tspan>
        </text>
        <text id="……………………………………………………" font-family="Georgia-Italic, Georgia" font-size="14" font-style="italic" font-weight="normal" line-spacing="22" fill="#DADFE7">
            <tspan x="50" y="343">……………………………………………………</tspan>
        </text>
        <text id="……………………………………………………" font-family="Georgia-Italic, Georgia" font-size="14" font-style="italic" font-weight="normal" line-spacing="22" fill="#DADFE7">
            <tspan x="50" y="459">……………………………………………………</tspan>
        </text>
        <text id="……………………………………………………" font-family="Georgia-Italic, Georgia" font-size="14" font-style="italic" font-weight="normal" line-spacing="22" fill="#DADFE7">
            <tspan x="50" y="575">……………………………………………………</tspan>
        </text>
        <text id="……………………………………………………" font-family="Georgia-Italic, Georgia" font-size="14" font-style="italic" font-weight="normal" line-spacing="22" fill="#DADFE7">
            <tspan x="0" y="797">…………………………………………………………………………</tspan>
        </text>
        <text id="Động-lực-mong-muốn-c" font-family="Georgia-Italic, Georgia" font-size="15" font-style="italic" font-weight="normal" line-spacing="22" fill="#5D6A80">
            <tspan x="50" y="382">Động lực mong muốn có nhau</tspan>
        </text>
        <text id="Qua-khả-năng-chấp-nh" font-family="SFCompactDisplay-Regular, SF Compact Display" font-size="15" font-weight="normal" line-spacing="22" fill="#343D51">
            <tspan x="50" y="412">Qua khả năng chấp nhận những giới </tspan>
            <tspan x="50" y="434">hạn của nhau</tspan>
        </text>
        <text id="—" font-family="Georgia-Italic, Georgia" font-size="15" font-style="italic" font-weight="normal" line-spacing="22" fill="#5D6A80">
            <tspan x="30" y="382">—</tspan>
        </text>
        <text id="Công-nghệ-dùng-để-đá" font-family="SFCompactDisplay-Regular, SF Compact Display" font-size="15" font-weight="normal" line-spacing="22" fill="#343D51">
            <tspan x="30" y="704">Công nghệ dùng để đánh giá &amp; so sánh </tspan>
            <tspan x="30" y="726">Triển vọng đang là lợi thế của Chanchan </tspan>
            <tspan x="30" y="748">nên giới hạn chia sẻ công khai.</tspan>
        </text>
        <path d="M53.7480469,70.6308594 L45.0820312,71.140625 L44.8183594,70.8945312 L44.8183594,69.2773438 L44.6953125,69.2421875 C44.1210909,69.8632844 43.3447315,70.4052711 42.3662109,70.8681641 C41.3876904,71.331057 40.4003956,71.5625 39.4042969,71.5625 C37.0370975,71.5625 35.0859452,70.6836025 33.5507812,68.9257812 C32.0156173,67.16796 31.2480469,64.8945452 31.2480469,62.1054688 C31.2480469,59.6328001 32.1064367,57.5117276 33.8232422,55.7421875 C35.5400476,53.9726474 37.6171753,53.0878906 40.0546875,53.0878906 C41.0156298,53.0878906 41.9179645,53.196288 42.7617188,53.4130859 C43.605473,53.6298839 44.2792944,53.8847642 44.7832031,54.1777344 L44.7832031,48.4296875 C44.7832031,47.9960916 44.6953134,47.5888691 44.5195312,47.2080078 C44.3437491,46.8271465 44.1093765,46.5312511 43.8164062,46.3203125 C43.4531232,46.0624987 42.9990262,45.8779302 42.4541016,45.7666016 C41.909177,45.6552729 41.3613309,45.5761721 40.8105469,45.5292969 L40.8105469,44.2460938 L50.3027344,43.7890625 L50.5664062,44.0703125 L50.5664062,67.1152344 C50.5664062,67.5605491 50.6396477,67.9355454 50.7861328,68.2402344 C50.9326179,68.5449234 51.1699202,68.7851554 51.4980469,68.9609375 C51.7441419,69.0898444 52.1044898,69.1835935 52.5791016,69.2421875 C53.0537133,69.3007815 53.4433579,69.3359374 53.7480469,69.3476562 L53.7480469,70.6308594 Z M44.7832031,67.5019531 L44.7832031,57.5703125 C44.7011715,57.3007799 44.5869148,57.0019548 44.4404297,56.6738281 C44.2939446,56.3457015 44.0917982,56.0351577 43.8339844,55.7421875 C43.5996082,55.4960925 43.2861348,55.2792978 42.8935547,55.0917969 C42.5009746,54.9042959 42.0585938,54.8105469 41.5664062,54.8105469 C40.3945254,54.8105469 39.4335975,55.4726496 38.6835938,56.796875 C37.93359,58.1211004 37.5585938,59.9902223 37.5585938,62.4042969 C37.5585938,63.3535204 37.6259759,64.2060509 37.7607422,64.9619141 C37.8955085,65.7177772 38.1328108,66.4062469 38.4726562,67.0273438 C38.8125017,67.6484406 39.2490208,68.1347639 39.7822266,68.4863281 C40.3154324,68.8378924 40.9570275,69.0136719 41.7070312,69.0136719 C42.4218786,69.0136719 43.0136695,68.8759779 43.4824219,68.6005859 C43.9511742,68.3251939 44.3847636,67.9589867 44.7832031,67.5019531 Z M63.2578125,68.0820312 C63.2578125,69.0078171 62.9150425,69.8105435 62.2294922,70.4902344 C61.5439419,71.1699253 60.7324266,71.5097656 59.7949219,71.5097656 C58.8456984,71.5097656 58.0283237,71.1728549 57.3427734,70.4990234 C56.6572231,69.8251919 56.3144531,69.0195359 56.3144531,68.0820312 C56.3144531,67.1445266 56.6572231,66.3330112 57.3427734,65.6474609 C58.0283237,64.9619106 58.8456984,64.6191406 59.7949219,64.6191406 C60.7324266,64.6191406 61.5439419,64.9648403 62.2294922,65.65625 C62.9150425,66.3476597 63.2578125,67.1562454 63.2578125,68.0820312 Z" id="d." fill="#343D51" fill-rule="nonzero"></path>
    </g>
</svg>