<?xml version="1.0" encoding="UTF-8"?>
<svg width="320px" height="500px" viewBox="0 0 320 500" version="1.1" xmlns="http://www.w3.org/2000/svg" xmlns:xlink="http://www.w3.org/1999/xlink">
    <!-- Generator: Sketch 54.1 (76490) - https://sketchapp.com -->
    <title>faq_cover</title>
    <desc>Created with Sketch.</desc>
    <g id="faq_cover" stroke="none" stroke-width="1" fill="none" fill-rule="evenodd">
        <text id="—-Câu-hỏi-thường-gặp" font-family="Georgia-Italic, Georgia" font-size="14" font-style="italic" font-weight="normal" line-spacing="22" fill="#5D6A80">
            <tspan x="74" y="452">— Câu hỏi thường gặp</tspan>
        </text>
        <text id="aq" font-family="SFCompactDisplay-Semibold, SF Compact Display" font-size="32" font-weight="500" line-spacing="36" fill="#343D51">
            <tspan x="74" y="431">aq</tspan>
        </text>
        <path d="M70.238281,400.854216 C70.238281,401.526202 70.130765,402.265374 69.9157296,403.071757 C69.7006943,403.878139 69.3512672,404.563554 68.8674378,405.128022 C68.3029701,405.800007 67.6713133,406.310708 66.9724486,406.660141 C66.2735838,407.009573 65.2253024,407.184286 63.8275729,407.184286 C61.7040992,407.184286 60.0376006,406.445114 58.828027,404.966746 C57.6184534,403.488378 56.3282609,401.028949 54.9574108,397.588384 C53.8822342,398.045334 53.0086664,399.22801 52.336681,401.136449 C51.6646957,403.044887 51.3287081,407.143936 51.3287081,413.433719 L51.3287081,416.618913 L62.4567297,416.618913 L62.4567297,420.973357 L51.4093459,420.973357 L51.4093459,448.753092 C51.4093459,449.801389 51.651257,450.614479 52.1350864,451.192386 C52.6189159,451.770294 53.2505726,452.193638 54.0300756,452.462432 C54.6751816,452.677468 55.5218704,452.88578 56.5701675,453.087376 C57.6184646,453.288971 58.55923,453.430086 59.3924918,453.510724 L59.3924918,456.454005 L32.1772216,456.454005 L32.1772216,453.510724 C32.8760864,453.456965 33.5547814,453.389768 34.213327,453.30913 C34.8718727,453.228491 35.4564911,453.094096 35.9672,452.90594 C36.8273412,452.583387 37.4119597,452.119725 37.721073,451.514938 C38.0301862,450.910151 38.1847405,450.1105 38.1847405,449.115962 L38.1847405,420.973357 L30,420.973357 L30,416.618913 L38.1847405,416.618913 C38.1847405,413.742816 38.6013652,410.954119 39.434627,408.252738 C40.2678888,405.551357 41.5580813,403.138966 43.3052432,401.015492 C44.9986463,398.918898 47.2296041,397.22552 49.9981837,395.935308 C52.7667633,394.645096 56.0191236,394 59.7553621,394 C63.0884094,394 65.6687944,394.631657 67.4965945,395.894989 C69.3243946,397.158322 70.238281,398.811381 70.238281,400.854216 Z" id="f" fill="#343D51" fill-rule="nonzero"></path>
    </g>
</svg>