<?xml version="1.0" encoding="UTF-8"?>
<svg width="320px" height="1030px" viewBox="0 0 320 1030" version="1.1" xmlns="http://www.w3.org/2000/svg" xmlns:xlink="http://www.w3.org/1999/xlink">
    <title>1</title>
    <defs>
        <rect id="path-1" x="0" y="-1.13686838e-13" width="240" height="210"></rect>
    </defs>
    <g id="web" stroke="none" stroke-width="1" fill="none" fill-rule="evenodd">
        <g id="Group">
            <rect id="Rectangle" fill="#FFFFFF" x="0" y="0" width="320" height="1030"></rect>
            <g id="2" transform="translate(35.000000, 754.000000)" fill="#121721" font-size="16" font-weight="300" line-spacing="24">
                <text id="Bạn-cũng-hiểu-rằng-đ" font-family="SFCompactDisplay-Light, SF Compact Display">
                    <tspan x="0" y="15">Bạn cũng hiểu rằng đây là xác thực </tspan>
                    <tspan x="0" y="39">cơ bản ban đầu. Khi bạn có những </tspan>
                    <tspan x="0" y="63">bước tiến quan trọng trong kết nối </tspan>
                    <tspan x="0" y="87">bạn sẽ cần có những xác thực tin </tspan>
                    <tspan x="0" y="111">cậy hơn.</tspan>
                </text>
                <text id="Trên-là-mô-tả-sơ-lượ" font-family="SFCompactText-LightItalic, SF Compact Text" font-style="italic">
                    <tspan x="0" y="151">Trên là mô tả sơ lược về cách </tspan>
                    <tspan x="0" y="175">chúng tôi xây dựng và bảo vệ Tiêu </tspan>
                    <tspan x="0" y="199">Chuẩn Cộng Đồng áp dụng với </tspan>
                    <tspan x="0" y="223">Đăng ký mới. Bằng cách đồng ý Hồ </tspan>
                    <tspan x="0" y="247">sơ của bạn sẽ được xem xét</tspan>
                </text>
            </g>
            <g id="1" transform="translate(35.000000, 132.000000)" fill="#121721">
                <text id="V/v:Rà-soát-hồ-sơ-đă" font-family="GMVDINPro-CondBlack, GMV DIN Cond" font-size="30" font-style="condensed" font-weight="800">
                    <tspan x="0" y="23">V/v:Rà soát hồ sơ</tspan>
                    <tspan x="0" y="53">đăng ký mới</tspan>
                </text>
                <text id="Việc-rà-soát-sẽ-do-b" font-family="SFCompactDisplay-Light, SF Compact Display" font-size="16" font-weight="300" line-spacing="24">
                    <tspan x="0" y="101">Việc rà soát sẽ do bot Chanchan </tspan>
                    <tspan x="0" y="125">thực hiện. Trong trường hợp </tspan>
                    <tspan x="0" y="149">Chanchan không đưa ra được kết </tspan>
                    <tspan x="0" y="173">luận về một thông tin nào đó chúng </tspan>
                    <tspan x="0" y="197">tôi sẽ trợ giúp. Trong trường hợp này </tspan>
                    <tspan x="0" y="221">thông tin mà chúng tôi tiếp cận là </tspan>
                    <tspan x="0" y="245">mẩu thông tin mà Chanchan đã cắt </tspan>
                    <tspan x="0" y="269">ra để yêu cầu hỗ trợ. Nhiệm vụ của </tspan>
                    <tspan x="0" y="293">chúng tôi là giúp Chanchan hiểu </tspan>
                    <tspan x="0" y="317">thông tin đó có tích cực hay không. </tspan>
                    <tspan x="0" y="341">Chúng tôi không biết thông tin đó là </tspan>
                    <tspan x="0" y="365">nói về ai.</tspan>
                </text>
                <text id="Khi-Chanchan-có-lo-n" font-family="SFCompactDisplay-Light, SF Compact Display" font-size="16" font-weight="300" line-spacing="24">
                    <tspan x="0" y="405">Khi Chanchan có lo ngại về Hồ sơ </tspan>
                    <tspan x="0" y="429">của một Thành viên thông thường </tspan>
                    <tspan x="0" y="453">chúng tôi sẽ cần Thành viên ấy cung </tspan>
                    <tspan x="0" y="477">cấp thêm thông tin. Tuy nhiên khi </tspan>
                    <tspan x="0" y="501">một ai đó xuất hiện nhiều cảnh báo </tspan>
                    <tspan x="0" y="525">như một hiện tượng tiêu cực trên </tspan>
                    <tspan x="0" y="549">mạng xã hội thì chúng tôi mặc nhiên </tspan>
                    <tspan x="0" y="573">gỡ quyền sử dụng Chanchan mà </tspan>
                    <tspan x="0" y="597">không cần thêm thông tin nào.</tspan>
                </text>
            </g>
            <g id="Group-3" transform="translate(80.000000, 0.000000)">
                <mask id="mask-2" fill="white">
                    <use xlink:href="#path-1"></use>
                </mask>
                <g id="Rectangle" transform="translate(120.000000, 105.000000) scale(1, -1) translate(-120.000000, -105.000000) "></g>
                <path d="M20,69 C25.7612237,72.8452349 33.2194776,73.0372768 39.1709568,69.4936311 L40,69 L40,69 L40,75.9877672 L39.7106204,76.1584044 C33.6149167,79.7528327 26.0325599,79.6871913 20,75.9877672 L20,75.9877672 L20,75.9877672 L20,69 Z" id="Rectangle" fill="#FCBB65" mask="url(#mask-2)" transform="translate(30.000000, 75.500000) rotate(-150.000000) translate(-30.000000, -75.500000) "></path>
                <polygon id="Triangle" fill="#F15C25" mask="url(#mask-2)" transform="translate(10.500000, 11.000000) rotate(-112.000000) translate(-10.500000, -11.000000) " points="9.26131868 5 16 16.0403874 5 17"></polygon>
                <polygon id="Triangle" fill="#39B34C" mask="url(#mask-2)" transform="translate(233.325338, 130.413500) scale(-1, 1) rotate(-187.000000) translate(-233.325338, -130.413500) " points="228.51516 124.573262 240.76238 121.4135 240.825338 138.421835 225.825338 139.4135"></polygon>
                <polygon id="Triangle" fill="#06E2D2" mask="url(#mask-2)" transform="translate(160.450027, 11.719939) rotate(-123.000000) translate(-160.450027, -11.719939) " points="155.608425 0.219939113 165.213512 1.99195443 165.291629 23.2199391 157.327142 18.0477406"></polygon>
                <ellipse id="Oval" fill="#D7DE26" mask="url(#mask-2)" transform="translate(247.000000, 1.500000) rotate(-39.000000) translate(-247.000000, -1.500000) " cx="247" cy="1.5" rx="4" ry="6.5"></ellipse>
            </g>
        </g>
    </g>
</svg>