<?xml version="1.0" encoding="UTF-8"?>
<svg width="320px" height="933px" viewBox="0 0 320 933" version="1.1" xmlns="http://www.w3.org/2000/svg" xmlns:xlink="http://www.w3.org/1999/xlink">
    <!-- Generator: Sketch 54.1 (76490) - https://sketchapp.com -->
    <title>chanchanphuhop</title>
    <desc>Created with Sketch.</desc>
    <defs>
        <path d="M45.7963983,676.049451 C45.9216916,676.114398 46,676.241576 46,676.379822 L46,681.508088 C45.9995709,685.861382 43.3169207,689.789914 39.1933974,691.475598 L38.0189871,691.969275 C37.9213699,692.010415 37.810451,692.010206 37.7130482,691.968858 L36.6707966,691.526762 C32.6223634,689.803696 30.0045054,685.912755 30,681.611877 L30,676.379822 C30,676.243038 30.0763774,676.117321 30.1995253,676.05154 L37.7083283,672.046158 C37.8220363,671.985388 37.959344,671.984553 38.0739102,672.04407 L45.7963983,676.049451 Z M41.8901696,679.696116 C42.0863602,679.481213 42.0663135,679.152354 41.8455323,678.961127 C41.6250184,678.77016 41.2866297,678.789413 41.0909737,679.004315 L37.1513923,683.318244 L34.8748867,681.545685 C34.6444831,681.366166 34.3076982,681.40259 34.1235356,681.62712 C33.9391058,681.851649 33.9765264,682.179207 34.20693,682.358466 L36.879826,684.43985 C36.9784559,684.516341 37.0963306,684.553806 37.2136707,684.553806 C37.3614819,684.553806 37.5082239,684.494486 37.613536,684.37923 L41.8901696,679.696116 Z" id="path-1"></path>
        <filter x="-12.5%" y="-10.0%" width="125.0%" height="120.0%" filterUnits="objectBoundingBox" id="filter-2">
            <feGaussianBlur stdDeviation="1.5" in="SourceAlpha" result="shadowBlurInner1"></feGaussianBlur>
            <feOffset dx="-1" dy="1" in="shadowBlurInner1" result="shadowOffsetInner1"></feOffset>
            <feComposite in="shadowOffsetInner1" in2="SourceAlpha" operator="arithmetic" k2="-1" k3="1" result="shadowInnerInner1"></feComposite>
            <feColorMatrix values="0 0 0 0 0   0 0 0 0 0   0 0 0 0 0  0 0 0 0.25 0" type="matrix" in="shadowInnerInner1"></feColorMatrix>
        </filter>
        <linearGradient x1="-37.5658265%" y1="41.3307134%" x2="134.769076%" y2="65.0404029%" id="linearGradient-3">
            <stop stop-color="#AA00FF" offset="0%"></stop>
            <stop stop-color="#304FFE" offset="100%"></stop>
        </linearGradient>
        <filter x="-14.4%" y="-69.2%" width="128.8%" height="238.5%" filterUnits="objectBoundingBox" id="filter-4">
            <feGaussianBlur stdDeviation="12" in="SourceGraphic"></feGaussianBlur>
        </filter>
        <linearGradient x1="-37.5658265%" y1="40.7042155%" x2="134.769076%" y2="66.1273184%" id="linearGradient-5">
            <stop stop-color="#AA00FF" offset="0%"></stop>
            <stop stop-color="#304FFE" offset="100%"></stop>
        </linearGradient>
        <linearGradient x1="152.656945%" y1="-74.6508461%" x2="-32.6851069%" y2="146.123129%" id="linearGradient-6">
            <stop stop-color="#651FFF" offset="0%"></stop>
            <stop stop-color="#304FFE" offset="100%"></stop>
        </linearGradient>
        <circle id="path-7" cx="270" cy="20" r="12"></circle>
        <filter x="-25.0%" y="-16.7%" width="141.7%" height="141.7%" filterUnits="objectBoundingBox" id="filter-8">
            <feOffset dx="-1" dy="1" in="SourceAlpha" result="shadowOffsetOuter1"></feOffset>
            <feGaussianBlur stdDeviation="1.5" in="shadowOffsetOuter1" result="shadowBlurOuter1"></feGaussianBlur>
            <feColorMatrix values="0 0 0 0 0   0 0 0 0 0   0 0 0 0 0  0 0 0 0.25 0" type="matrix" in="shadowBlurOuter1"></feColorMatrix>
        </filter>
        <text id="text-9" font-family="SFCompactDisplay-Semibold, SF Compact Display" font-size="20" font-weight="500" letter-spacing="-1" fill="#FFFFFF">
            <tspan x="127.12793" y="862">Đăng ký</tspan>
        </text>
        <filter x="-11.4%" y="-22.9%" width="121.2%" height="154.2%" filterUnits="objectBoundingBox" id="filter-10">
            <feOffset dx="-1" dy="1" in="SourceAlpha" result="shadowOffsetOuter1"></feOffset>
            <feGaussianBlur stdDeviation="2" in="shadowOffsetOuter1" result="shadowBlurOuter1"></feGaussianBlur>
            <feColorMatrix values="0 0 0 0 0   0 0 0 0 0   0 0 0 0 0  0 0 0 0.25 0" type="matrix" in="shadowBlurOuter1"></feColorMatrix>
        </filter>
    </defs>
    <g id="chanchanphuhop" stroke="none" stroke-width="1" fill="none" fill-rule="evenodd">
        <rect id="Rectangle" fill="#FFFFFF" x="0" y="746" width="320" height="187"></rect>
        <rect id="Rectangle" fill="#EAF8FE" x="0" y="20" width="320" height="728"></rect>
        <path d="M0,751.505514 L5.21402985,748.40667 C8.1468085,746.663637 11.8130177,746.728728 14.682075,748.574768 L15.1302018,748.863107 C18.096321,750.771599 21.9038629,750.771599 24.8699821,748.863107 L25.1302478,748.695644 C28.096367,746.787151 31.9039089,746.787151 34.8700281,748.695644 L35.1302938,748.863107 C38.0964129,750.771599 41.9039549,750.771599 44.870074,748.863107 L45.1303397,748.695644 C48.0964589,746.787151 51.9040008,746.787151 54.87012,748.695644 L55.1303857,748.863107 C58.0965049,750.771599 61.9040468,750.771599 64.870166,748.863107 L65.1304317,748.695644 C68.0965508,746.787151 71.9040928,746.787151 74.8702119,748.695644 L75.1304776,748.863107 C78.0965968,750.771599 81.9041387,750.771599 84.8702579,748.863107 L85.1305236,748.695644 C88.0966428,746.787151 91.9041847,746.787151 94.8703039,748.695644 L95.1305696,748.863107 C98.0966888,750.771599 101.904231,750.771599 104.87035,748.863107 L105.129308,748.696485 C108.096097,746.787562 111.904615,746.788027 114.870938,748.697675 L115.128155,748.863266 C118.095483,750.773562 121.905469,750.773328 124.872563,748.862667 L125.126816,748.698941 C128.094063,746.788182 131.904272,746.788055 134.871647,748.698615 L135.12701,748.863032 C138.094202,750.773474 141.904143,750.773474 144.871335,748.863032 L145.127056,748.698384 C148.094248,746.787942 151.904189,746.787942 154.871381,748.698384 L155.127102,748.863032 C158.094294,750.773474 161.904235,750.773474 164.871427,748.863032 L165.127148,748.698384 C168.09434,746.787942 171.904281,746.787942 174.871473,748.698384 L175.127194,748.863032 C178.094386,750.773474 181.904327,750.773474 184.871519,748.863032 L185.12724,748.698384 C188.094432,746.787942 191.904373,746.787942 194.871565,748.698384 L195.127286,748.863032 C198.094478,750.773474 201.904419,750.773474 204.871611,748.863032 L205.127332,748.698384 C208.094524,746.787942 211.904465,746.787942 214.871657,748.698384 L215.127378,748.863032 C218.09457,750.773474 221.904511,750.773474 224.871703,748.863032 L225.127264,748.698487 C228.094538,746.787992 231.904598,746.788049 234.871815,748.698633 L235.127244,748.863103 C238.094542,750.773739 241.904722,750.773739 244.87202,748.863103 L245.127357,748.698692 C248.094621,746.788078 251.904751,746.788054 254.872038,748.698631 L255.127124,748.862875 C258.094676,750.773622 261.905191,750.773415 264.872534,748.862344 L265.126883,748.698536 C268.094525,746.787273 271.905475,746.787273 274.873117,748.698536 L275.127354,748.862272 C278.094755,750.773379 281.905353,750.773547 284.872922,748.862701 L285.127455,748.698805 C288.094761,746.788129 291.904974,746.788113 294.872295,748.698764 L295.12752,748.863103 C298.094818,750.773739 301.904998,750.773739 304.872296,748.863103 L305.127726,748.698633 C308.094942,746.788049 311.905003,746.787992 314.872276,748.698487 L320,752 L320,740 L0,740 L0,751.505514 Z" id="Rectangle" fill="#FFFFFF" transform="translate(160.000000, 746.000000) scale(1, -1) translate(-160.000000, -746.000000) "></path>
        <g id="Shape" opacity="0.6" fill-rule="nonzero">
            <use fill="#03A9F4" xlink:href="#path-1"></use>
            <use fill="black" fill-opacity="1" filter="url(#filter-2)" xlink:href="#path-1"></use>
        </g>
        <path d="M280,846 L280,888 C280,890.761424 277.761424,893 275,893 L35,893 C32.2385763,893 30,890.761424 30,888 L30,846 C30,843.238576 32.2385763,841 35,841 L275,841 C277.761424,841 280,843.238576 280,846 Z" id="Triangle" fill="url(#linearGradient-3)" opacity="0.6" filter="url(#filter-4)" transform="translate(155.000000, 867.000000) scale(-1, 1) translate(-155.000000, -867.000000) "></path>
        <path d="M290,834 L290,880 C290,882.761424 287.761424,885 285,885 L35,885 C32.2385763,885 30,882.761424 30,880 L30,834 C30,831.238576 32.2385763,829 35,829 L285,829 C287.761424,829 290,831.238576 290,834 Z" id="Triangle" fill="url(#linearGradient-5)" transform="translate(160.000000, 857.000000) scale(-1, 1) translate(-160.000000, -857.000000) "></path>
        <polygon id="Line" fill="#FFFFFF" fill-rule="nonzero" opacity="0.4" points="262 857 245 857 245 856 262 856 262 852 271 856.5 262 861"></polygon>
        <path d="M320,32.8940084 L314.908739,29.5809535 C311.924339,27.6389035 308.075569,27.6389035 305.091169,29.5809535 L304.908693,29.6996964 C301.924293,31.6417463 298.075523,31.6417463 295.091123,29.6996964 L294.999885,29.6403249 C292.080383,27.7405064 288.232048,28.1291542 285.751353,30.5743449 L279.999816,36.2435652 C274.453778,41.7102271 265.545762,41.7102271 259.999724,36.2435652 L254.248187,30.5743449 C251.767492,28.1291542 247.919158,27.7405064 244.999655,29.6403249 L244.908417,29.6996964 C241.924017,31.6417463 238.075247,31.6417463 235.090847,29.6996964 L234.908372,29.5809535 C231.923971,27.6389035 228.075201,27.6389035 225.090801,29.5809535 L224.908326,29.6996964 C221.923925,31.6417463 218.075155,31.6417463 215.090755,29.6996964 L214.90828,29.5809535 C211.923879,27.6389035 208.075109,27.6389035 205.090709,29.5809535 L204.908234,29.6996964 C201.923833,31.6417463 198.075064,31.6417463 195.090663,29.6996964 L194.908188,29.5809535 C191.923787,27.6389035 188.075018,27.6389035 185.090617,29.5809535 L184.908142,29.6996964 C181.923741,31.6417463 178.074972,31.6417463 175.090571,29.6996964 L174.908096,29.5809535 C171.923695,27.6389035 168.074926,27.6389035 165.090525,29.5809535 L164.90805,29.6996964 C161.923649,31.6417463 158.07488,31.6417463 155.090479,29.6996964 L154.908004,29.5809535 C151.923603,27.6389035 148.074834,27.6389035 145.090433,29.5809535 L144.907958,29.6996964 C141.923557,31.6417463 138.074788,31.6417463 135.090387,29.6996964 L134.908273,29.5811885 C131.923688,27.6390188 128.074649,27.6391482 125.090195,29.5815187 L124.909182,29.6993272 C121.924882,31.6415978 118.076067,31.6418352 115.091527,29.6999328 L114.90755,29.5802274 C111.924019,27.6389815 108.076685,27.6385094 105.092678,29.5790229 L104.90697,29.6997894 C101.923634,31.6398662 98.077285,31.6398662 95.0939493,29.6997894 L94.9069242,29.5781661 C91.9235884,27.6380893 88.0772391,27.6380893 85.0939033,29.5781661 L84.9068782,29.6997894 C81.9235425,31.6398662 78.0771931,31.6398662 75.0938574,29.6997894 L74.9068322,29.5781661 C71.9234965,27.6380893 68.0771471,27.6380893 65.0938114,29.5781661 L64.9067862,29.6997894 C61.9234505,31.6398662 58.0771012,31.6398662 55.0937654,29.6997894 L54.9067403,29.5781661 C51.9234045,27.6380893 48.0770552,27.6380893 45.0937195,29.5781661 L44.9066943,29.6997894 C41.9233586,31.6398662 38.0770092,31.6398662 35.0936735,29.6997894 L34.9066483,29.5781661 C31.9233126,27.6380893 28.0769632,27.6380893 25.0936275,29.5781661 L24.9066023,29.6997894 C21.9232666,31.6398662 18.0769173,31.6398662 15.0935815,29.6997894 L14.7172509,29.4550598 C11.8312646,27.5782898 8.12752144,27.5122229 5.17643724,29.2848721 L0,32.3942402 L0,0 L320,0 L320,32.8940084 Z" id="Rectangle-2" fill="#FFFFFF"></path>
        <g id="Oval">
            <use fill="black" fill-opacity="1" filter="url(#filter-8)" xlink:href="#path-7"></use>
            <use fill="url(#linearGradient-6)" fill-rule="evenodd" xlink:href="#path-7"></use>
        </g>
        <text id="——" font-family="Georgia-Italic, Georgia" font-size="14" font-style="italic" font-weight="normal" letter-spacing="-0.56" fill="#8C96A8">
            <tspan x="28" y="430">——</tspan>
        </text>
        <text id="c" font-family="Georgia-Bold, Georgia" font-size="28" font-weight="bold" letter-spacing="-1.12" fill="#8C96A8">
            <tspan x="30" y="435">c</tspan>
        </text>
        <text id="——" font-family="Georgia-Italic, Georgia" font-size="14" font-style="italic" font-weight="normal" letter-spacing="-0.56" fill="#8C96A8">
            <tspan x="28" y="276">——</tspan>
        </text>
        <text id="b" font-family="Georgia-Bold, Georgia" font-size="28" font-weight="bold" letter-spacing="-1.12" fill="#8C96A8">
            <tspan x="30" y="281">b</tspan>
        </text>
        <text id="Thành-viên-hoàn-toàn" font-family="Georgia-Italic, Georgia" font-size="15" font-style="italic" font-weight="normal" line-spacing="20" fill="#5D6A80">
            <tspan x="60" y="682">Thành viên hoàn toàn riêng tư </tspan>
            <tspan x="60" y="702">khi ở trong Chương trình.</tspan>
        </text>
        <text id="—-Chanchan-có-phù-hợ" font-family="Georgia-Italic, Georgia" font-size="15" font-style="italic" font-weight="normal" fill="#343D51">
            <tspan x="30" y="798">— Chanchan có phù hợp với bạn?</tspan>
        </text>
        <g id="Đăng-ký" fill="#FFFFFF" fill-opacity="1">
            <use filter="url(#filter-10)" xlink:href="#text-9"></use>
            <use xlink:href="#text-9"></use>
        </g>
        <text id="—-Chanchan-phù-hợp-v" font-family="Georgia-Italic, Georgia" font-size="15" font-style="italic" font-weight="normal" fill="#5D6A80">
            <tspan x="30" y="90">— Chanchan phù hợp với bạn khi</tspan>
        </text>
        <text id="i" font-family="Georgia-Italic, Georgia" font-size="15" font-style="italic" font-weight="normal" fill="#FFFFFF">
            <tspan x="268" y="24">i</tspan>
        </text>
        <text id="Bạn-muốn-tìm" font-family="SFCompactDisplay-Semibold, SF Compact Display" font-size="18" font-weight="500" letter-spacing="-0.720000029" fill="#343D51">
            <tspan x="60" y="142">Bạn muốn tìm</tspan>
        </text>
        <text id="——" font-family="Georgia-Italic, Georgia" font-size="14" font-style="italic" font-weight="normal" letter-spacing="-0.56" fill="#8C96A8">
            <tspan x="28" y="141">——</tspan>
        </text>
        <text id="a" font-family="Georgia-Bold, Georgia" font-size="28" font-weight="bold" letter-spacing="-1.12" fill="#8C96A8">
            <tspan x="30" y="146">a</tspan>
        </text>
        <text id="Một-tình-yêu-thực-sự" font-family="SFCompactDisplay-Regular, SF Compact Display" font-size="16" font-weight="normal" line-spacing="21" fill="#343D51">
            <tspan x="60" y="173">Một tình yêu thực sự, một người </tspan>
            <tspan x="60" y="194">bạn đời để gắn bó.</tspan>
        </text>
        <text id="Bạn-không-muốn" font-family="SFCompactDisplay-Semibold, SF Compact Display" font-size="18" font-weight="500" letter-spacing="-0.720000029" fill="#343D51">
            <tspan x="60" y="277">Bạn không muốn</tspan>
        </text>
        <text id="Không-muốn-mất-thời" font-family="SFCompactDisplay-Regular, SF Compact Display" font-size="16" font-weight="normal" line-spacing="21" fill="#343D51">
            <tspan x="60" y="308">Không muốn mất thời gian cho </tspan>
            <tspan x="60" y="329">những mối quan hệ ngắn hạn, </tspan>
            <tspan x="60" y="350">không có nhiều triển vọng.</tspan>
        </text>
        <text id="……………………………………………………" font-family="Georgia-Italic, Georgia" font-size="14" font-style="italic" font-weight="normal" fill="#DADFE7">
            <tspan x="60" y="229">……………………………………………………</tspan>
        </text>
        <text id="……………………………………………………" font-family="Georgia-Italic, Georgia" font-size="14" font-style="italic" font-weight="normal" fill="#DADFE7">
            <tspan x="60" y="385">……………………………………………………</tspan>
        </text>
        <text id="……………………………………………………" font-family="Georgia-Italic, Georgia" font-size="14" font-style="italic" font-weight="normal" fill="#DADFE7">
            <tspan x="30" y="541">……………………………………………………………</tspan>
        </text>
        <text id="Bạn-không-vội" font-family="SFCompactDisplay-Semibold, SF Compact Display" font-size="18" font-weight="500" letter-spacing="-0.720000029" fill="#343D51">
            <tspan x="60" y="433">Bạn không vội</tspan>
        </text>
        <text id="Bạn-không-vội-vàng-c" font-family="SFCompactDisplay-Regular, SF Compact Display" font-size="16" font-weight="normal" line-spacing="21" fill="#343D51">
            <tspan x="60" y="464">Bạn không vội vàng chuyện tình </tspan>
            <tspan x="60" y="485">cảm. Bạn chọn một cuộc sống có </tspan>
            <tspan x="60" y="506">trách nhiệm với bản thân.</tspan>
        </text>
        <text id="Cơ-chế-hoạt-động-xuy" font-family="SFCompactDisplay-Regular, SF Compact Display" font-size="16" font-weight="normal" line-spacing="21" fill="#5D6A80">
            <tspan x="30" y="583">Cơ chế hoạt động xuyên suốt của </tspan>
            <tspan x="30" y="604">Chanchan là ngầm nên tất cả thông </tspan>
            <tspan x="30" y="625">tin của Thành viên đều không định </tspan>
            <tspan x="30" y="646">danh, không công khai.</tspan>
        </text>
    </g>
</svg>