<?xml version="1.0" encoding="UTF-8"?>
<svg width="320px" height="1081px" viewBox="0 0 320 1081" version="1.1" xmlns="http://www.w3.org/2000/svg" xmlns:xlink="http://www.w3.org/1999/xlink">
    <!-- Generator: Sketch 54.1 (76490) - https://sketchapp.com -->
    <title>chanchanla_pre</title>
    <desc>Created with Sketch.</desc>
    <defs>
        <linearGradient x1="142.098935%" y1="-29.9479431%" x2="-18.010883%" y2="118.031729%" id="linearGradient-1">
            <stop stop-color="#03A9F4" offset="0%"></stop>
            <stop stop-color="#3D5AFE" offset="100%"></stop>
        </linearGradient>
        <path d="M36,987 C32.6916923,987 30,989.691462 30,993 C30,996.308538 32.6916923,999 36,999 C39.3083077,999 42,996.308538 42,993 C42,989.691462 39.3083077,987 36,987 Z M39.345,990.999 L35.6526923,995.152846 C35.5617692,995.255077 35.4350769,995.307692 35.3074615,995.307692 C35.2061538,995.307692 35.1043846,995.274462 35.0192308,995.206615 L32.7115385,993.360462 C32.5126154,993.201462 32.4803077,992.910923 32.6395385,992.711769 C32.7985385,992.512615 33.0893077,992.480308 33.2882308,992.639538 L35.2536923,994.211769 L38.655,990.385385 C38.8239231,990.194769 39.1160769,990.177692 39.3064615,990.347077 C39.4970769,990.516692 39.5143846,990.808385 39.345,990.999 Z" id="path-2"></path>
        <filter x="-16.7%" y="-16.7%" width="133.3%" height="133.3%" filterUnits="objectBoundingBox" id="filter-3">
            <feGaussianBlur stdDeviation="1.5" in="SourceAlpha" result="shadowBlurInner1"></feGaussianBlur>
            <feOffset dx="-1" dy="1" in="shadowBlurInner1" result="shadowOffsetInner1"></feOffset>
            <feComposite in="shadowOffsetInner1" in2="SourceAlpha" operator="arithmetic" k2="-1" k3="1" result="shadowInnerInner1"></feComposite>
            <feColorMatrix values="0 0 0 0 0   0 0 0 0 0   0 0 0 0 0  0 0 0 0.25 0" type="matrix" in="shadowInnerInner1"></feColorMatrix>
        </filter>
        <path d="M36,935 C32.6916923,935 30,937.691462 30,941 C30,944.308538 32.6916923,947 36,947 C39.3083077,947 42,944.308538 42,941 C42,937.691462 39.3083077,935 36,935 Z M39.345,938.999 L35.6526923,943.152846 C35.5617692,943.255077 35.4350769,943.307692 35.3074615,943.307692 C35.2061538,943.307692 35.1043846,943.274462 35.0192308,943.206615 L32.7115385,941.360462 C32.5126154,941.201462 32.4803077,940.910923 32.6395385,940.711769 C32.7985385,940.512615 33.0893077,940.480308 33.2882308,940.639538 L35.2536923,942.211769 L38.655,938.385385 C38.8239231,938.194769 39.1160769,938.177692 39.3064615,938.347077 C39.4970769,938.516692 39.5143846,938.808385 39.345,938.999 Z" id="path-4"></path>
        <filter x="-16.7%" y="-16.7%" width="133.3%" height="133.3%" filterUnits="objectBoundingBox" id="filter-5">
            <feGaussianBlur stdDeviation="1.5" in="SourceAlpha" result="shadowBlurInner1"></feGaussianBlur>
            <feOffset dx="-1" dy="1" in="shadowBlurInner1" result="shadowOffsetInner1"></feOffset>
            <feComposite in="shadowOffsetInner1" in2="SourceAlpha" operator="arithmetic" k2="-1" k3="1" result="shadowInnerInner1"></feComposite>
            <feColorMatrix values="0 0 0 0 0   0 0 0 0 0   0 0 0 0 0  0 0 0 0.25 0" type="matrix" in="shadowInnerInner1"></feColorMatrix>
        </filter>
        <linearGradient x1="50%" y1="0%" x2="50%" y2="100%" id="linearGradient-6">
            <stop stop-color="#F0F6FA" offset="0%"></stop>
            <stop stop-color="#F0F6FA" offset="100%"></stop>
        </linearGradient>
        <linearGradient x1="-36.069949%" y1="-200.168332%" x2="107.247342%" y2="400.951606%" id="linearGradient-7">
            <stop stop-color="#F50057" offset="0%"></stop>
            <stop stop-color="#AA00FF" offset="100%"></stop>
        </linearGradient>
        <circle id="path-8" cx="50" cy="620" r="11"></circle>
        <filter x="-25.0%" y="-25.0%" width="159.1%" height="159.1%" filterUnits="objectBoundingBox" id="filter-9">
            <feOffset dx="1" dy="1" in="SourceAlpha" result="shadowOffsetOuter1"></feOffset>
            <feGaussianBlur stdDeviation="2" in="shadowOffsetOuter1" result="shadowBlurOuter1"></feGaussianBlur>
            <feColorMatrix values="0 0 0 0 0   0 0 0 0 0   0 0 0 0 0  0 0 0 0.25 0" type="matrix" in="shadowBlurOuter1"></feColorMatrix>
        </filter>
        <linearGradient x1="-31.2535442%" y1="34.7889397%" x2="100%" y2="63.7452061%" id="linearGradient-10">
            <stop stop-color="#F50057" offset="0%"></stop>
            <stop stop-color="#AA00FF" offset="100%"></stop>
        </linearGradient>
        <filter x="-14.4%" y="-64.3%" width="128.8%" height="228.6%" filterUnits="objectBoundingBox" id="filter-11">
            <feGaussianBlur stdDeviation="12" in="SourceGraphic"></feGaussianBlur>
        </filter>
        <linearGradient x1="-36.069949%" y1="38.3945579%" x2="107.247342%" y2="66.2808319%" id="linearGradient-12">
            <stop stop-color="#F50057" offset="0%"></stop>
            <stop stop-color="#AA00FF" offset="100%"></stop>
        </linearGradient>
    </defs>
    <g id="chanchanla_pre" stroke="none" stroke-width="1" fill="none" fill-rule="evenodd">
        <rect fill="#FFFFFF" x="0" y="0" width="320" height="1081"></rect>
        <path d="M0,629.39424 L5.17643724,626.284872 C8.12752144,624.512223 11.8312646,624.57829 14.7172509,626.45506 L15.0935815,626.699789 C18.0769173,628.639866 21.9232666,628.639866 24.9066023,626.699789 L25.0936275,626.578166 C28.0769632,624.638089 31.9233126,624.638089 34.9066483,626.578166 L35.0936735,626.699789 C38.0770092,628.639866 41.9233586,628.639866 44.9066943,626.699789 L45.0937195,626.578166 C48.0770552,624.638089 51.9234045,624.638089 54.9067403,626.578166 L55.0937654,626.699789 C58.0771012,628.639866 61.9234505,628.639866 64.9067862,626.699789 L65.0938114,626.578166 C68.0771471,624.638089 71.9234965,624.638089 74.9068322,626.578166 L75.0938574,626.699789 C78.0771931,628.639866 81.9235425,628.639866 84.9068782,626.699789 L85.0939033,626.578166 C88.0772391,624.638089 91.9235884,624.638089 94.9069242,626.578166 L95.0939493,626.699789 C98.077285,628.639866 101.923634,628.639866 104.90697,626.699789 L105.092678,626.579023 C108.076685,624.638509 111.924019,624.638982 114.90755,626.580227 L115.091527,626.699933 C118.076067,628.641835 121.924882,628.641598 124.909182,626.699327 L125.090195,626.581519 C128.074649,624.639148 131.923688,624.639019 134.908273,626.581188 L135.090387,626.699696 C138.074788,628.641746 141.923557,628.641746 144.907958,626.699696 L145.090433,626.580953 C148.074834,624.638904 151.923603,624.638904 154.908004,626.580953 L155.090479,626.699696 C158.07488,628.641746 161.923649,628.641746 164.90805,626.699696 L165.090525,626.580953 C168.074926,624.638904 171.923695,624.638904 174.908096,626.580953 L175.090571,626.699696 C178.074972,628.641746 181.923741,628.641746 184.908142,626.699696 L185.090617,626.580953 C188.075018,624.638904 191.923787,624.638904 194.908188,626.580953 L195.090663,626.699696 C198.075064,628.641746 201.923833,628.641746 204.908234,626.699696 L205.090709,626.580953 C208.075109,624.638904 211.923879,624.638904 214.90828,626.580953 L215.090755,626.699696 C218.075155,628.641746 221.923925,628.641746 224.908326,626.699696 L225.090801,626.580953 C228.075201,624.638904 231.923971,624.638904 234.908372,626.580953 L235.090847,626.699696 C238.075247,628.641746 241.924017,628.641746 244.908417,626.699696 L244.999655,626.640325 C247.919158,624.740506 251.767492,625.129154 254.248187,627.574345 L259.999724,633.243565 C265.545762,638.710227 274.453778,638.710227 279.999816,633.243565 L285.751353,627.574345 C288.232048,625.129154 292.080383,624.740506 294.999885,626.640325 L295.091123,626.699696 C298.075523,628.641746 301.924293,628.641746 304.908693,626.699696 L305.091169,626.580953 C308.075569,624.638904 311.924339,624.638904 314.908739,626.580953 L320,629.894008 L320,645 L0,645 L0,629.39424 Z" id="Rectangle" fill="#FFFFFF" transform="translate(160.000000, 635.000000) scale(-1, 1) translate(-160.000000, -635.000000) "></path>
        <g id="Shape">
            <use fill="url(#linearGradient-1)" fill-rule="evenodd" xlink:href="#path-2"></use>
            <use fill="black" fill-opacity="1" filter="url(#filter-3)" xlink:href="#path-2"></use>
        </g>
        <g id="Shape">
            <use fill="url(#linearGradient-1)" fill-rule="evenodd" xlink:href="#path-4"></use>
            <use fill="black" fill-opacity="1" filter="url(#filter-5)" xlink:href="#path-4"></use>
        </g>
        <rect id="Rectangle" fill="url(#linearGradient-6)" x="0" y="318" width="320" height="323"></rect>
        <path d="M0,329.505514 L5.21402985,326.40667 C8.1468085,324.663637 11.8130177,324.728728 14.682075,326.574768 L15.1302018,326.863107 C18.096321,328.771599 21.9038629,328.771599 24.8699821,326.863107 L25.1302478,326.695644 C28.096367,324.787151 31.9039089,324.787151 34.8700281,326.695644 L35.1302938,326.863107 C38.0964129,328.771599 41.9039549,328.771599 44.870074,326.863107 L45.1303397,326.695644 C48.0964589,324.787151 51.9040008,324.787151 54.87012,326.695644 L55.1303857,326.863107 C58.0965049,328.771599 61.9040468,328.771599 64.870166,326.863107 L65.1304317,326.695644 C68.0965508,324.787151 71.9040928,324.787151 74.8702119,326.695644 L75.1304776,326.863107 C78.0965968,328.771599 81.9041387,328.771599 84.8702579,326.863107 L85.1305236,326.695644 C88.0966428,324.787151 91.9041847,324.787151 94.8703039,326.695644 L95.1305696,326.863107 C98.0966888,328.771599 101.904231,328.771599 104.87035,326.863107 L105.129308,326.696485 C108.096097,324.787562 111.904615,324.788027 114.870938,326.697675 L115.128155,326.863266 C118.095483,328.773562 121.905469,328.773328 124.872563,326.862667 L125.126816,326.698941 C128.094063,324.788182 131.904272,324.788055 134.871647,326.698615 L135.12701,326.863032 C138.094202,328.773474 141.904143,328.773474 144.871335,326.863032 L145.127056,326.698384 C148.094248,324.787942 151.904189,324.787942 154.871381,326.698384 L155.127102,326.863032 C158.094294,328.773474 161.904235,328.773474 164.871427,326.863032 L165.127148,326.698384 C168.09434,324.787942 171.904281,324.787942 174.871473,326.698384 L175.127194,326.863032 C178.094386,328.773474 181.904327,328.773474 184.871519,326.863032 L185.12724,326.698384 C188.094432,324.787942 191.904373,324.787942 194.871565,326.698384 L195.127286,326.863032 C198.094478,328.773474 201.904419,328.773474 204.871611,326.863032 L205.127332,326.698384 C208.094524,324.787942 211.904465,324.787942 214.871657,326.698384 L215.127378,326.863032 C218.09457,328.773474 221.904511,328.773474 224.871703,326.863032 L225.127264,326.698487 C228.094538,324.787992 231.904598,324.788049 234.871815,326.698633 L235.127244,326.863103 C238.094542,328.773739 241.904722,328.773739 244.87202,326.863103 L245.127357,326.698692 C248.094621,324.788078 251.904751,324.788054 254.872038,326.698631 L255.127124,326.862875 C258.094676,328.773622 261.905191,328.773415 264.872534,326.862344 L265.126883,326.698536 C268.094525,324.787273 271.905475,324.787273 274.873117,326.698536 L275.127354,326.862272 C278.094755,328.773379 281.905353,328.773547 284.872922,326.862701 L285.127455,326.698805 C288.094761,324.788129 291.904974,324.788113 294.872295,326.698764 L295.12752,326.863103 C298.094818,328.773739 301.904998,328.773739 304.872296,326.863103 L305.127726,326.698633 C308.094942,324.788049 311.905003,324.787992 314.872276,326.698487 L320,330 L320,318 L0,318 L0,329.505514 Z" id="Rectangle" fill="#FFFFFF"></path>
        <path d="M0,629.39424 L5.17643724,626.284872 C8.12752144,624.512223 11.8312646,624.57829 14.7172509,626.45506 L15.0935815,626.699789 C18.0769173,628.639866 21.9232666,628.639866 24.9066023,626.699789 L25.0936275,626.578166 C28.0769632,624.638089 31.9233126,624.638089 34.9066483,626.578166 L35.0936735,626.699789 C38.0770092,628.639866 41.9233586,628.639866 44.9066943,626.699789 L45.0937195,626.578166 C48.0770552,624.638089 51.9234045,624.638089 54.9067403,626.578166 L55.0937654,626.699789 C58.0771012,628.639866 61.9234505,628.639866 64.9067862,626.699789 L65.0938114,626.578166 C68.0771471,624.638089 71.9234965,624.638089 74.9068322,626.578166 L75.0938574,626.699789 C78.0771931,628.639866 81.9235425,628.639866 84.9068782,626.699789 L85.0939033,626.578166 C88.0772391,624.638089 91.9235884,624.638089 94.9069242,626.578166 L95.0939493,626.699789 C98.077285,628.639866 101.923634,628.639866 104.90697,626.699789 L105.092678,626.579023 C108.076685,624.638509 111.924019,624.638982 114.90755,626.580227 L115.091527,626.699933 C118.076067,628.641835 121.924882,628.641598 124.909182,626.699327 L125.090195,626.581519 C128.074649,624.639148 131.923688,624.639019 134.908273,626.581188 L135.090387,626.699696 C138.074788,628.641746 141.923557,628.641746 144.907958,626.699696 L145.090433,626.580953 C148.074834,624.638904 151.923603,624.638904 154.908004,626.580953 L155.090479,626.699696 C158.07488,628.641746 161.923649,628.641746 164.90805,626.699696 L165.090525,626.580953 C168.074926,624.638904 171.923695,624.638904 174.908096,626.580953 L175.090571,626.699696 C178.074972,628.641746 181.923741,628.641746 184.908142,626.699696 L185.090617,626.580953 C188.075018,624.638904 191.923787,624.638904 194.908188,626.580953 L195.090663,626.699696 C198.075064,628.641746 201.923833,628.641746 204.908234,626.699696 L205.090709,626.580953 C208.075109,624.638904 211.923879,624.638904 214.90828,626.580953 L215.090755,626.699696 C218.075155,628.641746 221.923925,628.641746 224.908326,626.699696 L225.090801,626.580953 C228.075201,624.638904 231.923971,624.638904 234.908372,626.580953 L235.090847,626.699696 C238.075247,628.641746 241.924017,628.641746 244.908417,626.699696 L244.999655,626.640325 C247.919158,624.740506 251.767492,625.129154 254.248187,627.574345 L259.999724,633.243565 C265.545762,638.710227 274.453778,638.710227 279.999816,633.243565 L285.751353,627.574345 C288.232048,625.129154 292.080383,624.740506 294.999885,626.640325 L295.091123,626.699696 C298.075523,628.641746 301.924293,628.641746 304.908693,626.699696 L305.091169,626.580953 C308.075569,624.638904 311.924339,624.638904 314.908739,626.580953 L320,629.894008 L320,645 L0,645 L0,629.39424 Z" id="Rectangle" fill="#FFFFFF" transform="translate(160.000000, 635.000000) scale(-1, 1) translate(-160.000000, -635.000000) "></path>
        <g id="Oval">
            <use fill="black" fill-opacity="1" filter="url(#filter-9)" xlink:href="#path-8"></use>
            <use fill="url(#linearGradient-7)" fill-rule="evenodd" xlink:href="#path-8"></use>
        </g>
        <path d="M49.9999834,624 C49.820763,624 49.6415648,623.927972 49.5049254,623.784218 L45.2051418,619.258317 C44.9316194,618.970413 44.9316194,618.503627 45.2051418,618.21584 C45.4785535,617.928053 45.9219347,617.928053 46.1954792,618.21584 L49.9999834,622.220608 L53.8045097,618.21598 C54.0780321,617.928193 54.521369,617.928193 54.7947586,618.21598 C55.0684138,618.503767 55.0684138,618.970553 54.7947586,619.258457 L50.4950415,623.784358 C50.3583356,623.928135 50.1791374,624 49.9999834,624 Z" id="Path" fill="#FFFFFF" fill-rule="nonzero"></path>
        <path d="M280,231 L280,277 C280,279.761424 277.761424,282 275,282 L35,282 C32.2385763,282 30,279.761424 30,277 L30,231 C30,228.238576 32.2385763,226 35,226 L275,226 C277.761424,226 280,228.238576 280,231 Z" id="Triangle" fill="url(#linearGradient-10)" opacity="0.6" filter="url(#filter-11)" transform="translate(155.000000, 254.000000) scale(-1, 1) translate(-155.000000, -254.000000) "></path>
        <path d="M290,219 L290,265 C290,267.761424 287.761424,270 285,270 L35,270 C32.2385763,270 30,267.761424 30,265 L30,219 C30,216.238576 32.2385763,214 35,214 L285,214 C287.761424,214 290,216.238576 290,219 Z" id="Triangle" fill="url(#linearGradient-12)" transform="translate(160.000000, 242.000000) scale(-1, 1) translate(-160.000000, -242.000000) "></path>
        <polygon id="Line" fill="#FFFFFF" fill-rule="nonzero" opacity="0.4" points="261 242 244 242 244 241 261 241 261 237 270 241.5 261 246"></polygon>
    </g>
</svg>