<?xml version="1.0" encoding="UTF-8"?>
<svg width="320px" height="471px" viewBox="0 0 320 471" version="1.1" xmlns="http://www.w3.org/2000/svg" xmlns:xlink="http://www.w3.org/1999/xlink">
    <!-- Generator: Sketch 54.1 (76490) - https://sketchapp.com -->
    <title>chanchanla</title>
    <desc>Created with Sketch.</desc>
    <defs>
        <linearGradient x1="-31.2535442%" y1="34.7889397%" x2="100%" y2="63.7452061%" id="linearGradient-1">
            <stop stop-color="#F50057" offset="0%"></stop>
            <stop stop-color="#AA00FF" offset="100%"></stop>
        </linearGradient>
        <filter x="-14.4%" y="-64.3%" width="128.8%" height="228.6%" filterUnits="objectBoundingBox" id="filter-2">
            <feGaussianBlur stdDeviation="12" in="SourceGraphic"></feGaussianBlur>
        </filter>
        <linearGradient x1="-36.069949%" y1="38.3945579%" x2="107.247342%" y2="66.2808319%" id="linearGradient-3">
            <stop stop-color="#F50057" offset="0%"></stop>
            <stop stop-color="#AA00FF" offset="100%"></stop>
        </linearGradient>
        <text id="text-4" font-family="SFCompactDisplay-Semibold, SF Compact Display" font-size="20" font-weight="500" letter-spacing="-1" fill="#FFFFFF">
            <tspan x="127.12793" y="375">Đăng ký</tspan>
        </text>
        <filter x="-11.4%" y="-22.9%" width="121.2%" height="154.2%" filterUnits="objectBoundingBox" id="filter-5">
            <feOffset dx="-1" dy="1" in="SourceAlpha" result="shadowOffsetOuter1"></feOffset>
            <feGaussianBlur stdDeviation="2" in="shadowOffsetOuter1" result="shadowBlurOuter1"></feGaussianBlur>
            <feColorMatrix values="0 0 0 0 0   0 0 0 0 0   0 0 0 0 0  0 0 0 0.25 0" type="matrix" in="shadowBlurOuter1"></feColorMatrix>
        </filter>
    </defs>
    <g id="chanchanla" stroke="none" stroke-width="1" fill="none" fill-rule="evenodd">
        <text id="Tìm-hiểu-về-Chương-t" font-family="SFCompactDisplay-Semibold, SF Compact Display" font-size="18" font-weight="500" letter-spacing="-0.720000029" fill="#8C96A8">
            <tspan x="67.4295511" y="451">Tìm hiểu về Chương trình</tspan>
        </text>
        <text id="Được-thiết-kế-&amp;-vận" font-family="SFCompactDisplay-Regular, SF Compact Display" font-size="16" font-weight="normal" line-spacing="21" fill="#556279">
            <tspan x="30" y="97">Được thiết kế &amp; vận hành bởi những </tspan>
            <tspan x="30" y="118">Chuyên gia về Tâm lý - Công nghệ - </tspan>
            <tspan x="30" y="139">Thiết kế - Marketing…</tspan>
        </text>
        <text id="Chanchan-là-một-Chươ" font-family="SFCompactDisplay-Semibold, SF Compact Display" font-size="18" font-weight="500" letter-spacing="-0.720000029" fill="#556279">
            <tspan x="30" y="49">Chanchan là một Chương trình hẹn </tspan>
            <tspan x="30" y="70">hò thực tế.</tspan>
        </text>
        <text id="…-trở-nên-đơn-giản-h" font-family="Georgia-Italic, Georgia" font-size="16" font-style="italic" font-weight="normal" line-spacing="21" fill="#343D51">
            <tspan x="30" y="247">… trở nên đơn giản hơn với tất cả </tspan>
            <tspan x="30" y="268">mọi người. /&gt;</tspan>
        </text>
        <text id="……………………………………………………" font-family="Georgia-Italic, Georgia" font-size="14" font-style="italic" font-weight="normal" fill="#DADFE7">
            <tspan x="30" y="307">……………………………………………………………</tspan>
        </text>
        <path d="M280,359 L280,405 C280,407.761424 277.761424,410 275,410 L35,410 C32.2385763,410 30,407.761424 30,405 L30,359 C30,356.238576 32.2385763,354 35,354 L275,354 C277.761424,354 280,356.238576 280,359 Z" id="Triangle" fill="url(#linearGradient-1)" opacity="0.6" filter="url(#filter-2)" transform="translate(155.000000, 382.000000) scale(-1, 1) translate(-155.000000, -382.000000) "></path>
        <path d="M290,347 L290,393 C290,395.761424 287.761424,398 285,398 L35,398 C32.2385763,398 30,395.761424 30,393 L30,347 C30,344.238576 32.2385763,342 35,342 L285,342 C287.761424,342 290,344.238576 290,347 Z" id="Triangle" fill="url(#linearGradient-3)" transform="translate(160.000000, 370.000000) scale(-1, 1) translate(-160.000000, -370.000000) "></path>
        <polygon id="Line" fill="#FFFFFF" fill-rule="nonzero" opacity="0.4" points="261 370 244 370 244 369 261 369 261 365 270 369.5 261 374"></polygon>
        <g id="Đăng-ký" fill="#FFFFFF" fill-opacity="1">
            <use filter="url(#filter-5)" xlink:href="#text-4"></use>
            <use xlink:href="#text-4"></use>
        </g>
        <text id="Giúp-cho-việc-tìm-đư" font-family="SFCompactDisplay-Semibold, SF Compact Display" font-size="18" font-weight="500" letter-spacing="-0.720000029" fill="#343D51">
            <tspan x="30" y="178">Giúp cho việc tìm được một tình </tspan>
            <tspan x="30" y="199">yêu thực sự, một người bạn đời gắn </tspan>
            <tspan x="30" y="220">bó theo năm tháng</tspan>
        </text>
    </g>
</svg>