<?xml version="1.0" encoding="UTF-8"?>
<svg width="320px" height="811px" viewBox="0 0 320 811" version="1.1" xmlns="http://www.w3.org/2000/svg" xmlns:xlink="http://www.w3.org/1999/xlink">
    <!-- Generator: Sketch 54.1 (76490) - https://sketchapp.com -->
    <title>chanchanla_pre</title>
    <desc>Created with Sketch.</desc>
    <defs>
        <linearGradient x1="142.098935%" y1="-29.9479431%" x2="-18.010883%" y2="118.031729%" id="linearGradient-1">
            <stop stop-color="#03A9F4" offset="0%"></stop>
            <stop stop-color="#3D5AFE" offset="100%"></stop>
        </linearGradient>
        <path d="M36,717 C32.6916923,717 30,719.691462 30,723 C30,726.308538 32.6916923,729 36,729 C39.3083077,729 42,726.308538 42,723 C42,719.691462 39.3083077,717 36,717 Z M39.345,720.999 L35.6526923,725.152846 C35.5617692,725.255077 35.4350769,725.307692 35.3074615,725.307692 C35.2061538,725.307692 35.1043846,725.274462 35.0192308,725.206615 L32.7115385,723.360462 C32.5126154,723.201462 32.4803077,722.910923 32.6395385,722.711769 C32.7985385,722.512615 33.0893077,722.480308 33.2882308,722.639538 L35.2536923,724.211769 L38.655,720.385385 C38.8239231,720.194769 39.1160769,720.177692 39.3064615,720.347077 C39.4970769,720.516692 39.5143846,720.808385 39.345,720.999 Z" id="path-2"></path>
        <filter x="-16.7%" y="-16.7%" width="133.3%" height="133.3%" filterUnits="objectBoundingBox" id="filter-3">
            <feGaussianBlur stdDeviation="1.5" in="SourceAlpha" result="shadowBlurInner1"></feGaussianBlur>
            <feOffset dx="-1" dy="1" in="shadowBlurInner1" result="shadowOffsetInner1"></feOffset>
            <feComposite in="shadowOffsetInner1" in2="SourceAlpha" operator="arithmetic" k2="-1" k3="1" result="shadowInnerInner1"></feComposite>
            <feColorMatrix values="0 0 0 0 0   0 0 0 0 0   0 0 0 0 0  0 0 0 0.25 0" type="matrix" in="shadowInnerInner1"></feColorMatrix>
        </filter>
        <path d="M36,665 C32.6916923,665 30,667.691462 30,671 C30,674.308538 32.6916923,677 36,677 C39.3083077,677 42,674.308538 42,671 C42,667.691462 39.3083077,665 36,665 Z M39.345,668.999 L35.6526923,673.152846 C35.5617692,673.255077 35.4350769,673.307692 35.3074615,673.307692 C35.2061538,673.307692 35.1043846,673.274462 35.0192308,673.206615 L32.7115385,671.360462 C32.5126154,671.201462 32.4803077,670.910923 32.6395385,670.711769 C32.7985385,670.512615 33.0893077,670.480308 33.2882308,670.639538 L35.2536923,672.211769 L38.655,668.385385 C38.8239231,668.194769 39.1160769,668.177692 39.3064615,668.347077 C39.4970769,668.516692 39.5143846,668.808385 39.345,668.999 Z" id="path-4"></path>
        <filter x="-16.7%" y="-16.7%" width="133.3%" height="133.3%" filterUnits="objectBoundingBox" id="filter-5">
            <feGaussianBlur stdDeviation="1.5" in="SourceAlpha" result="shadowBlurInner1"></feGaussianBlur>
            <feOffset dx="-1" dy="1" in="shadowBlurInner1" result="shadowOffsetInner1"></feOffset>
            <feComposite in="shadowOffsetInner1" in2="SourceAlpha" operator="arithmetic" k2="-1" k3="1" result="shadowInnerInner1"></feComposite>
            <feColorMatrix values="0 0 0 0 0   0 0 0 0 0   0 0 0 0 0  0 0 0 0.25 0" type="matrix" in="shadowInnerInner1"></feColorMatrix>
        </filter>
        <linearGradient x1="50%" y1="0%" x2="50%" y2="100%" id="linearGradient-6">
            <stop stop-color="#F0F6FA" offset="0%"></stop>
            <stop stop-color="#F0F6FA" offset="100%"></stop>
        </linearGradient>
        <linearGradient x1="-36.069949%" y1="-200.168332%" x2="107.247342%" y2="400.951606%" id="linearGradient-7">
            <stop stop-color="#F50057" offset="0%"></stop>
            <stop stop-color="#AA00FF" offset="100%"></stop>
        </linearGradient>
        <circle id="path-8" cx="50" cy="350" r="11"></circle>
        <filter x="-25.0%" y="-25.0%" width="159.1%" height="159.1%" filterUnits="objectBoundingBox" id="filter-9">
            <feOffset dx="1" dy="1" in="SourceAlpha" result="shadowOffsetOuter1"></feOffset>
            <feGaussianBlur stdDeviation="2" in="shadowOffsetOuter1" result="shadowBlurOuter1"></feGaussianBlur>
            <feColorMatrix values="0 0 0 0 0   0 0 0 0 0   0 0 0 0 0  0 0 0 0.25 0" type="matrix" in="shadowBlurOuter1"></feColorMatrix>
        </filter>
    </defs>
    <g id="chanchanla_pre" stroke="none" stroke-width="1" fill="none" fill-rule="evenodd">
        <rect fill="#FFFFFF" x="0" y="0" width="320" height="811"></rect>
        <path d="M0,359.39424 L5.17643724,356.284872 C8.12752144,354.512223 11.8312646,354.57829 14.7172509,356.45506 L15.0935815,356.699789 C18.0769173,358.639866 21.9232666,358.639866 24.9066023,356.699789 L25.0936275,356.578166 C28.0769632,354.638089 31.9233126,354.638089 34.9066483,356.578166 L35.0936735,356.699789 C38.0770092,358.639866 41.9233586,358.639866 44.9066943,356.699789 L45.0937195,356.578166 C48.0770552,354.638089 51.9234045,354.638089 54.9067403,356.578166 L55.0937654,356.699789 C58.0771012,358.639866 61.9234505,358.639866 64.9067862,356.699789 L65.0938114,356.578166 C68.0771471,354.638089 71.9234965,354.638089 74.9068322,356.578166 L75.0938574,356.699789 C78.0771931,358.639866 81.9235425,358.639866 84.9068782,356.699789 L85.0939033,356.578166 C88.0772391,354.638089 91.9235884,354.638089 94.9069242,356.578166 L95.0939493,356.699789 C98.077285,358.639866 101.923634,358.639866 104.90697,356.699789 L105.092678,356.579023 C108.076685,354.638509 111.924019,354.638982 114.90755,356.580227 L115.091527,356.699933 C118.076067,358.641835 121.924882,358.641598 124.909182,356.699327 L125.090195,356.581519 C128.074649,354.639148 131.923688,354.639019 134.908273,356.581188 L135.090387,356.699696 C138.074788,358.641746 141.923557,358.641746 144.907958,356.699696 L145.090433,356.580953 C148.074834,354.638904 151.923603,354.638904 154.908004,356.580953 L155.090479,356.699696 C158.07488,358.641746 161.923649,358.641746 164.90805,356.699696 L165.090525,356.580953 C168.074926,354.638904 171.923695,354.638904 174.908096,356.580953 L175.090571,356.699696 C178.074972,358.641746 181.923741,358.641746 184.908142,356.699696 L185.090617,356.580953 C188.075018,354.638904 191.923787,354.638904 194.908188,356.580953 L195.090663,356.699696 C198.075064,358.641746 201.923833,358.641746 204.908234,356.699696 L205.090709,356.580953 C208.075109,354.638904 211.923879,354.638904 214.90828,356.580953 L215.090755,356.699696 C218.075155,358.641746 221.923925,358.641746 224.908326,356.699696 L225.090801,356.580953 C228.075201,354.638904 231.923971,354.638904 234.908372,356.580953 L235.090847,356.699696 C238.075247,358.641746 241.924017,358.641746 244.908417,356.699696 L244.999655,356.640325 C247.919158,354.740506 251.767492,355.129154 254.248187,357.574345 L259.999724,363.243565 C265.545762,368.710227 274.453778,368.710227 279.999816,363.243565 L285.751353,357.574345 C288.232048,355.129154 292.080383,354.740506 294.999885,356.640325 L295.091123,356.699696 C298.075523,358.641746 301.924293,358.641746 304.908693,356.699696 L305.091169,356.580953 C308.075569,354.638904 311.924339,354.638904 314.908739,356.580953 L320,359.894008 L320,375 L0,375 L0,359.39424 Z" id="Rectangle" fill="#FFFFFF" transform="translate(160.000000, 365.000000) scale(-1, 1) translate(-160.000000, -365.000000) "></path>
        <g id="Shape">
            <use fill="url(#linearGradient-1)" fill-rule="evenodd" xlink:href="#path-2"></use>
            <use fill="black" fill-opacity="1" filter="url(#filter-3)" xlink:href="#path-2"></use>
        </g>
        <g id="Shape">
            <use fill="url(#linearGradient-1)" fill-rule="evenodd" xlink:href="#path-4"></use>
            <use fill="black" fill-opacity="1" filter="url(#filter-5)" xlink:href="#path-4"></use>
        </g>
        <rect id="Rectangle" fill="url(#linearGradient-6)" x="0" y="0" width="320" height="371"></rect>
        <path d="M0,11.5055144 L5.21402985,8.40667007 C8.1468085,6.66363739 11.8130177,6.72872816 14.682075,8.57476806 L15.1302018,8.86310664 C18.096321,10.7715991 21.9038629,10.7715991 24.8699821,8.86310664 L25.1302478,8.69564367 C28.096367,6.78715121 31.9039089,6.78715121 34.8700281,8.69564367 L35.1302938,8.86310664 C38.0964129,10.7715991 41.9039549,10.7715991 44.870074,8.86310664 L45.1303397,8.69564367 C48.0964589,6.78715121 51.9040008,6.78715121 54.87012,8.69564367 L55.1303857,8.86310664 C58.0965049,10.7715991 61.9040468,10.7715991 64.870166,8.86310664 L65.1304317,8.69564367 C68.0965508,6.78715121 71.9040928,6.78715121 74.8702119,8.69564367 L75.1304776,8.86310664 C78.0965968,10.7715991 81.9041387,10.7715991 84.8702579,8.86310664 L85.1305236,8.69564367 C88.0966428,6.78715121 91.9041847,6.78715121 94.8703039,8.69564367 L95.1305696,8.86310664 C98.0966888,10.7715991 101.904231,10.7715991 104.87035,8.86310664 L105.129308,8.69648512 C108.096097,6.7875617 111.904615,6.78802705 114.870938,8.69767542 L115.128155,8.86326582 C118.095483,10.773562 121.905469,10.7733281 124.872563,8.86266741 L125.126816,8.69894136 C128.094063,6.78818213 131.904272,6.78805455 134.871647,8.69861507 L135.12701,8.86303197 C138.094202,10.7734743 141.904143,10.7734743 144.871335,8.86303197 L145.127056,8.6983843 C148.094248,6.78794195 151.904189,6.78794195 154.871381,8.6983843 L155.127102,8.86303197 C158.094294,10.7734743 161.904235,10.7734743 164.871427,8.86303197 L165.127148,8.6983843 C168.09434,6.78794195 171.904281,6.78794195 174.871473,8.6983843 L175.127194,8.86303197 C178.094386,10.7734743 181.904327,10.7734743 184.871519,8.86303197 L185.12724,8.6983843 C188.094432,6.78794195 191.904373,6.78794195 194.871565,8.6983843 L195.127286,8.86303197 C198.094478,10.7734743 201.904419,10.7734743 204.871611,8.86303197 L205.127332,8.6983843 C208.094524,6.78794195 211.904465,6.78794195 214.871657,8.6983843 L215.127378,8.86303197 C218.09457,10.7734743 221.904511,10.7734743 224.871703,8.86303197 L225.127264,8.69848714 C228.094538,6.78799213 231.904598,6.78804899 234.871815,8.69863256 L235.127244,8.86310304 C238.094542,10.7737393 241.904722,10.7737393 244.87202,8.86310304 L245.127357,8.69869214 C248.094621,6.78807806 251.904751,6.78805414 254.872038,8.69863097 L255.127124,8.86287531 C258.094676,10.7736222 261.905191,10.7734147 264.872534,8.86234449 L265.126883,8.69853555 C268.094525,6.7872731 271.905475,6.7872731 274.873117,8.69853555 L275.127354,8.86227236 C278.094755,10.7733795 281.905353,10.7735472 284.872922,8.86270123 L285.127455,8.69880504 C288.094761,6.7881292 291.904974,6.78811325 294.872295,8.69876425 L295.12752,8.86310304 C298.094818,10.7737393 301.904998,10.7737393 304.872296,8.86310304 L305.127726,8.69863256 C308.094942,6.78804899 311.905003,6.78799213 314.872276,8.69848714 L320,12 L320,0 L0,0 L0,11.5055144 Z" id="Rectangle" fill="#FFFFFF"></path>
        <path d="M0,359.39424 L5.17643724,356.284872 C8.12752144,354.512223 11.8312646,354.57829 14.7172509,356.45506 L15.0935815,356.699789 C18.0769173,358.639866 21.9232666,358.639866 24.9066023,356.699789 L25.0936275,356.578166 C28.0769632,354.638089 31.9233126,354.638089 34.9066483,356.578166 L35.0936735,356.699789 C38.0770092,358.639866 41.9233586,358.639866 44.9066943,356.699789 L45.0937195,356.578166 C48.0770552,354.638089 51.9234045,354.638089 54.9067403,356.578166 L55.0937654,356.699789 C58.0771012,358.639866 61.9234505,358.639866 64.9067862,356.699789 L65.0938114,356.578166 C68.0771471,354.638089 71.9234965,354.638089 74.9068322,356.578166 L75.0938574,356.699789 C78.0771931,358.639866 81.9235425,358.639866 84.9068782,356.699789 L85.0939033,356.578166 C88.0772391,354.638089 91.9235884,354.638089 94.9069242,356.578166 L95.0939493,356.699789 C98.077285,358.639866 101.923634,358.639866 104.90697,356.699789 L105.092678,356.579023 C108.076685,354.638509 111.924019,354.638982 114.90755,356.580227 L115.091527,356.699933 C118.076067,358.641835 121.924882,358.641598 124.909182,356.699327 L125.090195,356.581519 C128.074649,354.639148 131.923688,354.639019 134.908273,356.581188 L135.090387,356.699696 C138.074788,358.641746 141.923557,358.641746 144.907958,356.699696 L145.090433,356.580953 C148.074834,354.638904 151.923603,354.638904 154.908004,356.580953 L155.090479,356.699696 C158.07488,358.641746 161.923649,358.641746 164.90805,356.699696 L165.090525,356.580953 C168.074926,354.638904 171.923695,354.638904 174.908096,356.580953 L175.090571,356.699696 C178.074972,358.641746 181.923741,358.641746 184.908142,356.699696 L185.090617,356.580953 C188.075018,354.638904 191.923787,354.638904 194.908188,356.580953 L195.090663,356.699696 C198.075064,358.641746 201.923833,358.641746 204.908234,356.699696 L205.090709,356.580953 C208.075109,354.638904 211.923879,354.638904 214.90828,356.580953 L215.090755,356.699696 C218.075155,358.641746 221.923925,358.641746 224.908326,356.699696 L225.090801,356.580953 C228.075201,354.638904 231.923971,354.638904 234.908372,356.580953 L235.090847,356.699696 C238.075247,358.641746 241.924017,358.641746 244.908417,356.699696 L244.999655,356.640325 C247.919158,354.740506 251.767492,355.129154 254.248187,357.574345 L259.999724,363.243565 C265.545762,368.710227 274.453778,368.710227 279.999816,363.243565 L285.751353,357.574345 C288.232048,355.129154 292.080383,354.740506 294.999885,356.640325 L295.091123,356.699696 C298.075523,358.641746 301.924293,358.641746 304.908693,356.699696 L305.091169,356.580953 C308.075569,354.638904 311.924339,354.638904 314.908739,356.580953 L320,359.894008 L320,375 L0,375 L0,359.39424 Z" id="Rectangle" fill="#FFFFFF" transform="translate(160.000000, 365.000000) scale(-1, 1) translate(-160.000000, -365.000000) "></path>
        <g id="Oval">
            <use fill="black" fill-opacity="1" filter="url(#filter-9)" xlink:href="#path-8"></use>
            <use fill="url(#linearGradient-7)" fill-rule="evenodd" xlink:href="#path-8"></use>
        </g>
        <path d="M49.9999834,354 C49.820763,354 49.6415648,353.927972 49.5049254,353.784218 L45.2051418,349.258317 C44.9316194,348.970413 44.9316194,348.503627 45.2051418,348.21584 C45.4785535,347.928053 45.9219347,347.928053 46.1954792,348.21584 L49.9999834,352.220608 L53.8045097,348.21598 C54.0780321,347.928193 54.521369,347.928193 54.7947586,348.21598 C55.0684138,348.503767 55.0684138,348.970553 54.7947586,349.258457 L50.4950415,353.784358 C50.3583356,353.928135 50.1791374,354 49.9999834,354 Z" id="Path" fill="#FFFFFF" fill-rule="nonzero"></path>
    </g>
</svg>