<?xml version="1.0" encoding="UTF-8"?>
<svg width="320px" height="662px" viewBox="0 0 320 662" version="1.1" xmlns="http://www.w3.org/2000/svg" xmlns:xlink="http://www.w3.org/1999/xlink">
    <!-- Generator: Sketch 54.1 (76490) - https://sketchapp.com -->
    <title>chanchanla</title>
    <desc>Created with Sketch.</desc>
    <defs>
        <linearGradient x1="-53.2683638%" y1="378.785467%" x2="147.149253%" y2="-294.441501%" id="linearGradient-1">
            <stop stop-color="#F50057" offset="0%"></stop>
            <stop stop-color="#AA00FF" offset="100%"></stop>
        </linearGradient>
        <circle id="path-2" cx="270" cy="23" r="12"></circle>
        <filter x="-25.0%" y="-16.7%" width="141.7%" height="141.7%" filterUnits="objectBoundingBox" id="filter-3">
            <feOffset dx="-1" dy="1" in="SourceAlpha" result="shadowOffsetOuter1"></feOffset>
            <feGaussianBlur stdDeviation="1.5" in="shadowOffsetOuter1" result="shadowBlurOuter1"></feGaussianBlur>
            <feColorMatrix values="0 0 0 0 0   0 0 0 0 0   0 0 0 0 0  0 0 0 0.25 0" type="matrix" in="shadowBlurOuter1"></feColorMatrix>
        </filter>
    </defs>
    <g id="chanchanla" stroke="none" stroke-width="1" fill="none" fill-rule="evenodd">
        <rect fill="#FFFFFF" x="0" y="0" width="320" height="662"></rect>
        <path d="M0,32.3942402 L5.17643724,29.2848721 C8.12752144,27.5122229 11.8312646,27.5782898 14.7172509,29.4550598 L15.0935815,29.6997894 C18.0769173,31.6398662 21.9232666,31.6398662 24.9066023,29.6997894 L25.0936275,29.5781661 C28.0769632,27.6380893 31.9233126,27.6380893 34.9066483,29.5781661 L35.0936735,29.6997894 C38.0770092,31.6398662 41.9233586,31.6398662 44.9066943,29.6997894 L45.0937195,29.5781661 C48.0770552,27.6380893 51.9234045,27.6380893 54.9067403,29.5781661 L55.0937654,29.6997894 C58.0771012,31.6398662 61.9234505,31.6398662 64.9067862,29.6997894 L65.0938114,29.5781661 C68.0771471,27.6380893 71.9234965,27.6380893 74.9068322,29.5781661 L75.0938574,29.6997894 C78.0771931,31.6398662 81.9235425,31.6398662 84.9068782,29.6997894 L85.0939033,29.5781661 C88.0772391,27.6380893 91.9235884,27.6380893 94.9069242,29.5781661 L95.0939493,29.6997894 C98.077285,31.6398662 101.923634,31.6398662 104.90697,29.6997894 L105.092678,29.5790229 C108.076685,27.6385094 111.924019,27.6389815 114.90755,29.5802274 L115.091527,29.6999328 C118.076067,31.6418352 121.924882,31.6415978 124.909182,29.6993272 L125.090195,29.5815187 C128.074649,27.6391482 131.923688,27.6390188 134.908273,29.5811885 L135.090387,29.6996964 C138.074788,31.6417463 141.923557,31.6417463 144.907958,29.6996964 L145.090433,29.5809535 C148.074834,27.6389035 151.923603,27.6389035 154.908004,29.5809535 L155.090479,29.6996964 C158.07488,31.6417463 161.923649,31.6417463 164.90805,29.6996964 L165.090525,29.5809535 C168.074926,27.6389035 171.923695,27.6389035 174.908096,29.5809535 L175.090571,29.6996964 C178.074972,31.6417463 181.923741,31.6417463 184.908142,29.6996964 L185.090617,29.5809535 C188.075018,27.6389035 191.923787,27.6389035 194.908188,29.5809535 L195.090663,29.6996964 C198.075064,31.6417463 201.923833,31.6417463 204.908234,29.6996964 L205.090709,29.5809535 C208.075109,27.6389035 211.923879,27.6389035 214.90828,29.5809535 L215.090755,29.6996964 C218.075155,31.6417463 221.923925,31.6417463 224.908326,29.6996964 L225.090801,29.5809535 C228.075201,27.6389035 231.923971,27.6389035 234.908372,29.5809535 L235.090847,29.6996964 C238.075247,31.6417463 241.924017,31.6417463 244.908417,29.6996964 L244.999655,29.6403249 C247.919158,27.7405064 251.767492,28.1291542 254.248187,30.5743449 L259.999724,36.2435652 C265.545762,41.7102271 274.453778,41.7102271 279.999816,36.2435652 L285.751353,30.5743449 C288.232048,28.1291542 292.080383,27.7405064 294.999885,29.6403249 L295.091123,29.6996964 C298.075523,31.6417463 301.924293,31.6417463 304.908693,29.6996964 L305.091169,29.5809535 C308.075569,27.6389035 311.924339,27.6389035 314.908739,29.5809535 L320,32.8940084 L320,492 L0,492 L0,32.3942402 Z" id="Rectangle" fill="#E1F5FE"></path>
        <path d="M3.04720534,484 C3.01573507,484.166826 3,484.339903 3,484.519231 C3,485.198721 3.22884537,485.782049 3.68654298,486.269231 C4.14424058,486.756413 4.68408094,487 5.30608025,487 C5.91634372,487 6.45325017,486.759618 6.91681569,486.278846 C7.38038122,485.798075 7.6121605,485.211542 7.6121605,484.519231 C7.6121605,484.339903 7.59622108,484.166826 7.5643421,484 L12.7468253,484 C12.7153551,484.166826 12.69962,484.339903 12.69962,484.519231 C12.69962,485.198721 12.9284654,485.782049 13.386163,486.269231 C13.8438606,486.756413 14.3837009,487 15.0057002,487 C15.6159637,487 16.1528702,486.759618 16.6164357,486.278846 C17.0800012,485.798075 17.3117805,485.211542 17.3117805,484.519231 C17.3117805,484.339903 17.2958411,484.166826 17.2639621,484 L22.4464453,484 C22.414975,484.166826 22.39924,484.339903 22.39924,484.519231 C22.39924,485.198721 22.6280853,485.782049 23.0857829,486.269231 C23.5434805,486.756413 24.0833209,487 24.7053202,487 C25.3273195,487 25.8671599,486.756413 26.3248575,486.269231 C26.7825551,485.782049 27.0114005,485.198721 27.0114005,484.519231 C27.0114005,484.339903 26.9956654,484.166826 26.9641951,484 L32.1460653,484 C32.114595,484.166826 32.09886,484.339903 32.09886,484.519231 C32.09886,485.198721 32.3277053,485.782049 32.7854029,486.269231 C33.2431005,486.756413 33.7829409,487 34.4049402,487 C35.0152037,487 35.5521101,486.759618 36.0156756,486.278846 C36.4792412,485.798075 36.7110205,485.211542 36.7110205,484.519231 C36.7110205,484.339903 36.695081,484.166826 36.6632021,484 L41.8456853,484 C41.814215,484.166826 41.7984799,484.339903 41.7984799,484.519231 C41.7984799,485.198721 42.0273253,485.782049 42.4850229,486.269231 C42.9427205,486.756413 43.4825609,487 44.1045602,487 C44.7148237,487 45.2517301,486.759618 45.7152956,486.278846 C46.1788612,485.798075 46.4106404,485.211542 46.4106404,484.519231 C46.4106404,484.339903 46.394701,484.166826 46.362822,484 L51.5453053,484 C51.513835,484.166826 51.4980999,484.339903 51.4980999,484.519231 C51.4980999,485.198721 51.7269453,485.782049 52.1846429,486.269231 C52.6423405,486.756413 53.1821809,487 53.8041802,487 C54.4261795,487 54.9660198,486.756413 55.4237174,486.269231 C55.8814151,485.782049 56.1102604,485.198721 56.1102604,484.519231 C56.1102604,484.339903 56.0945254,484.166826 56.0630551,484 L61.2449252,484 C61.213455,484.166826 61.1977199,484.339903 61.1977199,484.519231 C61.1977199,485.198721 61.4265653,485.782049 61.8842629,486.269231 C62.3419605,486.756413 62.8818008,487 63.5038002,487 C64.1140636,487 64.6509701,486.759618 65.1145356,486.278846 C65.5781011,485.798075 65.8098804,485.211542 65.8098804,484.519231 C65.8098804,484.339903 65.793941,484.166826 65.762062,484 L70.9445452,484 C70.913075,484.166826 70.8973399,484.339903 70.8973399,484.519231 C70.8973399,485.198721 71.1261853,485.782049 71.5838829,486.269231 C72.0415805,486.756413 72.5814208,487 73.2034201,487 C73.8136836,487 74.3505901,486.759618 74.8141556,486.278846 C75.2777211,485.798075 75.5095004,485.211542 75.5095004,484.519231 C75.5095004,484.339903 75.493561,484.166826 75.461682,484 L80.6441652,484 C80.6126949,484.166826 80.5969599,484.339903 80.5969599,484.519231 C80.5969599,485.198721 80.8258052,485.782049 81.2835029,486.269231 C81.7412005,486.756413 82.2810408,487 82.9030401,487 C83.5250394,487 84.0648798,486.756413 84.5225774,486.269231 C84.980275,485.782049 85.2091204,485.198721 85.2091204,484.519231 C85.2091204,484.339903 85.1933853,484.166826 85.161915,484 L90.3437852,484 C90.3123149,484.166826 90.2965799,484.339903 90.2965799,484.519231 C90.2965799,485.198721 90.5254252,485.782049 90.9831228,486.269231 C91.4408204,486.756413 91.9806608,487 92.6026601,487 C93.2129236,487 93.74983,486.759618 94.2133956,486.278846 C94.6769611,485.798075 94.9087404,485.211542 94.9087404,484.519231 C94.9087404,484.339903 94.8928009,484.166826 94.860922,484 L100.043405,484 C100.011935,484.166826 99.9961998,484.339903 99.9961998,484.519231 C99.9961998,485.198721 100.225045,485.782049 100.682743,486.269231 C101.14044,486.756413 101.680281,487 102.30228,487 C102.912544,487 103.44945,486.759618 103.913016,486.278846 C104.376581,485.798075 104.60836,485.211542 104.60836,484.519231 C104.60836,484.339903 104.592421,484.166826 104.560542,484 L109.743025,484 C109.711555,484.166826 109.69582,484.339903 109.69582,484.519231 C109.69582,485.198721 109.924665,485.782049 110.382363,486.269231 C110.84006,486.756413 111.379901,487 112.0019,487 C112.623899,487 113.16374,486.756413 113.621437,486.269231 C114.079135,485.782049 114.30798,485.198721 114.30798,484.519231 C114.30798,484.339903 114.292245,484.166826 114.260775,484 L119.442645,484 C119.411175,484.166826 119.39544,484.339903 119.39544,484.519231 C119.39544,485.198721 119.624285,485.782049 120.081983,486.269231 C120.53968,486.756413 121.079521,487 121.70152,487 C122.311784,487 122.84869,486.759618 123.312256,486.278846 C123.775821,485.798075 124.0076,485.211542 124.0076,484.519231 C124.0076,484.339903 123.991661,484.166826 123.959782,484 L129.142265,484 C129.110795,484.166826 129.09506,484.339903 129.09506,484.519231 C129.09506,485.198721 129.323905,485.782049 129.781603,486.269231 C130.2393,486.756413 130.779141,487 131.40114,487 C132.011404,487 132.54831,486.759618 133.011875,486.278846 C133.475441,485.798075 133.70722,485.211542 133.70722,484.519231 C133.70722,484.339903 133.691281,484.166826 133.659402,484 L138.841885,484 C138.810415,484.166826 138.79468,484.339903 138.79468,484.519231 C138.79468,485.198721 139.023525,485.782049 139.481223,486.269231 C139.93892,486.756413 140.478761,487 141.10076,487 C141.722759,487 142.2626,486.756413 142.720297,486.269231 C143.177995,485.782049 143.40684,485.198721 143.40684,484.519231 C143.40684,484.339903 143.391105,484.166826 143.359635,484 L148.541505,484 C148.510035,484.166826 148.4943,484.339903 148.4943,484.519231 C148.4943,485.198721 148.723145,485.782049 149.180843,486.269231 C149.63854,486.756413 150.178381,487 150.80038,487 C151.410643,487 151.94755,486.759618 152.411115,486.278846 C152.874681,485.798075 153.10646,485.211542 153.10646,484.519231 C153.10646,484.339903 153.090521,484.166826 153.058642,484 L158.241125,484 C158.209655,484.166826 158.19392,484.339903 158.19392,484.519231 C158.19392,485.198721 158.422765,485.782049 158.880463,486.269231 C159.33816,486.756413 159.878001,487 160.5,487 C161.110263,487 161.64717,486.759618 162.110735,486.278846 C162.574301,485.798075 162.80608,485.211542 162.80608,484.519231 C162.80608,484.339903 162.790141,484.166826 162.758262,484 L167.940745,484 C167.909275,484.166826 167.89354,484.339903 167.89354,484.519231 C167.89354,485.198721 168.122385,485.782049 168.580083,486.269231 C169.03778,486.756413 169.577621,487 170.19962,487 C170.821619,487 171.36146,486.756413 171.819157,486.269231 C172.276855,485.782049 172.5057,485.198721 172.5057,484.519231 C172.5057,484.339903 172.489965,484.166826 172.458495,484 L177.640365,484 C177.608895,484.166826 177.59316,484.339903 177.59316,484.519231 C177.59316,485.198721 177.822005,485.782049 178.279703,486.269231 C178.7374,486.756413 179.277241,487 179.89924,487 C180.509503,487 181.04641,486.759618 181.509975,486.278846 C181.973541,485.798075 182.20532,485.211542 182.20532,484.519231 C182.20532,484.339903 182.189381,484.166826 182.157502,484 L187.339985,484 C187.308515,484.166826 187.29278,484.339903 187.29278,484.519231 C187.29278,485.198721 187.521625,485.782049 187.979323,486.269231 C188.43702,486.756413 188.976861,487 189.59886,487 C190.209123,487 190.74603,486.759618 191.209595,486.278846 C191.673161,485.798075 191.90494,485.211542 191.90494,484.519231 C191.90494,484.339903 191.889001,484.166826 191.857122,484 L197.039605,484 C197.008135,484.166826 196.9924,484.339903 196.9924,484.519231 C196.9924,485.198721 197.221245,485.782049 197.678943,486.269231 C198.13664,486.756413 198.676481,487 199.29848,487 C199.920479,487 200.46032,486.756413 200.918017,486.269231 C201.375715,485.782049 201.60456,485.198721 201.60456,484.519231 C201.60456,484.339903 201.588825,484.166826 201.557355,484 L206.739225,484 C206.707755,484.166826 206.69202,484.339903 206.69202,484.519231 C206.69202,485.198721 206.920865,485.782049 207.378563,486.269231 C207.83626,486.756413 208.376101,487 208.9981,487 C209.608363,487 210.14527,486.759618 210.608835,486.278846 C211.072401,485.798075 211.30418,485.211542 211.30418,484.519231 C211.30418,484.339903 211.288241,484.166826 211.256362,484 L216.438845,484 C216.407375,484.166826 216.39164,484.339903 216.39164,484.519231 C216.39164,485.198721 216.620485,485.782049 217.078183,486.269231 C217.53588,486.756413 218.075721,487 218.69772,487 C219.307983,487 219.84489,486.759618 220.308455,486.278846 C220.772021,485.798075 221.0038,485.211542 221.0038,484.519231 C221.0038,484.339903 220.987861,484.166826 220.955982,484 L226.138465,484 C226.106995,484.166826 226.09126,484.339903 226.09126,484.519231 C226.09126,485.198721 226.320105,485.782049 226.777803,486.269231 C227.2355,486.756413 227.775341,487 228.39734,487 C229.019339,487 229.55918,486.756413 230.016877,486.269231 C230.474575,485.782049 230.70342,485.198721 230.70342,484.519231 C230.70342,484.339903 230.687685,484.166826 230.656215,484 L235.838085,484 C235.806615,484.166826 235.79088,484.339903 235.79088,484.519231 C235.79088,485.198721 236.019725,485.782049 236.477423,486.269231 C236.93512,486.756413 237.474961,487 238.09696,487 C238.707223,487 239.24413,486.759618 239.707695,486.278846 C240.171261,485.798075 240.40304,485.211542 240.40304,484.519231 C240.40304,484.339903 240.387101,484.166826 240.355222,484 L245.537705,484 C245.506235,484.166826 245.4905,484.339903 245.4905,484.519231 C245.4905,485.198721 245.719345,485.782049 246.177043,486.269231 C246.63474,486.756413 247.174581,487 247.79658,487 C248.406843,487 248.94375,486.759618 249.407315,486.278846 C249.870881,485.798075 250.10266,485.211542 250.10266,484.519231 C250.10266,484.339903 250.086721,484.166826 250.054842,484 L255.237325,484 C255.205855,484.166826 255.19012,484.339903 255.19012,484.519231 C255.19012,485.198721 255.418965,485.782049 255.876663,486.269231 C256.33436,486.756413 256.874201,487 257.4962,487 C258.118199,487 258.65804,486.756413 259.115737,486.269231 C259.573435,485.782049 259.80228,485.198721 259.80228,484.519231 C259.80228,484.339903 259.786545,484.166826 259.755075,484 L264.936945,484 C264.905475,484.166826 264.88974,484.339903 264.88974,484.519231 C264.88974,485.198721 265.118585,485.782049 265.576283,486.269231 C266.03398,486.756413 266.573821,487 267.19582,487 C267.806083,487 268.34299,486.759618 268.806555,486.278846 C269.270121,485.798075 269.5019,485.211542 269.5019,484.519231 C269.5019,484.339903 269.485961,484.166826 269.454082,484 L274.636565,484 C274.605095,484.166826 274.58936,484.339903 274.58936,484.519231 C274.58936,485.198721 274.818205,485.782049 275.275903,486.269231 C275.7336,486.756413 276.273441,487 276.89544,487 C277.505703,487 278.04261,486.759618 278.506175,486.278846 C278.969741,485.798075 279.20152,485.211542 279.20152,484.519231 C279.20152,484.339903 279.185581,484.166826 279.153702,484 L284.336185,484 C284.304715,484.166826 284.28898,484.339903 284.28898,484.519231 C284.28898,485.198721 284.517825,485.782049 284.975523,486.269231 C285.43322,486.756413 285.97306,487 286.59506,487 C287.217059,487 287.756899,486.756413 288.214597,486.269231 C288.672295,485.782049 288.90114,485.198721 288.90114,484.519231 C288.90114,484.339903 288.885405,484.166826 288.853935,484 L294.035805,484 C294.004335,484.166826 293.9886,484.339903 293.9886,484.519231 C293.9886,485.198721 294.217445,485.782049 294.675143,486.269231 C295.13284,486.756413 295.67268,487 296.29468,487 C296.904943,487 297.44185,486.759618 297.905415,486.278846 C298.368981,485.798075 298.60076,485.211542 298.60076,484.519231 C298.60076,484.339903 298.584821,484.166826 298.552942,484 L303.735425,484 C303.703955,484.166826 303.68822,484.339903 303.68822,484.519231 C303.68822,485.198721 303.917065,485.782049 304.374762,486.269231 C304.83246,486.756413 305.3723,487 305.9943,487 C306.604563,487 307.14147,486.759618 307.605035,486.278846 C308.068601,485.798075 308.30038,485.211542 308.30038,484.519231 C308.30038,484.339903 308.284441,484.166826 308.252562,484 L313.435045,484 C313.403575,484.166826 313.387839,484.339903 313.387839,484.519231 C313.387839,485.198721 313.616685,485.782049 314.074382,486.269231 C314.53208,486.756413 315.07192,487 315.69392,487 C316.315919,487 316.855759,486.756413 317.313457,486.269231 C317.771155,485.782049 318,485.198721 318,484.519231 C318,484.339903 317.984265,484.166826 317.952795,484 L320,484 L320,492 L0,492 L0,484 L3.04720534,484 Z" id="Rectangle-2" fill="#FFFFFF"></path>
        <text id="Là-một-sản-phẩm-công" font-family="SFCompactDisplay-Regular, SF Compact Display" font-size="15" font-weight="normal" line-spacing="22">
            <tspan x="30" y="182" fill="#4D5B72">Là một sản phẩm công nghệ được phát </tspan>
            <tspan x="30" y="204" fill="#4D5B72">triển trên nền tâm lý học, Chanchan tự</tspan>
            <tspan x="276.826172" y="204" fill="#FFFFFF"> </tspan>
            <tspan x="30" y="226" fill="#4D5B72" text-decoration="underline">tìm ra các cặp đôi triển vọng</tspan>
            <tspan x="212.263184" y="226" fill="#FFFFFF"> </tspan>
            <tspan x="215.266113" y="226" fill="#4D5B72">dựa trên xu </tspan>
            <tspan x="30" y="248" fill="#4D5B72">hướng gắn bó, hoà hợp với nhau trong </tspan>
            <tspan x="30" y="270" fill="#4D5B72">cuộc sống thực.</tspan>
        </text>
        <text id="Triển-vọng-/-xu-hướn" font-family="Georgia-Italic, Georgia" font-size="14" font-style="italic" font-weight="normal" line-spacing="22">
            <tspan x="30" y="303" fill="#5D6A80">Triển vọng / xu hướng gắn bó của cặp </tspan>
            <tspan x="30" y="325" fill="#5D6A80">đôi nào càng cao Chanchan sẽ kết nối </tspan>
            <tspan x="30" y="347" fill="#5D6A80">khiến cặp đôi đó…</tspan>
            <tspan x="143.490234" y="347" fill="#FFFFFF"> </tspan>
            <tspan x="146.867188" y="347" fill="#5D6A80">tình cờ gặp nhau</tspan>
            <tspan x="254.211914" y="347" fill="#FFFFFF"> </tspan>
            <tspan x="257.588867" y="347" fill="#5D6A80">càng </tspan>
            <tspan x="30" y="369" fill="#5D6A80">nhiều qua các</tspan>
            <tspan x="116.269531" y="369" fill="#FFFFFF"> </tspan>
            <tspan x="119.646484" y="369" fill="#5D6A80">Sự kiện. </tspan>
        </text>
        <text id="Việc-còn-lại-Chancha" font-family="SFCompactDisplay-Regular, SF Compact Display" font-size="15" font-weight="normal" line-spacing="22" fill="#4D5B72">
            <tspan x="30" y="404">Việc còn lại Chanchan để con tim của </tspan>
            <tspan x="30" y="426">họ tự đưa ra quyết định khi đến thời </tspan>
            <tspan x="30" y="448">điểm.</tspan>
        </text>
        <text id="Chanchan-kết-nối-Thà" font-family="SFCompactDisplay-Regular, SF Compact Display" font-size="15" font-weight="normal" line-spacing="22">
            <tspan x="30" y="538" fill="#4D5B72">Chanchan kết nối Thành viên qua những </tspan>
            <tspan x="30" y="560" fill="#4D5B72">Sự kiện mọi người</tspan>
            <tspan x="146.806641" y="560" fill="#FFFFFF"> </tspan>
            <tspan x="149.80957" y="560" fill="#4D5B72" text-decoration="underline">chia sẻ với nhau việc </tspan>
            <tspan x="30" y="582" fill="#4D5B72" text-decoration="underline">mình muốn làm vào thời gian rảnh.</tspan>
        </text>
        <text id="Ví-dụ-cùng-nhau-cafe" font-family="Georgia-Italic, Georgia" font-size="14" font-style="italic" font-weight="normal" line-spacing="22" fill="#5D6A80">
            <tspan x="50" y="615">Ví dụ cùng nhau cafe, cùng đi ăn, xem </tspan>
            <tspan x="50" y="637">phim, nghe nhạc, dã ngoại… </tspan>
        </text>
        <text id="—" font-family="Georgia-Italic, Georgia" font-size="14" font-style="italic" font-weight="normal" line-spacing="22" fill="#5D6A80">
            <tspan x="30" y="615">—</tspan>
        </text>
        <text id="Hoạt-động" font-family="SFCompactDisplay-Semibold, SF Compact Display" font-size="26" font-weight="500" line-spacing="26" letter-spacing="-1.55999994" fill="#343D51">
            <tspan x="30" y="97">Hoạt động</tspan>
        </text>
        <text id="—-Chanchan-hoạt-động" font-family="Georgia-Italic, Georgia" font-size="14" font-style="italic" font-weight="normal" line-spacing="22" fill="#5D6A80">
            <tspan x="30" y="131">— Chanchan hoạt động như thế nào?</tspan>
        </text>
        <g id="Oval">
            <use fill="black" fill-opacity="1" filter="url(#filter-3)" xlink:href="#path-2"></use>
            <use fill="url(#linearGradient-1)" fill-rule="evenodd" xlink:href="#path-2"></use>
        </g>
        <text id="i" font-family="Georgia-Italic, Georgia" font-size="14" font-style="italic" font-weight="normal" fill="#FFFFFF">
            <tspan x="268" y="27">i</tspan>
        </text>
    </g>
</svg>