<?xml version="1.0" encoding="UTF-8"?>
<svg width="364px" height="614px" viewBox="0 0 364 614" version="1.1" xmlns="http://www.w3.org/2000/svg" xmlns:xlink="http://www.w3.org/1999/xlink">
    <!-- Generator: Sketch 54.1 (76490) - https://sketchapp.com -->
    <title>choice</title>
    <desc>Created with Sketch.</desc>
    <defs>
        <linearGradient x1="13.729807%" y1="100%" x2="116.141476%" y2="-195.319758%" id="linearGradient-1">
            <stop stop-color="#F50057" offset="0%"></stop>
            <stop stop-color="#AA00FF" offset="100%"></stop>
        </linearGradient>
        <path d="M306.578696,307.832275 L294.550707,315.767957 C294.089716,316.072104 293.469449,315.944957 293.165302,315.483965 C293.057477,315.320537 293,315.129051 293,314.933258 L293,299.061896 C293,298.509611 293.447715,298.061896 294,298.061896 C294.195793,298.061896 294.387279,298.119372 294.550707,298.227197 L306.578696,306.162878 C307.039687,306.467026 307.166834,307.087293 306.862687,307.548284 C306.788203,307.661179 306.691591,307.757791 306.578696,307.832275 Z M309,298 L310,298 C310.552285,298 311,298.447715 311,299 L311,315 C311,315.552285 310.552285,316 310,316 L309,316 C308.447715,316 308,315.552285 308,315 L308,299 C308,298.447715 308.447715,298 309,298 Z" id="path-2"></path>
        <filter x="-44.4%" y="-27.8%" width="177.8%" height="177.8%" filterUnits="objectBoundingBox" id="filter-3">
            <feOffset dx="-1" dy="2" in="SourceAlpha" result="shadowOffsetOuter1"></feOffset>
            <feGaussianBlur stdDeviation="2" in="shadowOffsetOuter1" result="shadowBlurOuter1"></feGaussianBlur>
            <feColorMatrix values="0 0 0 0 0   0 0 0 0 0   0 0 0 0 0  0 0 0 0.5 0" type="matrix" in="shadowBlurOuter1"></feColorMatrix>
        </filter>
        <linearGradient x1="18.7262111%" y1="100%" x2="107.03015%" y2="-195.319758%" id="linearGradient-4">
            <stop stop-color="#651FFF" offset="0%"></stop>
            <stop stop-color="#304FFE" offset="100%"></stop>
        </linearGradient>
    </defs>
    <g id="choice" stroke="none" stroke-width="1" fill="none" fill-rule="evenodd">
        <path d="M142.841178,301.3085 L150.009513,312.459242 C150.308165,312.923812 150.173662,313.542526 149.709092,313.841178 C149.547795,313.94487 149.360086,314 149.168335,314 L134.831665,314 C134.279381,314 133.831665,313.552285 133.831665,313 C133.831665,312.808248 133.886796,312.62054 133.990487,312.459242 L141.158822,301.3085 C141.457474,300.84393 142.076188,300.709427 142.540758,301.008079 C142.66126,301.085545 142.763712,301.187997 142.841178,301.3085 Z" id="Triangle" fill="#343D51" transform="translate(142.000000, 307.000000) rotate(90.000000) translate(-142.000000, -307.000000) "></path>
        <path d="M222,306.762626 L222,299.061896 C222,298.509611 222.447715,298.061896 223,298.061896 C223.195793,298.061896 223.387279,298.119372 223.550707,298.227197 L235.578696,306.162878 C236.039687,306.467026 236.166834,307.087293 235.862687,307.548284 C235.788203,307.661179 235.691591,307.757791 235.578696,307.832275 L223.550707,315.767957 C223.089716,316.072104 222.469449,315.944957 222.165302,315.483965 C222.057477,315.320537 222,315.129051 222,314.933258 L222,307.233668 C221.97351,307.342752 221.928062,307.449197 221.862687,307.548284 C221.788203,307.661179 221.691591,307.757791 221.578696,307.832275 L209.550707,315.767957 C209.089716,316.072104 208.469449,315.944957 208.165302,315.483965 C208.057477,315.320537 208,315.129051 208,314.933258 L208,299.061896 C208,298.509611 208.447715,298.061896 209,298.061896 C209.195793,298.061896 209.387279,298.119372 209.550707,298.227197 L221.578696,306.162878 C221.79869,306.308024 221.942656,306.525162 222,306.762626 Z" id="Triangle-2" fill="#343D51"></path>
        <path d="M66,298 L67,298 C67.5522847,298 68,298.447715 68,299 L68,315 C68,315.552285 67.5522847,316 67,316 L66,316 C65.4477153,316 65,315.552285 65,315 L65,299 C65,298.447715 65.4477153,298 66,298 Z M57,298 L58,298 C58.5522847,298 59,298.447715 59,299 L59,315 C59,315.552285 58.5522847,316 58,316 L57,316 C56.4477153,316 56,315.552285 56,315 L56,299 C56,298.447715 56.4477153,298 57,298 Z" id="pause" fill="#343D51"></path>
        <g id="Triangle-3">
            <use fill="black" fill-opacity="1" filter="url(#filter-3)" xlink:href="#path-2"></use>
            <use fill="url(#linearGradient-1)" fill-rule="evenodd" xlink:href="#path-2"></use>
        </g>
        <path d="M176.598154,556.11396 C177.529549,557.724003 178.150457,558.417002 179.262378,559.501914 C179.543962,559.774913 179.543962,560.222935 179.255135,560.488913 C179.125173,560.635913 178.937472,560.698913 178.756947,560.698913 C178.569246,560.698913 178.388721,560.628891 178.244341,560.488913 C176.995283,559.263958 176.316569,558.486958 175.341853,556.799938 C174.345476,555.077939 173.818385,552.970984 173.818385,550.716964 C173.818385,546.558968 177.486364,543.170948 181.998893,543.170948 C186.511423,543.170948 190.179266,546.551946 190.179266,550.716964 C190.179266,551.101986 189.854361,551.416986 189.457232,551.416986 C189.060103,551.416986 188.735197,551.101986 188.735197,550.716964 C188.735197,547.329011 185.717165,544.570991 181.998826,544.570991 C178.287662,544.570991 175.262454,547.328945 175.262454,550.716964 C175.262454,552.732963 175.724497,554.594939 176.598154,556.11396 Z M173.970008,536.373975 C173.616199,536.556019 173.182992,536.436975 172.988049,536.094019 C172.800348,535.750998 172.923068,535.330998 173.276876,535.141998 C175.970003,533.721021 178.908569,533 182.013243,533 C185.089014,533 187.774899,533.658021 190.720708,535.134976 C191.074516,535.309998 191.211721,535.736954 191.031195,536.079976 C190.901233,536.317997 190.648552,536.457975 190.388627,536.457975 C190.273083,536.457975 190.164781,536.430019 190.056479,536.380997 C187.291128,534.994998 184.886828,534.399977 182.013243,534.399977 C179.146833,534.399977 176.446531,535.064955 173.970008,536.373975 Z M181.948262,539.761995 C188.511351,539.761995 193.854217,544.683013 193.854149,550.731008 C193.854149,553.006028 191.854154,554.854027 189.406533,554.854027 C186.958913,554.854027 184.958917,553.006028 184.958917,550.731008 C184.958917,549.233053 183.608732,548.008032 181.95537,548.008032 C180.302007,548.008032 178.951822,549.226031 178.951822,550.731008 C178.951822,553.117984 179.912053,555.364983 181.652125,557.044981 C183.016727,558.360958 184.345252,559.089001 186.381326,559.627979 C186.764037,559.732979 186.995058,560.118001 186.886756,560.488979 C186.800115,560.797022 186.511288,561 186.193625,561 C186.128644,561 186.063663,560.992978 186.005924,560.971978 C183.702751,560.362979 182.200944,559.536957 180.641398,558.03198 C178.626985,556.086004 177.515064,553.488962 177.515064,550.723986 C177.515064,548.448966 179.507817,546.600967 181.96268,546.600967 C184.417543,546.600967 186.410296,548.448966 186.410296,550.723986 C186.410296,552.221941 187.760481,553.446962 189.413843,553.446962 C191.067206,553.446962 192.417391,552.228963 192.417391,550.723986 C192.417391,545.446034 187.724335,541.155016 181.955437,541.155016 C177.847212,541.155016 174.09997,543.36697 172.410462,546.796989 C171.847292,547.930988 171.565708,549.253987 171.565708,550.723986 C171.565708,551.815985 171.666767,553.537984 172.526006,555.770938 C172.663211,556.13496 172.47551,556.53396 172.100042,556.673938 C171.724573,556.80696 171.313026,556.624982 171.168646,556.26096 C170.461097,554.419983 170.114531,552.613985 170.114531,550.723986 C170.114531,549.043987 170.446612,547.518011 171.103665,546.195012 C173.031437,542.289015 177.291285,539.761995 181.948262,539.761995 Z M190.612406,556.57596 C191.002292,556.506004 191.377693,556.76496 191.449917,557.142959 C191.522141,557.520959 191.254974,557.884915 190.865088,557.954937 C190.020334,558.101937 189.305542,558.108959 189.103356,558.108959 C187.385012,558.108959 185.875962,557.688959 184.626904,556.869959 C182.482529,555.456004 181.197325,553.159984 181.197325,550.723986 C181.197325,550.338965 181.52223,550.023965 181.919359,550.023965 C182.316488,550.023965 182.641394,550.338965 182.641394,550.723986 C182.641394,552.691028 183.688334,554.553005 185.442823,555.708004 C186.46086,556.380004 187.659422,556.708981 189.103423,556.708981 C189.449989,556.708981 190.034819,556.673938 190.612406,556.57596 Z M194.865011,542.659992 C195.0961,542.974992 195.023876,543.40897 194.698971,543.633079 C194.374066,543.857123 193.919198,543.787101 193.688177,543.472101 C192.388555,541.708103 190.742368,540.322104 188.792936,539.356104 C184.648632,537.291084 179.356262,537.298106 175.219133,539.370083 C173.262458,540.35006 171.609028,541.743081 170.31665,543.521057 C170.172202,543.710057 169.948423,543.808035 169.724577,543.808035 C169.58013,543.808035 169.43575,543.766035 169.305788,543.682035 C168.980882,543.457992 168.901484,543.024014 169.132505,542.709014 C170.562089,540.748994 172.388801,539.208973 174.554837,538.123996 C179.09627,535.849042 184.901246,535.84202 189.449922,538.110018 C191.608715,539.187973 193.428185,540.714016 194.865011,542.659992 Z" id="Finger" fill="url(#linearGradient-4)" fill-rule="nonzero"></path>
        <text id="Những-cảm-nhận-bên-t" font-family="SFCompactDisplay-Regular, SF Compact Display" font-size="15" font-weight="normal" line-spacing="22" fill="#4D5B72">
            <tspan x="52" y="362">Những cảm nhận bên trong mách bảo </tspan>
            <tspan x="52" y="384">bạn rằng bạn có thể đến với Ánh Dương </tspan>
            <tspan x="52" y="406">như môt người bạn trong đời thực </tspan>
            <tspan x="52" y="428">không chỉ riêng qua Chanchan?</tspan>
        </text>
        <text id="……………………………………………………" font-family="Georgia-Italic, Georgia" font-size="14" font-style="italic" font-weight="normal" line-spacing="22" fill="#DADFE7">
            <tspan x="52" y="461">……………………………………………………………</tspan>
        </text>
        <text id="Đúng-vậy.-Tôi-xác-nh" font-family="Georgia-Italic, Georgia" font-size="14" font-style="italic" font-weight="normal" line-spacing="22" fill="#5D6A80" fill-opacity="0.9">
            <tspan x="82" y="503">Đúng vậy. Tôi xác nhận</tspan>
        </text>
        <path d="M62.3590122,495.876993 L57.5516484,500.863736 C57.4791209,500.936264 57.3703297,500.936264 57.2978022,500.863736 L55.3032967,498.724176 L55.267033,498.687912 C55.121978,498.542857 54.9043956,498.542857 54.7593407,498.687912 L54.2516484,499.195604 C54.1791209,499.268132 54.1428571,499.376923 54.1428571,499.449451 C54.1428571,499.521978 54.1791209,499.630769 54.2516484,499.703297 L54.3241758,499.812088 L57.1527473,502.858242 C57.2252747,502.930769 57.2978022,502.967033 57.4065934,502.967033 C57.5153846,502.967033 57.5879121,502.930769 57.6604396,502.858242 L63.2380175,497.071505 C63.7233205,497.937677 64,498.936528 64,500 C64,503.313708 61.3137085,506 58,506 C54.6862915,506 52,503.313708 52,500 C52,496.686292 54.6862915,494 58,494 C59.7168825,494 61.2653391,494.721117 62.3590122,495.876993 Z" id="checked" fill="#5D6A80"></path>
        <g id="forward" transform="translate(224.000000, 291.000000)"></g>
    </g>
</svg>