<?xml version="1.0" encoding="UTF-8"?>
<svg width="364px" height="636px" viewBox="0 0 364 636" version="1.1" xmlns="http://www.w3.org/2000/svg" xmlns:xlink="http://www.w3.org/1999/xlink">
    <!-- Generator: Sketch 54.1 (76490) - https://sketchapp.com -->
    <title>choice</title>
    <desc>Created with Sketch.</desc>
    <defs>
        <linearGradient x1="13.729807%" y1="100%" x2="116.141476%" y2="-195.319758%" id="linearGradient-1">
            <stop stop-color="#F50057" offset="0%"></stop>
            <stop stop-color="#AA00FF" offset="100%"></stop>
        </linearGradient>
        <path d="M310.946347,292.996668 L310.999661,308.996668 C311.001501,309.54895 310.55528,309.998154 310.002998,309.999994 C310.001888,309.999998 310.000777,310 309.999666,310 L294,310 C293.447715,310 293,309.552285 293,309 L293,293 C293,292.447715 293.447715,292 294,292 L309.946352,292 C310.497336,292 310.944511,292.445687 310.946347,292.996668 Z" id="path-2"></path>
        <filter x="-11.1%" y="-11.1%" width="122.2%" height="122.2%" filterUnits="objectBoundingBox" id="filter-3">
            <feGaussianBlur stdDeviation="1.5" in="SourceAlpha" result="shadowBlurInner1"></feGaussianBlur>
            <feOffset dx="1" dy="1" in="shadowBlurInner1" result="shadowOffsetInner1"></feOffset>
            <feComposite in="shadowOffsetInner1" in2="SourceAlpha" operator="arithmetic" k2="-1" k3="1" result="shadowInnerInner1"></feComposite>
            <feColorMatrix values="0 0 0 0 0   0 0 0 0 0   0 0 0 0 0  0 0 0 0.5 0" type="matrix" in="shadowInnerInner1"></feColorMatrix>
        </filter>
        <linearGradient x1="18.7262111%" y1="100%" x2="107.03015%" y2="-195.319758%" id="linearGradient-4">
            <stop stop-color="#651FFF" offset="0%"></stop>
            <stop stop-color="#304FFE" offset="100%"></stop>
        </linearGradient>
    </defs>
    <g id="choice" stroke="none" stroke-width="1" fill="none" fill-rule="evenodd">
        <path d="M142.841178,295.3085 L150.009513,306.459242 C150.308165,306.923812 150.173662,307.542526 149.709092,307.841178 C149.547795,307.94487 149.360086,308 149.168335,308 L134.831665,308 C134.279381,308 133.831665,307.552285 133.831665,307 C133.831665,306.808248 133.886796,306.62054 133.990487,306.459242 L141.158822,295.3085 C141.457474,294.84393 142.076188,294.709427 142.540758,295.008079 C142.66126,295.085545 142.763712,295.187997 142.841178,295.3085 Z" id="Triangle" fill="#343D51" transform="translate(142.000000, 301.000000) rotate(90.000000) translate(-142.000000, -301.000000) "></path>
        <path d="M222,300.762626 L222,293.061896 C222,292.509611 222.447715,292.061896 223,292.061896 C223.195793,292.061896 223.387279,292.119372 223.550707,292.227197 L235.578696,300.162878 C236.039687,300.467026 236.166834,301.087293 235.862687,301.548284 C235.788203,301.661179 235.691591,301.757791 235.578696,301.832275 L223.550707,309.767957 C223.089716,310.072104 222.469449,309.944957 222.165302,309.483965 C222.057477,309.320537 222,309.129051 222,308.933258 L222,301.233668 C221.97351,301.342752 221.928062,301.449197 221.862687,301.548284 C221.788203,301.661179 221.691591,301.757791 221.578696,301.832275 L209.550707,309.767957 C209.089716,310.072104 208.469449,309.944957 208.165302,309.483965 C208.057477,309.320537 208,309.129051 208,308.933258 L208,293.061896 C208,292.509611 208.447715,292.061896 209,292.061896 C209.195793,292.061896 209.387279,292.119372 209.550707,292.227197 L221.578696,300.162878 C221.79869,300.308024 221.942656,300.525162 222,300.762626 Z" id="Triangle-2" fill="#343D51"></path>
        <path d="M66,292 L67,292 C67.5522847,292 68,292.447715 68,293 L68,309 C68,309.552285 67.5522847,310 67,310 L66,310 C65.4477153,310 65,309.552285 65,309 L65,293 C65,292.447715 65.4477153,292 66,292 Z M57,292 L58,292 C58.5522847,292 59,292.447715 59,293 L59,309 C59,309.552285 58.5522847,310 58,310 L57,310 C56.4477153,310 56,309.552285 56,309 L56,293 C56,292.447715 56.4477153,292 57,292 Z" id="pause" fill="#343D51"></path>
        <g id="Triangle" transform="translate(302.000000, 301.000000) rotate(90.000000) translate(-302.000000, -301.000000) ">
            <use fill="url(#linearGradient-1)" fill-rule="evenodd" xlink:href="#path-2"></use>
            <use fill="black" fill-opacity="1" filter="url(#filter-3)" xlink:href="#path-2"></use>
        </g>
        <text id="Bạn-đã-cảm-nhận-rõ-r" font-family="SFCompactDisplay-Regular, SF Compact Display" font-size="15" font-weight="normal" line-spacing="22" fill="#4D5B72">
            <tspan x="52" y="363">Bạn đã cảm nhận rõ ràng về triển vọng </tspan>
            <tspan x="52" y="385">của bạn &amp; cô ấy?</tspan>
        </text>
        <text id="Không-phải-là-người" font-family="Georgia-Italic, Georgia" font-size="14" font-style="italic" font-weight="normal" line-spacing="22" fill="#5D6A80" fill-opacity="0.9">
            <tspan x="82" y="422">Không phải là người ấy. Cô ấy là </tspan>
            <tspan x="82" y="444">một người bạn.</tspan>
        </text>
        <text id="……………………………………………………" font-family="Georgia-Italic, Georgia" font-size="14" font-style="italic" font-weight="normal" line-spacing="22" fill="#DADFE7">
            <tspan x="82" y="470">…………………………………………………….</tspan>
        </text>
        <text id="Là-người-ấy.-Tôi-đã" font-family="Georgia-Italic, Georgia" font-size="14" font-style="italic" font-weight="normal" line-spacing="22" fill="#5D6A80" fill-opacity="0.9">
            <tspan x="82" y="504">Là người ấy. Tôi đã tìm thấy</tspan>
        </text>
        <path d="M176.598154,560.11396 C177.529549,561.724003 178.150457,562.417002 179.262378,563.501914 C179.543962,563.774913 179.543962,564.222935 179.255135,564.488913 C179.125173,564.635913 178.937472,564.698913 178.756947,564.698913 C178.569246,564.698913 178.388721,564.628891 178.244341,564.488913 C176.995283,563.263958 176.316569,562.486958 175.341853,560.799938 C174.345476,559.077939 173.818385,556.970984 173.818385,554.716964 C173.818385,550.558968 177.486364,547.170948 181.998893,547.170948 C186.511423,547.170948 190.179266,550.551946 190.179266,554.716964 C190.179266,555.101986 189.854361,555.416986 189.457232,555.416986 C189.060103,555.416986 188.735197,555.101986 188.735197,554.716964 C188.735197,551.329011 185.717165,548.570991 181.998826,548.570991 C178.287662,548.570991 175.262454,551.328945 175.262454,554.716964 C175.262454,556.732963 175.724497,558.594939 176.598154,560.11396 Z M173.970008,540.373975 C173.616199,540.556019 173.182992,540.436975 172.988049,540.094019 C172.800348,539.750998 172.923068,539.330998 173.276876,539.141998 C175.970003,537.721021 178.908569,537 182.013243,537 C185.089014,537 187.774899,537.658021 190.720708,539.134976 C191.074516,539.309998 191.211721,539.736954 191.031195,540.079976 C190.901233,540.317997 190.648552,540.457975 190.388627,540.457975 C190.273083,540.457975 190.164781,540.430019 190.056479,540.380997 C187.291128,538.994998 184.886828,538.399977 182.013243,538.399977 C179.146833,538.399977 176.446531,539.064955 173.970008,540.373975 Z M181.948262,543.761995 C188.511351,543.761995 193.854217,548.683013 193.854149,554.731008 C193.854149,557.006028 191.854154,558.854027 189.406533,558.854027 C186.958913,558.854027 184.958917,557.006028 184.958917,554.731008 C184.958917,553.233053 183.608732,552.008032 181.95537,552.008032 C180.302007,552.008032 178.951822,553.226031 178.951822,554.731008 C178.951822,557.117984 179.912053,559.364983 181.652125,561.044981 C183.016727,562.360958 184.345252,563.089001 186.381326,563.627979 C186.764037,563.732979 186.995058,564.118001 186.886756,564.488979 C186.800115,564.797022 186.511288,565 186.193625,565 C186.128644,565 186.063663,564.992978 186.005924,564.971978 C183.702751,564.362979 182.200944,563.536957 180.641398,562.03198 C178.626985,560.086004 177.515064,557.488962 177.515064,554.723986 C177.515064,552.448966 179.507817,550.600967 181.96268,550.600967 C184.417543,550.600967 186.410296,552.448966 186.410296,554.723986 C186.410296,556.221941 187.760481,557.446962 189.413843,557.446962 C191.067206,557.446962 192.417391,556.228963 192.417391,554.723986 C192.417391,549.446034 187.724335,545.155016 181.955437,545.155016 C177.847212,545.155016 174.09997,547.36697 172.410462,550.796989 C171.847292,551.930988 171.565708,553.253987 171.565708,554.723986 C171.565708,555.815985 171.666767,557.537984 172.526006,559.770938 C172.663211,560.13496 172.47551,560.53396 172.100042,560.673938 C171.724573,560.80696 171.313026,560.624982 171.168646,560.26096 C170.461097,558.419983 170.114531,556.613985 170.114531,554.723986 C170.114531,553.043987 170.446612,551.518011 171.103665,550.195012 C173.031437,546.289015 177.291285,543.761995 181.948262,543.761995 Z M190.612406,560.57596 C191.002292,560.506004 191.377693,560.76496 191.449917,561.142959 C191.522141,561.520959 191.254974,561.884915 190.865088,561.954937 C190.020334,562.101937 189.305542,562.108959 189.103356,562.108959 C187.385012,562.108959 185.875962,561.688959 184.626904,560.869959 C182.482529,559.456004 181.197325,557.159984 181.197325,554.723986 C181.197325,554.338965 181.52223,554.023965 181.919359,554.023965 C182.316488,554.023965 182.641394,554.338965 182.641394,554.723986 C182.641394,556.691028 183.688334,558.553005 185.442823,559.708004 C186.46086,560.380004 187.659422,560.708981 189.103423,560.708981 C189.449989,560.708981 190.034819,560.673938 190.612406,560.57596 Z M194.865011,546.659992 C195.0961,546.974992 195.023876,547.40897 194.698971,547.633079 C194.374066,547.857123 193.919198,547.787101 193.688177,547.472101 C192.388555,545.708103 190.742368,544.322104 188.792936,543.356104 C184.648632,541.291084 179.356262,541.298106 175.219133,543.370083 C173.262458,544.35006 171.609028,545.743081 170.31665,547.521057 C170.172202,547.710057 169.948423,547.808035 169.724577,547.808035 C169.58013,547.808035 169.43575,547.766035 169.305788,547.682035 C168.980882,547.457992 168.901484,547.024014 169.132505,546.709014 C170.562089,544.748994 172.388801,543.208973 174.554837,542.123996 C179.09627,539.849042 184.901246,539.84202 189.449922,542.110018 C191.608715,543.187973 193.428185,544.714016 194.865011,546.659992 Z" id="Finger" fill="url(#linearGradient-4)" fill-rule="nonzero"></path>
        <path d="M62.3590122,414.876993 L57.5516484,419.863736 C57.4791209,419.936264 57.3703297,419.936264 57.2978022,419.863736 L55.3032967,417.724176 L55.267033,417.687912 C55.121978,417.542857 54.9043956,417.542857 54.7593407,417.687912 L54.2516484,418.195604 C54.1791209,418.268132 54.1428571,418.376923 54.1428571,418.449451 C54.1428571,418.521978 54.1791209,418.630769 54.2516484,418.703297 L54.3241758,418.812088 L57.1527473,421.858242 C57.2252747,421.930769 57.2978022,421.967033 57.4065934,421.967033 C57.5153846,421.967033 57.5879121,421.930769 57.6604396,421.858242 L63.2380175,416.071505 C63.7233205,416.937677 64,417.936528 64,419 C64,422.313708 61.3137085,425 58,425 C54.6862915,425 52,422.313708 52,419 C52,415.686292 54.6862915,413 58,413 C59.7168825,413 61.2653391,413.721117 62.3590122,414.876993 Z" id="checked" fill="#5D6A80"></path>
        <path d="M62.3590122,496.876993 L57.5516484,501.863736 C57.4791209,501.936264 57.3703297,501.936264 57.2978022,501.863736 L55.3032967,499.724176 L55.267033,499.687912 C55.121978,499.542857 54.9043956,499.542857 54.7593407,499.687912 L54.2516484,500.195604 C54.1791209,500.268132 54.1428571,500.376923 54.1428571,500.449451 C54.1428571,500.521978 54.1791209,500.630769 54.2516484,500.703297 L54.3241758,500.812088 L57.1527473,503.858242 C57.2252747,503.930769 57.2978022,503.967033 57.4065934,503.967033 C57.5153846,503.967033 57.5879121,503.930769 57.6604396,503.858242 L63.2380175,498.071505 C63.7233205,498.937677 64,499.936528 64,501 C64,504.313708 61.3137085,507 58,507 C54.6862915,507 52,504.313708 52,501 C52,497.686292 54.6862915,495 58,495 C59.7168825,495 61.2653391,495.721117 62.3590122,496.876993 Z" id="checked" fill="#5D6A80"></path>
    </g>
</svg>