<?xml version="1.0" encoding="UTF-8"?>
<svg width="364px" height="638px" viewBox="0 0 364 638" version="1.1" xmlns="http://www.w3.org/2000/svg" xmlns:xlink="http://www.w3.org/1999/xlink">
    <!-- Generator: Sketch 54.1 (76490) - https://sketchapp.com -->
    <title>choice_pre</title>
    <desc>Created with Sketch.</desc>
    <defs>
        <linearGradient x1="13.729807%" y1="70.3284102%" x2="116.141476%" y2="-49.7392133%" id="linearGradient-1">
            <stop stop-color="#F50057" offset="0%"></stop>
            <stop stop-color="#AA00FF" offset="100%"></stop>
        </linearGradient>
        <path d="M289,332.700731 L289,325 C289,324.447715 289.447715,324 290,324 C290.195793,324 290.387279,324.057477 290.550707,324.165302 L302.578696,332.100983 C303.039687,332.40513 303.166834,333.025397 302.862687,333.486389 C302.788203,333.599283 302.691591,333.695895 302.578696,333.77038 L290.550707,341.706061 C290.089716,342.010208 289.469449,341.883061 289.165302,341.42207 C289.057477,341.258642 289,341.067156 289,340.871363 L289,333.171773 C288.97351,333.280856 288.928062,333.387302 288.862687,333.486389 C288.788203,333.599283 288.691591,333.695895 288.578696,333.77038 L276.550707,341.706061 C276.089716,342.010208 275.469449,341.883061 275.165302,341.42207 C275.057477,341.258642 275,341.067156 275,340.871363 L275,325 C275,324.447715 275.447715,324 276,324 C276.195793,324 276.387279,324.057477 276.550707,324.165302 L288.578696,332.100983 C288.79869,332.246128 288.942656,332.463266 289,332.700731 Z" id="path-2"></path>
        <filter x="-28.5%" y="-28.0%" width="149.9%" height="178.3%" filterUnits="objectBoundingBox" id="filter-3">
            <feOffset dx="-1" dy="2" in="SourceAlpha" result="shadowOffsetOuter1"></feOffset>
            <feGaussianBlur stdDeviation="2" in="shadowOffsetOuter1" result="shadowBlurOuter1"></feGaussianBlur>
            <feColorMatrix values="0 0 0 0 0   0 0 0 0 0   0 0 0 0 0  0 0 0 0.5 0" type="matrix" in="shadowBlurOuter1"></feColorMatrix>
        </filter>
        <linearGradient x1="18.7262111%" y1="100%" x2="107.03015%" y2="-195.319758%" id="linearGradient-4">
            <stop stop-color="#651FFF" offset="0%"></stop>
            <stop stop-color="#304FFE" offset="100%"></stop>
        </linearGradient>
    </defs>
    <g id="choice_pre" stroke="none" stroke-width="1" fill="none" fill-rule="evenodd">
        <path d="M182.841178,327.3085 L190.009513,338.459242 C190.308165,338.923812 190.173662,339.542526 189.709092,339.841178 C189.547795,339.94487 189.360086,340 189.168335,340 L174.831665,340 C174.279381,340 173.831665,339.552285 173.831665,339 C173.831665,338.808248 173.886796,338.62054 173.990487,338.459242 L181.158822,327.3085 C181.457474,326.84393 182.076188,326.709427 182.540758,327.008079 C182.66126,327.085545 182.763712,327.187997 182.841178,327.3085 Z" id="Triangle" fill="#343D51" transform="translate(182.000000, 333.000000) rotate(90.000000) translate(-182.000000, -333.000000) "></path>
        <g id="Triangle-2">
            <use fill="black" fill-opacity="1" filter="url(#filter-3)" xlink:href="#path-2"></use>
            <use fill="url(#linearGradient-1)" fill-rule="evenodd" xlink:href="#path-2"></use>
        </g>
        <path d="M79,324 L80,324 C80.5522847,324 81,324.447715 81,325 L81,341 C81,341.552285 80.5522847,342 80,342 L79,342 C78.4477153,342 78,341.552285 78,341 L78,325 C78,324.447715 78.4477153,324 79,324 Z M70,324 L71,324 C71.5522847,324 72,324.447715 72,325 L72,341 C72,341.552285 71.5522847,342 71,342 L70,342 C69.4477153,342 69,341.552285 69,341 L69,325 C69,324.447715 69.4477153,324 70,324 Z" id="pause" fill="#343D51"></path>
        <path d="M176.598154,547.11396 C177.529549,548.724003 178.150457,549.417002 179.262378,550.501914 C179.543962,550.774913 179.543962,551.222935 179.255135,551.488913 C179.125173,551.635913 178.937472,551.698913 178.756947,551.698913 C178.569246,551.698913 178.388721,551.628891 178.244341,551.488913 C176.995283,550.263958 176.316569,549.486958 175.341853,547.799938 C174.345476,546.077939 173.818385,543.970984 173.818385,541.716964 C173.818385,537.558968 177.486364,534.170948 181.998893,534.170948 C186.511423,534.170948 190.179266,537.551946 190.179266,541.716964 C190.179266,542.101986 189.854361,542.416986 189.457232,542.416986 C189.060103,542.416986 188.735197,542.101986 188.735197,541.716964 C188.735197,538.329011 185.717165,535.570991 181.998826,535.570991 C178.287662,535.570991 175.262454,538.328945 175.262454,541.716964 C175.262454,543.732963 175.724497,545.594939 176.598154,547.11396 Z M173.970008,527.373975 C173.616199,527.556019 173.182992,527.436975 172.988049,527.094019 C172.800348,526.750998 172.923068,526.330998 173.276876,526.141998 C175.970003,524.721021 178.908569,524 182.013243,524 C185.089014,524 187.774899,524.658021 190.720708,526.134976 C191.074516,526.309998 191.211721,526.736954 191.031195,527.079976 C190.901233,527.317997 190.648552,527.457975 190.388627,527.457975 C190.273083,527.457975 190.164781,527.430019 190.056479,527.380997 C187.291128,525.994998 184.886828,525.399977 182.013243,525.399977 C179.146833,525.399977 176.446531,526.064955 173.970008,527.373975 Z M181.948262,530.761995 C188.511351,530.761995 193.854217,535.683013 193.854149,541.731008 C193.854149,544.006028 191.854154,545.854027 189.406533,545.854027 C186.958913,545.854027 184.958917,544.006028 184.958917,541.731008 C184.958917,540.233053 183.608732,539.008032 181.95537,539.008032 C180.302007,539.008032 178.951822,540.226031 178.951822,541.731008 C178.951822,544.117984 179.912053,546.364983 181.652125,548.044981 C183.016727,549.360958 184.345252,550.089001 186.381326,550.627979 C186.764037,550.732979 186.995058,551.118001 186.886756,551.488979 C186.800115,551.797022 186.511288,552 186.193625,552 C186.128644,552 186.063663,551.992978 186.005924,551.971978 C183.702751,551.362979 182.200944,550.536957 180.641398,549.03198 C178.626985,547.086004 177.515064,544.488962 177.515064,541.723986 C177.515064,539.448966 179.507817,537.600967 181.96268,537.600967 C184.417543,537.600967 186.410296,539.448966 186.410296,541.723986 C186.410296,543.221941 187.760481,544.446962 189.413843,544.446962 C191.067206,544.446962 192.417391,543.228963 192.417391,541.723986 C192.417391,536.446034 187.724335,532.155016 181.955437,532.155016 C177.847212,532.155016 174.09997,534.36697 172.410462,537.796989 C171.847292,538.930988 171.565708,540.253987 171.565708,541.723986 C171.565708,542.815985 171.666767,544.537984 172.526006,546.770938 C172.663211,547.13496 172.47551,547.53396 172.100042,547.673938 C171.724573,547.80696 171.313026,547.624982 171.168646,547.26096 C170.461097,545.419983 170.114531,543.613985 170.114531,541.723986 C170.114531,540.043987 170.446612,538.518011 171.103665,537.195012 C173.031437,533.289015 177.291285,530.761995 181.948262,530.761995 Z M190.612406,547.57596 C191.002292,547.506004 191.377693,547.76496 191.449917,548.142959 C191.522141,548.520959 191.254974,548.884915 190.865088,548.954937 C190.020334,549.101937 189.305542,549.108959 189.103356,549.108959 C187.385012,549.108959 185.875962,548.688959 184.626904,547.869959 C182.482529,546.456004 181.197325,544.159984 181.197325,541.723986 C181.197325,541.338965 181.52223,541.023965 181.919359,541.023965 C182.316488,541.023965 182.641394,541.338965 182.641394,541.723986 C182.641394,543.691028 183.688334,545.553005 185.442823,546.708004 C186.46086,547.380004 187.659422,547.708981 189.103423,547.708981 C189.449989,547.708981 190.034819,547.673938 190.612406,547.57596 Z M194.865011,533.659992 C195.0961,533.974992 195.023876,534.40897 194.698971,534.633079 C194.374066,534.857123 193.919198,534.787101 193.688177,534.472101 C192.388555,532.708103 190.742368,531.322104 188.792936,530.356104 C184.648632,528.291084 179.356262,528.298106 175.219133,530.370083 C173.262458,531.35006 171.609028,532.743081 170.31665,534.521057 C170.172202,534.710057 169.948423,534.808035 169.724577,534.808035 C169.58013,534.808035 169.43575,534.766035 169.305788,534.682035 C168.980882,534.457992 168.901484,534.024014 169.132505,533.709014 C170.562089,531.748994 172.388801,530.208973 174.554837,529.123996 C179.09627,526.849042 184.901246,526.84202 189.449922,529.110018 C191.608715,530.187973 193.428185,531.714016 194.865011,533.659992 Z" id="Finger" fill="url(#linearGradient-4)" fill-rule="nonzero"></path>
    </g>
</svg>