<?xml version="1.0" encoding="UTF-8"?>
<svg width="320px" height="342px" viewBox="0 0 320 342" version="1.1" xmlns="http://www.w3.org/2000/svg" xmlns:xlink="http://www.w3.org/1999/xlink">
    <!-- Generator: Sketch 54.1 (76490) - https://sketchapp.com -->
    <title>chungtoi</title>
    <desc>Created with Sketch.</desc>
    <g id="chungtoi" stroke="none" stroke-width="1" fill="none" fill-rule="evenodd">
        <rect fill="#FFFFFF" x="0" y="0" width="320" height="342"></rect>
        <text id="Chanchan-được-tạo-ra" font-family="Georgia-Italic, Georgia" font-size="14" font-style="italic" font-weight="normal" line-spacing="22" fill="#5D6A80">
            <tspan x="50" y="189">Chanchan được tạo ra để điều này </tspan>
            <tspan x="50" y="211">trở nên đơn giản hơn với tất cả mọi </tspan>
            <tspan x="50" y="233">người. *</tspan>
        </text>
        <path d="M34.139821,182.860399 C34.139821,183.164294 34.0054078,183.430198 33.7365772,183.65812 C33.4677466,183.886041 33.1506357,184 32.7852349,184 C32.2110337,184 31.7699493,183.826687 31.4619687,183.480057 C31.153988,183.133427 31,182.653849 31,182.041311 C31,181.471507 31.2649116,180.896964 31.7947427,180.317664 C32.3245739,179.738364 32.9627107,179.299147 33.7091723,179 L34.0536913,179.505698 C33.46383,179.766858 33.001866,180.070749 32.6677852,180.417379 C32.3337045,180.764009 32.140567,181.184233 32.0883669,181.678063 L32.5268456,181.678063 C32.8504863,181.678063 33.1140929,181.711301 33.3176734,181.777778 C33.5212538,181.844255 33.6856817,181.936847 33.810962,182.055556 C33.9310222,182.169516 34.0158461,182.295346 34.0654362,182.433048 C34.1150263,182.570751 34.139821,182.7132 34.139821,182.860399 Z M38,182.860399 C38,183.164294 37.8655867,183.430198 37.5967562,183.65812 C37.3279256,183.886041 37.0108147,184 36.6454139,184 C36.0712126,184 35.6301283,183.826687 35.3221477,183.480057 C35.014167,183.133427 34.860179,182.653849 34.860179,182.041311 C34.860179,181.471507 35.1250906,180.896964 35.6549217,180.317664 C36.1847528,179.738364 36.8228896,179.299147 37.5693512,179 L37.9138702,179.505698 C37.324009,179.766858 36.8620449,180.070749 36.5279642,180.417379 C36.1938835,180.764009 36.000746,181.184233 35.9485459,181.678063 L36.3870246,181.678063 C36.7106653,181.678063 36.9742719,181.711301 37.1778523,181.777778 C37.3814328,181.844255 37.5458607,181.936847 37.6711409,182.055556 C37.7912012,182.169516 37.8760251,182.295346 37.9256152,182.433048 C37.9752053,182.570751 38,182.7132 38,182.860399 Z" id="“" fill="#343D51" fill-rule="nonzero"></path>
        <text id="Chúng-tôi-tin-rằng-n" font-family="SFCompactDisplay-Regular, SF Compact Display" font-size="15" font-weight="normal" line-spacing="22" fill="#4D5B72">
            <tspan x="30" y="64">Chúng tôi tin rằng nếu yêu thương là </tspan>
            <tspan x="30" y="86">một khả năng mà ai cũng có, thì việc có </tspan>
            <tspan x="30" y="108">được một tình yêu ở bên mình theo năm </tspan>
            <tspan x="30" y="130">tháng là kết quả mà ai cũng xứng đáng </tspan>
            <tspan x="30" y="152">nhận được.</tspan>
        </text>
        <text id="Chúng-tôi" font-family="SFCompactDisplay-Semibold, SF Compact Display" font-size="26" font-weight="500" line-spacing="26" letter-spacing="-1.56" fill="#343D51">
            <tspan x="30" y="29">Chúng tôi</tspan>
        </text>
        <text id="Tháng-2-năm-2018,-ch" font-family="SFCompactDisplay-Regular, SF Compact Display" font-size="15" font-weight="normal" line-spacing="22" fill="#4D5B72">
            <tspan x="30" y="272">Tháng 2 năm 2018, chúng tôi bắt đầu </tspan>
            <tspan x="30" y="294">Chanchan với một niềm tin như vậy.</tspan>
        </text>
    </g>
</svg>