<?xml version="1.0" encoding="UTF-8"?>
<svg width="320px" height="356px" viewBox="0 0 320 356" version="1.1" xmlns="http://www.w3.org/2000/svg" xmlns:xlink="http://www.w3.org/1999/xlink">
    <!-- Generator: Sketch 54.1 (76490) - https://sketchapp.com -->
    <title>chungtoi</title>
    <desc>Created with Sketch.</desc>
    <g id="chungtoi" stroke="none" stroke-width="1" fill="none" fill-rule="evenodd">
        <rect fill="#FFFFFF" x="0" y="0" width="320" height="356"></rect>
        <text id="Chanchan-được-tạo-ra" font-family="Georgia-Italic, Georgia" font-size="14" font-style="italic" font-weight="normal" line-spacing="22" fill="#5D6A80">
            <tspan x="50" y="201">Chanchan được tạo ra để điều này </tspan>
            <tspan x="50" y="223">trở nên đơn giản hơn với tất cả mọi </tspan>
            <tspan x="50" y="245">người.</tspan>
        </text>
        <path d="M33.6953125,195.3125 C33.6953125,195.645835 33.5611993,195.937499 33.2929688,196.1875 C33.0247382,196.437501 32.7083352,196.5625 32.34375,196.5625 C31.7708305,196.5625 31.3307307,196.372398 31.0234375,195.992188 C30.7161443,195.611977 30.5625,195.085941 30.5625,194.414062 C30.5625,193.789059 30.8268203,193.158857 31.3554688,192.523438 C31.8841172,191.888018 32.5208296,191.406252 33.265625,191.078125 L33.609375,191.632812 C33.0208304,191.919272 32.5598975,192.252602 32.2265625,192.632812 C31.8932275,193.013023 31.7005211,193.473956 31.6484375,194.015625 L32.0859375,194.015625 C32.4088558,194.015625 32.671874,194.052083 32.875,194.125 C33.078126,194.197917 33.2421869,194.299479 33.3671875,194.429688 C33.4869798,194.554688 33.5716143,194.692708 33.6210938,194.84375 C33.6705732,194.994792 33.6953125,195.151041 33.6953125,195.3125 Z M37.546875,195.3125 C37.546875,195.645835 37.4127618,195.937499 37.1445312,196.1875 C36.8763007,196.437501 36.5598977,196.5625 36.1953125,196.5625 C35.622393,196.5625 35.1822932,196.372398 34.875,195.992188 C34.5677068,195.611977 34.4140625,195.085941 34.4140625,194.414062 C34.4140625,193.789059 34.6783828,193.158857 35.2070312,192.523438 C35.7356797,191.888018 36.3723921,191.406252 37.1171875,191.078125 L37.4609375,191.632812 C36.8723929,191.919272 36.41146,192.252602 36.078125,192.632812 C35.74479,193.013023 35.5520836,193.473956 35.5,194.015625 L35.9375,194.015625 C36.2604183,194.015625 36.5234365,194.052083 36.7265625,194.125 C36.9296885,194.197917 37.0937494,194.299479 37.21875,194.429688 C37.3385423,194.554688 37.4231768,194.692708 37.4726562,194.84375 C37.5221357,194.994792 37.546875,195.151041 37.546875,195.3125 Z" id="“" fill="#343D51" fill-rule="nonzero"></path>
        <text id="Chúng-tôi-tin-rằng-n" font-family="SFCompactDisplay-Regular, SF Compact Display" font-size="15" font-weight="normal" line-spacing="22" fill="#4D5B72">
            <tspan x="30" y="76">Chúng tôi tin rằng nếu yêu thương là </tspan>
            <tspan x="30" y="98">một khả năng mà ai cũng có, thì việc có </tspan>
            <tspan x="30" y="120">được một tình yêu ở bên mình theo năm </tspan>
            <tspan x="30" y="142">tháng là kết quả mà ai cũng xứng đáng </tspan>
            <tspan x="30" y="164">nhận được.</tspan>
        </text>
        <text id="Chúng-tôi" font-family="SFCompactDisplay-Semibold, SF Compact Display" font-size="28" font-weight="500" letter-spacing="-1.955882" fill="#343D51">
            <tspan x="30" y="35">Chúng tôi</tspan>
        </text>
        <text id="Tháng-2-năm-2018,-ch" font-family="SFCompactDisplay-Regular, SF Compact Display" font-size="15" font-weight="normal" line-spacing="22" fill="#4D5B72">
            <tspan x="30" y="284">Tháng 2 năm 2018, chúng tôi bắt đầu </tspan>
            <tspan x="30" y="306">Chanchan với một niềm tin như vậy.</tspan>
        </text>
    </g>
</svg>