<?xml version="1.0" encoding="UTF-8"?>
<svg width="320px" height="820px" viewBox="0 0 320 820" version="1.1" xmlns="http://www.w3.org/2000/svg" xmlns:xlink="http://www.w3.org/1999/xlink">
    <!-- Generator: Sketch 54.1 (76490) - https://sketchapp.com -->
    <title>chuongtrinh_pre</title>
    <desc>Created with Sketch.</desc>
    <defs>
        <linearGradient x1="18.8993216%" y1="100%" x2="122.803305%" y2="-54.216083%" id="linearGradient-1">
            <stop stop-color="#3D5AFE" offset="0%"></stop>
            <stop stop-color="#00B0FF" offset="100%"></stop>
        </linearGradient>
        <circle id="path-2" cx="270" cy="18" r="12"></circle>
        <filter x="-25.0%" y="-16.7%" width="141.7%" height="141.7%" filterUnits="objectBoundingBox" id="filter-3">
            <feOffset dx="-1" dy="1" in="SourceAlpha" result="shadowOffsetOuter1"></feOffset>
            <feGaussianBlur stdDeviation="1.5" in="shadowOffsetOuter1" result="shadowBlurOuter1"></feGaussianBlur>
            <feColorMatrix values="0 0 0 0 0   0 0 0 0 0   0 0 0 0 0  0 0 0 0.25 0" type="matrix" in="shadowBlurOuter1"></feColorMatrix>
        </filter>
    </defs>
    <g id="chuongtrinh_pre" stroke="none" stroke-width="1" fill="none" fill-rule="evenodd">
        <rect id="Rectangle" fill="#F0F6FA" x="0" y="40" width="320" height="506"></rect>
        <path d="M0,28.3942402 L5.17643724,25.2848721 C8.12752144,23.5122229 11.8312646,23.5782898 14.7172509,25.4550598 L15.0935815,25.6997894 C18.0769173,27.6398662 21.9232666,27.6398662 24.9066023,25.6997894 L25.0936275,25.5781661 C28.0769632,23.6380893 31.9233126,23.6380893 34.9066483,25.5781661 L35.0936735,25.6997894 C38.0770092,27.6398662 41.9233586,27.6398662 44.9066943,25.6997894 L45.0937195,25.5781661 C48.0770552,23.6380893 51.9234045,23.6380893 54.9067403,25.5781661 L55.0937654,25.6997894 C58.0771012,27.6398662 61.9234505,27.6398662 64.9067862,25.6997894 L65.0938114,25.5781661 C68.0771471,23.6380893 71.9234965,23.6380893 74.9068322,25.5781661 L75.0938574,25.6997894 C78.0771931,27.6398662 81.9235425,27.6398662 84.9068782,25.6997894 L85.0939033,25.5781661 C88.0772391,23.6380893 91.9235884,23.6380893 94.9069242,25.5781661 L95.0939493,25.6997894 C98.077285,27.6398662 101.923634,27.6398662 104.90697,25.6997894 L105.092678,25.5790229 C108.076685,23.6385094 111.924019,23.6389815 114.90755,25.5802274 L115.091527,25.6999328 C118.076067,27.6418352 121.924882,27.6415978 124.909182,25.6993272 L125.090195,25.5815187 C128.074649,23.6391482 131.923688,23.6390188 134.908273,25.5811885 L135.090387,25.6996964 C138.074788,27.6417463 141.923557,27.6417463 144.907958,25.6996964 L145.090433,25.5809535 C148.074834,23.6389035 151.923603,23.6389035 154.908004,25.5809535 L155.090479,25.6996964 C158.07488,27.6417463 161.923649,27.6417463 164.90805,25.6996964 L165.090525,25.5809535 C168.074926,23.6389035 171.923695,23.6389035 174.908096,25.5809535 L175.090571,25.6996964 C178.074972,27.6417463 181.923741,27.6417463 184.908142,25.6996964 L185.090617,25.5809535 C188.075018,23.6389035 191.923787,23.6389035 194.908188,25.5809535 L195.090663,25.6996964 C198.075064,27.6417463 201.923833,27.6417463 204.908234,25.6996964 L205.090709,25.5809535 C208.075109,23.6389035 211.923879,23.6389035 214.90828,25.5809535 L215.090755,25.6996964 C218.075155,27.6417463 221.923925,27.6417463 224.908326,25.6996964 L225.090801,25.5809535 C228.075201,23.6389035 231.923971,23.6389035 234.908372,25.5809535 L235.090847,25.6996964 C238.075247,27.6417463 241.924017,27.6417463 244.908417,25.6996964 L244.999655,25.6403249 C247.919158,23.7405064 251.767492,24.1291542 254.248187,26.5743449 L259.999724,32.2435652 C265.545762,37.7102271 274.453778,37.7102271 279.999816,32.2435652 L285.751353,26.5743449 C288.232048,24.1291542 292.080383,23.7405064 294.999885,25.6403249 L295.091123,25.6996964 C298.075523,27.6417463 301.924293,27.6417463 304.908693,25.6996964 L305.091169,25.5809535 C308.075569,23.6389035 311.924339,23.6389035 314.908739,25.5809535 L320,28.8940084 L320,44 L0,44 L0,28.3942402 Z" id="Rectangle" fill="#F0F6FA"></path>
        <g id="Oval">
            <use fill="black" fill-opacity="1" filter="url(#filter-3)" xlink:href="#path-2"></use>
            <use fill="url(#linearGradient-1)" fill-rule="evenodd" xlink:href="#path-2"></use>
        </g>
        <path d="M0,549.505514 L5.21402985,546.40667 C8.1468085,544.663637 11.8130177,544.728728 14.682075,546.574768 L15.1302018,546.863107 C18.096321,548.771599 21.9038629,548.771599 24.8699821,546.863107 L25.1302478,546.695644 C28.096367,544.787151 31.9039089,544.787151 34.8700281,546.695644 L35.1302938,546.863107 C38.0964129,548.771599 41.9039549,548.771599 44.870074,546.863107 L45.1303397,546.695644 C48.0964589,544.787151 51.9040008,544.787151 54.87012,546.695644 L55.1303857,546.863107 C58.0965049,548.771599 61.9040468,548.771599 64.870166,546.863107 L65.1304317,546.695644 C68.0965508,544.787151 71.9040928,544.787151 74.8702119,546.695644 L75.1304776,546.863107 C78.0965968,548.771599 81.9041387,548.771599 84.8702579,546.863107 L85.1305236,546.695644 C88.0966428,544.787151 91.9041847,544.787151 94.8703039,546.695644 L95.1305696,546.863107 C98.0966888,548.771599 101.904231,548.771599 104.87035,546.863107 L105.129308,546.696485 C108.096097,544.787562 111.904615,544.788027 114.870938,546.697675 L115.128155,546.863266 C118.095483,548.773562 121.905469,548.773328 124.872563,546.862667 L125.126816,546.698941 C128.094063,544.788182 131.904272,544.788055 134.871647,546.698615 L135.12701,546.863032 C138.094202,548.773474 141.904143,548.773474 144.871335,546.863032 L145.127056,546.698384 C148.094248,544.787942 151.904189,544.787942 154.871381,546.698384 L155.127102,546.863032 C158.094294,548.773474 161.904235,548.773474 164.871427,546.863032 L165.127148,546.698384 C168.09434,544.787942 171.904281,544.787942 174.871473,546.698384 L175.127194,546.863032 C178.094386,548.773474 181.904327,548.773474 184.871519,546.863032 L185.12724,546.698384 C188.094432,544.787942 191.904373,544.787942 194.871565,546.698384 L195.127286,546.863032 C198.094478,548.773474 201.904419,548.773474 204.871611,546.863032 L205.127332,546.698384 C208.094524,544.787942 211.904465,544.787942 214.871657,546.698384 L215.127378,546.863032 C218.09457,548.773474 221.904511,548.773474 224.871703,546.863032 L225.127264,546.698487 C228.094538,544.787992 231.904598,544.788049 234.871815,546.698633 L235.127244,546.863103 C238.094542,548.773739 241.904722,548.773739 244.87202,546.863103 L245.127357,546.698692 C248.094621,544.788078 251.904751,544.788054 254.872038,546.698631 L255.127124,546.862875 C258.094676,548.773622 261.905191,548.773415 264.872534,546.862344 L265.126883,546.698536 C268.094525,544.787273 271.905475,544.787273 274.873117,546.698536 L275.127354,546.862272 C278.094755,548.773379 281.905353,548.773547 284.872922,546.862701 L285.127455,546.698805 C288.094761,544.788129 291.904974,544.788113 294.872295,546.698764 L295.12752,546.863103 C298.094818,548.773739 301.904998,548.773739 304.872296,546.863103 L305.127726,546.698633 C308.094942,544.788049 311.905003,544.787992 314.872276,546.698487 L320,550 L320,538 L0,538 L0,549.505514 Z" id="Rectangle" fill="#FFFFFF" transform="translate(160.000000, 544.000000) scale(1, -1) translate(-160.000000, -544.000000) "></path>
    </g>
</svg>