<?xml version="1.0" encoding="UTF-8"?>
<svg width="320px" height="1254px" viewBox="0 0 320 1254" version="1.1" xmlns="http://www.w3.org/2000/svg" xmlns:xlink="http://www.w3.org/1999/xlink">
    <!-- Generator: Sketch 54.1 (76490) - https://sketchapp.com -->
    <title>dieunayxayra_bg</title>
    <desc>Created with Sketch.</desc>
    <defs>
        <linearGradient x1="0%" y1="0%" x2="0%" y2="98.1290247%" id="linearGradient-1">
            <stop stop-color="#F50057" offset="0%"></stop>
            <stop stop-color="#D500F9" offset="30.2591143%"></stop>
            <stop stop-color="#651FFF" offset="74.1487232%"></stop>
            <stop stop-color="#3D5AFE" offset="100%"></stop>
        </linearGradient>
    </defs>
    <g id="dieunayxayra_bg" stroke="none" stroke-width="1" fill="none" fill-rule="evenodd">
        <rect fill="#FFFFFF" x="0" y="0" width="320" height="1254"></rect>
        <path d="M3.04720534,252 C3.01573507,252.166826 3,252.339903 3,252.519231 C3,253.198721 3.22884537,253.782049 3.68654298,254.269231 C4.14424058,254.756413 4.68408094,255 5.30608025,255 C5.91634372,255 6.45325017,254.759618 6.91681569,254.278846 C7.38038122,253.798075 7.6121605,253.211542 7.6121605,252.519231 C7.6121605,252.339903 7.59622108,252.166826 7.5643421,252 L12.7468253,252 C12.7153551,252.166826 12.69962,252.339903 12.69962,252.519231 C12.69962,253.198721 12.9284654,253.782049 13.386163,254.269231 C13.8438606,254.756413 14.3837009,255 15.0057002,255 C15.6159637,255 16.1528702,254.759618 16.6164357,254.278846 C17.0800012,253.798075 17.3117805,253.211542 17.3117805,252.519231 C17.3117805,252.339903 17.2958411,252.166826 17.2639621,252 L22.4464453,252 C22.414975,252.166826 22.39924,252.339903 22.39924,252.519231 C22.39924,253.198721 22.6280853,253.782049 23.0857829,254.269231 C23.5434805,254.756413 24.0833209,255 24.7053202,255 C25.3273195,255 25.8671599,254.756413 26.3248575,254.269231 C26.7825551,253.782049 27.0114005,253.198721 27.0114005,252.519231 C27.0114005,252.339903 26.9956654,252.166826 26.9641951,252 L32.1460653,252 C32.114595,252.166826 32.09886,252.339903 32.09886,252.519231 C32.09886,253.198721 32.3277053,253.782049 32.7854029,254.269231 C33.2431005,254.756413 33.7829409,255 34.4049402,255 C35.0152037,255 35.5521101,254.759618 36.0156756,254.278846 C36.4792412,253.798075 36.7110205,253.211542 36.7110205,252.519231 C36.7110205,252.339903 36.695081,252.166826 36.6632021,252 L41.8456853,252 C41.814215,252.166826 41.7984799,252.339903 41.7984799,252.519231 C41.7984799,253.198721 42.0273253,253.782049 42.4850229,254.269231 C42.9427205,254.756413 43.4825609,255 44.1045602,255 C44.7148237,255 45.2517301,254.759618 45.7152956,254.278846 C46.1788612,253.798075 46.4106404,253.211542 46.4106404,252.519231 C46.4106404,252.339903 46.394701,252.166826 46.362822,252 L51.5453053,252 C51.513835,252.166826 51.4980999,252.339903 51.4980999,252.519231 C51.4980999,253.198721 51.7269453,253.782049 52.1846429,254.269231 C52.6423405,254.756413 53.1821809,255 53.8041802,255 C54.4261795,255 54.9660198,254.756413 55.4237174,254.269231 C55.8814151,253.782049 56.1102604,253.198721 56.1102604,252.519231 C56.1102604,252.339903 56.0945254,252.166826 56.0630551,252 L61.2449252,252 C61.213455,252.166826 61.1977199,252.339903 61.1977199,252.519231 C61.1977199,253.198721 61.4265653,253.782049 61.8842629,254.269231 C62.3419605,254.756413 62.8818008,255 63.5038002,255 C64.1140636,255 64.6509701,254.759618 65.1145356,254.278846 C65.5781011,253.798075 65.8098804,253.211542 65.8098804,252.519231 C65.8098804,252.339903 65.793941,252.166826 65.762062,252 L70.9445452,252 C70.913075,252.166826 70.8973399,252.339903 70.8973399,252.519231 C70.8973399,253.198721 71.1261853,253.782049 71.5838829,254.269231 C72.0415805,254.756413 72.5814208,255 73.2034201,255 C73.8136836,255 74.3505901,254.759618 74.8141556,254.278846 C75.2777211,253.798075 75.5095004,253.211542 75.5095004,252.519231 C75.5095004,252.339903 75.493561,252.166826 75.461682,252 L80.6441652,252 C80.6126949,252.166826 80.5969599,252.339903 80.5969599,252.519231 C80.5969599,253.198721 80.8258052,253.782049 81.2835029,254.269231 C81.7412005,254.756413 82.2810408,255 82.9030401,255 C83.5250394,255 84.0648798,254.756413 84.5225774,254.269231 C84.980275,253.782049 85.2091204,253.198721 85.2091204,252.519231 C85.2091204,252.339903 85.1933853,252.166826 85.161915,252 L90.3437852,252 C90.3123149,252.166826 90.2965799,252.339903 90.2965799,252.519231 C90.2965799,253.198721 90.5254252,253.782049 90.9831228,254.269231 C91.4408204,254.756413 91.9806608,255 92.6026601,255 C93.2129236,255 93.74983,254.759618 94.2133956,254.278846 C94.6769611,253.798075 94.9087404,253.211542 94.9087404,252.519231 C94.9087404,252.339903 94.8928009,252.166826 94.860922,252 L100.043405,252 C100.011935,252.166826 99.9961998,252.339903 99.9961998,252.519231 C99.9961998,253.198721 100.225045,253.782049 100.682743,254.269231 C101.14044,254.756413 101.680281,255 102.30228,255 C102.912544,255 103.44945,254.759618 103.913016,254.278846 C104.376581,253.798075 104.60836,253.211542 104.60836,252.519231 C104.60836,252.339903 104.592421,252.166826 104.560542,252 L109.743025,252 C109.711555,252.166826 109.69582,252.339903 109.69582,252.519231 C109.69582,253.198721 109.924665,253.782049 110.382363,254.269231 C110.84006,254.756413 111.379901,255 112.0019,255 C112.623899,255 113.16374,254.756413 113.621437,254.269231 C114.079135,253.782049 114.30798,253.198721 114.30798,252.519231 C114.30798,252.339903 114.292245,252.166826 114.260775,252 L119.442645,252 C119.411175,252.166826 119.39544,252.339903 119.39544,252.519231 C119.39544,253.198721 119.624285,253.782049 120.081983,254.269231 C120.53968,254.756413 121.079521,255 121.70152,255 C122.311784,255 122.84869,254.759618 123.312256,254.278846 C123.775821,253.798075 124.0076,253.211542 124.0076,252.519231 C124.0076,252.339903 123.991661,252.166826 123.959782,252 L129.142265,252 C129.110795,252.166826 129.09506,252.339903 129.09506,252.519231 C129.09506,253.198721 129.323905,253.782049 129.781603,254.269231 C130.2393,254.756413 130.779141,255 131.40114,255 C132.011404,255 132.54831,254.759618 133.011875,254.278846 C133.475441,253.798075 133.70722,253.211542 133.70722,252.519231 C133.70722,252.339903 133.691281,252.166826 133.659402,252 L138.841885,252 C138.810415,252.166826 138.79468,252.339903 138.79468,252.519231 C138.79468,253.198721 139.023525,253.782049 139.481223,254.269231 C139.93892,254.756413 140.478761,255 141.10076,255 C141.722759,255 142.2626,254.756413 142.720297,254.269231 C143.177995,253.782049 143.40684,253.198721 143.40684,252.519231 C143.40684,252.339903 143.391105,252.166826 143.359635,252 L148.541505,252 C148.510035,252.166826 148.4943,252.339903 148.4943,252.519231 C148.4943,253.198721 148.723145,253.782049 149.180843,254.269231 C149.63854,254.756413 150.178381,255 150.80038,255 C151.410643,255 151.94755,254.759618 152.411115,254.278846 C152.874681,253.798075 153.10646,253.211542 153.10646,252.519231 C153.10646,252.339903 153.090521,252.166826 153.058642,252 L158.241125,252 C158.209655,252.166826 158.19392,252.339903 158.19392,252.519231 C158.19392,253.198721 158.422765,253.782049 158.880463,254.269231 C159.33816,254.756413 159.878001,255 160.5,255 C161.110263,255 161.64717,254.759618 162.110735,254.278846 C162.574301,253.798075 162.80608,253.211542 162.80608,252.519231 C162.80608,252.339903 162.790141,252.166826 162.758262,252 L167.940745,252 C167.909275,252.166826 167.89354,252.339903 167.89354,252.519231 C167.89354,253.198721 168.122385,253.782049 168.580083,254.269231 C169.03778,254.756413 169.577621,255 170.19962,255 C170.821619,255 171.36146,254.756413 171.819157,254.269231 C172.276855,253.782049 172.5057,253.198721 172.5057,252.519231 C172.5057,252.339903 172.489965,252.166826 172.458495,252 L177.640365,252 C177.608895,252.166826 177.59316,252.339903 177.59316,252.519231 C177.59316,253.198721 177.822005,253.782049 178.279703,254.269231 C178.7374,254.756413 179.277241,255 179.89924,255 C180.509503,255 181.04641,254.759618 181.509975,254.278846 C181.973541,253.798075 182.20532,253.211542 182.20532,252.519231 C182.20532,252.339903 182.189381,252.166826 182.157502,252 L187.339985,252 C187.308515,252.166826 187.29278,252.339903 187.29278,252.519231 C187.29278,253.198721 187.521625,253.782049 187.979323,254.269231 C188.43702,254.756413 188.976861,255 189.59886,255 C190.209123,255 190.74603,254.759618 191.209595,254.278846 C191.673161,253.798075 191.90494,253.211542 191.90494,252.519231 C191.90494,252.339903 191.889001,252.166826 191.857122,252 L197.039605,252 C197.008135,252.166826 196.9924,252.339903 196.9924,252.519231 C196.9924,253.198721 197.221245,253.782049 197.678943,254.269231 C198.13664,254.756413 198.676481,255 199.29848,255 C199.920479,255 200.46032,254.756413 200.918017,254.269231 C201.375715,253.782049 201.60456,253.198721 201.60456,252.519231 C201.60456,252.339903 201.588825,252.166826 201.557355,252 L206.739225,252 C206.707755,252.166826 206.69202,252.339903 206.69202,252.519231 C206.69202,253.198721 206.920865,253.782049 207.378563,254.269231 C207.83626,254.756413 208.376101,255 208.9981,255 C209.608363,255 210.14527,254.759618 210.608835,254.278846 C211.072401,253.798075 211.30418,253.211542 211.30418,252.519231 C211.30418,252.339903 211.288241,252.166826 211.256362,252 L216.438845,252 C216.407375,252.166826 216.39164,252.339903 216.39164,252.519231 C216.39164,253.198721 216.620485,253.782049 217.078183,254.269231 C217.53588,254.756413 218.075721,255 218.69772,255 C219.307983,255 219.84489,254.759618 220.308455,254.278846 C220.772021,253.798075 221.0038,253.211542 221.0038,252.519231 C221.0038,252.339903 220.987861,252.166826 220.955982,252 L226.138465,252 C226.106995,252.166826 226.09126,252.339903 226.09126,252.519231 C226.09126,253.198721 226.320105,253.782049 226.777803,254.269231 C227.2355,254.756413 227.775341,255 228.39734,255 C229.019339,255 229.55918,254.756413 230.016877,254.269231 C230.474575,253.782049 230.70342,253.198721 230.70342,252.519231 C230.70342,252.339903 230.687685,252.166826 230.656215,252 L235.838085,252 C235.806615,252.166826 235.79088,252.339903 235.79088,252.519231 C235.79088,253.198721 236.019725,253.782049 236.477423,254.269231 C236.93512,254.756413 237.474961,255 238.09696,255 C238.707223,255 239.24413,254.759618 239.707695,254.278846 C240.171261,253.798075 240.40304,253.211542 240.40304,252.519231 C240.40304,252.339903 240.387101,252.166826 240.355222,252 L245.537705,252 C245.506235,252.166826 245.4905,252.339903 245.4905,252.519231 C245.4905,253.198721 245.719345,253.782049 246.177043,254.269231 C246.63474,254.756413 247.174581,255 247.79658,255 C248.406843,255 248.94375,254.759618 249.407315,254.278846 C249.870881,253.798075 250.10266,253.211542 250.10266,252.519231 C250.10266,252.339903 250.086721,252.166826 250.054842,252 L255.237325,252 C255.205855,252.166826 255.19012,252.339903 255.19012,252.519231 C255.19012,253.198721 255.418965,253.782049 255.876663,254.269231 C256.33436,254.756413 256.874201,255 257.4962,255 C258.118199,255 258.65804,254.756413 259.115737,254.269231 C259.573435,253.782049 259.80228,253.198721 259.80228,252.519231 C259.80228,252.339903 259.786545,252.166826 259.755075,252 L264.936945,252 C264.905475,252.166826 264.88974,252.339903 264.88974,252.519231 C264.88974,253.198721 265.118585,253.782049 265.576283,254.269231 C266.03398,254.756413 266.573821,255 267.19582,255 C267.806083,255 268.34299,254.759618 268.806555,254.278846 C269.270121,253.798075 269.5019,253.211542 269.5019,252.519231 C269.5019,252.339903 269.485961,252.166826 269.454082,252 L274.636565,252 C274.605095,252.166826 274.58936,252.339903 274.58936,252.519231 C274.58936,253.198721 274.818205,253.782049 275.275903,254.269231 C275.7336,254.756413 276.273441,255 276.89544,255 C277.505703,255 278.04261,254.759618 278.506175,254.278846 C278.969741,253.798075 279.20152,253.211542 279.20152,252.519231 C279.20152,252.339903 279.185581,252.166826 279.153702,252 L284.336185,252 C284.304715,252.166826 284.28898,252.339903 284.28898,252.519231 C284.28898,253.198721 284.517825,253.782049 284.975523,254.269231 C285.43322,254.756413 285.97306,255 286.59506,255 C287.217059,255 287.756899,254.756413 288.214597,254.269231 C288.672295,253.782049 288.90114,253.198721 288.90114,252.519231 C288.90114,252.339903 288.885405,252.166826 288.853935,252 L294.035805,252 C294.004335,252.166826 293.9886,252.339903 293.9886,252.519231 C293.9886,253.198721 294.217445,253.782049 294.675143,254.269231 C295.13284,254.756413 295.67268,255 296.29468,255 C296.904943,255 297.44185,254.759618 297.905415,254.278846 C298.368981,253.798075 298.60076,253.211542 298.60076,252.519231 C298.60076,252.339903 298.584821,252.166826 298.552942,252 L303.735425,252 C303.703955,252.166826 303.68822,252.339903 303.68822,252.519231 C303.68822,253.198721 303.917065,253.782049 304.374762,254.269231 C304.83246,254.756413 305.3723,255 305.9943,255 C306.604563,255 307.14147,254.759618 307.605035,254.278846 C308.068601,253.798075 308.30038,253.211542 308.30038,252.519231 C308.30038,252.339903 308.284441,252.166826 308.252562,252 L313.435045,252 C313.403575,252.166826 313.387839,252.339903 313.387839,252.519231 C313.387839,253.198721 313.616685,253.782049 314.074382,254.269231 C314.53208,254.756413 315.07192,255 315.69392,255 C316.315919,255 316.855759,254.756413 317.313457,254.269231 C317.771155,253.782049 318,253.198721 318,252.519231 C318,252.339903 317.984265,252.166826 317.952795,252 L320,252 L320,260 L0,260 L0,252 L3.04720534,252 Z" id="Rectangle-2" fill="#ECF5FA"></path>
        <rect id="Rectangle" fill="#ECF5FA" x="0" y="260" width="320" height="994"></rect>
        <path d="M46,460.538523 C46,461.065826 45.8456432,461.44958 45.5369249,461.689795 C45.2282067,461.930011 44.8377748,462.050117 44.3656174,462.050117 C44.0629525,462.050117 43.4364454,461.921223 42.4860775,461.66343 C41.5357095,461.405638 40.5278504,461.212296 39.4624697,461.0834 C40.1646524,461.973956 40.9394631,462.811769 41.7869249,463.596865 C42.6343868,464.38196 43.0581114,465.049867 43.0581114,465.600606 C43.0581114,465.987295 42.8825683,466.324177 42.531477,466.611265 C42.1803857,466.898352 41.81114,467.041893 41.4237288,467.041893 C41.1573837,467.041893 40.9092021,466.968658 40.6791768,466.822185 C40.4491514,466.675712 40.2493955,466.467723 40.0799031,466.198213 C39.934624,465.94042 39.7378947,465.354537 39.4897094,464.440545 C39.2415242,463.526553 38.9116243,462.58914 38.5,461.628277 C38.1004823,462.542269 37.7675558,463.482612 37.5012107,464.449334 C37.2348655,465.416055 37.0411628,465.999009 36.9200969,466.198213 C36.7263913,466.491159 36.529662,466.705006 36.3299031,466.839761 C36.1301443,466.974517 35.8789361,467.041893 35.5762712,467.041893 C35.1767535,467.041893 34.8044811,466.904211 34.4594431,466.628841 C34.1144051,466.353472 33.9418886,466.01073 33.9418886,465.600606 C33.9418886,465.049867 34.3656132,464.38196 35.2130751,463.596865 C36.0605369,462.811769 36.8353476,461.973956 37.5375303,461.0834 C36.520576,461.200579 35.5217967,461.390991 34.5411622,461.654642 C33.5605278,461.918294 32.9249409,462.050117 32.6343826,462.050117 C32.1622252,462.050117 31.7717933,461.930011 31.4630751,461.689795 C31.1543568,461.44958 31,461.065826 31,460.538523 C31,460.058092 31.1543568,459.686056 31.4630751,459.422404 C31.7717933,459.158753 32.1622252,459.026929 32.6343826,459.026929 C33.0096871,459.026929 33.6119813,459.147035 34.4412833,459.387251 C35.2705853,459.627467 36.3026573,459.817879 37.5375303,459.958493 C36.7384948,458.974194 35.9394713,458.110016 35.1404358,457.365933 C34.3414004,456.62185 33.9418886,455.980308 33.9418886,455.441287 C33.9418886,455.054599 34.1174317,454.717716 34.468523,454.430629 C34.8196143,454.143541 35.18886,454 35.5762712,454 C35.8547229,454 36.1059311,454.070306 36.3299031,454.21092 C36.5538752,454.351534 36.7506045,454.556593 36.9200969,454.826104 C37.065376,455.083896 37.2651319,455.675638 37.5193705,456.601348 C37.773609,457.527057 38.1004823,458.464471 38.5,459.413616 C38.8995177,458.452753 39.2294176,457.509481 39.4897094,456.583771 C39.7500013,455.658062 39.9467306,455.072178 40.0799031,454.826104 C40.2251823,454.580029 40.4158584,454.380829 40.651937,454.228497 C40.8880157,454.076165 41.1452771,454 41.4237288,454 C41.8232465,454 42.1955189,454.137683 42.5405569,454.413052 C42.8855949,454.688421 43.0581114,455.031163 43.0581114,455.441287 C43.0581114,455.980308 42.6797859,456.610133 41.9231235,457.33078 C41.1664611,458.051427 40.3523046,458.927323 39.4806295,459.958493 C40.6912893,459.806161 41.7294146,459.61282 42.5950363,459.378463 C43.4606581,459.144106 44.0508459,459.026929 44.3656174,459.026929 C44.8377748,459.026929 45.2282067,459.158753 45.5369249,459.422404 C45.8456432,459.686056 46,460.058092 46,460.538523 Z M46,968.49663 C46,969.023933 45.8456432,969.407687 45.5369249,969.647902 C45.2282067,969.888118 44.8377748,970.008224 44.3656174,970.008224 C44.0629525,970.008224 43.4364454,969.87933 42.4860775,969.621537 C41.5357095,969.363745 40.5278504,969.170403 39.4624697,969.041507 C40.1646524,969.932063 40.9394631,970.769876 41.7869249,971.554972 C42.6343868,972.340067 43.0581114,973.007974 43.0581114,973.558713 C43.0581114,973.945401 42.8825683,974.282284 42.531477,974.569371 C42.1803857,974.856459 41.81114,975 41.4237288,975 C41.1573837,975 40.9092021,974.926765 40.6791768,974.780292 C40.4491514,974.633819 40.2493955,974.42583 40.0799031,974.15632 C39.934624,973.898527 39.7378947,973.312644 39.4897094,972.398652 C39.2415242,971.48466 38.9116243,970.547247 38.5,969.586384 C38.1004823,970.500376 37.7675558,971.440718 37.5012107,972.40744 C37.2348655,973.374162 37.0411628,973.957116 36.9200969,974.15632 C36.7263913,974.449266 36.529662,974.663113 36.3299031,974.797868 C36.1301443,974.932623 35.8789361,975 35.5762712,975 C35.1767535,975 34.8044811,974.862317 34.4594431,974.586948 C34.1144051,974.311579 33.9418886,973.968837 33.9418886,973.558713 C33.9418886,973.007974 34.3656132,972.340067 35.2130751,971.554972 C36.0605369,970.769876 36.8353476,969.932063 37.5375303,969.041507 C36.520576,969.158685 35.5217967,969.349098 34.5411622,969.612749 C33.5605278,969.8764 32.9249409,970.008224 32.6343826,970.008224 C32.1622252,970.008224 31.7717933,969.888118 31.4630751,969.647902 C31.1543568,969.407687 31,969.023933 31,968.49663 C31,968.016199 31.1543568,967.644163 31.4630751,967.380511 C31.7717933,967.11686 32.1622252,966.985036 32.6343826,966.985036 C33.0096871,966.985036 33.6119813,967.105142 34.4412833,967.345358 C35.2705853,967.585574 36.3026573,967.775986 37.5375303,967.9166 C36.7384948,966.932301 35.9394713,966.068123 35.1404358,965.32404 C34.3414004,964.579957 33.9418886,963.938415 33.9418886,963.399394 C33.9418886,963.012705 34.1174317,962.675823 34.468523,962.388735 C34.8196143,962.101648 35.18886,961.958107 35.5762712,961.958107 C35.8547229,961.958107 36.1059311,962.028413 36.3299031,962.169027 C36.5538752,962.309641 36.7506045,962.5147 36.9200969,962.784211 C37.065376,963.042003 37.2651319,963.633745 37.5193705,964.559455 C37.773609,965.485164 38.1004823,966.422578 38.5,967.371723 C38.8995177,966.41086 39.2294176,965.467588 39.4897094,964.541878 C39.7500013,963.616169 39.9467306,963.030285 40.0799031,962.784211 C40.2251823,962.538136 40.4158584,962.338936 40.651937,962.186604 C40.8880157,962.034272 41.1452771,961.958107 41.4237288,961.958107 C41.8232465,961.958107 42.1955189,962.095789 42.5405569,962.371159 C42.8855949,962.646528 43.0581114,962.98927 43.0581114,963.399394 C43.0581114,963.938415 42.6797859,964.56824 41.9231235,965.288887 C41.1664611,966.009534 40.3523046,966.88543 39.4806295,967.9166 C40.6912893,967.764268 41.7294146,967.570926 42.5950363,967.33657 C43.4606581,967.102213 44.0508459,966.985036 44.3656174,966.985036 C44.8377748,966.985036 45.2282067,967.11686 45.5369249,967.380511 C45.8456432,967.644163 46,968.016199 46,968.49663 Z M46,728.516422 C46,729.043725 45.8456432,729.427479 45.5369249,729.667694 C45.2282067,729.90791 44.8377748,730.028016 44.3656174,730.028016 C44.0629525,730.028016 43.4364454,729.899122 42.4860775,729.641329 C41.5357095,729.383537 40.5278504,729.190195 39.4624697,729.061299 C40.1646524,729.951855 40.9394631,730.789668 41.7869249,731.574764 C42.6343868,732.359859 43.0581114,733.027766 43.0581114,733.578505 C43.0581114,733.965193 42.8825683,734.302076 42.531477,734.589163 C42.1803857,734.876251 41.81114,735.019792 41.4237288,735.019792 C41.1573837,735.019792 40.9092021,734.946557 40.6791768,734.800084 C40.4491514,734.653611 40.2493955,734.445622 40.0799031,734.176112 C39.934624,733.918319 39.7378947,733.332436 39.4897094,732.418444 C39.2415242,731.504452 38.9116243,730.567039 38.5,729.606176 C38.1004823,730.520168 37.7675558,731.46051 37.5012107,732.427232 C37.2348655,733.393954 37.0411628,733.976908 36.9200969,734.176112 C36.7263913,734.469058 36.529662,734.682905 36.3299031,734.81766 C36.1301443,734.952415 35.8789361,735.019792 35.5762712,735.019792 C35.1767535,735.019792 34.8044811,734.882109 34.4594431,734.60674 C34.1144051,734.331371 33.9418886,733.988629 33.9418886,733.578505 C33.9418886,733.027766 34.3656132,732.359859 35.2130751,731.574764 C36.0605369,730.789668 36.8353476,729.951855 37.5375303,729.061299 C36.520576,729.178477 35.5217967,729.36889 34.5411622,729.632541 C33.5605278,729.896192 32.9249409,730.028016 32.6343826,730.028016 C32.1622252,730.028016 31.7717933,729.90791 31.4630751,729.667694 C31.1543568,729.427479 31,729.043725 31,728.516422 C31,728.035991 31.1543568,727.663955 31.4630751,727.400303 C31.7717933,727.136652 32.1622252,727.004828 32.6343826,727.004828 C33.0096871,727.004828 33.6119813,727.124934 34.4412833,727.36515 C35.2705853,727.605366 36.3026573,727.795778 37.5375303,727.936392 C36.7384948,726.952093 35.9394713,726.087915 35.1404358,725.343832 C34.3414004,724.599749 33.9418886,723.958207 33.9418886,723.419186 C33.9418886,723.032497 34.1174317,722.695615 34.468523,722.408527 C34.8196143,722.12144 35.18886,721.977899 35.5762712,721.977899 C35.8547229,721.977899 36.1059311,722.048205 36.3299031,722.188819 C36.5538752,722.329433 36.7506045,722.534492 36.9200969,722.804003 C37.065376,723.061795 37.2651319,723.653537 37.5193705,724.579247 C37.773609,725.504956 38.1004823,726.44237 38.5,727.391515 C38.8995177,726.430652 39.2294176,725.48738 39.4897094,724.56167 C39.7500013,723.635961 39.9467306,723.050077 40.0799031,722.804003 C40.2251823,722.557928 40.4158584,722.358728 40.651937,722.206396 C40.8880157,722.054064 41.1452771,721.977899 41.4237288,721.977899 C41.8232465,721.977899 42.1955189,722.115581 42.5405569,722.390951 C42.8855949,722.66632 43.0581114,723.009062 43.0581114,723.419186 C43.0581114,723.958207 42.6797859,724.588032 41.9231235,725.308679 C41.1664611,726.029326 40.3523046,726.905222 39.4806295,727.936392 C40.6912893,727.78406 41.7294146,727.590718 42.5950363,727.356362 C43.4606581,727.122005 44.0508459,727.004828 44.3656174,727.004828 C44.8377748,727.004828 45.2282067,727.136652 45.5369249,727.400303 C45.8456432,727.663955 46,728.035991 46,728.516422 Z" id="*-2" fill="url(#linearGradient-1)" fill-rule="nonzero"></path>
        <polygon id="Triangle" fill="#343D51" points="32 71 32 213 30 213 30 71"></polygon>
    </g>
</svg>