<?xml version="1.0" encoding="UTF-8"?>
<svg width="320px" height="1244px" viewBox="0 0 320 1244" version="1.1" xmlns="http://www.w3.org/2000/svg" xmlns:xlink="http://www.w3.org/1999/xlink">
    <!-- Generator: Sketch 54.1 (76490) - https://sketchapp.com -->
    <title>dieunayxayra</title>
    <desc>Created with Sketch.</desc>
    <g id="dieunayxayra" stroke="none" stroke-width="1" fill="none" fill-rule="evenodd">
        <rect fill="#FFFFFF" x="0" y="0" width="320" height="1244"></rect>
        <rect id="Rectangle-3" fill="#F0F6FA" x="0" y="0" width="320" height="314"></rect>
        <path d="M3.04720534,309 C3.01573507,309.166826 3,309.339903 3,309.519231 C3,310.198721 3.22884537,310.782049 3.68654298,311.269231 C4.14424058,311.756413 4.68408094,312 5.30608025,312 C5.91634372,312 6.45325017,311.759618 6.91681569,311.278846 C7.38038122,310.798075 7.6121605,310.211542 7.6121605,309.519231 C7.6121605,309.339903 7.59622108,309.166826 7.5643421,309 L12.7468253,309 C12.7153551,309.166826 12.69962,309.339903 12.69962,309.519231 C12.69962,310.198721 12.9284654,310.782049 13.386163,311.269231 C13.8438606,311.756413 14.3837009,312 15.0057002,312 C15.6159637,312 16.1528702,311.759618 16.6164357,311.278846 C17.0800012,310.798075 17.3117805,310.211542 17.3117805,309.519231 C17.3117805,309.339903 17.2958411,309.166826 17.2639621,309 L22.4464453,309 C22.414975,309.166826 22.39924,309.339903 22.39924,309.519231 C22.39924,310.198721 22.6280853,310.782049 23.0857829,311.269231 C23.5434805,311.756413 24.0833209,312 24.7053202,312 C25.3273195,312 25.8671599,311.756413 26.3248575,311.269231 C26.7825551,310.782049 27.0114005,310.198721 27.0114005,309.519231 C27.0114005,309.339903 26.9956654,309.166826 26.9641951,309 L32.1460653,309 C32.114595,309.166826 32.09886,309.339903 32.09886,309.519231 C32.09886,310.198721 32.3277053,310.782049 32.7854029,311.269231 C33.2431005,311.756413 33.7829409,312 34.4049402,312 C35.0152037,312 35.5521101,311.759618 36.0156756,311.278846 C36.4792412,310.798075 36.7110205,310.211542 36.7110205,309.519231 C36.7110205,309.339903 36.695081,309.166826 36.6632021,309 L41.8456853,309 C41.814215,309.166826 41.7984799,309.339903 41.7984799,309.519231 C41.7984799,310.198721 42.0273253,310.782049 42.4850229,311.269231 C42.9427205,311.756413 43.4825609,312 44.1045602,312 C44.7148237,312 45.2517301,311.759618 45.7152956,311.278846 C46.1788612,310.798075 46.4106404,310.211542 46.4106404,309.519231 C46.4106404,309.339903 46.394701,309.166826 46.362822,309 L51.5453053,309 C51.513835,309.166826 51.4980999,309.339903 51.4980999,309.519231 C51.4980999,310.198721 51.7269453,310.782049 52.1846429,311.269231 C52.6423405,311.756413 53.1821809,312 53.8041802,312 C54.4261795,312 54.9660198,311.756413 55.4237174,311.269231 C55.8814151,310.782049 56.1102604,310.198721 56.1102604,309.519231 C56.1102604,309.339903 56.0945254,309.166826 56.0630551,309 L61.2449252,309 C61.213455,309.166826 61.1977199,309.339903 61.1977199,309.519231 C61.1977199,310.198721 61.4265653,310.782049 61.8842629,311.269231 C62.3419605,311.756413 62.8818008,312 63.5038002,312 C64.1140636,312 64.6509701,311.759618 65.1145356,311.278846 C65.5781011,310.798075 65.8098804,310.211542 65.8098804,309.519231 C65.8098804,309.339903 65.793941,309.166826 65.762062,309 L70.9445452,309 C70.913075,309.166826 70.8973399,309.339903 70.8973399,309.519231 C70.8973399,310.198721 71.1261853,310.782049 71.5838829,311.269231 C72.0415805,311.756413 72.5814208,312 73.2034201,312 C73.8136836,312 74.3505901,311.759618 74.8141556,311.278846 C75.2777211,310.798075 75.5095004,310.211542 75.5095004,309.519231 C75.5095004,309.339903 75.493561,309.166826 75.461682,309 L80.6441652,309 C80.6126949,309.166826 80.5969599,309.339903 80.5969599,309.519231 C80.5969599,310.198721 80.8258052,310.782049 81.2835029,311.269231 C81.7412005,311.756413 82.2810408,312 82.9030401,312 C83.5250394,312 84.0648798,311.756413 84.5225774,311.269231 C84.980275,310.782049 85.2091204,310.198721 85.2091204,309.519231 C85.2091204,309.339903 85.1933853,309.166826 85.161915,309 L90.3437852,309 C90.3123149,309.166826 90.2965799,309.339903 90.2965799,309.519231 C90.2965799,310.198721 90.5254252,310.782049 90.9831228,311.269231 C91.4408204,311.756413 91.9806608,312 92.6026601,312 C93.2129236,312 93.74983,311.759618 94.2133956,311.278846 C94.6769611,310.798075 94.9087404,310.211542 94.9087404,309.519231 C94.9087404,309.339903 94.8928009,309.166826 94.860922,309 L100.043405,309 C100.011935,309.166826 99.9961998,309.339903 99.9961998,309.519231 C99.9961998,310.198721 100.225045,310.782049 100.682743,311.269231 C101.14044,311.756413 101.680281,312 102.30228,312 C102.912544,312 103.44945,311.759618 103.913016,311.278846 C104.376581,310.798075 104.60836,310.211542 104.60836,309.519231 C104.60836,309.339903 104.592421,309.166826 104.560542,309 L109.743025,309 C109.711555,309.166826 109.69582,309.339903 109.69582,309.519231 C109.69582,310.198721 109.924665,310.782049 110.382363,311.269231 C110.84006,311.756413 111.379901,312 112.0019,312 C112.623899,312 113.16374,311.756413 113.621437,311.269231 C114.079135,310.782049 114.30798,310.198721 114.30798,309.519231 C114.30798,309.339903 114.292245,309.166826 114.260775,309 L119.442645,309 C119.411175,309.166826 119.39544,309.339903 119.39544,309.519231 C119.39544,310.198721 119.624285,310.782049 120.081983,311.269231 C120.53968,311.756413 121.079521,312 121.70152,312 C122.311784,312 122.84869,311.759618 123.312256,311.278846 C123.775821,310.798075 124.0076,310.211542 124.0076,309.519231 C124.0076,309.339903 123.991661,309.166826 123.959782,309 L129.142265,309 C129.110795,309.166826 129.09506,309.339903 129.09506,309.519231 C129.09506,310.198721 129.323905,310.782049 129.781603,311.269231 C130.2393,311.756413 130.779141,312 131.40114,312 C132.011404,312 132.54831,311.759618 133.011875,311.278846 C133.475441,310.798075 133.70722,310.211542 133.70722,309.519231 C133.70722,309.339903 133.691281,309.166826 133.659402,309 L138.841885,309 C138.810415,309.166826 138.79468,309.339903 138.79468,309.519231 C138.79468,310.198721 139.023525,310.782049 139.481223,311.269231 C139.93892,311.756413 140.478761,312 141.10076,312 C141.722759,312 142.2626,311.756413 142.720297,311.269231 C143.177995,310.782049 143.40684,310.198721 143.40684,309.519231 C143.40684,309.339903 143.391105,309.166826 143.359635,309 L148.541505,309 C148.510035,309.166826 148.4943,309.339903 148.4943,309.519231 C148.4943,310.198721 148.723145,310.782049 149.180843,311.269231 C149.63854,311.756413 150.178381,312 150.80038,312 C151.410643,312 151.94755,311.759618 152.411115,311.278846 C152.874681,310.798075 153.10646,310.211542 153.10646,309.519231 C153.10646,309.339903 153.090521,309.166826 153.058642,309 L158.241125,309 C158.209655,309.166826 158.19392,309.339903 158.19392,309.519231 C158.19392,310.198721 158.422765,310.782049 158.880463,311.269231 C159.33816,311.756413 159.878001,312 160.5,312 C161.110263,312 161.64717,311.759618 162.110735,311.278846 C162.574301,310.798075 162.80608,310.211542 162.80608,309.519231 C162.80608,309.339903 162.790141,309.166826 162.758262,309 L167.940745,309 C167.909275,309.166826 167.89354,309.339903 167.89354,309.519231 C167.89354,310.198721 168.122385,310.782049 168.580083,311.269231 C169.03778,311.756413 169.577621,312 170.19962,312 C170.821619,312 171.36146,311.756413 171.819157,311.269231 C172.276855,310.782049 172.5057,310.198721 172.5057,309.519231 C172.5057,309.339903 172.489965,309.166826 172.458495,309 L177.640365,309 C177.608895,309.166826 177.59316,309.339903 177.59316,309.519231 C177.59316,310.198721 177.822005,310.782049 178.279703,311.269231 C178.7374,311.756413 179.277241,312 179.89924,312 C180.509503,312 181.04641,311.759618 181.509975,311.278846 C181.973541,310.798075 182.20532,310.211542 182.20532,309.519231 C182.20532,309.339903 182.189381,309.166826 182.157502,309 L187.339985,309 C187.308515,309.166826 187.29278,309.339903 187.29278,309.519231 C187.29278,310.198721 187.521625,310.782049 187.979323,311.269231 C188.43702,311.756413 188.976861,312 189.59886,312 C190.209123,312 190.74603,311.759618 191.209595,311.278846 C191.673161,310.798075 191.90494,310.211542 191.90494,309.519231 C191.90494,309.339903 191.889001,309.166826 191.857122,309 L197.039605,309 C197.008135,309.166826 196.9924,309.339903 196.9924,309.519231 C196.9924,310.198721 197.221245,310.782049 197.678943,311.269231 C198.13664,311.756413 198.676481,312 199.29848,312 C199.920479,312 200.46032,311.756413 200.918017,311.269231 C201.375715,310.782049 201.60456,310.198721 201.60456,309.519231 C201.60456,309.339903 201.588825,309.166826 201.557355,309 L206.739225,309 C206.707755,309.166826 206.69202,309.339903 206.69202,309.519231 C206.69202,310.198721 206.920865,310.782049 207.378563,311.269231 C207.83626,311.756413 208.376101,312 208.9981,312 C209.608363,312 210.14527,311.759618 210.608835,311.278846 C211.072401,310.798075 211.30418,310.211542 211.30418,309.519231 C211.30418,309.339903 211.288241,309.166826 211.256362,309 L216.438845,309 C216.407375,309.166826 216.39164,309.339903 216.39164,309.519231 C216.39164,310.198721 216.620485,310.782049 217.078183,311.269231 C217.53588,311.756413 218.075721,312 218.69772,312 C219.307983,312 219.84489,311.759618 220.308455,311.278846 C220.772021,310.798075 221.0038,310.211542 221.0038,309.519231 C221.0038,309.339903 220.987861,309.166826 220.955982,309 L226.138465,309 C226.106995,309.166826 226.09126,309.339903 226.09126,309.519231 C226.09126,310.198721 226.320105,310.782049 226.777803,311.269231 C227.2355,311.756413 227.775341,312 228.39734,312 C229.019339,312 229.55918,311.756413 230.016877,311.269231 C230.474575,310.782049 230.70342,310.198721 230.70342,309.519231 C230.70342,309.339903 230.687685,309.166826 230.656215,309 L235.838085,309 C235.806615,309.166826 235.79088,309.339903 235.79088,309.519231 C235.79088,310.198721 236.019725,310.782049 236.477423,311.269231 C236.93512,311.756413 237.474961,312 238.09696,312 C238.707223,312 239.24413,311.759618 239.707695,311.278846 C240.171261,310.798075 240.40304,310.211542 240.40304,309.519231 C240.40304,309.339903 240.387101,309.166826 240.355222,309 L245.537705,309 C245.506235,309.166826 245.4905,309.339903 245.4905,309.519231 C245.4905,310.198721 245.719345,310.782049 246.177043,311.269231 C246.63474,311.756413 247.174581,312 247.79658,312 C248.406843,312 248.94375,311.759618 249.407315,311.278846 C249.870881,310.798075 250.10266,310.211542 250.10266,309.519231 C250.10266,309.339903 250.086721,309.166826 250.054842,309 L255.237325,309 C255.205855,309.166826 255.19012,309.339903 255.19012,309.519231 C255.19012,310.198721 255.418965,310.782049 255.876663,311.269231 C256.33436,311.756413 256.874201,312 257.4962,312 C258.118199,312 258.65804,311.756413 259.115737,311.269231 C259.573435,310.782049 259.80228,310.198721 259.80228,309.519231 C259.80228,309.339903 259.786545,309.166826 259.755075,309 L264.936945,309 C264.905475,309.166826 264.88974,309.339903 264.88974,309.519231 C264.88974,310.198721 265.118585,310.782049 265.576283,311.269231 C266.03398,311.756413 266.573821,312 267.19582,312 C267.806083,312 268.34299,311.759618 268.806555,311.278846 C269.270121,310.798075 269.5019,310.211542 269.5019,309.519231 C269.5019,309.339903 269.485961,309.166826 269.454082,309 L274.636565,309 C274.605095,309.166826 274.58936,309.339903 274.58936,309.519231 C274.58936,310.198721 274.818205,310.782049 275.275903,311.269231 C275.7336,311.756413 276.273441,312 276.89544,312 C277.505703,312 278.04261,311.759618 278.506175,311.278846 C278.969741,310.798075 279.20152,310.211542 279.20152,309.519231 C279.20152,309.339903 279.185581,309.166826 279.153702,309 L284.336185,309 C284.304715,309.166826 284.28898,309.339903 284.28898,309.519231 C284.28898,310.198721 284.517825,310.782049 284.975523,311.269231 C285.43322,311.756413 285.97306,312 286.59506,312 C287.217059,312 287.756899,311.756413 288.214597,311.269231 C288.672295,310.782049 288.90114,310.198721 288.90114,309.519231 C288.90114,309.339903 288.885405,309.166826 288.853935,309 L294.035805,309 C294.004335,309.166826 293.9886,309.339903 293.9886,309.519231 C293.9886,310.198721 294.217445,310.782049 294.675143,311.269231 C295.13284,311.756413 295.67268,312 296.29468,312 C296.904943,312 297.44185,311.759618 297.905415,311.278846 C298.368981,310.798075 298.60076,310.211542 298.60076,309.519231 C298.60076,309.339903 298.584821,309.166826 298.552942,309 L303.735425,309 C303.703955,309.166826 303.68822,309.339903 303.68822,309.519231 C303.68822,310.198721 303.917065,310.782049 304.374762,311.269231 C304.83246,311.756413 305.3723,312 305.9943,312 C306.604563,312 307.14147,311.759618 307.605035,311.278846 C308.068601,310.798075 308.30038,310.211542 308.30038,309.519231 C308.30038,309.339903 308.284441,309.166826 308.252562,309 L313.435045,309 C313.403575,309.166826 313.387839,309.339903 313.387839,309.519231 C313.387839,310.198721 313.616685,310.782049 314.074382,311.269231 C314.53208,311.756413 315.07192,312 315.69392,312 C316.315919,312 316.855759,311.756413 317.313457,311.269231 C317.771155,310.782049 318,310.198721 318,309.519231 C318,309.339903 317.984265,309.166826 317.952795,309 L320,309 L320,318 L0,318 L0,309 L3.04720534,309 Z" id="Rectangle-2" fill="#FFFFFF"></path>
        <text id="—-Điều-này-xảy-ra-nh" font-family="Georgia-Italic, Georgia" font-size="14" font-style="italic" font-weight="normal" line-spacing="22" fill="#5D6A80">
            <tspan x="30" y="469">— Điều này xảy ra như thế nào?</tspan>
        </text>
        <text id="Chanchan-giúp-bạn-gặ" font-family="SFCompactDisplay-Semibold, SF Compact Display" font-size="26" font-weight="500" line-spacing="26" letter-spacing="-1.56" fill="#343D51">
            <tspan x="30" y="383">Chanchan giúp bạn gặp </tspan>
            <tspan x="30" y="409">được người ấy trong thời </tspan>
            <tspan x="30" y="435">gian ngắn nhất.</tspan>
        </text>
        <text id="Bạn-không-cần-cảm-th" font-family="SFCompactDisplay-Regular, SF Compact Display" font-size="15" font-weight="normal" line-spacing="22" fill="#4D5B72">
            <tspan x="50" y="558">Bạn không cần cảm thấy mình phải </tspan>
            <tspan x="50" y="580">tốt hơn để được yêu &amp; tin tưởng.</tspan>
        </text>
        <text id="—" font-family="Georgia-Italic, Georgia" font-size="14" font-style="italic" font-weight="normal" line-spacing="22" fill="#4D5B72">
            <tspan x="30" y="557">—</tspan>
        </text>
        <text id="Chanchan-sẽ-tự-tìm-r" font-family="Georgia-Italic, Georgia" font-size="14" font-style="italic" font-weight="normal" line-spacing="22" fill="#5D6A80">
            <tspan x="50" y="649">Chanchan sẽ tự tìm ra những Triển </tspan>
            <tspan x="50" y="671">vọng dựa trên khả năng kết nối với </tspan>
            <tspan x="50" y="693">nhau bằng con người thực giữa hai </tspan>
            <tspan x="50" y="715">người.</tspan>
        </text>
        <text id="Bạn-đơn-giản-là-chín" font-family="SFCompactDisplay-Semibold, SF Compact Display" font-size="16" font-weight="500" line-spacing="20" letter-spacing="-0.479999989" fill="#343D51">
            <tspan x="50" y="619">Bạn đơn giản là chính mình</tspan>
        </text>
        <rect id="quote" fill="#343D51" x="30" y="607" width="2" height="110"></rect>
        <text id="Giản-đơn" font-family="SFCompactDisplay-Semibold, SF Compact Display" font-size="20" font-weight="500" line-spacing="22" letter-spacing="-1" fill="#343D51">
            <tspan x="53" y="529">Giản đơn</tspan>
        </text>
        <text id="i/." font-family="Georgia-Italic, Georgia" font-size="18" font-style="italic" font-weight="normal" line-spacing="20" letter-spacing="-0.720000029" fill="#343D51">
            <tspan x="30" y="529">i/.</tspan>
            <tspan x="46.4816015" y="529"> </tspan>
        </text>
        <text id="Tự-nhiên" font-family="SFCompactDisplay-Semibold, SF Compact Display" font-size="20" font-weight="500" line-spacing="22" letter-spacing="-1" fill="#343D51">
            <tspan x="53" y="775">Tự nhiên</tspan>
        </text>
        <text id="i/." font-family="Georgia-Italic, Georgia" font-size="18" font-style="italic" font-weight="normal" line-spacing="20" letter-spacing="-0.720000029" fill="#343D51">
            <tspan x="30" y="775">i/.</tspan>
            <tspan x="46.4816015" y="775"> </tspan>
        </text>
        <text id="Bạn-không-cần-tỏ-ra" font-family="SFCompactDisplay-Regular, SF Compact Display" font-size="15" font-weight="normal" line-spacing="22" fill="#4D5B72">
            <tspan x="50" y="804">Bạn không cần tỏ ra có sức hút để </tspan>
            <tspan x="50" y="826">hẹn hò với đối phương.</tspan>
        </text>
        <text id="—" font-family="Georgia-Italic, Georgia" font-size="14" font-style="italic" font-weight="normal" line-spacing="22" fill="#4D5B72">
            <tspan x="30" y="803">—</tspan>
        </text>
        <text id="Không-mất-thời-gian" font-family="SFCompactDisplay-Regular, SF Compact Display" font-size="15" font-weight="normal" line-spacing="22" fill="#4D5B72">
            <tspan x="50" y="994">Không mất thời gian đơn phương </tspan>
            <tspan x="50" y="1016">theo đuổi một ai đó.</tspan>
        </text>
        <text id="—" font-family="Georgia-Italic, Georgia" font-size="14" font-style="italic" font-weight="normal" line-spacing="22" fill="#4D5B72">
            <tspan x="30" y="993">—</tspan>
        </text>
        <text id="Chanchan-“ngầm”-kết" font-family="Georgia-Italic, Georgia" font-size="14" font-style="italic" font-weight="normal" line-spacing="22" fill="#5D6A80">
            <tspan x="50" y="863">Chanchan “ngầm” kết nối bạn &amp; </tspan>
            <tspan x="50" y="885">những Triển vọng gặp gỡ tình cờ qua </tspan>
            <tspan x="50" y="907">các Sự kiện.</tspan>
        </text>
        <rect id="quote" fill="#343D51" x="30" y="853" width="2" height="56"></rect>
        <text id="Logic-ưu-tiên-triển" font-family="SFCompactDisplay-Regular, SF Compact Display" font-size="15" font-weight="normal" line-spacing="22">
            <tspan x="50" y="1050" fill="#4D5B72" text-decoration="underline">Logic ưu tiên triển vọng</tspan>
            <tspan x="202.629395" y="1050" fill="#FFFFFF"> </tspan>
            <tspan x="205.632324" y="1050" fill="#4D5B72">ngầm tăng </tspan>
            <tspan x="50" y="1072" fill="#4D5B72">tốc những lần tình cờ gặp lại của bạn </tspan>
            <tspan x="50" y="1094" fill="#4D5B72">&amp; đối phương khi triển vọng giữa hai </tspan>
            <tspan x="50" y="1116" fill="#4D5B72">người ngày càng bộc lộ rõ ràng.</tspan>
        </text>
        <text id="Một-cách-tự-nhiên…-c" font-family="Georgia-Italic, Georgia" font-size="14" font-style="italic" font-weight="normal" line-spacing="22" fill="#5D6A80">
            <tspan x="50" y="1149">Một cách tự nhiên… càng “ngầm” có </tspan>
            <tspan x="50" y="1171">nhiều triển vọng với ai, bạn &amp; người </tspan>
            <tspan x="50" y="1193">ấy càng “va” phải nhau càng nhiều </tspan>
            <tspan x="50" y="1215">qua các Sự kiện. </tspan>
        </text>
        <text id="iii/." font-family="Georgia-Italic, Georgia" font-size="20" font-style="italic" font-weight="normal" line-spacing="20" letter-spacing="-1" fill="#343D51">
            <tspan x="30" y="967">iii/.</tspan>
            <tspan x="57.6074219" y="967"> </tspan>
        </text>
        <text id="Tốc-độ" font-family="SFCompactDisplay-Semibold, SF Compact Display" font-size="20" font-weight="500" line-spacing="20" letter-spacing="-1.2" fill="#343D51">
            <tspan x="63" y="967">Tốc độ</tspan>
        </text>
        <rect id="quote" fill="#343D51" x="30" y="1039" width="2" height="178"></rect>
        <text id="Và-tại-sự-kiện-này" font-family="SFCompactDisplay-Semibold, SF Compact Display" font-size="16" font-weight="500" line-spacing="18" letter-spacing="-0.479999989" fill="#343D51">
            <tspan x="52" y="139">Và tại sự kiện này</tspan>
        </text>
        <text id="Bạn-sẽ-gặp-đối-phươn" font-family="Georgia-Italic, Georgia" font-size="14" font-style="italic" font-weight="normal" line-spacing="22" fill="#5D6A80">
            <tspan x="52" y="167">Bạn sẽ gặp đối phương có nhiều triển </tspan>
            <tspan x="52" y="189">vọng nhất với mình ở đó. </tspan>
        </text>
        <text id="Điều-này-là-tình-cờ." font-family="Georgia-Italic, Georgia" font-size="14" font-style="italic" font-weight="normal" line-spacing="22" fill="#5D6A80">
            <tspan x="52" y="223">Điều này là tình cờ. Cả hai không biết </tspan>
            <tspan x="52" y="245">đối phương là ai cho đến khi cùng có </tspan>
            <tspan x="52" y="267">mặt ở Sự kiện.</tspan>
        </text>
        <polygon id="Triangle" fill="#343D51" points="32 127 32 269 30 269 30 127"></polygon>
        <text id="Công-nghệ-của-Chanch" font-family="SFCompactDisplay-Regular, SF Compact Display" font-size="15" font-weight="normal" line-spacing="22">
            <tspan x="30" y="34" fill="#4D5B72">Công nghệ của Chanchan sẽ so sánh </tspan>
            <tspan x="30" y="56" fill="#4D5B72">triển vọng của bạn với những Thành </tspan>
            <tspan x="30" y="78" fill="#4D5B72">viên khác để </tspan>
            <tspan x="113.642578" y="78" fill="#4D5B72" text-decoration="underline">chọn ra một Sự kiện</tspan>
            <tspan x="242.072754" y="78" fill="#FFFFFF"> </tspan>
            <tspan x="245.075684" y="78" fill="#4D5B72">trong </tspan>
            <tspan x="30" y="100" fill="#4D5B72">những sự kiện bạn muốn đến.</tspan>
        </text>
    </g>
</svg>