<?xml version="1.0" encoding="UTF-8"?>
<svg width="320px" height="1304px" viewBox="0 0 320 1304" version="1.1" xmlns="http://www.w3.org/2000/svg" xmlns:xlink="http://www.w3.org/1999/xlink">
    <!-- Generator: Sketch 54.1 (76490) - https://sketchapp.com -->
    <title>dieunayxayra_bg</title>
    <desc>Created with Sketch.</desc>
    <defs>
        <linearGradient x1="0%" y1="0%" x2="0%" y2="98.1290247%" id="linearGradient-1">
            <stop stop-color="#F50057" offset="0%"></stop>
            <stop stop-color="#D500F9" offset="30.2591143%"></stop>
            <stop stop-color="#651FFF" offset="74.1487232%"></stop>
            <stop stop-color="#3D5AFE" offset="100%"></stop>
        </linearGradient>
    </defs>
    <g id="dieunayxayra_bg" stroke="none" stroke-width="1" fill="none" fill-rule="evenodd">
        <rect fill="#FFFFFF" x="0" y="0" width="320" height="1304"></rect>
        <rect id="Rectangle" fill="#E1F5FE" x="0" y="-2" width="320" height="304"></rect>
        <path d="M3.04720534,297 C3.01573507,297.166826 3,297.339903 3,297.519231 C3,298.198721 3.22884537,298.782049 3.68654298,299.269231 C4.14424058,299.756413 4.68408094,300 5.30608025,300 C5.91634372,300 6.45325017,299.759618 6.91681569,299.278846 C7.38038122,298.798075 7.6121605,298.211542 7.6121605,297.519231 C7.6121605,297.339903 7.59622108,297.166826 7.5643421,297 L12.7468253,297 C12.7153551,297.166826 12.69962,297.339903 12.69962,297.519231 C12.69962,298.198721 12.9284654,298.782049 13.386163,299.269231 C13.8438606,299.756413 14.3837009,300 15.0057002,300 C15.6159637,300 16.1528702,299.759618 16.6164357,299.278846 C17.0800012,298.798075 17.3117805,298.211542 17.3117805,297.519231 C17.3117805,297.339903 17.2958411,297.166826 17.2639621,297 L22.4464453,297 C22.414975,297.166826 22.39924,297.339903 22.39924,297.519231 C22.39924,298.198721 22.6280853,298.782049 23.0857829,299.269231 C23.5434805,299.756413 24.0833209,300 24.7053202,300 C25.3273195,300 25.8671599,299.756413 26.3248575,299.269231 C26.7825551,298.782049 27.0114005,298.198721 27.0114005,297.519231 C27.0114005,297.339903 26.9956654,297.166826 26.9641951,297 L32.1460653,297 C32.114595,297.166826 32.09886,297.339903 32.09886,297.519231 C32.09886,298.198721 32.3277053,298.782049 32.7854029,299.269231 C33.2431005,299.756413 33.7829409,300 34.4049402,300 C35.0152037,300 35.5521101,299.759618 36.0156756,299.278846 C36.4792412,298.798075 36.7110205,298.211542 36.7110205,297.519231 C36.7110205,297.339903 36.695081,297.166826 36.6632021,297 L41.8456853,297 C41.814215,297.166826 41.7984799,297.339903 41.7984799,297.519231 C41.7984799,298.198721 42.0273253,298.782049 42.4850229,299.269231 C42.9427205,299.756413 43.4825609,300 44.1045602,300 C44.7148237,300 45.2517301,299.759618 45.7152956,299.278846 C46.1788612,298.798075 46.4106404,298.211542 46.4106404,297.519231 C46.4106404,297.339903 46.394701,297.166826 46.362822,297 L51.5453053,297 C51.513835,297.166826 51.4980999,297.339903 51.4980999,297.519231 C51.4980999,298.198721 51.7269453,298.782049 52.1846429,299.269231 C52.6423405,299.756413 53.1821809,300 53.8041802,300 C54.4261795,300 54.9660198,299.756413 55.4237174,299.269231 C55.8814151,298.782049 56.1102604,298.198721 56.1102604,297.519231 C56.1102604,297.339903 56.0945254,297.166826 56.0630551,297 L61.2449252,297 C61.213455,297.166826 61.1977199,297.339903 61.1977199,297.519231 C61.1977199,298.198721 61.4265653,298.782049 61.8842629,299.269231 C62.3419605,299.756413 62.8818008,300 63.5038002,300 C64.1140636,300 64.6509701,299.759618 65.1145356,299.278846 C65.5781011,298.798075 65.8098804,298.211542 65.8098804,297.519231 C65.8098804,297.339903 65.793941,297.166826 65.762062,297 L70.9445452,297 C70.913075,297.166826 70.8973399,297.339903 70.8973399,297.519231 C70.8973399,298.198721 71.1261853,298.782049 71.5838829,299.269231 C72.0415805,299.756413 72.5814208,300 73.2034201,300 C73.8136836,300 74.3505901,299.759618 74.8141556,299.278846 C75.2777211,298.798075 75.5095004,298.211542 75.5095004,297.519231 C75.5095004,297.339903 75.493561,297.166826 75.461682,297 L80.6441652,297 C80.6126949,297.166826 80.5969599,297.339903 80.5969599,297.519231 C80.5969599,298.198721 80.8258052,298.782049 81.2835029,299.269231 C81.7412005,299.756413 82.2810408,300 82.9030401,300 C83.5250394,300 84.0648798,299.756413 84.5225774,299.269231 C84.980275,298.782049 85.2091204,298.198721 85.2091204,297.519231 C85.2091204,297.339903 85.1933853,297.166826 85.161915,297 L90.3437852,297 C90.3123149,297.166826 90.2965799,297.339903 90.2965799,297.519231 C90.2965799,298.198721 90.5254252,298.782049 90.9831228,299.269231 C91.4408204,299.756413 91.9806608,300 92.6026601,300 C93.2129236,300 93.74983,299.759618 94.2133956,299.278846 C94.6769611,298.798075 94.9087404,298.211542 94.9087404,297.519231 C94.9087404,297.339903 94.8928009,297.166826 94.860922,297 L100.043405,297 C100.011935,297.166826 99.9961998,297.339903 99.9961998,297.519231 C99.9961998,298.198721 100.225045,298.782049 100.682743,299.269231 C101.14044,299.756413 101.680281,300 102.30228,300 C102.912544,300 103.44945,299.759618 103.913016,299.278846 C104.376581,298.798075 104.60836,298.211542 104.60836,297.519231 C104.60836,297.339903 104.592421,297.166826 104.560542,297 L109.743025,297 C109.711555,297.166826 109.69582,297.339903 109.69582,297.519231 C109.69582,298.198721 109.924665,298.782049 110.382363,299.269231 C110.84006,299.756413 111.379901,300 112.0019,300 C112.623899,300 113.16374,299.756413 113.621437,299.269231 C114.079135,298.782049 114.30798,298.198721 114.30798,297.519231 C114.30798,297.339903 114.292245,297.166826 114.260775,297 L119.442645,297 C119.411175,297.166826 119.39544,297.339903 119.39544,297.519231 C119.39544,298.198721 119.624285,298.782049 120.081983,299.269231 C120.53968,299.756413 121.079521,300 121.70152,300 C122.311784,300 122.84869,299.759618 123.312256,299.278846 C123.775821,298.798075 124.0076,298.211542 124.0076,297.519231 C124.0076,297.339903 123.991661,297.166826 123.959782,297 L129.142265,297 C129.110795,297.166826 129.09506,297.339903 129.09506,297.519231 C129.09506,298.198721 129.323905,298.782049 129.781603,299.269231 C130.2393,299.756413 130.779141,300 131.40114,300 C132.011404,300 132.54831,299.759618 133.011875,299.278846 C133.475441,298.798075 133.70722,298.211542 133.70722,297.519231 C133.70722,297.339903 133.691281,297.166826 133.659402,297 L138.841885,297 C138.810415,297.166826 138.79468,297.339903 138.79468,297.519231 C138.79468,298.198721 139.023525,298.782049 139.481223,299.269231 C139.93892,299.756413 140.478761,300 141.10076,300 C141.722759,300 142.2626,299.756413 142.720297,299.269231 C143.177995,298.782049 143.40684,298.198721 143.40684,297.519231 C143.40684,297.339903 143.391105,297.166826 143.359635,297 L148.541505,297 C148.510035,297.166826 148.4943,297.339903 148.4943,297.519231 C148.4943,298.198721 148.723145,298.782049 149.180843,299.269231 C149.63854,299.756413 150.178381,300 150.80038,300 C151.410643,300 151.94755,299.759618 152.411115,299.278846 C152.874681,298.798075 153.10646,298.211542 153.10646,297.519231 C153.10646,297.339903 153.090521,297.166826 153.058642,297 L158.241125,297 C158.209655,297.166826 158.19392,297.339903 158.19392,297.519231 C158.19392,298.198721 158.422765,298.782049 158.880463,299.269231 C159.33816,299.756413 159.878001,300 160.5,300 C161.110263,300 161.64717,299.759618 162.110735,299.278846 C162.574301,298.798075 162.80608,298.211542 162.80608,297.519231 C162.80608,297.339903 162.790141,297.166826 162.758262,297 L167.940745,297 C167.909275,297.166826 167.89354,297.339903 167.89354,297.519231 C167.89354,298.198721 168.122385,298.782049 168.580083,299.269231 C169.03778,299.756413 169.577621,300 170.19962,300 C170.821619,300 171.36146,299.756413 171.819157,299.269231 C172.276855,298.782049 172.5057,298.198721 172.5057,297.519231 C172.5057,297.339903 172.489965,297.166826 172.458495,297 L177.640365,297 C177.608895,297.166826 177.59316,297.339903 177.59316,297.519231 C177.59316,298.198721 177.822005,298.782049 178.279703,299.269231 C178.7374,299.756413 179.277241,300 179.89924,300 C180.509503,300 181.04641,299.759618 181.509975,299.278846 C181.973541,298.798075 182.20532,298.211542 182.20532,297.519231 C182.20532,297.339903 182.189381,297.166826 182.157502,297 L187.339985,297 C187.308515,297.166826 187.29278,297.339903 187.29278,297.519231 C187.29278,298.198721 187.521625,298.782049 187.979323,299.269231 C188.43702,299.756413 188.976861,300 189.59886,300 C190.209123,300 190.74603,299.759618 191.209595,299.278846 C191.673161,298.798075 191.90494,298.211542 191.90494,297.519231 C191.90494,297.339903 191.889001,297.166826 191.857122,297 L197.039605,297 C197.008135,297.166826 196.9924,297.339903 196.9924,297.519231 C196.9924,298.198721 197.221245,298.782049 197.678943,299.269231 C198.13664,299.756413 198.676481,300 199.29848,300 C199.920479,300 200.46032,299.756413 200.918017,299.269231 C201.375715,298.782049 201.60456,298.198721 201.60456,297.519231 C201.60456,297.339903 201.588825,297.166826 201.557355,297 L206.739225,297 C206.707755,297.166826 206.69202,297.339903 206.69202,297.519231 C206.69202,298.198721 206.920865,298.782049 207.378563,299.269231 C207.83626,299.756413 208.376101,300 208.9981,300 C209.608363,300 210.14527,299.759618 210.608835,299.278846 C211.072401,298.798075 211.30418,298.211542 211.30418,297.519231 C211.30418,297.339903 211.288241,297.166826 211.256362,297 L216.438845,297 C216.407375,297.166826 216.39164,297.339903 216.39164,297.519231 C216.39164,298.198721 216.620485,298.782049 217.078183,299.269231 C217.53588,299.756413 218.075721,300 218.69772,300 C219.307983,300 219.84489,299.759618 220.308455,299.278846 C220.772021,298.798075 221.0038,298.211542 221.0038,297.519231 C221.0038,297.339903 220.987861,297.166826 220.955982,297 L226.138465,297 C226.106995,297.166826 226.09126,297.339903 226.09126,297.519231 C226.09126,298.198721 226.320105,298.782049 226.777803,299.269231 C227.2355,299.756413 227.775341,300 228.39734,300 C229.019339,300 229.55918,299.756413 230.016877,299.269231 C230.474575,298.782049 230.70342,298.198721 230.70342,297.519231 C230.70342,297.339903 230.687685,297.166826 230.656215,297 L235.838085,297 C235.806615,297.166826 235.79088,297.339903 235.79088,297.519231 C235.79088,298.198721 236.019725,298.782049 236.477423,299.269231 C236.93512,299.756413 237.474961,300 238.09696,300 C238.707223,300 239.24413,299.759618 239.707695,299.278846 C240.171261,298.798075 240.40304,298.211542 240.40304,297.519231 C240.40304,297.339903 240.387101,297.166826 240.355222,297 L245.537705,297 C245.506235,297.166826 245.4905,297.339903 245.4905,297.519231 C245.4905,298.198721 245.719345,298.782049 246.177043,299.269231 C246.63474,299.756413 247.174581,300 247.79658,300 C248.406843,300 248.94375,299.759618 249.407315,299.278846 C249.870881,298.798075 250.10266,298.211542 250.10266,297.519231 C250.10266,297.339903 250.086721,297.166826 250.054842,297 L255.237325,297 C255.205855,297.166826 255.19012,297.339903 255.19012,297.519231 C255.19012,298.198721 255.418965,298.782049 255.876663,299.269231 C256.33436,299.756413 256.874201,300 257.4962,300 C258.118199,300 258.65804,299.756413 259.115737,299.269231 C259.573435,298.782049 259.80228,298.198721 259.80228,297.519231 C259.80228,297.339903 259.786545,297.166826 259.755075,297 L264.936945,297 C264.905475,297.166826 264.88974,297.339903 264.88974,297.519231 C264.88974,298.198721 265.118585,298.782049 265.576283,299.269231 C266.03398,299.756413 266.573821,300 267.19582,300 C267.806083,300 268.34299,299.759618 268.806555,299.278846 C269.270121,298.798075 269.5019,298.211542 269.5019,297.519231 C269.5019,297.339903 269.485961,297.166826 269.454082,297 L274.636565,297 C274.605095,297.166826 274.58936,297.339903 274.58936,297.519231 C274.58936,298.198721 274.818205,298.782049 275.275903,299.269231 C275.7336,299.756413 276.273441,300 276.89544,300 C277.505703,300 278.04261,299.759618 278.506175,299.278846 C278.969741,298.798075 279.20152,298.211542 279.20152,297.519231 C279.20152,297.339903 279.185581,297.166826 279.153702,297 L284.336185,297 C284.304715,297.166826 284.28898,297.339903 284.28898,297.519231 C284.28898,298.198721 284.517825,298.782049 284.975523,299.269231 C285.43322,299.756413 285.97306,300 286.59506,300 C287.217059,300 287.756899,299.756413 288.214597,299.269231 C288.672295,298.782049 288.90114,298.198721 288.90114,297.519231 C288.90114,297.339903 288.885405,297.166826 288.853935,297 L294.035805,297 C294.004335,297.166826 293.9886,297.339903 293.9886,297.519231 C293.9886,298.198721 294.217445,298.782049 294.675143,299.269231 C295.13284,299.756413 295.67268,300 296.29468,300 C296.904943,300 297.44185,299.759618 297.905415,299.278846 C298.368981,298.798075 298.60076,298.211542 298.60076,297.519231 C298.60076,297.339903 298.584821,297.166826 298.552942,297 L303.735425,297 C303.703955,297.166826 303.68822,297.339903 303.68822,297.519231 C303.68822,298.198721 303.917065,298.782049 304.374762,299.269231 C304.83246,299.756413 305.3723,300 305.9943,300 C306.604563,300 307.14147,299.759618 307.605035,299.278846 C308.068601,298.798075 308.30038,298.211542 308.30038,297.519231 C308.30038,297.339903 308.284441,297.166826 308.252562,297 L313.435045,297 C313.403575,297.166826 313.387839,297.339903 313.387839,297.519231 C313.387839,298.198721 313.616685,298.782049 314.074382,299.269231 C314.53208,299.756413 315.07192,300 315.69392,300 C316.315919,300 316.855759,299.756413 317.313457,299.269231 C317.771155,298.782049 318,298.198721 318,297.519231 C318,297.339903 317.984265,297.166826 317.952795,297 L320,297 L320,306 L0,306 L0,297 L3.04720534,297 Z" id="Rectangle-2" fill="#FFFFFF"></path>
        <path d="M45.9433594,510.962891 C45.9433594,511.490237 45.7939468,511.874022 45.4951172,512.114258 C45.1962876,512.354493 44.8183617,512.474609 44.3613281,512.474609 C44.0683579,512.474609 43.4619187,512.345704 42.5419922,512.087891 C41.6220657,511.830077 40.6464895,511.636719 39.6152344,511.507812 C40.2949253,512.398442 41.0449178,513.236324 41.8652344,514.021484 C42.685551,514.806645 43.0957031,515.474607 43.0957031,516.025391 C43.0957031,516.412111 42.9257829,516.749022 42.5859375,517.036133 C42.2460921,517.323244 41.8886737,517.466797 41.5136719,517.466797 C41.2558581,517.466797 41.0156261,517.393555 40.7929688,517.24707 C40.5703114,517.100585 40.3769539,516.892579 40.2128906,516.623047 C40.0722649,516.365233 39.8818371,515.779301 39.6416016,514.865234 C39.401366,513.951167 39.0820332,513.013677 38.6835938,512.052734 C38.2968731,512.966801 37.9746107,513.907222 37.7167969,514.874023 C37.4589831,515.840825 37.271485,516.423827 37.1542969,516.623047 C36.9667959,516.916017 36.7763682,517.129882 36.5830078,517.264648 C36.3896475,517.399415 36.1464858,517.466797 35.8535156,517.466797 C35.4667949,517.466797 35.106447,517.329103 34.7724609,517.053711 C34.4384749,516.778319 34.2714844,516.435549 34.2714844,516.025391 C34.2714844,515.474607 34.6816365,514.806645 35.5019531,514.021484 C36.3222697,513.236324 37.0722622,512.398442 37.7519531,511.507812 C36.7675732,511.625001 35.800786,511.815428 34.8515625,512.079102 C33.902339,512.342775 33.2871108,512.474609 33.0058594,512.474609 C32.5488258,512.474609 32.1708999,512.354493 31.8720703,512.114258 C31.5732407,511.874022 31.4238281,511.490237 31.4238281,510.962891 C31.4238281,510.482419 31.5732407,510.110353 31.8720703,509.84668 C32.1708999,509.583006 32.5488258,509.451172 33.0058594,509.451172 C33.3691424,509.451172 33.9521444,509.571288 34.7548828,509.811523 C35.5576212,510.051759 36.5566346,510.242187 37.7519531,510.382812 C36.9785118,509.398433 36.205082,508.534183 35.4316406,507.790039 C34.6581993,507.045895 34.2714844,506.4043 34.2714844,505.865234 C34.2714844,505.478514 34.4414046,505.141603 34.78125,504.854492 C35.1210954,504.567381 35.4785137,504.423828 35.8535156,504.423828 C36.1230482,504.423828 36.3662099,504.49414 36.5830078,504.634766 C36.7998058,504.775391 36.9902336,504.980467 37.1542969,505.25 C37.2949226,505.507814 37.48828,506.099605 37.734375,507.025391 C37.98047,507.951177 38.2968731,508.888667 38.6835938,509.837891 C39.0703144,508.876948 39.3896472,507.933598 39.6416016,507.007812 C39.8935559,506.082027 40.0839837,505.496095 40.2128906,505.25 C40.3535163,505.003905 40.5380848,504.804688 40.7666016,504.652344 C40.9951183,504.499999 41.2441393,504.423828 41.5136719,504.423828 C41.9003926,504.423828 42.2607405,504.561522 42.5947266,504.836914 C42.9287126,505.112306 43.0957031,505.455076 43.0957031,505.865234 C43.0957031,506.4043 42.7294958,507.034176 41.9970703,507.754883 C41.2646448,508.47559 40.4765667,509.351557 39.6328125,510.382812 C40.8046934,510.230468 41.8095661,510.037111 42.6474609,509.802734 C43.4853558,509.568358 44.0566391,509.451172 44.3613281,509.451172 C44.8183617,509.451172 45.1962876,509.583006 45.4951172,509.84668 C45.7939468,510.110353 45.9433594,510.482419 45.9433594,510.962891 Z M45.9433594,1018.96289 C45.9433594,1019.49024 45.7939468,1019.87402 45.4951172,1020.11426 C45.1962876,1020.35449 44.8183617,1020.47461 44.3613281,1020.47461 C44.0683579,1020.47461 43.4619187,1020.3457 42.5419922,1020.08789 C41.6220657,1019.83008 40.6464895,1019.63672 39.6152344,1019.50781 C40.2949253,1020.39844 41.0449178,1021.23632 41.8652344,1022.02148 C42.685551,1022.80664 43.0957031,1023.47461 43.0957031,1024.02539 C43.0957031,1024.41211 42.9257829,1024.74902 42.5859375,1025.03613 C42.2460921,1025.32324 41.8886737,1025.4668 41.5136719,1025.4668 C41.2558581,1025.4668 41.0156261,1025.39356 40.7929688,1025.24707 C40.5703114,1025.10059 40.3769539,1024.89258 40.2128906,1024.62305 C40.0722649,1024.36523 39.8818371,1023.7793 39.6416016,1022.86523 C39.401366,1021.95117 39.0820332,1021.01368 38.6835938,1020.05273 C38.2968731,1020.9668 37.9746107,1021.90722 37.7167969,1022.87402 C37.4589831,1023.84083 37.271485,1024.42383 37.1542969,1024.62305 C36.9667959,1024.91602 36.7763682,1025.12988 36.5830078,1025.26465 C36.3896475,1025.39941 36.1464858,1025.4668 35.8535156,1025.4668 C35.4667949,1025.4668 35.106447,1025.3291 34.7724609,1025.05371 C34.4384749,1024.77832 34.2714844,1024.43555 34.2714844,1024.02539 C34.2714844,1023.47461 34.6816365,1022.80664 35.5019531,1022.02148 C36.3222697,1021.23632 37.0722622,1020.39844 37.7519531,1019.50781 C36.7675732,1019.625 35.800786,1019.81543 34.8515625,1020.0791 C33.902339,1020.34277 33.2871108,1020.47461 33.0058594,1020.47461 C32.5488258,1020.47461 32.1708999,1020.35449 31.8720703,1020.11426 C31.5732407,1019.87402 31.4238281,1019.49024 31.4238281,1018.96289 C31.4238281,1018.48242 31.5732407,1018.11035 31.8720703,1017.84668 C32.1708999,1017.58301 32.5488258,1017.45117 33.0058594,1017.45117 C33.3691424,1017.45117 33.9521444,1017.57129 34.7548828,1017.81152 C35.5576212,1018.05176 36.5566346,1018.24219 37.7519531,1018.38281 C36.9785118,1017.39843 36.205082,1016.53418 35.4316406,1015.79004 C34.6581993,1015.04589 34.2714844,1014.4043 34.2714844,1013.86523 C34.2714844,1013.47851 34.4414046,1013.1416 34.78125,1012.85449 C35.1210954,1012.56738 35.4785137,1012.42383 35.8535156,1012.42383 C36.1230482,1012.42383 36.3662099,1012.49414 36.5830078,1012.63477 C36.7998058,1012.77539 36.9902336,1012.98047 37.1542969,1013.25 C37.2949226,1013.50781 37.48828,1014.0996 37.734375,1015.02539 C37.98047,1015.95118 38.2968731,1016.88867 38.6835938,1017.83789 C39.0703144,1016.87695 39.3896472,1015.9336 39.6416016,1015.00781 C39.8935559,1014.08203 40.0839837,1013.49609 40.2128906,1013.25 C40.3535163,1013.00391 40.5380848,1012.80469 40.7666016,1012.65234 C40.9951183,1012.5 41.2441393,1012.42383 41.5136719,1012.42383 C41.9003926,1012.42383 42.2607405,1012.56152 42.5947266,1012.83691 C42.9287126,1013.11231 43.0957031,1013.45508 43.0957031,1013.86523 C43.0957031,1014.4043 42.7294958,1015.03418 41.9970703,1015.75488 C41.2646448,1016.47559 40.4765667,1017.35156 39.6328125,1018.38281 C40.8046934,1018.23047 41.8095661,1018.03711 42.6474609,1017.80273 C43.4853558,1017.56836 44.0566391,1017.45117 44.3613281,1017.45117 C44.8183617,1017.45117 45.1962876,1017.58301 45.4951172,1017.84668 C45.7939468,1018.11035 45.9433594,1018.48242 45.9433594,1018.96289 Z M45.9433594,778.962891 C45.9433594,779.490237 45.7939468,779.874022 45.4951172,780.114258 C45.1962876,780.354493 44.8183617,780.474609 44.3613281,780.474609 C44.0683579,780.474609 43.4619187,780.345704 42.5419922,780.087891 C41.6220657,779.830077 40.6464895,779.636719 39.6152344,779.507812 C40.2949253,780.398442 41.0449178,781.236324 41.8652344,782.021484 C42.685551,782.806645 43.0957031,783.474607 43.0957031,784.025391 C43.0957031,784.412111 42.9257829,784.749022 42.5859375,785.036133 C42.2460921,785.323244 41.8886737,785.466797 41.5136719,785.466797 C41.2558581,785.466797 41.0156261,785.393555 40.7929688,785.24707 C40.5703114,785.100585 40.3769539,784.892579 40.2128906,784.623047 C40.0722649,784.365233 39.8818371,783.779301 39.6416016,782.865234 C39.401366,781.951167 39.0820332,781.013677 38.6835938,780.052734 C38.2968731,780.966801 37.9746107,781.907222 37.7167969,782.874023 C37.4589831,783.840825 37.271485,784.423827 37.1542969,784.623047 C36.9667959,784.916017 36.7763682,785.129882 36.5830078,785.264648 C36.3896475,785.399415 36.1464858,785.466797 35.8535156,785.466797 C35.4667949,785.466797 35.106447,785.329103 34.7724609,785.053711 C34.4384749,784.778319 34.2714844,784.435549 34.2714844,784.025391 C34.2714844,783.474607 34.6816365,782.806645 35.5019531,782.021484 C36.3222697,781.236324 37.0722622,780.398442 37.7519531,779.507812 C36.7675732,779.625001 35.800786,779.815428 34.8515625,780.079102 C33.902339,780.342775 33.2871108,780.474609 33.0058594,780.474609 C32.5488258,780.474609 32.1708999,780.354493 31.8720703,780.114258 C31.5732407,779.874022 31.4238281,779.490237 31.4238281,778.962891 C31.4238281,778.482419 31.5732407,778.110353 31.8720703,777.84668 C32.1708999,777.583006 32.5488258,777.451172 33.0058594,777.451172 C33.3691424,777.451172 33.9521444,777.571288 34.7548828,777.811523 C35.5576212,778.051759 36.5566346,778.242187 37.7519531,778.382812 C36.9785118,777.398433 36.205082,776.534183 35.4316406,775.790039 C34.6581993,775.045895 34.2714844,774.4043 34.2714844,773.865234 C34.2714844,773.478514 34.4414046,773.141603 34.78125,772.854492 C35.1210954,772.567381 35.4785137,772.423828 35.8535156,772.423828 C36.1230482,772.423828 36.3662099,772.49414 36.5830078,772.634766 C36.7998058,772.775391 36.9902336,772.980467 37.1542969,773.25 C37.2949226,773.507814 37.48828,774.099605 37.734375,775.025391 C37.98047,775.951177 38.2968731,776.888667 38.6835938,777.837891 C39.0703144,776.876948 39.3896472,775.933598 39.6416016,775.007812 C39.8935559,774.082027 40.0839837,773.496095 40.2128906,773.25 C40.3535163,773.003905 40.5380848,772.804688 40.7666016,772.652344 C40.9951183,772.499999 41.2441393,772.423828 41.5136719,772.423828 C41.9003926,772.423828 42.2607405,772.561522 42.5947266,772.836914 C42.9287126,773.112306 43.0957031,773.455076 43.0957031,773.865234 C43.0957031,774.4043 42.7294958,775.034176 41.9970703,775.754883 C41.2646448,776.47559 40.4765667,777.351557 39.6328125,778.382812 C40.8046934,778.230468 41.8095661,778.037111 42.6474609,777.802734 C43.4853558,777.568358 44.0566391,777.451172 44.3613281,777.451172 C44.8183617,777.451172 45.1962876,777.583006 45.4951172,777.84668 C45.7939468,778.110353 45.9433594,778.482419 45.9433594,778.962891 Z" id="*-2" fill="url(#linearGradient-1)" fill-rule="nonzero"></path>
    </g>
</svg>