<?xml version="1.0" encoding="UTF-8"?>
<svg width="320px" height="1040px" viewBox="0 0 320 1040" version="1.1" xmlns="http://www.w3.org/2000/svg" xmlns:xlink="http://www.w3.org/1999/xlink">
    <!-- Generator: Sketch 54.1 (76490) - https://sketchapp.com -->
    <title>dubancolaai</title>
    <desc>Created with Sketch.</desc>
    <defs>
        <linearGradient x1="-40.4381835%" y1="62.9643238%" x2="115.35292%" y2="38.6029354%" id="linearGradient-1">
            <stop stop-color="#F50057" offset="0%"></stop>
            <stop stop-color="#AA00FF" offset="100%"></stop>
        </linearGradient>
        <filter x="-4.6%" y="-23.1%" width="109.2%" height="146.2%" filterUnits="objectBoundingBox" id="filter-2">
            <feGaussianBlur stdDeviation="4" in="SourceGraphic"></feGaussianBlur>
        </filter>
        <linearGradient x1="0%" y1="58.1772837%" x2="132.635216%" y2="33.8106971%" id="linearGradient-3">
            <stop stop-color="#F50057" offset="0%"></stop>
            <stop stop-color="#AA00FF" offset="100%"></stop>
        </linearGradient>
    </defs>
    <g id="dubancolaai" stroke="none" stroke-width="1" fill="none" fill-rule="evenodd">
        <rect fill="#FFFFFF" x="0" y="0" width="320" height="1040"></rect>
        <rect id="Rectangle" fill="#ECF5FA" x="0" y="0" width="320" height="390"></rect>
        <path d="M0.00147110516,384.390798 L5.18185728,381.282566 C8.13100257,379.513079 11.8307452,379.579042 14.7149396,381.452532 L15.0988505,381.701909 C18.0803644,383.638615 21.9225778,383.638615 24.9040917,381.701909 L25.0988505,381.575399 C28.0803644,379.638693 31.9225778,379.638693 34.9040917,381.575399 L35.0988505,381.701909 C38.0803644,383.638615 41.9225778,383.638615 44.9040917,381.701909 L45.0988505,381.575399 C48.0803644,379.638693 51.9225778,379.638693 54.9040917,381.575399 L55.0988505,381.701909 C58.0803644,383.638615 61.9225778,383.638615 64.9040917,381.701909 L65.0988505,381.575399 C68.0803644,379.638693 71.9225778,379.638693 74.9040917,381.575399 L75.0988505,381.701909 C78.0803644,383.638615 81.9225778,383.638615 84.9040917,381.701909 L85.0988505,381.575399 C88.0803644,379.638693 91.9225778,379.638693 94.9040917,381.575399 L95.0988505,381.701909 C98.0803644,383.638615 101.922578,383.638615 104.904092,381.701909 L105.097534,381.576255 C108.079719,379.639113 111.922917,379.639584 114.904627,381.577458 L115.096337,381.702054 C118.079056,383.640583 121.923732,383.640346 124.906212,381.701449 L125.094958,381.578746 C128.077591,379.639749 131.922493,379.63962 134.905256,381.578416 L135.095105,381.701818 C138.077684,383.640495 141.922316,383.640495 144.904895,381.701818 L145.095105,381.578182 C148.077684,379.639505 151.922316,379.639505 154.904895,381.578182 L155.095105,381.701818 C158.077684,383.640495 161.922316,383.640495 164.904895,381.701818 L165.095105,381.578182 C168.077684,379.639505 171.922316,379.639505 174.904895,381.578182 L175.095105,381.701818 C178.077684,383.640495 181.922316,383.640495 184.904895,381.701818 L185.095105,381.578182 C188.077684,379.639505 191.922316,379.639505 194.904895,381.578182 L195.095105,381.701818 C198.077684,383.640495 201.922316,383.640495 204.904895,381.701818 L205.095105,381.578182 C208.077684,379.639505 211.922316,379.639505 214.904895,381.578182 L215.095105,381.701818 C218.077684,383.640495 221.922316,383.640495 224.904895,381.701818 L225.095105,381.578182 C228.077684,379.639505 231.922316,379.639505 234.904895,381.578182 L235.095105,381.701818 C238.077684,383.640495 241.922316,383.640495 244.904895,381.701818 L245.095105,381.578182 C248.077684,379.639505 251.922316,379.639505 254.904895,381.578182 L255.095105,381.701818 C258.077684,383.640495 261.922316,383.640495 264.904895,381.701818 L265.095105,381.578182 C268.077684,379.639505 271.922316,379.639505 274.904895,381.578182 L275.095105,381.701818 C278.077684,383.640495 281.922316,383.640495 284.904895,381.701818 L285.095105,381.578182 C288.077684,379.639505 291.922316,379.639505 294.904895,381.578182 L295.095105,381.701818 C298.077684,383.640495 301.922316,383.640495 304.904895,381.701818 L305.095105,381.578182 C308.077684,379.639505 311.922316,379.639505 314.904895,381.578182 L320,384.89 L320,392 L0,392 L0.00147110516,384.390798 Z" id="Rectangle" fill="#FFFFFF"></path>
        <text id="Là-một-chương-trình" font-family="SFCompactDisplay-Regular, SF Compact Display" font-size="16" font-weight="normal" line-spacing="22" fill="#4D5B72">
            <tspan x="30" y="47">Là một chương trình kết nối được </tspan>
            <tspan x="30" y="69">phát triển bởi Công nghệ &amp; Tâm lý </tspan>
            <tspan x="30" y="91">học.</tspan>
        </text>
        <text id="&lt;-Việc-tìm-được-một" font-family="Georgia-Italic, Georgia" font-size="15" font-style="italic" font-weight="normal" line-spacing="22" fill="#5D6A80">
            <tspan x="30" y="160">&lt; Việc tìm được một tình yêu thực sự, </tspan>
            <tspan x="30" y="182">một ai đó muốn ở bên mình theo năm </tspan>
            <tspan x="30" y="204">tháng trở nên đơn giản hơn với mọi </tspan>
            <tspan x="30" y="226">người /&gt;</tspan>
        </text>
        <text id="Chanchan-được-tạo-ra" font-family="SFCompactDisplay-Semibold, SF Compact Display" font-size="16" font-weight="500" line-spacing="20" letter-spacing="-0.479999989" fill="#343D51">
            <tspan x="30" y="129">Chanchan được tạo ra và để làm cho…</tspan>
        </text>
        <path d="M288,265 L288,307 C288,309.761424 285.761424,312 283,312 L33,312 C30.2385763,312 28,309.761424 28,307 L28,265 C28,262.238576 30.2385763,260 33,260 L283,260 C285.761424,260 288,262.238576 288,265 Z" id="Triangle" fill-opacity="0.5" fill="url(#linearGradient-1)" filter="url(#filter-2)"></path>
        <path d="M290,263 L290,305 C290,307.761424 287.761424,310 285,310 L35,310 C32.2385763,310 30,307.761424 30,305 L30,263 C30,260.238576 32.2385763,258 35,258 L285,258 C287.761424,258 290,260.238576 290,263 Z" id="Triangle" fill="url(#linearGradient-3)"></path>
        <polygon id="Line" fill="#FFFFFF" fill-rule="nonzero" opacity="0.3" points="261 284 244 284 244 283 261 283 261 279 270 283.5 261 288"></polygon>
        <text id="Đơn-giản" font-family="SFCompactDisplay-Semibold, SF Compact Display" font-size="20" font-weight="500" line-spacing="22" letter-spacing="-1" fill="#343D51">
            <tspan x="30" y="495">Đơn giản</tspan>
        </text>
        <text id="Đăng-ký" font-family="SFCompactDisplay-Semibold, SF Compact Display" font-size="18" font-weight="500" line-spacing="20" letter-spacing="-0.720000029" fill="#FFFFFF">
            <tspan x="129" y="289">Đăng ký</tspan>
        </text>
        <text id="Bạn-không-cần-cảm-th" font-family="SFCompactDisplay-Regular, SF Compact Display" font-size="16" font-weight="normal" line-spacing="22" fill="#4D5B72">
            <tspan x="30" y="529">Bạn không cần cảm thấy mình phải </tspan>
            <tspan x="30" y="551">tốt hơn để được yêu &amp; tin tưởng.</tspan>
        </text>
        <text id="Chanchan-tự-tìm-ra-n" font-family="Georgia-Italic, Georgia" font-size="15" font-style="italic" font-weight="normal" line-spacing="22" fill="#5D6A80">
            <tspan x="50" y="612">Chanchan tự tìm ra những đối </tspan>
            <tspan x="50" y="634">phương có triển vọng với bạn bằng </tspan>
            <tspan x="50" y="656">những phân tích về xu hướng gắn </tspan>
            <tspan x="50" y="678">bó, hoà hợp với nhau trong cuộc </tspan>
            <tspan x="50" y="700">sống thực giữa hai người.</tspan>
        </text>
        <text id="/-/" font-family="Georgia-Italic, Georgia" font-size="15" font-style="italic" font-weight="normal" line-spacing="22" fill="#4D5B72">
            <tspan x="30" y="584">/</tspan>
            <tspan x="30" y="606">/</tspan>
        </text>
        <text id="Bạn-đơn-giản-là-chín" font-family="SFCompactDisplay-Semibold, SF Compact Display" font-size="16" font-weight="500" line-spacing="20" letter-spacing="-0.479999989" fill="#343D51">
            <tspan x="50" y="585">Bạn đơn giản là chính mình</tspan>
        </text>
        <text id="Tìm-hiểu" font-family="SFCompactDisplay-Semibold, SF Compact Display" font-size="16" font-weight="500" line-spacing="20" letter-spacing="-0.479999989" fill="#8C96A8" text-decoration="underline">
            <tspan x="131.361406" y="343">Tìm hiểu</tspan>
        </text>
        <text id="……………………………………………………" opacity="0.5" font-family="Georgia-Italic, Georgia" font-size="14" font-style="italic" font-weight="normal" line-spacing="22" fill="#8C96A8">
            <tspan x="30" y="745">……………………………………………………………</tspan>
        </text>
        <text id="Tự-nhiên" font-family="SFCompactDisplay-Semibold, SF Compact Display" font-size="20" font-weight="500" line-spacing="22" letter-spacing="-1" fill="#343D51">
            <tspan x="30" y="861">Tự nhiên</tspan>
        </text>
        <text id="Bạn-không-cần-cảm-th" font-family="SFCompactDisplay-Regular, SF Compact Display" font-size="16" font-weight="normal" line-spacing="22" fill="#4D5B72">
            <tspan x="30" y="895">Bạn không cần cảm thấy mình phải </tspan>
            <tspan x="30" y="917">có sức hút để có thể hẹn hò với đối </tspan>
            <tspan x="30" y="939">phương.</tspan>
        </text>
        <text id="Chanchan-“ngầm”-kết" font-family="Georgia-Italic, Georgia" font-size="15" font-style="italic" font-weight="normal" line-spacing="22" fill="#5D6A80">
            <tspan x="50" y="972">Chanchan “ngầm” kết nối bạn &amp; </tspan>
            <tspan x="50" y="994">những Triển vọng gặp gỡ tình cờ </tspan>
            <tspan x="50" y="1016">qua các Sự kiện.</tspan>
        </text>
        <text id="/" font-family="Georgia-Italic, Georgia" font-size="15" font-style="italic" font-weight="normal" line-spacing="22" fill="#5D6A80">
            <tspan x="30" y="972">/</tspan>
        </text>
        <path d="M7.62324219,454.48 C5.72989939,454.48 4.16324839,454.080004 2.92324219,453.28 C1.68323599,452.479996 0.749911988,451.37334 0.123242188,449.96 C-0.503427612,448.54666 -0.816757812,446.920009 -0.816757812,445.08 L-0.816757812,430.72 C-0.816757812,428.826657 -0.516760812,427.166674 0.0832421875,425.74 C0.683245188,424.313326 1.60323599,423.200004 2.84324219,422.4 C4.08324839,421.599996 5.67656579,421.2 7.62324219,421.2 C9.56991859,421.2 11.163236,421.599996 12.4032422,422.4 C13.6432484,423.200004 14.5632392,424.313326 15.1632422,425.74 C15.7632452,427.166674 16.0632422,428.826657 16.0632422,430.72 L16.0632422,445.08 C16.0632422,446.920009 15.749912,448.54666 15.1232422,449.96 C14.4965724,451.37334 13.5632484,452.479996 12.3232422,453.28 C11.083236,454.080004 9.51658499,454.48 7.62324219,454.48 Z M7.62324219,449.72 C8.44991299,449.72 9.06324019,449.466669 9.46324219,448.96 C9.86324419,448.453331 10.1299082,447.840004 10.2632422,447.12 C10.3965762,446.399996 10.4632422,445.693337 10.4632422,445 L10.4632422,430.8 C10.4632422,430.05333 10.4032428,429.313337 10.2832422,428.58 C10.1632416,427.846663 9.90324419,427.226669 9.50324219,426.72 C9.10324019,426.213331 8.47657979,425.96 7.62324219,425.96 C6.76990459,425.96 6.14324419,426.213331 5.74324219,426.72 C5.34324019,427.226669 5.08324279,427.846663 4.96324219,428.58 C4.84324159,429.313337 4.78324219,430.05333 4.78324219,430.8 L4.78324219,445 C4.78324219,445.693337 4.85657479,446.399996 5.00324219,447.12 C5.14990959,447.840004 5.42324019,448.453331 5.82324219,448.96 C6.22324419,449.466669 6.82323819,449.72 7.62324219,449.72 Z M22.3445117,454 L22.3445117,427.72 C22.1845109,427.8 21.8711807,427.919999 21.4045117,428.08 C20.9378427,428.240001 20.4245145,428.393333 19.8645117,428.54 C19.3045089,428.686667 18.7911807,428.826666 18.3245117,428.96 C17.8578427,429.093334 17.5311793,429.2 17.3445117,429.28 L17.3445117,425.16 C17.7178469,425.026666 18.1845089,424.840001 18.7445117,424.6 C19.3045145,424.359999 19.8978419,424.086668 20.5245117,423.78 C21.1511815,423.473332 21.7378423,423.133335 22.2845117,422.76 C22.8311811,422.386665 23.2778433,422.000002 23.6245117,421.6 L27.8645117,421.6 L27.8645117,454 L22.3445117,454 Z" id="01" fill="#3D5AFE" fill-rule="nonzero"></path>
        <path d="M3.45552734,820.48 C1.56218454,820.48 -0.00446645625,820.080004 -1.24447266,819.28 C-2.48447886,818.479996 -3.41780286,817.37334 -4.04447266,815.96 C-4.67114246,814.54666 -4.98447266,812.920009 -4.98447266,811.08 L-4.98447266,796.72 C-4.98447266,794.826657 -4.68447566,793.166674 -4.08447266,791.74 C-3.48446966,790.313326 -2.56447886,789.200004 -1.32447266,788.4 C-0.0844664563,787.599996 1.50885094,787.2 3.45552734,787.2 C5.40220374,787.2 6.99552114,787.599996 8.23552734,788.4 C9.47553354,789.200004 10.3955243,790.313326 10.9955273,791.74 C11.5955303,793.166674 11.8955273,794.826657 11.8955273,796.72 L11.8955273,811.08 C11.8955273,812.920009 11.5821971,814.54666 10.9555273,815.96 C10.3288575,817.37334 9.39553354,818.479996 8.15552734,819.28 C6.91552114,820.080004 5.34887014,820.48 3.45552734,820.48 Z M3.45552734,815.72 C4.28219814,815.72 4.89552534,815.466669 5.29552734,814.96 C5.69552934,814.453331 5.96219334,813.840004 6.09552734,813.12 C6.22886134,812.399996 6.29552734,811.693337 6.29552734,811 L6.29552734,796.8 C6.29552734,796.05333 6.23552794,795.313337 6.11552734,794.58 C5.99552674,793.846663 5.73552934,793.226669 5.33552734,792.72 C4.93552534,792.213331 4.30886494,791.96 3.45552734,791.96 C2.60218974,791.96 1.97552934,792.213331 1.57552734,792.72 C1.17552534,793.226669 0.915527944,793.846663 0.795527344,794.58 C0.675526744,795.313337 0.615527344,796.05333 0.615527344,796.8 L0.615527344,811 C0.615527344,811.693337 0.688859944,812.399996 0.835527344,813.12 C0.982194744,813.840004 1.25552534,814.453331 1.65552734,814.96 C2.05552934,815.466669 2.65552334,815.72 3.45552734,815.72 Z M13.7767969,820 L13.7767969,816.08 L21.7767969,803.72 C22.3634665,802.813329 22.9167943,801.946671 23.4367969,801.12 C23.9567995,800.293329 24.3834619,799.433338 24.7167969,798.54 C25.0501319,797.646662 25.2167969,796.666672 25.2167969,795.6 C25.2167969,794.399994 25.0034657,793.480003 24.5767969,792.84 C24.1501281,792.199997 23.4834681,791.88 22.5767969,791.88 C21.7234593,791.88 21.0567993,792.119998 20.5767969,792.6 C20.0967945,793.080002 19.7701311,793.706663 19.5967969,794.48 C19.4234627,795.253337 19.3367969,796.106662 19.3367969,797.04 L19.3367969,798.4 L13.8967969,798.4 L13.8967969,796.96 C13.8967969,795.03999 14.1834607,793.353341 14.7567969,791.9 C15.3301331,790.446659 16.2434573,789.306671 17.4967969,788.48 C18.7501365,787.653329 20.3901201,787.24 22.4167969,787.24 C25.1901441,787.24 27.2701233,787.986659 28.6567969,789.48 C30.0434705,790.973341 30.7367969,793.05332 30.7367969,795.72 C30.7367969,797.05334 30.5501321,798.259995 30.1767969,799.34 C29.8034617,800.420005 29.3101333,801.453328 28.6967969,802.44 C28.0834605,803.426672 27.4168005,804.439995 26.6967969,805.48 L20.0567969,815.56 L29.8967969,815.56 L29.8967969,820 L13.7767969,820 Z" id="02" fill="#651FFF" fill-rule="nonzero"></path>
    </g>
</svg>