<?xml version="1.0" encoding="UTF-8"?>
<svg width="320px" height="336px" viewBox="0 0 320 336" version="1.1" xmlns="http://www.w3.org/2000/svg" xmlns:xlink="http://www.w3.org/1999/xlink">
    <!-- Generator: Sketch 54.1 (76490) - https://sketchapp.com -->
    <title>dubancolaai</title>
    <desc>Created with Sketch.</desc>
    <defs>
        <linearGradient x1="-39.8704324%" y1="60.2362451%" x2="195.48233%" y2="34.0831453%" id="linearGradient-1">
            <stop stop-color="#F50057" offset="0%"></stop>
            <stop stop-color="#AA00FF" offset="100%"></stop>
        </linearGradient>
        <filter x="-3.5%" y="-17.3%" width="106.9%" height="134.6%" filterUnits="objectBoundingBox" id="filter-2">
            <feGaussianBlur stdDeviation="3" in="SourceGraphic"></feGaussianBlur>
        </filter>
        <linearGradient x1="-53.2683638%" y1="63.1514187%" x2="180.209359%" y2="35.2280905%" id="linearGradient-3">
            <stop stop-color="#F50057" offset="0%"></stop>
            <stop stop-color="#AA00FF" offset="100%"></stop>
        </linearGradient>
    </defs>
    <g id="dubancolaai" stroke="none" stroke-width="1" fill="none" fill-rule="evenodd">
        <rect fill="#FFFFFF" x="0" y="0" width="320" height="336"></rect>
        <text id="Là-một-ứng-dụng-hẹn" font-family="SFCompactDisplay-Semibold, SF Compact Display" font-size="20" font-weight="500" line-spacing="22" letter-spacing="-0.9999999" fill="#343D51">
            <tspan x="30" y="51">Là một ứng dụng hẹn hò có </tspan>
            <tspan x="30" y="73">nhiều khác biệt. Chanchan được </tspan>
            <tspan x="30" y="95">tạo ra và để làm cho</tspan>
        </text>
        <text id="&lt;-Việc-tìm-thấy-một" font-family="Georgia-Italic, Georgia" font-size="14" font-style="italic" font-weight="normal" line-spacing="22" fill="#5D6A80">
            <tspan x="30" y="127">&lt; Việc tìm thấy một tình yêu thực sự trở </tspan>
            <tspan x="30" y="149">nên đơn giản hơn, đơn giản hơn với tất </tspan>
            <tspan x="30" y="171">cả mọi người /&gt;</tspan>
        </text>
        <path d="M288,211 L288,253 C288,255.761424 285.761424,258 283,258 L33,258 C30.2385763,258 28,255.761424 28,253 L28,211 C28,208.238576 30.2385763,206 33,206 L283,206 C285.761424,206 288,208.238576 288,211 Z" id="Triangle" fill-opacity="0.5" fill="url(#linearGradient-1)" filter="url(#filter-2)"></path>
        <path d="M290,209 L290,251 C290,253.761424 287.761424,256 285,256 L35,256 C32.2385763,256 30,253.761424 30,251 L30,209 C30,206.238576 32.2385763,204 35,204 L285,204 C287.761424,204 290,206.238576 290,209 Z" id="Triangle" fill="url(#linearGradient-3)"></path>
        <text id="Tìm-hiểu-về-chanchan" font-family="SFCompactDisplay-Semibold, SF Compact Display" font-size="18" font-weight="500" line-spacing="20" letter-spacing="-0.720000029" fill="#FFFFFF">
            <tspan x="80" y="235">Tìm hiểu về chanchan</tspan>
        </text>
        <text id="Đăng-ký" font-family="SFCompactDisplay-Semibold, SF Compact Display" font-size="18" font-weight="500" line-spacing="20" letter-spacing="-0.54" fill="#556279" text-decoration="underline">
            <tspan x="129" y="291">Đăng ký</tspan>
        </text>
        <path d="M3.04720534,327 C3.01573507,327.166826 3,327.339903 3,327.519231 C3,328.198721 3.22884537,328.782049 3.68654298,329.269231 C4.14424058,329.756413 4.68408094,330 5.30608025,330 C5.91634372,330 6.45325017,329.759618 6.91681569,329.278846 C7.38038122,328.798075 7.6121605,328.211542 7.6121605,327.519231 C7.6121605,327.339903 7.59622108,327.166826 7.5643421,327 L12.7468253,327 C12.7153551,327.166826 12.69962,327.339903 12.69962,327.519231 C12.69962,328.198721 12.9284654,328.782049 13.386163,329.269231 C13.8438606,329.756413 14.3837009,330 15.0057002,330 C15.6159637,330 16.1528702,329.759618 16.6164357,329.278846 C17.0800012,328.798075 17.3117805,328.211542 17.3117805,327.519231 C17.3117805,327.339903 17.2958411,327.166826 17.2639621,327 L22.4464453,327 C22.414975,327.166826 22.39924,327.339903 22.39924,327.519231 C22.39924,328.198721 22.6280853,328.782049 23.0857829,329.269231 C23.5434805,329.756413 24.0833209,330 24.7053202,330 C25.3273195,330 25.8671599,329.756413 26.3248575,329.269231 C26.7825551,328.782049 27.0114005,328.198721 27.0114005,327.519231 C27.0114005,327.339903 26.9956654,327.166826 26.9641951,327 L32.1460653,327 C32.114595,327.166826 32.09886,327.339903 32.09886,327.519231 C32.09886,328.198721 32.3277053,328.782049 32.7854029,329.269231 C33.2431005,329.756413 33.7829409,330 34.4049402,330 C35.0152037,330 35.5521101,329.759618 36.0156756,329.278846 C36.4792412,328.798075 36.7110205,328.211542 36.7110205,327.519231 C36.7110205,327.339903 36.695081,327.166826 36.6632021,327 L41.8456853,327 C41.814215,327.166826 41.7984799,327.339903 41.7984799,327.519231 C41.7984799,328.198721 42.0273253,328.782049 42.4850229,329.269231 C42.9427205,329.756413 43.4825609,330 44.1045602,330 C44.7148237,330 45.2517301,329.759618 45.7152956,329.278846 C46.1788612,328.798075 46.4106404,328.211542 46.4106404,327.519231 C46.4106404,327.339903 46.394701,327.166826 46.362822,327 L51.5453053,327 C51.513835,327.166826 51.4980999,327.339903 51.4980999,327.519231 C51.4980999,328.198721 51.7269453,328.782049 52.1846429,329.269231 C52.6423405,329.756413 53.1821809,330 53.8041802,330 C54.4261795,330 54.9660198,329.756413 55.4237174,329.269231 C55.8814151,328.782049 56.1102604,328.198721 56.1102604,327.519231 C56.1102604,327.339903 56.0945254,327.166826 56.0630551,327 L61.2449252,327 C61.213455,327.166826 61.1977199,327.339903 61.1977199,327.519231 C61.1977199,328.198721 61.4265653,328.782049 61.8842629,329.269231 C62.3419605,329.756413 62.8818008,330 63.5038002,330 C64.1140636,330 64.6509701,329.759618 65.1145356,329.278846 C65.5781011,328.798075 65.8098804,328.211542 65.8098804,327.519231 C65.8098804,327.339903 65.793941,327.166826 65.762062,327 L70.9445452,327 C70.913075,327.166826 70.8973399,327.339903 70.8973399,327.519231 C70.8973399,328.198721 71.1261853,328.782049 71.5838829,329.269231 C72.0415805,329.756413 72.5814208,330 73.2034201,330 C73.8136836,330 74.3505901,329.759618 74.8141556,329.278846 C75.2777211,328.798075 75.5095004,328.211542 75.5095004,327.519231 C75.5095004,327.339903 75.493561,327.166826 75.461682,327 L80.6441652,327 C80.6126949,327.166826 80.5969599,327.339903 80.5969599,327.519231 C80.5969599,328.198721 80.8258052,328.782049 81.2835029,329.269231 C81.7412005,329.756413 82.2810408,330 82.9030401,330 C83.5250394,330 84.0648798,329.756413 84.5225774,329.269231 C84.980275,328.782049 85.2091204,328.198721 85.2091204,327.519231 C85.2091204,327.339903 85.1933853,327.166826 85.161915,327 L90.3437852,327 C90.3123149,327.166826 90.2965799,327.339903 90.2965799,327.519231 C90.2965799,328.198721 90.5254252,328.782049 90.9831228,329.269231 C91.4408204,329.756413 91.9806608,330 92.6026601,330 C93.2129236,330 93.74983,329.759618 94.2133956,329.278846 C94.6769611,328.798075 94.9087404,328.211542 94.9087404,327.519231 C94.9087404,327.339903 94.8928009,327.166826 94.860922,327 L100.043405,327 C100.011935,327.166826 99.9961998,327.339903 99.9961998,327.519231 C99.9961998,328.198721 100.225045,328.782049 100.682743,329.269231 C101.14044,329.756413 101.680281,330 102.30228,330 C102.912544,330 103.44945,329.759618 103.913016,329.278846 C104.376581,328.798075 104.60836,328.211542 104.60836,327.519231 C104.60836,327.339903 104.592421,327.166826 104.560542,327 L109.743025,327 C109.711555,327.166826 109.69582,327.339903 109.69582,327.519231 C109.69582,328.198721 109.924665,328.782049 110.382363,329.269231 C110.84006,329.756413 111.379901,330 112.0019,330 C112.623899,330 113.16374,329.756413 113.621437,329.269231 C114.079135,328.782049 114.30798,328.198721 114.30798,327.519231 C114.30798,327.339903 114.292245,327.166826 114.260775,327 L119.442645,327 C119.411175,327.166826 119.39544,327.339903 119.39544,327.519231 C119.39544,328.198721 119.624285,328.782049 120.081983,329.269231 C120.53968,329.756413 121.079521,330 121.70152,330 C122.311784,330 122.84869,329.759618 123.312256,329.278846 C123.775821,328.798075 124.0076,328.211542 124.0076,327.519231 C124.0076,327.339903 123.991661,327.166826 123.959782,327 L129.142265,327 C129.110795,327.166826 129.09506,327.339903 129.09506,327.519231 C129.09506,328.198721 129.323905,328.782049 129.781603,329.269231 C130.2393,329.756413 130.779141,330 131.40114,330 C132.011404,330 132.54831,329.759618 133.011875,329.278846 C133.475441,328.798075 133.70722,328.211542 133.70722,327.519231 C133.70722,327.339903 133.691281,327.166826 133.659402,327 L138.841885,327 C138.810415,327.166826 138.79468,327.339903 138.79468,327.519231 C138.79468,328.198721 139.023525,328.782049 139.481223,329.269231 C139.93892,329.756413 140.478761,330 141.10076,330 C141.722759,330 142.2626,329.756413 142.720297,329.269231 C143.177995,328.782049 143.40684,328.198721 143.40684,327.519231 C143.40684,327.339903 143.391105,327.166826 143.359635,327 L148.541505,327 C148.510035,327.166826 148.4943,327.339903 148.4943,327.519231 C148.4943,328.198721 148.723145,328.782049 149.180843,329.269231 C149.63854,329.756413 150.178381,330 150.80038,330 C151.410643,330 151.94755,329.759618 152.411115,329.278846 C152.874681,328.798075 153.10646,328.211542 153.10646,327.519231 C153.10646,327.339903 153.090521,327.166826 153.058642,327 L158.241125,327 C158.209655,327.166826 158.19392,327.339903 158.19392,327.519231 C158.19392,328.198721 158.422765,328.782049 158.880463,329.269231 C159.33816,329.756413 159.878001,330 160.5,330 C161.110263,330 161.64717,329.759618 162.110735,329.278846 C162.574301,328.798075 162.80608,328.211542 162.80608,327.519231 C162.80608,327.339903 162.790141,327.166826 162.758262,327 L167.940745,327 C167.909275,327.166826 167.89354,327.339903 167.89354,327.519231 C167.89354,328.198721 168.122385,328.782049 168.580083,329.269231 C169.03778,329.756413 169.577621,330 170.19962,330 C170.821619,330 171.36146,329.756413 171.819157,329.269231 C172.276855,328.782049 172.5057,328.198721 172.5057,327.519231 C172.5057,327.339903 172.489965,327.166826 172.458495,327 L177.640365,327 C177.608895,327.166826 177.59316,327.339903 177.59316,327.519231 C177.59316,328.198721 177.822005,328.782049 178.279703,329.269231 C178.7374,329.756413 179.277241,330 179.89924,330 C180.509503,330 181.04641,329.759618 181.509975,329.278846 C181.973541,328.798075 182.20532,328.211542 182.20532,327.519231 C182.20532,327.339903 182.189381,327.166826 182.157502,327 L187.339985,327 C187.308515,327.166826 187.29278,327.339903 187.29278,327.519231 C187.29278,328.198721 187.521625,328.782049 187.979323,329.269231 C188.43702,329.756413 188.976861,330 189.59886,330 C190.209123,330 190.74603,329.759618 191.209595,329.278846 C191.673161,328.798075 191.90494,328.211542 191.90494,327.519231 C191.90494,327.339903 191.889001,327.166826 191.857122,327 L197.039605,327 C197.008135,327.166826 196.9924,327.339903 196.9924,327.519231 C196.9924,328.198721 197.221245,328.782049 197.678943,329.269231 C198.13664,329.756413 198.676481,330 199.29848,330 C199.920479,330 200.46032,329.756413 200.918017,329.269231 C201.375715,328.782049 201.60456,328.198721 201.60456,327.519231 C201.60456,327.339903 201.588825,327.166826 201.557355,327 L206.739225,327 C206.707755,327.166826 206.69202,327.339903 206.69202,327.519231 C206.69202,328.198721 206.920865,328.782049 207.378563,329.269231 C207.83626,329.756413 208.376101,330 208.9981,330 C209.608363,330 210.14527,329.759618 210.608835,329.278846 C211.072401,328.798075 211.30418,328.211542 211.30418,327.519231 C211.30418,327.339903 211.288241,327.166826 211.256362,327 L216.438845,327 C216.407375,327.166826 216.39164,327.339903 216.39164,327.519231 C216.39164,328.198721 216.620485,328.782049 217.078183,329.269231 C217.53588,329.756413 218.075721,330 218.69772,330 C219.307983,330 219.84489,329.759618 220.308455,329.278846 C220.772021,328.798075 221.0038,328.211542 221.0038,327.519231 C221.0038,327.339903 220.987861,327.166826 220.955982,327 L226.138465,327 C226.106995,327.166826 226.09126,327.339903 226.09126,327.519231 C226.09126,328.198721 226.320105,328.782049 226.777803,329.269231 C227.2355,329.756413 227.775341,330 228.39734,330 C229.019339,330 229.55918,329.756413 230.016877,329.269231 C230.474575,328.782049 230.70342,328.198721 230.70342,327.519231 C230.70342,327.339903 230.687685,327.166826 230.656215,327 L235.838085,327 C235.806615,327.166826 235.79088,327.339903 235.79088,327.519231 C235.79088,328.198721 236.019725,328.782049 236.477423,329.269231 C236.93512,329.756413 237.474961,330 238.09696,330 C238.707223,330 239.24413,329.759618 239.707695,329.278846 C240.171261,328.798075 240.40304,328.211542 240.40304,327.519231 C240.40304,327.339903 240.387101,327.166826 240.355222,327 L245.537705,327 C245.506235,327.166826 245.4905,327.339903 245.4905,327.519231 C245.4905,328.198721 245.719345,328.782049 246.177043,329.269231 C246.63474,329.756413 247.174581,330 247.79658,330 C248.406843,330 248.94375,329.759618 249.407315,329.278846 C249.870881,328.798075 250.10266,328.211542 250.10266,327.519231 C250.10266,327.339903 250.086721,327.166826 250.054842,327 L255.237325,327 C255.205855,327.166826 255.19012,327.339903 255.19012,327.519231 C255.19012,328.198721 255.418965,328.782049 255.876663,329.269231 C256.33436,329.756413 256.874201,330 257.4962,330 C258.118199,330 258.65804,329.756413 259.115737,329.269231 C259.573435,328.782049 259.80228,328.198721 259.80228,327.519231 C259.80228,327.339903 259.786545,327.166826 259.755075,327 L264.936945,327 C264.905475,327.166826 264.88974,327.339903 264.88974,327.519231 C264.88974,328.198721 265.118585,328.782049 265.576283,329.269231 C266.03398,329.756413 266.573821,330 267.19582,330 C267.806083,330 268.34299,329.759618 268.806555,329.278846 C269.270121,328.798075 269.5019,328.211542 269.5019,327.519231 C269.5019,327.339903 269.485961,327.166826 269.454082,327 L274.636565,327 C274.605095,327.166826 274.58936,327.339903 274.58936,327.519231 C274.58936,328.198721 274.818205,328.782049 275.275903,329.269231 C275.7336,329.756413 276.273441,330 276.89544,330 C277.505703,330 278.04261,329.759618 278.506175,329.278846 C278.969741,328.798075 279.20152,328.211542 279.20152,327.519231 C279.20152,327.339903 279.185581,327.166826 279.153702,327 L284.336185,327 C284.304715,327.166826 284.28898,327.339903 284.28898,327.519231 C284.28898,328.198721 284.517825,328.782049 284.975523,329.269231 C285.43322,329.756413 285.97306,330 286.59506,330 C287.217059,330 287.756899,329.756413 288.214597,329.269231 C288.672295,328.782049 288.90114,328.198721 288.90114,327.519231 C288.90114,327.339903 288.885405,327.166826 288.853935,327 L294.035805,327 C294.004335,327.166826 293.9886,327.339903 293.9886,327.519231 C293.9886,328.198721 294.217445,328.782049 294.675143,329.269231 C295.13284,329.756413 295.67268,330 296.29468,330 C296.904943,330 297.44185,329.759618 297.905415,329.278846 C298.368981,328.798075 298.60076,328.211542 298.60076,327.519231 C298.60076,327.339903 298.584821,327.166826 298.552942,327 L303.735425,327 C303.703955,327.166826 303.68822,327.339903 303.68822,327.519231 C303.68822,328.198721 303.917065,328.782049 304.374762,329.269231 C304.83246,329.756413 305.3723,330 305.9943,330 C306.604563,330 307.14147,329.759618 307.605035,329.278846 C308.068601,328.798075 308.30038,328.211542 308.30038,327.519231 C308.30038,327.339903 308.284441,327.166826 308.252562,327 L313.435045,327 C313.403575,327.166826 313.387839,327.339903 313.387839,327.519231 C313.387839,328.198721 313.616685,328.782049 314.074382,329.269231 C314.53208,329.756413 315.07192,330 315.69392,330 C316.315919,330 316.855759,329.756413 317.313457,329.269231 C317.771155,328.782049 318,328.198721 318,327.519231 C318,327.339903 317.984265,327.166826 317.952795,327 L320,327 L320,336 L0,336 L0,327 L3.04720534,327 Z" id="Rectangle-2" fill="#F0F6FA"></path>
    </g>
</svg>