<?xml version="1.0" encoding="UTF-8"?>
<svg width="320px" height="334px" viewBox="0 0 320 334" version="1.1" xmlns="http://www.w3.org/2000/svg" xmlns:xlink="http://www.w3.org/1999/xlink">
    <!-- Generator: Sketch 54.1 (76490) - https://sketchapp.com -->
    <title>dubancolaai</title>
    <desc>Created with Sketch.</desc>
    <defs>
        <linearGradient x1="-39.8704324%" y1="60.2362451%" x2="268.816186%" y2="27.8440145%" id="linearGradient-1">
            <stop stop-color="#F50057" offset="0%"></stop>
            <stop stop-color="#AA00FF" offset="100%"></stop>
        </linearGradient>
        <filter x="-6.9%" y="-34.6%" width="113.8%" height="169.2%" filterUnits="objectBoundingBox" id="filter-2">
            <feGaussianBlur stdDeviation="6" in="SourceGraphic"></feGaussianBlur>
        </filter>
    </defs>
    <g id="dubancolaai" stroke="none" stroke-width="1" fill="none" fill-rule="evenodd">
        <rect fill="#FFFFFF" x="0" y="0" width="320" height="334"></rect>
        <text id="Dù-bạn-có-là-ai.-Dù" font-family="SFCompactDisplay-Semibold, SF Compact Display" font-size="20" font-weight="500" line-spacing="22" letter-spacing="-0.9999999" fill="#8C96A8">
            <tspan x="30" y="51">Dù bạn có là ai. Dù bạn có thế </tspan>
            <tspan x="30" y="73">nào… Sẽ luôn có ai đó yêu bạn </tspan>
            <tspan x="30" y="95">thật lòng. Sẽ luôn có ai đó muốn </tspan>
            <tspan x="30" y="117">bên bạn đi cùng năm tháng.</tspan>
        </text>
        <text id="&lt;-Chanchan-giúp-bạn" font-family="Georgia-Italic, Georgia" font-size="14" font-style="italic" font-weight="normal" line-spacing="22" fill="#5D6A80">
            <tspan x="30" y="149">&lt; Chanchan giúp bạn gặp được người </tspan>
            <tspan x="30" y="171">ấy trong thời gian ngắn nhất. /&gt;</tspan>
        </text>
        <path d="M288,209 L288,251 C288,253.761424 285.761424,256 283,256 L33,256 C30.2385763,256 28,253.761424 28,251 L28,209 C28,206.238576 30.2385763,204 33,204 L283,204 C285.761424,204 288,206.238576 288,209 Z" id="Triangle" fill-opacity="0.5" fill="url(#linearGradient-1)" filter="url(#filter-2)"></path>
        <path d="M290,207 L290,249 C290,251.761424 287.761424,254 285,254 L35,254 C32.2385763,254 30,251.761424 30,249 L30,207 C30,204.238576 32.2385763,202 35,202 L285,202 C287.761424,202 290,204.238576 290,207 Z" id="Triangle" fill="url(#linearGradient-1)"></path>
        <text id="Tìm-hiểu-về-chanchan" font-family="SFCompactDisplay-Semibold, SF Compact Display" font-size="18" font-weight="500" line-spacing="20" letter-spacing="-0.720000029" fill="#FFFFFF">
            <tspan x="80" y="233">Tìm hiểu về chanchan</tspan>
        </text>
        <text id="Tìm-người-ấy" font-family="SFCompactDisplay-Semibold, SF Compact Display" font-size="18" font-weight="500" line-spacing="20" letter-spacing="-0.54" fill="#556279" text-decoration="underline">
            <tspan x="111" y="289">Tìm người ấy</tspan>
        </text>
        <path d="M3.04720534,325 C3.01573507,325.166826 3,325.339903 3,325.519231 C3,326.198721 3.22884537,326.782049 3.68654298,327.269231 C4.14424058,327.756413 4.68408094,328 5.30608025,328 C5.91634372,328 6.45325017,327.759618 6.91681569,327.278846 C7.38038122,326.798075 7.6121605,326.211542 7.6121605,325.519231 C7.6121605,325.339903 7.59622108,325.166826 7.5643421,325 L12.7468253,325 C12.7153551,325.166826 12.69962,325.339903 12.69962,325.519231 C12.69962,326.198721 12.9284654,326.782049 13.386163,327.269231 C13.8438606,327.756413 14.3837009,328 15.0057002,328 C15.6159637,328 16.1528702,327.759618 16.6164357,327.278846 C17.0800012,326.798075 17.3117805,326.211542 17.3117805,325.519231 C17.3117805,325.339903 17.2958411,325.166826 17.2639621,325 L22.4464453,325 C22.414975,325.166826 22.39924,325.339903 22.39924,325.519231 C22.39924,326.198721 22.6280853,326.782049 23.0857829,327.269231 C23.5434805,327.756413 24.0833209,328 24.7053202,328 C25.3273195,328 25.8671599,327.756413 26.3248575,327.269231 C26.7825551,326.782049 27.0114005,326.198721 27.0114005,325.519231 C27.0114005,325.339903 26.9956654,325.166826 26.9641951,325 L32.1460653,325 C32.114595,325.166826 32.09886,325.339903 32.09886,325.519231 C32.09886,326.198721 32.3277053,326.782049 32.7854029,327.269231 C33.2431005,327.756413 33.7829409,328 34.4049402,328 C35.0152037,328 35.5521101,327.759618 36.0156756,327.278846 C36.4792412,326.798075 36.7110205,326.211542 36.7110205,325.519231 C36.7110205,325.339903 36.695081,325.166826 36.6632021,325 L41.8456853,325 C41.814215,325.166826 41.7984799,325.339903 41.7984799,325.519231 C41.7984799,326.198721 42.0273253,326.782049 42.4850229,327.269231 C42.9427205,327.756413 43.4825609,328 44.1045602,328 C44.7148237,328 45.2517301,327.759618 45.7152956,327.278846 C46.1788612,326.798075 46.4106404,326.211542 46.4106404,325.519231 C46.4106404,325.339903 46.394701,325.166826 46.362822,325 L51.5453053,325 C51.513835,325.166826 51.4980999,325.339903 51.4980999,325.519231 C51.4980999,326.198721 51.7269453,326.782049 52.1846429,327.269231 C52.6423405,327.756413 53.1821809,328 53.8041802,328 C54.4261795,328 54.9660198,327.756413 55.4237174,327.269231 C55.8814151,326.782049 56.1102604,326.198721 56.1102604,325.519231 C56.1102604,325.339903 56.0945254,325.166826 56.0630551,325 L61.2449252,325 C61.213455,325.166826 61.1977199,325.339903 61.1977199,325.519231 C61.1977199,326.198721 61.4265653,326.782049 61.8842629,327.269231 C62.3419605,327.756413 62.8818008,328 63.5038002,328 C64.1140636,328 64.6509701,327.759618 65.1145356,327.278846 C65.5781011,326.798075 65.8098804,326.211542 65.8098804,325.519231 C65.8098804,325.339903 65.793941,325.166826 65.762062,325 L70.9445452,325 C70.913075,325.166826 70.8973399,325.339903 70.8973399,325.519231 C70.8973399,326.198721 71.1261853,326.782049 71.5838829,327.269231 C72.0415805,327.756413 72.5814208,328 73.2034201,328 C73.8136836,328 74.3505901,327.759618 74.8141556,327.278846 C75.2777211,326.798075 75.5095004,326.211542 75.5095004,325.519231 C75.5095004,325.339903 75.493561,325.166826 75.461682,325 L80.6441652,325 C80.6126949,325.166826 80.5969599,325.339903 80.5969599,325.519231 C80.5969599,326.198721 80.8258052,326.782049 81.2835029,327.269231 C81.7412005,327.756413 82.2810408,328 82.9030401,328 C83.5250394,328 84.0648798,327.756413 84.5225774,327.269231 C84.980275,326.782049 85.2091204,326.198721 85.2091204,325.519231 C85.2091204,325.339903 85.1933853,325.166826 85.161915,325 L90.3437852,325 C90.3123149,325.166826 90.2965799,325.339903 90.2965799,325.519231 C90.2965799,326.198721 90.5254252,326.782049 90.9831228,327.269231 C91.4408204,327.756413 91.9806608,328 92.6026601,328 C93.2129236,328 93.74983,327.759618 94.2133956,327.278846 C94.6769611,326.798075 94.9087404,326.211542 94.9087404,325.519231 C94.9087404,325.339903 94.8928009,325.166826 94.860922,325 L100.043405,325 C100.011935,325.166826 99.9961998,325.339903 99.9961998,325.519231 C99.9961998,326.198721 100.225045,326.782049 100.682743,327.269231 C101.14044,327.756413 101.680281,328 102.30228,328 C102.912544,328 103.44945,327.759618 103.913016,327.278846 C104.376581,326.798075 104.60836,326.211542 104.60836,325.519231 C104.60836,325.339903 104.592421,325.166826 104.560542,325 L109.743025,325 C109.711555,325.166826 109.69582,325.339903 109.69582,325.519231 C109.69582,326.198721 109.924665,326.782049 110.382363,327.269231 C110.84006,327.756413 111.379901,328 112.0019,328 C112.623899,328 113.16374,327.756413 113.621437,327.269231 C114.079135,326.782049 114.30798,326.198721 114.30798,325.519231 C114.30798,325.339903 114.292245,325.166826 114.260775,325 L119.442645,325 C119.411175,325.166826 119.39544,325.339903 119.39544,325.519231 C119.39544,326.198721 119.624285,326.782049 120.081983,327.269231 C120.53968,327.756413 121.079521,328 121.70152,328 C122.311784,328 122.84869,327.759618 123.312256,327.278846 C123.775821,326.798075 124.0076,326.211542 124.0076,325.519231 C124.0076,325.339903 123.991661,325.166826 123.959782,325 L129.142265,325 C129.110795,325.166826 129.09506,325.339903 129.09506,325.519231 C129.09506,326.198721 129.323905,326.782049 129.781603,327.269231 C130.2393,327.756413 130.779141,328 131.40114,328 C132.011404,328 132.54831,327.759618 133.011875,327.278846 C133.475441,326.798075 133.70722,326.211542 133.70722,325.519231 C133.70722,325.339903 133.691281,325.166826 133.659402,325 L138.841885,325 C138.810415,325.166826 138.79468,325.339903 138.79468,325.519231 C138.79468,326.198721 139.023525,326.782049 139.481223,327.269231 C139.93892,327.756413 140.478761,328 141.10076,328 C141.722759,328 142.2626,327.756413 142.720297,327.269231 C143.177995,326.782049 143.40684,326.198721 143.40684,325.519231 C143.40684,325.339903 143.391105,325.166826 143.359635,325 L148.541505,325 C148.510035,325.166826 148.4943,325.339903 148.4943,325.519231 C148.4943,326.198721 148.723145,326.782049 149.180843,327.269231 C149.63854,327.756413 150.178381,328 150.80038,328 C151.410643,328 151.94755,327.759618 152.411115,327.278846 C152.874681,326.798075 153.10646,326.211542 153.10646,325.519231 C153.10646,325.339903 153.090521,325.166826 153.058642,325 L158.241125,325 C158.209655,325.166826 158.19392,325.339903 158.19392,325.519231 C158.19392,326.198721 158.422765,326.782049 158.880463,327.269231 C159.33816,327.756413 159.878001,328 160.5,328 C161.110263,328 161.64717,327.759618 162.110735,327.278846 C162.574301,326.798075 162.80608,326.211542 162.80608,325.519231 C162.80608,325.339903 162.790141,325.166826 162.758262,325 L167.940745,325 C167.909275,325.166826 167.89354,325.339903 167.89354,325.519231 C167.89354,326.198721 168.122385,326.782049 168.580083,327.269231 C169.03778,327.756413 169.577621,328 170.19962,328 C170.821619,328 171.36146,327.756413 171.819157,327.269231 C172.276855,326.782049 172.5057,326.198721 172.5057,325.519231 C172.5057,325.339903 172.489965,325.166826 172.458495,325 L177.640365,325 C177.608895,325.166826 177.59316,325.339903 177.59316,325.519231 C177.59316,326.198721 177.822005,326.782049 178.279703,327.269231 C178.7374,327.756413 179.277241,328 179.89924,328 C180.509503,328 181.04641,327.759618 181.509975,327.278846 C181.973541,326.798075 182.20532,326.211542 182.20532,325.519231 C182.20532,325.339903 182.189381,325.166826 182.157502,325 L187.339985,325 C187.308515,325.166826 187.29278,325.339903 187.29278,325.519231 C187.29278,326.198721 187.521625,326.782049 187.979323,327.269231 C188.43702,327.756413 188.976861,328 189.59886,328 C190.209123,328 190.74603,327.759618 191.209595,327.278846 C191.673161,326.798075 191.90494,326.211542 191.90494,325.519231 C191.90494,325.339903 191.889001,325.166826 191.857122,325 L197.039605,325 C197.008135,325.166826 196.9924,325.339903 196.9924,325.519231 C196.9924,326.198721 197.221245,326.782049 197.678943,327.269231 C198.13664,327.756413 198.676481,328 199.29848,328 C199.920479,328 200.46032,327.756413 200.918017,327.269231 C201.375715,326.782049 201.60456,326.198721 201.60456,325.519231 C201.60456,325.339903 201.588825,325.166826 201.557355,325 L206.739225,325 C206.707755,325.166826 206.69202,325.339903 206.69202,325.519231 C206.69202,326.198721 206.920865,326.782049 207.378563,327.269231 C207.83626,327.756413 208.376101,328 208.9981,328 C209.608363,328 210.14527,327.759618 210.608835,327.278846 C211.072401,326.798075 211.30418,326.211542 211.30418,325.519231 C211.30418,325.339903 211.288241,325.166826 211.256362,325 L216.438845,325 C216.407375,325.166826 216.39164,325.339903 216.39164,325.519231 C216.39164,326.198721 216.620485,326.782049 217.078183,327.269231 C217.53588,327.756413 218.075721,328 218.69772,328 C219.307983,328 219.84489,327.759618 220.308455,327.278846 C220.772021,326.798075 221.0038,326.211542 221.0038,325.519231 C221.0038,325.339903 220.987861,325.166826 220.955982,325 L226.138465,325 C226.106995,325.166826 226.09126,325.339903 226.09126,325.519231 C226.09126,326.198721 226.320105,326.782049 226.777803,327.269231 C227.2355,327.756413 227.775341,328 228.39734,328 C229.019339,328 229.55918,327.756413 230.016877,327.269231 C230.474575,326.782049 230.70342,326.198721 230.70342,325.519231 C230.70342,325.339903 230.687685,325.166826 230.656215,325 L235.838085,325 C235.806615,325.166826 235.79088,325.339903 235.79088,325.519231 C235.79088,326.198721 236.019725,326.782049 236.477423,327.269231 C236.93512,327.756413 237.474961,328 238.09696,328 C238.707223,328 239.24413,327.759618 239.707695,327.278846 C240.171261,326.798075 240.40304,326.211542 240.40304,325.519231 C240.40304,325.339903 240.387101,325.166826 240.355222,325 L245.537705,325 C245.506235,325.166826 245.4905,325.339903 245.4905,325.519231 C245.4905,326.198721 245.719345,326.782049 246.177043,327.269231 C246.63474,327.756413 247.174581,328 247.79658,328 C248.406843,328 248.94375,327.759618 249.407315,327.278846 C249.870881,326.798075 250.10266,326.211542 250.10266,325.519231 C250.10266,325.339903 250.086721,325.166826 250.054842,325 L255.237325,325 C255.205855,325.166826 255.19012,325.339903 255.19012,325.519231 C255.19012,326.198721 255.418965,326.782049 255.876663,327.269231 C256.33436,327.756413 256.874201,328 257.4962,328 C258.118199,328 258.65804,327.756413 259.115737,327.269231 C259.573435,326.782049 259.80228,326.198721 259.80228,325.519231 C259.80228,325.339903 259.786545,325.166826 259.755075,325 L264.936945,325 C264.905475,325.166826 264.88974,325.339903 264.88974,325.519231 C264.88974,326.198721 265.118585,326.782049 265.576283,327.269231 C266.03398,327.756413 266.573821,328 267.19582,328 C267.806083,328 268.34299,327.759618 268.806555,327.278846 C269.270121,326.798075 269.5019,326.211542 269.5019,325.519231 C269.5019,325.339903 269.485961,325.166826 269.454082,325 L274.636565,325 C274.605095,325.166826 274.58936,325.339903 274.58936,325.519231 C274.58936,326.198721 274.818205,326.782049 275.275903,327.269231 C275.7336,327.756413 276.273441,328 276.89544,328 C277.505703,328 278.04261,327.759618 278.506175,327.278846 C278.969741,326.798075 279.20152,326.211542 279.20152,325.519231 C279.20152,325.339903 279.185581,325.166826 279.153702,325 L284.336185,325 C284.304715,325.166826 284.28898,325.339903 284.28898,325.519231 C284.28898,326.198721 284.517825,326.782049 284.975523,327.269231 C285.43322,327.756413 285.97306,328 286.59506,328 C287.217059,328 287.756899,327.756413 288.214597,327.269231 C288.672295,326.782049 288.90114,326.198721 288.90114,325.519231 C288.90114,325.339903 288.885405,325.166826 288.853935,325 L294.035805,325 C294.004335,325.166826 293.9886,325.339903 293.9886,325.519231 C293.9886,326.198721 294.217445,326.782049 294.675143,327.269231 C295.13284,327.756413 295.67268,328 296.29468,328 C296.904943,328 297.44185,327.759618 297.905415,327.278846 C298.368981,326.798075 298.60076,326.211542 298.60076,325.519231 C298.60076,325.339903 298.584821,325.166826 298.552942,325 L303.735425,325 C303.703955,325.166826 303.68822,325.339903 303.68822,325.519231 C303.68822,326.198721 303.917065,326.782049 304.374762,327.269231 C304.83246,327.756413 305.3723,328 305.9943,328 C306.604563,328 307.14147,327.759618 307.605035,327.278846 C308.068601,326.798075 308.30038,326.211542 308.30038,325.519231 C308.30038,325.339903 308.284441,325.166826 308.252562,325 L313.435045,325 C313.403575,325.166826 313.387839,325.339903 313.387839,325.519231 C313.387839,326.198721 313.616685,326.782049 314.074382,327.269231 C314.53208,327.756413 315.07192,328 315.69392,328 C316.315919,328 316.855759,327.756413 317.313457,327.269231 C317.771155,326.782049 318,326.198721 318,325.519231 C318,325.339903 317.984265,325.166826 317.952795,325 L320,325 L320,334 L0,334 L0,325 L3.04720534,325 Z" id="Rectangle-2" fill="#F0F6FA"></path>
    </g>
</svg>