<?xml version="1.0" encoding="UTF-8"?>
<svg width="320px" height="298px" viewBox="0 0 320 298" version="1.1" xmlns="http://www.w3.org/2000/svg" xmlns:xlink="http://www.w3.org/1999/xlink">
    <!-- Generator: Sketch 54.1 (76490) - https://sketchapp.com -->
    <title>dubancolaai</title>
    <desc>Created with Sketch.</desc>
    <defs>
        <linearGradient x1="-40.4381835%" y1="62.9643238%" x2="115.35292%" y2="38.6029354%" id="linearGradient-1">
            <stop stop-color="#F50057" offset="0%"></stop>
            <stop stop-color="#AA00FF" offset="100%"></stop>
        </linearGradient>
        <filter x="-4.6%" y="-23.1%" width="109.2%" height="146.2%" filterUnits="objectBoundingBox" id="filter-2">
            <feGaussianBlur stdDeviation="4" in="SourceGraphic"></feGaussianBlur>
        </filter>
        <linearGradient x1="-40.4381835%" y1="62.9643238%" x2="127.641461%" y2="34.1649456%" id="linearGradient-3">
            <stop stop-color="#F50057" offset="0%"></stop>
            <stop stop-color="#AA00FF" offset="100%"></stop>
        </linearGradient>
    </defs>
    <g id="dubancolaai" stroke="none" stroke-width="1" fill="none" fill-rule="evenodd">
        <rect fill="#FFFFFF" x="0" y="0" width="320" height="298"></rect>
        <path d="M39.7070312,47.7539062 L39.7070312,50 L31.4160156,50 L31.4160156,36.6699219 L34.0527344,36.6699219 L34.0527344,47.7539062 L39.7070312,47.7539062 Z M45.9140626,48.7402344 C45.5039064,49.5019531 44.6250001,50.15625 43.1015626,50.15625 C41.0800782,50.15625 39.6933595,48.9648438 39.6933595,47.0117188 C39.6933595,45.15625 40.982422,43.9648438 43.3847657,43.9648438 L45.9140626,43.9648438 L45.9140626,43.0273438 C45.9140626,41.9921875 45.2890626,41.4160156 44.2050782,41.4160156 C43.1503907,41.4160156 42.544922,41.9726562 42.4765626,42.8027344 L40.0742189,42.8027344 C40.1523439,41.0742188 41.2656251,39.4726562 44.2539064,39.4726562 C46.6367189,39.4726562 48.4531251,40.5859375 48.4531251,42.9980469 L48.4531251,50 L46.0214845,50 L46.0214845,48.7402344 L45.9140626,48.7402344 Z M43.9316407,48.28125 C45.0351564,48.28125 45.9140626,47.6074219 45.9140626,46.6015625 L45.9140626,45.5078125 L43.9414064,45.5078125 C42.8085939,45.5078125 42.2519532,46.0546875 42.2519532,46.8457031 C42.2519532,47.8125 43.0722657,48.28125 43.9316407,48.28125 Z M45.3281251,38.3984375 L43.5214845,38.3984375 L41.0800782,35.5566406 L43.3457032,35.5566406 L45.3281251,38.3984375 Z M52.8496097,50 L52.8496097,39.6386719 L55.3496097,39.6386719 L55.3496097,41.1230469 L55.4863284,41.1230469 C55.7695315,40.3710938 56.6484378,39.4726562 58.2011722,39.4726562 C59.792969,39.4726562 60.7500003,40.1855469 61.1015628,41.25 L61.2089847,41.25 C61.5507815,40.3710938 62.6250003,39.4726562 64.3632815,39.4726562 C66.5019534,39.4726562 67.7421878,40.8496094 67.7421878,42.9199219 L67.7421878,50 L65.1738284,50 L65.1738284,43.6328125 C65.1738284,42.3144531 64.4609378,41.6210938 63.3671878,41.6210938 C62.2246097,41.6210938 61.5312503,42.4023438 61.5312503,43.7304688 L61.5312503,50 L59.0507815,50 L59.0507815,43.7304688 C59.0507815,42.2363281 58.2792972,41.6210938 57.2343753,41.6210938 C56.2285159,41.6210938 55.4082034,42.2753906 55.4082034,43.7109375 L55.4082034,50 L52.8496097,50 Z M73.5683598,39.453125 C76.6152348,39.453125 78.3046879,41.5429688 78.3046879,44.4042969 L78.3046879,45.1660156 C78.3046879,48.1835938 76.6250004,50.1855469 73.5683598,50.1855469 C70.5117192,50.1855469 68.822266,48.1835938 68.822266,45.1757812 L68.822266,44.4140625 C68.822266,41.5527344 70.5117192,39.453125 73.5683598,39.453125 Z M73.5683598,41.4453125 C72.0839848,41.4453125 71.4199223,42.7246094 71.4199223,44.4042969 L71.4199223,45.2050781 C71.4199223,46.8359375 72.0644535,48.1835938 73.5683598,48.1835938 C75.0625004,48.1835938 75.7070317,46.8457031 75.7070317,45.2050781 L75.7070317,44.4042969 C75.7070317,42.7148438 75.0527348,41.4453125 73.5683598,41.4453125 Z M70.4824223,38.3984375 L72.7187504,35.3710938 L74.447266,35.3710938 L76.6738285,38.3984375 L74.7207035,38.3984375 L73.6074223,36.6992188 L73.5585942,36.6992188 L72.4355473,38.3984375 L70.4824223,38.3984375 Z M72.4746098,52.5488281 C72.4746098,51.8945312 72.9726567,51.3964844 73.587891,51.3964844 C74.2226567,51.3964844 74.7109379,51.8945312 74.7109379,52.5488281 C74.7109379,53.1738281 74.2226567,53.6816406 73.587891,53.6816406 C72.9726567,53.6816406 72.4746098,53.1738281 72.4746098,52.5488281 Z M80.2539067,39.6386719 L80.2539067,37.1582031 L82.7539067,37.1582031 L82.7539067,39.6386719 L84.7656255,39.6386719 L84.7656255,41.6308594 L82.7539067,41.6308594 L82.7539067,46.7382812 C82.7539067,47.7734375 83.1933599,48.0859375 84.257813,48.0859375 C84.4726567,48.0859375 84.6875005,48.0761719 84.804688,48.0664062 L84.804688,49.9707031 C84.6093755,50.0097656 84.1503911,50.0585938 83.632813,50.0585938 C81.054688,50.0585938 80.2050786,49.1894531 80.2050786,47.0703125 L80.2050786,41.6308594 L78.7402349,41.6308594 L78.7402349,39.6386719 L80.2539067,39.6386719 Z M95.2265632,48.4863281 C94.9042976,49.296875 93.9472663,50.15625 92.238282,50.15625 C90.1191413,50.15625 88.6933601,48.9257812 88.6933601,46.484375 L88.6933601,39.6386719 L91.2617195,39.6386719 L91.2617195,45.8007812 C91.2617195,47.5097656 92.2285163,47.9785156 93.2441413,47.9785156 C94.3964851,47.9785156 95.2753913,47.2265625 95.2753913,45.7714844 L95.2753913,39.6386719 L97.5605476,39.6386719 C98.4199226,39.6386719 98.5859382,39.1601562 98.5859382,38.3789062 L98.5859382,37.0117188 L100.646485,37.0117188 L100.646485,38.6425781 C100.646485,40.2050781 99.816407,41.4355469 98.0781257,41.4355469 L97.8535163,41.4355469 L97.8535163,50 L95.3437507,50 L95.3437507,48.4863281 L95.2265632,48.4863281 Z M94.1328132,38.3984375 L92.3261726,38.3984375 L94.3085945,35.5566406 L96.5742195,35.5566406 L94.1328132,38.3984375 Z M100.906251,50 L100.906251,39.6386719 L103.406251,39.6386719 L103.406251,41.1523438 L103.513673,41.1523438 C103.845704,40.4394531 104.79297,39.4726562 106.521485,39.4726562 C108.63086,39.4726562 110.10547,40.7910156 110.10547,43.3300781 L110.10547,50 L107.53711,50 L107.53711,43.8867188 C107.53711,42.2949219 106.619141,41.6601562 105.515626,41.6601562 C104.187501,41.6601562 103.464845,42.6171875 103.464845,43.9257812 L103.464845,50 L100.906251,50 Z M115.921876,51.9042969 C117.298829,51.9042969 118.128907,51.1035156 118.128907,49.7070312 L118.128907,48.2324219 L118.021485,48.2324219 C117.63086,49.140625 116.546876,49.8632812 115.101563,49.8632812 C112.748048,49.8632812 111.146485,48.1738281 111.146485,44.9902344 L111.146485,44.3457031 C111.146485,41.2011719 112.738282,39.5019531 115.101563,39.5019531 C116.527345,39.5019531 117.63086,40.2148438 118.050782,41.1621094 L118.158204,41.1621094 L118.158204,39.6386719 L120.697267,39.6386719 L120.697267,49.8730469 C120.697267,52.7050781 118.226563,53.7890625 115.882813,53.7890625 C112.904298,53.7890625 111.517579,52.3730469 111.371095,50.6445312 L113.861329,50.6445312 C114.027345,51.3769531 114.789063,51.9042969 115.921876,51.9042969 Z M115.98047,41.5527344 C114.613282,41.5527344 113.783204,42.5683594 113.783204,44.4335938 L113.783204,45.0390625 C113.783204,46.8945312 114.613282,47.9296875 115.98047,47.9296875 C117.308595,47.9296875 118.128907,46.8847656 118.128907,45.0390625 L118.128907,44.4335938 C118.128907,42.6074219 117.269532,41.5527344 115.98047,41.5527344 Z M128.75586,39.5019531 C130.16211,39.5019531 131.246095,40.1757812 131.705079,41.1523438 L131.802735,41.1523438 L131.802735,35.9667969 L134.38086,35.9667969 L134.38086,50 L131.851564,50 L131.851564,48.3984375 L131.744142,48.3984375 C131.25586,49.4628906 130.171876,50.1269531 128.75586,50.1269531 C126.236329,50.1269531 124.791017,48.2519531 124.791017,45.2441406 L124.791017,44.375 C124.791017,41.4160156 126.285157,39.5019531 128.75586,39.5019531 Z M129.576173,41.5625 C128.335939,41.5625 127.427735,42.5195312 127.427735,44.4628906 L127.427735,45.1757812 C127.427735,47.1191406 128.335939,48.0761719 129.595704,48.0761719 C130.953126,48.0761719 131.822267,47.0703125 131.822267,45.1855469 L131.822267,44.4628906 C131.822267,42.6464844 130.94336,41.5625 129.576173,41.5625 Z M145.01172,39.6386719 L145.01172,50 L142.501954,50 L142.501954,48.4863281 L142.384767,48.4863281 C142.062501,49.296875 141.10547,50.15625 139.396486,50.15625 C137.277345,50.15625 135.851564,48.9257812 135.851564,46.484375 L135.851564,39.6386719 L138.419923,39.6386719 L138.419923,45.8007812 C138.419923,47.5097656 139.38672,47.9785156 140.402345,47.9785156 C141.554689,47.9785156 142.433595,47.2265625 142.433595,45.7714844 L142.433595,39.6386719 L145.01172,39.6386719 Z M139.357423,52.5488281 C139.357423,51.8945312 139.85547,51.3964844 140.470704,51.3964844 C141.10547,51.3964844 141.593751,51.8945312 141.593751,52.5488281 C141.593751,53.1738281 141.10547,53.6816406 140.470704,53.6816406 C139.85547,53.6816406 139.357423,53.1738281 139.357423,52.5488281 Z M146.560548,50 L146.560548,39.6386719 L149.060548,39.6386719 L149.060548,41.1523438 L149.16797,41.1523438 C149.500001,40.4394531 150.447267,39.4726562 152.175783,39.4726562 C154.285158,39.4726562 155.759767,40.7910156 155.759767,43.3300781 L155.759767,50 L153.191408,50 L153.191408,43.8867188 C153.191408,42.2949219 152.273439,41.6601562 151.169923,41.6601562 C149.841798,41.6601562 149.119142,42.6171875 149.119142,43.9257812 L149.119142,50 L146.560548,50 Z M161.576173,51.9042969 C162.953126,51.9042969 163.783205,51.1035156 163.783205,49.7070312 L163.783205,48.2324219 L163.675783,48.2324219 C163.285158,49.140625 162.201173,49.8632812 160.755861,49.8632812 C158.402345,49.8632812 156.800783,48.1738281 156.800783,44.9902344 L156.800783,44.3457031 C156.800783,41.2011719 158.39258,39.5019531 160.755861,39.5019531 C162.181642,39.5019531 163.285158,40.2148438 163.70508,41.1621094 L163.812501,41.1621094 L163.812501,39.6386719 L166.351564,39.6386719 L166.351564,49.8730469 C166.351564,52.7050781 163.880861,53.7890625 161.537111,53.7890625 C158.558595,53.7890625 157.171876,52.3730469 157.025392,50.6445312 L159.515626,50.6445312 C159.681642,51.3769531 160.443361,51.9042969 161.576173,51.9042969 Z M161.634767,41.5527344 C160.26758,41.5527344 159.437501,42.5683594 159.437501,44.4335938 L159.437501,45.0390625 C159.437501,46.8945312 160.26758,47.9296875 161.634767,47.9296875 C162.962892,47.9296875 163.783205,46.8847656 163.783205,45.0390625 L163.783205,44.4335938 C163.783205,42.6074219 162.92383,41.5527344 161.634767,41.5527344 Z M170.884767,50 L170.884767,35.9667969 L173.453127,35.9667969 L173.453127,41.1523438 L173.560548,41.1523438 C173.89258,40.4394531 174.810548,39.4726562 176.529298,39.4726562 C178.619142,39.4726562 180.113283,40.7910156 180.113283,43.3300781 L180.113283,50 L177.544923,50 L177.544923,43.8867188 C177.544923,42.2949219 176.63672,41.6601562 175.513673,41.6601562 C174.185548,41.6601562 173.453127,42.6171875 173.453127,43.9257812 L173.453127,50 L170.884767,50 Z M185.802736,50.1855469 C182.960939,50.1855469 181.10547,48.4082031 181.10547,45.234375 L181.10547,44.2871094 C181.10547,41.25 182.970705,39.453125 185.695314,39.453125 C188.51758,39.453125 190.265627,41.3769531 190.265627,44.3554688 L190.265627,45.3710938 L183.625002,45.3710938 L183.625002,45.6542969 C183.625002,47.2265625 184.513674,48.2226562 185.822267,48.2226562 C186.847658,48.2226562 187.570314,47.7148438 187.785158,46.875 L190.16797,46.875 C189.92383,48.5351562 188.576174,50.1855469 185.802736,50.1855469 Z M183.625002,43.7402344 L187.775392,43.7402344 L187.775392,43.7207031 C187.775392,42.3828125 186.964845,41.3671875 185.714845,41.3671875 C184.45508,41.3671875 183.625002,42.3925781 183.625002,43.7207031 L183.625002,43.7402344 Z M184.621095,52.5488281 C184.621095,51.8945312 185.119142,51.3964844 185.734377,51.3964844 C186.369142,51.3964844 186.857424,51.8945312 186.857424,52.5488281 C186.857424,53.1738281 186.369142,53.6816406 185.734377,53.6816406 C185.119142,53.6816406 184.621095,53.1738281 184.621095,52.5488281 Z M191.375002,50 L191.375002,39.6386719 L193.875002,39.6386719 L193.875002,41.1523438 L193.982424,41.1523438 C194.314455,40.4394531 195.261721,39.4726562 196.990236,39.4726562 C199.099611,39.4726562 200.574221,40.7910156 200.574221,43.3300781 L200.574221,50 L198.005861,50 L198.005861,43.8867188 C198.005861,42.2949219 197.087892,41.6601562 195.984377,41.6601562 C194.656252,41.6601562 193.933596,42.6171875 193.933596,43.9257812 L193.933596,50 L191.375002,50 Z M204.970705,50 L204.970705,35.9667969 L207.539064,35.9667969 L207.539064,41.1523438 L207.646486,41.1523438 C207.978518,40.4394531 208.896486,39.4726562 210.615236,39.4726562 C212.70508,39.4726562 214.199221,40.7910156 214.199221,43.3300781 L214.199221,50 L211.630861,50 L211.630861,43.8867188 C211.630861,42.2949219 210.722658,41.6601562 209.599611,41.6601562 C208.271486,41.6601562 207.539064,42.6171875 207.539064,43.9257812 L207.539064,50 L204.970705,50 Z M219.937502,39.453125 C222.984377,39.453125 224.67383,41.5429688 224.67383,44.4042969 L224.67383,45.1660156 C224.67383,48.1835938 222.994143,50.1855469 219.937502,50.1855469 C216.880861,50.1855469 215.191408,48.1835938 215.191408,45.1757812 L215.191408,44.4140625 C215.191408,41.5527344 216.880861,39.453125 219.937502,39.453125 Z M219.937502,41.4453125 C218.453127,41.4453125 217.789065,42.7246094 217.789065,44.4042969 L217.789065,45.2050781 C217.789065,46.8359375 218.433596,48.1835938 219.937502,48.1835938 C221.431643,48.1835938 222.076174,46.8457031 222.076174,45.2050781 L222.076174,44.4042969 C222.076174,42.7148438 221.421877,41.4453125 219.937502,41.4453125 Z M220.972658,38.3984375 L219.166018,38.3984375 L216.724611,35.5566406 L218.990236,35.5566406 L220.972658,38.3984375 Z M228.328127,45.1953125 L228.328127,44.3359375 C228.328127,41.4648438 230.046877,39.453125 232.937502,39.453125 C235.55469,39.453125 237.146487,41.1132812 237.20508,43.1054688 L234.832034,43.1054688 C234.695315,42.2460938 234.011721,41.5039062 233.05469,41.5039062 C231.716799,41.5039062 230.906252,42.5976562 230.906252,44.3652344 L230.906252,45.1855469 C230.906252,47.0117188 231.73633,48.125 233.064455,48.125 C234.207034,48.125 234.763674,47.4316406 234.880862,46.640625 L237.253909,46.640625 C237.039065,48.9550781 235.378909,50.1855469 232.927737,50.1855469 C230.066409,50.1855469 228.328127,48.2128906 228.328127,45.1953125 Z M242.562502,39.453125 C245.609377,39.453125 247.298831,41.5429688 247.298831,44.4042969 L247.298831,45.1660156 C247.298831,48.1835938 245.619143,50.1855469 242.562502,50.1855469 C239.505862,50.1855469 237.816409,48.1835938 237.816409,45.1757812 L237.816409,44.4140625 C237.816409,41.5527344 239.505862,39.453125 242.562502,39.453125 Z M242.562502,41.4453125 C241.078127,41.4453125 240.414065,42.7246094 240.414065,44.4042969 L240.414065,45.2050781 C240.414065,46.8359375 241.058596,48.1835938 242.562502,48.1835938 C244.056643,48.1835938 244.701174,46.8457031 244.701174,45.2050781 L244.701174,44.4042969 C244.701174,42.7148438 244.046877,41.4453125 242.562502,41.4453125 Z M243.353518,38.3984375 L241.546877,38.3984375 L243.529299,35.5566406 L245.794924,35.5566406 L243.353518,38.3984375 Z M31.2792969,72 L31.2792969,61.6386719 L33.7792969,61.6386719 L33.7792969,63.1523438 L33.8867188,63.1523438 C34.21875,62.4394531 35.1660156,61.4726562 36.8945312,61.4726562 C39.0039062,61.4726562 40.4785156,62.7910156 40.4785156,65.3300781 L40.4785156,72 L37.9101562,72 L37.9101562,65.8867188 C37.9101562,64.2949219 36.9921875,63.6601562 35.8886719,63.6601562 C34.5605469,63.6601562 33.8378906,64.6171875 33.8378906,65.9257812 L33.8378906,72 L31.2792969,72 Z M41.9394532,72 L41.9394532,57.9667969 L44.5078126,57.9667969 L44.5078126,63.1523438 L44.6152345,63.1523438 C44.9472657,62.4394531 45.8652345,61.4726562 47.5839845,61.4726562 C49.6738282,61.4726562 51.1679689,62.7910156 51.1679689,65.3300781 L51.1679689,72 L48.5996095,72 L48.5996095,65.8867188 C48.5996095,64.2949219 47.6914064,63.6601562 46.5683595,63.6601562 C45.2402345,63.6601562 44.5078126,64.6171875 44.5078126,65.9257812 L44.5078126,72 L41.9394532,72 Z M52.6777346,72 L52.6777346,61.6386719 L55.246094,61.6386719 L55.246094,72 L52.6777346,72 Z M52.5019533,59.0703125 C52.5019533,58.2695312 53.1660158,57.7128906 53.9570315,57.7128906 C54.7578127,57.7128906 55.4121096,58.2695312 55.4121096,59.0703125 C55.4121096,59.8710938 54.7578127,60.4179688 53.9570315,60.4179688 C53.1660158,60.4179688 52.5019533,59.8710938 52.5019533,59.0703125 Z M61.1796878,72.1855469 C58.3378909,72.1855469 56.4824222,70.4082031 56.4824222,67.234375 L56.4824222,66.2871094 C56.4824222,63.25 58.3476565,61.453125 61.0722659,61.453125 C63.8945315,61.453125 65.6425784,63.3769531 65.6425784,66.3554688 L65.6425784,67.3710938 L59.0019534,67.3710938 L59.0019534,67.6542969 C59.0019534,69.2265625 59.8906253,70.2226562 61.199219,70.2226562 C62.2246097,70.2226562 62.9472659,69.7148438 63.1621097,68.875 L65.5449222,68.875 C65.3007815,70.5351562 63.9531253,72.1855469 61.1796878,72.1855469 Z M59.0019534,65.7402344 L63.152344,65.7402344 L63.152344,65.7207031 C63.152344,64.3828125 62.3417972,63.3671875 61.0917972,63.3671875 C59.8320315,63.3671875 59.0019534,64.3925781 59.0019534,65.7207031 L59.0019534,65.7402344 Z M66.1406253,58.2207031 L64.3339847,58.2207031 L61.902344,55.3789062 L64.1582034,55.3789062 L66.1406253,58.2207031 Z M57.9667972,60.3984375 L60.2031253,57.3710938 L61.9316409,57.3710938 L64.1582034,60.3984375 L62.2050784,60.3984375 L61.0917972,58.6992188 L61.042969,58.6992188 L59.9199222,60.3984375 L57.9667972,60.3984375 Z M75.7949223,61.6386719 L75.7949223,72 L73.2851567,72 L73.2851567,70.4863281 L73.1679692,70.4863281 C72.8457035,71.296875 71.8886723,72.15625 70.1796879,72.15625 C68.0605473,72.15625 66.634766,70.9257812 66.634766,68.484375 L66.634766,61.6386719 L69.2031254,61.6386719 L69.2031254,67.8007812 C69.2031254,69.5097656 70.1699223,69.9785156 71.1855473,69.9785156 C72.337891,69.9785156 73.2167973,69.2265625 73.2167973,67.7714844 L73.2167973,61.6386719 L75.7949223,61.6386719 Z M82.8671881,68.4453125 L82.8671881,72 L80.2890631,72 L80.2890631,57.9667969 L82.8671881,57.9667969 L82.8671881,65.8964844 L82.9843756,65.8964844 L86.3632818,61.6386719 L89.3417975,61.6386719 L85.5625006,66.1113281 L89.5957037,72 L86.5585943,72 L83.59961,67.5859375 L82.8671881,68.4453125 Z M90.0312507,72 L90.0312507,57.9667969 L92.5996101,57.9667969 L92.5996101,63.1523438 L92.707032,63.1523438 C93.0390632,62.4394531 93.957032,61.4726562 95.675782,61.4726562 C97.7656257,61.4726562 99.2597663,62.7910156 99.2597663,65.3300781 L99.2597663,72 L96.691407,72 L96.691407,65.8867188 C96.691407,64.2949219 95.7832038,63.6601562 94.660157,63.6601562 C93.332032,63.6601562 92.5996101,64.6171875 92.5996101,65.9257812 L92.5996101,72 L90.0312507,72 Z M106.35547,70.7402344 C105.945313,71.5019531 105.066407,72.15625 103.54297,72.15625 C101.521485,72.15625 100.134766,70.9648438 100.134766,69.0117188 C100.134766,67.15625 101.423829,65.9648438 103.826173,65.9648438 L106.35547,65.9648438 L106.35547,65.0273438 C106.35547,63.9921875 105.73047,63.4160156 104.646485,63.4160156 C103.591798,63.4160156 102.986329,63.9726562 102.91797,64.8027344 L100.515626,64.8027344 C100.593751,63.0742188 101.707032,61.4726562 104.695313,61.4726562 C107.078126,61.4726562 108.894532,62.5859375 108.894532,64.9980469 L108.894532,72 L106.462891,72 L106.462891,70.7402344 L106.35547,70.7402344 Z M104.373048,70.28125 C105.476563,70.28125 106.35547,69.6074219 106.35547,68.6015625 L106.35547,67.5078125 L104.382813,67.5078125 C103.250001,67.5078125 102.69336,68.0546875 102.69336,68.8457031 C102.69336,69.8125 103.513673,70.28125 104.373048,70.28125 Z M105.525391,60.3984375 L103.718751,60.3984375 L105.701173,57.5566406 L107.966798,57.5566406 L105.525391,60.3984375 Z M109.935548,67.1953125 L109.935548,66.3359375 C109.935548,63.4648438 111.654298,61.453125 114.544923,61.453125 C117.16211,61.453125 118.753907,63.1132812 118.812501,65.1054688 L116.439454,65.1054688 C116.302735,64.2460938 115.619142,63.5039062 114.66211,63.5039062 C113.32422,63.5039062 112.513673,64.5976562 112.513673,66.3652344 L112.513673,67.1855469 C112.513673,69.0117188 113.343751,70.125 114.671876,70.125 C115.814454,70.125 116.371095,69.4316406 116.488282,68.640625 L118.861329,68.640625 C118.646485,70.9550781 116.986329,72.1855469 114.535157,72.1855469 C111.673829,72.1855469 109.935548,70.2128906 109.935548,67.1953125 Z M128.462892,72.1367188 C126.998048,72.1367188 125.962892,71.4628906 125.445314,70.3984375 L125.347657,70.3984375 L125.347657,72 L122.808595,72 L122.808595,57.9667969 L125.38672,57.9667969 L125.38672,63.1425781 L125.494142,63.1425781 C125.953126,62.1757812 127.10547,61.5019531 128.472657,61.5019531 C130.826173,61.5019531 132.41797,63.1914062 132.41797,66.3554688 L132.41797,67.2636719 C132.41797,70.359375 130.865235,72.1367188 128.462892,72.1367188 Z M127.652345,70.0859375 C128.91211,70.0859375 129.781251,69.0703125 129.781251,67.1757812 L129.781251,66.4628906 C129.781251,64.5585938 128.91211,63.5625 127.652345,63.5625 C126.265626,63.5625 125.367189,64.5488281 125.367189,66.4628906 L125.367189,67.1660156 C125.367189,69.0800781 126.25586,70.0859375 127.652345,70.0859375 Z M133.664064,72 L133.664064,61.6386719 L136.232423,61.6386719 L136.232423,72 L133.664064,72 Z M133.488282,59.0703125 C133.488282,58.2695312 134.152345,57.7128906 134.943361,57.7128906 C135.744142,57.7128906 136.398439,58.2695312 136.398439,59.0703125 C136.398439,59.8710938 135.744142,60.4179688 134.943361,60.4179688 C134.152345,60.4179688 133.488282,59.8710938 133.488282,59.0703125 Z M142.166017,72.1855469 C139.32422,72.1855469 137.468751,70.4082031 137.468751,67.234375 L137.468751,66.2871094 C137.468751,63.25 139.333986,61.453125 142.058595,61.453125 C144.880861,61.453125 146.628908,63.3769531 146.628908,66.3554688 L146.628908,67.3710938 L139.988283,67.3710938 L139.988283,67.6542969 C139.988283,69.2265625 140.876954,70.2226562 142.185548,70.2226562 C143.210939,70.2226562 143.933595,69.7148438 144.148439,68.875 L146.531251,68.875 C146.287111,70.5351562 144.939454,72.1855469 142.166017,72.1855469 Z M139.988283,65.7402344 L144.138673,65.7402344 L144.138673,65.7207031 C144.138673,64.3828125 143.328126,63.3671875 142.078126,63.3671875 C140.818361,63.3671875 139.988283,64.3925781 139.988283,65.7207031 L139.988283,65.7402344 Z M138.953126,60.3984375 L141.189454,57.3710938 L142.91797,57.3710938 L145.144533,60.3984375 L143.191408,60.3984375 L142.078126,58.6992188 L142.029298,58.6992188 L140.906251,60.3984375 L138.953126,60.3984375 Z M140.984376,74.5488281 C140.984376,73.8945312 141.482423,73.3964844 142.097658,73.3964844 C142.732423,73.3964844 143.220704,73.8945312 143.220704,74.5488281 C143.220704,75.1738281 142.732423,75.6816406 142.097658,75.6816406 C141.482423,75.6816406 140.984376,75.1738281 140.984376,74.5488281 Z M148.54883,61.6386719 L148.54883,59.1582031 L151.04883,59.1582031 L151.04883,61.6386719 L153.060548,61.6386719 L153.060548,63.6308594 L151.04883,63.6308594 L151.04883,68.7382812 C151.04883,69.7734375 151.488283,70.0859375 152.552736,70.0859375 C152.76758,70.0859375 152.982423,70.0761719 153.099611,70.0664062 L153.099611,71.9707031 C152.904298,72.0097656 152.445314,72.0585938 151.927736,72.0585938 C149.349611,72.0585938 148.500001,71.1894531 148.500001,69.0703125 L148.500001,63.6308594 L147.035158,63.6308594 L147.035158,61.6386719 L148.54883,61.6386719 Z M154.287111,70.6914062 C154.287111,69.8613281 154.970705,69.1777344 155.800783,69.1777344 C156.630861,69.1777344 157.314455,69.8613281 157.314455,70.6914062 C157.314455,71.53125 156.630861,72.2148438 155.800783,72.2148438 C154.970705,72.2148438 154.287111,71.53125 154.287111,70.6914062 Z M163.888674,64.5878906 L163.888674,66.140625 C163.888674,68.640625 164.943361,70.0273438 166.808595,70.0273438 C168.429689,70.0273438 169.45508,68.9628906 169.484377,67.46875 L172.023439,67.46875 L172.023439,67.7226562 C172.023439,70.3984375 169.816408,72.2539062 166.789064,72.2539062 C163.234377,72.2539062 161.212892,69.9199219 161.212892,66.1210938 L161.212892,64.5976562 C161.212892,60.7695312 163.234377,58.4160156 166.789064,58.4160156 C169.826174,58.4160156 172.023439,60.3203125 172.023439,63.1035156 L172.023439,63.3476562 L169.484377,63.3476562 C169.45508,61.765625 168.429689,60.6425781 166.808595,60.6425781 C164.943361,60.6425781 163.888674,62.0488281 163.888674,64.5878906 Z M173.132814,72 L173.132814,57.9667969 L175.701174,57.9667969 L175.701174,63.1523438 L175.808596,63.1523438 C176.140627,62.4394531 177.058596,61.4726562 178.777346,61.4726562 C180.867189,61.4726562 182.36133,62.7910156 182.36133,65.3300781 L182.36133,72 L179.792971,72 L179.792971,65.8867188 C179.792971,64.2949219 178.884767,63.6601562 177.761721,63.6601562 C176.433596,63.6601562 175.701174,64.6171875 175.701174,65.9257812 L175.701174,72 L173.132814,72 Z M189.457033,70.7402344 C189.046877,71.5019531 188.167971,72.15625 186.644533,72.15625 C184.623049,72.15625 183.23633,70.9648438 183.23633,69.0117188 C183.23633,67.15625 184.525393,65.9648438 186.927736,65.9648438 L189.457033,65.9648438 L189.457033,65.0273438 C189.457033,63.9921875 188.832033,63.4160156 187.748049,63.4160156 C186.693361,63.4160156 186.087893,63.9726562 186.019533,64.8027344 L183.617189,64.8027344 C183.695314,63.0742188 184.808596,61.4726562 187.796877,61.4726562 C190.179689,61.4726562 191.996096,62.5859375 191.996096,64.9980469 L191.996096,72 L189.564455,72 L189.564455,70.7402344 L189.457033,70.7402344 Z M187.474611,70.28125 C188.578127,70.28125 189.457033,69.6074219 189.457033,68.6015625 L189.457033,67.5078125 L187.484377,67.5078125 C186.351564,67.5078125 185.794924,68.0546875 185.794924,68.8457031 C185.794924,69.8125 186.615236,70.28125 187.474611,70.28125 Z M193.457033,72 L193.457033,61.6386719 L195.957033,61.6386719 L195.957033,63.1523438 L196.064455,63.1523438 C196.396486,62.4394531 197.343752,61.4726562 199.072268,61.4726562 C201.181643,61.4726562 202.656252,62.7910156 202.656252,65.3300781 L202.656252,72 L200.087893,72 L200.087893,65.8867188 C200.087893,64.2949219 199.169924,63.6601562 198.066408,63.6601562 C196.738283,63.6601562 196.015627,64.6171875 196.015627,65.9257812 L196.015627,72 L193.457033,72 Z M203.667971,67.1953125 L203.667971,66.3359375 C203.667971,63.4648438 205.386721,61.453125 208.277346,61.453125 C210.894533,61.453125 212.48633,63.1132812 212.544924,65.1054688 L210.171877,65.1054688 C210.035158,64.2460938 209.351565,63.5039062 208.394533,63.5039062 C207.056643,63.5039062 206.246096,64.5976562 206.246096,66.3652344 L206.246096,67.1855469 C206.246096,69.0117188 207.076174,70.125 208.404299,70.125 C209.546877,70.125 210.103518,69.4316406 210.220705,68.640625 L212.593752,68.640625 C212.378908,70.9550781 210.718752,72.1855469 208.26758,72.1855469 C205.406252,72.1855469 203.667971,70.2128906 203.667971,67.1953125 Z M213.605471,72 L213.605471,57.9667969 L216.17383,57.9667969 L216.17383,63.1523438 L216.281252,63.1523438 C216.613283,62.4394531 217.531252,61.4726562 219.250002,61.4726562 C221.339846,61.4726562 222.833987,62.7910156 222.833987,65.3300781 L222.833987,72 L220.265627,72 L220.265627,65.8867188 C220.265627,64.2949219 219.357424,63.6601562 218.234377,63.6601562 C216.906252,63.6601562 216.17383,64.6171875 216.17383,65.9257812 L216.17383,72 L213.605471,72 Z M229.92969,70.7402344 C229.519534,71.5019531 228.640627,72.15625 227.11719,72.15625 C225.095705,72.15625 223.708987,70.9648438 223.708987,69.0117188 C223.708987,67.15625 224.998049,65.9648438 227.400393,65.9648438 L229.92969,65.9648438 L229.92969,65.0273438 C229.92969,63.9921875 229.30469,63.4160156 228.220705,63.4160156 C227.166018,63.4160156 226.560549,63.9726562 226.49219,64.8027344 L224.089846,64.8027344 C224.167971,63.0742188 225.281252,61.4726562 228.269534,61.4726562 C230.652346,61.4726562 232.468752,62.5859375 232.468752,64.9980469 L232.468752,72 L230.037112,72 L230.037112,70.7402344 L229.92969,70.7402344 Z M227.947268,70.28125 C229.050784,70.28125 229.92969,69.6074219 229.92969,68.6015625 L229.92969,67.5078125 L227.957034,67.5078125 C226.824221,67.5078125 226.26758,68.0546875 226.26758,68.8457031 C226.26758,69.8125 227.087893,70.28125 227.947268,70.28125 Z M233.92969,72 L233.92969,61.6386719 L236.42969,61.6386719 L236.42969,63.1523438 L236.537112,63.1523438 C236.869143,62.4394531 237.816409,61.4726562 239.544924,61.4726562 C241.654299,61.4726562 243.128909,62.7910156 243.128909,65.3300781 L243.128909,72 L240.560549,72 L240.560549,65.8867188 C240.560549,64.2949219 239.642581,63.6601562 238.539065,63.6601562 C237.21094,63.6601562 236.488284,64.6171875 236.488284,65.9257812 L236.488284,72 L233.92969,72 Z M251.871096,63.5625 C250.630862,63.5625 249.732424,64.5195312 249.732424,66.4628906 L249.732424,67.1757812 C249.732424,69.1191406 250.630862,70.0761719 251.890628,70.0761719 C253.248049,70.0761719 254.097659,69.0703125 254.097659,67.1855469 L254.097659,66.4628906 C254.097659,64.6464844 253.238284,63.5625 251.871096,63.5625 Z M254.048831,70.3984375 C253.560549,71.4628906 252.466799,72.1269531 251.050784,72.1269531 C248.531253,72.1269531 247.08594,70.2519531 247.08594,67.2441406 L247.08594,66.375 C247.08594,63.4160156 248.580081,61.5019531 251.050784,61.5019531 C252.457034,61.5019531 253.511721,62.1757812 253.970706,63.1523438 L254.078128,63.1523438 L254.078128,60.7207031 L251.763674,60.7207031 L251.763674,59.2363281 L254.166018,59.2363281 L254.166018,57.9667969 L256.597659,57.9667969 L256.597659,59.2363281 L257.779299,59.2363281 L257.779299,60.7207031 L256.685549,60.7207031 L256.685549,72 L254.156253,72 L254.156253,70.3984375 L254.048831,70.3984375 Z M264.689456,70.4863281 C264.36719,71.296875 263.410159,72.15625 261.701175,72.15625 C259.582034,72.15625 258.156253,70.9257812 258.156253,68.484375 L258.156253,61.6386719 L260.724612,61.6386719 L260.724612,67.8007812 C260.724612,69.5097656 261.691409,69.9785156 262.707034,69.9785156 C263.859378,69.9785156 264.738284,69.2265625 264.738284,67.7714844 L264.738284,61.6386719 L267.02344,61.6386719 C267.882815,61.6386719 268.048831,61.1601562 268.048831,60.3789062 L268.048831,59.0117188 L270.109378,59.0117188 L270.109378,60.6425781 C270.109378,62.2050781 269.2793,63.4355469 267.541018,63.4355469 L267.316409,63.4355469 L267.316409,72 L264.806643,72 L264.806643,70.4863281 L264.689456,70.4863281 Z M274.451175,72.1855469 C271.462893,72.1855469 269.695315,70.3105469 269.695315,67.2246094 L269.695315,66.3945312 C269.695315,63.5234375 271.423831,61.453125 274.451175,61.453125 C275.71094,61.453125 276.169925,61.8046875 277.058597,61.8046875 C277.957034,61.8046875 278.171878,61.3652344 278.171878,60.5546875 L278.171878,59.0117188 L280.232425,59.0117188 L280.232425,60.75 C280.232425,62.1660156 279.666018,63.2109375 278.357425,63.4257812 L278.357425,63.5136719 C278.767581,64.1386719 279.177737,65.2128906 279.177737,66.3847656 L279.177737,67.2148438 C279.177737,70.3007812 277.419925,72.1855469 274.451175,72.1855469 Z M274.441409,63.4453125 C272.888675,63.4453125 272.292972,64.8710938 272.292972,66.4433594 L272.292972,67.1953125 C272.292972,68.7480469 272.869143,70.1835938 274.441409,70.1835938 C276.013675,70.1835938 276.580081,68.7382812 276.580081,67.1953125 L276.580081,66.4433594 C276.580081,64.8710938 275.994143,63.4453125 274.441409,63.4453125 Z M273.337893,74.5488281 C273.337893,73.8945312 273.83594,73.3964844 274.451175,73.3964844 C275.08594,73.3964844 275.574222,73.8945312 275.574222,74.5488281 C275.574222,75.1738281 275.08594,75.6816406 274.451175,75.6816406 C273.83594,75.6816406 273.337893,75.1738281 273.337893,74.5488281 Z M280.267581,67.1953125 L280.267581,66.3359375 C280.267581,63.4648438 281.986331,61.453125 284.876956,61.453125 C287.494144,61.453125 289.08594,63.1132812 289.144534,65.1054688 L286.771487,65.1054688 C286.634769,64.2460938 285.951175,63.5039062 284.994144,63.5039062 C283.656253,63.5039062 282.845706,64.5976562 282.845706,66.3652344 L282.845706,67.1855469 C282.845706,69.0117188 283.675784,70.125 285.003909,70.125 C286.146487,70.125 286.703128,69.4316406 286.820315,68.640625 L289.193362,68.640625 C288.978519,70.9550781 287.318362,72.1855469 284.86719,72.1855469 C282.005862,72.1855469 280.267581,70.2128906 280.267581,67.1953125 Z M32.0898438,83.6386719 L32.0898438,81.1582031 L34.5898438,81.1582031 L34.5898438,83.6386719 L36.6015625,83.6386719 L36.6015625,85.6308594 L34.5898438,85.6308594 L34.5898438,90.7382812 C34.5898438,91.7734375 35.0292969,92.0859375 36.09375,92.0859375 C36.3085938,92.0859375 36.5234375,92.0761719 36.640625,92.0664062 L36.640625,93.9707031 C36.4453125,94.0097656 35.9863281,94.0585938 35.46875,94.0585938 C32.890625,94.0585938 32.0410156,93.1894531 32.0410156,91.0703125 L32.0410156,85.6308594 L30.5761719,85.6308594 L30.5761719,83.6386719 L32.0898438,83.6386719 Z M43.3554689,92.7402344 C42.9453126,93.5019531 42.0664064,94.15625 40.5429689,94.15625 C38.5214845,94.15625 37.1347657,92.9648438 37.1347657,91.0117188 C37.1347657,89.15625 38.4238282,87.9648438 40.826172,87.9648438 L43.3554689,87.9648438 L43.3554689,87.0273438 C43.3554689,85.9921875 42.7304689,85.4160156 41.6464845,85.4160156 C40.591797,85.4160156 39.9863282,85.9726562 39.9179689,86.8027344 L37.5156251,86.8027344 C37.5937501,85.0742188 38.7070314,83.4726562 41.6953126,83.4726562 C44.0781251,83.4726562 45.8945314,84.5859375 45.8945314,86.9980469 L45.8945314,94 L43.4628907,94 L43.4628907,92.7402344 L43.3554689,92.7402344 Z M41.373047,92.28125 C42.4765626,92.28125 43.3554689,91.6074219 43.3554689,90.6015625 L43.3554689,89.5078125 L41.3828126,89.5078125 C40.2500001,89.5078125 39.6933595,90.0546875 39.6933595,90.8457031 C39.6933595,91.8125 40.513672,92.28125 41.373047,92.28125 Z M40.6406251,96.5488281 C40.6406251,95.8945312 41.138672,95.3964844 41.7539064,95.3964844 C42.388672,95.3964844 42.8769532,95.8945312 42.8769532,96.5488281 C42.8769532,97.1738281 42.388672,97.6816406 41.7539064,97.6816406 C41.138672,97.6816406 40.6406251,97.1738281 40.6406251,96.5488281 Z M51.6816408,83.453125 C54.7285158,83.453125 56.417969,85.5429688 56.417969,88.4042969 L56.417969,89.1660156 C56.417969,92.1835938 54.7382815,94.1855469 51.6816408,94.1855469 C48.6250002,94.1855469 46.9355471,92.1835938 46.9355471,89.1757812 L46.9355471,88.4140625 C46.9355471,85.5527344 48.6250002,83.453125 51.6816408,83.453125 Z M51.6816408,85.4453125 C50.1972658,85.4453125 49.5332033,86.7246094 49.5332033,88.4042969 L49.5332033,89.2050781 C49.5332033,90.8359375 50.1777346,92.1835938 51.6816408,92.1835938 C53.1757815,92.1835938 53.8203127,90.8457031 53.8203127,89.2050781 L53.8203127,88.4042969 C53.8203127,86.7148438 53.1660158,85.4453125 51.6816408,85.4453125 Z M60.4921879,94 L60.4921879,83.6386719 L63.0605473,83.6386719 L63.0605473,85.0644531 L63.1679692,85.0644531 C63.4023442,84.4003906 64.1738285,83.4824219 65.5898442,83.4824219 C65.9414067,83.4824219 66.2050785,83.5117188 66.4101567,83.5507812 L66.4101567,85.7773438 C66.2050785,85.71875 65.7949223,85.6894531 65.3945317,85.6894531 C63.7050785,85.6894531 63.119141,86.7050781 63.119141,88.0917969 L63.119141,94 L60.4921879,94 Z M72.6464849,92.7402344 C72.2363286,93.5019531 71.3574224,94.15625 69.8339849,94.15625 C67.8125005,94.15625 66.4257817,92.9648438 66.4257817,91.0117188 C66.4257817,89.15625 67.7148442,87.9648438 70.117188,87.9648438 L72.6464849,87.9648438 L72.6464849,87.0273438 C72.6464849,85.9921875 72.0214849,85.4160156 70.9375005,85.4160156 C69.882813,85.4160156 69.2773442,85.9726562 69.2089849,86.8027344 L66.8066411,86.8027344 C66.8847661,85.0742188 67.9980474,83.4726562 70.9863286,83.4726562 C73.3691411,83.4726562 75.1855474,84.5859375 75.1855474,86.9980469 L75.1855474,94 L72.7539067,94 L72.7539067,92.7402344 L72.6464849,92.7402344 Z M70.664063,92.28125 C71.7675786,92.28125 72.6464849,91.6074219 72.6464849,90.6015625 L72.6464849,89.5078125 L70.6738286,89.5078125 C69.5410161,89.5078125 68.9843755,90.0546875 68.9843755,90.8457031 C68.9843755,91.8125 69.804688,92.28125 70.664063,92.28125 Z M81.7304695,94 L78.3125007,83.6386719 L81.0566413,83.6386719 L83.1660163,91.4414062 L83.2636726,91.4414062 L85.597657,83.6386719 L88.2441413,83.6386719 L84.6503913,94 L81.7304695,94 Z M94.1777352,92.7402344 C93.7675789,93.5019531 92.8886727,94.15625 91.3652352,94.15625 C89.3437508,94.15625 87.9570321,92.9648438 87.9570321,91.0117188 C87.9570321,89.15625 89.2460946,87.9648438 91.6484383,87.9648438 L94.1777352,87.9648438 L94.1777352,87.0273438 C94.1777352,85.9921875 93.5527352,85.4160156 92.4687508,85.4160156 C91.4140633,85.4160156 90.8085946,85.9726562 90.7402352,86.8027344 L88.3378914,86.8027344 C88.4160164,85.0742188 89.5292977,83.4726562 92.5175789,83.4726562 C94.9003914,83.4726562 96.7167977,84.5859375 96.7167977,86.9980469 L96.7167977,94 L94.2851571,94 L94.2851571,92.7402344 L94.1777352,92.7402344 Z M92.1953133,92.28125 C93.2988289,92.28125 94.1777352,91.6074219 94.1777352,90.6015625 L94.1777352,89.5078125 L92.2050789,89.5078125 C91.0722664,89.5078125 90.5156258,90.0546875 90.5156258,90.8457031 C90.5156258,91.8125 91.3359383,92.28125 92.1953133,92.28125 Z M93.5917977,82.3984375 L91.7851571,82.3984375 L89.3437508,79.5566406 L91.6093758,79.5566406 L93.5917977,82.3984375 Z M105.488282,85.5625 C104.248048,85.5625 103.34961,86.5195312 103.34961,88.4628906 L103.34961,89.1757812 C103.34961,91.1191406 104.248048,92.0761719 105.507813,92.0761719 C106.865235,92.0761719 107.714845,91.0703125 107.714845,89.1855469 L107.714845,88.4628906 C107.714845,86.6464844 106.85547,85.5625 105.488282,85.5625 Z M107.666017,92.3984375 C107.177735,93.4628906 106.083985,94.1269531 104.66797,94.1269531 C102.148438,94.1269531 100.703126,92.2519531 100.703126,89.2441406 L100.703126,88.375 C100.703126,85.4160156 102.197267,83.5019531 104.66797,83.5019531 C106.07422,83.5019531 107.128907,84.1757812 107.587892,85.1523438 L107.695313,85.1523438 L107.695313,82.7207031 L105.38086,82.7207031 L105.38086,81.2363281 L107.783204,81.2363281 L107.783204,79.9667969 L110.214845,79.9667969 L110.214845,81.2363281 L111.396485,81.2363281 L111.396485,82.7207031 L110.302735,82.7207031 L110.302735,94 L107.773438,94 L107.773438,92.3984375 L107.666017,92.3984375 Z M116.16797,94.1855469 C113.326173,94.1855469 111.470704,92.4082031 111.470704,89.234375 L111.470704,88.2871094 C111.470704,85.25 113.335939,83.453125 116.060548,83.453125 C118.882814,83.453125 120.63086,85.3769531 120.63086,88.3554688 L120.63086,89.3710938 L113.990235,89.3710938 L113.990235,89.6542969 C113.990235,91.2265625 114.878907,92.2226562 116.187501,92.2226562 C117.212892,92.2226562 117.935548,91.7148438 118.150392,90.875 L120.533204,90.875 C120.289064,92.5351562 118.941407,94.1855469 116.16797,94.1855469 Z M113.990235,87.7402344 L118.140626,87.7402344 L118.140626,87.7207031 C118.140626,86.3828125 117.330079,85.3671875 116.080079,85.3671875 C114.820314,85.3671875 113.990235,86.3925781 113.990235,87.7207031 L113.990235,87.7402344 Z M117.447267,77.9648438 L117.447267,76.8417969 C117.642579,76.7441406 118.023439,76.6660156 118.482423,76.6660156 C119.76172,76.6660156 120.562501,77.3886719 120.562501,78.4433594 C120.562501,79.4296875 119.927735,79.9960938 119.048829,80.3769531 L118.35547,79.4980469 C118.951173,79.2148438 119.205079,78.9609375 119.205079,78.5703125 C119.205079,78.1308594 118.82422,77.7988281 118.238282,77.7988281 C117.916017,77.7988281 117.613282,77.8867188 117.447267,77.9648438 Z M112.955079,82.3984375 L115.191407,79.3710938 L116.919923,79.3710938 L119.146485,82.3984375 L117.19336,82.3984375 L116.080079,80.6992188 L116.031251,80.6992188 L114.908204,82.3984375 L112.955079,82.3984375 Z M124.744142,94 L124.744142,79.9667969 L127.322267,79.9667969 L127.322267,94 L124.744142,94 Z M134.632814,92.7402344 C134.222658,93.5019531 133.343751,94.15625 131.820314,94.15625 C129.79883,94.15625 128.412111,92.9648438 128.412111,91.0117188 C128.412111,89.15625 129.701173,87.9648438 132.103517,87.9648438 L134.632814,87.9648438 L134.632814,87.0273438 C134.632814,85.9921875 134.007814,85.4160156 132.92383,85.4160156 C131.869142,85.4160156 131.263673,85.9726562 131.195314,86.8027344 L128.79297,86.8027344 C128.871095,85.0742188 129.984376,83.4726562 132.972658,83.4726562 C135.35547,83.4726562 137.171876,84.5859375 137.171876,86.9980469 L137.171876,94 L134.740236,94 L134.740236,92.7402344 L134.632814,92.7402344 Z M132.650392,92.28125 C133.753908,92.28125 134.632814,91.6074219 134.632814,90.6015625 L134.632814,89.5078125 L132.660158,89.5078125 C131.527345,89.5078125 130.970705,90.0546875 130.970705,90.8457031 C130.970705,91.8125 131.791017,92.28125 132.650392,92.28125 Z M134.046876,82.3984375 L132.240236,82.3984375 L129.79883,79.5566406 L132.064455,79.5566406 L134.046876,82.3984375 Z M138.632814,94 L138.632814,83.6386719 L141.132814,83.6386719 L141.132814,85.1230469 L141.269533,85.1230469 C141.552736,84.3710938 142.431642,83.4726562 143.984376,83.4726562 C145.576173,83.4726562 146.533205,84.1855469 146.884767,85.25 L146.992189,85.25 C147.333986,84.3710938 148.408205,83.4726562 150.146486,83.4726562 C152.285158,83.4726562 153.525392,84.8496094 153.525392,86.9199219 L153.525392,94 L150.957033,94 L150.957033,87.6328125 C150.957033,86.3144531 150.244142,85.6210938 149.150392,85.6210938 C148.007814,85.6210938 147.314455,86.4023438 147.314455,87.7304688 L147.314455,94 L144.833986,94 L144.833986,87.7304688 C144.833986,86.2363281 144.062501,85.6210938 143.01758,85.6210938 C142.01172,85.6210938 141.191408,86.2753906 141.191408,87.7109375 L141.191408,94 L138.632814,94 Z M157.541017,89.1953125 L157.541017,88.3359375 C157.541017,85.4648438 159.259767,83.453125 162.150392,83.453125 C164.76758,83.453125 166.359377,85.1132812 166.41797,87.1054688 L164.044924,87.1054688 C163.908205,86.2460938 163.224611,85.5039062 162.26758,85.5039062 C160.929689,85.5039062 160.119142,86.5976562 160.119142,88.3652344 L160.119142,89.1855469 C160.119142,91.0117188 160.94922,92.125 162.277345,92.125 C163.419924,92.125 163.976564,91.4316406 164.093752,90.640625 L166.466799,90.640625 C166.251955,92.9550781 164.591799,94.1855469 162.140627,94.1855469 C159.279299,94.1855469 157.541017,92.2128906 157.541017,89.1953125 Z M167.478517,94 L167.478517,79.9667969 L170.046877,79.9667969 L170.046877,85.1523438 L170.154299,85.1523438 C170.48633,84.4394531 171.404299,83.4726562 173.123049,83.4726562 C175.212892,83.4726562 176.707033,84.7910156 176.707033,87.3300781 L176.707033,94 L174.138674,94 L174.138674,87.8867188 C174.138674,86.2949219 173.230471,85.6601562 172.107424,85.6601562 C170.779299,85.6601562 170.046877,86.6171875 170.046877,87.9257812 L170.046877,94 L167.478517,94 Z M182.445314,83.453125 C185.492189,83.453125 187.181643,85.5429688 187.181643,88.4042969 L187.181643,89.1660156 C187.181643,92.1835938 185.501955,94.1855469 182.445314,94.1855469 C179.388674,94.1855469 177.699221,92.1835938 177.699221,89.1757812 L177.699221,88.4140625 C177.699221,85.5527344 179.388674,83.453125 182.445314,83.453125 Z M182.445314,85.4453125 C180.960939,85.4453125 180.296877,86.7246094 180.296877,88.4042969 L180.296877,89.2050781 C180.296877,90.8359375 180.941408,92.1835938 182.445314,92.1835938 C183.939455,92.1835938 184.583986,90.8457031 184.583986,89.2050781 L184.583986,88.4042969 C184.583986,86.7148438 183.929689,85.4453125 182.445314,85.4453125 Z" id="Làmộtứngdụnghẹnhòcónhiềukhácbiệt.Chanchanđượctạoravàđểlàmcho" fill="#343D51" fill-rule="nonzero"></path>
        <text id="&lt;-Việc-tìm-được-một" font-family="Georgia-Italic, Georgia" font-size="14" font-style="italic" font-weight="normal" line-spacing="22" fill="#5D6A80">
            <tspan x="30" y="127">&lt; Việc tìm được một tình yêu thực sự trở </tspan>
            <tspan x="30" y="149">nên đơn giản hơn, đơn giản hơn với tất </tspan>
            <tspan x="30" y="171">cả mọi người /&gt;</tspan>
        </text>
        <path d="M288,211 L288,253 C288,255.761424 285.761424,258 283,258 L33,258 C30.2385763,258 28,255.761424 28,253 L28,211 C28,208.238576 30.2385763,206 33,206 L283,206 C285.761424,206 288,208.238576 288,211 Z" id="Triangle" fill-opacity="0.5" fill="url(#linearGradient-1)" filter="url(#filter-2)"></path>
        <path d="M290,209 L290,251 C290,253.761424 287.761424,256 285,256 L35,256 C32.2385763,256 30,253.761424 30,251 L30,209 C30,206.238576 32.2385763,204 35,204 L285,204 C287.761424,204 290,206.238576 290,209 Z" id="Triangle" fill="url(#linearGradient-3)"></path>
        <text id="Tìm-hiểu-về-chanchan" font-family="SFCompactDisplay-Semibold, SF Compact Display" font-size="18" font-weight="500" line-spacing="20" letter-spacing="-0.720000029" fill="#FFFFFF">
            <tspan x="80" y="235">Tìm hiểu về chanchan</tspan>
        </text>
        <text id="Đăng-ký" font-family="SFCompactDisplay-Semibold, SF Compact Display" font-size="18" font-weight="500" line-spacing="20" letter-spacing="-0.54" fill="#556279" text-decoration="underline">
            <tspan x="129.5" y="293">Đăng ký</tspan>
        </text>
    </g>
</svg>