<?xml version="1.0" encoding="UTF-8"?>
<svg width="320px" height="701px" viewBox="0 0 320 701" version="1.1" xmlns="http://www.w3.org/2000/svg" xmlns:xlink="http://www.w3.org/1999/xlink">
    <!-- Generator: Sketch 54.1 (76490) - https://sketchapp.com -->
    <title>hongvan_overlay</title>
    <desc>Created with Sketch.</desc>
    <defs>
        <path d="M164.83205,647.248075 L170.963533,656.4453 C171.269886,656.904828 171.145712,657.525698 170.686183,657.83205 C170.521916,657.941562 170.328908,658 170.131483,658 L157.868517,658 C157.316232,658 156.868517,657.552285 156.868517,657 C156.868517,656.802575 156.926955,656.609567 157.036467,656.4453 L163.16795,647.248075 C163.474302,646.788547 164.095172,646.664373 164.5547,646.970725 C164.664552,647.04396 164.758815,647.138223 164.83205,647.248075 Z" id="path-1"></path>
        <filter x="-3.9%" y="-5.8%" width="107.9%" height="118.3%" filterUnits="objectBoundingBox" id="filter-2">
            <feGaussianBlur stdDeviation="1" in="SourceAlpha" result="shadowBlurInner1"></feGaussianBlur>
            <feOffset dx="1" dy="1" in="shadowBlurInner1" result="shadowOffsetInner1"></feOffset>
            <feComposite in="shadowOffsetInner1" in2="SourceAlpha" operator="arithmetic" k2="-1" k3="1" result="shadowInnerInner1"></feComposite>
            <feColorMatrix values="0 0 0 0 0   0 0 0 0 0   0 0 0 0 0  0 0 0 0.1 0" type="matrix" in="shadowInnerInner1"></feColorMatrix>
        </filter>
        <linearGradient x1="0%" y1="21.875%" x2="378.796276%" y2="224.135345%" id="linearGradient-3">
            <stop stop-color="#F50057" offset="0%"></stop>
            <stop stop-color="#AA00FF" offset="100%"></stop>
        </linearGradient>
        <path d="M166.83205,643.248075 L172.963533,652.4453 C173.269886,652.904828 173.145712,653.525698 172.686183,653.83205 C172.521916,653.941562 172.328908,654 172.131483,654 L159.868517,654 C159.316232,654 158.868517,653.552285 158.868517,653 C158.868517,652.802575 158.926955,652.609567 159.036467,652.4453 L165.16795,643.248075 C165.474302,642.788547 166.095172,642.664373 166.5547,642.970725 C166.664552,643.04396 166.758815,643.138223 166.83205,643.248075 Z" id="path-4"></path>
        <filter x="-28.9%" y="-39.1%" width="170.4%" height="201.6%" filterUnits="objectBoundingBox" id="filter-5">
            <feOffset dx="1" dy="1" in="SourceAlpha" result="shadowOffsetOuter1"></feOffset>
            <feGaussianBlur stdDeviation="2" in="shadowOffsetOuter1" result="shadowBlurOuter1"></feGaussianBlur>
            <feColorMatrix values="0 0 0 0 0   0 0 0 0 0   0 0 0 0 0  0 0 0 0.5 0" type="matrix" in="shadowBlurOuter1"></feColorMatrix>
        </filter>
    </defs>
    <g id="hongvan_overlay" stroke="none" stroke-width="1" fill="none" fill-rule="evenodd">
        <path d="M0,4.390722 L5.18053687,1.2824918 C8.12963131,-0.486912525 11.8292691,-0.42095236 14.7134166,1.45245177 L15.0975734,1.70198164 C18.0790394,3.63859926 21.9211445,3.63859926 24.9026105,1.70198164 L25.0976193,1.57531326 C28.0790854,-0.361304364 31.9211905,-0.361304364 34.9026565,1.57531326 L35.0976653,1.70198164 C38.0791314,3.63859926 41.9212364,3.63859926 44.9027025,1.70198164 L45.0977113,1.57531326 C48.0791773,-0.361304364 51.9212824,-0.361304364 54.9027484,1.57531326 L55.0977572,1.70198164 C58.0792233,3.63859926 61.9213284,3.63859926 64.9027944,1.70198164 L65.0978032,1.57531326 C68.0792693,-0.361304364 71.9213743,-0.361304364 74.9028404,1.57531326 L75.0978492,1.70198164 C78.0793152,3.63859926 81.9214203,3.63859926 84.9028864,1.70198164 L85.0978952,1.57531326 C88.0793612,-0.361304364 91.9214663,-0.361304364 94.9029323,1.57531326 L95.0979411,1.70198164 C98.0794072,3.63859926 101.921512,3.63859926 104.902978,1.70198164 L105.096671,1.57616841 C108.078808,-0.360885317 111.921897,-0.360413913 114.903559,1.57737135 L115.09552,1.70212677 C118.078191,3.64056759 121.922759,3.64033058 124.90519,1.70152201 L125.094187,1.57865984 C128.076772,-0.360248468 131.921565,-0.360377705 134.904281,1.57833009 L135.094379,1.70189066 C138.076911,3.64047888 141.921434,3.64047888 144.903966,1.70189066 L145.094425,1.57809556 C148.076957,-0.360492659 151.92148,-0.360492659 154.904012,1.57809556 L155.094471,1.70189066 C158.077003,3.64047888 161.921526,3.64047888 164.904058,1.70189066 L165.094517,1.57809556 C168.077049,-0.360492659 171.921572,-0.360492659 174.904104,1.57809556 L175.094563,1.70189066 C178.077095,3.64047888 181.921618,3.64047888 184.90415,1.70189066 L185.094609,1.57809556 C188.077141,-0.360492659 191.921664,-0.360492659 194.904196,1.57809556 L195.094655,1.70189066 C198.077187,3.64047888 201.92171,3.64047888 204.904242,1.70189066 L205.094701,1.57809556 C208.077233,-0.360492659 211.921756,-0.360492659 214.904287,1.57809556 L215.094747,1.70189066 C218.077279,3.64047888 221.921802,3.64047888 224.904333,1.70189066 L225.094793,1.57809556 C228.077325,-0.360492659 231.921848,-0.360492659 234.904379,1.57809556 L235.094839,1.70189066 C238.077371,3.64047888 241.921894,3.64047888 244.904425,1.70189066 L245.094885,1.57809556 C248.077417,-0.360492659 251.92194,-0.360492659 254.904471,1.57809556 L255.094931,1.70189066 C258.077463,3.64047888 261.921986,3.64047888 264.904517,1.70189066 L265.094977,1.57809556 C268.077509,-0.360492659 271.922032,-0.360492659 274.904563,1.57809556 L275.095023,1.70189066 C278.077555,3.64047888 281.922078,3.64047888 284.904609,1.70189066 L285.095069,1.57809556 C288.077601,-0.360492659 291.922124,-0.360492659 294.904655,1.57809556 L295.095115,1.70189066 C298.077647,3.64047888 301.92217,3.64047888 304.904701,1.70189066 L305.095161,1.57809556 C308.077692,-0.360492659 311.922216,-0.360492659 314.904747,1.57809556 L320,4.88991193 L320,692 L0,692 L0,4.390722 Z M24.9986208,41.9989849 C22.2371971,41.9989849 19.9986208,44.2375612 19.9986208,46.9989849 L19.9986208,512.987095 C19.9986208,515.748519 22.2371971,517.987095 24.9986208,517.987095 L294.999908,517.987095 C297.761332,517.987095 299.999908,515.748519 299.999908,512.987095 L299.999908,46.9989849 C299.999908,44.2375612 297.761332,41.9989849 294.999908,41.9989849 L24.9986208,41.9989849 Z" id="Rectangle-3" fill="#E1F5FE"></path>
        <path d="M0.00147110516,693.390798 L5.18185728,690.282566 C8.13100257,688.513079 11.8307452,688.579042 14.7149396,690.452532 L15.0988505,690.701909 C18.0803644,692.638615 21.9225778,692.638615 24.9040917,690.701909 L25.0988505,690.575399 C28.0803644,688.638693 31.9225778,688.638693 34.9040917,690.575399 L35.0988505,690.701909 C38.0803644,692.638615 41.9225778,692.638615 44.9040917,690.701909 L45.0988505,690.575399 C48.0803644,688.638693 51.9225778,688.638693 54.9040917,690.575399 L55.0988505,690.701909 C58.0803644,692.638615 61.9225778,692.638615 64.9040917,690.701909 L65.0988505,690.575399 C68.0803644,688.638693 71.9225778,688.638693 74.9040917,690.575399 L75.0988505,690.701909 C78.0803644,692.638615 81.9225778,692.638615 84.9040917,690.701909 L85.0988505,690.575399 C88.0803644,688.638693 91.9225778,688.638693 94.9040917,690.575399 L95.0988505,690.701909 C98.0803644,692.638615 101.922578,692.638615 104.904092,690.701909 L105.097534,690.576255 C108.079719,688.639113 111.922917,688.639584 114.904627,690.577458 L115.096337,690.702054 C118.079056,692.640583 121.923732,692.640346 124.906212,690.701449 L125.094958,690.578746 C128.077591,688.639749 131.922493,688.63962 134.905256,690.578416 L135.095105,690.701818 C138.077684,692.640495 141.922316,692.640495 144.904895,690.701818 L145.095105,690.578182 C148.077684,688.639505 151.922316,688.639505 154.904895,690.578182 L155.095105,690.701818 C158.077684,692.640495 161.922316,692.640495 164.904895,690.701818 L165.095105,690.578182 C168.077684,688.639505 171.922316,688.639505 174.904895,690.578182 L175.095105,690.701818 C178.077684,692.640495 181.922316,692.640495 184.904895,690.701818 L185.095105,690.578182 C188.077684,688.639505 191.922316,688.639505 194.904895,690.578182 L195.095105,690.701818 C198.077684,692.640495 201.922316,692.640495 204.904895,690.701818 L205.095105,690.578182 C208.077684,688.639505 211.922316,688.639505 214.904895,690.578182 L215.095105,690.701818 C218.077684,692.640495 221.922316,692.640495 224.904895,690.701818 L225.095105,690.578182 C228.077684,688.639505 231.922316,688.639505 234.904895,690.578182 L235.095105,690.701818 C238.077684,692.640495 241.922316,692.640495 244.904895,690.701818 L245.095105,690.578182 C248.077684,688.639505 251.922316,688.639505 254.904895,690.578182 L255.095105,690.701818 C258.077684,692.640495 261.922316,692.640495 264.904895,690.701818 L265.095105,690.578182 C268.077684,688.639505 271.922316,688.639505 274.904895,690.578182 L275.095105,690.701818 C278.077684,692.640495 281.922316,692.640495 284.904895,690.701818 L285.095105,690.578182 C288.077684,688.639505 291.922316,688.639505 294.904895,690.578182 L295.095105,690.701818 C298.077684,692.640495 301.922316,692.640495 304.904895,690.701818 L305.095105,690.578182 C308.077684,688.639505 311.922316,688.639505 314.904895,690.578182 L320,693.89 L320,701 L0,701 L0.00147110516,693.390798 Z" id="Rectangle" fill="#E1F5FE" transform="translate(160.000000, 695.000000) scale(1, -1) translate(-160.000000, -695.000000) "></path>
        <g id="Triangle" transform="translate(164.000000, 652.000000) rotate(90.000000) translate(-164.000000, -652.000000) " fill="black" fill-opacity="1">
            <use filter="url(#filter-2)" xlink:href="#path-1"></use>
        </g>
        <g id="Triangle" opacity="0.8" transform="translate(166.000000, 648.000000) rotate(90.000000) translate(-166.000000, -648.000000) ">
            <use fill="black" fill-opacity="1" filter="url(#filter-5)" xlink:href="#path-4"></use>
            <use fill="url(#linearGradient-3)" fill-rule="evenodd" xlink:href="#path-4"></use>
        </g>
    </g>
</svg>