<?xml version="1.0" encoding="UTF-8"?>
<svg width="320px" height="695px" viewBox="0 0 320 695" version="1.1" xmlns="http://www.w3.org/2000/svg" xmlns:xlink="http://www.w3.org/1999/xlink">
    <!-- Generator: Sketch 54.1 (76490) - https://sketchapp.com -->
    <title>hongvan_pre</title>
    <desc>Created with Sketch.</desc>
    <defs>
        <path d="M164.83205,650.248075 L170.963533,659.4453 C171.269886,659.904828 171.145712,660.525698 170.686183,660.83205 C170.521916,660.941562 170.328908,661 170.131483,661 L157.868517,661 C157.316232,661 156.868517,660.552285 156.868517,660 C156.868517,659.802575 156.926955,659.609567 157.036467,659.4453 L163.16795,650.248075 C163.474302,649.788547 164.095172,649.664373 164.5547,649.970725 C164.664552,650.04396 164.758815,650.138223 164.83205,650.248075 Z" id="path-1"></path>
        <filter x="-3.9%" y="-5.8%" width="107.9%" height="118.3%" filterUnits="objectBoundingBox" id="filter-2">
            <feGaussianBlur stdDeviation="1" in="SourceAlpha" result="shadowBlurInner1"></feGaussianBlur>
            <feOffset dx="1" dy="1" in="shadowBlurInner1" result="shadowOffsetInner1"></feOffset>
            <feComposite in="shadowOffsetInner1" in2="SourceAlpha" operator="arithmetic" k2="-1" k3="1" result="shadowInnerInner1"></feComposite>
            <feColorMatrix values="0 0 0 0 0   0 0 0 0 0   0 0 0 0 0  0 0 0 0.1 0" type="matrix" in="shadowInnerInner1"></feColorMatrix>
        </filter>
        <linearGradient x1="0%" y1="21.875%" x2="378.796276%" y2="224.135345%" id="linearGradient-3">
            <stop stop-color="#F50057" offset="0%"></stop>
            <stop stop-color="#AA00FF" offset="100%"></stop>
        </linearGradient>
        <path d="M166.83205,646.248075 L172.963533,655.4453 C173.269886,655.904828 173.145712,656.525698 172.686183,656.83205 C172.521916,656.941562 172.328908,657 172.131483,657 L159.868517,657 C159.316232,657 158.868517,656.552285 158.868517,656 C158.868517,655.802575 158.926955,655.609567 159.036467,655.4453 L165.16795,646.248075 C165.474302,645.788547 166.095172,645.664373 166.5547,645.970725 C166.664552,646.04396 166.758815,646.138223 166.83205,646.248075 Z" id="path-4"></path>
        <filter x="-28.9%" y="-39.1%" width="170.4%" height="201.6%" filterUnits="objectBoundingBox" id="filter-5">
            <feOffset dx="1" dy="1" in="SourceAlpha" result="shadowOffsetOuter1"></feOffset>
            <feGaussianBlur stdDeviation="2" in="shadowOffsetOuter1" result="shadowBlurOuter1"></feGaussianBlur>
            <feColorMatrix values="0 0 0 0 0   0 0 0 0 0   0 0 0 0 0  0 0 0 0.5 0" type="matrix" in="shadowBlurOuter1"></feColorMatrix>
        </filter>
    </defs>
    <g id="hongvan_pre" stroke="none" stroke-width="1" fill="none" fill-rule="evenodd">
        <path d="M0,0 L320,0 L320,695 L0,695 L0,0 Z M24.9986208,39.9989978 C22.2371971,39.9989978 19.9986208,42.2375741 19.9986208,44.9989978 L19.9986207,510.998998 C19.9986208,513.760422 22.2371971,515.998998 24.9986208,515.998998 L294.999908,515.998988 C297.761332,515.998988 299.999908,513.760412 299.999908,510.998988 L299.999908,44.9989978 C299.999908,42.2375741 297.761332,39.9989978 294.999908,39.9989978 L24.9986208,39.9989978 Z" id="Rectangle-3" fill="#F0F6FA"></path>
        <path d="M3.04720534,687 C3.01573507,687.166826 3,687.339903 3,687.519231 C3,688.198721 3.22884537,688.782049 3.68654298,689.269231 C4.14424058,689.756413 4.68408094,690 5.30608025,690 C5.91634372,690 6.45325017,689.759618 6.91681569,689.278846 C7.38038122,688.798075 7.6121605,688.211542 7.6121605,687.519231 C7.6121605,687.339903 7.59622108,687.166826 7.5643421,687 L12.7468253,687 C12.7153551,687.166826 12.69962,687.339903 12.69962,687.519231 C12.69962,688.198721 12.9284654,688.782049 13.386163,689.269231 C13.8438606,689.756413 14.3837009,690 15.0057002,690 C15.6159637,690 16.1528702,689.759618 16.6164357,689.278846 C17.0800012,688.798075 17.3117805,688.211542 17.3117805,687.519231 C17.3117805,687.339903 17.2958411,687.166826 17.2639621,687 L22.4464453,687 C22.414975,687.166826 22.39924,687.339903 22.39924,687.519231 C22.39924,688.198721 22.6280853,688.782049 23.0857829,689.269231 C23.5434805,689.756413 24.0833209,690 24.7053202,690 C25.3273195,690 25.8671599,689.756413 26.3248575,689.269231 C26.7825551,688.782049 27.0114005,688.198721 27.0114005,687.519231 C27.0114005,687.339903 26.9956654,687.166826 26.9641951,687 L32.1460653,687 C32.114595,687.166826 32.09886,687.339903 32.09886,687.519231 C32.09886,688.198721 32.3277053,688.782049 32.7854029,689.269231 C33.2431005,689.756413 33.7829409,690 34.4049402,690 C35.0152037,690 35.5521101,689.759618 36.0156756,689.278846 C36.4792412,688.798075 36.7110205,688.211542 36.7110205,687.519231 C36.7110205,687.339903 36.695081,687.166826 36.6632021,687 L41.8456853,687 C41.814215,687.166826 41.7984799,687.339903 41.7984799,687.519231 C41.7984799,688.198721 42.0273253,688.782049 42.4850229,689.269231 C42.9427205,689.756413 43.4825609,690 44.1045602,690 C44.7148237,690 45.2517301,689.759618 45.7152956,689.278846 C46.1788612,688.798075 46.4106404,688.211542 46.4106404,687.519231 C46.4106404,687.339903 46.394701,687.166826 46.362822,687 L51.5453053,687 C51.513835,687.166826 51.4980999,687.339903 51.4980999,687.519231 C51.4980999,688.198721 51.7269453,688.782049 52.1846429,689.269231 C52.6423405,689.756413 53.1821809,690 53.8041802,690 C54.4261795,690 54.9660198,689.756413 55.4237174,689.269231 C55.8814151,688.782049 56.1102604,688.198721 56.1102604,687.519231 C56.1102604,687.339903 56.0945254,687.166826 56.0630551,687 L61.2449252,687 C61.213455,687.166826 61.1977199,687.339903 61.1977199,687.519231 C61.1977199,688.198721 61.4265653,688.782049 61.8842629,689.269231 C62.3419605,689.756413 62.8818008,690 63.5038002,690 C64.1140636,690 64.6509701,689.759618 65.1145356,689.278846 C65.5781011,688.798075 65.8098804,688.211542 65.8098804,687.519231 C65.8098804,687.339903 65.793941,687.166826 65.762062,687 L70.9445452,687 C70.913075,687.166826 70.8973399,687.339903 70.8973399,687.519231 C70.8973399,688.198721 71.1261853,688.782049 71.5838829,689.269231 C72.0415805,689.756413 72.5814208,690 73.2034201,690 C73.8136836,690 74.3505901,689.759618 74.8141556,689.278846 C75.2777211,688.798075 75.5095004,688.211542 75.5095004,687.519231 C75.5095004,687.339903 75.493561,687.166826 75.461682,687 L80.6441652,687 C80.6126949,687.166826 80.5969599,687.339903 80.5969599,687.519231 C80.5969599,688.198721 80.8258052,688.782049 81.2835029,689.269231 C81.7412005,689.756413 82.2810408,690 82.9030401,690 C83.5250394,690 84.0648798,689.756413 84.5225774,689.269231 C84.980275,688.782049 85.2091204,688.198721 85.2091204,687.519231 C85.2091204,687.339903 85.1933853,687.166826 85.161915,687 L90.3437852,687 C90.3123149,687.166826 90.2965799,687.339903 90.2965799,687.519231 C90.2965799,688.198721 90.5254252,688.782049 90.9831228,689.269231 C91.4408204,689.756413 91.9806608,690 92.6026601,690 C93.2129236,690 93.74983,689.759618 94.2133956,689.278846 C94.6769611,688.798075 94.9087404,688.211542 94.9087404,687.519231 C94.9087404,687.339903 94.8928009,687.166826 94.860922,687 L100.043405,687 C100.011935,687.166826 99.9961998,687.339903 99.9961998,687.519231 C99.9961998,688.198721 100.225045,688.782049 100.682743,689.269231 C101.14044,689.756413 101.680281,690 102.30228,690 C102.912544,690 103.44945,689.759618 103.913016,689.278846 C104.376581,688.798075 104.60836,688.211542 104.60836,687.519231 C104.60836,687.339903 104.592421,687.166826 104.560542,687 L109.743025,687 C109.711555,687.166826 109.69582,687.339903 109.69582,687.519231 C109.69582,688.198721 109.924665,688.782049 110.382363,689.269231 C110.84006,689.756413 111.379901,690 112.0019,690 C112.623899,690 113.16374,689.756413 113.621437,689.269231 C114.079135,688.782049 114.30798,688.198721 114.30798,687.519231 C114.30798,687.339903 114.292245,687.166826 114.260775,687 L119.442645,687 C119.411175,687.166826 119.39544,687.339903 119.39544,687.519231 C119.39544,688.198721 119.624285,688.782049 120.081983,689.269231 C120.53968,689.756413 121.079521,690 121.70152,690 C122.311784,690 122.84869,689.759618 123.312256,689.278846 C123.775821,688.798075 124.0076,688.211542 124.0076,687.519231 C124.0076,687.339903 123.991661,687.166826 123.959782,687 L129.142265,687 C129.110795,687.166826 129.09506,687.339903 129.09506,687.519231 C129.09506,688.198721 129.323905,688.782049 129.781603,689.269231 C130.2393,689.756413 130.779141,690 131.40114,690 C132.011404,690 132.54831,689.759618 133.011875,689.278846 C133.475441,688.798075 133.70722,688.211542 133.70722,687.519231 C133.70722,687.339903 133.691281,687.166826 133.659402,687 L138.841885,687 C138.810415,687.166826 138.79468,687.339903 138.79468,687.519231 C138.79468,688.198721 139.023525,688.782049 139.481223,689.269231 C139.93892,689.756413 140.478761,690 141.10076,690 C141.722759,690 142.2626,689.756413 142.720297,689.269231 C143.177995,688.782049 143.40684,688.198721 143.40684,687.519231 C143.40684,687.339903 143.391105,687.166826 143.359635,687 L148.541505,687 C148.510035,687.166826 148.4943,687.339903 148.4943,687.519231 C148.4943,688.198721 148.723145,688.782049 149.180843,689.269231 C149.63854,689.756413 150.178381,690 150.80038,690 C151.410643,690 151.94755,689.759618 152.411115,689.278846 C152.874681,688.798075 153.10646,688.211542 153.10646,687.519231 C153.10646,687.339903 153.090521,687.166826 153.058642,687 L158.241125,687 C158.209655,687.166826 158.19392,687.339903 158.19392,687.519231 C158.19392,688.198721 158.422765,688.782049 158.880463,689.269231 C159.33816,689.756413 159.878001,690 160.5,690 C161.110263,690 161.64717,689.759618 162.110735,689.278846 C162.574301,688.798075 162.80608,688.211542 162.80608,687.519231 C162.80608,687.339903 162.790141,687.166826 162.758262,687 L167.940745,687 C167.909275,687.166826 167.89354,687.339903 167.89354,687.519231 C167.89354,688.198721 168.122385,688.782049 168.580083,689.269231 C169.03778,689.756413 169.577621,690 170.19962,690 C170.821619,690 171.36146,689.756413 171.819157,689.269231 C172.276855,688.782049 172.5057,688.198721 172.5057,687.519231 C172.5057,687.339903 172.489965,687.166826 172.458495,687 L177.640365,687 C177.608895,687.166826 177.59316,687.339903 177.59316,687.519231 C177.59316,688.198721 177.822005,688.782049 178.279703,689.269231 C178.7374,689.756413 179.277241,690 179.89924,690 C180.509503,690 181.04641,689.759618 181.509975,689.278846 C181.973541,688.798075 182.20532,688.211542 182.20532,687.519231 C182.20532,687.339903 182.189381,687.166826 182.157502,687 L187.339985,687 C187.308515,687.166826 187.29278,687.339903 187.29278,687.519231 C187.29278,688.198721 187.521625,688.782049 187.979323,689.269231 C188.43702,689.756413 188.976861,690 189.59886,690 C190.209123,690 190.74603,689.759618 191.209595,689.278846 C191.673161,688.798075 191.90494,688.211542 191.90494,687.519231 C191.90494,687.339903 191.889001,687.166826 191.857122,687 L197.039605,687 C197.008135,687.166826 196.9924,687.339903 196.9924,687.519231 C196.9924,688.198721 197.221245,688.782049 197.678943,689.269231 C198.13664,689.756413 198.676481,690 199.29848,690 C199.920479,690 200.46032,689.756413 200.918017,689.269231 C201.375715,688.782049 201.60456,688.198721 201.60456,687.519231 C201.60456,687.339903 201.588825,687.166826 201.557355,687 L206.739225,687 C206.707755,687.166826 206.69202,687.339903 206.69202,687.519231 C206.69202,688.198721 206.920865,688.782049 207.378563,689.269231 C207.83626,689.756413 208.376101,690 208.9981,690 C209.608363,690 210.14527,689.759618 210.608835,689.278846 C211.072401,688.798075 211.30418,688.211542 211.30418,687.519231 C211.30418,687.339903 211.288241,687.166826 211.256362,687 L216.438845,687 C216.407375,687.166826 216.39164,687.339903 216.39164,687.519231 C216.39164,688.198721 216.620485,688.782049 217.078183,689.269231 C217.53588,689.756413 218.075721,690 218.69772,690 C219.307983,690 219.84489,689.759618 220.308455,689.278846 C220.772021,688.798075 221.0038,688.211542 221.0038,687.519231 C221.0038,687.339903 220.987861,687.166826 220.955982,687 L226.138465,687 C226.106995,687.166826 226.09126,687.339903 226.09126,687.519231 C226.09126,688.198721 226.320105,688.782049 226.777803,689.269231 C227.2355,689.756413 227.775341,690 228.39734,690 C229.019339,690 229.55918,689.756413 230.016877,689.269231 C230.474575,688.782049 230.70342,688.198721 230.70342,687.519231 C230.70342,687.339903 230.687685,687.166826 230.656215,687 L235.838085,687 C235.806615,687.166826 235.79088,687.339903 235.79088,687.519231 C235.79088,688.198721 236.019725,688.782049 236.477423,689.269231 C236.93512,689.756413 237.474961,690 238.09696,690 C238.707223,690 239.24413,689.759618 239.707695,689.278846 C240.171261,688.798075 240.40304,688.211542 240.40304,687.519231 C240.40304,687.339903 240.387101,687.166826 240.355222,687 L245.537705,687 C245.506235,687.166826 245.4905,687.339903 245.4905,687.519231 C245.4905,688.198721 245.719345,688.782049 246.177043,689.269231 C246.63474,689.756413 247.174581,690 247.79658,690 C248.406843,690 248.94375,689.759618 249.407315,689.278846 C249.870881,688.798075 250.10266,688.211542 250.10266,687.519231 C250.10266,687.339903 250.086721,687.166826 250.054842,687 L255.237325,687 C255.205855,687.166826 255.19012,687.339903 255.19012,687.519231 C255.19012,688.198721 255.418965,688.782049 255.876663,689.269231 C256.33436,689.756413 256.874201,690 257.4962,690 C258.118199,690 258.65804,689.756413 259.115737,689.269231 C259.573435,688.782049 259.80228,688.198721 259.80228,687.519231 C259.80228,687.339903 259.786545,687.166826 259.755075,687 L264.936945,687 C264.905475,687.166826 264.88974,687.339903 264.88974,687.519231 C264.88974,688.198721 265.118585,688.782049 265.576283,689.269231 C266.03398,689.756413 266.573821,690 267.19582,690 C267.806083,690 268.34299,689.759618 268.806555,689.278846 C269.270121,688.798075 269.5019,688.211542 269.5019,687.519231 C269.5019,687.339903 269.485961,687.166826 269.454082,687 L274.636565,687 C274.605095,687.166826 274.58936,687.339903 274.58936,687.519231 C274.58936,688.198721 274.818205,688.782049 275.275903,689.269231 C275.7336,689.756413 276.273441,690 276.89544,690 C277.505703,690 278.04261,689.759618 278.506175,689.278846 C278.969741,688.798075 279.20152,688.211542 279.20152,687.519231 C279.20152,687.339903 279.185581,687.166826 279.153702,687 L284.336185,687 C284.304715,687.166826 284.28898,687.339903 284.28898,687.519231 C284.28898,688.198721 284.517825,688.782049 284.975523,689.269231 C285.43322,689.756413 285.97306,690 286.59506,690 C287.217059,690 287.756899,689.756413 288.214597,689.269231 C288.672295,688.782049 288.90114,688.198721 288.90114,687.519231 C288.90114,687.339903 288.885405,687.166826 288.853935,687 L294.035805,687 C294.004335,687.166826 293.9886,687.339903 293.9886,687.519231 C293.9886,688.198721 294.217445,688.782049 294.675143,689.269231 C295.13284,689.756413 295.67268,690 296.29468,690 C296.904943,690 297.44185,689.759618 297.905415,689.278846 C298.368981,688.798075 298.60076,688.211542 298.60076,687.519231 C298.60076,687.339903 298.584821,687.166826 298.552942,687 L303.735425,687 C303.703955,687.166826 303.68822,687.339903 303.68822,687.519231 C303.68822,688.198721 303.917065,688.782049 304.374762,689.269231 C304.83246,689.756413 305.3723,690 305.9943,690 C306.604563,690 307.14147,689.759618 307.605035,689.278846 C308.068601,688.798075 308.30038,688.211542 308.30038,687.519231 C308.30038,687.339903 308.284441,687.166826 308.252562,687 L313.435045,687 C313.403575,687.166826 313.387839,687.339903 313.387839,687.519231 C313.387839,688.198721 313.616685,688.782049 314.074382,689.269231 C314.53208,689.756413 315.07192,690 315.69392,690 C316.315919,690 316.855759,689.756413 317.313457,689.269231 C317.771155,688.782049 318,688.198721 318,687.519231 C318,687.339903 317.984265,687.166826 317.952795,687 L320,687 L320,695 L0,695 L0,687 L3.04720534,687 Z" id="Rectangle-2" fill="#FFFFFF"></path>
        <g id="Triangle" transform="translate(164.000000, 655.000000) rotate(90.000000) translate(-164.000000, -655.000000) " fill="black" fill-opacity="1">
            <use filter="url(#filter-2)" xlink:href="#path-1"></use>
        </g>
        <g id="Triangle" opacity="0.8" transform="translate(166.000000, 651.000000) rotate(90.000000) translate(-166.000000, -651.000000) ">
            <use fill="black" fill-opacity="1" filter="url(#filter-5)" xlink:href="#path-4"></use>
            <use fill="url(#linearGradient-3)" fill-rule="evenodd" xlink:href="#path-4"></use>
        </g>
        <path d="M22.4464453,5 L17.2639621,5 C17.2958411,5.16682572 17.3117805,5.33990253 17.3117805,5.51923077 C17.3117805,6.21154192 17.0800012,6.79807452 16.6164357,7.27884615 C16.1528702,7.75961779 15.6159637,8 15.0057002,8 C14.3837009,8 13.8438606,7.75641269 13.386163,7.26923077 C12.9284654,6.78204885 12.69962,6.19872135 12.69962,5.51923077 C12.69962,5.33990253 12.7153551,5.16682572 12.7468253,5 L7.5643421,5 C7.59622108,5.16682572 7.6121605,5.33990253 7.6121605,5.51923077 C7.6121605,6.21154192 7.38038122,6.79807452 6.91681569,7.27884615 C6.45325017,7.75961779 5.91634372,8 5.30608025,8 C4.68408094,8 4.14424058,7.75641269 3.68654298,7.26923077 C3.22884537,6.78204885 3,6.19872135 3,5.51923077 C3,5.33990253 3.01573507,5.16682572 3.04720534,5 L0,5 L0,0 L320,0 L320,5 L317.952795,5 C317.984265,5.16682572 318,5.33990253 318,5.51923077 C318,6.19872135 317.771155,6.78204885 317.313457,7.26923077 C316.855759,7.75641269 316.315919,8 315.69392,8 C315.07192,8 314.53208,7.75641269 314.074382,7.26923077 C313.616685,6.78204885 313.387839,6.19872135 313.387839,5.51923077 C313.387839,5.33990253 313.403575,5.16682572 313.435045,5 L308.252562,5 C308.284441,5.16682572 308.30038,5.33990253 308.30038,5.51923077 C308.30038,6.21154192 308.068601,6.79807452 307.605035,7.27884615 C307.14147,7.75961779 306.604563,8 305.9943,8 C305.3723,8 304.83246,7.75641269 304.374762,7.26923077 C303.917065,6.78204885 303.68822,6.19872135 303.68822,5.51923077 C303.68822,5.33990253 303.703955,5.16682572 303.735425,5 L298.552942,5 C298.584821,5.16682572 298.60076,5.33990253 298.60076,5.51923077 C298.60076,6.21154192 298.368981,6.79807452 297.905415,7.27884615 C297.44185,7.75961779 296.904943,8 296.29468,8 C295.67268,8 295.13284,7.75641269 294.675143,7.26923077 C294.217445,6.78204885 293.9886,6.19872135 293.9886,5.51923077 C293.9886,5.33990253 294.004335,5.16682572 294.035805,5 L288.853935,5 C288.885405,5.16682572 288.90114,5.33990253 288.90114,5.51923077 C288.90114,6.19872135 288.672295,6.78204885 288.214597,7.26923077 C287.756899,7.75641269 287.217059,8 286.59506,8 C285.97306,8 285.43322,7.75641269 284.975523,7.26923077 C284.517825,6.78204885 284.28898,6.19872135 284.28898,5.51923077 C284.28898,5.33990253 284.304715,5.16682572 284.336185,5 L279.153702,5 C279.185581,5.16682572 279.20152,5.33990253 279.20152,5.51923077 C279.20152,6.21154192 278.969741,6.79807452 278.506175,7.27884615 C278.04261,7.75961779 277.505703,8 276.89544,8 C276.273441,8 275.7336,7.75641269 275.275903,7.26923077 C274.818205,6.78204885 274.58936,6.19872135 274.58936,5.51923077 C274.58936,5.33990253 274.605095,5.16682572 274.636565,5 L269.454082,5 C269.485961,5.16682572 269.5019,5.33990253 269.5019,5.51923077 C269.5019,6.21154192 269.270121,6.79807452 268.806555,7.27884615 C268.34299,7.75961779 267.806083,8 267.19582,8 C266.573821,8 266.03398,7.75641269 265.576283,7.26923077 C265.118585,6.78204885 264.88974,6.19872135 264.88974,5.51923077 C264.88974,5.33990253 264.905475,5.16682572 264.936945,5 L259.755075,5 C259.786545,5.16682572 259.80228,5.33990253 259.80228,5.51923077 C259.80228,6.19872135 259.573435,6.78204885 259.115737,7.26923077 C258.65804,7.75641269 258.118199,8 257.4962,8 C256.874201,8 256.33436,7.75641269 255.876663,7.26923077 C255.418965,6.78204885 255.19012,6.19872135 255.19012,5.51923077 C255.19012,5.33990253 255.205855,5.16682572 255.237325,5 L250.054842,5 C250.086721,5.16682572 250.10266,5.33990253 250.10266,5.51923077 C250.10266,6.21154192 249.870881,6.79807452 249.407315,7.27884615 C248.94375,7.75961779 248.406843,8 247.79658,8 C247.174581,8 246.63474,7.75641269 246.177043,7.26923077 C245.719345,6.78204885 245.4905,6.19872135 245.4905,5.51923077 C245.4905,5.33990253 245.506235,5.16682572 245.537705,5 L240.355222,5 C240.387101,5.16682572 240.40304,5.33990253 240.40304,5.51923077 C240.40304,6.21154192 240.171261,6.79807452 239.707695,7.27884615 C239.24413,7.75961779 238.707223,8 238.09696,8 C237.474961,8 236.93512,7.75641269 236.477423,7.26923077 C236.019725,6.78204885 235.79088,6.19872135 235.79088,5.51923077 C235.79088,5.33990253 235.806615,5.16682572 235.838085,5 L230.656215,5 C230.687685,5.16682572 230.70342,5.33990253 230.70342,5.51923077 C230.70342,6.19872135 230.474575,6.78204885 230.016877,7.26923077 C229.55918,7.75641269 229.019339,8 228.39734,8 C227.775341,8 227.2355,7.75641269 226.777803,7.26923077 C226.320105,6.78204885 226.09126,6.19872135 226.09126,5.51923077 C226.09126,5.33990253 226.106995,5.16682572 226.138465,5 L220.955982,5 C220.987861,5.16682572 221.0038,5.33990253 221.0038,5.51923077 C221.0038,6.21154192 220.772021,6.79807452 220.308455,7.27884615 C219.84489,7.75961779 219.307983,8 218.69772,8 C218.075721,8 217.53588,7.75641269 217.078183,7.26923077 C216.620485,6.78204885 216.39164,6.19872135 216.39164,5.51923077 C216.39164,5.33990253 216.407375,5.16682572 216.438845,5 L211.256362,5 C211.288241,5.16682572 211.30418,5.33990253 211.30418,5.51923077 C211.30418,6.21154192 211.072401,6.79807452 210.608835,7.27884615 C210.14527,7.75961779 209.608363,8 208.9981,8 C208.376101,8 207.83626,7.75641269 207.378563,7.26923077 C206.920865,6.78204885 206.69202,6.19872135 206.69202,5.51923077 C206.69202,5.33990253 206.707755,5.16682572 206.739225,5 L201.557355,5 C201.588825,5.16682572 201.60456,5.33990253 201.60456,5.51923077 C201.60456,6.19872135 201.375715,6.78204885 200.918017,7.26923077 C200.46032,7.75641269 199.920479,8 199.29848,8 C198.676481,8 198.13664,7.75641269 197.678943,7.26923077 C197.221245,6.78204885 196.9924,6.19872135 196.9924,5.51923077 C196.9924,5.33990253 197.008135,5.16682572 197.039605,5 L191.857122,5 C191.889001,5.16682572 191.90494,5.33990253 191.90494,5.51923077 C191.90494,6.21154192 191.673161,6.79807452 191.209595,7.27884615 C190.74603,7.75961779 190.209123,8 189.59886,8 C188.976861,8 188.43702,7.75641269 187.979323,7.26923077 C187.521625,6.78204885 187.29278,6.19872135 187.29278,5.51923077 C187.29278,5.33990253 187.308515,5.16682572 187.339985,5 L182.157502,5 C182.189381,5.16682572 182.20532,5.33990253 182.20532,5.51923077 C182.20532,6.21154192 181.973541,6.79807452 181.509975,7.27884615 C181.04641,7.75961779 180.509503,8 179.89924,8 C179.277241,8 178.7374,7.75641269 178.279703,7.26923077 C177.822005,6.78204885 177.59316,6.19872135 177.59316,5.51923077 C177.59316,5.33990253 177.608895,5.16682572 177.640365,5 L172.458495,5 C172.489965,5.16682572 172.5057,5.33990253 172.5057,5.51923077 C172.5057,6.19872135 172.276855,6.78204885 171.819157,7.26923077 C171.36146,7.75641269 170.821619,8 170.19962,8 C169.577621,8 169.03778,7.75641269 168.580083,7.26923077 C168.122385,6.78204885 167.89354,6.19872135 167.89354,5.51923077 C167.89354,5.33990253 167.909275,5.16682572 167.940745,5 L162.758262,5 C162.790141,5.16682572 162.80608,5.33990253 162.80608,5.51923077 C162.80608,6.21154192 162.574301,6.79807452 162.110735,7.27884615 C161.64717,7.75961779 161.110263,8 160.5,8 C159.878001,8 159.33816,7.75641269 158.880463,7.26923077 C158.422765,6.78204885 158.19392,6.19872135 158.19392,5.51923077 C158.19392,5.33990253 158.209655,5.16682572 158.241125,5 L153.058642,5 C153.090521,5.16682572 153.10646,5.33990253 153.10646,5.51923077 C153.10646,6.21154192 152.874681,6.79807452 152.411115,7.27884615 C151.94755,7.75961779 151.410643,8 150.80038,8 C150.178381,8 149.63854,7.75641269 149.180843,7.26923077 C148.723145,6.78204885 148.4943,6.19872135 148.4943,5.51923077 C148.4943,5.33990253 148.510035,5.16682572 148.541505,5 L143.359635,5 C143.391105,5.16682572 143.40684,5.33990253 143.40684,5.51923077 C143.40684,6.19872135 143.177995,6.78204885 142.720297,7.26923077 C142.2626,7.75641269 141.722759,8 141.10076,8 C140.478761,8 139.93892,7.75641269 139.481223,7.26923077 C139.023525,6.78204885 138.79468,6.19872135 138.79468,5.51923077 C138.79468,5.33990253 138.810415,5.16682572 138.841885,5 L133.659402,5 C133.691281,5.16682572 133.70722,5.33990253 133.70722,5.51923077 C133.70722,6.21154192 133.475441,6.79807452 133.011875,7.27884615 C132.54831,7.75961779 132.011404,8 131.40114,8 C130.779141,8 130.2393,7.75641269 129.781603,7.26923077 C129.323905,6.78204885 129.09506,6.19872135 129.09506,5.51923077 C129.09506,5.33990253 129.110795,5.16682572 129.142265,5 L123.959782,5 C123.991661,5.16682572 124.0076,5.33990253 124.0076,5.51923077 C124.0076,6.21154192 123.775821,6.79807452 123.312256,7.27884615 C122.84869,7.75961779 122.311784,8 121.70152,8 C121.079521,8 120.53968,7.75641269 120.081983,7.26923077 C119.624285,6.78204885 119.39544,6.19872135 119.39544,5.51923077 C119.39544,5.33990253 119.411175,5.16682572 119.442645,5 L114.260775,5 C114.292245,5.16682572 114.30798,5.33990253 114.30798,5.51923077 C114.30798,6.19872135 114.079135,6.78204885 113.621437,7.26923077 C113.16374,7.75641269 112.623899,8 112.0019,8 C111.379901,8 110.84006,7.75641269 110.382363,7.26923077 C109.924665,6.78204885 109.69582,6.19872135 109.69582,5.51923077 C109.69582,5.33990253 109.711555,5.16682572 109.743025,5 L104.560542,5 C104.592421,5.16682572 104.60836,5.33990253 104.60836,5.51923077 C104.60836,6.21154192 104.376581,6.79807452 103.913016,7.27884615 C103.44945,7.75961779 102.912544,8 102.30228,8 C101.680281,8 101.14044,7.75641269 100.682743,7.26923077 C100.225045,6.78204885 99.9961998,6.19872135 99.9961998,5.51923077 C99.9961998,5.33990253 100.011935,5.16682572 100.043405,5 L94.860922,5 C94.8928009,5.16682572 94.9087404,5.33990253 94.9087404,5.51923077 C94.9087404,6.21154192 94.6769611,6.79807452 94.2133956,7.27884615 C93.74983,7.75961779 93.2129236,8 92.6026601,8 C91.9806608,8 91.4408204,7.75641269 90.9831228,7.26923077 C90.5254252,6.78204885 90.2965799,6.19872135 90.2965799,5.51923077 C90.2965799,5.33990253 90.3123149,5.16682572 90.3437852,5 L85.161915,5 C85.1933853,5.16682572 85.2091204,5.33990253 85.2091204,5.51923077 C85.2091204,6.19872135 84.980275,6.78204885 84.5225774,7.26923077 C84.0648798,7.75641269 83.5250394,8 82.9030401,8 C82.2810408,8 81.7412005,7.75641269 81.2835029,7.26923077 C80.8258052,6.78204885 80.5969599,6.19872135 80.5969599,5.51923077 C80.5969599,5.33990253 80.6126949,5.16682572 80.6441652,5 L75.461682,5 C75.493561,5.16682572 75.5095004,5.33990253 75.5095004,5.51923077 C75.5095004,6.21154192 75.2777211,6.79807452 74.8141556,7.27884615 C74.3505901,7.75961779 73.8136836,8 73.2034201,8 C72.5814208,8 72.0415805,7.75641269 71.5838829,7.26923077 C71.1261853,6.78204885 70.8973399,6.19872135 70.8973399,5.51923077 C70.8973399,5.33990253 70.913075,5.16682572 70.9445452,5 L65.762062,5 C65.793941,5.16682572 65.8098804,5.33990253 65.8098804,5.51923077 C65.8098804,6.21154192 65.5781011,6.79807452 65.1145356,7.27884615 C64.6509701,7.75961779 64.1140636,8 63.5038002,8 C62.8818008,8 62.3419605,7.75641269 61.8842629,7.26923077 C61.4265653,6.78204885 61.1977199,6.19872135 61.1977199,5.51923077 C61.1977199,5.33990253 61.213455,5.16682572 61.2449252,5 L56.0630551,5 C56.0945254,5.16682572 56.1102604,5.33990253 56.1102604,5.51923077 C56.1102604,6.19872135 55.8814151,6.78204885 55.4237174,7.26923077 C54.9660198,7.75641269 54.4261795,8 53.8041802,8 C53.1821809,8 52.6423405,7.75641269 52.1846429,7.26923077 C51.7269453,6.78204885 51.4980999,6.19872135 51.4980999,5.51923077 C51.4980999,5.33990253 51.513835,5.16682572 51.5453053,5 L46.362822,5 C46.394701,5.16682572 46.4106404,5.33990253 46.4106404,5.51923077 C46.4106404,6.21154192 46.1788612,6.79807452 45.7152956,7.27884615 C45.2517301,7.75961779 44.7148237,8 44.1045602,8 C43.4825609,8 42.9427205,7.75641269 42.4850229,7.26923077 C42.0273253,6.78204885 41.7984799,6.19872135 41.7984799,5.51923077 C41.7984799,5.33990253 41.814215,5.16682572 41.8456853,5 L36.6632021,5 C36.695081,5.16682572 36.7110205,5.33990253 36.7110205,5.51923077 C36.7110205,6.21154192 36.4792412,6.79807452 36.0156756,7.27884615 C35.5521101,7.75961779 35.0152037,8 34.4049402,8 C33.7829409,8 33.2431005,7.75641269 32.7854029,7.26923077 C32.3277053,6.78204885 32.09886,6.19872135 32.09886,5.51923077 C32.09886,5.33990253 32.114595,5.16682572 32.1460653,5 L26.9641951,5 C26.9956654,5.16682572 27.0114005,5.33990253 27.0114005,5.51923077 C27.0114005,6.19872135 26.7825551,6.78204885 26.3248575,7.26923077 C25.8671599,7.75641269 25.3273195,8 24.7053202,8 C24.0833209,8 23.5434805,7.75641269 23.0857829,7.26923077 C22.6280853,6.78204885 22.39924,6.19872135 22.39924,5.51923077 C22.39924,5.33990253 22.414975,5.16682572 22.4464453,5 Z" id="Rectangle-2" fill="#FFFFFF"></path>
    </g>
</svg>