<?xml version="1.0" encoding="UTF-8"?>
<svg width="320px" height="168px" viewBox="0 0 320 168" version="1.1" xmlns="http://www.w3.org/2000/svg" xmlns:xlink="http://www.w3.org/1999/xlink">
    <!-- Generator: Sketch 54.1 (76490) - https://sketchapp.com -->
    <title>hongvanchiase</title>
    <desc>Created with Sketch.</desc>
    <defs>
        <path d="M164.83205,105.248075 L170.963533,114.4453 C171.269886,114.904828 171.145712,115.525698 170.686183,115.83205 C170.521916,115.941562 170.328908,116 170.131483,116 L157.868517,116 C157.316232,116 156.868517,115.552285 156.868517,115 C156.868517,114.802575 156.926955,114.609567 157.036467,114.4453 L163.16795,105.248075 C163.474302,104.788547 164.095172,104.664373 164.5547,104.970725 C164.664552,105.04396 164.758815,105.138223 164.83205,105.248075 Z" id="path-1"></path>
        <filter x="-3.9%" y="-5.8%" width="107.9%" height="118.3%" filterUnits="objectBoundingBox" id="filter-2">
            <feGaussianBlur stdDeviation="1" in="SourceAlpha" result="shadowBlurInner1"></feGaussianBlur>
            <feOffset dx="1" dy="1" in="shadowBlurInner1" result="shadowOffsetInner1"></feOffset>
            <feComposite in="shadowOffsetInner1" in2="SourceAlpha" operator="arithmetic" k2="-1" k3="1" result="shadowInnerInner1"></feComposite>
            <feColorMatrix values="0 0 0 0 0   0 0 0 0 0   0 0 0 0 0  0 0 0 0.5 0" type="matrix" in="shadowInnerInner1"></feColorMatrix>
        </filter>
        <linearGradient x1="0%" y1="21.875%" x2="378.796276%" y2="224.135345%" id="linearGradient-3">
            <stop stop-color="#F50057" offset="0%"></stop>
            <stop stop-color="#AA00FF" offset="100%"></stop>
        </linearGradient>
        <path d="M166.83205,101.248075 L172.963533,110.4453 C173.269886,110.904828 173.145712,111.525698 172.686183,111.83205 C172.521916,111.941562 172.328908,112 172.131483,112 L159.868517,112 C159.316232,112 158.868517,111.552285 158.868517,111 C158.868517,110.802575 158.926955,110.609567 159.036467,110.4453 L165.16795,101.248075 C165.474302,100.788547 166.095172,100.664373 166.5547,100.970725 C166.664552,101.04396 166.758815,101.138223 166.83205,101.248075 Z" id="path-4"></path>
        <filter x="-28.9%" y="-39.1%" width="170.4%" height="201.6%" filterUnits="objectBoundingBox" id="filter-5">
            <feOffset dx="1" dy="1" in="SourceAlpha" result="shadowOffsetOuter1"></feOffset>
            <feGaussianBlur stdDeviation="2" in="shadowOffsetOuter1" result="shadowBlurOuter1"></feGaussianBlur>
            <feColorMatrix values="0 0 0 0 0   0 0 0 0 0   0 0 0 0 0  0 0 0 0.5 0" type="matrix" in="shadowBlurOuter1"></feColorMatrix>
        </filter>
    </defs>
    <g id="hongvanchiase" stroke="none" stroke-width="1" fill="none" fill-rule="evenodd">
        <rect fill="#FFFFFF" x="0" y="0" width="320" height="168"></rect>
        <path d="M0.00147110516,4.3907976 L5.18185728,1.28256589 C8.13100257,-0.486921279 11.8307452,-0.420958389 14.7149396,1.45253168 L15.0988505,1.7019092 C18.0803644,3.63861514 21.9225778,3.63861514 24.9040917,1.7019092 L25.0988505,1.57539941 C28.0803644,-0.361306527 31.9225778,-0.361306527 34.9040917,1.57539941 L35.0988505,1.7019092 C38.0803644,3.63861514 41.9225778,3.63861514 44.9040917,1.7019092 L45.0988505,1.57539941 C48.0803644,-0.361306527 51.9225778,-0.361306527 54.9040917,1.57539941 L55.0988505,1.7019092 C58.0803644,3.63861514 61.9225778,3.63861514 64.9040917,1.7019092 L65.0988505,1.57539941 C68.0803644,-0.361306527 71.9225778,-0.361306527 74.9040917,1.57539941 L75.0988505,1.7019092 C78.0803644,3.63861514 81.9225778,3.63861514 84.9040917,1.7019092 L85.0988505,1.57539941 C88.0803644,-0.361306527 91.9225778,-0.361306527 94.9040917,1.57539941 L95.0988505,1.7019092 C98.0803644,3.63861514 101.922578,3.63861514 104.904092,1.7019092 L105.097534,1.57625461 C108.079719,-0.360887454 111.922917,-0.360416031 114.904627,1.57745759 L115.096337,1.70205427 C118.079056,3.64058347 121.923732,3.64034645 124.906212,1.70144949 L125.094958,1.57874615 C128.077591,-0.360250549 131.922493,-0.360379791 134.905256,1.57841639 L135.095105,1.70181815 C138.077684,3.64049475 141.922316,3.64049475 144.904895,1.70181815 L145.095105,1.57818185 C148.077684,-0.360494753 151.922316,-0.360494753 154.904895,1.57818185 L155.095105,1.70181815 C158.077684,3.64049475 161.922316,3.64049475 164.904895,1.70181815 L165.095105,1.57818185 C168.077684,-0.360494753 171.922316,-0.360494753 174.904895,1.57818185 L175.095105,1.70181815 C178.077684,3.64049475 181.922316,3.64049475 184.904895,1.70181815 L185.095105,1.57818185 C188.077684,-0.360494753 191.922316,-0.360494753 194.904895,1.57818185 L195.095105,1.70181815 C198.077684,3.64049475 201.922316,3.64049475 204.904895,1.70181815 L205.095105,1.57818185 C208.077684,-0.360494753 211.922316,-0.360494753 214.904895,1.57818185 L215.095105,1.70181815 C218.077684,3.64049475 221.922316,3.64049475 224.904895,1.70181815 L225.095105,1.57818185 C228.077684,-0.360494753 231.922316,-0.360494753 234.904895,1.57818185 L235.095105,1.70181815 C238.077684,3.64049475 241.922316,3.64049475 244.904895,1.70181815 L245.095105,1.57818185 C248.077684,-0.360494753 251.922316,-0.360494753 254.904895,1.57818185 L255.095105,1.70181815 C258.077684,3.64049475 261.922316,3.64049475 264.904895,1.70181815 L265.095105,1.57818185 C268.077684,-0.360494753 271.922316,-0.360494753 274.904895,1.57818185 L275.095105,1.70181815 C278.077684,3.64049475 281.922316,3.64049475 284.904895,1.70181815 L285.095105,1.57818185 C288.077684,-0.360494753 291.922316,-0.360494753 294.904895,1.57818185 L295.095105,1.70181815 C298.077684,3.64049475 301.922316,3.64049475 304.904895,1.70181815 L305.095105,1.57818185 C308.077684,-0.360494753 311.922316,-0.360494753 314.904895,1.57818185 L320,4.89 L320,152 L0,152 L0.00147110516,4.3907976 Z" id="Rectangle" fill="#F0F6FA" transform="translate(160.000000, 76.000000) scale(1, -1) translate(-160.000000, -76.000000) "></path>
        <text id="—-Hồng-vân-chia-sẻ-v" font-family="Georgia-Italic, Georgia" font-size="14" font-style="italic" font-weight="normal" line-spacing="22" fill="#5D6A80">
            <tspan x="30" y="17">— Hồng vân chia sẻ về Chương trình của </tspan>
            <tspan x="30" y="39">cô ấy ở Chanchan</tspan>
        </text>
        <text id="……………………………………………………" font-family="Georgia-Italic, Georgia" font-size="14" font-style="italic" font-weight="normal" line-spacing="22" fill="#DADFE7">
            <tspan x="30" y="69">……………………………………………………………</tspan>
        </text>
        <text id="Xem-bản-đầy-đủ" font-family="SFCompactDisplay-Semibold, SF Compact Display" font-size="16" font-weight="500" line-spacing="20" letter-spacing="-0.479999989" fill="#343D51">
            <tspan x="183.462187" y="109">Xem bản đầy đủ</tspan>
        </text>
        <g id="Triangle" transform="translate(164.000000, 110.000000) rotate(90.000000) translate(-164.000000, -110.000000) ">
            <use fill="#F0F6FA" fill-rule="evenodd" xlink:href="#path-1"></use>
            <use fill="black" fill-opacity="1" filter="url(#filter-2)" xlink:href="#path-1"></use>
        </g>
        <g id="Triangle" opacity="0.8" transform="translate(166.000000, 106.000000) rotate(90.000000) translate(-166.000000, -106.000000) ">
            <use fill="black" fill-opacity="1" filter="url(#filter-5)" xlink:href="#path-4"></use>
            <use fill="url(#linearGradient-3)" fill-rule="evenodd" xlink:href="#path-4"></use>
        </g>
    </g>
</svg>