<?xml version="1.0" encoding="UTF-8"?>
<svg width="320px" height="164px" viewBox="0 0 320 164" version="1.1" xmlns="http://www.w3.org/2000/svg" xmlns:xlink="http://www.w3.org/1999/xlink">
    <!-- Generator: Sketch 54.1 (76490) - https://sketchapp.com -->
    <title>hongvanchiase</title>
    <desc>Created with Sketch.</desc>
    <defs>
        <path d="M164.83205,101.248075 L170.963533,110.4453 C171.269886,110.904828 171.145712,111.525698 170.686183,111.83205 C170.521916,111.941562 170.328908,112 170.131483,112 L157.868517,112 C157.316232,112 156.868517,111.552285 156.868517,111 C156.868517,110.802575 156.926955,110.609567 157.036467,110.4453 L163.16795,101.248075 C163.474302,100.788547 164.095172,100.664373 164.5547,100.970725 C164.664552,101.04396 164.758815,101.138223 164.83205,101.248075 Z" id="path-1"></path>
        <filter x="-3.9%" y="-5.8%" width="107.9%" height="118.3%" filterUnits="objectBoundingBox" id="filter-2">
            <feGaussianBlur stdDeviation="1" in="SourceAlpha" result="shadowBlurInner1"></feGaussianBlur>
            <feOffset dx="1" dy="1" in="shadowBlurInner1" result="shadowOffsetInner1"></feOffset>
            <feComposite in="shadowOffsetInner1" in2="SourceAlpha" operator="arithmetic" k2="-1" k3="1" result="shadowInnerInner1"></feComposite>
            <feColorMatrix values="0 0 0 0 0   0 0 0 0 0   0 0 0 0 0  0 0 0 0.5 0" type="matrix" in="shadowInnerInner1"></feColorMatrix>
        </filter>
        <linearGradient x1="0%" y1="21.875%" x2="378.796276%" y2="224.135345%" id="linearGradient-3">
            <stop stop-color="#F50057" offset="0%"></stop>
            <stop stop-color="#AA00FF" offset="100%"></stop>
        </linearGradient>
        <path d="M166.83205,97.2480754 L172.963533,106.4453 C173.269886,106.904828 173.145712,107.525698 172.686183,107.83205 C172.521916,107.941562 172.328908,108 172.131483,108 L159.868517,108 C159.316232,108 158.868517,107.552285 158.868517,107 C158.868517,106.802575 158.926955,106.609567 159.036467,106.4453 L165.16795,97.2480754 C165.474302,96.7885468 166.095172,96.6643729 166.5547,96.9707253 C166.664552,97.0439602 166.758815,97.1382232 166.83205,97.2480754 Z" id="path-4"></path>
        <filter x="-28.9%" y="-39.1%" width="170.4%" height="201.6%" filterUnits="objectBoundingBox" id="filter-5">
            <feOffset dx="1" dy="1" in="SourceAlpha" result="shadowOffsetOuter1"></feOffset>
            <feGaussianBlur stdDeviation="2" in="shadowOffsetOuter1" result="shadowBlurOuter1"></feGaussianBlur>
            <feColorMatrix values="0 0 0 0 0   0 0 0 0 0   0 0 0 0 0  0 0 0 0.5 0" type="matrix" in="shadowBlurOuter1"></feColorMatrix>
        </filter>
    </defs>
    <g id="hongvanchiase" stroke="none" stroke-width="1" fill="none" fill-rule="evenodd">
        <rect fill="#F0F6FA" x="0" y="0" width="320" height="164"></rect>
        <path d="M0.00147110516,152.310404 L5.27601405,149.22896 C8.1790246,147.532991 11.7852859,147.596521 14.6267593,149.393689 L15.1906502,149.750337 C18.1286983,151.608586 21.8742439,151.608586 24.812292,149.750337 L25.1906502,149.511034 C28.1286983,147.652785 31.8742439,147.652785 34.812292,149.511034 L35.1906502,149.750337 C38.1286983,151.608586 41.8742439,151.608586 44.812292,149.750337 L45.1906502,149.511034 C48.1286983,147.652785 51.8742439,147.652785 54.812292,149.511034 L55.1906502,149.750337 C58.1286983,151.608586 61.8742439,151.608586 64.812292,149.750337 L65.1906502,149.511034 C68.1286983,147.652785 71.8742439,147.652785 74.812292,149.511034 L75.1906502,149.750337 C78.1286983,151.608586 81.8742439,151.608586 84.812292,149.750337 L85.1906502,149.511034 C88.1286983,147.652785 91.8742439,147.652785 94.812292,149.511034 L95.1906502,149.750337 C98.1286983,151.608586 101.874244,151.608586 104.812292,149.750337 L105.189358,149.511851 C108.128073,147.65318 111.874581,147.653635 114.812845,149.513018 L115.188156,149.750521 C118.127421,151.610539 121.875376,151.61031 124.814415,149.749934 L125.186761,149.514244 C128.125952,147.653772 131.874127,147.653647 134.813442,149.513924 L135.186912,149.750291 C138.126044,151.610453 141.873956,151.610453 144.813088,149.750291 L145.186912,149.5137 C148.126044,147.653539 151.873956,147.653539 154.813088,149.5137 L155.186912,149.750291 C158.126044,151.610453 161.873956,151.610453 164.813088,149.750291 L165.186912,149.5137 C168.126044,147.653539 171.873956,147.653539 174.813088,149.5137 L175.186912,149.750291 C178.126044,151.610453 181.873956,151.610453 184.813088,149.750291 L185.186912,149.5137 C188.126044,147.653539 191.873956,147.653539 194.813088,149.5137 L195.186912,149.750291 C198.126044,151.610453 201.873956,151.610453 204.813088,149.750291 L205.186912,149.5137 C208.126044,147.653539 211.873956,147.653539 214.813088,149.5137 L215.186912,149.750291 C218.126044,151.610453 221.873956,151.610453 224.813088,149.750291 L225.186912,149.5137 C228.126044,147.653539 231.873956,147.653539 234.813088,149.5137 L235.186912,149.750291 C238.126044,151.610453 241.873956,151.610453 244.813088,149.750291 L245.186912,149.5137 C248.126044,147.653539 251.873956,147.653539 254.813088,149.5137 L255.186912,149.750291 C258.126044,151.610453 261.873956,151.610453 264.813088,149.750291 L265.186912,149.5137 C268.126044,147.653539 271.873956,147.653539 274.813088,149.5137 L275.186912,149.750291 C278.126044,151.610453 281.873956,151.610453 284.813088,149.750291 L285.186912,149.5137 C288.126044,147.653539 291.873956,147.653539 294.813088,149.5137 L295.186912,149.750291 C298.126044,151.610453 301.873956,151.610453 304.813088,149.750291 L305.186912,149.5137 C308.126044,147.653539 311.873956,147.653539 314.813088,149.5137 L320,152.796469 L320,164.035154 L0,164.035154 L0.00147110516,152.310404 Z" id="Rectangle" fill="#FFFFFF"></path>
        <text id="—-Hồng-vân-chia-sẻ-v" font-family="Georgia-Italic, Georgia" font-size="14" font-style="italic" font-weight="normal" line-spacing="22" fill="#5D6A80">
            <tspan x="30" y="13">— Hồng vân chia sẻ về Chương trình của </tspan>
            <tspan x="30" y="35">cô ấy ở Chanchan</tspan>
        </text>
        <text id="……………………………………………………" font-family="Georgia-Italic, Georgia" font-size="14" font-style="italic" font-weight="normal" line-spacing="22" fill="#DADFE7">
            <tspan x="30" y="65">……………………………………………………………</tspan>
        </text>
        <text id="Xem-bản-đầy-đủ" font-family="SFCompactDisplay-Semibold, SF Compact Display" font-size="16" font-weight="500" line-spacing="20" letter-spacing="-0.479999989" fill="#343D51">
            <tspan x="183.462187" y="105">Xem bản đầy đủ</tspan>
        </text>
        <g id="Triangle" transform="translate(164.000000, 106.000000) rotate(90.000000) translate(-164.000000, -106.000000) ">
            <use fill="#F0F6FA" fill-rule="evenodd" xlink:href="#path-1"></use>
            <use fill="black" fill-opacity="1" filter="url(#filter-2)" xlink:href="#path-1"></use>
        </g>
        <g id="Triangle" opacity="0.8" transform="translate(166.000000, 102.000000) rotate(90.000000) translate(-166.000000, -102.000000) ">
            <use fill="black" fill-opacity="1" filter="url(#filter-5)" xlink:href="#path-4"></use>
            <use fill="url(#linearGradient-3)" fill-rule="evenodd" xlink:href="#path-4"></use>
        </g>
    </g>
</svg>