<?xml version="1.0" encoding="UTF-8"?>
<svg width="320px" height="410px" viewBox="0 0 320 410" version="1.1" xmlns="http://www.w3.org/2000/svg" xmlns:xlink="http://www.w3.org/1999/xlink">
    <!-- Generator: Sketch 54.1 (76490) - https://sketchapp.com -->
    <title>lienhe</title>
    <desc>Created with Sketch.</desc>
    <defs>
        <path d="M46.4227295,377.657593 C42.1452332,378.114136 37.8547668,378.114136 33.5772705,377.657593 C31.871643,377.475555 30.5244446,376.128357 30.3424072,374.422577 C29.8858643,370.145081 29.8858643,365.854767 30.3424072,361.577271 C30.5244446,359.871643 31.871643,358.524445 33.5772705,358.342407 C37.8547668,357.885864 42.1450805,357.885864 46.4225769,358.342407 C48.128357,358.524445 49.4755554,359.871643 49.6575928,361.577271 C50.1141357,365.854767 50.1141357,370.145081 49.6575928,374.422577 C49.4755554,376.128357 48.1285095,377.475555 46.4227295,377.657593 Z M40.2908325,377.999084 C41.4561463,377.993439 42.6213074,377.953918 43.7860107,377.880676 L43.7860107,369.760712 L46.1050415,369.760712 L46.3851929,366.842773 L43.7860107,366.842773 L43.7860107,364.989899 C43.7860107,364.580658 44.1177368,364.248932 44.5269775,364.248932 L46.3851929,364.248932 L46.3851929,361.330841 L43.4458923,361.330841 C41.7033386,361.330841 40.2908325,362.7435 40.2908325,364.486053 L40.2908325,366.842773 L38.5928345,366.842773 L38.5928345,369.760712 L40.2908325,369.760712 L40.2908325,377.999084 Z" id="path-1"></path>
        <filter x="-10.0%" y="-10.0%" width="120.0%" height="120.0%" filterUnits="objectBoundingBox" id="filter-2">
            <feGaussianBlur stdDeviation="1.5" in="SourceAlpha" result="shadowBlurInner1"></feGaussianBlur>
            <feOffset dx="-1" dy="1" in="shadowBlurInner1" result="shadowOffsetInner1"></feOffset>
            <feComposite in="shadowOffsetInner1" in2="SourceAlpha" operator="arithmetic" k2="-1" k3="1" result="shadowInnerInner1"></feComposite>
            <feColorMatrix values="0 0 0 0 0   0 0 0 0 0   0 0 0 0 0  0 0 0 0.5 0" type="matrix" in="shadowInnerInner1"></feColorMatrix>
        </filter>
        <path d="M39.4996039,142 C44.7376958,142 48.9994718,146.29413 49,151.572253 C49,152.948993 48.7205999,154.263468 48.169194,155.479491 C45.7932367,160.716903 41.2393845,166.245681 39.9004823,167.815069 C39.8001307,167.932414 39.6538285,168 39.499868,168 C39.3459074,168 39.1996053,167.932414 39.0992536,167.815069 C37.7598232,166.245415 33.2059711,160.716371 30.830806,155.479491 C30.2796642,154.263468 30,152.948993 30,151.572253 C30,146.29413 34.261776,142 39.4996039,142 Z M39.4996039,156.544109 C42.220718,156.544109 44.4345282,154.313493 44.4342641,151.571987 C44.4342641,148.830215 42.2204539,146.599599 39.4996039,146.599599 C36.7787538,146.599599 34.5649436,148.830215 34.5649436,151.571987 C34.5649436,154.313493 36.7787538,156.544109 39.4996039,156.544109 Z" id="path-3"></path>
        <filter x="-10.5%" y="-7.7%" width="121.1%" height="115.4%" filterUnits="objectBoundingBox" id="filter-4">
            <feGaussianBlur stdDeviation="1.5" in="SourceAlpha" result="shadowBlurInner1"></feGaussianBlur>
            <feOffset dx="-1" dy="1" in="shadowBlurInner1" result="shadowOffsetInner1"></feOffset>
            <feComposite in="shadowOffsetInner1" in2="SourceAlpha" operator="arithmetic" k2="-1" k3="1" result="shadowInnerInner1"></feComposite>
            <feColorMatrix values="0 0 0 0 0   0 0 0 0 0   0 0 0 0 0  0 0 0 0.5 0" type="matrix" in="shadowInnerInner1"></feColorMatrix>
        </filter>
        <path d="M40.5,250 C44.9272842,250 48.5294495,253.602165 48.5294495,258.029449 C48.5294495,261.748573 48.5294495,264.196693 48.5294495,267.911812 C48.5294495,268.933517 47.6982422,269.764725 46.6765366,269.764725 L42.2391586,269.764725 C41.9832916,270.482018 41.3041306,271 40.5,271 C39.4782944,271 38.6470871,270.168793 38.6470871,269.147087 C38.6470871,268.125381 39.4782944,267.294174 40.5,267.294174 C41.3041306,267.294174 41.9832916,267.811996 42.2391586,268.529449 L46.6765366,268.529449 C47.0166778,268.529449 47.2941742,268.252594 47.2941742,267.911812 L47.2941742,267.18042 C47.0999908,267.249634 46.8941116,267.294174 46.6765366,267.294174 C45.6546707,267.294174 44.8234634,266.462967 44.8234634,265.441101 L44.8234634,259.264725 C44.8234634,258.243019 45.6546707,257.411812 46.6765366,257.411812 C46.8841782,257.411812 47.0820465,257.448822 47.2678985,257.512428 C47.0019379,254.007515 44.0710831,251.235275 40.5,251.235275 C36.9269943,251.235275 33.9953384,254.010078 33.731781,257.517395 C33.9187546,257.453949 34.1155014,257.411812 34.3234634,257.411812 C35.3453293,257.411812 36.1765366,258.243019 36.1765366,259.264725 L36.1765366,265.441101 C36.1765366,266.462967 35.3453293,267.294174 34.3234634,267.294174 C33.3017578,267.294174 32.4705505,266.462967 32.4705505,265.441101 L32.4705505,258.029449 C32.4705505,253.602165 36.0727158,250 40.5,250 Z M49.7647247,258.760841 C50.4820175,259.016708 51,259.695869 51,260.5 L51,264.205826 C51,265.010117 50.4820175,265.689278 49.7647247,265.944984 L49.7647247,258.760841 Z M30,260.5 C30,259.695869 30.5179825,259.016708 31.2352753,258.760841 L31.2352753,265.944984 C30.5179825,265.689278 30,265.010117 30,264.205826 L30,260.5 Z" id="path-5"></path>
        <filter x="-9.5%" y="-9.5%" width="119.0%" height="119.0%" filterUnits="objectBoundingBox" id="filter-6">
            <feGaussianBlur stdDeviation="1.5" in="SourceAlpha" result="shadowBlurInner1"></feGaussianBlur>
            <feOffset dx="-1" dy="1" in="shadowBlurInner1" result="shadowOffsetInner1"></feOffset>
            <feComposite in="shadowOffsetInner1" in2="SourceAlpha" operator="arithmetic" k2="-1" k3="1" result="shadowInnerInner1"></feComposite>
            <feColorMatrix values="0 0 0 0 0   0 0 0 0 0   0 0 0 0 0  0 0 0 0.5 0" type="matrix" in="shadowInnerInner1"></feColorMatrix>
        </filter>
    </defs>
    <g id="lienhe" stroke="none" stroke-width="1" fill="none" fill-rule="evenodd">
        <rect fill="#FFFFFF" x="0" y="0" width="320" height="410"></rect>
        <path d="M0.00147110516,4.3907976 L5.18185728,1.28256589 C8.13100257,-0.486921279 11.8307452,-0.420958389 14.7149396,1.45253168 L15.0988505,1.7019092 C18.0803644,3.63861514 21.9225778,3.63861514 24.9040917,1.7019092 L25.0988505,1.57539941 C28.0803644,-0.361306527 31.9225778,-0.361306527 34.9040917,1.57539941 L35.0988505,1.7019092 C38.0803644,3.63861514 41.9225778,3.63861514 44.9040917,1.7019092 L45.0988505,1.57539941 C48.0803644,-0.361306527 51.9225778,-0.361306527 54.9040917,1.57539941 L55.0988505,1.7019092 C58.0803644,3.63861514 61.9225778,3.63861514 64.9040917,1.7019092 L65.0988505,1.57539941 C68.0803644,-0.361306527 71.9225778,-0.361306527 74.9040917,1.57539941 L75.0988505,1.7019092 C78.0803644,3.63861514 81.9225778,3.63861514 84.9040917,1.7019092 L85.0988505,1.57539941 C88.0803644,-0.361306527 91.9225778,-0.361306527 94.9040917,1.57539941 L95.0988505,1.7019092 C98.0803644,3.63861514 101.922578,3.63861514 104.904092,1.7019092 L105.097534,1.57625461 C108.079719,-0.360887454 111.922917,-0.360416031 114.904627,1.57745759 L115.096337,1.70205427 C118.079056,3.64058347 121.923732,3.64034645 124.906212,1.70144949 L125.094958,1.57874615 C128.077591,-0.360250549 131.922493,-0.360379791 134.905256,1.57841639 L135.095105,1.70181815 C138.077684,3.64049475 141.922316,3.64049475 144.904895,1.70181815 L145.095105,1.57818185 C148.077684,-0.360494753 151.922316,-0.360494753 154.904895,1.57818185 L155.095105,1.70181815 C158.077684,3.64049475 161.922316,3.64049475 164.904895,1.70181815 L165.095105,1.57818185 C168.077684,-0.360494753 171.922316,-0.360494753 174.904895,1.57818185 L175.095105,1.70181815 C178.077684,3.64049475 181.922316,3.64049475 184.904895,1.70181815 L185.095105,1.57818185 C188.077684,-0.360494753 191.922316,-0.360494753 194.904895,1.57818185 L195.095105,1.70181815 C198.077684,3.64049475 201.922316,3.64049475 204.904895,1.70181815 L205.095105,1.57818185 C208.077684,-0.360494753 211.922316,-0.360494753 214.904895,1.57818185 L215.095105,1.70181815 C218.077684,3.64049475 221.922316,3.64049475 224.904895,1.70181815 L225.095105,1.57818185 C228.077684,-0.360494753 231.922316,-0.360494753 234.904895,1.57818185 L235.095105,1.70181815 C238.077684,3.64049475 241.922316,3.64049475 244.904895,1.70181815 L245.095105,1.57818185 C248.077684,-0.360494753 251.922316,-0.360494753 254.904895,1.57818185 L255.095105,1.70181815 C258.077684,3.64049475 261.922316,3.64049475 264.904895,1.70181815 L265.095105,1.57818185 C268.077684,-0.360494753 271.922316,-0.360494753 274.904895,1.57818185 L275.095105,1.70181815 C278.077684,3.64049475 281.922316,3.64049475 284.904895,1.70181815 L285.095105,1.57818185 C288.077684,-0.360494753 291.922316,-0.360494753 294.904895,1.57818185 L295.095105,1.70181815 C298.077684,3.64049475 301.922316,3.64049475 304.904895,1.70181815 L305.095105,1.57818185 C308.077684,-0.360494753 311.922316,-0.360494753 314.904895,1.57818185 L320,4.89 L320,410 L0,410 L0.00147110516,4.3907976 Z" id="Rectangle" fill="#E1F5FE"></path>
        <g id="facebook">
            <use fill="#556279" fill-rule="evenodd" xlink:href="#path-1"></use>
            <use fill="black" fill-opacity="1" filter="url(#filter-2)" xlink:href="#path-1"></use>
        </g>
        <g id="location">
            <use fill="#556279" fill-rule="evenodd" xlink:href="#path-3"></use>
            <use fill="black" fill-opacity="1" filter="url(#filter-4)" xlink:href="#path-3"></use>
        </g>
        <g id="phone">
            <use fill="#556279" fill-rule="evenodd" xlink:href="#path-5"></use>
            <use fill="black" fill-opacity="1" filter="url(#filter-6)" xlink:href="#path-5"></use>
        </g>
        <text id="Support@chanchan.vn" font-family="SFCompactDisplay-Semibold, SF Compact Display" font-size="16" font-weight="500" line-spacing="20" letter-spacing="-0.479999989" fill="#343D51">
            <tspan x="80" y="263">Support@chanchan.vn</tspan>
        </text>
        <text id="096.900.1816" font-family="SFCompactDisplay-Regular, SF Compact Display" font-size="15" font-weight="normal" line-spacing="22" fill="#5D6A80">
            <tspan x="80" y="290">096.900.1816</tspan>
        </text>
        <text id="fb.com/hello.chancha" font-family="SFCompactDisplay-Semibold, SF Compact Display" font-size="16" font-weight="500" line-spacing="20" letter-spacing="-0.479999989" fill="#343D51">
            <tspan x="80" y="371">fb.com/hello.chanchan</tspan>
        </text>
        <text id="………………………………………………." font-family="Georgia-Italic, Georgia" font-size="14" font-style="italic" font-weight="normal" line-spacing="22" fill="#DADFE7">
            <tspan x="80" y="215">……………………………………………….</tspan>
        </text>
        <text id="………………………………………………." font-family="Georgia-Italic, Georgia" font-size="14" font-style="italic" font-weight="normal" line-spacing="22" fill="#DADFE7">
            <tspan x="80" y="323">……………………………………………….</tspan>
        </text>
        <text id="Espace-coworking" font-family="SFCompactDisplay-Semibold, SF Compact Display" font-size="16" font-weight="500" line-spacing="20" letter-spacing="-0.479999989" fill="#343D51">
            <tspan x="80" y="155">Espace coworking</tspan>
        </text>
        <text id="01-Đinh-Lễ,-Hoàn-Kiế" font-family="SFCompactDisplay-Regular, SF Compact Display" font-size="15" font-weight="normal" line-spacing="22" fill="#5D6A80">
            <tspan x="80" y="182">01 Đinh Lễ, Hoàn Kiếm, Hà Nội</tspan>
        </text>
        <text id="—-Liên-hệ-với-đội-ng" font-family="Georgia-Italic, Georgia" font-size="14" font-style="italic" font-weight="normal" line-spacing="22" fill="#5D6A80">
            <tspan x="30" y="99">— Liên hệ với đội ngũ phát triển</tspan>
        </text>
        <text id="Liên-hệ" font-family="SFCompactDisplay-Semibold, SF Compact Display" font-size="26" font-weight="500" line-spacing="26" letter-spacing="-1.56" fill="#343D51">
            <tspan x="30" y="65">Liên hệ</tspan>
        </text>
    </g>
</svg>