<?xml version="1.0" encoding="UTF-8"?>
<svg width="320px" height="429px" viewBox="0 0 320 429" version="1.1" xmlns="http://www.w3.org/2000/svg" xmlns:xlink="http://www.w3.org/1999/xlink">
    <!-- Generator: Sketch 54.1 (76490) - https://sketchapp.com -->
    <title>lienhe</title>
    <desc>Created with Sketch.</desc>
    <defs>
        <path d="M46.4227295,381.657593 C42.1452332,382.114136 37.8547668,382.114136 33.5772705,381.657593 C31.871643,381.475555 30.5244446,380.128357 30.3424072,378.422577 C29.8858643,374.145081 29.8858643,369.854767 30.3424072,365.577271 C30.5244446,363.871643 31.871643,362.524445 33.5772705,362.342407 C37.8547668,361.885864 42.1450805,361.885864 46.4225769,362.342407 C48.128357,362.524445 49.4755554,363.871643 49.6575928,365.577271 C50.1141357,369.854767 50.1141357,374.145081 49.6575928,378.422577 C49.4755554,380.128357 48.1285095,381.475555 46.4227295,381.657593 Z M40.2908325,381.999084 C41.4561463,381.993439 42.6213074,381.953918 43.7860107,381.880676 L43.7860107,373.760712 L46.1050415,373.760712 L46.3851929,370.842773 L43.7860107,370.842773 L43.7860107,368.989899 C43.7860107,368.580658 44.1177368,368.248932 44.5269775,368.248932 L46.3851929,368.248932 L46.3851929,365.330841 L43.4458923,365.330841 C41.7033386,365.330841 40.2908325,366.7435 40.2908325,368.486053 L40.2908325,370.842773 L38.5928345,370.842773 L38.5928345,373.760712 L40.2908325,373.760712 L40.2908325,381.999084 Z" id="path-1"></path>
        <filter x="-10.0%" y="-10.0%" width="120.0%" height="120.0%" filterUnits="objectBoundingBox" id="filter-2">
            <feGaussianBlur stdDeviation="1.5" in="SourceAlpha" result="shadowBlurInner1"></feGaussianBlur>
            <feOffset dx="-1" dy="1" in="shadowBlurInner1" result="shadowOffsetInner1"></feOffset>
            <feComposite in="shadowOffsetInner1" in2="SourceAlpha" operator="arithmetic" k2="-1" k3="1" result="shadowInnerInner1"></feComposite>
            <feColorMatrix values="0 0 0 0 0   0 0 0 0 0   0 0 0 0 0  0 0 0 0.5 0" type="matrix" in="shadowInnerInner1"></feColorMatrix>
        </filter>
        <path d="M39.4996039,148 C44.7376958,148 48.9994718,152.29413 49,157.572253 C49,158.948993 48.7205999,160.263468 48.169194,161.479491 C45.7932367,166.716903 41.2393845,172.245681 39.9004823,173.815069 C39.8001307,173.932414 39.6538285,174 39.499868,174 C39.3459074,174 39.1996053,173.932414 39.0992536,173.815069 C37.7598232,172.245415 33.2059711,166.716371 30.830806,161.479491 C30.2796642,160.263468 30,158.948993 30,157.572253 C30,152.29413 34.261776,148 39.4996039,148 Z M39.4996039,162.544109 C42.220718,162.544109 44.4345282,160.313493 44.4342641,157.571987 C44.4342641,154.830215 42.2204539,152.599599 39.4996039,152.599599 C36.7787538,152.599599 34.5649436,154.830215 34.5649436,157.571987 C34.5649436,160.313493 36.7787538,162.544109 39.4996039,162.544109 Z" id="path-3"></path>
        <filter x="-10.5%" y="-7.7%" width="121.1%" height="115.4%" filterUnits="objectBoundingBox" id="filter-4">
            <feGaussianBlur stdDeviation="1.5" in="SourceAlpha" result="shadowBlurInner1"></feGaussianBlur>
            <feOffset dx="-1" dy="1" in="shadowBlurInner1" result="shadowOffsetInner1"></feOffset>
            <feComposite in="shadowOffsetInner1" in2="SourceAlpha" operator="arithmetic" k2="-1" k3="1" result="shadowInnerInner1"></feComposite>
            <feColorMatrix values="0 0 0 0 0   0 0 0 0 0   0 0 0 0 0  0 0 0 0.5 0" type="matrix" in="shadowInnerInner1"></feColorMatrix>
        </filter>
        <path d="M40.5,257 C44.9272842,257 48.5294495,260.602165 48.5294495,265.029449 C48.5294495,268.748573 48.5294495,271.196693 48.5294495,274.911812 C48.5294495,275.933517 47.6982422,276.764725 46.6765366,276.764725 L42.2391586,276.764725 C41.9832916,277.482018 41.3041306,278 40.5,278 C39.4782944,278 38.6470871,277.168793 38.6470871,276.147087 C38.6470871,275.125381 39.4782944,274.294174 40.5,274.294174 C41.3041306,274.294174 41.9832916,274.811996 42.2391586,275.529449 L46.6765366,275.529449 C47.0166778,275.529449 47.2941742,275.252594 47.2941742,274.911812 L47.2941742,274.18042 C47.0999908,274.249634 46.8941116,274.294174 46.6765366,274.294174 C45.6546707,274.294174 44.8234634,273.462967 44.8234634,272.441101 L44.8234634,266.264725 C44.8234634,265.243019 45.6546707,264.411812 46.6765366,264.411812 C46.8841782,264.411812 47.0820465,264.448822 47.2678985,264.512428 C47.0019379,261.007515 44.0710831,258.235275 40.5,258.235275 C36.9269943,258.235275 33.9953384,261.010078 33.731781,264.517395 C33.9187546,264.453949 34.1155014,264.411812 34.3234634,264.411812 C35.3453293,264.411812 36.1765366,265.243019 36.1765366,266.264725 L36.1765366,272.441101 C36.1765366,273.462967 35.3453293,274.294174 34.3234634,274.294174 C33.3017578,274.294174 32.4705505,273.462967 32.4705505,272.441101 L32.4705505,265.029449 C32.4705505,260.602165 36.0727158,257 40.5,257 Z M49.7647247,265.760841 C50.4820175,266.016708 51,266.695869 51,267.5 L51,271.205826 C51,272.010117 50.4820175,272.689278 49.7647247,272.944984 L49.7647247,265.760841 Z M30,267.5 C30,266.695869 30.5179825,266.016708 31.2352753,265.760841 L31.2352753,272.944984 C30.5179825,272.689278 30,272.010117 30,271.205826 L30,267.5 Z" id="path-5"></path>
        <filter x="-9.5%" y="-9.5%" width="119.0%" height="119.0%" filterUnits="objectBoundingBox" id="filter-6">
            <feGaussianBlur stdDeviation="1.5" in="SourceAlpha" result="shadowBlurInner1"></feGaussianBlur>
            <feOffset dx="-1" dy="1" in="shadowBlurInner1" result="shadowOffsetInner1"></feOffset>
            <feComposite in="shadowOffsetInner1" in2="SourceAlpha" operator="arithmetic" k2="-1" k3="1" result="shadowInnerInner1"></feComposite>
            <feColorMatrix values="0 0 0 0 0   0 0 0 0 0   0 0 0 0 0  0 0 0 0.5 0" type="matrix" in="shadowInnerInner1"></feColorMatrix>
        </filter>
    </defs>
    <g id="lienhe" stroke="none" stroke-width="1" fill="none" fill-rule="evenodd">
        <rect fill="#F0F6FA" x="0" y="0" width="320" height="429"></rect>
        <g id="facebook">
            <use fill="#556279" fill-rule="evenodd" xlink:href="#path-1"></use>
            <use fill="black" fill-opacity="1" filter="url(#filter-2)" xlink:href="#path-1"></use>
        </g>
        <g id="location">
            <use fill="#556279" fill-rule="evenodd" xlink:href="#path-3"></use>
            <use fill="black" fill-opacity="1" filter="url(#filter-4)" xlink:href="#path-3"></use>
        </g>
        <g id="phone">
            <use fill="#556279" fill-rule="evenodd" xlink:href="#path-5"></use>
            <use fill="black" fill-opacity="1" filter="url(#filter-6)" xlink:href="#path-5"></use>
        </g>
        <path d="M3.04720534,421 C3.01573507,421.166826 3,421.339903 3,421.519231 C3,422.198721 3.22884537,422.782049 3.68654298,423.269231 C4.14424058,423.756413 4.68408094,424 5.30608025,424 C5.91634372,424 6.45325017,423.759618 6.91681569,423.278846 C7.38038122,422.798075 7.6121605,422.211542 7.6121605,421.519231 C7.6121605,421.339903 7.59622108,421.166826 7.5643421,421 L12.7468253,421 C12.7153551,421.166826 12.69962,421.339903 12.69962,421.519231 C12.69962,422.198721 12.9284654,422.782049 13.386163,423.269231 C13.8438606,423.756413 14.3837009,424 15.0057002,424 C15.6159637,424 16.1528702,423.759618 16.6164357,423.278846 C17.0800012,422.798075 17.3117805,422.211542 17.3117805,421.519231 C17.3117805,421.339903 17.2958411,421.166826 17.2639621,421 L22.4464453,421 C22.414975,421.166826 22.39924,421.339903 22.39924,421.519231 C22.39924,422.198721 22.6280853,422.782049 23.0857829,423.269231 C23.5434805,423.756413 24.0833209,424 24.7053202,424 C25.3273195,424 25.8671599,423.756413 26.3248575,423.269231 C26.7825551,422.782049 27.0114005,422.198721 27.0114005,421.519231 C27.0114005,421.339903 26.9956654,421.166826 26.9641951,421 L32.1460653,421 C32.114595,421.166826 32.09886,421.339903 32.09886,421.519231 C32.09886,422.198721 32.3277053,422.782049 32.7854029,423.269231 C33.2431005,423.756413 33.7829409,424 34.4049402,424 C35.0152037,424 35.5521101,423.759618 36.0156756,423.278846 C36.4792412,422.798075 36.7110205,422.211542 36.7110205,421.519231 C36.7110205,421.339903 36.695081,421.166826 36.6632021,421 L41.8456853,421 C41.814215,421.166826 41.7984799,421.339903 41.7984799,421.519231 C41.7984799,422.198721 42.0273253,422.782049 42.4850229,423.269231 C42.9427205,423.756413 43.4825609,424 44.1045602,424 C44.7148237,424 45.2517301,423.759618 45.7152956,423.278846 C46.1788612,422.798075 46.4106404,422.211542 46.4106404,421.519231 C46.4106404,421.339903 46.394701,421.166826 46.362822,421 L51.5453053,421 C51.513835,421.166826 51.4980999,421.339903 51.4980999,421.519231 C51.4980999,422.198721 51.7269453,422.782049 52.1846429,423.269231 C52.6423405,423.756413 53.1821809,424 53.8041802,424 C54.4261795,424 54.9660198,423.756413 55.4237174,423.269231 C55.8814151,422.782049 56.1102604,422.198721 56.1102604,421.519231 C56.1102604,421.339903 56.0945254,421.166826 56.0630551,421 L61.2449252,421 C61.213455,421.166826 61.1977199,421.339903 61.1977199,421.519231 C61.1977199,422.198721 61.4265653,422.782049 61.8842629,423.269231 C62.3419605,423.756413 62.8818008,424 63.5038002,424 C64.1140636,424 64.6509701,423.759618 65.1145356,423.278846 C65.5781011,422.798075 65.8098804,422.211542 65.8098804,421.519231 C65.8098804,421.339903 65.793941,421.166826 65.762062,421 L70.9445452,421 C70.913075,421.166826 70.8973399,421.339903 70.8973399,421.519231 C70.8973399,422.198721 71.1261853,422.782049 71.5838829,423.269231 C72.0415805,423.756413 72.5814208,424 73.2034201,424 C73.8136836,424 74.3505901,423.759618 74.8141556,423.278846 C75.2777211,422.798075 75.5095004,422.211542 75.5095004,421.519231 C75.5095004,421.339903 75.493561,421.166826 75.461682,421 L80.6441652,421 C80.6126949,421.166826 80.5969599,421.339903 80.5969599,421.519231 C80.5969599,422.198721 80.8258052,422.782049 81.2835029,423.269231 C81.7412005,423.756413 82.2810408,424 82.9030401,424 C83.5250394,424 84.0648798,423.756413 84.5225774,423.269231 C84.980275,422.782049 85.2091204,422.198721 85.2091204,421.519231 C85.2091204,421.339903 85.1933853,421.166826 85.161915,421 L90.3437852,421 C90.3123149,421.166826 90.2965799,421.339903 90.2965799,421.519231 C90.2965799,422.198721 90.5254252,422.782049 90.9831228,423.269231 C91.4408204,423.756413 91.9806608,424 92.6026601,424 C93.2129236,424 93.74983,423.759618 94.2133956,423.278846 C94.6769611,422.798075 94.9087404,422.211542 94.9087404,421.519231 C94.9087404,421.339903 94.8928009,421.166826 94.860922,421 L100.043405,421 C100.011935,421.166826 99.9961998,421.339903 99.9961998,421.519231 C99.9961998,422.198721 100.225045,422.782049 100.682743,423.269231 C101.14044,423.756413 101.680281,424 102.30228,424 C102.912544,424 103.44945,423.759618 103.913016,423.278846 C104.376581,422.798075 104.60836,422.211542 104.60836,421.519231 C104.60836,421.339903 104.592421,421.166826 104.560542,421 L109.743025,421 C109.711555,421.166826 109.69582,421.339903 109.69582,421.519231 C109.69582,422.198721 109.924665,422.782049 110.382363,423.269231 C110.84006,423.756413 111.379901,424 112.0019,424 C112.623899,424 113.16374,423.756413 113.621437,423.269231 C114.079135,422.782049 114.30798,422.198721 114.30798,421.519231 C114.30798,421.339903 114.292245,421.166826 114.260775,421 L119.442645,421 C119.411175,421.166826 119.39544,421.339903 119.39544,421.519231 C119.39544,422.198721 119.624285,422.782049 120.081983,423.269231 C120.53968,423.756413 121.079521,424 121.70152,424 C122.311784,424 122.84869,423.759618 123.312256,423.278846 C123.775821,422.798075 124.0076,422.211542 124.0076,421.519231 C124.0076,421.339903 123.991661,421.166826 123.959782,421 L129.142265,421 C129.110795,421.166826 129.09506,421.339903 129.09506,421.519231 C129.09506,422.198721 129.323905,422.782049 129.781603,423.269231 C130.2393,423.756413 130.779141,424 131.40114,424 C132.011404,424 132.54831,423.759618 133.011875,423.278846 C133.475441,422.798075 133.70722,422.211542 133.70722,421.519231 C133.70722,421.339903 133.691281,421.166826 133.659402,421 L138.841885,421 C138.810415,421.166826 138.79468,421.339903 138.79468,421.519231 C138.79468,422.198721 139.023525,422.782049 139.481223,423.269231 C139.93892,423.756413 140.478761,424 141.10076,424 C141.722759,424 142.2626,423.756413 142.720297,423.269231 C143.177995,422.782049 143.40684,422.198721 143.40684,421.519231 C143.40684,421.339903 143.391105,421.166826 143.359635,421 L148.541505,421 C148.510035,421.166826 148.4943,421.339903 148.4943,421.519231 C148.4943,422.198721 148.723145,422.782049 149.180843,423.269231 C149.63854,423.756413 150.178381,424 150.80038,424 C151.410643,424 151.94755,423.759618 152.411115,423.278846 C152.874681,422.798075 153.10646,422.211542 153.10646,421.519231 C153.10646,421.339903 153.090521,421.166826 153.058642,421 L158.241125,421 C158.209655,421.166826 158.19392,421.339903 158.19392,421.519231 C158.19392,422.198721 158.422765,422.782049 158.880463,423.269231 C159.33816,423.756413 159.878001,424 160.5,424 C161.110263,424 161.64717,423.759618 162.110735,423.278846 C162.574301,422.798075 162.80608,422.211542 162.80608,421.519231 C162.80608,421.339903 162.790141,421.166826 162.758262,421 L167.940745,421 C167.909275,421.166826 167.89354,421.339903 167.89354,421.519231 C167.89354,422.198721 168.122385,422.782049 168.580083,423.269231 C169.03778,423.756413 169.577621,424 170.19962,424 C170.821619,424 171.36146,423.756413 171.819157,423.269231 C172.276855,422.782049 172.5057,422.198721 172.5057,421.519231 C172.5057,421.339903 172.489965,421.166826 172.458495,421 L177.640365,421 C177.608895,421.166826 177.59316,421.339903 177.59316,421.519231 C177.59316,422.198721 177.822005,422.782049 178.279703,423.269231 C178.7374,423.756413 179.277241,424 179.89924,424 C180.509503,424 181.04641,423.759618 181.509975,423.278846 C181.973541,422.798075 182.20532,422.211542 182.20532,421.519231 C182.20532,421.339903 182.189381,421.166826 182.157502,421 L187.339985,421 C187.308515,421.166826 187.29278,421.339903 187.29278,421.519231 C187.29278,422.198721 187.521625,422.782049 187.979323,423.269231 C188.43702,423.756413 188.976861,424 189.59886,424 C190.209123,424 190.74603,423.759618 191.209595,423.278846 C191.673161,422.798075 191.90494,422.211542 191.90494,421.519231 C191.90494,421.339903 191.889001,421.166826 191.857122,421 L197.039605,421 C197.008135,421.166826 196.9924,421.339903 196.9924,421.519231 C196.9924,422.198721 197.221245,422.782049 197.678943,423.269231 C198.13664,423.756413 198.676481,424 199.29848,424 C199.920479,424 200.46032,423.756413 200.918017,423.269231 C201.375715,422.782049 201.60456,422.198721 201.60456,421.519231 C201.60456,421.339903 201.588825,421.166826 201.557355,421 L206.739225,421 C206.707755,421.166826 206.69202,421.339903 206.69202,421.519231 C206.69202,422.198721 206.920865,422.782049 207.378563,423.269231 C207.83626,423.756413 208.376101,424 208.9981,424 C209.608363,424 210.14527,423.759618 210.608835,423.278846 C211.072401,422.798075 211.30418,422.211542 211.30418,421.519231 C211.30418,421.339903 211.288241,421.166826 211.256362,421 L216.438845,421 C216.407375,421.166826 216.39164,421.339903 216.39164,421.519231 C216.39164,422.198721 216.620485,422.782049 217.078183,423.269231 C217.53588,423.756413 218.075721,424 218.69772,424 C219.307983,424 219.84489,423.759618 220.308455,423.278846 C220.772021,422.798075 221.0038,422.211542 221.0038,421.519231 C221.0038,421.339903 220.987861,421.166826 220.955982,421 L226.138465,421 C226.106995,421.166826 226.09126,421.339903 226.09126,421.519231 C226.09126,422.198721 226.320105,422.782049 226.777803,423.269231 C227.2355,423.756413 227.775341,424 228.39734,424 C229.019339,424 229.55918,423.756413 230.016877,423.269231 C230.474575,422.782049 230.70342,422.198721 230.70342,421.519231 C230.70342,421.339903 230.687685,421.166826 230.656215,421 L235.838085,421 C235.806615,421.166826 235.79088,421.339903 235.79088,421.519231 C235.79088,422.198721 236.019725,422.782049 236.477423,423.269231 C236.93512,423.756413 237.474961,424 238.09696,424 C238.707223,424 239.24413,423.759618 239.707695,423.278846 C240.171261,422.798075 240.40304,422.211542 240.40304,421.519231 C240.40304,421.339903 240.387101,421.166826 240.355222,421 L245.537705,421 C245.506235,421.166826 245.4905,421.339903 245.4905,421.519231 C245.4905,422.198721 245.719345,422.782049 246.177043,423.269231 C246.63474,423.756413 247.174581,424 247.79658,424 C248.406843,424 248.94375,423.759618 249.407315,423.278846 C249.870881,422.798075 250.10266,422.211542 250.10266,421.519231 C250.10266,421.339903 250.086721,421.166826 250.054842,421 L255.237325,421 C255.205855,421.166826 255.19012,421.339903 255.19012,421.519231 C255.19012,422.198721 255.418965,422.782049 255.876663,423.269231 C256.33436,423.756413 256.874201,424 257.4962,424 C258.118199,424 258.65804,423.756413 259.115737,423.269231 C259.573435,422.782049 259.80228,422.198721 259.80228,421.519231 C259.80228,421.339903 259.786545,421.166826 259.755075,421 L264.936945,421 C264.905475,421.166826 264.88974,421.339903 264.88974,421.519231 C264.88974,422.198721 265.118585,422.782049 265.576283,423.269231 C266.03398,423.756413 266.573821,424 267.19582,424 C267.806083,424 268.34299,423.759618 268.806555,423.278846 C269.270121,422.798075 269.5019,422.211542 269.5019,421.519231 C269.5019,421.339903 269.485961,421.166826 269.454082,421 L274.636565,421 C274.605095,421.166826 274.58936,421.339903 274.58936,421.519231 C274.58936,422.198721 274.818205,422.782049 275.275903,423.269231 C275.7336,423.756413 276.273441,424 276.89544,424 C277.505703,424 278.04261,423.759618 278.506175,423.278846 C278.969741,422.798075 279.20152,422.211542 279.20152,421.519231 C279.20152,421.339903 279.185581,421.166826 279.153702,421 L284.336185,421 C284.304715,421.166826 284.28898,421.339903 284.28898,421.519231 C284.28898,422.198721 284.517825,422.782049 284.975523,423.269231 C285.43322,423.756413 285.97306,424 286.59506,424 C287.217059,424 287.756899,423.756413 288.214597,423.269231 C288.672295,422.782049 288.90114,422.198721 288.90114,421.519231 C288.90114,421.339903 288.885405,421.166826 288.853935,421 L294.035805,421 C294.004335,421.166826 293.9886,421.339903 293.9886,421.519231 C293.9886,422.198721 294.217445,422.782049 294.675143,423.269231 C295.13284,423.756413 295.67268,424 296.29468,424 C296.904943,424 297.44185,423.759618 297.905415,423.278846 C298.368981,422.798075 298.60076,422.211542 298.60076,421.519231 C298.60076,421.339903 298.584821,421.166826 298.552942,421 L303.735425,421 C303.703955,421.166826 303.68822,421.339903 303.68822,421.519231 C303.68822,422.198721 303.917065,422.782049 304.374762,423.269231 C304.83246,423.756413 305.3723,424 305.9943,424 C306.604563,424 307.14147,423.759618 307.605035,423.278846 C308.068601,422.798075 308.30038,422.211542 308.30038,421.519231 C308.30038,421.339903 308.284441,421.166826 308.252562,421 L313.435045,421 C313.403575,421.166826 313.387839,421.339903 313.387839,421.519231 C313.387839,422.198721 313.616685,422.782049 314.074382,423.269231 C314.53208,423.756413 315.07192,424 315.69392,424 C316.315919,424 316.855759,423.756413 317.313457,423.269231 C317.771155,422.782049 318,422.198721 318,421.519231 C318,421.339903 317.984265,421.166826 317.952795,421 L320,421 L320,429 L0,429 L0,421 L3.04720534,421 Z" id="Rectangle-2" fill="#FFFFFF"></path>
        <path d="M22.4464453,5 L17.2639621,5 C17.2958411,5.16682572 17.3117805,5.33990253 17.3117805,5.51923077 C17.3117805,6.21154192 17.0800012,6.79807452 16.6164357,7.27884615 C16.1528702,7.75961779 15.6159637,8 15.0057002,8 C14.3837009,8 13.8438606,7.75641269 13.386163,7.26923077 C12.9284654,6.78204885 12.69962,6.19872135 12.69962,5.51923077 C12.69962,5.33990253 12.7153551,5.16682572 12.7468253,5 L7.5643421,5 C7.59622108,5.16682572 7.6121605,5.33990253 7.6121605,5.51923077 C7.6121605,6.21154192 7.38038122,6.79807452 6.91681569,7.27884615 C6.45325017,7.75961779 5.91634372,8 5.30608025,8 C4.68408094,8 4.14424058,7.75641269 3.68654298,7.26923077 C3.22884537,6.78204885 3,6.19872135 3,5.51923077 C3,5.33990253 3.01573507,5.16682572 3.04720534,5 L0,5 L0,0 L320,0 L320,5 L317.952795,5 C317.984265,5.16682572 318,5.33990253 318,5.51923077 C318,6.19872135 317.771155,6.78204885 317.313457,7.26923077 C316.855759,7.75641269 316.315919,8 315.69392,8 C315.07192,8 314.53208,7.75641269 314.074382,7.26923077 C313.616685,6.78204885 313.387839,6.19872135 313.387839,5.51923077 C313.387839,5.33990253 313.403575,5.16682572 313.435045,5 L308.252562,5 C308.284441,5.16682572 308.30038,5.33990253 308.30038,5.51923077 C308.30038,6.21154192 308.068601,6.79807452 307.605035,7.27884615 C307.14147,7.75961779 306.604563,8 305.9943,8 C305.3723,8 304.83246,7.75641269 304.374762,7.26923077 C303.917065,6.78204885 303.68822,6.19872135 303.68822,5.51923077 C303.68822,5.33990253 303.703955,5.16682572 303.735425,5 L298.552942,5 C298.584821,5.16682572 298.60076,5.33990253 298.60076,5.51923077 C298.60076,6.21154192 298.368981,6.79807452 297.905415,7.27884615 C297.44185,7.75961779 296.904943,8 296.29468,8 C295.67268,8 295.13284,7.75641269 294.675143,7.26923077 C294.217445,6.78204885 293.9886,6.19872135 293.9886,5.51923077 C293.9886,5.33990253 294.004335,5.16682572 294.035805,5 L288.853935,5 C288.885405,5.16682572 288.90114,5.33990253 288.90114,5.51923077 C288.90114,6.19872135 288.672295,6.78204885 288.214597,7.26923077 C287.756899,7.75641269 287.217059,8 286.59506,8 C285.97306,8 285.43322,7.75641269 284.975523,7.26923077 C284.517825,6.78204885 284.28898,6.19872135 284.28898,5.51923077 C284.28898,5.33990253 284.304715,5.16682572 284.336185,5 L279.153702,5 C279.185581,5.16682572 279.20152,5.33990253 279.20152,5.51923077 C279.20152,6.21154192 278.969741,6.79807452 278.506175,7.27884615 C278.04261,7.75961779 277.505703,8 276.89544,8 C276.273441,8 275.7336,7.75641269 275.275903,7.26923077 C274.818205,6.78204885 274.58936,6.19872135 274.58936,5.51923077 C274.58936,5.33990253 274.605095,5.16682572 274.636565,5 L269.454082,5 C269.485961,5.16682572 269.5019,5.33990253 269.5019,5.51923077 C269.5019,6.21154192 269.270121,6.79807452 268.806555,7.27884615 C268.34299,7.75961779 267.806083,8 267.19582,8 C266.573821,8 266.03398,7.75641269 265.576283,7.26923077 C265.118585,6.78204885 264.88974,6.19872135 264.88974,5.51923077 C264.88974,5.33990253 264.905475,5.16682572 264.936945,5 L259.755075,5 C259.786545,5.16682572 259.80228,5.33990253 259.80228,5.51923077 C259.80228,6.19872135 259.573435,6.78204885 259.115737,7.26923077 C258.65804,7.75641269 258.118199,8 257.4962,8 C256.874201,8 256.33436,7.75641269 255.876663,7.26923077 C255.418965,6.78204885 255.19012,6.19872135 255.19012,5.51923077 C255.19012,5.33990253 255.205855,5.16682572 255.237325,5 L250.054842,5 C250.086721,5.16682572 250.10266,5.33990253 250.10266,5.51923077 C250.10266,6.21154192 249.870881,6.79807452 249.407315,7.27884615 C248.94375,7.75961779 248.406843,8 247.79658,8 C247.174581,8 246.63474,7.75641269 246.177043,7.26923077 C245.719345,6.78204885 245.4905,6.19872135 245.4905,5.51923077 C245.4905,5.33990253 245.506235,5.16682572 245.537705,5 L240.355222,5 C240.387101,5.16682572 240.40304,5.33990253 240.40304,5.51923077 C240.40304,6.21154192 240.171261,6.79807452 239.707695,7.27884615 C239.24413,7.75961779 238.707223,8 238.09696,8 C237.474961,8 236.93512,7.75641269 236.477423,7.26923077 C236.019725,6.78204885 235.79088,6.19872135 235.79088,5.51923077 C235.79088,5.33990253 235.806615,5.16682572 235.838085,5 L230.656215,5 C230.687685,5.16682572 230.70342,5.33990253 230.70342,5.51923077 C230.70342,6.19872135 230.474575,6.78204885 230.016877,7.26923077 C229.55918,7.75641269 229.019339,8 228.39734,8 C227.775341,8 227.2355,7.75641269 226.777803,7.26923077 C226.320105,6.78204885 226.09126,6.19872135 226.09126,5.51923077 C226.09126,5.33990253 226.106995,5.16682572 226.138465,5 L220.955982,5 C220.987861,5.16682572 221.0038,5.33990253 221.0038,5.51923077 C221.0038,6.21154192 220.772021,6.79807452 220.308455,7.27884615 C219.84489,7.75961779 219.307983,8 218.69772,8 C218.075721,8 217.53588,7.75641269 217.078183,7.26923077 C216.620485,6.78204885 216.39164,6.19872135 216.39164,5.51923077 C216.39164,5.33990253 216.407375,5.16682572 216.438845,5 L211.256362,5 C211.288241,5.16682572 211.30418,5.33990253 211.30418,5.51923077 C211.30418,6.21154192 211.072401,6.79807452 210.608835,7.27884615 C210.14527,7.75961779 209.608363,8 208.9981,8 C208.376101,8 207.83626,7.75641269 207.378563,7.26923077 C206.920865,6.78204885 206.69202,6.19872135 206.69202,5.51923077 C206.69202,5.33990253 206.707755,5.16682572 206.739225,5 L201.557355,5 C201.588825,5.16682572 201.60456,5.33990253 201.60456,5.51923077 C201.60456,6.19872135 201.375715,6.78204885 200.918017,7.26923077 C200.46032,7.75641269 199.920479,8 199.29848,8 C198.676481,8 198.13664,7.75641269 197.678943,7.26923077 C197.221245,6.78204885 196.9924,6.19872135 196.9924,5.51923077 C196.9924,5.33990253 197.008135,5.16682572 197.039605,5 L191.857122,5 C191.889001,5.16682572 191.90494,5.33990253 191.90494,5.51923077 C191.90494,6.21154192 191.673161,6.79807452 191.209595,7.27884615 C190.74603,7.75961779 190.209123,8 189.59886,8 C188.976861,8 188.43702,7.75641269 187.979323,7.26923077 C187.521625,6.78204885 187.29278,6.19872135 187.29278,5.51923077 C187.29278,5.33990253 187.308515,5.16682572 187.339985,5 L182.157502,5 C182.189381,5.16682572 182.20532,5.33990253 182.20532,5.51923077 C182.20532,6.21154192 181.973541,6.79807452 181.509975,7.27884615 C181.04641,7.75961779 180.509503,8 179.89924,8 C179.277241,8 178.7374,7.75641269 178.279703,7.26923077 C177.822005,6.78204885 177.59316,6.19872135 177.59316,5.51923077 C177.59316,5.33990253 177.608895,5.16682572 177.640365,5 L172.458495,5 C172.489965,5.16682572 172.5057,5.33990253 172.5057,5.51923077 C172.5057,6.19872135 172.276855,6.78204885 171.819157,7.26923077 C171.36146,7.75641269 170.821619,8 170.19962,8 C169.577621,8 169.03778,7.75641269 168.580083,7.26923077 C168.122385,6.78204885 167.89354,6.19872135 167.89354,5.51923077 C167.89354,5.33990253 167.909275,5.16682572 167.940745,5 L162.758262,5 C162.790141,5.16682572 162.80608,5.33990253 162.80608,5.51923077 C162.80608,6.21154192 162.574301,6.79807452 162.110735,7.27884615 C161.64717,7.75961779 161.110263,8 160.5,8 C159.878001,8 159.33816,7.75641269 158.880463,7.26923077 C158.422765,6.78204885 158.19392,6.19872135 158.19392,5.51923077 C158.19392,5.33990253 158.209655,5.16682572 158.241125,5 L153.058642,5 C153.090521,5.16682572 153.10646,5.33990253 153.10646,5.51923077 C153.10646,6.21154192 152.874681,6.79807452 152.411115,7.27884615 C151.94755,7.75961779 151.410643,8 150.80038,8 C150.178381,8 149.63854,7.75641269 149.180843,7.26923077 C148.723145,6.78204885 148.4943,6.19872135 148.4943,5.51923077 C148.4943,5.33990253 148.510035,5.16682572 148.541505,5 L143.359635,5 C143.391105,5.16682572 143.40684,5.33990253 143.40684,5.51923077 C143.40684,6.19872135 143.177995,6.78204885 142.720297,7.26923077 C142.2626,7.75641269 141.722759,8 141.10076,8 C140.478761,8 139.93892,7.75641269 139.481223,7.26923077 C139.023525,6.78204885 138.79468,6.19872135 138.79468,5.51923077 C138.79468,5.33990253 138.810415,5.16682572 138.841885,5 L133.659402,5 C133.691281,5.16682572 133.70722,5.33990253 133.70722,5.51923077 C133.70722,6.21154192 133.475441,6.79807452 133.011875,7.27884615 C132.54831,7.75961779 132.011404,8 131.40114,8 C130.779141,8 130.2393,7.75641269 129.781603,7.26923077 C129.323905,6.78204885 129.09506,6.19872135 129.09506,5.51923077 C129.09506,5.33990253 129.110795,5.16682572 129.142265,5 L123.959782,5 C123.991661,5.16682572 124.0076,5.33990253 124.0076,5.51923077 C124.0076,6.21154192 123.775821,6.79807452 123.312256,7.27884615 C122.84869,7.75961779 122.311784,8 121.70152,8 C121.079521,8 120.53968,7.75641269 120.081983,7.26923077 C119.624285,6.78204885 119.39544,6.19872135 119.39544,5.51923077 C119.39544,5.33990253 119.411175,5.16682572 119.442645,5 L114.260775,5 C114.292245,5.16682572 114.30798,5.33990253 114.30798,5.51923077 C114.30798,6.19872135 114.079135,6.78204885 113.621437,7.26923077 C113.16374,7.75641269 112.623899,8 112.0019,8 C111.379901,8 110.84006,7.75641269 110.382363,7.26923077 C109.924665,6.78204885 109.69582,6.19872135 109.69582,5.51923077 C109.69582,5.33990253 109.711555,5.16682572 109.743025,5 L104.560542,5 C104.592421,5.16682572 104.60836,5.33990253 104.60836,5.51923077 C104.60836,6.21154192 104.376581,6.79807452 103.913016,7.27884615 C103.44945,7.75961779 102.912544,8 102.30228,8 C101.680281,8 101.14044,7.75641269 100.682743,7.26923077 C100.225045,6.78204885 99.9961998,6.19872135 99.9961998,5.51923077 C99.9961998,5.33990253 100.011935,5.16682572 100.043405,5 L94.860922,5 C94.8928009,5.16682572 94.9087404,5.33990253 94.9087404,5.51923077 C94.9087404,6.21154192 94.6769611,6.79807452 94.2133956,7.27884615 C93.74983,7.75961779 93.2129236,8 92.6026601,8 C91.9806608,8 91.4408204,7.75641269 90.9831228,7.26923077 C90.5254252,6.78204885 90.2965799,6.19872135 90.2965799,5.51923077 C90.2965799,5.33990253 90.3123149,5.16682572 90.3437852,5 L85.161915,5 C85.1933853,5.16682572 85.2091204,5.33990253 85.2091204,5.51923077 C85.2091204,6.19872135 84.980275,6.78204885 84.5225774,7.26923077 C84.0648798,7.75641269 83.5250394,8 82.9030401,8 C82.2810408,8 81.7412005,7.75641269 81.2835029,7.26923077 C80.8258052,6.78204885 80.5969599,6.19872135 80.5969599,5.51923077 C80.5969599,5.33990253 80.6126949,5.16682572 80.6441652,5 L75.461682,5 C75.493561,5.16682572 75.5095004,5.33990253 75.5095004,5.51923077 C75.5095004,6.21154192 75.2777211,6.79807452 74.8141556,7.27884615 C74.3505901,7.75961779 73.8136836,8 73.2034201,8 C72.5814208,8 72.0415805,7.75641269 71.5838829,7.26923077 C71.1261853,6.78204885 70.8973399,6.19872135 70.8973399,5.51923077 C70.8973399,5.33990253 70.913075,5.16682572 70.9445452,5 L65.762062,5 C65.793941,5.16682572 65.8098804,5.33990253 65.8098804,5.51923077 C65.8098804,6.21154192 65.5781011,6.79807452 65.1145356,7.27884615 C64.6509701,7.75961779 64.1140636,8 63.5038002,8 C62.8818008,8 62.3419605,7.75641269 61.8842629,7.26923077 C61.4265653,6.78204885 61.1977199,6.19872135 61.1977199,5.51923077 C61.1977199,5.33990253 61.213455,5.16682572 61.2449252,5 L56.0630551,5 C56.0945254,5.16682572 56.1102604,5.33990253 56.1102604,5.51923077 C56.1102604,6.19872135 55.8814151,6.78204885 55.4237174,7.26923077 C54.9660198,7.75641269 54.4261795,8 53.8041802,8 C53.1821809,8 52.6423405,7.75641269 52.1846429,7.26923077 C51.7269453,6.78204885 51.4980999,6.19872135 51.4980999,5.51923077 C51.4980999,5.33990253 51.513835,5.16682572 51.5453053,5 L46.362822,5 C46.394701,5.16682572 46.4106404,5.33990253 46.4106404,5.51923077 C46.4106404,6.21154192 46.1788612,6.79807452 45.7152956,7.27884615 C45.2517301,7.75961779 44.7148237,8 44.1045602,8 C43.4825609,8 42.9427205,7.75641269 42.4850229,7.26923077 C42.0273253,6.78204885 41.7984799,6.19872135 41.7984799,5.51923077 C41.7984799,5.33990253 41.814215,5.16682572 41.8456853,5 L36.6632021,5 C36.695081,5.16682572 36.7110205,5.33990253 36.7110205,5.51923077 C36.7110205,6.21154192 36.4792412,6.79807452 36.0156756,7.27884615 C35.5521101,7.75961779 35.0152037,8 34.4049402,8 C33.7829409,8 33.2431005,7.75641269 32.7854029,7.26923077 C32.3277053,6.78204885 32.09886,6.19872135 32.09886,5.51923077 C32.09886,5.33990253 32.114595,5.16682572 32.1460653,5 L26.9641951,5 C26.9956654,5.16682572 27.0114005,5.33990253 27.0114005,5.51923077 C27.0114005,6.19872135 26.7825551,6.78204885 26.3248575,7.26923077 C25.8671599,7.75641269 25.3273195,8 24.7053202,8 C24.0833209,8 23.5434805,7.75641269 23.0857829,7.26923077 C22.6280853,6.78204885 22.39924,6.19872135 22.39924,5.51923077 C22.39924,5.33990253 22.414975,5.16682572 22.4464453,5 Z" id="Rectangle-2" fill="#FFFFFF"></path>
        <text id="Support@chanchan.vn" font-family="SFCompactDisplay-Semibold, SF Compact Display" font-size="18" font-weight="500" letter-spacing="-0.720000029" fill="#343D51">
            <tspan x="80" y="269">Support@chanchan.vn</tspan>
        </text>
        <text id="090.810.3357" font-family="SFCompactDisplay-Regular, SF Compact Display" font-size="16" font-weight="normal" fill="#5D6A80">
            <tspan x="80" y="300">090.810.3357</tspan>
        </text>
        <text id="fb.com/hello.chancha" font-family="SFCompactDisplay-Semibold, SF Compact Display" font-size="18" font-weight="500" letter-spacing="-0.720000029" fill="#343D51">
            <tspan x="80" y="377">fb.com/hello.chanchan</tspan>
        </text>
        <text id="………………………………………………." font-family="Georgia-Italic, Georgia" font-size="14" font-style="italic" font-weight="normal" fill="#DADFE7">
            <tspan x="80" y="225">……………………………………………….</tspan>
        </text>
        <text id="………………………………………………." font-family="Georgia-Italic, Georgia" font-size="14" font-style="italic" font-weight="normal" fill="#DADFE7">
            <tspan x="80" y="333">……………………………………………….</tspan>
        </text>
        <text id="Espace-coworking" font-family="SFCompactDisplay-Semibold, SF Compact Display" font-size="18" font-weight="500" letter-spacing="-0.720000029" fill="#343D51">
            <tspan x="80" y="161">Espace coworking</tspan>
        </text>
        <text id="01-Đinh-Lễ,-Hoàn-Kiế" font-family="SFCompactDisplay-Regular, SF Compact Display" font-size="16" font-weight="normal" fill="#5D6A80">
            <tspan x="80" y="192">01 Đinh Lễ, Hoàn Kiếm, Hà Nội</tspan>
        </text>
        <text id="—-Liên-hệ-với-đội-ng" font-family="Georgia-Italic, Georgia" font-size="15" font-style="italic" font-weight="normal" fill="#5D6A80">
            <tspan x="30" y="109">— Liên hệ với đội ngũ phát triển</tspan>
        </text>
        <text id="Liên-hệ" font-family="SFCompactDisplay-Semibold, SF Compact Display" font-size="26" font-weight="500" letter-spacing="-1.56" fill="#343D51">
            <tspan x="30" y="69">Liên hệ</tspan>
        </text>
    </g>
</svg>