<?xml version="1.0" encoding="UTF-8"?>
<svg width="320px" height="416px" viewBox="0 0 320 416" version="1.1" xmlns="http://www.w3.org/2000/svg" xmlns:xlink="http://www.w3.org/1999/xlink">
    <!-- Generator: Sketch 54.1 (76490) - https://sketchapp.com -->
    <title>lienhe</title>
    <desc>Created with Sketch.</desc>
    <defs>
        <path d="M46.4227295,377.657593 C42.1452332,378.114136 37.8547668,378.114136 33.5772705,377.657593 C31.871643,377.475555 30.5244446,376.128357 30.3424072,374.422577 C29.8858643,370.145081 29.8858643,365.854767 30.3424072,361.577271 C30.5244446,359.871643 31.871643,358.524445 33.5772705,358.342407 C37.8547668,357.885864 42.1450805,357.885864 46.4225769,358.342407 C48.128357,358.524445 49.4755554,359.871643 49.6575928,361.577271 C50.1141357,365.854767 50.1141357,370.145081 49.6575928,374.422577 C49.4755554,376.128357 48.1285095,377.475555 46.4227295,377.657593 Z M40.2908325,377.999084 C41.4561463,377.993439 42.6213074,377.953918 43.7860107,377.880676 L43.7860107,369.760712 L46.1050415,369.760712 L46.3851929,366.842773 L43.7860107,366.842773 L43.7860107,364.989899 C43.7860107,364.580658 44.1177368,364.248932 44.5269775,364.248932 L46.3851929,364.248932 L46.3851929,361.330841 L43.4458923,361.330841 C41.7033386,361.330841 40.2908325,362.7435 40.2908325,364.486053 L40.2908325,366.842773 L38.5928345,366.842773 L38.5928345,369.760712 L40.2908325,369.760712 L40.2908325,377.999084 Z" id="path-1"></path>
        <filter x="-10.0%" y="-10.0%" width="120.0%" height="120.0%" filterUnits="objectBoundingBox" id="filter-2">
            <feGaussianBlur stdDeviation="1.5" in="SourceAlpha" result="shadowBlurInner1"></feGaussianBlur>
            <feOffset dx="-1" dy="1" in="shadowBlurInner1" result="shadowOffsetInner1"></feOffset>
            <feComposite in="shadowOffsetInner1" in2="SourceAlpha" operator="arithmetic" k2="-1" k3="1" result="shadowInnerInner1"></feComposite>
            <feColorMatrix values="0 0 0 0 0   0 0 0 0 0   0 0 0 0 0  0 0 0 0.5 0" type="matrix" in="shadowInnerInner1"></feColorMatrix>
        </filter>
        <path d="M39.4996039,142 C44.7376958,142 48.9994718,146.29413 49,151.572253 C49,152.948993 48.7205999,154.263468 48.169194,155.479491 C45.7932367,160.716903 41.2393845,166.245681 39.9004823,167.815069 C39.8001307,167.932414 39.6538285,168 39.499868,168 C39.3459074,168 39.1996053,167.932414 39.0992536,167.815069 C37.7598232,166.245415 33.2059711,160.716371 30.830806,155.479491 C30.2796642,154.263468 30,152.948993 30,151.572253 C30,146.29413 34.261776,142 39.4996039,142 Z M39.4996039,156.544109 C42.220718,156.544109 44.4345282,154.313493 44.4342641,151.571987 C44.4342641,148.830215 42.2204539,146.599599 39.4996039,146.599599 C36.7787538,146.599599 34.5649436,148.830215 34.5649436,151.571987 C34.5649436,154.313493 36.7787538,156.544109 39.4996039,156.544109 Z" id="path-3"></path>
        <filter x="-10.5%" y="-7.7%" width="121.1%" height="115.4%" filterUnits="objectBoundingBox" id="filter-4">
            <feGaussianBlur stdDeviation="1.5" in="SourceAlpha" result="shadowBlurInner1"></feGaussianBlur>
            <feOffset dx="-1" dy="1" in="shadowBlurInner1" result="shadowOffsetInner1"></feOffset>
            <feComposite in="shadowOffsetInner1" in2="SourceAlpha" operator="arithmetic" k2="-1" k3="1" result="shadowInnerInner1"></feComposite>
            <feColorMatrix values="0 0 0 0 0   0 0 0 0 0   0 0 0 0 0  0 0 0 0.5 0" type="matrix" in="shadowInnerInner1"></feColorMatrix>
        </filter>
        <path d="M40.5,250 C44.9272842,250 48.5294495,253.602165 48.5294495,258.029449 C48.5294495,261.748573 48.5294495,264.196693 48.5294495,267.911812 C48.5294495,268.933517 47.6982422,269.764725 46.6765366,269.764725 L42.2391586,269.764725 C41.9832916,270.482018 41.3041306,271 40.5,271 C39.4782944,271 38.6470871,270.168793 38.6470871,269.147087 C38.6470871,268.125381 39.4782944,267.294174 40.5,267.294174 C41.3041306,267.294174 41.9832916,267.811996 42.2391586,268.529449 L46.6765366,268.529449 C47.0166778,268.529449 47.2941742,268.252594 47.2941742,267.911812 L47.2941742,267.18042 C47.0999908,267.249634 46.8941116,267.294174 46.6765366,267.294174 C45.6546707,267.294174 44.8234634,266.462967 44.8234634,265.441101 L44.8234634,259.264725 C44.8234634,258.243019 45.6546707,257.411812 46.6765366,257.411812 C46.8841782,257.411812 47.0820465,257.448822 47.2678985,257.512428 C47.0019379,254.007515 44.0710831,251.235275 40.5,251.235275 C36.9269943,251.235275 33.9953384,254.010078 33.731781,257.517395 C33.9187546,257.453949 34.1155014,257.411812 34.3234634,257.411812 C35.3453293,257.411812 36.1765366,258.243019 36.1765366,259.264725 L36.1765366,265.441101 C36.1765366,266.462967 35.3453293,267.294174 34.3234634,267.294174 C33.3017578,267.294174 32.4705505,266.462967 32.4705505,265.441101 L32.4705505,258.029449 C32.4705505,253.602165 36.0727158,250 40.5,250 Z M49.7647247,258.760841 C50.4820175,259.016708 51,259.695869 51,260.5 L51,264.205826 C51,265.010117 50.4820175,265.689278 49.7647247,265.944984 L49.7647247,258.760841 Z M30,260.5 C30,259.695869 30.5179825,259.016708 31.2352753,258.760841 L31.2352753,265.944984 C30.5179825,265.689278 30,265.010117 30,264.205826 L30,260.5 Z" id="path-5"></path>
        <filter x="-9.5%" y="-9.5%" width="119.0%" height="119.0%" filterUnits="objectBoundingBox" id="filter-6">
            <feGaussianBlur stdDeviation="1.5" in="SourceAlpha" result="shadowBlurInner1"></feGaussianBlur>
            <feOffset dx="-1" dy="1" in="shadowBlurInner1" result="shadowOffsetInner1"></feOffset>
            <feComposite in="shadowOffsetInner1" in2="SourceAlpha" operator="arithmetic" k2="-1" k3="1" result="shadowInnerInner1"></feComposite>
            <feColorMatrix values="0 0 0 0 0   0 0 0 0 0   0 0 0 0 0  0 0 0 0.5 0" type="matrix" in="shadowInnerInner1"></feColorMatrix>
        </filter>
    </defs>
    <g id="lienhe" stroke="none" stroke-width="1" fill="none" fill-rule="evenodd">
        <rect fill="#FFFFFF" x="0" y="0" width="320" height="416"></rect>
        <path d="M0.00147110516,4.3907976 L5.18185728,1.28256589 C8.13100257,-0.486921279 11.8307452,-0.420958389 14.7149396,1.45253168 L15.0988505,1.7019092 C18.0803644,3.63861514 21.9225778,3.63861514 24.9040917,1.7019092 L25.0988505,1.57539941 C28.0803644,-0.361306527 31.9225778,-0.361306527 34.9040917,1.57539941 L35.0988505,1.7019092 C38.0803644,3.63861514 41.9225778,3.63861514 44.9040917,1.7019092 L45.0988505,1.57539941 C48.0803644,-0.361306527 51.9225778,-0.361306527 54.9040917,1.57539941 L55.0988505,1.7019092 C58.0803644,3.63861514 61.9225778,3.63861514 64.9040917,1.7019092 L65.0988505,1.57539941 C68.0803644,-0.361306527 71.9225778,-0.361306527 74.9040917,1.57539941 L75.0988505,1.7019092 C78.0803644,3.63861514 81.9225778,3.63861514 84.9040917,1.7019092 L85.0988505,1.57539941 C88.0803644,-0.361306527 91.9225778,-0.361306527 94.9040917,1.57539941 L95.0988505,1.7019092 C98.0803644,3.63861514 101.922578,3.63861514 104.904092,1.7019092 L105.097534,1.57625461 C108.079719,-0.360887454 111.922917,-0.360416031 114.904627,1.57745759 L115.096337,1.70205427 C118.079056,3.64058347 121.923732,3.64034645 124.906212,1.70144949 L125.094958,1.57874615 C128.077591,-0.360250549 131.922493,-0.360379791 134.905256,1.57841639 L135.095105,1.70181815 C138.077684,3.64049475 141.922316,3.64049475 144.904895,1.70181815 L145.095105,1.57818185 C148.077684,-0.360494753 151.922316,-0.360494753 154.904895,1.57818185 L155.095105,1.70181815 C158.077684,3.64049475 161.922316,3.64049475 164.904895,1.70181815 L165.095105,1.57818185 C168.077684,-0.360494753 171.922316,-0.360494753 174.904895,1.57818185 L175.095105,1.70181815 C178.077684,3.64049475 181.922316,3.64049475 184.904895,1.70181815 L185.095105,1.57818185 C188.077684,-0.360494753 191.922316,-0.360494753 194.904895,1.57818185 L195.095105,1.70181815 C198.077684,3.64049475 201.922316,3.64049475 204.904895,1.70181815 L205.095105,1.57818185 C208.077684,-0.360494753 211.922316,-0.360494753 214.904895,1.57818185 L215.095105,1.70181815 C218.077684,3.64049475 221.922316,3.64049475 224.904895,1.70181815 L225.095105,1.57818185 C228.077684,-0.360494753 231.922316,-0.360494753 234.904895,1.57818185 L235.095105,1.70181815 C238.077684,3.64049475 241.922316,3.64049475 244.904895,1.70181815 L245.095105,1.57818185 C248.077684,-0.360494753 251.922316,-0.360494753 254.904895,1.57818185 L255.095105,1.70181815 C258.077684,3.64049475 261.922316,3.64049475 264.904895,1.70181815 L265.095105,1.57818185 C268.077684,-0.360494753 271.922316,-0.360494753 274.904895,1.57818185 L275.095105,1.70181815 C278.077684,3.64049475 281.922316,3.64049475 284.904895,1.70181815 L285.095105,1.57818185 C288.077684,-0.360494753 291.922316,-0.360494753 294.904895,1.57818185 L295.095105,1.70181815 C298.077684,3.64049475 301.922316,3.64049475 304.904895,1.70181815 L305.095105,1.57818185 C308.077684,-0.360494753 311.922316,-0.360494753 314.904895,1.57818185 L320,4.89 L320,416 L0,416 L0.00147110516,4.3907976 Z" id="Rectangle" fill="#ECF5FA"></path>
        <path d="M3.04720534,412 C3.01573507,412.166826 3,412.339903 3,412.519231 C3,413.198721 3.22884537,413.782049 3.68654298,414.269231 C4.14424058,414.756413 4.68408094,415 5.30608025,415 C5.91634372,415 6.45325017,414.759618 6.91681569,414.278846 C7.38038122,413.798075 7.6121605,413.211542 7.6121605,412.519231 C7.6121605,412.339903 7.59622108,412.166826 7.5643421,412 L12.7468253,412 C12.7153551,412.166826 12.69962,412.339903 12.69962,412.519231 C12.69962,413.198721 12.9284654,413.782049 13.386163,414.269231 C13.8438606,414.756413 14.3837009,415 15.0057002,415 C15.6159637,415 16.1528702,414.759618 16.6164357,414.278846 C17.0800012,413.798075 17.3117805,413.211542 17.3117805,412.519231 C17.3117805,412.339903 17.2958411,412.166826 17.2639621,412 L22.4464453,412 C22.414975,412.166826 22.39924,412.339903 22.39924,412.519231 C22.39924,413.198721 22.6280853,413.782049 23.0857829,414.269231 C23.5434805,414.756413 24.0833209,415 24.7053202,415 C25.3273195,415 25.8671599,414.756413 26.3248575,414.269231 C26.7825551,413.782049 27.0114005,413.198721 27.0114005,412.519231 C27.0114005,412.339903 26.9956654,412.166826 26.9641951,412 L32.1460653,412 C32.114595,412.166826 32.09886,412.339903 32.09886,412.519231 C32.09886,413.198721 32.3277053,413.782049 32.7854029,414.269231 C33.2431005,414.756413 33.7829409,415 34.4049402,415 C35.0152037,415 35.5521101,414.759618 36.0156756,414.278846 C36.4792412,413.798075 36.7110205,413.211542 36.7110205,412.519231 C36.7110205,412.339903 36.695081,412.166826 36.6632021,412 L41.8456853,412 C41.814215,412.166826 41.7984799,412.339903 41.7984799,412.519231 C41.7984799,413.198721 42.0273253,413.782049 42.4850229,414.269231 C42.9427205,414.756413 43.4825609,415 44.1045602,415 C44.7148237,415 45.2517301,414.759618 45.7152956,414.278846 C46.1788612,413.798075 46.4106404,413.211542 46.4106404,412.519231 C46.4106404,412.339903 46.394701,412.166826 46.362822,412 L51.5453053,412 C51.513835,412.166826 51.4980999,412.339903 51.4980999,412.519231 C51.4980999,413.198721 51.7269453,413.782049 52.1846429,414.269231 C52.6423405,414.756413 53.1821809,415 53.8041802,415 C54.4261795,415 54.9660198,414.756413 55.4237174,414.269231 C55.8814151,413.782049 56.1102604,413.198721 56.1102604,412.519231 C56.1102604,412.339903 56.0945254,412.166826 56.0630551,412 L61.2449252,412 C61.213455,412.166826 61.1977199,412.339903 61.1977199,412.519231 C61.1977199,413.198721 61.4265653,413.782049 61.8842629,414.269231 C62.3419605,414.756413 62.8818008,415 63.5038002,415 C64.1140636,415 64.6509701,414.759618 65.1145356,414.278846 C65.5781011,413.798075 65.8098804,413.211542 65.8098804,412.519231 C65.8098804,412.339903 65.793941,412.166826 65.762062,412 L70.9445452,412 C70.913075,412.166826 70.8973399,412.339903 70.8973399,412.519231 C70.8973399,413.198721 71.1261853,413.782049 71.5838829,414.269231 C72.0415805,414.756413 72.5814208,415 73.2034201,415 C73.8136836,415 74.3505901,414.759618 74.8141556,414.278846 C75.2777211,413.798075 75.5095004,413.211542 75.5095004,412.519231 C75.5095004,412.339903 75.493561,412.166826 75.461682,412 L80.6441652,412 C80.6126949,412.166826 80.5969599,412.339903 80.5969599,412.519231 C80.5969599,413.198721 80.8258052,413.782049 81.2835029,414.269231 C81.7412005,414.756413 82.2810408,415 82.9030401,415 C83.5250394,415 84.0648798,414.756413 84.5225774,414.269231 C84.980275,413.782049 85.2091204,413.198721 85.2091204,412.519231 C85.2091204,412.339903 85.1933853,412.166826 85.161915,412 L90.3437852,412 C90.3123149,412.166826 90.2965799,412.339903 90.2965799,412.519231 C90.2965799,413.198721 90.5254252,413.782049 90.9831228,414.269231 C91.4408204,414.756413 91.9806608,415 92.6026601,415 C93.2129236,415 93.74983,414.759618 94.2133956,414.278846 C94.6769611,413.798075 94.9087404,413.211542 94.9087404,412.519231 C94.9087404,412.339903 94.8928009,412.166826 94.860922,412 L100.043405,412 C100.011935,412.166826 99.9961998,412.339903 99.9961998,412.519231 C99.9961998,413.198721 100.225045,413.782049 100.682743,414.269231 C101.14044,414.756413 101.680281,415 102.30228,415 C102.912544,415 103.44945,414.759618 103.913016,414.278846 C104.376581,413.798075 104.60836,413.211542 104.60836,412.519231 C104.60836,412.339903 104.592421,412.166826 104.560542,412 L109.743025,412 C109.711555,412.166826 109.69582,412.339903 109.69582,412.519231 C109.69582,413.198721 109.924665,413.782049 110.382363,414.269231 C110.84006,414.756413 111.379901,415 112.0019,415 C112.623899,415 113.16374,414.756413 113.621437,414.269231 C114.079135,413.782049 114.30798,413.198721 114.30798,412.519231 C114.30798,412.339903 114.292245,412.166826 114.260775,412 L119.442645,412 C119.411175,412.166826 119.39544,412.339903 119.39544,412.519231 C119.39544,413.198721 119.624285,413.782049 120.081983,414.269231 C120.53968,414.756413 121.079521,415 121.70152,415 C122.311784,415 122.84869,414.759618 123.312256,414.278846 C123.775821,413.798075 124.0076,413.211542 124.0076,412.519231 C124.0076,412.339903 123.991661,412.166826 123.959782,412 L129.142265,412 C129.110795,412.166826 129.09506,412.339903 129.09506,412.519231 C129.09506,413.198721 129.323905,413.782049 129.781603,414.269231 C130.2393,414.756413 130.779141,415 131.40114,415 C132.011404,415 132.54831,414.759618 133.011875,414.278846 C133.475441,413.798075 133.70722,413.211542 133.70722,412.519231 C133.70722,412.339903 133.691281,412.166826 133.659402,412 L138.841885,412 C138.810415,412.166826 138.79468,412.339903 138.79468,412.519231 C138.79468,413.198721 139.023525,413.782049 139.481223,414.269231 C139.93892,414.756413 140.478761,415 141.10076,415 C141.722759,415 142.2626,414.756413 142.720297,414.269231 C143.177995,413.782049 143.40684,413.198721 143.40684,412.519231 C143.40684,412.339903 143.391105,412.166826 143.359635,412 L148.541505,412 C148.510035,412.166826 148.4943,412.339903 148.4943,412.519231 C148.4943,413.198721 148.723145,413.782049 149.180843,414.269231 C149.63854,414.756413 150.178381,415 150.80038,415 C151.410643,415 151.94755,414.759618 152.411115,414.278846 C152.874681,413.798075 153.10646,413.211542 153.10646,412.519231 C153.10646,412.339903 153.090521,412.166826 153.058642,412 L158.241125,412 C158.209655,412.166826 158.19392,412.339903 158.19392,412.519231 C158.19392,413.198721 158.422765,413.782049 158.880463,414.269231 C159.33816,414.756413 159.878001,415 160.5,415 C161.110263,415 161.64717,414.759618 162.110735,414.278846 C162.574301,413.798075 162.80608,413.211542 162.80608,412.519231 C162.80608,412.339903 162.790141,412.166826 162.758262,412 L167.940745,412 C167.909275,412.166826 167.89354,412.339903 167.89354,412.519231 C167.89354,413.198721 168.122385,413.782049 168.580083,414.269231 C169.03778,414.756413 169.577621,415 170.19962,415 C170.821619,415 171.36146,414.756413 171.819157,414.269231 C172.276855,413.782049 172.5057,413.198721 172.5057,412.519231 C172.5057,412.339903 172.489965,412.166826 172.458495,412 L177.640365,412 C177.608895,412.166826 177.59316,412.339903 177.59316,412.519231 C177.59316,413.198721 177.822005,413.782049 178.279703,414.269231 C178.7374,414.756413 179.277241,415 179.89924,415 C180.509503,415 181.04641,414.759618 181.509975,414.278846 C181.973541,413.798075 182.20532,413.211542 182.20532,412.519231 C182.20532,412.339903 182.189381,412.166826 182.157502,412 L187.339985,412 C187.308515,412.166826 187.29278,412.339903 187.29278,412.519231 C187.29278,413.198721 187.521625,413.782049 187.979323,414.269231 C188.43702,414.756413 188.976861,415 189.59886,415 C190.209123,415 190.74603,414.759618 191.209595,414.278846 C191.673161,413.798075 191.90494,413.211542 191.90494,412.519231 C191.90494,412.339903 191.889001,412.166826 191.857122,412 L197.039605,412 C197.008135,412.166826 196.9924,412.339903 196.9924,412.519231 C196.9924,413.198721 197.221245,413.782049 197.678943,414.269231 C198.13664,414.756413 198.676481,415 199.29848,415 C199.920479,415 200.46032,414.756413 200.918017,414.269231 C201.375715,413.782049 201.60456,413.198721 201.60456,412.519231 C201.60456,412.339903 201.588825,412.166826 201.557355,412 L206.739225,412 C206.707755,412.166826 206.69202,412.339903 206.69202,412.519231 C206.69202,413.198721 206.920865,413.782049 207.378563,414.269231 C207.83626,414.756413 208.376101,415 208.9981,415 C209.608363,415 210.14527,414.759618 210.608835,414.278846 C211.072401,413.798075 211.30418,413.211542 211.30418,412.519231 C211.30418,412.339903 211.288241,412.166826 211.256362,412 L216.438845,412 C216.407375,412.166826 216.39164,412.339903 216.39164,412.519231 C216.39164,413.198721 216.620485,413.782049 217.078183,414.269231 C217.53588,414.756413 218.075721,415 218.69772,415 C219.307983,415 219.84489,414.759618 220.308455,414.278846 C220.772021,413.798075 221.0038,413.211542 221.0038,412.519231 C221.0038,412.339903 220.987861,412.166826 220.955982,412 L226.138465,412 C226.106995,412.166826 226.09126,412.339903 226.09126,412.519231 C226.09126,413.198721 226.320105,413.782049 226.777803,414.269231 C227.2355,414.756413 227.775341,415 228.39734,415 C229.019339,415 229.55918,414.756413 230.016877,414.269231 C230.474575,413.782049 230.70342,413.198721 230.70342,412.519231 C230.70342,412.339903 230.687685,412.166826 230.656215,412 L235.838085,412 C235.806615,412.166826 235.79088,412.339903 235.79088,412.519231 C235.79088,413.198721 236.019725,413.782049 236.477423,414.269231 C236.93512,414.756413 237.474961,415 238.09696,415 C238.707223,415 239.24413,414.759618 239.707695,414.278846 C240.171261,413.798075 240.40304,413.211542 240.40304,412.519231 C240.40304,412.339903 240.387101,412.166826 240.355222,412 L245.537705,412 C245.506235,412.166826 245.4905,412.339903 245.4905,412.519231 C245.4905,413.198721 245.719345,413.782049 246.177043,414.269231 C246.63474,414.756413 247.174581,415 247.79658,415 C248.406843,415 248.94375,414.759618 249.407315,414.278846 C249.870881,413.798075 250.10266,413.211542 250.10266,412.519231 C250.10266,412.339903 250.086721,412.166826 250.054842,412 L255.237325,412 C255.205855,412.166826 255.19012,412.339903 255.19012,412.519231 C255.19012,413.198721 255.418965,413.782049 255.876663,414.269231 C256.33436,414.756413 256.874201,415 257.4962,415 C258.118199,415 258.65804,414.756413 259.115737,414.269231 C259.573435,413.782049 259.80228,413.198721 259.80228,412.519231 C259.80228,412.339903 259.786545,412.166826 259.755075,412 L264.936945,412 C264.905475,412.166826 264.88974,412.339903 264.88974,412.519231 C264.88974,413.198721 265.118585,413.782049 265.576283,414.269231 C266.03398,414.756413 266.573821,415 267.19582,415 C267.806083,415 268.34299,414.759618 268.806555,414.278846 C269.270121,413.798075 269.5019,413.211542 269.5019,412.519231 C269.5019,412.339903 269.485961,412.166826 269.454082,412 L274.636565,412 C274.605095,412.166826 274.58936,412.339903 274.58936,412.519231 C274.58936,413.198721 274.818205,413.782049 275.275903,414.269231 C275.7336,414.756413 276.273441,415 276.89544,415 C277.505703,415 278.04261,414.759618 278.506175,414.278846 C278.969741,413.798075 279.20152,413.211542 279.20152,412.519231 C279.20152,412.339903 279.185581,412.166826 279.153702,412 L284.336185,412 C284.304715,412.166826 284.28898,412.339903 284.28898,412.519231 C284.28898,413.198721 284.517825,413.782049 284.975523,414.269231 C285.43322,414.756413 285.97306,415 286.59506,415 C287.217059,415 287.756899,414.756413 288.214597,414.269231 C288.672295,413.782049 288.90114,413.198721 288.90114,412.519231 C288.90114,412.339903 288.885405,412.166826 288.853935,412 L294.035805,412 C294.004335,412.166826 293.9886,412.339903 293.9886,412.519231 C293.9886,413.198721 294.217445,413.782049 294.675143,414.269231 C295.13284,414.756413 295.67268,415 296.29468,415 C296.904943,415 297.44185,414.759618 297.905415,414.278846 C298.368981,413.798075 298.60076,413.211542 298.60076,412.519231 C298.60076,412.339903 298.584821,412.166826 298.552942,412 L303.735425,412 C303.703955,412.166826 303.68822,412.339903 303.68822,412.519231 C303.68822,413.198721 303.917065,413.782049 304.374762,414.269231 C304.83246,414.756413 305.3723,415 305.9943,415 C306.604563,415 307.14147,414.759618 307.605035,414.278846 C308.068601,413.798075 308.30038,413.211542 308.30038,412.519231 C308.30038,412.339903 308.284441,412.166826 308.252562,412 L313.435045,412 C313.403575,412.166826 313.387839,412.339903 313.387839,412.519231 C313.387839,413.198721 313.616685,413.782049 314.074382,414.269231 C314.53208,414.756413 315.07192,415 315.69392,415 C316.315919,415 316.855759,414.756413 317.313457,414.269231 C317.771155,413.782049 318,413.198721 318,412.519231 C318,412.339903 317.984265,412.166826 317.952795,412 L320,412 L320,416 L0,416 L0,412 L3.04720534,412 Z" id="Rectangle-2" fill="#FFFFFF"></path>
        <g id="facebook">
            <use fill="#556279" fill-rule="evenodd" xlink:href="#path-1"></use>
            <use fill="black" fill-opacity="1" filter="url(#filter-2)" xlink:href="#path-1"></use>
        </g>
        <g id="location">
            <use fill="#556279" fill-rule="evenodd" xlink:href="#path-3"></use>
            <use fill="black" fill-opacity="1" filter="url(#filter-4)" xlink:href="#path-3"></use>
        </g>
        <g id="phone">
            <use fill="#556279" fill-rule="evenodd" xlink:href="#path-5"></use>
            <use fill="black" fill-opacity="1" filter="url(#filter-6)" xlink:href="#path-5"></use>
        </g>
        <text id="Support@chanchan.vn" font-family="SFCompactDisplay-Semibold, SF Compact Display" font-size="16" font-weight="500" line-spacing="20" letter-spacing="-0.479999989" fill="#343D51">
            <tspan x="80" y="263">Support@chanchan.vn</tspan>
        </text>
        <text id="096.900.1816" font-family="SFCompactDisplay-Regular, SF Compact Display" font-size="15" font-weight="normal" line-spacing="22" fill="#5D6A80">
            <tspan x="80" y="290">096.900.1816</tspan>
        </text>
        <text id="fb.com/hello.chancha" font-family="SFCompactDisplay-Semibold, SF Compact Display" font-size="16" font-weight="500" line-spacing="20" letter-spacing="-0.479999989" fill="#343D51">
            <tspan x="80" y="371">fb.com/hello.chanchan</tspan>
        </text>
        <text id="………………………………………………." font-family="Georgia-Italic, Georgia" font-size="14" font-style="italic" font-weight="normal" line-spacing="22" fill="#DADFE7">
            <tspan x="80" y="215">……………………………………………….</tspan>
        </text>
        <text id="………………………………………………." font-family="Georgia-Italic, Georgia" font-size="14" font-style="italic" font-weight="normal" line-spacing="22" fill="#DADFE7">
            <tspan x="80" y="323">……………………………………………….</tspan>
        </text>
        <text id="Espace-coworking" font-family="SFCompactDisplay-Semibold, SF Compact Display" font-size="16" font-weight="500" line-spacing="20" letter-spacing="-0.479999989" fill="#343D51">
            <tspan x="80" y="155">Espace coworking</tspan>
        </text>
        <text id="01-Đinh-Lễ,-Hoàn-Kiế" font-family="SFCompactDisplay-Regular, SF Compact Display" font-size="15" font-weight="normal" line-spacing="22" fill="#5D6A80">
            <tspan x="80" y="182">01 Đinh Lễ, Hoàn Kiếm, Hà Nội</tspan>
        </text>
        <text id="—-Liên-hệ-với-đội-ng" font-family="Georgia-Italic, Georgia" font-size="14" font-style="italic" font-weight="normal" line-spacing="22" fill="#5D6A80">
            <tspan x="30" y="99">— Liên hệ với đội ngũ phát triển</tspan>
        </text>
        <text id="Liên-hệ" font-family="SFCompactDisplay-Semibold, SF Compact Display" font-size="26" font-weight="500" line-spacing="26" letter-spacing="-1.56" fill="#343D51">
            <tspan x="30" y="65">Liên hệ</tspan>
        </text>
    </g>
</svg>