<?xml version="1.0" encoding="UTF-8"?>
<svg width="320px" height="610px" viewBox="0 0 320 610" version="1.1" xmlns="http://www.w3.org/2000/svg" xmlns:xlink="http://www.w3.org/1999/xlink">
    <!-- Generator: Sketch 54.1 (76490) - https://sketchapp.com -->
    <title>nangluongsong</title>
    <desc>Created with Sketch.</desc>
    <defs>
        <linearGradient x1="-39.8704324%" y1="60.2362451%" x2="268.816186%" y2="27.8440145%" id="linearGradient-1">
            <stop stop-color="#AA00FF" offset="0%"></stop>
            <stop stop-color="#304FFE" offset="100%"></stop>
        </linearGradient>
        <filter x="-4.6%" y="-23.1%" width="109.2%" height="146.2%" filterUnits="objectBoundingBox" id="filter-2">
            <feGaussianBlur stdDeviation="4" in="SourceGraphic"></feGaussianBlur>
        </filter>
    </defs>
    <g id="nangluongsong" stroke="none" stroke-width="1" fill="none" fill-rule="evenodd">
        <rect fill="#FFFFFF" x="0" y="0" width="320" height="610"></rect>
        <rect id="Rectangle" fill="#343D51" x="30" y="141" width="2" height="122"></rect>
        <text id="Bởi-triển-vọng-được" font-family="SFCompactDisplay-Regular, SF Compact Display" font-size="15" font-weight="normal" line-spacing="22" fill="#4D5B72">
            <tspan x="30" y="70">Bởi triển vọng được đánh giá qua khả </tspan>
            <tspan x="30" y="92">năng đến với nhau bằng con người thực </tspan>
            <tspan x="30" y="114">giữa hai người.</tspan>
        </text>
        <text id="Cho-nên-trong-thời-g" font-family="Georgia-Italic, Georgia" font-size="14" font-style="italic" font-weight="normal" line-spacing="22" fill="#5D6A80">
            <tspan x="50" y="151">Cho nên trong thời gian ở trong </tspan>
            <tspan x="50" y="173">Chương trình, dù có thể chưa gặp </tspan>
            <tspan x="50" y="195">được bạn đời nhưng những mối quan </tspan>
            <tspan x="50" y="217">hệ mà bạn gặt hái được sẽ trở thành </tspan>
            <tspan x="50" y="239">một nguồn năng lượng tích cực cho </tspan>
            <tspan x="50" y="261">cuộc sống hàng ngày.</tspan>
        </text>
        <text id="Bởi-chất-lượng-cuộc" font-family="SFCompactDisplay-Regular, SF Compact Display" font-size="15" font-weight="normal" line-spacing="22" fill="#4D5B72">
            <tspan x="30" y="300">Bởi chất lượng cuộc sống phụ thuộc </tspan>
            <tspan x="30" y="322">nhiều vào chất lượng các mối quan hệ &amp; </tspan>
            <tspan x="30" y="344">chất lượng của các mối quan hệ phụ </tspan>
            <tspan x="30" y="366">thuộc nhiều vào sự chân thành &amp; tin </tspan>
            <tspan x="30" y="388">tưởng.</tspan>
        </text>
        <text id="Năng-lượng-sống" font-family="SFCompactDisplay-Semibold, SF Compact Display" font-size="20" font-weight="500" line-spacing="20" letter-spacing="-1" fill="#343D51">
            <tspan x="30" y="39">Năng lượng sống</tspan>
        </text>
        <text id="……………………………………………………" font-family="Georgia-Italic, Georgia" font-size="14" font-style="italic" font-weight="normal" line-spacing="22" fill="#DADFE7">
            <tspan x="30" y="425">……………………………………………………………</tspan>
        </text>
        <text id="Chanchan-có-phù-hợp" font-family="Georgia-Italic, Georgia" font-size="15" font-style="italic" font-weight="normal" line-spacing="22" fill="#343D51">
            <tspan x="50" y="472">Chanchan có phù hợp với bạn?</tspan>
        </text>
        <text id="“" font-family="Georgia-Bold, Georgia" font-size="16" font-weight="bold" line-spacing="22" fill="#5D6A80">
            <tspan x="30" y="472">“</tspan>
        </text>
        <path d="M288,513 L288,555 C288,557.761424 285.761424,560 283,560 L33,560 C30.2385763,560 28,557.761424 28,555 L28,513 C28,510.238576 30.2385763,508 33,508 L283,508 C285.761424,508 288,510.238576 288,513 Z" id="Triangle" fill-opacity="0.5" fill="url(#linearGradient-1)" filter="url(#filter-2)"></path>
        <path d="M290,511 L290,553 C290,555.761424 287.761424,558 285,558 L35,558 C32.2385763,558 30,555.761424 30,553 L30,511 C30,508.238576 32.2385763,506 35,506 L285,506 C287.761424,506 290,508.238576 290,511 Z" id="Triangle" fill="url(#linearGradient-1)"></path>
        <path d="M0.00147110516,602.390798 L5.18185728,599.282566 C8.13100257,597.513079 11.8307452,597.579042 14.7149396,599.452532 L15.0988505,599.701909 C18.0803644,601.638615 21.9225778,601.638615 24.9040917,599.701909 L25.0988505,599.575399 C28.0803644,597.638693 31.9225778,597.638693 34.9040917,599.575399 L35.0988505,599.701909 C38.0803644,601.638615 41.9225778,601.638615 44.9040917,599.701909 L45.0988505,599.575399 C48.0803644,597.638693 51.9225778,597.638693 54.9040917,599.575399 L55.0988505,599.701909 C58.0803644,601.638615 61.9225778,601.638615 64.9040917,599.701909 L65.0988505,599.575399 C68.0803644,597.638693 71.9225778,597.638693 74.9040917,599.575399 L75.0988505,599.701909 C78.0803644,601.638615 81.9225778,601.638615 84.9040917,599.701909 L85.0988505,599.575399 C88.0803644,597.638693 91.9225778,597.638693 94.9040917,599.575399 L95.0988505,599.701909 C98.0803644,601.638615 101.922578,601.638615 104.904092,599.701909 L105.097534,599.576255 C108.079719,597.639113 111.922917,597.639584 114.904627,599.577458 L115.096337,599.702054 C118.079056,601.640583 121.923732,601.640346 124.906212,599.701449 L125.094958,599.578746 C128.077591,597.639749 131.922493,597.63962 134.905256,599.578416 L135.095105,599.701818 C138.077684,601.640495 141.922316,601.640495 144.904895,599.701818 L145.095105,599.578182 C148.077684,597.639505 151.922316,597.639505 154.904895,599.578182 L155.095105,599.701818 C158.077684,601.640495 161.922316,601.640495 164.904895,599.701818 L165.095105,599.578182 C168.077684,597.639505 171.922316,597.639505 174.904895,599.578182 L175.095105,599.701818 C178.077684,601.640495 181.922316,601.640495 184.904895,599.701818 L185.095105,599.578182 C188.077684,597.639505 191.922316,597.639505 194.904895,599.578182 L195.095105,599.701818 C198.077684,601.640495 201.922316,601.640495 204.904895,599.701818 L205.095105,599.578182 C208.077684,597.639505 211.922316,597.639505 214.904895,599.578182 L215.095105,599.701818 C218.077684,601.640495 221.922316,601.640495 224.904895,599.701818 L225.095105,599.578182 C228.077684,597.639505 231.922316,597.639505 234.904895,599.578182 L235.095105,599.701818 C238.077684,601.640495 241.922316,601.640495 244.904895,599.701818 L245.095105,599.578182 C248.077684,597.639505 251.922316,597.639505 254.904895,599.578182 L255.095105,599.701818 C258.077684,601.640495 261.922316,601.640495 264.904895,599.701818 L265.095105,599.578182 C268.077684,597.639505 271.922316,597.639505 274.904895,599.578182 L275.095105,599.701818 C278.077684,601.640495 281.922316,601.640495 284.904895,599.701818 L285.095105,599.578182 C288.077684,597.639505 291.922316,597.639505 294.904895,599.578182 L295.095105,599.701818 C298.077684,601.640495 301.922316,601.640495 304.904895,599.701818 L305.095105,599.578182 C308.077684,597.639505 311.922316,597.639505 314.904895,599.578182 L320,602.89 L320,610 L0,610 L0.00147110516,602.390798 Z" id="Rectangle" fill="#F0F6FA"></path>
        <text id="Đăng-ký" font-family="SFCompactDisplay-Semibold, SF Compact Display" font-size="18" font-weight="500" line-spacing="20" letter-spacing="-0.720000029" fill="#FFFFFF">
            <tspan x="130" y="537">Đăng ký</tspan>
        </text>
        <path id="Line" d="M261.5,532 L244.5,532 L244.5,531 L261.5,531 L261.5,527 L270.5,531.5 L261.5,536 L261.5,532 Z" fill="#FFFFFF" fill-rule="nonzero" opacity="0.3"></path>
    </g>
</svg>