<?xml version="1.0" encoding="UTF-8"?>
<svg width="320px" height="590px" viewBox="0 0 320 590" version="1.1" xmlns="http://www.w3.org/2000/svg" xmlns:xlink="http://www.w3.org/1999/xlink">
    <!-- Generator: Sketch 54.1 (76490) - https://sketchapp.com -->
    <title>nangluongsong_bg</title>
    <desc>Created with Sketch.</desc>
    <defs>
        <linearGradient x1="-39.8704324%" y1="60.2362451%" x2="202.901707%" y2="30.6566725%" id="linearGradient-1">
            <stop stop-color="#AA00FF" offset="0%"></stop>
            <stop stop-color="#304FFE" offset="100%"></stop>
        </linearGradient>
        <filter x="-3.5%" y="-17.3%" width="106.9%" height="134.6%" filterUnits="objectBoundingBox" id="filter-2">
            <feGaussianBlur stdDeviation="3" in="SourceGraphic"></feGaussianBlur>
        </filter>
        <linearGradient x1="-5.26691943%" y1="60.2096817%" x2="162.408675%" y2="32.7626888%" id="linearGradient-3">
            <stop stop-color="#AA00FF" offset="0%"></stop>
            <stop stop-color="#304FFE" offset="100%"></stop>
        </linearGradient>
    </defs>
    <g id="nangluongsong_bg" stroke="none" stroke-width="1" fill="none" fill-rule="evenodd">
        <rect fill="#FFFFFF" x="0" y="0" width="320" height="590"></rect>
        <path d="M33.6953125,458.3125 C33.6953125,458.645835 33.5611993,458.937499 33.2929688,459.1875 C33.0247382,459.437501 32.7083352,459.5625 32.34375,459.5625 C31.7708305,459.5625 31.3307307,459.372398 31.0234375,458.992188 C30.7161443,458.611977 30.5625,458.085941 30.5625,457.414062 C30.5625,456.789059 30.8268203,456.158857 31.3554688,455.523438 C31.8841172,454.888018 32.5208296,454.406252 33.265625,454.078125 L33.609375,454.632812 C33.0208304,454.919272 32.5598975,455.252602 32.2265625,455.632812 C31.8932275,456.013023 31.7005211,456.473956 31.6484375,457.015625 L32.0859375,457.015625 C32.4088558,457.015625 32.671874,457.052083 32.875,457.125 C33.078126,457.197917 33.2421869,457.299479 33.3671875,457.429688 C33.4869798,457.554688 33.5716143,457.692708 33.6210938,457.84375 C33.6705732,457.994792 33.6953125,458.151041 33.6953125,458.3125 Z M37.546875,458.3125 C37.546875,458.645835 37.4127618,458.937499 37.1445312,459.1875 C36.8763007,459.437501 36.5598977,459.5625 36.1953125,459.5625 C35.622393,459.5625 35.1822932,459.372398 34.875,458.992188 C34.5677068,458.611977 34.4140625,458.085941 34.4140625,457.414062 C34.4140625,456.789059 34.6783828,456.158857 35.2070312,455.523438 C35.7356797,454.888018 36.3723921,454.406252 37.1171875,454.078125 L37.4609375,454.632812 C36.8723929,454.919272 36.41146,455.252602 36.078125,455.632812 C35.74479,456.013023 35.5520836,456.473956 35.5,457.015625 L35.9375,457.015625 C36.2604183,457.015625 36.5234365,457.052083 36.7265625,457.125 C36.9296885,457.197917 37.0937494,457.299479 37.21875,457.429688 C37.3385423,457.554688 37.4231768,457.692708 37.4726562,457.84375 C37.5221357,457.994792 37.546875,458.151041 37.546875,458.3125 Z" id="“" fill="#5D6A80" fill-rule="nonzero"></path>
        <path d="M288,505 L288,547 C288,549.761424 285.761424,552 283,552 L33,552 C30.2385763,552 28,549.761424 28,547 L28,505 C28,502.238576 30.2385763,500 33,500 L283,500 C285.761424,500 288,502.238576 288,505 Z" id="Triangle" fill-opacity="0.5" fill="url(#linearGradient-1)" filter="url(#filter-2)"></path>
        <path d="M290,503 L290,545 C290,547.761424 287.761424,550 285,550 L35,550 C32.2385763,550 30,547.761424 30,545 L30,503 C30,500.238576 32.2385763,498 35,498 L285,498 C287.761424,498 290,500.238576 290,503 Z" id="Triangle" fill="url(#linearGradient-3)"></path>
        <polygon id="Line" fill="#FFFFFF" fill-rule="nonzero" opacity="0.3" points="261.5 524 244.5 524 244.5 523 261.5 523 261.5 519 270.5 523.5 261.5 528"></polygon>
    </g>
</svg>