<?xml version="1.0" encoding="UTF-8"?>
<svg width="320px" height="2490px" viewBox="0 0 320 2490" version="1.1" xmlns="http://www.w3.org/2000/svg" xmlns:xlink="http://www.w3.org/1999/xlink">
    <!-- Generator: Sketch 54.1 (76490) - https://sketchapp.com -->
    <title>trainghiem</title>
    <desc>Created with Sketch.</desc>
    <g id="trainghiem" stroke="none" stroke-width="1" fill="none" fill-rule="evenodd" transform="translate(0.000000, 0.000000)">
        <rect fill="#FFFFFF" x="0" y="0" width="320" height="2490"></rect>
        <path d="M3.04720534,2356 C3.01573507,2356.16683 3,2356.3399 3,2356.51923 C3,2357.19872 3.22884537,2357.78205 3.68654298,2358.26923 C4.14424058,2358.75641 4.68408094,2359 5.30608025,2359 C5.91634372,2359 6.45325017,2358.75962 6.91681569,2358.27885 C7.38038122,2357.79807 7.6121605,2357.21154 7.6121605,2356.51923 C7.6121605,2356.3399 7.59622108,2356.16683 7.5643421,2356 L12.7468253,2356 C12.7153551,2356.16683 12.69962,2356.3399 12.69962,2356.51923 C12.69962,2357.19872 12.9284654,2357.78205 13.386163,2358.26923 C13.8438606,2358.75641 14.3837009,2359 15.0057002,2359 C15.6159637,2359 16.1528702,2358.75962 16.6164357,2358.27885 C17.0800012,2357.79807 17.3117805,2357.21154 17.3117805,2356.51923 C17.3117805,2356.3399 17.2958411,2356.16683 17.2639621,2356 L22.4464453,2356 C22.414975,2356.16683 22.39924,2356.3399 22.39924,2356.51923 C22.39924,2357.19872 22.6280853,2357.78205 23.0857829,2358.26923 C23.5434805,2358.75641 24.0833209,2359 24.7053202,2359 C25.3273195,2359 25.8671599,2358.75641 26.3248575,2358.26923 C26.7825551,2357.78205 27.0114005,2357.19872 27.0114005,2356.51923 C27.0114005,2356.3399 26.9956654,2356.16683 26.9641951,2356 L32.1460653,2356 C32.114595,2356.16683 32.09886,2356.3399 32.09886,2356.51923 C32.09886,2357.19872 32.3277053,2357.78205 32.7854029,2358.26923 C33.2431005,2358.75641 33.7829409,2359 34.4049402,2359 C35.0152037,2359 35.5521101,2358.75962 36.0156756,2358.27885 C36.4792412,2357.79807 36.7110205,2357.21154 36.7110205,2356.51923 C36.7110205,2356.3399 36.695081,2356.16683 36.6632021,2356 L41.8456853,2356 C41.814215,2356.16683 41.7984799,2356.3399 41.7984799,2356.51923 C41.7984799,2357.19872 42.0273253,2357.78205 42.4850229,2358.26923 C42.9427205,2358.75641 43.4825609,2359 44.1045602,2359 C44.7148237,2359 45.2517301,2358.75962 45.7152956,2358.27885 C46.1788612,2357.79807 46.4106404,2357.21154 46.4106404,2356.51923 C46.4106404,2356.3399 46.394701,2356.16683 46.362822,2356 L51.5453053,2356 C51.513835,2356.16683 51.4980999,2356.3399 51.4980999,2356.51923 C51.4980999,2357.19872 51.7269453,2357.78205 52.1846429,2358.26923 C52.6423405,2358.75641 53.1821809,2359 53.8041802,2359 C54.4261795,2359 54.9660198,2358.75641 55.4237174,2358.26923 C55.8814151,2357.78205 56.1102604,2357.19872 56.1102604,2356.51923 C56.1102604,2356.3399 56.0945254,2356.16683 56.0630551,2356 L61.2449252,2356 C61.213455,2356.16683 61.1977199,2356.3399 61.1977199,2356.51923 C61.1977199,2357.19872 61.4265653,2357.78205 61.8842629,2358.26923 C62.3419605,2358.75641 62.8818008,2359 63.5038002,2359 C64.1140636,2359 64.6509701,2358.75962 65.1145356,2358.27885 C65.5781011,2357.79807 65.8098804,2357.21154 65.8098804,2356.51923 C65.8098804,2356.3399 65.793941,2356.16683 65.762062,2356 L70.9445452,2356 C70.913075,2356.16683 70.8973399,2356.3399 70.8973399,2356.51923 C70.8973399,2357.19872 71.1261853,2357.78205 71.5838829,2358.26923 C72.0415805,2358.75641 72.5814208,2359 73.2034201,2359 C73.8136836,2359 74.3505901,2358.75962 74.8141556,2358.27885 C75.2777211,2357.79807 75.5095004,2357.21154 75.5095004,2356.51923 C75.5095004,2356.3399 75.493561,2356.16683 75.461682,2356 L80.6441652,2356 C80.6126949,2356.16683 80.5969599,2356.3399 80.5969599,2356.51923 C80.5969599,2357.19872 80.8258052,2357.78205 81.2835029,2358.26923 C81.7412005,2358.75641 82.2810408,2359 82.9030401,2359 C83.5250394,2359 84.0648798,2358.75641 84.5225774,2358.26923 C84.980275,2357.78205 85.2091204,2357.19872 85.2091204,2356.51923 C85.2091204,2356.3399 85.1933853,2356.16683 85.161915,2356 L90.3437852,2356 C90.3123149,2356.16683 90.2965799,2356.3399 90.2965799,2356.51923 C90.2965799,2357.19872 90.5254252,2357.78205 90.9831228,2358.26923 C91.4408204,2358.75641 91.9806608,2359 92.6026601,2359 C93.2129236,2359 93.74983,2358.75962 94.2133956,2358.27885 C94.6769611,2357.79807 94.9087404,2357.21154 94.9087404,2356.51923 C94.9087404,2356.3399 94.8928009,2356.16683 94.860922,2356 L100.043405,2356 C100.011935,2356.16683 99.9961998,2356.3399 99.9961998,2356.51923 C99.9961998,2357.19872 100.225045,2357.78205 100.682743,2358.26923 C101.14044,2358.75641 101.680281,2359 102.30228,2359 C102.912544,2359 103.44945,2358.75962 103.913016,2358.27885 C104.376581,2357.79807 104.60836,2357.21154 104.60836,2356.51923 C104.60836,2356.3399 104.592421,2356.16683 104.560542,2356 L109.743025,2356 C109.711555,2356.16683 109.69582,2356.3399 109.69582,2356.51923 C109.69582,2357.19872 109.924665,2357.78205 110.382363,2358.26923 C110.84006,2358.75641 111.379901,2359 112.0019,2359 C112.623899,2359 113.16374,2358.75641 113.621437,2358.26923 C114.079135,2357.78205 114.30798,2357.19872 114.30798,2356.51923 C114.30798,2356.3399 114.292245,2356.16683 114.260775,2356 L119.442645,2356 C119.411175,2356.16683 119.39544,2356.3399 119.39544,2356.51923 C119.39544,2357.19872 119.624285,2357.78205 120.081983,2358.26923 C120.53968,2358.75641 121.079521,2359 121.70152,2359 C122.311784,2359 122.84869,2358.75962 123.312256,2358.27885 C123.775821,2357.79807 124.0076,2357.21154 124.0076,2356.51923 C124.0076,2356.3399 123.991661,2356.16683 123.959782,2356 L129.142265,2356 C129.110795,2356.16683 129.09506,2356.3399 129.09506,2356.51923 C129.09506,2357.19872 129.323905,2357.78205 129.781603,2358.26923 C130.2393,2358.75641 130.779141,2359 131.40114,2359 C132.011404,2359 132.54831,2358.75962 133.011875,2358.27885 C133.475441,2357.79807 133.70722,2357.21154 133.70722,2356.51923 C133.70722,2356.3399 133.691281,2356.16683 133.659402,2356 L138.841885,2356 C138.810415,2356.16683 138.79468,2356.3399 138.79468,2356.51923 C138.79468,2357.19872 139.023525,2357.78205 139.481223,2358.26923 C139.93892,2358.75641 140.478761,2359 141.10076,2359 C141.722759,2359 142.2626,2358.75641 142.720297,2358.26923 C143.177995,2357.78205 143.40684,2357.19872 143.40684,2356.51923 C143.40684,2356.3399 143.391105,2356.16683 143.359635,2356 L148.541505,2356 C148.510035,2356.16683 148.4943,2356.3399 148.4943,2356.51923 C148.4943,2357.19872 148.723145,2357.78205 149.180843,2358.26923 C149.63854,2358.75641 150.178381,2359 150.80038,2359 C151.410643,2359 151.94755,2358.75962 152.411115,2358.27885 C152.874681,2357.79807 153.10646,2357.21154 153.10646,2356.51923 C153.10646,2356.3399 153.090521,2356.16683 153.058642,2356 L158.241125,2356 C158.209655,2356.16683 158.19392,2356.3399 158.19392,2356.51923 C158.19392,2357.19872 158.422765,2357.78205 158.880463,2358.26923 C159.33816,2358.75641 159.878001,2359 160.5,2359 C161.110263,2359 161.64717,2358.75962 162.110735,2358.27885 C162.574301,2357.79807 162.80608,2357.21154 162.80608,2356.51923 C162.80608,2356.3399 162.790141,2356.16683 162.758262,2356 L167.940745,2356 C167.909275,2356.16683 167.89354,2356.3399 167.89354,2356.51923 C167.89354,2357.19872 168.122385,2357.78205 168.580083,2358.26923 C169.03778,2358.75641 169.577621,2359 170.19962,2359 C170.821619,2359 171.36146,2358.75641 171.819157,2358.26923 C172.276855,2357.78205 172.5057,2357.19872 172.5057,2356.51923 C172.5057,2356.3399 172.489965,2356.16683 172.458495,2356 L177.640365,2356 C177.608895,2356.16683 177.59316,2356.3399 177.59316,2356.51923 C177.59316,2357.19872 177.822005,2357.78205 178.279703,2358.26923 C178.7374,2358.75641 179.277241,2359 179.89924,2359 C180.509503,2359 181.04641,2358.75962 181.509975,2358.27885 C181.973541,2357.79807 182.20532,2357.21154 182.20532,2356.51923 C182.20532,2356.3399 182.189381,2356.16683 182.157502,2356 L187.339985,2356 C187.308515,2356.16683 187.29278,2356.3399 187.29278,2356.51923 C187.29278,2357.19872 187.521625,2357.78205 187.979323,2358.26923 C188.43702,2358.75641 188.976861,2359 189.59886,2359 C190.209123,2359 190.74603,2358.75962 191.209595,2358.27885 C191.673161,2357.79807 191.90494,2357.21154 191.90494,2356.51923 C191.90494,2356.3399 191.889001,2356.16683 191.857122,2356 L197.039605,2356 C197.008135,2356.16683 196.9924,2356.3399 196.9924,2356.51923 C196.9924,2357.19872 197.221245,2357.78205 197.678943,2358.26923 C198.13664,2358.75641 198.676481,2359 199.29848,2359 C199.920479,2359 200.46032,2358.75641 200.918017,2358.26923 C201.375715,2357.78205 201.60456,2357.19872 201.60456,2356.51923 C201.60456,2356.3399 201.588825,2356.16683 201.557355,2356 L206.739225,2356 C206.707755,2356.16683 206.69202,2356.3399 206.69202,2356.51923 C206.69202,2357.19872 206.920865,2357.78205 207.378563,2358.26923 C207.83626,2358.75641 208.376101,2359 208.9981,2359 C209.608363,2359 210.14527,2358.75962 210.608835,2358.27885 C211.072401,2357.79807 211.30418,2357.21154 211.30418,2356.51923 C211.30418,2356.3399 211.288241,2356.16683 211.256362,2356 L216.438845,2356 C216.407375,2356.16683 216.39164,2356.3399 216.39164,2356.51923 C216.39164,2357.19872 216.620485,2357.78205 217.078183,2358.26923 C217.53588,2358.75641 218.075721,2359 218.69772,2359 C219.307983,2359 219.84489,2358.75962 220.308455,2358.27885 C220.772021,2357.79807 221.0038,2357.21154 221.0038,2356.51923 C221.0038,2356.3399 220.987861,2356.16683 220.955982,2356 L226.138465,2356 C226.106995,2356.16683 226.09126,2356.3399 226.09126,2356.51923 C226.09126,2357.19872 226.320105,2357.78205 226.777803,2358.26923 C227.2355,2358.75641 227.775341,2359 228.39734,2359 C229.019339,2359 229.55918,2358.75641 230.016877,2358.26923 C230.474575,2357.78205 230.70342,2357.19872 230.70342,2356.51923 C230.70342,2356.3399 230.687685,2356.16683 230.656215,2356 L235.838085,2356 C235.806615,2356.16683 235.79088,2356.3399 235.79088,2356.51923 C235.79088,2357.19872 236.019725,2357.78205 236.477423,2358.26923 C236.93512,2358.75641 237.474961,2359 238.09696,2359 C238.707223,2359 239.24413,2358.75962 239.707695,2358.27885 C240.171261,2357.79807 240.40304,2357.21154 240.40304,2356.51923 C240.40304,2356.3399 240.387101,2356.16683 240.355222,2356 L245.537705,2356 C245.506235,2356.16683 245.4905,2356.3399 245.4905,2356.51923 C245.4905,2357.19872 245.719345,2357.78205 246.177043,2358.26923 C246.63474,2358.75641 247.174581,2359 247.79658,2359 C248.406843,2359 248.94375,2358.75962 249.407315,2358.27885 C249.870881,2357.79807 250.10266,2357.21154 250.10266,2356.51923 C250.10266,2356.3399 250.086721,2356.16683 250.054842,2356 L255.237325,2356 C255.205855,2356.16683 255.19012,2356.3399 255.19012,2356.51923 C255.19012,2357.19872 255.418965,2357.78205 255.876663,2358.26923 C256.33436,2358.75641 256.874201,2359 257.4962,2359 C258.118199,2359 258.65804,2358.75641 259.115737,2358.26923 C259.573435,2357.78205 259.80228,2357.19872 259.80228,2356.51923 C259.80228,2356.3399 259.786545,2356.16683 259.755075,2356 L264.936945,2356 C264.905475,2356.16683 264.88974,2356.3399 264.88974,2356.51923 C264.88974,2357.19872 265.118585,2357.78205 265.576283,2358.26923 C266.03398,2358.75641 266.573821,2359 267.19582,2359 C267.806083,2359 268.34299,2358.75962 268.806555,2358.27885 C269.270121,2357.79807 269.5019,2357.21154 269.5019,2356.51923 C269.5019,2356.3399 269.485961,2356.16683 269.454082,2356 L274.636565,2356 C274.605095,2356.16683 274.58936,2356.3399 274.58936,2356.51923 C274.58936,2357.19872 274.818205,2357.78205 275.275903,2358.26923 C275.7336,2358.75641 276.273441,2359 276.89544,2359 C277.505703,2359 278.04261,2358.75962 278.506175,2358.27885 C278.969741,2357.79807 279.20152,2357.21154 279.20152,2356.51923 C279.20152,2356.3399 279.185581,2356.16683 279.153702,2356 L284.336185,2356 C284.304715,2356.16683 284.28898,2356.3399 284.28898,2356.51923 C284.28898,2357.19872 284.517825,2357.78205 284.975523,2358.26923 C285.43322,2358.75641 285.97306,2359 286.59506,2359 C287.217059,2359 287.756899,2358.75641 288.214597,2358.26923 C288.672295,2357.78205 288.90114,2357.19872 288.90114,2356.51923 C288.90114,2356.3399 288.885405,2356.16683 288.853935,2356 L294.035805,2356 C294.004335,2356.16683 293.9886,2356.3399 293.9886,2356.51923 C293.9886,2357.19872 294.217445,2357.78205 294.675143,2358.26923 C295.13284,2358.75641 295.67268,2359 296.29468,2359 C296.904943,2359 297.44185,2358.75962 297.905415,2358.27885 C298.368981,2357.79807 298.60076,2357.21154 298.60076,2356.51923 C298.60076,2356.3399 298.584821,2356.16683 298.552942,2356 L303.735425,2356 C303.703955,2356.16683 303.68822,2356.3399 303.68822,2356.51923 C303.68822,2357.19872 303.917065,2357.78205 304.374762,2358.26923 C304.83246,2358.75641 305.3723,2359 305.9943,2359 C306.604563,2359 307.14147,2358.75962 307.605035,2358.27885 C308.068601,2357.79807 308.30038,2357.21154 308.30038,2356.51923 C308.30038,2356.3399 308.284441,2356.16683 308.252562,2356 L313.435045,2356 C313.403575,2356.16683 313.387839,2356.3399 313.387839,2356.51923 C313.387839,2357.19872 313.616685,2357.78205 314.074382,2358.26923 C314.53208,2358.75641 315.07192,2359 315.69392,2359 C316.315919,2359 316.855759,2358.75641 317.313457,2358.26923 C317.771155,2357.78205 318,2357.19872 318,2356.51923 C318,2356.3399 317.984265,2356.16683 317.952795,2356 L320,2356 L320,2490 L0,2490 L0,2356 L3.04720534,2356 Z" id="Rectangle-2" fill="#F0F6FA"></path>
        <text id="……………………………………………………" font-family="Georgia-Italic, Georgia" font-size="14" font-style="italic" font-weight="normal" line-spacing="22" fill="#DADFE7">
            <tspan x="30" y="375">……………………………………………………………</tspan>
        </text>
        <text id="Trải-nghiệm" font-family="SFCompactDisplay-Semibold, SF Compact Display" font-size="26" font-weight="500" line-spacing="26" letter-spacing="-1.56" fill="#191F2C">
            <tspan x="30" y="91">Trải nghiệm</tspan>
        </text>
        <text id="—-Trải-nghiệm-trong" font-family="Georgia-Italic, Georgia" font-size="14" font-style="italic" font-weight="normal" line-spacing="22" fill="#5D6A80">
            <tspan x="30" y="125">— Trải nghiệm trong thời gian ở trong </tspan>
            <tspan x="30" y="147">Chương trình.</tspan>
        </text>
        <text id="Cơ-chế-hoạt-động-xuy" font-family="SFCompactDisplay-Regular, SF Compact Display" font-size="15" font-weight="normal" line-spacing="22" fill="#4D5B72">
            <tspan x="30" y="238">Cơ chế hoạt động xuyên suốt của </tspan>
            <tspan x="30" y="260">Chanchan là ngầm nên tất cả thông tin </tspan>
            <tspan x="30" y="282">của Thành viên đều không định danh.</tspan>
        </text>
        <text id="Thông-tin-Thành-viên" font-family="Georgia-Italic, Georgia" font-size="14" font-style="italic" font-weight="normal" line-spacing="22" fill="#5D6A80">
            <tspan x="30" y="315">Thông tin Thành viên hoàn toàn vô hình </tspan>
            <tspan x="30" y="337">trong suốt chương trình.</tspan>
        </text>
        <path d="M42.0675564,207.657422 C41.7782071,207.781031 41.4362539,207.89488 41.0416867,207.998973 C40.6471194,208.103065 40.229542,208.15511 39.7889419,208.15511 C38.980079,208.15511 38.384949,208.036382 38.0035339,207.798921 C37.6221189,207.561461 37.362366,207.22154 37.2242675,206.779147 L37.1650827,206.779147 C36.9414946,207.000344 36.7261298,207.189008 36.518982,207.345146 C36.3118342,207.501285 36.0898935,207.634651 35.8531531,207.745249 C35.5440754,207.888376 35.2465104,207.994093 34.9604491,208.062404 C34.6743879,208.130714 34.2748945,208.164869 33.761957,208.164869 C32.999127,208.164869 32.3481008,207.94205 31.8088588,207.496405 C31.2696169,207.05076 31,206.46037 31,205.725218 C31,205.302343 31.0591842,204.942905 31.1775544,204.646893 C31.2959246,204.35088 31.4636131,204.089027 31.6806251,203.861325 C31.8779088,203.653141 32.1064255,203.48074 32.3661823,203.344119 C32.6259391,203.207498 32.9103521,203.080637 33.2194298,202.963534 C33.8112807,202.748843 34.5214911,202.526024 35.3500823,202.295069 C36.1786736,202.064115 36.7836677,201.85756 37.1650827,201.675398 L37.1650827,200.738572 C37.1650827,200.575928 37.1519306,200.361241 37.1256262,200.094504 C37.0993217,199.827768 37.0434255,199.603322 36.9579359,199.421161 C36.8658702,199.212976 36.7211977,199.037323 36.5239141,198.894196 C36.3266305,198.751069 36.0668776,198.679507 35.7446476,198.679507 C35.4552983,198.679507 35.2136295,198.720167 35.0196339,198.801489 C34.8256383,198.882812 34.6694578,198.965759 34.5510876,199.050334 C34.570816,199.180449 34.6267122,199.378872 34.7187779,199.645609 C34.8108436,199.912345 34.8568757,200.169319 34.8568757,200.416538 C34.8568757,200.527136 34.8272836,200.665382 34.7680985,200.831279 C34.7089134,200.997176 34.6234252,201.128916 34.5116311,201.226502 C34.3603803,201.356618 34.1910477,201.457456 34.0036283,201.529019 C33.8162088,201.600582 33.5285079,201.636364 33.1405167,201.636364 C32.5881225,201.636364 32.1705451,201.504624 31.8877719,201.24114 C31.6049987,200.977657 31.4636142,200.634483 31.4636142,200.211608 C31.4636142,199.847285 31.6099307,199.520375 31.9025681,199.230868 C32.1952055,198.941361 32.5519547,198.702278 32.9728265,198.513611 C33.3871221,198.318438 33.8638837,198.167181 34.4031256,198.059836 C34.9423676,197.95249 35.4421453,197.898819 35.9024738,197.898819 C36.5403575,197.898819 37.1256235,197.936226 37.6582893,198.011043 C38.1909551,198.085859 38.6710047,198.240369 39.0984526,198.474576 C39.5061721,198.702278 39.8300412,199.032441 40.0700696,199.465074 C40.3100981,199.897708 40.4301105,200.462075 40.4301105,201.158192 C40.4301105,201.893344 40.4153144,202.765104 40.3857219,203.773498 C40.3561293,204.781892 40.3413333,205.44547 40.3413333,205.764253 C40.3413333,206.057012 40.3857214,206.287964 40.4744991,206.457114 C40.5632767,206.626263 40.6997292,206.753124 40.8838606,206.837699 C40.9956546,206.889745 41.1715632,206.920647 41.4115916,206.930406 C41.6516201,206.940164 41.8702728,206.945044 42.0675564,206.945044 L42.0675564,207.657422 Z M37.1650827,202.57319 C36.7968199,202.696799 36.4318507,202.838297 36.070164,202.997689 C35.7084773,203.15708 35.4125563,203.324601 35.1823921,203.500257 C34.9390756,203.682418 34.748371,203.914996 34.6102724,204.197997 C34.4721739,204.480998 34.4031256,204.814413 34.4031256,205.198254 C34.4031256,205.705704 34.51985,206.073274 34.7533023,206.300976 C34.9867546,206.528678 35.2744556,206.642527 35.6164139,206.642527 C35.9781006,206.642527 36.2756656,206.569338 36.5091179,206.422958 C36.7425702,206.276579 36.9480709,206.096046 37.1256262,205.881356 L37.1650827,202.57319 Z M49.9276916,193 L43.1115762,212 L41.829239,212 L48.6256262,193 L49.9276916,193 Z M54,206.740113 C54,207.104436 53.8668355,207.415082 53.6005026,207.67206 C53.3341697,207.929037 53.0168767,208.057524 52.6486139,208.057524 C52.2803511,208.057524 51.963058,207.929037 51.6967251,207.67206 C51.4303922,207.415082 51.2972277,207.104436 51.2972277,206.740113 C51.2972277,206.37579 51.4303922,206.061891 51.6967251,205.798408 C51.963058,205.534924 52.2803511,205.403184 52.6486139,205.403184 C53.0168767,205.403184 53.3341697,205.534924 53.6005026,205.798408 C53.8668355,206.061891 54,206.37579 54,206.740113 Z" id="a/." fill="#343D51" fill-rule="nonzero"></path>
        <text id="Riêng-tư" font-family="SFCompactDisplay-Semibold, SF Compact Display" font-size="20" font-weight="500" line-spacing="20" letter-spacing="-1" fill="#343D51">
            <tspan x="58" y="207">Riêng tư</tspan>
        </text>
        <text id="Công-nghệ-của-Chanch" font-family="SFCompactDisplay-Regular, SF Compact Display" font-size="15" font-weight="normal" line-spacing="22" fill="#4D5B72">
            <tspan x="30" y="466">Công nghệ của Chanchan đánh giá triển </tspan>
            <tspan x="30" y="488">vọng dựa trên khả năng đến với nhau </tspan>
            <tspan x="30" y="510">bằng con người thực của mình.</tspan>
        </text>
        <text id="Công-nghệ-dùng-để-đá" font-family="SFCompactDisplay-Regular, SF Compact Display" font-size="15" font-weight="normal" line-spacing="22" fill="#4D5B72">
            <tspan x="30" y="652">Công nghệ dùng để đánh giá &amp; so sánh </tspan>
            <tspan x="30" y="674">Triển vọng đang là lợi thế, sản phẩm trí </tspan>
            <tspan x="30" y="696">tuệ của Chanchan.</tspan>
        </text>
        <text id="Do-vậy-sự-chân-thành" font-family="Georgia-Italic, Georgia" font-size="14" font-style="italic" font-weight="normal" line-spacing="22" fill="#5D6A80">
            <tspan x="50" y="547">Do vậy sự chân thành giữa hai người </tspan>
            <tspan x="50" y="569">là yếu tố quan trọng ảnh hưởng đến </tspan>
            <tspan x="50" y="591">chỉ số triển vọng cũng như cơ hội gặp </tspan>
            <tspan x="50" y="613">gỡ.</tspan>
        </text>
        <rect id="Rectangle" fill="#343D51" x="30" y="537" width="2" height="78"></rect>
        <text id="……………………………………………………" font-family="Georgia-Italic, Georgia" font-size="14" font-style="italic" font-weight="normal" line-spacing="22" fill="#DADFE7">
            <tspan x="30" y="733">……………………………………………………………</tspan>
        </text>
        <path d="M42.5459987,431.203347 C42.5459987,432.648587 42.0573907,433.846513 41.0801601,434.79716 C40.1029296,435.747807 38.8641356,436.223124 37.3637412,436.223124 C36.7846416,436.223124 36.2861627,436.182979 35.8682897,436.102688 C35.4504167,436.022396 35.0967106,435.924443 34.8071608,435.808824 C34.5044496,435.686781 34.2626134,435.566346 34.0816447,435.447515 C33.9006761,435.328684 33.7575485,435.230731 33.6522577,435.153651 L32.2407094,436.406187 L31.6583224,436.184584 C31.6912258,435.715684 31.7191933,435.206646 31.7422256,434.657454 C31.765258,434.108263 31.776774,433.36799 31.776774,432.436613 L31.776774,423.418357 C31.776774,423.174272 31.7257745,422.947854 31.623774,422.739097 C31.5217735,422.53034 31.3852265,422.371366 31.2141289,422.26217 C31.089096,422.185091 30.906485,422.117647 30.6662903,422.059838 C30.4260955,422.002028 30.204001,421.966701 30,421.953854 L30,421.250507 L34.8762576,421 L35.0243221,421.154158 L35.0243221,427.416836 L35.0835479,427.416836 C35.5639373,426.960782 36.0574807,426.626776 36.5641929,426.414807 C37.070905,426.202839 37.5776096,426.096856 38.0843217,426.096856 C39.466264,426.096856 40.5553498,426.556114 41.3516117,427.474645 C42.1478737,428.393176 42.5459987,429.636064 42.5459987,431.203347 Z M39.0023217,431.318966 C39.0023217,430.830795 38.9644833,430.360296 38.8888055,429.907454 C38.8131277,429.454612 38.6864516,429.054768 38.5087733,428.707911 C38.331095,428.361053 38.0974845,428.08325 37.8079347,427.874493 C37.5183849,427.665736 37.1597433,427.561359 36.7319993,427.561359 C36.330578,427.561359 35.9982588,427.625591 35.7350317,427.754057 C35.4718046,427.882523 35.2349037,428.072007 35.0243221,428.322515 L35.0243221,433.93002 C35.0638061,434.058486 35.1378376,434.227095 35.2464188,434.435852 C35.355,434.644609 35.4652247,434.806795 35.5770962,434.922414 C35.7350325,435.089419 35.9028372,435.216277 36.0805155,435.302992 C36.2581938,435.389706 36.5082558,435.433063 36.830709,435.433063 C37.5019381,435.433063 38.0316746,435.07497 38.4199346,434.358773 C38.8081946,433.642576 39.0023217,432.629317 39.0023217,431.318966 Z M50.9248701,421.240872 L44.1040321,440 L42.8208064,440 L49.6219025,421.240872 L50.9248701,421.240872 Z M55,434.806795 C55,435.166499 54.8667433,435.473207 54.6002258,435.726927 C54.3337084,435.980647 54.0161955,436.107505 53.6476776,436.107505 C53.2791596,436.107505 52.9616467,435.980647 52.6951293,435.726927 C52.4286118,435.473207 52.2953551,435.166499 52.2953551,434.806795 C52.2953551,434.447091 52.4286118,434.137172 52.6951293,433.877028 C52.9616467,433.616885 53.2791596,433.486815 53.6476776,433.486815 C54.0161955,433.486815 54.3337084,433.616885 54.6002258,433.877028 C54.8667433,434.137172 55,434.447091 55,434.806795 Z" id="b/." fill="#343D51" fill-rule="nonzero"></path>
        <text id="Chân-thực" font-family="SFCompactDisplay-Semibold, SF Compact Display" font-size="20" font-weight="500" line-spacing="20" letter-spacing="-1" fill="#343D51">
            <tspan x="59" y="435">Chân thực</tspan>
        </text>
        <path d="M35.5605885,794.174628 C34.6371409,794.174628 33.8216625,794.042888 33.1141289,793.779404 C32.4065952,793.515921 31.8236362,793.156482 31.3652341,792.701079 C30.906832,792.239169 30.5646965,791.692693 30.3388172,791.061633 C30.1129379,790.430574 30,789.744226 30,789.002568 C30,788.325968 30.1378507,787.681907 30.4135563,787.070365 C30.6892619,786.458822 31.0629536,785.922105 31.5346427,785.460195 C32.0196188,784.985274 32.6225081,784.606319 33.3433287,784.323318 C34.0641494,784.040317 34.8596975,783.898819 35.7299971,783.898819 C36.9524026,783.898819 37.9190185,784.124891 38.6298739,784.577042 C39.3407293,785.029192 39.6961516,785.639099 39.6961516,786.40678 C39.6961516,786.875195 39.5699269,787.252524 39.3174735,787.538778 C39.0650202,787.825031 38.629877,787.968156 38.0120307,787.968156 C37.5137676,787.968156 37.0968937,787.851054 36.7613966,787.616846 C36.4258994,787.382639 36.2581534,787.076872 36.2581534,786.699538 C36.2581534,786.380755 36.3113006,786.06523 36.4175968,785.752953 C36.5238929,785.440676 36.5870053,785.203219 36.6069358,785.040575 C36.5338572,784.923471 36.4408495,784.834018 36.3279098,784.772214 C36.2149702,784.710409 36.0389199,784.679507 35.7997536,784.679507 C35.5007957,784.679507 35.228416,784.747816 34.9826062,784.884438 C34.7367964,785.021059 34.5075988,785.261769 34.2950065,785.606574 C34.0890578,785.931863 33.9246334,786.367743 33.8017285,786.914227 C33.6788236,787.460712 33.6173721,788.117784 33.6173721,788.885465 C33.6173721,790.043491 33.8947344,790.977055 34.4494673,791.686184 C35.0042002,792.395313 35.6668802,792.749872 36.4375272,792.749872 C37.1749566,792.749872 37.7612374,792.588856 38.1963872,792.266821 C38.6315369,791.944785 39.0185155,791.487762 39.3573344,790.895737 L40.1047253,791.403184 C39.8987766,791.800036 39.6529705,792.162727 39.3672996,792.491269 C39.0816288,792.81981 38.7394932,793.110939 38.3408827,793.364664 C37.9223417,793.6314 37.4971636,793.833076 37.0653356,793.969697 C36.6335075,794.106318 36.1319302,794.174628 35.5605885,794.174628 Z M47.8859617,779 L41,798 L39.7045224,798 L46.5705537,779 L47.8859617,779 Z M52,792.740113 C52,793.104436 51.865471,793.415082 51.5964089,793.67206 C51.3273468,793.929037 51.0068024,794.057524 50.6347659,794.057524 C50.2627295,794.057524 49.942185,793.929037 49.6731229,793.67206 C49.4040608,793.415082 49.2695318,793.104436 49.2695318,792.740113 C49.2695318,792.37579 49.4040608,792.061891 49.6731229,791.798408 C49.942185,791.534924 50.2627295,791.403184 50.6347659,791.403184 C51.0068024,791.403184 51.3273468,791.534924 51.5964089,791.798408 C51.865471,792.061891 52,792.37579 52,792.740113 Z" id="c/." fill="#343D51" fill-rule="nonzero"></path>
        <text id="Chắc-chắn-về-nội-tâm" font-family="SFCompactDisplay-Semibold, SF Compact Display" font-size="20" font-weight="500" line-spacing="20" letter-spacing="-1" fill="#343D51">
            <tspan x="57" y="793">Chắc chắn về nội tâm</tspan>
        </text>
        <text id="……………………………………………………" font-family="Georgia-Italic, Georgia" font-size="14" font-style="italic" font-weight="normal" line-spacing="22" fill="#DADFE7">
            <tspan x="30" y="1119">……………………………………………………………</tspan>
        </text>
        <text id="Bằng-cách-này-Chanch" font-family="Georgia-Italic, Georgia" font-size="14" font-style="italic" font-weight="normal" line-spacing="22" fill="#5D6A80">
            <tspan x="50" y="971">Bằng cách này Chanchan tìm ra &amp; kết </tspan>
            <tspan x="50" y="993">nối bạn đến nhiều Triển vọng như là </tspan>
            <tspan x="50" y="1015">một phép thử về nội tâm, thử thách </tspan>
            <tspan x="50" y="1037">sự chắn chắn của bạn khi quyết định </tspan>
            <tspan x="50" y="1059">đến với ai đó trong những Triển vọng </tspan>
            <tspan x="50" y="1081">đang có.  </tspan>
        </text>
        <rect id="Rectangle" fill="#343D51" x="30" y="961" width="2" height="122"></rect>
        <text id="Công-nghệ-của-Chanch" font-family="SFCompactDisplay-Regular, SF Compact Display" font-size="15" font-weight="normal" line-spacing="22" fill="#4D5B72">
            <tspan x="30" y="824">Công nghệ của Chanchan cho phép tại </tspan>
            <tspan x="30" y="846">một thời điểm đánh giá và so sánh Triển </tspan>
            <tspan x="30" y="868">vọng giữa bạn với nhiều Thành viên dựa </tspan>
            <tspan x="30" y="890">trên những dấu hiệu phức tạp mà </tspan>
            <tspan x="30" y="912">những cách thức thông thường không </tspan>
            <tspan x="30" y="934">đạt được kết quả tương tự.</tspan>
        </text>
        <text id="Chanchan-không-cho-T" font-family="SFCompactDisplay-Regular, SF Compact Display" font-size="15" font-weight="normal" line-spacing="22" fill="#4D5B72">
            <tspan x="30" y="1210">Chanchan không cho Thành viên biết về </tspan>
            <tspan x="30" y="1232">triển vọng của của mình với đối phương.</tspan>
        </text>
        <path d="M43.3986956,1179.71247 L38.6232605,1179.99189 L38.4779633,1179.857 L38.4779633,1178.97059 L38.4101579,1178.95132 C38.0937313,1179.29175 37.665916,1179.58883 37.1266992,1179.84255 C36.5874824,1180.09627 36.0434305,1180.22312 35.4945271,1180.22312 C34.1900745,1180.22312 33.1148859,1179.74138 32.268929,1178.77789 C31.4229721,1177.8144 31,1176.5683 31,1175.03955 C31,1173.68424 31.4730184,1172.52164 32.4190695,1171.55172 C33.3651205,1170.58181 34.5097282,1170.09686 35.8529269,1170.09686 C36.3824572,1170.09686 36.8796916,1170.15627 37.344645,1170.2751 C37.8095984,1170.39393 38.1809098,1170.53364 38.4585903,1170.69422 L38.4585903,1167.54361 C38.4585903,1167.30595 38.4101584,1167.08274 38.3132931,1166.87399 C38.2164278,1166.66523 38.087276,1166.50304 37.9258338,1166.38742 C37.7256456,1166.24611 37.475414,1166.14495 37.1751316,1166.08392 C36.8748492,1166.0229 36.5729569,1165.97955 36.2694456,1165.95385 L36.2694456,1165.25051 L41.5001453,1165 L41.6454425,1165.15416 L41.6454425,1177.7855 C41.6454425,1178.02958 41.6858024,1178.23512 41.7665235,1178.40213 C41.8472446,1178.56914 41.9780108,1178.70081 42.158826,1178.79716 C42.2944374,1178.86782 42.4930083,1178.9192 42.7545446,1178.95132 C43.0160809,1178.98343 43.2307957,1179.0027 43.3986956,1179.00913 L43.3986956,1179.71247 Z M38.4585903,1177.99746 L38.4585903,1172.55375 C38.4133865,1172.40602 38.350425,1172.24223 38.2697039,1172.06237 C38.1889828,1171.88252 38.0775894,1171.71231 37.9355203,1171.55172 C37.8063666,1171.41684 37.6336261,1171.29801 37.4172936,1171.19523 C37.2009611,1171.09246 36.9571858,1171.04108 36.6859643,1171.04108 C36.0401957,1171.04108 35.5106733,1171.40399 35.0973814,1172.12982 C34.6840895,1172.85565 34.4774466,1173.88015 34.4774466,1175.20335 C34.4774466,1175.72363 34.5145778,1176.19092 34.5888412,1176.60522 C34.6631046,1177.01953 34.7938708,1177.39689 34.9811437,1177.73732 C35.1684166,1178.07776 35.4089618,1178.34432 35.7027865,1178.53702 C35.9966112,1178.72972 36.3501642,1178.82606 36.7634561,1178.82606 C37.157375,1178.82606 37.4834833,1178.75059 37.7417907,1178.59965 C38.0000982,1178.4487 38.239029,1178.24797 38.4585903,1177.99746 Z M51.0010332,1165.24087 L44.3076749,1184 L43.0484324,1184 L49.7224177,1165.24087 L51.0010332,1165.24087 Z M55,1178.8068 C55,1179.1665 54.8692338,1179.47321 54.6076975,1179.72693 C54.3461612,1179.98065 54.0345825,1180.10751 53.6729521,1180.10751 C53.3113217,1180.10751 52.999743,1179.98065 52.7382067,1179.72693 C52.4766704,1179.47321 52.3459042,1179.1665 52.3459042,1178.8068 C52.3459042,1178.44709 52.4766704,1178.13717 52.7382067,1177.87703 C52.999743,1177.61689 53.3113217,1177.48682 53.6729521,1177.48682 C54.0345825,1177.48682 54.3461612,1177.61689 54.6076975,1177.87703 C54.8692338,1178.13717 55,1178.44709 55,1178.8068 Z" id="d/." fill="#343D51" fill-rule="nonzero"></path>
        <text id="Tự-nhiên" font-family="SFCompactDisplay-Semibold, SF Compact Display" font-size="20" font-weight="500" line-spacing="20" letter-spacing="-1" fill="#343D51">
            <tspan x="60" y="1179">Tự nhiên</tspan>
        </text>
        <text id="Bằng-cách-này-Chanch" font-family="Georgia-Italic, Georgia" font-size="14" font-style="italic" font-weight="normal" line-spacing="22" fill="#5D6A80">
            <tspan x="50" y="1269">Bằng cách này Chanchan giữ cho cả </tspan>
            <tspan x="50" y="1291">hai cảm nhận tình cảm của mình một </tspan>
            <tspan x="50" y="1313">cách chân thực mà không bị phân tâm </tspan>
            <tspan x="50" y="1335">bởi những gợi ý, gán ghép.</tspan>
        </text>
        <rect id="Rectangle" fill="#343D51" x="30" y="1259" width="2" height="78"></rect>
        <rect id="Rectangle" fill="#343D51" x="30" y="1513" width="2" height="122"></rect>
        <text id="Bởi-triển-vọng-được" font-family="SFCompactDisplay-Regular, SF Compact Display" font-size="15" font-weight="normal" line-spacing="22" fill="#4D5B72">
            <tspan x="30" y="1464">Bởi triển vọng được đánh giá qua khả </tspan>
            <tspan x="30" y="1486">năng kết nối chân thực.</tspan>
        </text>
        <text id="Cho-nên-trong-thời-g" font-family="Georgia-Italic, Georgia" font-size="14" font-style="italic" font-weight="normal" line-spacing="22" fill="#5D6A80">
            <tspan x="50" y="1523">Cho nên trong thời gian ở trong </tspan>
            <tspan x="50" y="1545">Chương trình, dù có thể chưa gặp </tspan>
            <tspan x="50" y="1567">được bạn đời nhưng những mối quan </tspan>
            <tspan x="50" y="1589">hệ mà bạn gặt hái được sẽ trở thành </tspan>
            <tspan x="50" y="1611">một nguồn năng lượng tích cực cho </tspan>
            <tspan x="50" y="1633">cuộc sống hàng ngày.</tspan>
        </text>
        <text id="Bởi-chất-lượng-cuộc" font-family="SFCompactDisplay-Regular, SF Compact Display" font-size="15" font-weight="normal" line-spacing="22" fill="#4D5B72">
            <tspan x="30" y="1672">Bởi chất lượng cuộc sống phụ thuộc </tspan>
            <tspan x="30" y="1694">nhiều vào chất lượng các mối quan hệ &amp; </tspan>
            <tspan x="30" y="1716">chất lượng của các mối quan hệ phụ </tspan>
            <tspan x="30" y="1738">thuộc nhiều vào sự chân thành &amp; tin </tspan>
            <tspan x="30" y="1760">tưởng.</tspan>
        </text>
        <text id="……………………………………………………" font-family="Georgia-Italic, Georgia" font-size="14" font-style="italic" font-weight="normal" line-spacing="22" fill="#DADFE7">
            <tspan x="30" y="1373">……………………………………………………………</tspan>
        </text>
        <path d="M41.1995914,1431.53005 C40.9754938,1431.90087 40.70498,1432.25055 40.388042,1432.5791 C40.0711039,1432.90764 39.7109525,1433.18901 39.3075768,1433.42322 C38.8785899,1433.67043 38.4448075,1433.85747 38.0062165,1433.98433 C37.5676255,1434.1112 37.0634134,1434.17463 36.4935652,1434.17463 C35.5459525,1434.17463 34.7280085,1434.03801 34.0397087,1433.76477 C33.3514089,1433.49152 32.78317,1433.12395 32.3349748,1432.66204 C31.8867796,1432.20013 31.5522389,1431.65528 31.3313427,1431.02748 C31.1104464,1430.39967 31,1429.7182 31,1428.98305 C31,1428.31946 31.1200505,1427.68353 31.3601551,1427.07524 C31.6002596,1426.46695 31.941203,1425.92536 32.3829954,1425.45044 C32.8183851,1424.98853 33.367416,1424.61445 34.0301046,1424.3282 C34.6927932,1424.04194 35.4339049,1423.89882 36.2534619,1423.89882 C37.1498523,1423.89882 37.8861619,1424.00942 38.4624129,1424.23061 C39.0386639,1424.45181 39.5156645,1424.75757 39.893429,1425.14792 C40.258388,1425.51875 40.5240997,1425.95625 40.6905722,1426.46045 C40.8570447,1426.96465 40.9402797,1427.49323 40.9402797,1428.04622 L40.9402797,1428.68053 L34.4478845,1428.68053 C34.4478845,1430.01422 34.7007908,1431.0291 35.2066111,1431.72522 C35.7124314,1432.42134 36.5159694,1432.76939 37.617249,1432.76939 C38.2191112,1432.76939 38.7601387,1432.60187 39.2403478,1432.26682 C39.720557,1431.93177 40.1303293,1431.50728 40.4696771,1430.99332 L41.1995914,1431.53005 Z M37.5308118,1427.82178 C37.5308118,1427.43143 37.5116037,1427.03133 37.473187,1426.62147 C37.4347703,1426.21161 37.367542,1425.87656 37.2715002,1425.61633 C37.1626528,1425.31056 37.0137902,1425.07961 36.8249079,1424.92347 C36.6360256,1424.76733 36.3975253,1424.68927 36.1093998,1424.68927 C35.6163851,1424.68927 35.2226195,1424.94299 34.9280912,1425.45044 C34.6335629,1425.95789 34.4734956,1426.76134 34.4478845,1427.86081 L37.5308118,1427.82178 Z M49.0350289,1419 L42.3985716,1438 L41.1500341,1438 L47.7672831,1419 L49.0350289,1419 Z M53,1432.74011 C53,1433.10444 52.8703455,1433.41508 52.6110325,1433.67206 C52.3517196,1433.92904 52.0427897,1434.05752 51.6842335,1434.05752 C51.3256773,1434.05752 51.0167474,1433.92904 50.7574345,1433.67206 C50.4981215,1433.41508 50.368467,1433.10444 50.368467,1432.74011 C50.368467,1432.37579 50.4981215,1432.06189 50.7574345,1431.79841 C51.0167474,1431.53492 51.3256773,1431.40318 51.6842335,1431.40318 C52.0427897,1431.40318 52.3517196,1431.53492 52.6110325,1431.79841 C52.8703455,1432.06189 53,1432.37579 53,1432.74011 Z" id="e/." fill="#343D51" fill-rule="nonzero"></path>
        <text id="Năng-lượng-sống" font-family="SFCompactDisplay-Semibold, SF Compact Display" font-size="20" font-weight="500" line-spacing="20" letter-spacing="-1" fill="#343D51">
            <tspan x="58" y="1433">Năng lượng sống</tspan>
        </text>
        <text id="Tiêu-chuẩn-cộng-đồng" font-family="SFCompactDisplay-Regular, SF Compact Display" font-size="15" font-weight="normal" line-spacing="22" fill="#4D5B72">
            <tspan x="30" y="1888">Tiêu chuẩn cộng đồng được quản trị </tspan>
            <tspan x="30" y="1910">xuyên suốt từ các Chiến dịch marketing </tspan>
            <tspan x="30" y="1932">cho đến vận hành chương trình.</tspan>
        </text>
        <text id="Không-mất-thời-gian" font-family="Georgia-Italic, Georgia" font-size="14" font-style="italic" font-weight="normal" line-spacing="22" fill="#5D6A80">
            <tspan x="50" y="2141">Không mất thời gian cho những mối </tspan>
            <tspan x="50" y="2163">quan hệ ngắn hạn, không có nhiều </tspan>
            <tspan x="50" y="2185">triển vọng có thể mang lại những trải </tspan>
            <tspan x="50" y="2207">nghiệm tiêu cực.</tspan>
        </text>
        <text id="—" font-family="Georgia-Italic, Georgia" font-size="14" font-style="italic" font-weight="normal" line-spacing="22" fill="#5D6A80">
            <tspan x="30" y="2141">—</tspan>
        </text>
        <text id="……………………………………………………" font-family="Georgia-Italic, Georgia" font-size="14" font-style="italic" font-weight="normal" line-spacing="22" fill="#DADFE7">
            <tspan x="50" y="2233">………………………………………………………</tspan>
        </text>
        <text id="Bởi-Chanchan-kết-nối" font-family="SFCompactDisplay-Regular, SF Compact Display" font-size="15" font-weight="normal" line-spacing="22" fill="#4D5B72">
            <tspan x="30" y="2060">Bởi Chanchan kết nối dựa trên triển </tspan>
            <tspan x="30" y="2082">vọng bên nhau dài lâu trong cuộc sống </tspan>
            <tspan x="30" y="2104">thực cho nên</tspan>
        </text>
        <text id="Thời-gian-của-bạn-lu" font-family="Georgia-Italic, Georgia" font-size="14" font-style="italic" font-weight="normal" line-spacing="22" fill="#5D6A80">
            <tspan x="50" y="2267">Thời gian của bạn luôn được tối ưu </tspan>
            <tspan x="50" y="2289">để dành nhiều cho những Triển vọng </tspan>
            <tspan x="50" y="2311">tích cực &amp; rõ ràng nhất.</tspan>
        </text>
        <text id="—" font-family="Georgia-Italic, Georgia" font-size="14" font-style="italic" font-weight="normal" line-spacing="22" fill="#5D6A80">
            <tspan x="30" y="2267">—</tspan>
        </text>
        <text id="Tin-tưởng" font-family="SFCompactDisplay-Semibold, SF Compact Display" font-size="20" font-weight="500" line-spacing="20" letter-spacing="-1.2" fill="#343D51">
            <tspan x="58" y="2029">Tin tưởng</tspan>
        </text>
        <text id="……………………………………………………" font-family="Georgia-Italic, Georgia" font-size="14" font-style="italic" font-weight="normal" line-spacing="22" fill="#DADFE7">
            <tspan x="30" y="1797">……………………………………………………………</tspan>
        </text>
        <text id="……………………………………………………" font-family="Georgia-Italic, Georgia" font-size="14" font-style="italic" font-weight="normal" line-spacing="22" fill="#DADFE7">
            <tspan x="30" y="1969">……………………………………………………………</tspan>
        </text>
        <path d="M39.5301757,1844.6371 C39.5301757,1844.7976 39.5047112,1844.97415 39.4537815,1845.16675 C39.4028518,1845.35935 39.3200922,1845.52306 39.2055004,1845.65788 C39.0718099,1845.81838 38.9222061,1845.94036 38.7566845,1846.02382 C38.5911629,1846.10728 38.3428843,1846.14901 38.0118411,1846.14901 C37.5089101,1846.14901 37.1142108,1845.97246 36.8277311,1845.61936 C36.5412514,1845.26626 36.2356777,1844.67883 35.9110008,1843.85707 C35.6563522,1843.96621 35.4494533,1844.24869 35.2902979,1844.70451 C35.1311426,1845.16033 35.0515661,1846.13937 35.0515661,1847.64166 L35.0515661,1848.40243 L37.6871658,1848.40243 L37.6871658,1849.44247 L35.0706646,1849.44247 L35.0706646,1856.07755 C35.0706646,1856.32793 35.1279597,1856.52213 35.2425516,1856.66016 C35.3571434,1856.79819 35.5067472,1856.89931 35.6913675,1856.96351 C35.8441566,1857.01487 36.0446894,1857.06462 36.2929717,1857.11277 C36.5412541,1857.16092 36.7640683,1857.19463 36.9614209,1857.21389 L36.9614209,1857.91688 L30.5156608,1857.91688 L30.5156608,1857.21389 C30.6811824,1857.20105 30.8419269,1857.185 30.9978992,1857.16574 C31.1538714,1857.14648 31.2923345,1857.11438 31.4132926,1857.06944 C31.6170115,1856.9924 31.7554746,1856.88165 31.828686,1856.7372 C31.9018975,1856.59275 31.9385027,1856.40176 31.9385027,1856.16422 L31.9385027,1849.44247 L30,1849.44247 L30,1848.40243 L31.9385027,1848.40243 C31.9385027,1847.71549 32.0371775,1847.04942 32.2345302,1846.40421 C32.4318828,1845.75899 32.7374566,1845.1828 33.1512605,1844.67562 C33.552332,1844.17486 34.0807199,1843.7704 34.73644,1843.46224 C35.3921601,1843.15408 36.1624606,1843 37.0473644,1843 C37.836775,1843 38.4479225,1843.15087 38.8808251,1843.45261 C39.3137277,1843.75435 39.5301757,1844.14918 39.5301757,1844.6371 Z M45.0576776,1843.25038 L38.4591291,1862 L37.2177235,1862 L43.7971734,1843.25038 L45.0576776,1843.25038 Z M49,1856.80943 C49,1857.16895 48.8710861,1857.4755 48.6132544,1857.72909 C48.3554227,1857.98268 48.0482574,1858.10948 47.6917494,1858.10948 C47.3352414,1858.10948 47.0280762,1857.98268 46.7702445,1857.72909 C46.5124128,1857.4755 46.3834989,1857.16895 46.3834989,1856.80943 C46.3834989,1856.44991 46.5124128,1856.14014 46.7702445,1855.88013 C47.0280762,1855.62012 47.3352414,1855.49012 47.6917494,1855.49012 C48.0482574,1855.49012 48.3554227,1855.62012 48.6132544,1855.88013 C48.8710861,1856.14014 49,1856.44991 49,1856.80943 Z" id="f/." fill="#343D51" fill-rule="nonzero"></path>
        <text id="Tiêu-chuẩn" font-family="SFCompactDisplay-Semibold, SF Compact Display" font-size="20" font-weight="500" line-spacing="20" letter-spacing="-1" fill="#343D51">
            <tspan x="54" y="1857">Tiêu chuẩn</tspan>
        </text>
        <path d="M41.2856704,2021.21098 L39.1266726,2021.21098 C39.3818281,2021.49432 39.5731919,2021.79376 39.7007697,2022.1093 C39.8283475,2022.42484 39.8921354,2022.75326 39.8921354,2023.09456 C39.8921354,2023.53889 39.7711019,2023.95585 39.5290313,2024.34545 C39.2869606,2024.73505 38.9696565,2025.05219 38.5771095,2025.2969 C38.17802,2025.54804 37.7102419,2025.74445 37.1737609,2025.88612 C36.63728,2026.02779 36.0550106,2026.09863 35.4269354,2026.09863 L33.8273143,2026.09863 C33.7488049,2026.15658 33.6621187,2026.24835 33.5672532,2026.37392 C33.4723877,2026.49949 33.4249556,2026.62023 33.4249556,2026.73615 C33.4249556,2027.01949 33.5394468,2027.2159 33.7684326,2027.32537 C33.9974183,2027.43484 34.4128577,2027.49602 35.0147631,2027.5089 C35.6101261,2027.52178 36.2120225,2027.54592 36.8204704,2027.58134 C37.4289183,2027.61676 37.8639847,2027.63769 38.1256827,2027.64413 C38.5051448,2027.66345 38.8813301,2027.73911 39.2542497,2027.87112 C39.6271694,2028.00314 39.9510158,2028.17539 40.2257987,2028.3879 C40.5267515,2028.61329 40.7753608,2028.90146 40.9716344,2029.25241 C41.1679079,2029.60337 41.2660431,2030.00745 41.2660431,2030.46467 C41.2660431,2030.95408 41.1466452,2031.4145 40.9078458,2031.84596 C40.6690463,2032.27741 40.3043102,2032.65091 39.8136264,2032.96645 C39.2967729,2033.29487 38.676885,2033.54923 37.9539442,2033.72954 C37.2310035,2033.90985 36.3363368,2034 35.2699174,2034 C33.549253,2034 32.2407825,2033.79394 31.3444668,2033.3818 C30.4481511,2032.96966 30,2032.35147 30,2031.5272 C30,2031.01847 30.242067,2030.5999 30.7262084,2030.27148 C31.2103497,2029.94306 31.9627202,2029.76275 32.9833424,2029.73055 L32.9833424,2029.61464 C32.381437,2029.41501 31.9120232,2029.14938 31.575087,2028.81774 C31.2381509,2028.4861 31.0696853,2028.10134 31.0696853,2027.66345 C31.0696853,2027.39298 31.1367444,2027.16438 31.2708646,2026.97763 C31.4049849,2026.79088 31.5767216,2026.62667 31.78608,2026.485 C31.9692686,2026.36265 32.1917086,2026.25801 32.4534066,2026.17107 C32.7151046,2026.08414 32.9342734,2026.01491 33.1109196,2025.9634 L33.1109196,2025.85714 C32.2276888,2025.53516 31.5783603,2025.14235 31.1629147,2024.6787 C30.7474691,2024.21505 30.5397495,2023.64837 30.5397495,2022.97865 C30.5397495,2022.03202 30.9829938,2021.27538 31.8694958,2020.70869 C32.7559979,2020.14201 33.8796468,2019.85867 35.2404765,2019.85867 C35.6853631,2019.85867 36.1155228,2019.8957 36.5309684,2019.96975 C36.946414,2020.04381 37.2620825,2020.10981 37.4779833,2020.16777 L41.2856704,2020.16777 L41.2856704,2021.21098 Z M36.6830796,2023.05592 C36.6830796,2022.30249 36.5620461,2021.70683 36.3199754,2021.26894 C36.0779048,2020.83104 35.7049907,2020.6121 35.201222,2020.6121 C34.9460664,2020.6121 34.7236265,2020.67167 34.5338954,2020.7908 C34.3441644,2020.90993 34.1904191,2021.08219 34.072655,2021.30757 C33.9614333,2021.52652 33.8861963,2021.78249 33.8469416,2022.0755 C33.8076869,2022.3685 33.7880598,2022.66955 33.7880598,2022.97865 C33.7880598,2023.68057 33.9123645,2024.2569 34.1609776,2024.70768 C34.4095907,2025.15845 34.7628777,2025.38383 35.2208493,2025.38383 C35.6919057,2025.38383 36.0533706,2025.18099 36.305255,2024.77529 C36.5571393,2024.3696 36.6830796,2023.79648 36.6830796,2023.05592 Z M38.3317688,2031.1698 C38.3317688,2030.95085 38.2696165,2030.73352 38.1453099,2030.51779 C38.0210034,2030.30207 37.7429534,2030.12659 37.3111517,2029.99136 C37.0756235,2029.95272 36.6879891,2029.92696 36.148237,2029.91408 C35.6084848,2029.9012 34.8675634,2029.89476 33.9254506,2029.89476 C33.6964648,2030.08795 33.505101,2030.31656 33.3513534,2030.58058 C33.1976058,2030.8446 33.1207332,2031.16336 33.1207332,2031.53686 C33.1207332,2031.69785 33.1665297,2031.87494 33.258124,2032.06812 C33.3497183,2032.26131 33.49365,2032.44162 33.6899235,2032.60905 C33.9189093,2032.7958 34.174061,2032.9423 34.4553864,2033.04855 C34.7367118,2033.1548 35.1619647,2033.20793 35.7311578,2033.20793 C36.5751339,2033.20793 37.2195556,2033.04694 37.6644422,2032.72496 C38.1093289,2032.40298 38.3317688,2031.8846 38.3317688,2031.1698 Z M48.9485425,2015 L42.1673266,2033.80681 L40.8915552,2033.80681 L47.6531438,2015 L48.9485425,2015 Z M53,2028.60041 C53,2028.96103 52.8675174,2029.26851 52.6025481,2029.52288 C52.3375789,2029.77724 52.0219104,2029.90442 51.6555332,2029.90442 C51.289156,2029.90442 50.9734875,2029.77724 50.7085182,2029.52288 C50.443549,2029.26851 50.3110664,2028.96103 50.3110664,2028.60041 C50.3110664,2028.23979 50.443549,2027.92908 50.7085182,2027.66828 C50.9734875,2027.40747 51.289156,2027.27707 51.6555332,2027.27707 C52.0219104,2027.27707 52.3375789,2027.40747 52.6025481,2027.66828 C52.8675174,2027.92908 53,2028.23979 53,2028.60041 Z" id="g/." fill="#343D51" fill-rule="nonzero"></path>
        <text id="……………………………………………………" font-family="Georgia-Italic, Georgia" font-size="14" font-style="italic" font-weight="normal" line-spacing="22" fill="#DADFE7">
            <tspan x="0" y="17">…………………………………………………………………………</tspan>
        </text>
        <text id="Câu-chuyện" font-family="SFCompactDisplay-Semibold, SF Compact Display" font-size="26" font-weight="500" line-spacing="26" letter-spacing="-1.56" fill="#191F2C">
            <tspan x="30" y="2425">Câu chuyện</tspan>
        </text>
        <text id="—-Chia-sẻ-của-Hồng-v" font-family="Georgia-Italic, Georgia" font-size="14" font-style="italic" font-weight="normal" line-spacing="22" fill="#5D6A80">
            <tspan x="30" y="2459">— Chia sẻ của Hồng vân về Chương trình </tspan>
            <tspan x="30" y="2481">của cô ấy ở Chanchan</tspan>
        </text>
    </g>
</svg>