<?xml version="1.0" encoding="UTF-8"?>
<svg width="320px" height="1090px" viewBox="0 0 320 1090" version="1.1" xmlns="http://www.w3.org/2000/svg" xmlns:xlink="http://www.w3.org/1999/xlink">
    <title>1</title>
    <defs>
        <linearGradient x1="-39.7235978%" y1="210.426993%" x2="187.737572%" y2="-148.59112%" id="linearGradient-1">
            <stop stop-color="#2979FF" offset="0%"></stop>
            <stop stop-color="#651FFF" offset="100%"></stop>
            <stop stop-color="#651FFF" offset="100%"></stop>
        </linearGradient>
        <linearGradient x1="186.778335%" y1="-18.3762626%" x2="-80.9423703%" y2="153.657309%" id="linearGradient-2">
            <stop stop-color="#2979FF" offset="0%"></stop>
            <stop stop-color="#03A9F4" offset="100%"></stop>
        </linearGradient>
    </defs>
    <g id="Chanchan-8" stroke="none" stroke-width="1" fill="none" fill-rule="evenodd">
        <g id="tangtocdk" transform="translate(-241.000000, 0.000000)">
            <g id="txt" transform="translate(240.000000, 162.000000)">
                <g id="Group-11" transform="translate(60.000000, 378.000000)"></g>
                <g id="Group-11" transform="translate(60.000000, 449.000000)"></g>
                <g id="Group-8" transform="translate(70.000000, 161.000000)"></g>
                <path d="M-5.40012479e-13,928 L42.3420781,928 C53.8837836,928 65.1955857,924.772928 75,918.68323 C84.1861326,912.977557 95.8138674,912.977557 105,918.68323 C114.804414,924.772928 126.116216,928 137.657922,928 L320,928 L320,928 L320,208 L-5.40012479e-13,208 L-5.40012479e-13,928 Z" id="Rectangle" fill="#F0F6FA" transform="translate(160.000000, 568.000000) scale(1, -1) translate(-160.000000, -568.000000) "></path>
                <path d="M0,928 L43.2294902,928 C54.25826,928 65.1355683,925.432216 75,920.5 C84.4427191,915.77864 95.5572809,915.77864 105,920.5 C114.864432,925.432216 125.74174,928 136.77051,928 L320,928 L320,928 L320,886 L0,886 L0,928 Z" id="Rectangle" fill="#FFFFFF" transform="translate(160.000000, 907.000000) scale(1, -1) translate(-160.000000, -907.000000) "></path>
                <path d="M91.5,836 C103.374122,836 113,845.625878 113,857.5 C113,869.374122 103.374122,879 91.5,879 C79.6258779,879 70,869.374122 70,857.5 C70,845.625878 79.6258779,836 91.5,836 Z M91.502,848.98 C90.396,848.98 89.5035,849.2005 88.8245,849.6415 C88.1455,850.0825 87.6485,850.695 87.3335,851.479 C87.057875,852.165 86.9028359,852.93675 86.8683828,853.79425 L86.861,854.167 L86.861,855.007 L90.032,855.007 L90.032,854.209 C90.032,853.761 90.074,853.348 90.158,852.97 C90.242,852.592 90.396,852.2875 90.62,852.0565 C90.844,851.8255 91.166,851.71 91.586,851.71 C91.978,851.71 92.279,851.8535 92.489,852.1405 C92.699,852.4275 92.804,852.844 92.804,853.39 C92.804,853.908 92.7165,854.3945 92.5415,854.8495 C92.3665,855.3045 92.1425,855.749 91.8695,856.183 C91.6875,856.472333 91.4977222,856.771 91.3001667,857.079 L90.998,857.548 L86.861,863.911 L86.861,866.2 L95.555,866.2 L95.555,863.638 L90.494,863.638 L93.77,858.703 C94.162,858.129 94.5295,857.5725 94.8725,857.0335 C95.2155,856.4945 95.492,855.9345 95.702,855.3535 C95.912,854.7725 96.017,854.139 96.017,853.453 C96.017,852.039 95.639,850.94 94.883,850.156 C94.127,849.372 93,848.98 91.502,848.98 Z" id="Oval-3" fill="url(#linearGradient-1)"></path>
                <path d="M91.5,161 C103.374122,161 113,170.625878 113,182.5 C113,194.374122 103.374122,204 91.5,204 C79.6258779,204 70,194.374122 70,182.5 C70,170.625878 79.6258779,161 91.5,161 Z M94.195,173.99 L91.675,173.99 C91.521,174.158 91.3005,174.34 91.0135,174.536 C90.7265,174.732 90.422,174.914 90.1,175.082 C89.778,175.25 89.4735,175.404 89.1865,175.544 C88.9569,175.656 88.76538,175.75008 88.61194,175.82624 L88.504,175.88 L88.504,178.274 C88.63,178.218 88.805,178.1515 89.029,178.0745 C89.253,177.9975 89.491,177.9135 89.743,177.8225 C89.995,177.7315 90.2295,177.6475 90.4465,177.5705 C90.60925,177.51275 90.7464063,177.456969 90.8579688,177.403156 L90.961,177.35 L90.961,191 L94.195,191 L94.195,173.99 Z" id="Oval-2" fill="url(#linearGradient-2)"></path>
                <text id="Bạn-thực-hiện-theo-0" font-family="SFCompactDisplay-Light, SF Compact Display" font-size="16" font-weight="300" line-spacing="24" fill="#121721">
                    <tspan x="60" y="99">Bạn thực hiện theo 02 bước </tspan>
                    <tspan x="60" y="123">dưới đây</tspan>
                </text>
                <text id="Hướng-dẫn-Thanh-toán" font-family="GMVDINPro-CondBlack, GMV DIN Cond" font-size="30" font-style="condensed" font-weight="800" fill="#121721">
                    <tspan x="60" y="23">Hướng dẫn</tspan>
                    <tspan x="60" y="53">Thanh toán</tspan>
                </text>
                <text id="Thanh-toán" font-family="GMVDINPro-CondBold, GMV DIN Cond" font-size="24" font-style="condensed" font-weight="bold" fill="#121721">
                    <tspan x="60" y="287">Thanh toán</tspan>
                </text>
                <text id="Bằng-chuyển-khoản-đế" font-family="SFCompactDisplay-Light, SF Compact Display" font-size="16" font-weight="300" line-spacing="24" fill="#121721">
                    <tspan x="60" y="332">Bằng chuyển khoản đến một </tspan>
                    <tspan x="60" y="356">trong hai tài khoản</tspan>
                </text>
                <text id="Ví-dụ:-Tangtoc-09123" font-family="SFCompactDisplay-Semibold, SF Compact Display" font-size="18" font-weight="500" letter-spacing="-0.72" fill="#8C96A8">
                    <tspan x="60" y="792">Ví dụ: Tangtoc 0912345678</tspan>
                </text>
                <text id="VPBank" font-family="SFCompactDisplay-Light, SF Compact Display" font-size="16" font-weight="300" fill="#018446">
                    <tspan x="60" y="400">VPBank</tspan>
                </text>
                <text id="125-182-437" font-family="SFCompactDisplay-Semibold, SF Compact Display" font-size="20" font-weight="500" letter-spacing="-0.8" fill="#018446">
                    <tspan x="60" y="431">125 182 437</tspan>
                </text>
                <text id="125182437" font-family="Oswald-Regular_SemiBold, Oswald" font-size="32" font-weight="500" letter-spacing="-1.28" fill="#FFFFFF" fill-opacity="0">
                    <tspan x="59" y="425">125182437</tspan>
                </text>
                <text id="Hoặc-BIDV" font-family="SFCompactDisplay-Light, SF Compact Display" font-size="16" font-weight="300">
                    <tspan x="60" y="468" fill="#121721">Hoặc </tspan>
                    <tspan x="98.703125" y="468" fill="#203F9A">BIDV</tspan>
                </text>
                <text id="2791-0000-501-984" font-family="SFCompactDisplay-Semibold, SF Compact Display" font-size="20" font-weight="500" letter-spacing="-0.8" fill="#203F9A">
                    <tspan x="60" y="499">2791 0000 501 984</tspan>
                </text>
                <text id="27910000501984" font-family="Oswald-Regular_SemiBold, Oswald" font-size="32" font-weight="500" letter-spacing="-1.28" fill="#FFFFFF" fill-opacity="0">
                    <tspan x="59" y="493">27910000501984</tspan>
                </text>
                <text id="360.000đ" font-family="SFCompactDisplay-Semibold, SF Compact Display" font-size="20" font-weight="500" letter-spacing="-0.8" fill="#121721">
                    <tspan x="60" y="654">360.000đ </tspan>
                </text>
                <text id="Chủ-tài-khoản" font-family="SFCompactDisplay-Light, SF Compact Display" font-size="16" font-weight="300" line-spacing="24" fill="#121721">
                    <tspan x="60" y="543">Chủ tài khoản</tspan>
                </text>
                <text id="Số-tiền" font-family="SFCompactDisplay-Light, SF Compact Display" font-size="16" font-weight="300" fill="#121721">
                    <tspan x="60" y="623">Số tiền</tspan>
                </text>
                <text id="Nguyen-Minh-Tuan" font-family="SFCompactDisplay-Semibold, SF Compact Display" font-size="20" font-weight="500" letter-spacing="-0.8" fill="#121721">
                    <tspan x="60" y="579">Nguyen Minh Tuan</tspan>
                </text>
                <text id="Nội-dung-chuyển-khoả" font-family="SFCompactDisplay-Light, SF Compact Display" font-size="16" font-weight="300" line-spacing="24" fill="#121721">
                    <tspan x="60" y="698">Nội dung chuyển khoản</tspan>
                </text>
                <text id="Tangtoc-[Số-điện-tho" font-family="SFCompactDisplay-Semibold, SF Compact Display" font-size="20" font-weight="500" letter-spacing="-0.8" fill="#121721">
                    <tspan x="60" y="734">Tangtoc [Số điện thoại </tspan>
                    <tspan x="60" y="758">của bạn]</tspan>
                </text>
            </g>
        </g>
    </g>
</svg>