<?xml version="1.0" encoding="UTF-8"?>
<svg width="320px" height="2144px" viewBox="0 0 320 2144" version="1.1" xmlns="http://www.w3.org/2000/svg" xmlns:xlink="http://www.w3.org/1999/xlink">
    <!-- Generator: Sketch 54.1 (76490) - https://sketchapp.com -->
    <title>7dieu_pre</title>
    <desc>Created with Sketch.</desc>
    <g id="7dieu_pre" stroke="none" stroke-width="1" fill="none" fill-rule="evenodd">
        <polygon id="Rectangle" fill="#F0F6FA" points="0 0 320 0 320 148 0 148"></polygon>
        <path d="M3.04720534,142 C3.01573507,142.166826 3,142.339903 3,142.519231 C3,143.198721 3.22884537,143.782049 3.68654298,144.269231 C4.14424058,144.756413 4.68408094,145 5.30608025,145 C5.91634372,145 6.45325017,144.759618 6.91681569,144.278846 C7.38038122,143.798075 7.6121605,143.211542 7.6121605,142.519231 C7.6121605,142.339903 7.59622108,142.166826 7.5643421,142 L12.7468253,142 C12.7153551,142.166826 12.69962,142.339903 12.69962,142.519231 C12.69962,143.198721 12.9284654,143.782049 13.386163,144.269231 C13.8438606,144.756413 14.3837009,145 15.0057002,145 C15.6159637,145 16.1528702,144.759618 16.6164357,144.278846 C17.0800012,143.798075 17.3117805,143.211542 17.3117805,142.519231 C17.3117805,142.339903 17.2958411,142.166826 17.2639621,142 L22.4464453,142 C22.414975,142.166826 22.39924,142.339903 22.39924,142.519231 C22.39924,143.198721 22.6280853,143.782049 23.0857829,144.269231 C23.5434805,144.756413 24.0833209,145 24.7053202,145 C25.3273195,145 25.8671599,144.756413 26.3248575,144.269231 C26.7825551,143.782049 27.0114005,143.198721 27.0114005,142.519231 C27.0114005,142.339903 26.9956654,142.166826 26.9641951,142 L32.1460653,142 C32.114595,142.166826 32.09886,142.339903 32.09886,142.519231 C32.09886,143.198721 32.3277053,143.782049 32.7854029,144.269231 C33.2431005,144.756413 33.7829409,145 34.4049402,145 C35.0152037,145 35.5521101,144.759618 36.0156756,144.278846 C36.4792412,143.798075 36.7110205,143.211542 36.7110205,142.519231 C36.7110205,142.339903 36.695081,142.166826 36.6632021,142 L41.8456853,142 C41.814215,142.166826 41.7984799,142.339903 41.7984799,142.519231 C41.7984799,143.198721 42.0273253,143.782049 42.4850229,144.269231 C42.9427205,144.756413 43.4825609,145 44.1045602,145 C44.7148237,145 45.2517301,144.759618 45.7152956,144.278846 C46.1788612,143.798075 46.4106404,143.211542 46.4106404,142.519231 C46.4106404,142.339903 46.394701,142.166826 46.362822,142 L51.5453053,142 C51.513835,142.166826 51.4980999,142.339903 51.4980999,142.519231 C51.4980999,143.198721 51.7269453,143.782049 52.1846429,144.269231 C52.6423405,144.756413 53.1821809,145 53.8041802,145 C54.4261795,145 54.9660198,144.756413 55.4237174,144.269231 C55.8814151,143.782049 56.1102604,143.198721 56.1102604,142.519231 C56.1102604,142.339903 56.0945254,142.166826 56.0630551,142 L61.2449252,142 C61.213455,142.166826 61.1977199,142.339903 61.1977199,142.519231 C61.1977199,143.198721 61.4265653,143.782049 61.8842629,144.269231 C62.3419605,144.756413 62.8818008,145 63.5038002,145 C64.1140636,145 64.6509701,144.759618 65.1145356,144.278846 C65.5781011,143.798075 65.8098804,143.211542 65.8098804,142.519231 C65.8098804,142.339903 65.793941,142.166826 65.762062,142 L70.9445452,142 C70.913075,142.166826 70.8973399,142.339903 70.8973399,142.519231 C70.8973399,143.198721 71.1261853,143.782049 71.5838829,144.269231 C72.0415805,144.756413 72.5814208,145 73.2034201,145 C73.8136836,145 74.3505901,144.759618 74.8141556,144.278846 C75.2777211,143.798075 75.5095004,143.211542 75.5095004,142.519231 C75.5095004,142.339903 75.493561,142.166826 75.461682,142 L80.6441652,142 C80.6126949,142.166826 80.5969599,142.339903 80.5969599,142.519231 C80.5969599,143.198721 80.8258052,143.782049 81.2835029,144.269231 C81.7412005,144.756413 82.2810408,145 82.9030401,145 C83.5250394,145 84.0648798,144.756413 84.5225774,144.269231 C84.980275,143.782049 85.2091204,143.198721 85.2091204,142.519231 C85.2091204,142.339903 85.1933853,142.166826 85.161915,142 L90.3437852,142 C90.3123149,142.166826 90.2965799,142.339903 90.2965799,142.519231 C90.2965799,143.198721 90.5254252,143.782049 90.9831228,144.269231 C91.4408204,144.756413 91.9806608,145 92.6026601,145 C93.2129236,145 93.74983,144.759618 94.2133956,144.278846 C94.6769611,143.798075 94.9087404,143.211542 94.9087404,142.519231 C94.9087404,142.339903 94.8928009,142.166826 94.860922,142 L100.043405,142 C100.011935,142.166826 99.9961998,142.339903 99.9961998,142.519231 C99.9961998,143.198721 100.225045,143.782049 100.682743,144.269231 C101.14044,144.756413 101.680281,145 102.30228,145 C102.912544,145 103.44945,144.759618 103.913016,144.278846 C104.376581,143.798075 104.60836,143.211542 104.60836,142.519231 C104.60836,142.339903 104.592421,142.166826 104.560542,142 L109.743025,142 C109.711555,142.166826 109.69582,142.339903 109.69582,142.519231 C109.69582,143.198721 109.924665,143.782049 110.382363,144.269231 C110.84006,144.756413 111.379901,145 112.0019,145 C112.623899,145 113.16374,144.756413 113.621437,144.269231 C114.079135,143.782049 114.30798,143.198721 114.30798,142.519231 C114.30798,142.339903 114.292245,142.166826 114.260775,142 L119.442645,142 C119.411175,142.166826 119.39544,142.339903 119.39544,142.519231 C119.39544,143.198721 119.624285,143.782049 120.081983,144.269231 C120.53968,144.756413 121.079521,145 121.70152,145 C122.311784,145 122.84869,144.759618 123.312256,144.278846 C123.775821,143.798075 124.0076,143.211542 124.0076,142.519231 C124.0076,142.339903 123.991661,142.166826 123.959782,142 L129.142265,142 C129.110795,142.166826 129.09506,142.339903 129.09506,142.519231 C129.09506,143.198721 129.323905,143.782049 129.781603,144.269231 C130.2393,144.756413 130.779141,145 131.40114,145 C132.011404,145 132.54831,144.759618 133.011875,144.278846 C133.475441,143.798075 133.70722,143.211542 133.70722,142.519231 C133.70722,142.339903 133.691281,142.166826 133.659402,142 L138.841885,142 C138.810415,142.166826 138.79468,142.339903 138.79468,142.519231 C138.79468,143.198721 139.023525,143.782049 139.481223,144.269231 C139.93892,144.756413 140.478761,145 141.10076,145 C141.722759,145 142.2626,144.756413 142.720297,144.269231 C143.177995,143.782049 143.40684,143.198721 143.40684,142.519231 C143.40684,142.339903 143.391105,142.166826 143.359635,142 L148.541505,142 C148.510035,142.166826 148.4943,142.339903 148.4943,142.519231 C148.4943,143.198721 148.723145,143.782049 149.180843,144.269231 C149.63854,144.756413 150.178381,145 150.80038,145 C151.410643,145 151.94755,144.759618 152.411115,144.278846 C152.874681,143.798075 153.10646,143.211542 153.10646,142.519231 C153.10646,142.339903 153.090521,142.166826 153.058642,142 L158.241125,142 C158.209655,142.166826 158.19392,142.339903 158.19392,142.519231 C158.19392,143.198721 158.422765,143.782049 158.880463,144.269231 C159.33816,144.756413 159.878001,145 160.5,145 C161.110263,145 161.64717,144.759618 162.110735,144.278846 C162.574301,143.798075 162.80608,143.211542 162.80608,142.519231 C162.80608,142.339903 162.790141,142.166826 162.758262,142 L167.940745,142 C167.909275,142.166826 167.89354,142.339903 167.89354,142.519231 C167.89354,143.198721 168.122385,143.782049 168.580083,144.269231 C169.03778,144.756413 169.577621,145 170.19962,145 C170.821619,145 171.36146,144.756413 171.819157,144.269231 C172.276855,143.782049 172.5057,143.198721 172.5057,142.519231 C172.5057,142.339903 172.489965,142.166826 172.458495,142 L177.640365,142 C177.608895,142.166826 177.59316,142.339903 177.59316,142.519231 C177.59316,143.198721 177.822005,143.782049 178.279703,144.269231 C178.7374,144.756413 179.277241,145 179.89924,145 C180.509503,145 181.04641,144.759618 181.509975,144.278846 C181.973541,143.798075 182.20532,143.211542 182.20532,142.519231 C182.20532,142.339903 182.189381,142.166826 182.157502,142 L187.339985,142 C187.308515,142.166826 187.29278,142.339903 187.29278,142.519231 C187.29278,143.198721 187.521625,143.782049 187.979323,144.269231 C188.43702,144.756413 188.976861,145 189.59886,145 C190.209123,145 190.74603,144.759618 191.209595,144.278846 C191.673161,143.798075 191.90494,143.211542 191.90494,142.519231 C191.90494,142.339903 191.889001,142.166826 191.857122,142 L197.039605,142 C197.008135,142.166826 196.9924,142.339903 196.9924,142.519231 C196.9924,143.198721 197.221245,143.782049 197.678943,144.269231 C198.13664,144.756413 198.676481,145 199.29848,145 C199.920479,145 200.46032,144.756413 200.918017,144.269231 C201.375715,143.782049 201.60456,143.198721 201.60456,142.519231 C201.60456,142.339903 201.588825,142.166826 201.557355,142 L206.739225,142 C206.707755,142.166826 206.69202,142.339903 206.69202,142.519231 C206.69202,143.198721 206.920865,143.782049 207.378563,144.269231 C207.83626,144.756413 208.376101,145 208.9981,145 C209.608363,145 210.14527,144.759618 210.608835,144.278846 C211.072401,143.798075 211.30418,143.211542 211.30418,142.519231 C211.30418,142.339903 211.288241,142.166826 211.256362,142 L216.438845,142 C216.407375,142.166826 216.39164,142.339903 216.39164,142.519231 C216.39164,143.198721 216.620485,143.782049 217.078183,144.269231 C217.53588,144.756413 218.075721,145 218.69772,145 C219.307983,145 219.84489,144.759618 220.308455,144.278846 C220.772021,143.798075 221.0038,143.211542 221.0038,142.519231 C221.0038,142.339903 220.987861,142.166826 220.955982,142 L226.138465,142 C226.106995,142.166826 226.09126,142.339903 226.09126,142.519231 C226.09126,143.198721 226.320105,143.782049 226.777803,144.269231 C227.2355,144.756413 227.775341,145 228.39734,145 C229.019339,145 229.55918,144.756413 230.016877,144.269231 C230.474575,143.782049 230.70342,143.198721 230.70342,142.519231 C230.70342,142.339903 230.687685,142.166826 230.656215,142 L235.838085,142 C235.806615,142.166826 235.79088,142.339903 235.79088,142.519231 C235.79088,143.198721 236.019725,143.782049 236.477423,144.269231 C236.93512,144.756413 237.474961,145 238.09696,145 C238.707223,145 239.24413,144.759618 239.707695,144.278846 C240.171261,143.798075 240.40304,143.211542 240.40304,142.519231 C240.40304,142.339903 240.387101,142.166826 240.355222,142 L245.537705,142 C245.506235,142.166826 245.4905,142.339903 245.4905,142.519231 C245.4905,143.198721 245.719345,143.782049 246.177043,144.269231 C246.63474,144.756413 247.174581,145 247.79658,145 C248.406843,145 248.94375,144.759618 249.407315,144.278846 C249.870881,143.798075 250.10266,143.211542 250.10266,142.519231 C250.10266,142.339903 250.086721,142.166826 250.054842,142 L255.237325,142 C255.205855,142.166826 255.19012,142.339903 255.19012,142.519231 C255.19012,143.198721 255.418965,143.782049 255.876663,144.269231 C256.33436,144.756413 256.874201,145 257.4962,145 C258.118199,145 258.65804,144.756413 259.115737,144.269231 C259.573435,143.782049 259.80228,143.198721 259.80228,142.519231 C259.80228,142.339903 259.786545,142.166826 259.755075,142 L264.936945,142 C264.905475,142.166826 264.88974,142.339903 264.88974,142.519231 C264.88974,143.198721 265.118585,143.782049 265.576283,144.269231 C266.03398,144.756413 266.573821,145 267.19582,145 C267.806083,145 268.34299,144.759618 268.806555,144.278846 C269.270121,143.798075 269.5019,143.211542 269.5019,142.519231 C269.5019,142.339903 269.485961,142.166826 269.454082,142 L274.636565,142 C274.605095,142.166826 274.58936,142.339903 274.58936,142.519231 C274.58936,143.198721 274.818205,143.782049 275.275903,144.269231 C275.7336,144.756413 276.273441,145 276.89544,145 C277.505703,145 278.04261,144.759618 278.506175,144.278846 C278.969741,143.798075 279.20152,143.211542 279.20152,142.519231 C279.20152,142.339903 279.185581,142.166826 279.153702,142 L284.336185,142 C284.304715,142.166826 284.28898,142.339903 284.28898,142.519231 C284.28898,143.198721 284.517825,143.782049 284.975523,144.269231 C285.43322,144.756413 285.97306,145 286.59506,145 C287.217059,145 287.756899,144.756413 288.214597,144.269231 C288.672295,143.782049 288.90114,143.198721 288.90114,142.519231 C288.90114,142.339903 288.885405,142.166826 288.853935,142 L294.035805,142 C294.004335,142.166826 293.9886,142.339903 293.9886,142.519231 C293.9886,143.198721 294.217445,143.782049 294.675143,144.269231 C295.13284,144.756413 295.67268,145 296.29468,145 C296.904943,145 297.44185,144.759618 297.905415,144.278846 C298.368981,143.798075 298.60076,143.211542 298.60076,142.519231 C298.60076,142.339903 298.584821,142.166826 298.552942,142 L303.735425,142 C303.703955,142.166826 303.68822,142.339903 303.68822,142.519231 C303.68822,143.198721 303.917065,143.782049 304.374762,144.269231 C304.83246,144.756413 305.3723,145 305.9943,145 C306.604563,145 307.14147,144.759618 307.605035,144.278846 C308.068601,143.798075 308.30038,143.211542 308.30038,142.519231 C308.30038,142.339903 308.284441,142.166826 308.252562,142 L313.435045,142 C313.403575,142.166826 313.387839,142.339903 313.387839,142.519231 C313.387839,143.198721 313.616685,143.782049 314.074382,144.269231 C314.53208,144.756413 315.07192,145 315.69392,145 C316.315919,145 316.855759,144.756413 317.313457,144.269231 C317.771155,143.782049 318,143.198721 318,142.519231 C318,142.339903 317.984265,142.166826 317.952795,142 L320,142 L320,150 L0,150 L0,142 L3.04720534,142 Z" id="Rectangle-2" fill="#FFFFFF"></path>
        <path d="M40.8148294,1670.211 L34.9482245,1676.75602 C34.8037593,1676.9171 34.6024615,1677 34.3996969,1677 C34.238732,1677 34.0770337,1676.94764 33.9417351,1676.84074 L30.275107,1673.93184 C29.9590437,1673.68131 29.9077109,1673.22352 30.1607082,1672.90973 C30.4133389,1672.59593 30.875334,1672.54502 31.1913974,1672.79592 L34.3142645,1675.27321 L39.7185076,1669.24415 C39.9869048,1668.94381 40.4510999,1668.9169 40.7535967,1669.18379 C41.0564602,1669.45105 41.0839599,1669.91065 40.8148294,1670.211 Z" id="Path" fill="#0091EA"></path>
        <path d="M40.8148294,1802.211 L34.9482245,1808.75602 C34.8037593,1808.9171 34.6024615,1809 34.3996969,1809 C34.238732,1809 34.0770337,1808.94764 33.9417351,1808.84074 L30.275107,1805.93184 C29.9590437,1805.68131 29.9077109,1805.22352 30.1607082,1804.90973 C30.4133389,1804.59593 30.875334,1804.54502 31.1913974,1804.79592 L34.3142645,1807.27321 L39.7185076,1801.24415 C39.9869048,1800.94381 40.4510999,1800.9169 40.7535967,1801.18379 C41.0564602,1801.45105 41.0839599,1801.91065 40.8148294,1802.211 Z" id="Path" fill="#0091EA"></path>
        <path d="M40.8148294,1934.211 L34.9482245,1940.75602 C34.8037593,1940.9171 34.6024615,1941 34.3996969,1941 C34.238732,1941 34.0770337,1940.94764 33.9417351,1940.84074 L30.275107,1937.93184 C29.9590437,1937.68131 29.9077109,1937.22352 30.1607082,1936.90973 C30.4133389,1936.59593 30.875334,1936.54502 31.1913974,1936.79592 L34.3142645,1939.27321 L39.7185076,1933.24415 C39.9869048,1932.94381 40.4510999,1932.9169 40.7535967,1933.18379 C41.0564602,1933.45105 41.0839599,1933.91065 40.8148294,1934.211 Z" id="Path" fill="#0091EA"></path>
        <path d="M38.8368799,1552.16992 C38.6192504,1551.9526 38.2665545,1551.9526 38.049061,1552.16992 L34.5034679,1555.71279 L30.9578748,1552.16992 C30.7440538,1551.94879 30.3913579,1551.94268 30.1700559,1552.15633 C29.9487538,1552.36985 29.942633,1552.72228 30.156454,1552.94341 C30.1609426,1552.94803 30.1654313,1552.95265 30.1700559,1552.95714 L33.715649,1556.5 L30.1700559,1560.04286 C29.9487538,1560.25638 29.942633,1560.60881 30.156454,1560.83008 C30.370139,1561.05121 30.7228349,1561.05732 30.9441369,1560.84367 C30.9487615,1560.83918 30.9533862,1560.8347 30.9578748,1560.83008 L34.5034679,1557.28721 L38.049061,1560.83008 C38.270363,1561.0436 38.6230589,1561.03748 38.8367438,1560.81635 C39.0452602,1560.60065 39.0452602,1560.25856 38.8367438,1560.04286 L35.2912868,1556.5 L38.8368799,1552.95714 C39.0543734,1552.73981 39.0543734,1552.38739 38.8368799,1552.16992 L38.8368799,1552.16992 Z" id="Path" fill="#D81B60" fill-rule="nonzero"></path>
        <path d="M38.8368799,662.169925 C38.6192504,661.952599 38.2665545,661.952599 38.049061,662.169925 L34.5034679,665.712788 L30.9578748,662.169925 C30.7440538,661.948793 30.3913579,661.942677 30.1700559,662.156334 C29.9487538,662.369854 29.942633,662.722278 30.156454,662.94341 C30.1609426,662.948031 30.1654313,662.952652 30.1700559,662.957137 L33.715649,666.5 L30.1700559,670.042863 C29.9487538,670.256383 29.942633,670.608808 30.156454,670.830075 C30.370139,671.051207 30.7228349,671.057323 30.9441369,670.843666 C30.9487615,670.839181 30.9533862,670.834696 30.9578748,670.830075 L34.5034679,667.287212 L38.049061,670.830075 C38.270363,671.043596 38.6230589,671.037479 38.8367438,670.816348 C39.0452602,670.600653 39.0452602,670.258558 38.8367438,670.042863 L35.2912868,666.5 L38.8368799,662.957137 C39.0543734,662.739811 39.0543734,662.387387 38.8368799,662.169925 L38.8368799,662.169925 Z" id="Path" fill="#D81B60" fill-rule="nonzero"></path>
        <path d="M40.8148294,1402.211 L34.9482245,1408.75602 C34.8037593,1408.9171 34.6024615,1409 34.3996969,1409 C34.238732,1409 34.0770337,1408.94764 33.9417351,1408.84074 L30.275107,1405.93184 C29.9590437,1405.68131 29.9077109,1405.22352 30.1607082,1404.90973 C30.4133389,1404.59593 30.875334,1404.54502 31.1913974,1404.79592 L34.3142645,1407.27321 L39.7185076,1401.24415 C39.9869048,1400.94381 40.4510999,1400.9169 40.7535967,1401.18379 C41.0564602,1401.45105 41.0839599,1401.91065 40.8148294,1402.211 Z" id="Path" fill="#0091EA"></path>
        <path d="M38.8368799,394.169925 C38.6192504,393.952599 38.2665545,393.952599 38.049061,394.169925 L34.5034679,397.712788 L30.9578748,394.169925 C30.7440538,393.948793 30.3913579,393.942677 30.1700559,394.156334 C29.9487538,394.369854 29.942633,394.722278 30.156454,394.94341 C30.1609426,394.948031 30.1654313,394.952652 30.1700559,394.957137 L33.715649,398.5 L30.1700559,402.042863 C29.9487538,402.256383 29.942633,402.608808 30.156454,402.830075 C30.370139,403.051207 30.7228349,403.057323 30.9441369,402.843666 C30.9487615,402.839181 30.9533862,402.834696 30.9578748,402.830075 L34.5034679,399.287212 L38.049061,402.830075 C38.270363,403.043596 38.6230589,403.037479 38.8367438,402.816348 C39.0452602,402.600653 39.0452602,402.258558 38.8367438,402.042863 L35.2912868,398.5 L38.8368799,394.957137 C39.0543734,394.739811 39.0543734,394.387387 38.8368799,394.169925 L38.8368799,394.169925 Z" id="Path" fill="#D81B60" fill-rule="nonzero"></path>
        <path d="M40.8148294,491.210995 L34.9482245,497.756016 C34.8037593,497.917096 34.6024615,498 34.3996969,498 C34.238732,498 34.0770337,497.94764 33.9417351,497.840738 L30.275107,494.93184 C29.9590437,494.681311 29.9077109,494.223523 30.1607082,493.909726 C30.4133389,493.595928 30.875334,493.545023 31.1913974,493.795915 L34.3142645,496.273205 L39.7185076,490.24415 C39.9869048,489.943807 40.4510999,489.916899 40.7535967,490.183791 C41.0564602,490.451046 41.0839599,490.910652 40.8148294,491.210995 Z" id="Path" fill="#0091EA"></path>
        <path d="M40.8148294,759.210995 L34.9482245,765.756016 C34.8037593,765.917096 34.6024615,766 34.3996969,766 C34.238732,766 34.0770337,765.94764 33.9417351,765.840738 L30.275107,762.93184 C29.9590437,762.681311 29.9077109,762.223523 30.1607082,761.909726 C30.4133389,761.595928 30.875334,761.545023 31.1913974,761.795915 L34.3142645,764.273205 L39.7185076,758.24415 C39.9869048,757.943807 40.4510999,757.916899 40.7535967,758.183791 C41.0564602,758.451046 41.0839599,758.910652 40.8148294,759.210995 Z" id="Path" fill="#0091EA"></path>
        <path d="M38.8368799,910.169925 C38.6192504,909.952599 38.2665545,909.952599 38.049061,910.169925 L34.5034679,913.712788 L30.9578748,910.169925 C30.7440538,909.948793 30.3913579,909.942677 30.1700559,910.156334 C29.9487538,910.369854 29.942633,910.722278 30.156454,910.94341 C30.1609426,910.948031 30.1654313,910.952652 30.1700559,910.957137 L33.715649,914.5 L30.1700559,918.042863 C29.9487538,918.256383 29.942633,918.608808 30.156454,918.830075 C30.370139,919.051207 30.7228349,919.057323 30.9441369,918.843666 C30.9487615,918.839181 30.9533862,918.834696 30.9578748,918.830075 L34.5034679,915.287212 L38.049061,918.830075 C38.270363,919.043596 38.6230589,919.037479 38.8367438,918.816348 C39.0452602,918.600653 39.0452602,918.258558 38.8367438,918.042863 L35.2912868,914.5 L38.8368799,910.957137 C39.0543734,910.739811 39.0543734,910.387387 38.8368799,910.169925 L38.8368799,910.169925 Z" id="Path" fill="#D81B60" fill-rule="nonzero"></path>
        <path d="M38.8368799,1325.16992 C38.6192504,1324.9526 38.2665545,1324.9526 38.049061,1325.16992 L34.5034679,1328.71279 L30.9578748,1325.16992 C30.7440538,1324.94879 30.3913579,1324.94268 30.1700559,1325.15633 C29.9487538,1325.36985 29.942633,1325.72228 30.156454,1325.94341 C30.1609426,1325.94803 30.1654313,1325.95265 30.1700559,1325.95714 L33.715649,1329.5 L30.1700559,1333.04286 C29.9487538,1333.25638 29.942633,1333.60881 30.156454,1333.83008 C30.370139,1334.05121 30.7228349,1334.05732 30.9441369,1333.84367 C30.9487615,1333.83918 30.9533862,1333.8347 30.9578748,1333.83008 L34.5034679,1330.28721 L38.049061,1333.83008 C38.270363,1334.0436 38.6230589,1334.03748 38.8367438,1333.81635 C39.0452602,1333.60065 39.0452602,1333.25856 38.8367438,1333.04286 L35.2912868,1329.5 L38.8368799,1325.95714 C39.0543734,1325.73981 39.0543734,1325.38739 38.8368799,1325.16992 L38.8368799,1325.16992 Z" id="Path" fill="#D81B60" fill-rule="nonzero"></path>
        <path d="M40.8148294,986.210995 L34.9482245,992.756016 C34.8037593,992.917096 34.6024615,993 34.3996969,993 C34.238732,993 34.0770337,992.94764 33.9417351,992.840738 L30.275107,989.93184 C29.9590437,989.681311 29.9077109,989.223523 30.1607082,988.909726 C30.4133389,988.595928 30.875334,988.545023 31.1913974,988.795915 L34.3142645,991.273205 L39.7185076,985.24415 C39.9869048,984.943807 40.4510999,984.916899 40.7535967,985.183791 C41.0564602,985.451046 41.0839599,985.910652 40.8148294,986.210995 Z" id="Path" fill="#0091EA"></path>
        <path d="M40.8148294,1138.211 L34.9482245,1144.75602 C34.8037593,1144.9171 34.6024615,1145 34.3996969,1145 C34.238732,1145 34.0770337,1144.94764 33.9417351,1144.84074 L30.275107,1141.93184 C29.9590437,1141.68131 29.9077109,1141.22352 30.1607082,1140.90973 C30.4133389,1140.59593 30.875334,1140.54502 31.1913974,1140.79592 L34.3142645,1143.27321 L39.7185076,1137.24415 C39.9869048,1136.94381 40.4510999,1136.9169 40.7535967,1137.18379 C41.0564602,1137.45105 41.0839599,1137.91065 40.8148294,1138.211 Z" id="Path" fill="#0091EA"></path>
    </g>
</svg>