<?xml version="1.0" encoding="UTF-8"?>
<svg width="320px" height="697px" viewBox="0 0 320 697" version="1.1" xmlns="http://www.w3.org/2000/svg" xmlns:xlink="http://www.w3.org/1999/xlink">
    <!-- Generator: Sketch 54.1 (76490) - https://sketchapp.com -->
    <title>hongvan_pre</title>
    <desc>Created with Sketch.</desc>
    <g id="hongvan_pre" stroke="none" stroke-width="1" fill="none" fill-rule="evenodd">
        <path d="M0,0 L320,0 L320,697 L0,697 L0,0 Z M24.9986208,39.9989978 C22.2371971,39.9989978 19.9986208,42.2375741 19.9986208,44.9989978 L19.9986207,510.998998 C19.9986208,513.760422 22.2371971,515.998998 24.9986208,515.998998 L294.999908,515.998988 C297.761332,515.998988 299.999908,513.760412 299.999908,510.998988 L299.999908,44.9989978 C299.999908,42.2375741 297.761332,39.9989978 294.999908,39.9989978 L24.9986208,39.9989978 Z" id="Rectangle-3" fill="#F0F6FA"></path>
        <path d="M27.0114005,0.519230769 C27.0114005,1.19872135 26.7825551,1.78204885 26.3248575,2.26923077 C25.8671599,2.75641269 25.3273195,3 24.7053202,3 C24.0833209,3 23.5434805,2.75641269 23.0857829,2.26923077 C22.6280853,1.78204885 22.39924,1.19872135 22.39924,0.519230769 C22.39924,-0.160259808 22.6251514,-0.7499975 23.0769811,-1.25 C23.5288108,-1.7500025 24.0715851,-2 24.7053202,-2 C25.3390554,-2 25.8818296,-1.7500025 26.3336593,-1.25 C26.785489,-0.7499975 27.0114005,-0.160259808 27.0114005,0.519230769 Z M17.3117805,0.519230769 C17.3117805,1.21154192 17.0800012,1.79807452 16.6164357,2.27884615 C16.1528702,2.75961779 15.6159637,3 15.0057002,3 C14.3837009,3 13.8438606,2.75641269 13.386163,2.26923077 C12.9284654,1.78204885 12.69962,1.19872135 12.69962,0.519230769 C12.69962,-0.160259808 12.9255314,-0.7499975 13.3773611,-1.25 C13.8291908,-1.7500025 14.3719651,-2 15.0057002,-2 C15.6276995,-2 16.1675399,-1.7500025 16.6252375,-1.25 C17.0829351,-0.7499975 17.3117805,-0.160259808 17.3117805,0.519230769 Z M7.6121605,0.519230769 C7.6121605,1.21154192 7.38038122,1.79807452 6.91681569,2.27884615 C6.45325017,2.75961779 5.91634372,3 5.30608025,3 C4.68408094,3 4.14424058,2.75641269 3.68654298,2.26923077 C3.22884537,1.78204885 3,1.19872135 3,0.519230769 C3,-0.160259808 3.22591145,-0.7499975 3.67774114,-1.25 C4.12957083,-1.7500025 4.6723451,-2 5.30608025,-2 C5.92807956,-2 6.46791992,-1.7500025 6.92561753,-1.25 C7.38331513,-0.7499975 7.6121605,-0.160259808 7.6121605,0.519230769 Z M56.1102604,0.519230769 C56.1102604,1.19872135 55.8814151,1.78204885 55.4237174,2.26923077 C54.9660198,2.75641269 54.4261795,3 53.8041802,3 C53.1821809,3 52.6423405,2.75641269 52.1846429,2.26923077 C51.7269453,1.78204885 51.4980999,1.19872135 51.4980999,0.519230769 C51.4980999,-0.160259808 51.7240114,-0.7499975 52.1758411,-1.25 C52.6276708,-1.7500025 53.170445,-2 53.8041802,-2 C54.4379153,-2 54.9806896,-1.7500025 55.4325193,-1.25 C55.884349,-0.7499975 56.1102604,-0.160259808 56.1102604,0.519230769 Z M46.4106404,0.519230769 C46.4106404,1.21154192 46.1788612,1.79807452 45.7152956,2.27884615 C45.2517301,2.75961779 44.7148237,3 44.1045602,3 C43.4825609,3 42.9427205,2.75641269 42.4850229,2.26923077 C42.0273253,1.78204885 41.7984799,1.19872135 41.7984799,0.519230769 C41.7984799,-0.160259808 42.0243914,-0.7499975 42.4762211,-1.25 C42.9280508,-1.7500025 43.470825,-2 44.1045602,-2 C44.7265595,-2 45.2663999,-1.7500025 45.7240975,-1.25 C46.1817951,-0.7499975 46.4106404,-0.160259808 46.4106404,0.519230769 Z M36.7110205,0.519230769 C36.7110205,1.21154192 36.4792412,1.79807452 36.0156756,2.27884615 C35.5521101,2.75961779 35.0152037,3 34.4049402,3 C33.7829409,3 33.2431005,2.75641269 32.7854029,2.26923077 C32.3277053,1.78204885 32.09886,1.19872135 32.09886,0.519230769 C32.09886,-0.160259808 32.3247714,-0.7499975 32.7766011,-1.25 C33.2284308,-1.7500025 33.7712051,-2 34.4049402,-2 C35.0269395,-2 35.5667799,-1.7500025 36.0244775,-1.25 C36.4821751,-0.7499975 36.7110205,-0.160259808 36.7110205,0.519230769 Z M85.2091204,0.519230769 C85.2091204,1.19872135 84.980275,1.78204885 84.5225774,2.26923077 C84.0648798,2.75641269 83.5250394,3 82.9030401,3 C82.2810408,3 81.7412005,2.75641269 81.2835029,2.26923077 C80.8258052,1.78204885 80.5969599,1.19872135 80.5969599,0.519230769 C80.5969599,-0.160259808 80.8228713,-0.7499975 81.274701,-1.25 C81.7265307,-1.7500025 82.269305,-2 82.9030401,-2 C83.5367753,-2 84.0795495,-1.7500025 84.5313792,-1.25 C84.9832089,-0.7499975 85.2091204,-0.160259808 85.2091204,0.519230769 Z M75.5095004,0.519230769 C75.5095004,1.21154192 75.2777211,1.79807452 74.8141556,2.27884615 C74.3505901,2.75961779 73.8136836,3 73.2034201,3 C72.5814208,3 72.0415805,2.75641269 71.5838829,2.26923077 C71.1261853,1.78204885 70.8973399,1.19872135 70.8973399,0.519230769 C70.8973399,-0.160259808 71.1232513,-0.7499975 71.575081,-1.25 C72.0269107,-1.7500025 72.569685,-2 73.2034201,-2 C73.8254195,-2 74.3652598,-1.7500025 74.8229574,-1.25 C75.280655,-0.7499975 75.5095004,-0.160259808 75.5095004,0.519230769 Z M65.8098804,0.519230769 C65.8098804,1.21154192 65.5781011,1.79807452 65.1145356,2.27884615 C64.6509701,2.75961779 64.1140636,3 63.5038002,3 C62.8818008,3 62.3419605,2.75641269 61.8842629,2.26923077 C61.4265653,1.78204885 61.1977199,1.19872135 61.1977199,0.519230769 C61.1977199,-0.160259808 61.4236314,-0.7499975 61.875461,-1.25 C62.3272907,-1.7500025 62.870065,-2 63.5038002,-2 C64.1257995,-2 64.6656398,-1.7500025 65.1233374,-1.25 C65.581035,-0.7499975 65.8098804,-0.160259808 65.8098804,0.519230769 Z M114.30798,0.519230769 C114.30798,1.19872135 114.079135,1.78204885 113.621437,2.26923077 C113.16374,2.75641269 112.623899,3 112.0019,3 C111.379901,3 110.84006,2.75641269 110.382363,2.26923077 C109.924665,1.78204885 109.69582,1.19872135 109.69582,0.519230769 C109.69582,-0.160259808 109.921731,-0.7499975 110.373561,-1.25 C110.825391,-1.7500025 111.368165,-2 112.0019,-2 C112.635635,-2 113.178409,-1.7500025 113.630239,-1.25 C114.082069,-0.7499975 114.30798,-0.160259808 114.30798,0.519230769 Z M104.60836,0.519230769 C104.60836,1.21154192 104.376581,1.79807452 103.913016,2.27884615 C103.44945,2.75961779 102.912544,3 102.30228,3 C101.680281,3 101.14044,2.75641269 100.682743,2.26923077 C100.225045,1.78204885 99.9961998,1.19872135 99.9961998,0.519230769 C99.9961998,-0.160259808 100.222111,-0.7499975 100.673941,-1.25 C101.125771,-1.7500025 101.668545,-2 102.30228,-2 C102.924279,-2 103.46412,-1.7500025 103.921817,-1.25 C104.379515,-0.7499975 104.60836,-0.160259808 104.60836,0.519230769 Z M94.9087404,0.519230769 C94.9087404,1.21154192 94.6769611,1.79807452 94.2133956,2.27884615 C93.74983,2.75961779 93.2129236,3 92.6026601,3 C91.9806608,3 91.4408204,2.75641269 90.9831228,2.26923077 C90.5254252,1.78204885 90.2965799,1.19872135 90.2965799,0.519230769 C90.2965799,-0.160259808 90.5224913,-0.7499975 90.974321,-1.25 C91.4261507,-1.7500025 91.968925,-2 92.6026601,-2 C93.2246594,-2 93.7644998,-1.7500025 94.2221974,-1.25 C94.679895,-0.7499975 94.9087404,-0.160259808 94.9087404,0.519230769 Z M143.40684,0.519230769 C143.40684,1.19872135 143.177995,1.78204885 142.720297,2.26923077 C142.2626,2.75641269 141.722759,3 141.10076,3 C140.478761,3 139.93892,2.75641269 139.481223,2.26923077 C139.023525,1.78204885 138.79468,1.19872135 138.79468,0.519230769 C138.79468,-0.160259808 139.020591,-0.7499975 139.472421,-1.25 C139.924251,-1.7500025 140.467025,-2 141.10076,-2 C141.734495,-2 142.277269,-1.7500025 142.729099,-1.25 C143.180929,-0.7499975 143.40684,-0.160259808 143.40684,0.519230769 Z M133.70722,0.519230769 C133.70722,1.21154192 133.475441,1.79807452 133.011875,2.27884615 C132.54831,2.75961779 132.011404,3 131.40114,3 C130.779141,3 130.2393,2.75641269 129.781603,2.26923077 C129.323905,1.78204885 129.09506,1.19872135 129.09506,0.519230769 C129.09506,-0.160259808 129.320971,-0.7499975 129.772801,-1.25 C130.224631,-1.7500025 130.767405,-2 131.40114,-2 C132.023139,-2 132.56298,-1.7500025 133.020677,-1.25 C133.478375,-0.7499975 133.70722,-0.160259808 133.70722,0.519230769 Z M124.0076,0.519230769 C124.0076,1.21154192 123.775821,1.79807452 123.312256,2.27884615 C122.84869,2.75961779 122.311784,3 121.70152,3 C121.079521,3 120.53968,2.75641269 120.081983,2.26923077 C119.624285,1.78204885 119.39544,1.19872135 119.39544,0.519230769 C119.39544,-0.160259808 119.621351,-0.7499975 120.073181,-1.25 C120.525011,-1.7500025 121.067785,-2 121.70152,-2 C122.323519,-2 122.86336,-1.7500025 123.321057,-1.25 C123.778755,-0.7499975 124.0076,-0.160259808 124.0076,0.519230769 Z M172.5057,0.519230769 C172.5057,1.19872135 172.276855,1.78204885 171.819157,2.26923077 C171.36146,2.75641269 170.821619,3 170.19962,3 C169.577621,3 169.03778,2.75641269 168.580083,2.26923077 C168.122385,1.78204885 167.89354,1.19872135 167.89354,0.519230769 C167.89354,-0.160259808 168.119451,-0.7499975 168.571281,-1.25 C169.023111,-1.7500025 169.565885,-2 170.19962,-2 C170.833355,-2 171.376129,-1.7500025 171.827959,-1.25 C172.279789,-0.7499975 172.5057,-0.160259808 172.5057,0.519230769 Z M162.80608,0.519230769 C162.80608,1.21154192 162.574301,1.79807452 162.110735,2.27884615 C161.64717,2.75961779 161.110263,3 160.5,3 C159.878001,3 159.33816,2.75641269 158.880463,2.26923077 C158.422765,1.78204885 158.19392,1.19872135 158.19392,0.519230769 C158.19392,-0.160259808 158.419831,-0.7499975 158.871661,-1.25 C159.323491,-1.7500025 159.866265,-2 160.5,-2 C161.121999,-2 161.66184,-1.7500025 162.119537,-1.25 C162.577235,-0.7499975 162.80608,-0.160259808 162.80608,0.519230769 Z M153.10646,0.519230769 C153.10646,1.21154192 152.874681,1.79807452 152.411115,2.27884615 C151.94755,2.75961779 151.410643,3 150.80038,3 C150.178381,3 149.63854,2.75641269 149.180843,2.26923077 C148.723145,1.78204885 148.4943,1.19872135 148.4943,0.519230769 C148.4943,-0.160259808 148.720211,-0.7499975 149.172041,-1.25 C149.623871,-1.7500025 150.166645,-2 150.80038,-2 C151.422379,-2 151.96222,-1.7500025 152.419917,-1.25 C152.877615,-0.7499975 153.10646,-0.160259808 153.10646,0.519230769 Z M201.60456,0.519230769 C201.60456,1.19872135 201.375715,1.78204885 200.918017,2.26923077 C200.46032,2.75641269 199.920479,3 199.29848,3 C198.676481,3 198.13664,2.75641269 197.678943,2.26923077 C197.221245,1.78204885 196.9924,1.19872135 196.9924,0.519230769 C196.9924,-0.160259808 197.218311,-0.7499975 197.670141,-1.25 C198.121971,-1.7500025 198.664745,-2 199.29848,-2 C199.932215,-2 200.474989,-1.7500025 200.926819,-1.25 C201.378649,-0.7499975 201.60456,-0.160259808 201.60456,0.519230769 Z M191.90494,0.519230769 C191.90494,1.21154192 191.673161,1.79807452 191.209595,2.27884615 C190.74603,2.75961779 190.209123,3 189.59886,3 C188.976861,3 188.43702,2.75641269 187.979323,2.26923077 C187.521625,1.78204885 187.29278,1.19872135 187.29278,0.519230769 C187.29278,-0.160259808 187.518691,-0.7499975 187.970521,-1.25 C188.422351,-1.7500025 188.965125,-2 189.59886,-2 C190.220859,-2 190.7607,-1.7500025 191.218397,-1.25 C191.676095,-0.7499975 191.90494,-0.160259808 191.90494,0.519230769 Z M182.20532,0.519230769 C182.20532,1.21154192 181.973541,1.79807452 181.509975,2.27884615 C181.04641,2.75961779 180.509503,3 179.89924,3 C179.277241,3 178.7374,2.75641269 178.279703,2.26923077 C177.822005,1.78204885 177.59316,1.19872135 177.59316,0.519230769 C177.59316,-0.160259808 177.819071,-0.7499975 178.270901,-1.25 C178.722731,-1.7500025 179.265505,-2 179.89924,-2 C180.521239,-2 181.06108,-1.7500025 181.518777,-1.25 C181.976475,-0.7499975 182.20532,-0.160259808 182.20532,0.519230769 Z M230.70342,0.519230769 C230.70342,1.19872135 230.474575,1.78204885 230.016877,2.26923077 C229.55918,2.75641269 229.019339,3 228.39734,3 C227.775341,3 227.2355,2.75641269 226.777803,2.26923077 C226.320105,1.78204885 226.09126,1.19872135 226.09126,0.519230769 C226.09126,-0.160259808 226.317171,-0.7499975 226.769001,-1.25 C227.22083,-1.7500025 227.763605,-2 228.39734,-2 C229.031075,-2 229.573849,-1.7500025 230.025679,-1.25 C230.477509,-0.7499975 230.70342,-0.160259808 230.70342,0.519230769 Z M221.0038,0.519230769 C221.0038,1.21154192 220.772021,1.79807452 220.308455,2.27884615 C219.84489,2.75961779 219.307983,3 218.69772,3 C218.075721,3 217.53588,2.75641269 217.078183,2.26923077 C216.620485,1.78204885 216.39164,1.19872135 216.39164,0.519230769 C216.39164,-0.160259808 216.617551,-0.7499975 217.069381,-1.25 C217.52121,-1.7500025 218.063985,-2 218.69772,-2 C219.319719,-2 219.85956,-1.7500025 220.317257,-1.25 C220.774955,-0.7499975 221.0038,-0.160259808 221.0038,0.519230769 Z M211.30418,0.519230769 C211.30418,1.21154192 211.072401,1.79807452 210.608835,2.27884615 C210.14527,2.75961779 209.608363,3 208.9981,3 C208.376101,3 207.83626,2.75641269 207.378563,2.26923077 C206.920865,1.78204885 206.69202,1.19872135 206.69202,0.519230769 C206.69202,-0.160259808 206.917931,-0.7499975 207.369761,-1.25 C207.821591,-1.7500025 208.364365,-2 208.9981,-2 C209.620099,-2 210.15994,-1.7500025 210.617637,-1.25 C211.075335,-0.7499975 211.30418,-0.160259808 211.30418,0.519230769 Z M259.80228,0.519230769 C259.80228,1.19872135 259.573435,1.78204885 259.115737,2.26923077 C258.65804,2.75641269 258.118199,3 257.4962,3 C256.874201,3 256.33436,2.75641269 255.876663,2.26923077 C255.418965,1.78204885 255.19012,1.19872135 255.19012,0.519230769 C255.19012,-0.160259808 255.416031,-0.7499975 255.867861,-1.25 C256.31969,-1.7500025 256.862465,-2 257.4962,-2 C258.129935,-2 258.672709,-1.7500025 259.124539,-1.25 C259.576369,-0.7499975 259.80228,-0.160259808 259.80228,0.519230769 Z M250.10266,0.519230769 C250.10266,1.21154192 249.870881,1.79807452 249.407315,2.27884615 C248.94375,2.75961779 248.406843,3 247.79658,3 C247.174581,3 246.63474,2.75641269 246.177043,2.26923077 C245.719345,1.78204885 245.4905,1.19872135 245.4905,0.519230769 C245.4905,-0.160259808 245.716411,-0.7499975 246.168241,-1.25 C246.62007,-1.7500025 247.162845,-2 247.79658,-2 C248.418579,-2 248.95842,-1.7500025 249.416117,-1.25 C249.873815,-0.7499975 250.10266,-0.160259808 250.10266,0.519230769 Z M240.40304,0.519230769 C240.40304,1.21154192 240.171261,1.79807452 239.707695,2.27884615 C239.24413,2.75961779 238.707223,3 238.09696,3 C237.474961,3 236.93512,2.75641269 236.477423,2.26923077 C236.019725,1.78204885 235.79088,1.19872135 235.79088,0.519230769 C235.79088,-0.160259808 236.016791,-0.7499975 236.468621,-1.25 C236.92045,-1.7500025 237.463225,-2 238.09696,-2 C238.718959,-2 239.2588,-1.7500025 239.716497,-1.25 C240.174195,-0.7499975 240.40304,-0.160259808 240.40304,0.519230769 Z M288.90114,0.519230769 C288.90114,1.19872135 288.672295,1.78204885 288.214597,2.26923077 C287.756899,2.75641269 287.217059,3 286.59506,3 C285.97306,3 285.43322,2.75641269 284.975523,2.26923077 C284.517825,1.78204885 284.28898,1.19872135 284.28898,0.519230769 C284.28898,-0.160259808 284.514891,-0.7499975 284.966721,-1.25 C285.41855,-1.7500025 285.961325,-2 286.59506,-2 C287.228795,-2 287.771569,-1.7500025 288.223399,-1.25 C288.675229,-0.7499975 288.90114,-0.160259808 288.90114,0.519230769 Z M279.20152,0.519230769 C279.20152,1.21154192 278.969741,1.79807452 278.506175,2.27884615 C278.04261,2.75961779 277.505703,3 276.89544,3 C276.273441,3 275.7336,2.75641269 275.275903,2.26923077 C274.818205,1.78204885 274.58936,1.19872135 274.58936,0.519230769 C274.58936,-0.160259808 274.815271,-0.7499975 275.267101,-1.25 C275.71893,-1.7500025 276.261705,-2 276.89544,-2 C277.517439,-2 278.057279,-1.7500025 278.514977,-1.25 C278.972675,-0.7499975 279.20152,-0.160259808 279.20152,0.519230769 Z M269.5019,0.519230769 C269.5019,1.21154192 269.270121,1.79807452 268.806555,2.27884615 C268.34299,2.75961779 267.806083,3 267.19582,3 C266.573821,3 266.03398,2.75641269 265.576283,2.26923077 C265.118585,1.78204885 264.88974,1.19872135 264.88974,0.519230769 C264.88974,-0.160259808 265.115651,-0.7499975 265.567481,-1.25 C266.01931,-1.7500025 266.562085,-2 267.19582,-2 C267.817819,-2 268.357659,-1.7500025 268.815357,-1.25 C269.273055,-0.7499975 269.5019,-0.160259808 269.5019,0.519230769 Z M318,0.519230769 C318,1.19872135 317.771155,1.78204885 317.313457,2.26923077 C316.855759,2.75641269 316.315919,3 315.69392,3 C315.07192,3 314.53208,2.75641269 314.074382,2.26923077 C313.616685,1.78204885 313.387839,1.19872135 313.387839,0.519230769 C313.387839,-0.160259808 313.613751,-0.7499975 314.065581,-1.25 C314.51741,-1.7500025 315.060185,-2 315.69392,-2 C316.327655,-2 316.870429,-1.7500025 317.322259,-1.25 C317.774089,-0.7499975 318,-0.160259808 318,0.519230769 Z M308.30038,0.519230769 C308.30038,1.21154192 308.068601,1.79807452 307.605035,2.27884615 C307.14147,2.75961779 306.604563,3 305.9943,3 C305.3723,3 304.83246,2.75641269 304.374762,2.26923077 C303.917065,1.78204885 303.68822,1.19872135 303.68822,0.519230769 C303.68822,-0.160259808 303.914131,-0.7499975 304.365961,-1.25 C304.81779,-1.7500025 305.360565,-2 305.9943,-2 C306.616299,-2 307.156139,-1.7500025 307.613837,-1.25 C308.071535,-0.7499975 308.30038,-0.160259808 308.30038,0.519230769 Z M298.60076,0.519230769 C298.60076,1.21154192 298.368981,1.79807452 297.905415,2.27884615 C297.44185,2.75961779 296.904943,3 296.29468,3 C295.67268,3 295.13284,2.75641269 294.675143,2.26923077 C294.217445,1.78204885 293.9886,1.19872135 293.9886,0.519230769 C293.9886,-0.160259808 294.214511,-0.7499975 294.666341,-1.25 C295.11817,-1.7500025 295.660945,-2 296.29468,-2 C296.916679,-2 297.456519,-1.7500025 297.914217,-1.25 C298.371915,-0.7499975 298.60076,-0.160259808 298.60076,0.519230769 Z" id="Rectangle-2" fill="#FFFFFF"></path>
        <path d="M3.04720534,689 C3.01573507,689.166826 3,689.339903 3,689.519231 C3,690.198721 3.22884537,690.782049 3.68654298,691.269231 C4.14424058,691.756413 4.68408094,692 5.30608025,692 C5.91634372,692 6.45325017,691.759618 6.91681569,691.278846 C7.38038122,690.798075 7.6121605,690.211542 7.6121605,689.519231 C7.6121605,689.339903 7.59622108,689.166826 7.5643421,689 L12.7468253,689 C12.7153551,689.166826 12.69962,689.339903 12.69962,689.519231 C12.69962,690.198721 12.9284654,690.782049 13.386163,691.269231 C13.8438606,691.756413 14.3837009,692 15.0057002,692 C15.6159637,692 16.1528702,691.759618 16.6164357,691.278846 C17.0800012,690.798075 17.3117805,690.211542 17.3117805,689.519231 C17.3117805,689.339903 17.2958411,689.166826 17.2639621,689 L22.4464453,689 C22.414975,689.166826 22.39924,689.339903 22.39924,689.519231 C22.39924,690.198721 22.6280853,690.782049 23.0857829,691.269231 C23.5434805,691.756413 24.0833209,692 24.7053202,692 C25.3273195,692 25.8671599,691.756413 26.3248575,691.269231 C26.7825551,690.782049 27.0114005,690.198721 27.0114005,689.519231 C27.0114005,689.339903 26.9956654,689.166826 26.9641951,689 L32.1460653,689 C32.114595,689.166826 32.09886,689.339903 32.09886,689.519231 C32.09886,690.198721 32.3277053,690.782049 32.7854029,691.269231 C33.2431005,691.756413 33.7829409,692 34.4049402,692 C35.0152037,692 35.5521101,691.759618 36.0156756,691.278846 C36.4792412,690.798075 36.7110205,690.211542 36.7110205,689.519231 C36.7110205,689.339903 36.695081,689.166826 36.6632021,689 L41.8456853,689 C41.814215,689.166826 41.7984799,689.339903 41.7984799,689.519231 C41.7984799,690.198721 42.0273253,690.782049 42.4850229,691.269231 C42.9427205,691.756413 43.4825609,692 44.1045602,692 C44.7148237,692 45.2517301,691.759618 45.7152956,691.278846 C46.1788612,690.798075 46.4106404,690.211542 46.4106404,689.519231 C46.4106404,689.339903 46.394701,689.166826 46.362822,689 L51.5453053,689 C51.513835,689.166826 51.4980999,689.339903 51.4980999,689.519231 C51.4980999,690.198721 51.7269453,690.782049 52.1846429,691.269231 C52.6423405,691.756413 53.1821809,692 53.8041802,692 C54.4261795,692 54.9660198,691.756413 55.4237174,691.269231 C55.8814151,690.782049 56.1102604,690.198721 56.1102604,689.519231 C56.1102604,689.339903 56.0945254,689.166826 56.0630551,689 L61.2449252,689 C61.213455,689.166826 61.1977199,689.339903 61.1977199,689.519231 C61.1977199,690.198721 61.4265653,690.782049 61.8842629,691.269231 C62.3419605,691.756413 62.8818008,692 63.5038002,692 C64.1140636,692 64.6509701,691.759618 65.1145356,691.278846 C65.5781011,690.798075 65.8098804,690.211542 65.8098804,689.519231 C65.8098804,689.339903 65.793941,689.166826 65.762062,689 L70.9445452,689 C70.913075,689.166826 70.8973399,689.339903 70.8973399,689.519231 C70.8973399,690.198721 71.1261853,690.782049 71.5838829,691.269231 C72.0415805,691.756413 72.5814208,692 73.2034201,692 C73.8136836,692 74.3505901,691.759618 74.8141556,691.278846 C75.2777211,690.798075 75.5095004,690.211542 75.5095004,689.519231 C75.5095004,689.339903 75.493561,689.166826 75.461682,689 L80.6441652,689 C80.6126949,689.166826 80.5969599,689.339903 80.5969599,689.519231 C80.5969599,690.198721 80.8258052,690.782049 81.2835029,691.269231 C81.7412005,691.756413 82.2810408,692 82.9030401,692 C83.5250394,692 84.0648798,691.756413 84.5225774,691.269231 C84.980275,690.782049 85.2091204,690.198721 85.2091204,689.519231 C85.2091204,689.339903 85.1933853,689.166826 85.161915,689 L90.3437852,689 C90.3123149,689.166826 90.2965799,689.339903 90.2965799,689.519231 C90.2965799,690.198721 90.5254252,690.782049 90.9831228,691.269231 C91.4408204,691.756413 91.9806608,692 92.6026601,692 C93.2129236,692 93.74983,691.759618 94.2133956,691.278846 C94.6769611,690.798075 94.9087404,690.211542 94.9087404,689.519231 C94.9087404,689.339903 94.8928009,689.166826 94.860922,689 L100.043405,689 C100.011935,689.166826 99.9961998,689.339903 99.9961998,689.519231 C99.9961998,690.198721 100.225045,690.782049 100.682743,691.269231 C101.14044,691.756413 101.680281,692 102.30228,692 C102.912544,692 103.44945,691.759618 103.913016,691.278846 C104.376581,690.798075 104.60836,690.211542 104.60836,689.519231 C104.60836,689.339903 104.592421,689.166826 104.560542,689 L109.743025,689 C109.711555,689.166826 109.69582,689.339903 109.69582,689.519231 C109.69582,690.198721 109.924665,690.782049 110.382363,691.269231 C110.84006,691.756413 111.379901,692 112.0019,692 C112.623899,692 113.16374,691.756413 113.621437,691.269231 C114.079135,690.782049 114.30798,690.198721 114.30798,689.519231 C114.30798,689.339903 114.292245,689.166826 114.260775,689 L119.442645,689 C119.411175,689.166826 119.39544,689.339903 119.39544,689.519231 C119.39544,690.198721 119.624285,690.782049 120.081983,691.269231 C120.53968,691.756413 121.079521,692 121.70152,692 C122.311784,692 122.84869,691.759618 123.312256,691.278846 C123.775821,690.798075 124.0076,690.211542 124.0076,689.519231 C124.0076,689.339903 123.991661,689.166826 123.959782,689 L129.142265,689 C129.110795,689.166826 129.09506,689.339903 129.09506,689.519231 C129.09506,690.198721 129.323905,690.782049 129.781603,691.269231 C130.2393,691.756413 130.779141,692 131.40114,692 C132.011404,692 132.54831,691.759618 133.011875,691.278846 C133.475441,690.798075 133.70722,690.211542 133.70722,689.519231 C133.70722,689.339903 133.691281,689.166826 133.659402,689 L138.841885,689 C138.810415,689.166826 138.79468,689.339903 138.79468,689.519231 C138.79468,690.198721 139.023525,690.782049 139.481223,691.269231 C139.93892,691.756413 140.478761,692 141.10076,692 C141.722759,692 142.2626,691.756413 142.720297,691.269231 C143.177995,690.782049 143.40684,690.198721 143.40684,689.519231 C143.40684,689.339903 143.391105,689.166826 143.359635,689 L148.541505,689 C148.510035,689.166826 148.4943,689.339903 148.4943,689.519231 C148.4943,690.198721 148.723145,690.782049 149.180843,691.269231 C149.63854,691.756413 150.178381,692 150.80038,692 C151.410643,692 151.94755,691.759618 152.411115,691.278846 C152.874681,690.798075 153.10646,690.211542 153.10646,689.519231 C153.10646,689.339903 153.090521,689.166826 153.058642,689 L158.241125,689 C158.209655,689.166826 158.19392,689.339903 158.19392,689.519231 C158.19392,690.198721 158.422765,690.782049 158.880463,691.269231 C159.33816,691.756413 159.878001,692 160.5,692 C161.110263,692 161.64717,691.759618 162.110735,691.278846 C162.574301,690.798075 162.80608,690.211542 162.80608,689.519231 C162.80608,689.339903 162.790141,689.166826 162.758262,689 L167.940745,689 C167.909275,689.166826 167.89354,689.339903 167.89354,689.519231 C167.89354,690.198721 168.122385,690.782049 168.580083,691.269231 C169.03778,691.756413 169.577621,692 170.19962,692 C170.821619,692 171.36146,691.756413 171.819157,691.269231 C172.276855,690.782049 172.5057,690.198721 172.5057,689.519231 C172.5057,689.339903 172.489965,689.166826 172.458495,689 L177.640365,689 C177.608895,689.166826 177.59316,689.339903 177.59316,689.519231 C177.59316,690.198721 177.822005,690.782049 178.279703,691.269231 C178.7374,691.756413 179.277241,692 179.89924,692 C180.509503,692 181.04641,691.759618 181.509975,691.278846 C181.973541,690.798075 182.20532,690.211542 182.20532,689.519231 C182.20532,689.339903 182.189381,689.166826 182.157502,689 L187.339985,689 C187.308515,689.166826 187.29278,689.339903 187.29278,689.519231 C187.29278,690.198721 187.521625,690.782049 187.979323,691.269231 C188.43702,691.756413 188.976861,692 189.59886,692 C190.209123,692 190.74603,691.759618 191.209595,691.278846 C191.673161,690.798075 191.90494,690.211542 191.90494,689.519231 C191.90494,689.339903 191.889001,689.166826 191.857122,689 L197.039605,689 C197.008135,689.166826 196.9924,689.339903 196.9924,689.519231 C196.9924,690.198721 197.221245,690.782049 197.678943,691.269231 C198.13664,691.756413 198.676481,692 199.29848,692 C199.920479,692 200.46032,691.756413 200.918017,691.269231 C201.375715,690.782049 201.60456,690.198721 201.60456,689.519231 C201.60456,689.339903 201.588825,689.166826 201.557355,689 L206.739225,689 C206.707755,689.166826 206.69202,689.339903 206.69202,689.519231 C206.69202,690.198721 206.920865,690.782049 207.378563,691.269231 C207.83626,691.756413 208.376101,692 208.9981,692 C209.608363,692 210.14527,691.759618 210.608835,691.278846 C211.072401,690.798075 211.30418,690.211542 211.30418,689.519231 C211.30418,689.339903 211.288241,689.166826 211.256362,689 L216.438845,689 C216.407375,689.166826 216.39164,689.339903 216.39164,689.519231 C216.39164,690.198721 216.620485,690.782049 217.078183,691.269231 C217.53588,691.756413 218.075721,692 218.69772,692 C219.307983,692 219.84489,691.759618 220.308455,691.278846 C220.772021,690.798075 221.0038,690.211542 221.0038,689.519231 C221.0038,689.339903 220.987861,689.166826 220.955982,689 L226.138465,689 C226.106995,689.166826 226.09126,689.339903 226.09126,689.519231 C226.09126,690.198721 226.320105,690.782049 226.777803,691.269231 C227.2355,691.756413 227.775341,692 228.39734,692 C229.019339,692 229.55918,691.756413 230.016877,691.269231 C230.474575,690.782049 230.70342,690.198721 230.70342,689.519231 C230.70342,689.339903 230.687685,689.166826 230.656215,689 L235.838085,689 C235.806615,689.166826 235.79088,689.339903 235.79088,689.519231 C235.79088,690.198721 236.019725,690.782049 236.477423,691.269231 C236.93512,691.756413 237.474961,692 238.09696,692 C238.707223,692 239.24413,691.759618 239.707695,691.278846 C240.171261,690.798075 240.40304,690.211542 240.40304,689.519231 C240.40304,689.339903 240.387101,689.166826 240.355222,689 L245.537705,689 C245.506235,689.166826 245.4905,689.339903 245.4905,689.519231 C245.4905,690.198721 245.719345,690.782049 246.177043,691.269231 C246.63474,691.756413 247.174581,692 247.79658,692 C248.406843,692 248.94375,691.759618 249.407315,691.278846 C249.870881,690.798075 250.10266,690.211542 250.10266,689.519231 C250.10266,689.339903 250.086721,689.166826 250.054842,689 L255.237325,689 C255.205855,689.166826 255.19012,689.339903 255.19012,689.519231 C255.19012,690.198721 255.418965,690.782049 255.876663,691.269231 C256.33436,691.756413 256.874201,692 257.4962,692 C258.118199,692 258.65804,691.756413 259.115737,691.269231 C259.573435,690.782049 259.80228,690.198721 259.80228,689.519231 C259.80228,689.339903 259.786545,689.166826 259.755075,689 L264.936945,689 C264.905475,689.166826 264.88974,689.339903 264.88974,689.519231 C264.88974,690.198721 265.118585,690.782049 265.576283,691.269231 C266.03398,691.756413 266.573821,692 267.19582,692 C267.806083,692 268.34299,691.759618 268.806555,691.278846 C269.270121,690.798075 269.5019,690.211542 269.5019,689.519231 C269.5019,689.339903 269.485961,689.166826 269.454082,689 L274.636565,689 C274.605095,689.166826 274.58936,689.339903 274.58936,689.519231 C274.58936,690.198721 274.818205,690.782049 275.275903,691.269231 C275.7336,691.756413 276.273441,692 276.89544,692 C277.505703,692 278.04261,691.759618 278.506175,691.278846 C278.969741,690.798075 279.20152,690.211542 279.20152,689.519231 C279.20152,689.339903 279.185581,689.166826 279.153702,689 L284.336185,689 C284.304715,689.166826 284.28898,689.339903 284.28898,689.519231 C284.28898,690.198721 284.517825,690.782049 284.975523,691.269231 C285.43322,691.756413 285.97306,692 286.59506,692 C287.217059,692 287.756899,691.756413 288.214597,691.269231 C288.672295,690.782049 288.90114,690.198721 288.90114,689.519231 C288.90114,689.339903 288.885405,689.166826 288.853935,689 L294.035805,689 C294.004335,689.166826 293.9886,689.339903 293.9886,689.519231 C293.9886,690.198721 294.217445,690.782049 294.675143,691.269231 C295.13284,691.756413 295.67268,692 296.29468,692 C296.904943,692 297.44185,691.759618 297.905415,691.278846 C298.368981,690.798075 298.60076,690.211542 298.60076,689.519231 C298.60076,689.339903 298.584821,689.166826 298.552942,689 L303.735425,689 C303.703955,689.166826 303.68822,689.339903 303.68822,689.519231 C303.68822,690.198721 303.917065,690.782049 304.374762,691.269231 C304.83246,691.756413 305.3723,692 305.9943,692 C306.604563,692 307.14147,691.759618 307.605035,691.278846 C308.068601,690.798075 308.30038,690.211542 308.30038,689.519231 C308.30038,689.339903 308.284441,689.166826 308.252562,689 L313.435045,689 C313.403575,689.166826 313.387839,689.339903 313.387839,689.519231 C313.387839,690.198721 313.616685,690.782049 314.074382,691.269231 C314.53208,691.756413 315.07192,692 315.69392,692 C316.315919,692 316.855759,691.756413 317.313457,691.269231 C317.771155,690.782049 318,690.198721 318,689.519231 C318,689.339903 317.984265,689.166826 317.952795,689 L320,689 L320,697 L0,697 L0,689 L3.04720534,689 Z" id="Rectangle-2" fill="#FFFFFF"></path>
    </g>
</svg>