<?xml version="1.0" encoding="UTF-8"?>
<svg width="320px" height="372px" viewBox="0 0 320 372" version="1.1" xmlns="http://www.w3.org/2000/svg" xmlns:xlink="http://www.w3.org/1999/xlink">
    <!-- Generator: Sketch 54.1 (76490) - https://sketchapp.com -->
    <title>chuongtrinh</title>
    <desc>Created with Sketch.</desc>
    <g id="chuongtrinh" stroke="none" stroke-width="1" fill="none" fill-rule="evenodd">
        <rect fill="#F0F6FA" x="0" y="0" width="320" height="372"></rect>
        <path d="M3.04720534,364 C3.01573507,364.166826 3,364.339903 3,364.519231 C3,365.198721 3.22884537,365.782049 3.68654298,366.269231 C4.14424058,366.756413 4.68408094,367 5.30608025,367 C5.91634372,367 6.45325017,366.759618 6.91681569,366.278846 C7.38038122,365.798075 7.6121605,365.211542 7.6121605,364.519231 C7.6121605,364.339903 7.59622108,364.166826 7.5643421,364 L12.7468253,364 C12.7153551,364.166826 12.69962,364.339903 12.69962,364.519231 C12.69962,365.198721 12.9284654,365.782049 13.386163,366.269231 C13.8438606,366.756413 14.3837009,367 15.0057002,367 C15.6159637,367 16.1528702,366.759618 16.6164357,366.278846 C17.0800012,365.798075 17.3117805,365.211542 17.3117805,364.519231 C17.3117805,364.339903 17.2958411,364.166826 17.2639621,364 L22.4464453,364 C22.414975,364.166826 22.39924,364.339903 22.39924,364.519231 C22.39924,365.198721 22.6280853,365.782049 23.0857829,366.269231 C23.5434805,366.756413 24.0833209,367 24.7053202,367 C25.3273195,367 25.8671599,366.756413 26.3248575,366.269231 C26.7825551,365.782049 27.0114005,365.198721 27.0114005,364.519231 C27.0114005,364.339903 26.9956654,364.166826 26.9641951,364 L32.1460653,364 C32.114595,364.166826 32.09886,364.339903 32.09886,364.519231 C32.09886,365.198721 32.3277053,365.782049 32.7854029,366.269231 C33.2431005,366.756413 33.7829409,367 34.4049402,367 C35.0152037,367 35.5521101,366.759618 36.0156756,366.278846 C36.4792412,365.798075 36.7110205,365.211542 36.7110205,364.519231 C36.7110205,364.339903 36.695081,364.166826 36.6632021,364 L41.8456853,364 C41.814215,364.166826 41.7984799,364.339903 41.7984799,364.519231 C41.7984799,365.198721 42.0273253,365.782049 42.4850229,366.269231 C42.9427205,366.756413 43.4825609,367 44.1045602,367 C44.7148237,367 45.2517301,366.759618 45.7152956,366.278846 C46.1788612,365.798075 46.4106404,365.211542 46.4106404,364.519231 C46.4106404,364.339903 46.394701,364.166826 46.362822,364 L51.5453053,364 C51.513835,364.166826 51.4980999,364.339903 51.4980999,364.519231 C51.4980999,365.198721 51.7269453,365.782049 52.1846429,366.269231 C52.6423405,366.756413 53.1821809,367 53.8041802,367 C54.4261795,367 54.9660198,366.756413 55.4237174,366.269231 C55.8814151,365.782049 56.1102604,365.198721 56.1102604,364.519231 C56.1102604,364.339903 56.0945254,364.166826 56.0630551,364 L61.2449252,364 C61.213455,364.166826 61.1977199,364.339903 61.1977199,364.519231 C61.1977199,365.198721 61.4265653,365.782049 61.8842629,366.269231 C62.3419605,366.756413 62.8818008,367 63.5038002,367 C64.1140636,367 64.6509701,366.759618 65.1145356,366.278846 C65.5781011,365.798075 65.8098804,365.211542 65.8098804,364.519231 C65.8098804,364.339903 65.793941,364.166826 65.762062,364 L70.9445452,364 C70.913075,364.166826 70.8973399,364.339903 70.8973399,364.519231 C70.8973399,365.198721 71.1261853,365.782049 71.5838829,366.269231 C72.0415805,366.756413 72.5814208,367 73.2034201,367 C73.8136836,367 74.3505901,366.759618 74.8141556,366.278846 C75.2777211,365.798075 75.5095004,365.211542 75.5095004,364.519231 C75.5095004,364.339903 75.493561,364.166826 75.461682,364 L80.6441652,364 C80.6126949,364.166826 80.5969599,364.339903 80.5969599,364.519231 C80.5969599,365.198721 80.8258052,365.782049 81.2835029,366.269231 C81.7412005,366.756413 82.2810408,367 82.9030401,367 C83.5250394,367 84.0648798,366.756413 84.5225774,366.269231 C84.980275,365.782049 85.2091204,365.198721 85.2091204,364.519231 C85.2091204,364.339903 85.1933853,364.166826 85.161915,364 L90.3437852,364 C90.3123149,364.166826 90.2965799,364.339903 90.2965799,364.519231 C90.2965799,365.198721 90.5254252,365.782049 90.9831228,366.269231 C91.4408204,366.756413 91.9806608,367 92.6026601,367 C93.2129236,367 93.74983,366.759618 94.2133956,366.278846 C94.6769611,365.798075 94.9087404,365.211542 94.9087404,364.519231 C94.9087404,364.339903 94.8928009,364.166826 94.860922,364 L100.043405,364 C100.011935,364.166826 99.9961998,364.339903 99.9961998,364.519231 C99.9961998,365.198721 100.225045,365.782049 100.682743,366.269231 C101.14044,366.756413 101.680281,367 102.30228,367 C102.912544,367 103.44945,366.759618 103.913016,366.278846 C104.376581,365.798075 104.60836,365.211542 104.60836,364.519231 C104.60836,364.339903 104.592421,364.166826 104.560542,364 L109.743025,364 C109.711555,364.166826 109.69582,364.339903 109.69582,364.519231 C109.69582,365.198721 109.924665,365.782049 110.382363,366.269231 C110.84006,366.756413 111.379901,367 112.0019,367 C112.623899,367 113.16374,366.756413 113.621437,366.269231 C114.079135,365.782049 114.30798,365.198721 114.30798,364.519231 C114.30798,364.339903 114.292245,364.166826 114.260775,364 L119.442645,364 C119.411175,364.166826 119.39544,364.339903 119.39544,364.519231 C119.39544,365.198721 119.624285,365.782049 120.081983,366.269231 C120.53968,366.756413 121.079521,367 121.70152,367 C122.311784,367 122.84869,366.759618 123.312256,366.278846 C123.775821,365.798075 124.0076,365.211542 124.0076,364.519231 C124.0076,364.339903 123.991661,364.166826 123.959782,364 L129.142265,364 C129.110795,364.166826 129.09506,364.339903 129.09506,364.519231 C129.09506,365.198721 129.323905,365.782049 129.781603,366.269231 C130.2393,366.756413 130.779141,367 131.40114,367 C132.011404,367 132.54831,366.759618 133.011875,366.278846 C133.475441,365.798075 133.70722,365.211542 133.70722,364.519231 C133.70722,364.339903 133.691281,364.166826 133.659402,364 L138.841885,364 C138.810415,364.166826 138.79468,364.339903 138.79468,364.519231 C138.79468,365.198721 139.023525,365.782049 139.481223,366.269231 C139.93892,366.756413 140.478761,367 141.10076,367 C141.722759,367 142.2626,366.756413 142.720297,366.269231 C143.177995,365.782049 143.40684,365.198721 143.40684,364.519231 C143.40684,364.339903 143.391105,364.166826 143.359635,364 L148.541505,364 C148.510035,364.166826 148.4943,364.339903 148.4943,364.519231 C148.4943,365.198721 148.723145,365.782049 149.180843,366.269231 C149.63854,366.756413 150.178381,367 150.80038,367 C151.410643,367 151.94755,366.759618 152.411115,366.278846 C152.874681,365.798075 153.10646,365.211542 153.10646,364.519231 C153.10646,364.339903 153.090521,364.166826 153.058642,364 L158.241125,364 C158.209655,364.166826 158.19392,364.339903 158.19392,364.519231 C158.19392,365.198721 158.422765,365.782049 158.880463,366.269231 C159.33816,366.756413 159.878001,367 160.5,367 C161.110263,367 161.64717,366.759618 162.110735,366.278846 C162.574301,365.798075 162.80608,365.211542 162.80608,364.519231 C162.80608,364.339903 162.790141,364.166826 162.758262,364 L167.940745,364 C167.909275,364.166826 167.89354,364.339903 167.89354,364.519231 C167.89354,365.198721 168.122385,365.782049 168.580083,366.269231 C169.03778,366.756413 169.577621,367 170.19962,367 C170.821619,367 171.36146,366.756413 171.819157,366.269231 C172.276855,365.782049 172.5057,365.198721 172.5057,364.519231 C172.5057,364.339903 172.489965,364.166826 172.458495,364 L177.640365,364 C177.608895,364.166826 177.59316,364.339903 177.59316,364.519231 C177.59316,365.198721 177.822005,365.782049 178.279703,366.269231 C178.7374,366.756413 179.277241,367 179.89924,367 C180.509503,367 181.04641,366.759618 181.509975,366.278846 C181.973541,365.798075 182.20532,365.211542 182.20532,364.519231 C182.20532,364.339903 182.189381,364.166826 182.157502,364 L187.339985,364 C187.308515,364.166826 187.29278,364.339903 187.29278,364.519231 C187.29278,365.198721 187.521625,365.782049 187.979323,366.269231 C188.43702,366.756413 188.976861,367 189.59886,367 C190.209123,367 190.74603,366.759618 191.209595,366.278846 C191.673161,365.798075 191.90494,365.211542 191.90494,364.519231 C191.90494,364.339903 191.889001,364.166826 191.857122,364 L197.039605,364 C197.008135,364.166826 196.9924,364.339903 196.9924,364.519231 C196.9924,365.198721 197.221245,365.782049 197.678943,366.269231 C198.13664,366.756413 198.676481,367 199.29848,367 C199.920479,367 200.46032,366.756413 200.918017,366.269231 C201.375715,365.782049 201.60456,365.198721 201.60456,364.519231 C201.60456,364.339903 201.588825,364.166826 201.557355,364 L206.739225,364 C206.707755,364.166826 206.69202,364.339903 206.69202,364.519231 C206.69202,365.198721 206.920865,365.782049 207.378563,366.269231 C207.83626,366.756413 208.376101,367 208.9981,367 C209.608363,367 210.14527,366.759618 210.608835,366.278846 C211.072401,365.798075 211.30418,365.211542 211.30418,364.519231 C211.30418,364.339903 211.288241,364.166826 211.256362,364 L216.438845,364 C216.407375,364.166826 216.39164,364.339903 216.39164,364.519231 C216.39164,365.198721 216.620485,365.782049 217.078183,366.269231 C217.53588,366.756413 218.075721,367 218.69772,367 C219.307983,367 219.84489,366.759618 220.308455,366.278846 C220.772021,365.798075 221.0038,365.211542 221.0038,364.519231 C221.0038,364.339903 220.987861,364.166826 220.955982,364 L226.138465,364 C226.106995,364.166826 226.09126,364.339903 226.09126,364.519231 C226.09126,365.198721 226.320105,365.782049 226.777803,366.269231 C227.2355,366.756413 227.775341,367 228.39734,367 C229.019339,367 229.55918,366.756413 230.016877,366.269231 C230.474575,365.782049 230.70342,365.198721 230.70342,364.519231 C230.70342,364.339903 230.687685,364.166826 230.656215,364 L235.838085,364 C235.806615,364.166826 235.79088,364.339903 235.79088,364.519231 C235.79088,365.198721 236.019725,365.782049 236.477423,366.269231 C236.93512,366.756413 237.474961,367 238.09696,367 C238.707223,367 239.24413,366.759618 239.707695,366.278846 C240.171261,365.798075 240.40304,365.211542 240.40304,364.519231 C240.40304,364.339903 240.387101,364.166826 240.355222,364 L245.537705,364 C245.506235,364.166826 245.4905,364.339903 245.4905,364.519231 C245.4905,365.198721 245.719345,365.782049 246.177043,366.269231 C246.63474,366.756413 247.174581,367 247.79658,367 C248.406843,367 248.94375,366.759618 249.407315,366.278846 C249.870881,365.798075 250.10266,365.211542 250.10266,364.519231 C250.10266,364.339903 250.086721,364.166826 250.054842,364 L255.237325,364 C255.205855,364.166826 255.19012,364.339903 255.19012,364.519231 C255.19012,365.198721 255.418965,365.782049 255.876663,366.269231 C256.33436,366.756413 256.874201,367 257.4962,367 C258.118199,367 258.65804,366.756413 259.115737,366.269231 C259.573435,365.782049 259.80228,365.198721 259.80228,364.519231 C259.80228,364.339903 259.786545,364.166826 259.755075,364 L264.936945,364 C264.905475,364.166826 264.88974,364.339903 264.88974,364.519231 C264.88974,365.198721 265.118585,365.782049 265.576283,366.269231 C266.03398,366.756413 266.573821,367 267.19582,367 C267.806083,367 268.34299,366.759618 268.806555,366.278846 C269.270121,365.798075 269.5019,365.211542 269.5019,364.519231 C269.5019,364.339903 269.485961,364.166826 269.454082,364 L274.636565,364 C274.605095,364.166826 274.58936,364.339903 274.58936,364.519231 C274.58936,365.198721 274.818205,365.782049 275.275903,366.269231 C275.7336,366.756413 276.273441,367 276.89544,367 C277.505703,367 278.04261,366.759618 278.506175,366.278846 C278.969741,365.798075 279.20152,365.211542 279.20152,364.519231 C279.20152,364.339903 279.185581,364.166826 279.153702,364 L284.336185,364 C284.304715,364.166826 284.28898,364.339903 284.28898,364.519231 C284.28898,365.198721 284.517825,365.782049 284.975523,366.269231 C285.43322,366.756413 285.97306,367 286.59506,367 C287.217059,367 287.756899,366.756413 288.214597,366.269231 C288.672295,365.782049 288.90114,365.198721 288.90114,364.519231 C288.90114,364.339903 288.885405,364.166826 288.853935,364 L294.035805,364 C294.004335,364.166826 293.9886,364.339903 293.9886,364.519231 C293.9886,365.198721 294.217445,365.782049 294.675143,366.269231 C295.13284,366.756413 295.67268,367 296.29468,367 C296.904943,367 297.44185,366.759618 297.905415,366.278846 C298.368981,365.798075 298.60076,365.211542 298.60076,364.519231 C298.60076,364.339903 298.584821,364.166826 298.552942,364 L303.735425,364 C303.703955,364.166826 303.68822,364.339903 303.68822,364.519231 C303.68822,365.198721 303.917065,365.782049 304.374762,366.269231 C304.83246,366.756413 305.3723,367 305.9943,367 C306.604563,367 307.14147,366.759618 307.605035,366.278846 C308.068601,365.798075 308.30038,365.211542 308.30038,364.519231 C308.30038,364.339903 308.284441,364.166826 308.252562,364 L313.435045,364 C313.403575,364.166826 313.387839,364.339903 313.387839,364.519231 C313.387839,365.198721 313.616685,365.782049 314.074382,366.269231 C314.53208,366.756413 315.07192,367 315.69392,367 C316.315919,367 316.855759,366.756413 317.313457,366.269231 C317.771155,365.782049 318,365.198721 318,364.519231 C318,364.339903 317.984265,364.166826 317.952795,364 L320,364 L320,372 L0,372 L0,364 L3.04720534,364 Z" id="Rectangle-2" fill="#FFFFFF"></path>
        <text id="Tạo-chương-trình" font-family="SFCompactDisplay-Semibold, SF Compact Display" font-size="18" font-weight="500" letter-spacing="-0.720000029" fill="#343D51">
            <tspan x="80" y="180">Tạo chương trình</tspan>
        </text>
        <path d="M274.499982,176 C274.302839,176 274.105721,175.927972 273.955418,175.784218 L269.225656,171.258317 C268.924781,170.970413 268.924781,170.503627 269.225656,170.21584 C269.526409,169.928053 270.014128,169.928053 270.315027,170.21584 L274.499982,174.220608 L278.684961,170.21598 C278.985835,169.928193 279.473506,169.928193 279.774234,170.21598 C280.075255,170.503767 280.075255,170.970553 279.774234,171.258457 L275.044546,175.784358 C274.894169,175.928135 274.697051,176 274.499982,176 Z" id="Path" fill="#5D6A80" fill-rule="nonzero"></path>
        <text id="01" opacity="0.7" font-family="Oswald-Regular_Medium, Oswald" font-size="28" font-weight="400" fill="#8C96A8">
            <tspan x="30" y="183">01</tspan>
        </text>
        <text id="……………………………………………………" font-family="Georgia-Italic, Georgia" font-size="14" font-style="italic" font-weight="normal" fill="#DADFE7">
            <tspan x="30" y="205">……………………………………………………………</tspan>
        </text>
        <text id="Tìm-kiếm-&amp;-kết-nối" font-family="SFCompactDisplay-Semibold, SF Compact Display" font-size="18" font-weight="500" letter-spacing="-0.720000029" fill="#343D51">
            <tspan x="80" y="250">Tìm kiếm &amp; kết nối</tspan>
        </text>
        <path d="M274.499982,246 C274.302839,246 274.105721,245.927972 273.955418,245.784218 L269.225656,241.258317 C268.924781,240.970413 268.924781,240.503627 269.225656,240.21584 C269.526409,239.928053 270.014128,239.928053 270.315027,240.21584 L274.499982,244.220608 L278.684961,240.21598 C278.985835,239.928193 279.473506,239.928193 279.774234,240.21598 C280.075255,240.503767 280.075255,240.970553 279.774234,241.258457 L275.044546,245.784358 C274.894169,245.928135 274.697051,246 274.499982,246 Z" id="Path" fill="#5D6A80" fill-rule="nonzero"></path>
        <text id="02" opacity="0.7" font-family="Oswald-Regular_Medium, Oswald" font-size="28" font-weight="400" fill="#8C96A8">
            <tspan x="30" y="253">02</tspan>
        </text>
        <text id="……………………………………………………" font-family="Georgia-Italic, Georgia" font-size="14" font-style="italic" font-weight="normal" fill="#DADFE7">
            <tspan x="30" y="275">……………………………………………………………</tspan>
        </text>
        <text id="Hoàn-thành" font-family="SFCompactDisplay-Semibold, SF Compact Display" font-size="18" font-weight="500" letter-spacing="-0.720000029" fill="#343D51">
            <tspan x="80" y="320">Hoàn thành</tspan>
        </text>
        <path d="M274.499982,316 C274.302839,316 274.105721,315.927972 273.955418,315.784218 L269.225656,311.258317 C268.924781,310.970413 268.924781,310.503627 269.225656,310.21584 C269.526409,309.928053 270.014128,309.928053 270.315027,310.21584 L274.499982,314.220608 L278.684961,310.21598 C278.985835,309.928193 279.473506,309.928193 279.774234,310.21598 C280.075255,310.503767 280.075255,310.970553 279.774234,311.258457 L275.044546,315.784358 C274.894169,315.928135 274.697051,316 274.499982,316 Z" id="Path" fill="#5D6A80" fill-rule="nonzero"></path>
        <text id="03" opacity="0.7" font-family="Oswald-Regular_Medium, Oswald" font-size="28" font-weight="400" fill="#8C96A8">
            <tspan x="30" y="323">03</tspan>
        </text>
        <text id="—-Sau-khi-hoàn-tất-Đ" font-family="Georgia-Italic, Georgia" font-size="15" font-style="italic" font-weight="normal" line-spacing="20" fill="#556279">
            <tspan x="30" y="101">— Sau khi hoàn tất Đăng ký, Chương </tspan>
            <tspan x="30" y="121">trình của bạn sẽ gồm ba bước</tspan>
        </text>
        <text id="Chương-trình" font-family="SFCompactDisplay-Semibold, SF Compact Display" font-size="26" font-weight="500" letter-spacing="-1.56" fill="#343D51">
            <tspan x="30" y="65">Chương trình</tspan>
        </text>
    </g>
</svg>