<?xml version="1.0" encoding="UTF-8"?>
<svg width="320px" height="334px" viewBox="0 0 320 334" version="1.1" xmlns="http://www.w3.org/2000/svg" xmlns:xlink="http://www.w3.org/1999/xlink">
    <!-- Generator: Sketch 54.1 (76490) - https://sketchapp.com -->
    <title>taimoisukien</title>
    <desc>Created with Sketch.</desc>
    <defs>
        <linearGradient x1="13.729807%" y1="100%" x2="116.141476%" y2="-195.319758%" id="linearGradient-1">
            <stop stop-color="#651FFF" offset="0%"></stop>
            <stop stop-color="#304FFE" offset="100%"></stop>
        </linearGradient>
        <circle id="path-2" cx="50" cy="315" r="12"></circle>
        <filter x="-25.0%" y="-16.7%" width="141.7%" height="141.7%" filterUnits="objectBoundingBox" id="filter-3">
            <feOffset dx="-1" dy="1" in="SourceAlpha" result="shadowOffsetOuter1"></feOffset>
            <feGaussianBlur stdDeviation="1.5" in="shadowOffsetOuter1" result="shadowBlurOuter1"></feGaussianBlur>
            <feColorMatrix values="0 0 0 0 0   0 0 0 0 0   0 0 0 0 0  0 0 0 0.25 0" type="matrix" in="shadowBlurOuter1"></feColorMatrix>
        </filter>
    </defs>
    <g id="taimoisukien" stroke="none" stroke-width="1" fill="none" fill-rule="evenodd">
        <text id="Thành-viên-mà-bạn-gặ" font-family="SFCompactDisplay-Semibold, SF Compact Display" font-size="18" font-weight="500" letter-spacing="-0.720000029" fill="#343D51">
            <tspan x="30" y="106">Thành viên mà bạn gặp là một </tspan>
            <tspan x="30" y="127">trong những Thành viên có nhiều </tspan>
            <tspan x="30" y="148">triển vọng với bạn nhất ở thời điểm </tspan>
            <tspan x="30" y="169">hiện tại. </tspan>
        </text>
        <text id="Điều-này-xảy-ra-như" font-family="SFCompactDisplay-Regular, SF Compact Display" font-size="16" font-weight="normal" fill="#4D5B72">
            <tspan x="30" y="262">Điều này xảy ra như thế nào?</tspan>
        </text>
        <text id="—-Tại-mỗi-Sự-kiện" font-family="Georgia-Italic, Georgia" font-size="15" font-style="italic" font-weight="normal" fill="#5D6A80">
            <tspan x="30" y="66">— Tại mỗi Sự kiện</tspan>
        </text>
        <text id="Việc-gặp-gỡ-là-tình" font-family="SFCompactDisplay-Semibold, SF Compact Display" font-size="18" font-weight="500" letter-spacing="-0.720000029" fill="#343D51">
            <tspan x="30" y="202">Việc gặp gỡ là tình cờ. Cả hai đều </tspan>
            <tspan x="30" y="223">không biết trước</tspan>
        </text>
        <path d="M0,326.059858 L5.22367878,322.963747 C8.15173736,321.228266 11.8083526,321.293107 14.6730406,323.131308 L15.1396071,323.430692 C18.1012813,325.331127 21.8989026,325.331127 24.8605768,323.430692 L25.139653,323.251616 C28.1013273,321.351181 31.8989486,321.351181 34.8606228,323.251616 L35.139699,323.430692 C38.1013732,325.331127 41.8989946,325.331127 44.8606688,323.430692 L45.139745,323.251616 C48.1014192,321.351181 51.8990405,321.351181 54.8607148,323.251616 L55.1397909,323.430692 C58.1014652,325.331127 61.8990865,325.331127 64.8607607,323.430692 L65.1398369,323.251616 C68.1015111,321.351181 71.8991325,321.351181 74.8608067,323.251616 L75.1398829,323.430692 C78.1015571,325.331127 81.8991784,325.331127 84.8608527,323.430692 L85.1399289,323.251616 C88.1016031,321.351181 91.8992244,321.351181 94.8608986,323.251616 L95.1399748,323.430692 C98.1016491,325.331127 101.89927,325.331127 104.860945,323.430692 L105.138716,323.252454 C108.101059,321.351589 111.899655,321.352053 114.861534,323.25364 L115.137562,323.430856 C118.100447,325.333088 121.900507,325.332855 124.863158,323.430259 L125.136221,323.2549 C128.099026,321.352205 131.899309,321.352078 134.86224,323.254574 L135.136416,323.430622 C138.099165,325.333001 141.89918,325.333001 144.861929,323.430622 L145.136462,323.254345 C148.099211,321.351966 151.899226,321.351966 154.861975,323.254345 L155.136508,323.430622 C158.099257,325.333001 161.899272,325.333001 164.862021,323.430622 L165.136554,323.254345 C168.099303,321.351966 171.899318,321.351966 174.862067,323.254345 L175.1366,323.430622 C178.099349,325.333001 181.899364,325.333001 184.862113,323.430622 L185.136646,323.254345 C188.099395,321.351966 191.89941,321.351966 194.862159,323.254345 L195.136692,323.430622 C198.099441,325.333001 201.899456,325.333001 204.862205,323.430622 L205.136738,323.254345 C208.099487,321.351966 211.899502,321.351966 214.862251,323.254345 L215.136784,323.430622 C218.099533,325.333001 221.899548,325.333001 224.862297,323.430622 L225.13683,323.254345 C228.099579,321.351966 231.899594,321.351966 234.862342,323.254345 L235.136876,323.430622 C238.099625,325.333001 241.89964,325.333001 244.862388,323.430622 L244.999655,323.342484 C247.925676,321.463688 251.761648,321.855461 254.247451,324.286974 L259.999724,329.913616 C265.557956,335.350455 274.441584,335.350455 279.999816,329.913616 L285.752089,324.286974 C288.237892,321.855461 292.073864,321.463688 294.999885,323.342484 L295.137152,323.430622 C298.0999,325.333001 301.899916,325.333001 304.862664,323.430622 L305.137198,323.254345 C308.099946,321.351966 311.899962,321.351966 314.86271,323.254345 L320,326.552995 L320,298 L0,298 L0,326.059858 Z" id="Rectangle" fill="#FFFFFF" transform="translate(160.000000, 316.000000) scale(-1, -1) translate(-160.000000, -316.000000) "></path>
        <g id="Oval">
            <use fill="black" fill-opacity="1" filter="url(#filter-3)" xlink:href="#path-2"></use>
            <use fill="url(#linearGradient-1)" fill-rule="evenodd" xlink:href="#path-2"></use>
        </g>
        <text id="i" font-family="Georgia-Italic, Georgia" font-size="14" font-style="italic" font-weight="normal" fill="#FFFFFF">
            <tspan x="48" y="319">i</tspan>
        </text>
        <path d="M0,11.5055144 L5.21402985,8.40667007 C8.1468085,6.66363739 11.8130177,6.72872816 14.682075,8.57476806 L15.1302018,8.86310664 C18.096321,10.7715991 21.9038629,10.7715991 24.8699821,8.86310664 L25.1302478,8.69564367 C28.096367,6.78715121 31.9039089,6.78715121 34.8700281,8.69564367 L35.1302938,8.86310664 C38.0964129,10.7715991 41.9039549,10.7715991 44.870074,8.86310664 L45.1303397,8.69564367 C48.0964589,6.78715121 51.9040008,6.78715121 54.87012,8.69564367 L55.1303857,8.86310664 C58.0965049,10.7715991 61.9040468,10.7715991 64.870166,8.86310664 L65.1304317,8.69564367 C68.0965508,6.78715121 71.9040928,6.78715121 74.8702119,8.69564367 L75.1304776,8.86310664 C78.0965968,10.7715991 81.9041387,10.7715991 84.8702579,8.86310664 L85.1305236,8.69564367 C88.0966428,6.78715121 91.9041847,6.78715121 94.8703039,8.69564367 L95.1305696,8.86310664 C98.0966888,10.7715991 101.904231,10.7715991 104.87035,8.86310664 L105.129308,8.69648512 C108.096097,6.7875617 111.904615,6.78802705 114.870938,8.69767542 L115.128155,8.86326582 C118.095483,10.773562 121.905469,10.7733281 124.872563,8.86266741 L125.126816,8.69894136 C128.094063,6.78818213 131.904272,6.78805455 134.871647,8.69861507 L135.12701,8.86303197 C138.094202,10.7734743 141.904143,10.7734743 144.871335,8.86303197 L145.127056,8.6983843 C148.094248,6.78794195 151.904189,6.78794195 154.871381,8.6983843 L155.127102,8.86303197 C158.094294,10.7734743 161.904235,10.7734743 164.871427,8.86303197 L165.127148,8.6983843 C168.09434,6.78794195 171.904281,6.78794195 174.871473,8.6983843 L175.127194,8.86303197 C178.094386,10.7734743 181.904327,10.7734743 184.871519,8.86303197 L185.12724,8.6983843 C188.094432,6.78794195 191.904373,6.78794195 194.871565,8.6983843 L195.127286,8.86303197 C198.094478,10.7734743 201.904419,10.7734743 204.871611,8.86303197 L205.127332,8.6983843 C208.094524,6.78794195 211.904465,6.78794195 214.871657,8.6983843 L215.127378,8.86303197 C218.09457,10.7734743 221.904511,10.7734743 224.871703,8.86303197 L225.127264,8.69848714 C228.094538,6.78799213 231.904598,6.78804899 234.871815,8.69863256 L235.127244,8.86310304 C238.094542,10.7737393 241.904722,10.7737393 244.87202,8.86310304 L245.127357,8.69869214 C248.094621,6.78807806 251.904751,6.78805414 254.872038,8.69863097 L255.127124,8.86287531 C258.094676,10.7736222 261.905191,10.7734147 264.872534,8.86234449 L265.126883,8.69853555 C268.094525,6.7872731 271.905475,6.7872731 274.873117,8.69853555 L275.127354,8.86227236 C278.094755,10.7733795 281.905353,10.7735472 284.872922,8.86270123 L285.127455,8.69880504 C288.094761,6.7881292 291.904974,6.78811325 294.872295,8.69876425 L295.12752,8.86310304 C298.094818,10.7737393 301.904998,10.7737393 304.872296,8.86310304 L305.127726,8.69863256 C308.094942,6.78804899 311.905003,6.78799213 314.872276,8.69848714 L320,12 L320,0 L0,0 L0,11.5055144 Z" id="Rectangle" fill="#FFFFFF"></path>
    </g>
</svg>