<?xml version="1.0" encoding="UTF-8"?>
<svg width="640px" height="933px" viewBox="0 0 640 933" version="1.1" xmlns="http://www.w3.org/2000/svg" xmlns:xlink="http://www.w3.org/1999/xlink">
    <title>1_pc</title>
    <defs>
        <linearGradient x1="-41.2211541%" y1="158.95067%" x2="184.057905%" y2="0%" id="linearGradient-1">
            <stop stop-color="#277AFF" offset="0%"></stop>
            <stop stop-color="#03A9F4" offset="100%"></stop>
        </linearGradient>
    </defs>
    <g id="Chanchan-8" stroke="none" stroke-width="1" fill="none" fill-rule="evenodd">
        <g id="paid-gui">
            <g id="1" transform="translate(160.000000, 162.000000)">
                <g id="Group-11" transform="translate(60.000000, 378.000000)"></g>
                <g id="Group-11" transform="translate(60.000000, 449.000000)"></g>
                <g id="Group-8" transform="translate(70.000000, 161.000000)"></g>
                <path d="M0,852 L43.2294902,852 C54.25826,852 65.1355683,849.432216 75,844.5 C84.4427191,839.77864 95.5572809,839.77864 105,844.5 C114.864432,849.432216 125.74174,852 136.77051,852 L320,852 L320,852 L320,208 L0,208 L0,852 Z" id="Rectangle" fill="#FFFFFF" transform="translate(160.000000, 530.000000) scale(1, -1) translate(-160.000000, -530.000000) "></path>
                <path d="M91.5,161 C103.374122,161 113,170.625878 113,182.5 C113,194.374122 103.374122,204 91.5,204 C79.6258779,204 70,194.374122 70,182.5 C70,170.625878 79.6258779,161 91.5,161 Z M94.195,173.99 L91.675,173.99 C91.521,174.158 91.3005,174.34 91.0135,174.536 C90.7265,174.732 90.422,174.914 90.1,175.082 C89.778,175.25 89.4735,175.404 89.1865,175.544 C88.9569,175.656 88.76538,175.75008 88.61194,175.82624 L88.504,175.88 L88.504,178.274 C88.63,178.218 88.805,178.1515 89.029,178.0745 C89.253,177.9975 89.491,177.9135 89.743,177.8225 C89.995,177.7315 90.2295,177.6475 90.4465,177.5705 C90.60925,177.51275 90.7464063,177.456969 90.8579688,177.403156 L90.961,177.35 L90.961,191 L94.195,191 L94.195,173.99 Z" id="Oval-2" fill="url(#linearGradient-1)"></path>
                <text id="Bạn-thực-hiện-theo-0" font-family="SFCompactDisplay-Light, SF Compact Display" font-size="16" font-weight="300" line-spacing="24" fill="#121721">
                    <tspan x="60" y="99">Bạn thực hiện theo 02 bước </tspan>
                    <tspan x="60" y="123">dưới đây</tspan>
                </text>
                <text id="Hướng-dẫn-Thanh-toán" font-family="GMVDINPro-CondBlack, GMV DIN Cond" font-size="30" font-style="condensed" font-weight="800" fill="#121721">
                    <tspan x="60" y="23">Hướng dẫn</tspan>
                    <tspan x="60" y="53">Thanh toán</tspan>
                </text>
                <text id="Thanh-toán" font-family="GMVDINPro-CondBold, GMV DIN Cond" font-size="24" font-style="condensed" font-weight="bold" fill="#121721">
                    <tspan x="60" y="287">Thanh toán</tspan>
                </text>
                <text id="Bằng-chuyển-khoản-đế" font-family="SFCompactDisplay-Light, SF Compact Display" font-size="16" font-weight="300" line-spacing="24" fill="#121721">
                    <tspan x="60" y="332">Bằng chuyển khoản đến một </tspan>
                    <tspan x="60" y="356">trong hai tài khoản</tspan>
                </text>
                <text id="VPBank" font-family="SFCompactDisplay-Light, SF Compact Display" font-size="16" font-weight="300" fill="#018446">
                    <tspan x="60" y="400">VPBank</tspan>
                </text>
                <text id="125-182-437" font-family="SFCompactDisplay-Semibold, SF Compact Display" font-size="20" font-weight="500" letter-spacing="-0.8" fill="#018446">
                    <tspan x="60" y="431">125 182 437</tspan>
                </text>
                <text id="125182437" font-family="Oswald-Regular_SemiBold, Oswald" font-size="32" font-weight="500" letter-spacing="-1.28" fill="#FFFFFF" fill-opacity="0">
                    <tspan x="59" y="425">125182437</tspan>
                </text>
                <text id="Hoặc-BIDV" font-family="SFCompactDisplay-Light, SF Compact Display" font-size="16" font-weight="300">
                    <tspan x="60" y="468" fill="#121721">Hoặc </tspan>
                    <tspan x="98.703125" y="468" fill="#203F9A">BIDV</tspan>
                </text>
                <text id="2791-0000-501-984" font-family="SFCompactDisplay-Semibold, SF Compact Display" font-size="20" font-weight="500" letter-spacing="-0.8" fill="#203F9A">
                    <tspan x="60" y="499">2791 0000 501 984</tspan>
                </text>
                <text id="27910000501984" font-family="Oswald-Regular_SemiBold, Oswald" font-size="32" font-weight="500" letter-spacing="-1.28" fill="#FFFFFF" fill-opacity="0">
                    <tspan x="59" y="493">27910000501984</tspan>
                </text>
                <text id="360.000đ" font-family="SFCompactDisplay-Semibold, SF Compact Display" font-size="20" font-weight="500" letter-spacing="-0.8" fill="#121721">
                    <tspan x="60" y="654">360.000đ </tspan>
                </text>
                <text id="Chủ-tài-khoản" font-family="SFCompactDisplay-Light, SF Compact Display" font-size="16" font-weight="300" line-spacing="24" fill="#121721">
                    <tspan x="60" y="543">Chủ tài khoản</tspan>
                </text>
                <text id="Số-tiền" font-family="SFCompactDisplay-Light, SF Compact Display" font-size="16" font-weight="300" fill="#121721">
                    <tspan x="60" y="623">Số tiền</tspan>
                </text>
                <text id="Nguyen-Minh-Tuan" font-family="SFCompactDisplay-Semibold, SF Compact Display" font-size="20" font-weight="500" letter-spacing="-0.8" fill="#121721">
                    <tspan x="60" y="579">Nguyen Minh Tuan</tspan>
                </text>
                <text id="Nội-dung-chuyển-khoả" font-family="SFCompactDisplay-Light, SF Compact Display" font-size="16" font-weight="300" line-spacing="24" fill="#121721">
                    <tspan x="60" y="698">Nội dung chuyển khoản</tspan>
                </text>
                <text id="Chanchan-Tangtoc" font-family="SFCompactDisplay-Semibold, SF Compact Display" font-size="20" font-weight="500" letter-spacing="-0.8" fill="#121721">
                    <tspan x="60" y="729">Chanchan Tangtoc</tspan>
                </text>
            </g>
            <g id="bg_left" transform="translate(0.000000, 0.000000)">
                <rect id="Rectangle" fill="#F0F6FA" x="-4.12114787e-13" y="0" width="160" height="1865"></rect>
                <line x1="160.5" y1="0" x2="160.5" y2="1865" id="Line" stroke="#DADFE7" stroke-width="0.5" stroke-linecap="square"></line>
            </g>
            <g id="bg_right" transform="translate(480.000000, 0.000000)">
                <rect id="Rectangle" fill="#F0F6FA" x="-3.41060513e-13" y="0" width="160" height="1865"></rect>
                <line x1="0.5" y1="0" x2="0.5" y2="1865" id="Line" stroke="#DADFE7" stroke-width="0.5" stroke-linecap="square"></line>
            </g>
        </g>
    </g>
</svg>