<?xml version="1.0" encoding="UTF-8"?>
<svg width="640px" height="932px" viewBox="0 0 640 932" version="1.1" xmlns="http://www.w3.org/2000/svg" xmlns:xlink="http://www.w3.org/1999/xlink">
    <title>2_pc</title>
    <defs>
        <linearGradient x1="-41.2211541%" y1="158.95067%" x2="184.057905%" y2="0%" id="linearGradient-1">
            <stop stop-color="#277AFF" offset="0%"></stop>
            <stop stop-color="#03A9F4" offset="100%"></stop>
        </linearGradient>
    </defs>
    <g id="Chanchan-8" stroke="none" stroke-width="1" fill="none" fill-rule="evenodd">
        <g id="paid-gui" transform="translate(0.000000, -933.000000)">
            <g id="1" transform="translate(160.000000, 162.000000)">
                <path d="M0,852 L43.2294902,852 C54.25826,852 65.1355683,849.432216 75,844.5 C84.4427191,839.77864 95.5572809,839.77864 105,844.5 C114.864432,849.432216 125.74174,852 136.77051,852 L320,852 L320,852 L320,208 L0,208 L0,852 Z" id="Rectangle" fill="#FFFFFF" transform="translate(160.000000, 530.000000) scale(1, -1) translate(-160.000000, -530.000000) "></path>
                <path d="M0,1032 L43.2294902,1032 C54.25826,1032 65.1355683,1029.43222 75,1024.5 C84.4427191,1019.77864 95.5572809,1019.77864 105,1024.5 C114.864432,1029.43222 125.74174,1032 136.77051,1032 L320,1032 L320,1032 L320,832 L0,832 L0,1032 Z" id="Rectangle" fill="#F0F6FA" transform="translate(160.000000, 932.000000) scale(1, -1) translate(-160.000000, -932.000000) "></path>
                <path d="M91.5,782 C103.374122,782 113,791.625878 113,803.5 C113,815.374122 103.374122,825 91.5,825 C79.6258779,825 70,815.374122 70,803.5 C70,791.625878 79.6258779,782 91.5,782 Z M91.502,794.98 C90.396,794.98 89.5035,795.2005 88.8245,795.6415 C88.1455,796.0825 87.6485,796.695 87.3335,797.479 C87.057875,798.165 86.9028359,798.93675 86.8683828,799.79425 L86.861,800.167 L86.861,801.007 L90.032,801.007 L90.032,800.209 C90.032,799.761 90.074,799.348 90.158,798.97 C90.242,798.592 90.396,798.2875 90.62,798.0565 C90.844,797.8255 91.166,797.71 91.586,797.71 C91.978,797.71 92.279,797.8535 92.489,798.1405 C92.699,798.4275 92.804,798.844 92.804,799.39 C92.804,799.908 92.7165,800.3945 92.5415,800.8495 C92.3665,801.3045 92.1425,801.749 91.8695,802.183 C91.6875,802.472333 91.4977222,802.771 91.3001667,803.079 L90.998,803.548 L86.861,809.911 L86.861,812.2 L95.555,812.2 L95.555,809.638 L90.494,809.638 L93.77,804.703 C94.162,804.129 94.5295,803.5725 94.8725,803.0335 C95.2155,802.4945 95.492,801.9345 95.702,801.3535 C95.912,800.7725 96.017,800.139 96.017,799.453 C96.017,798.039 95.639,796.94 94.883,796.156 C94.127,795.372 93,794.98 91.502,794.98 Z" id="Oval-3" fill="url(#linearGradient-1)"></path>
                <text id="Bạn-gửi-ảnh-chụp-màn" font-family="SFCompactDisplay-Light, SF Compact Display" font-size="16" font-weight="300" line-spacing="24" fill="#121721">
                    <tspan x="60" y="955">Bạn gửi ảnh chụp màn hình </tspan>
                    <tspan x="60" y="979">giao dịch thành công cho </tspan>
                    <tspan x="60" y="1003">Chanchan để xác nhận</tspan>
                </text>
                <text id="Xác-nhận" font-family="GMVDINPro-CondBold, GMV DIN Cond" font-size="24" font-style="condensed" font-weight="bold" fill="#121721">
                    <tspan x="60" y="910">Xác nhận</tspan>
                </text>
            </g>
            <g id="bg_left" transform="translate(0.000000, 0.000000)">
                <rect id="Rectangle" fill="#F0F6FA" x="-4.12114787e-13" y="0" width="160" height="1865"></rect>
                <line x1="160.5" y1="0" x2="160.5" y2="1865" id="Line" stroke="#DADFE7" stroke-width="0.5" stroke-linecap="square"></line>
            </g>
            <g id="bg_right" transform="translate(480.000000, 0.000000)">
                <rect id="Rectangle" fill="#F0F6FA" x="-3.41060513e-13" y="0" width="160" height="1865"></rect>
                <line x1="0.5" y1="0" x2="0.5" y2="1865" id="Line" stroke="#DADFE7" stroke-width="0.5" stroke-linecap="square"></line>
            </g>
        </g>
    </g>
</svg>