<?xml version="1.0" encoding="UTF-8"?>
<svg width="320px" height="307px" viewBox="0 0 320 307" version="1.1" xmlns="http://www.w3.org/2000/svg" xmlns:xlink="http://www.w3.org/1999/xlink">
    <!-- Generator: Sketch 54.1 (76490) - https://sketchapp.com -->
    <title>maplink2211</title>
    <desc>Created with Sketch.</desc>
    <g id="maplink2211" stroke="none" stroke-width="1" fill="none" fill-rule="evenodd">
        <rect fill="#ECF6FF" x="0" y="0" width="320" height="307"></rect>
        <g id="Group-3" transform="translate(30.000000, 31.000000)" font-size="20">
            <text id="Về-Chanchan" font-family="GMVDINPro-CondBlack, GMV DIN Cond" font-style="condensed" font-weight="700" line-spacing="22" fill="#1E2432">
                <tspan x="15" y="22">Về Chanchan</tspan>
            </text>
            <text id="." font-family="Chalkduster" font-weight="normal" line-spacing="52" fill="#4DABBD">
                <tspan x="0" y="25">.</tspan>
            </text>
            <text id="_" font-family="Chalkduster" font-weight="normal" line-spacing="52" fill="#4DABBD">
                <tspan x="18" y="32">_</tspan>
            </text>
        </g>
        <g id="Group" transform="translate(30.000000, 157.000000)" font-size="20">
            <text id="Đăng-ký-thành-viên-m" font-family="GMVDINPro-CondBlack, GMV DIN Cond" font-style="condensed" font-weight="700" line-spacing="22" fill="#1E2432">
                <tspan x="15" y="22">Đăng ký thành viên mới</tspan>
            </text>
            <text id="." font-family="Chalkduster" font-weight="normal" line-spacing="52" fill="#FF9800">
                <tspan x="0" y="25">.</tspan>
            </text>
            <text id="_" font-family="Chalkduster" font-weight="normal" line-spacing="52" fill="#FF9800">
                <tspan x="18" y="32">_</tspan>
            </text>
        </g>
        <g id="Group-2" transform="translate(30.000000, 94.000000)" font-size="20">
            <text id="Blog" font-family="GMVDINPro-CondBlack, GMV DIN Cond" font-style="condensed" font-weight="700" line-spacing="22" fill="#1E2432">
                <tspan x="15" y="22">Blog</tspan>
            </text>
            <text id="." font-family="Chalkduster" font-weight="normal" line-spacing="52" fill="#D04550">
                <tspan x="0" y="25">.</tspan>
            </text>
            <text id="_" font-family="Chalkduster" font-weight="normal" line-spacing="52" fill="#D04550">
                <tspan x="18" y="32">_</tspan>
            </text>
        </g>
        <g id="Group-5" transform="translate(30.000000, 220.000000)" font-size="15">
            <text id="Chanchan-là-một-sản" font-family="GMVDINPro-Black, GMV DIN Pro" font-weight="700" line-spacing="17" fill="#B9C0CF">
                <tspan x="0" y="47">Chanchan là một sản phẩm của </tspan>
                <tspan x="0" y="64">Mastercus Vietnam .ltd</tspan>
            </text>
            <text id="……………………………………………………" opacity="0.675454" font-family="GMVDINPro, GMV DIN Pro" font-weight="normal" line-spacing="20" fill="#8C96A8">
                <tspan x="0" y="11">…………………………………………………………..</tspan>
            </text>
        </g>
        <path d="M0.047205341,1.02482467e-11 L4.5643421,1.02482467e-11 C4.59622108,0.166825717 4.6121605,0.339902531 4.6121605,0.519230769 C4.6121605,1.21154192 4.38038122,1.79807452 3.91681569,2.27884615 C3.45325017,2.75961779 2.91634372,3 2.30608025,3 C1.68408094,3 1.14424058,2.75641269 0.686542975,2.26923077 C0.22884537,1.78204885 0,1.19872135 0,0.519230769 C0,0.339902531 0.0157350721,0.166825717 0.047205341,5.00849362e-14 Z M9.74682533,1.02482467e-11 L14.2639621,1.02482467e-11 C14.2958411,0.166825717 14.3117805,0.339902531 14.3117805,0.519230769 C14.3117805,1.21154192 14.0800012,1.79807452 13.6164357,2.27884615 C13.1528702,2.75961779 12.6159637,3 12.0057002,3 C11.3837009,3 10.8438606,2.75641269 10.386163,2.26923077 C9.92846535,1.78204885 9.69961998,1.19872135 9.69961998,0.519230769 C9.69961998,0.339902531 9.71535506,0.166825717 9.74682533,5.00849362e-14 Z M19.4464453,1.02482467e-11 L23.9641951,1.02482467e-11 C23.9956654,0.166825717 24.0114005,0.339902531 24.0114005,0.519230769 C24.0114005,1.19872135 23.7825551,1.78204885 23.3248575,2.26923077 C22.8671599,2.75641269 22.3273195,3 21.7053202,3 C21.0833209,3 20.5434805,2.75641269 20.0857829,2.26923077 C19.6280853,1.78204885 19.39924,1.19872135 19.39924,0.519230769 C19.39924,0.339902531 19.414975,0.166825717 19.4464453,1.02182152e-11 Z M29.1460653,1.02482467e-11 L33.6632021,1.02482467e-11 C33.695081,0.166825717 33.7110205,0.339902531 33.7110205,0.519230769 C33.7110205,1.21154192 33.4792412,1.79807452 33.0156756,2.27884615 C32.5521101,2.75961779 32.0152037,3 31.4049402,3 C30.7829409,3 30.2431005,2.75641269 29.7854029,2.26923077 C29.3277053,1.78204885 29.09886,1.19872135 29.09886,0.519230769 C29.09886,0.339902531 29.114595,0.166825717 29.1460653,5.00849362e-14 Z M38.8456853,1.02482467e-11 L43.362822,1.02482467e-11 C43.394701,0.166825717 43.4106404,0.339902531 43.4106404,0.519230769 C43.4106404,1.21154192 43.1788612,1.79807452 42.7152956,2.27884615 C42.2517301,2.75961779 41.7148237,3 41.1045602,3 C40.4825609,3 39.9427205,2.75641269 39.4850229,2.26923077 C39.0273253,1.78204885 38.7984799,1.19872135 38.7984799,0.519230769 C38.7984799,0.339902531 38.814215,0.166825717 38.8456853,1.01804815e-11 Z M48.5453053,1.02482467e-11 L53.0630551,1.02482467e-11 C53.0945254,0.166825717 53.1102604,0.339902531 53.1102604,0.519230769 C53.1102604,1.19872135 52.8814151,1.78204885 52.4237174,2.26923077 C51.9660198,2.75641269 51.4261795,3 50.8041802,3 C50.1821809,3 49.6423405,2.75641269 49.1846429,2.26923077 C48.7269453,1.78204885 48.4980999,1.19872135 48.4980999,0.519230769 C48.4980999,0.339902531 48.513835,0.166825717 48.5453053,1.01994663e-11 Z M58.2449252,1.02482467e-11 L62.762062,1.02482467e-11 C62.793941,0.166825717 62.8098804,0.339902531 62.8098804,0.519230769 C62.8098804,1.21154192 62.5781011,1.79807452 62.1145356,2.27884615 C61.6509701,2.75961779 61.1140636,3 60.5038002,3 C59.8818008,3 59.3419605,2.75641269 58.8842629,2.26923077 C58.4265653,1.78204885 58.1977199,1.19872135 58.1977199,0.519230769 C58.1977199,0.339902531 58.213455,0.166825717 58.2449252,1.01994663e-11 Z M67.9445452,1.02482467e-11 L72.461682,1.02482467e-11 C72.493561,0.166825717 72.5095004,0.339902531 72.5095004,0.519230769 C72.5095004,1.21154192 72.2777211,1.79807452 71.8141556,2.27884615 C71.3505901,2.75961779 70.8136836,3 70.2034201,3 C69.5814208,3 69.0415805,2.75641269 68.5838829,2.26923077 C68.1261853,1.78204885 67.8973399,1.19872135 67.8973399,0.519230769 C67.8973399,0.339902531 67.913075,0.166825717 67.9445452,1.0123985e-11 Z M77.6441652,1.02482467e-11 L82.161915,1.02482467e-11 C82.1933853,0.166825717 82.2091204,0.339902531 82.2091204,0.519230769 C82.2091204,1.19872135 81.980275,1.78204885 81.5225774,2.26923077 C81.0648798,2.75641269 80.5250394,3 79.9030401,3 C79.2810408,3 78.7412005,2.75641269 78.2835029,2.26923077 C77.8258052,1.78204885 77.5969599,1.19872135 77.5969599,0.519230769 C77.5969599,0.339902531 77.6126949,0.166825717 77.6441652,1.02482467e-11 Z M87.3437852,1.02482467e-11 L91.860922,1.02482467e-11 C91.8928009,0.166825717 91.9087404,0.339902531 91.9087404,0.519230769 C91.9087404,1.21154192 91.6769611,1.79807452 91.2133956,2.27884615 C90.74983,2.75961779 90.2129236,3 89.6026601,3 C88.9806608,3 88.4408204,2.75641269 87.9831228,2.26923077 C87.5254252,1.78204885 87.2965799,1.19872135 87.2965799,0.519230769 C87.2965799,0.339902531 87.3123149,0.166825717 87.3437852,1.01860465e-11 Z M97.0434052,1.02482467e-11 L101.560542,1.02482467e-11 C101.592421,0.166825717 101.60836,0.339902531 101.60836,0.519230769 C101.60836,1.21154192 101.376581,1.79807452 100.913016,2.27884615 C100.44945,2.75961779 99.9125436,3 99.3022801,3 C98.6802808,3 98.1404404,2.75641269 97.6827428,2.26923077 C97.2250452,1.78204885 96.9961998,1.19872135 96.9961998,0.519230769 C96.9961998,0.339902531 97.0119349,0.166825717 97.0434052,1.00861958e-11 Z M106.743025,1.02482467e-11 L111.260775,1.02482467e-11 C111.292245,0.166825717 111.30798,0.339902531 111.30798,0.519230769 C111.30798,1.19872135 111.079135,1.78204885 110.621437,2.26923077 C110.16374,2.75641269 109.623899,3 109.0019,3 C108.379901,3 107.84006,2.75641269 107.382363,2.26923077 C106.924665,1.78204885 106.69582,1.19872135 106.69582,0.519230769 C106.69582,0.339902531 106.711555,0.166825717 106.743025,1.0123985e-11 Z M116.442645,1.02482467e-11 L120.959782,1.02482467e-11 C120.991661,0.166825717 121.0076,0.339902531 121.0076,0.519230769 C121.0076,1.21154192 120.775821,1.79807452 120.312256,2.27884615 C119.84869,2.75961779 119.311784,3 118.70152,3 C118.079521,3 117.53968,2.75641269 117.081983,2.26923077 C116.624285,1.78204885 116.39544,1.19872135 116.39544,0.519230769 C116.39544,0.339902531 116.411175,0.166825717 116.442645,1.02482467e-11 Z M126.142265,1.02482467e-11 L130.659402,1.02482467e-11 C130.691281,0.166825717 130.70722,0.339902531 130.70722,0.519230769 C130.70722,1.21154192 130.475441,1.79807452 130.011875,2.27884615 C129.54831,2.75961779 129.011404,3 128.40114,3 C127.779141,3 127.2393,2.75641269 126.781603,2.26923077 C126.323905,1.78204885 126.09506,1.19872135 126.09506,0.519230769 C126.09506,0.339902531 126.110795,0.166825717 126.142265,1.00486564e-11 Z M135.841885,1.02482467e-11 L140.359635,1.02482467e-11 C140.391105,0.166825717 140.40684,0.339902531 140.40684,0.519230769 C140.40684,1.19872135 140.177995,1.78204885 139.720297,2.26923077 C139.2626,2.75641269 138.722759,3 138.10076,3 C137.478761,3 136.93892,2.75641269 136.481223,2.26923077 C136.023525,1.78204885 135.79468,1.19872135 135.79468,0.519230769 C135.79468,0.339902531 135.810415,0.166825717 135.841885,5.00849362e-14 Z M145.541505,1.02482467e-11 L150.058642,1.02482467e-11 C150.090521,0.166825717 150.10646,0.339902531 150.10646,0.519230769 C150.10646,1.21154192 149.874681,1.79807452 149.411115,2.27884615 C148.94755,2.75961779 148.410643,3 147.80038,3 C147.178381,3 146.63854,2.75641269 146.180843,2.26923077 C145.723145,1.78204885 145.4943,1.19872135 145.4943,0.519230769 C145.4943,0.339902531 145.510035,0.166825717 145.541505,1.01236658e-11 Z M155.241125,1.02482467e-11 L159.758262,1.02482467e-11 C159.790141,0.166825717 159.80608,0.339902531 159.80608,0.519230769 C159.80608,1.21154192 159.574301,1.79807452 159.110735,2.27884615 C158.64717,2.75961779 158.110263,3 157.5,3 C156.878001,3 156.33816,2.75641269 155.880463,2.26923077 C155.422765,1.78204885 155.19392,1.19872135 155.19392,0.519230769 C155.19392,0.339902531 155.209655,0.166825717 155.241125,5.00849362e-14 Z M164.940745,1.02482467e-11 L169.458495,1.02482467e-11 C169.489965,0.166825717 169.5057,0.339902531 169.5057,0.519230769 C169.5057,1.19872135 169.276855,1.78204885 168.819157,2.26923077 C168.36146,2.75641269 167.821619,3 167.19962,3 C166.577621,3 166.03778,2.75641269 165.580083,2.26923077 C165.122385,1.78204885 164.89354,1.19872135 164.89354,0.519230769 C164.89354,0.339902531 164.909275,0.166825717 164.940745,5.00849362e-14 Z M174.640365,1.02482467e-11 L179.157502,1.02482467e-11 C179.189381,0.166825717 179.20532,0.339902531 179.20532,0.519230769 C179.20532,1.21154192 178.973541,1.79807452 178.509975,2.27884615 C178.04641,2.75961779 177.509503,3 176.89924,3 C176.277241,3 175.7374,2.75641269 175.279703,2.26923077 C174.822005,1.78204885 174.59316,1.19872135 174.59316,0.519230769 C174.59316,0.339902531 174.608895,0.166825717 174.640365,1.01236658e-11 Z M184.339985,1.02482467e-11 L188.857122,1.02482467e-11 C188.889001,0.166825717 188.90494,0.339902531 188.90494,0.519230769 C188.90494,1.21154192 188.673161,1.79807452 188.209595,2.27884615 C187.74603,2.75961779 187.209123,3 186.59886,3 C185.976861,3 185.43702,2.75641269 184.979323,2.26923077 C184.521625,1.78204885 184.29278,1.19872135 184.29278,0.519230769 C184.29278,0.339902531 184.308515,0.166825717 184.339985,5.00849362e-14 Z M194.039605,1.02482467e-11 L198.557355,1.02482467e-11 C198.588825,0.166825717 198.60456,0.339902531 198.60456,0.519230769 C198.60456,1.19872135 198.375715,1.78204885 197.918017,2.26923077 C197.46032,2.75641269 196.920479,3 196.29848,3 C195.676481,3 195.13664,2.75641269 194.678943,2.26923077 C194.221245,1.78204885 193.9924,1.19872135 193.9924,0.519230769 C193.9924,0.339902531 194.008135,0.166825717 194.039605,1.0199383e-11 Z M203.739225,1.02482467e-11 L208.256362,1.02482467e-11 C208.288241,0.166825717 208.30418,0.339902531 208.30418,0.519230769 C208.30418,1.21154192 208.072401,1.79807452 207.608835,2.27884615 C207.14527,2.75961779 206.608363,3 205.9981,3 C205.376101,3 204.83626,2.75641269 204.378563,2.26923077 C203.920865,1.78204885 203.69202,1.19872135 203.69202,0.519230769 C203.69202,0.339902531 203.707755,0.166825717 203.739225,5.00849362e-14 Z M213.438845,1.02482467e-11 L217.955982,1.02482467e-11 C217.987861,0.166825717 218.0038,0.339902531 218.0038,0.519230769 C218.0038,1.21154192 217.772021,1.79807452 217.308455,2.27884615 C216.84489,2.75961779 216.307983,3 215.69772,3 C215.075721,3 214.53588,2.75641269 214.078183,2.26923077 C213.620485,1.78204885 213.39164,1.19872135 213.39164,0.519230769 C213.39164,0.339902531 213.407375,0.166825717 213.438845,9.90914295e-12 Z M223.138465,1.02482467e-11 L227.656215,1.02482467e-11 C227.687685,0.166825717 227.70342,0.339902531 227.70342,0.519230769 C227.70342,1.19872135 227.474575,1.78204885 227.016877,2.26923077 C226.55918,2.75641269 226.019339,3 225.39734,3 C224.775341,3 224.2355,2.75641269 223.777803,2.26923077 C223.320105,1.78204885 223.09126,1.19872135 223.09126,0.519230769 C223.09126,0.339902531 223.106995,0.166825717 223.138465,1.0199383e-11 Z M232.838085,1.02482467e-11 L237.355222,1.02482467e-11 C237.387101,0.166825717 237.40304,0.339902531 237.40304,0.519230769 C237.40304,1.21154192 237.171261,1.79807452 236.707695,2.27884615 C236.24413,2.75961779 235.707223,3 235.09696,3 C234.474961,3 233.93512,2.75641269 233.477423,2.26923077 C233.019725,1.78204885 232.79088,1.19872135 232.79088,0.519230769 C232.79088,0.339902531 232.806615,0.166825717 232.838085,1.02237663e-11 Z M242.537705,1.02482467e-11 L247.054842,1.02482467e-11 C247.086721,0.166825717 247.10266,0.339902531 247.10266,0.519230769 C247.10266,1.21154192 246.870881,1.79807452 246.407315,2.27884615 C245.94375,2.75961779 245.406843,3 244.79658,3 C244.174581,3 243.63474,2.75641269 243.177043,2.26923077 C242.719345,1.78204885 242.4905,1.19872135 242.4905,0.519230769 C242.4905,0.339902531 242.506235,0.166825717 242.537705,5.00849362e-14 Z M252.237325,1.02482467e-11 L256.755075,1.02482467e-11 C256.786545,0.166825717 256.80228,0.339902531 256.80228,0.519230769 C256.80228,1.19872135 256.573435,1.78204885 256.115737,2.26923077 C255.65804,2.75641269 255.118199,3 254.4962,3 C253.874201,3 253.33436,2.75641269 252.876663,2.26923077 C252.418965,1.78204885 252.19012,1.19872135 252.19012,0.519230769 C252.19012,0.339902531 252.205855,0.166825717 252.237325,5.00849362e-14 Z M261.936945,1.02482467e-11 L266.454082,1.02482467e-11 C266.485961,0.166825717 266.5019,0.339902531 266.5019,0.519230769 C266.5019,1.21154192 266.270121,1.79807452 265.806555,2.27884615 C265.34299,2.75961779 264.806083,3 264.19582,3 C263.573821,3 263.03398,2.75641269 262.576283,2.26923077 C262.118585,1.78204885 261.88974,1.19872135 261.88974,0.519230769 C261.88974,0.339902531 261.905475,0.166825717 261.936945,9.83035875e-12 Z M271.636565,1.02482467e-11 L276.153702,1.02482467e-11 C276.185581,0.166825717 276.20152,0.339902531 276.20152,0.519230769 C276.20152,1.21154192 275.969741,1.79807452 275.506175,2.27884615 C275.04261,2.75961779 274.505703,3 273.89544,3 C273.273441,3 272.7336,2.75641269 272.275903,2.26923077 C271.818205,1.78204885 271.58936,1.19872135 271.58936,0.519230769 C271.58936,0.339902531 271.605095,0.166825717 271.636565,9.98305605e-12 Z M281.336185,1.02482467e-11 L285.853935,1.02482467e-11 C285.885405,0.166825717 285.90114,0.339902531 285.90114,0.519230769 C285.90114,1.19872135 285.672295,1.78204885 285.214597,2.26923077 C284.756899,2.75641269 284.217059,3 283.59506,3 C282.97306,3 282.43322,2.75641269 281.975523,2.26923077 C281.517825,1.78204885 281.28898,1.19872135 281.28898,0.519230769 C281.28898,0.339902531 281.304715,0.166825717 281.336185,5.00849362e-14 Z M291.035805,1.02482467e-11 L295.552942,1.02482467e-11 C295.584821,0.166825717 295.60076,0.339902531 295.60076,0.519230769 C295.60076,1.21154192 295.368981,1.79807452 294.905415,2.27884615 C294.44185,2.75961779 293.904943,3 293.29468,3 C292.67268,3 292.13284,2.75641269 291.675143,2.26923077 C291.217445,1.78204885 290.9886,1.19872135 290.9886,0.519230769 C290.9886,0.339902531 291.004335,0.166825717 291.035805,5.00849362e-14 Z M300.735425,1.02482467e-11 L305.252562,1.02482467e-11 C305.284441,0.166825717 305.30038,0.339902531 305.30038,0.519230769 C305.30038,1.21154192 305.068601,1.79807452 304.605035,2.27884615 C304.14147,2.75961779 303.604563,3 302.9943,3 C302.3723,3 301.83246,2.75641269 301.374762,2.26923077 C300.917065,1.78204885 300.68822,1.19872135 300.68822,0.519230769 C300.68822,0.339902531 300.703955,0.166825717 300.735425,9.68744529e-12 Z M310.435045,1.02482467e-11 L314.952795,1.02482467e-11 C314.984265,0.166825717 315,0.339902531 315,0.519230769 C315,1.19872135 314.771155,1.78204885 314.313457,2.26923077 C313.855759,2.75641269 313.315919,3 312.69392,3 C312.07192,3 311.53208,2.75641269 311.074382,2.26923077 C310.616685,1.78204885 310.387839,1.19872135 310.387839,0.519230769 C310.387839,0.339902531 310.403575,0.166825717 310.435045,9.83262083e-12 Z" id="Rectangle-2" fill="#FFFFFF"></path>
    </g>
</svg>