<?xml version="1.0" encoding="UTF-8"?>
<svg width="320px" height="526px" viewBox="0 0 320 526" version="1.1" xmlns="http://www.w3.org/2000/svg" xmlns:xlink="http://www.w3.org/1999/xlink">
    <!-- Generator: Sketch 54.1 (76490) - https://sketchapp.com -->
    <title>maplink</title>
    <desc>Created with Sketch.</desc>
    <defs>
        <linearGradient x1="28.347926%" y1="0%" x2="28.347926%" y2="100%" id="linearGradient-1">
            <stop stop-color="#F50057" offset="0%"></stop>
            <stop stop-color="#D500F9" offset="27.0323562%"></stop>
            <stop stop-color="#651FFF" offset="76.6351303%"></stop>
            <stop stop-color="#3D5AFE" offset="100%"></stop>
        </linearGradient>
    </defs>
    <g id="maplink" stroke="none" stroke-width="1" fill="none" fill-rule="evenodd">
        <rect fill="#FFFFFF" x="0" y="0" width="320" height="526"></rect>
        <g id="1" transform="translate(60.000000, 100.000000)">
            <text id="Chanchan" font-family="SFCompactDisplay-Semibold, SF Compact Display" font-size="20" font-weight="500" line-spacing="20" letter-spacing="-1" fill="#343D51">
                <tspan x="0" y="19">Chanchan</tspan>
            </text>
            <text id="—-Giới-thiệu-về-Chan" font-family="Georgia-Italic, Georgia" font-size="14" font-style="italic" font-weight="normal" line-spacing="22" fill="#5D6A80">
                <tspan x="0" y="45">— Giới thiệu về Chanchan</tspan>
            </text>
            <text id="……………………………………………………" font-family="Georgia-Italic, Georgia" font-size="14" font-style="italic" font-weight="normal" line-spacing="22" fill="#DADFE7">
                <tspan x="0" y="79">……………………………………………………</tspan>
            </text>
        </g>
        <g id="2" transform="translate(60.000000, 212.000000)">
            <text id="Blog" font-family="SFCompactDisplay-Semibold, SF Compact Display" font-size="20" font-weight="500" line-spacing="20" letter-spacing="-1" fill="#343D51">
                <tspan x="0" y="19">Blog</tspan>
            </text>
            <text id="—-Hiểu-thêm-về-Chanc" font-family="Georgia-Italic, Georgia" font-size="14" font-style="italic" font-weight="normal" line-spacing="22" fill="#5D6A80">
                <tspan x="0" y="45">— Hiểu thêm về Chanchan qua </tspan>
                <tspan x="0" y="67">những bài viết</tspan>
            </text>
            <text id="……………………………………………………" font-family="Georgia-Italic, Georgia" font-size="14" font-style="italic" font-weight="normal" line-spacing="22" fill="#DADFE7">
                <tspan x="0" y="101">…………………………………………………….</tspan>
            </text>
        </g>
        <g id="3" transform="translate(30.000000, 346.000000)">
            <text id="Đăng-ký" font-family="SFCompactDisplay-Semibold, SF Compact Display" font-size="20" font-weight="500" line-spacing="20" letter-spacing="-1" fill="#343D51">
                <tspan x="30" y="19">Đăng ký</tspan>
            </text>
            <text id="—-Đăng-ký-Thành-viên" font-family="Georgia-Italic, Georgia" font-size="14" font-style="italic" font-weight="normal" line-spacing="22" fill="#5D6A80">
                <tspan x="30" y="45">— Đăng ký Thành viên mới</tspan>
            </text>
            <text id="……………………………………………………" font-family="Georgia-Italic, Georgia" font-size="14" font-style="italic" font-weight="normal" line-spacing="22" fill="#DADFE7">
                <tspan x="0" y="79">……………………………………………………………</tspan>
            </text>
        </g>
        <text id="Chanchan-là-một-sản" font-family="SFCompactDisplay-Regular, SF Compact Display" font-size="15" font-weight="normal" line-spacing="22" fill="#8C96A8">
            <tspan x="30" y="464">Chanchan là một sản phẩm công nghệ </tspan>
            <tspan x="30" y="486">của Mastercus Vietnam .ltd</tspan>
        </text>
        <text id="“-Tìm-hiểu-thêm-về-C" font-family="Georgia-Italic, Georgia" font-size="15" font-style="italic" font-weight="normal" line-spacing="22" fill="#343D51">
            <tspan x="30" y="56">“ Tìm hiểu thêm về Chanchan</tspan>
        </text>
        <path d="M43.8303677,112.834786 C43.8303677,113.305335 43.6983374,113.647786 43.4342728,113.862147 C43.1702083,114.076509 42.8362493,114.183688 42.4323858,114.183688 C42.1734989,114.183688 41.6376112,114.068666 40.8247065,113.83862 C40.0118018,113.608574 39.1497216,113.436041 38.2384399,113.321018 C38.8390574,114.115724 39.5017978,114.863364 40.2266809,115.56396 C40.9515641,116.264556 41.3140002,116.860577 41.3140002,117.352039 C41.3140002,117.697109 41.1638481,117.997734 40.8635394,118.253922 C40.5632306,118.51011 40.2473934,118.638202 39.9160183,118.638202 C39.6881978,118.638202 39.4759138,118.572849 39.2791598,118.442141 C39.0824058,118.311432 38.9115431,118.125829 38.7665664,117.885326 C38.6423007,117.65528 38.4740268,117.132455 38.2617396,116.316835 C38.0494524,115.501216 37.76727,114.664696 37.4151839,113.80725 C37.0734532,114.622869 36.788682,115.462004 36.5608616,116.324678 C36.3330411,117.187352 36.167356,117.707563 36.0638013,117.885326 C35.8981137,118.146743 35.7298398,118.337574 35.5589745,118.457825 C35.3881092,118.578077 35.1732363,118.638202 34.9143495,118.638202 C34.5726188,118.638202 34.2541928,118.515338 33.9590618,118.269607 C33.6639308,118.023875 33.5163675,117.718022 33.5163675,117.352039 C33.5163675,116.860577 33.8788037,116.264556 34.6036868,115.56396 C35.32857,114.863364 35.9913104,114.115724 36.5919278,113.321018 C35.722068,113.425585 34.8677543,113.595503 34.0289609,113.830778 C33.1901675,114.066052 32.6465133,114.183688 32.397982,114.183688 C31.9941185,114.183688 31.6601595,114.076509 31.3960949,113.862147 C31.1320303,113.647786 31,113.305335 31,112.834786 C31,112.406063 31.1320303,112.074069 31.3960949,111.838794 C31.6601595,111.603519 31.9941185,111.485884 32.397982,111.485884 C32.7190016,111.485884 33.2341787,111.593063 33.9435287,111.807424 C34.6528786,112.021786 35.5356695,112.191704 36.5919278,112.317184 C35.9084666,111.438825 35.2250156,110.667658 34.5415543,110.00366 C33.858093,109.339662 33.5163675,108.767169 33.5163675,108.286162 C33.5163675,107.941093 33.6665196,107.640468 33.9668284,107.38428 C34.2671371,107.128092 34.5829743,107 34.9143495,107 C35.1525254,107 35.3673982,107.062739 35.5589745,107.188219 C35.7505508,107.313699 35.9188247,107.496688 36.0638013,107.737191 C36.188067,107.967237 36.3589297,108.49529 36.5763947,109.321366 C36.7938596,110.147442 37.0734532,110.983962 37.4151839,111.830952 C37.7569145,110.973506 38.0390969,110.131757 38.2617396,109.305682 C38.4843823,108.479606 38.6526562,107.95678 38.7665664,107.737191 C38.8908321,107.517601 39.0539284,107.33984 39.2558601,107.203904 C39.4577918,107.067967 39.6778424,107 39.9160183,107 C40.2577489,107 40.5761749,107.122864 40.8713059,107.368595 C41.1664369,107.614327 41.3140002,107.920179 41.3140002,108.286162 C41.3140002,108.767169 40.9903965,109.329206 40.3431794,109.97229 C39.6959623,110.615375 38.9995671,111.396998 38.253973,112.317184 C39.2895204,112.181247 40.177489,112.008715 40.9179053,111.799582 C41.6583217,111.590449 42.1631435,111.485884 42.4323858,111.485884 C42.8362493,111.485884 43.1702083,111.603519 43.4342728,111.838794 C43.6983374,112.074069 43.8303677,112.406063 43.8303677,112.834786 Z M44,359.215597 C44,359.684605 43.8689218,360.025934 43.6067616,360.239593 C43.3446013,360.453252 43.0130506,360.56008 42.6120996,360.56008 C42.3550798,360.56008 41.8230566,360.445435 41.0160142,360.216143 C40.2089718,359.98685 39.3531085,359.814883 38.4483986,359.700236 C39.0446847,360.492339 39.7026457,361.237529 40.4223013,361.93583 C41.1419569,362.634131 41.5017794,363.228198 41.5017794,363.718051 C41.5017794,364.06199 41.3527101,364.36163 41.054567,364.616979 C40.756424,364.872328 40.4428644,365 40.113879,365 C39.8877015,365 39.6769484,364.934861 39.4816133,364.804581 C39.2862782,364.674301 39.1166476,364.489306 38.9727165,364.249591 C38.849347,364.020298 38.6822865,363.499186 38.4715302,362.686239 C38.260774,361.873292 37.9806265,361.039512 37.6310795,360.184875 C37.2918133,360.997823 37.0090956,361.834208 36.7829181,362.694056 C36.5567407,363.553904 36.3922504,364.07241 36.2894425,364.249591 C36.1249498,364.510151 35.9578893,364.700357 35.7882562,364.820215 C35.6186231,364.940072 35.4052998,365 35.14828,365 C34.8090137,365 34.492884,364.877539 34.1998814,364.632612 C33.9068787,364.387686 33.7603796,364.082835 33.7603796,363.718051 C33.7603796,363.228198 34.120202,362.634131 34.8398577,361.93583 C35.5595133,361.237529 36.2174743,360.492339 36.8137604,359.700236 C35.9501736,359.80446 35.1020208,359.973822 34.2692764,360.208326 C33.436532,360.44283 32.8967984,360.56008 32.6500593,360.56008 C32.2491083,360.56008 31.9175577,360.453252 31.6553974,360.239593 C31.3932371,360.025934 31.262159,359.684605 31.262159,359.215597 C31.262159,358.788279 31.3932371,358.457373 31.6553974,358.222869 C31.9175577,357.988365 32.2491083,357.871114 32.6500593,357.871114 C32.968764,357.871114 33.4802258,357.977942 34.1844603,358.191602 C34.8886947,358.405261 35.7651193,358.574622 36.8137604,358.699691 C36.1352279,357.824209 35.4567056,357.055569 34.7781732,356.393747 C34.0996407,355.731924 33.7603796,355.161306 33.7603796,354.681876 C33.7603796,354.337937 33.9094489,354.038297 34.2075919,353.782949 C34.505735,353.5276 34.8192945,353.399927 35.14828,353.399927 C35.3847382,353.399927 35.5980615,353.462461 35.7882562,353.58753 C35.9784509,353.712598 36.1455113,353.894988 36.2894425,354.134703 C36.412812,354.363996 36.5824426,354.890319 36.7983393,355.713688 C37.014236,356.537058 37.2918133,357.370837 37.6310795,358.215052 C37.9703457,357.360415 38.2504932,356.521424 38.4715302,355.698055 C38.6925673,354.874685 38.8596277,354.353573 38.9727165,354.134703 C39.096086,353.915832 39.2580061,353.738654 39.4584816,353.603163 C39.6589571,353.467672 39.8774207,353.399927 40.113879,353.399927 C40.4531452,353.399927 40.7692749,353.522389 41.0622776,353.767315 C41.3552802,354.012241 41.5017794,354.317092 41.5017794,354.681876 C41.5017794,355.161306 41.1805093,355.721502 40.5379597,356.36248 C39.89541,357.003457 39.2040369,357.78252 38.4638197,358.699691 C39.4918992,358.5642 40.3734641,358.392233 41.1085409,358.183785 C41.8436178,357.975337 42.344799,357.871114 42.6120996,357.871114 C43.0130506,357.871114 43.3446013,357.988365 43.6067616,358.222869 C43.8689218,358.457373 44,358.788279 44,359.215597 Z M43.8303677,225.264208 C43.8303677,225.734758 43.6983374,226.077208 43.4342728,226.29157 C43.1702083,226.505931 42.8362493,226.61311 42.4323858,226.61311 C42.1734989,226.61311 41.6376112,226.498089 40.8247065,226.268042 C40.0118018,226.037996 39.1497216,225.865463 38.2384399,225.75044 C38.8390574,226.545146 39.5017978,227.292786 40.2266809,227.993382 C40.9515641,228.693978 41.3140002,229.289999 41.3140002,229.781462 C41.3140002,230.126531 41.1638481,230.427156 40.8635394,230.683344 C40.5632306,230.939532 40.2473934,231.067624 39.9160183,231.067624 C39.6881978,231.067624 39.4759138,231.002271 39.2791598,230.871563 C39.0824058,230.740854 38.9115431,230.555252 38.7665664,230.314748 C38.6423007,230.084702 38.4740268,229.561877 38.2617396,228.746258 C38.0494524,227.930638 37.76727,227.094118 37.4151839,226.236672 C37.0734532,227.052292 36.788682,227.891426 36.5608616,228.7541 C36.3330411,229.616774 36.167356,230.136985 36.0638013,230.314748 C35.8981137,230.576165 35.7298398,230.766996 35.5589745,230.887248 C35.3881092,231.007499 35.1732363,231.067624 34.9143495,231.067624 C34.5726188,231.067624 34.2541928,230.94476 33.9590618,230.699029 C33.6639308,230.453297 33.5163675,230.147445 33.5163675,229.781462 C33.5163675,229.289999 33.8788037,228.693978 34.6036868,227.993382 C35.32857,227.292786 35.9913104,226.545146 36.5919278,225.75044 C35.722068,225.855007 34.8677543,226.024925 34.0289609,226.2602 C33.1901675,226.495474 32.6465133,226.61311 32.397982,226.61311 C31.9941185,226.61311 31.6601595,226.505931 31.3960949,226.29157 C31.1320303,226.077208 31,225.734758 31,225.264208 C31,224.835485 31.1320303,224.503491 31.3960949,224.268216 C31.6601595,224.032942 31.9941185,223.915306 32.397982,223.915306 C32.7190016,223.915306 33.2341787,224.022485 33.9435287,224.236847 C34.6528786,224.451208 35.5356695,224.621126 36.5919278,224.746606 C35.9084666,223.868247 35.2250156,223.09708 34.5415543,222.433082 C33.858093,221.769084 33.5163675,221.196591 33.5163675,220.715585 C33.5163675,220.370515 33.6665196,220.069891 33.9668284,219.813702 C34.2671371,219.557514 34.5829743,219.429422 34.9143495,219.429422 C35.1525254,219.429422 35.3673982,219.492161 35.5589745,219.617641 C35.7505508,219.743121 35.9188247,219.92611 36.0638013,220.166613 C36.188067,220.396659 36.3589297,220.924713 36.5763947,221.750789 C36.7938596,222.576865 37.0734532,223.413385 37.4151839,224.260374 C37.7569145,223.402928 38.0390969,222.56118 38.2617396,221.735104 C38.4843823,220.909028 38.6526562,220.386203 38.7665664,220.166613 C38.8908321,219.947023 39.0539284,219.769263 39.2558601,219.633326 C39.4577918,219.497389 39.6778424,219.429422 39.9160183,219.429422 C40.2577489,219.429422 40.5761749,219.552286 40.8713059,219.798018 C41.1664369,220.043749 41.3140002,220.349602 41.3140002,220.715585 C41.3140002,221.196591 40.9903965,221.758628 40.3431794,222.401712 C39.6959623,223.044797 38.9995671,223.82642 38.253973,224.746606 C39.2895204,224.61067 40.177489,224.438137 40.9179053,224.229004 C41.6583217,224.019871 42.1631435,223.915306 42.4323858,223.915306 C42.8362493,223.915306 43.1702083,224.032942 43.4342728,224.268216 C43.6983374,224.503491 43.8303677,224.835485 43.8303677,225.264208 Z" id="*-2" fill="url(#linearGradient-1)" fill-rule="nonzero"></path>
    </g>
</svg>