<?xml version="1.0" encoding="UTF-8"?>
<svg width="320px" height="532px" viewBox="0 0 320 532" version="1.1" xmlns="http://www.w3.org/2000/svg" xmlns:xlink="http://www.w3.org/1999/xlink">
    <!-- Generator: Sketch 54.1 (76490) - https://sketchapp.com -->
    <title>maplink_grey</title>
    <desc>Created with Sketch.</desc>
    <defs>
        <linearGradient x1="46.3203991%" y1="100%" x2="46.3203915%" y2="0%" id="linearGradient-1">
            <stop stop-color="#F50057" offset="0%"></stop>
            <stop stop-color="#D500F9" offset="27.0323562%"></stop>
            <stop stop-color="#651FFF" offset="76.6351303%"></stop>
            <stop stop-color="#3D5AFE" offset="100%"></stop>
        </linearGradient>
    </defs>
    <g id="maplink_grey" stroke="none" stroke-width="1" fill="none" fill-rule="evenodd">
        <rect fill="#F0F6FA" x="0" y="0" width="320" height="532"></rect>
        <text id="Chúng-tôi-tin-rằng-n" opacity="0.270654" font-family="SFCompactDisplay-Regular, SF Compact Display" font-size="15" font-weight="normal" line-spacing="15" letter-spacing="30" fill="#8C96A8">
            <tspan x="-63" y="23">chúng tôi </tspan>
            <tspan x="-63" y="38">tin rằng nếu </tspan>
            <tspan x="-63" y="53">yêu thương </tspan>
            <tspan x="-63" y="68">là một khả </tspan>
            <tspan x="-63" y="83">năng mà ai t</tspan>
        </text>
        <g id="1" transform="translate(60.000000, 106.000000)">
            <text id="Chanchan" font-family="SFCompactDisplay-Semibold, SF Compact Display" font-size="20" font-weight="500" line-spacing="20" letter-spacing="-1" fill="#343D51">
                <tspan x="0" y="19">Chanchan</tspan>
            </text>
            <text id="—-Giới-thiệu-về-Chan" font-family="Georgia-Italic, Georgia" font-size="14" font-style="italic" font-weight="normal" line-spacing="22" fill="#5D6A80">
                <tspan x="0" y="45">— Giới thiệu về Chanchan</tspan>
            </text>
            <text id="……………………………………………………" font-family="Georgia-Italic, Georgia" font-size="14" font-style="italic" font-weight="normal" line-spacing="22" fill="#DADFE7">
                <tspan x="0" y="79">……………………………………………………</tspan>
            </text>
        </g>
        <g id="2" transform="translate(60.000000, 218.000000)">
            <text id="Blog" font-family="SFCompactDisplay-Semibold, SF Compact Display" font-size="20" font-weight="500" line-spacing="20" letter-spacing="-1" fill="#343D51">
                <tspan x="0" y="19">Blog</tspan>
            </text>
            <text id="—-Hiểu-thêm-về-Chanc" font-family="Georgia-Italic, Georgia" font-size="14" font-style="italic" font-weight="normal" line-spacing="22" fill="#5D6A80">
                <tspan x="0" y="45">— Hiểu thêm về Chanchan qua </tspan>
                <tspan x="0" y="67">những bài viết</tspan>
            </text>
            <text id="……………………………………………………" font-family="Georgia-Italic, Georgia" font-size="14" font-style="italic" font-weight="normal" line-spacing="22" fill="#DADFE7">
                <tspan x="0" y="101">…………………………………………………….</tspan>
            </text>
        </g>
        <g id="3" transform="translate(30.000000, 352.000000)">
            <text id="Đăng-ký" font-family="SFCompactDisplay-Semibold, SF Compact Display" font-size="20" font-weight="500" line-spacing="20" letter-spacing="-1" fill="#343D51">
                <tspan x="30" y="19">Đăng ký</tspan>
            </text>
            <text id="—-Đăng-ký-Thành-viên" font-family="Georgia-Italic, Georgia" font-size="14" font-style="italic" font-weight="normal" line-spacing="22" fill="#5D6A80">
                <tspan x="30" y="45">— Đăng ký Thành viên mới</tspan>
            </text>
            <text id="……………………………………………………" font-family="Georgia-Italic, Georgia" font-size="14" font-style="italic" font-weight="normal" line-spacing="22" fill="#DADFE7">
                <tspan x="0" y="79">……………………………………………………………</tspan>
            </text>
        </g>
        <text id="Chanchan-là-một-sản" font-family="SFCompactDisplay-Regular, SF Compact Display" font-size="15" font-weight="normal" line-spacing="22" fill="#8C96A8">
            <tspan x="30" y="470">Chanchan là một sản phẩm công nghệ </tspan>
            <tspan x="30" y="492">của Mastercus Vietnam .ltd</tspan>
        </text>
        <path d="M3.04720534,1.0003845e-11 C3.01573507,0.166825717 3,0.339902531 3,0.519230769 C3,1.19872135 3.22884537,1.78204885 3.68654298,2.26923077 C4.14424058,2.75641269 4.68408094,3 5.30608025,3 C5.91634372,3 6.45325017,2.75961779 6.91681569,2.27884615 C7.38038122,1.79807452 7.6121605,1.21154192 7.6121605,0.519230769 C7.6121605,0.339902531 7.59622108,0.166825717 7.5643421,1.00044556e-11 L12.7468253,1.00044417e-11 C12.7153551,0.166825717 12.69962,0.339902531 12.69962,0.519230769 C12.69962,1.19872135 12.9284654,1.78204885 13.386163,2.26923077 C13.8438606,2.75641269 14.3837009,3 15.0057002,3 C15.6159637,3 16.1528702,2.75961779 16.6164357,2.27884615 C17.0800012,1.79807452 17.3117805,1.21154192 17.3117805,0.519230769 C17.3117805,0.339902531 17.2958411,0.166825717 17.2639621,1.00042336e-11 L22.4464453,1.00044417e-11 C22.414975,0.166825717 22.39924,0.339902531 22.39924,0.519230769 C22.39924,1.19872135 22.6280853,1.78204885 23.0857829,2.26923077 C23.5434805,2.75641269 24.0833209,3 24.7053202,3 C25.3273195,3 25.8671599,2.75641269 26.3248575,2.26923077 C26.7825551,1.78204885 27.0114005,1.19872135 27.0114005,0.519230769 C27.0114005,0.339902531 26.9956654,0.166825717 26.9641951,1.00042336e-11 L32.1460653,1.00044417e-11 C32.114595,0.166825717 32.09886,0.339902531 32.09886,0.519230769 C32.09886,1.19872135 32.3277053,1.78204885 32.7854029,2.26923077 C33.2431005,2.75641269 33.7829409,3 34.4049402,3 C35.0152037,3 35.5521101,2.75961779 36.0156756,2.27884615 C36.4792412,1.79807452 36.7110205,1.21154192 36.7110205,0.519230769 C36.7110205,0.339902531 36.695081,0.166825717 36.6632021,1.00042336e-11 L41.8456853,1.00044417e-11 C41.814215,0.166825717 41.7984799,0.339902531 41.7984799,0.519230769 C41.7984799,1.19872135 42.0273253,1.78204885 42.4850229,2.26923077 C42.9427205,2.75641269 43.4825609,3 44.1045602,3 C44.7148237,3 45.2517301,2.75961779 45.7152956,2.27884615 C46.1788612,1.79807452 46.4106404,1.21154192 46.4106404,0.519230769 C46.4106404,0.339902531 46.394701,0.166825717 46.362822,1.00042336e-11 L51.5453053,1.00044417e-11 C51.513835,0.166825717 51.4980999,0.339902531 51.4980999,0.519230769 C51.4980999,1.19872135 51.7269453,1.78204885 52.1846429,2.26923077 C52.6423405,2.75641269 53.1821809,3 53.8041802,3 C54.4261795,3 54.9660198,2.75641269 55.4237174,2.26923077 C55.8814151,1.78204885 56.1102604,1.19872135 56.1102604,0.519230769 C56.1102604,0.339902531 56.0945254,0.166825717 56.0630551,1.00042336e-11 L61.2449252,1.00044417e-11 C61.213455,0.166825717 61.1977199,0.339902531 61.1977199,0.519230769 C61.1977199,1.19872135 61.4265653,1.78204885 61.8842629,2.26923077 C62.3419605,2.75641269 62.8818008,3 63.5038002,3 C64.1140636,3 64.6509701,2.75961779 65.1145356,2.27884615 C65.5781011,1.79807452 65.8098804,1.21154192 65.8098804,0.519230769 C65.8098804,0.339902531 65.793941,0.166825717 65.762062,1.00044556e-11 L70.9445452,1.00044417e-11 C70.913075,0.166825717 70.8973399,0.339902531 70.8973399,0.519230769 C70.8973399,1.19872135 71.1261853,1.78204885 71.5838829,2.26923077 C72.0415805,2.75641269 72.5814208,3 73.2034201,3 C73.8136836,3 74.3505901,2.75961779 74.8141556,2.27884615 C75.2777211,1.79807452 75.5095004,1.21154192 75.5095004,0.519230769 C75.5095004,0.339902531 75.493561,0.166825717 75.461682,1.00044556e-11 L80.6441652,1.00044417e-11 C80.6126949,0.166825717 80.5969599,0.339902531 80.5969599,0.519230769 C80.5969599,1.19872135 80.8258052,1.78204885 81.2835029,2.26923077 C81.7412005,2.75641269 82.2810408,3 82.9030401,3 C83.5250394,3 84.0648798,2.75641269 84.5225774,2.26923077 C84.980275,1.78204885 85.2091204,1.19872135 85.2091204,0.519230769 C85.2091204,0.339902531 85.1933853,0.166825717 85.161915,1.00042336e-11 L90.3437852,1.00044417e-11 C90.3123149,0.166825717 90.2965799,0.339902531 90.2965799,0.519230769 C90.2965799,1.19872135 90.5254252,1.78204885 90.9831228,2.26923077 C91.4408204,2.75641269 91.9806608,3 92.6026601,3 C93.2129236,3 93.74983,2.75961779 94.2133956,2.27884615 C94.6769611,1.79807452 94.9087404,1.21154192 94.9087404,0.519230769 C94.9087404,0.339902531 94.8928009,0.166825717 94.860922,1.00042336e-11 L100.043405,1.00044417e-11 C100.011935,0.166825717 99.9961998,0.339902531 99.9961998,0.519230769 C99.9961998,1.19872135 100.225045,1.78204885 100.682743,2.26923077 C101.14044,2.75641269 101.680281,3 102.30228,3 C102.912544,3 103.44945,2.75961779 103.913016,2.27884615 C104.376581,1.79807452 104.60836,1.21154192 104.60836,0.519230769 C104.60836,0.339902531 104.592421,0.166825717 104.560542,1.00042336e-11 L109.743025,1.00044417e-11 C109.711555,0.166825717 109.69582,0.339902531 109.69582,0.519230769 C109.69582,1.19872135 109.924665,1.78204885 110.382363,2.26923077 C110.84006,2.75641269 111.379901,3 112.0019,3 C112.623899,3 113.16374,2.75641269 113.621437,2.26923077 C114.079135,1.78204885 114.30798,1.19872135 114.30798,0.519230769 C114.30798,0.339902531 114.292245,0.166825717 114.260775,9.9962677e-12 L119.442645,1.00044417e-11 C119.411175,0.166825717 119.39544,0.339902531 119.39544,0.519230769 C119.39544,1.19872135 119.624285,1.78204885 120.081983,2.26923077 C120.53968,2.75641269 121.079521,3 121.70152,3 C122.311784,3 122.84869,2.75961779 123.312256,2.27884615 C123.775821,1.79807452 124.0076,1.21154192 124.0076,0.519230769 C124.0076,0.339902531 123.991661,0.166825717 123.959782,1.00042336e-11 L129.142265,1.00044417e-11 C129.110795,0.166825717 129.09506,0.339902531 129.09506,0.519230769 C129.09506,1.19872135 129.323905,1.78204885 129.781603,2.26923077 C130.2393,2.75641269 130.779141,3 131.40114,3 C132.011404,3 132.54831,2.75961779 133.011875,2.27884615 C133.475441,1.79807452 133.70722,1.21154192 133.70722,0.519230769 C133.70722,0.339902531 133.691281,0.166825717 133.659402,1.00042336e-11 L138.841885,1.00044417e-11 C138.810415,0.166825717 138.79468,0.339902531 138.79468,0.519230769 C138.79468,1.19872135 139.023525,1.78204885 139.481223,2.26923077 C139.93892,2.75641269 140.478761,3 141.10076,3 C141.722759,3 142.2626,2.75641269 142.720297,2.26923077 C143.177995,1.78204885 143.40684,1.19872135 143.40684,0.519230769 C143.40684,0.339902531 143.391105,0.166825717 143.359635,9.96674965e-12 L148.541505,1.00044417e-11 C148.510035,0.166825717 148.4943,0.339902531 148.4943,0.519230769 C148.4943,1.19872135 148.723145,1.78204885 149.180843,2.26923077 C149.63854,2.75641269 150.178381,3 150.80038,3 C151.410643,3 151.94755,2.75961779 152.411115,2.27884615 C152.874681,1.79807452 153.10646,1.21154192 153.10646,0.519230769 C153.10646,0.339902531 153.090521,0.166825717 153.058642,1.00042336e-11 L158.241125,1.00044417e-11 C158.209655,0.166825717 158.19392,0.339902531 158.19392,0.519230769 C158.19392,1.19872135 158.422765,1.78204885 158.880463,2.26923077 C159.33816,2.75641269 159.878001,3 160.5,3 C161.110263,3 161.64717,2.75961779 162.110735,2.27884615 C162.574301,1.79807452 162.80608,1.21154192 162.80608,0.519230769 C162.80608,0.339902531 162.790141,0.166825717 162.758262,1.00120329e-11 L167.940745,1.00044417e-11 C167.909275,0.166825717 167.89354,0.339902531 167.89354,0.519230769 C167.89354,1.19872135 168.122385,1.78204885 168.580083,2.26923077 C169.03778,2.75641269 169.577621,3 170.19962,3 C170.821619,3 171.36146,2.75641269 171.819157,2.26923077 C172.276855,1.78204885 172.5057,1.19872135 172.5057,0.519230769 C172.5057,0.339902531 172.489965,0.166825717 172.458495,9.96674965e-12 L177.640365,1.00044417e-11 C177.608895,0.166825717 177.59316,0.339902531 177.59316,0.519230769 C177.59316,1.19872135 177.822005,1.78204885 178.279703,2.26923077 C178.7374,2.75641269 179.277241,3 179.89924,3 C180.509503,3 181.04641,2.75961779 181.509975,2.27884615 C181.973541,1.79807452 182.20532,1.21154192 182.20532,0.519230769 C182.20532,0.339902531 182.189381,0.166825717 182.157502,1.00044556e-11 L187.339985,1.00044417e-11 C187.308515,0.166825717 187.29278,0.339902531 187.29278,0.519230769 C187.29278,1.19872135 187.521625,1.78204885 187.979323,2.26923077 C188.43702,2.75641269 188.976861,3 189.59886,3 C190.209123,3 190.74603,2.75961779 191.209595,2.27884615 C191.673161,1.79807452 191.90494,1.21154192 191.90494,0.519230769 C191.90494,0.339902531 191.889001,0.166825717 191.857122,1.00042336e-11 L197.039605,1.00044417e-11 C197.008135,0.166825717 196.9924,0.339902531 196.9924,0.519230769 C196.9924,1.19872135 197.221245,1.78204885 197.678943,2.26923077 C198.13664,2.75641269 198.676481,3 199.29848,3 C199.920479,3 200.46032,2.75641269 200.918017,2.26923077 C201.375715,1.78204885 201.60456,1.19872135 201.60456,0.519230769 C201.60456,0.339902531 201.588825,0.166825717 201.557355,9.96674965e-12 L206.739225,1.00044417e-11 C206.707755,0.166825717 206.69202,0.339902531 206.69202,0.519230769 C206.69202,1.19872135 206.920865,1.78204885 207.378563,2.26923077 C207.83626,2.75641269 208.376101,3 208.9981,3 C209.608363,3 210.14527,2.75961779 210.608835,2.27884615 C211.072401,1.79807452 211.30418,1.21154192 211.30418,0.519230769 C211.30418,0.339902531 211.288241,0.166825717 211.256362,1.00042336e-11 L216.438845,1.00044417e-11 C216.407375,0.166825717 216.39164,0.339902531 216.39164,0.519230769 C216.39164,1.19872135 216.620485,1.78204885 217.078183,2.26923077 C217.53588,2.75641269 218.075721,3 218.69772,3 C219.307983,3 219.84489,2.75961779 220.308455,2.27884615 C220.772021,1.79807452 221.0038,1.21154192 221.0038,0.519230769 C221.0038,0.339902531 220.987861,0.166825717 220.955982,1.00042336e-11 L226.138465,1.00044417e-11 C226.106995,0.166825717 226.09126,0.339902531 226.09126,0.519230769 C226.09126,1.19872135 226.320105,1.78204885 226.777803,2.26923077 C227.2355,2.75641269 227.775341,3 228.39734,3 C229.019339,3 229.55918,2.75641269 230.016877,2.26923077 C230.474575,1.78204885 230.70342,1.19872135 230.70342,0.519230769 C230.70342,0.339902531 230.687685,0.166825717 230.656215,1.00042336e-11 L235.838085,1.00044417e-11 C235.806615,0.166825717 235.79088,0.339902531 235.79088,0.519230769 C235.79088,1.19872135 236.019725,1.78204885 236.477423,2.26923077 C236.93512,2.75641269 237.474961,3 238.09696,3 C238.707223,3 239.24413,2.75961779 239.707695,2.27884615 C240.171261,1.79807452 240.40304,1.21154192 240.40304,0.519230769 C240.40304,0.339902531 240.387101,0.166825717 240.355222,1.00223441e-11 L245.537705,1.00044417e-11 C245.506235,0.166825717 245.4905,0.339902531 245.4905,0.519230769 C245.4905,1.19872135 245.719345,1.78204885 246.177043,2.26923077 C246.63474,2.75641269 247.174581,3 247.79658,3 C248.406843,3 248.94375,2.75961779 249.407315,2.27884615 C249.870881,1.79807452 250.10266,1.21154192 250.10266,0.519230769 C250.10266,0.339902531 250.086721,0.166825717 250.054842,1.00120329e-11 L255.237325,1.00044417e-11 C255.205855,0.166825717 255.19012,0.339902531 255.19012,0.519230769 C255.19012,1.19872135 255.418965,1.78204885 255.876663,2.26923077 C256.33436,2.75641269 256.874201,3 257.4962,3 C258.118199,3 258.65804,2.75641269 259.115737,2.26923077 C259.573435,1.78204885 259.80228,1.19872135 259.80228,0.519230769 C259.80228,0.339902531 259.786545,0.166825717 259.755075,1.00042336e-11 L264.936945,1.00044417e-11 C264.905475,0.166825717 264.88974,0.339902531 264.88974,0.519230769 C264.88974,1.19872135 265.118585,1.78204885 265.576283,2.26923077 C266.03398,2.75641269 266.573821,3 267.19582,3 C267.806083,3 268.34299,2.75961779 268.806555,2.27884615 C269.270121,1.79807452 269.5019,1.21154192 269.5019,0.519230769 C269.5019,0.339902531 269.485961,0.166825717 269.454082,9.94844485e-12 L274.636565,1.00044417e-11 C274.605095,0.166825717 274.58936,0.339902531 274.58936,0.519230769 C274.58936,1.19872135 274.818205,1.78204885 275.275903,2.26923077 C275.7336,2.75641269 276.273441,3 276.89544,3 C277.505703,3 278.04261,2.75961779 278.506175,2.27884615 C278.969741,1.79807452 279.20152,1.21154192 279.20152,0.519230769 C279.20152,0.339902531 279.185581,0.166825717 279.153702,1.00044556e-11 L284.336185,1.00044417e-11 C284.304715,0.166825717 284.28898,0.339902531 284.28898,0.519230769 C284.28898,1.19872135 284.517825,1.78204885 284.975523,2.26923077 C285.43322,2.75641269 285.97306,3 286.59506,3 C287.217059,3 287.756899,2.75641269 288.214597,2.26923077 C288.672295,1.78204885 288.90114,1.19872135 288.90114,0.519230769 C288.90114,0.339902531 288.885405,0.166825717 288.853935,1.00042336e-11 L294.035805,1.00044417e-11 C294.004335,0.166825717 293.9886,0.339902531 293.9886,0.519230769 C293.9886,1.19872135 294.217445,1.78204885 294.675143,2.26923077 C295.13284,2.75641269 295.67268,3 296.29468,3 C296.904943,3 297.44185,2.75961779 297.905415,2.27884615 C298.368981,1.79807452 298.60076,1.21154192 298.60076,0.519230769 C298.60076,0.339902531 298.584821,0.166825717 298.552942,1.00044556e-11 L303.735425,1.00044417e-11 C303.703955,0.166825717 303.68822,0.339902531 303.68822,0.519230769 C303.68822,1.19872135 303.917065,1.78204885 304.374762,2.26923077 C304.83246,2.75641269 305.3723,3 305.9943,3 C306.604563,3 307.14147,2.75961779 307.605035,2.27884615 C308.068601,1.79807452 308.30038,1.21154192 308.30038,0.519230769 C308.30038,0.339902531 308.284441,0.166825717 308.252562,1.00042336e-11 L313.435045,1.00044417e-11 C313.403575,0.166825717 313.387839,0.339902531 313.387839,0.519230769 C313.387839,1.19872135 313.616685,1.78204885 314.074382,2.26923077 C314.53208,2.75641269 315.07192,3 315.69392,3 C316.315919,3 316.855759,2.75641269 317.313457,2.26923077 C317.771155,1.78204885 318,1.19872135 318,0.519230769 C318,0.339902531 317.984265,0.166825717 317.952795,1.00044556e-11 L320,1.00044417e-11 L320,9 L0,9 L0,1.00044417e-11 L3.04720534,1.00044417e-11 Z" id="Rectangle-2" fill="#FFFFFF" transform="translate(160.000000, 4.500000) scale(1, -1) translate(-160.000000, -4.500000) "></path>
        <text id="“-Tìm-hiểu-thêm-về-C" font-family="Georgia-Italic, Georgia" font-size="15" font-style="italic" font-weight="normal" line-spacing="22" fill="#343D51">
            <tspan x="30" y="62">“ Tìm hiểu thêm về Chanchan</tspan>
        </text>
        <path d="M44,118.831606 C44,119.301899 43.8662241,119.644162 43.5986683,119.858407 C43.3311125,120.072652 42.9927381,120.179772 42.5835351,120.179772 C42.3212255,120.179772 41.7782527,120.064814 40.9546005,119.834893 C40.1309483,119.604971 39.2574703,119.432533 38.3341404,119.317573 C38.9426988,120.111846 39.6142013,120.859078 40.3486683,121.559292 C41.0831352,122.259506 41.4503632,122.855202 41.4503632,123.346397 C41.4503632,123.691279 41.2982259,123.991739 40.9939467,124.247788 C40.6896676,124.503836 40.3696546,124.631858 40.0338983,124.631858 C39.8030658,124.631858 39.5879752,124.566541 39.3886199,124.435904 C39.1892645,124.305267 39.0161428,124.119765 38.8692494,123.879393 C38.7433408,123.649472 38.5728421,123.126932 38.3577482,122.311757 C38.1426543,121.496583 37.8567411,120.660518 37.5,119.80354 C37.1537513,120.618715 36.865215,121.457391 36.6343826,122.319595 C36.4035501,123.1818 36.2356745,123.701727 36.1307506,123.879393 C35.9628724,124.140667 35.7923737,124.331394 35.6192494,124.45158 C35.446125,124.571766 35.2284113,124.631858 34.9661017,124.631858 C34.619853,124.631858 34.297217,124.509061 33.998184,124.263464 C33.699151,124.017866 33.5496368,123.712181 33.5496368,123.346397 C33.5496368,122.855202 33.9168648,122.259506 34.6513317,121.559292 C35.3857987,120.859078 36.0573012,120.111846 36.6658596,119.317573 C35.7844992,119.422082 34.9188904,119.591908 34.0690073,119.827054 C33.2191241,120.062201 32.6682821,120.179772 32.4164649,120.179772 C32.0072619,120.179772 31.6688875,120.072652 31.4013317,119.858407 C31.1337759,119.644162 31,119.301899 31,118.831606 C31,118.403116 31.1337759,118.071303 31.4013317,117.836157 C31.6688875,117.60101 32.0072619,117.483439 32.4164649,117.483439 C32.7417288,117.483439 33.2637171,117.590559 33.9824455,117.804804 C34.7011739,118.019049 35.5956363,118.188874 36.6658596,118.314286 C35.9733622,117.436405 35.2808751,116.665659 34.5883777,116.002023 C33.8958803,115.338387 33.5496368,114.766206 33.5496368,114.285461 C33.5496368,113.94058 33.7017741,113.640119 34.0060533,113.384071 C34.3103324,113.128022 34.6303454,113 34.9661017,113 C35.2074265,113 35.4251403,113.062705 35.6192494,113.188116 C35.8133585,113.313528 35.9838572,113.496417 36.1307506,113.736789 C36.2566592,113.96671 36.429781,114.494475 36.6501211,115.320101 C36.8704612,116.145727 37.1537513,116.981791 37.5,117.828319 C37.8462487,116.97134 38.1321619,116.13005 38.3577482,115.304425 C38.5833345,114.478799 38.7538332,113.956259 38.8692494,113.736789 C38.995158,113.517319 39.1604106,113.339655 39.3650121,113.203793 C39.5696136,113.06793 39.7925735,113 40.0338983,113 C40.380147,113 40.702783,113.122797 41.001816,113.368394 C41.300849,113.613992 41.4503632,113.919678 41.4503632,114.285461 C41.4503632,114.766206 41.1224811,115.327936 40.466707,115.97067 C39.810933,116.613404 39.1053307,117.394601 38.3498789,118.314286 C39.3991174,118.178423 40.298826,118.005985 41.0490315,117.796966 C41.799237,117.587947 42.3107331,117.483439 42.5835351,117.483439 C42.9927381,117.483439 43.3311125,117.60101 43.5986683,117.836157 C43.8662241,118.071303 44,118.403116 44,118.831606 Z M44.171875,365.078125 C44.171875,365.546877 44.0390638,365.88802 43.7734375,366.101562 C43.5078112,366.315105 43.171877,366.421875 42.765625,366.421875 C42.505207,366.421875 41.9661499,366.307293 41.1484375,366.078125 C40.3307251,365.848957 39.4635463,365.677084 38.546875,365.5625 C39.1510447,366.354171 39.8177047,367.098955 40.546875,367.796875 C41.2760453,368.494795 41.640625,369.088539 41.640625,369.578125 C41.640625,369.921877 41.4895848,370.221353 41.1875,370.476562 C40.8854152,370.731772 40.56771,370.859375 40.234375,370.859375 C40.0052072,370.859375 39.7916677,370.794271 39.59375,370.664062 C39.3958323,370.533854 39.2239591,370.34896 39.078125,370.109375 C38.9531244,369.880207 38.7838552,369.359379 38.5703125,368.546875 C38.3567698,367.734371 38.0729184,366.901046 37.71875,366.046875 C37.3749983,366.859379 37.0885428,367.695308 36.859375,368.554688 C36.6302072,369.414067 36.4635422,369.932291 36.359375,370.109375 C36.1927075,370.369793 36.0234384,370.559895 35.8515625,370.679688 C35.6796866,370.79948 35.463543,370.859375 35.203125,370.859375 C34.8593733,370.859375 34.539064,370.73698 34.2421875,370.492188 C33.945311,370.247395 33.796875,369.94271 33.796875,369.578125 C33.796875,369.088539 34.1614547,368.494795 34.890625,367.796875 C35.6197953,367.098955 36.2864553,366.354171 36.890625,365.5625 C36.0156206,365.666667 35.1562542,365.835936 34.3125,366.070312 C33.4687458,366.304689 32.9218762,366.421875 32.671875,366.421875 C32.265623,366.421875 31.9296888,366.315105 31.6640625,366.101562 C31.3984362,365.88802 31.265625,365.546877 31.265625,365.078125 C31.265625,364.65104 31.3984362,364.320314 31.6640625,364.085938 C31.9296888,363.851561 32.265623,363.734375 32.671875,363.734375 C32.9947933,363.734375 33.5130173,363.841145 34.2265625,364.054688 C34.9401077,364.26823 35.8281197,364.437499 36.890625,364.5625 C36.2031216,363.687496 35.5156284,362.919274 34.828125,362.257812 C34.1406216,361.596351 33.796875,361.026044 33.796875,360.546875 C33.796875,360.203123 33.9479152,359.903647 34.25,359.648438 C34.5520848,359.393228 34.86979,359.265625 35.203125,359.265625 C35.4427095,359.265625 35.6588532,359.328124 35.8515625,359.453125 C36.0442718,359.578126 36.2135409,359.760415 36.359375,360 C36.4843756,360.229168 36.6562489,360.755204 36.875,361.578125 C37.0937511,362.401046 37.3749983,363.234371 37.71875,364.078125 C38.0625017,363.223954 38.346353,362.385421 38.5703125,361.5625 C38.794272,360.739579 38.9635411,360.218751 39.078125,360 C39.2031256,359.781249 39.3671865,359.604167 39.5703125,359.46875 C39.7734385,359.333333 39.9947905,359.265625 40.234375,359.265625 C40.5781267,359.265625 40.898436,359.38802 41.1953125,359.632812 C41.492189,359.877605 41.640625,360.18229 41.640625,360.546875 C41.640625,361.026044 41.3151074,361.585934 40.6640625,362.226562 C40.0130176,362.867191 39.3125037,363.645829 38.5625,364.5625 C39.6041719,364.427083 40.4973921,364.255209 41.2421875,364.046875 C41.9869829,363.838541 42.4947903,363.734375 42.765625,363.734375 C43.171877,363.734375 43.5078112,363.851561 43.7734375,364.085938 C44.0390638,364.320314 44.171875,364.65104 44.171875,365.078125 Z M44,231.199747 C44,231.67004 43.8662241,232.012304 43.5986683,232.226549 C43.3311125,232.440793 42.9927381,232.547914 42.5835351,232.547914 C42.3212255,232.547914 41.7782527,232.432955 40.9546005,232.203034 C40.1309483,231.973113 39.2574703,231.800675 38.3341404,231.685714 C38.9426988,232.479987 39.6142013,233.227219 40.3486683,233.927434 C41.0831352,234.627648 41.4503632,235.223344 41.4503632,235.714539 C41.4503632,236.05942 41.2982259,236.359881 40.9939467,236.615929 C40.6896676,236.871978 40.3696546,237 40.0338983,237 C39.8030658,237 39.5879752,236.934682 39.3886199,236.804046 C39.1892645,236.673409 39.0161428,236.487907 38.8692494,236.247535 C38.7433408,236.017614 38.5728421,235.495074 38.3577482,234.679899 C38.1426543,233.864724 37.8567411,233.02866 37.5,232.171681 C37.1537513,232.986856 36.865215,233.825533 36.6343826,234.687737 C36.4035501,235.549941 36.2356745,236.069868 36.1307506,236.247535 C35.9628724,236.508809 35.7923737,236.699536 35.6192494,236.819722 C35.446125,236.939908 35.2284113,237 34.9661017,237 C34.619853,237 34.297217,236.877203 33.998184,236.631606 C33.699151,236.386008 33.5496368,236.080322 33.5496368,235.714539 C33.5496368,235.223344 33.9168648,234.627648 34.6513317,233.927434 C35.3857987,233.227219 36.0573012,232.479987 36.6658596,231.685714 C35.7844992,231.790224 34.9188904,231.960049 34.0690073,232.195196 C33.2191241,232.430343 32.6682821,232.547914 32.4164649,232.547914 C32.0072619,232.547914 31.6688875,232.440793 31.4013317,232.226549 C31.1337759,232.012304 31,231.67004 31,231.199747 C31,230.771258 31.1337759,230.439445 31.4013317,230.204298 C31.6688875,229.969152 32.0072619,229.85158 32.4164649,229.85158 C32.7417288,229.85158 33.2637171,229.958701 33.9824455,230.172946 C34.7011739,230.38719 35.5956363,230.557016 36.6658596,230.682427 C35.9733622,229.804547 35.2808751,229.0338 34.5883777,228.370164 C33.8958803,227.706528 33.5496368,227.134347 33.5496368,226.653603 C33.5496368,226.308721 33.7017741,226.008261 34.0060533,225.752212 C34.3103324,225.496164 34.6303454,225.368142 34.9661017,225.368142 C35.2074265,225.368142 35.4251403,225.430846 35.6192494,225.556258 C35.8133585,225.681669 35.9838572,225.864558 36.1307506,226.10493 C36.2566592,226.334852 36.429781,226.862617 36.6501211,227.688243 C36.8704612,228.513868 37.1537513,229.349933 37.5,230.19646 C37.8462487,229.339482 38.1321619,228.498192 38.3577482,227.672566 C38.5833345,226.846941 38.7538332,226.324401 38.8692494,226.10493 C38.995158,225.88546 39.1604106,225.707797 39.3650121,225.571934 C39.5696136,225.436072 39.7925735,225.368142 40.0338983,225.368142 C40.380147,225.368142 40.702783,225.490939 41.001816,225.736536 C41.300849,225.982134 41.4503632,226.287819 41.4503632,226.653603 C41.4503632,227.134347 41.1224811,227.696078 40.466707,228.338812 C39.810933,228.981546 39.1053307,229.762743 38.3498789,230.682427 C39.3991174,230.546565 40.298826,230.374127 41.0490315,230.165107 C41.799237,229.956088 42.3107331,229.85158 42.5835351,229.85158 C42.9927381,229.85158 43.3311125,229.969152 43.5986683,230.204298 C43.8662241,230.439445 44,230.771258 44,231.199747 Z" id="*-2" fill="url(#linearGradient-1)" fill-rule="nonzero"></path>
    </g>
</svg>