<?xml version="1.0" encoding="UTF-8"?>
<svg width="320px" height="529px" viewBox="0 0 320 529" version="1.1" xmlns="http://www.w3.org/2000/svg" xmlns:xlink="http://www.w3.org/1999/xlink">
    <!-- Generator: Sketch 54.1 (76490) - https://sketchapp.com -->
    <title>maplink_grey</title>
    <desc>Created with Sketch.</desc>
    <defs>
        <linearGradient x1="154.972398%" y1="-2.07319436%" x2="-39.2936878%" y2="93.0843003%" id="linearGradient-1">
            <stop stop-color="#651FFF" offset="0%"></stop>
            <stop stop-color="#3D5AFE" offset="100%"></stop>
        </linearGradient>
        <path d="M281.166648,115.5 C280.969506,115.5 280.772388,115.427972 280.622085,115.284218 L275.892323,110.758317 C275.591448,110.470413 275.591448,110.003627 275.892323,109.71584 C276.193076,109.428053 276.680795,109.428053 276.981694,109.71584 L281.166648,113.720608 L285.351627,109.71598 C285.652502,109.428193 286.140173,109.428193 286.440901,109.71598 C286.741922,110.003767 286.741922,110.470553 286.440901,110.758457 L281.711212,115.284358 C281.560836,115.428135 281.363718,115.5 281.166648,115.5 Z" id="path-2"></path>
        <filter x="-18.2%" y="-33.3%" width="136.4%" height="166.7%" filterUnits="objectBoundingBox" id="filter-3">
            <feGaussianBlur stdDeviation="1.5" in="SourceAlpha" result="shadowBlurInner1"></feGaussianBlur>
            <feOffset dx="-1" dy="1" in="shadowBlurInner1" result="shadowOffsetInner1"></feOffset>
            <feComposite in="shadowOffsetInner1" in2="SourceAlpha" operator="arithmetic" k2="-1" k3="1" result="shadowInnerInner1"></feComposite>
            <feColorMatrix values="0 0 0 0 0   0 0 0 0 0   0 0 0 0 0  0 0 0 0.25 0" type="matrix" in="shadowInnerInner1"></feColorMatrix>
        </filter>
        <linearGradient x1="154.972398%" y1="-2.07319436%" x2="-39.2936878%" y2="93.0843003%" id="linearGradient-4">
            <stop stop-color="#D500F9" offset="0%"></stop>
            <stop stop-color="#651FFF" offset="100%"></stop>
        </linearGradient>
        <path d="M281.166648,227.5 C280.969506,227.5 280.772388,227.427972 280.622085,227.284218 L275.892323,222.758317 C275.591448,222.470413 275.591448,222.003627 275.892323,221.71584 C276.193076,221.428053 276.680795,221.428053 276.981694,221.71584 L281.166648,225.720608 L285.351627,221.71598 C285.652502,221.428193 286.140173,221.428193 286.440901,221.71598 C286.741922,222.003767 286.741922,222.470553 286.440901,222.758457 L281.711212,227.284358 C281.560836,227.428135 281.363718,227.5 281.166648,227.5 Z" id="path-5"></path>
        <filter x="-18.2%" y="-33.3%" width="136.4%" height="166.7%" filterUnits="objectBoundingBox" id="filter-6">
            <feGaussianBlur stdDeviation="1.5" in="SourceAlpha" result="shadowBlurInner1"></feGaussianBlur>
            <feOffset dx="-1" dy="1" in="shadowBlurInner1" result="shadowOffsetInner1"></feOffset>
            <feComposite in="shadowOffsetInner1" in2="SourceAlpha" operator="arithmetic" k2="-1" k3="1" result="shadowInnerInner1"></feComposite>
            <feColorMatrix values="0 0 0 0 0   0 0 0 0 0   0 0 0 0 0  0 0 0 0.25 0" type="matrix" in="shadowInnerInner1"></feColorMatrix>
        </filter>
        <linearGradient x1="154.972398%" y1="-2.07319436%" x2="-39.2936878%" y2="93.0843003%" id="linearGradient-7">
            <stop stop-color="#F50057" offset="0%"></stop>
            <stop stop-color="#D500F9" offset="100%"></stop>
        </linearGradient>
        <path d="M281.166648,359.5 C280.969506,359.5 280.772388,359.427972 280.622085,359.284218 L275.892323,354.758317 C275.591448,354.470413 275.591448,354.003627 275.892323,353.71584 C276.193076,353.428053 276.680795,353.428053 276.981694,353.71584 L281.166648,357.720608 L285.351627,353.71598 C285.652502,353.428193 286.140173,353.428193 286.440901,353.71598 C286.741922,354.003767 286.741922,354.470553 286.440901,354.758457 L281.711212,359.284358 C281.560836,359.428135 281.363718,359.5 281.166648,359.5 Z" id="path-8"></path>
        <filter x="-18.2%" y="-33.3%" width="136.4%" height="166.7%" filterUnits="objectBoundingBox" id="filter-9">
            <feGaussianBlur stdDeviation="1.5" in="SourceAlpha" result="shadowBlurInner1"></feGaussianBlur>
            <feOffset dx="-1" dy="1" in="shadowBlurInner1" result="shadowOffsetInner1"></feOffset>
            <feComposite in="shadowOffsetInner1" in2="SourceAlpha" operator="arithmetic" k2="-1" k3="1" result="shadowInnerInner1"></feComposite>
            <feColorMatrix values="0 0 0 0 0   0 0 0 0 0   0 0 0 0 0  0 0 0 0.25 0" type="matrix" in="shadowInnerInner1"></feColorMatrix>
        </filter>
    </defs>
    <g id="maplink_grey" stroke="none" stroke-width="1" fill="none" fill-rule="evenodd">
        <rect fill="#F0F6FA" x="0" y="0" width="320" height="529"></rect>
        <text id="Chanchan" font-family="SFCompactDisplay-Semibold, SF Compact Display" font-size="20" font-weight="500" letter-spacing="-1" fill="#5D6A80">
            <tspan x="30" y="120">Chanchan</tspan>
        </text>
        <text id="—-Giới-thiệu-về-Chan" font-family="Georgia-Italic, Georgia" font-size="15" font-style="italic" font-weight="normal" line-spacing="20" fill="#8C96A8">
            <tspan x="30" y="151">— Giới thiệu về Chanchan…</tspan>
        </text>
        <text id="……………………………………………………" font-family="Georgia-Italic, Georgia" font-size="14" font-style="italic" font-weight="normal" fill="#DADFE7">
            <tspan x="30" y="186">……………………………………………………</tspan>
        </text>
        <g id="Path" transform="translate(281.166667, 112.500000) rotate(-90.000000) translate(-281.166667, -112.500000) ">
            <use fill="url(#linearGradient-1)" fill-rule="evenodd" xlink:href="#path-2"></use>
            <use fill="black" fill-opacity="1" filter="url(#filter-3)" xlink:href="#path-2"></use>
        </g>
        <g id="Path" transform="translate(281.166667, 224.500000) rotate(-90.000000) translate(-281.166667, -224.500000) ">
            <use fill="url(#linearGradient-4)" fill-rule="evenodd" xlink:href="#path-5"></use>
            <use fill="black" fill-opacity="1" filter="url(#filter-6)" xlink:href="#path-5"></use>
        </g>
        <g id="Path" transform="translate(281.166667, 356.500000) rotate(-90.000000) translate(-281.166667, -356.500000) ">
            <use fill="url(#linearGradient-7)" fill-rule="evenodd" xlink:href="#path-8"></use>
            <use fill="black" fill-opacity="1" filter="url(#filter-9)" xlink:href="#path-8"></use>
        </g>
        <text id="Blog" font-family="SFCompactDisplay-Semibold, SF Compact Display" font-size="20" font-weight="500" letter-spacing="-1" fill="#5D6A80">
            <tspan x="30" y="232">Blog</tspan>
        </text>
        <text id="—-Hiểu-thêm-về-Chanc" font-family="Georgia-Italic, Georgia" font-size="15" font-style="italic" font-weight="normal" line-spacing="20" fill="#8C96A8">
            <tspan x="30" y="263">— Hiểu thêm về Chanchan qua </tspan>
            <tspan x="30" y="283">những bài viết…</tspan>
        </text>
        <text id="……………………………………………………" font-family="Georgia-Italic, Georgia" font-size="14" font-style="italic" font-weight="normal" fill="#DADFE7">
            <tspan x="30" y="318">…………………………………………………….</tspan>
        </text>
        <text id="Đăng-ký" font-family="SFCompactDisplay-Semibold, SF Compact Display" font-size="20" font-weight="500" letter-spacing="-1" fill="#5D6A80">
            <tspan x="30" y="364">Đăng ký</tspan>
        </text>
        <text id="—-Đăng-ký-Thành-viên" font-family="Georgia-Italic, Georgia" font-size="15" font-style="italic" font-weight="normal" line-spacing="20" fill="#8C96A8">
            <tspan x="30" y="395">— Đăng ký Thành viên mới…</tspan>
        </text>
        <text id="……………………………………………………" font-family="Georgia-Italic, Georgia" font-size="14" font-style="italic" font-weight="normal" fill="#DADFE7">
            <tspan x="30" y="430">……………………………………………………………</tspan>
        </text>
        <text id="Chanchan-là-một-sản" opacity="0.8" font-family="SFCompactDisplay-Regular, SF Compact Display" font-size="15" font-weight="normal" fill="#8C96A8">
            <tspan x="30" y="467">Chanchan là một sản phẩm công nghệ </tspan>
            <tspan x="30" y="485">của Mastercus Vietnam .ltd</tspan>
        </text>
        <text id="Tìm-hiểu-thêm-về-Cha" font-family="Georgia-Italic, Georgia" font-size="15" font-style="italic" font-weight="normal" fill="#8C96A8">
            <tspan x="46" y="62">Tìm hiểu thêm về Chanchan</tspan>
        </text>
        <text id="“" font-family="Georgia-Bold, Georgia" font-size="15" font-weight="bold" fill="#8C96A8">
            <tspan x="30" y="62">“</tspan>
        </text>
        <path d="M22.4464453,5 L17.2639621,5 C17.2958411,5.16682572 17.3117805,5.33990253 17.3117805,5.51923077 C17.3117805,6.21154192 17.0800012,6.79807452 16.6164357,7.27884615 C16.1528702,7.75961779 15.6159637,8 15.0057002,8 C14.3837009,8 13.8438606,7.75641269 13.386163,7.26923077 C12.9284654,6.78204885 12.69962,6.19872135 12.69962,5.51923077 C12.69962,5.33990253 12.7153551,5.16682572 12.7468253,5 L7.5643421,5 C7.59622108,5.16682572 7.6121605,5.33990253 7.6121605,5.51923077 C7.6121605,6.21154192 7.38038122,6.79807452 6.91681569,7.27884615 C6.45325017,7.75961779 5.91634372,8 5.30608025,8 C4.68408094,8 4.14424058,7.75641269 3.68654298,7.26923077 C3.22884537,6.78204885 3,6.19872135 3,5.51923077 C3,5.33990253 3.01573507,5.16682572 3.04720534,5 L0,5 L0,0 L320,0 L320,5 L317.952795,5 C317.984265,5.16682572 318,5.33990253 318,5.51923077 C318,6.19872135 317.771155,6.78204885 317.313457,7.26923077 C316.855759,7.75641269 316.315919,8 315.69392,8 C315.07192,8 314.53208,7.75641269 314.074382,7.26923077 C313.616685,6.78204885 313.387839,6.19872135 313.387839,5.51923077 C313.387839,5.33990253 313.403575,5.16682572 313.435045,5 L308.252562,5 C308.284441,5.16682572 308.30038,5.33990253 308.30038,5.51923077 C308.30038,6.21154192 308.068601,6.79807452 307.605035,7.27884615 C307.14147,7.75961779 306.604563,8 305.9943,8 C305.3723,8 304.83246,7.75641269 304.374762,7.26923077 C303.917065,6.78204885 303.68822,6.19872135 303.68822,5.51923077 C303.68822,5.33990253 303.703955,5.16682572 303.735425,5 L298.552942,5 C298.584821,5.16682572 298.60076,5.33990253 298.60076,5.51923077 C298.60076,6.21154192 298.368981,6.79807452 297.905415,7.27884615 C297.44185,7.75961779 296.904943,8 296.29468,8 C295.67268,8 295.13284,7.75641269 294.675143,7.26923077 C294.217445,6.78204885 293.9886,6.19872135 293.9886,5.51923077 C293.9886,5.33990253 294.004335,5.16682572 294.035805,5 L288.853935,5 C288.885405,5.16682572 288.90114,5.33990253 288.90114,5.51923077 C288.90114,6.19872135 288.672295,6.78204885 288.214597,7.26923077 C287.756899,7.75641269 287.217059,8 286.59506,8 C285.97306,8 285.43322,7.75641269 284.975523,7.26923077 C284.517825,6.78204885 284.28898,6.19872135 284.28898,5.51923077 C284.28898,5.33990253 284.304715,5.16682572 284.336185,5 L279.153702,5 C279.185581,5.16682572 279.20152,5.33990253 279.20152,5.51923077 C279.20152,6.21154192 278.969741,6.79807452 278.506175,7.27884615 C278.04261,7.75961779 277.505703,8 276.89544,8 C276.273441,8 275.7336,7.75641269 275.275903,7.26923077 C274.818205,6.78204885 274.58936,6.19872135 274.58936,5.51923077 C274.58936,5.33990253 274.605095,5.16682572 274.636565,5 L269.454082,5 C269.485961,5.16682572 269.5019,5.33990253 269.5019,5.51923077 C269.5019,6.21154192 269.270121,6.79807452 268.806555,7.27884615 C268.34299,7.75961779 267.806083,8 267.19582,8 C266.573821,8 266.03398,7.75641269 265.576283,7.26923077 C265.118585,6.78204885 264.88974,6.19872135 264.88974,5.51923077 C264.88974,5.33990253 264.905475,5.16682572 264.936945,5 L259.755075,5 C259.786545,5.16682572 259.80228,5.33990253 259.80228,5.51923077 C259.80228,6.19872135 259.573435,6.78204885 259.115737,7.26923077 C258.65804,7.75641269 258.118199,8 257.4962,8 C256.874201,8 256.33436,7.75641269 255.876663,7.26923077 C255.418965,6.78204885 255.19012,6.19872135 255.19012,5.51923077 C255.19012,5.33990253 255.205855,5.16682572 255.237325,5 L250.054842,5 C250.086721,5.16682572 250.10266,5.33990253 250.10266,5.51923077 C250.10266,6.21154192 249.870881,6.79807452 249.407315,7.27884615 C248.94375,7.75961779 248.406843,8 247.79658,8 C247.174581,8 246.63474,7.75641269 246.177043,7.26923077 C245.719345,6.78204885 245.4905,6.19872135 245.4905,5.51923077 C245.4905,5.33990253 245.506235,5.16682572 245.537705,5 L240.355222,5 C240.387101,5.16682572 240.40304,5.33990253 240.40304,5.51923077 C240.40304,6.21154192 240.171261,6.79807452 239.707695,7.27884615 C239.24413,7.75961779 238.707223,8 238.09696,8 C237.474961,8 236.93512,7.75641269 236.477423,7.26923077 C236.019725,6.78204885 235.79088,6.19872135 235.79088,5.51923077 C235.79088,5.33990253 235.806615,5.16682572 235.838085,5 L230.656215,5 C230.687685,5.16682572 230.70342,5.33990253 230.70342,5.51923077 C230.70342,6.19872135 230.474575,6.78204885 230.016877,7.26923077 C229.55918,7.75641269 229.019339,8 228.39734,8 C227.775341,8 227.2355,7.75641269 226.777803,7.26923077 C226.320105,6.78204885 226.09126,6.19872135 226.09126,5.51923077 C226.09126,5.33990253 226.106995,5.16682572 226.138465,5 L220.955982,5 C220.987861,5.16682572 221.0038,5.33990253 221.0038,5.51923077 C221.0038,6.21154192 220.772021,6.79807452 220.308455,7.27884615 C219.84489,7.75961779 219.307983,8 218.69772,8 C218.075721,8 217.53588,7.75641269 217.078183,7.26923077 C216.620485,6.78204885 216.39164,6.19872135 216.39164,5.51923077 C216.39164,5.33990253 216.407375,5.16682572 216.438845,5 L211.256362,5 C211.288241,5.16682572 211.30418,5.33990253 211.30418,5.51923077 C211.30418,6.21154192 211.072401,6.79807452 210.608835,7.27884615 C210.14527,7.75961779 209.608363,8 208.9981,8 C208.376101,8 207.83626,7.75641269 207.378563,7.26923077 C206.920865,6.78204885 206.69202,6.19872135 206.69202,5.51923077 C206.69202,5.33990253 206.707755,5.16682572 206.739225,5 L201.557355,5 C201.588825,5.16682572 201.60456,5.33990253 201.60456,5.51923077 C201.60456,6.19872135 201.375715,6.78204885 200.918017,7.26923077 C200.46032,7.75641269 199.920479,8 199.29848,8 C198.676481,8 198.13664,7.75641269 197.678943,7.26923077 C197.221245,6.78204885 196.9924,6.19872135 196.9924,5.51923077 C196.9924,5.33990253 197.008135,5.16682572 197.039605,5 L191.857122,5 C191.889001,5.16682572 191.90494,5.33990253 191.90494,5.51923077 C191.90494,6.21154192 191.673161,6.79807452 191.209595,7.27884615 C190.74603,7.75961779 190.209123,8 189.59886,8 C188.976861,8 188.43702,7.75641269 187.979323,7.26923077 C187.521625,6.78204885 187.29278,6.19872135 187.29278,5.51923077 C187.29278,5.33990253 187.308515,5.16682572 187.339985,5 L182.157502,5 C182.189381,5.16682572 182.20532,5.33990253 182.20532,5.51923077 C182.20532,6.21154192 181.973541,6.79807452 181.509975,7.27884615 C181.04641,7.75961779 180.509503,8 179.89924,8 C179.277241,8 178.7374,7.75641269 178.279703,7.26923077 C177.822005,6.78204885 177.59316,6.19872135 177.59316,5.51923077 C177.59316,5.33990253 177.608895,5.16682572 177.640365,5 L172.458495,5 C172.489965,5.16682572 172.5057,5.33990253 172.5057,5.51923077 C172.5057,6.19872135 172.276855,6.78204885 171.819157,7.26923077 C171.36146,7.75641269 170.821619,8 170.19962,8 C169.577621,8 169.03778,7.75641269 168.580083,7.26923077 C168.122385,6.78204885 167.89354,6.19872135 167.89354,5.51923077 C167.89354,5.33990253 167.909275,5.16682572 167.940745,5 L162.758262,5 C162.790141,5.16682572 162.80608,5.33990253 162.80608,5.51923077 C162.80608,6.21154192 162.574301,6.79807452 162.110735,7.27884615 C161.64717,7.75961779 161.110263,8 160.5,8 C159.878001,8 159.33816,7.75641269 158.880463,7.26923077 C158.422765,6.78204885 158.19392,6.19872135 158.19392,5.51923077 C158.19392,5.33990253 158.209655,5.16682572 158.241125,5 L153.058642,5 C153.090521,5.16682572 153.10646,5.33990253 153.10646,5.51923077 C153.10646,6.21154192 152.874681,6.79807452 152.411115,7.27884615 C151.94755,7.75961779 151.410643,8 150.80038,8 C150.178381,8 149.63854,7.75641269 149.180843,7.26923077 C148.723145,6.78204885 148.4943,6.19872135 148.4943,5.51923077 C148.4943,5.33990253 148.510035,5.16682572 148.541505,5 L143.359635,5 C143.391105,5.16682572 143.40684,5.33990253 143.40684,5.51923077 C143.40684,6.19872135 143.177995,6.78204885 142.720297,7.26923077 C142.2626,7.75641269 141.722759,8 141.10076,8 C140.478761,8 139.93892,7.75641269 139.481223,7.26923077 C139.023525,6.78204885 138.79468,6.19872135 138.79468,5.51923077 C138.79468,5.33990253 138.810415,5.16682572 138.841885,5 L133.659402,5 C133.691281,5.16682572 133.70722,5.33990253 133.70722,5.51923077 C133.70722,6.21154192 133.475441,6.79807452 133.011875,7.27884615 C132.54831,7.75961779 132.011404,8 131.40114,8 C130.779141,8 130.2393,7.75641269 129.781603,7.26923077 C129.323905,6.78204885 129.09506,6.19872135 129.09506,5.51923077 C129.09506,5.33990253 129.110795,5.16682572 129.142265,5 L123.959782,5 C123.991661,5.16682572 124.0076,5.33990253 124.0076,5.51923077 C124.0076,6.21154192 123.775821,6.79807452 123.312256,7.27884615 C122.84869,7.75961779 122.311784,8 121.70152,8 C121.079521,8 120.53968,7.75641269 120.081983,7.26923077 C119.624285,6.78204885 119.39544,6.19872135 119.39544,5.51923077 C119.39544,5.33990253 119.411175,5.16682572 119.442645,5 L114.260775,5 C114.292245,5.16682572 114.30798,5.33990253 114.30798,5.51923077 C114.30798,6.19872135 114.079135,6.78204885 113.621437,7.26923077 C113.16374,7.75641269 112.623899,8 112.0019,8 C111.379901,8 110.84006,7.75641269 110.382363,7.26923077 C109.924665,6.78204885 109.69582,6.19872135 109.69582,5.51923077 C109.69582,5.33990253 109.711555,5.16682572 109.743025,5 L104.560542,5 C104.592421,5.16682572 104.60836,5.33990253 104.60836,5.51923077 C104.60836,6.21154192 104.376581,6.79807452 103.913016,7.27884615 C103.44945,7.75961779 102.912544,8 102.30228,8 C101.680281,8 101.14044,7.75641269 100.682743,7.26923077 C100.225045,6.78204885 99.9961998,6.19872135 99.9961998,5.51923077 C99.9961998,5.33990253 100.011935,5.16682572 100.043405,5 L94.860922,5 C94.8928009,5.16682572 94.9087404,5.33990253 94.9087404,5.51923077 C94.9087404,6.21154192 94.6769611,6.79807452 94.2133956,7.27884615 C93.74983,7.75961779 93.2129236,8 92.6026601,8 C91.9806608,8 91.4408204,7.75641269 90.9831228,7.26923077 C90.5254252,6.78204885 90.2965799,6.19872135 90.2965799,5.51923077 C90.2965799,5.33990253 90.3123149,5.16682572 90.3437852,5 L85.161915,5 C85.1933853,5.16682572 85.2091204,5.33990253 85.2091204,5.51923077 C85.2091204,6.19872135 84.980275,6.78204885 84.5225774,7.26923077 C84.0648798,7.75641269 83.5250394,8 82.9030401,8 C82.2810408,8 81.7412005,7.75641269 81.2835029,7.26923077 C80.8258052,6.78204885 80.5969599,6.19872135 80.5969599,5.51923077 C80.5969599,5.33990253 80.6126949,5.16682572 80.6441652,5 L75.461682,5 C75.493561,5.16682572 75.5095004,5.33990253 75.5095004,5.51923077 C75.5095004,6.21154192 75.2777211,6.79807452 74.8141556,7.27884615 C74.3505901,7.75961779 73.8136836,8 73.2034201,8 C72.5814208,8 72.0415805,7.75641269 71.5838829,7.26923077 C71.1261853,6.78204885 70.8973399,6.19872135 70.8973399,5.51923077 C70.8973399,5.33990253 70.913075,5.16682572 70.9445452,5 L65.762062,5 C65.793941,5.16682572 65.8098804,5.33990253 65.8098804,5.51923077 C65.8098804,6.21154192 65.5781011,6.79807452 65.1145356,7.27884615 C64.6509701,7.75961779 64.1140636,8 63.5038002,8 C62.8818008,8 62.3419605,7.75641269 61.8842629,7.26923077 C61.4265653,6.78204885 61.1977199,6.19872135 61.1977199,5.51923077 C61.1977199,5.33990253 61.213455,5.16682572 61.2449252,5 L56.0630551,5 C56.0945254,5.16682572 56.1102604,5.33990253 56.1102604,5.51923077 C56.1102604,6.19872135 55.8814151,6.78204885 55.4237174,7.26923077 C54.9660198,7.75641269 54.4261795,8 53.8041802,8 C53.1821809,8 52.6423405,7.75641269 52.1846429,7.26923077 C51.7269453,6.78204885 51.4980999,6.19872135 51.4980999,5.51923077 C51.4980999,5.33990253 51.513835,5.16682572 51.5453053,5 L46.362822,5 C46.394701,5.16682572 46.4106404,5.33990253 46.4106404,5.51923077 C46.4106404,6.21154192 46.1788612,6.79807452 45.7152956,7.27884615 C45.2517301,7.75961779 44.7148237,8 44.1045602,8 C43.4825609,8 42.9427205,7.75641269 42.4850229,7.26923077 C42.0273253,6.78204885 41.7984799,6.19872135 41.7984799,5.51923077 C41.7984799,5.33990253 41.814215,5.16682572 41.8456853,5 L36.6632021,5 C36.695081,5.16682572 36.7110205,5.33990253 36.7110205,5.51923077 C36.7110205,6.21154192 36.4792412,6.79807452 36.0156756,7.27884615 C35.5521101,7.75961779 35.0152037,8 34.4049402,8 C33.7829409,8 33.2431005,7.75641269 32.7854029,7.26923077 C32.3277053,6.78204885 32.09886,6.19872135 32.09886,5.51923077 C32.09886,5.33990253 32.114595,5.16682572 32.1460653,5 L26.9641951,5 C26.9956654,5.16682572 27.0114005,5.33990253 27.0114005,5.51923077 C27.0114005,6.19872135 26.7825551,6.78204885 26.3248575,7.26923077 C25.8671599,7.75641269 25.3273195,8 24.7053202,8 C24.0833209,8 23.5434805,7.75641269 23.0857829,7.26923077 C22.6280853,6.78204885 22.39924,6.19872135 22.39924,5.51923077 C22.39924,5.33990253 22.414975,5.16682572 22.4464453,5 Z" id="Rectangle-2" fill="#FFFFFF"></path>
    </g>
</svg>