<?xml version="1.0" encoding="UTF-8"?>
<svg width="320px" height="526px" viewBox="0 0 320 526" version="1.1" xmlns="http://www.w3.org/2000/svg" xmlns:xlink="http://www.w3.org/1999/xlink">
    <!-- Generator: Sketch 54.1 (76490) - https://sketchapp.com -->
    <title>maplink_grey</title>
    <desc>Created with Sketch.</desc>
    <defs>
        <linearGradient x1="28.347926%" y1="0%" x2="28.347926%" y2="100%" id="linearGradient-1">
            <stop stop-color="#F50057" offset="0%"></stop>
            <stop stop-color="#D500F9" offset="27.0323562%"></stop>
            <stop stop-color="#651FFF" offset="76.6351303%"></stop>
            <stop stop-color="#3D5AFE" offset="100%"></stop>
        </linearGradient>
    </defs>
    <g id="maplink_grey" stroke="none" stroke-width="1" fill="none" fill-rule="evenodd">
        <rect fill="#FFFFFF" x="0" y="0" width="320" height="526"></rect>
        <path d="M3.04720534,1 C3.01573507,1.16682572 3,1.33990253 3,1.51923077 C3,2.19872135 3.22884537,2.78204885 3.68654298,3.26923077 C4.14424058,3.75641269 4.68408094,4 5.30608025,4 C5.91634372,4 6.45325017,3.75961779 6.91681569,3.27884615 C7.38038122,2.79807452 7.6121605,2.21154192 7.6121605,1.51923077 C7.6121605,1.33990253 7.59622108,1.16682572 7.5643421,1 L12.7468253,1 C12.7153551,1.16682572 12.69962,1.33990253 12.69962,1.51923077 C12.69962,2.19872135 12.9284654,2.78204885 13.386163,3.26923077 C13.8438606,3.75641269 14.3837009,4 15.0057002,4 C15.6159637,4 16.1528702,3.75961779 16.6164357,3.27884615 C17.0800012,2.79807452 17.3117805,2.21154192 17.3117805,1.51923077 C17.3117805,1.33990253 17.2958411,1.16682572 17.2639621,1 L22.4464453,1 C22.414975,1.16682572 22.39924,1.33990253 22.39924,1.51923077 C22.39924,2.19872135 22.6280853,2.78204885 23.0857829,3.26923077 C23.5434805,3.75641269 24.0833209,4 24.7053202,4 C25.3273195,4 25.8671599,3.75641269 26.3248575,3.26923077 C26.7825551,2.78204885 27.0114005,2.19872135 27.0114005,1.51923077 C27.0114005,1.33990253 26.9956654,1.16682572 26.9641951,1 L32.1460653,1 C32.114595,1.16682572 32.09886,1.33990253 32.09886,1.51923077 C32.09886,2.19872135 32.3277053,2.78204885 32.7854029,3.26923077 C33.2431005,3.75641269 33.7829409,4 34.4049402,4 C35.0152037,4 35.5521101,3.75961779 36.0156756,3.27884615 C36.4792412,2.79807452 36.7110205,2.21154192 36.7110205,1.51923077 C36.7110205,1.33990253 36.695081,1.16682572 36.6632021,1 L41.8456853,1 C41.814215,1.16682572 41.7984799,1.33990253 41.7984799,1.51923077 C41.7984799,2.19872135 42.0273253,2.78204885 42.4850229,3.26923077 C42.9427205,3.75641269 43.4825609,4 44.1045602,4 C44.7148237,4 45.2517301,3.75961779 45.7152956,3.27884615 C46.1788612,2.79807452 46.4106404,2.21154192 46.4106404,1.51923077 C46.4106404,1.33990253 46.394701,1.16682572 46.362822,1 L51.5453053,1 C51.513835,1.16682572 51.4980999,1.33990253 51.4980999,1.51923077 C51.4980999,2.19872135 51.7269453,2.78204885 52.1846429,3.26923077 C52.6423405,3.75641269 53.1821809,4 53.8041802,4 C54.4261795,4 54.9660198,3.75641269 55.4237174,3.26923077 C55.8814151,2.78204885 56.1102604,2.19872135 56.1102604,1.51923077 C56.1102604,1.33990253 56.0945254,1.16682572 56.0630551,1 L61.2449252,1 C61.213455,1.16682572 61.1977199,1.33990253 61.1977199,1.51923077 C61.1977199,2.19872135 61.4265653,2.78204885 61.8842629,3.26923077 C62.3419605,3.75641269 62.8818008,4 63.5038002,4 C64.1140636,4 64.6509701,3.75961779 65.1145356,3.27884615 C65.5781011,2.79807452 65.8098804,2.21154192 65.8098804,1.51923077 C65.8098804,1.33990253 65.793941,1.16682572 65.762062,1 L70.9445452,1 C70.913075,1.16682572 70.8973399,1.33990253 70.8973399,1.51923077 C70.8973399,2.19872135 71.1261853,2.78204885 71.5838829,3.26923077 C72.0415805,3.75641269 72.5814208,4 73.2034201,4 C73.8136836,4 74.3505901,3.75961779 74.8141556,3.27884615 C75.2777211,2.79807452 75.5095004,2.21154192 75.5095004,1.51923077 C75.5095004,1.33990253 75.493561,1.16682572 75.461682,1 L80.6441652,1 C80.6126949,1.16682572 80.5969599,1.33990253 80.5969599,1.51923077 C80.5969599,2.19872135 80.8258052,2.78204885 81.2835029,3.26923077 C81.7412005,3.75641269 82.2810408,4 82.9030401,4 C83.5250394,4 84.0648798,3.75641269 84.5225774,3.26923077 C84.980275,2.78204885 85.2091204,2.19872135 85.2091204,1.51923077 C85.2091204,1.33990253 85.1933853,1.16682572 85.161915,1 L90.3437852,1 C90.3123149,1.16682572 90.2965799,1.33990253 90.2965799,1.51923077 C90.2965799,2.19872135 90.5254252,2.78204885 90.9831228,3.26923077 C91.4408204,3.75641269 91.9806608,4 92.6026601,4 C93.2129236,4 93.74983,3.75961779 94.2133956,3.27884615 C94.6769611,2.79807452 94.9087404,2.21154192 94.9087404,1.51923077 C94.9087404,1.33990253 94.8928009,1.16682572 94.860922,1 L100.043405,1 C100.011935,1.16682572 99.9961998,1.33990253 99.9961998,1.51923077 C99.9961998,2.19872135 100.225045,2.78204885 100.682743,3.26923077 C101.14044,3.75641269 101.680281,4 102.30228,4 C102.912544,4 103.44945,3.75961779 103.913016,3.27884615 C104.376581,2.79807452 104.60836,2.21154192 104.60836,1.51923077 C104.60836,1.33990253 104.592421,1.16682572 104.560542,1 L109.743025,1 C109.711555,1.16682572 109.69582,1.33990253 109.69582,1.51923077 C109.69582,2.19872135 109.924665,2.78204885 110.382363,3.26923077 C110.84006,3.75641269 111.379901,4 112.0019,4 C112.623899,4 113.16374,3.75641269 113.621437,3.26923077 C114.079135,2.78204885 114.30798,2.19872135 114.30798,1.51923077 C114.30798,1.33990253 114.292245,1.16682572 114.260775,1 L119.442645,1 C119.411175,1.16682572 119.39544,1.33990253 119.39544,1.51923077 C119.39544,2.19872135 119.624285,2.78204885 120.081983,3.26923077 C120.53968,3.75641269 121.079521,4 121.70152,4 C122.311784,4 122.84869,3.75961779 123.312256,3.27884615 C123.775821,2.79807452 124.0076,2.21154192 124.0076,1.51923077 C124.0076,1.33990253 123.991661,1.16682572 123.959782,1 L129.142265,1 C129.110795,1.16682572 129.09506,1.33990253 129.09506,1.51923077 C129.09506,2.19872135 129.323905,2.78204885 129.781603,3.26923077 C130.2393,3.75641269 130.779141,4 131.40114,4 C132.011404,4 132.54831,3.75961779 133.011875,3.27884615 C133.475441,2.79807452 133.70722,2.21154192 133.70722,1.51923077 C133.70722,1.33990253 133.691281,1.16682572 133.659402,1 L138.841885,1 C138.810415,1.16682572 138.79468,1.33990253 138.79468,1.51923077 C138.79468,2.19872135 139.023525,2.78204885 139.481223,3.26923077 C139.93892,3.75641269 140.478761,4 141.10076,4 C141.722759,4 142.2626,3.75641269 142.720297,3.26923077 C143.177995,2.78204885 143.40684,2.19872135 143.40684,1.51923077 C143.40684,1.33990253 143.391105,1.16682572 143.359635,1 L148.541505,1 C148.510035,1.16682572 148.4943,1.33990253 148.4943,1.51923077 C148.4943,2.19872135 148.723145,2.78204885 149.180843,3.26923077 C149.63854,3.75641269 150.178381,4 150.80038,4 C151.410643,4 151.94755,3.75961779 152.411115,3.27884615 C152.874681,2.79807452 153.10646,2.21154192 153.10646,1.51923077 C153.10646,1.33990253 153.090521,1.16682572 153.058642,1 L158.241125,1 C158.209655,1.16682572 158.19392,1.33990253 158.19392,1.51923077 C158.19392,2.19872135 158.422765,2.78204885 158.880463,3.26923077 C159.33816,3.75641269 159.878001,4 160.5,4 C161.110263,4 161.64717,3.75961779 162.110735,3.27884615 C162.574301,2.79807452 162.80608,2.21154192 162.80608,1.51923077 C162.80608,1.33990253 162.790141,1.16682572 162.758262,1 L167.940745,1 C167.909275,1.16682572 167.89354,1.33990253 167.89354,1.51923077 C167.89354,2.19872135 168.122385,2.78204885 168.580083,3.26923077 C169.03778,3.75641269 169.577621,4 170.19962,4 C170.821619,4 171.36146,3.75641269 171.819157,3.26923077 C172.276855,2.78204885 172.5057,2.19872135 172.5057,1.51923077 C172.5057,1.33990253 172.489965,1.16682572 172.458495,1 L177.640365,1 C177.608895,1.16682572 177.59316,1.33990253 177.59316,1.51923077 C177.59316,2.19872135 177.822005,2.78204885 178.279703,3.26923077 C178.7374,3.75641269 179.277241,4 179.89924,4 C180.509503,4 181.04641,3.75961779 181.509975,3.27884615 C181.973541,2.79807452 182.20532,2.21154192 182.20532,1.51923077 C182.20532,1.33990253 182.189381,1.16682572 182.157502,1 L187.339985,1 C187.308515,1.16682572 187.29278,1.33990253 187.29278,1.51923077 C187.29278,2.19872135 187.521625,2.78204885 187.979323,3.26923077 C188.43702,3.75641269 188.976861,4 189.59886,4 C190.209123,4 190.74603,3.75961779 191.209595,3.27884615 C191.673161,2.79807452 191.90494,2.21154192 191.90494,1.51923077 C191.90494,1.33990253 191.889001,1.16682572 191.857122,1 L197.039605,1 C197.008135,1.16682572 196.9924,1.33990253 196.9924,1.51923077 C196.9924,2.19872135 197.221245,2.78204885 197.678943,3.26923077 C198.13664,3.75641269 198.676481,4 199.29848,4 C199.920479,4 200.46032,3.75641269 200.918017,3.26923077 C201.375715,2.78204885 201.60456,2.19872135 201.60456,1.51923077 C201.60456,1.33990253 201.588825,1.16682572 201.557355,1 L206.739225,1 C206.707755,1.16682572 206.69202,1.33990253 206.69202,1.51923077 C206.69202,2.19872135 206.920865,2.78204885 207.378563,3.26923077 C207.83626,3.75641269 208.376101,4 208.9981,4 C209.608363,4 210.14527,3.75961779 210.608835,3.27884615 C211.072401,2.79807452 211.30418,2.21154192 211.30418,1.51923077 C211.30418,1.33990253 211.288241,1.16682572 211.256362,1 L216.438845,1 C216.407375,1.16682572 216.39164,1.33990253 216.39164,1.51923077 C216.39164,2.19872135 216.620485,2.78204885 217.078183,3.26923077 C217.53588,3.75641269 218.075721,4 218.69772,4 C219.307983,4 219.84489,3.75961779 220.308455,3.27884615 C220.772021,2.79807452 221.0038,2.21154192 221.0038,1.51923077 C221.0038,1.33990253 220.987861,1.16682572 220.955982,1 L226.138465,1 C226.106995,1.16682572 226.09126,1.33990253 226.09126,1.51923077 C226.09126,2.19872135 226.320105,2.78204885 226.777803,3.26923077 C227.2355,3.75641269 227.775341,4 228.39734,4 C229.019339,4 229.55918,3.75641269 230.016877,3.26923077 C230.474575,2.78204885 230.70342,2.19872135 230.70342,1.51923077 C230.70342,1.33990253 230.687685,1.16682572 230.656215,1 L235.838085,1 C235.806615,1.16682572 235.79088,1.33990253 235.79088,1.51923077 C235.79088,2.19872135 236.019725,2.78204885 236.477423,3.26923077 C236.93512,3.75641269 237.474961,4 238.09696,4 C238.707223,4 239.24413,3.75961779 239.707695,3.27884615 C240.171261,2.79807452 240.40304,2.21154192 240.40304,1.51923077 C240.40304,1.33990253 240.387101,1.16682572 240.355222,1 L245.537705,1 C245.506235,1.16682572 245.4905,1.33990253 245.4905,1.51923077 C245.4905,2.19872135 245.719345,2.78204885 246.177043,3.26923077 C246.63474,3.75641269 247.174581,4 247.79658,4 C248.406843,4 248.94375,3.75961779 249.407315,3.27884615 C249.870881,2.79807452 250.10266,2.21154192 250.10266,1.51923077 C250.10266,1.33990253 250.086721,1.16682572 250.054842,1 L255.237325,1 C255.205855,1.16682572 255.19012,1.33990253 255.19012,1.51923077 C255.19012,2.19872135 255.418965,2.78204885 255.876663,3.26923077 C256.33436,3.75641269 256.874201,4 257.4962,4 C258.118199,4 258.65804,3.75641269 259.115737,3.26923077 C259.573435,2.78204885 259.80228,2.19872135 259.80228,1.51923077 C259.80228,1.33990253 259.786545,1.16682572 259.755075,1 L264.936945,1 C264.905475,1.16682572 264.88974,1.33990253 264.88974,1.51923077 C264.88974,2.19872135 265.118585,2.78204885 265.576283,3.26923077 C266.03398,3.75641269 266.573821,4 267.19582,4 C267.806083,4 268.34299,3.75961779 268.806555,3.27884615 C269.270121,2.79807452 269.5019,2.21154192 269.5019,1.51923077 C269.5019,1.33990253 269.485961,1.16682572 269.454082,1 L274.636565,1 C274.605095,1.16682572 274.58936,1.33990253 274.58936,1.51923077 C274.58936,2.19872135 274.818205,2.78204885 275.275903,3.26923077 C275.7336,3.75641269 276.273441,4 276.89544,4 C277.505703,4 278.04261,3.75961779 278.506175,3.27884615 C278.969741,2.79807452 279.20152,2.21154192 279.20152,1.51923077 C279.20152,1.33990253 279.185581,1.16682572 279.153702,1 L284.336185,1 C284.304715,1.16682572 284.28898,1.33990253 284.28898,1.51923077 C284.28898,2.19872135 284.517825,2.78204885 284.975523,3.26923077 C285.43322,3.75641269 285.97306,4 286.59506,4 C287.217059,4 287.756899,3.75641269 288.214597,3.26923077 C288.672295,2.78204885 288.90114,2.19872135 288.90114,1.51923077 C288.90114,1.33990253 288.885405,1.16682572 288.853935,1 L294.035805,1 C294.004335,1.16682572 293.9886,1.33990253 293.9886,1.51923077 C293.9886,2.19872135 294.217445,2.78204885 294.675143,3.26923077 C295.13284,3.75641269 295.67268,4 296.29468,4 C296.904943,4 297.44185,3.75961779 297.905415,3.27884615 C298.368981,2.79807452 298.60076,2.21154192 298.60076,1.51923077 C298.60076,1.33990253 298.584821,1.16682572 298.552942,1 L303.735425,1 C303.703955,1.16682572 303.68822,1.33990253 303.68822,1.51923077 C303.68822,2.19872135 303.917065,2.78204885 304.374762,3.26923077 C304.83246,3.75641269 305.3723,4 305.9943,4 C306.604563,4 307.14147,3.75961779 307.605035,3.27884615 C308.068601,2.79807452 308.30038,2.21154192 308.30038,1.51923077 C308.30038,1.33990253 308.284441,1.16682572 308.252562,1 L313.435045,1 C313.403575,1.16682572 313.387839,1.33990253 313.387839,1.51923077 C313.387839,2.19872135 313.616685,2.78204885 314.074382,3.26923077 C314.53208,3.75641269 315.07192,4 315.69392,4 C316.315919,4 316.855759,3.75641269 317.313457,3.26923077 C317.771155,2.78204885 318,2.19872135 318,1.51923077 C318,1.33990253 317.984265,1.16682572 317.952795,1 L320,1 L320,526 L0,526 L0,1 L3.04720534,1 Z" id="Rectangle-2" fill="#E1F5FE"></path>
        <g id="1" transform="translate(60.000000, 100.000000)">
            <text id="Chanchan" font-family="SFCompactDisplay-Semibold, SF Compact Display" font-size="20" font-weight="500" line-spacing="20" letter-spacing="-1" fill="#343D51">
                <tspan x="0" y="19">Chanchan</tspan>
            </text>
            <text id="—-Giới-thiệu-về-Chan" font-family="Georgia-Italic, Georgia" font-size="14" font-style="italic" font-weight="normal" line-spacing="22" fill="#5D6A80">
                <tspan x="0" y="45">— Giới thiệu về Chanchan</tspan>
            </text>
            <text id="……………………………………………………" font-family="Georgia-Italic, Georgia" font-size="14" font-style="italic" font-weight="normal" line-spacing="22" fill="#DADFE7">
                <tspan x="0" y="79">……………………………………………………</tspan>
            </text>
        </g>
        <g id="2" transform="translate(60.000000, 212.000000)">
            <text id="Blog" font-family="SFCompactDisplay-Semibold, SF Compact Display" font-size="20" font-weight="500" line-spacing="20" letter-spacing="-1" fill="#343D51">
                <tspan x="0" y="19">Blog</tspan>
            </text>
            <text id="—-Hiểu-thêm-về-Chanc" font-family="Georgia-Italic, Georgia" font-size="14" font-style="italic" font-weight="normal" line-spacing="22" fill="#5D6A80">
                <tspan x="0" y="45">— Hiểu thêm về Chanchan qua </tspan>
                <tspan x="0" y="67">những bài viết</tspan>
            </text>
            <text id="……………………………………………………" font-family="Georgia-Italic, Georgia" font-size="14" font-style="italic" font-weight="normal" line-spacing="22" fill="#DADFE7">
                <tspan x="0" y="101">…………………………………………………….</tspan>
            </text>
        </g>
        <g id="3" transform="translate(30.000000, 346.000000)">
            <text id="Đăng-ký" font-family="SFCompactDisplay-Semibold, SF Compact Display" font-size="20" font-weight="500" line-spacing="20" letter-spacing="-1" fill="#343D51">
                <tspan x="30" y="19">Đăng ký</tspan>
            </text>
            <text id="—-Đăng-ký-Thành-viên" font-family="Georgia-Italic, Georgia" font-size="14" font-style="italic" font-weight="normal" line-spacing="22" fill="#5D6A80">
                <tspan x="30" y="45">— Đăng ký Thành viên mới</tspan>
            </text>
            <text id="……………………………………………………" font-family="Georgia-Italic, Georgia" font-size="14" font-style="italic" font-weight="normal" line-spacing="22" fill="#DADFE7">
                <tspan x="0" y="79">……………………………………………………………</tspan>
            </text>
        </g>
        <text id="Chanchan-là-một-sản" font-family="SFCompactDisplay-Regular, SF Compact Display" font-size="15" font-weight="normal" line-spacing="22" fill="#8C96A8">
            <tspan x="30" y="464">Chanchan là một sản phẩm công nghệ </tspan>
            <tspan x="30" y="486">của Mastercus Vietnam .ltd</tspan>
        </text>
        <text id="“-Tìm-hiểu-thêm-về-C" font-family="Georgia-Italic, Georgia" font-size="15" font-style="italic" font-weight="normal" line-spacing="22" fill="#343D51">
            <tspan x="30" y="56">“ Tìm hiểu thêm về Chanchan</tspan>
        </text>
        <path d="M43.8303677,112.834786 C43.8303677,113.305335 43.6983374,113.647786 43.4342728,113.862147 C43.1702083,114.076509 42.8362493,114.183688 42.4323858,114.183688 C42.1734989,114.183688 41.6376112,114.068666 40.8247065,113.83862 C40.0118018,113.608574 39.1497216,113.436041 38.2384399,113.321018 C38.8390574,114.115724 39.5017978,114.863364 40.2266809,115.56396 C40.9515641,116.264556 41.3140002,116.860577 41.3140002,117.352039 C41.3140002,117.697109 41.1638481,117.997734 40.8635394,118.253922 C40.5632306,118.51011 40.2473934,118.638202 39.9160183,118.638202 C39.6881978,118.638202 39.4759138,118.572849 39.2791598,118.442141 C39.0824058,118.311432 38.9115431,118.125829 38.7665664,117.885326 C38.6423007,117.65528 38.4740268,117.132455 38.2617396,116.316835 C38.0494524,115.501216 37.76727,114.664696 37.4151839,113.80725 C37.0734532,114.622869 36.788682,115.462004 36.5608616,116.324678 C36.3330411,117.187352 36.167356,117.707563 36.0638013,117.885326 C35.8981137,118.146743 35.7298398,118.337574 35.5589745,118.457825 C35.3881092,118.578077 35.1732363,118.638202 34.9143495,118.638202 C34.5726188,118.638202 34.2541928,118.515338 33.9590618,118.269607 C33.6639308,118.023875 33.5163675,117.718022 33.5163675,117.352039 C33.5163675,116.860577 33.8788037,116.264556 34.6036868,115.56396 C35.32857,114.863364 35.9913104,114.115724 36.5919278,113.321018 C35.722068,113.425585 34.8677543,113.595503 34.0289609,113.830778 C33.1901675,114.066052 32.6465133,114.183688 32.397982,114.183688 C31.9941185,114.183688 31.6601595,114.076509 31.3960949,113.862147 C31.1320303,113.647786 31,113.305335 31,112.834786 C31,112.406063 31.1320303,112.074069 31.3960949,111.838794 C31.6601595,111.603519 31.9941185,111.485884 32.397982,111.485884 C32.7190016,111.485884 33.2341787,111.593063 33.9435287,111.807424 C34.6528786,112.021786 35.5356695,112.191704 36.5919278,112.317184 C35.9084666,111.438825 35.2250156,110.667658 34.5415543,110.00366 C33.858093,109.339662 33.5163675,108.767169 33.5163675,108.286162 C33.5163675,107.941093 33.6665196,107.640468 33.9668284,107.38428 C34.2671371,107.128092 34.5829743,107 34.9143495,107 C35.1525254,107 35.3673982,107.062739 35.5589745,107.188219 C35.7505508,107.313699 35.9188247,107.496688 36.0638013,107.737191 C36.188067,107.967237 36.3589297,108.49529 36.5763947,109.321366 C36.7938596,110.147442 37.0734532,110.983962 37.4151839,111.830952 C37.7569145,110.973506 38.0390969,110.131757 38.2617396,109.305682 C38.4843823,108.479606 38.6526562,107.95678 38.7665664,107.737191 C38.8908321,107.517601 39.0539284,107.33984 39.2558601,107.203904 C39.4577918,107.067967 39.6778424,107 39.9160183,107 C40.2577489,107 40.5761749,107.122864 40.8713059,107.368595 C41.1664369,107.614327 41.3140002,107.920179 41.3140002,108.286162 C41.3140002,108.767169 40.9903965,109.329206 40.3431794,109.97229 C39.6959623,110.615375 38.9995671,111.396998 38.253973,112.317184 C39.2895204,112.181247 40.177489,112.008715 40.9179053,111.799582 C41.6583217,111.590449 42.1631435,111.485884 42.4323858,111.485884 C42.8362493,111.485884 43.1702083,111.603519 43.4342728,111.838794 C43.6983374,112.074069 43.8303677,112.406063 43.8303677,112.834786 Z M44,359.215597 C44,359.684605 43.8689218,360.025934 43.6067616,360.239593 C43.3446013,360.453252 43.0130506,360.56008 42.6120996,360.56008 C42.3550798,360.56008 41.8230566,360.445435 41.0160142,360.216143 C40.2089718,359.98685 39.3531085,359.814883 38.4483986,359.700236 C39.0446847,360.492339 39.7026457,361.237529 40.4223013,361.93583 C41.1419569,362.634131 41.5017794,363.228198 41.5017794,363.718051 C41.5017794,364.06199 41.3527101,364.36163 41.054567,364.616979 C40.756424,364.872328 40.4428644,365 40.113879,365 C39.8877015,365 39.6769484,364.934861 39.4816133,364.804581 C39.2862782,364.674301 39.1166476,364.489306 38.9727165,364.249591 C38.849347,364.020298 38.6822865,363.499186 38.4715302,362.686239 C38.260774,361.873292 37.9806265,361.039512 37.6310795,360.184875 C37.2918133,360.997823 37.0090956,361.834208 36.7829181,362.694056 C36.5567407,363.553904 36.3922504,364.07241 36.2894425,364.249591 C36.1249498,364.510151 35.9578893,364.700357 35.7882562,364.820215 C35.6186231,364.940072 35.4052998,365 35.14828,365 C34.8090137,365 34.492884,364.877539 34.1998814,364.632612 C33.9068787,364.387686 33.7603796,364.082835 33.7603796,363.718051 C33.7603796,363.228198 34.120202,362.634131 34.8398577,361.93583 C35.5595133,361.237529 36.2174743,360.492339 36.8137604,359.700236 C35.9501736,359.80446 35.1020208,359.973822 34.2692764,360.208326 C33.436532,360.44283 32.8967984,360.56008 32.6500593,360.56008 C32.2491083,360.56008 31.9175577,360.453252 31.6553974,360.239593 C31.3932371,360.025934 31.262159,359.684605 31.262159,359.215597 C31.262159,358.788279 31.3932371,358.457373 31.6553974,358.222869 C31.9175577,357.988365 32.2491083,357.871114 32.6500593,357.871114 C32.968764,357.871114 33.4802258,357.977942 34.1844603,358.191602 C34.8886947,358.405261 35.7651193,358.574622 36.8137604,358.699691 C36.1352279,357.824209 35.4567056,357.055569 34.7781732,356.393747 C34.0996407,355.731924 33.7603796,355.161306 33.7603796,354.681876 C33.7603796,354.337937 33.9094489,354.038297 34.2075919,353.782949 C34.505735,353.5276 34.8192945,353.399927 35.14828,353.399927 C35.3847382,353.399927 35.5980615,353.462461 35.7882562,353.58753 C35.9784509,353.712598 36.1455113,353.894988 36.2894425,354.134703 C36.412812,354.363996 36.5824426,354.890319 36.7983393,355.713688 C37.014236,356.537058 37.2918133,357.370837 37.6310795,358.215052 C37.9703457,357.360415 38.2504932,356.521424 38.4715302,355.698055 C38.6925673,354.874685 38.8596277,354.353573 38.9727165,354.134703 C39.096086,353.915832 39.2580061,353.738654 39.4584816,353.603163 C39.6589571,353.467672 39.8774207,353.399927 40.113879,353.399927 C40.4531452,353.399927 40.7692749,353.522389 41.0622776,353.767315 C41.3552802,354.012241 41.5017794,354.317092 41.5017794,354.681876 C41.5017794,355.161306 41.1805093,355.721502 40.5379597,356.36248 C39.89541,357.003457 39.2040369,357.78252 38.4638197,358.699691 C39.4918992,358.5642 40.3734641,358.392233 41.1085409,358.183785 C41.8436178,357.975337 42.344799,357.871114 42.6120996,357.871114 C43.0130506,357.871114 43.3446013,357.988365 43.6067616,358.222869 C43.8689218,358.457373 44,358.788279 44,359.215597 Z M43.8303677,225.264208 C43.8303677,225.734758 43.6983374,226.077208 43.4342728,226.29157 C43.1702083,226.505931 42.8362493,226.61311 42.4323858,226.61311 C42.1734989,226.61311 41.6376112,226.498089 40.8247065,226.268042 C40.0118018,226.037996 39.1497216,225.865463 38.2384399,225.75044 C38.8390574,226.545146 39.5017978,227.292786 40.2266809,227.993382 C40.9515641,228.693978 41.3140002,229.289999 41.3140002,229.781462 C41.3140002,230.126531 41.1638481,230.427156 40.8635394,230.683344 C40.5632306,230.939532 40.2473934,231.067624 39.9160183,231.067624 C39.6881978,231.067624 39.4759138,231.002271 39.2791598,230.871563 C39.0824058,230.740854 38.9115431,230.555252 38.7665664,230.314748 C38.6423007,230.084702 38.4740268,229.561877 38.2617396,228.746258 C38.0494524,227.930638 37.76727,227.094118 37.4151839,226.236672 C37.0734532,227.052292 36.788682,227.891426 36.5608616,228.7541 C36.3330411,229.616774 36.167356,230.136985 36.0638013,230.314748 C35.8981137,230.576165 35.7298398,230.766996 35.5589745,230.887248 C35.3881092,231.007499 35.1732363,231.067624 34.9143495,231.067624 C34.5726188,231.067624 34.2541928,230.94476 33.9590618,230.699029 C33.6639308,230.453297 33.5163675,230.147445 33.5163675,229.781462 C33.5163675,229.289999 33.8788037,228.693978 34.6036868,227.993382 C35.32857,227.292786 35.9913104,226.545146 36.5919278,225.75044 C35.722068,225.855007 34.8677543,226.024925 34.0289609,226.2602 C33.1901675,226.495474 32.6465133,226.61311 32.397982,226.61311 C31.9941185,226.61311 31.6601595,226.505931 31.3960949,226.29157 C31.1320303,226.077208 31,225.734758 31,225.264208 C31,224.835485 31.1320303,224.503491 31.3960949,224.268216 C31.6601595,224.032942 31.9941185,223.915306 32.397982,223.915306 C32.7190016,223.915306 33.2341787,224.022485 33.9435287,224.236847 C34.6528786,224.451208 35.5356695,224.621126 36.5919278,224.746606 C35.9084666,223.868247 35.2250156,223.09708 34.5415543,222.433082 C33.858093,221.769084 33.5163675,221.196591 33.5163675,220.715585 C33.5163675,220.370515 33.6665196,220.069891 33.9668284,219.813702 C34.2671371,219.557514 34.5829743,219.429422 34.9143495,219.429422 C35.1525254,219.429422 35.3673982,219.492161 35.5589745,219.617641 C35.7505508,219.743121 35.9188247,219.92611 36.0638013,220.166613 C36.188067,220.396659 36.3589297,220.924713 36.5763947,221.750789 C36.7938596,222.576865 37.0734532,223.413385 37.4151839,224.260374 C37.7569145,223.402928 38.0390969,222.56118 38.2617396,221.735104 C38.4843823,220.909028 38.6526562,220.386203 38.7665664,220.166613 C38.8908321,219.947023 39.0539284,219.769263 39.2558601,219.633326 C39.4577918,219.497389 39.6778424,219.429422 39.9160183,219.429422 C40.2577489,219.429422 40.5761749,219.552286 40.8713059,219.798018 C41.1664369,220.043749 41.3140002,220.349602 41.3140002,220.715585 C41.3140002,221.196591 40.9903965,221.758628 40.3431794,222.401712 C39.6959623,223.044797 38.9995671,223.82642 38.253973,224.746606 C39.2895204,224.61067 40.177489,224.438137 40.9179053,224.229004 C41.6583217,224.019871 42.1631435,223.915306 42.4323858,223.915306 C42.8362493,223.915306 43.1702083,224.032942 43.4342728,224.268216 C43.6983374,224.503491 43.8303677,224.835485 43.8303677,225.264208 Z" id="*-2" fill="url(#linearGradient-1)" fill-rule="nonzero"></path>
    </g>
</svg>