<?xml version="1.0" encoding="UTF-8"?>
<svg width="320px" height="522px" viewBox="0 0 320 522" version="1.1" xmlns="http://www.w3.org/2000/svg" xmlns:xlink="http://www.w3.org/1999/xlink">
    <!-- Generator: Sketch 54.1 (76490) - https://sketchapp.com -->
    <title>maplink_nosaw</title>
    <desc>Created with Sketch.</desc>
    <defs>
        <linearGradient x1="28.347926%" y1="0%" x2="28.347926%" y2="100%" id="linearGradient-1">
            <stop stop-color="#F50057" offset="0%"></stop>
            <stop stop-color="#D500F9" offset="27.0323562%"></stop>
            <stop stop-color="#651FFF" offset="76.6351303%"></stop>
            <stop stop-color="#3D5AFE" offset="100%"></stop>
        </linearGradient>
    </defs>
    <g id="maplink_nosaw" stroke="none" stroke-width="1" fill="none" fill-rule="evenodd">
        <rect fill="#FFFFFF" x="0" y="0" width="320" height="522"></rect>
        <g id="1" transform="translate(60.000000, 96.000000)">
            <text id="Chanchan" font-family="SFCompactDisplay-Semibold, SF Compact Display" font-size="20" font-weight="500" line-spacing="20" letter-spacing="-1" fill="#343D51">
                <tspan x="0" y="19">Chanchan</tspan>
            </text>
            <text id="—-Giới-thiệu-về-Chan" font-family="Georgia-Italic, Georgia" font-size="14" font-style="italic" font-weight="normal" line-spacing="22" fill="#5D6A80">
                <tspan x="0" y="45">— Giới thiệu về Chanchan</tspan>
            </text>
            <text id="……………………………………………………" font-family="Georgia-Italic, Georgia" font-size="14" font-style="italic" font-weight="normal" line-spacing="22" fill="#DADFE7">
                <tspan x="0" y="79">……………………………………………………</tspan>
            </text>
        </g>
        <g id="2" transform="translate(60.000000, 208.000000)">
            <text id="Blog" font-family="SFCompactDisplay-Semibold, SF Compact Display" font-size="20" font-weight="500" line-spacing="20" letter-spacing="-1" fill="#343D51">
                <tspan x="0" y="19">Blog</tspan>
            </text>
            <text id="—-Hiểu-thêm-về-Chanc" font-family="Georgia-Italic, Georgia" font-size="14" font-style="italic" font-weight="normal" line-spacing="22" fill="#5D6A80">
                <tspan x="0" y="45">— Hiểu thêm về Chanchan qua </tspan>
                <tspan x="0" y="67">những bài viết</tspan>
            </text>
            <text id="……………………………………………………" font-family="Georgia-Italic, Georgia" font-size="14" font-style="italic" font-weight="normal" line-spacing="22" fill="#DADFE7">
                <tspan x="0" y="101">…………………………………………………….</tspan>
            </text>
        </g>
        <g id="3" transform="translate(30.000000, 342.000000)">
            <text id="Đăng-ký" font-family="SFCompactDisplay-Semibold, SF Compact Display" font-size="20" font-weight="500" line-spacing="20" letter-spacing="-1" fill="#343D51">
                <tspan x="30" y="19">Đăng ký</tspan>
            </text>
            <text id="—-Đăng-ký-Thành-viên" font-family="Georgia-Italic, Georgia" font-size="14" font-style="italic" font-weight="normal" line-spacing="22" fill="#5D6A80">
                <tspan x="30" y="45">— Đăng ký Thành viên mới</tspan>
            </text>
            <text id="……………………………………………………" font-family="Georgia-Italic, Georgia" font-size="14" font-style="italic" font-weight="normal" line-spacing="22" fill="#DADFE7">
                <tspan x="0" y="79">……………………………………………………………</tspan>
            </text>
        </g>
        <text id="Chanchan-là-một-sản" font-family="SFCompactDisplay-Regular, SF Compact Display" font-size="15" font-weight="normal" line-spacing="22" fill="#8C96A8">
            <tspan x="30" y="460">Chanchan là một sản phẩm công nghệ </tspan>
            <tspan x="30" y="482">của Mastercus Vietnam .ltd</tspan>
        </text>
        <text id="“-Tìm-hiểu-thêm-về-C" font-family="Georgia-Italic, Georgia" font-size="15" font-style="italic" font-weight="normal" line-spacing="22" fill="#343D51">
            <tspan x="30" y="52">“ Tìm hiểu thêm về Chanchan</tspan>
        </text>
        <path d="M44,108.831606 C44,109.301899 43.8662241,109.644162 43.5986683,109.858407 C43.3311125,110.072652 42.9927381,110.179772 42.5835351,110.179772 C42.3212255,110.179772 41.7782527,110.064814 40.9546005,109.834893 C40.1309483,109.604971 39.2574703,109.432533 38.3341404,109.317573 C38.9426988,110.111846 39.6142013,110.859078 40.3486683,111.559292 C41.0831352,112.259506 41.4503632,112.855202 41.4503632,113.346397 C41.4503632,113.691279 41.2982259,113.991739 40.9939467,114.247788 C40.6896676,114.503836 40.3696546,114.631858 40.0338983,114.631858 C39.8030658,114.631858 39.5879752,114.566541 39.3886199,114.435904 C39.1892645,114.305267 39.0161428,114.119765 38.8692494,113.879393 C38.7433408,113.649472 38.5728421,113.126932 38.3577482,112.311757 C38.1426543,111.496583 37.8567411,110.660518 37.5,109.80354 C37.1537513,110.618715 36.865215,111.457391 36.6343826,112.319595 C36.4035501,113.1818 36.2356745,113.701727 36.1307506,113.879393 C35.9628724,114.140667 35.7923737,114.331394 35.6192494,114.45158 C35.446125,114.571766 35.2284113,114.631858 34.9661017,114.631858 C34.619853,114.631858 34.297217,114.509061 33.998184,114.263464 C33.699151,114.017866 33.5496368,113.712181 33.5496368,113.346397 C33.5496368,112.855202 33.9168648,112.259506 34.6513317,111.559292 C35.3857987,110.859078 36.0573012,110.111846 36.6658596,109.317573 C35.7844992,109.422082 34.9188904,109.591908 34.0690073,109.827054 C33.2191241,110.062201 32.6682821,110.179772 32.4164649,110.179772 C32.0072619,110.179772 31.6688875,110.072652 31.4013317,109.858407 C31.1337759,109.644162 31,109.301899 31,108.831606 C31,108.403116 31.1337759,108.071303 31.4013317,107.836157 C31.6688875,107.60101 32.0072619,107.483439 32.4164649,107.483439 C32.7417288,107.483439 33.2637171,107.590559 33.9824455,107.804804 C34.7011739,108.019049 35.5956363,108.188874 36.6658596,108.314286 C35.9733622,107.436405 35.2808751,106.665659 34.5883777,106.002023 C33.8958803,105.338387 33.5496368,104.766206 33.5496368,104.285461 C33.5496368,103.94058 33.7017741,103.640119 34.0060533,103.384071 C34.3103324,103.128022 34.6303454,103 34.9661017,103 C35.2074265,103 35.4251403,103.062705 35.6192494,103.188116 C35.8133585,103.313528 35.9838572,103.496417 36.1307506,103.736789 C36.2566592,103.96671 36.429781,104.494475 36.6501211,105.320101 C36.8704612,106.145727 37.1537513,106.981791 37.5,107.828319 C37.8462487,106.97134 38.1321619,106.13005 38.3577482,105.304425 C38.5833345,104.478799 38.7538332,103.956259 38.8692494,103.736789 C38.995158,103.517319 39.1604106,103.339655 39.3650121,103.203793 C39.5696136,103.06793 39.7925735,103 40.0338983,103 C40.380147,103 40.702783,103.122797 41.001816,103.368394 C41.300849,103.613992 41.4503632,103.919678 41.4503632,104.285461 C41.4503632,104.766206 41.1224811,105.327936 40.466707,105.97067 C39.810933,106.613404 39.1053307,107.394601 38.3498789,108.314286 C39.3991174,108.178423 40.298826,108.005985 41.0490315,107.796966 C41.799237,107.587947 42.3107331,107.483439 42.5835351,107.483439 C42.9927381,107.483439 43.3311125,107.60101 43.5986683,107.836157 C43.8662241,108.071303 44,108.403116 44,108.831606 Z M44.171875,355.078125 C44.171875,355.546877 44.0390638,355.88802 43.7734375,356.101562 C43.5078112,356.315105 43.171877,356.421875 42.765625,356.421875 C42.505207,356.421875 41.9661499,356.307293 41.1484375,356.078125 C40.3307251,355.848957 39.4635463,355.677084 38.546875,355.5625 C39.1510447,356.354171 39.8177047,357.098955 40.546875,357.796875 C41.2760453,358.494795 41.640625,359.088539 41.640625,359.578125 C41.640625,359.921877 41.4895848,360.221353 41.1875,360.476562 C40.8854152,360.731772 40.56771,360.859375 40.234375,360.859375 C40.0052072,360.859375 39.7916677,360.794271 39.59375,360.664062 C39.3958323,360.533854 39.2239591,360.34896 39.078125,360.109375 C38.9531244,359.880207 38.7838552,359.359379 38.5703125,358.546875 C38.3567698,357.734371 38.0729184,356.901046 37.71875,356.046875 C37.3749983,356.859379 37.0885428,357.695308 36.859375,358.554688 C36.6302072,359.414067 36.4635422,359.932291 36.359375,360.109375 C36.1927075,360.369793 36.0234384,360.559895 35.8515625,360.679688 C35.6796866,360.79948 35.463543,360.859375 35.203125,360.859375 C34.8593733,360.859375 34.539064,360.73698 34.2421875,360.492188 C33.945311,360.247395 33.796875,359.94271 33.796875,359.578125 C33.796875,359.088539 34.1614547,358.494795 34.890625,357.796875 C35.6197953,357.098955 36.2864553,356.354171 36.890625,355.5625 C36.0156206,355.666667 35.1562542,355.835936 34.3125,356.070312 C33.4687458,356.304689 32.9218762,356.421875 32.671875,356.421875 C32.265623,356.421875 31.9296888,356.315105 31.6640625,356.101562 C31.3984362,355.88802 31.265625,355.546877 31.265625,355.078125 C31.265625,354.65104 31.3984362,354.320314 31.6640625,354.085938 C31.9296888,353.851561 32.265623,353.734375 32.671875,353.734375 C32.9947933,353.734375 33.5130173,353.841145 34.2265625,354.054688 C34.9401077,354.26823 35.8281197,354.437499 36.890625,354.5625 C36.2031216,353.687496 35.5156284,352.919274 34.828125,352.257812 C34.1406216,351.596351 33.796875,351.026044 33.796875,350.546875 C33.796875,350.203123 33.9479152,349.903647 34.25,349.648438 C34.5520848,349.393228 34.86979,349.265625 35.203125,349.265625 C35.4427095,349.265625 35.6588532,349.328124 35.8515625,349.453125 C36.0442718,349.578126 36.2135409,349.760415 36.359375,350 C36.4843756,350.229168 36.6562489,350.755204 36.875,351.578125 C37.0937511,352.401046 37.3749983,353.234371 37.71875,354.078125 C38.0625017,353.223954 38.346353,352.385421 38.5703125,351.5625 C38.794272,350.739579 38.9635411,350.218751 39.078125,350 C39.2031256,349.781249 39.3671865,349.604167 39.5703125,349.46875 C39.7734385,349.333333 39.9947905,349.265625 40.234375,349.265625 C40.5781267,349.265625 40.898436,349.38802 41.1953125,349.632812 C41.492189,349.877605 41.640625,350.18229 41.640625,350.546875 C41.640625,351.026044 41.3151074,351.585934 40.6640625,352.226562 C40.0130176,352.867191 39.3125037,353.645829 38.5625,354.5625 C39.6041719,354.427083 40.4973921,354.255209 41.2421875,354.046875 C41.9869829,353.838541 42.4947903,353.734375 42.765625,353.734375 C43.171877,353.734375 43.5078112,353.851561 43.7734375,354.085938 C44.0390638,354.320314 44.171875,354.65104 44.171875,355.078125 Z M44,221.199747 C44,221.67004 43.8662241,222.012304 43.5986683,222.226549 C43.3311125,222.440793 42.9927381,222.547914 42.5835351,222.547914 C42.3212255,222.547914 41.7782527,222.432955 40.9546005,222.203034 C40.1309483,221.973113 39.2574703,221.800675 38.3341404,221.685714 C38.9426988,222.479987 39.6142013,223.227219 40.3486683,223.927434 C41.0831352,224.627648 41.4503632,225.223344 41.4503632,225.714539 C41.4503632,226.05942 41.2982259,226.359881 40.9939467,226.615929 C40.6896676,226.871978 40.3696546,227 40.0338983,227 C39.8030658,227 39.5879752,226.934682 39.3886199,226.804046 C39.1892645,226.673409 39.0161428,226.487907 38.8692494,226.247535 C38.7433408,226.017614 38.5728421,225.495074 38.3577482,224.679899 C38.1426543,223.864724 37.8567411,223.02866 37.5,222.171681 C37.1537513,222.986856 36.865215,223.825533 36.6343826,224.687737 C36.4035501,225.549941 36.2356745,226.069868 36.1307506,226.247535 C35.9628724,226.508809 35.7923737,226.699536 35.6192494,226.819722 C35.446125,226.939908 35.2284113,227 34.9661017,227 C34.619853,227 34.297217,226.877203 33.998184,226.631606 C33.699151,226.386008 33.5496368,226.080322 33.5496368,225.714539 C33.5496368,225.223344 33.9168648,224.627648 34.6513317,223.927434 C35.3857987,223.227219 36.0573012,222.479987 36.6658596,221.685714 C35.7844992,221.790224 34.9188904,221.960049 34.0690073,222.195196 C33.2191241,222.430343 32.6682821,222.547914 32.4164649,222.547914 C32.0072619,222.547914 31.6688875,222.440793 31.4013317,222.226549 C31.1337759,222.012304 31,221.67004 31,221.199747 C31,220.771258 31.1337759,220.439445 31.4013317,220.204298 C31.6688875,219.969152 32.0072619,219.85158 32.4164649,219.85158 C32.7417288,219.85158 33.2637171,219.958701 33.9824455,220.172946 C34.7011739,220.38719 35.5956363,220.557016 36.6658596,220.682427 C35.9733622,219.804547 35.2808751,219.0338 34.5883777,218.370164 C33.8958803,217.706528 33.5496368,217.134347 33.5496368,216.653603 C33.5496368,216.308721 33.7017741,216.008261 34.0060533,215.752212 C34.3103324,215.496164 34.6303454,215.368142 34.9661017,215.368142 C35.2074265,215.368142 35.4251403,215.430846 35.6192494,215.556258 C35.8133585,215.681669 35.9838572,215.864558 36.1307506,216.10493 C36.2566592,216.334852 36.429781,216.862617 36.6501211,217.688243 C36.8704612,218.513868 37.1537513,219.349933 37.5,220.19646 C37.8462487,219.339482 38.1321619,218.498192 38.3577482,217.672566 C38.5833345,216.846941 38.7538332,216.324401 38.8692494,216.10493 C38.995158,215.88546 39.1604106,215.707797 39.3650121,215.571934 C39.5696136,215.436072 39.7925735,215.368142 40.0338983,215.368142 C40.380147,215.368142 40.702783,215.490939 41.001816,215.736536 C41.300849,215.982134 41.4503632,216.287819 41.4503632,216.653603 C41.4503632,217.134347 41.1224811,217.696078 40.466707,218.338812 C39.810933,218.981546 39.1053307,219.762743 38.3498789,220.682427 C39.3991174,220.546565 40.298826,220.374127 41.0490315,220.165107 C41.799237,219.956088 42.3107331,219.85158 42.5835351,219.85158 C42.9927381,219.85158 43.3311125,219.969152 43.5986683,220.204298 C43.8662241,220.439445 44,220.771258 44,221.199747 Z" id="*-2" fill="url(#linearGradient-1)" fill-rule="nonzero"></path>
    </g>
</svg>