<?xml version="1.0" encoding="UTF-8"?>
<svg width="320px" height="521px" viewBox="0 0 320 521" version="1.1" xmlns="http://www.w3.org/2000/svg" xmlns:xlink="http://www.w3.org/1999/xlink">
    <!-- Generator: Sketch 54.1 (76490) - https://sketchapp.com -->
    <title>maplink</title>
    <desc>Created with Sketch.</desc>
    <defs>
        <linearGradient x1="154.972398%" y1="-125.023792%" x2="-39.2936878%" y2="194.81112%" id="linearGradient-1">
            <stop stop-color="#651FFF" offset="0%"></stop>
            <stop stop-color="#3D5AFE" offset="100%"></stop>
        </linearGradient>
        <path d="M280,115 C274.477153,115 270,110.522847 270,105 C270,99.4771525 274.477153,95 280,95 C285.522847,95 290,99.4771525 290,105 C290,110.522847 285.522847,115 280,115 Z M282.75,105.000015 C282.75,104.835791 282.690112,104.671526 282.570298,104.546212 L278.798714,100.604805 C278.558794,100.353954 278.169806,100.353954 277.929983,100.604805 C277.690161,100.855412 277.690161,101.261804 277.929983,101.512533 L281.267173,105.000015 L277.929867,108.487477 C277.690044,108.738227 277.690044,109.144659 277.929867,109.395287 C278.169689,109.646016 278.558678,109.646016 278.798597,109.395287 L282.570182,105.453818 C282.689976,105.328566 282.75,105.164301 282.75,105.000015 Z" id="path-2"></path>
        <filter x="-10.0%" y="-10.0%" width="120.0%" height="120.0%" filterUnits="objectBoundingBox" id="filter-3">
            <feGaussianBlur stdDeviation="1.5" in="SourceAlpha" result="shadowBlurInner1"></feGaussianBlur>
            <feOffset dx="-1" dy="1" in="shadowBlurInner1" result="shadowOffsetInner1"></feOffset>
            <feComposite in="shadowOffsetInner1" in2="SourceAlpha" operator="arithmetic" k2="-1" k3="1" result="shadowInnerInner1"></feComposite>
            <feColorMatrix values="0 0 0 0 0   0 0 0 0 0   0 0 0 0 0  0 0 0 0.25 0" type="matrix" in="shadowInnerInner1"></feColorMatrix>
        </filter>
        <linearGradient x1="154.972398%" y1="-125.023792%" x2="-39.2936878%" y2="194.81112%" id="linearGradient-4">
            <stop stop-color="#D500F9" offset="0%"></stop>
            <stop stop-color="#651FFF" offset="100%"></stop>
        </linearGradient>
        <path d="M280,227 C274.477153,227 270,222.522847 270,217 C270,211.477153 274.477153,207 280,207 C285.522847,207 290,211.477153 290,217 C290,222.522847 285.522847,227 280,227 Z M282.75,217.000015 C282.75,216.835791 282.690112,216.671526 282.570298,216.546212 L278.798714,212.604805 C278.558794,212.353954 278.169806,212.353954 277.929983,212.604805 C277.690161,212.855412 277.690161,213.261804 277.929983,213.512533 L281.267173,217.000015 L277.929867,220.487477 C277.690044,220.738227 277.690044,221.144659 277.929867,221.395287 C278.169689,221.646016 278.558678,221.646016 278.798597,221.395287 L282.570182,217.453818 C282.689976,217.328566 282.75,217.164301 282.75,217.000015 Z" id="path-5"></path>
        <filter x="-10.0%" y="-10.0%" width="120.0%" height="120.0%" filterUnits="objectBoundingBox" id="filter-6">
            <feGaussianBlur stdDeviation="1.5" in="SourceAlpha" result="shadowBlurInner1"></feGaussianBlur>
            <feOffset dx="-1" dy="1" in="shadowBlurInner1" result="shadowOffsetInner1"></feOffset>
            <feComposite in="shadowOffsetInner1" in2="SourceAlpha" operator="arithmetic" k2="-1" k3="1" result="shadowInnerInner1"></feComposite>
            <feColorMatrix values="0 0 0 0 0   0 0 0 0 0   0 0 0 0 0  0 0 0 0.25 0" type="matrix" in="shadowInnerInner1"></feColorMatrix>
        </filter>
        <linearGradient x1="154.972398%" y1="-125.023792%" x2="-39.2936878%" y2="194.81112%" id="linearGradient-7">
            <stop stop-color="#F50057" offset="0%"></stop>
            <stop stop-color="#D500F9" offset="100%"></stop>
        </linearGradient>
        <path d="M280,359 C274.477153,359 270,354.522847 270,349 C270,343.477153 274.477153,339 280,339 C285.522847,339 290,343.477153 290,349 C290,354.522847 285.522847,359 280,359 Z M282.75,349.000015 C282.75,348.835791 282.690112,348.671526 282.570298,348.546212 L278.798714,344.604805 C278.558794,344.353954 278.169806,344.353954 277.929983,344.604805 C277.690161,344.855412 277.690161,345.261804 277.929983,345.512533 L281.267173,349.000015 L277.929867,352.487477 C277.690044,352.738227 277.690044,353.144659 277.929867,353.395287 C278.169689,353.646016 278.558678,353.646016 278.798597,353.395287 L282.570182,349.453818 C282.689976,349.328566 282.75,349.164301 282.75,349.000015 Z" id="path-8"></path>
        <filter x="-10.0%" y="-10.0%" width="120.0%" height="120.0%" filterUnits="objectBoundingBox" id="filter-9">
            <feGaussianBlur stdDeviation="1.5" in="SourceAlpha" result="shadowBlurInner1"></feGaussianBlur>
            <feOffset dx="-1" dy="1" in="shadowBlurInner1" result="shadowOffsetInner1"></feOffset>
            <feComposite in="shadowOffsetInner1" in2="SourceAlpha" operator="arithmetic" k2="-1" k3="1" result="shadowInnerInner1"></feComposite>
            <feColorMatrix values="0 0 0 0 0   0 0 0 0 0   0 0 0 0 0  0 0 0 0.25 0" type="matrix" in="shadowInnerInner1"></feColorMatrix>
        </filter>
    </defs>
    <g id="maplink" stroke="none" stroke-width="1" fill="none" fill-rule="evenodd">
        <rect fill="#FFFFFF" x="0" y="0" width="320" height="521"></rect>
        <text id="Chanchan" font-family="SFCompactDisplay-Semibold, SF Compact Display" font-size="20" font-weight="500" letter-spacing="-1" fill="#5D6A80">
            <tspan x="30" y="112">Chanchan</tspan>
        </text>
        <text id="—-Giới-thiệu-về-Chan" font-family="Georgia-Italic, Georgia" font-size="15" font-style="italic" font-weight="normal" line-spacing="20" fill="#8C96A8">
            <tspan x="30" y="143">— Giới thiệu về Chanchan…</tspan>
        </text>
        <text id="……………………………………………………" font-family="Georgia-Italic, Georgia" font-size="14" font-style="italic" font-weight="normal" fill="#DADFE7">
            <tspan x="30" y="178">……………………………………………………</tspan>
        </text>
        <g id="Oval-2">
            <use fill="url(#linearGradient-1)" fill-rule="evenodd" xlink:href="#path-2"></use>
            <use fill="black" fill-opacity="1" filter="url(#filter-3)" xlink:href="#path-2"></use>
        </g>
        <g id="Oval-2">
            <use fill="url(#linearGradient-4)" fill-rule="evenodd" xlink:href="#path-5"></use>
            <use fill="black" fill-opacity="1" filter="url(#filter-6)" xlink:href="#path-5"></use>
        </g>
        <g id="Oval-2">
            <use fill="url(#linearGradient-7)" fill-rule="evenodd" xlink:href="#path-8"></use>
            <use fill="black" fill-opacity="1" filter="url(#filter-9)" xlink:href="#path-8"></use>
        </g>
        <text id="Blog" font-family="SFCompactDisplay-Semibold, SF Compact Display" font-size="20" font-weight="500" letter-spacing="-1" fill="#5D6A80">
            <tspan x="30" y="224">Blog</tspan>
        </text>
        <text id="—-Hiểu-thêm-về-Chanc" font-family="Georgia-Italic, Georgia" font-size="15" font-style="italic" font-weight="normal" line-spacing="20" fill="#8C96A8">
            <tspan x="30" y="255">— Hiểu thêm về Chanchan qua </tspan>
            <tspan x="30" y="275">những bài viết…</tspan>
        </text>
        <text id="……………………………………………………" font-family="Georgia-Italic, Georgia" font-size="14" font-style="italic" font-weight="normal" fill="#DADFE7">
            <tspan x="30" y="310">…………………………………………………….</tspan>
        </text>
        <text id="Đăng-ký" font-family="SFCompactDisplay-Semibold, SF Compact Display" font-size="20" font-weight="500" letter-spacing="-1" fill="#5D6A80">
            <tspan x="30" y="356">Đăng ký</tspan>
        </text>
        <text id="—-Đăng-ký-Thành-viên" font-family="Georgia-Italic, Georgia" font-size="15" font-style="italic" font-weight="normal" line-spacing="20" fill="#8C96A8">
            <tspan x="30" y="387">— Đăng ký Thành viên mới…</tspan>
        </text>
        <text id="……………………………………………………" font-family="Georgia-Italic, Georgia" font-size="14" font-style="italic" font-weight="normal" fill="#DADFE7">
            <tspan x="30" y="422">……………………………………………………………</tspan>
        </text>
        <text id="Chanchan-là-một-sản" opacity="0.8" font-family="SFCompactDisplay-Regular, SF Compact Display" font-size="15" font-weight="normal" fill="#8C96A8">
            <tspan x="30" y="459">Chanchan là một sản phẩm công nghệ </tspan>
            <tspan x="30" y="477">của Mastercus Vietnam .ltd</tspan>
        </text>
        <text id="Tìm-hiểu-thêm-về-Cha" font-family="Georgia-Italic, Georgia" font-size="15" font-style="italic" font-weight="normal" fill="#8C96A8">
            <tspan x="46" y="54">Tìm hiểu thêm về Chanchan</tspan>
        </text>
        <text id="“" font-family="Georgia-Bold, Georgia" font-size="15" font-weight="bold" fill="#8C96A8">
            <tspan x="30" y="54">“</tspan>
        </text>
    </g>
</svg>