<?xml version="1.0" encoding="UTF-8"?>
<svg width="320px" height="50px" viewBox="0 0 320 50" version="1.1" xmlns="http://www.w3.org/2000/svg" xmlns:xlink="http://www.w3.org/1999/xlink">
    <!-- Generator: Sketch 54.1 (76490) - https://sketchapp.com -->
    <title>menu</title>
    <desc>Created with Sketch.</desc>
    <defs>
        <linearGradient x1="-2.78449085%" y1="50.1097121%" x2="107.771339%" y2="50.1097121%" id="linearGradient-1">
            <stop stop-color="#F50057" offset="0%"></stop>
            <stop stop-color="#D500F9" offset="24.5444156%"></stop>
            <stop stop-color="#651FFF" offset="74.3447529%"></stop>
            <stop stop-color="#3D5AFE" offset="100%"></stop>
        </linearGradient>
    </defs>
    <g id="menu" stroke="none" stroke-width="1" fill="none" fill-rule="evenodd" opacity="0.7">
        <path d="M86.4185227,35.0457775 C86.4185227,35.4734114 86.0678522,35.8199945 85.6351751,35.8199945 L76.7833476,35.8199945 C76.3506704,35.8199945 76,35.4734114 76,35.0457775 L76,24.3874397 C76,24.157594 76.1032734,23.9396942 76.2818215,23.792714 L85.5253228,16.1795291 C85.8158652,15.940157 86.2378326,15.940157 86.5283749,16.1795291 L95.7718763,23.792714 C96.104187,24.0664118 96.1490153,24.5545315 95.8720896,24.8831201 C95.5951641,25.2115574 95.1011349,25.2558632 94.7688241,24.9821654 L86.0268489,17.782098 L77.5666951,24.7500515 L77.5666951,34.2715604 L85.6351751,34.2715604 C86.0678522,34.2715604 86.4185227,34.6181435 86.4185227,35.0457775 Z M94.8136525,32.9513086 C93.9541121,33.9754829 92.6706155,34.9131626 90.998658,35.73849 C90.7781885,35.8472131 90.5190106,35.8472131 90.2985411,35.73849 C88.6265836,34.9131626 87.343087,33.9754829 86.4836996,32.9513086 C83.9323121,29.9114482 85.7089199,26.5564572 88.3377242,26.5564572 C89.3852986,26.5564572 90.1559474,26.9803108 90.6485995,27.3781555 C91.1412517,26.9803108 91.9119005,26.5564572 92.9594749,26.5564572 C95.5933281,26.5564572 97.3586141,29.9188577 94.8136525,32.9513086 Z M92.9594749,28.1048913 C91.8757931,28.1048913 91.3069481,28.9078391 91.3014402,28.9158534 C90.9761673,29.4007976 90.2902792,29.3711596 89.9977479,28.9190289 C89.9497066,28.8523434 89.3872876,28.1048913 88.3377242,28.1048913 C86.649243,28.1048913 85.198979,31.3209164 90.6485995,34.1752369 C96.0982201,31.3209164 94.6482621,28.1048913 92.9594749,28.1048913 Z M133.964685,26.054698 L132.141933,26.054698 L131.70081,28.2099247 L133.49027,28.2099247 L133.182316,29.7811015 L131.417826,29.7811015 L130.801919,32.8082902 L129.145628,32.8082902 L129.753212,29.7811015 L127.589215,29.7811015 L126.973307,32.8082902 L125.317017,32.8082902 L125.924601,29.7811015 L124.243341,29.7811015 L124.551295,28.2099247 L126.27417,28.2099247 L126.723615,26.054698 L125.017387,26.054698 L125.317017,24.4917473 L127.0066,24.4917473 L127.589215,21.5797234 L129.262151,21.5797234 L128.66289,24.4917473 L130.835211,24.4917473 L131.417826,21.5797234 L133.082439,21.5797234 L132.499825,24.4917473 L134.264315,24.4917473 L133.964685,26.054698 Z M128.280029,25.906629 L127.772322,28.3662198 L130.152719,28.3662198 L130.64378,25.906629 L128.280029,25.906629 Z M137.631828,23.9652797 C138.83035,23.9652797 139.754211,24.5328776 140.145395,25.3554832 L140.228625,25.3554832 L140.228625,20.9874473 L142.425915,20.9874473 L142.425915,32.8082902 L140.270241,32.8082902 L140.270241,31.4592169 L140.178687,31.4592169 C139.762534,32.3558571 138.838673,32.9152289 137.631828,32.9152289 C135.484477,32.9152289 134.252663,31.3358261 134.252663,28.8022008 L134.252663,28.0700818 C134.252663,25.5775867 135.526092,23.9652797 137.631828,23.9652797 Z M138.330966,25.7009776 C137.273936,25.7009776 136.499891,26.5071311 136.499891,28.1441163 L136.499891,28.7446184 C136.499891,30.3816036 137.273936,31.1877571 138.347612,31.1877571 C139.504519,31.1877571 140.245272,30.3404733 140.245272,28.7528444 L140.245272,28.1441163 C140.245272,26.6140698 139.496196,25.7009776 138.330966,25.7009776 Z M148.623272,31.7471289 C148.273703,32.3887613 147.524627,32.9399071 146.226228,32.9399071 C144.503353,32.9399071 143.321478,31.9363282 143.321478,30.291117 C143.321478,28.7281663 144.420123,27.7245874 146.467597,27.7245874 L148.623272,27.7245874 L148.623272,26.934886 C148.623272,26.062924 148.090595,25.5775867 147.166735,25.5775867 C146.267844,25.5775867 145.751813,26.0464719 145.693552,26.7456867 L143.646077,26.7456867 C143.712662,25.2896747 144.661492,23.9406015 147.20835,23.9406015 C149.239179,23.9406015 150.787269,24.8783719 150.787269,26.9102078 L150.787269,32.8082902 L148.714826,32.8082902 L148.714826,31.7471289 L148.623272,31.7471289 Z M146.933689,31.3605043 C147.874196,31.3605043 148.623272,30.7929064 148.623272,29.9456226 L148.623272,29.0243043 L146.942012,29.0243043 C145.976536,29.0243043 145.502121,29.4849634 145.502121,30.151274 C145.502121,30.9656536 146.201259,31.3605043 146.933689,31.3605043 Z M152.0324,32.8082902 L152.0324,24.0804445 L154.163106,24.0804445 L154.163106,25.3554832 L154.25466,25.3554832 C154.537644,24.7549811 155.344982,23.9406015 156.818165,23.9406015 C158.615947,23.9406015 159.87273,25.0511191 159.87273,27.1898937 L159.87273,32.8082902 L157.683764,32.8082902 L157.683764,27.658779 C157.683764,26.3179318 156.901395,25.7832381 155.960889,25.7832381 C154.828951,25.7832381 154.213044,26.5893916 154.213044,27.6916832 L154.213044,32.8082902 L152.0324,32.8082902 Z M164.82995,34.4123711 C166.003502,34.4123711 166.710963,33.7378345 166.710963,32.5615085 L166.710963,31.319374 L166.619409,31.319374 C166.286487,32.0843972 165.362626,32.6931254 164.130812,32.6931254 C162.124953,32.6931254 160.75997,31.2700176 160.75997,28.5883233 L160.75997,28.0454036 C160.75997,25.3966135 162.11663,23.9652797 164.130812,23.9652797 C165.34598,23.9652797 166.286487,24.5657818 166.644379,25.3637093 L166.735932,25.3637093 L166.735932,24.0804445 L168.89993,24.0804445 L168.89993,32.7013514 C168.89993,35.0869078 166.794194,36 164.796658,36 C162.258122,36 161.076246,34.8072218 160.9514,33.3512099 L163.073782,33.3512099 C163.215275,33.9681641 163.864474,34.4123711 164.82995,34.4123711 Z M164.879888,25.6927515 C163.714659,25.6927515 163.007198,26.5482614 163.007198,28.1194381 L163.007198,28.6294536 C163.007198,30.1924043 163.714659,31.0643662 164.879888,31.0643662 C166.011825,31.0643662 166.710963,30.1841782 166.710963,28.6294536 L166.710963,28.1194381 C166.710963,26.5811656 165.978533,25.6927515 164.879888,25.6927515 Z M172.442228,29.8140057 L172.442228,32.8082902 L170.244938,32.8082902 L170.244938,20.9874473 L172.442228,20.9874473 L172.442228,27.667005 L172.542105,27.667005 L175.421886,24.0804445 L177.960422,24.0804445 L174.739394,27.8479782 L178.176822,32.8082902 L175.588347,32.8082902 L173.066458,29.0901127 L172.442228,29.8140057 Z M186.113699,24.0804445 C185.497792,26.054698 183.233918,32.5121521 183.217272,32.5615085 L182.992549,33.1620106 C182.226826,35.1691683 181.161474,35.8683831 179.247168,35.8683831 C178.87263,35.8683831 178.398215,35.8354789 178.131877,35.7778965 L178.131877,34.2149458 C178.273369,34.239624 178.581323,34.2643021 178.847661,34.2643021 C179.846429,34.2643021 180.304198,33.9434859 180.462336,33.1373324 L180.545567,32.8247423 L177.482678,24.0804445 L179.90469,24.0804445 L181.785704,30.8504888 L181.868935,30.8504888 L183.791563,24.0804445 L186.113699,24.0804445 Z M219.506876,32.923455 C218.258416,32.923455 217.37617,32.3558571 216.935048,31.4592169 L216.851817,31.4592169 L216.851817,32.8082902 L214.687819,32.8082902 L214.687819,20.9874473 L216.885109,20.9874473 L216.885109,25.3472571 L216.976663,25.3472571 C217.367847,24.5328776 218.349969,23.9652797 219.515199,23.9652797 C221.521058,23.9652797 222.877718,25.3883874 222.877718,28.0536297 L222.877718,28.8186529 C222.877718,31.4263127 221.55435,32.923455 219.506876,32.923455 Z M218.816061,31.1959831 C219.889737,31.1959831 220.63049,30.3404733 220.63049,28.7446184 L220.63049,28.1441163 C220.63049,26.5400353 219.889737,25.7009776 218.816061,25.7009776 C217.634185,25.7009776 216.868463,26.5318092 216.868463,28.1441163 L216.868463,28.7363923 C216.868463,30.3486993 217.625862,31.1959831 218.816061,31.1959831 Z M223.914772,32.8082902 L223.914772,20.9874473 L226.112062,20.9874473 L226.112062,32.8082902 L223.914772,32.8082902 Z M231.185805,23.9241494 C233.782602,23.9241494 235.222493,25.6845254 235.222493,28.0947599 L235.222493,28.7363923 C235.222493,31.2782437 233.790925,32.9645852 231.185805,32.9645852 C228.580684,32.9645852 227.140794,31.2782437 227.140794,28.7446184 L227.140794,28.102986 C227.140794,25.6927515 228.580684,23.9241494 231.185805,23.9241494 Z M231.185805,25.6022649 C229.920698,25.6022649 229.35473,26.6798783 229.35473,28.0947599 L229.35473,28.7692965 C229.35473,30.1430479 229.904052,31.2782437 231.185805,31.2782437 C232.459234,31.2782437 233.008556,30.151274 233.008556,28.7692965 L233.008556,28.0947599 C233.008556,26.6716522 232.450911,25.6022649 231.185805,25.6022649 Z M239.93002,34.4123711 C241.103572,34.4123711 241.811033,33.7378345 241.811033,32.5615085 L241.811033,31.319374 L241.719479,31.319374 C241.386557,32.0843972 240.462696,32.6931254 239.230882,32.6931254 C237.225023,32.6931254 235.86004,31.2700176 235.86004,28.5883233 L235.86004,28.0454036 C235.86004,25.3966135 237.2167,23.9652797 239.230882,23.9652797 C240.44605,23.9652797 241.386557,24.5657818 241.744449,25.3637093 L241.836002,25.3637093 L241.836002,24.0804445 L244,24.0804445 L244,32.7013514 C244,35.0869078 241.894264,36 239.896728,36 C237.358192,36 236.176316,34.8072218 236.05147,33.3512099 L238.173852,33.3512099 C238.315345,33.9681641 238.964544,34.4123711 239.93002,34.4123711 Z M239.979958,25.6927515 C238.814729,25.6927515 238.107268,26.5482614 238.107268,28.1194381 L238.107268,28.6294536 C238.107268,30.1924043 238.814729,31.0643662 239.979958,31.0643662 C241.111895,31.0643662 241.811033,30.1841782 241.811033,28.6294536 L241.811033,28.1194381 C241.811033,26.5811656 241.078603,25.6927515 239.979958,25.6927515 Z" id="Rectangle-3" fill="url(#linearGradient-1)"></path>
    </g>
</svg>