<?xml version="1.0" encoding="UTF-8"?>
<svg width="320px" height="282px" viewBox="0 0 320 282" version="1.1" xmlns="http://www.w3.org/2000/svg" xmlns:xlink="http://www.w3.org/1999/xlink">
    <!-- Generator: Sketch 54.1 (76490) - https://sketchapp.com -->
    <title>timhieuvephi</title>
    <desc>Created with Sketch.</desc>
    <g id="timhieuvephi" stroke="none" stroke-width="1" fill="none" fill-rule="evenodd">
        <rect fill="#F0F6FA" x="0" y="0" width="320" height="282"></rect>
        <path d="M3.04720534,274 C3.01573507,274.166826 3,274.339903 3,274.519231 C3,275.198721 3.22884537,275.782049 3.68654298,276.269231 C4.14424058,276.756413 4.68408094,277 5.30608025,277 C5.91634372,277 6.45325017,276.759618 6.91681569,276.278846 C7.38038122,275.798075 7.6121605,275.211542 7.6121605,274.519231 C7.6121605,274.339903 7.59622108,274.166826 7.5643421,274 L12.7468253,274 C12.7153551,274.166826 12.69962,274.339903 12.69962,274.519231 C12.69962,275.198721 12.9284654,275.782049 13.386163,276.269231 C13.8438606,276.756413 14.3837009,277 15.0057002,277 C15.6159637,277 16.1528702,276.759618 16.6164357,276.278846 C17.0800012,275.798075 17.3117805,275.211542 17.3117805,274.519231 C17.3117805,274.339903 17.2958411,274.166826 17.2639621,274 L22.4464453,274 C22.414975,274.166826 22.39924,274.339903 22.39924,274.519231 C22.39924,275.198721 22.6280853,275.782049 23.0857829,276.269231 C23.5434805,276.756413 24.0833209,277 24.7053202,277 C25.3273195,277 25.8671599,276.756413 26.3248575,276.269231 C26.7825551,275.782049 27.0114005,275.198721 27.0114005,274.519231 C27.0114005,274.339903 26.9956654,274.166826 26.9641951,274 L32.1460653,274 C32.114595,274.166826 32.09886,274.339903 32.09886,274.519231 C32.09886,275.198721 32.3277053,275.782049 32.7854029,276.269231 C33.2431005,276.756413 33.7829409,277 34.4049402,277 C35.0152037,277 35.5521101,276.759618 36.0156756,276.278846 C36.4792412,275.798075 36.7110205,275.211542 36.7110205,274.519231 C36.7110205,274.339903 36.695081,274.166826 36.6632021,274 L41.8456853,274 C41.814215,274.166826 41.7984799,274.339903 41.7984799,274.519231 C41.7984799,275.198721 42.0273253,275.782049 42.4850229,276.269231 C42.9427205,276.756413 43.4825609,277 44.1045602,277 C44.7148237,277 45.2517301,276.759618 45.7152956,276.278846 C46.1788612,275.798075 46.4106404,275.211542 46.4106404,274.519231 C46.4106404,274.339903 46.394701,274.166826 46.362822,274 L51.5453053,274 C51.513835,274.166826 51.4980999,274.339903 51.4980999,274.519231 C51.4980999,275.198721 51.7269453,275.782049 52.1846429,276.269231 C52.6423405,276.756413 53.1821809,277 53.8041802,277 C54.4261795,277 54.9660198,276.756413 55.4237174,276.269231 C55.8814151,275.782049 56.1102604,275.198721 56.1102604,274.519231 C56.1102604,274.339903 56.0945254,274.166826 56.0630551,274 L61.2449252,274 C61.213455,274.166826 61.1977199,274.339903 61.1977199,274.519231 C61.1977199,275.198721 61.4265653,275.782049 61.8842629,276.269231 C62.3419605,276.756413 62.8818008,277 63.5038002,277 C64.1140636,277 64.6509701,276.759618 65.1145356,276.278846 C65.5781011,275.798075 65.8098804,275.211542 65.8098804,274.519231 C65.8098804,274.339903 65.793941,274.166826 65.762062,274 L70.9445452,274 C70.913075,274.166826 70.8973399,274.339903 70.8973399,274.519231 C70.8973399,275.198721 71.1261853,275.782049 71.5838829,276.269231 C72.0415805,276.756413 72.5814208,277 73.2034201,277 C73.8136836,277 74.3505901,276.759618 74.8141556,276.278846 C75.2777211,275.798075 75.5095004,275.211542 75.5095004,274.519231 C75.5095004,274.339903 75.493561,274.166826 75.461682,274 L80.6441652,274 C80.6126949,274.166826 80.5969599,274.339903 80.5969599,274.519231 C80.5969599,275.198721 80.8258052,275.782049 81.2835029,276.269231 C81.7412005,276.756413 82.2810408,277 82.9030401,277 C83.5250394,277 84.0648798,276.756413 84.5225774,276.269231 C84.980275,275.782049 85.2091204,275.198721 85.2091204,274.519231 C85.2091204,274.339903 85.1933853,274.166826 85.161915,274 L90.3437852,274 C90.3123149,274.166826 90.2965799,274.339903 90.2965799,274.519231 C90.2965799,275.198721 90.5254252,275.782049 90.9831228,276.269231 C91.4408204,276.756413 91.9806608,277 92.6026601,277 C93.2129236,277 93.74983,276.759618 94.2133956,276.278846 C94.6769611,275.798075 94.9087404,275.211542 94.9087404,274.519231 C94.9087404,274.339903 94.8928009,274.166826 94.860922,274 L100.043405,274 C100.011935,274.166826 99.9961998,274.339903 99.9961998,274.519231 C99.9961998,275.198721 100.225045,275.782049 100.682743,276.269231 C101.14044,276.756413 101.680281,277 102.30228,277 C102.912544,277 103.44945,276.759618 103.913016,276.278846 C104.376581,275.798075 104.60836,275.211542 104.60836,274.519231 C104.60836,274.339903 104.592421,274.166826 104.560542,274 L109.743025,274 C109.711555,274.166826 109.69582,274.339903 109.69582,274.519231 C109.69582,275.198721 109.924665,275.782049 110.382363,276.269231 C110.84006,276.756413 111.379901,277 112.0019,277 C112.623899,277 113.16374,276.756413 113.621437,276.269231 C114.079135,275.782049 114.30798,275.198721 114.30798,274.519231 C114.30798,274.339903 114.292245,274.166826 114.260775,274 L119.442645,274 C119.411175,274.166826 119.39544,274.339903 119.39544,274.519231 C119.39544,275.198721 119.624285,275.782049 120.081983,276.269231 C120.53968,276.756413 121.079521,277 121.70152,277 C122.311784,277 122.84869,276.759618 123.312256,276.278846 C123.775821,275.798075 124.0076,275.211542 124.0076,274.519231 C124.0076,274.339903 123.991661,274.166826 123.959782,274 L129.142265,274 C129.110795,274.166826 129.09506,274.339903 129.09506,274.519231 C129.09506,275.198721 129.323905,275.782049 129.781603,276.269231 C130.2393,276.756413 130.779141,277 131.40114,277 C132.011404,277 132.54831,276.759618 133.011875,276.278846 C133.475441,275.798075 133.70722,275.211542 133.70722,274.519231 C133.70722,274.339903 133.691281,274.166826 133.659402,274 L138.841885,274 C138.810415,274.166826 138.79468,274.339903 138.79468,274.519231 C138.79468,275.198721 139.023525,275.782049 139.481223,276.269231 C139.93892,276.756413 140.478761,277 141.10076,277 C141.722759,277 142.2626,276.756413 142.720297,276.269231 C143.177995,275.782049 143.40684,275.198721 143.40684,274.519231 C143.40684,274.339903 143.391105,274.166826 143.359635,274 L148.541505,274 C148.510035,274.166826 148.4943,274.339903 148.4943,274.519231 C148.4943,275.198721 148.723145,275.782049 149.180843,276.269231 C149.63854,276.756413 150.178381,277 150.80038,277 C151.410643,277 151.94755,276.759618 152.411115,276.278846 C152.874681,275.798075 153.10646,275.211542 153.10646,274.519231 C153.10646,274.339903 153.090521,274.166826 153.058642,274 L158.241125,274 C158.209655,274.166826 158.19392,274.339903 158.19392,274.519231 C158.19392,275.198721 158.422765,275.782049 158.880463,276.269231 C159.33816,276.756413 159.878001,277 160.5,277 C161.110263,277 161.64717,276.759618 162.110735,276.278846 C162.574301,275.798075 162.80608,275.211542 162.80608,274.519231 C162.80608,274.339903 162.790141,274.166826 162.758262,274 L167.940745,274 C167.909275,274.166826 167.89354,274.339903 167.89354,274.519231 C167.89354,275.198721 168.122385,275.782049 168.580083,276.269231 C169.03778,276.756413 169.577621,277 170.19962,277 C170.821619,277 171.36146,276.756413 171.819157,276.269231 C172.276855,275.782049 172.5057,275.198721 172.5057,274.519231 C172.5057,274.339903 172.489965,274.166826 172.458495,274 L177.640365,274 C177.608895,274.166826 177.59316,274.339903 177.59316,274.519231 C177.59316,275.198721 177.822005,275.782049 178.279703,276.269231 C178.7374,276.756413 179.277241,277 179.89924,277 C180.509503,277 181.04641,276.759618 181.509975,276.278846 C181.973541,275.798075 182.20532,275.211542 182.20532,274.519231 C182.20532,274.339903 182.189381,274.166826 182.157502,274 L187.339985,274 C187.308515,274.166826 187.29278,274.339903 187.29278,274.519231 C187.29278,275.198721 187.521625,275.782049 187.979323,276.269231 C188.43702,276.756413 188.976861,277 189.59886,277 C190.209123,277 190.74603,276.759618 191.209595,276.278846 C191.673161,275.798075 191.90494,275.211542 191.90494,274.519231 C191.90494,274.339903 191.889001,274.166826 191.857122,274 L197.039605,274 C197.008135,274.166826 196.9924,274.339903 196.9924,274.519231 C196.9924,275.198721 197.221245,275.782049 197.678943,276.269231 C198.13664,276.756413 198.676481,277 199.29848,277 C199.920479,277 200.46032,276.756413 200.918017,276.269231 C201.375715,275.782049 201.60456,275.198721 201.60456,274.519231 C201.60456,274.339903 201.588825,274.166826 201.557355,274 L206.739225,274 C206.707755,274.166826 206.69202,274.339903 206.69202,274.519231 C206.69202,275.198721 206.920865,275.782049 207.378563,276.269231 C207.83626,276.756413 208.376101,277 208.9981,277 C209.608363,277 210.14527,276.759618 210.608835,276.278846 C211.072401,275.798075 211.30418,275.211542 211.30418,274.519231 C211.30418,274.339903 211.288241,274.166826 211.256362,274 L216.438845,274 C216.407375,274.166826 216.39164,274.339903 216.39164,274.519231 C216.39164,275.198721 216.620485,275.782049 217.078183,276.269231 C217.53588,276.756413 218.075721,277 218.69772,277 C219.307983,277 219.84489,276.759618 220.308455,276.278846 C220.772021,275.798075 221.0038,275.211542 221.0038,274.519231 C221.0038,274.339903 220.987861,274.166826 220.955982,274 L226.138465,274 C226.106995,274.166826 226.09126,274.339903 226.09126,274.519231 C226.09126,275.198721 226.320105,275.782049 226.777803,276.269231 C227.2355,276.756413 227.775341,277 228.39734,277 C229.019339,277 229.55918,276.756413 230.016877,276.269231 C230.474575,275.782049 230.70342,275.198721 230.70342,274.519231 C230.70342,274.339903 230.687685,274.166826 230.656215,274 L235.838085,274 C235.806615,274.166826 235.79088,274.339903 235.79088,274.519231 C235.79088,275.198721 236.019725,275.782049 236.477423,276.269231 C236.93512,276.756413 237.474961,277 238.09696,277 C238.707223,277 239.24413,276.759618 239.707695,276.278846 C240.171261,275.798075 240.40304,275.211542 240.40304,274.519231 C240.40304,274.339903 240.387101,274.166826 240.355222,274 L245.537705,274 C245.506235,274.166826 245.4905,274.339903 245.4905,274.519231 C245.4905,275.198721 245.719345,275.782049 246.177043,276.269231 C246.63474,276.756413 247.174581,277 247.79658,277 C248.406843,277 248.94375,276.759618 249.407315,276.278846 C249.870881,275.798075 250.10266,275.211542 250.10266,274.519231 C250.10266,274.339903 250.086721,274.166826 250.054842,274 L255.237325,274 C255.205855,274.166826 255.19012,274.339903 255.19012,274.519231 C255.19012,275.198721 255.418965,275.782049 255.876663,276.269231 C256.33436,276.756413 256.874201,277 257.4962,277 C258.118199,277 258.65804,276.756413 259.115737,276.269231 C259.573435,275.782049 259.80228,275.198721 259.80228,274.519231 C259.80228,274.339903 259.786545,274.166826 259.755075,274 L264.936945,274 C264.905475,274.166826 264.88974,274.339903 264.88974,274.519231 C264.88974,275.198721 265.118585,275.782049 265.576283,276.269231 C266.03398,276.756413 266.573821,277 267.19582,277 C267.806083,277 268.34299,276.759618 268.806555,276.278846 C269.270121,275.798075 269.5019,275.211542 269.5019,274.519231 C269.5019,274.339903 269.485961,274.166826 269.454082,274 L274.636565,274 C274.605095,274.166826 274.58936,274.339903 274.58936,274.519231 C274.58936,275.198721 274.818205,275.782049 275.275903,276.269231 C275.7336,276.756413 276.273441,277 276.89544,277 C277.505703,277 278.04261,276.759618 278.506175,276.278846 C278.969741,275.798075 279.20152,275.211542 279.20152,274.519231 C279.20152,274.339903 279.185581,274.166826 279.153702,274 L284.336185,274 C284.304715,274.166826 284.28898,274.339903 284.28898,274.519231 C284.28898,275.198721 284.517825,275.782049 284.975523,276.269231 C285.43322,276.756413 285.97306,277 286.59506,277 C287.217059,277 287.756899,276.756413 288.214597,276.269231 C288.672295,275.782049 288.90114,275.198721 288.90114,274.519231 C288.90114,274.339903 288.885405,274.166826 288.853935,274 L294.035805,274 C294.004335,274.166826 293.9886,274.339903 293.9886,274.519231 C293.9886,275.198721 294.217445,275.782049 294.675143,276.269231 C295.13284,276.756413 295.67268,277 296.29468,277 C296.904943,277 297.44185,276.759618 297.905415,276.278846 C298.368981,275.798075 298.60076,275.211542 298.60076,274.519231 C298.60076,274.339903 298.584821,274.166826 298.552942,274 L303.735425,274 C303.703955,274.166826 303.68822,274.339903 303.68822,274.519231 C303.68822,275.198721 303.917065,275.782049 304.374762,276.269231 C304.83246,276.756413 305.3723,277 305.9943,277 C306.604563,277 307.14147,276.759618 307.605035,276.278846 C308.068601,275.798075 308.30038,275.211542 308.30038,274.519231 C308.30038,274.339903 308.284441,274.166826 308.252562,274 L313.435045,274 C313.403575,274.166826 313.387839,274.339903 313.387839,274.519231 C313.387839,275.198721 313.616685,275.782049 314.074382,276.269231 C314.53208,276.756413 315.07192,277 315.69392,277 C316.315919,277 316.855759,276.756413 317.313457,276.269231 C317.771155,275.782049 318,275.198721 318,274.519231 C318,274.339903 317.984265,274.166826 317.952795,274 L320,274 L320,282 L0,282 L0,274 L3.04720534,274 Z" id="Rectangle-2" fill="#FFFFFF"></path>
        <text id="Phí-khởi-tạo" font-family="SFCompactDisplay-Semibold, SF Compact Display" font-size="18" font-weight="500" letter-spacing="-0.720000029" fill="#343D51">
            <tspan x="80" y="160">Phí khởi tạo</tspan>
        </text>
        <path d="M274.499982,156 C274.302839,156 274.105721,155.927972 273.955418,155.784218 L269.225656,151.258317 C268.924781,150.970413 268.924781,150.503627 269.225656,150.21584 C269.526409,149.928053 270.014128,149.928053 270.315027,150.21584 L274.499982,154.220608 L278.684961,150.21598 C278.985835,149.928193 279.473506,149.928193 279.774234,150.21598 C280.075255,150.503767 280.075255,150.970553 279.774234,151.258457 L275.044546,155.784358 C274.894169,155.928135 274.697051,156 274.499982,156 Z" id="Path" fill="#5D6A80" fill-rule="nonzero"></path>
        <text id="01" opacity="0.7" font-family="Oswald-Regular_Medium, Oswald" font-size="28" font-weight="400" fill="#8C96A8">
            <tspan x="30" y="163">01</tspan>
        </text>
        <text id="……………………………………………………" font-family="Georgia-Italic, Georgia" font-size="14" font-style="italic" font-weight="normal" fill="#DADFE7">
            <tspan x="30" y="185">……………………………………………………………</tspan>
        </text>
        <text id="Phí-vận-hành" font-family="SFCompactDisplay-Semibold, SF Compact Display" font-size="18" font-weight="500" letter-spacing="-0.720000029" fill="#343D51">
            <tspan x="80" y="230">Phí vận hành</tspan>
        </text>
        <path d="M274.499982,226 C274.302839,226 274.105721,225.927972 273.955418,225.784218 L269.225656,221.258317 C268.924781,220.970413 268.924781,220.503627 269.225656,220.21584 C269.526409,219.928053 270.014128,219.928053 270.315027,220.21584 L274.499982,224.220608 L278.684961,220.21598 C278.985835,219.928193 279.473506,219.928193 279.774234,220.21598 C280.075255,220.503767 280.075255,220.970553 279.774234,221.258457 L275.044546,225.784358 C274.894169,225.928135 274.697051,226 274.499982,226 Z" id="Path" fill="#5D6A80" fill-rule="nonzero"></path>
        <text id="02" opacity="0.7" font-family="Oswald-Regular_Medium, Oswald" font-size="28" font-weight="400" fill="#8C96A8">
            <tspan x="30" y="233">02</tspan>
        </text>
        <text id="—-Phí-chương-trình-g" font-family="Georgia-Italic, Georgia" font-size="15" font-style="italic" font-weight="normal" line-spacing="20" fill="#556279">
            <tspan x="30" y="101">— Phí chương trình gồm</tspan>
        </text>
        <text id="Tìm-hiểu-về-phí" font-family="SFCompactDisplay-Semibold, SF Compact Display" font-size="26" font-weight="500" letter-spacing="-1.56" fill="#343D51">
            <tspan x="30" y="65">Tìm hiểu về phí</tspan>
        </text>
    </g>
</svg>