<?xml version="1.0" encoding="UTF-8"?>
<svg width="320px" height="474px" viewBox="0 0 320 474" version="1.1" xmlns="http://www.w3.org/2000/svg" xmlns:xlink="http://www.w3.org/1999/xlink">
    <!-- Generator: Sketch 54.1 (76490) - https://sketchapp.com -->
    <title>11</title>
    <desc>Created with Sketch.</desc>
    <defs>
        <linearGradient x1="-37.5658265%" y1="41.3307134%" x2="134.769076%" y2="65.0404029%" id="linearGradient-1">
            <stop stop-color="#AA00FF" offset="0%"></stop>
            <stop stop-color="#304FFE" offset="100%"></stop>
        </linearGradient>
        <filter x="-14.4%" y="-69.2%" width="128.8%" height="238.5%" filterUnits="objectBoundingBox" id="filter-2">
            <feGaussianBlur stdDeviation="12" in="SourceGraphic"></feGaussianBlur>
        </filter>
        <linearGradient x1="-37.5658265%" y1="40.7042155%" x2="134.769076%" y2="66.1273184%" id="linearGradient-3">
            <stop stop-color="#AA00FF" offset="0%"></stop>
            <stop stop-color="#304FFE" offset="100%"></stop>
        </linearGradient>
        <text id="text-4" font-family="GMVDINPro-CondBlack, GMV DIN Cond" font-size="20" font-style="condensed" font-weight="700" letter-spacing="-0.400000006" fill="#FFFFFF">
            <tspan x="103.45" y="409">Tìm hiểu đăng ký</tspan>
        </text>
        <filter x="-6.6%" y="-42.5%" width="111.4%" height="180.0%" filterUnits="objectBoundingBox" id="filter-5">
            <feOffset dx="-1" dy="1" in="SourceAlpha" result="shadowOffsetOuter1"></feOffset>
            <feGaussianBlur stdDeviation="2" in="shadowOffsetOuter1" result="shadowBlurOuter1"></feGaussianBlur>
            <feColorMatrix values="0 0 0 0 0   0 0 0 0 0   0 0 0 0 0  0 0 0 0.1 0" type="matrix" in="shadowBlurOuter1"></feColorMatrix>
        </filter>
    </defs>
    <g id="11" stroke="none" stroke-width="1" fill="none" fill-rule="evenodd">
        <rect fill="#ECF6FF" x="0" y="0" width="320" height="474"></rect>
        <g id="move" transform="translate(30.000000, 23.000000)">
            <text id="Chúng-tôi-tin-rằng-n" font-family="GMVDINPro, GMV DIN Pro" font-size="15" font-weight="normal" line-spacing="20" letter-spacing="-0.3" fill="#343D51">
                <tspan x="0" y="83">Chúng tôi tin rằng nếu yêu thương là một </tspan>
                <tspan x="0" y="103">khả năng mà ai cũng có, thì việc có được </tspan>
                <tspan x="0" y="123">một tình yêu bên mình theo năm tháng </tspan>
                <tspan x="0" y="143">là kết quả mà ai cũng có thể nhận được.</tspan>
            </text>
            <text id="Chanchan-được-tạo-ra" font-family="GMVDINPro-Italic, GMV DIN Pro" font-size="15" font-style="italic" font-weight="normal" line-spacing="20" letter-spacing="-0.3" fill="#343D51">
                <tspan x="20" y="171">Chanchan được tạo ra để điều này trở </tspan>
                <tspan x="20" y="191">nên đơn giản hơn với tất cả mọi người. </tspan>
            </text>
            <text id="/" font-family="GMVDINPro-Italic, GMV DIN Pro" font-size="15" font-style="italic" font-weight="normal" line-spacing="20" letter-spacing="-0.3" fill="#343D51">
                <tspan x="0" y="171">/</tspan>
            </text>
            <text id="Tháng-2-năm-2018,-ch" font-family="GMVDINPro, GMV DIN Pro" font-size="15" font-weight="normal" line-spacing="20" letter-spacing="-0.3" fill="#343D51">
                <tspan x="0" y="219">Tháng 2 năm 2018, chúng tôi bắt đầu với </tspan>
                <tspan x="0" y="239">phiên bản đầu tiên của Chanchan bằng </tspan>
                <tspan x="0" y="259">một niềm tin như vậy.</tspan>
            </text>
            <text id="Chúng-tôi" font-family="GMVDINPro-CondBlack, GMV DIN Cond" font-size="28" font-style="condensed" font-weight="700" line-spacing="28" letter-spacing="-0.84" fill="#1E2432">
                <tspan x="0" y="21">Chúng tôi</tspan>
            </text>
            <text id="—" font-family="GMVDINPro, GMV DIN Pro" font-size="15" font-weight="normal" line-spacing="20" letter-spacing="-0.3" fill="#1E2432">
                <tspan x="0" y="54">—</tspan>
            </text>
            <text id="……………………………………………………" font-family="GMVDINPro, GMV DIN Pro" font-size="15" font-weight="normal" line-spacing="20" fill="#B9C0CF">
                <tspan x="0" y="291">…………………………………………………………..</tspan>
            </text>
            <text id="Chanchan-có-khiến-bạ" font-family="GMVDINPro-BlackItalic, GMV DIN Pro" font-size="15" font-style="italic" font-weight="700" line-spacing="20" letter-spacing="-0.3" fill="#1E2432">
                <tspan x="20" y="327">Chanchan có khiến bạn tin tưởng?</tspan>
            </text>
            <text id="." font-family="Chalkduster" font-size="20" font-weight="normal" line-spacing="52" fill="#1E2432">
                <tspan x="0" y="325">.</tspan>
            </text>
        </g>
        <path d="M280,393 L280,435 C280,437.761424 277.761424,440 275,440 L35,440 C32.2385763,440 30,437.761424 30,435 L30,393 C30,390.238576 32.2385763,388 35,388 L275,388 C277.761424,388 280,390.238576 280,393 Z" id="Triangle" fill="url(#linearGradient-1)" opacity="0.6" filter="url(#filter-2)"></path>
        <path d="M290,381 L290,427 C290,429.761424 287.761424,432 285,432 L35,432 C32.2385763,432 30,429.761424 30,427 L30,381 C30,378.238576 32.2385763,376 35,376 L285,376 C287.761424,376 290,378.238576 290,381 Z" id="Triangle" fill="url(#linearGradient-3)"></path>
        <path d="M3.04720534,471 C3.01573507,471.166826 3,471.339903 3,471.519231 C3,472.198721 3.22884537,472.782049 3.68654298,473.269231 C4.14424058,473.756413 4.68408094,474 5.30608025,474 C5.91634372,474 6.45325017,473.759618 6.91681569,473.278846 C7.38038122,472.798075 7.6121605,472.211542 7.6121605,471.519231 C7.6121605,471.339903 7.59622108,471.166826 7.5643421,471 L12.7468253,471 C12.7153551,471.166826 12.69962,471.339903 12.69962,471.519231 C12.69962,472.198721 12.9284654,472.782049 13.386163,473.269231 C13.8438606,473.756413 14.3837009,474 15.0057002,474 C15.6159637,474 16.1528702,473.759618 16.6164357,473.278846 C17.0800012,472.798075 17.3117805,472.211542 17.3117805,471.519231 C17.3117805,471.339903 17.2958411,471.166826 17.2639621,471 L22.4464453,471 C22.414975,471.166826 22.39924,471.339903 22.39924,471.519231 C22.39924,472.198721 22.6280853,472.782049 23.0857829,473.269231 C23.5434805,473.756413 24.0833209,474 24.7053202,474 C25.3273195,474 25.8671599,473.756413 26.3248575,473.269231 C26.7825551,472.782049 27.0114005,472.198721 27.0114005,471.519231 C27.0114005,471.339903 26.9956654,471.166826 26.9641951,471 L32.1460653,471 C32.114595,471.166826 32.09886,471.339903 32.09886,471.519231 C32.09886,472.198721 32.3277053,472.782049 32.7854029,473.269231 C33.2431005,473.756413 33.7829409,474 34.4049402,474 C35.0152037,474 35.5521101,473.759618 36.0156756,473.278846 C36.4792412,472.798075 36.7110205,472.211542 36.7110205,471.519231 C36.7110205,471.339903 36.695081,471.166826 36.6632021,471 L41.8456853,471 C41.814215,471.166826 41.7984799,471.339903 41.7984799,471.519231 C41.7984799,472.198721 42.0273253,472.782049 42.4850229,473.269231 C42.9427205,473.756413 43.4825609,474 44.1045602,474 C44.7148237,474 45.2517301,473.759618 45.7152956,473.278846 C46.1788612,472.798075 46.4106404,472.211542 46.4106404,471.519231 C46.4106404,471.339903 46.394701,471.166826 46.362822,471 L51.5453053,471 C51.513835,471.166826 51.4980999,471.339903 51.4980999,471.519231 C51.4980999,472.198721 51.7269453,472.782049 52.1846429,473.269231 C52.6423405,473.756413 53.1821809,474 53.8041802,474 C54.4261795,474 54.9660198,473.756413 55.4237174,473.269231 C55.8814151,472.782049 56.1102604,472.198721 56.1102604,471.519231 C56.1102604,471.339903 56.0945254,471.166826 56.0630551,471 L61.2449252,471 C61.213455,471.166826 61.1977199,471.339903 61.1977199,471.519231 C61.1977199,472.198721 61.4265653,472.782049 61.8842629,473.269231 C62.3419605,473.756413 62.8818008,474 63.5038002,474 C64.1140636,474 64.6509701,473.759618 65.1145356,473.278846 C65.5781011,472.798075 65.8098804,472.211542 65.8098804,471.519231 C65.8098804,471.339903 65.793941,471.166826 65.762062,471 L70.9445452,471 C70.913075,471.166826 70.8973399,471.339903 70.8973399,471.519231 C70.8973399,472.198721 71.1261853,472.782049 71.5838829,473.269231 C72.0415805,473.756413 72.5814208,474 73.2034201,474 C73.8136836,474 74.3505901,473.759618 74.8141556,473.278846 C75.2777211,472.798075 75.5095004,472.211542 75.5095004,471.519231 C75.5095004,471.339903 75.493561,471.166826 75.461682,471 L80.6441652,471 C80.6126949,471.166826 80.5969599,471.339903 80.5969599,471.519231 C80.5969599,472.198721 80.8258052,472.782049 81.2835029,473.269231 C81.7412005,473.756413 82.2810408,474 82.9030401,474 C83.5250394,474 84.0648798,473.756413 84.5225774,473.269231 C84.980275,472.782049 85.2091204,472.198721 85.2091204,471.519231 C85.2091204,471.339903 85.1933853,471.166826 85.161915,471 L90.3437852,471 C90.3123149,471.166826 90.2965799,471.339903 90.2965799,471.519231 C90.2965799,472.198721 90.5254252,472.782049 90.9831228,473.269231 C91.4408204,473.756413 91.9806608,474 92.6026601,474 C93.2129236,474 93.74983,473.759618 94.2133956,473.278846 C94.6769611,472.798075 94.9087404,472.211542 94.9087404,471.519231 C94.9087404,471.339903 94.8928009,471.166826 94.860922,471 L100.043405,471 C100.011935,471.166826 99.9961998,471.339903 99.9961998,471.519231 C99.9961998,472.198721 100.225045,472.782049 100.682743,473.269231 C101.14044,473.756413 101.680281,474 102.30228,474 C102.912544,474 103.44945,473.759618 103.913016,473.278846 C104.376581,472.798075 104.60836,472.211542 104.60836,471.519231 C104.60836,471.339903 104.592421,471.166826 104.560542,471 L109.743025,471 C109.711555,471.166826 109.69582,471.339903 109.69582,471.519231 C109.69582,472.198721 109.924665,472.782049 110.382363,473.269231 C110.84006,473.756413 111.379901,474 112.0019,474 C112.623899,474 113.16374,473.756413 113.621437,473.269231 C114.079135,472.782049 114.30798,472.198721 114.30798,471.519231 C114.30798,471.339903 114.292245,471.166826 114.260775,471 L119.442645,471 C119.411175,471.166826 119.39544,471.339903 119.39544,471.519231 C119.39544,472.198721 119.624285,472.782049 120.081983,473.269231 C120.53968,473.756413 121.079521,474 121.70152,474 C122.311784,474 122.84869,473.759618 123.312256,473.278846 C123.775821,472.798075 124.0076,472.211542 124.0076,471.519231 C124.0076,471.339903 123.991661,471.166826 123.959782,471 L129.142265,471 C129.110795,471.166826 129.09506,471.339903 129.09506,471.519231 C129.09506,472.198721 129.323905,472.782049 129.781603,473.269231 C130.2393,473.756413 130.779141,474 131.40114,474 C132.011404,474 132.54831,473.759618 133.011875,473.278846 C133.475441,472.798075 133.70722,472.211542 133.70722,471.519231 C133.70722,471.339903 133.691281,471.166826 133.659402,471 L138.841885,471 C138.810415,471.166826 138.79468,471.339903 138.79468,471.519231 C138.79468,472.198721 139.023525,472.782049 139.481223,473.269231 C139.93892,473.756413 140.478761,474 141.10076,474 C141.722759,474 142.2626,473.756413 142.720297,473.269231 C143.177995,472.782049 143.40684,472.198721 143.40684,471.519231 C143.40684,471.339903 143.391105,471.166826 143.359635,471 L148.541505,471 C148.510035,471.166826 148.4943,471.339903 148.4943,471.519231 C148.4943,472.198721 148.723145,472.782049 149.180843,473.269231 C149.63854,473.756413 150.178381,474 150.80038,474 C151.410643,474 151.94755,473.759618 152.411115,473.278846 C152.874681,472.798075 153.10646,472.211542 153.10646,471.519231 C153.10646,471.339903 153.090521,471.166826 153.058642,471 L158.241125,471 C158.209655,471.166826 158.19392,471.339903 158.19392,471.519231 C158.19392,472.198721 158.422765,472.782049 158.880463,473.269231 C159.33816,473.756413 159.878001,474 160.5,474 C161.110263,474 161.64717,473.759618 162.110735,473.278846 C162.574301,472.798075 162.80608,472.211542 162.80608,471.519231 C162.80608,471.339903 162.790141,471.166826 162.758262,471 L167.940745,471 C167.909275,471.166826 167.89354,471.339903 167.89354,471.519231 C167.89354,472.198721 168.122385,472.782049 168.580083,473.269231 C169.03778,473.756413 169.577621,474 170.19962,474 C170.821619,474 171.36146,473.756413 171.819157,473.269231 C172.276855,472.782049 172.5057,472.198721 172.5057,471.519231 C172.5057,471.339903 172.489965,471.166826 172.458495,471 L177.640365,471 C177.608895,471.166826 177.59316,471.339903 177.59316,471.519231 C177.59316,472.198721 177.822005,472.782049 178.279703,473.269231 C178.7374,473.756413 179.277241,474 179.89924,474 C180.509503,474 181.04641,473.759618 181.509975,473.278846 C181.973541,472.798075 182.20532,472.211542 182.20532,471.519231 C182.20532,471.339903 182.189381,471.166826 182.157502,471 L187.339985,471 C187.308515,471.166826 187.29278,471.339903 187.29278,471.519231 C187.29278,472.198721 187.521625,472.782049 187.979323,473.269231 C188.43702,473.756413 188.976861,474 189.59886,474 C190.209123,474 190.74603,473.759618 191.209595,473.278846 C191.673161,472.798075 191.90494,472.211542 191.90494,471.519231 C191.90494,471.339903 191.889001,471.166826 191.857122,471 L197.039605,471 C197.008135,471.166826 196.9924,471.339903 196.9924,471.519231 C196.9924,472.198721 197.221245,472.782049 197.678943,473.269231 C198.13664,473.756413 198.676481,474 199.29848,474 C199.920479,474 200.46032,473.756413 200.918017,473.269231 C201.375715,472.782049 201.60456,472.198721 201.60456,471.519231 C201.60456,471.339903 201.588825,471.166826 201.557355,471 L206.739225,471 C206.707755,471.166826 206.69202,471.339903 206.69202,471.519231 C206.69202,472.198721 206.920865,472.782049 207.378563,473.269231 C207.83626,473.756413 208.376101,474 208.9981,474 C209.608363,474 210.14527,473.759618 210.608835,473.278846 C211.072401,472.798075 211.30418,472.211542 211.30418,471.519231 C211.30418,471.339903 211.288241,471.166826 211.256362,471 L216.438845,471 C216.407375,471.166826 216.39164,471.339903 216.39164,471.519231 C216.39164,472.198721 216.620485,472.782049 217.078183,473.269231 C217.53588,473.756413 218.075721,474 218.69772,474 C219.307983,474 219.84489,473.759618 220.308455,473.278846 C220.772021,472.798075 221.0038,472.211542 221.0038,471.519231 C221.0038,471.339903 220.987861,471.166826 220.955982,471 L226.138465,471 C226.106995,471.166826 226.09126,471.339903 226.09126,471.519231 C226.09126,472.198721 226.320105,472.782049 226.777803,473.269231 C227.2355,473.756413 227.775341,474 228.39734,474 C229.019339,474 229.55918,473.756413 230.016877,473.269231 C230.474575,472.782049 230.70342,472.198721 230.70342,471.519231 C230.70342,471.339903 230.687685,471.166826 230.656215,471 L235.838085,471 C235.806615,471.166826 235.79088,471.339903 235.79088,471.519231 C235.79088,472.198721 236.019725,472.782049 236.477423,473.269231 C236.93512,473.756413 237.474961,474 238.09696,474 C238.707223,474 239.24413,473.759618 239.707695,473.278846 C240.171261,472.798075 240.40304,472.211542 240.40304,471.519231 C240.40304,471.339903 240.387101,471.166826 240.355222,471 L245.537705,471 C245.506235,471.166826 245.4905,471.339903 245.4905,471.519231 C245.4905,472.198721 245.719345,472.782049 246.177043,473.269231 C246.63474,473.756413 247.174581,474 247.79658,474 C248.406843,474 248.94375,473.759618 249.407315,473.278846 C249.870881,472.798075 250.10266,472.211542 250.10266,471.519231 C250.10266,471.339903 250.086721,471.166826 250.054842,471 L255.237325,471 C255.205855,471.166826 255.19012,471.339903 255.19012,471.519231 C255.19012,472.198721 255.418965,472.782049 255.876663,473.269231 C256.33436,473.756413 256.874201,474 257.4962,474 C258.118199,474 258.65804,473.756413 259.115737,473.269231 C259.573435,472.782049 259.80228,472.198721 259.80228,471.519231 C259.80228,471.339903 259.786545,471.166826 259.755075,471 L264.936945,471 C264.905475,471.166826 264.88974,471.339903 264.88974,471.519231 C264.88974,472.198721 265.118585,472.782049 265.576283,473.269231 C266.03398,473.756413 266.573821,474 267.19582,474 C267.806083,474 268.34299,473.759618 268.806555,473.278846 C269.270121,472.798075 269.5019,472.211542 269.5019,471.519231 C269.5019,471.339903 269.485961,471.166826 269.454082,471 L274.636565,471 C274.605095,471.166826 274.58936,471.339903 274.58936,471.519231 C274.58936,472.198721 274.818205,472.782049 275.275903,473.269231 C275.7336,473.756413 276.273441,474 276.89544,474 C277.505703,474 278.04261,473.759618 278.506175,473.278846 C278.969741,472.798075 279.20152,472.211542 279.20152,471.519231 C279.20152,471.339903 279.185581,471.166826 279.153702,471 L284.336185,471 C284.304715,471.166826 284.28898,471.339903 284.28898,471.519231 C284.28898,472.198721 284.517825,472.782049 284.975523,473.269231 C285.43322,473.756413 285.97306,474 286.59506,474 C287.217059,474 287.756899,473.756413 288.214597,473.269231 C288.672295,472.782049 288.90114,472.198721 288.90114,471.519231 C288.90114,471.339903 288.885405,471.166826 288.853935,471 L294.035805,471 C294.004335,471.166826 293.9886,471.339903 293.9886,471.519231 C293.9886,472.198721 294.217445,472.782049 294.675143,473.269231 C295.13284,473.756413 295.67268,474 296.29468,474 C296.904943,474 297.44185,473.759618 297.905415,473.278846 C298.368981,472.798075 298.60076,472.211542 298.60076,471.519231 C298.60076,471.339903 298.584821,471.166826 298.552942,471 L303.735425,471 C303.703955,471.166826 303.68822,471.339903 303.68822,471.519231 C303.68822,472.198721 303.917065,472.782049 304.374762,473.269231 C304.83246,473.756413 305.3723,474 305.9943,474 C306.604563,474 307.14147,473.759618 307.605035,473.278846 C308.068601,472.798075 308.30038,472.211542 308.30038,471.519231 C308.30038,471.339903 308.284441,471.166826 308.252562,471 L313.435045,471 C313.403575,471.166826 313.387839,471.339903 313.387839,471.519231 C313.387839,472.198721 313.616685,472.782049 314.074382,473.269231 C314.53208,473.756413 315.07192,474 315.69392,474 C316.315919,474 316.855759,473.756413 317.313457,473.269231 C317.771155,472.782049 318,472.198721 318,471.519231 C318,471.339903 317.984265,471.166826 317.952795,471 L320,471 L320,474 L0,474 L0,471 L3.04720534,471 Z" id="Rectangle-2" fill="#FFFFFF"></path>
        <text id="…" opacity="0.32" font-family="Chalkduster" font-size="24" font-weight="normal" fill="#FFFFFF">
            <tspan x="246" y="406">…</tspan>
        </text>
        <g id="Tìm-hiểu-đăng-ký" opacity="0.96" fill="#FFFFFF" fill-opacity="1">
            <use filter="url(#filter-5)" xlink:href="#text-4"></use>
            <use xlink:href="#text-4"></use>
        </g>
    </g>
</svg>