<?xml version="1.0" encoding="UTF-8"?>
<svg width="1920px" height="776px" viewBox="0 0 1920 776" version="1.1" xmlns="http://www.w3.org/2000/svg" xmlns:xlink="http://www.w3.org/1999/xlink">
    <!-- Generator: Sketch 61.1 (89650) - https://sketch.com -->
    <title>1</title>
    <desc>Created with Sketch.</desc>
    <defs>
        <path d="M1166.4,471 L1166.4,443.25 L1176.35,471 L1179.25,471 L1179.25,435.4 L1176.3,435.4 L1176.3,463.15 L1166.4,435.4 L1163.45,435.4 L1163.45,471 L1166.4,471 Z M1191.4,481.55 C1192.33333,481.55 1193.19167,481.383333 1193.975,481.05 C1194.75833,480.716667 1195.41667,480.266667 1195.95,479.7 C1196.31667,479.3 1196.61667,478.883333 1196.85,478.45 C1197.08333,478.016667 1197.275,477.5 1197.425,476.9 C1197.575,476.3 1197.68333,475.608333 1197.75,474.825 C1197.81667,474.041667 1197.85,473.116667 1197.85,472.05 L1197.85,472.05 L1197.85,445.55 L1195.1,445.55 L1195.1,447.5 C1194.63333,446.7 1194.03333,446.108333 1193.3,445.725 C1192.56667,445.341667 1191.75,445.15 1190.85,445.15 C1189.28333,445.15 1187.96667,445.75 1186.9,446.95 C1186.5,447.383333 1186.175,447.908333 1185.925,448.525 C1185.675,449.141667 1185.475,449.883333 1185.325,450.75 C1185.175,451.616667 1185.075,452.65 1185.025,453.85 C1184.975,455.05 1184.95,456.466667 1184.95,458.1 L1184.95093,458.636728 C1184.95586,460.047428 1184.98056,461.293519 1185.025,462.375 C1185.075,463.591667 1185.175,464.641667 1185.325,465.525 C1185.475,466.408333 1185.675,467.15 1185.925,467.75 C1186.175,468.35 1186.5,468.866667 1186.9,469.3 C1187.96667,470.466667 1189.28333,471.05 1190.85,471.05 C1192.01667,471.05 1192.96667,470.766667 1193.7,470.2 C1193.96667,470.033333 1194.21667,469.816667 1194.45,469.55 C1194.68333,469.283333 1194.88333,469.016667 1195.05,468.75 L1195.05,468.75 L1195.05,472.1 C1195.05,473.7 1194.96667,474.958333 1194.8,475.875 C1194.63333,476.791667 1194.31667,477.5 1193.85,478 C1193.58333,478.333333 1193.25,478.6 1192.85,478.8 C1192.45,479 1191.96667,479.1 1191.4,479.1 C1190.7,479.1 1190.11667,478.975 1189.65,478.725 C1189.18333,478.475 1188.80833,478.141667 1188.525,477.725 C1188.24167,477.308333 1188.05,476.816667 1187.95,476.25 C1187.85,475.683333 1187.8,475.1 1187.8,474.5 L1187.8,474.5 L1185.05,474.5 C1185.05,476.6 1185.55,478.3 1186.55,479.6 C1187.55,480.9 1189.16667,481.55 1191.4,481.55 Z M1191.45,468.6 C1190.95,468.6 1190.49167,468.491667 1190.075,468.275 C1189.65833,468.058333 1189.31667,467.8 1189.05,467.5 C1188.75,467.166667 1188.51667,466.758333 1188.35,466.275 C1188.18333,465.791667 1188.05833,465.183333 1187.975,464.45 C1187.89167,463.716667 1187.83333,462.833333 1187.8,461.8 C1187.76667,460.766667 1187.75,459.55 1187.75,458.15 L1187.75031,457.67963 C1187.75195,456.445062 1187.76019,455.368519 1187.775,454.45 C1187.79167,453.416667 1187.85,452.541667 1187.95,451.825 C1188.05,451.108333 1188.18333,450.508333 1188.35,450.025 C1188.51667,449.541667 1188.75,449.133333 1189.05,448.8 C1189.31667,448.466667 1189.65833,448.191667 1190.075,447.975 C1190.49167,447.758333 1190.95,447.65 1191.45,447.65 C1192.75,447.65 1193.675,448.1 1194.225,449 C1194.775,449.9 1195.05,450.933333 1195.05,452.1 L1195.05,452.1 L1195.05,464.15 C1195.05,465.316667 1194.775,466.35 1194.225,467.25 C1193.675,468.15 1192.75,468.6 1191.45,468.6 Z M1209.4,471.4 C1210.3,471.4 1211.13333,471.183333 1211.9,470.75 C1212.66667,470.316667 1213.28333,469.716667 1213.75,468.95 L1213.75,468.95 L1213.75,471 L1216.5,471 L1216.5,451.55 L1217.1,451.55 C1219.96667,451.55 1221.4,449.816667 1221.4,446.35 L1221.4,446.35 L1221.4,444.15 L1219.05,444.15 L1219.05,445.95 C1219.05,447.016667 1218.875,447.866667 1218.525,448.5 C1218.175,449.133333 1217.61667,449.45 1216.85,449.45 L1216.85,449.45 L1216.5,449.45 L1216.5,445.55 L1213.7,445.55 L1213.7,464.7 C1213.7,466.1 1213.35,467.15 1212.65,467.85 C1211.95,468.55 1211.11667,468.9 1210.15,468.9 C1209.18333,468.9 1208.35833,468.55 1207.675,467.85 C1206.99167,467.15 1206.65,466.1 1206.65,464.7 L1206.65,464.7 L1206.65,445.55 L1203.85,445.55 L1203.85,464.65 C1203.85,465.55 1203.95,466.4 1204.15,467.2 C1204.35,468 1204.675,468.716667 1205.125,469.35 C1205.575,469.983333 1206.15,470.483333 1206.85,470.85 C1207.55,471.216667 1208.4,471.4 1209.4,471.4 Z M1230.25,441.7 L1226.95,435.2 L1224.05,435.2 L1227.8,441.7 L1230.25,441.7 Z M1228.85,471.4 C1230.88333,471.4 1232.45,470.733333 1233.55,469.4 C1234.31667,468.466667 1234.825,467.133333 1235.075,465.4 C1235.325,463.666667 1235.45,461.3 1235.45,458.3 C1235.45,455.566667 1235.35,453.316667 1235.15,451.55 C1236.61667,451.483333 1237.7,451.033333 1238.4,450.2 C1239.1,449.366667 1239.45,448.083333 1239.45,446.35 L1239.45,446.35 L1239.45,444.15 L1237.1,444.15 L1237.1,445.95 C1237.1,447.016667 1236.925,447.866667 1236.575,448.5 C1236.225,449.133333 1235.66667,449.45 1234.9,449.45 L1234.9,449.45 L1234.7,449.45 C1234.53333,448.983333 1234.36667,448.566667 1234.2,448.2 C1234.03333,447.833333 1233.81667,447.5 1233.55,447.2 C1232.45,445.833333 1230.88333,445.15 1228.85,445.15 C1226.81667,445.15 1225.25,445.833333 1224.15,447.2 C1223.38333,448.133333 1222.875,449.466667 1222.625,451.2 C1222.375,452.933333 1222.25,455.3 1222.25,458.3 C1222.25,461.3 1222.375,463.666667 1222.625,465.4 C1222.875,467.133333 1223.38333,468.466667 1224.15,469.4 C1225.25,470.733333 1226.81667,471.4 1228.85,471.4 Z M1228.85,468.9 C1228.28333,468.9 1227.78333,468.791667 1227.35,468.575 C1226.91667,468.358333 1226.56667,468.083333 1226.3,467.75 C1225.73333,467.05 1225.38333,465.983333 1225.25,464.55 C1225.11667,463.116667 1225.05,461.033333 1225.05,458.3 L1225.05069,457.824308 C1225.05807,455.322809 1225.12451,453.389706 1225.25,452.025 C1225.38333,450.575 1225.73333,449.5 1226.3,448.8 C1226.56667,448.466667 1226.91667,448.191667 1227.35,447.975 C1227.78333,447.758333 1228.28333,447.65 1228.85,447.65 C1229.41667,447.65 1229.90833,447.758333 1230.325,447.975 C1230.74167,448.191667 1231.08333,448.466667 1231.35,448.8 C1231.91667,449.5 1232.275,450.575 1232.425,452.025 C1232.575,453.475 1232.65,455.566667 1232.65,458.3 C1232.65,461.033333 1232.575,463.116667 1232.425,464.55 C1232.275,465.983333 1231.91667,467.05 1231.35,467.75 C1231.08333,468.083333 1230.74167,468.358333 1230.325,468.575 C1229.90833,468.791667 1229.41667,468.9 1228.85,468.9 Z M1244.3,439.7 L1244.3,436.1 L1240.7,436.1 L1240.7,439.7 L1244.3,439.7 Z M1243.9,471 L1243.9,445.55 L1241.1,445.55 L1241.1,471 L1243.9,471 Z M1265.55,471.4 C1267.45,471.4 1268.95,470.85 1270.05,469.75 C1270.71667,469.083333 1271.175,468.308333 1271.425,467.425 C1271.675,466.541667 1271.81667,465.5 1271.85,464.3 L1271.85,464.3 L1269.1,464.3 C1269.1,465.066667 1269.03333,465.741667 1268.9,466.325 C1268.76667,466.908333 1268.48333,467.433333 1268.05,467.9 C1267.38333,468.566667 1266.56667,468.9 1265.6,468.9 C1264.46667,468.9 1263.6,468.516667 1263,467.75 C1262.43333,467.05 1262.08333,465.983333 1261.95,464.55 C1261.81667,463.116667 1261.75,461.033333 1261.75,458.3 L1261.75069,457.824308 C1261.75807,455.322809 1261.82451,453.389706 1261.95,452.025 C1262.08333,450.575 1262.43333,449.5 1263,448.8 C1263.6,448.033333 1264.46667,447.65 1265.6,447.65 C1266.66667,447.65 1267.5,448 1268.1,448.7 C1268.56667,449.2 1268.85,449.758333 1268.95,450.375 C1269.05,450.991667 1269.1,451.633333 1269.1,452.3 L1269.1,452.3 L1271.85,452.3 C1271.81667,451.233333 1271.7,450.225 1271.5,449.275 C1271.3,448.325 1270.81667,447.483333 1270.05,446.75 C1269.48333,446.183333 1268.83333,445.775 1268.1,445.525 C1267.36667,445.275 1266.51667,445.15 1265.55,445.15 C1263.51667,445.15 1261.95,445.833333 1260.85,447.2 C1260.08333,448.1 1259.575,449.425 1259.325,451.175 C1259.075,452.925 1258.95,455.3 1258.95,458.3 C1258.95,461.3 1259.075,463.675 1259.325,465.425 C1259.575,467.175 1260.08333,468.5 1260.85,469.4 C1261.98333,470.733333 1263.55,471.4 1265.55,471.4 Z M1279.6,471 L1279.6,451.85 C1279.6,450.45 1279.95,449.4 1280.65,448.7 C1281.35,448 1282.18333,447.65 1283.15,447.65 C1284.11667,447.65 1284.94167,448 1285.625,448.7 C1286.30833,449.4 1286.65,450.45 1286.65,451.85 L1286.65,451.85 L1286.65,471 L1289.45,471 L1289.45,451.9 C1289.45,451 1289.35,450.15 1289.15,449.35 C1288.95,448.55 1288.625,447.833333 1288.175,447.2 C1287.725,446.566667 1287.15,446.066667 1286.45,445.7 C1285.75,445.333333 1284.9,445.15 1283.9,445.15 C1283.5,445.15 1283.08333,445.208333 1282.65,445.325 C1282.21667,445.441667 1281.8,445.6 1281.4,445.8 C1281,446 1280.64167,446.25 1280.325,446.55 C1280.00833,446.85 1279.76667,447.183333 1279.6,447.55 L1279.6,447.55 L1279.6,435.4 L1276.8,435.4 L1276.8,471 L1279.6,471 Z M1300.75,436.15 C1302.15,436.15 1303.26667,435.741667 1304.1,434.925 C1304.93333,434.108333 1305.35,433.066667 1305.35,431.8 C1305.35,430.566667 1304.93333,429.533333 1304.1,428.7 C1303.26667,427.866667 1302.15,427.45 1300.75,427.45 L1300.75,427.45 L1300.75,429.4 C1301.45,429.4 1302.04167,429.633333 1302.525,430.1 C1303.00833,430.566667 1303.25,431.133333 1303.25,431.8 C1303.25,432.5 1303.00833,433.083333 1302.525,433.55 C1302.04167,434.016667 1301.45,434.25 1300.75,434.25 L1300.75,434.25 L1300.75,436.15 Z M1301,442 C1304.36667,442 1306.2,440.266667 1306.5,436.8 L1306.5,436.8 L1304.25,436.8 C1303.95,438.8 1302.86667,439.8 1301,439.8 C1299.1,439.8 1298.01667,438.8 1297.75,436.8 L1297.75,436.8 L1295.45,436.8 C1295.81667,440.266667 1297.66667,442 1301,442 Z M1299.9,471.4 C1300.83333,471.4 1301.70833,471.166667 1302.525,470.7 C1303.34167,470.233333 1303.95,469.566667 1304.35,468.7 L1304.35,468.7 L1304.35,471 L1307.05,471 L1307.05,452.05 C1307.05,449.916667 1306.55,448.233333 1305.55,447 C1304.55,445.766667 1302.95,445.15 1300.75,445.15 C1299.71667,445.15 1298.80833,445.325 1298.025,445.675 C1297.24167,446.025 1296.59167,446.516667 1296.075,447.15 C1295.55833,447.783333 1295.16667,448.516667 1294.9,449.35 C1294.63333,450.183333 1294.5,451.1 1294.5,452.1 L1294.5,452.1 L1297.3,452.1 C1297.3,451.533333 1297.35833,450.983333 1297.475,450.45 C1297.59167,449.916667 1297.79167,449.441667 1298.075,449.025 C1298.35833,448.608333 1298.71667,448.266667 1299.15,448 C1299.58333,447.733333 1300.11667,447.6 1300.75,447.6 C1301.91667,447.6 1302.79167,447.975 1303.375,448.725 C1303.95833,449.475 1304.25,450.55 1304.25,451.95 L1304.25,451.95 L1304.25,456.5 L1301.35,456.5 C1299.01667,456.5 1297.24167,457.166667 1296.025,458.5 C1294.80833,459.833333 1294.2,461.65 1294.2,463.95 C1294.2,464.883333 1294.29167,465.8 1294.475,466.7 C1294.65833,467.6 1294.975,468.4 1295.425,469.1 C1295.875,469.8 1296.45833,470.358333 1297.175,470.775 C1297.89167,471.191667 1298.8,471.4 1299.9,471.4 Z M1300.55,468.9 C1299.31667,468.9 1298.41667,468.45 1297.85,467.55 C1297.28333,466.65 1297,465.433333 1297,463.9 C1297,462.4 1297.34167,461.158333 1298.025,460.175 C1298.70833,459.191667 1299.85,458.7 1301.45,458.7 L1301.45,458.7 L1304.25,458.7 L1304.25,464.3 C1304.25,465.633333 1303.91667,466.733333 1303.25,467.6 C1302.58333,468.466667 1301.68333,468.9 1300.55,468.9 Z M1315.85,471 L1315.85,451.85 C1315.85,450.45 1316.2,449.4 1316.9,448.7 C1317.6,448 1318.43333,447.65 1319.4,447.65 C1320.36667,447.65 1321.19167,448 1321.875,448.7 C1322.55833,449.4 1322.9,450.45 1322.9,451.85 L1322.9,451.85 L1322.9,471 L1325.7,471 L1325.7,451.9 C1325.7,451 1325.6,450.15 1325.4,449.35 C1325.2,448.55 1324.875,447.833333 1324.425,447.2 C1323.975,446.566667 1323.4,446.066667 1322.7,445.7 C1322,445.333333 1321.15,445.15 1320.15,445.15 C1319.25,445.15 1318.41667,445.366667 1317.65,445.8 C1316.88333,446.233333 1316.26667,446.833333 1315.8,447.6 L1315.8,447.6 L1315.8,445.55 L1313.05,445.55 L1313.05,471 L1315.85,471 Z M1337.3,481.55 C1338.23333,481.55 1339.09167,481.383333 1339.875,481.05 C1340.65833,480.716667 1341.31667,480.266667 1341.85,479.7 C1342.21667,479.3 1342.51667,478.883333 1342.75,478.45 C1342.98333,478.016667 1343.175,477.5 1343.325,476.9 C1343.475,476.3 1343.58333,475.608333 1343.65,474.825 C1343.71667,474.041667 1343.75,473.116667 1343.75,472.05 L1343.75,472.05 L1343.75,445.55 L1341,445.55 L1341,447.5 C1340.53333,446.7 1339.93333,446.108333 1339.2,445.725 C1338.46667,445.341667 1337.65,445.15 1336.75,445.15 C1335.18333,445.15 1333.86667,445.75 1332.8,446.95 C1332.4,447.383333 1332.075,447.908333 1331.825,448.525 C1331.575,449.141667 1331.375,449.883333 1331.225,450.75 C1331.075,451.616667 1330.975,452.65 1330.925,453.85 C1330.875,455.05 1330.85,456.466667 1330.85,458.1 L1330.85093,458.636728 C1330.85586,460.047428 1330.88056,461.293519 1330.925,462.375 C1330.975,463.591667 1331.075,464.641667 1331.225,465.525 C1331.375,466.408333 1331.575,467.15 1331.825,467.75 C1332.075,468.35 1332.4,468.866667 1332.8,469.3 C1333.86667,470.466667 1335.18333,471.05 1336.75,471.05 C1337.91667,471.05 1338.86667,470.766667 1339.6,470.2 C1339.86667,470.033333 1340.11667,469.816667 1340.35,469.55 C1340.58333,469.283333 1340.78333,469.016667 1340.95,468.75 L1340.95,468.75 L1340.95,472.1 C1340.95,473.7 1340.86667,474.958333 1340.7,475.875 C1340.53333,476.791667 1340.21667,477.5 1339.75,478 C1339.48333,478.333333 1339.15,478.6 1338.75,478.8 C1338.35,479 1337.86667,479.1 1337.3,479.1 C1336.6,479.1 1336.01667,478.975 1335.55,478.725 C1335.08333,478.475 1334.70833,478.141667 1334.425,477.725 C1334.14167,477.308333 1333.95,476.816667 1333.85,476.25 C1333.75,475.683333 1333.7,475.1 1333.7,474.5 L1333.7,474.5 L1330.95,474.5 C1330.95,476.6 1331.45,478.3 1332.45,479.6 C1333.45,480.9 1335.06667,481.55 1337.3,481.55 Z M1337.35,468.6 C1336.85,468.6 1336.39167,468.491667 1335.975,468.275 C1335.55833,468.058333 1335.21667,467.8 1334.95,467.5 C1334.65,467.166667 1334.41667,466.758333 1334.25,466.275 C1334.08333,465.791667 1333.95833,465.183333 1333.875,464.45 C1333.79167,463.716667 1333.73333,462.833333 1333.7,461.8 C1333.66667,460.766667 1333.65,459.55 1333.65,458.15 L1333.65031,457.67963 C1333.65195,456.445062 1333.66019,455.368519 1333.675,454.45 C1333.69167,453.416667 1333.75,452.541667 1333.85,451.825 C1333.95,451.108333 1334.08333,450.508333 1334.25,450.025 C1334.41667,449.541667 1334.65,449.133333 1334.95,448.8 C1335.21667,448.466667 1335.55833,448.191667 1335.975,447.975 C1336.39167,447.758333 1336.85,447.65 1337.35,447.65 C1338.65,447.65 1339.575,448.1 1340.125,449 C1340.675,449.9 1340.95,450.933333 1340.95,452.1 L1340.95,452.1 L1340.95,464.15 C1340.95,465.316667 1340.675,466.35 1340.125,467.25 C1339.575,468.15 1338.65,468.6 1337.35,468.6 Z M1362.45,471 L1362.45,451.85 C1362.45,450.45 1362.8,449.4 1363.5,448.7 C1364.2,448 1365.03333,447.65 1366,447.65 C1366.96667,447.65 1367.79167,448 1368.475,448.7 C1369.15833,449.4 1369.5,450.45 1369.5,451.85 L1369.5,451.85 L1369.5,471 L1372.3,471 L1372.3,451.9 C1372.3,451 1372.2,450.15 1372,449.35 C1371.8,448.55 1371.475,447.833333 1371.025,447.2 C1370.575,446.566667 1370,446.066667 1369.3,445.7 C1368.6,445.333333 1367.75,445.15 1366.75,445.15 C1366.35,445.15 1365.93333,445.208333 1365.5,445.325 C1365.06667,445.441667 1364.65,445.6 1364.25,445.8 C1363.85,446 1363.49167,446.25 1363.175,446.55 C1362.85833,446.85 1362.61667,447.183333 1362.45,447.55 L1362.45,447.55 L1362.45,435.4 L1359.65,435.4 L1359.65,471 L1362.45,471 Z M1384.1,471.4 C1386.03333,471.4 1387.56667,470.816667 1388.7,469.65 C1389.36667,468.983333 1389.84167,468.233333 1390.125,467.4 C1390.40833,466.566667 1390.55,465.533333 1390.55,464.3 L1390.55,464.3 L1387.8,464.3 C1387.8,465.933333 1387.43333,467.133333 1386.7,467.9 C1386.36667,468.266667 1385.975,468.525 1385.525,468.675 C1385.075,468.825 1384.6,468.9 1384.1,468.9 C1383.53333,468.9 1383.03333,468.791667 1382.6,468.575 C1382.16667,468.358333 1381.81667,468.083333 1381.55,467.75 C1380.98333,467.083333 1380.625,466.058333 1380.475,464.675 C1380.325,463.291667 1380.25,461.3 1380.25,458.7 L1380.25,458.7 L1390.65,458.7 C1390.65,455.466667 1390.51667,452.941667 1390.25,451.125 C1389.98333,449.308333 1389.43333,447.933333 1388.6,447 C1387.46667,445.766667 1385.95,445.15 1384.05,445.15 C1382.15,445.15 1380.63333,445.766667 1379.5,447 C1378.63333,447.933333 1378.075,449.283333 1377.825,451.05 C1377.575,452.816667 1377.45,455.233333 1377.45,458.3 C1377.45,461.333333 1377.58333,463.741667 1377.85,465.525 C1378.11667,467.308333 1378.66667,468.65 1379.5,469.55 C1380.66667,470.783333 1382.2,471.4 1384.1,471.4 Z M1387.85,456.45 L1380.25,456.45 C1380.28333,454.25 1380.375,452.566667 1380.525,451.4 C1380.675,450.233333 1381,449.366667 1381.5,448.8 C1381.76667,448.466667 1382.11667,448.191667 1382.55,447.975 C1382.98333,447.758333 1383.48333,447.65 1384.05,447.65 C1384.61667,447.65 1385.10833,447.758333 1385.525,447.975 C1385.94167,448.191667 1386.28333,448.466667 1386.55,448.8 C1387.05,449.366667 1387.38333,450.233333 1387.55,451.4 C1387.71667,452.566667 1387.81667,454.25 1387.85,456.45 L1387.85,456.45 Z M1385.6,477.45 L1385.6,474.3 L1382.45,474.3 L1382.45,477.45 L1385.6,477.45 Z M1398.8,471 L1398.8,451.85 C1398.8,450.45 1399.15,449.4 1399.85,448.7 C1400.55,448 1401.38333,447.65 1402.35,447.65 C1403.31667,447.65 1404.14167,448 1404.825,448.7 C1405.50833,449.4 1405.85,450.45 1405.85,451.85 L1405.85,451.85 L1405.85,471 L1408.65,471 L1408.65,451.9 C1408.65,451 1408.55,450.15 1408.35,449.35 C1408.15,448.55 1407.825,447.833333 1407.375,447.2 C1406.925,446.566667 1406.35,446.066667 1405.65,445.7 C1404.95,445.333333 1404.1,445.15 1403.1,445.15 C1402.2,445.15 1401.36667,445.366667 1400.6,445.8 C1399.83333,446.233333 1399.21667,446.833333 1398.75,447.6 L1398.75,447.6 L1398.75,445.55 L1396,445.55 L1396,471 L1398.8,471 Z M1427.15,471 L1427.15,451.85 C1427.15,450.45 1427.5,449.4 1428.2,448.7 C1428.9,448 1429.73333,447.65 1430.7,447.65 C1431.66667,447.65 1432.49167,448 1433.175,448.7 C1433.85833,449.4 1434.2,450.45 1434.2,451.85 L1434.2,451.85 L1434.2,471 L1437,471 L1437,451.85 C1437,450.45 1437.35,449.4 1438.05,448.7 C1438.75,448 1439.58333,447.65 1440.55,447.65 C1441.51667,447.65 1442.34167,448 1443.025,448.7 C1443.70833,449.4 1444.05,450.45 1444.05,451.85 L1444.05,451.85 L1444.05,471 L1446.85,471 L1446.85,451.9 C1446.85,449.966667 1446.4,448.358333 1445.5,447.075 C1444.6,445.791667 1443.1,445.15 1441,445.15 C1439.93333,445.15 1439.00833,445.383333 1438.225,445.85 C1437.44167,446.316667 1436.76667,446.983333 1436.2,447.85 C1435.7,447.083333 1435.025,446.441667 1434.175,445.925 C1433.325,445.408333 1432.41667,445.15 1431.45,445.15 C1430.55,445.15 1429.71667,445.366667 1428.95,445.8 C1428.18333,446.233333 1427.56667,446.833333 1427.1,447.6 L1427.1,447.6 L1427.1,445.55 L1424.35,445.55 L1424.35,471 L1427.15,471 Z M1459.8,441.7 L1456.5,435.2 L1453.6,435.2 L1457.35,441.7 L1459.8,441.7 Z M1457.3,471.4 C1458.23333,471.4 1459.10833,471.166667 1459.925,470.7 C1460.74167,470.233333 1461.35,469.566667 1461.75,468.7 L1461.75,468.7 L1461.75,471 L1464.45,471 L1464.45,452.05 C1464.45,449.916667 1463.95,448.233333 1462.95,447 C1461.95,445.766667 1460.35,445.15 1458.15,445.15 C1457.11667,445.15 1456.20833,445.325 1455.425,445.675 C1454.64167,446.025 1453.99167,446.516667 1453.475,447.15 C1452.95833,447.783333 1452.56667,448.516667 1452.3,449.35 C1452.03333,450.183333 1451.9,451.1 1451.9,452.1 L1451.9,452.1 L1454.7,452.1 C1454.7,451.533333 1454.75833,450.983333 1454.875,450.45 C1454.99167,449.916667 1455.19167,449.441667 1455.475,449.025 C1455.75833,448.608333 1456.11667,448.266667 1456.55,448 C1456.98333,447.733333 1457.51667,447.6 1458.15,447.6 C1459.31667,447.6 1460.19167,447.975 1460.775,448.725 C1461.35833,449.475 1461.65,450.55 1461.65,451.95 L1461.65,451.95 L1461.65,456.5 L1458.75,456.5 C1456.41667,456.5 1454.64167,457.166667 1453.425,458.5 C1452.20833,459.833333 1451.6,461.65 1451.6,463.95 C1451.6,464.883333 1451.69167,465.8 1451.875,466.7 C1452.05833,467.6 1452.375,468.4 1452.825,469.1 C1453.275,469.8 1453.85833,470.358333 1454.575,470.775 C1455.29167,471.191667 1456.2,471.4 1457.3,471.4 Z M1457.95,468.9 C1456.71667,468.9 1455.81667,468.45 1455.25,467.55 C1454.68333,466.65 1454.4,465.433333 1454.4,463.9 C1454.4,462.4 1454.74167,461.158333 1455.425,460.175 C1456.10833,459.191667 1457.25,458.7 1458.85,458.7 L1458.85,458.7 L1461.65,458.7 L1461.65,464.3 C1461.65,465.633333 1461.31667,466.733333 1460.65,467.6 C1459.98333,468.466667 1459.08333,468.9 1457.95,468.9 Z M1485.75,481.55 C1486.68333,481.55 1487.54167,481.383333 1488.325,481.05 C1489.10833,480.716667 1489.76667,480.266667 1490.3,479.7 C1490.66667,479.3 1490.96667,478.883333 1491.2,478.45 C1491.43333,478.016667 1491.625,477.5 1491.775,476.9 C1491.925,476.3 1492.03333,475.608333 1492.1,474.825 C1492.16667,474.041667 1492.2,473.116667 1492.2,472.05 L1492.2,472.05 L1492.2,445.55 L1489.45,445.55 L1489.45,447.5 C1488.98333,446.7 1488.38333,446.108333 1487.65,445.725 C1486.91667,445.341667 1486.1,445.15 1485.2,445.15 C1483.63333,445.15 1482.31667,445.75 1481.25,446.95 C1480.85,447.383333 1480.525,447.908333 1480.275,448.525 C1480.025,449.141667 1479.825,449.883333 1479.675,450.75 C1479.525,451.616667 1479.425,452.65 1479.375,453.85 C1479.325,455.05 1479.3,456.466667 1479.3,458.1 L1479.30093,458.636728 C1479.30586,460.047428 1479.33056,461.293519 1479.375,462.375 C1479.425,463.591667 1479.525,464.641667 1479.675,465.525 C1479.825,466.408333 1480.025,467.15 1480.275,467.75 C1480.525,468.35 1480.85,468.866667 1481.25,469.3 C1482.31667,470.466667 1483.63333,471.05 1485.2,471.05 C1486.36667,471.05 1487.31667,470.766667 1488.05,470.2 C1488.31667,470.033333 1488.56667,469.816667 1488.8,469.55 C1489.03333,469.283333 1489.23333,469.016667 1489.4,468.75 L1489.4,468.75 L1489.4,472.1 C1489.4,473.7 1489.31667,474.958333 1489.15,475.875 C1488.98333,476.791667 1488.66667,477.5 1488.2,478 C1487.93333,478.333333 1487.6,478.6 1487.2,478.8 C1486.8,479 1486.31667,479.1 1485.75,479.1 C1485.05,479.1 1484.46667,478.975 1484,478.725 C1483.53333,478.475 1483.15833,478.141667 1482.875,477.725 C1482.59167,477.308333 1482.4,476.816667 1482.3,476.25 C1482.2,475.683333 1482.15,475.1 1482.15,474.5 L1482.15,474.5 L1479.4,474.5 C1479.4,476.6 1479.9,478.3 1480.9,479.6 C1481.9,480.9 1483.51667,481.55 1485.75,481.55 Z M1485.8,468.6 C1485.3,468.6 1484.84167,468.491667 1484.425,468.275 C1484.00833,468.058333 1483.66667,467.8 1483.4,467.5 C1483.1,467.166667 1482.86667,466.758333 1482.7,466.275 C1482.53333,465.791667 1482.40833,465.183333 1482.325,464.45 C1482.24167,463.716667 1482.18333,462.833333 1482.15,461.8 C1482.11667,460.766667 1482.1,459.55 1482.1,458.15 L1482.10031,457.67963 C1482.10195,456.445062 1482.11019,455.368519 1482.125,454.45 C1482.14167,453.416667 1482.2,452.541667 1482.3,451.825 C1482.4,451.108333 1482.53333,450.508333 1482.7,450.025 C1482.86667,449.541667 1483.1,449.133333 1483.4,448.8 C1483.66667,448.466667 1484.00833,448.191667 1484.425,447.975 C1484.84167,447.758333 1485.3,447.65 1485.8,447.65 C1487.1,447.65 1488.025,448.1 1488.575,449 C1489.125,449.9 1489.4,450.933333 1489.4,452.1 L1489.4,452.1 L1489.4,464.15 C1489.4,465.316667 1489.125,466.35 1488.575,467.25 C1488.025,468.15 1487.1,468.6 1485.8,468.6 Z M1503.95,442 C1507.31667,442 1509.15,440.266667 1509.45,436.8 L1509.45,436.8 L1507.2,436.8 C1506.9,438.8 1505.81667,439.8 1503.95,439.8 C1502.05,439.8 1500.96667,438.8 1500.7,436.8 L1500.7,436.8 L1498.4,436.8 C1498.76667,440.266667 1500.61667,442 1503.95,442 Z M1502.85,471.4 C1503.78333,471.4 1504.65833,471.166667 1505.475,470.7 C1506.29167,470.233333 1506.9,469.566667 1507.3,468.7 L1507.3,468.7 L1507.3,471 L1510,471 L1510,452.05 C1510,449.916667 1509.5,448.233333 1508.5,447 C1507.5,445.766667 1505.9,445.15 1503.7,445.15 C1502.66667,445.15 1501.75833,445.325 1500.975,445.675 C1500.19167,446.025 1499.54167,446.516667 1499.025,447.15 C1498.50833,447.783333 1498.11667,448.516667 1497.85,449.35 C1497.58333,450.183333 1497.45,451.1 1497.45,452.1 L1497.45,452.1 L1500.25,452.1 C1500.25,451.533333 1500.30833,450.983333 1500.425,450.45 C1500.54167,449.916667 1500.74167,449.441667 1501.025,449.025 C1501.30833,448.608333 1501.66667,448.266667 1502.1,448 C1502.53333,447.733333 1503.06667,447.6 1503.7,447.6 C1504.86667,447.6 1505.74167,447.975 1506.325,448.725 C1506.90833,449.475 1507.2,450.55 1507.2,451.95 L1507.2,451.95 L1507.2,456.5 L1504.3,456.5 C1501.96667,456.5 1500.19167,457.166667 1498.975,458.5 C1497.75833,459.833333 1497.15,461.65 1497.15,463.95 C1497.15,464.883333 1497.24167,465.8 1497.425,466.7 C1497.60833,467.6 1497.925,468.4 1498.375,469.1 C1498.825,469.8 1499.40833,470.358333 1500.125,470.775 C1500.84167,471.191667 1501.75,471.4 1502.85,471.4 Z M1503.5,468.9 C1502.26667,468.9 1501.36667,468.45 1500.8,467.55 C1500.23333,466.65 1499.95,465.433333 1499.95,463.9 C1499.95,462.4 1500.29167,461.158333 1500.975,460.175 C1501.65833,459.191667 1502.8,458.7 1504.4,458.7 L1504.4,458.7 L1507.2,458.7 L1507.2,464.3 C1507.2,465.633333 1506.86667,466.733333 1506.2,467.6 C1505.53333,468.466667 1504.63333,468.9 1503.5,468.9 Z M1505.5,477.45 L1505.5,474.3 L1502.35,474.3 L1502.35,477.45 L1505.5,477.45 Z M1518.8,481.15 L1518.8,469.1 C1519.76667,470.633333 1521.2,471.4 1523.1,471.4 C1523.96667,471.4 1524.70833,471.25 1525.325,470.95 C1525.94167,470.65 1526.51667,470.2 1527.05,469.6 C1527.81667,468.7 1528.325,467.383333 1528.575,465.65 C1528.825,463.916667 1528.95,461.466667 1528.95,458.3 C1528.95,455.133333 1528.825,452.675 1528.575,450.925 C1528.325,449.175 1527.81667,447.85 1527.05,446.95 C1526.01667,445.75 1524.7,445.15 1523.1,445.15 C1522.5,445.15 1521.96667,445.233333 1521.5,445.4 C1521.03333,445.566667 1520.6,445.783333 1520.2,446.05 C1519.96667,446.216667 1519.7,446.45 1519.4,446.75 C1519.1,447.05 1518.88333,447.333333 1518.75,447.6 L1518.75,447.6 L1518.75,445.55 L1516,445.55 L1516,481.15 L1518.8,481.15 Z M1522.4,468.9 C1521.13333,468.9 1520.21667,468.45 1519.65,467.55 C1519.08333,466.65 1518.8,465.616667 1518.8,464.45 L1518.8,464.45 L1518.8,452.1 C1518.8,450.933333 1519.08333,449.9 1519.65,449 C1520.21667,448.1 1521.13333,447.65 1522.4,447.65 C1522.93333,447.65 1523.40833,447.758333 1523.825,447.975 C1524.24167,448.191667 1524.58333,448.466667 1524.85,448.8 C1525.41667,449.433333 1525.775,450.458333 1525.925,451.875 C1526.075,453.291667 1526.15,455.433333 1526.15,458.3 C1526.15,459.733333 1526.14167,460.975 1526.125,462.025 C1526.10833,463.075 1526.05,463.975 1525.95,464.725 C1525.85,465.475 1525.71667,466.091667 1525.55,466.575 C1525.38333,467.058333 1525.15,467.466667 1524.85,467.8 C1524.58333,468.133333 1524.24167,468.4 1523.825,468.6 C1523.40833,468.8 1522.93333,468.9 1522.4,468.9 Z M1538.1,471 L1538.1,467.25 L1534.35,467.25 L1534.35,471 L1538.1,471 Z M1170.75,528 C1171.91667,528 1172.94167,527.816667 1173.825,527.45 C1174.70833,527.083333 1175.45,526.583333 1176.05,525.95 C1176.58333,525.383333 1177.01667,524.766667 1177.35,524.1 C1177.68333,523.433333 1177.93333,522.533333 1178.1,521.4 C1178.26667,520.266667 1178.38333,518.808333 1178.45,517.025 C1178.51667,515.241667 1178.55,512.966667 1178.55,510.2 C1178.55,507.433333 1178.51667,505.158333 1178.45,503.375 C1178.38333,501.591667 1178.26667,500.133333 1178.1,499 C1177.93333,497.866667 1177.68333,496.966667 1177.35,496.3 C1177.01667,495.633333 1176.58333,495.016667 1176.05,494.45 C1175.45,493.816667 1174.70833,493.316667 1173.825,492.95 C1172.94167,492.583333 1171.91667,492.4 1170.75,492.4 L1170.75,492.4 L1163.45,492.4 L1163.45,528 L1170.75,528 Z M1170.6,525.35 L1166.4,525.35 L1166.4,495.05 L1170.6,495.05 C1172.03333,495.05 1173.11667,495.466667 1173.85,496.3 C1174.25,496.7 1174.55833,497.175 1174.775,497.725 C1174.99167,498.275 1175.16667,499.05 1175.3,500.05 C1175.43333,501.05 1175.51667,502.358333 1175.55,503.975 C1175.58333,505.591667 1175.6,507.666667 1175.6,510.2 C1175.6,512.733333 1175.58333,514.808333 1175.55,516.425 C1175.51667,518.041667 1175.43333,519.35 1175.3,520.35 C1175.16667,521.35 1174.99167,522.125 1174.775,522.675 C1174.55833,523.225 1174.25,523.7 1173.85,524.1 C1173.11667,524.933333 1172.03333,525.35 1170.6,525.35 L1170.6,525.35 Z M1189.7,528.4 C1190.6,528.4 1191.43333,528.183333 1192.2,527.75 C1192.96667,527.316667 1193.58333,526.716667 1194.05,525.95 L1194.05,525.95 L1194.05,528 L1196.8,528 L1196.8,502.55 L1194,502.55 L1194,521.7 C1194,523.1 1193.65,524.15 1192.95,524.85 C1192.25,525.55 1191.41667,525.9 1190.45,525.9 C1189.48333,525.9 1188.65833,525.55 1187.975,524.85 C1187.29167,524.15 1186.95,523.1 1186.95,521.7 L1186.95,521.7 L1186.95,502.55 L1184.15,502.55 L1184.15,521.65 C1184.15,522.55 1184.25,523.4 1184.45,524.2 C1184.65,525 1184.975,525.716667 1185.425,526.35 C1185.875,526.983333 1186.45,527.483333 1187.15,527.85 C1187.85,528.216667 1188.7,528.4 1189.7,528.4 Z M1200.35,538.15 C1202.28333,538.15 1203.88333,537.775 1205.15,537.025 C1206.41667,536.275 1207.28333,534.916667 1207.75,532.95 L1207.75,532.95 L1214.95,502.55 L1211.9,502.55 L1207.55,523.35 L1203.15,502.55 L1200.1,502.55 L1206.15,527.9 L1204.8,532.75 C1204.53333,533.616667 1204.075,534.325 1203.425,534.875 C1202.775,535.425 1201.75,535.7 1200.35,535.7 L1200.35,535.7 L1200.35,538.15 Z M1220.95,498.7 L1223.95,494.1 L1226.95,498.7 L1229.5,498.7 L1225.2,492.2 L1222.7,492.2 L1218.35,498.7 L1220.95,498.7 Z M1224,528.4 C1225.93333,528.4 1227.46667,527.816667 1228.6,526.65 C1229.26667,525.983333 1229.74167,525.233333 1230.025,524.4 C1230.30833,523.566667 1230.45,522.533333 1230.45,521.3 L1230.45,521.3 L1227.7,521.3 C1227.7,522.933333 1227.33333,524.133333 1226.6,524.9 C1226.26667,525.266667 1225.875,525.525 1225.425,525.675 C1224.975,525.825 1224.5,525.9 1224,525.9 C1223.43333,525.9 1222.93333,525.791667 1222.5,525.575 C1222.06667,525.358333 1221.71667,525.083333 1221.45,524.75 C1220.88333,524.083333 1220.525,523.058333 1220.375,521.675 C1220.225,520.291667 1220.15,518.3 1220.15,515.7 L1220.15,515.7 L1230.55,515.7 C1230.55,512.466667 1230.41667,509.941667 1230.15,508.125 C1229.88333,506.308333 1229.33333,504.933333 1228.5,504 C1227.36667,502.766667 1225.85,502.15 1223.95,502.15 C1222.05,502.15 1220.53333,502.766667 1219.4,504 C1218.53333,504.933333 1217.975,506.283333 1217.725,508.05 C1217.475,509.816667 1217.35,512.233333 1217.35,515.3 C1217.35,518.333333 1217.48333,520.741667 1217.75,522.525 C1218.01667,524.308333 1218.56667,525.65 1219.4,526.55 C1220.56667,527.783333 1222.1,528.4 1224,528.4 Z M1227.75,513.45 L1220.15,513.45 C1220.18333,511.25 1220.275,509.566667 1220.425,508.4 C1220.575,507.233333 1220.9,506.366667 1221.4,505.8 C1221.66667,505.466667 1222.01667,505.191667 1222.45,504.975 C1222.88333,504.758333 1223.38333,504.65 1223.95,504.65 C1224.51667,504.65 1225.00833,504.758333 1225.425,504.975 C1225.84167,505.191667 1226.18333,505.466667 1226.45,505.8 C1226.95,506.366667 1227.28333,507.233333 1227.45,508.4 C1227.61667,509.566667 1227.71667,511.25 1227.75,513.45 L1227.75,513.45 Z M1238.7,528 L1238.7,508.85 C1238.7,507.45 1239.05,506.4 1239.75,505.7 C1240.45,505 1241.28333,504.65 1242.25,504.65 C1243.21667,504.65 1244.04167,505 1244.725,505.7 C1245.40833,506.4 1245.75,507.45 1245.75,508.85 L1245.75,508.85 L1245.75,528 L1248.55,528 L1248.55,508.9 C1248.55,508 1248.45,507.15 1248.25,506.35 C1248.05,505.55 1247.725,504.833333 1247.275,504.2 C1246.825,503.566667 1246.25,503.066667 1245.55,502.7 C1244.85,502.333333 1244,502.15 1243,502.15 C1242.1,502.15 1241.26667,502.366667 1240.5,502.8 C1239.73333,503.233333 1239.11667,503.833333 1238.65,504.6 L1238.65,504.6 L1238.65,502.55 L1235.9,502.55 L1235.9,528 L1238.7,528 Z M1267.05,528 L1267.05,520.05 L1270.4,514.75 L1275.9,528 L1279,528 L1272.15,512.3 L1278.15,502.55 L1275.1,502.55 L1267.05,515.9 L1267.05,492.4 L1264.25,492.4 L1264.25,528 L1267.05,528 Z M1285.75,528 L1285.75,508.85 C1285.75,507.45 1286.1,506.4 1286.8,505.7 C1287.5,505 1288.33333,504.65 1289.3,504.65 C1290.26667,504.65 1291.09167,505 1291.775,505.7 C1292.45833,506.4 1292.8,507.45 1292.8,508.85 L1292.8,508.85 L1292.8,528 L1295.6,528 L1295.6,508.9 C1295.6,508 1295.5,507.15 1295.3,506.35 C1295.1,505.55 1294.775,504.833333 1294.325,504.2 C1293.875,503.566667 1293.3,503.066667 1292.6,502.7 C1291.9,502.333333 1291.05,502.15 1290.05,502.15 C1289.65,502.15 1289.23333,502.208333 1288.8,502.325 C1288.36667,502.441667 1287.95,502.6 1287.55,502.8 C1287.15,503 1286.79167,503.25 1286.475,503.55 C1286.15833,503.85 1285.91667,504.183333 1285.75,504.55 L1285.75,504.55 L1285.75,492.4 L1282.95,492.4 L1282.95,528 L1285.75,528 Z M1304.35,498.7 L1307.35,494.1 L1310.35,498.7 L1312.9,498.7 L1308.6,492.2 L1306.1,492.2 L1301.75,498.7 L1304.35,498.7 Z M1307.35,528.4 C1309.38333,528.4 1310.95,527.733333 1312.05,526.4 C1312.81667,525.466667 1313.325,524.133333 1313.575,522.4 C1313.825,520.666667 1313.95,518.3 1313.95,515.3 C1313.95,512.3 1313.825,509.933333 1313.575,508.2 C1313.325,506.466667 1312.81667,505.133333 1312.05,504.2 C1310.95,502.833333 1309.38333,502.15 1307.35,502.15 C1305.31667,502.15 1303.75,502.833333 1302.65,504.2 C1301.88333,505.133333 1301.375,506.466667 1301.125,508.2 C1300.875,509.933333 1300.75,512.3 1300.75,515.3 C1300.75,518.3 1300.875,520.666667 1301.125,522.4 C1301.375,524.133333 1301.88333,525.466667 1302.65,526.4 C1303.75,527.733333 1305.31667,528.4 1307.35,528.4 Z M1307.35,525.9 C1306.78333,525.9 1306.28333,525.791667 1305.85,525.575 C1305.41667,525.358333 1305.06667,525.083333 1304.8,524.75 C1304.23333,524.05 1303.88333,522.983333 1303.75,521.55 C1303.61667,520.116667 1303.55,518.033333 1303.55,515.3 L1303.55069,514.824308 C1303.55807,512.322809 1303.62451,510.389706 1303.75,509.025 C1303.88333,507.575 1304.23333,506.5 1304.8,505.8 C1305.06667,505.466667 1305.41667,505.191667 1305.85,504.975 C1306.28333,504.758333 1306.78333,504.65 1307.35,504.65 C1307.91667,504.65 1308.40833,504.758333 1308.825,504.975 C1309.24167,505.191667 1309.58333,505.466667 1309.85,505.8 C1310.41667,506.5 1310.775,507.575 1310.925,509.025 C1311.075,510.475 1311.15,512.566667 1311.15,515.3 C1311.15,518.033333 1311.075,520.116667 1310.925,521.55 C1310.775,522.983333 1310.41667,524.05 1309.85,524.75 C1309.58333,525.083333 1309.24167,525.358333 1308.825,525.575 C1308.40833,525.791667 1307.91667,525.9 1307.35,525.9 Z M1322.1,528 L1322.1,508.85 C1322.1,507.45 1322.45,506.4 1323.15,505.7 C1323.85,505 1324.68333,504.65 1325.65,504.65 C1326.61667,504.65 1327.44167,505 1328.125,505.7 C1328.80833,506.4 1329.15,507.45 1329.15,508.85 L1329.15,508.85 L1329.15,528 L1331.95,528 L1331.95,508.9 C1331.95,508 1331.85,507.15 1331.65,506.35 C1331.45,505.55 1331.125,504.833333 1330.675,504.2 C1330.225,503.566667 1329.65,503.066667 1328.95,502.7 C1328.25,502.333333 1327.4,502.15 1326.4,502.15 C1325.5,502.15 1324.66667,502.366667 1323.9,502.8 C1323.13333,503.233333 1322.51667,503.833333 1322.05,504.6 L1322.05,504.6 L1322.05,502.55 L1319.3,502.55 L1319.3,528 L1322.1,528 Z M1343.55,538.55 C1344.48333,538.55 1345.34167,538.383333 1346.125,538.05 C1346.90833,537.716667 1347.56667,537.266667 1348.1,536.7 C1348.46667,536.3 1348.76667,535.883333 1349,535.45 C1349.23333,535.016667 1349.425,534.5 1349.575,533.9 C1349.725,533.3 1349.83333,532.608333 1349.9,531.825 C1349.96667,531.041667 1350,530.116667 1350,529.05 L1350,529.05 L1350,502.55 L1347.25,502.55 L1347.25,504.5 C1346.78333,503.7 1346.18333,503.108333 1345.45,502.725 C1344.71667,502.341667 1343.9,502.15 1343,502.15 C1341.43333,502.15 1340.11667,502.75 1339.05,503.95 C1338.65,504.383333 1338.325,504.908333 1338.075,505.525 C1337.825,506.141667 1337.625,506.883333 1337.475,507.75 C1337.325,508.616667 1337.225,509.65 1337.175,510.85 C1337.125,512.05 1337.1,513.466667 1337.1,515.1 L1337.10093,515.636728 C1337.10586,517.047428 1337.13056,518.293519 1337.175,519.375 C1337.225,520.591667 1337.325,521.641667 1337.475,522.525 C1337.625,523.408333 1337.825,524.15 1338.075,524.75 C1338.325,525.35 1338.65,525.866667 1339.05,526.3 C1340.11667,527.466667 1341.43333,528.05 1343,528.05 C1344.16667,528.05 1345.11667,527.766667 1345.85,527.2 C1346.11667,527.033333 1346.36667,526.816667 1346.6,526.55 C1346.83333,526.283333 1347.03333,526.016667 1347.2,525.75 L1347.2,525.75 L1347.2,529.1 C1347.2,530.7 1347.11667,531.958333 1346.95,532.875 C1346.78333,533.791667 1346.46667,534.5 1346,535 C1345.73333,535.333333 1345.4,535.6 1345,535.8 C1344.6,536 1344.11667,536.1 1343.55,536.1 C1342.85,536.1 1342.26667,535.975 1341.8,535.725 C1341.33333,535.475 1340.95833,535.141667 1340.675,534.725 C1340.39167,534.308333 1340.2,533.816667 1340.1,533.25 C1340,532.683333 1339.95,532.1 1339.95,531.5 L1339.95,531.5 L1337.2,531.5 C1337.2,533.6 1337.7,535.3 1338.7,536.6 C1339.7,537.9 1341.31667,538.55 1343.55,538.55 Z M1343.6,525.6 C1343.1,525.6 1342.64167,525.491667 1342.225,525.275 C1341.80833,525.058333 1341.46667,524.8 1341.2,524.5 C1340.9,524.166667 1340.66667,523.758333 1340.5,523.275 C1340.33333,522.791667 1340.20833,522.183333 1340.125,521.45 C1340.04167,520.716667 1339.98333,519.833333 1339.95,518.8 C1339.91667,517.766667 1339.9,516.55 1339.9,515.15 L1339.90031,514.67963 C1339.90195,513.445062 1339.91019,512.368519 1339.925,511.45 C1339.94167,510.416667 1340,509.541667 1340.1,508.825 C1340.2,508.108333 1340.33333,507.508333 1340.5,507.025 C1340.66667,506.541667 1340.9,506.133333 1341.2,505.8 C1341.46667,505.466667 1341.80833,505.191667 1342.225,504.975 C1342.64167,504.758333 1343.1,504.65 1343.6,504.65 C1344.9,504.65 1345.825,505.1 1346.375,506 C1346.925,506.9 1347.2,507.933333 1347.2,509.1 L1347.2,509.1 L1347.2,521.15 C1347.2,522.316667 1346.925,523.35 1346.375,524.25 C1345.825,525.15 1344.9,525.6 1343.6,525.6 Z M1368.7,528 L1368.7,508.85 C1368.7,507.45 1369.05,506.4 1369.75,505.7 C1370.45,505 1371.28333,504.65 1372.25,504.65 C1373.21667,504.65 1374.04167,505 1374.725,505.7 C1375.40833,506.4 1375.75,507.45 1375.75,508.85 L1375.75,508.85 L1375.75,528 L1378.55,528 L1378.55,508.85 C1378.55,507.45 1378.9,506.4 1379.6,505.7 C1380.3,505 1381.13333,504.65 1382.1,504.65 C1383.06667,504.65 1383.89167,505 1384.575,505.7 C1385.25833,506.4 1385.6,507.45 1385.6,508.85 L1385.6,508.85 L1385.6,528 L1388.4,528 L1388.4,508.9 C1388.4,506.966667 1387.95,505.358333 1387.05,504.075 C1386.15,502.791667 1384.65,502.15 1382.55,502.15 C1381.48333,502.15 1380.55833,502.383333 1379.775,502.85 C1378.99167,503.316667 1378.31667,503.983333 1377.75,504.85 C1377.25,504.083333 1376.575,503.441667 1375.725,502.925 C1374.875,502.408333 1373.96667,502.15 1373,502.15 C1372.1,502.15 1371.26667,502.366667 1370.5,502.8 C1369.73333,503.233333 1369.11667,503.833333 1368.65,504.6 L1368.65,504.6 L1368.65,502.55 L1365.9,502.55 L1365.9,528 L1368.7,528 Z M1408.55,495.15 L1404.65,488.65 L1401.75,488.65 L1406.1,495.15 L1408.55,495.15 Z M1397.15,498.7 L1400.15,494.1 L1403.15,498.7 L1405.7,498.7 L1401.4,492.2 L1398.9,492.2 L1394.55,498.7 L1397.15,498.7 Z M1400.15,528.4 C1402.18333,528.4 1403.75,527.733333 1404.85,526.4 C1405.61667,525.466667 1406.125,524.133333 1406.375,522.4 C1406.625,520.666667 1406.75,518.3 1406.75,515.3 C1406.75,512.3 1406.625,509.933333 1406.375,508.2 C1406.125,506.466667 1405.61667,505.133333 1404.85,504.2 C1403.75,502.833333 1402.18333,502.15 1400.15,502.15 C1398.11667,502.15 1396.55,502.833333 1395.45,504.2 C1394.68333,505.133333 1394.175,506.466667 1393.925,508.2 C1393.675,509.933333 1393.55,512.3 1393.55,515.3 C1393.55,518.3 1393.675,520.666667 1393.925,522.4 C1394.175,524.133333 1394.68333,525.466667 1395.45,526.4 C1396.55,527.733333 1398.11667,528.4 1400.15,528.4 Z M1400.15,525.9 C1399.58333,525.9 1399.08333,525.791667 1398.65,525.575 C1398.21667,525.358333 1397.86667,525.083333 1397.6,524.75 C1397.03333,524.05 1396.68333,522.983333 1396.55,521.55 C1396.41667,520.116667 1396.35,518.033333 1396.35,515.3 L1396.35069,514.824308 C1396.35807,512.322809 1396.42451,510.389706 1396.55,509.025 C1396.68333,507.575 1397.03333,506.5 1397.6,505.8 C1397.86667,505.466667 1398.21667,505.191667 1398.65,504.975 C1399.08333,504.758333 1399.58333,504.65 1400.15,504.65 C1400.71667,504.65 1401.20833,504.758333 1401.625,504.975 C1402.04167,505.191667 1402.38333,505.466667 1402.65,505.8 C1403.21667,506.5 1403.575,507.575 1403.725,509.025 C1403.875,510.475 1403.95,512.566667 1403.95,515.3 C1403.95,518.033333 1403.875,520.116667 1403.725,521.55 C1403.575,522.983333 1403.21667,524.05 1402.65,524.75 C1402.38333,525.083333 1402.04167,525.358333 1401.625,525.575 C1401.20833,525.791667 1400.71667,525.9 1400.15,525.9 Z M1415.3,496.7 L1415.3,493.1 L1411.7,493.1 L1411.7,496.7 L1415.3,496.7 Z M1414.9,528 L1414.9,502.55 L1412.1,502.55 L1412.1,528 L1414.9,528 Z M1433.6,528 L1433.6,508.85 C1433.6,507.45 1433.95,506.4 1434.65,505.7 C1435.35,505 1436.18333,504.65 1437.15,504.65 C1438.11667,504.65 1438.94167,505 1439.625,505.7 C1440.30833,506.4 1440.65,507.45 1440.65,508.85 L1440.65,508.85 L1440.65,528 L1443.45,528 L1443.45,508.85 C1443.45,507.45 1443.8,506.4 1444.5,505.7 C1445.2,505 1446.03333,504.65 1447,504.65 C1447.96667,504.65 1448.79167,505 1449.475,505.7 C1450.15833,506.4 1450.5,507.45 1450.5,508.85 L1450.5,508.85 L1450.5,528 L1453.3,528 L1453.3,508.9 C1453.3,506.966667 1452.85,505.358333 1451.95,504.075 C1451.05,502.791667 1449.55,502.15 1447.45,502.15 C1446.38333,502.15 1445.45833,502.383333 1444.675,502.85 C1443.89167,503.316667 1443.21667,503.983333 1442.65,504.85 C1442.15,504.083333 1441.475,503.441667 1440.625,502.925 C1439.775,502.408333 1438.86667,502.15 1437.9,502.15 C1437,502.15 1436.16667,502.366667 1435.4,502.8 C1434.63333,503.233333 1434.01667,503.833333 1433.55,504.6 L1433.55,504.6 L1433.55,502.55 L1430.8,502.55 L1430.8,528 L1433.6,528 Z M1466.25,498.7 L1462.95,492.2 L1460.05,492.2 L1463.8,498.7 L1466.25,498.7 Z M1463.75,528.4 C1464.68333,528.4 1465.55833,528.166667 1466.375,527.7 C1467.19167,527.233333 1467.8,526.566667 1468.2,525.7 L1468.2,525.7 L1468.2,528 L1470.9,528 L1470.9,509.05 C1470.9,506.916667 1470.4,505.233333 1469.4,504 C1468.4,502.766667 1466.8,502.15 1464.6,502.15 C1463.56667,502.15 1462.65833,502.325 1461.875,502.675 C1461.09167,503.025 1460.44167,503.516667 1459.925,504.15 C1459.40833,504.783333 1459.01667,505.516667 1458.75,506.35 C1458.48333,507.183333 1458.35,508.1 1458.35,509.1 L1458.35,509.1 L1461.15,509.1 C1461.15,508.533333 1461.20833,507.983333 1461.325,507.45 C1461.44167,506.916667 1461.64167,506.441667 1461.925,506.025 C1462.20833,505.608333 1462.56667,505.266667 1463,505 C1463.43333,504.733333 1463.96667,504.6 1464.6,504.6 C1465.76667,504.6 1466.64167,504.975 1467.225,505.725 C1467.80833,506.475 1468.1,507.55 1468.1,508.95 L1468.1,508.95 L1468.1,513.5 L1465.2,513.5 C1462.86667,513.5 1461.09167,514.166667 1459.875,515.5 C1458.65833,516.833333 1458.05,518.65 1458.05,520.95 C1458.05,521.883333 1458.14167,522.8 1458.325,523.7 C1458.50833,524.6 1458.825,525.4 1459.275,526.1 C1459.725,526.8 1460.30833,527.358333 1461.025,527.775 C1461.74167,528.191667 1462.65,528.4 1463.75,528.4 Z M1464.4,525.9 C1463.16667,525.9 1462.26667,525.45 1461.7,524.55 C1461.13333,523.65 1460.85,522.433333 1460.85,520.9 C1460.85,519.4 1461.19167,518.158333 1461.875,517.175 C1462.55833,516.191667 1463.7,515.7 1465.3,515.7 L1465.3,515.7 L1468.1,515.7 L1468.1,521.3 C1468.1,522.633333 1467.76667,523.733333 1467.1,524.6 C1466.43333,525.466667 1465.53333,525.9 1464.4,525.9 Z M1493.65,528.4 C1495.28333,528.4 1496.61667,527.8 1497.65,526.6 C1498.45,525.733333 1498.96667,524.433333 1499.2,522.7 C1499.43333,520.966667 1499.55,518.5 1499.55,515.3 C1499.55,513.7 1499.525,512.291667 1499.475,511.075 C1499.425,509.858333 1499.33333,508.8 1499.2,507.9 C1499.06667,507 1498.875,506.233333 1498.625,505.6 C1498.375,504.966667 1498.05,504.416667 1497.65,503.95 C1496.61667,502.75 1495.28333,502.15 1493.65,502.15 C1492.51667,502.15 1491.56667,502.433333 1490.8,503 C1490.53333,503.166667 1490.275,503.391667 1490.025,503.675 C1489.775,503.958333 1489.56667,504.233333 1489.4,504.5 L1489.4,504.5 L1489.4,492.4 L1486.6,492.4 L1486.6,528 L1489.35,528 L1489.35,526 C1489.51667,526.266667 1489.73333,526.55 1490,526.85 C1490.26667,527.15 1490.53333,527.383333 1490.8,527.55 C1491.56667,528.116667 1492.51667,528.4 1493.65,528.4 Z M1493,525.9 C1491.73333,525.9 1490.81667,525.45 1490.25,524.55 C1489.68333,523.65 1489.4,522.616667 1489.4,521.45 L1489.4,521.45 L1489.4,509.1 C1489.4,507.933333 1489.68333,506.9 1490.25,506 C1490.81667,505.1 1491.73333,504.65 1493,504.65 C1493.53333,504.65 1494.00833,504.758333 1494.425,504.975 C1494.84167,505.191667 1495.18333,505.466667 1495.45,505.8 C1495.75,506.133333 1495.98333,506.55 1496.15,507.05 C1496.31667,507.55 1496.44167,508.175 1496.525,508.925 C1496.60833,509.675 1496.66667,510.575 1496.7,511.625 C1496.73333,512.675 1496.75,513.9 1496.75,515.3 C1496.75,516.7 1496.73333,517.925 1496.7,518.975 C1496.66667,520.025 1496.60833,520.925 1496.525,521.675 C1496.44167,522.425 1496.31667,523.05 1496.15,523.55 C1495.98333,524.05 1495.75,524.466667 1495.45,524.8 C1495.18333,525.133333 1494.84167,525.4 1494.425,525.6 C1494.00833,525.8 1493.53333,525.9 1493,525.9 Z M1511.7,498.7 L1515.4,492.2 L1512.5,492.2 L1509.25,498.7 L1511.7,498.7 Z M1510.7,528.4 C1512.63333,528.4 1514.16667,527.816667 1515.3,526.65 C1515.96667,525.983333 1516.44167,525.233333 1516.725,524.4 C1517.00833,523.566667 1517.15,522.533333 1517.15,521.3 L1517.15,521.3 L1514.4,521.3 C1514.4,522.933333 1514.03333,524.133333 1513.3,524.9 C1512.96667,525.266667 1512.575,525.525 1512.125,525.675 C1511.675,525.825 1511.2,525.9 1510.7,525.9 C1510.13333,525.9 1509.63333,525.791667 1509.2,525.575 C1508.76667,525.358333 1508.41667,525.083333 1508.15,524.75 C1507.58333,524.083333 1507.225,523.058333 1507.075,521.675 C1506.925,520.291667 1506.85,518.3 1506.85,515.7 L1506.85,515.7 L1517.25,515.7 C1517.25,512.466667 1517.11667,509.941667 1516.85,508.125 C1516.58333,506.308333 1516.03333,504.933333 1515.2,504 C1514.06667,502.766667 1512.55,502.15 1510.65,502.15 C1508.75,502.15 1507.23333,502.766667 1506.1,504 C1505.23333,504.933333 1504.675,506.283333 1504.425,508.05 C1504.175,509.816667 1504.05,512.233333 1504.05,515.3 C1504.05,518.333333 1504.18333,520.741667 1504.45,522.525 C1504.71667,524.308333 1505.26667,525.65 1506.1,526.55 C1507.26667,527.783333 1508.8,528.4 1510.7,528.4 Z M1514.45,513.45 L1506.85,513.45 C1506.88333,511.25 1506.975,509.566667 1507.125,508.4 C1507.275,507.233333 1507.6,506.366667 1508.1,505.8 C1508.36667,505.466667 1508.71667,505.191667 1509.15,504.975 C1509.58333,504.758333 1510.08333,504.65 1510.65,504.65 C1511.21667,504.65 1511.70833,504.758333 1512.125,504.975 C1512.54167,505.191667 1512.88333,505.466667 1513.15,505.8 C1513.65,506.366667 1513.98333,507.233333 1514.15,508.4 C1514.31667,509.566667 1514.41667,511.25 1514.45,513.45 L1514.45,513.45 Z M1525.4,528 L1525.4,508.85 C1525.4,507.45 1525.75,506.4 1526.45,505.7 C1527.15,505 1527.98333,504.65 1528.95,504.65 C1529.91667,504.65 1530.74167,505 1531.425,505.7 C1532.10833,506.4 1532.45,507.45 1532.45,508.85 L1532.45,508.85 L1532.45,528 L1535.25,528 L1535.25,508.9 C1535.25,508 1535.15,507.15 1534.95,506.35 C1534.75,505.55 1534.425,504.833333 1533.975,504.2 C1533.525,503.566667 1532.95,503.066667 1532.25,502.7 C1531.55,502.333333 1530.7,502.15 1529.7,502.15 C1528.8,502.15 1527.96667,502.366667 1527.2,502.8 C1526.43333,503.233333 1525.81667,503.833333 1525.35,504.6 L1525.35,504.6 L1525.35,502.55 L1522.6,502.55 L1522.6,528 L1525.4,528 Z" id="path-1"></path>
        <filter x="-1.9%" y="-4.5%" width="103.7%" height="112.6%" filterUnits="objectBoundingBox" id="filter-2">
            <feOffset dx="0" dy="2" in="SourceAlpha" result="shadowOffsetOuter1"></feOffset>
            <feGaussianBlur stdDeviation="2" in="shadowOffsetOuter1" result="shadowBlurOuter1"></feGaussianBlur>
            <feColorMatrix values="0 0 0 0 0   0 0 0 0 0   0 0 0 0 0  0 0 0 0.25 0" type="matrix" in="shadowBlurOuter1"></feColorMatrix>
        </filter>
        <path d="M1179.44,308.64 C1181.84,308.64 1183.90667,308.306667 1185.64,307.64 C1187.37333,306.973333 1188.96,305.946667 1190.4,304.56 C1191.89333,303.173333 1193.09333,301.373333 1194,299.16 C1194.90667,296.946667 1195.41333,294.48 1195.52,291.76 L1195.52,291.76 L1184.16,291.76 C1184.10667,292.56 1184.02667,293.346667 1183.92,294.12 C1183.81333,294.893333 1183.6,295.573333 1183.28,296.16 C1182.96,296.853333 1182.50667,297.4 1181.92,297.8 C1181.33333,298.2 1180.50667,298.4 1179.44,298.4 C1178.37333,298.4 1177.54667,298.186667 1176.96,297.76 C1176.37333,297.333333 1175.92,296.8 1175.6,296.16 C1175.28,295.52 1175.01333,294.613333 1174.8,293.44 C1174.58667,292.266667 1174.42667,290.933333 1174.32,289.44 C1174.21333,287.946667 1174.14667,286.346667 1174.12,284.64 C1174.09333,282.933333 1174.08,281.226667 1174.08,279.52 C1174.08,277.813333 1174.09333,276.106667 1174.12,274.4 C1174.14667,272.693333 1174.21333,271.093333 1174.32,269.6 C1174.42667,268.106667 1174.58667,266.773333 1174.8,265.6 C1175.01333,264.426667 1175.28,263.52 1175.6,262.88 C1175.92,262.24 1176.37333,261.706667 1176.96,261.28 C1177.54667,260.853333 1178.37333,260.64 1179.44,260.64 C1180.50667,260.64 1181.33333,260.826667 1181.92,261.2 C1182.50667,261.573333 1182.96,262.106667 1183.28,262.8 C1183.6,263.386667 1183.81333,264.066667 1183.92,264.84 C1184.02667,265.613333 1184.10667,266.4 1184.16,267.2 L1184.16,267.2 L1195.52,267.2 C1195.41333,264.48 1194.90667,262.026667 1194,259.84 C1193.09333,257.653333 1191.89333,255.866667 1190.4,254.48 C1188.96,253.093333 1187.37333,252.066667 1185.64,251.4 C1183.90667,250.733333 1181.84,250.4 1179.44,250.4 C1176.34667,250.4 1173.81333,250.96 1171.84,252.08 C1169.86667,253.2 1168.24,254.56 1166.96,256.16 C1165.94667,257.386667 1165.16,258.773333 1164.6,260.32 C1164.04,261.866667 1163.61333,263.613333 1163.32,265.56 C1163.02667,267.506667 1162.85333,269.64 1162.8,271.96 C1162.74667,274.28 1162.72,276.8 1162.72,279.52 L1162.72099,280.419259 C1162.72626,282.797531 1162.75259,285.017778 1162.8,287.08 C1162.85333,289.4 1163.02667,291.533333 1163.32,293.48 C1163.61333,295.426667 1164.04,297.173333 1164.6,298.72 C1165.16,300.266667 1165.94667,301.653333 1166.96,302.88 C1168.24,304.48 1169.86667,305.84 1171.84,306.96 C1173.81333,308.08 1176.34667,308.64 1179.44,308.64 Z M1212.32,308 L1212.32,277.84 C1212.32,276.506667 1212.64,275.52 1213.28,274.88 C1213.92,274.24 1214.72,273.92 1215.68,273.92 C1216.64,273.92 1217.44,274.24 1218.08,274.88 C1218.72,275.52 1219.04,276.506667 1219.04,277.84 L1219.04,277.84 L1219.04,308 L1229.76,308 L1229.76,277.68 C1229.76,275.813333 1229.6,274.066667 1229.28,272.44 C1228.96,270.813333 1228.4,269.4 1227.6,268.2 C1226.8,267 1225.70667,266.053333 1224.32,265.36 C1222.93333,264.666667 1221.17333,264.32 1219.04,264.32 C1217.54667,264.32 1216.30667,264.6 1215.32,265.16 C1214.33333,265.72 1213.33333,266.506667 1212.32,267.52 L1212.32,267.52 L1212.32,251.04 L1201.6,251.04 L1201.6,308 L1212.32,308 Z M1246.24,308.64 C1247.30667,308.64 1248.2,308.52 1248.92,308.28 C1249.64,308.04 1250.32,307.706667 1250.96,307.28 C1251.54667,306.906667 1252.05333,306.48 1252.48,306 C1252.90667,305.52 1253.33333,305.013333 1253.76,304.48 L1253.76,304.48 L1253.76,308 L1263.76,308 L1263.76,278.56 C1263.76,274.186667 1262.52,270.72 1260.04,268.16 C1257.56,265.6 1254.13333,264.32 1249.76,264.32 C1247.84,264.32 1246.02667,264.653333 1244.32,265.32 C1242.61333,265.986667 1241.13333,266.92 1239.88,268.12 C1238.62667,269.32 1237.64,270.733333 1236.92,272.36 C1236.2,273.986667 1235.84,275.786667 1235.84,277.76 L1235.84,277.76 L1246.56,277.76 C1246.56,276.746667 1246.82667,275.826667 1247.36,275 C1247.89333,274.173333 1248.72,273.76 1249.84,273.76 C1251.97333,273.76 1253.04,275.013333 1253.04,277.52 L1253.04,277.52 L1253.04,282.48 L1249.76,282.48 C1247.68,282.48 1245.74667,282.706667 1243.96,283.16 C1242.17333,283.613333 1240.62667,284.346667 1239.32,285.36 C1238.01333,286.373333 1236.97333,287.68 1236.2,289.28 C1235.42667,290.88 1235.04,292.826667 1235.04,295.12 C1235.04,296.986667 1235.22667,298.733333 1235.6,300.36 C1235.97333,301.986667 1236.6,303.413333 1237.48,304.64 C1238.36,305.866667 1239.52,306.84 1240.96,307.56 C1242.4,308.28 1244.16,308.64 1246.24,308.64 Z M1249.44,299.28 C1248.32,299.28 1247.42667,298.893333 1246.76,298.12 C1246.09333,297.346667 1245.76,296.186667 1245.76,294.64 C1245.76,294.053333 1245.88,293.4 1246.12,292.68 C1246.36,291.96 1246.69333,291.386667 1247.12,290.96 C1247.70667,290.426667 1248.30667,290.12 1248.92,290.04 C1249.53333,289.96 1250.29333,289.92 1251.2,289.92 L1251.2,289.92 L1253.04,289.92 L1253.04,294.64 C1253.04,296.186667 1252.68,297.346667 1251.96,298.12 C1251.24,298.893333 1250.4,299.28 1249.44,299.28 Z M1281.68,308 L1281.68,277.84 C1281.68,276.506667 1282,275.52 1282.64,274.88 C1283.28,274.24 1284.08,273.92 1285.04,273.92 C1286,273.92 1286.8,274.24 1287.44,274.88 C1288.08,275.52 1288.4,276.506667 1288.4,277.84 L1288.4,277.84 L1288.4,308 L1299.12,308 L1299.12,277.68 C1299.12,275.813333 1298.96,274.066667 1298.64,272.44 C1298.32,270.813333 1297.76,269.4 1296.96,268.2 C1296.16,267 1295.06667,266.053333 1293.68,265.36 C1292.29333,264.666667 1290.53333,264.32 1288.4,264.32 C1286.85333,264.32 1285.50667,264.653333 1284.36,265.32 C1283.21333,265.986667 1282.16,266.906667 1281.2,268.08 L1281.2,268.08 L1281.2,264.96 L1270.96,264.96 L1270.96,308 L1281.68,308 Z M1322.08,308.64 C1324.48,308.64 1326.54667,308.306667 1328.28,307.64 C1330.01333,306.973333 1331.6,305.946667 1333.04,304.56 C1334.53333,303.173333 1335.73333,301.373333 1336.64,299.16 C1337.54667,296.946667 1338.05333,294.48 1338.16,291.76 L1338.16,291.76 L1326.8,291.76 C1326.74667,292.56 1326.66667,293.346667 1326.56,294.12 C1326.45333,294.893333 1326.24,295.573333 1325.92,296.16 C1325.6,296.853333 1325.14667,297.4 1324.56,297.8 C1323.97333,298.2 1323.14667,298.4 1322.08,298.4 C1321.01333,298.4 1320.18667,298.186667 1319.6,297.76 C1319.01333,297.333333 1318.56,296.8 1318.24,296.16 C1317.92,295.52 1317.65333,294.613333 1317.44,293.44 C1317.22667,292.266667 1317.06667,290.933333 1316.96,289.44 C1316.85333,287.946667 1316.78667,286.346667 1316.76,284.64 C1316.73333,282.933333 1316.72,281.226667 1316.72,279.52 C1316.72,277.813333 1316.73333,276.106667 1316.76,274.4 C1316.78667,272.693333 1316.85333,271.093333 1316.96,269.6 C1317.06667,268.106667 1317.22667,266.773333 1317.44,265.6 C1317.65333,264.426667 1317.92,263.52 1318.24,262.88 C1318.56,262.24 1319.01333,261.706667 1319.6,261.28 C1320.18667,260.853333 1321.01333,260.64 1322.08,260.64 C1323.14667,260.64 1323.97333,260.826667 1324.56,261.2 C1325.14667,261.573333 1325.6,262.106667 1325.92,262.8 C1326.24,263.386667 1326.45333,264.066667 1326.56,264.84 C1326.66667,265.613333 1326.74667,266.4 1326.8,267.2 L1326.8,267.2 L1338.16,267.2 C1338.05333,264.48 1337.54667,262.026667 1336.64,259.84 C1335.73333,257.653333 1334.53333,255.866667 1333.04,254.48 C1331.6,253.093333 1330.01333,252.066667 1328.28,251.4 C1326.54667,250.733333 1324.48,250.4 1322.08,250.4 C1318.98667,250.4 1316.45333,250.96 1314.48,252.08 C1312.50667,253.2 1310.88,254.56 1309.6,256.16 C1308.58667,257.386667 1307.8,258.773333 1307.24,260.32 C1306.68,261.866667 1306.25333,263.613333 1305.96,265.56 C1305.66667,267.506667 1305.49333,269.64 1305.44,271.96 C1305.38667,274.28 1305.36,276.8 1305.36,279.52 C1305.36,282.24 1305.38667,284.76 1305.44,287.08 C1305.49333,289.4 1305.66667,291.533333 1305.96,293.48 C1306.25333,295.426667 1306.68,297.173333 1307.24,298.72 C1307.8,300.266667 1308.58667,301.653333 1309.6,302.88 C1310.88,304.48 1312.50667,305.84 1314.48,306.96 C1316.45333,308.08 1318.98667,308.64 1322.08,308.64 Z M1354.96,308 L1354.96,277.84 C1354.96,276.506667 1355.28,275.52 1355.92,274.88 C1356.56,274.24 1357.36,273.92 1358.32,273.92 C1359.28,273.92 1360.08,274.24 1360.72,274.88 C1361.36,275.52 1361.68,276.506667 1361.68,277.84 L1361.68,277.84 L1361.68,308 L1372.4,308 L1372.4,277.68 C1372.4,275.813333 1372.24,274.066667 1371.92,272.44 C1371.6,270.813333 1371.04,269.4 1370.24,268.2 C1369.44,267 1368.34667,266.053333 1366.96,265.36 C1365.57333,264.666667 1363.81333,264.32 1361.68,264.32 C1360.18667,264.32 1358.94667,264.6 1357.96,265.16 C1356.97333,265.72 1355.97333,266.506667 1354.96,267.52 L1354.96,267.52 L1354.96,251.04 L1344.24,251.04 L1344.24,308 L1354.96,308 Z M1388.88,308.64 C1389.94667,308.64 1390.84,308.52 1391.56,308.28 C1392.28,308.04 1392.96,307.706667 1393.6,307.28 C1394.18667,306.906667 1394.69333,306.48 1395.12,306 C1395.54667,305.52 1395.97333,305.013333 1396.4,304.48 L1396.4,304.48 L1396.4,308 L1406.4,308 L1406.4,278.56 C1406.4,274.186667 1405.16,270.72 1402.68,268.16 C1400.2,265.6 1396.77333,264.32 1392.4,264.32 C1390.48,264.32 1388.66667,264.653333 1386.96,265.32 C1385.25333,265.986667 1383.77333,266.92 1382.52,268.12 C1381.26667,269.32 1380.28,270.733333 1379.56,272.36 C1378.84,273.986667 1378.48,275.786667 1378.48,277.76 L1378.48,277.76 L1389.2,277.76 C1389.2,276.746667 1389.46667,275.826667 1390,275 C1390.53333,274.173333 1391.36,273.76 1392.48,273.76 C1394.61333,273.76 1395.68,275.013333 1395.68,277.52 L1395.68,277.52 L1395.68,282.48 L1392.4,282.48 C1390.32,282.48 1388.38667,282.706667 1386.6,283.16 C1384.81333,283.613333 1383.26667,284.346667 1381.96,285.36 C1380.65333,286.373333 1379.61333,287.68 1378.84,289.28 C1378.06667,290.88 1377.68,292.826667 1377.68,295.12 C1377.68,296.986667 1377.86667,298.733333 1378.24,300.36 C1378.61333,301.986667 1379.24,303.413333 1380.12,304.64 C1381,305.866667 1382.16,306.84 1383.6,307.56 C1385.04,308.28 1386.8,308.64 1388.88,308.64 Z M1392.08,299.28 C1390.96,299.28 1390.06667,298.893333 1389.4,298.12 C1388.73333,297.346667 1388.4,296.186667 1388.4,294.64 C1388.4,294.053333 1388.52,293.4 1388.76,292.68 C1389,291.96 1389.33333,291.386667 1389.76,290.96 C1390.34667,290.426667 1390.94667,290.12 1391.56,290.04 C1392.17333,289.96 1392.93333,289.92 1393.84,289.92 L1393.84,289.92 L1395.68,289.92 L1395.68,294.64 C1395.68,296.186667 1395.32,297.346667 1394.6,298.12 C1393.88,298.893333 1393.04,299.28 1392.08,299.28 Z M1424.32,308 L1424.32,277.84 C1424.32,276.506667 1424.64,275.52 1425.28,274.88 C1425.92,274.24 1426.72,273.92 1427.68,273.92 C1428.64,273.92 1429.44,274.24 1430.08,274.88 C1430.72,275.52 1431.04,276.506667 1431.04,277.84 L1431.04,277.84 L1431.04,308 L1441.76,308 L1441.76,277.68 C1441.76,275.813333 1441.6,274.066667 1441.28,272.44 C1440.96,270.813333 1440.4,269.4 1439.6,268.2 C1438.8,267 1437.70667,266.053333 1436.32,265.36 C1434.93333,264.666667 1433.17333,264.32 1431.04,264.32 C1429.49333,264.32 1428.14667,264.653333 1427,265.32 C1425.85333,265.986667 1424.8,266.906667 1423.84,268.08 L1423.84,268.08 L1423.84,264.96 L1413.6,264.96 L1413.6,308 L1424.32,308 Z" id="path-3"></path>
        <filter x="-2.5%" y="-8.6%" width="105.0%" height="124.0%" filterUnits="objectBoundingBox" id="filter-4">
            <feOffset dx="0" dy="2" in="SourceAlpha" result="shadowOffsetOuter1"></feOffset>
            <feGaussianBlur stdDeviation="2" in="shadowOffsetOuter1" result="shadowBlurOuter1"></feGaussianBlur>
            <feColorMatrix values="0 0 0 0 0   0 0 0 0 0   0 0 0 0 0  0 0 0 0.25 0" type="matrix" in="shadowBlurOuter1"></feColorMatrix>
        </filter>
    </defs>
    <g id="1" stroke="none" stroke-width="1" fill="none" fill-rule="evenodd">
        <path d="M1162.01,694 L1163.18,688.15 L1168.19,688.15 L1169.36,694 L1171.25,694 L1166.51,672.64 L1164.86,672.64 L1160.12,694 L1162.01,694 Z M1167.86,686.56 L1163.51,686.56 L1165.67,675.82 L1167.86,686.56 Z M1176.35,694 L1179.95,678.73 L1178.12,678.73 L1175.51,691.18 L1172.87,678.73 L1171.04,678.73 L1174.64,694 L1176.35,694 Z M1184.45,694.24 C1185.01,694.24 1185.535,694.1 1186.025,693.82 C1186.515,693.54 1186.88,693.14 1187.12,692.62 L1187.12,692.62 L1187.12,694 L1188.74,694 L1188.74,682.63 C1188.74,681.35 1188.44,680.34 1187.84,679.6 C1187.24,678.86 1186.28,678.49 1184.96,678.49 C1184.34,678.49 1183.795,678.595 1183.325,678.805 C1182.855,679.015 1182.465,679.31 1182.155,679.69 C1181.845,680.07 1181.61,680.51 1181.45,681.01 C1181.29,681.51 1181.21,682.06 1181.21,682.66 L1181.21,682.66 L1182.89,682.66 C1182.89,682.32 1182.925,681.99 1182.995,681.67 C1183.065,681.35 1183.185,681.065 1183.355,680.815 C1183.525,680.565 1183.74,680.36 1184,680.2 C1184.26,680.04 1184.58,679.96 1184.96,679.96 C1185.66,679.96 1186.185,680.185 1186.535,680.635 C1186.885,681.085 1187.06,681.73 1187.06,682.57 L1187.06,682.57 L1187.06,685.3 L1185.32,685.3 C1183.92,685.3 1182.855,685.7 1182.125,686.5 C1181.395,687.3 1181.03,688.39 1181.03,689.77 C1181.03,690.33 1181.085,690.88 1181.195,691.42 C1181.305,691.96 1181.495,692.44 1181.765,692.86 C1182.035,693.28 1182.385,693.615 1182.815,693.865 C1183.245,694.115 1183.79,694.24 1184.45,694.24 Z M1184.84,692.74 C1184.1,692.74 1183.56,692.47 1183.22,691.93 C1182.88,691.39 1182.71,690.66 1182.71,689.74 C1182.71,688.84 1182.915,688.095 1183.325,687.505 C1183.735,686.915 1184.42,686.62 1185.38,686.62 L1185.38,686.62 L1187.06,686.62 L1187.06,689.98 C1187.06,690.78 1186.86,691.44 1186.46,691.96 C1186.06,692.48 1185.52,692.74 1184.84,692.74 Z M1194.26,675.22 L1194.26,673.06 L1192.1,673.06 L1192.1,675.22 L1194.26,675.22 Z M1194.02,694 L1194.02,678.73 L1192.34,678.73 L1192.34,694 L1194.02,694 Z M1201.76,694 L1201.76,692.5 C1200.1,692.5 1199.27,691.64 1199.27,689.92 L1199.27,689.92 L1199.27,672.64 L1197.59,672.64 L1197.59,689.92 C1197.59,690.68 1197.69,691.305 1197.89,691.795 C1198.09,692.285 1198.37,692.7 1198.73,693.04 C1199.15,693.44 1199.615,693.7 1200.125,693.82 C1200.635,693.94 1201.18,694 1201.76,694 L1201.76,694 Z M1206.77,694.24 C1207.33,694.24 1207.855,694.1 1208.345,693.82 C1208.835,693.54 1209.2,693.14 1209.44,692.62 L1209.44,692.62 L1209.44,694 L1211.06,694 L1211.06,682.63 C1211.06,681.35 1210.76,680.34 1210.16,679.6 C1209.56,678.86 1208.6,678.49 1207.28,678.49 C1206.66,678.49 1206.115,678.595 1205.645,678.805 C1205.175,679.015 1204.785,679.31 1204.475,679.69 C1204.165,680.07 1203.93,680.51 1203.77,681.01 C1203.61,681.51 1203.53,682.06 1203.53,682.66 L1203.53,682.66 L1205.21,682.66 C1205.21,682.32 1205.245,681.99 1205.315,681.67 C1205.385,681.35 1205.505,681.065 1205.675,680.815 C1205.845,680.565 1206.06,680.36 1206.32,680.2 C1206.58,680.04 1206.9,679.96 1207.28,679.96 C1207.98,679.96 1208.505,680.185 1208.855,680.635 C1209.205,681.085 1209.38,681.73 1209.38,682.57 L1209.38,682.57 L1209.38,685.3 L1207.64,685.3 C1206.24,685.3 1205.175,685.7 1204.445,686.5 C1203.715,687.3 1203.35,688.39 1203.35,689.77 C1203.35,690.33 1203.405,690.88 1203.515,691.42 C1203.625,691.96 1203.815,692.44 1204.085,692.86 C1204.355,693.28 1204.705,693.615 1205.135,693.865 C1205.565,694.115 1206.11,694.24 1206.77,694.24 Z M1207.16,692.74 C1206.42,692.74 1205.88,692.47 1205.54,691.93 C1205.2,691.39 1205.03,690.66 1205.03,689.74 C1205.03,688.84 1205.235,688.095 1205.645,687.505 C1206.055,686.915 1206.74,686.62 1207.7,686.62 L1207.7,686.62 L1209.38,686.62 L1209.38,689.98 C1209.38,690.78 1209.18,691.44 1208.78,691.96 C1208.38,692.48 1207.84,692.74 1207.16,692.74 Z M1218.89,694.24 C1219.87,694.24 1220.67,693.88 1221.29,693.16 C1221.77,692.64 1222.08,691.86 1222.22,690.82 C1222.36,689.78 1222.43,688.3 1222.43,686.38 C1222.43,685.42 1222.415,684.575 1222.385,683.845 C1222.355,683.115 1222.3,682.48 1222.22,681.94 C1222.14,681.4 1222.025,680.94 1221.875,680.56 C1221.725,680.18 1221.53,679.85 1221.29,679.57 C1220.67,678.85 1219.87,678.49 1218.89,678.49 C1218.21,678.49 1217.64,678.66 1217.18,679 C1217.02,679.1 1216.865,679.235 1216.715,679.405 C1216.565,679.575 1216.44,679.74 1216.34,679.9 L1216.34,679.9 L1216.34,672.64 L1214.66,672.64 L1214.66,694 L1216.31,694 L1216.31,692.8 C1216.41,692.96 1216.54,693.13 1216.7,693.31 C1216.86,693.49 1217.02,693.63 1217.18,693.73 C1217.64,694.07 1218.21,694.24 1218.89,694.24 Z M1218.5,692.74 C1217.74,692.74 1217.19,692.47 1216.85,691.93 C1216.51,691.39 1216.34,690.77 1216.34,690.07 L1216.34,690.07 L1216.34,682.66 C1216.34,681.96 1216.51,681.34 1216.85,680.8 C1217.19,680.26 1217.74,679.99 1218.5,679.99 C1218.82,679.99 1219.105,680.055 1219.355,680.185 C1219.605,680.315 1219.81,680.48 1219.97,680.68 C1220.15,680.88 1220.29,681.13 1220.39,681.43 C1220.49,681.73 1220.565,682.105 1220.615,682.555 C1220.665,683.005 1220.7,683.545 1220.72,684.175 C1220.74,684.805 1220.75,685.54 1220.75,686.38 C1220.75,687.22 1220.74,687.955 1220.72,688.585 C1220.7,689.215 1220.665,689.755 1220.615,690.205 C1220.565,690.655 1220.49,691.03 1220.39,691.33 C1220.29,691.63 1220.15,691.88 1219.97,692.08 C1219.81,692.28 1219.605,692.44 1219.355,692.56 C1219.105,692.68 1218.82,692.74 1218.5,692.74 Z M1229.66,694 L1229.66,692.5 C1228,692.5 1227.17,691.64 1227.17,689.92 L1227.17,689.92 L1227.17,672.64 L1225.49,672.64 L1225.49,689.92 C1225.49,690.68 1225.59,691.305 1225.79,691.795 C1225.99,692.285 1226.27,692.7 1226.63,693.04 C1227.05,693.44 1227.515,693.7 1228.025,693.82 C1228.535,693.94 1229.08,694 1229.66,694 L1229.66,694 Z M1235.18,694.24 C1236.34,694.24 1237.26,693.89 1237.94,693.19 C1238.34,692.79 1238.625,692.34 1238.795,691.84 C1238.965,691.34 1239.05,690.72 1239.05,689.98 L1239.05,689.98 L1237.4,689.98 C1237.4,690.96 1237.18,691.68 1236.74,692.14 C1236.54,692.36 1236.305,692.515 1236.035,692.605 C1235.765,692.695 1235.48,692.74 1235.18,692.74 C1234.84,692.74 1234.54,692.675 1234.28,692.545 C1234.02,692.415 1233.81,692.25 1233.65,692.05 C1233.31,691.65 1233.095,691.035 1233.005,690.205 C1232.915,689.375 1232.87,688.18 1232.87,686.62 L1232.87,686.62 L1239.11,686.62 C1239.11,684.68 1239.03,683.165 1238.87,682.075 C1238.71,680.985 1238.38,680.16 1237.88,679.6 C1237.2,678.86 1236.29,678.49 1235.15,678.49 C1234.01,678.49 1233.1,678.86 1232.42,679.6 C1231.9,680.16 1231.565,680.97 1231.415,682.03 C1231.265,683.09 1231.19,684.54 1231.19,686.38 C1231.19,688.2 1231.27,689.645 1231.43,690.715 C1231.59,691.785 1231.92,692.59 1232.42,693.13 C1233.12,693.87 1234.04,694.24 1235.18,694.24 Z M1237.43,685.27 L1232.87,685.27 C1232.89,683.95 1232.945,682.94 1233.035,682.24 C1233.125,681.54 1233.32,681.02 1233.62,680.68 C1233.78,680.48 1233.99,680.315 1234.25,680.185 C1234.51,680.055 1234.81,679.99 1235.15,679.99 C1235.49,679.99 1235.785,680.055 1236.035,680.185 C1236.285,680.315 1236.49,680.48 1236.65,680.68 C1236.95,681.02 1237.15,681.54 1237.25,682.24 C1237.35,682.94 1237.41,683.95 1237.43,685.27 L1237.43,685.27 Z M1251.59,694.24 C1252.81,694.24 1253.75,693.84 1254.41,693.04 C1254.87,692.48 1255.175,691.68 1255.325,690.64 C1255.475,689.6 1255.55,688.18 1255.55,686.38 C1255.55,684.58 1255.475,683.16 1255.325,682.12 C1255.175,681.08 1254.87,680.28 1254.41,679.72 C1253.75,678.9 1252.81,678.49 1251.59,678.49 C1250.37,678.49 1249.43,678.9 1248.77,679.72 C1248.31,680.28 1248.005,681.08 1247.855,682.12 C1247.705,683.16 1247.63,684.58 1247.63,686.38 C1247.63,688.18 1247.705,689.6 1247.855,690.64 C1248.005,691.68 1248.31,692.48 1248.77,693.04 C1249.43,693.84 1250.37,694.24 1251.59,694.24 Z M1251.59,692.74 C1251.25,692.74 1250.95,692.675 1250.69,692.545 C1250.43,692.415 1250.22,692.25 1250.06,692.05 C1249.72,691.63 1249.51,690.99 1249.43,690.13 C1249.35,689.27 1249.31,688.02 1249.31,686.38 L1249.31071,686.008373 C1249.31639,684.549201 1249.35615,683.418077 1249.43,682.615 C1249.51,681.745 1249.72,681.1 1250.06,680.68 C1250.22,680.48 1250.43,680.315 1250.69,680.185 C1250.95,680.055 1251.25,679.99 1251.59,679.99 C1251.93,679.99 1252.225,680.055 1252.475,680.185 C1252.725,680.315 1252.93,680.48 1253.09,680.68 C1253.43,681.1 1253.645,681.745 1253.735,682.615 C1253.825,683.485 1253.87,684.74 1253.87,686.38 C1253.87,688.02 1253.825,689.27 1253.735,690.13 C1253.645,690.99 1253.43,691.63 1253.09,692.05 C1252.93,692.25 1252.725,692.415 1252.475,692.545 C1252.225,692.675 1251.93,692.74 1251.59,692.74 Z M1260.44,694 L1260.44,682.51 C1260.44,681.67 1260.65,681.04 1261.07,680.62 C1261.49,680.2 1261.99,679.99 1262.57,679.99 C1263.15,679.99 1263.645,680.2 1264.055,680.62 C1264.465,681.04 1264.67,681.67 1264.67,682.51 L1264.67,682.51 L1264.67,694 L1266.35,694 L1266.35,682.54 C1266.35,682 1266.29,681.49 1266.17,681.01 C1266.05,680.53 1265.855,680.1 1265.585,679.72 C1265.315,679.34 1264.97,679.04 1264.55,678.82 C1264.13,678.6 1263.62,678.49 1263.02,678.49 C1262.48,678.49 1261.98,678.62 1261.52,678.88 C1261.06,679.14 1260.69,679.5 1260.41,679.96 L1260.41,679.96 L1260.41,678.73 L1258.76,678.73 L1258.76,694 L1260.44,694 Z M1280.66,694 L1280.66,692.5 C1279.76,692.5 1279.08,692.3 1278.62,691.9 C1278.16,691.5 1277.93,690.84 1277.93,689.92 L1277.93,689.92 L1277.93,680.05 L1280.54,680.05 L1280.54,678.73 L1277.93,678.73 L1277.93,674.26 L1276.25,674.26 L1276.25,678.73 L1274.39,678.73 L1274.39,680.05 L1276.25,680.05 L1276.25,689.92 C1276.25,691.4 1276.635,692.45 1277.405,693.07 C1278.175,693.69 1279.26,694 1280.66,694 L1280.66,694 Z M1284.8,694 L1284.8,682.51 C1284.8,681.67 1285.01,681.04 1285.43,680.62 C1285.85,680.2 1286.35,679.99 1286.93,679.99 C1287.51,679.99 1288.005,680.2 1288.415,680.62 C1288.825,681.04 1289.03,681.67 1289.03,682.51 L1289.03,682.51 L1289.03,694 L1290.71,694 L1290.71,682.54 C1290.71,682 1290.65,681.49 1290.53,681.01 C1290.41,680.53 1290.215,680.1 1289.945,679.72 C1289.675,679.34 1289.33,679.04 1288.91,678.82 C1288.49,678.6 1287.98,678.49 1287.38,678.49 C1287.14,678.49 1286.89,678.525 1286.63,678.595 C1286.37,678.665 1286.12,678.76 1285.88,678.88 C1285.64,679 1285.425,679.15 1285.235,679.33 C1285.045,679.51 1284.9,679.71 1284.8,679.93 L1284.8,679.93 L1284.8,672.64 L1283.12,672.64 L1283.12,694 L1284.8,694 Z M1297.79,694.24 C1298.95,694.24 1299.87,693.89 1300.55,693.19 C1300.95,692.79 1301.235,692.34 1301.405,691.84 C1301.575,691.34 1301.66,690.72 1301.66,689.98 L1301.66,689.98 L1300.01,689.98 C1300.01,690.96 1299.79,691.68 1299.35,692.14 C1299.15,692.36 1298.915,692.515 1298.645,692.605 C1298.375,692.695 1298.09,692.74 1297.79,692.74 C1297.45,692.74 1297.15,692.675 1296.89,692.545 C1296.63,692.415 1296.42,692.25 1296.26,692.05 C1295.92,691.65 1295.705,691.035 1295.615,690.205 C1295.525,689.375 1295.48,688.18 1295.48,686.62 L1295.48,686.62 L1301.72,686.62 C1301.72,684.68 1301.64,683.165 1301.48,682.075 C1301.32,680.985 1300.99,680.16 1300.49,679.6 C1299.81,678.86 1298.9,678.49 1297.76,678.49 C1296.62,678.49 1295.71,678.86 1295.03,679.6 C1294.51,680.16 1294.175,680.97 1294.025,682.03 C1293.875,683.09 1293.8,684.54 1293.8,686.38 C1293.8,688.2 1293.88,689.645 1294.04,690.715 C1294.2,691.785 1294.53,692.59 1295.03,693.13 C1295.73,693.87 1296.65,694.24 1297.79,694.24 Z M1300.04,685.27 L1295.48,685.27 C1295.5,683.95 1295.555,682.94 1295.645,682.24 C1295.735,681.54 1295.93,681.02 1296.23,680.68 C1296.39,680.48 1296.6,680.315 1296.86,680.185 C1297.12,680.055 1297.42,679.99 1297.76,679.99 C1298.1,679.99 1298.395,680.055 1298.645,680.185 C1298.895,680.315 1299.1,680.48 1299.26,680.68 C1299.56,681.02 1299.76,681.54 1299.86,682.24 C1299.96,682.94 1300.02,683.95 1300.04,685.27 L1300.04,685.27 Z M1312.73,694 L1312.73,672.64 L1310.96,672.64 L1310.96,694 L1312.73,694 Z M1318.34,700.09 L1318.34,692.86 C1318.92,693.78 1319.78,694.24 1320.92,694.24 C1321.44,694.24 1321.885,694.15 1322.255,693.97 C1322.625,693.79 1322.97,693.52 1323.29,693.16 C1323.75,692.62 1324.055,691.83 1324.205,690.79 C1324.355,689.75 1324.43,688.28 1324.43,686.38 C1324.43,684.48 1324.355,683.005 1324.205,681.955 C1324.055,680.905 1323.75,680.11 1323.29,679.57 C1322.67,678.85 1321.88,678.49 1320.92,678.49 C1320.56,678.49 1320.24,678.54 1319.96,678.64 C1319.68,678.74 1319.42,678.87 1319.18,679.03 C1319.04,679.13 1318.88,679.27 1318.7,679.45 C1318.52,679.63 1318.39,679.8 1318.31,679.96 L1318.31,679.96 L1318.31,678.73 L1316.66,678.73 L1316.66,700.09 L1318.34,700.09 Z M1320.5,692.74 C1319.74,692.74 1319.19,692.47 1318.85,691.93 C1318.51,691.39 1318.34,690.77 1318.34,690.07 L1318.34,690.07 L1318.34,682.66 C1318.34,681.96 1318.51,681.34 1318.85,680.8 C1319.19,680.26 1319.74,679.99 1320.5,679.99 C1320.82,679.99 1321.105,680.055 1321.355,680.185 C1321.605,680.315 1321.81,680.48 1321.97,680.68 C1322.31,681.06 1322.525,681.675 1322.615,682.525 C1322.705,683.375 1322.75,684.66 1322.75,686.38 L1322.74969,686.741531 C1322.74847,687.45051 1322.74357,688.075 1322.735,688.615 C1322.725,689.245 1322.69,689.785 1322.63,690.235 C1322.57,690.685 1322.49,691.055 1322.39,691.345 C1322.29,691.635 1322.15,691.88 1321.97,692.08 C1321.81,692.28 1321.605,692.44 1321.355,692.56 C1321.105,692.68 1320.82,692.74 1320.5,692.74 Z M1329.32,694 L1329.32,682.51 C1329.32,681.67 1329.53,681.04 1329.95,680.62 C1330.37,680.2 1330.87,679.99 1331.45,679.99 C1332.03,679.99 1332.525,680.2 1332.935,680.62 C1333.345,681.04 1333.55,681.67 1333.55,682.51 L1333.55,682.51 L1333.55,694 L1335.23,694 L1335.23,682.54 C1335.23,682 1335.17,681.49 1335.05,681.01 C1334.93,680.53 1334.735,680.1 1334.465,679.72 C1334.195,679.34 1333.85,679.04 1333.43,678.82 C1333.01,678.6 1332.5,678.49 1331.9,678.49 C1331.66,678.49 1331.41,678.525 1331.15,678.595 C1330.89,678.665 1330.64,678.76 1330.4,678.88 C1330.16,679 1329.945,679.15 1329.755,679.33 C1329.565,679.51 1329.42,679.71 1329.32,679.93 L1329.32,679.93 L1329.32,672.64 L1327.64,672.64 L1327.64,694 L1329.32,694 Z M1342.28,694.24 C1343.5,694.24 1344.44,693.84 1345.1,693.04 C1345.56,692.48 1345.865,691.68 1346.015,690.64 C1346.165,689.6 1346.24,688.18 1346.24,686.38 C1346.24,684.58 1346.165,683.16 1346.015,682.12 C1345.865,681.08 1345.56,680.28 1345.1,679.72 C1344.44,678.9 1343.5,678.49 1342.28,678.49 C1341.06,678.49 1340.12,678.9 1339.46,679.72 C1339,680.28 1338.695,681.08 1338.545,682.12 C1338.395,683.16 1338.32,684.58 1338.32,686.38 C1338.32,688.18 1338.395,689.6 1338.545,690.64 C1338.695,691.68 1339,692.48 1339.46,693.04 C1340.12,693.84 1341.06,694.24 1342.28,694.24 Z M1342.28,692.74 C1341.94,692.74 1341.64,692.675 1341.38,692.545 C1341.12,692.415 1340.91,692.25 1340.75,692.05 C1340.41,691.63 1340.2,690.99 1340.12,690.13 C1340.04,689.27 1340,688.02 1340,686.38 C1340,684.74 1340.04,683.485 1340.12,682.615 C1340.2,681.745 1340.41,681.1 1340.75,680.68 C1340.91,680.48 1341.12,680.315 1341.38,680.185 C1341.64,680.055 1341.94,679.99 1342.28,679.99 C1342.62,679.99 1342.915,680.055 1343.165,680.185 C1343.415,680.315 1343.62,680.48 1343.78,680.68 C1344.12,681.1 1344.335,681.745 1344.425,682.615 C1344.515,683.485 1344.56,684.74 1344.56,686.38 L1344.5592,686.751538 C1344.55281,688.21 1344.50808,689.336154 1344.425,690.13 C1344.335,690.99 1344.12,691.63 1343.78,692.05 C1343.62,692.25 1343.415,692.415 1343.165,692.545 C1342.915,692.675 1342.62,692.74 1342.28,692.74 Z M1351.13,694 L1351.13,682.51 C1351.13,681.67 1351.34,681.04 1351.76,680.62 C1352.18,680.2 1352.68,679.99 1353.26,679.99 C1353.84,679.99 1354.335,680.2 1354.745,680.62 C1355.155,681.04 1355.36,681.67 1355.36,682.51 L1355.36,682.51 L1355.36,694 L1357.04,694 L1357.04,682.54 C1357.04,682 1356.98,681.49 1356.86,681.01 C1356.74,680.53 1356.545,680.1 1356.275,679.72 C1356.005,679.34 1355.66,679.04 1355.24,678.82 C1354.82,678.6 1354.31,678.49 1353.71,678.49 C1353.17,678.49 1352.67,678.62 1352.21,678.88 C1351.75,679.14 1351.38,679.5 1351.1,679.96 L1351.1,679.96 L1351.1,678.73 L1349.45,678.73 L1349.45,694 L1351.13,694 Z M1364.12,694.24 C1365.28,694.24 1366.2,693.89 1366.88,693.19 C1367.28,692.79 1367.565,692.34 1367.735,691.84 C1367.905,691.34 1367.99,690.72 1367.99,689.98 L1367.99,689.98 L1366.34,689.98 C1366.34,690.96 1366.12,691.68 1365.68,692.14 C1365.48,692.36 1365.245,692.515 1364.975,692.605 C1364.705,692.695 1364.42,692.74 1364.12,692.74 C1363.78,692.74 1363.48,692.675 1363.22,692.545 C1362.96,692.415 1362.75,692.25 1362.59,692.05 C1362.25,691.65 1362.035,691.035 1361.945,690.205 C1361.855,689.375 1361.81,688.18 1361.81,686.62 L1361.81,686.62 L1368.05,686.62 C1368.05,684.68 1367.97,683.165 1367.81,682.075 C1367.65,680.985 1367.32,680.16 1366.82,679.6 C1366.14,678.86 1365.23,678.49 1364.09,678.49 C1362.95,678.49 1362.04,678.86 1361.36,679.6 C1360.84,680.16 1360.505,680.97 1360.355,682.03 C1360.205,683.09 1360.13,684.54 1360.13,686.38 C1360.13,688.2 1360.21,689.645 1360.37,690.715 C1360.53,691.785 1360.86,692.59 1361.36,693.13 C1362.06,693.87 1362.98,694.24 1364.12,694.24 Z M1366.37,685.27 L1361.81,685.27 C1361.83,683.95 1361.885,682.94 1361.975,682.24 C1362.065,681.54 1362.26,681.02 1362.56,680.68 C1362.72,680.48 1362.93,680.315 1363.19,680.185 C1363.45,680.055 1363.75,679.99 1364.09,679.99 C1364.43,679.99 1364.725,680.055 1364.975,680.185 C1365.225,680.315 1365.43,680.48 1365.59,680.68 C1365.89,681.02 1366.09,681.54 1366.19,682.24 C1366.29,682.94 1366.35,683.95 1366.37,685.27 L1366.37,685.27 Z M1379.75,694.24 C1380.31,694.24 1380.835,694.1 1381.325,693.82 C1381.815,693.54 1382.18,693.14 1382.42,692.62 L1382.42,692.62 L1382.42,694 L1384.04,694 L1384.04,682.63 C1384.04,681.35 1383.74,680.34 1383.14,679.6 C1382.54,678.86 1381.58,678.49 1380.26,678.49 C1379.64,678.49 1379.095,678.595 1378.625,678.805 C1378.155,679.015 1377.765,679.31 1377.455,679.69 C1377.145,680.07 1376.91,680.51 1376.75,681.01 C1376.59,681.51 1376.51,682.06 1376.51,682.66 L1376.51,682.66 L1378.19,682.66 C1378.19,682.32 1378.225,681.99 1378.295,681.67 C1378.365,681.35 1378.485,681.065 1378.655,680.815 C1378.825,680.565 1379.04,680.36 1379.3,680.2 C1379.56,680.04 1379.88,679.96 1380.26,679.96 C1380.96,679.96 1381.485,680.185 1381.835,680.635 C1382.185,681.085 1382.36,681.73 1382.36,682.57 L1382.36,682.57 L1382.36,685.3 L1380.62,685.3 C1379.22,685.3 1378.155,685.7 1377.425,686.5 C1376.695,687.3 1376.33,688.39 1376.33,689.77 C1376.33,690.33 1376.385,690.88 1376.495,691.42 C1376.605,691.96 1376.795,692.44 1377.065,692.86 C1377.335,693.28 1377.685,693.615 1378.115,693.865 C1378.545,694.115 1379.09,694.24 1379.75,694.24 Z M1380.14,692.74 C1379.4,692.74 1378.86,692.47 1378.52,691.93 C1378.18,691.39 1378.01,690.66 1378.01,689.74 C1378.01,688.84 1378.215,688.095 1378.625,687.505 C1379.035,686.915 1379.72,686.62 1380.68,686.62 L1380.68,686.62 L1382.36,686.62 L1382.36,689.98 C1382.36,690.78 1382.16,691.44 1381.76,691.96 C1381.36,692.48 1380.82,692.74 1380.14,692.74 Z M1389.32,694 L1389.32,682.51 C1389.32,681.67 1389.53,681.04 1389.95,680.62 C1390.37,680.2 1390.87,679.99 1391.45,679.99 C1392.03,679.99 1392.525,680.2 1392.935,680.62 C1393.345,681.04 1393.55,681.67 1393.55,682.51 L1393.55,682.51 L1393.55,694 L1395.23,694 L1395.23,682.54 C1395.23,682 1395.17,681.49 1395.05,681.01 C1394.93,680.53 1394.735,680.1 1394.465,679.72 C1394.195,679.34 1393.85,679.04 1393.43,678.82 C1393.01,678.6 1392.5,678.49 1391.9,678.49 C1391.36,678.49 1390.86,678.62 1390.4,678.88 C1389.94,679.14 1389.57,679.5 1389.29,679.96 L1389.29,679.96 L1389.29,678.73 L1387.64,678.73 L1387.64,694 L1389.32,694 Z M1401.83,694.24 C1402.19,694.24 1402.51,694.19 1402.79,694.09 C1403.07,693.99 1403.33,693.86 1403.57,693.7 C1403.71,693.6 1403.87,693.46 1404.05,693.28 C1404.23,693.1 1404.36,692.93 1404.44,692.77 L1404.44,692.77 L1404.44,694 L1406.09,694 L1406.09,672.64 L1404.41,672.64 L1404.41,679.87 C1403.83,678.95 1402.97,678.49 1401.83,678.49 C1401.31,678.49 1400.865,678.58 1400.495,678.76 C1400.125,678.94 1399.78,679.21 1399.46,679.57 C1399,680.11 1398.695,680.9 1398.545,681.94 C1398.395,682.98 1398.32,684.45 1398.32,686.35 C1398.32,688.25 1398.395,689.725 1398.545,690.775 C1398.695,691.825 1399,692.62 1399.46,693.16 C1400.1,693.88 1400.89,694.24 1401.83,694.24 Z M1402.25,692.74 C1401.93,692.74 1401.645,692.675 1401.395,692.545 C1401.145,692.415 1400.94,692.25 1400.78,692.05 C1400.6,691.87 1400.46,691.63 1400.36,691.33 C1400.26,691.03 1400.185,690.655 1400.135,690.205 C1400.085,689.755 1400.05,689.215 1400.03,688.585 C1400.01,687.955 1400,687.21 1400,686.35 C1400,685.49 1400.005,684.75 1400.015,684.13 C1400.025,683.51 1400.06,682.975 1400.12,682.525 C1400.18,682.075 1400.26,681.7 1400.36,681.4 C1400.46,681.1 1400.6,680.85 1400.78,680.65 C1400.94,680.45 1401.145,680.29 1401.395,680.17 C1401.645,680.05 1401.93,679.99 1402.25,679.99 C1403.01,679.99 1403.56,680.26 1403.9,680.8 C1404.24,681.34 1404.41,681.96 1404.41,682.66 L1404.41,682.66 L1404.41,690.07 C1404.41,690.77 1404.24,691.39 1403.9,691.93 C1403.56,692.47 1403.01,692.74 1402.25,692.74 Z M1415.78,694 L1416.95,688.15 L1421.96,688.15 L1423.13,694 L1425.02,694 L1420.28,672.64 L1418.63,672.64 L1413.89,694 L1415.78,694 Z M1421.63,686.56 L1417.28,686.56 L1419.44,675.82 L1421.63,686.56 Z M1428.68,694 L1428.68,682.51 C1428.68,681.67 1428.89,681.04 1429.31,680.62 C1429.73,680.2 1430.23,679.99 1430.81,679.99 C1431.39,679.99 1431.885,680.2 1432.295,680.62 C1432.705,681.04 1432.91,681.67 1432.91,682.51 L1432.91,682.51 L1432.91,694 L1434.59,694 L1434.59,682.54 C1434.59,682 1434.53,681.49 1434.41,681.01 C1434.29,680.53 1434.095,680.1 1433.825,679.72 C1433.555,679.34 1433.21,679.04 1432.79,678.82 C1432.37,678.6 1431.86,678.49 1431.26,678.49 C1430.72,678.49 1430.22,678.62 1429.76,678.88 C1429.3,679.14 1428.93,679.5 1428.65,679.96 L1428.65,679.96 L1428.65,678.73 L1427,678.73 L1427,694 L1428.68,694 Z M1441.19,694.24 C1441.55,694.24 1441.87,694.19 1442.15,694.09 C1442.43,693.99 1442.69,693.86 1442.93,693.7 C1443.07,693.6 1443.23,693.46 1443.41,693.28 C1443.59,693.1 1443.72,692.93 1443.8,692.77 L1443.8,692.77 L1443.8,694 L1445.45,694 L1445.45,672.64 L1443.77,672.64 L1443.77,679.87 C1443.19,678.95 1442.33,678.49 1441.19,678.49 C1440.67,678.49 1440.225,678.58 1439.855,678.76 C1439.485,678.94 1439.14,679.21 1438.82,679.57 C1438.36,680.11 1438.055,680.9 1437.905,681.94 C1437.755,682.98 1437.68,684.45 1437.68,686.35 C1437.68,688.25 1437.755,689.725 1437.905,690.775 C1438.055,691.825 1438.36,692.62 1438.82,693.16 C1439.46,693.88 1440.25,694.24 1441.19,694.24 Z M1441.61,692.74 C1441.29,692.74 1441.005,692.675 1440.755,692.545 C1440.505,692.415 1440.3,692.25 1440.14,692.05 C1439.96,691.87 1439.82,691.63 1439.72,691.33 C1439.62,691.03 1439.545,690.655 1439.495,690.205 C1439.445,689.755 1439.41,689.215 1439.39,688.585 C1439.37,687.955 1439.36,687.21 1439.36,686.35 C1439.36,685.49 1439.365,684.75 1439.375,684.13 C1439.385,683.51 1439.42,682.975 1439.48,682.525 C1439.54,682.075 1439.62,681.7 1439.72,681.4 C1439.82,681.1 1439.96,680.85 1440.14,680.65 C1440.3,680.45 1440.505,680.29 1440.755,680.17 C1441.005,680.05 1441.29,679.99 1441.61,679.99 C1442.37,679.99 1442.92,680.26 1443.26,680.8 C1443.6,681.34 1443.77,681.96 1443.77,682.66 L1443.77,682.66 L1443.77,690.07 C1443.77,690.77 1443.6,691.39 1443.26,691.93 C1442.92,692.47 1442.37,692.74 1441.61,692.74 Z M1450.85,694 L1450.85,683.05 C1450.85,682.13 1451.12,681.405 1451.66,680.875 C1452.2,680.345 1452.92,680.08 1453.82,680.08 L1453.82,680.08 L1454.18,680.08 L1454.18,678.49 C1453.1,678.49 1452.23,678.79 1451.57,679.39 C1451.45,679.49 1451.315,679.635 1451.165,679.825 C1451.015,680.015 1450.9,680.19 1450.82,680.35 L1450.82,680.35 L1450.82,678.73 L1449.17,678.73 L1449.17,694 L1450.85,694 Z M1459.07,694.24 C1460.29,694.24 1461.23,693.84 1461.89,693.04 C1462.35,692.48 1462.655,691.68 1462.805,690.64 C1462.955,689.6 1463.03,688.18 1463.03,686.38 C1463.03,684.58 1462.955,683.16 1462.805,682.12 C1462.655,681.08 1462.35,680.28 1461.89,679.72 C1461.23,678.9 1460.29,678.49 1459.07,678.49 C1457.85,678.49 1456.91,678.9 1456.25,679.72 C1455.79,680.28 1455.485,681.08 1455.335,682.12 C1455.185,683.16 1455.11,684.58 1455.11,686.38 C1455.11,688.18 1455.185,689.6 1455.335,690.64 C1455.485,691.68 1455.79,692.48 1456.25,693.04 C1456.91,693.84 1457.85,694.24 1459.07,694.24 Z M1459.07,692.74 C1458.73,692.74 1458.43,692.675 1458.17,692.545 C1457.91,692.415 1457.7,692.25 1457.54,692.05 C1457.2,691.63 1456.99,690.99 1456.91,690.13 C1456.83,689.27 1456.79,688.02 1456.79,686.38 C1456.79,684.74 1456.83,683.485 1456.91,682.615 C1456.99,681.745 1457.2,681.1 1457.54,680.68 C1457.7,680.48 1457.91,680.315 1458.17,680.185 C1458.43,680.055 1458.73,679.99 1459.07,679.99 C1459.41,679.99 1459.705,680.055 1459.955,680.185 C1460.205,680.315 1460.41,680.48 1460.57,680.68 C1460.91,681.1 1461.125,681.745 1461.215,682.615 C1461.305,683.485 1461.35,684.74 1461.35,686.38 L1461.3492,686.751538 C1461.34281,688.21 1461.29808,689.336154 1461.215,690.13 C1461.125,690.99 1460.91,691.63 1460.57,692.05 C1460.41,692.25 1460.205,692.415 1459.955,692.545 C1459.705,692.675 1459.41,692.74 1459.07,692.74 Z M1468.16,675.22 L1468.16,673.06 L1466,673.06 L1466,675.22 L1468.16,675.22 Z M1467.92,694 L1467.92,678.73 L1466.24,678.73 L1466.24,694 L1467.92,694 Z M1474.64,694.24 C1475,694.24 1475.32,694.19 1475.6,694.09 C1475.88,693.99 1476.14,693.86 1476.38,693.7 C1476.52,693.6 1476.68,693.46 1476.86,693.28 C1477.04,693.1 1477.17,692.93 1477.25,692.77 L1477.25,692.77 L1477.25,694 L1478.9,694 L1478.9,672.64 L1477.22,672.64 L1477.22,679.87 C1476.64,678.95 1475.78,678.49 1474.64,678.49 C1474.12,678.49 1473.675,678.58 1473.305,678.76 C1472.935,678.94 1472.59,679.21 1472.27,679.57 C1471.81,680.11 1471.505,680.9 1471.355,681.94 C1471.205,682.98 1471.13,684.45 1471.13,686.35 C1471.13,688.25 1471.205,689.725 1471.355,690.775 C1471.505,691.825 1471.81,692.62 1472.27,693.16 C1472.91,693.88 1473.7,694.24 1474.64,694.24 Z M1475.06,692.74 C1474.74,692.74 1474.455,692.675 1474.205,692.545 C1473.955,692.415 1473.75,692.25 1473.59,692.05 C1473.41,691.87 1473.27,691.63 1473.17,691.33 C1473.07,691.03 1472.995,690.655 1472.945,690.205 C1472.895,689.755 1472.86,689.215 1472.84,688.585 C1472.82,687.955 1472.81,687.21 1472.81,686.35 C1472.81,685.49 1472.815,684.75 1472.825,684.13 C1472.835,683.51 1472.87,682.975 1472.93,682.525 C1472.99,682.075 1473.07,681.7 1473.17,681.4 C1473.27,681.1 1473.41,680.85 1473.59,680.65 C1473.75,680.45 1473.955,680.29 1474.205,680.17 C1474.455,680.05 1474.74,679.99 1475.06,679.99 C1475.82,679.99 1476.37,680.26 1476.71,680.8 C1477.05,681.34 1477.22,681.96 1477.22,682.66 L1477.22,682.66 L1477.22,690.07 C1477.22,690.77 1477.05,691.39 1476.71,691.93 C1476.37,692.47 1475.82,692.74 1475.06,692.74 Z" id="AvailableontheIphoneandAndroid" fill-opacity="0.5" fill="#000000" fill-rule="nonzero"></path>
        <g id="Ngichnghnmgp.Duynkhngmimbn" fill-rule="nonzero">
            <use fill="black" fill-opacity="1" filter="url(#filter-2)" xlink:href="#path-1"></use>
            <use fill="#FFFFFF" xlink:href="#path-1"></use>
        </g>
        <path d="M1167.55,374 L1169,362.5 L1174.1,362.5 L1172.65,374 L1175.35,374 L1176.8,362.5 L1180.85,362.5 L1180.85,359.95 L1177.2,359.95 L1178.2,351.8 L1182.15,351.8 L1182.15,349.3 L1178.55,349.3 L1179.95,338.4 L1177.25,338.4 L1175.85,349.3 L1170.75,349.3 L1172.15,338.4 L1169.45,338.4 L1168.05,349.3 L1164.05,349.3 L1164.05,351.8 L1167.7,351.8 L1166.65,359.95 L1162.7,359.95 L1162.7,362.5 L1166.3,362.5 L1164.85,374 L1167.55,374 Z M1174.45,359.95 L1169.35,359.95 L1170.4,351.8 L1175.5,351.8 L1174.45,359.95 Z M1191.25,374 L1191.25,357.2 L1200.05,357.2 L1200.05,374 L1203,374 L1203,338.4 L1200.05,338.4 L1200.05,354.55 L1191.25,354.55 L1191.25,338.4 L1188.3,338.4 L1188.3,374 L1191.25,374 Z M1215.35,374.4 C1217.28333,374.4 1218.81667,373.816667 1219.95,372.65 C1220.61667,371.983333 1221.09167,371.233333 1221.375,370.4 C1221.65833,369.566667 1221.8,368.533333 1221.8,367.3 L1221.8,367.3 L1219.05,367.3 C1219.05,368.933333 1218.68333,370.133333 1217.95,370.9 C1217.61667,371.266667 1217.225,371.525 1216.775,371.675 C1216.325,371.825 1215.85,371.9 1215.35,371.9 C1214.78333,371.9 1214.28333,371.791667 1213.85,371.575 C1213.41667,371.358333 1213.06667,371.083333 1212.8,370.75 C1212.23333,370.083333 1211.875,369.058333 1211.725,367.675 C1211.575,366.291667 1211.5,364.3 1211.5,361.7 L1211.5,361.7 L1221.9,361.7 C1221.9,358.466667 1221.76667,355.941667 1221.5,354.125 C1221.23333,352.308333 1220.68333,350.933333 1219.85,350 C1218.71667,348.766667 1217.2,348.15 1215.3,348.15 C1213.4,348.15 1211.88333,348.766667 1210.75,350 C1209.88333,350.933333 1209.325,352.283333 1209.075,354.05 C1208.825,355.816667 1208.7,358.233333 1208.7,361.3 C1208.7,364.333333 1208.83333,366.741667 1209.1,368.525 C1209.36667,370.308333 1209.91667,371.65 1210.75,372.55 C1211.91667,373.783333 1213.45,374.4 1215.35,374.4 Z M1219.1,359.45 L1211.5,359.45 C1211.53333,357.25 1211.625,355.566667 1211.775,354.4 C1211.925,353.233333 1212.25,352.366667 1212.75,351.8 C1213.01667,351.466667 1213.36667,351.191667 1213.8,350.975 C1214.23333,350.758333 1214.73333,350.65 1215.3,350.65 C1215.86667,350.65 1216.35833,350.758333 1216.775,350.975 C1217.19167,351.191667 1217.53333,351.466667 1217.8,351.8 C1218.3,352.366667 1218.63333,353.233333 1218.8,354.4 C1218.96667,355.566667 1219.06667,357.25 1219.1,359.45 L1219.1,359.45 Z M1230.05,374 L1230.05,354.85 C1230.05,353.45 1230.4,352.4 1231.1,351.7 C1231.8,351 1232.63333,350.65 1233.6,350.65 C1234.56667,350.65 1235.39167,351 1236.075,351.7 C1236.75833,352.4 1237.1,353.45 1237.1,354.85 L1237.1,354.85 L1237.1,374 L1239.9,374 L1239.9,354.9 C1239.9,354 1239.8,353.15 1239.6,352.35 C1239.4,351.55 1239.075,350.833333 1238.625,350.2 C1238.175,349.566667 1237.6,349.066667 1236.9,348.7 C1236.2,348.333333 1235.35,348.15 1234.35,348.15 C1233.45,348.15 1232.61667,348.366667 1231.85,348.8 C1231.08333,349.233333 1230.46667,349.833333 1230,350.6 L1230,350.6 L1230,348.55 L1227.25,348.55 L1227.25,374 L1230.05,374 Z M1248.7,374 L1248.7,354.85 C1248.7,353.45 1249.05,352.4 1249.75,351.7 C1250.45,351 1251.28333,350.65 1252.25,350.65 C1253.21667,350.65 1254.04167,351 1254.725,351.7 C1255.40833,352.4 1255.75,353.45 1255.75,354.85 L1255.75,354.85 L1255.75,374 L1258.55,374 L1258.55,354.9 C1258.55,354 1258.45,353.15 1258.25,352.35 C1258.05,351.55 1257.725,350.833333 1257.275,350.2 C1256.825,349.566667 1256.25,349.066667 1255.55,348.7 C1254.85,348.333333 1254,348.15 1253,348.15 C1252.1,348.15 1251.26667,348.366667 1250.5,348.8 C1249.73333,349.233333 1249.11667,349.833333 1248.65,350.6 L1248.65,350.6 L1248.65,348.55 L1245.9,348.55 L1245.9,374 L1248.7,374 Z M1270.15,384.55 C1271.08333,384.55 1271.94167,384.383333 1272.725,384.05 C1273.50833,383.716667 1274.16667,383.266667 1274.7,382.7 C1275.06667,382.3 1275.36667,381.883333 1275.6,381.45 C1275.83333,381.016667 1276.025,380.5 1276.175,379.9 C1276.325,379.3 1276.43333,378.608333 1276.5,377.825 C1276.56667,377.041667 1276.6,376.116667 1276.6,375.05 L1276.6,375.05 L1276.6,348.55 L1273.85,348.55 L1273.85,350.5 C1273.38333,349.7 1272.78333,349.108333 1272.05,348.725 C1271.31667,348.341667 1270.5,348.15 1269.6,348.15 C1268.03333,348.15 1266.71667,348.75 1265.65,349.95 C1265.25,350.383333 1264.925,350.908333 1264.675,351.525 C1264.425,352.141667 1264.225,352.883333 1264.075,353.75 C1263.925,354.616667 1263.825,355.65 1263.775,356.85 C1263.725,358.05 1263.7,359.466667 1263.7,361.1 L1263.70093,361.636728 C1263.70586,363.047428 1263.73056,364.293519 1263.775,365.375 C1263.825,366.591667 1263.925,367.641667 1264.075,368.525 C1264.225,369.408333 1264.425,370.15 1264.675,370.75 C1264.925,371.35 1265.25,371.866667 1265.65,372.3 C1266.71667,373.466667 1268.03333,374.05 1269.6,374.05 C1270.76667,374.05 1271.71667,373.766667 1272.45,373.2 C1272.71667,373.033333 1272.96667,372.816667 1273.2,372.55 C1273.43333,372.283333 1273.63333,372.016667 1273.8,371.75 L1273.8,371.75 L1273.8,375.1 C1273.8,376.7 1273.71667,377.958333 1273.55,378.875 C1273.38333,379.791667 1273.06667,380.5 1272.6,381 C1272.33333,381.333333 1272,381.6 1271.6,381.8 C1271.2,382 1270.71667,382.1 1270.15,382.1 C1269.45,382.1 1268.86667,381.975 1268.4,381.725 C1267.93333,381.475 1267.55833,381.141667 1267.275,380.725 C1266.99167,380.308333 1266.8,379.816667 1266.7,379.25 C1266.6,378.683333 1266.55,378.1 1266.55,377.5 L1266.55,377.5 L1263.8,377.5 C1263.8,379.6 1264.3,381.3 1265.3,382.6 C1266.3,383.9 1267.91667,384.55 1270.15,384.55 Z M1270.2,371.6 C1269.7,371.6 1269.24167,371.491667 1268.825,371.275 C1268.40833,371.058333 1268.06667,370.8 1267.8,370.5 C1267.5,370.166667 1267.26667,369.758333 1267.1,369.275 C1266.93333,368.791667 1266.80833,368.183333 1266.725,367.45 C1266.64167,366.716667 1266.58333,365.833333 1266.55,364.8 C1266.51667,363.766667 1266.5,362.55 1266.5,361.15 L1266.50031,360.67963 C1266.50195,359.445062 1266.51019,358.368519 1266.525,357.45 C1266.54167,356.416667 1266.6,355.541667 1266.7,354.825 C1266.8,354.108333 1266.93333,353.508333 1267.1,353.025 C1267.26667,352.541667 1267.5,352.133333 1267.8,351.8 C1268.06667,351.466667 1268.40833,351.191667 1268.825,350.975 C1269.24167,350.758333 1269.7,350.65 1270.2,350.65 C1271.5,350.65 1272.425,351.1 1272.975,352 C1273.525,352.9 1273.8,353.933333 1273.8,355.1 L1273.8,355.1 L1273.8,367.15 C1273.8,368.316667 1273.525,369.35 1272.975,370.25 C1272.425,371.15 1271.5,371.6 1270.2,371.6 Z M1287.25,374.4 C1288.18333,374.4 1289.05833,374.166667 1289.875,373.7 C1290.69167,373.233333 1291.3,372.566667 1291.7,371.7 L1291.7,371.7 L1291.7,374 L1294.4,374 L1294.4,355.05 C1294.4,352.916667 1293.9,351.233333 1292.9,350 C1291.9,348.766667 1290.3,348.15 1288.1,348.15 C1287.06667,348.15 1286.15833,348.325 1285.375,348.675 C1284.59167,349.025 1283.94167,349.516667 1283.425,350.15 C1282.90833,350.783333 1282.51667,351.516667 1282.25,352.35 C1281.98333,353.183333 1281.85,354.1 1281.85,355.1 L1281.85,355.1 L1284.65,355.1 C1284.65,354.533333 1284.70833,353.983333 1284.825,353.45 C1284.94167,352.916667 1285.14167,352.441667 1285.425,352.025 C1285.70833,351.608333 1286.06667,351.266667 1286.5,351 C1286.93333,350.733333 1287.46667,350.6 1288.1,350.6 C1289.26667,350.6 1290.14167,350.975 1290.725,351.725 C1291.30833,352.475 1291.6,353.55 1291.6,354.95 L1291.6,354.95 L1291.6,359.5 L1288.7,359.5 C1286.36667,359.5 1284.59167,360.166667 1283.375,361.5 C1282.15833,362.833333 1281.55,364.65 1281.55,366.95 C1281.55,367.883333 1281.64167,368.8 1281.825,369.7 C1282.00833,370.6 1282.325,371.4 1282.775,372.1 C1283.225,372.8 1283.80833,373.358333 1284.525,373.775 C1285.24167,374.191667 1286.15,374.4 1287.25,374.4 Z M1287.9,371.9 C1286.66667,371.9 1285.76667,371.45 1285.2,370.55 C1284.63333,369.65 1284.35,368.433333 1284.35,366.9 C1284.35,365.4 1284.69167,364.158333 1285.375,363.175 C1286.05833,362.191667 1287.2,361.7 1288.8,361.7 L1288.8,361.7 L1291.6,361.7 L1291.6,367.3 C1291.6,368.633333 1291.26667,369.733333 1290.6,370.6 C1289.93333,371.466667 1289.03333,371.9 1287.9,371.9 Z M1305.75,374.4 C1306.65,374.4 1307.48333,374.183333 1308.25,373.75 C1309.01667,373.316667 1309.63333,372.716667 1310.1,371.95 L1310.1,371.95 L1310.1,374 L1312.85,374 L1312.85,348.55 L1310.05,348.55 L1310.05,367.7 C1310.05,369.1 1309.7,370.15 1309,370.85 C1308.3,371.55 1307.46667,371.9 1306.5,371.9 C1305.53333,371.9 1304.70833,371.55 1304.025,370.85 C1303.34167,370.15 1303,369.1 1303,367.7 L1303,367.7 L1303,348.55 L1300.2,348.55 L1300.2,367.65 C1300.2,368.55 1300.3,369.4 1300.5,370.2 C1300.7,371 1301.025,371.716667 1301.475,372.35 C1301.925,372.983333 1302.5,373.483333 1303.2,373.85 C1303.9,374.216667 1304.75,374.4 1305.75,374.4 Z M1321.85,374 L1321.85,354.85 C1321.85,353.45 1322.2,352.4 1322.9,351.7 C1323.6,351 1324.43333,350.65 1325.4,350.65 C1326.36667,350.65 1327.19167,351 1327.875,351.7 C1328.55833,352.4 1328.9,353.45 1328.9,354.85 L1328.9,354.85 L1328.9,374 L1331.7,374 L1331.7,354.9 C1331.7,354 1331.6,353.15 1331.4,352.35 C1331.2,351.55 1330.875,350.833333 1330.425,350.2 C1329.975,349.566667 1329.4,349.066667 1328.7,348.7 C1328,348.333333 1327.15,348.15 1326.15,348.15 C1325.25,348.15 1324.41667,348.366667 1323.65,348.8 C1322.88333,349.233333 1322.26667,349.833333 1321.8,350.6 L1321.8,350.6 L1321.8,348.55 L1319.05,348.55 L1319.05,374 L1321.85,374 Z M1340.5,374 L1340.5,354.85 C1340.5,353.45 1340.85,352.4 1341.55,351.7 C1342.25,351 1343.08333,350.65 1344.05,350.65 C1345.01667,350.65 1345.84167,351 1346.525,351.7 C1347.20833,352.4 1347.55,353.45 1347.55,354.85 L1347.55,354.85 L1347.55,374 L1350.35,374 L1350.35,354.9 C1350.35,354 1350.25,353.15 1350.05,352.35 C1349.85,351.55 1349.525,350.833333 1349.075,350.2 C1348.625,349.566667 1348.05,349.066667 1347.35,348.7 C1346.65,348.333333 1345.8,348.15 1344.8,348.15 C1344.4,348.15 1343.98333,348.208333 1343.55,348.325 C1343.11667,348.441667 1342.7,348.6 1342.3,348.8 C1341.9,349 1341.54167,349.25 1341.225,349.55 C1340.90833,349.85 1340.66667,350.183333 1340.5,350.55 L1340.5,350.55 L1340.5,338.4 L1337.7,338.4 L1337.7,374 L1340.5,374 Z M1359.55,342.7 L1359.55,339.1 L1355.95,339.1 L1355.95,342.7 L1359.55,342.7 Z M1359.15,374 L1359.15,348.55 L1356.35,348.55 L1356.35,374 L1359.15,374 Z M1371.15,374.4 C1373.08333,374.4 1374.61667,373.816667 1375.75,372.65 C1376.41667,371.983333 1376.89167,371.233333 1377.175,370.4 C1377.45833,369.566667 1377.6,368.533333 1377.6,367.3 L1377.6,367.3 L1374.85,367.3 C1374.85,368.933333 1374.48333,370.133333 1373.75,370.9 C1373.41667,371.266667 1373.025,371.525 1372.575,371.675 C1372.125,371.825 1371.65,371.9 1371.15,371.9 C1370.58333,371.9 1370.08333,371.791667 1369.65,371.575 C1369.21667,371.358333 1368.86667,371.083333 1368.6,370.75 C1368.03333,370.083333 1367.675,369.058333 1367.525,367.675 C1367.375,366.291667 1367.3,364.3 1367.3,361.7 L1367.3,361.7 L1377.7,361.7 C1377.7,358.466667 1377.56667,355.941667 1377.3,354.125 C1377.03333,352.308333 1376.48333,350.933333 1375.65,350 C1374.51667,348.766667 1373,348.15 1371.1,348.15 C1369.2,348.15 1367.68333,348.766667 1366.55,350 C1365.68333,350.933333 1365.125,352.283333 1364.875,354.05 C1364.625,355.816667 1364.5,358.233333 1364.5,361.3 C1364.5,364.333333 1364.63333,366.741667 1364.9,368.525 C1365.16667,370.308333 1365.71667,371.65 1366.55,372.55 C1367.71667,373.783333 1369.25,374.4 1371.15,374.4 Z M1374.9,359.45 L1367.3,359.45 C1367.33333,357.25 1367.425,355.566667 1367.575,354.4 C1367.725,353.233333 1368.05,352.366667 1368.55,351.8 C1368.81667,351.466667 1369.16667,351.191667 1369.6,350.975 C1370.03333,350.758333 1370.53333,350.65 1371.1,350.65 C1371.66667,350.65 1372.15833,350.758333 1372.575,350.975 C1372.99167,351.191667 1373.33333,351.466667 1373.6,351.8 C1374.1,352.366667 1374.43333,353.233333 1374.6,354.4 C1374.76667,355.566667 1374.86667,357.25 1374.9,359.45 L1374.9,359.45 Z M1385.85,374 L1385.85,354.85 C1385.85,353.45 1386.2,352.4 1386.9,351.7 C1387.6,351 1388.43333,350.65 1389.4,350.65 C1390.36667,350.65 1391.19167,351 1391.875,351.7 C1392.55833,352.4 1392.9,353.45 1392.9,354.85 L1392.9,354.85 L1392.9,374 L1395.7,374 L1395.7,354.9 C1395.7,354 1395.6,353.15 1395.4,352.35 C1395.2,351.55 1394.875,350.833333 1394.425,350.2 C1393.975,349.566667 1393.4,349.066667 1392.7,348.7 C1392,348.333333 1391.15,348.15 1390.15,348.15 C1389.25,348.15 1388.41667,348.366667 1387.65,348.8 C1386.88333,349.233333 1386.26667,349.833333 1385.8,350.6 L1385.8,350.6 L1385.8,348.55 L1383.05,348.55 L1383.05,374 L1385.85,374 Z" id="#Henngaunhien" fill-opacity="0.5" fill="#FFFFFF" fill-rule="nonzero"></path>
        <g id="ChanChan" fill-rule="nonzero">
            <use fill="black" fill-opacity="1" filter="url(#filter-4)" xlink:href="#path-3"></use>
            <use fill="#FFFFFF" xlink:href="#path-3"></use>
        </g>
    </g>
</svg>