<?xml version="1.0" encoding="UTF-8"?>
<svg width="320px" height="322px" viewBox="0 0 320 322" version="1.1" xmlns="http://www.w3.org/2000/svg" xmlns:xlink="http://www.w3.org/1999/xlink">
    <!-- Generator: Sketch 54.1 (76490) - https://sketchapp.com -->
    <title>gift</title>
    <desc>Created with Sketch.</desc>
    <g id="gift" stroke="none" stroke-width="1" fill="none" fill-rule="evenodd">
        <text id="980.000-VND-/-THÁNG" font-family="Oswald-Regular_Medium, Oswald" font-size="20" font-weight="400" letter-spacing="-0.9999999" fill="#8C96A8" fill-opacity="0.5" text-decoration="line-through">
            <tspan x="60" y="241">980.000 VND / THÁNG</tspan>
        </text>
        <text id="680.000-VND-/-THÁNG" opacity="0.6" font-family="Oswald-Regular_Medium, Oswald" font-size="20" font-weight="400" letter-spacing="-0.9999999" fill="#5D6A80">
            <tspan x="60" y="211">680.000 VND / THÁNG</tspan>
        </text>
        <text id="1.280.000-VND" font-family="Oswald-Regular_Medium, Oswald" font-size="20" font-weight="400" letter-spacing="-0.9999999" fill="#556279" text-decoration="line-through">
            <tspan x="160" y="106">1.280.000 VND</tspan>
        </text>
        <text id="890.000-VND" font-family="Oswald-Regular_Medium, Oswald" font-size="20" font-weight="400" letter-spacing="-0.9999999" fill="#1E88E5">
            <tspan x="60" y="106">890.000 VND</tspan>
        </text>
        <text id="……………………………………………………" font-family="Georgia-Italic, Georgia" font-size="14" font-style="italic" font-weight="normal" fill="#DADFE7">
            <tspan x="60" y="168">……………………………………………………</tspan>
        </text>
        <text id="Tiết-kiệm-30%-toàn-b" font-family="SFCompactDisplay-Semibold, SF Compact Display" font-size="18" font-weight="500" letter-spacing="-0.720000029" fill="#343D51">
            <tspan x="30" y="41">Tiết kiệm 30% toàn bộ chương </tspan>
            <tspan x="30" y="62">trình khi đăng ký hôm nay.</tspan>
        </text>
        <path d="M38,91 C33.5889231,91 30,94.5886154 30,99 C30,103.411385 33.5889231,107 38,107 C42.4110769,107 46,103.411385 46,99 C46,94.5886154 42.4110769,91 38,91 Z M41.9025,96.6655 L37.5948077,101.511654 C37.4887308,101.630923 37.3409231,101.692308 37.1920385,101.692308 C37.0738462,101.692308 36.9551154,101.653538 36.8557692,101.574385 L34.1634615,99.4205385 C33.9313846,99.2350385 33.8936923,98.8960769 34.0794615,98.6637308 C34.2649615,98.4313846 34.6041923,98.3936923 34.8362692,98.5794615 L37.1293077,100.413731 L41.0975,95.9496154 C41.2945769,95.7272308 41.6354231,95.7073077 41.8575385,95.9049231 C42.0799231,96.1028077 42.1001154,96.4431154 41.9025,96.6655 Z" id="Shape" fill="#1E88E5"></path>
        <text id="Phí-khởi-tạo" font-family="SFCompactDisplay-Regular, SF Compact Display" font-size="16" font-weight="normal" fill="#556279">
            <tspan x="60" y="135">Phí khởi tạo</tspan>
        </text>
        <path d="M38,196 C33.5889231,196 30,199.588615 30,204 C30,208.411385 33.5889231,212 38,212 C42.4110769,212 46,208.411385 46,204 C46,199.588615 42.4110769,196 38,196 Z M38.9357041,199.354259 L38.9357041,205.023185 C38.933636,205.205592 38.8521732,205.369361 38.7237565,205.480992 C38.6218126,205.569611 38.4903359,205.625193 38.3452992,205.631409 L34.4082013,205.792306 C34.0689446,205.806314 33.7822869,205.542212 33.7683086,205.202521 C33.7540981,204.863033 34.0184322,204.576173 34.3578908,204.562397 L37.7109959,204.425222 L37.7109959,199.354259 C37.7142398,199.014682 38.0055507,198.696206 38.3452992,198.700117 C38.6854818,198.704057 38.9394125,199.014278 38.9357041,199.354259 Z" id="Shape" fill="#8C96A8" opacity="0.64"></path>
        <text id="Phí-vận-hành" opacity="0.6" font-family="SFCompactDisplay-Regular, SF Compact Display" font-size="16" font-weight="normal" fill="#5D6A80">
            <tspan x="60" y="270">Phí vận hành</tspan>
        </text>
        <text id="……………………………………………………" font-family="Georgia-Italic, Georgia" font-size="14" font-style="italic" font-weight="normal" fill="#DADFE7">
            <tspan x="30" y="319">……………………………………………………………</tspan>
        </text>
    </g>
</svg>