<?xml version="1.0" encoding="UTF-8"?>
<svg width="320px" height="361px" viewBox="0 0 320 361" version="1.1" xmlns="http://www.w3.org/2000/svg" xmlns:xlink="http://www.w3.org/1999/xlink">
    <!-- Generator: Sketch 54.1 (76490) - https://sketchapp.com -->
    <title>haychacchan</title>
    <desc>Created with Sketch.</desc>
    <defs>
        <linearGradient x1="0%" y1="129.745585%" x2="112.37481%" y2="-33.6417308%" id="linearGradient-1">
            <stop stop-color="#1E88E5" offset="0%"></stop>
            <stop stop-color="#039BE5" offset="100%"></stop>
        </linearGradient>
        <path d="M280,264 C274.477153,264 270,259.522847 270,254 C270,248.477153 274.477153,244 280,244 C285.522847,244 290,248.477153 290,254 C290,259.522847 285.522847,264 280,264 Z M280.416651,257.333333 C280.580876,257.333333 280.745141,257.273446 280.870455,257.153631 L284.811862,253.382047 C285.062713,253.142128 285.062713,252.753139 284.811862,252.513317 C284.561255,252.273494 284.154863,252.273494 283.904134,252.513317 L280.416651,255.850507 L276.929189,252.5132 C276.67844,252.273378 276.272007,252.273378 276.02138,252.5132 C275.770651,252.753023 275.770651,253.142011 276.02138,253.381931 L279.962848,257.153515 C280.088101,257.27331 280.252366,257.333333 280.416651,257.333333 Z" id="path-2"></path>
        <filter x="-10.0%" y="-10.0%" width="120.0%" height="120.0%" filterUnits="objectBoundingBox" id="filter-3">
            <feGaussianBlur stdDeviation="1.5" in="SourceAlpha" result="shadowBlurInner1"></feGaussianBlur>
            <feOffset dx="-1" dy="1" in="shadowBlurInner1" result="shadowOffsetInner1"></feOffset>
            <feComposite in="shadowOffsetInner1" in2="SourceAlpha" operator="arithmetic" k2="-1" k3="1" result="shadowInnerInner1"></feComposite>
            <feColorMatrix values="0 0 0 0 0   0 0 0 0 0   0 0 0 0 0  0 0 0 0.25 0" type="matrix" in="shadowInnerInner1"></feColorMatrix>
        </filter>
        <linearGradient x1="-69.8246243%" y1="219.251809%" x2="229.335428%" y2="-228.278237%" id="linearGradient-4">
            <stop stop-color="#F50057" offset="0%"></stop>
            <stop stop-color="#AA00FF" offset="100%"></stop>
        </linearGradient>
        <path d="M280,143 C274.477153,143 270,138.522847 270,133 C270,127.477153 274.477153,123 280,123 C285.522847,123 290,127.477153 290,133 C290,138.522847 285.522847,143 280,143 Z M282.75,133.000015 C282.75,132.835791 282.690112,132.671526 282.570298,132.546212 L278.798714,128.604805 C278.558794,128.353954 278.169806,128.353954 277.929983,128.604805 C277.690161,128.855412 277.690161,129.261804 277.929983,129.512533 L281.267173,133.000015 L277.929867,136.487477 C277.690044,136.738227 277.690044,137.144659 277.929867,137.395287 C278.169689,137.646016 278.558678,137.646016 278.798597,137.395287 L282.570182,133.453818 C282.689976,133.328566 282.75,133.164301 282.75,133.000015 Z" id="path-5"></path>
        <filter x="-10.0%" y="-10.0%" width="120.0%" height="120.0%" filterUnits="objectBoundingBox" id="filter-6">
            <feGaussianBlur stdDeviation="1.5" in="SourceAlpha" result="shadowBlurInner1"></feGaussianBlur>
            <feOffset dx="-1" dy="1" in="shadowBlurInner1" result="shadowOffsetInner1"></feOffset>
            <feComposite in="shadowOffsetInner1" in2="SourceAlpha" operator="arithmetic" k2="-1" k3="1" result="shadowInnerInner1"></feComposite>
            <feColorMatrix values="0 0 0 0 0   0 0 0 0 0   0 0 0 0 0  0 0 0 0.25 0" type="matrix" in="shadowInnerInner1"></feColorMatrix>
        </filter>
    </defs>
    <g id="haychacchan" stroke="none" stroke-width="1" fill="none" fill-rule="evenodd">
        <rect fill="#F0F6FA" x="0" y="0" width="320" height="361"></rect>
        <g id="Oval-2">
            <use fill="url(#linearGradient-1)" fill-rule="evenodd" xlink:href="#path-2"></use>
            <use fill="black" fill-opacity="1" filter="url(#filter-3)" xlink:href="#path-2"></use>
        </g>
        <g id="Oval-2">
            <use fill="url(#linearGradient-4)" fill-rule="evenodd" xlink:href="#path-5"></use>
            <use fill="black" fill-opacity="1" filter="url(#filter-6)" xlink:href="#path-5"></use>
        </g>
        <text id="……………………………………………………" font-family="Georgia-Italic, Georgia" font-size="14" font-style="italic" font-weight="normal" fill="#DADFE7">
            <tspan x="30" y="221">…………………………………………………….</tspan>
        </text>
        <text id="Về-chương-trình" font-family="SFCompactDisplay-Semibold, SF Compact Display" font-size="18" font-weight="500" letter-spacing="-0.720000029" fill="#343D51">
            <tspan x="30" y="140">Về chương trình</tspan>
        </text>
        <text id="Hãy-chắc-chắn-rằng-b" font-family="SFCompactDisplay-Regular, SF Compact Display" font-size="16" font-weight="normal" line-spacing="21" fill="#5D6A80">
            <tspan x="30" y="59">Hãy chắc chắn rằng bạn đã tìm hiểu </tspan>
            <tspan x="30" y="80">về những nội dung dưới đây trước khi </tspan>
            <tspan x="30" y="101">Đăng ký.</tspan>
        </text>
        <text id="Về-đăng-ký" font-family="SFCompactDisplay-Semibold, SF Compact Display" font-size="18" font-weight="500" letter-spacing="-0.720000029" fill="#343D51">
            <tspan x="30" y="261">Về đăng ký</tspan>
        </text>
        <path d="M3.04720534,353 C3.01573507,353.166826 3,353.339903 3,353.519231 C3,354.198721 3.22884537,354.782049 3.68654298,355.269231 C4.14424058,355.756413 4.68408094,356 5.30608025,356 C5.91634372,356 6.45325017,355.759618 6.91681569,355.278846 C7.38038122,354.798075 7.6121605,354.211542 7.6121605,353.519231 C7.6121605,353.339903 7.59622108,353.166826 7.5643421,353 L12.7468253,353 C12.7153551,353.166826 12.69962,353.339903 12.69962,353.519231 C12.69962,354.198721 12.9284654,354.782049 13.386163,355.269231 C13.8438606,355.756413 14.3837009,356 15.0057002,356 C15.6159637,356 16.1528702,355.759618 16.6164357,355.278846 C17.0800012,354.798075 17.3117805,354.211542 17.3117805,353.519231 C17.3117805,353.339903 17.2958411,353.166826 17.2639621,353 L22.4464453,353 C22.414975,353.166826 22.39924,353.339903 22.39924,353.519231 C22.39924,354.198721 22.6280853,354.782049 23.0857829,355.269231 C23.5434805,355.756413 24.0833209,356 24.7053202,356 C25.3273195,356 25.8671599,355.756413 26.3248575,355.269231 C26.7825551,354.782049 27.0114005,354.198721 27.0114005,353.519231 C27.0114005,353.339903 26.9956654,353.166826 26.9641951,353 L32.1460653,353 C32.114595,353.166826 32.09886,353.339903 32.09886,353.519231 C32.09886,354.198721 32.3277053,354.782049 32.7854029,355.269231 C33.2431005,355.756413 33.7829409,356 34.4049402,356 C35.0152037,356 35.5521101,355.759618 36.0156756,355.278846 C36.4792412,354.798075 36.7110205,354.211542 36.7110205,353.519231 C36.7110205,353.339903 36.695081,353.166826 36.6632021,353 L41.8456853,353 C41.814215,353.166826 41.7984799,353.339903 41.7984799,353.519231 C41.7984799,354.198721 42.0273253,354.782049 42.4850229,355.269231 C42.9427205,355.756413 43.4825609,356 44.1045602,356 C44.7148237,356 45.2517301,355.759618 45.7152956,355.278846 C46.1788612,354.798075 46.4106404,354.211542 46.4106404,353.519231 C46.4106404,353.339903 46.394701,353.166826 46.362822,353 L51.5453053,353 C51.513835,353.166826 51.4980999,353.339903 51.4980999,353.519231 C51.4980999,354.198721 51.7269453,354.782049 52.1846429,355.269231 C52.6423405,355.756413 53.1821809,356 53.8041802,356 C54.4261795,356 54.9660198,355.756413 55.4237174,355.269231 C55.8814151,354.782049 56.1102604,354.198721 56.1102604,353.519231 C56.1102604,353.339903 56.0945254,353.166826 56.0630551,353 L61.2449252,353 C61.213455,353.166826 61.1977199,353.339903 61.1977199,353.519231 C61.1977199,354.198721 61.4265653,354.782049 61.8842629,355.269231 C62.3419605,355.756413 62.8818008,356 63.5038002,356 C64.1140636,356 64.6509701,355.759618 65.1145356,355.278846 C65.5781011,354.798075 65.8098804,354.211542 65.8098804,353.519231 C65.8098804,353.339903 65.793941,353.166826 65.762062,353 L70.9445452,353 C70.913075,353.166826 70.8973399,353.339903 70.8973399,353.519231 C70.8973399,354.198721 71.1261853,354.782049 71.5838829,355.269231 C72.0415805,355.756413 72.5814208,356 73.2034201,356 C73.8136836,356 74.3505901,355.759618 74.8141556,355.278846 C75.2777211,354.798075 75.5095004,354.211542 75.5095004,353.519231 C75.5095004,353.339903 75.493561,353.166826 75.461682,353 L80.6441652,353 C80.6126949,353.166826 80.5969599,353.339903 80.5969599,353.519231 C80.5969599,354.198721 80.8258052,354.782049 81.2835029,355.269231 C81.7412005,355.756413 82.2810408,356 82.9030401,356 C83.5250394,356 84.0648798,355.756413 84.5225774,355.269231 C84.980275,354.782049 85.2091204,354.198721 85.2091204,353.519231 C85.2091204,353.339903 85.1933853,353.166826 85.161915,353 L90.3437852,353 C90.3123149,353.166826 90.2965799,353.339903 90.2965799,353.519231 C90.2965799,354.198721 90.5254252,354.782049 90.9831228,355.269231 C91.4408204,355.756413 91.9806608,356 92.6026601,356 C93.2129236,356 93.74983,355.759618 94.2133956,355.278846 C94.6769611,354.798075 94.9087404,354.211542 94.9087404,353.519231 C94.9087404,353.339903 94.8928009,353.166826 94.860922,353 L100.043405,353 C100.011935,353.166826 99.9961998,353.339903 99.9961998,353.519231 C99.9961998,354.198721 100.225045,354.782049 100.682743,355.269231 C101.14044,355.756413 101.680281,356 102.30228,356 C102.912544,356 103.44945,355.759618 103.913016,355.278846 C104.376581,354.798075 104.60836,354.211542 104.60836,353.519231 C104.60836,353.339903 104.592421,353.166826 104.560542,353 L109.743025,353 C109.711555,353.166826 109.69582,353.339903 109.69582,353.519231 C109.69582,354.198721 109.924665,354.782049 110.382363,355.269231 C110.84006,355.756413 111.379901,356 112.0019,356 C112.623899,356 113.16374,355.756413 113.621437,355.269231 C114.079135,354.782049 114.30798,354.198721 114.30798,353.519231 C114.30798,353.339903 114.292245,353.166826 114.260775,353 L119.442645,353 C119.411175,353.166826 119.39544,353.339903 119.39544,353.519231 C119.39544,354.198721 119.624285,354.782049 120.081983,355.269231 C120.53968,355.756413 121.079521,356 121.70152,356 C122.311784,356 122.84869,355.759618 123.312256,355.278846 C123.775821,354.798075 124.0076,354.211542 124.0076,353.519231 C124.0076,353.339903 123.991661,353.166826 123.959782,353 L129.142265,353 C129.110795,353.166826 129.09506,353.339903 129.09506,353.519231 C129.09506,354.198721 129.323905,354.782049 129.781603,355.269231 C130.2393,355.756413 130.779141,356 131.40114,356 C132.011404,356 132.54831,355.759618 133.011875,355.278846 C133.475441,354.798075 133.70722,354.211542 133.70722,353.519231 C133.70722,353.339903 133.691281,353.166826 133.659402,353 L138.841885,353 C138.810415,353.166826 138.79468,353.339903 138.79468,353.519231 C138.79468,354.198721 139.023525,354.782049 139.481223,355.269231 C139.93892,355.756413 140.478761,356 141.10076,356 C141.722759,356 142.2626,355.756413 142.720297,355.269231 C143.177995,354.782049 143.40684,354.198721 143.40684,353.519231 C143.40684,353.339903 143.391105,353.166826 143.359635,353 L148.541505,353 C148.510035,353.166826 148.4943,353.339903 148.4943,353.519231 C148.4943,354.198721 148.723145,354.782049 149.180843,355.269231 C149.63854,355.756413 150.178381,356 150.80038,356 C151.410643,356 151.94755,355.759618 152.411115,355.278846 C152.874681,354.798075 153.10646,354.211542 153.10646,353.519231 C153.10646,353.339903 153.090521,353.166826 153.058642,353 L158.241125,353 C158.209655,353.166826 158.19392,353.339903 158.19392,353.519231 C158.19392,354.198721 158.422765,354.782049 158.880463,355.269231 C159.33816,355.756413 159.878001,356 160.5,356 C161.110263,356 161.64717,355.759618 162.110735,355.278846 C162.574301,354.798075 162.80608,354.211542 162.80608,353.519231 C162.80608,353.339903 162.790141,353.166826 162.758262,353 L167.940745,353 C167.909275,353.166826 167.89354,353.339903 167.89354,353.519231 C167.89354,354.198721 168.122385,354.782049 168.580083,355.269231 C169.03778,355.756413 169.577621,356 170.19962,356 C170.821619,356 171.36146,355.756413 171.819157,355.269231 C172.276855,354.782049 172.5057,354.198721 172.5057,353.519231 C172.5057,353.339903 172.489965,353.166826 172.458495,353 L177.640365,353 C177.608895,353.166826 177.59316,353.339903 177.59316,353.519231 C177.59316,354.198721 177.822005,354.782049 178.279703,355.269231 C178.7374,355.756413 179.277241,356 179.89924,356 C180.509503,356 181.04641,355.759618 181.509975,355.278846 C181.973541,354.798075 182.20532,354.211542 182.20532,353.519231 C182.20532,353.339903 182.189381,353.166826 182.157502,353 L187.339985,353 C187.308515,353.166826 187.29278,353.339903 187.29278,353.519231 C187.29278,354.198721 187.521625,354.782049 187.979323,355.269231 C188.43702,355.756413 188.976861,356 189.59886,356 C190.209123,356 190.74603,355.759618 191.209595,355.278846 C191.673161,354.798075 191.90494,354.211542 191.90494,353.519231 C191.90494,353.339903 191.889001,353.166826 191.857122,353 L197.039605,353 C197.008135,353.166826 196.9924,353.339903 196.9924,353.519231 C196.9924,354.198721 197.221245,354.782049 197.678943,355.269231 C198.13664,355.756413 198.676481,356 199.29848,356 C199.920479,356 200.46032,355.756413 200.918017,355.269231 C201.375715,354.782049 201.60456,354.198721 201.60456,353.519231 C201.60456,353.339903 201.588825,353.166826 201.557355,353 L206.739225,353 C206.707755,353.166826 206.69202,353.339903 206.69202,353.519231 C206.69202,354.198721 206.920865,354.782049 207.378563,355.269231 C207.83626,355.756413 208.376101,356 208.9981,356 C209.608363,356 210.14527,355.759618 210.608835,355.278846 C211.072401,354.798075 211.30418,354.211542 211.30418,353.519231 C211.30418,353.339903 211.288241,353.166826 211.256362,353 L216.438845,353 C216.407375,353.166826 216.39164,353.339903 216.39164,353.519231 C216.39164,354.198721 216.620485,354.782049 217.078183,355.269231 C217.53588,355.756413 218.075721,356 218.69772,356 C219.307983,356 219.84489,355.759618 220.308455,355.278846 C220.772021,354.798075 221.0038,354.211542 221.0038,353.519231 C221.0038,353.339903 220.987861,353.166826 220.955982,353 L226.138465,353 C226.106995,353.166826 226.09126,353.339903 226.09126,353.519231 C226.09126,354.198721 226.320105,354.782049 226.777803,355.269231 C227.2355,355.756413 227.775341,356 228.39734,356 C229.019339,356 229.55918,355.756413 230.016877,355.269231 C230.474575,354.782049 230.70342,354.198721 230.70342,353.519231 C230.70342,353.339903 230.687685,353.166826 230.656215,353 L235.838085,353 C235.806615,353.166826 235.79088,353.339903 235.79088,353.519231 C235.79088,354.198721 236.019725,354.782049 236.477423,355.269231 C236.93512,355.756413 237.474961,356 238.09696,356 C238.707223,356 239.24413,355.759618 239.707695,355.278846 C240.171261,354.798075 240.40304,354.211542 240.40304,353.519231 C240.40304,353.339903 240.387101,353.166826 240.355222,353 L245.537705,353 C245.506235,353.166826 245.4905,353.339903 245.4905,353.519231 C245.4905,354.198721 245.719345,354.782049 246.177043,355.269231 C246.63474,355.756413 247.174581,356 247.79658,356 C248.406843,356 248.94375,355.759618 249.407315,355.278846 C249.870881,354.798075 250.10266,354.211542 250.10266,353.519231 C250.10266,353.339903 250.086721,353.166826 250.054842,353 L255.237325,353 C255.205855,353.166826 255.19012,353.339903 255.19012,353.519231 C255.19012,354.198721 255.418965,354.782049 255.876663,355.269231 C256.33436,355.756413 256.874201,356 257.4962,356 C258.118199,356 258.65804,355.756413 259.115737,355.269231 C259.573435,354.782049 259.80228,354.198721 259.80228,353.519231 C259.80228,353.339903 259.786545,353.166826 259.755075,353 L264.936945,353 C264.905475,353.166826 264.88974,353.339903 264.88974,353.519231 C264.88974,354.198721 265.118585,354.782049 265.576283,355.269231 C266.03398,355.756413 266.573821,356 267.19582,356 C267.806083,356 268.34299,355.759618 268.806555,355.278846 C269.270121,354.798075 269.5019,354.211542 269.5019,353.519231 C269.5019,353.339903 269.485961,353.166826 269.454082,353 L274.636565,353 C274.605095,353.166826 274.58936,353.339903 274.58936,353.519231 C274.58936,354.198721 274.818205,354.782049 275.275903,355.269231 C275.7336,355.756413 276.273441,356 276.89544,356 C277.505703,356 278.04261,355.759618 278.506175,355.278846 C278.969741,354.798075 279.20152,354.211542 279.20152,353.519231 C279.20152,353.339903 279.185581,353.166826 279.153702,353 L284.336185,353 C284.304715,353.166826 284.28898,353.339903 284.28898,353.519231 C284.28898,354.198721 284.517825,354.782049 284.975523,355.269231 C285.43322,355.756413 285.97306,356 286.59506,356 C287.217059,356 287.756899,355.756413 288.214597,355.269231 C288.672295,354.782049 288.90114,354.198721 288.90114,353.519231 C288.90114,353.339903 288.885405,353.166826 288.853935,353 L294.035805,353 C294.004335,353.166826 293.9886,353.339903 293.9886,353.519231 C293.9886,354.198721 294.217445,354.782049 294.675143,355.269231 C295.13284,355.756413 295.67268,356 296.29468,356 C296.904943,356 297.44185,355.759618 297.905415,355.278846 C298.368981,354.798075 298.60076,354.211542 298.60076,353.519231 C298.60076,353.339903 298.584821,353.166826 298.552942,353 L303.735425,353 C303.703955,353.166826 303.68822,353.339903 303.68822,353.519231 C303.68822,354.198721 303.917065,354.782049 304.374762,355.269231 C304.83246,355.756413 305.3723,356 305.9943,356 C306.604563,356 307.14147,355.759618 307.605035,355.278846 C308.068601,354.798075 308.30038,354.211542 308.30038,353.519231 C308.30038,353.339903 308.284441,353.166826 308.252562,353 L313.435045,353 C313.403575,353.166826 313.387839,353.339903 313.387839,353.519231 C313.387839,354.198721 313.616685,354.782049 314.074382,355.269231 C314.53208,355.756413 315.07192,356 315.69392,356 C316.315919,356 316.855759,355.756413 317.313457,355.269231 C317.771155,354.782049 318,354.198721 318,353.519231 C318,353.339903 317.984265,353.166826 317.952795,353 L320,353 L320,361 L0,361 L0,353 L3.04720534,353 Z" id="Rectangle-2" fill="#FFFFFF"></path>
        <path d="M22.4464453,5 L17.2639621,5 C17.2958411,5.16682572 17.3117805,5.33990253 17.3117805,5.51923077 C17.3117805,6.21154192 17.0800012,6.79807452 16.6164357,7.27884615 C16.1528702,7.75961779 15.6159637,8 15.0057002,8 C14.3837009,8 13.8438606,7.75641269 13.386163,7.26923077 C12.9284654,6.78204885 12.69962,6.19872135 12.69962,5.51923077 C12.69962,5.33990253 12.7153551,5.16682572 12.7468253,5 L7.5643421,5 C7.59622108,5.16682572 7.6121605,5.33990253 7.6121605,5.51923077 C7.6121605,6.21154192 7.38038122,6.79807452 6.91681569,7.27884615 C6.45325017,7.75961779 5.91634372,8 5.30608025,8 C4.68408094,8 4.14424058,7.75641269 3.68654298,7.26923077 C3.22884537,6.78204885 3,6.19872135 3,5.51923077 C3,5.33990253 3.01573507,5.16682572 3.04720534,5 L0,5 L0,0 L320,0 L320,5 L317.952795,5 C317.984265,5.16682572 318,5.33990253 318,5.51923077 C318,6.19872135 317.771155,6.78204885 317.313457,7.26923077 C316.855759,7.75641269 316.315919,8 315.69392,8 C315.07192,8 314.53208,7.75641269 314.074382,7.26923077 C313.616685,6.78204885 313.387839,6.19872135 313.387839,5.51923077 C313.387839,5.33990253 313.403575,5.16682572 313.435045,5 L308.252562,5 C308.284441,5.16682572 308.30038,5.33990253 308.30038,5.51923077 C308.30038,6.21154192 308.068601,6.79807452 307.605035,7.27884615 C307.14147,7.75961779 306.604563,8 305.9943,8 C305.3723,8 304.83246,7.75641269 304.374762,7.26923077 C303.917065,6.78204885 303.68822,6.19872135 303.68822,5.51923077 C303.68822,5.33990253 303.703955,5.16682572 303.735425,5 L298.552942,5 C298.584821,5.16682572 298.60076,5.33990253 298.60076,5.51923077 C298.60076,6.21154192 298.368981,6.79807452 297.905415,7.27884615 C297.44185,7.75961779 296.904943,8 296.29468,8 C295.67268,8 295.13284,7.75641269 294.675143,7.26923077 C294.217445,6.78204885 293.9886,6.19872135 293.9886,5.51923077 C293.9886,5.33990253 294.004335,5.16682572 294.035805,5 L288.853935,5 C288.885405,5.16682572 288.90114,5.33990253 288.90114,5.51923077 C288.90114,6.19872135 288.672295,6.78204885 288.214597,7.26923077 C287.756899,7.75641269 287.217059,8 286.59506,8 C285.97306,8 285.43322,7.75641269 284.975523,7.26923077 C284.517825,6.78204885 284.28898,6.19872135 284.28898,5.51923077 C284.28898,5.33990253 284.304715,5.16682572 284.336185,5 L279.153702,5 C279.185581,5.16682572 279.20152,5.33990253 279.20152,5.51923077 C279.20152,6.21154192 278.969741,6.79807452 278.506175,7.27884615 C278.04261,7.75961779 277.505703,8 276.89544,8 C276.273441,8 275.7336,7.75641269 275.275903,7.26923077 C274.818205,6.78204885 274.58936,6.19872135 274.58936,5.51923077 C274.58936,5.33990253 274.605095,5.16682572 274.636565,5 L269.454082,5 C269.485961,5.16682572 269.5019,5.33990253 269.5019,5.51923077 C269.5019,6.21154192 269.270121,6.79807452 268.806555,7.27884615 C268.34299,7.75961779 267.806083,8 267.19582,8 C266.573821,8 266.03398,7.75641269 265.576283,7.26923077 C265.118585,6.78204885 264.88974,6.19872135 264.88974,5.51923077 C264.88974,5.33990253 264.905475,5.16682572 264.936945,5 L259.755075,5 C259.786545,5.16682572 259.80228,5.33990253 259.80228,5.51923077 C259.80228,6.19872135 259.573435,6.78204885 259.115737,7.26923077 C258.65804,7.75641269 258.118199,8 257.4962,8 C256.874201,8 256.33436,7.75641269 255.876663,7.26923077 C255.418965,6.78204885 255.19012,6.19872135 255.19012,5.51923077 C255.19012,5.33990253 255.205855,5.16682572 255.237325,5 L250.054842,5 C250.086721,5.16682572 250.10266,5.33990253 250.10266,5.51923077 C250.10266,6.21154192 249.870881,6.79807452 249.407315,7.27884615 C248.94375,7.75961779 248.406843,8 247.79658,8 C247.174581,8 246.63474,7.75641269 246.177043,7.26923077 C245.719345,6.78204885 245.4905,6.19872135 245.4905,5.51923077 C245.4905,5.33990253 245.506235,5.16682572 245.537705,5 L240.355222,5 C240.387101,5.16682572 240.40304,5.33990253 240.40304,5.51923077 C240.40304,6.21154192 240.171261,6.79807452 239.707695,7.27884615 C239.24413,7.75961779 238.707223,8 238.09696,8 C237.474961,8 236.93512,7.75641269 236.477423,7.26923077 C236.019725,6.78204885 235.79088,6.19872135 235.79088,5.51923077 C235.79088,5.33990253 235.806615,5.16682572 235.838085,5 L230.656215,5 C230.687685,5.16682572 230.70342,5.33990253 230.70342,5.51923077 C230.70342,6.19872135 230.474575,6.78204885 230.016877,7.26923077 C229.55918,7.75641269 229.019339,8 228.39734,8 C227.775341,8 227.2355,7.75641269 226.777803,7.26923077 C226.320105,6.78204885 226.09126,6.19872135 226.09126,5.51923077 C226.09126,5.33990253 226.106995,5.16682572 226.138465,5 L220.955982,5 C220.987861,5.16682572 221.0038,5.33990253 221.0038,5.51923077 C221.0038,6.21154192 220.772021,6.79807452 220.308455,7.27884615 C219.84489,7.75961779 219.307983,8 218.69772,8 C218.075721,8 217.53588,7.75641269 217.078183,7.26923077 C216.620485,6.78204885 216.39164,6.19872135 216.39164,5.51923077 C216.39164,5.33990253 216.407375,5.16682572 216.438845,5 L211.256362,5 C211.288241,5.16682572 211.30418,5.33990253 211.30418,5.51923077 C211.30418,6.21154192 211.072401,6.79807452 210.608835,7.27884615 C210.14527,7.75961779 209.608363,8 208.9981,8 C208.376101,8 207.83626,7.75641269 207.378563,7.26923077 C206.920865,6.78204885 206.69202,6.19872135 206.69202,5.51923077 C206.69202,5.33990253 206.707755,5.16682572 206.739225,5 L201.557355,5 C201.588825,5.16682572 201.60456,5.33990253 201.60456,5.51923077 C201.60456,6.19872135 201.375715,6.78204885 200.918017,7.26923077 C200.46032,7.75641269 199.920479,8 199.29848,8 C198.676481,8 198.13664,7.75641269 197.678943,7.26923077 C197.221245,6.78204885 196.9924,6.19872135 196.9924,5.51923077 C196.9924,5.33990253 197.008135,5.16682572 197.039605,5 L191.857122,5 C191.889001,5.16682572 191.90494,5.33990253 191.90494,5.51923077 C191.90494,6.21154192 191.673161,6.79807452 191.209595,7.27884615 C190.74603,7.75961779 190.209123,8 189.59886,8 C188.976861,8 188.43702,7.75641269 187.979323,7.26923077 C187.521625,6.78204885 187.29278,6.19872135 187.29278,5.51923077 C187.29278,5.33990253 187.308515,5.16682572 187.339985,5 L182.157502,5 C182.189381,5.16682572 182.20532,5.33990253 182.20532,5.51923077 C182.20532,6.21154192 181.973541,6.79807452 181.509975,7.27884615 C181.04641,7.75961779 180.509503,8 179.89924,8 C179.277241,8 178.7374,7.75641269 178.279703,7.26923077 C177.822005,6.78204885 177.59316,6.19872135 177.59316,5.51923077 C177.59316,5.33990253 177.608895,5.16682572 177.640365,5 L172.458495,5 C172.489965,5.16682572 172.5057,5.33990253 172.5057,5.51923077 C172.5057,6.19872135 172.276855,6.78204885 171.819157,7.26923077 C171.36146,7.75641269 170.821619,8 170.19962,8 C169.577621,8 169.03778,7.75641269 168.580083,7.26923077 C168.122385,6.78204885 167.89354,6.19872135 167.89354,5.51923077 C167.89354,5.33990253 167.909275,5.16682572 167.940745,5 L162.758262,5 C162.790141,5.16682572 162.80608,5.33990253 162.80608,5.51923077 C162.80608,6.21154192 162.574301,6.79807452 162.110735,7.27884615 C161.64717,7.75961779 161.110263,8 160.5,8 C159.878001,8 159.33816,7.75641269 158.880463,7.26923077 C158.422765,6.78204885 158.19392,6.19872135 158.19392,5.51923077 C158.19392,5.33990253 158.209655,5.16682572 158.241125,5 L153.058642,5 C153.090521,5.16682572 153.10646,5.33990253 153.10646,5.51923077 C153.10646,6.21154192 152.874681,6.79807452 152.411115,7.27884615 C151.94755,7.75961779 151.410643,8 150.80038,8 C150.178381,8 149.63854,7.75641269 149.180843,7.26923077 C148.723145,6.78204885 148.4943,6.19872135 148.4943,5.51923077 C148.4943,5.33990253 148.510035,5.16682572 148.541505,5 L143.359635,5 C143.391105,5.16682572 143.40684,5.33990253 143.40684,5.51923077 C143.40684,6.19872135 143.177995,6.78204885 142.720297,7.26923077 C142.2626,7.75641269 141.722759,8 141.10076,8 C140.478761,8 139.93892,7.75641269 139.481223,7.26923077 C139.023525,6.78204885 138.79468,6.19872135 138.79468,5.51923077 C138.79468,5.33990253 138.810415,5.16682572 138.841885,5 L133.659402,5 C133.691281,5.16682572 133.70722,5.33990253 133.70722,5.51923077 C133.70722,6.21154192 133.475441,6.79807452 133.011875,7.27884615 C132.54831,7.75961779 132.011404,8 131.40114,8 C130.779141,8 130.2393,7.75641269 129.781603,7.26923077 C129.323905,6.78204885 129.09506,6.19872135 129.09506,5.51923077 C129.09506,5.33990253 129.110795,5.16682572 129.142265,5 L123.959782,5 C123.991661,5.16682572 124.0076,5.33990253 124.0076,5.51923077 C124.0076,6.21154192 123.775821,6.79807452 123.312256,7.27884615 C122.84869,7.75961779 122.311784,8 121.70152,8 C121.079521,8 120.53968,7.75641269 120.081983,7.26923077 C119.624285,6.78204885 119.39544,6.19872135 119.39544,5.51923077 C119.39544,5.33990253 119.411175,5.16682572 119.442645,5 L114.260775,5 C114.292245,5.16682572 114.30798,5.33990253 114.30798,5.51923077 C114.30798,6.19872135 114.079135,6.78204885 113.621437,7.26923077 C113.16374,7.75641269 112.623899,8 112.0019,8 C111.379901,8 110.84006,7.75641269 110.382363,7.26923077 C109.924665,6.78204885 109.69582,6.19872135 109.69582,5.51923077 C109.69582,5.33990253 109.711555,5.16682572 109.743025,5 L104.560542,5 C104.592421,5.16682572 104.60836,5.33990253 104.60836,5.51923077 C104.60836,6.21154192 104.376581,6.79807452 103.913016,7.27884615 C103.44945,7.75961779 102.912544,8 102.30228,8 C101.680281,8 101.14044,7.75641269 100.682743,7.26923077 C100.225045,6.78204885 99.9961998,6.19872135 99.9961998,5.51923077 C99.9961998,5.33990253 100.011935,5.16682572 100.043405,5 L94.860922,5 C94.8928009,5.16682572 94.9087404,5.33990253 94.9087404,5.51923077 C94.9087404,6.21154192 94.6769611,6.79807452 94.2133956,7.27884615 C93.74983,7.75961779 93.2129236,8 92.6026601,8 C91.9806608,8 91.4408204,7.75641269 90.9831228,7.26923077 C90.5254252,6.78204885 90.2965799,6.19872135 90.2965799,5.51923077 C90.2965799,5.33990253 90.3123149,5.16682572 90.3437852,5 L85.161915,5 C85.1933853,5.16682572 85.2091204,5.33990253 85.2091204,5.51923077 C85.2091204,6.19872135 84.980275,6.78204885 84.5225774,7.26923077 C84.0648798,7.75641269 83.5250394,8 82.9030401,8 C82.2810408,8 81.7412005,7.75641269 81.2835029,7.26923077 C80.8258052,6.78204885 80.5969599,6.19872135 80.5969599,5.51923077 C80.5969599,5.33990253 80.6126949,5.16682572 80.6441652,5 L75.461682,5 C75.493561,5.16682572 75.5095004,5.33990253 75.5095004,5.51923077 C75.5095004,6.21154192 75.2777211,6.79807452 74.8141556,7.27884615 C74.3505901,7.75961779 73.8136836,8 73.2034201,8 C72.5814208,8 72.0415805,7.75641269 71.5838829,7.26923077 C71.1261853,6.78204885 70.8973399,6.19872135 70.8973399,5.51923077 C70.8973399,5.33990253 70.913075,5.16682572 70.9445452,5 L65.762062,5 C65.793941,5.16682572 65.8098804,5.33990253 65.8098804,5.51923077 C65.8098804,6.21154192 65.5781011,6.79807452 65.1145356,7.27884615 C64.6509701,7.75961779 64.1140636,8 63.5038002,8 C62.8818008,8 62.3419605,7.75641269 61.8842629,7.26923077 C61.4265653,6.78204885 61.1977199,6.19872135 61.1977199,5.51923077 C61.1977199,5.33990253 61.213455,5.16682572 61.2449252,5 L56.0630551,5 C56.0945254,5.16682572 56.1102604,5.33990253 56.1102604,5.51923077 C56.1102604,6.19872135 55.8814151,6.78204885 55.4237174,7.26923077 C54.9660198,7.75641269 54.4261795,8 53.8041802,8 C53.1821809,8 52.6423405,7.75641269 52.1846429,7.26923077 C51.7269453,6.78204885 51.4980999,6.19872135 51.4980999,5.51923077 C51.4980999,5.33990253 51.513835,5.16682572 51.5453053,5 L46.362822,5 C46.394701,5.16682572 46.4106404,5.33990253 46.4106404,5.51923077 C46.4106404,6.21154192 46.1788612,6.79807452 45.7152956,7.27884615 C45.2517301,7.75961779 44.7148237,8 44.1045602,8 C43.4825609,8 42.9427205,7.75641269 42.4850229,7.26923077 C42.0273253,6.78204885 41.7984799,6.19872135 41.7984799,5.51923077 C41.7984799,5.33990253 41.814215,5.16682572 41.8456853,5 L36.6632021,5 C36.695081,5.16682572 36.7110205,5.33990253 36.7110205,5.51923077 C36.7110205,6.21154192 36.4792412,6.79807452 36.0156756,7.27884615 C35.5521101,7.75961779 35.0152037,8 34.4049402,8 C33.7829409,8 33.2431005,7.75641269 32.7854029,7.26923077 C32.3277053,6.78204885 32.09886,6.19872135 32.09886,5.51923077 C32.09886,5.33990253 32.114595,5.16682572 32.1460653,5 L26.9641951,5 C26.9956654,5.16682572 27.0114005,5.33990253 27.0114005,5.51923077 C27.0114005,6.19872135 26.7825551,6.78204885 26.3248575,7.26923077 C25.8671599,7.75641269 25.3273195,8 24.7053202,8 C24.0833209,8 23.5434805,7.75641269 23.0857829,7.26923077 C22.6280853,6.78204885 22.39924,6.19872135 22.39924,5.51923077 C22.39924,5.33990253 22.414975,5.16682572 22.4464453,5 Z" id="Rectangle-2" fill="#FFFFFF"></path>
        <text id="—-Thông-tin-bạn-cần" font-family="Georgia-Italic, Georgia" font-size="15" font-style="italic" font-weight="normal" line-spacing="20" fill="#5D6A80">
            <tspan x="30" y="291">— Thông tin bạn cần biết trước </tspan>
            <tspan x="30" y="311">khi Đăng ký.</tspan>
        </text>
        <text id="—-Chương-trình-của-b" font-family="Georgia-Italic, Georgia" font-size="15" font-style="italic" font-weight="normal" line-spacing="20" fill="#5D6A80">
            <tspan x="30" y="170">— Chương trình của bạn sẽ hoạt </tspan>
            <tspan x="30" y="190">động như thế nào?</tspan>
        </text>
    </g>
</svg>