<?xml version="1.0" encoding="UTF-8"?>
<svg width="320px" height="151px" viewBox="0 0 320 151" version="1.1" xmlns="http://www.w3.org/2000/svg" xmlns:xlink="http://www.w3.org/1999/xlink">
    <!-- Generator: Sketch 54.1 (76490) - https://sketchapp.com -->
    <title>haychacchan</title>
    <desc>Created with Sketch.</desc>
    <g id="haychacchan" stroke="none" stroke-width="1" fill="none" fill-rule="evenodd">
        <rect fill="#F0F6FA" x="0" y="0" width="320" height="151"></rect>
        <text id="Hãy-chắc-chắn-rằng-b" font-family="SFCompactDisplay-Regular, SF Compact Display" font-size="16" font-weight="normal" line-spacing="21" fill="#5D6A80">
            <tspan x="30" y="59">Hãy chắc chắn rằng bạn đồng ý với </tspan>
            <tspan x="30" y="80">chanchan về nội dung dưới đây trước </tspan>
            <tspan x="30" y="101">khi đăng ký</tspan>
        </text>
        <path d="M3.04720534,143 C3.01573507,143.166826 3,143.339903 3,143.519231 C3,144.198721 3.22884537,144.782049 3.68654298,145.269231 C4.14424058,145.756413 4.68408094,146 5.30608025,146 C5.91634372,146 6.45325017,145.759618 6.91681569,145.278846 C7.38038122,144.798075 7.6121605,144.211542 7.6121605,143.519231 C7.6121605,143.339903 7.59622108,143.166826 7.5643421,143 L12.7468253,143 C12.7153551,143.166826 12.69962,143.339903 12.69962,143.519231 C12.69962,144.198721 12.9284654,144.782049 13.386163,145.269231 C13.8438606,145.756413 14.3837009,146 15.0057002,146 C15.6159637,146 16.1528702,145.759618 16.6164357,145.278846 C17.0800012,144.798075 17.3117805,144.211542 17.3117805,143.519231 C17.3117805,143.339903 17.2958411,143.166826 17.2639621,143 L22.4464453,143 C22.414975,143.166826 22.39924,143.339903 22.39924,143.519231 C22.39924,144.198721 22.6280853,144.782049 23.0857829,145.269231 C23.5434805,145.756413 24.0833209,146 24.7053202,146 C25.3273195,146 25.8671599,145.756413 26.3248575,145.269231 C26.7825551,144.782049 27.0114005,144.198721 27.0114005,143.519231 C27.0114005,143.339903 26.9956654,143.166826 26.9641951,143 L32.1460653,143 C32.114595,143.166826 32.09886,143.339903 32.09886,143.519231 C32.09886,144.198721 32.3277053,144.782049 32.7854029,145.269231 C33.2431005,145.756413 33.7829409,146 34.4049402,146 C35.0152037,146 35.5521101,145.759618 36.0156756,145.278846 C36.4792412,144.798075 36.7110205,144.211542 36.7110205,143.519231 C36.7110205,143.339903 36.695081,143.166826 36.6632021,143 L41.8456853,143 C41.814215,143.166826 41.7984799,143.339903 41.7984799,143.519231 C41.7984799,144.198721 42.0273253,144.782049 42.4850229,145.269231 C42.9427205,145.756413 43.4825609,146 44.1045602,146 C44.7148237,146 45.2517301,145.759618 45.7152956,145.278846 C46.1788612,144.798075 46.4106404,144.211542 46.4106404,143.519231 C46.4106404,143.339903 46.394701,143.166826 46.362822,143 L51.5453053,143 C51.513835,143.166826 51.4980999,143.339903 51.4980999,143.519231 C51.4980999,144.198721 51.7269453,144.782049 52.1846429,145.269231 C52.6423405,145.756413 53.1821809,146 53.8041802,146 C54.4261795,146 54.9660198,145.756413 55.4237174,145.269231 C55.8814151,144.782049 56.1102604,144.198721 56.1102604,143.519231 C56.1102604,143.339903 56.0945254,143.166826 56.0630551,143 L61.2449252,143 C61.213455,143.166826 61.1977199,143.339903 61.1977199,143.519231 C61.1977199,144.198721 61.4265653,144.782049 61.8842629,145.269231 C62.3419605,145.756413 62.8818008,146 63.5038002,146 C64.1140636,146 64.6509701,145.759618 65.1145356,145.278846 C65.5781011,144.798075 65.8098804,144.211542 65.8098804,143.519231 C65.8098804,143.339903 65.793941,143.166826 65.762062,143 L70.9445452,143 C70.913075,143.166826 70.8973399,143.339903 70.8973399,143.519231 C70.8973399,144.198721 71.1261853,144.782049 71.5838829,145.269231 C72.0415805,145.756413 72.5814208,146 73.2034201,146 C73.8136836,146 74.3505901,145.759618 74.8141556,145.278846 C75.2777211,144.798075 75.5095004,144.211542 75.5095004,143.519231 C75.5095004,143.339903 75.493561,143.166826 75.461682,143 L80.6441652,143 C80.6126949,143.166826 80.5969599,143.339903 80.5969599,143.519231 C80.5969599,144.198721 80.8258052,144.782049 81.2835029,145.269231 C81.7412005,145.756413 82.2810408,146 82.9030401,146 C83.5250394,146 84.0648798,145.756413 84.5225774,145.269231 C84.980275,144.782049 85.2091204,144.198721 85.2091204,143.519231 C85.2091204,143.339903 85.1933853,143.166826 85.161915,143 L90.3437852,143 C90.3123149,143.166826 90.2965799,143.339903 90.2965799,143.519231 C90.2965799,144.198721 90.5254252,144.782049 90.9831228,145.269231 C91.4408204,145.756413 91.9806608,146 92.6026601,146 C93.2129236,146 93.74983,145.759618 94.2133956,145.278846 C94.6769611,144.798075 94.9087404,144.211542 94.9087404,143.519231 C94.9087404,143.339903 94.8928009,143.166826 94.860922,143 L100.043405,143 C100.011935,143.166826 99.9961998,143.339903 99.9961998,143.519231 C99.9961998,144.198721 100.225045,144.782049 100.682743,145.269231 C101.14044,145.756413 101.680281,146 102.30228,146 C102.912544,146 103.44945,145.759618 103.913016,145.278846 C104.376581,144.798075 104.60836,144.211542 104.60836,143.519231 C104.60836,143.339903 104.592421,143.166826 104.560542,143 L109.743025,143 C109.711555,143.166826 109.69582,143.339903 109.69582,143.519231 C109.69582,144.198721 109.924665,144.782049 110.382363,145.269231 C110.84006,145.756413 111.379901,146 112.0019,146 C112.623899,146 113.16374,145.756413 113.621437,145.269231 C114.079135,144.782049 114.30798,144.198721 114.30798,143.519231 C114.30798,143.339903 114.292245,143.166826 114.260775,143 L119.442645,143 C119.411175,143.166826 119.39544,143.339903 119.39544,143.519231 C119.39544,144.198721 119.624285,144.782049 120.081983,145.269231 C120.53968,145.756413 121.079521,146 121.70152,146 C122.311784,146 122.84869,145.759618 123.312256,145.278846 C123.775821,144.798075 124.0076,144.211542 124.0076,143.519231 C124.0076,143.339903 123.991661,143.166826 123.959782,143 L129.142265,143 C129.110795,143.166826 129.09506,143.339903 129.09506,143.519231 C129.09506,144.198721 129.323905,144.782049 129.781603,145.269231 C130.2393,145.756413 130.779141,146 131.40114,146 C132.011404,146 132.54831,145.759618 133.011875,145.278846 C133.475441,144.798075 133.70722,144.211542 133.70722,143.519231 C133.70722,143.339903 133.691281,143.166826 133.659402,143 L138.841885,143 C138.810415,143.166826 138.79468,143.339903 138.79468,143.519231 C138.79468,144.198721 139.023525,144.782049 139.481223,145.269231 C139.93892,145.756413 140.478761,146 141.10076,146 C141.722759,146 142.2626,145.756413 142.720297,145.269231 C143.177995,144.782049 143.40684,144.198721 143.40684,143.519231 C143.40684,143.339903 143.391105,143.166826 143.359635,143 L148.541505,143 C148.510035,143.166826 148.4943,143.339903 148.4943,143.519231 C148.4943,144.198721 148.723145,144.782049 149.180843,145.269231 C149.63854,145.756413 150.178381,146 150.80038,146 C151.410643,146 151.94755,145.759618 152.411115,145.278846 C152.874681,144.798075 153.10646,144.211542 153.10646,143.519231 C153.10646,143.339903 153.090521,143.166826 153.058642,143 L158.241125,143 C158.209655,143.166826 158.19392,143.339903 158.19392,143.519231 C158.19392,144.198721 158.422765,144.782049 158.880463,145.269231 C159.33816,145.756413 159.878001,146 160.5,146 C161.110263,146 161.64717,145.759618 162.110735,145.278846 C162.574301,144.798075 162.80608,144.211542 162.80608,143.519231 C162.80608,143.339903 162.790141,143.166826 162.758262,143 L167.940745,143 C167.909275,143.166826 167.89354,143.339903 167.89354,143.519231 C167.89354,144.198721 168.122385,144.782049 168.580083,145.269231 C169.03778,145.756413 169.577621,146 170.19962,146 C170.821619,146 171.36146,145.756413 171.819157,145.269231 C172.276855,144.782049 172.5057,144.198721 172.5057,143.519231 C172.5057,143.339903 172.489965,143.166826 172.458495,143 L177.640365,143 C177.608895,143.166826 177.59316,143.339903 177.59316,143.519231 C177.59316,144.198721 177.822005,144.782049 178.279703,145.269231 C178.7374,145.756413 179.277241,146 179.89924,146 C180.509503,146 181.04641,145.759618 181.509975,145.278846 C181.973541,144.798075 182.20532,144.211542 182.20532,143.519231 C182.20532,143.339903 182.189381,143.166826 182.157502,143 L187.339985,143 C187.308515,143.166826 187.29278,143.339903 187.29278,143.519231 C187.29278,144.198721 187.521625,144.782049 187.979323,145.269231 C188.43702,145.756413 188.976861,146 189.59886,146 C190.209123,146 190.74603,145.759618 191.209595,145.278846 C191.673161,144.798075 191.90494,144.211542 191.90494,143.519231 C191.90494,143.339903 191.889001,143.166826 191.857122,143 L197.039605,143 C197.008135,143.166826 196.9924,143.339903 196.9924,143.519231 C196.9924,144.198721 197.221245,144.782049 197.678943,145.269231 C198.13664,145.756413 198.676481,146 199.29848,146 C199.920479,146 200.46032,145.756413 200.918017,145.269231 C201.375715,144.782049 201.60456,144.198721 201.60456,143.519231 C201.60456,143.339903 201.588825,143.166826 201.557355,143 L206.739225,143 C206.707755,143.166826 206.69202,143.339903 206.69202,143.519231 C206.69202,144.198721 206.920865,144.782049 207.378563,145.269231 C207.83626,145.756413 208.376101,146 208.9981,146 C209.608363,146 210.14527,145.759618 210.608835,145.278846 C211.072401,144.798075 211.30418,144.211542 211.30418,143.519231 C211.30418,143.339903 211.288241,143.166826 211.256362,143 L216.438845,143 C216.407375,143.166826 216.39164,143.339903 216.39164,143.519231 C216.39164,144.198721 216.620485,144.782049 217.078183,145.269231 C217.53588,145.756413 218.075721,146 218.69772,146 C219.307983,146 219.84489,145.759618 220.308455,145.278846 C220.772021,144.798075 221.0038,144.211542 221.0038,143.519231 C221.0038,143.339903 220.987861,143.166826 220.955982,143 L226.138465,143 C226.106995,143.166826 226.09126,143.339903 226.09126,143.519231 C226.09126,144.198721 226.320105,144.782049 226.777803,145.269231 C227.2355,145.756413 227.775341,146 228.39734,146 C229.019339,146 229.55918,145.756413 230.016877,145.269231 C230.474575,144.782049 230.70342,144.198721 230.70342,143.519231 C230.70342,143.339903 230.687685,143.166826 230.656215,143 L235.838085,143 C235.806615,143.166826 235.79088,143.339903 235.79088,143.519231 C235.79088,144.198721 236.019725,144.782049 236.477423,145.269231 C236.93512,145.756413 237.474961,146 238.09696,146 C238.707223,146 239.24413,145.759618 239.707695,145.278846 C240.171261,144.798075 240.40304,144.211542 240.40304,143.519231 C240.40304,143.339903 240.387101,143.166826 240.355222,143 L245.537705,143 C245.506235,143.166826 245.4905,143.339903 245.4905,143.519231 C245.4905,144.198721 245.719345,144.782049 246.177043,145.269231 C246.63474,145.756413 247.174581,146 247.79658,146 C248.406843,146 248.94375,145.759618 249.407315,145.278846 C249.870881,144.798075 250.10266,144.211542 250.10266,143.519231 C250.10266,143.339903 250.086721,143.166826 250.054842,143 L255.237325,143 C255.205855,143.166826 255.19012,143.339903 255.19012,143.519231 C255.19012,144.198721 255.418965,144.782049 255.876663,145.269231 C256.33436,145.756413 256.874201,146 257.4962,146 C258.118199,146 258.65804,145.756413 259.115737,145.269231 C259.573435,144.782049 259.80228,144.198721 259.80228,143.519231 C259.80228,143.339903 259.786545,143.166826 259.755075,143 L264.936945,143 C264.905475,143.166826 264.88974,143.339903 264.88974,143.519231 C264.88974,144.198721 265.118585,144.782049 265.576283,145.269231 C266.03398,145.756413 266.573821,146 267.19582,146 C267.806083,146 268.34299,145.759618 268.806555,145.278846 C269.270121,144.798075 269.5019,144.211542 269.5019,143.519231 C269.5019,143.339903 269.485961,143.166826 269.454082,143 L274.636565,143 C274.605095,143.166826 274.58936,143.339903 274.58936,143.519231 C274.58936,144.198721 274.818205,144.782049 275.275903,145.269231 C275.7336,145.756413 276.273441,146 276.89544,146 C277.505703,146 278.04261,145.759618 278.506175,145.278846 C278.969741,144.798075 279.20152,144.211542 279.20152,143.519231 C279.20152,143.339903 279.185581,143.166826 279.153702,143 L284.336185,143 C284.304715,143.166826 284.28898,143.339903 284.28898,143.519231 C284.28898,144.198721 284.517825,144.782049 284.975523,145.269231 C285.43322,145.756413 285.97306,146 286.59506,146 C287.217059,146 287.756899,145.756413 288.214597,145.269231 C288.672295,144.782049 288.90114,144.198721 288.90114,143.519231 C288.90114,143.339903 288.885405,143.166826 288.853935,143 L294.035805,143 C294.004335,143.166826 293.9886,143.339903 293.9886,143.519231 C293.9886,144.198721 294.217445,144.782049 294.675143,145.269231 C295.13284,145.756413 295.67268,146 296.29468,146 C296.904943,146 297.44185,145.759618 297.905415,145.278846 C298.368981,144.798075 298.60076,144.211542 298.60076,143.519231 C298.60076,143.339903 298.584821,143.166826 298.552942,143 L303.735425,143 C303.703955,143.166826 303.68822,143.339903 303.68822,143.519231 C303.68822,144.198721 303.917065,144.782049 304.374762,145.269231 C304.83246,145.756413 305.3723,146 305.9943,146 C306.604563,146 307.14147,145.759618 307.605035,145.278846 C308.068601,144.798075 308.30038,144.211542 308.30038,143.519231 C308.30038,143.339903 308.284441,143.166826 308.252562,143 L313.435045,143 C313.403575,143.166826 313.387839,143.339903 313.387839,143.519231 C313.387839,144.198721 313.616685,144.782049 314.074382,145.269231 C314.53208,145.756413 315.07192,146 315.69392,146 C316.315919,146 316.855759,145.756413 317.313457,145.269231 C317.771155,144.782049 318,144.198721 318,143.519231 C318,143.339903 317.984265,143.166826 317.952795,143 L320,143 L320,151 L0,151 L0,143 L3.04720534,143 Z" id="Rectangle-2" fill="#FFFFFF"></path>
        <path d="M22.4464453,5 L17.2639621,5 C17.2958411,5.16682572 17.3117805,5.33990253 17.3117805,5.51923077 C17.3117805,6.21154192 17.0800012,6.79807452 16.6164357,7.27884615 C16.1528702,7.75961779 15.6159637,8 15.0057002,8 C14.3837009,8 13.8438606,7.75641269 13.386163,7.26923077 C12.9284654,6.78204885 12.69962,6.19872135 12.69962,5.51923077 C12.69962,5.33990253 12.7153551,5.16682572 12.7468253,5 L7.5643421,5 C7.59622108,5.16682572 7.6121605,5.33990253 7.6121605,5.51923077 C7.6121605,6.21154192 7.38038122,6.79807452 6.91681569,7.27884615 C6.45325017,7.75961779 5.91634372,8 5.30608025,8 C4.68408094,8 4.14424058,7.75641269 3.68654298,7.26923077 C3.22884537,6.78204885 3,6.19872135 3,5.51923077 C3,5.33990253 3.01573507,5.16682572 3.04720534,5 L0,5 L0,0 L320,0 L320,5 L317.952795,5 C317.984265,5.16682572 318,5.33990253 318,5.51923077 C318,6.19872135 317.771155,6.78204885 317.313457,7.26923077 C316.855759,7.75641269 316.315919,8 315.69392,8 C315.07192,8 314.53208,7.75641269 314.074382,7.26923077 C313.616685,6.78204885 313.387839,6.19872135 313.387839,5.51923077 C313.387839,5.33990253 313.403575,5.16682572 313.435045,5 L308.252562,5 C308.284441,5.16682572 308.30038,5.33990253 308.30038,5.51923077 C308.30038,6.21154192 308.068601,6.79807452 307.605035,7.27884615 C307.14147,7.75961779 306.604563,8 305.9943,8 C305.3723,8 304.83246,7.75641269 304.374762,7.26923077 C303.917065,6.78204885 303.68822,6.19872135 303.68822,5.51923077 C303.68822,5.33990253 303.703955,5.16682572 303.735425,5 L298.552942,5 C298.584821,5.16682572 298.60076,5.33990253 298.60076,5.51923077 C298.60076,6.21154192 298.368981,6.79807452 297.905415,7.27884615 C297.44185,7.75961779 296.904943,8 296.29468,8 C295.67268,8 295.13284,7.75641269 294.675143,7.26923077 C294.217445,6.78204885 293.9886,6.19872135 293.9886,5.51923077 C293.9886,5.33990253 294.004335,5.16682572 294.035805,5 L288.853935,5 C288.885405,5.16682572 288.90114,5.33990253 288.90114,5.51923077 C288.90114,6.19872135 288.672295,6.78204885 288.214597,7.26923077 C287.756899,7.75641269 287.217059,8 286.59506,8 C285.97306,8 285.43322,7.75641269 284.975523,7.26923077 C284.517825,6.78204885 284.28898,6.19872135 284.28898,5.51923077 C284.28898,5.33990253 284.304715,5.16682572 284.336185,5 L279.153702,5 C279.185581,5.16682572 279.20152,5.33990253 279.20152,5.51923077 C279.20152,6.21154192 278.969741,6.79807452 278.506175,7.27884615 C278.04261,7.75961779 277.505703,8 276.89544,8 C276.273441,8 275.7336,7.75641269 275.275903,7.26923077 C274.818205,6.78204885 274.58936,6.19872135 274.58936,5.51923077 C274.58936,5.33990253 274.605095,5.16682572 274.636565,5 L269.454082,5 C269.485961,5.16682572 269.5019,5.33990253 269.5019,5.51923077 C269.5019,6.21154192 269.270121,6.79807452 268.806555,7.27884615 C268.34299,7.75961779 267.806083,8 267.19582,8 C266.573821,8 266.03398,7.75641269 265.576283,7.26923077 C265.118585,6.78204885 264.88974,6.19872135 264.88974,5.51923077 C264.88974,5.33990253 264.905475,5.16682572 264.936945,5 L259.755075,5 C259.786545,5.16682572 259.80228,5.33990253 259.80228,5.51923077 C259.80228,6.19872135 259.573435,6.78204885 259.115737,7.26923077 C258.65804,7.75641269 258.118199,8 257.4962,8 C256.874201,8 256.33436,7.75641269 255.876663,7.26923077 C255.418965,6.78204885 255.19012,6.19872135 255.19012,5.51923077 C255.19012,5.33990253 255.205855,5.16682572 255.237325,5 L250.054842,5 C250.086721,5.16682572 250.10266,5.33990253 250.10266,5.51923077 C250.10266,6.21154192 249.870881,6.79807452 249.407315,7.27884615 C248.94375,7.75961779 248.406843,8 247.79658,8 C247.174581,8 246.63474,7.75641269 246.177043,7.26923077 C245.719345,6.78204885 245.4905,6.19872135 245.4905,5.51923077 C245.4905,5.33990253 245.506235,5.16682572 245.537705,5 L240.355222,5 C240.387101,5.16682572 240.40304,5.33990253 240.40304,5.51923077 C240.40304,6.21154192 240.171261,6.79807452 239.707695,7.27884615 C239.24413,7.75961779 238.707223,8 238.09696,8 C237.474961,8 236.93512,7.75641269 236.477423,7.26923077 C236.019725,6.78204885 235.79088,6.19872135 235.79088,5.51923077 C235.79088,5.33990253 235.806615,5.16682572 235.838085,5 L230.656215,5 C230.687685,5.16682572 230.70342,5.33990253 230.70342,5.51923077 C230.70342,6.19872135 230.474575,6.78204885 230.016877,7.26923077 C229.55918,7.75641269 229.019339,8 228.39734,8 C227.775341,8 227.2355,7.75641269 226.777803,7.26923077 C226.320105,6.78204885 226.09126,6.19872135 226.09126,5.51923077 C226.09126,5.33990253 226.106995,5.16682572 226.138465,5 L220.955982,5 C220.987861,5.16682572 221.0038,5.33990253 221.0038,5.51923077 C221.0038,6.21154192 220.772021,6.79807452 220.308455,7.27884615 C219.84489,7.75961779 219.307983,8 218.69772,8 C218.075721,8 217.53588,7.75641269 217.078183,7.26923077 C216.620485,6.78204885 216.39164,6.19872135 216.39164,5.51923077 C216.39164,5.33990253 216.407375,5.16682572 216.438845,5 L211.256362,5 C211.288241,5.16682572 211.30418,5.33990253 211.30418,5.51923077 C211.30418,6.21154192 211.072401,6.79807452 210.608835,7.27884615 C210.14527,7.75961779 209.608363,8 208.9981,8 C208.376101,8 207.83626,7.75641269 207.378563,7.26923077 C206.920865,6.78204885 206.69202,6.19872135 206.69202,5.51923077 C206.69202,5.33990253 206.707755,5.16682572 206.739225,5 L201.557355,5 C201.588825,5.16682572 201.60456,5.33990253 201.60456,5.51923077 C201.60456,6.19872135 201.375715,6.78204885 200.918017,7.26923077 C200.46032,7.75641269 199.920479,8 199.29848,8 C198.676481,8 198.13664,7.75641269 197.678943,7.26923077 C197.221245,6.78204885 196.9924,6.19872135 196.9924,5.51923077 C196.9924,5.33990253 197.008135,5.16682572 197.039605,5 L191.857122,5 C191.889001,5.16682572 191.90494,5.33990253 191.90494,5.51923077 C191.90494,6.21154192 191.673161,6.79807452 191.209595,7.27884615 C190.74603,7.75961779 190.209123,8 189.59886,8 C188.976861,8 188.43702,7.75641269 187.979323,7.26923077 C187.521625,6.78204885 187.29278,6.19872135 187.29278,5.51923077 C187.29278,5.33990253 187.308515,5.16682572 187.339985,5 L182.157502,5 C182.189381,5.16682572 182.20532,5.33990253 182.20532,5.51923077 C182.20532,6.21154192 181.973541,6.79807452 181.509975,7.27884615 C181.04641,7.75961779 180.509503,8 179.89924,8 C179.277241,8 178.7374,7.75641269 178.279703,7.26923077 C177.822005,6.78204885 177.59316,6.19872135 177.59316,5.51923077 C177.59316,5.33990253 177.608895,5.16682572 177.640365,5 L172.458495,5 C172.489965,5.16682572 172.5057,5.33990253 172.5057,5.51923077 C172.5057,6.19872135 172.276855,6.78204885 171.819157,7.26923077 C171.36146,7.75641269 170.821619,8 170.19962,8 C169.577621,8 169.03778,7.75641269 168.580083,7.26923077 C168.122385,6.78204885 167.89354,6.19872135 167.89354,5.51923077 C167.89354,5.33990253 167.909275,5.16682572 167.940745,5 L162.758262,5 C162.790141,5.16682572 162.80608,5.33990253 162.80608,5.51923077 C162.80608,6.21154192 162.574301,6.79807452 162.110735,7.27884615 C161.64717,7.75961779 161.110263,8 160.5,8 C159.878001,8 159.33816,7.75641269 158.880463,7.26923077 C158.422765,6.78204885 158.19392,6.19872135 158.19392,5.51923077 C158.19392,5.33990253 158.209655,5.16682572 158.241125,5 L153.058642,5 C153.090521,5.16682572 153.10646,5.33990253 153.10646,5.51923077 C153.10646,6.21154192 152.874681,6.79807452 152.411115,7.27884615 C151.94755,7.75961779 151.410643,8 150.80038,8 C150.178381,8 149.63854,7.75641269 149.180843,7.26923077 C148.723145,6.78204885 148.4943,6.19872135 148.4943,5.51923077 C148.4943,5.33990253 148.510035,5.16682572 148.541505,5 L143.359635,5 C143.391105,5.16682572 143.40684,5.33990253 143.40684,5.51923077 C143.40684,6.19872135 143.177995,6.78204885 142.720297,7.26923077 C142.2626,7.75641269 141.722759,8 141.10076,8 C140.478761,8 139.93892,7.75641269 139.481223,7.26923077 C139.023525,6.78204885 138.79468,6.19872135 138.79468,5.51923077 C138.79468,5.33990253 138.810415,5.16682572 138.841885,5 L133.659402,5 C133.691281,5.16682572 133.70722,5.33990253 133.70722,5.51923077 C133.70722,6.21154192 133.475441,6.79807452 133.011875,7.27884615 C132.54831,7.75961779 132.011404,8 131.40114,8 C130.779141,8 130.2393,7.75641269 129.781603,7.26923077 C129.323905,6.78204885 129.09506,6.19872135 129.09506,5.51923077 C129.09506,5.33990253 129.110795,5.16682572 129.142265,5 L123.959782,5 C123.991661,5.16682572 124.0076,5.33990253 124.0076,5.51923077 C124.0076,6.21154192 123.775821,6.79807452 123.312256,7.27884615 C122.84869,7.75961779 122.311784,8 121.70152,8 C121.079521,8 120.53968,7.75641269 120.081983,7.26923077 C119.624285,6.78204885 119.39544,6.19872135 119.39544,5.51923077 C119.39544,5.33990253 119.411175,5.16682572 119.442645,5 L114.260775,5 C114.292245,5.16682572 114.30798,5.33990253 114.30798,5.51923077 C114.30798,6.19872135 114.079135,6.78204885 113.621437,7.26923077 C113.16374,7.75641269 112.623899,8 112.0019,8 C111.379901,8 110.84006,7.75641269 110.382363,7.26923077 C109.924665,6.78204885 109.69582,6.19872135 109.69582,5.51923077 C109.69582,5.33990253 109.711555,5.16682572 109.743025,5 L104.560542,5 C104.592421,5.16682572 104.60836,5.33990253 104.60836,5.51923077 C104.60836,6.21154192 104.376581,6.79807452 103.913016,7.27884615 C103.44945,7.75961779 102.912544,8 102.30228,8 C101.680281,8 101.14044,7.75641269 100.682743,7.26923077 C100.225045,6.78204885 99.9961998,6.19872135 99.9961998,5.51923077 C99.9961998,5.33990253 100.011935,5.16682572 100.043405,5 L94.860922,5 C94.8928009,5.16682572 94.9087404,5.33990253 94.9087404,5.51923077 C94.9087404,6.21154192 94.6769611,6.79807452 94.2133956,7.27884615 C93.74983,7.75961779 93.2129236,8 92.6026601,8 C91.9806608,8 91.4408204,7.75641269 90.9831228,7.26923077 C90.5254252,6.78204885 90.2965799,6.19872135 90.2965799,5.51923077 C90.2965799,5.33990253 90.3123149,5.16682572 90.3437852,5 L85.161915,5 C85.1933853,5.16682572 85.2091204,5.33990253 85.2091204,5.51923077 C85.2091204,6.19872135 84.980275,6.78204885 84.5225774,7.26923077 C84.0648798,7.75641269 83.5250394,8 82.9030401,8 C82.2810408,8 81.7412005,7.75641269 81.2835029,7.26923077 C80.8258052,6.78204885 80.5969599,6.19872135 80.5969599,5.51923077 C80.5969599,5.33990253 80.6126949,5.16682572 80.6441652,5 L75.461682,5 C75.493561,5.16682572 75.5095004,5.33990253 75.5095004,5.51923077 C75.5095004,6.21154192 75.2777211,6.79807452 74.8141556,7.27884615 C74.3505901,7.75961779 73.8136836,8 73.2034201,8 C72.5814208,8 72.0415805,7.75641269 71.5838829,7.26923077 C71.1261853,6.78204885 70.8973399,6.19872135 70.8973399,5.51923077 C70.8973399,5.33990253 70.913075,5.16682572 70.9445452,5 L65.762062,5 C65.793941,5.16682572 65.8098804,5.33990253 65.8098804,5.51923077 C65.8098804,6.21154192 65.5781011,6.79807452 65.1145356,7.27884615 C64.6509701,7.75961779 64.1140636,8 63.5038002,8 C62.8818008,8 62.3419605,7.75641269 61.8842629,7.26923077 C61.4265653,6.78204885 61.1977199,6.19872135 61.1977199,5.51923077 C61.1977199,5.33990253 61.213455,5.16682572 61.2449252,5 L56.0630551,5 C56.0945254,5.16682572 56.1102604,5.33990253 56.1102604,5.51923077 C56.1102604,6.19872135 55.8814151,6.78204885 55.4237174,7.26923077 C54.9660198,7.75641269 54.4261795,8 53.8041802,8 C53.1821809,8 52.6423405,7.75641269 52.1846429,7.26923077 C51.7269453,6.78204885 51.4980999,6.19872135 51.4980999,5.51923077 C51.4980999,5.33990253 51.513835,5.16682572 51.5453053,5 L46.362822,5 C46.394701,5.16682572 46.4106404,5.33990253 46.4106404,5.51923077 C46.4106404,6.21154192 46.1788612,6.79807452 45.7152956,7.27884615 C45.2517301,7.75961779 44.7148237,8 44.1045602,8 C43.4825609,8 42.9427205,7.75641269 42.4850229,7.26923077 C42.0273253,6.78204885 41.7984799,6.19872135 41.7984799,5.51923077 C41.7984799,5.33990253 41.814215,5.16682572 41.8456853,5 L36.6632021,5 C36.695081,5.16682572 36.7110205,5.33990253 36.7110205,5.51923077 C36.7110205,6.21154192 36.4792412,6.79807452 36.0156756,7.27884615 C35.5521101,7.75961779 35.0152037,8 34.4049402,8 C33.7829409,8 33.2431005,7.75641269 32.7854029,7.26923077 C32.3277053,6.78204885 32.09886,6.19872135 32.09886,5.51923077 C32.09886,5.33990253 32.114595,5.16682572 32.1460653,5 L26.9641951,5 C26.9956654,5.16682572 27.0114005,5.33990253 27.0114005,5.51923077 C27.0114005,6.19872135 26.7825551,6.78204885 26.3248575,7.26923077 C25.8671599,7.75641269 25.3273195,8 24.7053202,8 C24.0833209,8 23.5434805,7.75641269 23.0857829,7.26923077 C22.6280853,6.78204885 22.39924,6.19872135 22.39924,5.51923077 C22.39924,5.33990253 22.414975,5.16682572 22.4464453,5 Z" id="Rectangle-2" fill="#FFFFFF"></path>
    </g>
</svg>