<?xml version="1.0" encoding="UTF-8"?>
<svg width="320px" height="1065px" viewBox="0 0 320 1065" version="1.1" xmlns="http://www.w3.org/2000/svg" xmlns:xlink="http://www.w3.org/1999/xlink">
    <!-- Generator: Sketch 54.1 (76490) - https://sketchapp.com -->
    <title>vedangky</title>
    <desc>Created with Sketch.</desc>
    <defs>
        <linearGradient x1="0%" y1="129.745585%" x2="112.37481%" y2="-33.6417308%" id="linearGradient-1">
            <stop stop-color="#1E88E5" offset="0%"></stop>
            <stop stop-color="#039BE5" offset="100%"></stop>
        </linearGradient>
        <path d="M58,651 C53.5889231,651 50,654.588615 50,659 C50,663.411385 53.5889231,667 58,667 C62.4110769,667 66,663.411385 66,659 C66,654.588615 62.4110769,651 58,651 Z M62.46,656.332 L57.5369231,661.870462 C57.4156923,662.006769 57.2467692,662.076923 57.0766154,662.076923 C56.9415385,662.076923 56.8058462,662.032615 56.6923077,661.942154 L53.6153846,659.480615 C53.3501538,659.268615 53.3070769,658.881231 53.5193846,658.615692 C53.7313846,658.350154 54.1190769,658.307077 54.3843077,658.519385 L57.0049231,660.615692 L61.54,655.513846 C61.7652308,655.259692 62.1547692,655.236923 62.4086154,655.462769 C62.6627692,655.688923 62.6858462,656.077846 62.46,656.332 Z" id="path-2"></path>
        <filter x="-12.5%" y="-12.5%" width="125.0%" height="125.0%" filterUnits="objectBoundingBox" id="filter-3">
            <feGaussianBlur stdDeviation="1.5" in="SourceAlpha" result="shadowBlurInner1"></feGaussianBlur>
            <feOffset dx="-1" dy="1" in="shadowBlurInner1" result="shadowOffsetInner1"></feOffset>
            <feComposite in="shadowOffsetInner1" in2="SourceAlpha" operator="arithmetic" k2="-1" k3="1" result="shadowInnerInner1"></feComposite>
            <feColorMatrix values="0 0 0 0 0   0 0 0 0 0   0 0 0 0 0  0 0 0 0.25 0" type="matrix" in="shadowInnerInner1"></feColorMatrix>
        </filter>
        <path d="M58,854 C53.5889231,854 50,857.588615 50,862 C50,866.411385 53.5889231,870 58,870 C62.4110769,870 66,866.411385 66,862 C66,857.588615 62.4110769,854 58,854 Z M58.9357041,857.354259 L58.9357041,863.023185 C58.933636,863.205592 58.8521732,863.369361 58.7237565,863.480992 C58.6218126,863.569611 58.4903359,863.625193 58.3452992,863.631409 L54.4082013,863.792306 C54.0689446,863.806314 53.7822869,863.542212 53.7683086,863.202521 C53.7540981,862.863033 54.0184322,862.576173 54.3578908,862.562397 L57.7109959,862.425222 L57.7109959,857.354259 C57.7142398,857.014682 58.0055507,856.696206 58.3452992,856.700117 C58.6854818,856.704057 58.9394125,857.014278 58.9357041,857.354259 Z" id="path-4"></path>
        <filter x="-12.5%" y="-12.5%" width="125.0%" height="125.0%" filterUnits="objectBoundingBox" id="filter-5">
            <feGaussianBlur stdDeviation="1.5" in="SourceAlpha" result="shadowBlurInner1"></feGaussianBlur>
            <feOffset dx="-1" dy="1" in="shadowBlurInner1" result="shadowOffsetInner1"></feOffset>
            <feComposite in="shadowOffsetInner1" in2="SourceAlpha" operator="arithmetic" k2="-1" k3="1" result="shadowInnerInner1"></feComposite>
            <feColorMatrix values="0 0 0 0 0   0 0 0 0 0   0 0 0 0 0  0 0 0 0.25 0" type="matrix" in="shadowInnerInner1"></feColorMatrix>
        </filter>
    </defs>
    <g id="vedangky" stroke="none" stroke-width="1" fill="none" fill-rule="evenodd">
        <g id="Shape">
            <use fill="url(#linearGradient-1)" fill-rule="evenodd" xlink:href="#path-2"></use>
            <use fill="black" fill-opacity="1" filter="url(#filter-3)" xlink:href="#path-2"></use>
        </g>
        <rect id="Rectangle" fill="#F0F6FA" x="0" y="4" width="320" height="127"></rect>
        <text id="Phí-khởi-tạo" font-family="SFCompactDisplay-Semibold, SF Compact Display" font-size="18" font-weight="500" letter-spacing="-0.720000029" fill="#343D51">
            <tspan x="50" y="554">Phí khởi tạo</tspan>
        </text>
        <text id="1.280.000-VND" font-family="Oswald-Regular_Medium, Oswald" font-size="24" font-weight="400" letter-spacing="-1.2" fill="#1E88E5">
            <tspan x="80" y="666">1.280.000 VND</tspan>
        </text>
        <text id="Dành-cho-hoạt-động-t" font-family="SFCompactDisplay-Regular, SF Compact Display" font-size="16" font-weight="normal" line-spacing="21" fill="#343D51">
            <tspan x="50" y="581">Dành cho hoạt động thiết kế &amp; </tspan>
            <tspan x="50" y="602">khởi tạo Chương trình của bạn từ </tspan>
            <tspan x="50" y="623">các Chuyên gia. </tspan>
        </text>
        <polygon id="Triangle" fill="#343D51" points="32 542 32 700 30 700 30 542"></polygon>
        <text id="Thanh-toán-khi-Đăng" font-family="SFCompactDisplay-Regular, SF Compact Display" font-size="16" font-weight="normal" fill="#5D6A80">
            <tspan x="80" y="696">Thanh toán khi Đăng ký.</tspan>
        </text>
        <text id="Phí-vận-hành" opacity="0.64" font-family="SFCompactDisplay-Semibold, SF Compact Display" font-size="18" font-weight="500" letter-spacing="-0.720000029" fill="#5D6A80">
            <tspan x="50" y="757">Phí vận hành</tspan>
        </text>
        <text id="980.000-VND-/-THÁNG" opacity="0.64" font-family="Oswald-Regular_Medium, Oswald" font-size="24" font-weight="400" letter-spacing="-1.2" fill="#5D6A80">
            <tspan x="80" y="869">980.000 VND / THÁNG </tspan>
        </text>
        <text id="……………………………………………………" font-family="Georgia-Italic, Georgia" font-size="14" font-style="italic" font-weight="normal" fill="#DADFE7">
            <tspan x="30" y="415">……………………………………………………………</tspan>
        </text>
        <text id="Dành-cho-hoạt-động-v" opacity="0.64" font-family="SFCompactDisplay-Regular, SF Compact Display" font-size="16" font-weight="normal" line-spacing="21" fill="#5D6A80">
            <tspan x="50" y="784">Dành cho hoạt động vận hành </tspan>
            <tspan x="50" y="805">Chương trình của bạn bởi các </tspan>
            <tspan x="50" y="826">Chuyên gia </tspan>
        </text>
        <text id="Thanh-toán-sau-theo" opacity="0.64" font-family="SFCompactDisplay-Regular, SF Compact Display" font-size="16" font-weight="normal" line-spacing="21" fill="#5D6A80">
            <tspan x="80" y="899">Thanh toán sau theo thời gian </tspan>
            <tspan x="80" y="920">ở trong Chương trình.</tspan>
        </text>
        <g id="Shape" opacity="0.64">
            <use fill="#8C96A8" fill-rule="evenodd" xlink:href="#path-4"></use>
            <use fill="black" fill-opacity="1" filter="url(#filter-5)" xlink:href="#path-4"></use>
        </g>
        <text id="Điều-kiện-đăng-ký" font-family="SFCompactDisplay-Semibold, SF Compact Display" font-size="18" font-weight="500" letter-spacing="-0.720000029" fill="#343D51">
            <tspan x="30" y="303">Điều kiện đăng ký</tspan>
        </text>
        <text id="Bạn-hiện-đang-sinh-s" font-family="SFCompactDisplay-Regular, SF Compact Display" font-size="16" font-weight="normal" line-spacing="21" fill="#343D51">
            <tspan x="30" y="334">Bạn hiện đang sinh sống làm việc tại </tspan>
            <tspan x="30" y="355">Việt Nam có độ tuổi 20 - 45 &amp; hiện </tspan>
            <tspan x="30" y="376">đang độc thân.</tspan>
        </text>
        <text id=".-.-.-.-.-.-.-.-.-." opacity="0.64" font-family="Georgia-Bold, Georgia" font-size="16" font-weight="bold" line-spacing="8" fill="#5D6A80">
            <tspan x="29" y="746">.</tspan>
            <tspan x="29" y="754">.</tspan>
            <tspan x="29" y="762">.</tspan>
            <tspan x="29" y="770">.</tspan>
            <tspan x="29" y="778">.</tspan>
            <tspan x="29" y="786">.</tspan>
            <tspan x="29" y="794">.</tspan>
            <tspan x="29" y="802">.</tspan>
            <tspan x="29" y="810">.</tspan>
            <tspan x="29" y="818">.</tspan>
            <tspan x="29" y="826">.</tspan>
            <tspan x="29" y="834">.</tspan>
            <tspan x="29" y="842">.</tspan>
            <tspan x="29" y="850">.</tspan>
            <tspan x="29" y="858">.</tspan>
            <tspan x="29" y="866">.</tspan>
            <tspan x="29" y="874">.</tspan>
            <tspan x="29" y="882">.</tspan>
            <tspan x="29" y="890">.</tspan>
            <tspan x="29" y="898">.</tspan>
            <tspan x="29" y="906">.</tspan>
            <tspan x="29" y="914">.</tspan>
            <tspan x="29" y="922">.</tspan>
        </text>
        <text id="Tìm-hiểu-thêm-về-phí" font-family="SFCompactDisplay-Semibold, SF Compact Display" font-size="20" font-weight="500" letter-spacing="-1" fill="#343D51">
            <tspan x="50" y="985">Tìm hiểu thêm về phí Chương </tspan>
            <tspan x="50" y="1009">trình.</tspan>
        </text>
        <text id="*" font-family="Georgia-Bold, Georgia" font-size="26" font-weight="bold" fill="#343D51">
            <tspan x="26" y="991">*</tspan>
        </text>
        <text id="&gt;-Click-để-tìm-hiểu" font-family="Georgia-Italic, Georgia" font-size="16" font-style="italic" font-weight="normal" fill="#64B5F6">
            <tspan x="50" y="1041">&gt; Click để tìm hiểu &lt;</tspan>
        </text>
        <text id="Về-chương-trình" font-family="SFCompactDisplay-Semibold, SF Compact Display" font-size="18" font-weight="500" letter-spacing="-0.720000029" fill="#343D51">
            <tspan x="30" y="463">Về chương trình</tspan>
        </text>
        <text id="Chanchan-là-Chương-t" font-family="SFCompactDisplay-Regular, SF Compact Display" font-size="16" font-weight="normal" line-spacing="21" fill="#343D51">
            <tspan x="30" y="494">Chanchan là Chương trình trả phí. Phí </tspan>
            <tspan x="30" y="515">chương trình gồm có</tspan>
        </text>
        <text id="—-Thông-tin-bạn-cần" font-family="Georgia-Italic, Georgia" font-size="15" font-style="italic" font-weight="normal" line-spacing="20" fill="#556279">
            <tspan x="30" y="228">— Thông tin bạn cần biết trước khi </tspan>
            <tspan x="30" y="248">Đăng ký.</tspan>
        </text>
        <text id="Về-đăng-ký" font-family="SFCompactDisplay-Semibold, SF Compact Display" font-size="26" font-weight="500" letter-spacing="-1.56" fill="#343D51">
            <tspan x="30" y="196">Về đăng ký</tspan>
        </text>
        <path d="M22.4464453,132 L17.2639621,132 C17.2958411,132.166826 17.3117805,132.339903 17.3117805,132.519231 C17.3117805,133.211542 17.0800012,133.798075 16.6164357,134.278846 C16.1528702,134.759618 15.6159637,135 15.0057002,135 C14.3837009,135 13.8438606,134.756413 13.386163,134.269231 C12.9284654,133.782049 12.69962,133.198721 12.69962,132.519231 C12.69962,132.339903 12.7153551,132.166826 12.7468253,132 L7.5643421,132 C7.59622108,132.166826 7.6121605,132.339903 7.6121605,132.519231 C7.6121605,133.211542 7.38038122,133.798075 6.91681569,134.278846 C6.45325017,134.759618 5.91634372,135 5.30608025,135 C4.68408094,135 4.14424058,134.756413 3.68654298,134.269231 C3.22884537,133.782049 3,133.198721 3,132.519231 C3,132.339903 3.01573507,132.166826 3.04720534,132 L0,132 L0,127 L320,127 L320,132 L317.952795,132 C317.984265,132.166826 318,132.339903 318,132.519231 C318,133.198721 317.771155,133.782049 317.313457,134.269231 C316.855759,134.756413 316.315919,135 315.69392,135 C315.07192,135 314.53208,134.756413 314.074382,134.269231 C313.616685,133.782049 313.387839,133.198721 313.387839,132.519231 C313.387839,132.339903 313.403575,132.166826 313.435045,132 L308.252562,132 C308.284441,132.166826 308.30038,132.339903 308.30038,132.519231 C308.30038,133.211542 308.068601,133.798075 307.605035,134.278846 C307.14147,134.759618 306.604563,135 305.9943,135 C305.3723,135 304.83246,134.756413 304.374762,134.269231 C303.917065,133.782049 303.68822,133.198721 303.68822,132.519231 C303.68822,132.339903 303.703955,132.166826 303.735425,132 L298.552942,132 C298.584821,132.166826 298.60076,132.339903 298.60076,132.519231 C298.60076,133.211542 298.368981,133.798075 297.905415,134.278846 C297.44185,134.759618 296.904943,135 296.29468,135 C295.67268,135 295.13284,134.756413 294.675143,134.269231 C294.217445,133.782049 293.9886,133.198721 293.9886,132.519231 C293.9886,132.339903 294.004335,132.166826 294.035805,132 L288.853935,132 C288.885405,132.166826 288.90114,132.339903 288.90114,132.519231 C288.90114,133.198721 288.672295,133.782049 288.214597,134.269231 C287.756899,134.756413 287.217059,135 286.59506,135 C285.97306,135 285.43322,134.756413 284.975523,134.269231 C284.517825,133.782049 284.28898,133.198721 284.28898,132.519231 C284.28898,132.339903 284.304715,132.166826 284.336185,132 L279.153702,132 C279.185581,132.166826 279.20152,132.339903 279.20152,132.519231 C279.20152,133.211542 278.969741,133.798075 278.506175,134.278846 C278.04261,134.759618 277.505703,135 276.89544,135 C276.273441,135 275.7336,134.756413 275.275903,134.269231 C274.818205,133.782049 274.58936,133.198721 274.58936,132.519231 C274.58936,132.339903 274.605095,132.166826 274.636565,132 L269.454082,132 C269.485961,132.166826 269.5019,132.339903 269.5019,132.519231 C269.5019,133.211542 269.270121,133.798075 268.806555,134.278846 C268.34299,134.759618 267.806083,135 267.19582,135 C266.573821,135 266.03398,134.756413 265.576283,134.269231 C265.118585,133.782049 264.88974,133.198721 264.88974,132.519231 C264.88974,132.339903 264.905475,132.166826 264.936945,132 L259.755075,132 C259.786545,132.166826 259.80228,132.339903 259.80228,132.519231 C259.80228,133.198721 259.573435,133.782049 259.115737,134.269231 C258.65804,134.756413 258.118199,135 257.4962,135 C256.874201,135 256.33436,134.756413 255.876663,134.269231 C255.418965,133.782049 255.19012,133.198721 255.19012,132.519231 C255.19012,132.339903 255.205855,132.166826 255.237325,132 L250.054842,132 C250.086721,132.166826 250.10266,132.339903 250.10266,132.519231 C250.10266,133.211542 249.870881,133.798075 249.407315,134.278846 C248.94375,134.759618 248.406843,135 247.79658,135 C247.174581,135 246.63474,134.756413 246.177043,134.269231 C245.719345,133.782049 245.4905,133.198721 245.4905,132.519231 C245.4905,132.339903 245.506235,132.166826 245.537705,132 L240.355222,132 C240.387101,132.166826 240.40304,132.339903 240.40304,132.519231 C240.40304,133.211542 240.171261,133.798075 239.707695,134.278846 C239.24413,134.759618 238.707223,135 238.09696,135 C237.474961,135 236.93512,134.756413 236.477423,134.269231 C236.019725,133.782049 235.79088,133.198721 235.79088,132.519231 C235.79088,132.339903 235.806615,132.166826 235.838085,132 L230.656215,132 C230.687685,132.166826 230.70342,132.339903 230.70342,132.519231 C230.70342,133.198721 230.474575,133.782049 230.016877,134.269231 C229.55918,134.756413 229.019339,135 228.39734,135 C227.775341,135 227.2355,134.756413 226.777803,134.269231 C226.320105,133.782049 226.09126,133.198721 226.09126,132.519231 C226.09126,132.339903 226.106995,132.166826 226.138465,132 L220.955982,132 C220.987861,132.166826 221.0038,132.339903 221.0038,132.519231 C221.0038,133.211542 220.772021,133.798075 220.308455,134.278846 C219.84489,134.759618 219.307983,135 218.69772,135 C218.075721,135 217.53588,134.756413 217.078183,134.269231 C216.620485,133.782049 216.39164,133.198721 216.39164,132.519231 C216.39164,132.339903 216.407375,132.166826 216.438845,132 L211.256362,132 C211.288241,132.166826 211.30418,132.339903 211.30418,132.519231 C211.30418,133.211542 211.072401,133.798075 210.608835,134.278846 C210.14527,134.759618 209.608363,135 208.9981,135 C208.376101,135 207.83626,134.756413 207.378563,134.269231 C206.920865,133.782049 206.69202,133.198721 206.69202,132.519231 C206.69202,132.339903 206.707755,132.166826 206.739225,132 L201.557355,132 C201.588825,132.166826 201.60456,132.339903 201.60456,132.519231 C201.60456,133.198721 201.375715,133.782049 200.918017,134.269231 C200.46032,134.756413 199.920479,135 199.29848,135 C198.676481,135 198.13664,134.756413 197.678943,134.269231 C197.221245,133.782049 196.9924,133.198721 196.9924,132.519231 C196.9924,132.339903 197.008135,132.166826 197.039605,132 L191.857122,132 C191.889001,132.166826 191.90494,132.339903 191.90494,132.519231 C191.90494,133.211542 191.673161,133.798075 191.209595,134.278846 C190.74603,134.759618 190.209123,135 189.59886,135 C188.976861,135 188.43702,134.756413 187.979323,134.269231 C187.521625,133.782049 187.29278,133.198721 187.29278,132.519231 C187.29278,132.339903 187.308515,132.166826 187.339985,132 L182.157502,132 C182.189381,132.166826 182.20532,132.339903 182.20532,132.519231 C182.20532,133.211542 181.973541,133.798075 181.509975,134.278846 C181.04641,134.759618 180.509503,135 179.89924,135 C179.277241,135 178.7374,134.756413 178.279703,134.269231 C177.822005,133.782049 177.59316,133.198721 177.59316,132.519231 C177.59316,132.339903 177.608895,132.166826 177.640365,132 L172.458495,132 C172.489965,132.166826 172.5057,132.339903 172.5057,132.519231 C172.5057,133.198721 172.276855,133.782049 171.819157,134.269231 C171.36146,134.756413 170.821619,135 170.19962,135 C169.577621,135 169.03778,134.756413 168.580083,134.269231 C168.122385,133.782049 167.89354,133.198721 167.89354,132.519231 C167.89354,132.339903 167.909275,132.166826 167.940745,132 L162.758262,132 C162.790141,132.166826 162.80608,132.339903 162.80608,132.519231 C162.80608,133.211542 162.574301,133.798075 162.110735,134.278846 C161.64717,134.759618 161.110263,135 160.5,135 C159.878001,135 159.33816,134.756413 158.880463,134.269231 C158.422765,133.782049 158.19392,133.198721 158.19392,132.519231 C158.19392,132.339903 158.209655,132.166826 158.241125,132 L153.058642,132 C153.090521,132.166826 153.10646,132.339903 153.10646,132.519231 C153.10646,133.211542 152.874681,133.798075 152.411115,134.278846 C151.94755,134.759618 151.410643,135 150.80038,135 C150.178381,135 149.63854,134.756413 149.180843,134.269231 C148.723145,133.782049 148.4943,133.198721 148.4943,132.519231 C148.4943,132.339903 148.510035,132.166826 148.541505,132 L143.359635,132 C143.391105,132.166826 143.40684,132.339903 143.40684,132.519231 C143.40684,133.198721 143.177995,133.782049 142.720297,134.269231 C142.2626,134.756413 141.722759,135 141.10076,135 C140.478761,135 139.93892,134.756413 139.481223,134.269231 C139.023525,133.782049 138.79468,133.198721 138.79468,132.519231 C138.79468,132.339903 138.810415,132.166826 138.841885,132 L133.659402,132 C133.691281,132.166826 133.70722,132.339903 133.70722,132.519231 C133.70722,133.211542 133.475441,133.798075 133.011875,134.278846 C132.54831,134.759618 132.011404,135 131.40114,135 C130.779141,135 130.2393,134.756413 129.781603,134.269231 C129.323905,133.782049 129.09506,133.198721 129.09506,132.519231 C129.09506,132.339903 129.110795,132.166826 129.142265,132 L123.959782,132 C123.991661,132.166826 124.0076,132.339903 124.0076,132.519231 C124.0076,133.211542 123.775821,133.798075 123.312256,134.278846 C122.84869,134.759618 122.311784,135 121.70152,135 C121.079521,135 120.53968,134.756413 120.081983,134.269231 C119.624285,133.782049 119.39544,133.198721 119.39544,132.519231 C119.39544,132.339903 119.411175,132.166826 119.442645,132 L114.260775,132 C114.292245,132.166826 114.30798,132.339903 114.30798,132.519231 C114.30798,133.198721 114.079135,133.782049 113.621437,134.269231 C113.16374,134.756413 112.623899,135 112.0019,135 C111.379901,135 110.84006,134.756413 110.382363,134.269231 C109.924665,133.782049 109.69582,133.198721 109.69582,132.519231 C109.69582,132.339903 109.711555,132.166826 109.743025,132 L104.560542,132 C104.592421,132.166826 104.60836,132.339903 104.60836,132.519231 C104.60836,133.211542 104.376581,133.798075 103.913016,134.278846 C103.44945,134.759618 102.912544,135 102.30228,135 C101.680281,135 101.14044,134.756413 100.682743,134.269231 C100.225045,133.782049 99.9961998,133.198721 99.9961998,132.519231 C99.9961998,132.339903 100.011935,132.166826 100.043405,132 L94.860922,132 C94.8928009,132.166826 94.9087404,132.339903 94.9087404,132.519231 C94.9087404,133.211542 94.6769611,133.798075 94.2133956,134.278846 C93.74983,134.759618 93.2129236,135 92.6026601,135 C91.9806608,135 91.4408204,134.756413 90.9831228,134.269231 C90.5254252,133.782049 90.2965799,133.198721 90.2965799,132.519231 C90.2965799,132.339903 90.3123149,132.166826 90.3437852,132 L85.161915,132 C85.1933853,132.166826 85.2091204,132.339903 85.2091204,132.519231 C85.2091204,133.198721 84.980275,133.782049 84.5225774,134.269231 C84.0648798,134.756413 83.5250394,135 82.9030401,135 C82.2810408,135 81.7412005,134.756413 81.2835029,134.269231 C80.8258052,133.782049 80.5969599,133.198721 80.5969599,132.519231 C80.5969599,132.339903 80.6126949,132.166826 80.6441652,132 L75.461682,132 C75.493561,132.166826 75.5095004,132.339903 75.5095004,132.519231 C75.5095004,133.211542 75.2777211,133.798075 74.8141556,134.278846 C74.3505901,134.759618 73.8136836,135 73.2034201,135 C72.5814208,135 72.0415805,134.756413 71.5838829,134.269231 C71.1261853,133.782049 70.8973399,133.198721 70.8973399,132.519231 C70.8973399,132.339903 70.913075,132.166826 70.9445452,132 L65.762062,132 C65.793941,132.166826 65.8098804,132.339903 65.8098804,132.519231 C65.8098804,133.211542 65.5781011,133.798075 65.1145356,134.278846 C64.6509701,134.759618 64.1140636,135 63.5038002,135 C62.8818008,135 62.3419605,134.756413 61.8842629,134.269231 C61.4265653,133.782049 61.1977199,133.198721 61.1977199,132.519231 C61.1977199,132.339903 61.213455,132.166826 61.2449252,132 L56.0630551,132 C56.0945254,132.166826 56.1102604,132.339903 56.1102604,132.519231 C56.1102604,133.198721 55.8814151,133.782049 55.4237174,134.269231 C54.9660198,134.756413 54.4261795,135 53.8041802,135 C53.1821809,135 52.6423405,134.756413 52.1846429,134.269231 C51.7269453,133.782049 51.4980999,133.198721 51.4980999,132.519231 C51.4980999,132.339903 51.513835,132.166826 51.5453053,132 L46.362822,132 C46.394701,132.166826 46.4106404,132.339903 46.4106404,132.519231 C46.4106404,133.211542 46.1788612,133.798075 45.7152956,134.278846 C45.2517301,134.759618 44.7148237,135 44.1045602,135 C43.4825609,135 42.9427205,134.756413 42.4850229,134.269231 C42.0273253,133.782049 41.7984799,133.198721 41.7984799,132.519231 C41.7984799,132.339903 41.814215,132.166826 41.8456853,132 L36.6632021,132 C36.695081,132.166826 36.7110205,132.339903 36.7110205,132.519231 C36.7110205,133.211542 36.4792412,133.798075 36.0156756,134.278846 C35.5521101,134.759618 35.0152037,135 34.4049402,135 C33.7829409,135 33.2431005,134.756413 32.7854029,134.269231 C32.3277053,133.782049 32.09886,133.198721 32.09886,132.519231 C32.09886,132.339903 32.114595,132.166826 32.1460653,132 L26.9641951,132 C26.9956654,132.166826 27.0114005,132.339903 27.0114005,132.519231 C27.0114005,133.198721 26.7825551,133.782049 26.3248575,134.269231 C25.8671599,134.756413 25.3273195,135 24.7053202,135 C24.0833209,135 23.5434805,134.756413 23.0857829,134.269231 C22.6280853,133.782049 22.39924,133.198721 22.39924,132.519231 C22.39924,132.339903 22.414975,132.166826 22.4464453,132 Z" id="Rectangle-2" fill="#F0F6FA"></path>
        <text id="Hãy-chắc-chắn-rằng-b" font-family="SFCompactDisplay-Regular, SF Compact Display" font-size="16" font-weight="normal" line-spacing="21" fill="#5D6A80">
            <tspan x="30" y="51">Hãy chắc chắn rằng bạn đồng ý với </tspan>
            <tspan x="30" y="72">Chanchan về nội dung dưới đây trước </tspan>
            <tspan x="30" y="93">khi đăng ký.</tspan>
        </text>
        <path d="M3.04720534,1.02312603e-11 C3.01573507,0.166825717 3,0.339902531 3,0.519230769 C3,1.19872135 3.22884537,1.78204885 3.68654298,2.26923077 C4.14424058,2.75641269 4.68408094,3 5.30608025,3 C5.91634372,3 6.45325017,2.75961779 6.91681569,2.27884615 C7.38038122,1.79807452 7.6121605,1.21154192 7.6121605,0.519230769 C7.6121605,0.339902531 7.59622108,0.166825717 7.5643421,1.02316766e-11 L12.7468253,1.02318154e-11 C12.7153551,0.166825717 12.69962,0.339902531 12.69962,0.519230769 C12.69962,1.19872135 12.9284654,1.78204885 13.386163,2.26923077 C13.8438606,2.75641269 14.3837009,3 15.0057002,3 C15.6159637,3 16.1528702,2.75961779 16.6164357,2.27884615 C17.0800012,1.79807452 17.3117805,1.21154192 17.3117805,0.519230769 C17.3117805,0.339902531 17.2958411,0.166825717 17.2639621,1.02318709e-11 L22.4464453,1.02318154e-11 C22.414975,0.166825717 22.39924,0.339902531 22.39924,0.519230769 C22.39924,1.19872135 22.6280853,1.78204885 23.0857829,2.26923077 C23.5434805,2.75641269 24.0833209,3 24.7053202,3 C25.3273195,3 25.8671599,2.75641269 26.3248575,2.26923077 C26.7825551,1.78204885 27.0114005,1.19872135 27.0114005,0.519230769 C27.0114005,0.339902531 26.9956654,0.166825717 26.9641951,1.02316766e-11 L32.1460653,1.02318154e-11 C32.114595,0.166825717 32.09886,0.339902531 32.09886,0.519230769 C32.09886,1.19872135 32.3277053,1.78204885 32.7854029,2.26923077 C33.2431005,2.75641269 33.7829409,3 34.4049402,3 C35.0152037,3 35.5521101,2.75961779 36.0156756,2.27884615 C36.4792412,1.79807452 36.7110205,1.21154192 36.7110205,0.519230769 C36.7110205,0.339902531 36.695081,0.166825717 36.6632021,1.02318709e-11 L41.8456853,1.02318154e-11 C41.814215,0.166825717 41.7984799,0.339902531 41.7984799,0.519230769 C41.7984799,1.19872135 42.0273253,1.78204885 42.4850229,2.26923077 C42.9427205,2.75641269 43.4825609,3 44.1045602,3 C44.7148237,3 45.2517301,2.75961779 45.7152956,2.27884615 C46.1788612,1.79807452 46.4106404,1.21154192 46.4106404,0.519230769 C46.4106404,0.339902531 46.394701,0.166825717 46.362822,1.02316766e-11 L51.5453053,1.02318154e-11 C51.513835,0.166825717 51.4980999,0.339902531 51.4980999,0.519230769 C51.4980999,1.19872135 51.7269453,1.78204885 52.1846429,2.26923077 C52.6423405,2.75641269 53.1821809,3 53.8041802,3 C54.4261795,3 54.9660198,2.75641269 55.4237174,2.26923077 C55.8814151,1.78204885 56.1102604,1.19872135 56.1102604,0.519230769 C56.1102604,0.339902531 56.0945254,0.166825717 56.0630551,1.02316766e-11 L61.2449252,1.02318154e-11 C61.213455,0.166825717 61.1977199,0.339902531 61.1977199,0.519230769 C61.1977199,1.19872135 61.4265653,1.78204885 61.8842629,2.26923077 C62.3419605,2.75641269 62.8818008,3 63.5038002,3 C64.1140636,3 64.6509701,2.75961779 65.1145356,2.27884615 C65.5781011,1.79807452 65.8098804,1.21154192 65.8098804,0.519230769 C65.8098804,0.339902531 65.793941,0.166825717 65.762062,1.02318709e-11 L70.9445452,1.02318154e-11 C70.913075,0.166825717 70.8973399,0.339902531 70.8973399,0.519230769 C70.8973399,1.19872135 71.1261853,1.78204885 71.5838829,2.26923077 C72.0415805,2.75641269 72.5814208,3 73.2034201,3 C73.8136836,3 74.3505901,2.75961779 74.8141556,2.27884615 C75.2777211,1.79807452 75.5095004,1.21154192 75.5095004,0.519230769 C75.5095004,0.339902531 75.493561,0.166825717 75.461682,1.01998965e-11 L80.6441652,1.02318154e-11 C80.6126949,0.166825717 80.5969599,0.339902531 80.5969599,0.519230769 C80.5969599,1.19872135 80.8258052,1.78204885 81.2835029,2.26923077 C81.7412005,2.75641269 82.2810408,3 82.9030401,3 C83.5250394,3 84.0648798,2.75641269 84.5225774,2.26923077 C84.980275,1.78204885 85.2091204,1.19872135 85.2091204,0.519230769 C85.2091204,0.339902531 85.1933853,0.166825717 85.161915,1.02380188e-11 L90.3437852,1.02318154e-11 C90.3123149,0.166825717 90.2965799,0.339902531 90.2965799,0.519230769 C90.2965799,1.19872135 90.5254252,1.78204885 90.9831228,2.26923077 C91.4408204,2.75641269 91.9806608,3 92.6026601,3 C93.2129236,3 93.74983,2.75961779 94.2133956,2.27884615 C94.6769611,1.79807452 94.9087404,1.21154192 94.9087404,0.519230769 C94.9087404,0.339902531 94.8928009,0.166825717 94.860922,1.02316766e-11 L100.043405,1.02318154e-11 C100.011935,0.166825717 99.9961998,0.339902531 99.9961998,0.519230769 C99.9961998,1.19872135 100.225045,1.78204885 100.682743,2.26923077 C101.14044,2.75641269 101.680281,3 102.30228,3 C102.912544,3 103.44945,2.75961779 103.913016,2.27884615 C104.376581,1.79807452 104.60836,1.21154192 104.60836,0.519230769 C104.60836,0.339902531 104.592421,0.166825717 104.560542,1.01998965e-11 L109.743025,1.02318154e-11 C109.711555,0.166825717 109.69582,0.339902531 109.69582,0.519230769 C109.69582,1.19872135 109.924665,1.78204885 110.382363,2.26923077 C110.84006,2.75641269 111.379901,3 112.0019,3 C112.623899,3 113.16374,2.75641269 113.621437,2.26923077 C114.079135,1.78204885 114.30798,1.19872135 114.30798,0.519230769 C114.30798,0.339902531 114.292245,0.166825717 114.260775,1.01942205e-11 L119.442645,1.02318154e-11 C119.411175,0.166825717 119.39544,0.339902531 119.39544,0.519230769 C119.39544,1.19872135 119.624285,1.78204885 120.081983,2.26923077 C120.53968,2.75641269 121.079521,3 121.70152,3 C122.311784,3 122.84869,2.75961779 123.312256,2.27884615 C123.775821,1.79807452 124.0076,1.21154192 124.0076,0.519230769 C124.0076,0.339902531 123.991661,0.166825717 123.959782,1.02316766e-11 L129.142265,1.02318154e-11 C129.110795,0.166825717 129.09506,0.339902531 129.09506,0.519230769 C129.09506,1.19872135 129.323905,1.78204885 129.781603,2.26923077 C130.2393,2.75641269 130.779141,3 131.40114,3 C132.011404,3 132.54831,2.75961779 133.011875,2.27884615 C133.475441,1.79807452 133.70722,1.21154192 133.70722,0.519230769 C133.70722,0.339902531 133.691281,0.166825717 133.659402,1.02316766e-11 L138.841885,1.02318154e-11 C138.810415,0.166825717 138.79468,0.339902531 138.79468,0.519230769 C138.79468,1.19872135 139.023525,1.78204885 139.481223,2.26923077 C139.93892,2.75641269 140.478761,3 141.10076,3 C141.722759,3 142.2626,2.75641269 142.720297,2.26923077 C143.177995,1.78204885 143.40684,1.19872135 143.40684,0.519230769 C143.40684,0.339902531 143.391105,0.166825717 143.359635,1.02318709e-11 L148.541505,1.02318154e-11 C148.510035,0.166825717 148.4943,0.339902531 148.4943,0.519230769 C148.4943,1.19872135 148.723145,1.78204885 149.180843,2.26923077 C149.63854,2.75641269 150.178381,3 150.80038,3 C151.410643,3 151.94755,2.75961779 152.411115,2.27884615 C152.874681,1.79807452 153.10646,1.21154192 153.10646,0.519230769 C153.10646,0.339902531 153.090521,0.166825717 153.058642,1.02316766e-11 L158.241125,1.02318154e-11 C158.209655,0.166825717 158.19392,0.339902531 158.19392,0.519230769 C158.19392,1.19872135 158.422765,1.78204885 158.880463,2.26923077 C159.33816,2.75641269 159.878001,3 160.5,3 C161.110263,3 161.64717,2.75961779 162.110735,2.27884615 C162.574301,1.79807452 162.80608,1.21154192 162.80608,0.519230769 C162.80608,0.339902531 162.790141,0.166825717 162.758262,1.02394482e-11 L167.940745,1.02318154e-11 C167.909275,0.166825717 167.89354,0.339902531 167.89354,0.519230769 C167.89354,1.19872135 168.122385,1.78204885 168.580083,2.26923077 C169.03778,2.75641269 169.577621,3 170.19962,3 C170.821619,3 171.36146,2.75641269 171.819157,2.26923077 C172.276855,1.78204885 172.5057,1.19872135 172.5057,0.519230769 C172.5057,0.339902531 172.489965,0.166825717 172.458495,1.02318709e-11 L177.640365,1.02318154e-11 C177.608895,0.166825717 177.59316,0.339902531 177.59316,0.519230769 C177.59316,1.19872135 177.822005,1.78204885 178.279703,2.26923077 C178.7374,2.75641269 179.277241,3 179.89924,3 C180.509503,3 181.04641,2.75961779 181.509975,2.27884615 C181.973541,1.79807452 182.20532,1.21154192 182.20532,0.519230769 C182.20532,0.339902531 182.189381,0.166825717 182.157502,1.02318709e-11 L187.339985,1.02318154e-11 C187.308515,0.166825717 187.29278,0.339902531 187.29278,0.519230769 C187.29278,1.19872135 187.521625,1.78204885 187.979323,2.26923077 C188.43702,2.75641269 188.976861,3 189.59886,3 C190.209123,3 190.74603,2.75961779 191.209595,2.27884615 C191.673161,1.79807452 191.90494,1.21154192 191.90494,0.519230769 C191.90494,0.339902531 191.889001,0.166825717 191.857122,1.02316766e-11 L197.039605,1.02318154e-11 C197.008135,0.166825717 196.9924,0.339902531 196.9924,0.519230769 C196.9924,1.19872135 197.221245,1.78204885 197.678943,2.26923077 C198.13664,2.75641269 198.676481,3 199.29848,3 C199.920479,3 200.46032,2.75641269 200.918017,2.26923077 C201.375715,1.78204885 201.60456,1.19872135 201.60456,0.519230769 C201.60456,0.339902531 201.588825,0.166825717 201.557355,1.02316766e-11 L206.739225,1.02318154e-11 C206.707755,0.166825717 206.69202,0.339902531 206.69202,0.519230769 C206.69202,1.19872135 206.920865,1.78204885 207.378563,2.26923077 C207.83626,2.75641269 208.376101,3 208.9981,3 C209.608363,3 210.14527,2.75961779 210.608835,2.27884615 C211.072401,1.79807452 211.30418,1.21154192 211.30418,0.519230769 C211.30418,0.339902531 211.288241,0.166825717 211.256362,1.01758879e-11 L216.438845,1.02318154e-11 C216.407375,0.166825717 216.39164,0.339902531 216.39164,0.519230769 C216.39164,1.19872135 216.620485,1.78204885 217.078183,2.26923077 C217.53588,2.75641269 218.075721,3 218.69772,3 C219.307983,3 219.84489,2.75961779 220.308455,2.27884615 C220.772021,1.79807452 221.0038,1.21154192 221.0038,0.519230769 C221.0038,0.339902531 220.987861,0.166825717 220.955982,1.02318709e-11 L226.138465,1.02318154e-11 C226.106995,0.166825717 226.09126,0.339902531 226.09126,0.519230769 C226.09126,1.19872135 226.320105,1.78204885 226.777803,2.26923077 C227.2355,2.75641269 227.775341,3 228.39734,3 C229.019339,3 229.55918,2.75641269 230.016877,2.26923077 C230.474575,1.78204885 230.70342,1.19872135 230.70342,0.519230769 C230.70342,0.339902531 230.687685,0.166825717 230.656215,1.02318709e-11 L235.838085,1.02318154e-11 C235.806615,0.166825717 235.79088,0.339902531 235.79088,0.519230769 C235.79088,1.19872135 236.019725,1.78204885 236.477423,2.26923077 C236.93512,2.75641269 237.474961,3 238.09696,3 C238.707223,3 239.24413,2.75961779 239.707695,2.27884615 C240.171261,1.79807452 240.40304,1.21154192 240.40304,0.519230769 C240.40304,0.339902531 240.387101,0.166825717 240.355222,1.02316766e-11 L245.537705,1.02318154e-11 C245.506235,0.166825717 245.4905,0.339902531 245.4905,0.519230769 C245.4905,1.19872135 245.719345,1.78204885 246.177043,2.26923077 C246.63474,2.75641269 247.174581,3 247.79658,3 C248.406843,3 248.94375,2.75961779 249.407315,2.27884615 C249.870881,1.79807452 250.10266,1.21154192 250.10266,0.519230769 C250.10266,0.339902531 250.086721,0.166825717 250.054842,1.02316766e-11 L255.237325,1.02318154e-11 C255.205855,0.166825717 255.19012,0.339902531 255.19012,0.519230769 C255.19012,1.19872135 255.418965,1.78204885 255.876663,2.26923077 C256.33436,2.75641269 256.874201,3 257.4962,3 C258.118199,3 258.65804,2.75641269 259.115737,2.26923077 C259.573435,1.78204885 259.80228,1.19872135 259.80228,0.519230769 C259.80228,0.339902531 259.786545,0.166825717 259.755075,1.02487185e-11 L264.936945,1.02318154e-11 C264.905475,0.166825717 264.88974,0.339902531 264.88974,0.519230769 C264.88974,1.19872135 265.118585,1.78204885 265.576283,2.26923077 C266.03398,2.75641269 266.573821,3 267.19582,3 C267.806083,3 268.34299,2.75961779 268.806555,2.27884615 C269.270121,1.79807452 269.5019,1.21154192 269.5019,0.519230769 C269.5019,0.339902531 269.485961,0.166825717 269.454082,1.01758879e-11 L274.636565,1.02318154e-11 C274.605095,0.166825717 274.58936,0.339902531 274.58936,0.519230769 C274.58936,1.19872135 274.818205,1.78204885 275.275903,2.26923077 C275.7336,2.75641269 276.273441,3 276.89544,3 C277.505703,3 278.04261,2.75961779 278.506175,2.27884615 C278.969741,1.79807452 279.20152,1.21154192 279.20152,0.519230769 C279.20152,0.339902531 279.185581,0.166825717 279.153702,1.02316766e-11 L284.336185,1.02318154e-11 C284.304715,0.166825717 284.28898,0.339902531 284.28898,0.519230769 C284.28898,1.19872135 284.517825,1.78204885 284.975523,2.26923077 C285.43322,2.75641269 285.97306,3 286.59506,3 C287.217059,3 287.756899,2.75641269 288.214597,2.26923077 C288.672295,1.78204885 288.90114,1.19872135 288.90114,0.519230769 C288.90114,0.339902531 288.885405,0.166825717 288.853935,1.00792708e-11 L294.035805,1.02318154e-11 C294.004335,0.166825717 293.9886,0.339902531 293.9886,0.519230769 C293.9886,1.19872135 294.217445,1.78204885 294.675143,2.26923077 C295.13284,2.75641269 295.67268,3 296.29468,3 C296.904943,3 297.44185,2.75961779 297.905415,2.27884615 C298.368981,1.79807452 298.60076,1.21154192 298.60076,0.519230769 C298.60076,0.339902531 298.584821,0.166825717 298.552942,1.02318709e-11 L303.735425,1.02318154e-11 C303.703955,0.166825717 303.68822,0.339902531 303.68822,0.519230769 C303.68822,1.19872135 303.917065,1.78204885 304.374762,2.26923077 C304.83246,2.75641269 305.3723,3 305.9943,3 C306.604563,3 307.14147,2.75961779 307.605035,2.27884615 C308.068601,1.79807452 308.30038,1.21154192 308.30038,0.519230769 C308.30038,0.339902531 308.284441,0.166825717 308.252562,1.02318709e-11 L313.435045,1.02318154e-11 C313.403575,0.166825717 313.387839,0.339902531 313.387839,0.519230769 C313.387839,1.19872135 313.616685,1.78204885 314.074382,2.26923077 C314.53208,2.75641269 315.07192,3 315.69392,3 C316.315919,3 316.855759,2.75641269 317.313457,2.26923077 C317.771155,1.78204885 318,1.19872135 318,0.519230769 C318,0.339902531 317.984265,0.166825717 317.952795,1.02318709e-11 L320,1.02318154e-11 L320,8 L0,8 L0,1.02318154e-11 L3.04720534,1.02318154e-11 Z" id="Rectangle-2" fill="#F0F6FA"></path>
    </g>
</svg>