<?xml version="1.0" encoding="UTF-8"?>
<svg width="320px" height="1388px" viewBox="0 0 320 1388" version="1.1" xmlns="http://www.w3.org/2000/svg" xmlns:xlink="http://www.w3.org/1999/xlink">
    <title>1</title>
    <defs>
        <linearGradient x1="-39.7235978%" y1="210.426993%" x2="187.737572%" y2="-148.59112%" id="linearGradient-1">
            <stop stop-color="#2979FF" offset="0%"></stop>
            <stop stop-color="#651FFF" offset="100%"></stop>
            <stop stop-color="#651FFF" offset="100%"></stop>
        </linearGradient>
        <linearGradient x1="186.778335%" y1="-18.3762626%" x2="-80.9423703%" y2="153.657309%" id="linearGradient-2">
            <stop stop-color="#2979FF" offset="0%"></stop>
            <stop stop-color="#03A9F4" offset="100%"></stop>
        </linearGradient>
        <linearGradient x1="-13.2986922%" y1="76.2445818%" x2="114.088833%" y2="25.2523118%" id="linearGradient-3">
            <stop stop-color="#2979FF" offset="0%"></stop>
            <stop stop-color="#651FFF" offset="100%"></stop>
        </linearGradient>
        <filter x="-16.7%" y="-52.6%" width="133.3%" height="205.3%" filterUnits="objectBoundingBox" id="filter-4">
            <feGaussianBlur stdDeviation="10" in="SourceGraphic"></feGaussianBlur>
        </filter>
        <linearGradient x1="-13.2986922%" y1="73.5546939%" x2="114.088833%" y2="27.7887784%" id="linearGradient-5">
            <stop stop-color="#2979FF" offset="0%"></stop>
            <stop stop-color="#651FFF" offset="100%"></stop>
        </linearGradient>
    </defs>
    <g id="web" stroke="none" stroke-width="1" fill="none" fill-rule="evenodd">
        <g id="thanhtoan">
            <g id="Group-5" transform="translate(0.000000, 82.000000)">
                <path d="M-8.52651283e-14,1008 L42.3420781,1008 C53.8837836,1008 65.1955857,1004.77293 75,998.68323 C84.1861326,992.977557 95.8138674,992.977557 105,998.68323 C114.804414,1004.77293 126.116216,1008 137.657922,1008 L320,1008 L320,1008 L320,288 L-8.52651283e-14,288 L-8.52651283e-14,1008 Z" id="Rectangle" fill="#FFFFFF" transform="translate(160.000000, 648.000000) scale(1, -1) translate(-160.000000, -648.000000) "></path>
                <g id="Group-11" transform="translate(60.000000, 458.000000)"></g>
                <g id="Group-11" transform="translate(60.000000, 529.000000)"></g>
                <g id="Group-8" transform="translate(70.000000, 241.000000)"></g>
                <path d="M91.5,916 C103.374122,916 113,925.625878 113,937.5 C113,949.374122 103.374122,959 91.5,959 C79.6258779,959 70,949.374122 70,937.5 C70,925.625878 79.6258779,916 91.5,916 Z M91.502,928.98 C90.396,928.98 89.5035,929.2005 88.8245,929.6415 C88.1455,930.0825 87.6485,930.695 87.3335,931.479 C87.057875,932.165 86.9028359,932.93675 86.8683828,933.79425 L86.861,934.167 L86.861,935.007 L90.032,935.007 L90.032,934.209 C90.032,933.761 90.074,933.348 90.158,932.97 C90.242,932.592 90.396,932.2875 90.62,932.0565 C90.844,931.8255 91.166,931.71 91.586,931.71 C91.978,931.71 92.279,931.8535 92.489,932.1405 C92.699,932.4275 92.804,932.844 92.804,933.39 C92.804,933.908 92.7165,934.3945 92.5415,934.8495 C92.3665,935.3045 92.1425,935.749 91.8695,936.183 C91.6875,936.472333 91.4977222,936.771 91.3001667,937.079 L90.998,937.548 L86.861,943.911 L86.861,946.2 L95.555,946.2 L95.555,943.638 L90.494,943.638 L93.77,938.703 C94.162,938.129 94.5295,937.5725 94.8725,937.0335 C95.2155,936.4945 95.492,935.9345 95.702,935.3535 C95.912,934.7725 96.017,934.139 96.017,933.453 C96.017,932.039 95.639,930.94 94.883,930.156 C94.127,929.372 93,928.98 91.502,928.98 Z" id="Oval-3" fill="url(#linearGradient-1)"></path>
                <path d="M91.5,241 C103.374122,241 113,250.625878 113,262.5 C113,274.374122 103.374122,284 91.5,284 C79.6258779,284 70,274.374122 70,262.5 C70,250.625878 79.6258779,241 91.5,241 Z M94.195,253.99 L91.675,253.99 C91.521,254.158 91.3005,254.34 91.0135,254.536 C90.7265,254.732 90.422,254.914 90.1,255.082 C89.778,255.25 89.4735,255.404 89.1865,255.544 C88.9569,255.656 88.76538,255.75008 88.61194,255.82624 L88.504,255.88 L88.504,258.274 C88.63,258.218 88.805,258.1515 89.029,258.0745 C89.253,257.9975 89.491,257.9135 89.743,257.8225 C89.995,257.7315 90.2295,257.6475 90.4465,257.5705 C90.60925,257.51275 90.7464063,257.456969 90.8579688,257.403156 L90.961,257.35 L90.961,271 L94.195,271 L94.195,253.99 Z" id="Oval-2" fill="url(#linearGradient-2)"></path>
                <text id="Bạn-thực-hiện-theo-0" font-family="SFCompactDisplay-Light, SF Compact Display" font-size="16" font-weight="300" line-spacing="24" fill="#121721">
                    <tspan x="60" y="179">Bạn thực hiện theo 02 bước </tspan>
                    <tspan x="60" y="203">dưới đây</tspan>
                </text>
                <text id="Hướng-dẫn-Thanh-toán" font-family="GMVDINPro-CondBlack, GMV DIN Cond" font-size="30" font-style="condensed" font-weight="800" fill="#121721">
                    <tspan x="60" y="103">Hướng dẫn</tspan>
                    <tspan x="60" y="133">Thanh toán</tspan>
                </text>
                <text id="Thanh-toán" font-family="GMVDINPro-CondBold, GMV DIN Cond" font-size="24" font-style="condensed" font-weight="bold" fill="#121721">
                    <tspan x="60" y="367">Thanh toán</tspan>
                </text>
                <text id="Bằng-chuyển-khoản-đế" font-family="SFCompactDisplay-Light, SF Compact Display" font-size="16" font-weight="300" line-spacing="24" fill="#121721">
                    <tspan x="60" y="412">Bằng chuyển khoản đến một </tspan>
                    <tspan x="60" y="436">trong hai tài khoản</tspan>
                </text>
                <text id="Ví-dụ:-Tangtoc-09123" font-family="SFCompactDisplay-Semibold, SF Compact Display" font-size="18" font-weight="500" letter-spacing="-0.72" fill="#8C96A8">
                    <tspan x="60" y="872">Ví dụ: Tangtoc 0912345678</tspan>
                </text>
                <text id="VPBank" font-family="SFCompactDisplay-Light, SF Compact Display" font-size="16" font-weight="300" fill="#018446">
                    <tspan x="60" y="480">VPBank</tspan>
                </text>
                <text id="125-182-437" font-family="SFCompactDisplay-Semibold, SF Compact Display" font-size="20" font-weight="500" letter-spacing="-0.8" fill="#018446">
                    <tspan x="60" y="511">125 182 437</tspan>
                </text>
                <text id="125182437" font-family="Oswald-Regular_SemiBold, Oswald" font-size="32" font-weight="500" letter-spacing="-1.28" fill="#FFFFFF" fill-opacity="0">
                    <tspan x="59" y="505">125182437</tspan>
                </text>
                <text id="Hoặc-BIDV" font-family="SFCompactDisplay-Light, SF Compact Display" font-size="16" font-weight="300">
                    <tspan x="60" y="548" fill="#121721">Hoặc </tspan>
                    <tspan x="98.703125" y="548" fill="#203F9A">BIDV</tspan>
                </text>
                <text id="2791-0000-501-984" font-family="SFCompactDisplay-Semibold, SF Compact Display" font-size="20" font-weight="500" letter-spacing="-0.8" fill="#203F9A">
                    <tspan x="60" y="579">2791 0000 501 984</tspan>
                </text>
                <text id="27910000501984" font-family="Oswald-Regular_SemiBold, Oswald" font-size="32" font-weight="500" letter-spacing="-1.28" fill="#FFFFFF" fill-opacity="0">
                    <tspan x="59" y="573">27910000501984</tspan>
                </text>
                <text id="360.000đ" font-family="SFCompactDisplay-Semibold, SF Compact Display" font-size="20" font-weight="500" letter-spacing="-0.8" fill="#121721">
                    <tspan x="60" y="734">360.000đ </tspan>
                </text>
                <text id="Chủ-tài-khoản" font-family="SFCompactDisplay-Light, SF Compact Display" font-size="16" font-weight="300" line-spacing="24" fill="#121721">
                    <tspan x="60" y="623">Chủ tài khoản</tspan>
                </text>
                <text id="Số-tiền" font-family="SFCompactDisplay-Light, SF Compact Display" font-size="16" font-weight="300" fill="#121721">
                    <tspan x="60" y="703">Số tiền</tspan>
                </text>
                <text id="Nguyen-Minh-Tuan" font-family="SFCompactDisplay-Semibold, SF Compact Display" font-size="20" font-weight="500" letter-spacing="-0.8" fill="#121721">
                    <tspan x="60" y="659">Nguyen Minh Tuan</tspan>
                </text>
                <text id="Nội-dung-chuyển-khoả" font-family="SFCompactDisplay-Light, SF Compact Display" font-size="16" font-weight="300" line-spacing="24" fill="#121721">
                    <tspan x="60" y="778">Nội dung chuyển khoản</tspan>
                </text>
                <text id="Tangtoc-[Số-điện-tho" font-family="SFCompactDisplay-Semibold, SF Compact Display" font-size="20" font-weight="500" letter-spacing="-0.8" fill="#121721">
                    <tspan x="60" y="814">Tangtoc [Số điện thoại </tspan>
                    <tspan x="60" y="838">của bạn]</tspan>
                </text>
            </g>
            <path d="M0,1388 L44.0742483,1388 C54.6131282,1388 65.0737371,1386.19014 75,1382.64934 C84.7006534,1379.18901 95.2993466,1379.18901 105,1382.64934 C114.926263,1386.19014 125.386872,1388 135.925752,1388 L320,1388 L320,1388 L321,1048 L0,1048 L0,1388 Z" id="Rectangle" fill="#F0F6FA" transform="translate(160.500000, 1218.000000) scale(1, -1) translate(-160.500000, -1218.000000) "></path>
            <text id="Sau-đó-bạn-gửi-“Ảnh" font-family="SFCompactDisplay-Light, SF Compact Display" font-size="16" font-weight="300" line-spacing="24" fill="#121721">
                <tspan x="60" y="1171">Sau đó bạn gửi “Ảnh chụp </tspan>
                <tspan x="60" y="1195">màn hình giao dịch” hoặc </tspan>
                <tspan x="60" y="1219">“Nội dung giao dịch” cho </tspan>
                <tspan x="60" y="1243">Chanchan để xác nhận</tspan>
            </text>
            <text id="Xác-nhận" font-family="GMVDINPro-CondBold, GMV DIN Cond" font-size="24" font-style="condensed" font-weight="bold" fill="#121721">
                <tspan x="60" y="1126">Xác nhận</tspan>
            </text>
            <g id="Group-2" transform="translate(60.000000, 1292.000000)">
                <rect id="Rectangle" fill="url(#linearGradient-3)" opacity="0.5" filter="url(#filter-4)" x="10" y="10" width="180" height="57" rx="10"></rect>
                <rect id="Rectangle" fill="url(#linearGradient-5)" x="0" y="0" width="200" height="60" rx="10"></rect>
                <path d="M167,19 C160.92525,19 156,23.5595 156,29.184625 C156,32.38975 157.599125,35.248375 160.098875,37.115625 L160.098875,41 L163.844375,38.944375 C164.844,39.22075 165.90275,39.370625 167,39.370625 C173.07475,39.370625 178,34.811125 178,29.186 C178,23.560875 173.07475,19 167,19 Z M168.093125,32.715625 L165.29225,29.72775 L159.826625,32.715625 L165.8395,26.332875 L168.709125,29.32075 L174.106,26.332875 L168.093125,32.715625 Z" id="Shape" fill="#FFFFFF" opacity="0.414276482"></path>
                <text id="Xác-nhận" opacity="0.9" font-family="SFCompactDisplay-Semibold, SF Compact Display" font-size="18" font-weight="500" letter-spacing="-0.72" fill="#FFFFFF">
                    <tspan x="65.8516797" y="35">Xác nhận</tspan>
                </text>
            </g>
        </g>
    </g>
</svg>