<?xml version="1.0" encoding="UTF-8"?>
<svg width="320px" height="1272px" viewBox="0 0 320 1272" version="1.1" xmlns="http://www.w3.org/2000/svg" xmlns:xlink="http://www.w3.org/1999/xlink">
    <title>1</title>
    <defs>
        <linearGradient x1="186.778335%" y1="-18.3762626%" x2="-80.9423703%" y2="153.657309%" id="linearGradient-1">
            <stop stop-color="#2979FF" offset="0%"></stop>
            <stop stop-color="#03A9F4" offset="100%"></stop>
        </linearGradient>
        <linearGradient x1="-39.7235978%" y1="210.426993%" x2="187.737572%" y2="-148.59112%" id="linearGradient-2">
            <stop stop-color="#2979FF" offset="0%"></stop>
            <stop stop-color="#651FFF" offset="100%"></stop>
            <stop stop-color="#651FFF" offset="100%"></stop>
        </linearGradient>
    </defs>
    <g id="web" stroke="none" stroke-width="1" fill="none" fill-rule="evenodd">
        <g id="thanhtoan">
            <g id="Group-5" transform="translate(0.000000, 82.000000)">
                <path d="M-8.52651283e-14,1008 L42.3420781,1008 C53.8837836,1008 65.1955857,1004.77293 75,998.68323 C84.1861326,992.977557 95.8138674,992.977557 105,998.68323 C114.804414,1004.77293 126.116216,1008 137.657922,1008 L320,1008 L320,1008 L320,288 L-8.52651283e-14,288 L-8.52651283e-14,1008 Z" id="Rectangle" fill="#FFFFFF" transform="translate(160.000000, 648.000000) scale(1, -1) translate(-160.000000, -648.000000) "></path>
                <g id="Group-11" transform="translate(60.000000, 458.000000)"></g>
                <g id="Group-11" transform="translate(60.000000, 529.000000)"></g>
                <g id="Group-8" transform="translate(70.000000, 241.000000)"></g>
                <path d="M91.5,241 C103.374122,241 113,250.625878 113,262.5 C113,274.374122 103.374122,284 91.5,284 C79.6258779,284 70,274.374122 70,262.5 C70,250.625878 79.6258779,241 91.5,241 Z M94.195,253.99 L91.675,253.99 C91.521,254.158 91.3005,254.34 91.0135,254.536 C90.7265,254.732 90.422,254.914 90.1,255.082 C89.778,255.25 89.4735,255.404 89.1865,255.544 C88.9569,255.656 88.76538,255.75008 88.61194,255.82624 L88.504,255.88 L88.504,258.274 C88.63,258.218 88.805,258.1515 89.029,258.0745 C89.253,257.9975 89.491,257.9135 89.743,257.8225 C89.995,257.7315 90.2295,257.6475 90.4465,257.5705 C90.60925,257.51275 90.7464063,257.456969 90.8579688,257.403156 L90.961,257.35 L90.961,271 L94.195,271 L94.195,253.99 Z" id="Oval-2" fill="url(#linearGradient-1)"></path>
                <text id="Bạn-thực-hiện-theo-0" font-family="SFCompactDisplay-Light, SF Compact Display" font-size="16" font-weight="300" line-spacing="24" fill="#121721">
                    <tspan x="60" y="179">Bạn thực hiện theo 02 bước </tspan>
                    <tspan x="60" y="203">dưới đây</tspan>
                </text>
                <text id="Hướng-dẫn-Thanh-toán" font-family="GMVDINPro-CondBlack, GMV DIN Cond" font-size="30" font-style="condensed" font-weight="800" fill="#121721">
                    <tspan x="60" y="103">Hướng dẫn</tspan>
                    <tspan x="60" y="133">Thanh toán</tspan>
                </text>
                <text id="Thanh-toán" font-family="GMVDINPro-CondBold, GMV DIN Cond" font-size="24" font-style="condensed" font-weight="bold" fill="#121721">
                    <tspan x="60" y="367">Thanh toán</tspan>
                </text>
                <text id="Bằng-chuyển-khoản-đế" font-family="SFCompactDisplay-Light, SF Compact Display" font-size="16" font-weight="300" line-spacing="24" fill="#121721">
                    <tspan x="60" y="412">Bằng chuyển khoản đến một </tspan>
                    <tspan x="60" y="436">trong hai tài khoản</tspan>
                </text>
                <text id="Ví-dụ:-Tangtoc-09123" font-family="SFCompactDisplay-Semibold, SF Compact Display" font-size="18" font-weight="500" letter-spacing="-0.72" fill="#8C96A8">
                    <tspan x="60" y="872">Ví dụ: Tangtoc 0912345678</tspan>
                </text>
                <text id="VPBank" font-family="SFCompactDisplay-Light, SF Compact Display" font-size="16" font-weight="300" fill="#018446">
                    <tspan x="60" y="480">VPBank</tspan>
                </text>
                <text id="125-182-437" font-family="SFCompactDisplay-Semibold, SF Compact Display" font-size="20" font-weight="500" letter-spacing="-0.8" fill="#018446">
                    <tspan x="60" y="511">125 182 437</tspan>
                </text>
                <text id="125182437" font-family="Oswald-Regular_SemiBold, Oswald" font-size="32" font-weight="500" letter-spacing="-1.28" fill="#FFFFFF" fill-opacity="0">
                    <tspan x="59" y="505">125182437</tspan>
                </text>
                <text id="Hoặc-BIDV" font-family="SFCompactDisplay-Light, SF Compact Display" font-size="16" font-weight="300">
                    <tspan x="60" y="548" fill="#121721">Hoặc </tspan>
                    <tspan x="98.703125" y="548" fill="#203F9A">BIDV</tspan>
                </text>
                <text id="2791-0000-501-984" font-family="SFCompactDisplay-Semibold, SF Compact Display" font-size="20" font-weight="500" letter-spacing="-0.8" fill="#203F9A">
                    <tspan x="60" y="579">2791 0000 501 984</tspan>
                </text>
                <text id="27910000501984" font-family="Oswald-Regular_SemiBold, Oswald" font-size="32" font-weight="500" letter-spacing="-1.28" fill="#FFFFFF" fill-opacity="0">
                    <tspan x="59" y="573">27910000501984</tspan>
                </text>
                <text id="360.000đ" font-family="SFCompactDisplay-Semibold, SF Compact Display" font-size="20" font-weight="500" letter-spacing="-0.8" fill="#121721">
                    <tspan x="60" y="734">360.000đ </tspan>
                </text>
                <text id="Chủ-tài-khoản" font-family="SFCompactDisplay-Light, SF Compact Display" font-size="16" font-weight="300" line-spacing="24" fill="#121721">
                    <tspan x="60" y="623">Chủ tài khoản</tspan>
                </text>
                <text id="Số-tiền" font-family="SFCompactDisplay-Light, SF Compact Display" font-size="16" font-weight="300" fill="#121721">
                    <tspan x="60" y="703">Số tiền</tspan>
                </text>
                <text id="Nguyen-Minh-Tuan" font-family="SFCompactDisplay-Semibold, SF Compact Display" font-size="20" font-weight="500" letter-spacing="-0.8" fill="#121721">
                    <tspan x="60" y="659">Nguyen Minh Tuan</tspan>
                </text>
                <text id="Nội-dung-chuyển-khoả" font-family="SFCompactDisplay-Light, SF Compact Display" font-size="16" font-weight="300" line-spacing="24" fill="#121721">
                    <tspan x="60" y="778">Nội dung chuyển khoản</tspan>
                </text>
                <text id="Tangtoc-[Số-điện-tho" font-family="SFCompactDisplay-Semibold, SF Compact Display" font-size="20" font-weight="500" letter-spacing="-0.8" fill="#121721">
                    <tspan x="60" y="814">Tangtoc [Số điện thoại </tspan>
                    <tspan x="60" y="838">của bạn]</tspan>
                </text>
            </g>
            <g id="Group-2" transform="translate(0.000000, 998.000000)">
                <path d="M0,274 L44.0742483,274 C54.6131282,274 65.0737371,272.190144 75,268.64934 C84.7006534,265.189013 95.2993466,265.189013 105,268.64934 C114.926263,272.190144 125.386872,274 135.925752,274 L320,274 L320,274 L320,50 L0,50 L0,274 Z" id="Rectangle" fill="#F0F6FA" transform="translate(160.000000, 162.000000) scale(1, -1) translate(-160.000000, -162.000000) "></path>
                <path d="M91.5,0 C103.374122,0 113,9.62587788 113,21.5 C113,33.3741221 103.374122,43 91.5,43 C79.6258779,43 70,33.3741221 70,21.5 C70,9.62587788 79.6258779,0 91.5,0 Z M91.502,12.98 C90.396,12.98 89.5035,13.2005 88.8245,13.6415 C88.1455,14.0825 87.6485,14.695 87.3335,15.479 C87.057875,16.165 86.9028359,16.93675 86.8683828,17.79425 L86.861,18.167 L86.861,19.007 L90.032,19.007 L90.032,18.209 C90.032,17.761 90.074,17.348 90.158,16.97 C90.242,16.592 90.396,16.2875 90.62,16.0565 C90.844,15.8255 91.166,15.71 91.586,15.71 C91.978,15.71 92.279,15.8535 92.489,16.1405 C92.699,16.4275 92.804,16.844 92.804,17.39 C92.804,17.908 92.7165,18.3945 92.5415,18.8495 C92.3665,19.3045 92.1425,19.749 91.8695,20.183 C91.6875,20.4723333 91.4977222,20.771 91.3001667,21.079 L90.998,21.548 L86.861,27.911 L86.861,30.2 L95.555,30.2 L95.555,27.638 L90.494,27.638 L93.77,22.703 C94.162,22.129 94.5295,21.5725 94.8725,21.0335 C95.2155,20.4945 95.492,19.9345 95.702,19.3535 C95.912,18.7725 96.017,18.139 96.017,17.453 C96.017,16.039 95.639,14.94 94.883,14.156 C94.127,13.372 93,12.98 91.502,12.98 Z" id="Oval-3" fill="url(#linearGradient-2)"></path>
                <text id="Sau-đó-bạn-gửi-“Ảnh" font-family="SFCompactDisplay-Light, SF Compact Display" font-size="16" font-weight="300" line-spacing="24" fill="#121721">
                    <tspan x="60" y="173">Sau đó bạn gửi “Ảnh chụp </tspan>
                    <tspan x="60" y="197">màn hình giao dịch” hoặc </tspan>
                    <tspan x="60" y="221">“Nội dung giao dịch” cho </tspan>
                    <tspan x="60" y="245">Chanchan để xác nhận</tspan>
                </text>
                <text id="Xác-nhận" font-family="GMVDINPro-CondBold, GMV DIN Cond" font-size="24" font-style="condensed" font-weight="bold" fill="#121721">
                    <tspan x="60" y="128">Xác nhận</tspan>
                </text>
            </g>
        </g>
    </g>
</svg>