<?xml version="1.0" encoding="UTF-8"?>
<svg width="320px" height="664px" viewBox="0 0 320 664" version="1.1" xmlns="http://www.w3.org/2000/svg" xmlns:xlink="http://www.w3.org/1999/xlink">
    <title>Thanhvien</title>
    <defs>
        <rect id="path-1" x="15" y="52" width="290" height="425" rx="19"></rect>
        <filter x="-17.6%" y="-10.1%" width="132.4%" height="122.1%" filterUnits="objectBoundingBox" id="filter-2">
            <feOffset dx="-4" dy="4" in="SourceAlpha" result="shadowOffsetOuter1"></feOffset>
            <feGaussianBlur stdDeviation="15" in="shadowOffsetOuter1" result="shadowBlurOuter1"></feGaussianBlur>
            <feColorMatrix values="0 0 0 0 0.396078431   0 0 0 0 0.121568627   0 0 0 0 1  0 0 0 0.2 0" type="matrix" in="shadowBlurOuter1"></feColorMatrix>
        </filter>
        <rect id="path-3" x="3" y="0" width="4.8" height="6.6"></rect>
        <linearGradient x1="-41.2211541%" y1="158.95067%" x2="184.057905%" y2="0%" id="linearGradient-5">
            <stop stop-color="#277AFF" offset="0%"></stop>
            <stop stop-color="#03A9F4" offset="100%"></stop>
        </linearGradient>
        <linearGradient x1="153.020636%" y1="35.9476421%" x2="36.1086925%" y2="54.3705104%" id="linearGradient-6">
            <stop stop-color="#D500F9" offset="0%"></stop>
            <stop stop-color="#651FFF" offset="100%"></stop>
        </linearGradient>
        <filter x="-13.0%" y="-44.1%" width="126.1%" height="188.2%" filterUnits="objectBoundingBox" id="filter-7">
            <feGaussianBlur stdDeviation="10" in="SourceGraphic"></feGaussianBlur>
        </filter>
        <linearGradient x1="153.020636%" y1="38.1060843%" x2="36.1086925%" y2="53.6992%" id="linearGradient-8">
            <stop stop-color="#D500F9" offset="0%"></stop>
            <stop stop-color="#651FFF" offset="100%"></stop>
        </linearGradient>
    </defs>
    <g id="Thanhvien" stroke="none" stroke-width="1" fill="none" fill-rule="evenodd">
        <rect fill="#FFFFFF" x="0" y="0" width="320" height="664"></rect>
        <g id="Rectangle">
            <use fill="black" fill-opacity="1" filter="url(#filter-2)" xlink:href="#path-1"></use>
            <use fill="#FFFFFF" fill-rule="evenodd" xlink:href="#path-1"></use>
        </g>
        <polygon id="Rectangle" fill="#912A8F" transform="translate(109.468535, 49.774254) rotate(111.000000) translate(-109.468535, -49.774254) " points="98.9685348 31.7742539 114.945017 33.6421006 119.968535 60.2268195 98.9685348 67.7742539"></polygon>
        <polygon id="Rectangle" fill="#03AEEE" transform="translate(206.034661, 11.900655) rotate(17.000000) translate(-206.034661, -11.900655) " points="194.388475 7.40065518 217.680846 8.47649803 217.096103 15.3248123 194.388475 16.4006552"></polygon>
        <g id="Group-5" transform="translate(35.000000, 189.000000)">
            <g id="shield" transform="translate(0.000000, 3.000000)">
                <path d="M17.9939861,3.54032019 L17.9939861,10.3134988 C17.9939861,14.277174 15.9838329,18.1068306 12.5772807,19.9328492 L10.6728724,20.9535452 C9.6367239,21.5087471 8.39718794,21.5109606 7.35686311,20.9535452 L5.45245476,19.9328492 C2.04506729,18.1063712 0.03574942,14.2762552 0.03574942,10.3134988 L0.03574942,3.54032019 C0.03574942,2.60983295 0.6492529,1.79753596 1.49496056,1.60876566 L8.00962413,0.112385151 C8.67767053,-0.0370858469 9.35085383,-0.0374199536 10.0163527,0.111549884 L16.5385336,1.60960093 C17.3804826,1.79753596 17.9939861,2.60983295 17.9939861,3.54032019 Z" id="Path" fill="#03A9F4" fill-rule="nonzero"></path>
                <path d="M17.9939861,3.54032019 L17.9939861,10.3134988 C17.9939861,14.277174 15.9838329,18.1068306 12.5772807,19.9328492 L10.6728724,20.9535452 C10.1537541,21.2316891 9.58410209,21.370761 9.01486775,21.370761 L9.01486775,-1.636449e-05 C9.72054292,-1.636449e-05 9.37862645,-0.0349141531 16.5385336,1.60960093 C17.3804826,1.79753596 17.9939861,2.60983295 17.9939861,3.54032019 Z" id="Path" fill="#277AFF" fill-rule="nonzero"></path>
                <path d="M15.3211323,5.66022738 L15.3211323,10.2658886 C15.3211323,11.6896009 14.9494385,13.0606914 14.2895777,14.230065 C13.1185754,16.30658 11.6851323,16.9018329 10.2368631,17.6780464 C9.47271926,18.0876195 8.55801856,18.0881624 7.79287239,17.6780464 L6.49779118,16.9839397 C4.19579582,15.7502506 2.70860325,13.1133132 2.70860325,10.2658886 L2.70860325,5.66022738 C2.70860325,4.93438051 3.1918051,4.29999536 3.85751276,4.15131787 C8.69295592,3.04049652 8.50873782,3.05251891 9.01486775,3.05251891 C9.52358701,3.05251891 9.33640371,3.04045476 14.1759814,4.15215313 C14.8379304,4.29999536 15.3211323,4.93438051 15.3211323,5.66022738 Z" id="Path" fill="#ECF9FD" fill-rule="nonzero"></path>
                <path d="M15.3211323,5.66022738 L15.3211323,10.2658886 C15.3211323,11.6896009 14.9494385,13.0606914 14.2895777,14.230065 C13.1185754,16.30658 11.6851323,16.9018329 10.2368631,17.6780464 C9.8543109,17.8831044 9.43458933,17.9854246 9.01486775,17.9854246 L9.01486775,3.05251891 C9.52358701,3.05251891 9.33640371,3.04045476 14.1759814,4.15215313 C14.8379304,4.29999536 15.3211323,4.93438051 15.3211323,5.66022738 Z" id="Path" fill="#D9F3FC" fill-rule="nonzero"></path>
                <g id="correct" transform="translate(6.000000, 7.200000)">
                    <path d="M2.75701023,6.08998909 C2.68828187,6.15912134 2.59451243,6.19769269 2.49710798,6.19769269 C2.39970353,6.19769269 2.30593409,6.15912134 2.23720573,6.08998909 L0.161555401,4.01400219 C-0.0538518003,3.79859499 -0.0538518003,3.44929875 0.161555401,3.23429545 L0.421457648,2.97432587 C0.636932176,2.75891867 0.985824515,2.75891867 1.20123172,2.97432587 L2.49710798,4.27026945 L5.99875398,0.768556135 C6.21422849,0.553148934 6.56345742,0.553148934 6.77852805,0.768556135 L7.0384303,1.02852571 C7.2538375,1.24393291 7.2538375,1.59316182 7.0384303,1.80823245 L2.75701023,6.08998909 Z" id="Path" fill="#03A9F4" fill-rule="nonzero"></path>
                    <g id="Group-7">
                        <mask id="mask-4" fill="white">
                            <use xlink:href="#path-3"></use>
                        </mask>
                        <g id="Rectangle"></g>
                        <path d="M2.75701023,6.08998909 C2.68828187,6.15912134 2.59451243,6.19769269 2.49710798,6.19769269 C2.39970353,6.19769269 2.30593409,6.15912134 2.23720573,6.08998909 L0.161555401,4.01400219 C-0.0538518003,3.79859499 -0.0538518003,3.44929875 0.161555401,3.23429545 L0.421457648,2.97432587 C0.636932176,2.75891867 0.985824515,2.75891867 1.20123172,2.97432587 L2.49710798,4.27026945 L5.99875398,0.768556135 C6.21422849,0.553148934 6.56345742,0.553148934 6.77852805,0.768556135 L7.0384303,1.02852571 C7.2538375,1.24393291 7.2538375,1.59316182 7.0384303,1.80823245 L2.75701023,6.08998909 Z" id="Path" fill="#1976D2" fill-rule="nonzero" mask="url(#mask-4)"></path>
                    </g>
                </g>
            </g>
            <text id="Đảm-bảo" font-family="SFCompactDisplay-Semibold, SF Compact Display" font-size="18" font-weight="500" letter-spacing="-0.72" fill="#1E2432">
                <tspan x="35" y="17">Đảm bảo</tspan>
            </text>
            <text id="Hoàn-phí-sau-03-thán" font-family="SFCompactDisplay-Light, SF Compact Display" font-size="16" font-weight="300" line-spacing="24" fill="#556279">
                <tspan x="35" y="44">Hoàn phí sau 03 tháng nếu </tspan>
                <tspan x="35" y="68">không có kết nối thành công</tspan>
            </text>
            <text id="Kết-nối-thành-công-l" font-family="SFCompactText-LightItalic, SF Compact Text" font-size="16" font-style="italic" font-weight="300" line-spacing="24" fill="#556279">
                <tspan x="35" y="100">Kết nối thành công là khi bạn </tspan>
                <tspan x="35" y="124">và đối phương cả hai cùng </tspan>
                <tspan x="35" y="148">quyết định hẹn hò</tspan>
            </text>
        </g>
        <g id="Group-8" transform="translate(35.000000, 92.000000)">
            <path d="M9,4 C13.9705627,4 18,8.02943725 18,13 C18,17.9705627 13.9705627,22 9,22 C4.02943725,22 6.08718376e-16,17.9705627 0,13 C-6.08718376e-16,8.02943725 4.02943725,4 9,4 Z M13.414641,9.23117768 C13.1159312,8.92294077 12.6308901,8.92294077 12.3316193,9.23117768 L12.3316193,9.23117768 L7.46821242,14.2419539 L5.6683807,12.3875236 C5.36920343,12.0792867 4.88462978,12.0792867 4.58535901,12.3875236 L4.58535901,12.3875236 L4.22438295,12.7595271 C3.92520568,13.067186 3.92520568,13.5670114 4.22438295,13.8752483 L4.22438295,13.8752483 L7.10723636,16.8458815 C7.2026926,16.9448063 7.33292819,17 7.46821242,17 C7.60349664,17 7.73373224,16.9448063 7.82918848,16.8458815 L7.82918848,16.8458815 L13.7756171,10.7189024 C14.0747943,10.4111471 14.0747943,9.91141802 13.7756171,9.60318111 L13.7756171,9.60318111 Z" id="Rectangle-2" fill="url(#linearGradient-5)" opacity="0.498558"></path>
            <text id="Mức-phí-tượng-trưng" font-family="SFCompactDisplay-Light, SF Compact Display" font-size="16" font-weight="300" line-spacing="24" fill="#556279">
                <tspan x="35" y="44">Mức phí tượng trưng để cho </tspan>
                <tspan x="35" y="68">thấy là bạn nghiêm túc</tspan>
            </text>
            <text id="360.000đ/-03-Tháng" font-family="SFCompactDisplay-Semibold, SF Compact Display" font-size="18" font-weight="500" letter-spacing="-0.72" fill="#1E2432">
                <tspan x="35" y="17">360.000đ/ 03 Tháng</tspan>
            </text>
        </g>
        <g id="Group-6" transform="translate(35.000000, 374.000000)">
            <rect id="Rectangle" fill-opacity="0.5" fill="url(#linearGradient-6)" filter="url(#filter-7)" x="10" y="8" width="230" height="68" rx="10"></rect>
            <rect id="Rectangle" fill="url(#linearGradient-8)" x="0" y="0" width="250" height="68" rx="10"></rect>
            <path d="M219,23 C225.075132,23 230,27.9248678 230,34 C230,40.0751322 225.075132,45 219,45 C212.924868,45 208,40.0751322 208,34 C208,27.9248678 212.924868,23 219,23 Z M220.028893,28.6222222 C219.849635,28.6222222 219.681804,28.697148 219.555807,28.8333472 L219.155061,29.266992 C219.029163,29.4030838 218.959805,29.584862 218.959805,29.7786799 C218.959805,29.9723903 219.029163,30.1602959 219.155061,30.2963877 L221.730053,33.0882042 L213.549181,33.0882042 C213.180332,33.0882042 212.888889,33.4005918 212.888889,33.7997298 L212.888889,34.4127879 C212.888889,34.8119259 213.180332,35.1558103 213.549181,35.1558103 L221.759267,35.1558103 L219.15516,37.9632139 C219.029262,38.0995207 218.959904,38.276354 218.959904,38.470172 C218.959904,38.6637749 219.029262,38.8431881 219.15516,38.9793874 L219.555906,39.4116347 C219.681904,39.5479415 219.849734,39.6222222 220.028992,39.6222222 C220.208051,39.6222222 220.375981,39.546974 220.501978,39.4106672 L224.915853,34.6356301 C225.042148,34.4988933 225.111605,34.3163626 225.111111,34.1223297 C225.111506,33.9276518 225.042148,33.7450136 224.915753,33.6084919 L220.501879,28.8333472 C220.375882,28.6970405 220.207952,28.6222222 220.028893,28.6222222 Z" id="Rectangle-2" fill="#FFFFFF" opacity="0.5"></path>
            <text id="Thanh-toán" opacity="0.9" font-family="SFCompactDisplay-Semibold, SF Compact Display" font-size="18" font-weight="500" letter-spacing="-0.72" fill="#FFFFFF">
                <tspan x="83.1473633" y="39">Thanh toán</tspan>
            </text>
        </g>
        <text id="Nếu-bạn-có-băn-kh" font-family="SFCompactDisplay-Light, SF Compact Display" font-size="16" font-weight="300" line-spacing="24" fill="#5D6A80">
            <tspan x="35" y="524">Nếu bạn có băn khoăn chưa rõ hãy </tspan>
            <tspan x="35" y="548">đặt câu hỏi cho chúng tôi</tspan>
        </text>
        <g id="Group-4" transform="translate(35.000000, 581.000000)">
            <rect id="Rectangle" stroke="#DADFE7" fill="#F0F6FA" x="0" y="0" width="250" height="59" rx="10"></rect>
            <text id="Hỏi-thêm" opacity="0.9" font-family="SFCompactDisplay-Semibold, SF Compact Display" font-size="18" font-weight="500" letter-spacing="-0.72" fill="#5D6A80">
                <tspan x="91.6505078" y="35">Hỏi thêm</tspan>
            </text>
            <path d="M219,18 C212.92525,18 208,22.5595 208,28.184625 C208,31.38975 209.599125,34.248375 212.098875,36.115625 L212.098875,40 L215.844375,37.944375 C216.844,38.22075 217.90275,38.370625 219,38.370625 C225.07475,38.370625 230,33.811125 230,28.186 C230,22.560875 225.07475,18 219,18 Z M220.093125,31.715625 L217.29225,28.72775 L211.826625,31.715625 L217.8395,25.332875 L220.709125,28.32075 L226.106,25.332875 L220.093125,31.715625 Z" id="Shape" fill="#8C96A8"></path>
        </g>
    </g>
</svg>