<?xml version="1.0" encoding="UTF-8"?>
<svg width="320px" height="2334px" viewBox="0 0 320 2334" version="1.1" xmlns="http://www.w3.org/2000/svg" xmlns:xlink="http://www.w3.org/1999/xlink">
    <!-- Generator: Sketch 54.1 (76490) - https://sketchapp.com -->
    <title>tieuchuan</title>
    <desc>Created with Sketch.</desc>
    <g id="tieuchuan" stroke="none" stroke-width="1" fill="none" fill-rule="evenodd">
        <rect fill="#FFFFFF" x="0" y="0" width="320" height="2334"></rect>
        <text id="……………………………………………………" font-family="Georgia-Italic, Georgia" font-size="14" font-style="italic" font-weight="normal" line-spacing="22" fill="#DADFE7">
            <tspan x="30" y="349">……………………………………………………………</tspan>
        </text>
        <text id="—-Tiêu-chuẩn-của-Cha" font-family="Georgia-Italic, Georgia" font-size="14" font-style="italic" font-weight="normal" line-spacing="22" fill="#5D6A80">
            <tspan x="31" y="99">— Tiêu chuẩn của Chanchan trong vận </tspan>
            <tspan x="31" y="121">hành Chương trình.</tspan>
        </text>
        <text id="Cơ-chế-hoạt-động-xuy" font-family="SFCompactDisplay-Regular, SF Compact Display" font-size="15" font-weight="normal" line-spacing="22" fill="#4D5B72">
            <tspan x="30" y="212">Cơ chế hoạt động xuyên suốt của </tspan>
            <tspan x="30" y="234">Chanchan là ngầm nên tất cả thông tin </tspan>
            <tspan x="30" y="256">của Thành viên đều không định danh.</tspan>
        </text>
        <text id="Thông-tin-Thành-viên" font-family="Georgia-Italic, Georgia" font-size="14" font-style="italic" font-weight="normal" line-spacing="22" fill="#5D6A80">
            <tspan x="30" y="289">Thông tin Thành viên hoàn toàn vô hình </tspan>
            <tspan x="30" y="311">trong suốt chương trình.</tspan>
        </text>
        <path d="M42.0675564,181.657422 C41.7782071,181.781031 41.4362539,181.89488 41.0416867,181.998973 C40.6471194,182.103065 40.229542,182.15511 39.7889419,182.15511 C38.980079,182.15511 38.384949,182.036382 38.0035339,181.798921 C37.6221189,181.561461 37.362366,181.22154 37.2242675,180.779147 L37.1650827,180.779147 C36.9414946,181.000344 36.7261298,181.189008 36.518982,181.345146 C36.3118342,181.501285 36.0898935,181.634651 35.8531531,181.745249 C35.5440754,181.888376 35.2465104,181.994093 34.9604491,182.062404 C34.6743879,182.130714 34.2748945,182.164869 33.761957,182.164869 C32.999127,182.164869 32.3481008,181.94205 31.8088588,181.496405 C31.2696169,181.05076 31,180.46037 31,179.725218 C31,179.302343 31.0591842,178.942905 31.1775544,178.646893 C31.2959246,178.35088 31.4636131,178.089027 31.6806251,177.861325 C31.8779088,177.653141 32.1064255,177.48074 32.3661823,177.344119 C32.6259391,177.207498 32.9103521,177.080637 33.2194298,176.963534 C33.8112807,176.748843 34.5214911,176.526024 35.3500823,176.295069 C36.1786736,176.064115 36.7836677,175.85756 37.1650827,175.675398 L37.1650827,174.738572 C37.1650827,174.575928 37.1519306,174.361241 37.1256262,174.094504 C37.0993217,173.827768 37.0434255,173.603322 36.9579359,173.421161 C36.8658702,173.212976 36.7211977,173.037323 36.5239141,172.894196 C36.3266305,172.751069 36.0668776,172.679507 35.7446476,172.679507 C35.4552983,172.679507 35.2136295,172.720167 35.0196339,172.801489 C34.8256383,172.882812 34.6694578,172.965759 34.5510876,173.050334 C34.570816,173.180449 34.6267122,173.378872 34.7187779,173.645609 C34.8108436,173.912345 34.8568757,174.169319 34.8568757,174.416538 C34.8568757,174.527136 34.8272836,174.665382 34.7680985,174.831279 C34.7089134,174.997176 34.6234252,175.128916 34.5116311,175.226502 C34.3603803,175.356618 34.1910477,175.457456 34.0036283,175.529019 C33.8162088,175.600582 33.5285079,175.636364 33.1405167,175.636364 C32.5881225,175.636364 32.1705451,175.504624 31.8877719,175.24114 C31.6049987,174.977657 31.4636142,174.634483 31.4636142,174.211608 C31.4636142,173.847285 31.6099307,173.520375 31.9025681,173.230868 C32.1952055,172.941361 32.5519547,172.702278 32.9728265,172.513611 C33.3871221,172.318438 33.8638837,172.167181 34.4031256,172.059836 C34.9423676,171.95249 35.4421453,171.898819 35.9024738,171.898819 C36.5403575,171.898819 37.1256235,171.936226 37.6582893,172.011043 C38.1909551,172.085859 38.6710047,172.240369 39.0984526,172.474576 C39.5061721,172.702278 39.8300412,173.032441 40.0700696,173.465074 C40.3100981,173.897708 40.4301105,174.462075 40.4301105,175.158192 C40.4301105,175.893344 40.4153144,176.765104 40.3857219,177.773498 C40.3561293,178.781892 40.3413333,179.44547 40.3413333,179.764253 C40.3413333,180.057012 40.3857214,180.287964 40.4744991,180.457114 C40.5632767,180.626263 40.6997292,180.753124 40.8838606,180.837699 C40.9956546,180.889745 41.1715632,180.920647 41.4115916,180.930406 C41.6516201,180.940164 41.8702728,180.945044 42.0675564,180.945044 L42.0675564,181.657422 Z M37.1650827,176.57319 C36.7968199,176.696799 36.4318507,176.838297 36.070164,176.997689 C35.7084773,177.15708 35.4125563,177.324601 35.1823921,177.500257 C34.9390756,177.682418 34.748371,177.914996 34.6102724,178.197997 C34.4721739,178.480998 34.4031256,178.814413 34.4031256,179.198254 C34.4031256,179.705704 34.51985,180.073274 34.7533023,180.300976 C34.9867546,180.528678 35.2744556,180.642527 35.6164139,180.642527 C35.9781006,180.642527 36.2756656,180.569338 36.5091179,180.422958 C36.7425702,180.276579 36.9480709,180.096046 37.1256262,179.881356 L37.1650827,176.57319 Z M49.9276916,167 L43.1115762,186 L41.829239,186 L48.6256262,167 L49.9276916,167 Z M54,180.740113 C54,181.104436 53.8668355,181.415082 53.6005026,181.67206 C53.3341697,181.929037 53.0168767,182.057524 52.6486139,182.057524 C52.2803511,182.057524 51.963058,181.929037 51.6967251,181.67206 C51.4303922,181.415082 51.2972277,181.104436 51.2972277,180.740113 C51.2972277,180.37579 51.4303922,180.061891 51.6967251,179.798408 C51.963058,179.534924 52.2803511,179.403184 52.6486139,179.403184 C53.0168767,179.403184 53.3341697,179.534924 53.6005026,179.798408 C53.8668355,180.061891 54,180.37579 54,180.740113 Z" id="a/." fill="#343D51" fill-rule="nonzero"></path>
        <text id="Riêng-tư" font-family="SFCompactDisplay-Semibold, SF Compact Display" font-size="20" font-weight="500" line-spacing="20" letter-spacing="-1" fill="#343D51">
            <tspan x="58" y="181">Riêng tư</tspan>
        </text>
        <text id="Công-nghệ-của-Chanch" font-family="SFCompactDisplay-Regular, SF Compact Display" font-size="15" font-weight="normal" line-spacing="22" fill="#4D5B72">
            <tspan x="30" y="440">Công nghệ của Chanchan đánh giá triển </tspan>
            <tspan x="30" y="462">vọng dựa trên khả năng đến với nhau </tspan>
            <tspan x="30" y="484">bằng con người thực của mình.</tspan>
        </text>
        <text id="Công-nghệ-dùng-để-đá" font-family="SFCompactDisplay-Regular, SF Compact Display" font-size="15" font-weight="normal" line-spacing="22" fill="#4D5B72">
            <tspan x="30" y="626">Công nghệ dùng để đánh giá &amp; so sánh </tspan>
            <tspan x="30" y="648">Triển vọng đang là lợi thế, sản phẩm trí </tspan>
            <tspan x="30" y="670">tuệ của Chanchan.</tspan>
        </text>
        <text id="Do-vậy-sự-chân-thành" font-family="Georgia-Italic, Georgia" font-size="14" font-style="italic" font-weight="normal" line-spacing="22" fill="#5D6A80">
            <tspan x="50" y="521">Do vậy sự chân thành giữa hai người </tspan>
            <tspan x="50" y="543">là yếu tố quan trọng ảnh hưởng đến </tspan>
            <tspan x="50" y="565">chỉ số triển vọng cũng như cơ hội gặp </tspan>
            <tspan x="50" y="587">gỡ.</tspan>
        </text>
        <rect id="Rectangle" fill="#343D51" x="30" y="511" width="2" height="78"></rect>
        <text id="……………………………………………………" font-family="Georgia-Italic, Georgia" font-size="14" font-style="italic" font-weight="normal" line-spacing="22" fill="#DADFE7">
            <tspan x="30" y="707">……………………………………………………………</tspan>
        </text>
        <path d="M42.5459987,405.203347 C42.5459987,406.648587 42.0573907,407.846513 41.0801601,408.79716 C40.1029296,409.747807 38.8641356,410.223124 37.3637412,410.223124 C36.7846416,410.223124 36.2861627,410.182979 35.8682897,410.102688 C35.4504167,410.022396 35.0967106,409.924443 34.8071608,409.808824 C34.5044496,409.686781 34.2626134,409.566346 34.0816447,409.447515 C33.9006761,409.328684 33.7575485,409.230731 33.6522577,409.153651 L32.2407094,410.406187 L31.6583224,410.184584 C31.6912258,409.715684 31.7191933,409.206646 31.7422256,408.657454 C31.765258,408.108263 31.776774,407.36799 31.776774,406.436613 L31.776774,397.418357 C31.776774,397.174272 31.7257745,396.947854 31.623774,396.739097 C31.5217735,396.53034 31.3852265,396.371366 31.2141289,396.26217 C31.089096,396.185091 30.906485,396.117647 30.6662903,396.059838 C30.4260955,396.002028 30.204001,395.966701 30,395.953854 L30,395.250507 L34.8762576,395 L35.0243221,395.154158 L35.0243221,401.416836 L35.0835479,401.416836 C35.5639373,400.960782 36.0574807,400.626776 36.5641929,400.414807 C37.070905,400.202839 37.5776096,400.096856 38.0843217,400.096856 C39.466264,400.096856 40.5553498,400.556114 41.3516117,401.474645 C42.1478737,402.393176 42.5459987,403.636064 42.5459987,405.203347 Z M39.0023217,405.318966 C39.0023217,404.830795 38.9644833,404.360296 38.8888055,403.907454 C38.8131277,403.454612 38.6864516,403.054768 38.5087733,402.707911 C38.331095,402.361053 38.0974845,402.08325 37.8079347,401.874493 C37.5183849,401.665736 37.1597433,401.561359 36.7319993,401.561359 C36.330578,401.561359 35.9982588,401.625591 35.7350317,401.754057 C35.4718046,401.882523 35.2349037,402.072007 35.0243221,402.322515 L35.0243221,407.93002 C35.0638061,408.058486 35.1378376,408.227095 35.2464188,408.435852 C35.355,408.644609 35.4652247,408.806795 35.5770962,408.922414 C35.7350325,409.089419 35.9028372,409.216277 36.0805155,409.302992 C36.2581938,409.389706 36.5082558,409.433063 36.830709,409.433063 C37.5019381,409.433063 38.0316746,409.07497 38.4199346,408.358773 C38.8081946,407.642576 39.0023217,406.629317 39.0023217,405.318966 Z M50.9248701,395.240872 L44.1040321,414 L42.8208064,414 L49.6219025,395.240872 L50.9248701,395.240872 Z M55,408.806795 C55,409.166499 54.8667433,409.473207 54.6002258,409.726927 C54.3337084,409.980647 54.0161955,410.107505 53.6476776,410.107505 C53.2791596,410.107505 52.9616467,409.980647 52.6951293,409.726927 C52.4286118,409.473207 52.2953551,409.166499 52.2953551,408.806795 C52.2953551,408.447091 52.4286118,408.137172 52.6951293,407.877028 C52.9616467,407.616885 53.2791596,407.486815 53.6476776,407.486815 C54.0161955,407.486815 54.3337084,407.616885 54.6002258,407.877028 C54.8667433,408.137172 55,408.447091 55,408.806795 Z" id="b/." fill="#343D51" fill-rule="nonzero"></path>
        <text id="Chân-thực" font-family="SFCompactDisplay-Semibold, SF Compact Display" font-size="20" font-weight="500" line-spacing="20" letter-spacing="-1" fill="#343D51">
            <tspan x="59" y="409">Chân thực</tspan>
        </text>
        <path d="M35.5605885,768.174628 C34.6371409,768.174628 33.8216625,768.042888 33.1141289,767.779404 C32.4065952,767.515921 31.8236362,767.156482 31.3652341,766.701079 C30.906832,766.239169 30.5646965,765.692693 30.3388172,765.061633 C30.1129379,764.430574 30,763.744226 30,763.002568 C30,762.325968 30.1378507,761.681907 30.4135563,761.070365 C30.6892619,760.458822 31.0629536,759.922105 31.5346427,759.460195 C32.0196188,758.985274 32.6225081,758.606319 33.3433287,758.323318 C34.0641494,758.040317 34.8596975,757.898819 35.7299971,757.898819 C36.9524026,757.898819 37.9190185,758.124891 38.6298739,758.577042 C39.3407293,759.029192 39.6961516,759.639099 39.6961516,760.40678 C39.6961516,760.875195 39.5699269,761.252524 39.3174735,761.538778 C39.0650202,761.825031 38.629877,761.968156 38.0120307,761.968156 C37.5137676,761.968156 37.0968937,761.851054 36.7613966,761.616846 C36.4258994,761.382639 36.2581534,761.076872 36.2581534,760.699538 C36.2581534,760.380755 36.3113006,760.06523 36.4175968,759.752953 C36.5238929,759.440676 36.5870053,759.203219 36.6069358,759.040575 C36.5338572,758.923471 36.4408495,758.834018 36.3279098,758.772214 C36.2149702,758.710409 36.0389199,758.679507 35.7997536,758.679507 C35.5007957,758.679507 35.228416,758.747816 34.9826062,758.884438 C34.7367964,759.021059 34.5075988,759.261769 34.2950065,759.606574 C34.0890578,759.931863 33.9246334,760.367743 33.8017285,760.914227 C33.6788236,761.460712 33.6173721,762.117784 33.6173721,762.885465 C33.6173721,764.043491 33.8947344,764.977055 34.4494673,765.686184 C35.0042002,766.395313 35.6668802,766.749872 36.4375272,766.749872 C37.1749566,766.749872 37.7612374,766.588856 38.1963872,766.266821 C38.6315369,765.944785 39.0185155,765.487762 39.3573344,764.895737 L40.1047253,765.403184 C39.8987766,765.800036 39.6529705,766.162727 39.3672996,766.491269 C39.0816288,766.81981 38.7394932,767.110939 38.3408827,767.364664 C37.9223417,767.6314 37.4971636,767.833076 37.0653356,767.969697 C36.6335075,768.106318 36.1319302,768.174628 35.5605885,768.174628 Z M47.8859617,753 L41,772 L39.7045224,772 L46.5705537,753 L47.8859617,753 Z M52,766.740113 C52,767.104436 51.865471,767.415082 51.5964089,767.67206 C51.3273468,767.929037 51.0068024,768.057524 50.6347659,768.057524 C50.2627295,768.057524 49.942185,767.929037 49.6731229,767.67206 C49.4040608,767.415082 49.2695318,767.104436 49.2695318,766.740113 C49.2695318,766.37579 49.4040608,766.061891 49.6731229,765.798408 C49.942185,765.534924 50.2627295,765.403184 50.6347659,765.403184 C51.0068024,765.403184 51.3273468,765.534924 51.5964089,765.798408 C51.865471,766.061891 52,766.37579 52,766.740113 Z" id="c/." fill="#343D51" fill-rule="nonzero"></path>
        <text id="Chắc-chắn-về-nội-tâm" font-family="SFCompactDisplay-Semibold, SF Compact Display" font-size="20" font-weight="500" line-spacing="20" letter-spacing="-1" fill="#343D51">
            <tspan x="57" y="767">Chắc chắn về nội tâm</tspan>
        </text>
        <text id="……………………………………………………" font-family="Georgia-Italic, Georgia" font-size="14" font-style="italic" font-weight="normal" line-spacing="22" fill="#DADFE7">
            <tspan x="30" y="1093">……………………………………………………………</tspan>
        </text>
        <text id="Bằng-cách-này-Chanch" font-family="Georgia-Italic, Georgia" font-size="14" font-style="italic" font-weight="normal" line-spacing="22" fill="#5D6A80">
            <tspan x="50" y="945">Bằng cách này Chanchan tìm ra &amp; kết </tspan>
            <tspan x="50" y="967">nối bạn đến nhiều Triển vọng như là </tspan>
            <tspan x="50" y="989">một phép thử về nội tâm, thử thách </tspan>
            <tspan x="50" y="1011">sự chắn chắn của bạn khi quyết định </tspan>
            <tspan x="50" y="1033">đến với ai đó trong những Triển vọng </tspan>
            <tspan x="50" y="1055">đang có.  </tspan>
        </text>
        <rect id="Rectangle" fill="#343D51" x="30" y="935" width="2" height="122"></rect>
        <text id="Công-nghệ-của-Chanch" font-family="SFCompactDisplay-Regular, SF Compact Display" font-size="15" font-weight="normal" line-spacing="22" fill="#4D5B72">
            <tspan x="30" y="798">Công nghệ của Chanchan cho phép tại </tspan>
            <tspan x="30" y="820">một thời điểm đánh giá và so sánh Triển </tspan>
            <tspan x="30" y="842">vọng giữa bạn với nhiều Thành viên dựa </tspan>
            <tspan x="30" y="864">trên những dấu hiệu phức tạp mà </tspan>
            <tspan x="30" y="886">những cách thức thông thường không </tspan>
            <tspan x="30" y="908">đạt được kết quả tương tự.</tspan>
        </text>
        <text id="Chanchan-không-cho-T" font-family="SFCompactDisplay-Regular, SF Compact Display" font-size="15" font-weight="normal" line-spacing="22" fill="#4D5B72">
            <tspan x="30" y="1184">Chanchan không cho Thành viên biết về </tspan>
            <tspan x="30" y="1206">triển vọng của của mình với đối phương.</tspan>
        </text>
        <path d="M43.3986956,1153.71247 L38.6232605,1153.99189 L38.4779633,1153.857 L38.4779633,1152.97059 L38.4101579,1152.95132 C38.0937313,1153.29175 37.665916,1153.58883 37.1266992,1153.84255 C36.5874824,1154.09627 36.0434305,1154.22312 35.4945271,1154.22312 C34.1900745,1154.22312 33.1148859,1153.74138 32.268929,1152.77789 C31.4229721,1151.8144 31,1150.5683 31,1149.03955 C31,1147.68424 31.4730184,1146.52164 32.4190695,1145.55172 C33.3651205,1144.58181 34.5097282,1144.09686 35.8529269,1144.09686 C36.3824572,1144.09686 36.8796916,1144.15627 37.344645,1144.2751 C37.8095984,1144.39393 38.1809098,1144.53364 38.4585903,1144.69422 L38.4585903,1141.54361 C38.4585903,1141.30595 38.4101584,1141.08274 38.3132931,1140.87399 C38.2164278,1140.66523 38.087276,1140.50304 37.9258338,1140.38742 C37.7256456,1140.24611 37.475414,1140.14495 37.1751316,1140.08392 C36.8748492,1140.0229 36.5729569,1139.97955 36.2694456,1139.95385 L36.2694456,1139.25051 L41.5001453,1139 L41.6454425,1139.15416 L41.6454425,1151.7855 C41.6454425,1152.02958 41.6858024,1152.23512 41.7665235,1152.40213 C41.8472446,1152.56914 41.9780108,1152.70081 42.158826,1152.79716 C42.2944374,1152.86782 42.4930083,1152.9192 42.7545446,1152.95132 C43.0160809,1152.98343 43.2307957,1153.0027 43.3986956,1153.00913 L43.3986956,1153.71247 Z M38.4585903,1151.99746 L38.4585903,1146.55375 C38.4133865,1146.40602 38.350425,1146.24223 38.2697039,1146.06237 C38.1889828,1145.88252 38.0775894,1145.71231 37.9355203,1145.55172 C37.8063666,1145.41684 37.6336261,1145.29801 37.4172936,1145.19523 C37.2009611,1145.09246 36.9571858,1145.04108 36.6859643,1145.04108 C36.0401957,1145.04108 35.5106733,1145.40399 35.0973814,1146.12982 C34.6840895,1146.85565 34.4774466,1147.88015 34.4774466,1149.20335 C34.4774466,1149.72363 34.5145778,1150.19092 34.5888412,1150.60522 C34.6631046,1151.01953 34.7938708,1151.39689 34.9811437,1151.73732 C35.1684166,1152.07776 35.4089618,1152.34432 35.7027865,1152.53702 C35.9966112,1152.72972 36.3501642,1152.82606 36.7634561,1152.82606 C37.157375,1152.82606 37.4834833,1152.75059 37.7417907,1152.59965 C38.0000982,1152.4487 38.239029,1152.24797 38.4585903,1151.99746 Z M51.0010332,1139.24087 L44.3076749,1158 L43.0484324,1158 L49.7224177,1139.24087 L51.0010332,1139.24087 Z M55,1152.8068 C55,1153.1665 54.8692338,1153.47321 54.6076975,1153.72693 C54.3461612,1153.98065 54.0345825,1154.10751 53.6729521,1154.10751 C53.3113217,1154.10751 52.999743,1153.98065 52.7382067,1153.72693 C52.4766704,1153.47321 52.3459042,1153.1665 52.3459042,1152.8068 C52.3459042,1152.44709 52.4766704,1152.13717 52.7382067,1151.87703 C52.999743,1151.61689 53.3113217,1151.48682 53.6729521,1151.48682 C54.0345825,1151.48682 54.3461612,1151.61689 54.6076975,1151.87703 C54.8692338,1152.13717 55,1152.44709 55,1152.8068 Z" id="d/." fill="#343D51" fill-rule="nonzero"></path>
        <text id="Tự-nhiên" font-family="SFCompactDisplay-Semibold, SF Compact Display" font-size="20" font-weight="500" line-spacing="20" letter-spacing="-1" fill="#343D51">
            <tspan x="60" y="1153">Tự nhiên</tspan>
        </text>
        <text id="Bằng-cách-này-Chanch" font-family="Georgia-Italic, Georgia" font-size="14" font-style="italic" font-weight="normal" line-spacing="22" fill="#5D6A80">
            <tspan x="50" y="1243">Bằng cách này Chanchan giữ cho cả </tspan>
            <tspan x="50" y="1265">hai cảm nhận tình cảm của mình một </tspan>
            <tspan x="50" y="1287">cách chân thực mà không bị phân tâm </tspan>
            <tspan x="50" y="1309">bởi những gợi ý, gán ghép.</tspan>
        </text>
        <rect id="Rectangle" fill="#343D51" x="30" y="1233" width="2" height="78"></rect>
        <rect id="Rectangle" fill="#343D51" x="30" y="1487" width="2" height="122"></rect>
        <text id="Bởi-triển-vọng-được" font-family="SFCompactDisplay-Regular, SF Compact Display" font-size="15" font-weight="normal" line-spacing="22" fill="#4D5B72">
            <tspan x="30" y="1438">Bởi triển vọng được đánh giá qua khả </tspan>
            <tspan x="30" y="1460">năng kết nối chân thực.</tspan>
        </text>
        <text id="Cho-nên-trong-thời-g" font-family="Georgia-Italic, Georgia" font-size="14" font-style="italic" font-weight="normal" line-spacing="22" fill="#5D6A80">
            <tspan x="50" y="1497">Cho nên trong thời gian ở trong </tspan>
            <tspan x="50" y="1519">Chương trình, dù có thể chưa gặp </tspan>
            <tspan x="50" y="1541">được bạn đời nhưng những mối quan </tspan>
            <tspan x="50" y="1563">hệ mà bạn gặt hái được sẽ trở thành </tspan>
            <tspan x="50" y="1585">một nguồn năng lượng tích cực cho </tspan>
            <tspan x="50" y="1607">cuộc sống hàng ngày.</tspan>
        </text>
        <text id="Bởi-chất-lượng-cuộc" font-family="SFCompactDisplay-Regular, SF Compact Display" font-size="15" font-weight="normal" line-spacing="22" fill="#4D5B72">
            <tspan x="30" y="1646">Bởi chất lượng cuộc sống phụ thuộc </tspan>
            <tspan x="30" y="1668">nhiều vào chất lượng các mối quan hệ &amp; </tspan>
            <tspan x="30" y="1690">chất lượng của các mối quan hệ phụ </tspan>
            <tspan x="30" y="1712">thuộc nhiều vào sự chân thành &amp; tin </tspan>
            <tspan x="30" y="1734">tưởng.</tspan>
        </text>
        <text id="……………………………………………………" font-family="Georgia-Italic, Georgia" font-size="14" font-style="italic" font-weight="normal" line-spacing="22" fill="#DADFE7">
            <tspan x="30" y="1347">……………………………………………………………</tspan>
        </text>
        <path d="M41.1995914,1405.53005 C40.9754938,1405.90087 40.70498,1406.25055 40.388042,1406.5791 C40.0711039,1406.90764 39.7109525,1407.18901 39.3075768,1407.42322 C38.8785899,1407.67043 38.4448075,1407.85747 38.0062165,1407.98433 C37.5676255,1408.1112 37.0634134,1408.17463 36.4935652,1408.17463 C35.5459525,1408.17463 34.7280085,1408.03801 34.0397087,1407.76477 C33.3514089,1407.49152 32.78317,1407.12395 32.3349748,1406.66204 C31.8867796,1406.20013 31.5522389,1405.65528 31.3313427,1405.02748 C31.1104464,1404.39967 31,1403.7182 31,1402.98305 C31,1402.31946 31.1200505,1401.68353 31.3601551,1401.07524 C31.6002596,1400.46695 31.941203,1399.92536 32.3829954,1399.45044 C32.8183851,1398.98853 33.367416,1398.61445 34.0301046,1398.3282 C34.6927932,1398.04194 35.4339049,1397.89882 36.2534619,1397.89882 C37.1498523,1397.89882 37.8861619,1398.00942 38.4624129,1398.23061 C39.0386639,1398.45181 39.5156645,1398.75757 39.893429,1399.14792 C40.258388,1399.51875 40.5240997,1399.95625 40.6905722,1400.46045 C40.8570447,1400.96465 40.9402797,1401.49323 40.9402797,1402.04622 L40.9402797,1402.68053 L34.4478845,1402.68053 C34.4478845,1404.01422 34.7007908,1405.0291 35.2066111,1405.72522 C35.7124314,1406.42134 36.5159694,1406.76939 37.617249,1406.76939 C38.2191112,1406.76939 38.7601387,1406.60187 39.2403478,1406.26682 C39.720557,1405.93177 40.1303293,1405.50728 40.4696771,1404.99332 L41.1995914,1405.53005 Z M37.5308118,1401.82178 C37.5308118,1401.43143 37.5116037,1401.03133 37.473187,1400.62147 C37.4347703,1400.21161 37.367542,1399.87656 37.2715002,1399.61633 C37.1626528,1399.31056 37.0137902,1399.07961 36.8249079,1398.92347 C36.6360256,1398.76733 36.3975253,1398.68927 36.1093998,1398.68927 C35.6163851,1398.68927 35.2226195,1398.94299 34.9280912,1399.45044 C34.6335629,1399.95789 34.4734956,1400.76134 34.4478845,1401.86081 L37.5308118,1401.82178 Z M49.0350289,1393 L42.3985716,1412 L41.1500341,1412 L47.7672831,1393 L49.0350289,1393 Z M53,1406.74011 C53,1407.10444 52.8703455,1407.41508 52.6110325,1407.67206 C52.3517196,1407.92904 52.0427897,1408.05752 51.6842335,1408.05752 C51.3256773,1408.05752 51.0167474,1407.92904 50.7574345,1407.67206 C50.4981215,1407.41508 50.368467,1407.10444 50.368467,1406.74011 C50.368467,1406.37579 50.4981215,1406.06189 50.7574345,1405.79841 C51.0167474,1405.53492 51.3256773,1405.40318 51.6842335,1405.40318 C52.0427897,1405.40318 52.3517196,1405.53492 52.6110325,1405.79841 C52.8703455,1406.06189 53,1406.37579 53,1406.74011 Z" id="e/." fill="#343D51" fill-rule="nonzero"></path>
        <text id="Năng-lượng-sống" font-family="SFCompactDisplay-Semibold, SF Compact Display" font-size="20" font-weight="500" line-spacing="20" letter-spacing="-1" fill="#343D51">
            <tspan x="58" y="1407">Năng lượng sống</tspan>
        </text>
        <text id="Tiêu-chuẩn-cộng-đồng" font-family="SFCompactDisplay-Regular, SF Compact Display" font-size="15" font-weight="normal" line-spacing="22" fill="#4D5B72">
            <tspan x="30" y="1862">Tiêu chuẩn cộng đồng được quản trị </tspan>
            <tspan x="30" y="1884">xuyên suốt từ các Chiến dịch marketing </tspan>
            <tspan x="30" y="1906">cho đến vận hành chương trình.</tspan>
        </text>
        <text id="Ngầm-giới-hạn-bạn-kh" font-family="Georgia-Italic, Georgia" font-size="14" font-style="italic" font-weight="normal" line-spacing="22" fill="#5D6A80">
            <tspan x="50" y="2115">Ngầm giới hạn bạn khỏi những mối </tspan>
            <tspan x="50" y="2137">quan hệ ngắn hạn, không có nhiều </tspan>
            <tspan x="50" y="2159">triển vọng có thể mang lại những trải </tspan>
            <tspan x="50" y="2181">nghiệm tiêu cực.</tspan>
        </text>
        <text id="—" font-family="Georgia-Italic, Georgia" font-size="14" font-style="italic" font-weight="normal" line-spacing="22" fill="#5D6A80">
            <tspan x="30" y="2115">—</tspan>
        </text>
        <text id="……………………………………………………" font-family="Georgia-Italic, Georgia" font-size="14" font-style="italic" font-weight="normal" line-spacing="22" fill="#DADFE7">
            <tspan x="50" y="2207">………………………………………………………</tspan>
        </text>
        <text id="Bởi-Chanchan-kết-nối" font-family="SFCompactDisplay-Regular, SF Compact Display" font-size="15" font-weight="normal" line-spacing="22" fill="#4D5B72">
            <tspan x="30" y="2034">Bởi Chanchan kết nối dựa trên triển </tspan>
            <tspan x="30" y="2056">vọng bên nhau dài lâu trong cuộc sống </tspan>
            <tspan x="30" y="2078">thực cho nên</tspan>
        </text>
        <text id="Thời-gian-của-bạn-lu" font-family="Georgia-Italic, Georgia" font-size="14" font-style="italic" font-weight="normal" line-spacing="22" fill="#5D6A80">
            <tspan x="50" y="2241">Thời gian của bạn luôn được tối ưu </tspan>
            <tspan x="50" y="2263">để dành nhiều cho những Triển vọng </tspan>
            <tspan x="50" y="2285">tin cậy nhất.</tspan>
        </text>
        <text id="—" font-family="Georgia-Italic, Georgia" font-size="14" font-style="italic" font-weight="normal" line-spacing="22" fill="#5D6A80">
            <tspan x="30" y="2241">—</tspan>
        </text>
        <text id="Tin-tưởng" font-family="SFCompactDisplay-Semibold, SF Compact Display" font-size="20" font-weight="500" line-spacing="20" letter-spacing="-1.2" fill="#343D51">
            <tspan x="58" y="2003">Tin tưởng</tspan>
        </text>
        <text id="……………………………………………………" font-family="Georgia-Italic, Georgia" font-size="14" font-style="italic" font-weight="normal" line-spacing="22" fill="#DADFE7">
            <tspan x="30" y="1771">……………………………………………………………</tspan>
        </text>
        <text id="……………………………………………………" font-family="Georgia-Italic, Georgia" font-size="14" font-style="italic" font-weight="normal" line-spacing="22" fill="#DADFE7">
            <tspan x="30" y="1943">……………………………………………………………</tspan>
        </text>
        <path d="M39.5301757,1818.6371 C39.5301757,1818.7976 39.5047112,1818.97415 39.4537815,1819.16675 C39.4028518,1819.35935 39.3200922,1819.52306 39.2055004,1819.65788 C39.0718099,1819.81838 38.9222061,1819.94036 38.7566845,1820.02382 C38.5911629,1820.10728 38.3428843,1820.14901 38.0118411,1820.14901 C37.5089101,1820.14901 37.1142108,1819.97246 36.8277311,1819.61936 C36.5412514,1819.26626 36.2356777,1818.67883 35.9110008,1817.85707 C35.6563522,1817.96621 35.4494533,1818.24869 35.2902979,1818.70451 C35.1311426,1819.16033 35.0515661,1820.13937 35.0515661,1821.64166 L35.0515661,1822.40243 L37.6871658,1822.40243 L37.6871658,1823.44247 L35.0706646,1823.44247 L35.0706646,1830.07755 C35.0706646,1830.32793 35.1279597,1830.52213 35.2425516,1830.66016 C35.3571434,1830.79819 35.5067472,1830.89931 35.6913675,1830.96351 C35.8441566,1831.01487 36.0446894,1831.06462 36.2929717,1831.11277 C36.5412541,1831.16092 36.7640683,1831.19463 36.9614209,1831.21389 L36.9614209,1831.91688 L30.5156608,1831.91688 L30.5156608,1831.21389 C30.6811824,1831.20105 30.8419269,1831.185 30.9978992,1831.16574 C31.1538714,1831.14648 31.2923345,1831.11438 31.4132926,1831.06944 C31.6170115,1830.9924 31.7554746,1830.88165 31.828686,1830.7372 C31.9018975,1830.59275 31.9385027,1830.40176 31.9385027,1830.16422 L31.9385027,1823.44247 L30,1823.44247 L30,1822.40243 L31.9385027,1822.40243 C31.9385027,1821.71549 32.0371775,1821.04942 32.2345302,1820.40421 C32.4318828,1819.75899 32.7374566,1819.1828 33.1512605,1818.67562 C33.552332,1818.17486 34.0807199,1817.7704 34.73644,1817.46224 C35.3921601,1817.15408 36.1624606,1817 37.0473644,1817 C37.836775,1817 38.4479225,1817.15087 38.8808251,1817.45261 C39.3137277,1817.75435 39.5301757,1818.14918 39.5301757,1818.6371 Z M45.0576776,1817.25038 L38.4591291,1836 L37.2177235,1836 L43.7971734,1817.25038 L45.0576776,1817.25038 Z M49,1830.80943 C49,1831.16895 48.8710861,1831.4755 48.6132544,1831.72909 C48.3554227,1831.98268 48.0482574,1832.10948 47.6917494,1832.10948 C47.3352414,1832.10948 47.0280762,1831.98268 46.7702445,1831.72909 C46.5124128,1831.4755 46.3834989,1831.16895 46.3834989,1830.80943 C46.3834989,1830.44991 46.5124128,1830.14014 46.7702445,1829.88013 C47.0280762,1829.62012 47.3352414,1829.49012 47.6917494,1829.49012 C48.0482574,1829.49012 48.3554227,1829.62012 48.6132544,1829.88013 C48.8710861,1830.14014 49,1830.44991 49,1830.80943 Z" id="f/." fill="#343D51" fill-rule="nonzero"></path>
        <text id="Cộng-đồng" font-family="SFCompactDisplay-Semibold, SF Compact Display" font-size="20" font-weight="500" line-spacing="20" letter-spacing="-1" fill="#343D51">
            <tspan x="54" y="1831">Cộng đồng</tspan>
        </text>
        <path d="M41.2856704,1995.21098 L39.1266726,1995.21098 C39.3818281,1995.49432 39.5731919,1995.79376 39.7007697,1996.1093 C39.8283475,1996.42484 39.8921354,1996.75326 39.8921354,1997.09456 C39.8921354,1997.53889 39.7711019,1997.95585 39.5290313,1998.34545 C39.2869606,1998.73505 38.9696565,1999.05219 38.5771095,1999.2969 C38.17802,1999.54804 37.7102419,1999.74445 37.1737609,1999.88612 C36.63728,2000.02779 36.0550106,2000.09863 35.4269354,2000.09863 L33.8273143,2000.09863 C33.7488049,2000.15658 33.6621187,2000.24835 33.5672532,2000.37392 C33.4723877,2000.49949 33.4249556,2000.62023 33.4249556,2000.73615 C33.4249556,2001.01949 33.5394468,2001.2159 33.7684326,2001.32537 C33.9974183,2001.43484 34.4128577,2001.49602 35.0147631,2001.5089 C35.6101261,2001.52178 36.2120225,2001.54592 36.8204704,2001.58134 C37.4289183,2001.61676 37.8639847,2001.63769 38.1256827,2001.64413 C38.5051448,2001.66345 38.8813301,2001.73911 39.2542497,2001.87112 C39.6271694,2002.00314 39.9510158,2002.17539 40.2257987,2002.3879 C40.5267515,2002.61329 40.7753608,2002.90146 40.9716344,2003.25241 C41.1679079,2003.60337 41.2660431,2004.00745 41.2660431,2004.46467 C41.2660431,2004.95408 41.1466452,2005.4145 40.9078458,2005.84596 C40.6690463,2006.27741 40.3043102,2006.65091 39.8136264,2006.96645 C39.2967729,2007.29487 38.676885,2007.54923 37.9539442,2007.72954 C37.2310035,2007.90985 36.3363368,2008 35.2699174,2008 C33.549253,2008 32.2407825,2007.79394 31.3444668,2007.3818 C30.4481511,2006.96966 30,2006.35147 30,2005.5272 C30,2005.01847 30.242067,2004.5999 30.7262084,2004.27148 C31.2103497,2003.94306 31.9627202,2003.76275 32.9833424,2003.73055 L32.9833424,2003.61464 C32.381437,2003.41501 31.9120232,2003.14938 31.575087,2002.81774 C31.2381509,2002.4861 31.0696853,2002.10134 31.0696853,2001.66345 C31.0696853,2001.39298 31.1367444,2001.16438 31.2708646,2000.97763 C31.4049849,2000.79088 31.5767216,2000.62667 31.78608,2000.485 C31.9692686,2000.36265 32.1917086,2000.25801 32.4534066,2000.17107 C32.7151046,2000.08414 32.9342734,2000.01491 33.1109196,1999.9634 L33.1109196,1999.85714 C32.2276888,1999.53516 31.5783603,1999.14235 31.1629147,1998.6787 C30.7474691,1998.21505 30.5397495,1997.64837 30.5397495,1996.97865 C30.5397495,1996.03202 30.9829938,1995.27538 31.8694958,1994.70869 C32.7559979,1994.14201 33.8796468,1993.85867 35.2404765,1993.85867 C35.6853631,1993.85867 36.1155228,1993.8957 36.5309684,1993.96975 C36.946414,1994.04381 37.2620825,1994.10981 37.4779833,1994.16777 L41.2856704,1994.16777 L41.2856704,1995.21098 Z M36.6830796,1997.05592 C36.6830796,1996.30249 36.5620461,1995.70683 36.3199754,1995.26894 C36.0779048,1994.83104 35.7049907,1994.6121 35.201222,1994.6121 C34.9460664,1994.6121 34.7236265,1994.67167 34.5338954,1994.7908 C34.3441644,1994.90993 34.1904191,1995.08219 34.072655,1995.30757 C33.9614333,1995.52652 33.8861963,1995.78249 33.8469416,1996.0755 C33.8076869,1996.3685 33.7880598,1996.66955 33.7880598,1996.97865 C33.7880598,1997.68057 33.9123645,1998.2569 34.1609776,1998.70768 C34.4095907,1999.15845 34.7628777,1999.38383 35.2208493,1999.38383 C35.6919057,1999.38383 36.0533706,1999.18099 36.305255,1998.77529 C36.5571393,1998.3696 36.6830796,1997.79648 36.6830796,1997.05592 Z M38.3317688,2005.1698 C38.3317688,2004.95085 38.2696165,2004.73352 38.1453099,2004.51779 C38.0210034,2004.30207 37.7429534,2004.12659 37.3111517,2003.99136 C37.0756235,2003.95272 36.6879891,2003.92696 36.148237,2003.91408 C35.6084848,2003.9012 34.8675634,2003.89476 33.9254506,2003.89476 C33.6964648,2004.08795 33.505101,2004.31656 33.3513534,2004.58058 C33.1976058,2004.8446 33.1207332,2005.16336 33.1207332,2005.53686 C33.1207332,2005.69785 33.1665297,2005.87494 33.258124,2006.06812 C33.3497183,2006.26131 33.49365,2006.44162 33.6899235,2006.60905 C33.9189093,2006.7958 34.174061,2006.9423 34.4553864,2007.04855 C34.7367118,2007.1548 35.1619647,2007.20793 35.7311578,2007.20793 C36.5751339,2007.20793 37.2195556,2007.04694 37.6644422,2006.72496 C38.1093289,2006.40298 38.3317688,2005.8846 38.3317688,2005.1698 Z M48.9485425,1989 L42.1673266,2007.80681 L40.8915552,2007.80681 L47.6531438,1989 L48.9485425,1989 Z M53,2002.60041 C53,2002.96103 52.8675174,2003.26851 52.6025481,2003.52288 C52.3375789,2003.77724 52.0219104,2003.90442 51.6555332,2003.90442 C51.289156,2003.90442 50.9734875,2003.77724 50.7085182,2003.52288 C50.443549,2003.26851 50.3110664,2002.96103 50.3110664,2002.60041 C50.3110664,2002.23979 50.443549,2001.92908 50.7085182,2001.66828 C50.9734875,2001.40747 51.289156,2001.27707 51.6555332,2001.27707 C52.0219104,2001.27707 52.3375789,2001.40747 52.6025481,2001.66828 C52.8675174,2001.92908 53,2002.23979 53,2002.60041 Z" id="g/." fill="#343D51" fill-rule="nonzero"></path>
        <text id="Tiêu-chuẩn" font-family="SFCompactDisplay-Semibold, SF Compact Display" font-size="26" font-weight="500" line-spacing="26" letter-spacing="-1.56" fill="#191F2C">
            <tspan x="31" y="65">Tiêu chuẩn</tspan>
        </text>
    </g>
</svg>