<?xml version="1.0" encoding="UTF-8"?>
<svg width="321px" height="244px" viewBox="0 0 321 244" version="1.1" xmlns="http://www.w3.org/2000/svg" xmlns:xlink="http://www.w3.org/1999/xlink">
    <!-- Generator: Sketch 54.1 (76490) - https://sketchapp.com -->
    <title>cauchuyencuahongvan</title>
    <desc>Created with Sketch.</desc>
    <g id="cauchuyencuahongvan" stroke="none" stroke-width="1" fill="none" fill-rule="evenodd" transform="translate(1.000000, 0.000000)">
        <rect fill="#FFFFFF" x="0" y="0" width="320" height="244"></rect>
        <path d="M3.04720534,212 C3.01573507,212.166826 3,212.339903 3,212.519231 C3,213.198721 3.22884537,213.782049 3.68654298,214.269231 C4.14424058,214.756413 4.68408094,215 5.30608025,215 C5.91634372,215 6.45325017,214.759618 6.91681569,214.278846 C7.38038122,213.798075 7.6121605,213.211542 7.6121605,212.519231 C7.6121605,212.339903 7.59622108,212.166826 7.5643421,212 L12.7468253,212 C12.7153551,212.166826 12.69962,212.339903 12.69962,212.519231 C12.69962,213.198721 12.9284654,213.782049 13.386163,214.269231 C13.8438606,214.756413 14.3837009,215 15.0057002,215 C15.6159637,215 16.1528702,214.759618 16.6164357,214.278846 C17.0800012,213.798075 17.3117805,213.211542 17.3117805,212.519231 C17.3117805,212.339903 17.2958411,212.166826 17.2639621,212 L22.4464453,212 C22.414975,212.166826 22.39924,212.339903 22.39924,212.519231 C22.39924,213.198721 22.6280853,213.782049 23.0857829,214.269231 C23.5434805,214.756413 24.0833209,215 24.7053202,215 C25.3273195,215 25.8671599,214.756413 26.3248575,214.269231 C26.7825551,213.782049 27.0114005,213.198721 27.0114005,212.519231 C27.0114005,212.339903 26.9956654,212.166826 26.9641951,212 L32.1460653,212 C32.114595,212.166826 32.09886,212.339903 32.09886,212.519231 C32.09886,213.198721 32.3277053,213.782049 32.7854029,214.269231 C33.2431005,214.756413 33.7829409,215 34.4049402,215 C35.0152037,215 35.5521101,214.759618 36.0156756,214.278846 C36.4792412,213.798075 36.7110205,213.211542 36.7110205,212.519231 C36.7110205,212.339903 36.695081,212.166826 36.6632021,212 L41.8456853,212 C41.814215,212.166826 41.7984799,212.339903 41.7984799,212.519231 C41.7984799,213.198721 42.0273253,213.782049 42.4850229,214.269231 C42.9427205,214.756413 43.4825609,215 44.1045602,215 C44.7148237,215 45.2517301,214.759618 45.7152956,214.278846 C46.1788612,213.798075 46.4106404,213.211542 46.4106404,212.519231 C46.4106404,212.339903 46.394701,212.166826 46.362822,212 L51.5453053,212 C51.513835,212.166826 51.4980999,212.339903 51.4980999,212.519231 C51.4980999,213.198721 51.7269453,213.782049 52.1846429,214.269231 C52.6423405,214.756413 53.1821809,215 53.8041802,215 C54.4261795,215 54.9660198,214.756413 55.4237174,214.269231 C55.8814151,213.782049 56.1102604,213.198721 56.1102604,212.519231 C56.1102604,212.339903 56.0945254,212.166826 56.0630551,212 L61.2449252,212 C61.213455,212.166826 61.1977199,212.339903 61.1977199,212.519231 C61.1977199,213.198721 61.4265653,213.782049 61.8842629,214.269231 C62.3419605,214.756413 62.8818008,215 63.5038002,215 C64.1140636,215 64.6509701,214.759618 65.1145356,214.278846 C65.5781011,213.798075 65.8098804,213.211542 65.8098804,212.519231 C65.8098804,212.339903 65.793941,212.166826 65.762062,212 L70.9445452,212 C70.913075,212.166826 70.8973399,212.339903 70.8973399,212.519231 C70.8973399,213.198721 71.1261853,213.782049 71.5838829,214.269231 C72.0415805,214.756413 72.5814208,215 73.2034201,215 C73.8136836,215 74.3505901,214.759618 74.8141556,214.278846 C75.2777211,213.798075 75.5095004,213.211542 75.5095004,212.519231 C75.5095004,212.339903 75.493561,212.166826 75.461682,212 L80.6441652,212 C80.6126949,212.166826 80.5969599,212.339903 80.5969599,212.519231 C80.5969599,213.198721 80.8258052,213.782049 81.2835029,214.269231 C81.7412005,214.756413 82.2810408,215 82.9030401,215 C83.5250394,215 84.0648798,214.756413 84.5225774,214.269231 C84.980275,213.782049 85.2091204,213.198721 85.2091204,212.519231 C85.2091204,212.339903 85.1933853,212.166826 85.161915,212 L90.3437852,212 C90.3123149,212.166826 90.2965799,212.339903 90.2965799,212.519231 C90.2965799,213.198721 90.5254252,213.782049 90.9831228,214.269231 C91.4408204,214.756413 91.9806608,215 92.6026601,215 C93.2129236,215 93.74983,214.759618 94.2133956,214.278846 C94.6769611,213.798075 94.9087404,213.211542 94.9087404,212.519231 C94.9087404,212.339903 94.8928009,212.166826 94.860922,212 L100.043405,212 C100.011935,212.166826 99.9961998,212.339903 99.9961998,212.519231 C99.9961998,213.198721 100.225045,213.782049 100.682743,214.269231 C101.14044,214.756413 101.680281,215 102.30228,215 C102.912544,215 103.44945,214.759618 103.913016,214.278846 C104.376581,213.798075 104.60836,213.211542 104.60836,212.519231 C104.60836,212.339903 104.592421,212.166826 104.560542,212 L109.743025,212 C109.711555,212.166826 109.69582,212.339903 109.69582,212.519231 C109.69582,213.198721 109.924665,213.782049 110.382363,214.269231 C110.84006,214.756413 111.379901,215 112.0019,215 C112.623899,215 113.16374,214.756413 113.621437,214.269231 C114.079135,213.782049 114.30798,213.198721 114.30798,212.519231 C114.30798,212.339903 114.292245,212.166826 114.260775,212 L119.442645,212 C119.411175,212.166826 119.39544,212.339903 119.39544,212.519231 C119.39544,213.198721 119.624285,213.782049 120.081983,214.269231 C120.53968,214.756413 121.079521,215 121.70152,215 C122.311784,215 122.84869,214.759618 123.312256,214.278846 C123.775821,213.798075 124.0076,213.211542 124.0076,212.519231 C124.0076,212.339903 123.991661,212.166826 123.959782,212 L129.142265,212 C129.110795,212.166826 129.09506,212.339903 129.09506,212.519231 C129.09506,213.198721 129.323905,213.782049 129.781603,214.269231 C130.2393,214.756413 130.779141,215 131.40114,215 C132.011404,215 132.54831,214.759618 133.011875,214.278846 C133.475441,213.798075 133.70722,213.211542 133.70722,212.519231 C133.70722,212.339903 133.691281,212.166826 133.659402,212 L138.841885,212 C138.810415,212.166826 138.79468,212.339903 138.79468,212.519231 C138.79468,213.198721 139.023525,213.782049 139.481223,214.269231 C139.93892,214.756413 140.478761,215 141.10076,215 C141.722759,215 142.2626,214.756413 142.720297,214.269231 C143.177995,213.782049 143.40684,213.198721 143.40684,212.519231 C143.40684,212.339903 143.391105,212.166826 143.359635,212 L148.541505,212 C148.510035,212.166826 148.4943,212.339903 148.4943,212.519231 C148.4943,213.198721 148.723145,213.782049 149.180843,214.269231 C149.63854,214.756413 150.178381,215 150.80038,215 C151.410643,215 151.94755,214.759618 152.411115,214.278846 C152.874681,213.798075 153.10646,213.211542 153.10646,212.519231 C153.10646,212.339903 153.090521,212.166826 153.058642,212 L158.241125,212 C158.209655,212.166826 158.19392,212.339903 158.19392,212.519231 C158.19392,213.198721 158.422765,213.782049 158.880463,214.269231 C159.33816,214.756413 159.878001,215 160.5,215 C161.110263,215 161.64717,214.759618 162.110735,214.278846 C162.574301,213.798075 162.80608,213.211542 162.80608,212.519231 C162.80608,212.339903 162.790141,212.166826 162.758262,212 L167.940745,212 C167.909275,212.166826 167.89354,212.339903 167.89354,212.519231 C167.89354,213.198721 168.122385,213.782049 168.580083,214.269231 C169.03778,214.756413 169.577621,215 170.19962,215 C170.821619,215 171.36146,214.756413 171.819157,214.269231 C172.276855,213.782049 172.5057,213.198721 172.5057,212.519231 C172.5057,212.339903 172.489965,212.166826 172.458495,212 L177.640365,212 C177.608895,212.166826 177.59316,212.339903 177.59316,212.519231 C177.59316,213.198721 177.822005,213.782049 178.279703,214.269231 C178.7374,214.756413 179.277241,215 179.89924,215 C180.509503,215 181.04641,214.759618 181.509975,214.278846 C181.973541,213.798075 182.20532,213.211542 182.20532,212.519231 C182.20532,212.339903 182.189381,212.166826 182.157502,212 L187.339985,212 C187.308515,212.166826 187.29278,212.339903 187.29278,212.519231 C187.29278,213.198721 187.521625,213.782049 187.979323,214.269231 C188.43702,214.756413 188.976861,215 189.59886,215 C190.209123,215 190.74603,214.759618 191.209595,214.278846 C191.673161,213.798075 191.90494,213.211542 191.90494,212.519231 C191.90494,212.339903 191.889001,212.166826 191.857122,212 L197.039605,212 C197.008135,212.166826 196.9924,212.339903 196.9924,212.519231 C196.9924,213.198721 197.221245,213.782049 197.678943,214.269231 C198.13664,214.756413 198.676481,215 199.29848,215 C199.920479,215 200.46032,214.756413 200.918017,214.269231 C201.375715,213.782049 201.60456,213.198721 201.60456,212.519231 C201.60456,212.339903 201.588825,212.166826 201.557355,212 L206.739225,212 C206.707755,212.166826 206.69202,212.339903 206.69202,212.519231 C206.69202,213.198721 206.920865,213.782049 207.378563,214.269231 C207.83626,214.756413 208.376101,215 208.9981,215 C209.608363,215 210.14527,214.759618 210.608835,214.278846 C211.072401,213.798075 211.30418,213.211542 211.30418,212.519231 C211.30418,212.339903 211.288241,212.166826 211.256362,212 L216.438845,212 C216.407375,212.166826 216.39164,212.339903 216.39164,212.519231 C216.39164,213.198721 216.620485,213.782049 217.078183,214.269231 C217.53588,214.756413 218.075721,215 218.69772,215 C219.307983,215 219.84489,214.759618 220.308455,214.278846 C220.772021,213.798075 221.0038,213.211542 221.0038,212.519231 C221.0038,212.339903 220.987861,212.166826 220.955982,212 L226.138465,212 C226.106995,212.166826 226.09126,212.339903 226.09126,212.519231 C226.09126,213.198721 226.320105,213.782049 226.777803,214.269231 C227.2355,214.756413 227.775341,215 228.39734,215 C229.019339,215 229.55918,214.756413 230.016877,214.269231 C230.474575,213.782049 230.70342,213.198721 230.70342,212.519231 C230.70342,212.339903 230.687685,212.166826 230.656215,212 L235.838085,212 C235.806615,212.166826 235.79088,212.339903 235.79088,212.519231 C235.79088,213.198721 236.019725,213.782049 236.477423,214.269231 C236.93512,214.756413 237.474961,215 238.09696,215 C238.707223,215 239.24413,214.759618 239.707695,214.278846 C240.171261,213.798075 240.40304,213.211542 240.40304,212.519231 C240.40304,212.339903 240.387101,212.166826 240.355222,212 L245.537705,212 C245.506235,212.166826 245.4905,212.339903 245.4905,212.519231 C245.4905,213.198721 245.719345,213.782049 246.177043,214.269231 C246.63474,214.756413 247.174581,215 247.79658,215 C248.406843,215 248.94375,214.759618 249.407315,214.278846 C249.870881,213.798075 250.10266,213.211542 250.10266,212.519231 C250.10266,212.339903 250.086721,212.166826 250.054842,212 L255.237325,212 C255.205855,212.166826 255.19012,212.339903 255.19012,212.519231 C255.19012,213.198721 255.418965,213.782049 255.876663,214.269231 C256.33436,214.756413 256.874201,215 257.4962,215 C258.118199,215 258.65804,214.756413 259.115737,214.269231 C259.573435,213.782049 259.80228,213.198721 259.80228,212.519231 C259.80228,212.339903 259.786545,212.166826 259.755075,212 L264.936945,212 C264.905475,212.166826 264.88974,212.339903 264.88974,212.519231 C264.88974,213.198721 265.118585,213.782049 265.576283,214.269231 C266.03398,214.756413 266.573821,215 267.19582,215 C267.806083,215 268.34299,214.759618 268.806555,214.278846 C269.270121,213.798075 269.5019,213.211542 269.5019,212.519231 C269.5019,212.339903 269.485961,212.166826 269.454082,212 L274.636565,212 C274.605095,212.166826 274.58936,212.339903 274.58936,212.519231 C274.58936,213.198721 274.818205,213.782049 275.275903,214.269231 C275.7336,214.756413 276.273441,215 276.89544,215 C277.505703,215 278.04261,214.759618 278.506175,214.278846 C278.969741,213.798075 279.20152,213.211542 279.20152,212.519231 C279.20152,212.339903 279.185581,212.166826 279.153702,212 L284.336185,212 C284.304715,212.166826 284.28898,212.339903 284.28898,212.519231 C284.28898,213.198721 284.517825,213.782049 284.975523,214.269231 C285.43322,214.756413 285.97306,215 286.59506,215 C287.217059,215 287.756899,214.756413 288.214597,214.269231 C288.672295,213.782049 288.90114,213.198721 288.90114,212.519231 C288.90114,212.339903 288.885405,212.166826 288.853935,212 L294.035805,212 C294.004335,212.166826 293.9886,212.339903 293.9886,212.519231 C293.9886,213.198721 294.217445,213.782049 294.675143,214.269231 C295.13284,214.756413 295.67268,215 296.29468,215 C296.904943,215 297.44185,214.759618 297.905415,214.278846 C298.368981,213.798075 298.60076,213.211542 298.60076,212.519231 C298.60076,212.339903 298.584821,212.166826 298.552942,212 L303.735425,212 C303.703955,212.166826 303.68822,212.339903 303.68822,212.519231 C303.68822,213.198721 303.917065,213.782049 304.374762,214.269231 C304.83246,214.756413 305.3723,215 305.9943,215 C306.604563,215 307.14147,214.759618 307.605035,214.278846 C308.068601,213.798075 308.30038,213.211542 308.30038,212.519231 C308.30038,212.339903 308.284441,212.166826 308.252562,212 L313.435045,212 C313.403575,212.166826 313.387839,212.339903 313.387839,212.519231 C313.387839,213.198721 313.616685,213.782049 314.074382,214.269231 C314.53208,214.756413 315.07192,215 315.69392,215 C316.315919,215 316.855759,214.756413 317.313457,214.269231 C317.771155,213.782049 318,213.198721 318,212.519231 C318,212.339903 317.984265,212.166826 317.952795,212 L320,212 L320,244 L0,244 L0,212 L3.04720534,212 Z" id="Rectangle-2" fill="#F0F6FA"></path>
        <text id="Câu-chuyện-của-Hồng" font-family="SFCompactDisplay-Semibold, SF Compact Display" font-size="26" font-weight="500" line-spacing="26" letter-spacing="-1.56" fill="#191F2C">
            <tspan x="30" y="77">Câu chuyện của Hồng </tspan>
            <tspan x="30" y="103">vân</tspan>
        </text>
        <text id="—-Chia-sẻ-của-Hồng-v" font-family="Georgia-Italic, Georgia" font-size="14" font-style="italic" font-weight="normal" line-spacing="22" fill="#5D6A80">
            <tspan x="30" y="149">— Chia sẻ của Hồng vân về Chương trình </tspan>
            <tspan x="30" y="171">của cô ấy ở Chanchan</tspan>
        </text>
    </g>
</svg>