<?xml version="1.0" encoding="UTF-8"?>
<svg width="320px" height="532px" viewBox="0 0 320 532" version="1.1" xmlns="http://www.w3.org/2000/svg" xmlns:xlink="http://www.w3.org/1999/xlink">
    <!-- Generator: Sketch 54.1 (76490) - https://sketchapp.com -->
    <title>hongvan_overlay</title>
    <desc>Created with Sketch.</desc>
    <defs>
        <linearGradient x1="0%" y1="0%" x2="100%" y2="0%" id="linearGradient-1">
            <stop stop-color="#8C96A8" stop-opacity="0" offset="0%"></stop>
            <stop stop-color="#8C96A8" offset="17.791913%"></stop>
            <stop stop-color="#8C96A8" offset="82.728658%"></stop>
            <stop stop-color="#8C96A8" stop-opacity="0" offset="100%"></stop>
        </linearGradient>
    </defs>
    <g id="hongvan_overlay" stroke="none" stroke-width="1" fill="none" fill-rule="evenodd">
        <path d="M0,0 L320,0 L320,520 L0,520 L0,0 Z M25,32 C22.2385763,32 20,34.2385763 20,37 L20,495 C20,497.761424 22.2385763,500 25,500 L295,500 C297.761424,500 300,497.761424 300,495 L300,37 C300,34.2385763 297.761424,32 295,32 L25,32 Z" id="Rectangle-2" fill="#F0F6FA"></path>
        <rect id="Rectangle" fill="url(#linearGradient-1)" opacity="0.4" x="20" y="518" width="280" height="1"></rect>
        <path d="M0,0 L320,0 L320,532 L0,532 L0,0 Z M25,32 C22.2385763,32 20,34.2385763 20,37 L20,495 C20,497.761424 22.2385763,500 25,500 L295,500 C297.761424,500 300,497.761424 300,495 L300,37 C300,34.2385763 297.761424,32 295,32 L25,32 Z" id="Rectangle-2" fill="#F0F6FA"></path>
        <path d="M30.2333984,529.254883 C30.2333984,529.49642 30.1445321,529.703775 29.9667969,529.876953 C29.7890616,530.050131 29.5794283,530.136719 29.3378906,530.136719 C29.096353,530.136719 28.8867196,530.050131 28.7089844,529.876953 C28.5312491,529.703775 28.4423828,529.49642 28.4423828,529.254883 C28.4423828,529.013345 28.5301098,528.803712 28.7055664,528.625977 C28.881023,528.448241 29.0917956,528.359375 29.3378906,528.359375 C29.5839856,528.359375 29.7947582,528.448241 29.9702148,528.625977 C30.1456715,528.803712 30.2333984,529.013345 30.2333984,529.254883 Z M26.4667969,529.254883 C26.4667969,529.500978 26.3767913,529.709472 26.1967773,529.880371 C26.0167634,530.05127 25.8082694,530.136719 25.5712891,530.136719 C25.3297514,530.136719 25.1201181,530.050131 24.9423828,529.876953 C24.7646475,529.703775 24.6757812,529.49642 24.6757812,529.254883 C24.6757812,529.013345 24.7635082,528.803712 24.9389648,528.625977 C25.1144215,528.448241 25.3251941,528.359375 25.5712891,528.359375 C25.8128267,528.359375 26.02246,528.448241 26.2001953,528.625977 C26.3779306,528.803712 26.4667969,529.013345 26.4667969,529.254883 Z M22.7001953,529.254883 C22.7001953,529.500978 22.6101897,529.709472 22.4301758,529.880371 C22.2501619,530.05127 22.0416679,530.136719 21.8046875,530.136719 C21.5631498,530.136719 21.3535165,530.050131 21.1757812,529.876953 C20.998046,529.703775 20.9091797,529.49642 20.9091797,529.254883 C20.9091797,529.013345 20.9969067,528.803712 21.1723633,528.625977 C21.3478199,528.448241 21.5585925,528.359375 21.8046875,528.359375 C22.0462252,528.359375 22.2558585,528.448241 22.4335938,528.625977 C22.611329,528.803712 22.7001953,529.013345 22.7001953,529.254883 Z M41.5332031,529.254883 C41.5332031,529.49642 41.4443368,529.703775 41.2666016,529.876953 C41.0888663,530.050131 40.879233,530.136719 40.6376953,530.136719 C40.3961576,530.136719 40.1865243,530.050131 40.0087891,529.876953 C39.8310538,529.703775 39.7421875,529.49642 39.7421875,529.254883 C39.7421875,529.013345 39.8299145,528.803712 40.0053711,528.625977 C40.1808277,528.448241 40.3916003,528.359375 40.6376953,528.359375 C40.8837903,528.359375 41.0945629,528.448241 41.2700195,528.625977 C41.4454761,528.803712 41.5332031,529.013345 41.5332031,529.254883 Z M37.7666016,529.254883 C37.7666016,529.500978 37.676596,529.709472 37.496582,529.880371 C37.3165681,530.05127 37.1080741,530.136719 36.8710938,530.136719 C36.6295561,530.136719 36.4199228,530.050131 36.2421875,529.876953 C36.0644522,529.703775 35.9755859,529.49642 35.9755859,529.254883 C35.9755859,529.013345 36.0633129,528.803712 36.2387695,528.625977 C36.4142261,528.448241 36.6249988,528.359375 36.8710938,528.359375 C37.1126314,528.359375 37.3222647,528.448241 37.5,528.625977 C37.6777353,528.803712 37.7666016,529.013345 37.7666016,529.254883 Z M34,529.254883 C34,529.500978 33.9099944,529.709472 33.7299805,529.880371 C33.5499665,530.05127 33.3414725,530.136719 33.1044922,530.136719 C32.8629545,530.136719 32.6533212,530.050131 32.4755859,529.876953 C32.2978507,529.703775 32.2089844,529.49642 32.2089844,529.254883 C32.2089844,529.013345 32.2967114,528.803712 32.472168,528.625977 C32.6476246,528.448241 32.8583972,528.359375 33.1044922,528.359375 C33.3460299,528.359375 33.5556632,528.448241 33.7333984,528.625977 C33.9111337,528.803712 34,529.013345 34,529.254883 Z M52.8330078,529.254883 C52.8330078,529.49642 52.7441415,529.703775 52.5664062,529.876953 C52.388671,530.050131 52.1790377,530.136719 51.9375,530.136719 C51.6959623,530.136719 51.486329,530.050131 51.3085938,529.876953 C51.1308585,529.703775 51.0419922,529.49642 51.0419922,529.254883 C51.0419922,529.013345 51.1297192,528.803712 51.3051758,528.625977 C51.4806324,528.448241 51.691405,528.359375 51.9375,528.359375 C52.183595,528.359375 52.3943676,528.448241 52.5698242,528.625977 C52.7452808,528.803712 52.8330078,529.013345 52.8330078,529.254883 Z M49.0664062,529.254883 C49.0664062,529.500978 48.9764006,529.709472 48.7963867,529.880371 C48.6163728,530.05127 48.4078788,530.136719 48.1708984,530.136719 C47.9293608,530.136719 47.7197275,530.050131 47.5419922,529.876953 C47.3642569,529.703775 47.2753906,529.49642 47.2753906,529.254883 C47.2753906,529.013345 47.3631176,528.803712 47.5385742,528.625977 C47.7140308,528.448241 47.9248035,528.359375 48.1708984,528.359375 C48.4124361,528.359375 48.6220694,528.448241 48.7998047,528.625977 C48.97754,528.803712 49.0664062,529.013345 49.0664062,529.254883 Z M45.2998047,529.254883 C45.2998047,529.500978 45.2097991,529.709472 45.0297852,529.880371 C44.8497712,530.05127 44.6412772,530.136719 44.4042969,530.136719 C44.1627592,530.136719 43.9531259,530.050131 43.7753906,529.876953 C43.5976554,529.703775 43.5087891,529.49642 43.5087891,529.254883 C43.5087891,529.013345 43.596516,528.803712 43.7719727,528.625977 C43.9474293,528.448241 44.1582019,528.359375 44.4042969,528.359375 C44.6458345,528.359375 44.8554679,528.448241 45.0332031,528.625977 C45.2109384,528.803712 45.2998047,529.013345 45.2998047,529.254883 Z M64.1328125,529.254883 C64.1328125,529.49642 64.0439462,529.703775 63.8662109,529.876953 C63.6884757,530.050131 63.4788424,530.136719 63.2373047,530.136719 C62.995767,530.136719 62.7861337,530.050131 62.6083984,529.876953 C62.4306632,529.703775 62.3417969,529.49642 62.3417969,529.254883 C62.3417969,529.013345 62.4295239,528.803712 62.6049805,528.625977 C62.7804371,528.448241 62.9912097,528.359375 63.2373047,528.359375 C63.4833997,528.359375 63.6941723,528.448241 63.8696289,528.625977 C64.0450855,528.803712 64.1328125,529.013345 64.1328125,529.254883 Z M60.3662109,529.254883 C60.3662109,529.500978 60.2762053,529.709472 60.0961914,529.880371 C59.9161775,530.05127 59.7076835,530.136719 59.4707031,530.136719 C59.2291655,530.136719 59.0195321,530.050131 58.8417969,529.876953 C58.6640616,529.703775 58.5751953,529.49642 58.5751953,529.254883 C58.5751953,529.013345 58.6629223,528.803712 58.8383789,528.625977 C59.0138355,528.448241 59.2246081,528.359375 59.4707031,528.359375 C59.7122408,528.359375 59.9218741,528.448241 60.0996094,528.625977 C60.2773446,528.803712 60.3662109,529.013345 60.3662109,529.254883 Z M56.5996094,529.254883 C56.5996094,529.500978 56.5096038,529.709472 56.3295898,529.880371 C56.1495759,530.05127 55.9410819,530.136719 55.7041016,530.136719 C55.4625639,530.136719 55.2529306,530.050131 55.0751953,529.876953 C54.89746,529.703775 54.8085938,529.49642 54.8085938,529.254883 C54.8085938,529.013345 54.8963207,528.803712 55.0717773,528.625977 C55.247234,528.448241 55.4580066,528.359375 55.7041016,528.359375 C55.9456392,528.359375 56.1552725,528.448241 56.3330078,528.625977 C56.5107431,528.803712 56.5996094,529.013345 56.5996094,529.254883 Z M75.4326172,529.254883 C75.4326172,529.49642 75.3437509,529.703775 75.1660156,529.876953 C74.9882804,530.050131 74.778647,530.136719 74.5371094,530.136719 C74.2955717,530.136719 74.0859384,530.050131 73.9082031,529.876953 C73.7304679,529.703775 73.6416016,529.49642 73.6416016,529.254883 C73.6416016,529.013345 73.7293285,528.803712 73.9047852,528.625977 C74.0802418,528.448241 74.2910144,528.359375 74.5371094,528.359375 C74.7832044,528.359375 74.993977,528.448241 75.1694336,528.625977 C75.3448902,528.803712 75.4326172,529.013345 75.4326172,529.254883 Z M71.6660156,529.254883 C71.6660156,529.500978 71.57601,529.709472 71.3959961,529.880371 C71.2159822,530.05127 71.0074882,530.136719 70.7705078,530.136719 C70.5289701,530.136719 70.3193368,530.050131 70.1416016,529.876953 C69.9638663,529.703775 69.875,529.49642 69.875,529.254883 C69.875,529.013345 69.962727,528.803712 70.1381836,528.625977 C70.3136402,528.448241 70.5244128,528.359375 70.7705078,528.359375 C71.0120455,528.359375 71.2216788,528.448241 71.3994141,528.625977 C71.5771493,528.803712 71.6660156,529.013345 71.6660156,529.254883 Z M67.8994141,529.254883 C67.8994141,529.500978 67.8094085,529.709472 67.6293945,529.880371 C67.4493806,530.05127 67.2408866,530.136719 67.0039062,530.136719 C66.7623686,530.136719 66.5527353,530.050131 66.375,529.876953 C66.1972647,529.703775 66.1083984,529.49642 66.1083984,529.254883 C66.1083984,529.013345 66.1961254,528.803712 66.371582,528.625977 C66.5470386,528.448241 66.7578113,528.359375 67.0039062,528.359375 C67.2454439,528.359375 67.4550772,528.448241 67.6328125,528.625977 C67.8105478,528.803712 67.8994141,529.013345 67.8994141,529.254883 Z M86.7324219,529.254883 C86.7324219,529.49642 86.6435556,529.703775 86.4658203,529.876953 C86.288085,530.050131 86.0784517,530.136719 85.8369141,530.136719 C85.5953764,530.136719 85.3857431,530.050131 85.2080078,529.876953 C85.0302725,529.703775 84.9414062,529.49642 84.9414062,529.254883 C84.9414062,529.013345 85.0291332,528.803712 85.2045898,528.625977 C85.3800465,528.448241 85.5908191,528.359375 85.8369141,528.359375 C86.083009,528.359375 86.2937817,528.448241 86.4692383,528.625977 C86.6446949,528.803712 86.7324219,529.013345 86.7324219,529.254883 Z M82.9658203,529.254883 C82.9658203,529.500978 82.8758147,529.709472 82.6958008,529.880371 C82.5157869,530.05127 82.3072929,530.136719 82.0703125,530.136719 C81.8287748,530.136719 81.6191415,530.050131 81.4414062,529.876953 C81.263671,529.703775 81.1748047,529.49642 81.1748047,529.254883 C81.1748047,529.013345 81.2625317,528.803712 81.4379883,528.625977 C81.6134449,528.448241 81.8242175,528.359375 82.0703125,528.359375 C82.3118502,528.359375 82.5214835,528.448241 82.6992188,528.625977 C82.876954,528.803712 82.9658203,529.013345 82.9658203,529.254883 Z M79.1992188,529.254883 C79.1992188,529.500978 79.1092131,529.709472 78.9291992,529.880371 C78.7491853,530.05127 78.5406913,530.136719 78.3037109,530.136719 C78.0621733,530.136719 77.85254,530.050131 77.6748047,529.876953 C77.4970694,529.703775 77.4082031,529.49642 77.4082031,529.254883 C77.4082031,529.013345 77.4959301,528.803712 77.6713867,528.625977 C77.8468433,528.448241 78.057616,528.359375 78.3037109,528.359375 C78.5452486,528.359375 78.7548819,528.448241 78.9326172,528.625977 C79.1103525,528.803712 79.1992188,529.013345 79.1992188,529.254883 Z M98.0322266,529.254883 C98.0322266,529.49642 97.9433603,529.703775 97.765625,529.876953 C97.5878897,530.050131 97.3782564,530.136719 97.1367188,530.136719 C96.8951811,530.136719 96.6855478,530.050131 96.5078125,529.876953 C96.3300772,529.703775 96.2412109,529.49642 96.2412109,529.254883 C96.2412109,529.013345 96.3289379,528.803712 96.5043945,528.625977 C96.6798511,528.448241 96.8906238,528.359375 97.1367188,528.359375 C97.3828137,528.359375 97.5935864,528.448241 97.769043,528.625977 C97.9444996,528.803712 98.0322266,529.013345 98.0322266,529.254883 Z M94.265625,529.254883 C94.265625,529.500978 94.1756194,529.709472 93.9956055,529.880371 C93.8155915,530.05127 93.6070975,530.136719 93.3701172,530.136719 C93.1285795,530.136719 92.9189462,530.050131 92.7412109,529.876953 C92.5634757,529.703775 92.4746094,529.49642 92.4746094,529.254883 C92.4746094,529.013345 92.5623364,528.803712 92.737793,528.625977 C92.9132496,528.448241 93.1240222,528.359375 93.3701172,528.359375 C93.6116549,528.359375 93.8212882,528.448241 93.9990234,528.625977 C94.1767587,528.803712 94.265625,529.013345 94.265625,529.254883 Z M90.4990234,529.254883 C90.4990234,529.500978 90.4090178,529.709472 90.2290039,529.880371 C90.04899,530.05127 89.840496,530.136719 89.6035156,530.136719 C89.361978,530.136719 89.1523446,530.050131 88.9746094,529.876953 C88.7968741,529.703775 88.7080078,529.49642 88.7080078,529.254883 C88.7080078,529.013345 88.7957348,528.803712 88.9711914,528.625977 C89.146648,528.448241 89.3574206,528.359375 89.6035156,528.359375 C89.8450533,528.359375 90.0546866,528.448241 90.2324219,528.625977 C90.4101571,528.803712 90.4990234,529.013345 90.4990234,529.254883 Z M109.332031,529.254883 C109.332031,529.49642 109.243165,529.703775 109.06543,529.876953 C108.887694,530.050131 108.678061,530.136719 108.436523,530.136719 C108.194986,530.136719 107.985352,530.050131 107.807617,529.876953 C107.629882,529.703775 107.541016,529.49642 107.541016,529.254883 C107.541016,529.013345 107.628743,528.803712 107.804199,528.625977 C107.979656,528.448241 108.190428,528.359375 108.436523,528.359375 C108.682618,528.359375 108.893391,528.448241 109.068848,528.625977 C109.244304,528.803712 109.332031,529.013345 109.332031,529.254883 Z M105.56543,529.254883 C105.56543,529.500978 105.475424,529.709472 105.29541,529.880371 C105.115396,530.05127 104.906902,530.136719 104.669922,530.136719 C104.428384,530.136719 104.218751,530.050131 104.041016,529.876953 C103.86328,529.703775 103.774414,529.49642 103.774414,529.254883 C103.774414,529.013345 103.862141,528.803712 104.037598,528.625977 C104.213054,528.448241 104.423827,528.359375 104.669922,528.359375 C104.91146,528.359375 105.121093,528.448241 105.298828,528.625977 C105.476563,528.803712 105.56543,529.013345 105.56543,529.254883 Z M101.798828,529.254883 C101.798828,529.500978 101.708823,529.709472 101.528809,529.880371 C101.348795,530.05127 101.140301,530.136719 100.90332,530.136719 C100.661783,530.136719 100.452149,530.050131 100.274414,529.876953 C100.096679,529.703775 100.007812,529.49642 100.007812,529.254883 C100.007812,529.013345 100.095539,528.803712 100.270996,528.625977 C100.446453,528.448241 100.657225,528.359375 100.90332,528.359375 C101.144858,528.359375 101.354491,528.448241 101.532227,528.625977 C101.709962,528.803712 101.798828,529.013345 101.798828,529.254883 Z M120.631836,529.254883 C120.631836,529.49642 120.54297,529.703775 120.365234,529.876953 C120.187499,530.050131 119.977866,530.136719 119.736328,530.136719 C119.49479,530.136719 119.285157,530.050131 119.107422,529.876953 C118.929687,529.703775 118.84082,529.49642 118.84082,529.254883 C118.84082,529.013345 118.928547,528.803712 119.104004,528.625977 C119.279461,528.448241 119.490233,528.359375 119.736328,528.359375 C119.982423,528.359375 120.193196,528.448241 120.368652,528.625977 C120.544109,528.803712 120.631836,529.013345 120.631836,529.254883 Z M116.865234,529.254883 C116.865234,529.500978 116.775229,529.709472 116.595215,529.880371 C116.415201,530.05127 116.206707,530.136719 115.969727,530.136719 C115.728189,530.136719 115.518556,530.050131 115.34082,529.876953 C115.163085,529.703775 115.074219,529.49642 115.074219,529.254883 C115.074219,529.013345 115.161946,528.803712 115.337402,528.625977 C115.512859,528.448241 115.723632,528.359375 115.969727,528.359375 C116.211264,528.359375 116.420898,528.448241 116.598633,528.625977 C116.776368,528.803712 116.865234,529.013345 116.865234,529.254883 Z M113.098633,529.254883 C113.098633,529.500978 113.008627,529.709472 112.828613,529.880371 C112.648599,530.05127 112.440105,530.136719 112.203125,530.136719 C111.961587,530.136719 111.751954,530.050131 111.574219,529.876953 C111.396483,529.703775 111.307617,529.49642 111.307617,529.254883 C111.307617,529.013345 111.395344,528.803712 111.570801,528.625977 C111.746257,528.448241 111.95703,528.359375 112.203125,528.359375 C112.444663,528.359375 112.654296,528.448241 112.832031,528.625977 C113.009767,528.803712 113.098633,529.013345 113.098633,529.254883 Z M131.931641,529.254883 C131.931641,529.49642 131.842774,529.703775 131.665039,529.876953 C131.487304,530.050131 131.27767,530.136719 131.036133,530.136719 C130.794595,530.136719 130.584962,530.050131 130.407227,529.876953 C130.229491,529.703775 130.140625,529.49642 130.140625,529.254883 C130.140625,529.013345 130.228352,528.803712 130.403809,528.625977 C130.579265,528.448241 130.790038,528.359375 131.036133,528.359375 C131.282228,528.359375 131.493,528.448241 131.668457,528.625977 C131.843914,528.803712 131.931641,529.013345 131.931641,529.254883 Z M128.165039,529.254883 C128.165039,529.500978 128.075033,529.709472 127.89502,529.880371 C127.715006,530.05127 127.506512,530.136719 127.269531,530.136719 C127.027994,530.136719 126.81836,530.050131 126.640625,529.876953 C126.46289,529.703775 126.374023,529.49642 126.374023,529.254883 C126.374023,529.013345 126.46175,528.803712 126.637207,528.625977 C126.812664,528.448241 127.023436,528.359375 127.269531,528.359375 C127.511069,528.359375 127.720702,528.448241 127.898438,528.625977 C128.076173,528.803712 128.165039,529.013345 128.165039,529.254883 Z M124.398438,529.254883 C124.398438,529.500978 124.308432,529.709472 124.128418,529.880371 C123.948404,530.05127 123.73991,530.136719 123.50293,530.136719 C123.261392,530.136719 123.051759,530.050131 122.874023,529.876953 C122.696288,529.703775 122.607422,529.49642 122.607422,529.254883 C122.607422,529.013345 122.695149,528.803712 122.870605,528.625977 C123.046062,528.448241 123.256835,528.359375 123.50293,528.359375 C123.744467,528.359375 123.954101,528.448241 124.131836,528.625977 C124.309571,528.803712 124.398438,529.013345 124.398438,529.254883 Z M143.231445,529.254883 C143.231445,529.49642 143.142579,529.703775 142.964844,529.876953 C142.787108,530.050131 142.577475,530.136719 142.335938,530.136719 C142.0944,530.136719 141.884767,530.050131 141.707031,529.876953 C141.529296,529.703775 141.44043,529.49642 141.44043,529.254883 C141.44043,529.013345 141.528157,528.803712 141.703613,528.625977 C141.87907,528.448241 142.089843,528.359375 142.335938,528.359375 C142.582032,528.359375 142.792805,528.448241 142.968262,528.625977 C143.143718,528.803712 143.231445,529.013345 143.231445,529.254883 Z M139.464844,529.254883 C139.464844,529.500978 139.374838,529.709472 139.194824,529.880371 C139.01481,530.05127 138.806316,530.136719 138.569336,530.136719 C138.327798,530.136719 138.118165,530.050131 137.94043,529.876953 C137.762694,529.703775 137.673828,529.49642 137.673828,529.254883 C137.673828,529.013345 137.761555,528.803712 137.937012,528.625977 C138.112468,528.448241 138.323241,528.359375 138.569336,528.359375 C138.810874,528.359375 139.020507,528.448241 139.198242,528.625977 C139.375977,528.803712 139.464844,529.013345 139.464844,529.254883 Z M135.698242,529.254883 C135.698242,529.500978 135.608237,529.709472 135.428223,529.880371 C135.248209,530.05127 135.039715,530.136719 134.802734,530.136719 C134.561197,530.136719 134.351563,530.050131 134.173828,529.876953 C133.996093,529.703775 133.907227,529.49642 133.907227,529.254883 C133.907227,529.013345 133.994954,528.803712 134.17041,528.625977 C134.345867,528.448241 134.556639,528.359375 134.802734,528.359375 C135.044272,528.359375 135.253905,528.448241 135.431641,528.625977 C135.609376,528.803712 135.698242,529.013345 135.698242,529.254883 Z M154.53125,529.254883 C154.53125,529.49642 154.442384,529.703775 154.264648,529.876953 C154.086913,530.050131 153.87728,530.136719 153.635742,530.136719 C153.394205,530.136719 153.184571,530.050131 153.006836,529.876953 C152.829101,529.703775 152.740234,529.49642 152.740234,529.254883 C152.740234,529.013345 152.827961,528.803712 153.003418,528.625977 C153.178875,528.448241 153.389647,528.359375 153.635742,528.359375 C153.881837,528.359375 154.09261,528.448241 154.268066,528.625977 C154.443523,528.803712 154.53125,529.013345 154.53125,529.254883 Z M150.764648,529.254883 C150.764648,529.500978 150.674643,529.709472 150.494629,529.880371 C150.314615,530.05127 150.106121,530.136719 149.869141,530.136719 C149.627603,530.136719 149.41797,530.050131 149.240234,529.876953 C149.062499,529.703775 148.973633,529.49642 148.973633,529.254883 C148.973633,529.013345 149.06136,528.803712 149.236816,528.625977 C149.412273,528.448241 149.623046,528.359375 149.869141,528.359375 C150.110678,528.359375 150.320312,528.448241 150.498047,528.625977 C150.675782,528.803712 150.764648,529.013345 150.764648,529.254883 Z M146.998047,529.254883 C146.998047,529.500978 146.908041,529.709472 146.728027,529.880371 C146.548013,530.05127 146.339519,530.136719 146.102539,530.136719 C145.861001,530.136719 145.651368,530.050131 145.473633,529.876953 C145.295898,529.703775 145.207031,529.49642 145.207031,529.254883 C145.207031,529.013345 145.294758,528.803712 145.470215,528.625977 C145.645671,528.448241 145.856444,528.359375 146.102539,528.359375 C146.344077,528.359375 146.55371,528.448241 146.731445,528.625977 C146.909181,528.803712 146.998047,529.013345 146.998047,529.254883 Z M165.831055,529.254883 C165.831055,529.49642 165.742188,529.703775 165.564453,529.876953 C165.386718,530.050131 165.177085,530.136719 164.935547,530.136719 C164.694009,530.136719 164.484376,530.050131 164.306641,529.876953 C164.128905,529.703775 164.040039,529.49642 164.040039,529.254883 C164.040039,529.013345 164.127766,528.803712 164.303223,528.625977 C164.478679,528.448241 164.689452,528.359375 164.935547,528.359375 C165.181642,528.359375 165.392414,528.448241 165.567871,528.625977 C165.743328,528.803712 165.831055,529.013345 165.831055,529.254883 Z M162.064453,529.254883 C162.064453,529.500978 161.974448,529.709472 161.794434,529.880371 C161.61442,530.05127 161.405926,530.136719 161.168945,530.136719 C160.927408,530.136719 160.717774,530.050131 160.540039,529.876953 C160.362304,529.703775 160.273438,529.49642 160.273438,529.254883 C160.273438,529.013345 160.361164,528.803712 160.536621,528.625977 C160.712078,528.448241 160.92285,528.359375 161.168945,528.359375 C161.410483,528.359375 161.620116,528.448241 161.797852,528.625977 C161.975587,528.803712 162.064453,529.013345 162.064453,529.254883 Z M158.297852,529.254883 C158.297852,529.500978 158.207846,529.709472 158.027832,529.880371 C157.847818,530.05127 157.639324,530.136719 157.402344,530.136719 C157.160806,530.136719 156.951173,530.050131 156.773438,529.876953 C156.595702,529.703775 156.506836,529.49642 156.506836,529.254883 C156.506836,529.013345 156.594563,528.803712 156.77002,528.625977 C156.945476,528.448241 157.156249,528.359375 157.402344,528.359375 C157.643881,528.359375 157.853515,528.448241 158.03125,528.625977 C158.208985,528.803712 158.297852,529.013345 158.297852,529.254883 Z M177.130859,529.254883 C177.130859,529.49642 177.041993,529.703775 176.864258,529.876953 C176.686523,530.050131 176.476889,530.136719 176.235352,530.136719 C175.993814,530.136719 175.784181,530.050131 175.606445,529.876953 C175.42871,529.703775 175.339844,529.49642 175.339844,529.254883 C175.339844,529.013345 175.427571,528.803712 175.603027,528.625977 C175.778484,528.448241 175.989257,528.359375 176.235352,528.359375 C176.481447,528.359375 176.692219,528.448241 176.867676,528.625977 C177.043132,528.803712 177.130859,529.013345 177.130859,529.254883 Z M173.364258,529.254883 C173.364258,529.500978 173.274252,529.709472 173.094238,529.880371 C172.914224,530.05127 172.70573,530.136719 172.46875,530.136719 C172.227212,530.136719 172.017579,530.050131 171.839844,529.876953 C171.662108,529.703775 171.573242,529.49642 171.573242,529.254883 C171.573242,529.013345 171.660969,528.803712 171.836426,528.625977 C172.011882,528.448241 172.222655,528.359375 172.46875,528.359375 C172.710288,528.359375 172.919921,528.448241 173.097656,528.625977 C173.275392,528.803712 173.364258,529.013345 173.364258,529.254883 Z M169.597656,529.254883 C169.597656,529.500978 169.507651,529.709472 169.327637,529.880371 C169.147623,530.05127 168.939129,530.136719 168.702148,530.136719 C168.460611,530.136719 168.250977,530.050131 168.073242,529.876953 C167.895507,529.703775 167.806641,529.49642 167.806641,529.254883 C167.806641,529.013345 167.894368,528.803712 168.069824,528.625977 C168.245281,528.448241 168.456053,528.359375 168.702148,528.359375 C168.943686,528.359375 169.153319,528.448241 169.331055,528.625977 C169.50879,528.803712 169.597656,529.013345 169.597656,529.254883 Z M188.430664,529.254883 C188.430664,529.49642 188.341798,529.703775 188.164062,529.876953 C187.986327,530.050131 187.776694,530.136719 187.535156,530.136719 C187.293619,530.136719 187.083985,530.050131 186.90625,529.876953 C186.728515,529.703775 186.639648,529.49642 186.639648,529.254883 C186.639648,529.013345 186.727375,528.803712 186.902832,528.625977 C187.078289,528.448241 187.289061,528.359375 187.535156,528.359375 C187.781251,528.359375 187.992024,528.448241 188.16748,528.625977 C188.342937,528.803712 188.430664,529.013345 188.430664,529.254883 Z M184.664062,529.254883 C184.664062,529.500978 184.574057,529.709472 184.394043,529.880371 C184.214029,530.05127 184.005535,530.136719 183.768555,530.136719 C183.527017,530.136719 183.317384,530.050131 183.139648,529.876953 C182.961913,529.703775 182.873047,529.49642 182.873047,529.254883 C182.873047,529.013345 182.960774,528.803712 183.13623,528.625977 C183.311687,528.448241 183.52246,528.359375 183.768555,528.359375 C184.010092,528.359375 184.219726,528.448241 184.397461,528.625977 C184.575196,528.803712 184.664062,529.013345 184.664062,529.254883 Z M180.897461,529.254883 C180.897461,529.500978 180.807455,529.709472 180.627441,529.880371 C180.447427,530.05127 180.238933,530.136719 180.001953,530.136719 C179.760415,530.136719 179.550782,530.050131 179.373047,529.876953 C179.195312,529.703775 179.106445,529.49642 179.106445,529.254883 C179.106445,529.013345 179.194172,528.803712 179.369629,528.625977 C179.545086,528.448241 179.755858,528.359375 180.001953,528.359375 C180.243491,528.359375 180.453124,528.448241 180.630859,528.625977 C180.808595,528.803712 180.897461,529.013345 180.897461,529.254883 Z M199.730469,529.254883 C199.730469,529.49642 199.641602,529.703775 199.463867,529.876953 C199.286132,530.050131 199.076499,530.136719 198.834961,530.136719 C198.593423,530.136719 198.38379,530.050131 198.206055,529.876953 C198.028319,529.703775 197.939453,529.49642 197.939453,529.254883 C197.939453,529.013345 198.02718,528.803712 198.202637,528.625977 C198.378093,528.448241 198.588866,528.359375 198.834961,528.359375 C199.081056,528.359375 199.291829,528.448241 199.467285,528.625977 C199.642742,528.803712 199.730469,529.013345 199.730469,529.254883 Z M195.963867,529.254883 C195.963867,529.500978 195.873862,529.709472 195.693848,529.880371 C195.513834,530.05127 195.30534,530.136719 195.068359,530.136719 C194.826822,530.136719 194.617188,530.050131 194.439453,529.876953 C194.261718,529.703775 194.172852,529.49642 194.172852,529.254883 C194.172852,529.013345 194.260579,528.803712 194.436035,528.625977 C194.611492,528.448241 194.822264,528.359375 195.068359,528.359375 C195.309897,528.359375 195.51953,528.448241 195.697266,528.625977 C195.875001,528.803712 195.963867,529.013345 195.963867,529.254883 Z M192.197266,529.254883 C192.197266,529.500978 192.10726,529.709472 191.927246,529.880371 C191.747232,530.05127 191.538738,530.136719 191.301758,530.136719 C191.06022,530.136719 190.850587,530.050131 190.672852,529.876953 C190.495116,529.703775 190.40625,529.49642 190.40625,529.254883 C190.40625,529.013345 190.493977,528.803712 190.669434,528.625977 C190.84489,528.448241 191.055663,528.359375 191.301758,528.359375 C191.543295,528.359375 191.752929,528.448241 191.930664,528.625977 C192.108399,528.803712 192.197266,529.013345 192.197266,529.254883 Z M211.030273,529.254883 C211.030273,529.49642 210.941407,529.703775 210.763672,529.876953 C210.585937,530.050131 210.376303,530.136719 210.134766,530.136719 C209.893228,530.136719 209.683595,530.050131 209.505859,529.876953 C209.328124,529.703775 209.239258,529.49642 209.239258,529.254883 C209.239258,529.013345 209.326985,528.803712 209.502441,528.625977 C209.677898,528.448241 209.888671,528.359375 210.134766,528.359375 C210.380861,528.359375 210.591633,528.448241 210.76709,528.625977 C210.942546,528.803712 211.030273,529.013345 211.030273,529.254883 Z M207.263672,529.254883 C207.263672,529.500978 207.173666,529.709472 206.993652,529.880371 C206.813638,530.05127 206.605144,530.136719 206.368164,530.136719 C206.126626,530.136719 205.916993,530.050131 205.739258,529.876953 C205.561523,529.703775 205.472656,529.49642 205.472656,529.254883 C205.472656,529.013345 205.560383,528.803712 205.73584,528.625977 C205.911296,528.448241 206.122069,528.359375 206.368164,528.359375 C206.609702,528.359375 206.819335,528.448241 206.99707,528.625977 C207.174806,528.803712 207.263672,529.013345 207.263672,529.254883 Z M203.49707,529.254883 C203.49707,529.500978 203.407065,529.709472 203.227051,529.880371 C203.047037,530.05127 202.838543,530.136719 202.601562,530.136719 C202.360025,530.136719 202.150392,530.050131 201.972656,529.876953 C201.794921,529.703775 201.706055,529.49642 201.706055,529.254883 C201.706055,529.013345 201.793782,528.803712 201.969238,528.625977 C202.144695,528.448241 202.355468,528.359375 202.601562,528.359375 C202.8431,528.359375 203.052733,528.448241 203.230469,528.625977 C203.408204,528.803712 203.49707,529.013345 203.49707,529.254883 Z M222.330078,529.254883 C222.330078,529.49642 222.241212,529.703775 222.063477,529.876953 C221.885741,530.050131 221.676108,530.136719 221.43457,530.136719 C221.193033,530.136719 220.983399,530.050131 220.805664,529.876953 C220.627929,529.703775 220.539062,529.49642 220.539062,529.254883 C220.539062,529.013345 220.626789,528.803712 220.802246,528.625977 C220.977703,528.448241 221.188475,528.359375 221.43457,528.359375 C221.680665,528.359375 221.891438,528.448241 222.066895,528.625977 C222.242351,528.803712 222.330078,529.013345 222.330078,529.254883 Z M218.563477,529.254883 C218.563477,529.500978 218.473471,529.709472 218.293457,529.880371 C218.113443,530.05127 217.904949,530.136719 217.667969,530.136719 C217.426431,530.136719 217.216798,530.050131 217.039062,529.876953 C216.861327,529.703775 216.772461,529.49642 216.772461,529.254883 C216.772461,529.013345 216.860188,528.803712 217.035645,528.625977 C217.211101,528.448241 217.421874,528.359375 217.667969,528.359375 C217.909506,528.359375 218.11914,528.448241 218.296875,528.625977 C218.47461,528.803712 218.563477,529.013345 218.563477,529.254883 Z M214.796875,529.254883 C214.796875,529.500978 214.706869,529.709472 214.526855,529.880371 C214.346842,530.05127 214.138348,530.136719 213.901367,530.136719 C213.65983,530.136719 213.450196,530.050131 213.272461,529.876953 C213.094726,529.703775 213.005859,529.49642 213.005859,529.254883 C213.005859,529.013345 213.093586,528.803712 213.269043,528.625977 C213.4445,528.448241 213.655272,528.359375 213.901367,528.359375 C214.142905,528.359375 214.352538,528.448241 214.530273,528.625977 C214.708009,528.803712 214.796875,529.013345 214.796875,529.254883 Z M233.629883,529.254883 C233.629883,529.49642 233.541017,529.703775 233.363281,529.876953 C233.185546,530.050131 232.975913,530.136719 232.734375,530.136719 C232.492837,530.136719 232.283204,530.050131 232.105469,529.876953 C231.927733,529.703775 231.838867,529.49642 231.838867,529.254883 C231.838867,529.013345 231.926594,528.803712 232.102051,528.625977 C232.277507,528.448241 232.48828,528.359375 232.734375,528.359375 C232.98047,528.359375 233.191243,528.448241 233.366699,528.625977 C233.542156,528.803712 233.629883,529.013345 233.629883,529.254883 Z M229.863281,529.254883 C229.863281,529.500978 229.773276,529.709472 229.593262,529.880371 C229.413248,530.05127 229.204754,530.136719 228.967773,530.136719 C228.726236,530.136719 228.516602,530.050131 228.338867,529.876953 C228.161132,529.703775 228.072266,529.49642 228.072266,529.254883 C228.072266,529.013345 228.159993,528.803712 228.335449,528.625977 C228.510906,528.448241 228.721678,528.359375 228.967773,528.359375 C229.209311,528.359375 229.418944,528.448241 229.59668,528.625977 C229.774415,528.803712 229.863281,529.013345 229.863281,529.254883 Z M226.09668,529.254883 C226.09668,529.500978 226.006674,529.709472 225.82666,529.880371 C225.646646,530.05127 225.438152,530.136719 225.201172,530.136719 C224.959634,530.136719 224.750001,530.050131 224.572266,529.876953 C224.39453,529.703775 224.305664,529.49642 224.305664,529.254883 C224.305664,529.013345 224.393391,528.803712 224.568848,528.625977 C224.744304,528.448241 224.955077,528.359375 225.201172,528.359375 C225.44271,528.359375 225.652343,528.448241 225.830078,528.625977 C226.007813,528.803712 226.09668,529.013345 226.09668,529.254883 Z M244.929688,529.254883 C244.929688,529.49642 244.840821,529.703775 244.663086,529.876953 C244.485351,530.050131 244.275717,530.136719 244.03418,530.136719 C243.792642,530.136719 243.583009,530.050131 243.405273,529.876953 C243.227538,529.703775 243.138672,529.49642 243.138672,529.254883 C243.138672,529.013345 243.226399,528.803712 243.401855,528.625977 C243.577312,528.448241 243.788085,528.359375 244.03418,528.359375 C244.280275,528.359375 244.491047,528.448241 244.666504,528.625977 C244.841961,528.803712 244.929688,529.013345 244.929688,529.254883 Z M241.163086,529.254883 C241.163086,529.500978 241.07308,529.709472 240.893066,529.880371 C240.713052,530.05127 240.504558,530.136719 240.267578,530.136719 C240.02604,530.136719 239.816407,530.050131 239.638672,529.876953 C239.460937,529.703775 239.37207,529.49642 239.37207,529.254883 C239.37207,529.013345 239.459797,528.803712 239.635254,528.625977 C239.810711,528.448241 240.021483,528.359375 240.267578,528.359375 C240.509116,528.359375 240.718749,528.448241 240.896484,528.625977 C241.07422,528.803712 241.163086,529.013345 241.163086,529.254883 Z M237.396484,529.254883 C237.396484,529.500978 237.306479,529.709472 237.126465,529.880371 C236.946451,530.05127 236.737957,530.136719 236.500977,530.136719 C236.259439,530.136719 236.049806,530.050131 235.87207,529.876953 C235.694335,529.703775 235.605469,529.49642 235.605469,529.254883 C235.605469,529.013345 235.693196,528.803712 235.868652,528.625977 C236.044109,528.448241 236.254882,528.359375 236.500977,528.359375 C236.742514,528.359375 236.952148,528.448241 237.129883,528.625977 C237.307618,528.803712 237.396484,529.013345 237.396484,529.254883 Z M256.229492,529.254883 C256.229492,529.49642 256.140626,529.703775 255.962891,529.876953 C255.785155,530.050131 255.575522,530.136719 255.333984,530.136719 C255.092447,530.136719 254.882813,530.050131 254.705078,529.876953 C254.527343,529.703775 254.438477,529.49642 254.438477,529.254883 C254.438477,529.013345 254.526204,528.803712 254.70166,528.625977 C254.877117,528.448241 255.087889,528.359375 255.333984,528.359375 C255.580079,528.359375 255.790852,528.448241 255.966309,528.625977 C256.141765,528.803712 256.229492,529.013345 256.229492,529.254883 Z M252.462891,529.254883 C252.462891,529.500978 252.372885,529.709472 252.192871,529.880371 C252.012857,530.05127 251.804363,530.136719 251.567383,530.136719 C251.325845,530.136719 251.116212,530.050131 250.938477,529.876953 C250.760741,529.703775 250.671875,529.49642 250.671875,529.254883 C250.671875,529.013345 250.759602,528.803712 250.935059,528.625977 C251.110515,528.448241 251.321288,528.359375 251.567383,528.359375 C251.80892,528.359375 252.018554,528.448241 252.196289,528.625977 C252.374024,528.803712 252.462891,529.013345 252.462891,529.254883 Z M248.696289,529.254883 C248.696289,529.500978 248.606283,529.709472 248.42627,529.880371 C248.246256,530.05127 248.037762,530.136719 247.800781,530.136719 C247.559244,530.136719 247.34961,530.050131 247.171875,529.876953 C246.99414,529.703775 246.905273,529.49642 246.905273,529.254883 C246.905273,529.013345 246.993,528.803712 247.168457,528.625977 C247.343914,528.448241 247.554686,528.359375 247.800781,528.359375 C248.042319,528.359375 248.251952,528.448241 248.429688,528.625977 C248.607423,528.803712 248.696289,529.013345 248.696289,529.254883 Z M267.529297,529.254883 C267.529297,529.49642 267.440431,529.703775 267.262695,529.876953 C267.08496,530.050131 266.875327,530.136719 266.633789,530.136719 C266.392251,530.136719 266.182618,530.050131 266.004883,529.876953 C265.827148,529.703775 265.738281,529.49642 265.738281,529.254883 C265.738281,529.013345 265.826008,528.803712 266.001465,528.625977 C266.176921,528.448241 266.387694,528.359375 266.633789,528.359375 C266.879884,528.359375 267.090657,528.448241 267.266113,528.625977 C267.44157,528.803712 267.529297,529.013345 267.529297,529.254883 Z M263.762695,529.254883 C263.762695,529.500978 263.67269,529.709472 263.492676,529.880371 C263.312662,530.05127 263.104168,530.136719 262.867188,530.136719 C262.62565,530.136719 262.416017,530.050131 262.238281,529.876953 C262.060546,529.703775 261.97168,529.49642 261.97168,529.254883 C261.97168,529.013345 262.059407,528.803712 262.234863,528.625977 C262.41032,528.448241 262.621093,528.359375 262.867188,528.359375 C263.108725,528.359375 263.318358,528.448241 263.496094,528.625977 C263.673829,528.803712 263.762695,529.013345 263.762695,529.254883 Z M259.996094,529.254883 C259.996094,529.500978 259.906088,529.709472 259.726074,529.880371 C259.54606,530.05127 259.337566,530.136719 259.100586,530.136719 C258.859048,530.136719 258.649415,530.050131 258.47168,529.876953 C258.293944,529.703775 258.205078,529.49642 258.205078,529.254883 C258.205078,529.013345 258.292805,528.803712 258.468262,528.625977 C258.643718,528.448241 258.854491,528.359375 259.100586,528.359375 C259.342124,528.359375 259.551757,528.448241 259.729492,528.625977 C259.907227,528.803712 259.996094,529.013345 259.996094,529.254883 Z M278.829102,529.254883 C278.829102,529.49642 278.740235,529.703775 278.5625,529.876953 C278.384765,530.050131 278.175131,530.136719 277.933594,530.136719 C277.692056,530.136719 277.482423,530.050131 277.304688,529.876953 C277.126952,529.703775 277.038086,529.49642 277.038086,529.254883 C277.038086,529.013345 277.125813,528.803712 277.30127,528.625977 C277.476726,528.448241 277.687499,528.359375 277.933594,528.359375 C278.179689,528.359375 278.390461,528.448241 278.565918,528.625977 C278.741375,528.803712 278.829102,529.013345 278.829102,529.254883 Z M275.0625,529.254883 C275.0625,529.500978 274.972494,529.709472 274.79248,529.880371 C274.612467,530.05127 274.403973,530.136719 274.166992,530.136719 C273.925455,530.136719 273.715821,530.050131 273.538086,529.876953 C273.360351,529.703775 273.271484,529.49642 273.271484,529.254883 C273.271484,529.013345 273.359211,528.803712 273.534668,528.625977 C273.710125,528.448241 273.920897,528.359375 274.166992,528.359375 C274.40853,528.359375 274.618163,528.448241 274.795898,528.625977 C274.973634,528.803712 275.0625,529.013345 275.0625,529.254883 Z M271.295898,529.254883 C271.295898,529.500978 271.205893,529.709472 271.025879,529.880371 C270.845865,530.05127 270.637371,530.136719 270.400391,530.136719 C270.158853,530.136719 269.94922,530.050131 269.771484,529.876953 C269.593749,529.703775 269.504883,529.49642 269.504883,529.254883 C269.504883,529.013345 269.59261,528.803712 269.768066,528.625977 C269.943523,528.448241 270.154296,528.359375 270.400391,528.359375 C270.641928,528.359375 270.851562,528.448241 271.029297,528.625977 C271.207032,528.803712 271.295898,529.013345 271.295898,529.254883 Z M290.128906,529.254883 C290.128906,529.49642 290.04004,529.703775 289.862305,529.876953 C289.684569,530.050131 289.474936,530.136719 289.233398,530.136719 C288.991861,530.136719 288.782227,530.050131 288.604492,529.876953 C288.426757,529.703775 288.337891,529.49642 288.337891,529.254883 C288.337891,529.013345 288.425618,528.803712 288.601074,528.625977 C288.776531,528.448241 288.987303,528.359375 289.233398,528.359375 C289.479493,528.359375 289.690266,528.448241 289.865723,528.625977 C290.041179,528.803712 290.128906,529.013345 290.128906,529.254883 Z M286.362305,529.254883 C286.362305,529.500978 286.272299,529.709472 286.092285,529.880371 C285.912271,530.05127 285.703777,530.136719 285.466797,530.136719 C285.225259,530.136719 285.015626,530.050131 284.837891,529.876953 C284.660155,529.703775 284.571289,529.49642 284.571289,529.254883 C284.571289,529.013345 284.659016,528.803712 284.834473,528.625977 C285.009929,528.448241 285.220702,528.359375 285.466797,528.359375 C285.708335,528.359375 285.917968,528.448241 286.095703,528.625977 C286.273438,528.803712 286.362305,529.013345 286.362305,529.254883 Z M282.595703,529.254883 C282.595703,529.500978 282.505698,529.709472 282.325684,529.880371 C282.14567,530.05127 281.937176,530.136719 281.700195,530.136719 C281.458658,530.136719 281.249024,530.050131 281.071289,529.876953 C280.893554,529.703775 280.804688,529.49642 280.804688,529.254883 C280.804688,529.013345 280.892414,528.803712 281.067871,528.625977 C281.243328,528.448241 281.4541,528.359375 281.700195,528.359375 C281.941733,528.359375 282.151366,528.448241 282.329102,528.625977 C282.506837,528.803712 282.595703,529.013345 282.595703,529.254883 Z M293.929688,529.213867 C293.929688,529.469077 293.837403,529.686685 293.652832,529.866699 C293.468261,530.046713 293.248374,530.136719 292.993164,530.136719 C292.737954,530.136719 292.518067,530.046713 292.333496,529.866699 C292.148925,529.686685 292.056641,529.469077 292.056641,529.213867 C292.056641,528.958658 292.148925,528.73877 292.333496,528.554199 C292.518067,528.369628 292.737954,528.277344 292.993164,528.277344 C293.248374,528.277344 293.468261,528.369628 293.652832,528.554199 C293.837403,528.73877 293.929688,528.958658 293.929688,529.213867 Z M297.703125,529.213867 C297.703125,529.469077 297.610841,529.686685 297.42627,529.866699 C297.241698,530.046713 297.021811,530.136719 296.766602,530.136719 C296.511392,530.136719 296.291505,530.046713 296.106934,529.866699 C295.922362,529.686685 295.830078,529.469077 295.830078,529.213867 C295.830078,528.958658 295.922362,528.73877 296.106934,528.554199 C296.291505,528.369628 296.511392,528.277344 296.766602,528.277344 C297.021811,528.277344 297.241698,528.369628 297.42627,528.554199 C297.610841,528.73877 297.703125,528.958658 297.703125,529.213867 Z" id="……………………………………………………………….." fill="#DADFE7" fill-rule="nonzero"></path>
    </g>
</svg>