<?xml version="1.0" encoding="UTF-8"?>
<svg width="321px" height="558px" viewBox="0 0 321 558" version="1.1" xmlns="http://www.w3.org/2000/svg" xmlns:xlink="http://www.w3.org/1999/xlink">
    <!-- Generator: Sketch 54.1 (76490) - https://sketchapp.com -->
    <title>hongvan_overlay_start</title>
    <desc>Created with Sketch.</desc>
    <g id="hongvan_overlay_start" stroke="none" stroke-width="1" fill="none" fill-rule="evenodd" transform="translate(1.000000, 0.000000)">
        <path d="M0,4 L320,4 L320,558 L0,558 L0,4 Z M24.9987128,42.2187387 C22.237289,42.2187387 19.9987128,44.4573149 19.9987128,47.2187387 L19.9987128,513 C19.9987128,515.761424 22.237289,518 24.9987128,518 L295,518 C297.761424,518 300,515.761424 300,513 L300,47.2187387 C300,44.4573149 297.761424,42.2187387 295,42.2187387 L24.9987128,42.2187387 Z" id="Rectangle-3" fill="#ECF5FA"></path>
        <path d="M11.3177805,556.051471 C11.3177805,556.311276 11.2289756,556.534313 11.051363,556.720588 C10.8737505,556.906864 10.6642619,557 10.422891,557 C10.1815201,557 9.97203156,556.906864 9.79441902,556.720588 C9.61680648,556.534313 9.52800155,556.311276 9.52800155,556.051471 C9.52800155,555.791665 9.61566796,555.566177 9.79100342,555.375 C9.96633887,555.183823 10.176966,555.088235 10.422891,555.088235 C10.6688161,555.088235 10.8794432,555.183823 11.0547786,555.375 C11.2301141,555.566177 11.3177805,555.791665 11.3177805,556.051471 Z M7.55377973,556.051471 C7.55377973,556.316178 7.46383626,556.54044 7.28394664,556.724265 C7.10405702,556.908089 6.89570697,557 6.65889025,557 C6.41751936,557 6.20803079,556.906864 6.03041825,556.720588 C5.85280571,556.534313 5.76400077,556.311276 5.76400077,556.051471 C5.76400077,555.791665 5.85166719,555.566177 6.02700264,555.375 C6.2023381,555.183823 6.41296519,555.088235 6.65889025,555.088235 C6.90026114,555.088235 7.10974971,555.183823 7.28736225,555.375 C7.46497479,555.566177 7.55377973,555.791665 7.55377973,556.051471 Z M3.78977895,556.051471 C3.78977895,556.316178 3.69983549,556.54044 3.51994587,556.724265 C3.34005624,556.908089 3.1317062,557 2.89488948,557 C2.65351859,557 2.44403002,556.906864 2.26641748,556.720588 C2.08880494,556.534313 2,556.311276 2,556.051471 C2,555.791665 2.08766641,555.566177 2.26300187,555.375 C2.43833732,555.183823 2.64896442,555.088235 2.89488948,555.088235 C3.13626036,555.088235 3.34574893,555.183823 3.52336147,555.375 C3.70097401,555.566177 3.78977895,555.791665 3.78977895,556.051471 Z M22.6097828,556.051471 C22.6097828,556.311276 22.5209779,556.534313 22.3433653,556.720588 C22.1657528,556.906864 21.9562642,557 21.7148933,557 C21.4735225,557 21.2640339,556.906864 21.0864213,556.720588 C20.9088088,556.534313 20.8200039,556.311276 20.8200039,556.051471 C20.8200039,555.791665 20.9076703,555.566177 21.0830057,555.375 C21.2583412,555.183823 21.4689683,555.088235 21.7148933,555.088235 C21.9608184,555.088235 22.1714455,555.183823 22.3467809,555.375 C22.5221164,555.566177 22.6097828,555.791665 22.6097828,556.051471 Z M18.845782,556.051471 C18.845782,556.316178 18.7558386,556.54044 18.575949,556.724265 C18.3960593,556.908089 18.1877093,557 17.9508926,557 C17.7095217,557 17.5000331,556.906864 17.3224206,556.720588 C17.144808,556.534313 17.0560031,556.311276 17.0560031,556.051471 C17.0560031,555.791665 17.1436695,555.566177 17.319005,555.375 C17.4943404,555.183823 17.7049675,555.088235 17.9508926,555.088235 C18.1922635,555.088235 18.401752,555.183823 18.5793646,555.375 C18.7569771,555.566177 18.845782,555.791665 18.845782,556.051471 Z M15.0817813,556.051471 C15.0817813,556.316178 14.9918378,556.54044 14.8119482,556.724265 C14.6320586,556.908089 14.4237085,557 14.1868918,557 C13.9455209,557 13.7360323,556.906864 13.5584198,556.720588 C13.3808073,556.534313 13.2920023,556.311276 13.2920023,556.051471 C13.2920023,555.791665 13.3796687,555.566177 13.5550042,555.375 C13.7303396,555.183823 13.9409667,555.088235 14.1868918,555.088235 C14.4282627,555.088235 14.6377513,555.183823 14.8153638,555.375 C14.9929763,555.566177 15.0817813,555.791665 15.0817813,556.051471 Z M33.9017851,556.051471 C33.9017851,556.311276 33.8129802,556.534313 33.6353677,556.720588 C33.4577551,556.906864 33.2482666,557 33.0068957,557 C32.7655248,557 32.5560362,556.906864 32.3784237,556.720588 C32.2008111,556.534313 32.1120062,556.311276 32.1120062,556.051471 C32.1120062,555.791665 32.1996726,555.566177 32.3750081,555.375 C32.5503435,555.183823 32.7609706,555.088235 33.0068957,555.088235 C33.2528207,555.088235 33.4634478,555.183823 33.6387833,555.375 C33.8141187,555.566177 33.9017851,555.791665 33.9017851,556.051471 Z M30.1377844,556.051471 C30.1377844,556.316178 30.0478409,556.54044 29.8679513,556.724265 C29.6880617,556.908089 29.4797116,557 29.2428949,557 C29.001524,557 28.7920354,556.906864 28.6144229,556.720588 C28.4368104,556.534313 28.3480054,556.311276 28.3480054,556.051471 C28.3480054,555.791665 28.4356718,555.566177 28.6110073,555.375 C28.7863427,555.183823 28.9969698,555.088235 29.2428949,555.088235 C29.4842658,555.088235 29.6937543,555.183823 29.8713669,555.375 C30.0489794,555.566177 30.1377844,555.791665 30.1377844,556.051471 Z M26.3737836,556.051471 C26.3737836,556.316178 26.2838401,556.54044 26.1039505,556.724265 C25.9240609,556.908089 25.7157108,557 25.4788941,557 C25.2375232,557 25.0280347,556.906864 24.8504221,556.720588 C24.6728096,556.534313 24.5840046,556.311276 24.5840046,556.051471 C24.5840046,555.791665 24.6716711,555.566177 24.8470065,555.375 C25.022342,555.183823 25.2329691,555.088235 25.4788941,555.088235 C25.720265,555.088235 25.9297536,555.183823 26.1073661,555.375 C26.2849787,555.566177 26.3737836,555.791665 26.3737836,556.051471 Z M45.1937875,556.051471 C45.1937875,556.311276 45.1049825,556.534313 44.92737,556.720588 C44.7497574,556.906864 44.5402689,557 44.298898,557 C44.0575271,557 43.8480385,556.906864 43.670426,556.720588 C43.4928134,556.534313 43.4040085,556.311276 43.4040085,556.051471 C43.4040085,555.791665 43.4916749,555.566177 43.6670104,555.375 C43.8423458,555.183823 44.0529729,555.088235 44.298898,555.088235 C44.544823,555.088235 44.7554501,555.183823 44.9307856,555.375 C45.106121,555.566177 45.1937875,555.791665 45.1937875,556.051471 Z M41.4297867,556.051471 C41.4297867,556.316178 41.3398432,556.54044 41.1599536,556.724265 C40.980064,556.908089 40.7717139,557 40.5348972,557 C40.2935263,557 40.0840378,556.906864 39.9064252,556.720588 C39.7288127,556.534313 39.6400077,556.311276 39.6400077,556.051471 C39.6400077,555.791665 39.7276741,555.566177 39.9030096,555.375 C40.0783451,555.183823 40.2889722,555.088235 40.5348972,555.088235 C40.7762681,555.088235 40.9857567,555.183823 41.1633692,555.375 C41.3409817,555.566177 41.4297867,555.791665 41.4297867,556.051471 Z M37.6657859,556.051471 C37.6657859,556.316178 37.5758424,556.54044 37.3959528,556.724265 C37.2160632,556.908089 37.0077132,557 36.7708964,557 C36.5295255,557 36.320037,556.906864 36.1424244,556.720588 C35.9648119,556.534313 35.876007,556.311276 35.876007,556.051471 C35.876007,555.791665 35.9636734,555.566177 36.1390088,555.375 C36.3143443,555.183823 36.5249714,555.088235 36.7708964,555.088235 C37.0122673,555.088235 37.2217559,555.183823 37.3993684,555.375 C37.576981,555.566177 37.6657859,555.791665 37.6657859,556.051471 Z M56.4857898,556.051471 C56.4857898,556.311276 56.3969848,556.534313 56.2193723,556.720588 C56.0417598,556.906864 55.8322712,557 55.5909003,557 C55.3495294,557 55.1400408,556.906864 54.9624283,556.720588 C54.7848158,556.534313 54.6960108,556.311276 54.6960108,556.051471 C54.6960108,555.791665 54.7836772,555.566177 54.9590127,555.375 C55.1343482,555.183823 55.3449752,555.088235 55.5909003,555.088235 C55.8368254,555.088235 56.0474525,555.183823 56.2227879,555.375 C56.3981234,555.566177 56.4857898,555.791665 56.4857898,556.051471 Z M52.721789,556.051471 C52.721789,556.316178 52.6318455,556.54044 52.4519559,556.724265 C52.2720663,556.908089 52.0637162,557 51.8268995,557 C51.5855286,557 51.3760401,556.906864 51.1984275,556.720588 C51.020815,556.534313 50.9320101,556.311276 50.9320101,556.051471 C50.9320101,555.791665 51.0196765,555.566177 51.1950119,555.375 C51.3703474,555.183823 51.5809745,555.088235 51.8268995,555.088235 C52.0682704,555.088235 52.277759,555.183823 52.4553715,555.375 C52.6329841,555.566177 52.721789,555.791665 52.721789,556.051471 Z M48.9577882,556.051471 C48.9577882,556.316178 48.8678448,556.54044 48.6879551,556.724265 C48.5080655,556.908089 48.2997155,557 48.0628988,557 C47.8215279,557 47.6120393,556.906864 47.4344268,556.720588 C47.2568142,556.534313 47.1680093,556.311276 47.1680093,556.051471 C47.1680093,555.791665 47.2556757,555.566177 47.4310111,555.375 C47.6063466,555.183823 47.8169737,555.088235 48.0628988,555.088235 C48.3042696,555.088235 48.5137582,555.183823 48.6913708,555.375 C48.8689833,555.566177 48.9577882,555.791665 48.9577882,556.051471 Z M67.7777921,556.051471 C67.7777921,556.311276 67.6889872,556.534313 67.5113746,556.720588 C67.3337621,556.906864 67.1242735,557 66.8829026,557 C66.6415317,557 66.4320432,556.906864 66.2544306,556.720588 C66.0768181,556.534313 65.9880131,556.311276 65.9880131,556.051471 C65.9880131,555.791665 66.0756796,555.566177 66.251015,555.375 C66.4263505,555.183823 66.6369776,555.088235 66.8829026,555.088235 C67.1288277,555.088235 67.3394548,555.183823 67.5147902,555.375 C67.6901257,555.566177 67.7777921,555.791665 67.7777921,556.051471 Z M64.0137913,556.051471 C64.0137913,556.316178 63.9238479,556.54044 63.7439582,556.724265 C63.5640686,556.908089 63.3557186,557 63.1189018,557 C62.877531,557 62.6680424,556.906864 62.4904299,556.720588 C62.3128173,556.534313 62.2240124,556.311276 62.2240124,556.051471 C62.2240124,555.791665 62.3116788,555.566177 62.4870142,555.375 C62.6623497,555.183823 62.8729768,555.088235 63.1189018,555.088235 C63.3602727,555.088235 63.5697613,555.183823 63.7473738,555.375 C63.9249864,555.566177 64.0137913,555.791665 64.0137913,556.051471 Z M60.2497906,556.051471 C60.2497906,556.316178 60.1598471,556.54044 59.9799575,556.724265 C59.8000678,556.908089 59.5917178,557 59.3549011,557 C59.1135302,557 58.9040416,556.906864 58.7264291,556.720588 C58.5488165,556.534313 58.4600116,556.311276 58.4600116,556.051471 C58.4600116,555.791665 58.547678,555.566177 58.7230135,555.375 C58.8983489,555.183823 59.108976,555.088235 59.3549011,555.088235 C59.596272,555.088235 59.8057605,555.183823 59.9833731,555.375 C60.1609856,555.566177 60.2497906,555.791665 60.2497906,556.051471 Z M79.0697944,556.051471 C79.0697944,556.311276 78.9809895,556.534313 78.8033769,556.720588 C78.6257644,556.906864 78.4162758,557 78.1749049,557 C77.9335341,557 77.7240455,556.906864 77.5464329,556.720588 C77.3688204,556.534313 77.2800155,556.311276 77.2800155,556.051471 C77.2800155,555.791665 77.3676819,555.566177 77.5430173,555.375 C77.7183528,555.183823 77.9289799,555.088235 78.1749049,555.088235 C78.42083,555.088235 78.6314571,555.183823 78.8067926,555.375 C78.982128,555.566177 79.0697944,555.791665 79.0697944,556.051471 Z M75.3057936,556.051471 C75.3057936,556.316178 75.2158502,556.54044 75.0359606,556.724265 C74.8560709,556.908089 74.6477209,557 74.4109042,557 C74.1695333,557 73.9600447,556.906864 73.7824322,556.720588 C73.6048196,556.534313 73.5160147,556.311276 73.5160147,556.051471 C73.5160147,555.791665 73.6036811,555.566177 73.7790166,555.375 C73.954352,555.183823 74.1649791,555.088235 74.4109042,555.088235 C74.6522751,555.088235 74.8617636,555.183823 75.0393762,555.375 C75.2169887,555.566177 75.3057936,555.791665 75.3057936,556.051471 Z M71.5417929,556.051471 C71.5417929,556.316178 71.4518494,556.54044 71.2719598,556.724265 C71.0920702,556.908089 70.8837201,557 70.6469034,557 C70.4055325,557 70.1960439,556.906864 70.0184314,556.720588 C69.8408189,556.534313 69.7520139,556.311276 69.7520139,556.051471 C69.7520139,555.791665 69.8396803,555.566177 70.0150158,555.375 C70.1903512,555.183823 70.4009783,555.088235 70.6469034,555.088235 C70.8882743,555.088235 71.0977629,555.183823 71.2753754,555.375 C71.4529879,555.566177 71.5417929,555.791665 71.5417929,556.051471 Z M90.3617967,556.051471 C90.3617967,556.311276 90.2729918,556.534313 90.0953793,556.720588 C89.9177667,556.906864 89.7082782,557 89.4669073,557 C89.2255364,557 89.0160478,556.906864 88.8384353,556.720588 C88.6608227,556.534313 88.5720178,556.311276 88.5720178,556.051471 C88.5720178,555.791665 88.6596842,555.566177 88.8350197,555.375 C89.0103551,555.183823 89.2209822,555.088235 89.4669073,555.088235 C89.7128323,555.088235 89.9234594,555.183823 90.0987949,555.375 C90.2741303,555.566177 90.3617967,555.791665 90.3617967,556.051471 Z M86.597796,556.051471 C86.597796,556.316178 86.5078525,556.54044 86.3279629,556.724265 C86.1480733,556.908089 85.9397232,557 85.7029065,557 C85.4615356,557 85.252047,556.906864 85.0744345,556.720588 C84.896822,556.534313 84.808017,556.311276 84.808017,556.051471 C84.808017,555.791665 84.8956834,555.566177 85.0710189,555.375 C85.2463543,555.183823 85.4569814,555.088235 85.7029065,555.088235 C85.9442774,555.088235 86.1537659,555.183823 86.3313785,555.375 C86.508991,555.566177 86.597796,555.791665 86.597796,556.051471 Z M82.8337952,556.051471 C82.8337952,556.316178 82.7438517,556.54044 82.5639621,556.724265 C82.3840725,556.908089 82.1757224,557 81.9389057,557 C81.6975348,557 81.4880463,556.906864 81.3104337,556.720588 C81.1328212,556.534313 81.0440162,556.311276 81.0440162,556.051471 C81.0440162,555.791665 81.1316827,555.566177 81.3070181,555.375 C81.4823536,555.183823 81.6929807,555.088235 81.9389057,555.088235 C82.1802766,555.088235 82.3897652,555.183823 82.5673777,555.375 C82.7449903,555.566177 82.8337952,555.791665 82.8337952,556.051471 Z M101.653799,556.051471 C101.653799,556.311276 101.564994,556.534313 101.387382,556.720588 C101.209769,556.906864 101.00028,557 100.75891,557 C100.517539,557 100.30805,556.906864 100.130438,556.720588 C99.952825,556.534313 99.8640201,556.311276 99.8640201,556.051471 C99.8640201,555.791665 99.9516865,555.566177 100.127022,555.375 C100.302357,555.183823 100.512985,555.088235 100.75891,555.088235 C101.004835,555.088235 101.215462,555.183823 101.390797,555.375 C101.566133,555.566177 101.653799,555.791665 101.653799,556.051471 Z M97.8897983,556.051471 C97.8897983,556.316178 97.7998548,556.54044 97.6199652,556.724265 C97.4400756,556.908089 97.2317255,557 96.9949088,557 C96.7535379,557 96.5440494,556.906864 96.3664368,556.720588 C96.1888243,556.534313 96.1000193,556.311276 96.1000193,556.051471 C96.1000193,555.791665 96.1876857,555.566177 96.3630212,555.375 C96.5383567,555.183823 96.7489838,555.088235 96.9949088,555.088235 C97.2362797,555.088235 97.4457683,555.183823 97.6233808,555.375 C97.8009933,555.566177 97.8897983,555.791665 97.8897983,556.051471 Z M94.1257975,556.051471 C94.1257975,556.316178 94.035854,556.54044 93.8559644,556.724265 C93.6760748,556.908089 93.4677248,557 93.230908,557 C92.9895371,557 92.7800486,556.906864 92.602436,556.720588 C92.4248235,556.534313 92.3360186,556.311276 92.3360186,556.051471 C92.3360186,555.791665 92.423685,555.566177 92.5990204,555.375 C92.7743559,555.183823 92.984983,555.088235 93.230908,555.088235 C93.4722789,555.088235 93.6817675,555.183823 93.85938,555.375 C94.0369926,555.566177 94.1257975,555.791665 94.1257975,556.051471 Z M112.945801,556.051471 C112.945801,556.311276 112.856996,556.534313 112.679384,556.720588 C112.501771,556.906864 112.292283,557 112.050912,557 C111.809541,557 111.600052,556.906864 111.42244,556.720588 C111.244827,556.534313 111.156022,556.311276 111.156022,556.051471 C111.156022,555.791665 111.243689,555.566177 111.419024,555.375 C111.59436,555.183823 111.804987,555.088235 112.050912,555.088235 C112.296837,555.088235 112.507464,555.183823 112.6828,555.375 C112.858135,555.566177 112.945801,555.791665 112.945801,556.051471 Z M109.181801,556.051471 C109.181801,556.316178 109.091857,556.54044 108.911968,556.724265 C108.732078,556.908089 108.523728,557 108.286911,557 C108.04554,557 107.836052,556.906864 107.658439,556.720588 C107.480827,556.534313 107.392022,556.311276 107.392022,556.051471 C107.392022,555.791665 107.479688,555.566177 107.655024,555.375 C107.830359,555.183823 108.040986,555.088235 108.286911,555.088235 C108.528282,555.088235 108.737771,555.183823 108.915383,555.375 C109.092996,555.566177 109.181801,555.791665 109.181801,556.051471 Z M105.4178,556.051471 C105.4178,556.316178 105.327856,556.54044 105.147967,556.724265 C104.968077,556.908089 104.759727,557 104.52291,557 C104.281539,557 104.072051,556.906864 103.894438,556.720588 C103.716826,556.534313 103.628021,556.311276 103.628021,556.051471 C103.628021,555.791665 103.715687,555.566177 103.891023,555.375 C104.066358,555.183823 104.276985,555.088235 104.52291,555.088235 C104.764281,555.088235 104.97377,555.183823 105.151382,555.375 C105.328995,555.566177 105.4178,555.791665 105.4178,556.051471 Z M124.237804,556.051471 C124.237804,556.311276 124.148999,556.534313 123.971386,556.720588 C123.793774,556.906864 123.584285,557 123.342914,557 C123.101543,557 122.892055,556.906864 122.714442,556.720588 C122.53683,556.534313 122.448025,556.311276 122.448025,556.051471 C122.448025,555.791665 122.535691,555.566177 122.711027,555.375 C122.886362,555.183823 123.096989,555.088235 123.342914,555.088235 C123.588839,555.088235 123.799466,555.183823 123.974802,555.375 C124.150137,555.566177 124.237804,555.791665 124.237804,556.051471 Z M120.473803,556.051471 C120.473803,556.316178 120.383859,556.54044 120.20397,556.724265 C120.02408,556.908089 119.81573,557 119.578913,557 C119.337543,557 119.128054,556.906864 118.950441,556.720588 C118.772829,556.534313 118.684024,556.311276 118.684024,556.051471 C118.684024,555.791665 118.77169,555.566177 118.947026,555.375 C119.122361,555.183823 119.332988,555.088235 119.578913,555.088235 C119.820284,555.088235 120.029773,555.183823 120.207385,555.375 C120.384998,555.566177 120.473803,555.791665 120.473803,556.051471 Z M116.709802,556.051471 C116.709802,556.316178 116.619859,556.54044 116.439969,556.724265 C116.260079,556.908089 116.051729,557 115.814913,557 C115.573542,557 115.364053,556.906864 115.186441,556.720588 C115.008828,556.534313 114.920023,556.311276 114.920023,556.051471 C114.920023,555.791665 115.00769,555.566177 115.183025,555.375 C115.358361,555.183823 115.568988,555.088235 115.814913,555.088235 C116.056284,555.088235 116.265772,555.183823 116.443385,555.375 C116.620997,555.566177 116.709802,555.791665 116.709802,556.051471 Z M135.529806,556.051471 C135.529806,556.311276 135.441001,556.534313 135.263389,556.720588 C135.085776,556.906864 134.876287,557 134.634917,557 C134.393546,557 134.184057,556.906864 134.006445,556.720588 C133.828832,556.534313 133.740027,556.311276 133.740027,556.051471 C133.740027,555.791665 133.827693,555.566177 134.003029,555.375 C134.178364,555.183823 134.388991,555.088235 134.634917,555.088235 C134.880842,555.088235 135.091469,555.183823 135.266804,555.375 C135.44214,555.566177 135.529806,555.791665 135.529806,556.051471 Z M131.765805,556.051471 C131.765805,556.316178 131.675862,556.54044 131.495972,556.724265 C131.316083,556.908089 131.107732,557 130.870916,557 C130.629545,557 130.420056,556.906864 130.242444,556.720588 C130.064831,556.534313 129.976026,556.311276 129.976026,556.051471 C129.976026,555.791665 130.063693,555.566177 130.239028,555.375 C130.414364,555.183823 130.624991,555.088235 130.870916,555.088235 C131.112287,555.088235 131.321775,555.183823 131.499388,555.375 C131.677,555.566177 131.765805,555.791665 131.765805,556.051471 Z M128.001804,556.051471 C128.001804,556.316178 127.911861,556.54044 127.731971,556.724265 C127.552082,556.908089 127.343732,557 127.106915,557 C126.865544,557 126.656056,556.906864 126.478443,556.720588 C126.30083,556.534313 126.212026,556.311276 126.212026,556.051471 C126.212026,555.791665 126.299692,555.566177 126.475027,555.375 C126.650363,555.183823 126.86099,555.088235 127.106915,555.088235 C127.348286,555.088235 127.557774,555.183823 127.735387,555.375 C127.913,555.566177 128.001804,555.791665 128.001804,556.051471 Z M146.821808,556.051471 C146.821808,556.311276 146.733003,556.534313 146.555391,556.720588 C146.377778,556.906864 146.16829,557 145.926919,557 C145.685548,557 145.476059,556.906864 145.298447,556.720588 C145.120834,556.534313 145.032029,556.311276 145.032029,556.051471 C145.032029,555.791665 145.119696,555.566177 145.295031,555.375 C145.470367,555.183823 145.680994,555.088235 145.926919,555.088235 C146.172844,555.088235 146.383471,555.183823 146.558806,555.375 C146.734142,555.566177 146.821808,555.791665 146.821808,556.051471 Z M143.057808,556.051471 C143.057808,556.316178 142.967864,556.54044 142.787974,556.724265 C142.608085,556.908089 142.399735,557 142.162918,557 C141.921547,557 141.712059,556.906864 141.534446,556.720588 C141.356834,556.534313 141.268029,556.311276 141.268029,556.051471 C141.268029,555.791665 141.355695,555.566177 141.53103,555.375 C141.706366,555.183823 141.916993,555.088235 142.162918,555.088235 C142.404289,555.088235 142.613778,555.183823 142.79139,555.375 C142.969003,555.566177 143.057808,555.791665 143.057808,556.051471 Z M139.293807,556.051471 C139.293807,556.316178 139.203863,556.54044 139.023974,556.724265 C138.844084,556.908089 138.635734,557 138.398917,557 C138.157546,557 137.948058,556.906864 137.770445,556.720588 C137.592833,556.534313 137.504028,556.311276 137.504028,556.051471 C137.504028,555.791665 137.591694,555.566177 137.76703,555.375 C137.942365,555.183823 138.152992,555.088235 138.398917,555.088235 C138.640288,555.088235 138.849777,555.183823 139.027389,555.375 C139.205002,555.566177 139.293807,555.791665 139.293807,556.051471 Z M158.113811,556.051471 C158.113811,556.311276 158.025006,556.534313 157.847393,556.720588 C157.669781,556.906864 157.460292,557 157.218921,557 C156.97755,557 156.768062,556.906864 156.590449,556.720588 C156.412837,556.534313 156.324032,556.311276 156.324032,556.051471 C156.324032,555.791665 156.411698,555.566177 156.587034,555.375 C156.762369,555.183823 156.972996,555.088235 157.218921,555.088235 C157.464846,555.088235 157.675473,555.183823 157.850809,555.375 C158.026144,555.566177 158.113811,555.791665 158.113811,556.051471 Z M154.34981,556.051471 C154.34981,556.316178 154.259866,556.54044 154.079977,556.724265 C153.900087,556.908089 153.691737,557 153.45492,557 C153.21355,557 153.004061,556.906864 152.826448,556.720588 C152.648836,556.534313 152.560031,556.311276 152.560031,556.051471 C152.560031,555.791665 152.647697,555.566177 152.823033,555.375 C152.998368,555.183823 153.208995,555.088235 153.45492,555.088235 C153.696291,555.088235 153.90578,555.183823 154.083392,555.375 C154.261005,555.566177 154.34981,555.791665 154.34981,556.051471 Z M150.585809,556.051471 C150.585809,556.316178 150.495866,556.54044 150.315976,556.724265 C150.136086,556.908089 149.927736,557 149.69092,557 C149.449549,557 149.24006,556.906864 149.062448,556.720588 C148.884835,556.534313 148.79603,556.311276 148.79603,556.051471 C148.79603,555.791665 148.883697,555.566177 149.059032,555.375 C149.234367,555.183823 149.444995,555.088235 149.69092,555.088235 C149.932291,555.088235 150.141779,555.183823 150.319392,555.375 C150.497004,555.566177 150.585809,555.791665 150.585809,556.051471 Z M169.405813,556.051471 C169.405813,556.311276 169.317008,556.534313 169.139396,556.720588 C168.961783,556.906864 168.752294,557 168.510924,557 C168.269553,557 168.060064,556.906864 167.882452,556.720588 C167.704839,556.534313 167.616034,556.311276 167.616034,556.051471 C167.616034,555.791665 167.7037,555.566177 167.879036,555.375 C168.054371,555.183823 168.264998,555.088235 168.510924,555.088235 C168.756849,555.088235 168.967476,555.183823 169.142811,555.375 C169.318147,555.566177 169.405813,555.791665 169.405813,556.051471 Z M165.641812,556.051471 C165.641812,556.316178 165.551869,556.54044 165.371979,556.724265 C165.192089,556.908089 164.983739,557 164.746923,557 C164.505552,557 164.296063,556.906864 164.118451,556.720588 C163.940838,556.534313 163.852033,556.311276 163.852033,556.051471 C163.852033,555.791665 163.9397,555.566177 164.115035,555.375 C164.290371,555.183823 164.500998,555.088235 164.746923,555.088235 C164.988294,555.088235 165.197782,555.183823 165.375395,555.375 C165.553007,555.566177 165.641812,555.791665 165.641812,556.051471 Z M161.877811,556.051471 C161.877811,556.316178 161.787868,556.54044 161.607978,556.724265 C161.428089,556.908089 161.219739,557 160.982922,557 C160.741551,557 160.532062,556.906864 160.35445,556.720588 C160.176837,556.534313 160.088032,556.311276 160.088032,556.051471 C160.088032,555.791665 160.175699,555.566177 160.351034,555.375 C160.52637,555.183823 160.736997,555.088235 160.982922,555.088235 C161.224293,555.088235 161.433781,555.183823 161.611394,555.375 C161.789006,555.566177 161.877811,555.791665 161.877811,556.051471 Z M180.697815,556.051471 C180.697815,556.311276 180.60901,556.534313 180.431398,556.720588 C180.253785,556.906864 180.044297,557 179.802926,557 C179.561555,557 179.352066,556.906864 179.174454,556.720588 C178.996841,556.534313 178.908036,556.311276 178.908036,556.051471 C178.908036,555.791665 178.995703,555.566177 179.171038,555.375 C179.346374,555.183823 179.557001,555.088235 179.802926,555.088235 C180.048851,555.088235 180.259478,555.183823 180.434813,555.375 C180.610149,555.566177 180.697815,555.791665 180.697815,556.051471 Z M176.933815,556.051471 C176.933815,556.316178 176.843871,556.54044 176.663981,556.724265 C176.484092,556.908089 176.275742,557 176.038925,557 C175.797554,557 175.588066,556.906864 175.410453,556.720588 C175.232841,556.534313 175.144036,556.311276 175.144036,556.051471 C175.144036,555.791665 175.231702,555.566177 175.407037,555.375 C175.582373,555.183823 175.793,555.088235 176.038925,555.088235 C176.280296,555.088235 176.489785,555.183823 176.667397,555.375 C176.84501,555.566177 176.933815,555.791665 176.933815,556.051471 Z M173.169814,556.051471 C173.169814,556.316178 173.07987,556.54044 172.899981,556.724265 C172.720091,556.908089 172.511741,557 172.274924,557 C172.033553,557 171.824065,556.906864 171.646452,556.720588 C171.46884,556.534313 171.380035,556.311276 171.380035,556.051471 C171.380035,555.791665 171.467701,555.566177 171.643037,555.375 C171.818372,555.183823 172.028999,555.088235 172.274924,555.088235 C172.516295,555.088235 172.725784,555.183823 172.903396,555.375 C173.081009,555.566177 173.169814,555.791665 173.169814,556.051471 Z M191.989818,556.051471 C191.989818,556.311276 191.901013,556.534313 191.7234,556.720588 C191.545788,556.906864 191.336299,557 191.094928,557 C190.853557,557 190.644069,556.906864 190.466456,556.720588 C190.288844,556.534313 190.200039,556.311276 190.200039,556.051471 C190.200039,555.791665 190.287705,555.566177 190.463041,555.375 C190.638376,555.183823 190.849003,555.088235 191.094928,555.088235 C191.340853,555.088235 191.55148,555.183823 191.726816,555.375 C191.902151,555.566177 191.989818,555.791665 191.989818,556.051471 Z M188.225817,556.051471 C188.225817,556.316178 188.135873,556.54044 187.955984,556.724265 C187.776094,556.908089 187.567744,557 187.330927,557 C187.089556,557 186.880068,556.906864 186.702455,556.720588 C186.524843,556.534313 186.436038,556.311276 186.436038,556.051471 C186.436038,555.791665 186.523704,555.566177 186.69904,555.375 C186.874375,555.183823 187.085002,555.088235 187.330927,555.088235 C187.572298,555.088235 187.781787,555.183823 187.959399,555.375 C188.137012,555.566177 188.225817,555.791665 188.225817,556.051471 Z M184.461816,556.051471 C184.461816,556.316178 184.371873,556.54044 184.191983,556.724265 C184.012093,556.908089 183.803743,557 183.566927,557 C183.325556,557 183.116067,556.906864 182.938455,556.720588 C182.760842,556.534313 182.672037,556.311276 182.672037,556.051471 C182.672037,555.791665 182.759704,555.566177 182.935039,555.375 C183.110374,555.183823 183.321002,555.088235 183.566927,555.088235 C183.808297,555.088235 184.017786,555.183823 184.195399,555.375 C184.373011,555.566177 184.461816,555.791665 184.461816,556.051471 Z M203.28182,556.051471 C203.28182,556.311276 203.193015,556.534313 203.015402,556.720588 C202.83779,556.906864 202.628301,557 202.38693,557 C202.14556,557 201.936071,556.906864 201.758458,556.720588 C201.580846,556.534313 201.492041,556.311276 201.492041,556.051471 C201.492041,555.791665 201.579707,555.566177 201.755043,555.375 C201.930378,555.183823 202.141005,555.088235 202.38693,555.088235 C202.632856,555.088235 202.843483,555.183823 203.018818,555.375 C203.194154,555.566177 203.28182,555.791665 203.28182,556.051471 Z M199.517819,556.051471 C199.517819,556.316178 199.427876,556.54044 199.247986,556.724265 C199.068096,556.908089 198.859746,557 198.62293,557 C198.381559,557 198.17207,556.906864 197.994458,556.720588 C197.816845,556.534313 197.72804,556.311276 197.72804,556.051471 C197.72804,555.791665 197.815707,555.566177 197.991042,555.375 C198.166378,555.183823 198.377005,555.088235 198.62293,555.088235 C198.864301,555.088235 199.073789,555.183823 199.251402,555.375 C199.429014,555.566177 199.517819,555.791665 199.517819,556.051471 Z M195.753818,556.051471 C195.753818,556.316178 195.663875,556.54044 195.483985,556.724265 C195.304096,556.908089 195.095746,557 194.858929,557 C194.617558,557 194.408069,556.906864 194.230457,556.720588 C194.052844,556.534313 193.964039,556.311276 193.964039,556.051471 C193.964039,555.791665 194.051706,555.566177 194.227041,555.375 C194.402377,555.183823 194.613004,555.088235 194.858929,555.088235 C195.1003,555.088235 195.309788,555.183823 195.487401,555.375 C195.665013,555.566177 195.753818,555.791665 195.753818,556.051471 Z M214.573822,556.051471 C214.573822,556.311276 214.485017,556.534313 214.307405,556.720588 C214.129792,556.906864 213.920304,557 213.678933,557 C213.437562,557 213.228073,556.906864 213.050461,556.720588 C212.872848,556.534313 212.784043,556.311276 212.784043,556.051471 C212.784043,555.791665 212.87171,555.566177 213.047045,555.375 C213.222381,555.183823 213.433008,555.088235 213.678933,555.088235 C213.924858,555.088235 214.135485,555.183823 214.31082,555.375 C214.486156,555.566177 214.573822,555.791665 214.573822,556.051471 Z M210.809821,556.051471 C210.809821,556.316178 210.719878,556.54044 210.539988,556.724265 C210.360099,556.908089 210.151749,557 209.914932,557 C209.673561,557 209.464073,556.906864 209.28646,556.720588 C209.108847,556.534313 209.020043,556.311276 209.020043,556.051471 C209.020043,555.791665 209.107709,555.566177 209.283044,555.375 C209.45838,555.183823 209.669007,555.088235 209.914932,555.088235 C210.156303,555.088235 210.365791,555.183823 210.543404,555.375 C210.721017,555.566177 210.809821,555.791665 210.809821,556.051471 Z M207.045821,556.051471 C207.045821,556.316178 206.955877,556.54044 206.775988,556.724265 C206.596098,556.908089 206.387748,557 206.150931,557 C205.90956,557 205.700072,556.906864 205.522459,556.720588 C205.344847,556.534313 205.256042,556.311276 205.256042,556.051471 C205.256042,555.791665 205.343708,555.566177 205.519044,555.375 C205.694379,555.183823 205.905006,555.088235 206.150931,555.088235 C206.392302,555.088235 206.601791,555.183823 206.779403,555.375 C206.957016,555.566177 207.045821,555.791665 207.045821,556.051471 Z M225.865825,556.051471 C225.865825,556.311276 225.77702,556.534313 225.599407,556.720588 C225.421795,556.906864 225.212306,557 224.970935,557 C224.729564,557 224.520076,556.906864 224.342463,556.720588 C224.164851,556.534313 224.076046,556.311276 224.076046,556.051471 C224.076046,555.791665 224.163712,555.566177 224.339047,555.375 C224.514383,555.183823 224.72501,555.088235 224.970935,555.088235 C225.21686,555.088235 225.427487,555.183823 225.602823,555.375 C225.778158,555.566177 225.865825,555.791665 225.865825,556.051471 Z M222.101824,556.051471 C222.101824,556.316178 222.01188,556.54044 221.831991,556.724265 C221.652101,556.908089 221.443751,557 221.206934,557 C220.965563,557 220.756075,556.906864 220.578462,556.720588 C220.40085,556.534313 220.312045,556.311276 220.312045,556.051471 C220.312045,555.791665 220.399711,555.566177 220.575047,555.375 C220.750382,555.183823 220.961009,555.088235 221.206934,555.088235 C221.448305,555.088235 221.657794,555.183823 221.835406,555.375 C222.013019,555.566177 222.101824,555.791665 222.101824,556.051471 Z M218.337823,556.051471 C218.337823,556.316178 218.24788,556.54044 218.06799,556.724265 C217.8881,556.908089 217.67975,557 217.442934,557 C217.201563,557 216.992074,556.906864 216.814462,556.720588 C216.636849,556.534313 216.548044,556.311276 216.548044,556.051471 C216.548044,555.791665 216.63571,555.566177 216.811046,555.375 C216.986381,555.183823 217.197009,555.088235 217.442934,555.088235 C217.684304,555.088235 217.893793,555.183823 218.071406,555.375 C218.249018,555.566177 218.337823,555.791665 218.337823,556.051471 Z M237.157827,556.051471 C237.157827,556.311276 237.069022,556.534313 236.891409,556.720588 C236.713797,556.906864 236.504308,557 236.262937,557 C236.021567,557 235.812078,556.906864 235.634465,556.720588 C235.456853,556.534313 235.368048,556.311276 235.368048,556.051471 C235.368048,555.791665 235.455714,555.566177 235.63105,555.375 C235.806385,555.183823 236.017012,555.088235 236.262937,555.088235 C236.508862,555.088235 236.71949,555.183823 236.894825,555.375 C237.07016,555.566177 237.157827,555.791665 237.157827,556.051471 Z M233.393826,556.051471 C233.393826,556.316178 233.303883,556.54044 233.123993,556.724265 C232.944103,556.908089 232.735753,557 232.498937,557 C232.257566,557 232.048077,556.906864 231.870465,556.720588 C231.692852,556.534313 231.604047,556.311276 231.604047,556.051471 C231.604047,555.791665 231.691714,555.566177 231.867049,555.375 C232.042384,555.183823 232.253012,555.088235 232.498937,555.088235 C232.740308,555.088235 232.949796,555.183823 233.127409,555.375 C233.305021,555.566177 233.393826,555.791665 233.393826,556.051471 Z M229.629825,556.051471 C229.629825,556.316178 229.539882,556.54044 229.359992,556.724265 C229.180103,556.908089 228.971753,557 228.734936,557 C228.493565,557 228.284076,556.906864 228.106464,556.720588 C227.928851,556.534313 227.840046,556.311276 227.840046,556.051471 C227.840046,555.791665 227.927713,555.566177 228.103048,555.375 C228.278384,555.183823 228.489011,555.088235 228.734936,555.088235 C228.976307,555.088235 229.185795,555.183823 229.363408,555.375 C229.54102,555.566177 229.629825,555.791665 229.629825,556.051471 Z M248.449829,556.051471 C248.449829,556.311276 248.361024,556.534313 248.183412,556.720588 C248.005799,556.906864 247.796311,557 247.55494,557 C247.313569,557 247.10408,556.906864 246.926468,556.720588 C246.748855,556.534313 246.66005,556.311276 246.66005,556.051471 C246.66005,555.791665 246.747717,555.566177 246.923052,555.375 C247.098388,555.183823 247.309015,555.088235 247.55494,555.088235 C247.800865,555.088235 248.011492,555.183823 248.186827,555.375 C248.362163,555.566177 248.449829,555.791665 248.449829,556.051471 Z M244.685828,556.051471 C244.685828,556.316178 244.595885,556.54044 244.415995,556.724265 C244.236106,556.908089 244.027756,557 243.790939,557 C243.549568,557 243.34008,556.906864 243.162467,556.720588 C242.984854,556.534313 242.896049,556.311276 242.896049,556.051471 C242.896049,555.791665 242.983716,555.566177 243.159051,555.375 C243.334387,555.183823 243.545014,555.088235 243.790939,555.088235 C244.03231,555.088235 244.241798,555.183823 244.419411,555.375 C244.597024,555.566177 244.685828,555.791665 244.685828,556.051471 Z M240.921828,556.051471 C240.921828,556.316178 240.831884,556.54044 240.651995,556.724265 C240.472105,556.908089 240.263755,557 240.026938,557 C239.785567,557 239.576079,556.906864 239.398466,556.720588 C239.220854,556.534313 239.132049,556.311276 239.132049,556.051471 C239.132049,555.791665 239.219715,555.566177 239.395051,555.375 C239.570386,555.183823 239.781013,555.088235 240.026938,555.088235 C240.268309,555.088235 240.477798,555.183823 240.65541,555.375 C240.833023,555.566177 240.921828,555.791665 240.921828,556.051471 Z M259.741832,556.051471 C259.741832,556.311276 259.653027,556.534313 259.475414,556.720588 C259.297802,556.906864 259.088313,557 258.846942,557 C258.605571,557 258.396083,556.906864 258.21847,556.720588 C258.040858,556.534313 257.952053,556.311276 257.952053,556.051471 C257.952053,555.791665 258.039719,555.566177 258.215054,555.375 C258.39039,555.183823 258.601017,555.088235 258.846942,555.088235 C259.092867,555.088235 259.303494,555.183823 259.47883,555.375 C259.654165,555.566177 259.741832,555.791665 259.741832,556.051471 Z M255.977831,556.051471 C255.977831,556.316178 255.887887,556.54044 255.707998,556.724265 C255.528108,556.908089 255.319758,557 255.082941,557 C254.84157,557 254.632082,556.906864 254.454469,556.720588 C254.276857,556.534313 254.188052,556.311276 254.188052,556.051471 C254.188052,555.791665 254.275718,555.566177 254.451054,555.375 C254.626389,555.183823 254.837016,555.088235 255.082941,555.088235 C255.324312,555.088235 255.533801,555.183823 255.711413,555.375 C255.889026,555.566177 255.977831,555.791665 255.977831,556.051471 Z M252.21383,556.051471 C252.21383,556.316178 252.123887,556.54044 251.943997,556.724265 C251.764107,556.908089 251.555757,557 251.318941,557 C251.07757,557 250.868081,556.906864 250.690469,556.720588 C250.512856,556.534313 250.424051,556.311276 250.424051,556.051471 C250.424051,555.791665 250.511717,555.566177 250.687053,555.375 C250.862388,555.183823 251.073015,555.088235 251.318941,555.088235 C251.560311,555.088235 251.7698,555.183823 251.947413,555.375 C252.125025,555.566177 252.21383,555.791665 252.21383,556.051471 Z M271.033834,556.051471 C271.033834,556.311276 270.945029,556.534313 270.767416,556.720588 C270.589804,556.906864 270.380315,557 270.138944,557 C269.897573,557 269.688085,556.906864 269.510472,556.720588 C269.33286,556.534313 269.244055,556.311276 269.244055,556.051471 C269.244055,555.791665 269.331721,555.566177 269.507057,555.375 C269.682392,555.183823 269.893019,555.088235 270.138944,555.088235 C270.384869,555.088235 270.595497,555.183823 270.770832,555.375 C270.946167,555.566177 271.033834,555.791665 271.033834,556.051471 Z M267.269833,556.051471 C267.269833,556.316178 267.17989,556.54044 267,556.724265 C266.82011,556.908089 266.61176,557 266.374944,557 C266.133573,557 265.924084,556.906864 265.746472,556.720588 C265.568859,556.534313 265.480054,556.311276 265.480054,556.051471 C265.480054,555.791665 265.567721,555.566177 265.743056,555.375 C265.918391,555.183823 266.129019,555.088235 266.374944,555.088235 C266.616314,555.088235 266.825803,555.183823 267.003416,555.375 C267.181028,555.566177 267.269833,555.791665 267.269833,556.051471 Z M263.505832,556.051471 C263.505832,556.316178 263.415889,556.54044 263.235999,556.724265 C263.05611,556.908089 262.84776,557 262.610943,557 C262.369572,557 262.160083,556.906864 261.982471,556.720588 C261.804858,556.534313 261.716053,556.311276 261.716053,556.051471 C261.716053,555.791665 261.80372,555.566177 261.979055,555.375 C262.154391,555.183823 262.365018,555.088235 262.610943,555.088235 C262.852314,555.088235 263.061802,555.183823 263.239415,555.375 C263.417027,555.566177 263.505832,555.791665 263.505832,556.051471 Z M282.325836,556.051471 C282.325836,556.311276 282.237031,556.534313 282.059419,556.720588 C281.881806,556.906864 281.672318,557 281.430947,557 C281.189576,557 280.980087,556.906864 280.802475,556.720588 C280.624862,556.534313 280.536057,556.311276 280.536057,556.051471 C280.536057,555.791665 280.623724,555.566177 280.799059,555.375 C280.974395,555.183823 281.185022,555.088235 281.430947,555.088235 C281.676872,555.088235 281.887499,555.183823 282.062834,555.375 C282.23817,555.566177 282.325836,555.791665 282.325836,556.051471 Z M278.561835,556.051471 C278.561835,556.316178 278.471892,556.54044 278.292002,556.724265 C278.112113,556.908089 277.903763,557 277.666946,557 C277.425575,557 277.216086,556.906864 277.038474,556.720588 C276.860861,556.534313 276.772056,556.311276 276.772056,556.051471 C276.772056,555.791665 276.859723,555.566177 277.035058,555.375 C277.210394,555.183823 277.421021,555.088235 277.666946,555.088235 C277.908317,555.088235 278.117805,555.183823 278.295418,555.375 C278.47303,555.566177 278.561835,555.791665 278.561835,556.051471 Z M274.797835,556.051471 C274.797835,556.316178 274.707891,556.54044 274.528002,556.724265 C274.348112,556.908089 274.139762,557 273.902945,557 C273.661574,557 273.452086,556.906864 273.274473,556.720588 C273.096861,556.534313 273.008056,556.311276 273.008056,556.051471 C273.008056,555.791665 273.095722,555.566177 273.271058,555.375 C273.446393,555.183823 273.65702,555.088235 273.902945,555.088235 C274.144316,555.088235 274.353805,555.183823 274.531417,555.375 C274.70903,555.566177 274.797835,555.791665 274.797835,556.051471 Z M293.617838,556.051471 C293.617838,556.311276 293.529034,556.534313 293.351421,556.720588 C293.173808,556.906864 292.96432,557 292.722949,557 C292.481578,557 292.27209,556.906864 292.094477,556.720588 C291.916864,556.534313 291.82806,556.311276 291.82806,556.051471 C291.82806,555.791665 291.915726,555.566177 292.091061,555.375 C292.266397,555.183823 292.477024,555.088235 292.722949,555.088235 C292.968874,555.088235 293.179501,555.183823 293.354837,555.375 C293.530172,555.566177 293.617838,555.791665 293.617838,556.051471 Z M289.853838,556.051471 C289.853838,556.316178 289.763894,556.54044 289.584005,556.724265 C289.404115,556.908089 289.195765,557 288.958948,557 C288.717577,557 288.508089,556.906864 288.330476,556.720588 C288.152864,556.534313 288.064059,556.311276 288.064059,556.051471 C288.064059,555.791665 288.151725,555.566177 288.327061,555.375 C288.502396,555.183823 288.713023,555.088235 288.958948,555.088235 C289.200319,555.088235 289.409808,555.183823 289.58742,555.375 C289.765033,555.566177 289.853838,555.791665 289.853838,556.051471 Z M286.089837,556.051471 C286.089837,556.316178 285.999893,556.54044 285.820004,556.724265 C285.640114,556.908089 285.431764,557 285.194947,557 C284.953577,557 284.744088,556.906864 284.566475,556.720588 C284.388863,556.534313 284.300058,556.311276 284.300058,556.051471 C284.300058,555.791665 284.387724,555.566177 284.56306,555.375 C284.738395,555.183823 284.949022,555.088235 285.194947,555.088235 C285.436318,555.088235 285.645807,555.183823 285.823419,555.375 C286.001032,555.566177 286.089837,555.791665 286.089837,556.051471 Z M304.909841,556.051471 C304.909841,556.311276 304.821036,556.534313 304.643423,556.720588 C304.465811,556.906864 304.256322,557 304.014951,557 C303.77358,557 303.564092,556.906864 303.386479,556.720588 C303.208867,556.534313 303.120062,556.311276 303.120062,556.051471 C303.120062,555.791665 303.207728,555.566177 303.383064,555.375 C303.558399,555.183823 303.769026,555.088235 304.014951,555.088235 C304.260876,555.088235 304.471503,555.183823 304.646839,555.375 C304.822174,555.566177 304.909841,555.791665 304.909841,556.051471 Z M301.14584,556.051471 C301.14584,556.316178 301.055897,556.54044 300.876007,556.724265 C300.696117,556.908089 300.487767,557 300.250951,557 C300.00958,557 299.800091,556.906864 299.622479,556.720588 C299.444866,556.534313 299.356061,556.311276 299.356061,556.051471 C299.356061,555.791665 299.443728,555.566177 299.619063,555.375 C299.794398,555.183823 300.005026,555.088235 300.250951,555.088235 C300.492321,555.088235 300.70181,555.183823 300.879423,555.375 C301.057035,555.566177 301.14584,555.791665 301.14584,556.051471 Z M297.381839,556.051471 C297.381839,556.316178 297.291896,556.54044 297.112006,556.724265 C296.932117,556.908089 296.723767,557 296.48695,557 C296.245579,557 296.03609,556.906864 295.858478,556.720588 C295.680865,556.534313 295.59206,556.311276 295.59206,556.051471 C295.59206,555.791665 295.679727,555.566177 295.855062,555.375 C296.030398,555.183823 296.241025,555.088235 296.48695,555.088235 C296.728321,555.088235 296.937809,555.183823 297.115422,555.375 C297.293034,555.566177 297.381839,555.791665 297.381839,556.051471 Z M316.201843,556.051471 C316.201843,556.311276 316.113038,556.534313 315.935426,556.720588 C315.757813,556.906864 315.548325,557 315.306954,557 C315.065583,557 314.856094,556.906864 314.678482,556.720588 C314.500869,556.534313 314.412064,556.311276 314.412064,556.051471 C314.412064,555.791665 314.499731,555.566177 314.675066,555.375 C314.850402,555.183823 315.061029,555.088235 315.306954,555.088235 C315.552879,555.088235 315.763506,555.183823 315.938841,555.375 C316.114177,555.566177 316.201843,555.791665 316.201843,556.051471 Z M312.437842,556.051471 C312.437842,556.316178 312.347899,556.54044 312.168009,556.724265 C311.98812,556.908089 311.77977,557 311.542953,557 C311.301582,557 311.092093,556.906864 310.914481,556.720588 C310.736868,556.534313 310.648063,556.311276 310.648063,556.051471 C310.648063,555.791665 310.73573,555.566177 310.911065,555.375 C311.086401,555.183823 311.297028,555.088235 311.542953,555.088235 C311.784324,555.088235 311.993812,555.183823 312.171425,555.375 C312.349037,555.566177 312.437842,555.791665 312.437842,556.051471 Z M308.673842,556.051471 C308.673842,556.316178 308.583898,556.54044 308.404009,556.724265 C308.224119,556.908089 308.015769,557 307.778952,557 C307.537581,557 307.328093,556.906864 307.15048,556.720588 C306.972868,556.534313 306.884063,556.311276 306.884063,556.051471 C306.884063,555.791665 306.971729,555.566177 307.147065,555.375 C307.3224,555.183823 307.533027,555.088235 307.778952,555.088235 C308.020323,555.088235 308.229812,555.183823 308.407424,555.375 C308.585037,555.566177 308.673842,555.791665 308.673842,556.051471 Z M320,556.007353 C320,556.281864 319.907779,556.51593 319.723336,556.709559 C319.538892,556.903187 319.319157,557 319.064123,557 C318.80909,557 318.589355,556.903187 318.404911,556.709559 C318.220467,556.51593 318.128246,556.281864 318.128246,556.007353 C318.128246,555.732842 318.220467,555.496325 318.404911,555.297794 C318.589355,555.099264 318.80909,555 319.064123,555 C319.319157,555 319.538892,555.099264 319.723336,555.297794 C319.907779,555.496325 320,555.732842 320,556.007353 Z" id="…………………………………………………………………………." fill="#DADFE7" fill-rule="nonzero"></path>
        <path d="M3.04720534,1.0003845e-11 C3.01573507,0.166825717 3,0.339902531 3,0.519230769 C3,1.19872135 3.22884537,1.78204885 3.68654298,2.26923077 C4.14424058,2.75641269 4.68408094,3 5.30608025,3 C5.91634372,3 6.45325017,2.75961779 6.91681569,2.27884615 C7.38038122,1.79807452 7.6121605,1.21154192 7.6121605,0.519230769 C7.6121605,0.339902531 7.59622108,0.166825717 7.5643421,1.00044556e-11 L12.7468253,1.00044417e-11 C12.7153551,0.166825717 12.69962,0.339902531 12.69962,0.519230769 C12.69962,1.19872135 12.9284654,1.78204885 13.386163,2.26923077 C13.8438606,2.75641269 14.3837009,3 15.0057002,3 C15.6159637,3 16.1528702,2.75961779 16.6164357,2.27884615 C17.0800012,1.79807452 17.3117805,1.21154192 17.3117805,0.519230769 C17.3117805,0.339902531 17.2958411,0.166825717 17.2639621,1.00042336e-11 L22.4464453,1.00044417e-11 C22.414975,0.166825717 22.39924,0.339902531 22.39924,0.519230769 C22.39924,1.19872135 22.6280853,1.78204885 23.0857829,2.26923077 C23.5434805,2.75641269 24.0833209,3 24.7053202,3 C25.3273195,3 25.8671599,2.75641269 26.3248575,2.26923077 C26.7825551,1.78204885 27.0114005,1.19872135 27.0114005,0.519230769 C27.0114005,0.339902531 26.9956654,0.166825717 26.9641951,1.00042336e-11 L32.1460653,1.00044417e-11 C32.114595,0.166825717 32.09886,0.339902531 32.09886,0.519230769 C32.09886,1.19872135 32.3277053,1.78204885 32.7854029,2.26923077 C33.2431005,2.75641269 33.7829409,3 34.4049402,3 C35.0152037,3 35.5521101,2.75961779 36.0156756,2.27884615 C36.4792412,1.79807452 36.7110205,1.21154192 36.7110205,0.519230769 C36.7110205,0.339902531 36.695081,0.166825717 36.6632021,1.00042336e-11 L41.8456853,1.00044417e-11 C41.814215,0.166825717 41.7984799,0.339902531 41.7984799,0.519230769 C41.7984799,1.19872135 42.0273253,1.78204885 42.4850229,2.26923077 C42.9427205,2.75641269 43.4825609,3 44.1045602,3 C44.7148237,3 45.2517301,2.75961779 45.7152956,2.27884615 C46.1788612,1.79807452 46.4106404,1.21154192 46.4106404,0.519230769 C46.4106404,0.339902531 46.394701,0.166825717 46.362822,1.00042336e-11 L51.5453053,1.00044417e-11 C51.513835,0.166825717 51.4980999,0.339902531 51.4980999,0.519230769 C51.4980999,1.19872135 51.7269453,1.78204885 52.1846429,2.26923077 C52.6423405,2.75641269 53.1821809,3 53.8041802,3 C54.4261795,3 54.9660198,2.75641269 55.4237174,2.26923077 C55.8814151,1.78204885 56.1102604,1.19872135 56.1102604,0.519230769 C56.1102604,0.339902531 56.0945254,0.166825717 56.0630551,1.00042336e-11 L61.2449252,1.00044417e-11 C61.213455,0.166825717 61.1977199,0.339902531 61.1977199,0.519230769 C61.1977199,1.19872135 61.4265653,1.78204885 61.8842629,2.26923077 C62.3419605,2.75641269 62.8818008,3 63.5038002,3 C64.1140636,3 64.6509701,2.75961779 65.1145356,2.27884615 C65.5781011,1.79807452 65.8098804,1.21154192 65.8098804,0.519230769 C65.8098804,0.339902531 65.793941,0.166825717 65.762062,1.00044556e-11 L70.9445452,1.00044417e-11 C70.913075,0.166825717 70.8973399,0.339902531 70.8973399,0.519230769 C70.8973399,1.19872135 71.1261853,1.78204885 71.5838829,2.26923077 C72.0415805,2.75641269 72.5814208,3 73.2034201,3 C73.8136836,3 74.3505901,2.75961779 74.8141556,2.27884615 C75.2777211,1.79807452 75.5095004,1.21154192 75.5095004,0.519230769 C75.5095004,0.339902531 75.493561,0.166825717 75.461682,1.00044556e-11 L80.6441652,1.00044417e-11 C80.6126949,0.166825717 80.5969599,0.339902531 80.5969599,0.519230769 C80.5969599,1.19872135 80.8258052,1.78204885 81.2835029,2.26923077 C81.7412005,2.75641269 82.2810408,3 82.9030401,3 C83.5250394,3 84.0648798,2.75641269 84.5225774,2.26923077 C84.980275,1.78204885 85.2091204,1.19872135 85.2091204,0.519230769 C85.2091204,0.339902531 85.1933853,0.166825717 85.161915,1.00042336e-11 L90.3437852,1.00044417e-11 C90.3123149,0.166825717 90.2965799,0.339902531 90.2965799,0.519230769 C90.2965799,1.19872135 90.5254252,1.78204885 90.9831228,2.26923077 C91.4408204,2.75641269 91.9806608,3 92.6026601,3 C93.2129236,3 93.74983,2.75961779 94.2133956,2.27884615 C94.6769611,1.79807452 94.9087404,1.21154192 94.9087404,0.519230769 C94.9087404,0.339902531 94.8928009,0.166825717 94.860922,1.00042336e-11 L100.043405,1.00044417e-11 C100.011935,0.166825717 99.9961998,0.339902531 99.9961998,0.519230769 C99.9961998,1.19872135 100.225045,1.78204885 100.682743,2.26923077 C101.14044,2.75641269 101.680281,3 102.30228,3 C102.912544,3 103.44945,2.75961779 103.913016,2.27884615 C104.376581,1.79807452 104.60836,1.21154192 104.60836,0.519230769 C104.60836,0.339902531 104.592421,0.166825717 104.560542,1.00042336e-11 L109.743025,1.00044417e-11 C109.711555,0.166825717 109.69582,0.339902531 109.69582,0.519230769 C109.69582,1.19872135 109.924665,1.78204885 110.382363,2.26923077 C110.84006,2.75641269 111.379901,3 112.0019,3 C112.623899,3 113.16374,2.75641269 113.621437,2.26923077 C114.079135,1.78204885 114.30798,1.19872135 114.30798,0.519230769 C114.30798,0.339902531 114.292245,0.166825717 114.260775,9.9962677e-12 L119.442645,1.00044417e-11 C119.411175,0.166825717 119.39544,0.339902531 119.39544,0.519230769 C119.39544,1.19872135 119.624285,1.78204885 120.081983,2.26923077 C120.53968,2.75641269 121.079521,3 121.70152,3 C122.311784,3 122.84869,2.75961779 123.312256,2.27884615 C123.775821,1.79807452 124.0076,1.21154192 124.0076,0.519230769 C124.0076,0.339902531 123.991661,0.166825717 123.959782,1.00042336e-11 L129.142265,1.00044417e-11 C129.110795,0.166825717 129.09506,0.339902531 129.09506,0.519230769 C129.09506,1.19872135 129.323905,1.78204885 129.781603,2.26923077 C130.2393,2.75641269 130.779141,3 131.40114,3 C132.011404,3 132.54831,2.75961779 133.011875,2.27884615 C133.475441,1.79807452 133.70722,1.21154192 133.70722,0.519230769 C133.70722,0.339902531 133.691281,0.166825717 133.659402,1.00042336e-11 L138.841885,1.00044417e-11 C138.810415,0.166825717 138.79468,0.339902531 138.79468,0.519230769 C138.79468,1.19872135 139.023525,1.78204885 139.481223,2.26923077 C139.93892,2.75641269 140.478761,3 141.10076,3 C141.722759,3 142.2626,2.75641269 142.720297,2.26923077 C143.177995,1.78204885 143.40684,1.19872135 143.40684,0.519230769 C143.40684,0.339902531 143.391105,0.166825717 143.359635,9.96674965e-12 L148.541505,1.00044417e-11 C148.510035,0.166825717 148.4943,0.339902531 148.4943,0.519230769 C148.4943,1.19872135 148.723145,1.78204885 149.180843,2.26923077 C149.63854,2.75641269 150.178381,3 150.80038,3 C151.410643,3 151.94755,2.75961779 152.411115,2.27884615 C152.874681,1.79807452 153.10646,1.21154192 153.10646,0.519230769 C153.10646,0.339902531 153.090521,0.166825717 153.058642,1.00042336e-11 L158.241125,1.00044417e-11 C158.209655,0.166825717 158.19392,0.339902531 158.19392,0.519230769 C158.19392,1.19872135 158.422765,1.78204885 158.880463,2.26923077 C159.33816,2.75641269 159.878001,3 160.5,3 C161.110263,3 161.64717,2.75961779 162.110735,2.27884615 C162.574301,1.79807452 162.80608,1.21154192 162.80608,0.519230769 C162.80608,0.339902531 162.790141,0.166825717 162.758262,1.00120329e-11 L167.940745,1.00044417e-11 C167.909275,0.166825717 167.89354,0.339902531 167.89354,0.519230769 C167.89354,1.19872135 168.122385,1.78204885 168.580083,2.26923077 C169.03778,2.75641269 169.577621,3 170.19962,3 C170.821619,3 171.36146,2.75641269 171.819157,2.26923077 C172.276855,1.78204885 172.5057,1.19872135 172.5057,0.519230769 C172.5057,0.339902531 172.489965,0.166825717 172.458495,9.96674965e-12 L177.640365,1.00044417e-11 C177.608895,0.166825717 177.59316,0.339902531 177.59316,0.519230769 C177.59316,1.19872135 177.822005,1.78204885 178.279703,2.26923077 C178.7374,2.75641269 179.277241,3 179.89924,3 C180.509503,3 181.04641,2.75961779 181.509975,2.27884615 C181.973541,1.79807452 182.20532,1.21154192 182.20532,0.519230769 C182.20532,0.339902531 182.189381,0.166825717 182.157502,1.00044556e-11 L187.339985,1.00044417e-11 C187.308515,0.166825717 187.29278,0.339902531 187.29278,0.519230769 C187.29278,1.19872135 187.521625,1.78204885 187.979323,2.26923077 C188.43702,2.75641269 188.976861,3 189.59886,3 C190.209123,3 190.74603,2.75961779 191.209595,2.27884615 C191.673161,1.79807452 191.90494,1.21154192 191.90494,0.519230769 C191.90494,0.339902531 191.889001,0.166825717 191.857122,1.00042336e-11 L197.039605,1.00044417e-11 C197.008135,0.166825717 196.9924,0.339902531 196.9924,0.519230769 C196.9924,1.19872135 197.221245,1.78204885 197.678943,2.26923077 C198.13664,2.75641269 198.676481,3 199.29848,3 C199.920479,3 200.46032,2.75641269 200.918017,2.26923077 C201.375715,1.78204885 201.60456,1.19872135 201.60456,0.519230769 C201.60456,0.339902531 201.588825,0.166825717 201.557355,9.96674965e-12 L206.739225,1.00044417e-11 C206.707755,0.166825717 206.69202,0.339902531 206.69202,0.519230769 C206.69202,1.19872135 206.920865,1.78204885 207.378563,2.26923077 C207.83626,2.75641269 208.376101,3 208.9981,3 C209.608363,3 210.14527,2.75961779 210.608835,2.27884615 C211.072401,1.79807452 211.30418,1.21154192 211.30418,0.519230769 C211.30418,0.339902531 211.288241,0.166825717 211.256362,1.00042336e-11 L216.438845,1.00044417e-11 C216.407375,0.166825717 216.39164,0.339902531 216.39164,0.519230769 C216.39164,1.19872135 216.620485,1.78204885 217.078183,2.26923077 C217.53588,2.75641269 218.075721,3 218.69772,3 C219.307983,3 219.84489,2.75961779 220.308455,2.27884615 C220.772021,1.79807452 221.0038,1.21154192 221.0038,0.519230769 C221.0038,0.339902531 220.987861,0.166825717 220.955982,1.00042336e-11 L226.138465,1.00044417e-11 C226.106995,0.166825717 226.09126,0.339902531 226.09126,0.519230769 C226.09126,1.19872135 226.320105,1.78204885 226.777803,2.26923077 C227.2355,2.75641269 227.775341,3 228.39734,3 C229.019339,3 229.55918,2.75641269 230.016877,2.26923077 C230.474575,1.78204885 230.70342,1.19872135 230.70342,0.519230769 C230.70342,0.339902531 230.687685,0.166825717 230.656215,1.00042336e-11 L235.838085,1.00044417e-11 C235.806615,0.166825717 235.79088,0.339902531 235.79088,0.519230769 C235.79088,1.19872135 236.019725,1.78204885 236.477423,2.26923077 C236.93512,2.75641269 237.474961,3 238.09696,3 C238.707223,3 239.24413,2.75961779 239.707695,2.27884615 C240.171261,1.79807452 240.40304,1.21154192 240.40304,0.519230769 C240.40304,0.339902531 240.387101,0.166825717 240.355222,1.00223441e-11 L245.537705,1.00044417e-11 C245.506235,0.166825717 245.4905,0.339902531 245.4905,0.519230769 C245.4905,1.19872135 245.719345,1.78204885 246.177043,2.26923077 C246.63474,2.75641269 247.174581,3 247.79658,3 C248.406843,3 248.94375,2.75961779 249.407315,2.27884615 C249.870881,1.79807452 250.10266,1.21154192 250.10266,0.519230769 C250.10266,0.339902531 250.086721,0.166825717 250.054842,1.00120329e-11 L255.237325,1.00044417e-11 C255.205855,0.166825717 255.19012,0.339902531 255.19012,0.519230769 C255.19012,1.19872135 255.418965,1.78204885 255.876663,2.26923077 C256.33436,2.75641269 256.874201,3 257.4962,3 C258.118199,3 258.65804,2.75641269 259.115737,2.26923077 C259.573435,1.78204885 259.80228,1.19872135 259.80228,0.519230769 C259.80228,0.339902531 259.786545,0.166825717 259.755075,1.00042336e-11 L264.936945,1.00044417e-11 C264.905475,0.166825717 264.88974,0.339902531 264.88974,0.519230769 C264.88974,1.19872135 265.118585,1.78204885 265.576283,2.26923077 C266.03398,2.75641269 266.573821,3 267.19582,3 C267.806083,3 268.34299,2.75961779 268.806555,2.27884615 C269.270121,1.79807452 269.5019,1.21154192 269.5019,0.519230769 C269.5019,0.339902531 269.485961,0.166825717 269.454082,9.94844485e-12 L274.636565,1.00044417e-11 C274.605095,0.166825717 274.58936,0.339902531 274.58936,0.519230769 C274.58936,1.19872135 274.818205,1.78204885 275.275903,2.26923077 C275.7336,2.75641269 276.273441,3 276.89544,3 C277.505703,3 278.04261,2.75961779 278.506175,2.27884615 C278.969741,1.79807452 279.20152,1.21154192 279.20152,0.519230769 C279.20152,0.339902531 279.185581,0.166825717 279.153702,1.00044556e-11 L284.336185,1.00044417e-11 C284.304715,0.166825717 284.28898,0.339902531 284.28898,0.519230769 C284.28898,1.19872135 284.517825,1.78204885 284.975523,2.26923077 C285.43322,2.75641269 285.97306,3 286.59506,3 C287.217059,3 287.756899,2.75641269 288.214597,2.26923077 C288.672295,1.78204885 288.90114,1.19872135 288.90114,0.519230769 C288.90114,0.339902531 288.885405,0.166825717 288.853935,1.00042336e-11 L294.035805,1.00044417e-11 C294.004335,0.166825717 293.9886,0.339902531 293.9886,0.519230769 C293.9886,1.19872135 294.217445,1.78204885 294.675143,2.26923077 C295.13284,2.75641269 295.67268,3 296.29468,3 C296.904943,3 297.44185,2.75961779 297.905415,2.27884615 C298.368981,1.79807452 298.60076,1.21154192 298.60076,0.519230769 C298.60076,0.339902531 298.584821,0.166825717 298.552942,1.00044556e-11 L303.735425,1.00044417e-11 C303.703955,0.166825717 303.68822,0.339902531 303.68822,0.519230769 C303.68822,1.19872135 303.917065,1.78204885 304.374762,2.26923077 C304.83246,2.75641269 305.3723,3 305.9943,3 C306.604563,3 307.14147,2.75961779 307.605035,2.27884615 C308.068601,1.79807452 308.30038,1.21154192 308.30038,0.519230769 C308.30038,0.339902531 308.284441,0.166825717 308.252562,1.00042336e-11 L313.435045,1.00044417e-11 C313.403575,0.166825717 313.387839,0.339902531 313.387839,0.519230769 C313.387839,1.19872135 313.616685,1.78204885 314.074382,2.26923077 C314.53208,2.75641269 315.07192,3 315.69392,3 C316.315919,3 316.855759,2.75641269 317.313457,2.26923077 C317.771155,1.78204885 318,1.19872135 318,0.519230769 C318,0.339902531 317.984265,0.166825717 317.952795,1.00044556e-11 L320,1.00044417e-11 L320,4 L0,4 L0,1.00044417e-11 L3.04720534,1.00044417e-11 Z" id="Rectangle-2" fill="#ECF5FA"></path>
    </g>
</svg>