<?xml version="1.0" encoding="UTF-8"?>
<svg width="320px" height="546px" viewBox="0 0 320 546" version="1.1" xmlns="http://www.w3.org/2000/svg" xmlns:xlink="http://www.w3.org/1999/xlink">
    <!-- Generator: Sketch 54.1 (76490) - https://sketchapp.com -->
    <title>hongvan_overlay</title>
    <desc>Created with Sketch.</desc>
    <g id="hongvan_overlay" stroke="none" stroke-width="1" fill="none" fill-rule="evenodd">
        <path d="M4.99990806,-0.000731759581 L314.999908,-0.000731759581 C317.761332,-0.000731759581 319.999908,2.23784449 319.999908,4.99926824 L319.999908,540.999268 C319.999908,543.760692 317.761332,545.999268 314.999908,545.999268 L4.99990806,545.999268 C2.23848431,545.999268 -9.1944495e-05,543.760692 -9.1944495e-05,540.999268 L-9.1944495e-05,4.99926824 C-9.1944495e-05,2.23784449 2.23848431,-0.000731759581 4.99990806,-0.000731759581 Z M24.9986208,42.2180069 C22.2371971,42.2180069 19.9986208,44.4565832 19.9986208,47.2180069 L19.9986208,512.999268 C19.9986208,515.760692 22.2371971,517.999268 24.9986208,517.999268 L294.999908,517.999268 C297.761332,517.999268 299.999908,515.760692 299.999908,512.999268 L299.999908,47.2180069 C299.999908,44.4565832 297.761332,42.2180069 294.999908,42.2180069 L24.9986208,42.2180069 Z" id="Rectangle-3" fill="#E1F5FE"></path>
        <path d="M30.2333984,544.254883 C30.2333984,544.49642 30.1445321,544.703775 29.9667969,544.876953 C29.7890616,545.050131 29.5794283,545.136719 29.3378906,545.136719 C29.096353,545.136719 28.8867196,545.050131 28.7089844,544.876953 C28.5312491,544.703775 28.4423828,544.49642 28.4423828,544.254883 C28.4423828,544.013345 28.5301098,543.803712 28.7055664,543.625977 C28.881023,543.448241 29.0917956,543.359375 29.3378906,543.359375 C29.5839856,543.359375 29.7947582,543.448241 29.9702148,543.625977 C30.1456715,543.803712 30.2333984,544.013345 30.2333984,544.254883 Z M26.4667969,544.254883 C26.4667969,544.500978 26.3767913,544.709472 26.1967773,544.880371 C26.0167634,545.05127 25.8082694,545.136719 25.5712891,545.136719 C25.3297514,545.136719 25.1201181,545.050131 24.9423828,544.876953 C24.7646475,544.703775 24.6757812,544.49642 24.6757812,544.254883 C24.6757812,544.013345 24.7635082,543.803712 24.9389648,543.625977 C25.1144215,543.448241 25.3251941,543.359375 25.5712891,543.359375 C25.8128267,543.359375 26.02246,543.448241 26.2001953,543.625977 C26.3779306,543.803712 26.4667969,544.013345 26.4667969,544.254883 Z M22.7001953,544.254883 C22.7001953,544.500978 22.6101897,544.709472 22.4301758,544.880371 C22.2501619,545.05127 22.0416679,545.136719 21.8046875,545.136719 C21.5631498,545.136719 21.3535165,545.050131 21.1757812,544.876953 C20.998046,544.703775 20.9091797,544.49642 20.9091797,544.254883 C20.9091797,544.013345 20.9969067,543.803712 21.1723633,543.625977 C21.3478199,543.448241 21.5585925,543.359375 21.8046875,543.359375 C22.0462252,543.359375 22.2558585,543.448241 22.4335938,543.625977 C22.611329,543.803712 22.7001953,544.013345 22.7001953,544.254883 Z M41.5332031,544.254883 C41.5332031,544.49642 41.4443368,544.703775 41.2666016,544.876953 C41.0888663,545.050131 40.879233,545.136719 40.6376953,545.136719 C40.3961576,545.136719 40.1865243,545.050131 40.0087891,544.876953 C39.8310538,544.703775 39.7421875,544.49642 39.7421875,544.254883 C39.7421875,544.013345 39.8299145,543.803712 40.0053711,543.625977 C40.1808277,543.448241 40.3916003,543.359375 40.6376953,543.359375 C40.8837903,543.359375 41.0945629,543.448241 41.2700195,543.625977 C41.4454761,543.803712 41.5332031,544.013345 41.5332031,544.254883 Z M37.7666016,544.254883 C37.7666016,544.500978 37.676596,544.709472 37.496582,544.880371 C37.3165681,545.05127 37.1080741,545.136719 36.8710938,545.136719 C36.6295561,545.136719 36.4199228,545.050131 36.2421875,544.876953 C36.0644522,544.703775 35.9755859,544.49642 35.9755859,544.254883 C35.9755859,544.013345 36.0633129,543.803712 36.2387695,543.625977 C36.4142261,543.448241 36.6249988,543.359375 36.8710938,543.359375 C37.1126314,543.359375 37.3222647,543.448241 37.5,543.625977 C37.6777353,543.803712 37.7666016,544.013345 37.7666016,544.254883 Z M34,544.254883 C34,544.500978 33.9099944,544.709472 33.7299805,544.880371 C33.5499665,545.05127 33.3414725,545.136719 33.1044922,545.136719 C32.8629545,545.136719 32.6533212,545.050131 32.4755859,544.876953 C32.2978507,544.703775 32.2089844,544.49642 32.2089844,544.254883 C32.2089844,544.013345 32.2967114,543.803712 32.472168,543.625977 C32.6476246,543.448241 32.8583972,543.359375 33.1044922,543.359375 C33.3460299,543.359375 33.5556632,543.448241 33.7333984,543.625977 C33.9111337,543.803712 34,544.013345 34,544.254883 Z M52.8330078,544.254883 C52.8330078,544.49642 52.7441415,544.703775 52.5664062,544.876953 C52.388671,545.050131 52.1790377,545.136719 51.9375,545.136719 C51.6959623,545.136719 51.486329,545.050131 51.3085938,544.876953 C51.1308585,544.703775 51.0419922,544.49642 51.0419922,544.254883 C51.0419922,544.013345 51.1297192,543.803712 51.3051758,543.625977 C51.4806324,543.448241 51.691405,543.359375 51.9375,543.359375 C52.183595,543.359375 52.3943676,543.448241 52.5698242,543.625977 C52.7452808,543.803712 52.8330078,544.013345 52.8330078,544.254883 Z M49.0664062,544.254883 C49.0664062,544.500978 48.9764006,544.709472 48.7963867,544.880371 C48.6163728,545.05127 48.4078788,545.136719 48.1708984,545.136719 C47.9293608,545.136719 47.7197275,545.050131 47.5419922,544.876953 C47.3642569,544.703775 47.2753906,544.49642 47.2753906,544.254883 C47.2753906,544.013345 47.3631176,543.803712 47.5385742,543.625977 C47.7140308,543.448241 47.9248035,543.359375 48.1708984,543.359375 C48.4124361,543.359375 48.6220694,543.448241 48.7998047,543.625977 C48.97754,543.803712 49.0664062,544.013345 49.0664062,544.254883 Z M45.2998047,544.254883 C45.2998047,544.500978 45.2097991,544.709472 45.0297852,544.880371 C44.8497712,545.05127 44.6412772,545.136719 44.4042969,545.136719 C44.1627592,545.136719 43.9531259,545.050131 43.7753906,544.876953 C43.5976554,544.703775 43.5087891,544.49642 43.5087891,544.254883 C43.5087891,544.013345 43.596516,543.803712 43.7719727,543.625977 C43.9474293,543.448241 44.1582019,543.359375 44.4042969,543.359375 C44.6458345,543.359375 44.8554679,543.448241 45.0332031,543.625977 C45.2109384,543.803712 45.2998047,544.013345 45.2998047,544.254883 Z M64.1328125,544.254883 C64.1328125,544.49642 64.0439462,544.703775 63.8662109,544.876953 C63.6884757,545.050131 63.4788424,545.136719 63.2373047,545.136719 C62.995767,545.136719 62.7861337,545.050131 62.6083984,544.876953 C62.4306632,544.703775 62.3417969,544.49642 62.3417969,544.254883 C62.3417969,544.013345 62.4295239,543.803712 62.6049805,543.625977 C62.7804371,543.448241 62.9912097,543.359375 63.2373047,543.359375 C63.4833997,543.359375 63.6941723,543.448241 63.8696289,543.625977 C64.0450855,543.803712 64.1328125,544.013345 64.1328125,544.254883 Z M60.3662109,544.254883 C60.3662109,544.500978 60.2762053,544.709472 60.0961914,544.880371 C59.9161775,545.05127 59.7076835,545.136719 59.4707031,545.136719 C59.2291655,545.136719 59.0195321,545.050131 58.8417969,544.876953 C58.6640616,544.703775 58.5751953,544.49642 58.5751953,544.254883 C58.5751953,544.013345 58.6629223,543.803712 58.8383789,543.625977 C59.0138355,543.448241 59.2246081,543.359375 59.4707031,543.359375 C59.7122408,543.359375 59.9218741,543.448241 60.0996094,543.625977 C60.2773446,543.803712 60.3662109,544.013345 60.3662109,544.254883 Z M56.5996094,544.254883 C56.5996094,544.500978 56.5096038,544.709472 56.3295898,544.880371 C56.1495759,545.05127 55.9410819,545.136719 55.7041016,545.136719 C55.4625639,545.136719 55.2529306,545.050131 55.0751953,544.876953 C54.89746,544.703775 54.8085938,544.49642 54.8085938,544.254883 C54.8085938,544.013345 54.8963207,543.803712 55.0717773,543.625977 C55.247234,543.448241 55.4580066,543.359375 55.7041016,543.359375 C55.9456392,543.359375 56.1552725,543.448241 56.3330078,543.625977 C56.5107431,543.803712 56.5996094,544.013345 56.5996094,544.254883 Z M75.4326172,544.254883 C75.4326172,544.49642 75.3437509,544.703775 75.1660156,544.876953 C74.9882804,545.050131 74.778647,545.136719 74.5371094,545.136719 C74.2955717,545.136719 74.0859384,545.050131 73.9082031,544.876953 C73.7304679,544.703775 73.6416016,544.49642 73.6416016,544.254883 C73.6416016,544.013345 73.7293285,543.803712 73.9047852,543.625977 C74.0802418,543.448241 74.2910144,543.359375 74.5371094,543.359375 C74.7832044,543.359375 74.993977,543.448241 75.1694336,543.625977 C75.3448902,543.803712 75.4326172,544.013345 75.4326172,544.254883 Z M71.6660156,544.254883 C71.6660156,544.500978 71.57601,544.709472 71.3959961,544.880371 C71.2159822,545.05127 71.0074882,545.136719 70.7705078,545.136719 C70.5289701,545.136719 70.3193368,545.050131 70.1416016,544.876953 C69.9638663,544.703775 69.875,544.49642 69.875,544.254883 C69.875,544.013345 69.962727,543.803712 70.1381836,543.625977 C70.3136402,543.448241 70.5244128,543.359375 70.7705078,543.359375 C71.0120455,543.359375 71.2216788,543.448241 71.3994141,543.625977 C71.5771493,543.803712 71.6660156,544.013345 71.6660156,544.254883 Z M67.8994141,544.254883 C67.8994141,544.500978 67.8094085,544.709472 67.6293945,544.880371 C67.4493806,545.05127 67.2408866,545.136719 67.0039062,545.136719 C66.7623686,545.136719 66.5527353,545.050131 66.375,544.876953 C66.1972647,544.703775 66.1083984,544.49642 66.1083984,544.254883 C66.1083984,544.013345 66.1961254,543.803712 66.371582,543.625977 C66.5470386,543.448241 66.7578113,543.359375 67.0039062,543.359375 C67.2454439,543.359375 67.4550772,543.448241 67.6328125,543.625977 C67.8105478,543.803712 67.8994141,544.013345 67.8994141,544.254883 Z M86.7324219,544.254883 C86.7324219,544.49642 86.6435556,544.703775 86.4658203,544.876953 C86.288085,545.050131 86.0784517,545.136719 85.8369141,545.136719 C85.5953764,545.136719 85.3857431,545.050131 85.2080078,544.876953 C85.0302725,544.703775 84.9414062,544.49642 84.9414062,544.254883 C84.9414062,544.013345 85.0291332,543.803712 85.2045898,543.625977 C85.3800465,543.448241 85.5908191,543.359375 85.8369141,543.359375 C86.083009,543.359375 86.2937817,543.448241 86.4692383,543.625977 C86.6446949,543.803712 86.7324219,544.013345 86.7324219,544.254883 Z M82.9658203,544.254883 C82.9658203,544.500978 82.8758147,544.709472 82.6958008,544.880371 C82.5157869,545.05127 82.3072929,545.136719 82.0703125,545.136719 C81.8287748,545.136719 81.6191415,545.050131 81.4414062,544.876953 C81.263671,544.703775 81.1748047,544.49642 81.1748047,544.254883 C81.1748047,544.013345 81.2625317,543.803712 81.4379883,543.625977 C81.6134449,543.448241 81.8242175,543.359375 82.0703125,543.359375 C82.3118502,543.359375 82.5214835,543.448241 82.6992188,543.625977 C82.876954,543.803712 82.9658203,544.013345 82.9658203,544.254883 Z M79.1992188,544.254883 C79.1992188,544.500978 79.1092131,544.709472 78.9291992,544.880371 C78.7491853,545.05127 78.5406913,545.136719 78.3037109,545.136719 C78.0621733,545.136719 77.85254,545.050131 77.6748047,544.876953 C77.4970694,544.703775 77.4082031,544.49642 77.4082031,544.254883 C77.4082031,544.013345 77.4959301,543.803712 77.6713867,543.625977 C77.8468433,543.448241 78.057616,543.359375 78.3037109,543.359375 C78.5452486,543.359375 78.7548819,543.448241 78.9326172,543.625977 C79.1103525,543.803712 79.1992188,544.013345 79.1992188,544.254883 Z M98.0322266,544.254883 C98.0322266,544.49642 97.9433603,544.703775 97.765625,544.876953 C97.5878897,545.050131 97.3782564,545.136719 97.1367188,545.136719 C96.8951811,545.136719 96.6855478,545.050131 96.5078125,544.876953 C96.3300772,544.703775 96.2412109,544.49642 96.2412109,544.254883 C96.2412109,544.013345 96.3289379,543.803712 96.5043945,543.625977 C96.6798511,543.448241 96.8906238,543.359375 97.1367188,543.359375 C97.3828137,543.359375 97.5935864,543.448241 97.769043,543.625977 C97.9444996,543.803712 98.0322266,544.013345 98.0322266,544.254883 Z M94.265625,544.254883 C94.265625,544.500978 94.1756194,544.709472 93.9956055,544.880371 C93.8155915,545.05127 93.6070975,545.136719 93.3701172,545.136719 C93.1285795,545.136719 92.9189462,545.050131 92.7412109,544.876953 C92.5634757,544.703775 92.4746094,544.49642 92.4746094,544.254883 C92.4746094,544.013345 92.5623364,543.803712 92.737793,543.625977 C92.9132496,543.448241 93.1240222,543.359375 93.3701172,543.359375 C93.6116549,543.359375 93.8212882,543.448241 93.9990234,543.625977 C94.1767587,543.803712 94.265625,544.013345 94.265625,544.254883 Z M90.4990234,544.254883 C90.4990234,544.500978 90.4090178,544.709472 90.2290039,544.880371 C90.04899,545.05127 89.840496,545.136719 89.6035156,545.136719 C89.361978,545.136719 89.1523446,545.050131 88.9746094,544.876953 C88.7968741,544.703775 88.7080078,544.49642 88.7080078,544.254883 C88.7080078,544.013345 88.7957348,543.803712 88.9711914,543.625977 C89.146648,543.448241 89.3574206,543.359375 89.6035156,543.359375 C89.8450533,543.359375 90.0546866,543.448241 90.2324219,543.625977 C90.4101571,543.803712 90.4990234,544.013345 90.4990234,544.254883 Z M109.332031,544.254883 C109.332031,544.49642 109.243165,544.703775 109.06543,544.876953 C108.887694,545.050131 108.678061,545.136719 108.436523,545.136719 C108.194986,545.136719 107.985352,545.050131 107.807617,544.876953 C107.629882,544.703775 107.541016,544.49642 107.541016,544.254883 C107.541016,544.013345 107.628743,543.803712 107.804199,543.625977 C107.979656,543.448241 108.190428,543.359375 108.436523,543.359375 C108.682618,543.359375 108.893391,543.448241 109.068848,543.625977 C109.244304,543.803712 109.332031,544.013345 109.332031,544.254883 Z M105.56543,544.254883 C105.56543,544.500978 105.475424,544.709472 105.29541,544.880371 C105.115396,545.05127 104.906902,545.136719 104.669922,545.136719 C104.428384,545.136719 104.218751,545.050131 104.041016,544.876953 C103.86328,544.703775 103.774414,544.49642 103.774414,544.254883 C103.774414,544.013345 103.862141,543.803712 104.037598,543.625977 C104.213054,543.448241 104.423827,543.359375 104.669922,543.359375 C104.91146,543.359375 105.121093,543.448241 105.298828,543.625977 C105.476563,543.803712 105.56543,544.013345 105.56543,544.254883 Z M101.798828,544.254883 C101.798828,544.500978 101.708823,544.709472 101.528809,544.880371 C101.348795,545.05127 101.140301,545.136719 100.90332,545.136719 C100.661783,545.136719 100.452149,545.050131 100.274414,544.876953 C100.096679,544.703775 100.007812,544.49642 100.007812,544.254883 C100.007812,544.013345 100.095539,543.803712 100.270996,543.625977 C100.446453,543.448241 100.657225,543.359375 100.90332,543.359375 C101.144858,543.359375 101.354491,543.448241 101.532227,543.625977 C101.709962,543.803712 101.798828,544.013345 101.798828,544.254883 Z M120.631836,544.254883 C120.631836,544.49642 120.54297,544.703775 120.365234,544.876953 C120.187499,545.050131 119.977866,545.136719 119.736328,545.136719 C119.49479,545.136719 119.285157,545.050131 119.107422,544.876953 C118.929687,544.703775 118.84082,544.49642 118.84082,544.254883 C118.84082,544.013345 118.928547,543.803712 119.104004,543.625977 C119.279461,543.448241 119.490233,543.359375 119.736328,543.359375 C119.982423,543.359375 120.193196,543.448241 120.368652,543.625977 C120.544109,543.803712 120.631836,544.013345 120.631836,544.254883 Z M116.865234,544.254883 C116.865234,544.500978 116.775229,544.709472 116.595215,544.880371 C116.415201,545.05127 116.206707,545.136719 115.969727,545.136719 C115.728189,545.136719 115.518556,545.050131 115.34082,544.876953 C115.163085,544.703775 115.074219,544.49642 115.074219,544.254883 C115.074219,544.013345 115.161946,543.803712 115.337402,543.625977 C115.512859,543.448241 115.723632,543.359375 115.969727,543.359375 C116.211264,543.359375 116.420898,543.448241 116.598633,543.625977 C116.776368,543.803712 116.865234,544.013345 116.865234,544.254883 Z M113.098633,544.254883 C113.098633,544.500978 113.008627,544.709472 112.828613,544.880371 C112.648599,545.05127 112.440105,545.136719 112.203125,545.136719 C111.961587,545.136719 111.751954,545.050131 111.574219,544.876953 C111.396483,544.703775 111.307617,544.49642 111.307617,544.254883 C111.307617,544.013345 111.395344,543.803712 111.570801,543.625977 C111.746257,543.448241 111.95703,543.359375 112.203125,543.359375 C112.444663,543.359375 112.654296,543.448241 112.832031,543.625977 C113.009767,543.803712 113.098633,544.013345 113.098633,544.254883 Z M131.931641,544.254883 C131.931641,544.49642 131.842774,544.703775 131.665039,544.876953 C131.487304,545.050131 131.27767,545.136719 131.036133,545.136719 C130.794595,545.136719 130.584962,545.050131 130.407227,544.876953 C130.229491,544.703775 130.140625,544.49642 130.140625,544.254883 C130.140625,544.013345 130.228352,543.803712 130.403809,543.625977 C130.579265,543.448241 130.790038,543.359375 131.036133,543.359375 C131.282228,543.359375 131.493,543.448241 131.668457,543.625977 C131.843914,543.803712 131.931641,544.013345 131.931641,544.254883 Z M128.165039,544.254883 C128.165039,544.500978 128.075033,544.709472 127.89502,544.880371 C127.715006,545.05127 127.506512,545.136719 127.269531,545.136719 C127.027994,545.136719 126.81836,545.050131 126.640625,544.876953 C126.46289,544.703775 126.374023,544.49642 126.374023,544.254883 C126.374023,544.013345 126.46175,543.803712 126.637207,543.625977 C126.812664,543.448241 127.023436,543.359375 127.269531,543.359375 C127.511069,543.359375 127.720702,543.448241 127.898438,543.625977 C128.076173,543.803712 128.165039,544.013345 128.165039,544.254883 Z M124.398438,544.254883 C124.398438,544.500978 124.308432,544.709472 124.128418,544.880371 C123.948404,545.05127 123.73991,545.136719 123.50293,545.136719 C123.261392,545.136719 123.051759,545.050131 122.874023,544.876953 C122.696288,544.703775 122.607422,544.49642 122.607422,544.254883 C122.607422,544.013345 122.695149,543.803712 122.870605,543.625977 C123.046062,543.448241 123.256835,543.359375 123.50293,543.359375 C123.744467,543.359375 123.954101,543.448241 124.131836,543.625977 C124.309571,543.803712 124.398438,544.013345 124.398438,544.254883 Z M143.231445,544.254883 C143.231445,544.49642 143.142579,544.703775 142.964844,544.876953 C142.787108,545.050131 142.577475,545.136719 142.335938,545.136719 C142.0944,545.136719 141.884767,545.050131 141.707031,544.876953 C141.529296,544.703775 141.44043,544.49642 141.44043,544.254883 C141.44043,544.013345 141.528157,543.803712 141.703613,543.625977 C141.87907,543.448241 142.089843,543.359375 142.335938,543.359375 C142.582032,543.359375 142.792805,543.448241 142.968262,543.625977 C143.143718,543.803712 143.231445,544.013345 143.231445,544.254883 Z M139.464844,544.254883 C139.464844,544.500978 139.374838,544.709472 139.194824,544.880371 C139.01481,545.05127 138.806316,545.136719 138.569336,545.136719 C138.327798,545.136719 138.118165,545.050131 137.94043,544.876953 C137.762694,544.703775 137.673828,544.49642 137.673828,544.254883 C137.673828,544.013345 137.761555,543.803712 137.937012,543.625977 C138.112468,543.448241 138.323241,543.359375 138.569336,543.359375 C138.810874,543.359375 139.020507,543.448241 139.198242,543.625977 C139.375977,543.803712 139.464844,544.013345 139.464844,544.254883 Z M135.698242,544.254883 C135.698242,544.500978 135.608237,544.709472 135.428223,544.880371 C135.248209,545.05127 135.039715,545.136719 134.802734,545.136719 C134.561197,545.136719 134.351563,545.050131 134.173828,544.876953 C133.996093,544.703775 133.907227,544.49642 133.907227,544.254883 C133.907227,544.013345 133.994954,543.803712 134.17041,543.625977 C134.345867,543.448241 134.556639,543.359375 134.802734,543.359375 C135.044272,543.359375 135.253905,543.448241 135.431641,543.625977 C135.609376,543.803712 135.698242,544.013345 135.698242,544.254883 Z M154.53125,544.254883 C154.53125,544.49642 154.442384,544.703775 154.264648,544.876953 C154.086913,545.050131 153.87728,545.136719 153.635742,545.136719 C153.394205,545.136719 153.184571,545.050131 153.006836,544.876953 C152.829101,544.703775 152.740234,544.49642 152.740234,544.254883 C152.740234,544.013345 152.827961,543.803712 153.003418,543.625977 C153.178875,543.448241 153.389647,543.359375 153.635742,543.359375 C153.881837,543.359375 154.09261,543.448241 154.268066,543.625977 C154.443523,543.803712 154.53125,544.013345 154.53125,544.254883 Z M150.764648,544.254883 C150.764648,544.500978 150.674643,544.709472 150.494629,544.880371 C150.314615,545.05127 150.106121,545.136719 149.869141,545.136719 C149.627603,545.136719 149.41797,545.050131 149.240234,544.876953 C149.062499,544.703775 148.973633,544.49642 148.973633,544.254883 C148.973633,544.013345 149.06136,543.803712 149.236816,543.625977 C149.412273,543.448241 149.623046,543.359375 149.869141,543.359375 C150.110678,543.359375 150.320312,543.448241 150.498047,543.625977 C150.675782,543.803712 150.764648,544.013345 150.764648,544.254883 Z M146.998047,544.254883 C146.998047,544.500978 146.908041,544.709472 146.728027,544.880371 C146.548013,545.05127 146.339519,545.136719 146.102539,545.136719 C145.861001,545.136719 145.651368,545.050131 145.473633,544.876953 C145.295898,544.703775 145.207031,544.49642 145.207031,544.254883 C145.207031,544.013345 145.294758,543.803712 145.470215,543.625977 C145.645671,543.448241 145.856444,543.359375 146.102539,543.359375 C146.344077,543.359375 146.55371,543.448241 146.731445,543.625977 C146.909181,543.803712 146.998047,544.013345 146.998047,544.254883 Z M165.831055,544.254883 C165.831055,544.49642 165.742188,544.703775 165.564453,544.876953 C165.386718,545.050131 165.177085,545.136719 164.935547,545.136719 C164.694009,545.136719 164.484376,545.050131 164.306641,544.876953 C164.128905,544.703775 164.040039,544.49642 164.040039,544.254883 C164.040039,544.013345 164.127766,543.803712 164.303223,543.625977 C164.478679,543.448241 164.689452,543.359375 164.935547,543.359375 C165.181642,543.359375 165.392414,543.448241 165.567871,543.625977 C165.743328,543.803712 165.831055,544.013345 165.831055,544.254883 Z M162.064453,544.254883 C162.064453,544.500978 161.974448,544.709472 161.794434,544.880371 C161.61442,545.05127 161.405926,545.136719 161.168945,545.136719 C160.927408,545.136719 160.717774,545.050131 160.540039,544.876953 C160.362304,544.703775 160.273438,544.49642 160.273438,544.254883 C160.273438,544.013345 160.361164,543.803712 160.536621,543.625977 C160.712078,543.448241 160.92285,543.359375 161.168945,543.359375 C161.410483,543.359375 161.620116,543.448241 161.797852,543.625977 C161.975587,543.803712 162.064453,544.013345 162.064453,544.254883 Z M158.297852,544.254883 C158.297852,544.500978 158.207846,544.709472 158.027832,544.880371 C157.847818,545.05127 157.639324,545.136719 157.402344,545.136719 C157.160806,545.136719 156.951173,545.050131 156.773438,544.876953 C156.595702,544.703775 156.506836,544.49642 156.506836,544.254883 C156.506836,544.013345 156.594563,543.803712 156.77002,543.625977 C156.945476,543.448241 157.156249,543.359375 157.402344,543.359375 C157.643881,543.359375 157.853515,543.448241 158.03125,543.625977 C158.208985,543.803712 158.297852,544.013345 158.297852,544.254883 Z M177.130859,544.254883 C177.130859,544.49642 177.041993,544.703775 176.864258,544.876953 C176.686523,545.050131 176.476889,545.136719 176.235352,545.136719 C175.993814,545.136719 175.784181,545.050131 175.606445,544.876953 C175.42871,544.703775 175.339844,544.49642 175.339844,544.254883 C175.339844,544.013345 175.427571,543.803712 175.603027,543.625977 C175.778484,543.448241 175.989257,543.359375 176.235352,543.359375 C176.481447,543.359375 176.692219,543.448241 176.867676,543.625977 C177.043132,543.803712 177.130859,544.013345 177.130859,544.254883 Z M173.364258,544.254883 C173.364258,544.500978 173.274252,544.709472 173.094238,544.880371 C172.914224,545.05127 172.70573,545.136719 172.46875,545.136719 C172.227212,545.136719 172.017579,545.050131 171.839844,544.876953 C171.662108,544.703775 171.573242,544.49642 171.573242,544.254883 C171.573242,544.013345 171.660969,543.803712 171.836426,543.625977 C172.011882,543.448241 172.222655,543.359375 172.46875,543.359375 C172.710288,543.359375 172.919921,543.448241 173.097656,543.625977 C173.275392,543.803712 173.364258,544.013345 173.364258,544.254883 Z M169.597656,544.254883 C169.597656,544.500978 169.507651,544.709472 169.327637,544.880371 C169.147623,545.05127 168.939129,545.136719 168.702148,545.136719 C168.460611,545.136719 168.250977,545.050131 168.073242,544.876953 C167.895507,544.703775 167.806641,544.49642 167.806641,544.254883 C167.806641,544.013345 167.894368,543.803712 168.069824,543.625977 C168.245281,543.448241 168.456053,543.359375 168.702148,543.359375 C168.943686,543.359375 169.153319,543.448241 169.331055,543.625977 C169.50879,543.803712 169.597656,544.013345 169.597656,544.254883 Z M188.430664,544.254883 C188.430664,544.49642 188.341798,544.703775 188.164062,544.876953 C187.986327,545.050131 187.776694,545.136719 187.535156,545.136719 C187.293619,545.136719 187.083985,545.050131 186.90625,544.876953 C186.728515,544.703775 186.639648,544.49642 186.639648,544.254883 C186.639648,544.013345 186.727375,543.803712 186.902832,543.625977 C187.078289,543.448241 187.289061,543.359375 187.535156,543.359375 C187.781251,543.359375 187.992024,543.448241 188.16748,543.625977 C188.342937,543.803712 188.430664,544.013345 188.430664,544.254883 Z M184.664062,544.254883 C184.664062,544.500978 184.574057,544.709472 184.394043,544.880371 C184.214029,545.05127 184.005535,545.136719 183.768555,545.136719 C183.527017,545.136719 183.317384,545.050131 183.139648,544.876953 C182.961913,544.703775 182.873047,544.49642 182.873047,544.254883 C182.873047,544.013345 182.960774,543.803712 183.13623,543.625977 C183.311687,543.448241 183.52246,543.359375 183.768555,543.359375 C184.010092,543.359375 184.219726,543.448241 184.397461,543.625977 C184.575196,543.803712 184.664062,544.013345 184.664062,544.254883 Z M180.897461,544.254883 C180.897461,544.500978 180.807455,544.709472 180.627441,544.880371 C180.447427,545.05127 180.238933,545.136719 180.001953,545.136719 C179.760415,545.136719 179.550782,545.050131 179.373047,544.876953 C179.195312,544.703775 179.106445,544.49642 179.106445,544.254883 C179.106445,544.013345 179.194172,543.803712 179.369629,543.625977 C179.545086,543.448241 179.755858,543.359375 180.001953,543.359375 C180.243491,543.359375 180.453124,543.448241 180.630859,543.625977 C180.808595,543.803712 180.897461,544.013345 180.897461,544.254883 Z M199.730469,544.254883 C199.730469,544.49642 199.641602,544.703775 199.463867,544.876953 C199.286132,545.050131 199.076499,545.136719 198.834961,545.136719 C198.593423,545.136719 198.38379,545.050131 198.206055,544.876953 C198.028319,544.703775 197.939453,544.49642 197.939453,544.254883 C197.939453,544.013345 198.02718,543.803712 198.202637,543.625977 C198.378093,543.448241 198.588866,543.359375 198.834961,543.359375 C199.081056,543.359375 199.291829,543.448241 199.467285,543.625977 C199.642742,543.803712 199.730469,544.013345 199.730469,544.254883 Z M195.963867,544.254883 C195.963867,544.500978 195.873862,544.709472 195.693848,544.880371 C195.513834,545.05127 195.30534,545.136719 195.068359,545.136719 C194.826822,545.136719 194.617188,545.050131 194.439453,544.876953 C194.261718,544.703775 194.172852,544.49642 194.172852,544.254883 C194.172852,544.013345 194.260579,543.803712 194.436035,543.625977 C194.611492,543.448241 194.822264,543.359375 195.068359,543.359375 C195.309897,543.359375 195.51953,543.448241 195.697266,543.625977 C195.875001,543.803712 195.963867,544.013345 195.963867,544.254883 Z M192.197266,544.254883 C192.197266,544.500978 192.10726,544.709472 191.927246,544.880371 C191.747232,545.05127 191.538738,545.136719 191.301758,545.136719 C191.06022,545.136719 190.850587,545.050131 190.672852,544.876953 C190.495116,544.703775 190.40625,544.49642 190.40625,544.254883 C190.40625,544.013345 190.493977,543.803712 190.669434,543.625977 C190.84489,543.448241 191.055663,543.359375 191.301758,543.359375 C191.543295,543.359375 191.752929,543.448241 191.930664,543.625977 C192.108399,543.803712 192.197266,544.013345 192.197266,544.254883 Z M211.030273,544.254883 C211.030273,544.49642 210.941407,544.703775 210.763672,544.876953 C210.585937,545.050131 210.376303,545.136719 210.134766,545.136719 C209.893228,545.136719 209.683595,545.050131 209.505859,544.876953 C209.328124,544.703775 209.239258,544.49642 209.239258,544.254883 C209.239258,544.013345 209.326985,543.803712 209.502441,543.625977 C209.677898,543.448241 209.888671,543.359375 210.134766,543.359375 C210.380861,543.359375 210.591633,543.448241 210.76709,543.625977 C210.942546,543.803712 211.030273,544.013345 211.030273,544.254883 Z M207.263672,544.254883 C207.263672,544.500978 207.173666,544.709472 206.993652,544.880371 C206.813638,545.05127 206.605144,545.136719 206.368164,545.136719 C206.126626,545.136719 205.916993,545.050131 205.739258,544.876953 C205.561523,544.703775 205.472656,544.49642 205.472656,544.254883 C205.472656,544.013345 205.560383,543.803712 205.73584,543.625977 C205.911296,543.448241 206.122069,543.359375 206.368164,543.359375 C206.609702,543.359375 206.819335,543.448241 206.99707,543.625977 C207.174806,543.803712 207.263672,544.013345 207.263672,544.254883 Z M203.49707,544.254883 C203.49707,544.500978 203.407065,544.709472 203.227051,544.880371 C203.047037,545.05127 202.838543,545.136719 202.601562,545.136719 C202.360025,545.136719 202.150392,545.050131 201.972656,544.876953 C201.794921,544.703775 201.706055,544.49642 201.706055,544.254883 C201.706055,544.013345 201.793782,543.803712 201.969238,543.625977 C202.144695,543.448241 202.355468,543.359375 202.601562,543.359375 C202.8431,543.359375 203.052733,543.448241 203.230469,543.625977 C203.408204,543.803712 203.49707,544.013345 203.49707,544.254883 Z M222.330078,544.254883 C222.330078,544.49642 222.241212,544.703775 222.063477,544.876953 C221.885741,545.050131 221.676108,545.136719 221.43457,545.136719 C221.193033,545.136719 220.983399,545.050131 220.805664,544.876953 C220.627929,544.703775 220.539062,544.49642 220.539062,544.254883 C220.539062,544.013345 220.626789,543.803712 220.802246,543.625977 C220.977703,543.448241 221.188475,543.359375 221.43457,543.359375 C221.680665,543.359375 221.891438,543.448241 222.066895,543.625977 C222.242351,543.803712 222.330078,544.013345 222.330078,544.254883 Z M218.563477,544.254883 C218.563477,544.500978 218.473471,544.709472 218.293457,544.880371 C218.113443,545.05127 217.904949,545.136719 217.667969,545.136719 C217.426431,545.136719 217.216798,545.050131 217.039062,544.876953 C216.861327,544.703775 216.772461,544.49642 216.772461,544.254883 C216.772461,544.013345 216.860188,543.803712 217.035645,543.625977 C217.211101,543.448241 217.421874,543.359375 217.667969,543.359375 C217.909506,543.359375 218.11914,543.448241 218.296875,543.625977 C218.47461,543.803712 218.563477,544.013345 218.563477,544.254883 Z M214.796875,544.254883 C214.796875,544.500978 214.706869,544.709472 214.526855,544.880371 C214.346842,545.05127 214.138348,545.136719 213.901367,545.136719 C213.65983,545.136719 213.450196,545.050131 213.272461,544.876953 C213.094726,544.703775 213.005859,544.49642 213.005859,544.254883 C213.005859,544.013345 213.093586,543.803712 213.269043,543.625977 C213.4445,543.448241 213.655272,543.359375 213.901367,543.359375 C214.142905,543.359375 214.352538,543.448241 214.530273,543.625977 C214.708009,543.803712 214.796875,544.013345 214.796875,544.254883 Z M233.629883,544.254883 C233.629883,544.49642 233.541017,544.703775 233.363281,544.876953 C233.185546,545.050131 232.975913,545.136719 232.734375,545.136719 C232.492837,545.136719 232.283204,545.050131 232.105469,544.876953 C231.927733,544.703775 231.838867,544.49642 231.838867,544.254883 C231.838867,544.013345 231.926594,543.803712 232.102051,543.625977 C232.277507,543.448241 232.48828,543.359375 232.734375,543.359375 C232.98047,543.359375 233.191243,543.448241 233.366699,543.625977 C233.542156,543.803712 233.629883,544.013345 233.629883,544.254883 Z M229.863281,544.254883 C229.863281,544.500978 229.773276,544.709472 229.593262,544.880371 C229.413248,545.05127 229.204754,545.136719 228.967773,545.136719 C228.726236,545.136719 228.516602,545.050131 228.338867,544.876953 C228.161132,544.703775 228.072266,544.49642 228.072266,544.254883 C228.072266,544.013345 228.159993,543.803712 228.335449,543.625977 C228.510906,543.448241 228.721678,543.359375 228.967773,543.359375 C229.209311,543.359375 229.418944,543.448241 229.59668,543.625977 C229.774415,543.803712 229.863281,544.013345 229.863281,544.254883 Z M226.09668,544.254883 C226.09668,544.500978 226.006674,544.709472 225.82666,544.880371 C225.646646,545.05127 225.438152,545.136719 225.201172,545.136719 C224.959634,545.136719 224.750001,545.050131 224.572266,544.876953 C224.39453,544.703775 224.305664,544.49642 224.305664,544.254883 C224.305664,544.013345 224.393391,543.803712 224.568848,543.625977 C224.744304,543.448241 224.955077,543.359375 225.201172,543.359375 C225.44271,543.359375 225.652343,543.448241 225.830078,543.625977 C226.007813,543.803712 226.09668,544.013345 226.09668,544.254883 Z M244.929688,544.254883 C244.929688,544.49642 244.840821,544.703775 244.663086,544.876953 C244.485351,545.050131 244.275717,545.136719 244.03418,545.136719 C243.792642,545.136719 243.583009,545.050131 243.405273,544.876953 C243.227538,544.703775 243.138672,544.49642 243.138672,544.254883 C243.138672,544.013345 243.226399,543.803712 243.401855,543.625977 C243.577312,543.448241 243.788085,543.359375 244.03418,543.359375 C244.280275,543.359375 244.491047,543.448241 244.666504,543.625977 C244.841961,543.803712 244.929688,544.013345 244.929688,544.254883 Z M241.163086,544.254883 C241.163086,544.500978 241.07308,544.709472 240.893066,544.880371 C240.713052,545.05127 240.504558,545.136719 240.267578,545.136719 C240.02604,545.136719 239.816407,545.050131 239.638672,544.876953 C239.460937,544.703775 239.37207,544.49642 239.37207,544.254883 C239.37207,544.013345 239.459797,543.803712 239.635254,543.625977 C239.810711,543.448241 240.021483,543.359375 240.267578,543.359375 C240.509116,543.359375 240.718749,543.448241 240.896484,543.625977 C241.07422,543.803712 241.163086,544.013345 241.163086,544.254883 Z M237.396484,544.254883 C237.396484,544.500978 237.306479,544.709472 237.126465,544.880371 C236.946451,545.05127 236.737957,545.136719 236.500977,545.136719 C236.259439,545.136719 236.049806,545.050131 235.87207,544.876953 C235.694335,544.703775 235.605469,544.49642 235.605469,544.254883 C235.605469,544.013345 235.693196,543.803712 235.868652,543.625977 C236.044109,543.448241 236.254882,543.359375 236.500977,543.359375 C236.742514,543.359375 236.952148,543.448241 237.129883,543.625977 C237.307618,543.803712 237.396484,544.013345 237.396484,544.254883 Z M256.229492,544.254883 C256.229492,544.49642 256.140626,544.703775 255.962891,544.876953 C255.785155,545.050131 255.575522,545.136719 255.333984,545.136719 C255.092447,545.136719 254.882813,545.050131 254.705078,544.876953 C254.527343,544.703775 254.438477,544.49642 254.438477,544.254883 C254.438477,544.013345 254.526204,543.803712 254.70166,543.625977 C254.877117,543.448241 255.087889,543.359375 255.333984,543.359375 C255.580079,543.359375 255.790852,543.448241 255.966309,543.625977 C256.141765,543.803712 256.229492,544.013345 256.229492,544.254883 Z M252.462891,544.254883 C252.462891,544.500978 252.372885,544.709472 252.192871,544.880371 C252.012857,545.05127 251.804363,545.136719 251.567383,545.136719 C251.325845,545.136719 251.116212,545.050131 250.938477,544.876953 C250.760741,544.703775 250.671875,544.49642 250.671875,544.254883 C250.671875,544.013345 250.759602,543.803712 250.935059,543.625977 C251.110515,543.448241 251.321288,543.359375 251.567383,543.359375 C251.80892,543.359375 252.018554,543.448241 252.196289,543.625977 C252.374024,543.803712 252.462891,544.013345 252.462891,544.254883 Z M248.696289,544.254883 C248.696289,544.500978 248.606283,544.709472 248.42627,544.880371 C248.246256,545.05127 248.037762,545.136719 247.800781,545.136719 C247.559244,545.136719 247.34961,545.050131 247.171875,544.876953 C246.99414,544.703775 246.905273,544.49642 246.905273,544.254883 C246.905273,544.013345 246.993,543.803712 247.168457,543.625977 C247.343914,543.448241 247.554686,543.359375 247.800781,543.359375 C248.042319,543.359375 248.251952,543.448241 248.429688,543.625977 C248.607423,543.803712 248.696289,544.013345 248.696289,544.254883 Z M267.529297,544.254883 C267.529297,544.49642 267.440431,544.703775 267.262695,544.876953 C267.08496,545.050131 266.875327,545.136719 266.633789,545.136719 C266.392251,545.136719 266.182618,545.050131 266.004883,544.876953 C265.827148,544.703775 265.738281,544.49642 265.738281,544.254883 C265.738281,544.013345 265.826008,543.803712 266.001465,543.625977 C266.176921,543.448241 266.387694,543.359375 266.633789,543.359375 C266.879884,543.359375 267.090657,543.448241 267.266113,543.625977 C267.44157,543.803712 267.529297,544.013345 267.529297,544.254883 Z M263.762695,544.254883 C263.762695,544.500978 263.67269,544.709472 263.492676,544.880371 C263.312662,545.05127 263.104168,545.136719 262.867188,545.136719 C262.62565,545.136719 262.416017,545.050131 262.238281,544.876953 C262.060546,544.703775 261.97168,544.49642 261.97168,544.254883 C261.97168,544.013345 262.059407,543.803712 262.234863,543.625977 C262.41032,543.448241 262.621093,543.359375 262.867188,543.359375 C263.108725,543.359375 263.318358,543.448241 263.496094,543.625977 C263.673829,543.803712 263.762695,544.013345 263.762695,544.254883 Z M259.996094,544.254883 C259.996094,544.500978 259.906088,544.709472 259.726074,544.880371 C259.54606,545.05127 259.337566,545.136719 259.100586,545.136719 C258.859048,545.136719 258.649415,545.050131 258.47168,544.876953 C258.293944,544.703775 258.205078,544.49642 258.205078,544.254883 C258.205078,544.013345 258.292805,543.803712 258.468262,543.625977 C258.643718,543.448241 258.854491,543.359375 259.100586,543.359375 C259.342124,543.359375 259.551757,543.448241 259.729492,543.625977 C259.907227,543.803712 259.996094,544.013345 259.996094,544.254883 Z M278.829102,544.254883 C278.829102,544.49642 278.740235,544.703775 278.5625,544.876953 C278.384765,545.050131 278.175131,545.136719 277.933594,545.136719 C277.692056,545.136719 277.482423,545.050131 277.304688,544.876953 C277.126952,544.703775 277.038086,544.49642 277.038086,544.254883 C277.038086,544.013345 277.125813,543.803712 277.30127,543.625977 C277.476726,543.448241 277.687499,543.359375 277.933594,543.359375 C278.179689,543.359375 278.390461,543.448241 278.565918,543.625977 C278.741375,543.803712 278.829102,544.013345 278.829102,544.254883 Z M275.0625,544.254883 C275.0625,544.500978 274.972494,544.709472 274.79248,544.880371 C274.612467,545.05127 274.403973,545.136719 274.166992,545.136719 C273.925455,545.136719 273.715821,545.050131 273.538086,544.876953 C273.360351,544.703775 273.271484,544.49642 273.271484,544.254883 C273.271484,544.013345 273.359211,543.803712 273.534668,543.625977 C273.710125,543.448241 273.920897,543.359375 274.166992,543.359375 C274.40853,543.359375 274.618163,543.448241 274.795898,543.625977 C274.973634,543.803712 275.0625,544.013345 275.0625,544.254883 Z M271.295898,544.254883 C271.295898,544.500978 271.205893,544.709472 271.025879,544.880371 C270.845865,545.05127 270.637371,545.136719 270.400391,545.136719 C270.158853,545.136719 269.94922,545.050131 269.771484,544.876953 C269.593749,544.703775 269.504883,544.49642 269.504883,544.254883 C269.504883,544.013345 269.59261,543.803712 269.768066,543.625977 C269.943523,543.448241 270.154296,543.359375 270.400391,543.359375 C270.641928,543.359375 270.851562,543.448241 271.029297,543.625977 C271.207032,543.803712 271.295898,544.013345 271.295898,544.254883 Z M290.128906,544.254883 C290.128906,544.49642 290.04004,544.703775 289.862305,544.876953 C289.684569,545.050131 289.474936,545.136719 289.233398,545.136719 C288.991861,545.136719 288.782227,545.050131 288.604492,544.876953 C288.426757,544.703775 288.337891,544.49642 288.337891,544.254883 C288.337891,544.013345 288.425618,543.803712 288.601074,543.625977 C288.776531,543.448241 288.987303,543.359375 289.233398,543.359375 C289.479493,543.359375 289.690266,543.448241 289.865723,543.625977 C290.041179,543.803712 290.128906,544.013345 290.128906,544.254883 Z M286.362305,544.254883 C286.362305,544.500978 286.272299,544.709472 286.092285,544.880371 C285.912271,545.05127 285.703777,545.136719 285.466797,545.136719 C285.225259,545.136719 285.015626,545.050131 284.837891,544.876953 C284.660155,544.703775 284.571289,544.49642 284.571289,544.254883 C284.571289,544.013345 284.659016,543.803712 284.834473,543.625977 C285.009929,543.448241 285.220702,543.359375 285.466797,543.359375 C285.708335,543.359375 285.917968,543.448241 286.095703,543.625977 C286.273438,543.803712 286.362305,544.013345 286.362305,544.254883 Z M282.595703,544.254883 C282.595703,544.500978 282.505698,544.709472 282.325684,544.880371 C282.14567,545.05127 281.937176,545.136719 281.700195,545.136719 C281.458658,545.136719 281.249024,545.050131 281.071289,544.876953 C280.893554,544.703775 280.804688,544.49642 280.804688,544.254883 C280.804688,544.013345 280.892414,543.803712 281.067871,543.625977 C281.243328,543.448241 281.4541,543.359375 281.700195,543.359375 C281.941733,543.359375 282.151366,543.448241 282.329102,543.625977 C282.506837,543.803712 282.595703,544.013345 282.595703,544.254883 Z M293.929688,544.213867 C293.929688,544.469077 293.837403,544.686685 293.652832,544.866699 C293.468261,545.046713 293.248374,545.136719 292.993164,545.136719 C292.737954,545.136719 292.518067,545.046713 292.333496,544.866699 C292.148925,544.686685 292.056641,544.469077 292.056641,544.213867 C292.056641,543.958658 292.148925,543.73877 292.333496,543.554199 C292.518067,543.369628 292.737954,543.277344 292.993164,543.277344 C293.248374,543.277344 293.468261,543.369628 293.652832,543.554199 C293.837403,543.73877 293.929688,543.958658 293.929688,544.213867 Z M297.703125,544.213867 C297.703125,544.469077 297.610841,544.686685 297.42627,544.866699 C297.241698,545.046713 297.021811,545.136719 296.766602,545.136719 C296.511392,545.136719 296.291505,545.046713 296.106934,544.866699 C295.922362,544.686685 295.830078,544.469077 295.830078,544.213867 C295.830078,543.958658 295.922362,543.73877 296.106934,543.554199 C296.291505,543.369628 296.511392,543.277344 296.766602,543.277344 C297.021811,543.277344 297.241698,543.369628 297.42627,543.554199 C297.610841,543.73877 297.703125,543.958658 297.703125,544.213867 Z" id="……………………………………………………………….." fill="#DADFE7" fill-rule="nonzero"></path>
    </g>
</svg>