<?xml version="1.0" encoding="UTF-8"?>
<svg width="320px" height="546px" viewBox="0 0 320 546" version="1.1" xmlns="http://www.w3.org/2000/svg" xmlns:xlink="http://www.w3.org/1999/xlink">
    <!-- Generator: Sketch 54.1 (76490) - https://sketchapp.com -->
    <title>hongvan_overlay</title>
    <desc>Created with Sketch.</desc>
    <g id="hongvan_overlay" stroke="none" stroke-width="1" fill="none" fill-rule="evenodd">
        <path d="M-9.1944495e-05,-0.000731759581 L319.999908,-0.000731759581 L319.999908,545.999268 L-9.1944495e-05,545.999268 L-9.1944495e-05,-0.000731759581 Z M24.9986208,42.2180069 C22.2371971,42.2180069 19.9986208,44.4565832 19.9986208,47.2180069 L19.9986208,512.999268 C19.9986208,515.760692 22.2371971,517.999268 24.9986208,517.999268 L294.999908,517.999268 C297.761332,517.999268 299.999908,515.760692 299.999908,512.999268 L299.999908,47.2180069 C299.999908,44.4565832 297.761332,42.2180069 294.999908,42.2180069 L24.9986208,42.2180069 Z" id="Rectangle-3" fill="#ECF5FA"></path>
        <path d="M10.2333984,544.254883 C10.2333984,544.49642 10.1445321,544.703775 9.96679688,544.876953 C9.78906161,545.050131 9.57942829,545.136719 9.33789062,545.136719 C9.09635296,545.136719 8.88671964,545.050131 8.70898438,544.876953 C8.53124911,544.703775 8.44238281,544.49642 8.44238281,544.254883 C8.44238281,544.013345 8.5301098,543.803712 8.70556641,543.625977 C8.88102301,543.448241 9.09179564,543.359375 9.33789062,543.359375 C9.58398561,543.359375 9.79475824,543.448241 9.97021484,543.625977 C10.1456715,543.803712 10.2333984,544.013345 10.2333984,544.254883 Z M6.46679688,544.254883 C6.46679688,544.500978 6.37679126,544.709472 6.19677734,544.880371 C6.01676342,545.05127 5.80826941,545.136719 5.57128906,545.136719 C5.3297514,545.136719 5.12011808,545.050131 4.94238281,544.876953 C4.76464755,544.703775 4.67578125,544.49642 4.67578125,544.254883 C4.67578125,544.013345 4.76350824,543.803712 4.93896484,543.625977 C5.11442145,543.448241 5.32519408,543.359375 5.57128906,543.359375 C5.81282673,543.359375 6.02246005,543.448241 6.20019531,543.625977 C6.37793058,543.803712 6.46679688,544.013345 6.46679688,544.254883 Z M2.70019531,544.254883 C2.70019531,544.500978 2.6101897,544.709472 2.43017578,544.880371 C2.25016186,545.05127 2.04166785,545.136719 1.8046875,545.136719 C1.56314983,545.136719 1.35351651,545.050131 1.17578125,544.876953 C0.998045986,544.703775 0.909179688,544.49642 0.909179688,544.254883 C0.909179688,544.013345 0.996906675,543.803712 1.17236328,543.625977 C1.34781989,543.448241 1.55859252,543.359375 1.8046875,543.359375 C2.04622517,543.359375 2.25585849,543.448241 2.43359375,543.625977 C2.61132901,543.803712 2.70019531,544.013345 2.70019531,544.254883 Z M21.5332031,544.254883 C21.5332031,544.49642 21.4443368,544.703775 21.2666016,544.876953 C21.0888663,545.050131 20.879233,545.136719 20.6376953,545.136719 C20.3961576,545.136719 20.1865243,545.050131 20.0087891,544.876953 C19.8310538,544.703775 19.7421875,544.49642 19.7421875,544.254883 C19.7421875,544.013345 19.8299145,543.803712 20.0053711,543.625977 C20.1808277,543.448241 20.3916003,543.359375 20.6376953,543.359375 C20.8837903,543.359375 21.0945629,543.448241 21.2700195,543.625977 C21.4454761,543.803712 21.5332031,544.013345 21.5332031,544.254883 Z M17.7666016,544.254883 C17.7666016,544.500978 17.676596,544.709472 17.496582,544.880371 C17.3165681,545.05127 17.1080741,545.136719 16.8710938,545.136719 C16.6295561,545.136719 16.4199228,545.050131 16.2421875,544.876953 C16.0644522,544.703775 15.9755859,544.49642 15.9755859,544.254883 C15.9755859,544.013345 16.0633129,543.803712 16.2387695,543.625977 C16.4142261,543.448241 16.6249988,543.359375 16.8710938,543.359375 C17.1126314,543.359375 17.3222647,543.448241 17.5,543.625977 C17.6777353,543.803712 17.7666016,544.013345 17.7666016,544.254883 Z M14,544.254883 C14,544.500978 13.9099944,544.709472 13.7299805,544.880371 C13.5499665,545.05127 13.3414725,545.136719 13.1044922,545.136719 C12.8629545,545.136719 12.6533212,545.050131 12.4755859,544.876953 C12.2978507,544.703775 12.2089844,544.49642 12.2089844,544.254883 C12.2089844,544.013345 12.2967114,543.803712 12.472168,543.625977 C12.6476246,543.448241 12.8583972,543.359375 13.1044922,543.359375 C13.3460299,543.359375 13.5556632,543.448241 13.7333984,543.625977 C13.9111337,543.803712 14,544.013345 14,544.254883 Z M32.8330078,544.254883 C32.8330078,544.49642 32.7441415,544.703775 32.5664062,544.876953 C32.388671,545.050131 32.1790377,545.136719 31.9375,545.136719 C31.6959623,545.136719 31.486329,545.050131 31.3085938,544.876953 C31.1308585,544.703775 31.0419922,544.49642 31.0419922,544.254883 C31.0419922,544.013345 31.1297192,543.803712 31.3051758,543.625977 C31.4806324,543.448241 31.691405,543.359375 31.9375,543.359375 C32.183595,543.359375 32.3943676,543.448241 32.5698242,543.625977 C32.7452808,543.803712 32.8330078,544.013345 32.8330078,544.254883 Z M29.0664062,544.254883 C29.0664062,544.500978 28.9764006,544.709472 28.7963867,544.880371 C28.6163728,545.05127 28.4078788,545.136719 28.1708984,545.136719 C27.9293608,545.136719 27.7197275,545.050131 27.5419922,544.876953 C27.3642569,544.703775 27.2753906,544.49642 27.2753906,544.254883 C27.2753906,544.013345 27.3631176,543.803712 27.5385742,543.625977 C27.7140308,543.448241 27.9248035,543.359375 28.1708984,543.359375 C28.4124361,543.359375 28.6220694,543.448241 28.7998047,543.625977 C28.97754,543.803712 29.0664062,544.013345 29.0664062,544.254883 Z M25.2998047,544.254883 C25.2998047,544.500978 25.2097991,544.709472 25.0297852,544.880371 C24.8497712,545.05127 24.6412772,545.136719 24.4042969,545.136719 C24.1627592,545.136719 23.9531259,545.050131 23.7753906,544.876953 C23.5976554,544.703775 23.5087891,544.49642 23.5087891,544.254883 C23.5087891,544.013345 23.596516,543.803712 23.7719727,543.625977 C23.9474293,543.448241 24.1582019,543.359375 24.4042969,543.359375 C24.6458345,543.359375 24.8554679,543.448241 25.0332031,543.625977 C25.2109384,543.803712 25.2998047,544.013345 25.2998047,544.254883 Z M44.1328125,544.254883 C44.1328125,544.49642 44.0439462,544.703775 43.8662109,544.876953 C43.6884757,545.050131 43.4788424,545.136719 43.2373047,545.136719 C42.995767,545.136719 42.7861337,545.050131 42.6083984,544.876953 C42.4306632,544.703775 42.3417969,544.49642 42.3417969,544.254883 C42.3417969,544.013345 42.4295239,543.803712 42.6049805,543.625977 C42.7804371,543.448241 42.9912097,543.359375 43.2373047,543.359375 C43.4833997,543.359375 43.6941723,543.448241 43.8696289,543.625977 C44.0450855,543.803712 44.1328125,544.013345 44.1328125,544.254883 Z M40.3662109,544.254883 C40.3662109,544.500978 40.2762053,544.709472 40.0961914,544.880371 C39.9161775,545.05127 39.7076835,545.136719 39.4707031,545.136719 C39.2291655,545.136719 39.0195321,545.050131 38.8417969,544.876953 C38.6640616,544.703775 38.5751953,544.49642 38.5751953,544.254883 C38.5751953,544.013345 38.6629223,543.803712 38.8383789,543.625977 C39.0138355,543.448241 39.2246081,543.359375 39.4707031,543.359375 C39.7122408,543.359375 39.9218741,543.448241 40.0996094,543.625977 C40.2773446,543.803712 40.3662109,544.013345 40.3662109,544.254883 Z M36.5996094,544.254883 C36.5996094,544.500978 36.5096038,544.709472 36.3295898,544.880371 C36.1495759,545.05127 35.9410819,545.136719 35.7041016,545.136719 C35.4625639,545.136719 35.2529306,545.050131 35.0751953,544.876953 C34.89746,544.703775 34.8085938,544.49642 34.8085938,544.254883 C34.8085938,544.013345 34.8963207,543.803712 35.0717773,543.625977 C35.247234,543.448241 35.4580066,543.359375 35.7041016,543.359375 C35.9456392,543.359375 36.1552725,543.448241 36.3330078,543.625977 C36.5107431,543.803712 36.5996094,544.013345 36.5996094,544.254883 Z M55.4326172,544.254883 C55.4326172,544.49642 55.3437509,544.703775 55.1660156,544.876953 C54.9882804,545.050131 54.778647,545.136719 54.5371094,545.136719 C54.2955717,545.136719 54.0859384,545.050131 53.9082031,544.876953 C53.7304679,544.703775 53.6416016,544.49642 53.6416016,544.254883 C53.6416016,544.013345 53.7293285,543.803712 53.9047852,543.625977 C54.0802418,543.448241 54.2910144,543.359375 54.5371094,543.359375 C54.7832044,543.359375 54.993977,543.448241 55.1694336,543.625977 C55.3448902,543.803712 55.4326172,544.013345 55.4326172,544.254883 Z M51.6660156,544.254883 C51.6660156,544.500978 51.57601,544.709472 51.3959961,544.880371 C51.2159822,545.05127 51.0074882,545.136719 50.7705078,545.136719 C50.5289701,545.136719 50.3193368,545.050131 50.1416016,544.876953 C49.9638663,544.703775 49.875,544.49642 49.875,544.254883 C49.875,544.013345 49.962727,543.803712 50.1381836,543.625977 C50.3136402,543.448241 50.5244128,543.359375 50.7705078,543.359375 C51.0120455,543.359375 51.2216788,543.448241 51.3994141,543.625977 C51.5771493,543.803712 51.6660156,544.013345 51.6660156,544.254883 Z M47.8994141,544.254883 C47.8994141,544.500978 47.8094085,544.709472 47.6293945,544.880371 C47.4493806,545.05127 47.2408866,545.136719 47.0039062,545.136719 C46.7623686,545.136719 46.5527353,545.050131 46.375,544.876953 C46.1972647,544.703775 46.1083984,544.49642 46.1083984,544.254883 C46.1083984,544.013345 46.1961254,543.803712 46.371582,543.625977 C46.5470386,543.448241 46.7578113,543.359375 47.0039062,543.359375 C47.2454439,543.359375 47.4550772,543.448241 47.6328125,543.625977 C47.8105478,543.803712 47.8994141,544.013345 47.8994141,544.254883 Z M66.7324219,544.254883 C66.7324219,544.49642 66.6435556,544.703775 66.4658203,544.876953 C66.288085,545.050131 66.0784517,545.136719 65.8369141,545.136719 C65.5953764,545.136719 65.3857431,545.050131 65.2080078,544.876953 C65.0302725,544.703775 64.9414062,544.49642 64.9414062,544.254883 C64.9414062,544.013345 65.0291332,543.803712 65.2045898,543.625977 C65.3800465,543.448241 65.5908191,543.359375 65.8369141,543.359375 C66.083009,543.359375 66.2937817,543.448241 66.4692383,543.625977 C66.6446949,543.803712 66.7324219,544.013345 66.7324219,544.254883 Z M62.9658203,544.254883 C62.9658203,544.500978 62.8758147,544.709472 62.6958008,544.880371 C62.5157869,545.05127 62.3072929,545.136719 62.0703125,545.136719 C61.8287748,545.136719 61.6191415,545.050131 61.4414062,544.876953 C61.263671,544.703775 61.1748047,544.49642 61.1748047,544.254883 C61.1748047,544.013345 61.2625317,543.803712 61.4379883,543.625977 C61.6134449,543.448241 61.8242175,543.359375 62.0703125,543.359375 C62.3118502,543.359375 62.5214835,543.448241 62.6992188,543.625977 C62.876954,543.803712 62.9658203,544.013345 62.9658203,544.254883 Z M59.1992188,544.254883 C59.1992188,544.500978 59.1092131,544.709472 58.9291992,544.880371 C58.7491853,545.05127 58.5406913,545.136719 58.3037109,545.136719 C58.0621733,545.136719 57.85254,545.050131 57.6748047,544.876953 C57.4970694,544.703775 57.4082031,544.49642 57.4082031,544.254883 C57.4082031,544.013345 57.4959301,543.803712 57.6713867,543.625977 C57.8468433,543.448241 58.057616,543.359375 58.3037109,543.359375 C58.5452486,543.359375 58.7548819,543.448241 58.9326172,543.625977 C59.1103525,543.803712 59.1992188,544.013345 59.1992188,544.254883 Z M78.0322266,544.254883 C78.0322266,544.49642 77.9433603,544.703775 77.765625,544.876953 C77.5878897,545.050131 77.3782564,545.136719 77.1367188,545.136719 C76.8951811,545.136719 76.6855478,545.050131 76.5078125,544.876953 C76.3300772,544.703775 76.2412109,544.49642 76.2412109,544.254883 C76.2412109,544.013345 76.3289379,543.803712 76.5043945,543.625977 C76.6798511,543.448241 76.8906238,543.359375 77.1367188,543.359375 C77.3828137,543.359375 77.5935864,543.448241 77.769043,543.625977 C77.9444996,543.803712 78.0322266,544.013345 78.0322266,544.254883 Z M74.265625,544.254883 C74.265625,544.500978 74.1756194,544.709472 73.9956055,544.880371 C73.8155915,545.05127 73.6070975,545.136719 73.3701172,545.136719 C73.1285795,545.136719 72.9189462,545.050131 72.7412109,544.876953 C72.5634757,544.703775 72.4746094,544.49642 72.4746094,544.254883 C72.4746094,544.013345 72.5623364,543.803712 72.737793,543.625977 C72.9132496,543.448241 73.1240222,543.359375 73.3701172,543.359375 C73.6116549,543.359375 73.8212882,543.448241 73.9990234,543.625977 C74.1767587,543.803712 74.265625,544.013345 74.265625,544.254883 Z M70.4990234,544.254883 C70.4990234,544.500978 70.4090178,544.709472 70.2290039,544.880371 C70.04899,545.05127 69.840496,545.136719 69.6035156,545.136719 C69.361978,545.136719 69.1523446,545.050131 68.9746094,544.876953 C68.7968741,544.703775 68.7080078,544.49642 68.7080078,544.254883 C68.7080078,544.013345 68.7957348,543.803712 68.9711914,543.625977 C69.146648,543.448241 69.3574206,543.359375 69.6035156,543.359375 C69.8450533,543.359375 70.0546866,543.448241 70.2324219,543.625977 C70.4101571,543.803712 70.4990234,544.013345 70.4990234,544.254883 Z M89.3320312,544.254883 C89.3320312,544.49642 89.243165,544.703775 89.0654297,544.876953 C88.8876944,545.050131 88.6780611,545.136719 88.4365234,545.136719 C88.1949858,545.136719 87.9853525,545.050131 87.8076172,544.876953 C87.6298819,544.703775 87.5410156,544.49642 87.5410156,544.254883 C87.5410156,544.013345 87.6287426,543.803712 87.8041992,543.625977 C87.9796558,543.448241 88.1904285,543.359375 88.4365234,543.359375 C88.6826184,543.359375 88.893391,543.448241 89.0688477,543.625977 C89.2443043,543.803712 89.3320312,544.013345 89.3320312,544.254883 Z M85.5654297,544.254883 C85.5654297,544.500978 85.4754241,544.709472 85.2954102,544.880371 C85.1153962,545.05127 84.9069022,545.136719 84.6699219,545.136719 C84.4283842,545.136719 84.2187509,545.050131 84.0410156,544.876953 C83.8632804,544.703775 83.7744141,544.49642 83.7744141,544.254883 C83.7744141,544.013345 83.862141,543.803712 84.0375977,543.625977 C84.2130543,543.448241 84.4238269,543.359375 84.6699219,543.359375 C84.9114595,543.359375 85.1210929,543.448241 85.2988281,543.625977 C85.4765634,543.803712 85.5654297,544.013345 85.5654297,544.254883 Z M81.7988281,544.254883 C81.7988281,544.500978 81.7088225,544.709472 81.5288086,544.880371 C81.3487947,545.05127 81.1403007,545.136719 80.9033203,545.136719 C80.6617826,545.136719 80.4521493,545.050131 80.2744141,544.876953 C80.0966788,544.703775 80.0078125,544.49642 80.0078125,544.254883 C80.0078125,544.013345 80.0955395,543.803712 80.2709961,543.625977 C80.4464527,543.448241 80.6572253,543.359375 80.9033203,543.359375 C81.144858,543.359375 81.3544913,543.448241 81.5322266,543.625977 C81.7099618,543.803712 81.7988281,544.013345 81.7988281,544.254883 Z M100.631836,544.254883 C100.631836,544.49642 100.54297,544.703775 100.365234,544.876953 C100.187499,545.050131 99.9778658,545.136719 99.7363281,545.136719 C99.4947905,545.136719 99.2851571,545.050131 99.1074219,544.876953 C98.9296866,544.703775 98.8408203,544.49642 98.8408203,544.254883 C98.8408203,544.013345 98.9285473,543.803712 99.1040039,543.625977 C99.2794605,543.448241 99.4902331,543.359375 99.7363281,543.359375 C99.9824231,543.359375 100.193196,543.448241 100.368652,543.625977 C100.544109,543.803712 100.631836,544.013345 100.631836,544.254883 Z M96.8652344,544.254883 C96.8652344,544.500978 96.7752288,544.709472 96.5952148,544.880371 C96.4152009,545.05127 96.2067069,545.136719 95.9697266,545.136719 C95.7281889,545.136719 95.5185556,545.050131 95.3408203,544.876953 C95.163085,544.703775 95.0742188,544.49642 95.0742188,544.254883 C95.0742188,544.013345 95.1619457,543.803712 95.3374023,543.625977 C95.512859,543.448241 95.7236316,543.359375 95.9697266,543.359375 C96.2112642,543.359375 96.4208975,543.448241 96.5986328,543.625977 C96.7763681,543.803712 96.8652344,544.013345 96.8652344,544.254883 Z M93.0986328,544.254883 C93.0986328,544.500978 93.0086272,544.709472 92.8286133,544.880371 C92.6485994,545.05127 92.4401054,545.136719 92.203125,545.136719 C91.9615873,545.136719 91.751954,545.050131 91.5742188,544.876953 C91.3964835,544.703775 91.3076172,544.49642 91.3076172,544.254883 C91.3076172,544.013345 91.3953442,543.803712 91.5708008,543.625977 C91.7462574,543.448241 91.95703,543.359375 92.203125,543.359375 C92.4446627,543.359375 92.654296,543.448241 92.8320312,543.625977 C93.0097665,543.803712 93.0986328,544.013345 93.0986328,544.254883 Z M111.931641,544.254883 C111.931641,544.49642 111.842774,544.703775 111.665039,544.876953 C111.487304,545.050131 111.27767,545.136719 111.036133,545.136719 C110.794595,545.136719 110.584962,545.050131 110.407227,544.876953 C110.229491,544.703775 110.140625,544.49642 110.140625,544.254883 C110.140625,544.013345 110.228352,543.803712 110.403809,543.625977 C110.579265,543.448241 110.790038,543.359375 111.036133,543.359375 C111.282228,543.359375 111.493,543.448241 111.668457,543.625977 C111.843914,543.803712 111.931641,544.013345 111.931641,544.254883 Z M108.165039,544.254883 C108.165039,544.500978 108.075033,544.709472 107.89502,544.880371 C107.715006,545.05127 107.506512,545.136719 107.269531,545.136719 C107.027994,545.136719 106.81836,545.050131 106.640625,544.876953 C106.46289,544.703775 106.374023,544.49642 106.374023,544.254883 C106.374023,544.013345 106.46175,543.803712 106.637207,543.625977 C106.812664,543.448241 107.023436,543.359375 107.269531,543.359375 C107.511069,543.359375 107.720702,543.448241 107.898438,543.625977 C108.076173,543.803712 108.165039,544.013345 108.165039,544.254883 Z M104.398438,544.254883 C104.398438,544.500978 104.308432,544.709472 104.128418,544.880371 C103.948404,545.05127 103.73991,545.136719 103.50293,545.136719 C103.261392,545.136719 103.051759,545.050131 102.874023,544.876953 C102.696288,544.703775 102.607422,544.49642 102.607422,544.254883 C102.607422,544.013345 102.695149,543.803712 102.870605,543.625977 C103.046062,543.448241 103.256835,543.359375 103.50293,543.359375 C103.744467,543.359375 103.954101,543.448241 104.131836,543.625977 C104.309571,543.803712 104.398438,544.013345 104.398438,544.254883 Z M123.231445,544.254883 C123.231445,544.49642 123.142579,544.703775 122.964844,544.876953 C122.787108,545.050131 122.577475,545.136719 122.335938,545.136719 C122.0944,545.136719 121.884767,545.050131 121.707031,544.876953 C121.529296,544.703775 121.44043,544.49642 121.44043,544.254883 C121.44043,544.013345 121.528157,543.803712 121.703613,543.625977 C121.87907,543.448241 122.089843,543.359375 122.335938,543.359375 C122.582032,543.359375 122.792805,543.448241 122.968262,543.625977 C123.143718,543.803712 123.231445,544.013345 123.231445,544.254883 Z M119.464844,544.254883 C119.464844,544.500978 119.374838,544.709472 119.194824,544.880371 C119.01481,545.05127 118.806316,545.136719 118.569336,545.136719 C118.327798,545.136719 118.118165,545.050131 117.94043,544.876953 C117.762694,544.703775 117.673828,544.49642 117.673828,544.254883 C117.673828,544.013345 117.761555,543.803712 117.937012,543.625977 C118.112468,543.448241 118.323241,543.359375 118.569336,543.359375 C118.810874,543.359375 119.020507,543.448241 119.198242,543.625977 C119.375977,543.803712 119.464844,544.013345 119.464844,544.254883 Z M115.698242,544.254883 C115.698242,544.500978 115.608237,544.709472 115.428223,544.880371 C115.248209,545.05127 115.039715,545.136719 114.802734,545.136719 C114.561197,545.136719 114.351563,545.050131 114.173828,544.876953 C113.996093,544.703775 113.907227,544.49642 113.907227,544.254883 C113.907227,544.013345 113.994954,543.803712 114.17041,543.625977 C114.345867,543.448241 114.556639,543.359375 114.802734,543.359375 C115.044272,543.359375 115.253905,543.448241 115.431641,543.625977 C115.609376,543.803712 115.698242,544.013345 115.698242,544.254883 Z M134.53125,544.254883 C134.53125,544.49642 134.442384,544.703775 134.264648,544.876953 C134.086913,545.050131 133.87728,545.136719 133.635742,545.136719 C133.394205,545.136719 133.184571,545.050131 133.006836,544.876953 C132.829101,544.703775 132.740234,544.49642 132.740234,544.254883 C132.740234,544.013345 132.827961,543.803712 133.003418,543.625977 C133.178875,543.448241 133.389647,543.359375 133.635742,543.359375 C133.881837,543.359375 134.09261,543.448241 134.268066,543.625977 C134.443523,543.803712 134.53125,544.013345 134.53125,544.254883 Z M130.764648,544.254883 C130.764648,544.500978 130.674643,544.709472 130.494629,544.880371 C130.314615,545.05127 130.106121,545.136719 129.869141,545.136719 C129.627603,545.136719 129.41797,545.050131 129.240234,544.876953 C129.062499,544.703775 128.973633,544.49642 128.973633,544.254883 C128.973633,544.013345 129.06136,543.803712 129.236816,543.625977 C129.412273,543.448241 129.623046,543.359375 129.869141,543.359375 C130.110678,543.359375 130.320312,543.448241 130.498047,543.625977 C130.675782,543.803712 130.764648,544.013345 130.764648,544.254883 Z M126.998047,544.254883 C126.998047,544.500978 126.908041,544.709472 126.728027,544.880371 C126.548013,545.05127 126.339519,545.136719 126.102539,545.136719 C125.861001,545.136719 125.651368,545.050131 125.473633,544.876953 C125.295898,544.703775 125.207031,544.49642 125.207031,544.254883 C125.207031,544.013345 125.294758,543.803712 125.470215,543.625977 C125.645671,543.448241 125.856444,543.359375 126.102539,543.359375 C126.344077,543.359375 126.55371,543.448241 126.731445,543.625977 C126.909181,543.803712 126.998047,544.013345 126.998047,544.254883 Z M145.831055,544.254883 C145.831055,544.49642 145.742188,544.703775 145.564453,544.876953 C145.386718,545.050131 145.177085,545.136719 144.935547,545.136719 C144.694009,545.136719 144.484376,545.050131 144.306641,544.876953 C144.128905,544.703775 144.040039,544.49642 144.040039,544.254883 C144.040039,544.013345 144.127766,543.803712 144.303223,543.625977 C144.478679,543.448241 144.689452,543.359375 144.935547,543.359375 C145.181642,543.359375 145.392414,543.448241 145.567871,543.625977 C145.743328,543.803712 145.831055,544.013345 145.831055,544.254883 Z M142.064453,544.254883 C142.064453,544.500978 141.974448,544.709472 141.794434,544.880371 C141.61442,545.05127 141.405926,545.136719 141.168945,545.136719 C140.927408,545.136719 140.717774,545.050131 140.540039,544.876953 C140.362304,544.703775 140.273438,544.49642 140.273438,544.254883 C140.273438,544.013345 140.361164,543.803712 140.536621,543.625977 C140.712078,543.448241 140.92285,543.359375 141.168945,543.359375 C141.410483,543.359375 141.620116,543.448241 141.797852,543.625977 C141.975587,543.803712 142.064453,544.013345 142.064453,544.254883 Z M138.297852,544.254883 C138.297852,544.500978 138.207846,544.709472 138.027832,544.880371 C137.847818,545.05127 137.639324,545.136719 137.402344,545.136719 C137.160806,545.136719 136.951173,545.050131 136.773438,544.876953 C136.595702,544.703775 136.506836,544.49642 136.506836,544.254883 C136.506836,544.013345 136.594563,543.803712 136.77002,543.625977 C136.945476,543.448241 137.156249,543.359375 137.402344,543.359375 C137.643881,543.359375 137.853515,543.448241 138.03125,543.625977 C138.208985,543.803712 138.297852,544.013345 138.297852,544.254883 Z M157.130859,544.254883 C157.130859,544.49642 157.041993,544.703775 156.864258,544.876953 C156.686523,545.050131 156.476889,545.136719 156.235352,545.136719 C155.993814,545.136719 155.784181,545.050131 155.606445,544.876953 C155.42871,544.703775 155.339844,544.49642 155.339844,544.254883 C155.339844,544.013345 155.427571,543.803712 155.603027,543.625977 C155.778484,543.448241 155.989257,543.359375 156.235352,543.359375 C156.481447,543.359375 156.692219,543.448241 156.867676,543.625977 C157.043132,543.803712 157.130859,544.013345 157.130859,544.254883 Z M153.364258,544.254883 C153.364258,544.500978 153.274252,544.709472 153.094238,544.880371 C152.914224,545.05127 152.70573,545.136719 152.46875,545.136719 C152.227212,545.136719 152.017579,545.050131 151.839844,544.876953 C151.662108,544.703775 151.573242,544.49642 151.573242,544.254883 C151.573242,544.013345 151.660969,543.803712 151.836426,543.625977 C152.011882,543.448241 152.222655,543.359375 152.46875,543.359375 C152.710288,543.359375 152.919921,543.448241 153.097656,543.625977 C153.275392,543.803712 153.364258,544.013345 153.364258,544.254883 Z M149.597656,544.254883 C149.597656,544.500978 149.507651,544.709472 149.327637,544.880371 C149.147623,545.05127 148.939129,545.136719 148.702148,545.136719 C148.460611,545.136719 148.250977,545.050131 148.073242,544.876953 C147.895507,544.703775 147.806641,544.49642 147.806641,544.254883 C147.806641,544.013345 147.894368,543.803712 148.069824,543.625977 C148.245281,543.448241 148.456053,543.359375 148.702148,543.359375 C148.943686,543.359375 149.153319,543.448241 149.331055,543.625977 C149.50879,543.803712 149.597656,544.013345 149.597656,544.254883 Z M168.430664,544.254883 C168.430664,544.49642 168.341798,544.703775 168.164062,544.876953 C167.986327,545.050131 167.776694,545.136719 167.535156,545.136719 C167.293619,545.136719 167.083985,545.050131 166.90625,544.876953 C166.728515,544.703775 166.639648,544.49642 166.639648,544.254883 C166.639648,544.013345 166.727375,543.803712 166.902832,543.625977 C167.078289,543.448241 167.289061,543.359375 167.535156,543.359375 C167.781251,543.359375 167.992024,543.448241 168.16748,543.625977 C168.342937,543.803712 168.430664,544.013345 168.430664,544.254883 Z M164.664062,544.254883 C164.664062,544.500978 164.574057,544.709472 164.394043,544.880371 C164.214029,545.05127 164.005535,545.136719 163.768555,545.136719 C163.527017,545.136719 163.317384,545.050131 163.139648,544.876953 C162.961913,544.703775 162.873047,544.49642 162.873047,544.254883 C162.873047,544.013345 162.960774,543.803712 163.13623,543.625977 C163.311687,543.448241 163.52246,543.359375 163.768555,543.359375 C164.010092,543.359375 164.219726,543.448241 164.397461,543.625977 C164.575196,543.803712 164.664062,544.013345 164.664062,544.254883 Z M160.897461,544.254883 C160.897461,544.500978 160.807455,544.709472 160.627441,544.880371 C160.447427,545.05127 160.238933,545.136719 160.001953,545.136719 C159.760415,545.136719 159.550782,545.050131 159.373047,544.876953 C159.195312,544.703775 159.106445,544.49642 159.106445,544.254883 C159.106445,544.013345 159.194172,543.803712 159.369629,543.625977 C159.545086,543.448241 159.755858,543.359375 160.001953,543.359375 C160.243491,543.359375 160.453124,543.448241 160.630859,543.625977 C160.808595,543.803712 160.897461,544.013345 160.897461,544.254883 Z M179.730469,544.254883 C179.730469,544.49642 179.641602,544.703775 179.463867,544.876953 C179.286132,545.050131 179.076499,545.136719 178.834961,545.136719 C178.593423,545.136719 178.38379,545.050131 178.206055,544.876953 C178.028319,544.703775 177.939453,544.49642 177.939453,544.254883 C177.939453,544.013345 178.02718,543.803712 178.202637,543.625977 C178.378093,543.448241 178.588866,543.359375 178.834961,543.359375 C179.081056,543.359375 179.291829,543.448241 179.467285,543.625977 C179.642742,543.803712 179.730469,544.013345 179.730469,544.254883 Z M175.963867,544.254883 C175.963867,544.500978 175.873862,544.709472 175.693848,544.880371 C175.513834,545.05127 175.30534,545.136719 175.068359,545.136719 C174.826822,545.136719 174.617188,545.050131 174.439453,544.876953 C174.261718,544.703775 174.172852,544.49642 174.172852,544.254883 C174.172852,544.013345 174.260579,543.803712 174.436035,543.625977 C174.611492,543.448241 174.822264,543.359375 175.068359,543.359375 C175.309897,543.359375 175.51953,543.448241 175.697266,543.625977 C175.875001,543.803712 175.963867,544.013345 175.963867,544.254883 Z M172.197266,544.254883 C172.197266,544.500978 172.10726,544.709472 171.927246,544.880371 C171.747232,545.05127 171.538738,545.136719 171.301758,545.136719 C171.06022,545.136719 170.850587,545.050131 170.672852,544.876953 C170.495116,544.703775 170.40625,544.49642 170.40625,544.254883 C170.40625,544.013345 170.493977,543.803712 170.669434,543.625977 C170.84489,543.448241 171.055663,543.359375 171.301758,543.359375 C171.543295,543.359375 171.752929,543.448241 171.930664,543.625977 C172.108399,543.803712 172.197266,544.013345 172.197266,544.254883 Z M191.030273,544.254883 C191.030273,544.49642 190.941407,544.703775 190.763672,544.876953 C190.585937,545.050131 190.376303,545.136719 190.134766,545.136719 C189.893228,545.136719 189.683595,545.050131 189.505859,544.876953 C189.328124,544.703775 189.239258,544.49642 189.239258,544.254883 C189.239258,544.013345 189.326985,543.803712 189.502441,543.625977 C189.677898,543.448241 189.888671,543.359375 190.134766,543.359375 C190.380861,543.359375 190.591633,543.448241 190.76709,543.625977 C190.942546,543.803712 191.030273,544.013345 191.030273,544.254883 Z M187.263672,544.254883 C187.263672,544.500978 187.173666,544.709472 186.993652,544.880371 C186.813638,545.05127 186.605144,545.136719 186.368164,545.136719 C186.126626,545.136719 185.916993,545.050131 185.739258,544.876953 C185.561523,544.703775 185.472656,544.49642 185.472656,544.254883 C185.472656,544.013345 185.560383,543.803712 185.73584,543.625977 C185.911296,543.448241 186.122069,543.359375 186.368164,543.359375 C186.609702,543.359375 186.819335,543.448241 186.99707,543.625977 C187.174806,543.803712 187.263672,544.013345 187.263672,544.254883 Z M183.49707,544.254883 C183.49707,544.500978 183.407065,544.709472 183.227051,544.880371 C183.047037,545.05127 182.838543,545.136719 182.601562,545.136719 C182.360025,545.136719 182.150392,545.050131 181.972656,544.876953 C181.794921,544.703775 181.706055,544.49642 181.706055,544.254883 C181.706055,544.013345 181.793782,543.803712 181.969238,543.625977 C182.144695,543.448241 182.355468,543.359375 182.601562,543.359375 C182.8431,543.359375 183.052733,543.448241 183.230469,543.625977 C183.408204,543.803712 183.49707,544.013345 183.49707,544.254883 Z M202.330078,544.254883 C202.330078,544.49642 202.241212,544.703775 202.063477,544.876953 C201.885741,545.050131 201.676108,545.136719 201.43457,545.136719 C201.193033,545.136719 200.983399,545.050131 200.805664,544.876953 C200.627929,544.703775 200.539062,544.49642 200.539062,544.254883 C200.539062,544.013345 200.626789,543.803712 200.802246,543.625977 C200.977703,543.448241 201.188475,543.359375 201.43457,543.359375 C201.680665,543.359375 201.891438,543.448241 202.066895,543.625977 C202.242351,543.803712 202.330078,544.013345 202.330078,544.254883 Z M198.563477,544.254883 C198.563477,544.500978 198.473471,544.709472 198.293457,544.880371 C198.113443,545.05127 197.904949,545.136719 197.667969,545.136719 C197.426431,545.136719 197.216798,545.050131 197.039062,544.876953 C196.861327,544.703775 196.772461,544.49642 196.772461,544.254883 C196.772461,544.013345 196.860188,543.803712 197.035645,543.625977 C197.211101,543.448241 197.421874,543.359375 197.667969,543.359375 C197.909506,543.359375 198.11914,543.448241 198.296875,543.625977 C198.47461,543.803712 198.563477,544.013345 198.563477,544.254883 Z M194.796875,544.254883 C194.796875,544.500978 194.706869,544.709472 194.526855,544.880371 C194.346842,545.05127 194.138348,545.136719 193.901367,545.136719 C193.65983,545.136719 193.450196,545.050131 193.272461,544.876953 C193.094726,544.703775 193.005859,544.49642 193.005859,544.254883 C193.005859,544.013345 193.093586,543.803712 193.269043,543.625977 C193.4445,543.448241 193.655272,543.359375 193.901367,543.359375 C194.142905,543.359375 194.352538,543.448241 194.530273,543.625977 C194.708009,543.803712 194.796875,544.013345 194.796875,544.254883 Z M213.629883,544.254883 C213.629883,544.49642 213.541017,544.703775 213.363281,544.876953 C213.185546,545.050131 212.975913,545.136719 212.734375,545.136719 C212.492837,545.136719 212.283204,545.050131 212.105469,544.876953 C211.927733,544.703775 211.838867,544.49642 211.838867,544.254883 C211.838867,544.013345 211.926594,543.803712 212.102051,543.625977 C212.277507,543.448241 212.48828,543.359375 212.734375,543.359375 C212.98047,543.359375 213.191243,543.448241 213.366699,543.625977 C213.542156,543.803712 213.629883,544.013345 213.629883,544.254883 Z M209.863281,544.254883 C209.863281,544.500978 209.773276,544.709472 209.593262,544.880371 C209.413248,545.05127 209.204754,545.136719 208.967773,545.136719 C208.726236,545.136719 208.516602,545.050131 208.338867,544.876953 C208.161132,544.703775 208.072266,544.49642 208.072266,544.254883 C208.072266,544.013345 208.159993,543.803712 208.335449,543.625977 C208.510906,543.448241 208.721678,543.359375 208.967773,543.359375 C209.209311,543.359375 209.418944,543.448241 209.59668,543.625977 C209.774415,543.803712 209.863281,544.013345 209.863281,544.254883 Z M206.09668,544.254883 C206.09668,544.500978 206.006674,544.709472 205.82666,544.880371 C205.646646,545.05127 205.438152,545.136719 205.201172,545.136719 C204.959634,545.136719 204.750001,545.050131 204.572266,544.876953 C204.39453,544.703775 204.305664,544.49642 204.305664,544.254883 C204.305664,544.013345 204.393391,543.803712 204.568848,543.625977 C204.744304,543.448241 204.955077,543.359375 205.201172,543.359375 C205.44271,543.359375 205.652343,543.448241 205.830078,543.625977 C206.007813,543.803712 206.09668,544.013345 206.09668,544.254883 Z M224.929688,544.254883 C224.929688,544.49642 224.840821,544.703775 224.663086,544.876953 C224.485351,545.050131 224.275717,545.136719 224.03418,545.136719 C223.792642,545.136719 223.583009,545.050131 223.405273,544.876953 C223.227538,544.703775 223.138672,544.49642 223.138672,544.254883 C223.138672,544.013345 223.226399,543.803712 223.401855,543.625977 C223.577312,543.448241 223.788085,543.359375 224.03418,543.359375 C224.280275,543.359375 224.491047,543.448241 224.666504,543.625977 C224.841961,543.803712 224.929688,544.013345 224.929688,544.254883 Z M221.163086,544.254883 C221.163086,544.500978 221.07308,544.709472 220.893066,544.880371 C220.713052,545.05127 220.504558,545.136719 220.267578,545.136719 C220.02604,545.136719 219.816407,545.050131 219.638672,544.876953 C219.460937,544.703775 219.37207,544.49642 219.37207,544.254883 C219.37207,544.013345 219.459797,543.803712 219.635254,543.625977 C219.810711,543.448241 220.021483,543.359375 220.267578,543.359375 C220.509116,543.359375 220.718749,543.448241 220.896484,543.625977 C221.07422,543.803712 221.163086,544.013345 221.163086,544.254883 Z M217.396484,544.254883 C217.396484,544.500978 217.306479,544.709472 217.126465,544.880371 C216.946451,545.05127 216.737957,545.136719 216.500977,545.136719 C216.259439,545.136719 216.049806,545.050131 215.87207,544.876953 C215.694335,544.703775 215.605469,544.49642 215.605469,544.254883 C215.605469,544.013345 215.693196,543.803712 215.868652,543.625977 C216.044109,543.448241 216.254882,543.359375 216.500977,543.359375 C216.742514,543.359375 216.952148,543.448241 217.129883,543.625977 C217.307618,543.803712 217.396484,544.013345 217.396484,544.254883 Z M236.229492,544.254883 C236.229492,544.49642 236.140626,544.703775 235.962891,544.876953 C235.785155,545.050131 235.575522,545.136719 235.333984,545.136719 C235.092447,545.136719 234.882813,545.050131 234.705078,544.876953 C234.527343,544.703775 234.438477,544.49642 234.438477,544.254883 C234.438477,544.013345 234.526204,543.803712 234.70166,543.625977 C234.877117,543.448241 235.087889,543.359375 235.333984,543.359375 C235.580079,543.359375 235.790852,543.448241 235.966309,543.625977 C236.141765,543.803712 236.229492,544.013345 236.229492,544.254883 Z M232.462891,544.254883 C232.462891,544.500978 232.372885,544.709472 232.192871,544.880371 C232.012857,545.05127 231.804363,545.136719 231.567383,545.136719 C231.325845,545.136719 231.116212,545.050131 230.938477,544.876953 C230.760741,544.703775 230.671875,544.49642 230.671875,544.254883 C230.671875,544.013345 230.759602,543.803712 230.935059,543.625977 C231.110515,543.448241 231.321288,543.359375 231.567383,543.359375 C231.80892,543.359375 232.018554,543.448241 232.196289,543.625977 C232.374024,543.803712 232.462891,544.013345 232.462891,544.254883 Z M228.696289,544.254883 C228.696289,544.500978 228.606283,544.709472 228.42627,544.880371 C228.246256,545.05127 228.037762,545.136719 227.800781,545.136719 C227.559244,545.136719 227.34961,545.050131 227.171875,544.876953 C226.99414,544.703775 226.905273,544.49642 226.905273,544.254883 C226.905273,544.013345 226.993,543.803712 227.168457,543.625977 C227.343914,543.448241 227.554686,543.359375 227.800781,543.359375 C228.042319,543.359375 228.251952,543.448241 228.429688,543.625977 C228.607423,543.803712 228.696289,544.013345 228.696289,544.254883 Z M247.529297,544.254883 C247.529297,544.49642 247.440431,544.703775 247.262695,544.876953 C247.08496,545.050131 246.875327,545.136719 246.633789,545.136719 C246.392251,545.136719 246.182618,545.050131 246.004883,544.876953 C245.827148,544.703775 245.738281,544.49642 245.738281,544.254883 C245.738281,544.013345 245.826008,543.803712 246.001465,543.625977 C246.176921,543.448241 246.387694,543.359375 246.633789,543.359375 C246.879884,543.359375 247.090657,543.448241 247.266113,543.625977 C247.44157,543.803712 247.529297,544.013345 247.529297,544.254883 Z M243.762695,544.254883 C243.762695,544.500978 243.67269,544.709472 243.492676,544.880371 C243.312662,545.05127 243.104168,545.136719 242.867188,545.136719 C242.62565,545.136719 242.416017,545.050131 242.238281,544.876953 C242.060546,544.703775 241.97168,544.49642 241.97168,544.254883 C241.97168,544.013345 242.059407,543.803712 242.234863,543.625977 C242.41032,543.448241 242.621093,543.359375 242.867188,543.359375 C243.108725,543.359375 243.318358,543.448241 243.496094,543.625977 C243.673829,543.803712 243.762695,544.013345 243.762695,544.254883 Z M239.996094,544.254883 C239.996094,544.500978 239.906088,544.709472 239.726074,544.880371 C239.54606,545.05127 239.337566,545.136719 239.100586,545.136719 C238.859048,545.136719 238.649415,545.050131 238.47168,544.876953 C238.293944,544.703775 238.205078,544.49642 238.205078,544.254883 C238.205078,544.013345 238.292805,543.803712 238.468262,543.625977 C238.643718,543.448241 238.854491,543.359375 239.100586,543.359375 C239.342124,543.359375 239.551757,543.448241 239.729492,543.625977 C239.907227,543.803712 239.996094,544.013345 239.996094,544.254883 Z M258.829102,544.254883 C258.829102,544.49642 258.740235,544.703775 258.5625,544.876953 C258.384765,545.050131 258.175131,545.136719 257.933594,545.136719 C257.692056,545.136719 257.482423,545.050131 257.304688,544.876953 C257.126952,544.703775 257.038086,544.49642 257.038086,544.254883 C257.038086,544.013345 257.125813,543.803712 257.30127,543.625977 C257.476726,543.448241 257.687499,543.359375 257.933594,543.359375 C258.179689,543.359375 258.390461,543.448241 258.565918,543.625977 C258.741375,543.803712 258.829102,544.013345 258.829102,544.254883 Z M255.0625,544.254883 C255.0625,544.500978 254.972494,544.709472 254.79248,544.880371 C254.612467,545.05127 254.403973,545.136719 254.166992,545.136719 C253.925455,545.136719 253.715821,545.050131 253.538086,544.876953 C253.360351,544.703775 253.271484,544.49642 253.271484,544.254883 C253.271484,544.013345 253.359211,543.803712 253.534668,543.625977 C253.710125,543.448241 253.920897,543.359375 254.166992,543.359375 C254.40853,543.359375 254.618163,543.448241 254.795898,543.625977 C254.973634,543.803712 255.0625,544.013345 255.0625,544.254883 Z M251.295898,544.254883 C251.295898,544.500978 251.205893,544.709472 251.025879,544.880371 C250.845865,545.05127 250.637371,545.136719 250.400391,545.136719 C250.158853,545.136719 249.94922,545.050131 249.771484,544.876953 C249.593749,544.703775 249.504883,544.49642 249.504883,544.254883 C249.504883,544.013345 249.59261,543.803712 249.768066,543.625977 C249.943523,543.448241 250.154296,543.359375 250.400391,543.359375 C250.641928,543.359375 250.851562,543.448241 251.029297,543.625977 C251.207032,543.803712 251.295898,544.013345 251.295898,544.254883 Z M270.128906,544.254883 C270.128906,544.49642 270.04004,544.703775 269.862305,544.876953 C269.684569,545.050131 269.474936,545.136719 269.233398,545.136719 C268.991861,545.136719 268.782227,545.050131 268.604492,544.876953 C268.426757,544.703775 268.337891,544.49642 268.337891,544.254883 C268.337891,544.013345 268.425618,543.803712 268.601074,543.625977 C268.776531,543.448241 268.987303,543.359375 269.233398,543.359375 C269.479493,543.359375 269.690266,543.448241 269.865723,543.625977 C270.041179,543.803712 270.128906,544.013345 270.128906,544.254883 Z M266.362305,544.254883 C266.362305,544.500978 266.272299,544.709472 266.092285,544.880371 C265.912271,545.05127 265.703777,545.136719 265.466797,545.136719 C265.225259,545.136719 265.015626,545.050131 264.837891,544.876953 C264.660155,544.703775 264.571289,544.49642 264.571289,544.254883 C264.571289,544.013345 264.659016,543.803712 264.834473,543.625977 C265.009929,543.448241 265.220702,543.359375 265.466797,543.359375 C265.708335,543.359375 265.917968,543.448241 266.095703,543.625977 C266.273438,543.803712 266.362305,544.013345 266.362305,544.254883 Z M262.595703,544.254883 C262.595703,544.500978 262.505698,544.709472 262.325684,544.880371 C262.14567,545.05127 261.937176,545.136719 261.700195,545.136719 C261.458658,545.136719 261.249024,545.050131 261.071289,544.876953 C260.893554,544.703775 260.804688,544.49642 260.804688,544.254883 C260.804688,544.013345 260.892414,543.803712 261.067871,543.625977 C261.243328,543.448241 261.4541,543.359375 261.700195,543.359375 C261.941733,543.359375 262.151366,543.448241 262.329102,543.625977 C262.506837,543.803712 262.595703,544.013345 262.595703,544.254883 Z M281.428711,544.254883 C281.428711,544.49642 281.339845,544.703775 281.162109,544.876953 C280.984374,545.050131 280.774741,545.136719 280.533203,545.136719 C280.291665,545.136719 280.082032,545.050131 279.904297,544.876953 C279.726562,544.703775 279.637695,544.49642 279.637695,544.254883 C279.637695,544.013345 279.725422,543.803712 279.900879,543.625977 C280.076336,543.448241 280.287108,543.359375 280.533203,543.359375 C280.779298,543.359375 280.990071,543.448241 281.165527,543.625977 C281.340984,543.803712 281.428711,544.013345 281.428711,544.254883 Z M277.662109,544.254883 C277.662109,544.500978 277.572104,544.709472 277.39209,544.880371 C277.212076,545.05127 277.003582,545.136719 276.766602,545.136719 C276.525064,545.136719 276.315431,545.050131 276.137695,544.876953 C275.95996,544.703775 275.871094,544.49642 275.871094,544.254883 C275.871094,544.013345 275.958821,543.803712 276.134277,543.625977 C276.309734,543.448241 276.520507,543.359375 276.766602,543.359375 C277.008139,543.359375 277.217773,543.448241 277.395508,543.625977 C277.573243,543.803712 277.662109,544.013345 277.662109,544.254883 Z M273.895508,544.254883 C273.895508,544.500978 273.805502,544.709472 273.625488,544.880371 C273.445474,545.05127 273.23698,545.136719 273,545.136719 C272.758462,545.136719 272.548829,545.050131 272.371094,544.876953 C272.193358,544.703775 272.104492,544.49642 272.104492,544.254883 C272.104492,544.013345 272.192219,543.803712 272.367676,543.625977 C272.543132,543.448241 272.753905,543.359375 273,543.359375 C273.241538,543.359375 273.451171,543.448241 273.628906,543.625977 C273.806642,543.803712 273.895508,544.013345 273.895508,544.254883 Z M292.728516,544.254883 C292.728516,544.49642 292.639649,544.703775 292.461914,544.876953 C292.284179,545.050131 292.074545,545.136719 291.833008,545.136719 C291.59147,545.136719 291.381837,545.050131 291.204102,544.876953 C291.026366,544.703775 290.9375,544.49642 290.9375,544.254883 C290.9375,544.013345 291.025227,543.803712 291.200684,543.625977 C291.37614,543.448241 291.586913,543.359375 291.833008,543.359375 C292.079103,543.359375 292.289875,543.448241 292.465332,543.625977 C292.640789,543.803712 292.728516,544.013345 292.728516,544.254883 Z M288.961914,544.254883 C288.961914,544.500978 288.871908,544.709472 288.691895,544.880371 C288.511881,545.05127 288.303387,545.136719 288.066406,545.136719 C287.824869,545.136719 287.615235,545.050131 287.4375,544.876953 C287.259765,544.703775 287.170898,544.49642 287.170898,544.254883 C287.170898,544.013345 287.258625,543.803712 287.434082,543.625977 C287.609539,543.448241 287.820311,543.359375 288.066406,543.359375 C288.307944,543.359375 288.517577,543.448241 288.695312,543.625977 C288.873048,543.803712 288.961914,544.013345 288.961914,544.254883 Z M285.195312,544.254883 C285.195312,544.500978 285.105307,544.709472 284.925293,544.880371 C284.745279,545.05127 284.536785,545.136719 284.299805,545.136719 C284.058267,545.136719 283.848634,545.050131 283.670898,544.876953 C283.493163,544.703775 283.404297,544.49642 283.404297,544.254883 C283.404297,544.013345 283.492024,543.803712 283.66748,543.625977 C283.842937,543.448241 284.05371,543.359375 284.299805,543.359375 C284.541342,543.359375 284.750976,543.448241 284.928711,543.625977 C285.106446,543.803712 285.195312,544.013345 285.195312,544.254883 Z M304.02832,544.254883 C304.02832,544.49642 303.939454,544.703775 303.761719,544.876953 C303.583983,545.050131 303.37435,545.136719 303.132812,545.136719 C302.891275,545.136719 302.681642,545.050131 302.503906,544.876953 C302.326171,544.703775 302.237305,544.49642 302.237305,544.254883 C302.237305,544.013345 302.325032,543.803712 302.500488,543.625977 C302.675945,543.448241 302.886718,543.359375 303.132812,543.359375 C303.378907,543.359375 303.58968,543.448241 303.765137,543.625977 C303.940593,543.803712 304.02832,544.013345 304.02832,544.254883 Z M300.261719,544.254883 C300.261719,544.500978 300.171713,544.709472 299.991699,544.880371 C299.811685,545.05127 299.603191,545.136719 299.366211,545.136719 C299.124673,545.136719 298.91504,545.050131 298.737305,544.876953 C298.559569,544.703775 298.470703,544.49642 298.470703,544.254883 C298.470703,544.013345 298.55843,543.803712 298.733887,543.625977 C298.909343,543.448241 299.120116,543.359375 299.366211,543.359375 C299.607749,543.359375 299.817382,543.448241 299.995117,543.625977 C300.172852,543.803712 300.261719,544.013345 300.261719,544.254883 Z M296.495117,544.254883 C296.495117,544.500978 296.405112,544.709472 296.225098,544.880371 C296.045084,545.05127 295.83659,545.136719 295.599609,545.136719 C295.358072,545.136719 295.148438,545.050131 294.970703,544.876953 C294.792968,544.703775 294.704102,544.49642 294.704102,544.254883 C294.704102,544.013345 294.791829,543.803712 294.967285,543.625977 C295.142742,543.448241 295.353514,543.359375 295.599609,543.359375 C295.841147,543.359375 296.05078,543.448241 296.228516,543.625977 C296.406251,543.803712 296.495117,544.013345 296.495117,544.254883 Z M315.328125,544.254883 C315.328125,544.49642 315.239259,544.703775 315.061523,544.876953 C314.883788,545.050131 314.674155,545.136719 314.432617,545.136719 C314.19108,545.136719 313.981446,545.050131 313.803711,544.876953 C313.625976,544.703775 313.537109,544.49642 313.537109,544.254883 C313.537109,544.013345 313.624836,543.803712 313.800293,543.625977 C313.97575,543.448241 314.186522,543.359375 314.432617,543.359375 C314.678712,543.359375 314.889485,543.448241 315.064941,543.625977 C315.240398,543.803712 315.328125,544.013345 315.328125,544.254883 Z M311.561523,544.254883 C311.561523,544.500978 311.471518,544.709472 311.291504,544.880371 C311.11149,545.05127 310.902996,545.136719 310.666016,545.136719 C310.424478,545.136719 310.214845,545.050131 310.037109,544.876953 C309.859374,544.703775 309.770508,544.49642 309.770508,544.254883 C309.770508,544.013345 309.858235,543.803712 310.033691,543.625977 C310.209148,543.448241 310.419921,543.359375 310.666016,543.359375 C310.907553,543.359375 311.117187,543.448241 311.294922,543.625977 C311.472657,543.803712 311.561523,544.013345 311.561523,544.254883 Z M307.794922,544.254883 C307.794922,544.500978 307.704916,544.709472 307.524902,544.880371 C307.344888,545.05127 307.136394,545.136719 306.899414,545.136719 C306.657876,545.136719 306.448243,545.050131 306.270508,544.876953 C306.092773,544.703775 306.003906,544.49642 306.003906,544.254883 C306.003906,544.013345 306.091633,543.803712 306.26709,543.625977 C306.442546,543.448241 306.653319,543.359375 306.899414,543.359375 C307.140952,543.359375 307.350585,543.448241 307.52832,543.625977 C307.706056,543.803712 307.794922,544.013345 307.794922,544.254883 Z M319.128906,544.213867 C319.128906,544.469077 319.036622,544.686685 318.852051,544.866699 C318.66748,545.046713 318.447592,545.136719 318.192383,545.136719 C317.937173,545.136719 317.717286,545.046713 317.532715,544.866699 C317.348144,544.686685 317.255859,544.469077 317.255859,544.213867 C317.255859,543.958658 317.348144,543.73877 317.532715,543.554199 C317.717286,543.369628 317.937173,543.277344 318.192383,543.277344 C318.447592,543.277344 318.66748,543.369628 318.852051,543.554199 C319.036622,543.73877 319.128906,543.958658 319.128906,544.213867 Z" id="…………………………………………………………………………." fill="#DADFE7" fill-rule="nonzero"></path>
    </g>
</svg>