<?xml version="1.0" encoding="UTF-8"?>
<svg width="321px" height="546px" viewBox="0 0 321 546" version="1.1" xmlns="http://www.w3.org/2000/svg" xmlns:xlink="http://www.w3.org/1999/xlink">
    <!-- Generator: Sketch 54.1 (76490) - https://sketchapp.com -->
    <title>hongvan_overlay_start</title>
    <desc>Created with Sketch.</desc>
    <g id="hongvan_overlay_start" stroke="none" stroke-width="1" fill="none" fill-rule="evenodd" transform="translate(1.000000, 0.000000)">
        <path d="M0,4 L320,4 L320,546 L0,546 L0,4 Z M24.9987128,42.2187387 C22.237289,42.2187387 19.9987128,44.4573149 19.9987128,47.2187387 L19.9987128,513 C19.9987128,515.761424 22.237289,518 24.9987128,518 L295,518 C297.761424,518 300,515.761424 300,513 L300,47.2187387 C300,44.4573149 297.761424,42.2187387 295,42.2187387 L24.9987128,42.2187387 Z" id="Rectangle-3" fill="#ECF5FA"></path>
        <path d="M10.3177805,544.051471 C10.3177805,544.311276 10.2289756,544.534313 10.051363,544.720588 C9.87375048,544.906864 9.66426191,545 9.42289102,545 C9.18152014,545 8.97203156,544.906864 8.79441902,544.720588 C8.61680648,544.534313 8.52800155,544.311276 8.52800155,544.051471 C8.52800155,543.791665 8.61566796,543.566177 8.79100342,543.375 C8.96633887,543.183823 9.17696597,543.088235 9.42289102,543.088235 C9.66881608,543.088235 9.87944317,543.183823 10.0547786,543.375 C10.2301141,543.566177 10.3177805,543.791665 10.3177805,544.051471 Z M6.55377973,544.051471 C6.55377973,544.316178 6.46383626,544.54044 6.28394664,544.724265 C6.10405702,544.908089 5.89570697,545 5.65889025,545 C5.41751936,545 5.20803079,544.906864 5.03041825,544.720588 C4.85280571,544.534313 4.76400077,544.311276 4.76400077,544.051471 C4.76400077,543.791665 4.85166719,543.566177 5.02700264,543.375 C5.2023381,543.183823 5.41296519,543.088235 5.65889025,543.088235 C5.90026114,543.088235 6.10974971,543.183823 6.28736225,543.375 C6.46497479,543.566177 6.55377973,543.791665 6.55377973,544.051471 Z M2.78977895,544.051471 C2.78977895,544.316178 2.69983549,544.54044 2.51994587,544.724265 C2.34005624,544.908089 2.1317062,545 1.89488948,545 C1.65351859,545 1.44403002,544.906864 1.26641748,544.720588 C1.08880494,544.534313 1,544.311276 1,544.051471 C1,543.791665 1.08766641,543.566177 1.26300187,543.375 C1.43833732,543.183823 1.64896442,543.088235 1.89488948,543.088235 C2.13626036,543.088235 2.34574893,543.183823 2.52336147,543.375 C2.70097401,543.566177 2.78977895,543.791665 2.78977895,544.051471 Z M21.6097828,544.051471 C21.6097828,544.311276 21.5209779,544.534313 21.3433653,544.720588 C21.1657528,544.906864 20.9562642,545 20.7148933,545 C20.4735225,545 20.2640339,544.906864 20.0864213,544.720588 C19.9088088,544.534313 19.8200039,544.311276 19.8200039,544.051471 C19.8200039,543.791665 19.9076703,543.566177 20.0830057,543.375 C20.2583412,543.183823 20.4689683,543.088235 20.7148933,543.088235 C20.9608184,543.088235 21.1714455,543.183823 21.3467809,543.375 C21.5221164,543.566177 21.6097828,543.791665 21.6097828,544.051471 Z M17.845782,544.051471 C17.845782,544.316178 17.7558386,544.54044 17.575949,544.724265 C17.3960593,544.908089 17.1877093,545 16.9508926,545 C16.7095217,545 16.5000331,544.906864 16.3224206,544.720588 C16.144808,544.534313 16.0560031,544.311276 16.0560031,544.051471 C16.0560031,543.791665 16.1436695,543.566177 16.319005,543.375 C16.4943404,543.183823 16.7049675,543.088235 16.9508926,543.088235 C17.1922635,543.088235 17.401752,543.183823 17.5793646,543.375 C17.7569771,543.566177 17.845782,543.791665 17.845782,544.051471 Z M14.0817813,544.051471 C14.0817813,544.316178 13.9918378,544.54044 13.8119482,544.724265 C13.6320586,544.908089 13.4237085,545 13.1868918,545 C12.9455209,545 12.7360323,544.906864 12.5584198,544.720588 C12.3808073,544.534313 12.2920023,544.311276 12.2920023,544.051471 C12.2920023,543.791665 12.3796687,543.566177 12.5550042,543.375 C12.7303396,543.183823 12.9409667,543.088235 13.1868918,543.088235 C13.4282627,543.088235 13.6377513,543.183823 13.8153638,543.375 C13.9929763,543.566177 14.0817813,543.791665 14.0817813,544.051471 Z M32.9017851,544.051471 C32.9017851,544.311276 32.8129802,544.534313 32.6353677,544.720588 C32.4577551,544.906864 32.2482666,545 32.0068957,545 C31.7655248,545 31.5560362,544.906864 31.3784237,544.720588 C31.2008111,544.534313 31.1120062,544.311276 31.1120062,544.051471 C31.1120062,543.791665 31.1996726,543.566177 31.3750081,543.375 C31.5503435,543.183823 31.7609706,543.088235 32.0068957,543.088235 C32.2528207,543.088235 32.4634478,543.183823 32.6387833,543.375 C32.8141187,543.566177 32.9017851,543.791665 32.9017851,544.051471 Z M29.1377844,544.051471 C29.1377844,544.316178 29.0478409,544.54044 28.8679513,544.724265 C28.6880617,544.908089 28.4797116,545 28.2428949,545 C28.001524,545 27.7920354,544.906864 27.6144229,544.720588 C27.4368104,544.534313 27.3480054,544.311276 27.3480054,544.051471 C27.3480054,543.791665 27.4356718,543.566177 27.6110073,543.375 C27.7863427,543.183823 27.9969698,543.088235 28.2428949,543.088235 C28.4842658,543.088235 28.6937543,543.183823 28.8713669,543.375 C29.0489794,543.566177 29.1377844,543.791665 29.1377844,544.051471 Z M25.3737836,544.051471 C25.3737836,544.316178 25.2838401,544.54044 25.1039505,544.724265 C24.9240609,544.908089 24.7157108,545 24.4788941,545 C24.2375232,545 24.0280347,544.906864 23.8504221,544.720588 C23.6728096,544.534313 23.5840046,544.311276 23.5840046,544.051471 C23.5840046,543.791665 23.6716711,543.566177 23.8470065,543.375 C24.022342,543.183823 24.2329691,543.088235 24.4788941,543.088235 C24.720265,543.088235 24.9297536,543.183823 25.1073661,543.375 C25.2849787,543.566177 25.3737836,543.791665 25.3737836,544.051471 Z M44.1937875,544.051471 C44.1937875,544.311276 44.1049825,544.534313 43.92737,544.720588 C43.7497574,544.906864 43.5402689,545 43.298898,545 C43.0575271,545 42.8480385,544.906864 42.670426,544.720588 C42.4928134,544.534313 42.4040085,544.311276 42.4040085,544.051471 C42.4040085,543.791665 42.4916749,543.566177 42.6670104,543.375 C42.8423458,543.183823 43.0529729,543.088235 43.298898,543.088235 C43.544823,543.088235 43.7554501,543.183823 43.9307856,543.375 C44.106121,543.566177 44.1937875,543.791665 44.1937875,544.051471 Z M40.4297867,544.051471 C40.4297867,544.316178 40.3398432,544.54044 40.1599536,544.724265 C39.980064,544.908089 39.7717139,545 39.5348972,545 C39.2935263,545 39.0840378,544.906864 38.9064252,544.720588 C38.7288127,544.534313 38.6400077,544.311276 38.6400077,544.051471 C38.6400077,543.791665 38.7276741,543.566177 38.9030096,543.375 C39.0783451,543.183823 39.2889722,543.088235 39.5348972,543.088235 C39.7762681,543.088235 39.9857567,543.183823 40.1633692,543.375 C40.3409817,543.566177 40.4297867,543.791665 40.4297867,544.051471 Z M36.6657859,544.051471 C36.6657859,544.316178 36.5758424,544.54044 36.3959528,544.724265 C36.2160632,544.908089 36.0077132,545 35.7708964,545 C35.5295255,545 35.320037,544.906864 35.1424244,544.720588 C34.9648119,544.534313 34.876007,544.311276 34.876007,544.051471 C34.876007,543.791665 34.9636734,543.566177 35.1390088,543.375 C35.3143443,543.183823 35.5249714,543.088235 35.7708964,543.088235 C36.0122673,543.088235 36.2217559,543.183823 36.3993684,543.375 C36.576981,543.566177 36.6657859,543.791665 36.6657859,544.051471 Z M55.4857898,544.051471 C55.4857898,544.311276 55.3969848,544.534313 55.2193723,544.720588 C55.0417598,544.906864 54.8322712,545 54.5909003,545 C54.3495294,545 54.1400408,544.906864 53.9624283,544.720588 C53.7848158,544.534313 53.6960108,544.311276 53.6960108,544.051471 C53.6960108,543.791665 53.7836772,543.566177 53.9590127,543.375 C54.1343482,543.183823 54.3449752,543.088235 54.5909003,543.088235 C54.8368254,543.088235 55.0474525,543.183823 55.2227879,543.375 C55.3981234,543.566177 55.4857898,543.791665 55.4857898,544.051471 Z M51.721789,544.051471 C51.721789,544.316178 51.6318455,544.54044 51.4519559,544.724265 C51.2720663,544.908089 51.0637162,545 50.8268995,545 C50.5855286,545 50.3760401,544.906864 50.1984275,544.720588 C50.020815,544.534313 49.9320101,544.311276 49.9320101,544.051471 C49.9320101,543.791665 50.0196765,543.566177 50.1950119,543.375 C50.3703474,543.183823 50.5809745,543.088235 50.8268995,543.088235 C51.0682704,543.088235 51.277759,543.183823 51.4553715,543.375 C51.6329841,543.566177 51.721789,543.791665 51.721789,544.051471 Z M47.9577882,544.051471 C47.9577882,544.316178 47.8678448,544.54044 47.6879551,544.724265 C47.5080655,544.908089 47.2997155,545 47.0628988,545 C46.8215279,545 46.6120393,544.906864 46.4344268,544.720588 C46.2568142,544.534313 46.1680093,544.311276 46.1680093,544.051471 C46.1680093,543.791665 46.2556757,543.566177 46.4310111,543.375 C46.6063466,543.183823 46.8169737,543.088235 47.0628988,543.088235 C47.3042696,543.088235 47.5137582,543.183823 47.6913708,543.375 C47.8689833,543.566177 47.9577882,543.791665 47.9577882,544.051471 Z M66.7777921,544.051471 C66.7777921,544.311276 66.6889872,544.534313 66.5113746,544.720588 C66.3337621,544.906864 66.1242735,545 65.8829026,545 C65.6415317,545 65.4320432,544.906864 65.2544306,544.720588 C65.0768181,544.534313 64.9880131,544.311276 64.9880131,544.051471 C64.9880131,543.791665 65.0756796,543.566177 65.251015,543.375 C65.4263505,543.183823 65.6369776,543.088235 65.8829026,543.088235 C66.1288277,543.088235 66.3394548,543.183823 66.5147902,543.375 C66.6901257,543.566177 66.7777921,543.791665 66.7777921,544.051471 Z M63.0137913,544.051471 C63.0137913,544.316178 62.9238479,544.54044 62.7439582,544.724265 C62.5640686,544.908089 62.3557186,545 62.1189018,545 C61.877531,545 61.6680424,544.906864 61.4904299,544.720588 C61.3128173,544.534313 61.2240124,544.311276 61.2240124,544.051471 C61.2240124,543.791665 61.3116788,543.566177 61.4870142,543.375 C61.6623497,543.183823 61.8729768,543.088235 62.1189018,543.088235 C62.3602727,543.088235 62.5697613,543.183823 62.7473738,543.375 C62.9249864,543.566177 63.0137913,543.791665 63.0137913,544.051471 Z M59.2497906,544.051471 C59.2497906,544.316178 59.1598471,544.54044 58.9799575,544.724265 C58.8000678,544.908089 58.5917178,545 58.3549011,545 C58.1135302,545 57.9040416,544.906864 57.7264291,544.720588 C57.5488165,544.534313 57.4600116,544.311276 57.4600116,544.051471 C57.4600116,543.791665 57.547678,543.566177 57.7230135,543.375 C57.8983489,543.183823 58.108976,543.088235 58.3549011,543.088235 C58.596272,543.088235 58.8057605,543.183823 58.9833731,543.375 C59.1609856,543.566177 59.2497906,543.791665 59.2497906,544.051471 Z M78.0697944,544.051471 C78.0697944,544.311276 77.9809895,544.534313 77.8033769,544.720588 C77.6257644,544.906864 77.4162758,545 77.1749049,545 C76.9335341,545 76.7240455,544.906864 76.5464329,544.720588 C76.3688204,544.534313 76.2800155,544.311276 76.2800155,544.051471 C76.2800155,543.791665 76.3676819,543.566177 76.5430173,543.375 C76.7183528,543.183823 76.9289799,543.088235 77.1749049,543.088235 C77.42083,543.088235 77.6314571,543.183823 77.8067926,543.375 C77.982128,543.566177 78.0697944,543.791665 78.0697944,544.051471 Z M74.3057936,544.051471 C74.3057936,544.316178 74.2158502,544.54044 74.0359606,544.724265 C73.8560709,544.908089 73.6477209,545 73.4109042,545 C73.1695333,545 72.9600447,544.906864 72.7824322,544.720588 C72.6048196,544.534313 72.5160147,544.311276 72.5160147,544.051471 C72.5160147,543.791665 72.6036811,543.566177 72.7790166,543.375 C72.954352,543.183823 73.1649791,543.088235 73.4109042,543.088235 C73.6522751,543.088235 73.8617636,543.183823 74.0393762,543.375 C74.2169887,543.566177 74.3057936,543.791665 74.3057936,544.051471 Z M70.5417929,544.051471 C70.5417929,544.316178 70.4518494,544.54044 70.2719598,544.724265 C70.0920702,544.908089 69.8837201,545 69.6469034,545 C69.4055325,545 69.1960439,544.906864 69.0184314,544.720588 C68.8408189,544.534313 68.7520139,544.311276 68.7520139,544.051471 C68.7520139,543.791665 68.8396803,543.566177 69.0150158,543.375 C69.1903512,543.183823 69.4009783,543.088235 69.6469034,543.088235 C69.8882743,543.088235 70.0977629,543.183823 70.2753754,543.375 C70.4529879,543.566177 70.5417929,543.791665 70.5417929,544.051471 Z M89.3617967,544.051471 C89.3617967,544.311276 89.2729918,544.534313 89.0953793,544.720588 C88.9177667,544.906864 88.7082782,545 88.4669073,545 C88.2255364,545 88.0160478,544.906864 87.8384353,544.720588 C87.6608227,544.534313 87.5720178,544.311276 87.5720178,544.051471 C87.5720178,543.791665 87.6596842,543.566177 87.8350197,543.375 C88.0103551,543.183823 88.2209822,543.088235 88.4669073,543.088235 C88.7128323,543.088235 88.9234594,543.183823 89.0987949,543.375 C89.2741303,543.566177 89.3617967,543.791665 89.3617967,544.051471 Z M85.597796,544.051471 C85.597796,544.316178 85.5078525,544.54044 85.3279629,544.724265 C85.1480733,544.908089 84.9397232,545 84.7029065,545 C84.4615356,545 84.252047,544.906864 84.0744345,544.720588 C83.896822,544.534313 83.808017,544.311276 83.808017,544.051471 C83.808017,543.791665 83.8956834,543.566177 84.0710189,543.375 C84.2463543,543.183823 84.4569814,543.088235 84.7029065,543.088235 C84.9442774,543.088235 85.1537659,543.183823 85.3313785,543.375 C85.508991,543.566177 85.597796,543.791665 85.597796,544.051471 Z M81.8337952,544.051471 C81.8337952,544.316178 81.7438517,544.54044 81.5639621,544.724265 C81.3840725,544.908089 81.1757224,545 80.9389057,545 C80.6975348,545 80.4880463,544.906864 80.3104337,544.720588 C80.1328212,544.534313 80.0440162,544.311276 80.0440162,544.051471 C80.0440162,543.791665 80.1316827,543.566177 80.3070181,543.375 C80.4823536,543.183823 80.6929807,543.088235 80.9389057,543.088235 C81.1802766,543.088235 81.3897652,543.183823 81.5673777,543.375 C81.7449903,543.566177 81.8337952,543.791665 81.8337952,544.051471 Z M100.653799,544.051471 C100.653799,544.311276 100.564994,544.534313 100.387382,544.720588 C100.209769,544.906864 100.00028,545 99.7589096,545 C99.5175387,545 99.3080501,544.906864 99.1304376,544.720588 C98.952825,544.534313 98.8640201,544.311276 98.8640201,544.051471 C98.8640201,543.791665 98.9516865,543.566177 99.127022,543.375 C99.3023574,543.183823 99.5129845,543.088235 99.7589096,543.088235 C100.004835,543.088235 100.215462,543.183823 100.390797,543.375 C100.566133,543.566177 100.653799,543.791665 100.653799,544.051471 Z M96.8897983,544.051471 C96.8897983,544.316178 96.7998548,544.54044 96.6199652,544.724265 C96.4400756,544.908089 96.2317255,545 95.9949088,545 C95.7535379,545 95.5440494,544.906864 95.3664368,544.720588 C95.1888243,544.534313 95.1000193,544.311276 95.1000193,544.051471 C95.1000193,543.791665 95.1876857,543.566177 95.3630212,543.375 C95.5383567,543.183823 95.7489838,543.088235 95.9949088,543.088235 C96.2362797,543.088235 96.4457683,543.183823 96.6233808,543.375 C96.8009933,543.566177 96.8897983,543.791665 96.8897983,544.051471 Z M93.1257975,544.051471 C93.1257975,544.316178 93.035854,544.54044 92.8559644,544.724265 C92.6760748,544.908089 92.4677248,545 92.230908,545 C91.9895371,545 91.7800486,544.906864 91.602436,544.720588 C91.4248235,544.534313 91.3360186,544.311276 91.3360186,544.051471 C91.3360186,543.791665 91.423685,543.566177 91.5990204,543.375 C91.7743559,543.183823 91.984983,543.088235 92.230908,543.088235 C92.4722789,543.088235 92.6817675,543.183823 92.85938,543.375 C93.0369926,543.566177 93.1257975,543.791665 93.1257975,544.051471 Z M111.945801,544.051471 C111.945801,544.311276 111.856996,544.534313 111.679384,544.720588 C111.501771,544.906864 111.292283,545 111.050912,545 C110.809541,545 110.600052,544.906864 110.42244,544.720588 C110.244827,544.534313 110.156022,544.311276 110.156022,544.051471 C110.156022,543.791665 110.243689,543.566177 110.419024,543.375 C110.59436,543.183823 110.804987,543.088235 111.050912,543.088235 C111.296837,543.088235 111.507464,543.183823 111.6828,543.375 C111.858135,543.566177 111.945801,543.791665 111.945801,544.051471 Z M108.181801,544.051471 C108.181801,544.316178 108.091857,544.54044 107.911968,544.724265 C107.732078,544.908089 107.523728,545 107.286911,545 C107.04554,545 106.836052,544.906864 106.658439,544.720588 C106.480827,544.534313 106.392022,544.311276 106.392022,544.051471 C106.392022,543.791665 106.479688,543.566177 106.655024,543.375 C106.830359,543.183823 107.040986,543.088235 107.286911,543.088235 C107.528282,543.088235 107.737771,543.183823 107.915383,543.375 C108.092996,543.566177 108.181801,543.791665 108.181801,544.051471 Z M104.4178,544.051471 C104.4178,544.316178 104.327856,544.54044 104.147967,544.724265 C103.968077,544.908089 103.759727,545 103.52291,545 C103.281539,545 103.072051,544.906864 102.894438,544.720588 C102.716826,544.534313 102.628021,544.311276 102.628021,544.051471 C102.628021,543.791665 102.715687,543.566177 102.891023,543.375 C103.066358,543.183823 103.276985,543.088235 103.52291,543.088235 C103.764281,543.088235 103.97377,543.183823 104.151382,543.375 C104.328995,543.566177 104.4178,543.791665 104.4178,544.051471 Z M123.237804,544.051471 C123.237804,544.311276 123.148999,544.534313 122.971386,544.720588 C122.793774,544.906864 122.584285,545 122.342914,545 C122.101543,545 121.892055,544.906864 121.714442,544.720588 C121.53683,544.534313 121.448025,544.311276 121.448025,544.051471 C121.448025,543.791665 121.535691,543.566177 121.711027,543.375 C121.886362,543.183823 122.096989,543.088235 122.342914,543.088235 C122.588839,543.088235 122.799466,543.183823 122.974802,543.375 C123.150137,543.566177 123.237804,543.791665 123.237804,544.051471 Z M119.473803,544.051471 C119.473803,544.316178 119.383859,544.54044 119.20397,544.724265 C119.02408,544.908089 118.81573,545 118.578913,545 C118.337543,545 118.128054,544.906864 117.950441,544.720588 C117.772829,544.534313 117.684024,544.311276 117.684024,544.051471 C117.684024,543.791665 117.77169,543.566177 117.947026,543.375 C118.122361,543.183823 118.332988,543.088235 118.578913,543.088235 C118.820284,543.088235 119.029773,543.183823 119.207385,543.375 C119.384998,543.566177 119.473803,543.791665 119.473803,544.051471 Z M115.709802,544.051471 C115.709802,544.316178 115.619859,544.54044 115.439969,544.724265 C115.260079,544.908089 115.051729,545 114.814913,545 C114.573542,545 114.364053,544.906864 114.186441,544.720588 C114.008828,544.534313 113.920023,544.311276 113.920023,544.051471 C113.920023,543.791665 114.00769,543.566177 114.183025,543.375 C114.358361,543.183823 114.568988,543.088235 114.814913,543.088235 C115.056284,543.088235 115.265772,543.183823 115.443385,543.375 C115.620997,543.566177 115.709802,543.791665 115.709802,544.051471 Z M134.529806,544.051471 C134.529806,544.311276 134.441001,544.534313 134.263389,544.720588 C134.085776,544.906864 133.876287,545 133.634917,545 C133.393546,545 133.184057,544.906864 133.006445,544.720588 C132.828832,544.534313 132.740027,544.311276 132.740027,544.051471 C132.740027,543.791665 132.827693,543.566177 133.003029,543.375 C133.178364,543.183823 133.388991,543.088235 133.634917,543.088235 C133.880842,543.088235 134.091469,543.183823 134.266804,543.375 C134.44214,543.566177 134.529806,543.791665 134.529806,544.051471 Z M130.765805,544.051471 C130.765805,544.316178 130.675862,544.54044 130.495972,544.724265 C130.316083,544.908089 130.107732,545 129.870916,545 C129.629545,545 129.420056,544.906864 129.242444,544.720588 C129.064831,544.534313 128.976026,544.311276 128.976026,544.051471 C128.976026,543.791665 129.063693,543.566177 129.239028,543.375 C129.414364,543.183823 129.624991,543.088235 129.870916,543.088235 C130.112287,543.088235 130.321775,543.183823 130.499388,543.375 C130.677,543.566177 130.765805,543.791665 130.765805,544.051471 Z M127.001804,544.051471 C127.001804,544.316178 126.911861,544.54044 126.731971,544.724265 C126.552082,544.908089 126.343732,545 126.106915,545 C125.865544,545 125.656056,544.906864 125.478443,544.720588 C125.30083,544.534313 125.212026,544.311276 125.212026,544.051471 C125.212026,543.791665 125.299692,543.566177 125.475027,543.375 C125.650363,543.183823 125.86099,543.088235 126.106915,543.088235 C126.348286,543.088235 126.557774,543.183823 126.735387,543.375 C126.913,543.566177 127.001804,543.791665 127.001804,544.051471 Z M145.821808,544.051471 C145.821808,544.311276 145.733003,544.534313 145.555391,544.720588 C145.377778,544.906864 145.16829,545 144.926919,545 C144.685548,545 144.476059,544.906864 144.298447,544.720588 C144.120834,544.534313 144.032029,544.311276 144.032029,544.051471 C144.032029,543.791665 144.119696,543.566177 144.295031,543.375 C144.470367,543.183823 144.680994,543.088235 144.926919,543.088235 C145.172844,543.088235 145.383471,543.183823 145.558806,543.375 C145.734142,543.566177 145.821808,543.791665 145.821808,544.051471 Z M142.057808,544.051471 C142.057808,544.316178 141.967864,544.54044 141.787974,544.724265 C141.608085,544.908089 141.399735,545 141.162918,545 C140.921547,545 140.712059,544.906864 140.534446,544.720588 C140.356834,544.534313 140.268029,544.311276 140.268029,544.051471 C140.268029,543.791665 140.355695,543.566177 140.53103,543.375 C140.706366,543.183823 140.916993,543.088235 141.162918,543.088235 C141.404289,543.088235 141.613778,543.183823 141.79139,543.375 C141.969003,543.566177 142.057808,543.791665 142.057808,544.051471 Z M138.293807,544.051471 C138.293807,544.316178 138.203863,544.54044 138.023974,544.724265 C137.844084,544.908089 137.635734,545 137.398917,545 C137.157546,545 136.948058,544.906864 136.770445,544.720588 C136.592833,544.534313 136.504028,544.311276 136.504028,544.051471 C136.504028,543.791665 136.591694,543.566177 136.76703,543.375 C136.942365,543.183823 137.152992,543.088235 137.398917,543.088235 C137.640288,543.088235 137.849777,543.183823 138.027389,543.375 C138.205002,543.566177 138.293807,543.791665 138.293807,544.051471 Z M157.113811,544.051471 C157.113811,544.311276 157.025006,544.534313 156.847393,544.720588 C156.669781,544.906864 156.460292,545 156.218921,545 C155.97755,545 155.768062,544.906864 155.590449,544.720588 C155.412837,544.534313 155.324032,544.311276 155.324032,544.051471 C155.324032,543.791665 155.411698,543.566177 155.587034,543.375 C155.762369,543.183823 155.972996,543.088235 156.218921,543.088235 C156.464846,543.088235 156.675473,543.183823 156.850809,543.375 C157.026144,543.566177 157.113811,543.791665 157.113811,544.051471 Z M153.34981,544.051471 C153.34981,544.316178 153.259866,544.54044 153.079977,544.724265 C152.900087,544.908089 152.691737,545 152.45492,545 C152.21355,545 152.004061,544.906864 151.826448,544.720588 C151.648836,544.534313 151.560031,544.311276 151.560031,544.051471 C151.560031,543.791665 151.647697,543.566177 151.823033,543.375 C151.998368,543.183823 152.208995,543.088235 152.45492,543.088235 C152.696291,543.088235 152.90578,543.183823 153.083392,543.375 C153.261005,543.566177 153.34981,543.791665 153.34981,544.051471 Z M149.585809,544.051471 C149.585809,544.316178 149.495866,544.54044 149.315976,544.724265 C149.136086,544.908089 148.927736,545 148.69092,545 C148.449549,545 148.24006,544.906864 148.062448,544.720588 C147.884835,544.534313 147.79603,544.311276 147.79603,544.051471 C147.79603,543.791665 147.883697,543.566177 148.059032,543.375 C148.234367,543.183823 148.444995,543.088235 148.69092,543.088235 C148.932291,543.088235 149.141779,543.183823 149.319392,543.375 C149.497004,543.566177 149.585809,543.791665 149.585809,544.051471 Z M168.405813,544.051471 C168.405813,544.311276 168.317008,544.534313 168.139396,544.720588 C167.961783,544.906864 167.752294,545 167.510924,545 C167.269553,545 167.060064,544.906864 166.882452,544.720588 C166.704839,544.534313 166.616034,544.311276 166.616034,544.051471 C166.616034,543.791665 166.7037,543.566177 166.879036,543.375 C167.054371,543.183823 167.264998,543.088235 167.510924,543.088235 C167.756849,543.088235 167.967476,543.183823 168.142811,543.375 C168.318147,543.566177 168.405813,543.791665 168.405813,544.051471 Z M164.641812,544.051471 C164.641812,544.316178 164.551869,544.54044 164.371979,544.724265 C164.192089,544.908089 163.983739,545 163.746923,545 C163.505552,545 163.296063,544.906864 163.118451,544.720588 C162.940838,544.534313 162.852033,544.311276 162.852033,544.051471 C162.852033,543.791665 162.9397,543.566177 163.115035,543.375 C163.290371,543.183823 163.500998,543.088235 163.746923,543.088235 C163.988294,543.088235 164.197782,543.183823 164.375395,543.375 C164.553007,543.566177 164.641812,543.791665 164.641812,544.051471 Z M160.877811,544.051471 C160.877811,544.316178 160.787868,544.54044 160.607978,544.724265 C160.428089,544.908089 160.219739,545 159.982922,545 C159.741551,545 159.532062,544.906864 159.35445,544.720588 C159.176837,544.534313 159.088032,544.311276 159.088032,544.051471 C159.088032,543.791665 159.175699,543.566177 159.351034,543.375 C159.52637,543.183823 159.736997,543.088235 159.982922,543.088235 C160.224293,543.088235 160.433781,543.183823 160.611394,543.375 C160.789006,543.566177 160.877811,543.791665 160.877811,544.051471 Z M179.697815,544.051471 C179.697815,544.311276 179.60901,544.534313 179.431398,544.720588 C179.253785,544.906864 179.044297,545 178.802926,545 C178.561555,545 178.352066,544.906864 178.174454,544.720588 C177.996841,544.534313 177.908036,544.311276 177.908036,544.051471 C177.908036,543.791665 177.995703,543.566177 178.171038,543.375 C178.346374,543.183823 178.557001,543.088235 178.802926,543.088235 C179.048851,543.088235 179.259478,543.183823 179.434813,543.375 C179.610149,543.566177 179.697815,543.791665 179.697815,544.051471 Z M175.933815,544.051471 C175.933815,544.316178 175.843871,544.54044 175.663981,544.724265 C175.484092,544.908089 175.275742,545 175.038925,545 C174.797554,545 174.588066,544.906864 174.410453,544.720588 C174.232841,544.534313 174.144036,544.311276 174.144036,544.051471 C174.144036,543.791665 174.231702,543.566177 174.407037,543.375 C174.582373,543.183823 174.793,543.088235 175.038925,543.088235 C175.280296,543.088235 175.489785,543.183823 175.667397,543.375 C175.84501,543.566177 175.933815,543.791665 175.933815,544.051471 Z M172.169814,544.051471 C172.169814,544.316178 172.07987,544.54044 171.899981,544.724265 C171.720091,544.908089 171.511741,545 171.274924,545 C171.033553,545 170.824065,544.906864 170.646452,544.720588 C170.46884,544.534313 170.380035,544.311276 170.380035,544.051471 C170.380035,543.791665 170.467701,543.566177 170.643037,543.375 C170.818372,543.183823 171.028999,543.088235 171.274924,543.088235 C171.516295,543.088235 171.725784,543.183823 171.903396,543.375 C172.081009,543.566177 172.169814,543.791665 172.169814,544.051471 Z M190.989818,544.051471 C190.989818,544.311276 190.901013,544.534313 190.7234,544.720588 C190.545788,544.906864 190.336299,545 190.094928,545 C189.853557,545 189.644069,544.906864 189.466456,544.720588 C189.288844,544.534313 189.200039,544.311276 189.200039,544.051471 C189.200039,543.791665 189.287705,543.566177 189.463041,543.375 C189.638376,543.183823 189.849003,543.088235 190.094928,543.088235 C190.340853,543.088235 190.55148,543.183823 190.726816,543.375 C190.902151,543.566177 190.989818,543.791665 190.989818,544.051471 Z M187.225817,544.051471 C187.225817,544.316178 187.135873,544.54044 186.955984,544.724265 C186.776094,544.908089 186.567744,545 186.330927,545 C186.089556,545 185.880068,544.906864 185.702455,544.720588 C185.524843,544.534313 185.436038,544.311276 185.436038,544.051471 C185.436038,543.791665 185.523704,543.566177 185.69904,543.375 C185.874375,543.183823 186.085002,543.088235 186.330927,543.088235 C186.572298,543.088235 186.781787,543.183823 186.959399,543.375 C187.137012,543.566177 187.225817,543.791665 187.225817,544.051471 Z M183.461816,544.051471 C183.461816,544.316178 183.371873,544.54044 183.191983,544.724265 C183.012093,544.908089 182.803743,545 182.566927,545 C182.325556,545 182.116067,544.906864 181.938455,544.720588 C181.760842,544.534313 181.672037,544.311276 181.672037,544.051471 C181.672037,543.791665 181.759704,543.566177 181.935039,543.375 C182.110374,543.183823 182.321002,543.088235 182.566927,543.088235 C182.808297,543.088235 183.017786,543.183823 183.195399,543.375 C183.373011,543.566177 183.461816,543.791665 183.461816,544.051471 Z M202.28182,544.051471 C202.28182,544.311276 202.193015,544.534313 202.015402,544.720588 C201.83779,544.906864 201.628301,545 201.38693,545 C201.14556,545 200.936071,544.906864 200.758458,544.720588 C200.580846,544.534313 200.492041,544.311276 200.492041,544.051471 C200.492041,543.791665 200.579707,543.566177 200.755043,543.375 C200.930378,543.183823 201.141005,543.088235 201.38693,543.088235 C201.632856,543.088235 201.843483,543.183823 202.018818,543.375 C202.194154,543.566177 202.28182,543.791665 202.28182,544.051471 Z M198.517819,544.051471 C198.517819,544.316178 198.427876,544.54044 198.247986,544.724265 C198.068096,544.908089 197.859746,545 197.62293,545 C197.381559,545 197.17207,544.906864 196.994458,544.720588 C196.816845,544.534313 196.72804,544.311276 196.72804,544.051471 C196.72804,543.791665 196.815707,543.566177 196.991042,543.375 C197.166378,543.183823 197.377005,543.088235 197.62293,543.088235 C197.864301,543.088235 198.073789,543.183823 198.251402,543.375 C198.429014,543.566177 198.517819,543.791665 198.517819,544.051471 Z M194.753818,544.051471 C194.753818,544.316178 194.663875,544.54044 194.483985,544.724265 C194.304096,544.908089 194.095746,545 193.858929,545 C193.617558,545 193.408069,544.906864 193.230457,544.720588 C193.052844,544.534313 192.964039,544.311276 192.964039,544.051471 C192.964039,543.791665 193.051706,543.566177 193.227041,543.375 C193.402377,543.183823 193.613004,543.088235 193.858929,543.088235 C194.1003,543.088235 194.309788,543.183823 194.487401,543.375 C194.665013,543.566177 194.753818,543.791665 194.753818,544.051471 Z M213.573822,544.051471 C213.573822,544.311276 213.485017,544.534313 213.307405,544.720588 C213.129792,544.906864 212.920304,545 212.678933,545 C212.437562,545 212.228073,544.906864 212.050461,544.720588 C211.872848,544.534313 211.784043,544.311276 211.784043,544.051471 C211.784043,543.791665 211.87171,543.566177 212.047045,543.375 C212.222381,543.183823 212.433008,543.088235 212.678933,543.088235 C212.924858,543.088235 213.135485,543.183823 213.31082,543.375 C213.486156,543.566177 213.573822,543.791665 213.573822,544.051471 Z M209.809821,544.051471 C209.809821,544.316178 209.719878,544.54044 209.539988,544.724265 C209.360099,544.908089 209.151749,545 208.914932,545 C208.673561,545 208.464073,544.906864 208.28646,544.720588 C208.108847,544.534313 208.020043,544.311276 208.020043,544.051471 C208.020043,543.791665 208.107709,543.566177 208.283044,543.375 C208.45838,543.183823 208.669007,543.088235 208.914932,543.088235 C209.156303,543.088235 209.365791,543.183823 209.543404,543.375 C209.721017,543.566177 209.809821,543.791665 209.809821,544.051471 Z M206.045821,544.051471 C206.045821,544.316178 205.955877,544.54044 205.775988,544.724265 C205.596098,544.908089 205.387748,545 205.150931,545 C204.90956,545 204.700072,544.906864 204.522459,544.720588 C204.344847,544.534313 204.256042,544.311276 204.256042,544.051471 C204.256042,543.791665 204.343708,543.566177 204.519044,543.375 C204.694379,543.183823 204.905006,543.088235 205.150931,543.088235 C205.392302,543.088235 205.601791,543.183823 205.779403,543.375 C205.957016,543.566177 206.045821,543.791665 206.045821,544.051471 Z M224.865825,544.051471 C224.865825,544.311276 224.77702,544.534313 224.599407,544.720588 C224.421795,544.906864 224.212306,545 223.970935,545 C223.729564,545 223.520076,544.906864 223.342463,544.720588 C223.164851,544.534313 223.076046,544.311276 223.076046,544.051471 C223.076046,543.791665 223.163712,543.566177 223.339047,543.375 C223.514383,543.183823 223.72501,543.088235 223.970935,543.088235 C224.21686,543.088235 224.427487,543.183823 224.602823,543.375 C224.778158,543.566177 224.865825,543.791665 224.865825,544.051471 Z M221.101824,544.051471 C221.101824,544.316178 221.01188,544.54044 220.831991,544.724265 C220.652101,544.908089 220.443751,545 220.206934,545 C219.965563,545 219.756075,544.906864 219.578462,544.720588 C219.40085,544.534313 219.312045,544.311276 219.312045,544.051471 C219.312045,543.791665 219.399711,543.566177 219.575047,543.375 C219.750382,543.183823 219.961009,543.088235 220.206934,543.088235 C220.448305,543.088235 220.657794,543.183823 220.835406,543.375 C221.013019,543.566177 221.101824,543.791665 221.101824,544.051471 Z M217.337823,544.051471 C217.337823,544.316178 217.24788,544.54044 217.06799,544.724265 C216.8881,544.908089 216.67975,545 216.442934,545 C216.201563,545 215.992074,544.906864 215.814462,544.720588 C215.636849,544.534313 215.548044,544.311276 215.548044,544.051471 C215.548044,543.791665 215.63571,543.566177 215.811046,543.375 C215.986381,543.183823 216.197009,543.088235 216.442934,543.088235 C216.684304,543.088235 216.893793,543.183823 217.071406,543.375 C217.249018,543.566177 217.337823,543.791665 217.337823,544.051471 Z M236.157827,544.051471 C236.157827,544.311276 236.069022,544.534313 235.891409,544.720588 C235.713797,544.906864 235.504308,545 235.262937,545 C235.021567,545 234.812078,544.906864 234.634465,544.720588 C234.456853,544.534313 234.368048,544.311276 234.368048,544.051471 C234.368048,543.791665 234.455714,543.566177 234.63105,543.375 C234.806385,543.183823 235.017012,543.088235 235.262937,543.088235 C235.508862,543.088235 235.71949,543.183823 235.894825,543.375 C236.07016,543.566177 236.157827,543.791665 236.157827,544.051471 Z M232.393826,544.051471 C232.393826,544.316178 232.303883,544.54044 232.123993,544.724265 C231.944103,544.908089 231.735753,545 231.498937,545 C231.257566,545 231.048077,544.906864 230.870465,544.720588 C230.692852,544.534313 230.604047,544.311276 230.604047,544.051471 C230.604047,543.791665 230.691714,543.566177 230.867049,543.375 C231.042384,543.183823 231.253012,543.088235 231.498937,543.088235 C231.740308,543.088235 231.949796,543.183823 232.127409,543.375 C232.305021,543.566177 232.393826,543.791665 232.393826,544.051471 Z M228.629825,544.051471 C228.629825,544.316178 228.539882,544.54044 228.359992,544.724265 C228.180103,544.908089 227.971753,545 227.734936,545 C227.493565,545 227.284076,544.906864 227.106464,544.720588 C226.928851,544.534313 226.840046,544.311276 226.840046,544.051471 C226.840046,543.791665 226.927713,543.566177 227.103048,543.375 C227.278384,543.183823 227.489011,543.088235 227.734936,543.088235 C227.976307,543.088235 228.185795,543.183823 228.363408,543.375 C228.54102,543.566177 228.629825,543.791665 228.629825,544.051471 Z M247.449829,544.051471 C247.449829,544.311276 247.361024,544.534313 247.183412,544.720588 C247.005799,544.906864 246.796311,545 246.55494,545 C246.313569,545 246.10408,544.906864 245.926468,544.720588 C245.748855,544.534313 245.66005,544.311276 245.66005,544.051471 C245.66005,543.791665 245.747717,543.566177 245.923052,543.375 C246.098388,543.183823 246.309015,543.088235 246.55494,543.088235 C246.800865,543.088235 247.011492,543.183823 247.186827,543.375 C247.362163,543.566177 247.449829,543.791665 247.449829,544.051471 Z M243.685828,544.051471 C243.685828,544.316178 243.595885,544.54044 243.415995,544.724265 C243.236106,544.908089 243.027756,545 242.790939,545 C242.549568,545 242.34008,544.906864 242.162467,544.720588 C241.984854,544.534313 241.896049,544.311276 241.896049,544.051471 C241.896049,543.791665 241.983716,543.566177 242.159051,543.375 C242.334387,543.183823 242.545014,543.088235 242.790939,543.088235 C243.03231,543.088235 243.241798,543.183823 243.419411,543.375 C243.597024,543.566177 243.685828,543.791665 243.685828,544.051471 Z M239.921828,544.051471 C239.921828,544.316178 239.831884,544.54044 239.651995,544.724265 C239.472105,544.908089 239.263755,545 239.026938,545 C238.785567,545 238.576079,544.906864 238.398466,544.720588 C238.220854,544.534313 238.132049,544.311276 238.132049,544.051471 C238.132049,543.791665 238.219715,543.566177 238.395051,543.375 C238.570386,543.183823 238.781013,543.088235 239.026938,543.088235 C239.268309,543.088235 239.477798,543.183823 239.65541,543.375 C239.833023,543.566177 239.921828,543.791665 239.921828,544.051471 Z M258.741832,544.051471 C258.741832,544.311276 258.653027,544.534313 258.475414,544.720588 C258.297802,544.906864 258.088313,545 257.846942,545 C257.605571,545 257.396083,544.906864 257.21847,544.720588 C257.040858,544.534313 256.952053,544.311276 256.952053,544.051471 C256.952053,543.791665 257.039719,543.566177 257.215054,543.375 C257.39039,543.183823 257.601017,543.088235 257.846942,543.088235 C258.092867,543.088235 258.303494,543.183823 258.47883,543.375 C258.654165,543.566177 258.741832,543.791665 258.741832,544.051471 Z M254.977831,544.051471 C254.977831,544.316178 254.887887,544.54044 254.707998,544.724265 C254.528108,544.908089 254.319758,545 254.082941,545 C253.84157,545 253.632082,544.906864 253.454469,544.720588 C253.276857,544.534313 253.188052,544.311276 253.188052,544.051471 C253.188052,543.791665 253.275718,543.566177 253.451054,543.375 C253.626389,543.183823 253.837016,543.088235 254.082941,543.088235 C254.324312,543.088235 254.533801,543.183823 254.711413,543.375 C254.889026,543.566177 254.977831,543.791665 254.977831,544.051471 Z M251.21383,544.051471 C251.21383,544.316178 251.123887,544.54044 250.943997,544.724265 C250.764107,544.908089 250.555757,545 250.318941,545 C250.07757,545 249.868081,544.906864 249.690469,544.720588 C249.512856,544.534313 249.424051,544.311276 249.424051,544.051471 C249.424051,543.791665 249.511717,543.566177 249.687053,543.375 C249.862388,543.183823 250.073015,543.088235 250.318941,543.088235 C250.560311,543.088235 250.7698,543.183823 250.947413,543.375 C251.125025,543.566177 251.21383,543.791665 251.21383,544.051471 Z M270.033834,544.051471 C270.033834,544.311276 269.945029,544.534313 269.767416,544.720588 C269.589804,544.906864 269.380315,545 269.138944,545 C268.897573,545 268.688085,544.906864 268.510472,544.720588 C268.33286,544.534313 268.244055,544.311276 268.244055,544.051471 C268.244055,543.791665 268.331721,543.566177 268.507057,543.375 C268.682392,543.183823 268.893019,543.088235 269.138944,543.088235 C269.384869,543.088235 269.595497,543.183823 269.770832,543.375 C269.946167,543.566177 270.033834,543.791665 270.033834,544.051471 Z M266.269833,544.051471 C266.269833,544.316178 266.17989,544.54044 266,544.724265 C265.82011,544.908089 265.61176,545 265.374944,545 C265.133573,545 264.924084,544.906864 264.746472,544.720588 C264.568859,544.534313 264.480054,544.311276 264.480054,544.051471 C264.480054,543.791665 264.567721,543.566177 264.743056,543.375 C264.918391,543.183823 265.129019,543.088235 265.374944,543.088235 C265.616314,543.088235 265.825803,543.183823 266.003416,543.375 C266.181028,543.566177 266.269833,543.791665 266.269833,544.051471 Z M262.505832,544.051471 C262.505832,544.316178 262.415889,544.54044 262.235999,544.724265 C262.05611,544.908089 261.84776,545 261.610943,545 C261.369572,545 261.160083,544.906864 260.982471,544.720588 C260.804858,544.534313 260.716053,544.311276 260.716053,544.051471 C260.716053,543.791665 260.80372,543.566177 260.979055,543.375 C261.154391,543.183823 261.365018,543.088235 261.610943,543.088235 C261.852314,543.088235 262.061802,543.183823 262.239415,543.375 C262.417027,543.566177 262.505832,543.791665 262.505832,544.051471 Z M281.325836,544.051471 C281.325836,544.311276 281.237031,544.534313 281.059419,544.720588 C280.881806,544.906864 280.672318,545 280.430947,545 C280.189576,545 279.980087,544.906864 279.802475,544.720588 C279.624862,544.534313 279.536057,544.311276 279.536057,544.051471 C279.536057,543.791665 279.623724,543.566177 279.799059,543.375 C279.974395,543.183823 280.185022,543.088235 280.430947,543.088235 C280.676872,543.088235 280.887499,543.183823 281.062834,543.375 C281.23817,543.566177 281.325836,543.791665 281.325836,544.051471 Z M277.561835,544.051471 C277.561835,544.316178 277.471892,544.54044 277.292002,544.724265 C277.112113,544.908089 276.903763,545 276.666946,545 C276.425575,545 276.216086,544.906864 276.038474,544.720588 C275.860861,544.534313 275.772056,544.311276 275.772056,544.051471 C275.772056,543.791665 275.859723,543.566177 276.035058,543.375 C276.210394,543.183823 276.421021,543.088235 276.666946,543.088235 C276.908317,543.088235 277.117805,543.183823 277.295418,543.375 C277.47303,543.566177 277.561835,543.791665 277.561835,544.051471 Z M273.797835,544.051471 C273.797835,544.316178 273.707891,544.54044 273.528002,544.724265 C273.348112,544.908089 273.139762,545 272.902945,545 C272.661574,545 272.452086,544.906864 272.274473,544.720588 C272.096861,544.534313 272.008056,544.311276 272.008056,544.051471 C272.008056,543.791665 272.095722,543.566177 272.271058,543.375 C272.446393,543.183823 272.65702,543.088235 272.902945,543.088235 C273.144316,543.088235 273.353805,543.183823 273.531417,543.375 C273.70903,543.566177 273.797835,543.791665 273.797835,544.051471 Z M292.617838,544.051471 C292.617838,544.311276 292.529034,544.534313 292.351421,544.720588 C292.173808,544.906864 291.96432,545 291.722949,545 C291.481578,545 291.27209,544.906864 291.094477,544.720588 C290.916864,544.534313 290.82806,544.311276 290.82806,544.051471 C290.82806,543.791665 290.915726,543.566177 291.091061,543.375 C291.266397,543.183823 291.477024,543.088235 291.722949,543.088235 C291.968874,543.088235 292.179501,543.183823 292.354837,543.375 C292.530172,543.566177 292.617838,543.791665 292.617838,544.051471 Z M288.853838,544.051471 C288.853838,544.316178 288.763894,544.54044 288.584005,544.724265 C288.404115,544.908089 288.195765,545 287.958948,545 C287.717577,545 287.508089,544.906864 287.330476,544.720588 C287.152864,544.534313 287.064059,544.311276 287.064059,544.051471 C287.064059,543.791665 287.151725,543.566177 287.327061,543.375 C287.502396,543.183823 287.713023,543.088235 287.958948,543.088235 C288.200319,543.088235 288.409808,543.183823 288.58742,543.375 C288.765033,543.566177 288.853838,543.791665 288.853838,544.051471 Z M285.089837,544.051471 C285.089837,544.316178 284.999893,544.54044 284.820004,544.724265 C284.640114,544.908089 284.431764,545 284.194947,545 C283.953577,545 283.744088,544.906864 283.566475,544.720588 C283.388863,544.534313 283.300058,544.311276 283.300058,544.051471 C283.300058,543.791665 283.387724,543.566177 283.56306,543.375 C283.738395,543.183823 283.949022,543.088235 284.194947,543.088235 C284.436318,543.088235 284.645807,543.183823 284.823419,543.375 C285.001032,543.566177 285.089837,543.791665 285.089837,544.051471 Z M303.909841,544.051471 C303.909841,544.311276 303.821036,544.534313 303.643423,544.720588 C303.465811,544.906864 303.256322,545 303.014951,545 C302.77358,545 302.564092,544.906864 302.386479,544.720588 C302.208867,544.534313 302.120062,544.311276 302.120062,544.051471 C302.120062,543.791665 302.207728,543.566177 302.383064,543.375 C302.558399,543.183823 302.769026,543.088235 303.014951,543.088235 C303.260876,543.088235 303.471503,543.183823 303.646839,543.375 C303.822174,543.566177 303.909841,543.791665 303.909841,544.051471 Z M300.14584,544.051471 C300.14584,544.316178 300.055897,544.54044 299.876007,544.724265 C299.696117,544.908089 299.487767,545 299.250951,545 C299.00958,545 298.800091,544.906864 298.622479,544.720588 C298.444866,544.534313 298.356061,544.311276 298.356061,544.051471 C298.356061,543.791665 298.443728,543.566177 298.619063,543.375 C298.794398,543.183823 299.005026,543.088235 299.250951,543.088235 C299.492321,543.088235 299.70181,543.183823 299.879423,543.375 C300.057035,543.566177 300.14584,543.791665 300.14584,544.051471 Z M296.381839,544.051471 C296.381839,544.316178 296.291896,544.54044 296.112006,544.724265 C295.932117,544.908089 295.723767,545 295.48695,545 C295.245579,545 295.03609,544.906864 294.858478,544.720588 C294.680865,544.534313 294.59206,544.311276 294.59206,544.051471 C294.59206,543.791665 294.679727,543.566177 294.855062,543.375 C295.030398,543.183823 295.241025,543.088235 295.48695,543.088235 C295.728321,543.088235 295.937809,543.183823 296.115422,543.375 C296.293034,543.566177 296.381839,543.791665 296.381839,544.051471 Z M315.201843,544.051471 C315.201843,544.311276 315.113038,544.534313 314.935426,544.720588 C314.757813,544.906864 314.548325,545 314.306954,545 C314.065583,545 313.856094,544.906864 313.678482,544.720588 C313.500869,544.534313 313.412064,544.311276 313.412064,544.051471 C313.412064,543.791665 313.499731,543.566177 313.675066,543.375 C313.850402,543.183823 314.061029,543.088235 314.306954,543.088235 C314.552879,543.088235 314.763506,543.183823 314.938841,543.375 C315.114177,543.566177 315.201843,543.791665 315.201843,544.051471 Z M311.437842,544.051471 C311.437842,544.316178 311.347899,544.54044 311.168009,544.724265 C310.98812,544.908089 310.77977,545 310.542953,545 C310.301582,545 310.092093,544.906864 309.914481,544.720588 C309.736868,544.534313 309.648063,544.311276 309.648063,544.051471 C309.648063,543.791665 309.73573,543.566177 309.911065,543.375 C310.086401,543.183823 310.297028,543.088235 310.542953,543.088235 C310.784324,543.088235 310.993812,543.183823 311.171425,543.375 C311.349037,543.566177 311.437842,543.791665 311.437842,544.051471 Z M307.673842,544.051471 C307.673842,544.316178 307.583898,544.54044 307.404009,544.724265 C307.224119,544.908089 307.015769,545 306.778952,545 C306.537581,545 306.328093,544.906864 306.15048,544.720588 C305.972868,544.534313 305.884063,544.311276 305.884063,544.051471 C305.884063,543.791665 305.971729,543.566177 306.147065,543.375 C306.3224,543.183823 306.533027,543.088235 306.778952,543.088235 C307.020323,543.088235 307.229812,543.183823 307.407424,543.375 C307.585037,543.566177 307.673842,543.791665 307.673842,544.051471 Z M319,544.007353 C319,544.281864 318.907779,544.51593 318.723336,544.709559 C318.538892,544.903187 318.319157,545 318.064123,545 C317.80909,545 317.589355,544.903187 317.404911,544.709559 C317.220467,544.51593 317.128246,544.281864 317.128246,544.007353 C317.128246,543.732842 317.220467,543.496325 317.404911,543.297794 C317.589355,543.099264 317.80909,543 318.064123,543 C318.319157,543 318.538892,543.099264 318.723336,543.297794 C318.907779,543.496325 319,543.732842 319,544.007353 Z" id="…………………………………………………………………………." fill="#DADFE7" fill-rule="nonzero"></path>
        <path d="M3.04720534,1.0003845e-11 C3.01573507,0.166825717 3,0.339902531 3,0.519230769 C3,1.19872135 3.22884537,1.78204885 3.68654298,2.26923077 C4.14424058,2.75641269 4.68408094,3 5.30608025,3 C5.91634372,3 6.45325017,2.75961779 6.91681569,2.27884615 C7.38038122,1.79807452 7.6121605,1.21154192 7.6121605,0.519230769 C7.6121605,0.339902531 7.59622108,0.166825717 7.5643421,1.00044556e-11 L12.7468253,1.00044417e-11 C12.7153551,0.166825717 12.69962,0.339902531 12.69962,0.519230769 C12.69962,1.19872135 12.9284654,1.78204885 13.386163,2.26923077 C13.8438606,2.75641269 14.3837009,3 15.0057002,3 C15.6159637,3 16.1528702,2.75961779 16.6164357,2.27884615 C17.0800012,1.79807452 17.3117805,1.21154192 17.3117805,0.519230769 C17.3117805,0.339902531 17.2958411,0.166825717 17.2639621,1.00042336e-11 L22.4464453,1.00044417e-11 C22.414975,0.166825717 22.39924,0.339902531 22.39924,0.519230769 C22.39924,1.19872135 22.6280853,1.78204885 23.0857829,2.26923077 C23.5434805,2.75641269 24.0833209,3 24.7053202,3 C25.3273195,3 25.8671599,2.75641269 26.3248575,2.26923077 C26.7825551,1.78204885 27.0114005,1.19872135 27.0114005,0.519230769 C27.0114005,0.339902531 26.9956654,0.166825717 26.9641951,1.00042336e-11 L32.1460653,1.00044417e-11 C32.114595,0.166825717 32.09886,0.339902531 32.09886,0.519230769 C32.09886,1.19872135 32.3277053,1.78204885 32.7854029,2.26923077 C33.2431005,2.75641269 33.7829409,3 34.4049402,3 C35.0152037,3 35.5521101,2.75961779 36.0156756,2.27884615 C36.4792412,1.79807452 36.7110205,1.21154192 36.7110205,0.519230769 C36.7110205,0.339902531 36.695081,0.166825717 36.6632021,1.00042336e-11 L41.8456853,1.00044417e-11 C41.814215,0.166825717 41.7984799,0.339902531 41.7984799,0.519230769 C41.7984799,1.19872135 42.0273253,1.78204885 42.4850229,2.26923077 C42.9427205,2.75641269 43.4825609,3 44.1045602,3 C44.7148237,3 45.2517301,2.75961779 45.7152956,2.27884615 C46.1788612,1.79807452 46.4106404,1.21154192 46.4106404,0.519230769 C46.4106404,0.339902531 46.394701,0.166825717 46.362822,1.00042336e-11 L51.5453053,1.00044417e-11 C51.513835,0.166825717 51.4980999,0.339902531 51.4980999,0.519230769 C51.4980999,1.19872135 51.7269453,1.78204885 52.1846429,2.26923077 C52.6423405,2.75641269 53.1821809,3 53.8041802,3 C54.4261795,3 54.9660198,2.75641269 55.4237174,2.26923077 C55.8814151,1.78204885 56.1102604,1.19872135 56.1102604,0.519230769 C56.1102604,0.339902531 56.0945254,0.166825717 56.0630551,1.00042336e-11 L61.2449252,1.00044417e-11 C61.213455,0.166825717 61.1977199,0.339902531 61.1977199,0.519230769 C61.1977199,1.19872135 61.4265653,1.78204885 61.8842629,2.26923077 C62.3419605,2.75641269 62.8818008,3 63.5038002,3 C64.1140636,3 64.6509701,2.75961779 65.1145356,2.27884615 C65.5781011,1.79807452 65.8098804,1.21154192 65.8098804,0.519230769 C65.8098804,0.339902531 65.793941,0.166825717 65.762062,1.00044556e-11 L70.9445452,1.00044417e-11 C70.913075,0.166825717 70.8973399,0.339902531 70.8973399,0.519230769 C70.8973399,1.19872135 71.1261853,1.78204885 71.5838829,2.26923077 C72.0415805,2.75641269 72.5814208,3 73.2034201,3 C73.8136836,3 74.3505901,2.75961779 74.8141556,2.27884615 C75.2777211,1.79807452 75.5095004,1.21154192 75.5095004,0.519230769 C75.5095004,0.339902531 75.493561,0.166825717 75.461682,1.00044556e-11 L80.6441652,1.00044417e-11 C80.6126949,0.166825717 80.5969599,0.339902531 80.5969599,0.519230769 C80.5969599,1.19872135 80.8258052,1.78204885 81.2835029,2.26923077 C81.7412005,2.75641269 82.2810408,3 82.9030401,3 C83.5250394,3 84.0648798,2.75641269 84.5225774,2.26923077 C84.980275,1.78204885 85.2091204,1.19872135 85.2091204,0.519230769 C85.2091204,0.339902531 85.1933853,0.166825717 85.161915,1.00042336e-11 L90.3437852,1.00044417e-11 C90.3123149,0.166825717 90.2965799,0.339902531 90.2965799,0.519230769 C90.2965799,1.19872135 90.5254252,1.78204885 90.9831228,2.26923077 C91.4408204,2.75641269 91.9806608,3 92.6026601,3 C93.2129236,3 93.74983,2.75961779 94.2133956,2.27884615 C94.6769611,1.79807452 94.9087404,1.21154192 94.9087404,0.519230769 C94.9087404,0.339902531 94.8928009,0.166825717 94.860922,1.00042336e-11 L100.043405,1.00044417e-11 C100.011935,0.166825717 99.9961998,0.339902531 99.9961998,0.519230769 C99.9961998,1.19872135 100.225045,1.78204885 100.682743,2.26923077 C101.14044,2.75641269 101.680281,3 102.30228,3 C102.912544,3 103.44945,2.75961779 103.913016,2.27884615 C104.376581,1.79807452 104.60836,1.21154192 104.60836,0.519230769 C104.60836,0.339902531 104.592421,0.166825717 104.560542,1.00042336e-11 L109.743025,1.00044417e-11 C109.711555,0.166825717 109.69582,0.339902531 109.69582,0.519230769 C109.69582,1.19872135 109.924665,1.78204885 110.382363,2.26923077 C110.84006,2.75641269 111.379901,3 112.0019,3 C112.623899,3 113.16374,2.75641269 113.621437,2.26923077 C114.079135,1.78204885 114.30798,1.19872135 114.30798,0.519230769 C114.30798,0.339902531 114.292245,0.166825717 114.260775,9.9962677e-12 L119.442645,1.00044417e-11 C119.411175,0.166825717 119.39544,0.339902531 119.39544,0.519230769 C119.39544,1.19872135 119.624285,1.78204885 120.081983,2.26923077 C120.53968,2.75641269 121.079521,3 121.70152,3 C122.311784,3 122.84869,2.75961779 123.312256,2.27884615 C123.775821,1.79807452 124.0076,1.21154192 124.0076,0.519230769 C124.0076,0.339902531 123.991661,0.166825717 123.959782,1.00042336e-11 L129.142265,1.00044417e-11 C129.110795,0.166825717 129.09506,0.339902531 129.09506,0.519230769 C129.09506,1.19872135 129.323905,1.78204885 129.781603,2.26923077 C130.2393,2.75641269 130.779141,3 131.40114,3 C132.011404,3 132.54831,2.75961779 133.011875,2.27884615 C133.475441,1.79807452 133.70722,1.21154192 133.70722,0.519230769 C133.70722,0.339902531 133.691281,0.166825717 133.659402,1.00042336e-11 L138.841885,1.00044417e-11 C138.810415,0.166825717 138.79468,0.339902531 138.79468,0.519230769 C138.79468,1.19872135 139.023525,1.78204885 139.481223,2.26923077 C139.93892,2.75641269 140.478761,3 141.10076,3 C141.722759,3 142.2626,2.75641269 142.720297,2.26923077 C143.177995,1.78204885 143.40684,1.19872135 143.40684,0.519230769 C143.40684,0.339902531 143.391105,0.166825717 143.359635,9.96674965e-12 L148.541505,1.00044417e-11 C148.510035,0.166825717 148.4943,0.339902531 148.4943,0.519230769 C148.4943,1.19872135 148.723145,1.78204885 149.180843,2.26923077 C149.63854,2.75641269 150.178381,3 150.80038,3 C151.410643,3 151.94755,2.75961779 152.411115,2.27884615 C152.874681,1.79807452 153.10646,1.21154192 153.10646,0.519230769 C153.10646,0.339902531 153.090521,0.166825717 153.058642,1.00042336e-11 L158.241125,1.00044417e-11 C158.209655,0.166825717 158.19392,0.339902531 158.19392,0.519230769 C158.19392,1.19872135 158.422765,1.78204885 158.880463,2.26923077 C159.33816,2.75641269 159.878001,3 160.5,3 C161.110263,3 161.64717,2.75961779 162.110735,2.27884615 C162.574301,1.79807452 162.80608,1.21154192 162.80608,0.519230769 C162.80608,0.339902531 162.790141,0.166825717 162.758262,1.00120329e-11 L167.940745,1.00044417e-11 C167.909275,0.166825717 167.89354,0.339902531 167.89354,0.519230769 C167.89354,1.19872135 168.122385,1.78204885 168.580083,2.26923077 C169.03778,2.75641269 169.577621,3 170.19962,3 C170.821619,3 171.36146,2.75641269 171.819157,2.26923077 C172.276855,1.78204885 172.5057,1.19872135 172.5057,0.519230769 C172.5057,0.339902531 172.489965,0.166825717 172.458495,9.96674965e-12 L177.640365,1.00044417e-11 C177.608895,0.166825717 177.59316,0.339902531 177.59316,0.519230769 C177.59316,1.19872135 177.822005,1.78204885 178.279703,2.26923077 C178.7374,2.75641269 179.277241,3 179.89924,3 C180.509503,3 181.04641,2.75961779 181.509975,2.27884615 C181.973541,1.79807452 182.20532,1.21154192 182.20532,0.519230769 C182.20532,0.339902531 182.189381,0.166825717 182.157502,1.00044556e-11 L187.339985,1.00044417e-11 C187.308515,0.166825717 187.29278,0.339902531 187.29278,0.519230769 C187.29278,1.19872135 187.521625,1.78204885 187.979323,2.26923077 C188.43702,2.75641269 188.976861,3 189.59886,3 C190.209123,3 190.74603,2.75961779 191.209595,2.27884615 C191.673161,1.79807452 191.90494,1.21154192 191.90494,0.519230769 C191.90494,0.339902531 191.889001,0.166825717 191.857122,1.00042336e-11 L197.039605,1.00044417e-11 C197.008135,0.166825717 196.9924,0.339902531 196.9924,0.519230769 C196.9924,1.19872135 197.221245,1.78204885 197.678943,2.26923077 C198.13664,2.75641269 198.676481,3 199.29848,3 C199.920479,3 200.46032,2.75641269 200.918017,2.26923077 C201.375715,1.78204885 201.60456,1.19872135 201.60456,0.519230769 C201.60456,0.339902531 201.588825,0.166825717 201.557355,9.96674965e-12 L206.739225,1.00044417e-11 C206.707755,0.166825717 206.69202,0.339902531 206.69202,0.519230769 C206.69202,1.19872135 206.920865,1.78204885 207.378563,2.26923077 C207.83626,2.75641269 208.376101,3 208.9981,3 C209.608363,3 210.14527,2.75961779 210.608835,2.27884615 C211.072401,1.79807452 211.30418,1.21154192 211.30418,0.519230769 C211.30418,0.339902531 211.288241,0.166825717 211.256362,1.00042336e-11 L216.438845,1.00044417e-11 C216.407375,0.166825717 216.39164,0.339902531 216.39164,0.519230769 C216.39164,1.19872135 216.620485,1.78204885 217.078183,2.26923077 C217.53588,2.75641269 218.075721,3 218.69772,3 C219.307983,3 219.84489,2.75961779 220.308455,2.27884615 C220.772021,1.79807452 221.0038,1.21154192 221.0038,0.519230769 C221.0038,0.339902531 220.987861,0.166825717 220.955982,1.00042336e-11 L226.138465,1.00044417e-11 C226.106995,0.166825717 226.09126,0.339902531 226.09126,0.519230769 C226.09126,1.19872135 226.320105,1.78204885 226.777803,2.26923077 C227.2355,2.75641269 227.775341,3 228.39734,3 C229.019339,3 229.55918,2.75641269 230.016877,2.26923077 C230.474575,1.78204885 230.70342,1.19872135 230.70342,0.519230769 C230.70342,0.339902531 230.687685,0.166825717 230.656215,1.00042336e-11 L235.838085,1.00044417e-11 C235.806615,0.166825717 235.79088,0.339902531 235.79088,0.519230769 C235.79088,1.19872135 236.019725,1.78204885 236.477423,2.26923077 C236.93512,2.75641269 237.474961,3 238.09696,3 C238.707223,3 239.24413,2.75961779 239.707695,2.27884615 C240.171261,1.79807452 240.40304,1.21154192 240.40304,0.519230769 C240.40304,0.339902531 240.387101,0.166825717 240.355222,1.00223441e-11 L245.537705,1.00044417e-11 C245.506235,0.166825717 245.4905,0.339902531 245.4905,0.519230769 C245.4905,1.19872135 245.719345,1.78204885 246.177043,2.26923077 C246.63474,2.75641269 247.174581,3 247.79658,3 C248.406843,3 248.94375,2.75961779 249.407315,2.27884615 C249.870881,1.79807452 250.10266,1.21154192 250.10266,0.519230769 C250.10266,0.339902531 250.086721,0.166825717 250.054842,1.00120329e-11 L255.237325,1.00044417e-11 C255.205855,0.166825717 255.19012,0.339902531 255.19012,0.519230769 C255.19012,1.19872135 255.418965,1.78204885 255.876663,2.26923077 C256.33436,2.75641269 256.874201,3 257.4962,3 C258.118199,3 258.65804,2.75641269 259.115737,2.26923077 C259.573435,1.78204885 259.80228,1.19872135 259.80228,0.519230769 C259.80228,0.339902531 259.786545,0.166825717 259.755075,1.00042336e-11 L264.936945,1.00044417e-11 C264.905475,0.166825717 264.88974,0.339902531 264.88974,0.519230769 C264.88974,1.19872135 265.118585,1.78204885 265.576283,2.26923077 C266.03398,2.75641269 266.573821,3 267.19582,3 C267.806083,3 268.34299,2.75961779 268.806555,2.27884615 C269.270121,1.79807452 269.5019,1.21154192 269.5019,0.519230769 C269.5019,0.339902531 269.485961,0.166825717 269.454082,9.94844485e-12 L274.636565,1.00044417e-11 C274.605095,0.166825717 274.58936,0.339902531 274.58936,0.519230769 C274.58936,1.19872135 274.818205,1.78204885 275.275903,2.26923077 C275.7336,2.75641269 276.273441,3 276.89544,3 C277.505703,3 278.04261,2.75961779 278.506175,2.27884615 C278.969741,1.79807452 279.20152,1.21154192 279.20152,0.519230769 C279.20152,0.339902531 279.185581,0.166825717 279.153702,1.00044556e-11 L284.336185,1.00044417e-11 C284.304715,0.166825717 284.28898,0.339902531 284.28898,0.519230769 C284.28898,1.19872135 284.517825,1.78204885 284.975523,2.26923077 C285.43322,2.75641269 285.97306,3 286.59506,3 C287.217059,3 287.756899,2.75641269 288.214597,2.26923077 C288.672295,1.78204885 288.90114,1.19872135 288.90114,0.519230769 C288.90114,0.339902531 288.885405,0.166825717 288.853935,1.00042336e-11 L294.035805,1.00044417e-11 C294.004335,0.166825717 293.9886,0.339902531 293.9886,0.519230769 C293.9886,1.19872135 294.217445,1.78204885 294.675143,2.26923077 C295.13284,2.75641269 295.67268,3 296.29468,3 C296.904943,3 297.44185,2.75961779 297.905415,2.27884615 C298.368981,1.79807452 298.60076,1.21154192 298.60076,0.519230769 C298.60076,0.339902531 298.584821,0.166825717 298.552942,1.00044556e-11 L303.735425,1.00044417e-11 C303.703955,0.166825717 303.68822,0.339902531 303.68822,0.519230769 C303.68822,1.19872135 303.917065,1.78204885 304.374762,2.26923077 C304.83246,2.75641269 305.3723,3 305.9943,3 C306.604563,3 307.14147,2.75961779 307.605035,2.27884615 C308.068601,1.79807452 308.30038,1.21154192 308.30038,0.519230769 C308.30038,0.339902531 308.284441,0.166825717 308.252562,1.00042336e-11 L313.435045,1.00044417e-11 C313.403575,0.166825717 313.387839,0.339902531 313.387839,0.519230769 C313.387839,1.19872135 313.616685,1.78204885 314.074382,2.26923077 C314.53208,2.75641269 315.07192,3 315.69392,3 C316.315919,3 316.855759,2.75641269 317.313457,2.26923077 C317.771155,1.78204885 318,1.19872135 318,0.519230769 C318,0.339902531 317.984265,0.166825717 317.952795,1.00044556e-11 L320,1.00044417e-11 L320,4 L0,4 L0,1.00044417e-11 L3.04720534,1.00044417e-11 Z" id="Rectangle-2" fill="#ECF5FA"></path>
    </g>
</svg>