<?xml version="1.0" encoding="UTF-8"?>
<svg width="320px" height="558px" viewBox="0 0 320 558" version="1.1" xmlns="http://www.w3.org/2000/svg" xmlns:xlink="http://www.w3.org/1999/xlink">
    <!-- Generator: Sketch 54.1 (76490) - https://sketchapp.com -->
    <title>hongvan_overlay</title>
    <desc>Created with Sketch.</desc>
    <g id="hongvan_overlay" stroke="none" stroke-width="1" fill="none" fill-rule="evenodd">
        <path d="M-9.1944495e-05,-0.000731759581 L319.999908,-0.000731759581 L319.999908,557.999268 L-9.1944495e-05,557.999268 L-9.1944495e-05,-0.000731759581 Z M24.9986208,42.2180069 C22.2371971,42.2180069 19.9986208,44.4565832 19.9986208,47.2180069 L19.9986208,512.999268 C19.9986208,515.760692 22.2371971,517.999268 24.9986208,517.999268 L294.999908,517.999268 C297.761332,517.999268 299.999908,515.760692 299.999908,512.999268 L299.999908,47.2180069 C299.999908,44.4565832 297.761332,42.2180069 294.999908,42.2180069 L24.9986208,42.2180069 Z" id="Rectangle-3" fill="#ECF5FA"></path>
        <path d="M10.3242188,555.977539 C10.3242188,556.219077 10.2353525,556.426431 10.0576172,556.599609 C9.87988192,556.772787 9.6702486,556.859375 9.42871094,556.859375 C9.18717327,556.859375 8.97753995,556.772787 8.79980469,556.599609 C8.62206942,556.426431 8.53320312,556.219077 8.53320312,555.977539 C8.53320312,555.736001 8.62093011,555.526368 8.79638672,555.348633 C8.97184333,555.170898 9.18261596,555.082031 9.42871094,555.082031 C9.67480592,555.082031 9.88557855,555.170898 10.0610352,555.348633 C10.2364918,555.526368 10.3242188,555.736001 10.3242188,555.977539 Z M6.55761719,555.977539 C6.55761719,556.223634 6.46761158,556.432128 6.28759766,556.603027 C6.10758374,556.773927 5.89908973,556.859375 5.66210938,556.859375 C5.42057171,556.859375 5.21093839,556.772787 5.03320312,556.599609 C4.85546786,556.426431 4.76660156,556.219077 4.76660156,555.977539 C4.76660156,555.736001 4.85432855,555.526368 5.02978516,555.348633 C5.20524176,555.170898 5.41601439,555.082031 5.66210938,555.082031 C5.90364704,555.082031 6.11328036,555.170898 6.29101562,555.348633 C6.46875089,555.526368 6.55761719,555.736001 6.55761719,555.977539 Z M2.79101562,555.977539 C2.79101562,556.223634 2.70101001,556.432128 2.52099609,556.603027 C2.34098217,556.773927 2.13248816,556.859375 1.89550781,556.859375 C1.65397015,556.859375 1.44433683,556.772787 1.26660156,556.599609 C1.0888663,556.426431 1,556.219077 1,555.977539 C1,555.736001 1.08772699,555.526368 1.26318359,555.348633 C1.4386402,555.170898 1.64941283,555.082031 1.89550781,555.082031 C2.13704548,555.082031 2.3466788,555.170898 2.52441406,555.348633 C2.70214933,555.526368 2.79101562,555.736001 2.79101562,555.977539 Z M21.6240234,555.977539 C21.6240234,556.219077 21.5351571,556.426431 21.3574219,556.599609 C21.1796866,556.772787 20.9700533,556.859375 20.7285156,556.859375 C20.486978,556.859375 20.2773446,556.772787 20.0996094,556.599609 C19.9218741,556.426431 19.8330078,556.219077 19.8330078,555.977539 C19.8330078,555.736001 19.9207348,555.526368 20.0961914,555.348633 C20.271648,555.170898 20.4824206,555.082031 20.7285156,555.082031 C20.9746106,555.082031 21.1853832,555.170898 21.3608398,555.348633 C21.5362965,555.526368 21.6240234,555.736001 21.6240234,555.977539 Z M17.8574219,555.977539 C17.8574219,556.223634 17.7674163,556.432128 17.5874023,556.603027 C17.4073884,556.773927 17.1988944,556.859375 16.9619141,556.859375 C16.7203764,556.859375 16.5107431,556.772787 16.3330078,556.599609 C16.1552725,556.426431 16.0664062,556.219077 16.0664062,555.977539 C16.0664062,555.736001 16.1541332,555.526368 16.3295898,555.348633 C16.5050465,555.170898 16.7158191,555.082031 16.9619141,555.082031 C17.2034517,555.082031 17.413085,555.170898 17.5908203,555.348633 C17.7685556,555.526368 17.8574219,555.736001 17.8574219,555.977539 Z M14.0908203,555.977539 C14.0908203,556.223634 14.0008147,556.432128 13.8208008,556.603027 C13.6407869,556.773927 13.4322929,556.859375 13.1953125,556.859375 C12.9537748,556.859375 12.7441415,556.772787 12.5664062,556.599609 C12.388671,556.426431 12.2998047,556.219077 12.2998047,555.977539 C12.2998047,555.736001 12.3875317,555.526368 12.5629883,555.348633 C12.7384449,555.170898 12.9492175,555.082031 13.1953125,555.082031 C13.4368502,555.082031 13.6464835,555.170898 13.8242188,555.348633 C14.001954,555.526368 14.0908203,555.736001 14.0908203,555.977539 Z M32.9238281,555.977539 C32.9238281,556.219077 32.8349618,556.426431 32.6572266,556.599609 C32.4794913,556.772787 32.269858,556.859375 32.0283203,556.859375 C31.7867826,556.859375 31.5771493,556.772787 31.3994141,556.599609 C31.2216788,556.426431 31.1328125,556.219077 31.1328125,555.977539 C31.1328125,555.736001 31.2205395,555.526368 31.3959961,555.348633 C31.5714527,555.170898 31.7822253,555.082031 32.0283203,555.082031 C32.2744153,555.082031 32.4851879,555.170898 32.6606445,555.348633 C32.8361011,555.526368 32.9238281,555.736001 32.9238281,555.977539 Z M29.1572266,555.977539 C29.1572266,556.223634 29.067221,556.432128 28.887207,556.603027 C28.7071931,556.773927 28.4986991,556.859375 28.2617188,556.859375 C28.0201811,556.859375 27.8105478,556.772787 27.6328125,556.599609 C27.4550772,556.426431 27.3662109,556.219077 27.3662109,555.977539 C27.3662109,555.736001 27.4539379,555.526368 27.6293945,555.348633 C27.8048511,555.170898 28.0156238,555.082031 28.2617188,555.082031 C28.5032564,555.082031 28.7128897,555.170898 28.890625,555.348633 C29.0683603,555.526368 29.1572266,555.736001 29.1572266,555.977539 Z M25.390625,555.977539 C25.390625,556.223634 25.3006194,556.432128 25.1206055,556.603027 C24.9405915,556.773927 24.7320975,556.859375 24.4951172,556.859375 C24.2535795,556.859375 24.0439462,556.772787 23.8662109,556.599609 C23.6884757,556.426431 23.5996094,556.219077 23.5996094,555.977539 C23.5996094,555.736001 23.6873364,555.526368 23.862793,555.348633 C24.0382496,555.170898 24.2490222,555.082031 24.4951172,555.082031 C24.7366549,555.082031 24.9462882,555.170898 25.1240234,555.348633 C25.3017587,555.526368 25.390625,555.736001 25.390625,555.977539 Z M44.2236328,555.977539 C44.2236328,556.219077 44.1347665,556.426431 43.9570312,556.599609 C43.779296,556.772787 43.5696627,556.859375 43.328125,556.859375 C43.0865873,556.859375 42.876954,556.772787 42.6992188,556.599609 C42.5214835,556.426431 42.4326172,556.219077 42.4326172,555.977539 C42.4326172,555.736001 42.5203442,555.526368 42.6958008,555.348633 C42.8712574,555.170898 43.08203,555.082031 43.328125,555.082031 C43.57422,555.082031 43.7849926,555.170898 43.9604492,555.348633 C44.1359058,555.526368 44.2236328,555.736001 44.2236328,555.977539 Z M40.4570312,555.977539 C40.4570312,556.223634 40.3670256,556.432128 40.1870117,556.603027 C40.0069978,556.773927 39.7985038,556.859375 39.5615234,556.859375 C39.3199858,556.859375 39.1103525,556.772787 38.9326172,556.599609 C38.7548819,556.426431 38.6660156,556.219077 38.6660156,555.977539 C38.6660156,555.736001 38.7537426,555.526368 38.9291992,555.348633 C39.1046558,555.170898 39.3154285,555.082031 39.5615234,555.082031 C39.8030611,555.082031 40.0126944,555.170898 40.1904297,555.348633 C40.368165,555.526368 40.4570312,555.736001 40.4570312,555.977539 Z M36.6904297,555.977539 C36.6904297,556.223634 36.6004241,556.432128 36.4204102,556.603027 C36.2403962,556.773927 36.0319022,556.859375 35.7949219,556.859375 C35.5533842,556.859375 35.3437509,556.772787 35.1660156,556.599609 C34.9882804,556.426431 34.8994141,556.219077 34.8994141,555.977539 C34.8994141,555.736001 34.987141,555.526368 35.1625977,555.348633 C35.3380543,555.170898 35.5488269,555.082031 35.7949219,555.082031 C36.0364595,555.082031 36.2460929,555.170898 36.4238281,555.348633 C36.6015634,555.526368 36.6904297,555.736001 36.6904297,555.977539 Z M55.5234375,555.977539 C55.5234375,556.219077 55.4345712,556.426431 55.2568359,556.599609 C55.0791007,556.772787 54.8694674,556.859375 54.6279297,556.859375 C54.386392,556.859375 54.1767587,556.772787 53.9990234,556.599609 C53.8212882,556.426431 53.7324219,556.219077 53.7324219,555.977539 C53.7324219,555.736001 53.8201489,555.526368 53.9956055,555.348633 C54.1710621,555.170898 54.3818347,555.082031 54.6279297,555.082031 C54.8740247,555.082031 55.0847973,555.170898 55.2602539,555.348633 C55.4357105,555.526368 55.5234375,555.736001 55.5234375,555.977539 Z M51.7568359,555.977539 C51.7568359,556.223634 51.6668303,556.432128 51.4868164,556.603027 C51.3068025,556.773927 51.0983085,556.859375 50.8613281,556.859375 C50.6197905,556.859375 50.4101571,556.772787 50.2324219,556.599609 C50.0546866,556.426431 49.9658203,556.219077 49.9658203,555.977539 C49.9658203,555.736001 50.0535473,555.526368 50.2290039,555.348633 C50.4044605,555.170898 50.6152331,555.082031 50.8613281,555.082031 C51.1028658,555.082031 51.3124991,555.170898 51.4902344,555.348633 C51.6679696,555.526368 51.7568359,555.736001 51.7568359,555.977539 Z M47.9902344,555.977539 C47.9902344,556.223634 47.9002288,556.432128 47.7202148,556.603027 C47.5402009,556.773927 47.3317069,556.859375 47.0947266,556.859375 C46.8531889,556.859375 46.6435556,556.772787 46.4658203,556.599609 C46.288085,556.426431 46.1992188,556.219077 46.1992188,555.977539 C46.1992188,555.736001 46.2869457,555.526368 46.4624023,555.348633 C46.637859,555.170898 46.8486316,555.082031 47.0947266,555.082031 C47.3362642,555.082031 47.5458975,555.170898 47.7236328,555.348633 C47.9013681,555.526368 47.9902344,555.736001 47.9902344,555.977539 Z M66.8232422,555.977539 C66.8232422,556.219077 66.7343759,556.426431 66.5566406,556.599609 C66.3789054,556.772787 66.169272,556.859375 65.9277344,556.859375 C65.6861967,556.859375 65.4765634,556.772787 65.2988281,556.599609 C65.1210929,556.426431 65.0322266,556.219077 65.0322266,555.977539 C65.0322266,555.736001 65.1199535,555.526368 65.2954102,555.348633 C65.4708668,555.170898 65.6816394,555.082031 65.9277344,555.082031 C66.1738294,555.082031 66.384602,555.170898 66.5600586,555.348633 C66.7355152,555.526368 66.8232422,555.736001 66.8232422,555.977539 Z M63.0566406,555.977539 C63.0566406,556.223634 62.966635,556.432128 62.7866211,556.603027 C62.6066072,556.773927 62.3981132,556.859375 62.1611328,556.859375 C61.9195951,556.859375 61.7099618,556.772787 61.5322266,556.599609 C61.3544913,556.426431 61.265625,556.219077 61.265625,555.977539 C61.265625,555.736001 61.353352,555.526368 61.5288086,555.348633 C61.7042652,555.170898 61.9150378,555.082031 62.1611328,555.082031 C62.4026705,555.082031 62.6123038,555.170898 62.7900391,555.348633 C62.9677743,555.526368 63.0566406,555.736001 63.0566406,555.977539 Z M59.2900391,555.977539 C59.2900391,556.223634 59.2000335,556.432128 59.0200195,556.603027 C58.8400056,556.773927 58.6315116,556.859375 58.3945312,556.859375 C58.1529936,556.859375 57.9433603,556.772787 57.765625,556.599609 C57.5878897,556.426431 57.4990234,556.219077 57.4990234,555.977539 C57.4990234,555.736001 57.5867504,555.526368 57.762207,555.348633 C57.9376636,555.170898 58.1484363,555.082031 58.3945312,555.082031 C58.6360689,555.082031 58.8457022,555.170898 59.0234375,555.348633 C59.2011728,555.526368 59.2900391,555.736001 59.2900391,555.977539 Z M78.1230469,555.977539 C78.1230469,556.219077 78.0341806,556.426431 77.8564453,556.599609 C77.67871,556.772787 77.4690767,556.859375 77.2275391,556.859375 C76.9860014,556.859375 76.7763681,556.772787 76.5986328,556.599609 C76.4208975,556.426431 76.3320312,556.219077 76.3320312,555.977539 C76.3320312,555.736001 76.4197582,555.526368 76.5952148,555.348633 C76.7706715,555.170898 76.9814441,555.082031 77.2275391,555.082031 C77.473634,555.082031 77.6844067,555.170898 77.8598633,555.348633 C78.0353199,555.526368 78.1230469,555.736001 78.1230469,555.977539 Z M74.3564453,555.977539 C74.3564453,556.223634 74.2664397,556.432128 74.0864258,556.603027 C73.9064119,556.773927 73.6979179,556.859375 73.4609375,556.859375 C73.2193998,556.859375 73.0097665,556.772787 72.8320312,556.599609 C72.654296,556.426431 72.5654297,556.219077 72.5654297,555.977539 C72.5654297,555.736001 72.6531567,555.526368 72.8286133,555.348633 C73.0040699,555.170898 73.2148425,555.082031 73.4609375,555.082031 C73.7024752,555.082031 73.9121085,555.170898 74.0898438,555.348633 C74.267579,555.526368 74.3564453,555.736001 74.3564453,555.977539 Z M70.5898438,555.977539 C70.5898438,556.223634 70.4998381,556.432128 70.3198242,556.603027 C70.1398103,556.773927 69.9313163,556.859375 69.6943359,556.859375 C69.4527983,556.859375 69.243165,556.772787 69.0654297,556.599609 C68.8876944,556.426431 68.7988281,556.219077 68.7988281,555.977539 C68.7988281,555.736001 68.8865551,555.526368 69.0620117,555.348633 C69.2374683,555.170898 69.448241,555.082031 69.6943359,555.082031 C69.9358736,555.082031 70.1455069,555.170898 70.3232422,555.348633 C70.5009775,555.526368 70.5898438,555.736001 70.5898438,555.977539 Z M89.4228516,555.977539 C89.4228516,556.219077 89.3339853,556.426431 89.15625,556.599609 C88.9785147,556.772787 88.7688814,556.859375 88.5273438,556.859375 C88.2858061,556.859375 88.0761728,556.772787 87.8984375,556.599609 C87.7207022,556.426431 87.6318359,556.219077 87.6318359,555.977539 C87.6318359,555.736001 87.7195629,555.526368 87.8950195,555.348633 C88.0704761,555.170898 88.2812488,555.082031 88.5273438,555.082031 C88.7734387,555.082031 88.9842114,555.170898 89.159668,555.348633 C89.3351246,555.526368 89.4228516,555.736001 89.4228516,555.977539 Z M85.65625,555.977539 C85.65625,556.223634 85.5662444,556.432128 85.3862305,556.603027 C85.2062165,556.773927 84.9977225,556.859375 84.7607422,556.859375 C84.5192045,556.859375 84.3095712,556.772787 84.1318359,556.599609 C83.9541007,556.426431 83.8652344,556.219077 83.8652344,555.977539 C83.8652344,555.736001 83.9529614,555.526368 84.128418,555.348633 C84.3038746,555.170898 84.5146472,555.082031 84.7607422,555.082031 C85.0022799,555.082031 85.2119132,555.170898 85.3896484,555.348633 C85.5673837,555.526368 85.65625,555.736001 85.65625,555.977539 Z M81.8896484,555.977539 C81.8896484,556.223634 81.7996428,556.432128 81.6196289,556.603027 C81.439615,556.773927 81.231121,556.859375 80.9941406,556.859375 C80.752603,556.859375 80.5429696,556.772787 80.3652344,556.599609 C80.1874991,556.426431 80.0986328,556.219077 80.0986328,555.977539 C80.0986328,555.736001 80.1863598,555.526368 80.3618164,555.348633 C80.537273,555.170898 80.7480456,555.082031 80.9941406,555.082031 C81.2356783,555.082031 81.4453116,555.170898 81.6230469,555.348633 C81.8007821,555.526368 81.8896484,555.736001 81.8896484,555.977539 Z M100.722656,555.977539 C100.722656,556.219077 100.63379,556.426431 100.456055,556.599609 C100.278319,556.772787 100.068686,556.859375 99.8271484,556.859375 C99.5856108,556.859375 99.3759775,556.772787 99.1982422,556.599609 C99.0205069,556.426431 98.9316406,556.219077 98.9316406,555.977539 C98.9316406,555.736001 99.0193676,555.526368 99.1948242,555.348633 C99.3702808,555.170898 99.5810535,555.082031 99.8271484,555.082031 C100.073243,555.082031 100.284016,555.170898 100.459473,555.348633 C100.634929,555.526368 100.722656,555.736001 100.722656,555.977539 Z M96.9560547,555.977539 C96.9560547,556.223634 96.8660491,556.432128 96.6860352,556.603027 C96.5060212,556.773927 96.2975272,556.859375 96.0605469,556.859375 C95.8190092,556.859375 95.6093759,556.772787 95.4316406,556.599609 C95.2539054,556.426431 95.1650391,556.219077 95.1650391,555.977539 C95.1650391,555.736001 95.252766,555.526368 95.4282227,555.348633 C95.6036793,555.170898 95.8144519,555.082031 96.0605469,555.082031 C96.3020845,555.082031 96.5117179,555.170898 96.6894531,555.348633 C96.8671884,555.526368 96.9560547,555.736001 96.9560547,555.977539 Z M93.1894531,555.977539 C93.1894531,556.223634 93.0994475,556.432128 92.9194336,556.603027 C92.7394197,556.773927 92.5309257,556.859375 92.2939453,556.859375 C92.0524076,556.859375 91.8427743,556.772787 91.6650391,556.599609 C91.4873038,556.426431 91.3984375,556.219077 91.3984375,555.977539 C91.3984375,555.736001 91.4861645,555.526368 91.6616211,555.348633 C91.8370777,555.170898 92.0478503,555.082031 92.2939453,555.082031 C92.535483,555.082031 92.7451163,555.170898 92.9228516,555.348633 C93.1005868,555.526368 93.1894531,555.736001 93.1894531,555.977539 Z M112.022461,555.977539 C112.022461,556.219077 111.933595,556.426431 111.755859,556.599609 C111.578124,556.772787 111.368491,556.859375 111.126953,556.859375 C110.885415,556.859375 110.675782,556.772787 110.498047,556.599609 C110.320312,556.426431 110.231445,556.219077 110.231445,555.977539 C110.231445,555.736001 110.319172,555.526368 110.494629,555.348633 C110.670086,555.170898 110.880858,555.082031 111.126953,555.082031 C111.373048,555.082031 111.583821,555.170898 111.759277,555.348633 C111.934734,555.526368 112.022461,555.736001 112.022461,555.977539 Z M108.255859,555.977539 C108.255859,556.223634 108.165854,556.432128 107.98584,556.603027 C107.805826,556.773927 107.597332,556.859375 107.360352,556.859375 C107.118814,556.859375 106.909181,556.772787 106.731445,556.599609 C106.55371,556.426431 106.464844,556.219077 106.464844,555.977539 C106.464844,555.736001 106.552571,555.526368 106.728027,555.348633 C106.903484,555.170898 107.114257,555.082031 107.360352,555.082031 C107.601889,555.082031 107.811523,555.170898 107.989258,555.348633 C108.166993,555.526368 108.255859,555.736001 108.255859,555.977539 Z M104.489258,555.977539 C104.489258,556.223634 104.399252,556.432128 104.219238,556.603027 C104.039224,556.773927 103.83073,556.859375 103.59375,556.859375 C103.352212,556.859375 103.142579,556.772787 102.964844,556.599609 C102.787108,556.426431 102.698242,556.219077 102.698242,555.977539 C102.698242,555.736001 102.785969,555.526368 102.961426,555.348633 C103.136882,555.170898 103.347655,555.082031 103.59375,555.082031 C103.835288,555.082031 104.044921,555.170898 104.222656,555.348633 C104.400392,555.526368 104.489258,555.736001 104.489258,555.977539 Z M123.322266,555.977539 C123.322266,556.219077 123.233399,556.426431 123.055664,556.599609 C122.877929,556.772787 122.668295,556.859375 122.426758,556.859375 C122.18522,556.859375 121.975587,556.772787 121.797852,556.599609 C121.620116,556.426431 121.53125,556.219077 121.53125,555.977539 C121.53125,555.736001 121.618977,555.526368 121.794434,555.348633 C121.96989,555.170898 122.180663,555.082031 122.426758,555.082031 C122.672853,555.082031 122.883625,555.170898 123.059082,555.348633 C123.234539,555.526368 123.322266,555.736001 123.322266,555.977539 Z M119.555664,555.977539 C119.555664,556.223634 119.465658,556.432128 119.285645,556.603027 C119.105631,556.773927 118.897137,556.859375 118.660156,556.859375 C118.418619,556.859375 118.208985,556.772787 118.03125,556.599609 C117.853515,556.426431 117.764648,556.219077 117.764648,555.977539 C117.764648,555.736001 117.852375,555.526368 118.027832,555.348633 C118.203289,555.170898 118.414061,555.082031 118.660156,555.082031 C118.901694,555.082031 119.111327,555.170898 119.289062,555.348633 C119.466798,555.526368 119.555664,555.736001 119.555664,555.977539 Z M115.789062,555.977539 C115.789062,556.223634 115.699057,556.432128 115.519043,556.603027 C115.339029,556.773927 115.130535,556.859375 114.893555,556.859375 C114.652017,556.859375 114.442384,556.772787 114.264648,556.599609 C114.086913,556.426431 113.998047,556.219077 113.998047,555.977539 C113.998047,555.736001 114.085774,555.526368 114.26123,555.348633 C114.436687,555.170898 114.64746,555.082031 114.893555,555.082031 C115.135092,555.082031 115.344726,555.170898 115.522461,555.348633 C115.700196,555.526368 115.789062,555.736001 115.789062,555.977539 Z M134.62207,555.977539 C134.62207,556.219077 134.533204,556.426431 134.355469,556.599609 C134.177733,556.772787 133.9681,556.859375 133.726562,556.859375 C133.485025,556.859375 133.275392,556.772787 133.097656,556.599609 C132.919921,556.426431 132.831055,556.219077 132.831055,555.977539 C132.831055,555.736001 132.918782,555.526368 133.094238,555.348633 C133.269695,555.170898 133.480468,555.082031 133.726562,555.082031 C133.972657,555.082031 134.18343,555.170898 134.358887,555.348633 C134.534343,555.526368 134.62207,555.736001 134.62207,555.977539 Z M130.855469,555.977539 C130.855469,556.223634 130.765463,556.432128 130.585449,556.603027 C130.405435,556.773927 130.196941,556.859375 129.959961,556.859375 C129.718423,556.859375 129.50879,556.772787 129.331055,556.599609 C129.153319,556.426431 129.064453,556.219077 129.064453,555.977539 C129.064453,555.736001 129.15218,555.526368 129.327637,555.348633 C129.503093,555.170898 129.713866,555.082031 129.959961,555.082031 C130.201499,555.082031 130.411132,555.170898 130.588867,555.348633 C130.766602,555.526368 130.855469,555.736001 130.855469,555.977539 Z M127.088867,555.977539 C127.088867,556.223634 126.998862,556.432128 126.818848,556.603027 C126.638834,556.773927 126.43034,556.859375 126.193359,556.859375 C125.951822,556.859375 125.742188,556.772787 125.564453,556.599609 C125.386718,556.426431 125.297852,556.219077 125.297852,555.977539 C125.297852,555.736001 125.385579,555.526368 125.561035,555.348633 C125.736492,555.170898 125.947264,555.082031 126.193359,555.082031 C126.434897,555.082031 126.64453,555.170898 126.822266,555.348633 C127.000001,555.526368 127.088867,555.736001 127.088867,555.977539 Z M145.921875,555.977539 C145.921875,556.219077 145.833009,556.426431 145.655273,556.599609 C145.477538,556.772787 145.267905,556.859375 145.026367,556.859375 C144.78483,556.859375 144.575196,556.772787 144.397461,556.599609 C144.219726,556.426431 144.130859,556.219077 144.130859,555.977539 C144.130859,555.736001 144.218586,555.526368 144.394043,555.348633 C144.5695,555.170898 144.780272,555.082031 145.026367,555.082031 C145.272462,555.082031 145.483235,555.170898 145.658691,555.348633 C145.834148,555.526368 145.921875,555.736001 145.921875,555.977539 Z M142.155273,555.977539 C142.155273,556.223634 142.065268,556.432128 141.885254,556.603027 C141.70524,556.773927 141.496746,556.859375 141.259766,556.859375 C141.018228,556.859375 140.808595,556.772787 140.630859,556.599609 C140.453124,556.426431 140.364258,556.219077 140.364258,555.977539 C140.364258,555.736001 140.451985,555.526368 140.627441,555.348633 C140.802898,555.170898 141.013671,555.082031 141.259766,555.082031 C141.501303,555.082031 141.710937,555.170898 141.888672,555.348633 C142.066407,555.526368 142.155273,555.736001 142.155273,555.977539 Z M138.388672,555.977539 C138.388672,556.223634 138.298666,556.432128 138.118652,556.603027 C137.938638,556.773927 137.730144,556.859375 137.493164,556.859375 C137.251626,556.859375 137.041993,556.772787 136.864258,556.599609 C136.686523,556.426431 136.597656,556.219077 136.597656,555.977539 C136.597656,555.736001 136.685383,555.526368 136.86084,555.348633 C137.036296,555.170898 137.247069,555.082031 137.493164,555.082031 C137.734702,555.082031 137.944335,555.170898 138.12207,555.348633 C138.299806,555.526368 138.388672,555.736001 138.388672,555.977539 Z M157.22168,555.977539 C157.22168,556.219077 157.132813,556.426431 156.955078,556.599609 C156.777343,556.772787 156.56771,556.859375 156.326172,556.859375 C156.084634,556.859375 155.875001,556.772787 155.697266,556.599609 C155.51953,556.426431 155.430664,556.219077 155.430664,555.977539 C155.430664,555.736001 155.518391,555.526368 155.693848,555.348633 C155.869304,555.170898 156.080077,555.082031 156.326172,555.082031 C156.572267,555.082031 156.783039,555.170898 156.958496,555.348633 C157.133953,555.526368 157.22168,555.736001 157.22168,555.977539 Z M153.455078,555.977539 C153.455078,556.223634 153.365073,556.432128 153.185059,556.603027 C153.005045,556.773927 152.796551,556.859375 152.55957,556.859375 C152.318033,556.859375 152.108399,556.772787 151.930664,556.599609 C151.752929,556.426431 151.664062,556.219077 151.664062,555.977539 C151.664062,555.736001 151.751789,555.526368 151.927246,555.348633 C152.102703,555.170898 152.313475,555.082031 152.55957,555.082031 C152.801108,555.082031 153.010741,555.170898 153.188477,555.348633 C153.366212,555.526368 153.455078,555.736001 153.455078,555.977539 Z M149.688477,555.977539 C149.688477,556.223634 149.598471,556.432128 149.418457,556.603027 C149.238443,556.773927 149.029949,556.859375 148.792969,556.859375 C148.551431,556.859375 148.341798,556.772787 148.164062,556.599609 C147.986327,556.426431 147.897461,556.219077 147.897461,555.977539 C147.897461,555.736001 147.985188,555.526368 148.160645,555.348633 C148.336101,555.170898 148.546874,555.082031 148.792969,555.082031 C149.034506,555.082031 149.24414,555.170898 149.421875,555.348633 C149.59961,555.526368 149.688477,555.736001 149.688477,555.977539 Z M168.521484,555.977539 C168.521484,556.219077 168.432618,556.426431 168.254883,556.599609 C168.077148,556.772787 167.867514,556.859375 167.625977,556.859375 C167.384439,556.859375 167.174806,556.772787 166.99707,556.599609 C166.819335,556.426431 166.730469,556.219077 166.730469,555.977539 C166.730469,555.736001 166.818196,555.526368 166.993652,555.348633 C167.169109,555.170898 167.379882,555.082031 167.625977,555.082031 C167.872072,555.082031 168.082844,555.170898 168.258301,555.348633 C168.433757,555.526368 168.521484,555.736001 168.521484,555.977539 Z M164.754883,555.977539 C164.754883,556.223634 164.664877,556.432128 164.484863,556.603027 C164.304849,556.773927 164.096355,556.859375 163.859375,556.859375 C163.617837,556.859375 163.408204,556.772787 163.230469,556.599609 C163.052733,556.426431 162.963867,556.219077 162.963867,555.977539 C162.963867,555.736001 163.051594,555.526368 163.227051,555.348633 C163.402507,555.170898 163.61328,555.082031 163.859375,555.082031 C164.100913,555.082031 164.310546,555.170898 164.488281,555.348633 C164.666017,555.526368 164.754883,555.736001 164.754883,555.977539 Z M160.988281,555.977539 C160.988281,556.223634 160.898276,556.432128 160.718262,556.603027 C160.538248,556.773927 160.329754,556.859375 160.092773,556.859375 C159.851236,556.859375 159.641602,556.772787 159.463867,556.599609 C159.286132,556.426431 159.197266,556.219077 159.197266,555.977539 C159.197266,555.736001 159.284993,555.526368 159.460449,555.348633 C159.635906,555.170898 159.846678,555.082031 160.092773,555.082031 C160.334311,555.082031 160.543944,555.170898 160.72168,555.348633 C160.899415,555.526368 160.988281,555.736001 160.988281,555.977539 Z M179.821289,555.977539 C179.821289,556.219077 179.732423,556.426431 179.554688,556.599609 C179.376952,556.772787 179.167319,556.859375 178.925781,556.859375 C178.684244,556.859375 178.47461,556.772787 178.296875,556.599609 C178.11914,556.426431 178.030273,556.219077 178.030273,555.977539 C178.030273,555.736001 178.118,555.526368 178.293457,555.348633 C178.468914,555.170898 178.679686,555.082031 178.925781,555.082031 C179.171876,555.082031 179.382649,555.170898 179.558105,555.348633 C179.733562,555.526368 179.821289,555.736001 179.821289,555.977539 Z M176.054688,555.977539 C176.054688,556.223634 175.964682,556.432128 175.784668,556.603027 C175.604654,556.773927 175.39616,556.859375 175.15918,556.859375 C174.917642,556.859375 174.708009,556.772787 174.530273,556.599609 C174.352538,556.426431 174.263672,556.219077 174.263672,555.977539 C174.263672,555.736001 174.351399,555.526368 174.526855,555.348633 C174.702312,555.170898 174.913085,555.082031 175.15918,555.082031 C175.400717,555.082031 175.610351,555.170898 175.788086,555.348633 C175.965821,555.526368 176.054688,555.736001 176.054688,555.977539 Z M172.288086,555.977539 C172.288086,556.223634 172.19808,556.432128 172.018066,556.603027 C171.838052,556.773927 171.629558,556.859375 171.392578,556.859375 C171.15104,556.859375 170.941407,556.772787 170.763672,556.599609 C170.585937,556.426431 170.49707,556.219077 170.49707,555.977539 C170.49707,555.736001 170.584797,555.526368 170.760254,555.348633 C170.935711,555.170898 171.146483,555.082031 171.392578,555.082031 C171.634116,555.082031 171.843749,555.170898 172.021484,555.348633 C172.19922,555.526368 172.288086,555.736001 172.288086,555.977539 Z M191.121094,555.977539 C191.121094,556.219077 191.032227,556.426431 190.854492,556.599609 C190.676757,556.772787 190.467124,556.859375 190.225586,556.859375 C189.984048,556.859375 189.774415,556.772787 189.59668,556.599609 C189.418944,556.426431 189.330078,556.219077 189.330078,555.977539 C189.330078,555.736001 189.417805,555.526368 189.593262,555.348633 C189.768718,555.170898 189.979491,555.082031 190.225586,555.082031 C190.471681,555.082031 190.682454,555.170898 190.85791,555.348633 C191.033367,555.526368 191.121094,555.736001 191.121094,555.977539 Z M187.354492,555.977539 C187.354492,556.223634 187.264487,556.432128 187.084473,556.603027 C186.904459,556.773927 186.695965,556.859375 186.458984,556.859375 C186.217447,556.859375 186.007813,556.772787 185.830078,556.599609 C185.652343,556.426431 185.563477,556.219077 185.563477,555.977539 C185.563477,555.736001 185.651204,555.526368 185.82666,555.348633 C186.002117,555.170898 186.212889,555.082031 186.458984,555.082031 C186.700522,555.082031 186.910155,555.170898 187.087891,555.348633 C187.265626,555.526368 187.354492,555.736001 187.354492,555.977539 Z M183.587891,555.977539 C183.587891,556.223634 183.497885,556.432128 183.317871,556.603027 C183.137857,556.773927 182.929363,556.859375 182.692383,556.859375 C182.450845,556.859375 182.241212,556.772787 182.063477,556.599609 C181.885741,556.426431 181.796875,556.219077 181.796875,555.977539 C181.796875,555.736001 181.884602,555.526368 182.060059,555.348633 C182.235515,555.170898 182.446288,555.082031 182.692383,555.082031 C182.93392,555.082031 183.143554,555.170898 183.321289,555.348633 C183.499024,555.526368 183.587891,555.736001 183.587891,555.977539 Z M202.420898,555.977539 C202.420898,556.219077 202.332032,556.426431 202.154297,556.599609 C201.976562,556.772787 201.766928,556.859375 201.525391,556.859375 C201.283853,556.859375 201.07422,556.772787 200.896484,556.599609 C200.718749,556.426431 200.629883,556.219077 200.629883,555.977539 C200.629883,555.736001 200.71761,555.526368 200.893066,555.348633 C201.068523,555.170898 201.279296,555.082031 201.525391,555.082031 C201.771486,555.082031 201.982258,555.170898 202.157715,555.348633 C202.333171,555.526368 202.420898,555.736001 202.420898,555.977539 Z M198.654297,555.977539 C198.654297,556.223634 198.564291,556.432128 198.384277,556.603027 C198.204263,556.773927 197.995769,556.859375 197.758789,556.859375 C197.517251,556.859375 197.307618,556.772787 197.129883,556.599609 C196.952148,556.426431 196.863281,556.219077 196.863281,555.977539 C196.863281,555.736001 196.951008,555.526368 197.126465,555.348633 C197.301921,555.170898 197.512694,555.082031 197.758789,555.082031 C198.000327,555.082031 198.20996,555.170898 198.387695,555.348633 C198.565431,555.526368 198.654297,555.736001 198.654297,555.977539 Z M194.887695,555.977539 C194.887695,556.223634 194.79769,556.432128 194.617676,556.603027 C194.437662,556.773927 194.229168,556.859375 193.992188,556.859375 C193.75065,556.859375 193.541017,556.772787 193.363281,556.599609 C193.185546,556.426431 193.09668,556.219077 193.09668,555.977539 C193.09668,555.736001 193.184407,555.526368 193.359863,555.348633 C193.53532,555.170898 193.746093,555.082031 193.992188,555.082031 C194.233725,555.082031 194.443358,555.170898 194.621094,555.348633 C194.798829,555.526368 194.887695,555.736001 194.887695,555.977539 Z M213.720703,555.977539 C213.720703,556.219077 213.631837,556.426431 213.454102,556.599609 C213.276366,556.772787 213.066733,556.859375 212.825195,556.859375 C212.583658,556.859375 212.374024,556.772787 212.196289,556.599609 C212.018554,556.426431 211.929688,556.219077 211.929688,555.977539 C211.929688,555.736001 212.017414,555.526368 212.192871,555.348633 C212.368328,555.170898 212.5791,555.082031 212.825195,555.082031 C213.07129,555.082031 213.282063,555.170898 213.45752,555.348633 C213.632976,555.526368 213.720703,555.736001 213.720703,555.977539 Z M209.954102,555.977539 C209.954102,556.223634 209.864096,556.432128 209.684082,556.603027 C209.504068,556.773927 209.295574,556.859375 209.058594,556.859375 C208.817056,556.859375 208.607423,556.772787 208.429688,556.599609 C208.251952,556.426431 208.163086,556.219077 208.163086,555.977539 C208.163086,555.736001 208.250813,555.526368 208.42627,555.348633 C208.601726,555.170898 208.812499,555.082031 209.058594,555.082031 C209.300131,555.082031 209.509765,555.170898 209.6875,555.348633 C209.865235,555.526368 209.954102,555.736001 209.954102,555.977539 Z M206.1875,555.977539 C206.1875,556.223634 206.097494,556.432128 205.91748,556.603027 C205.737467,556.773927 205.528973,556.859375 205.291992,556.859375 C205.050455,556.859375 204.840821,556.772787 204.663086,556.599609 C204.485351,556.426431 204.396484,556.219077 204.396484,555.977539 C204.396484,555.736001 204.484211,555.526368 204.659668,555.348633 C204.835125,555.170898 205.045897,555.082031 205.291992,555.082031 C205.53353,555.082031 205.743163,555.170898 205.920898,555.348633 C206.098634,555.526368 206.1875,555.736001 206.1875,555.977539 Z M225.020508,555.977539 C225.020508,556.219077 224.931642,556.426431 224.753906,556.599609 C224.576171,556.772787 224.366538,556.859375 224.125,556.859375 C223.883462,556.859375 223.673829,556.772787 223.496094,556.599609 C223.318358,556.426431 223.229492,556.219077 223.229492,555.977539 C223.229492,555.736001 223.317219,555.526368 223.492676,555.348633 C223.668132,555.170898 223.878905,555.082031 224.125,555.082031 C224.371095,555.082031 224.581868,555.170898 224.757324,555.348633 C224.932781,555.526368 225.020508,555.736001 225.020508,555.977539 Z M221.253906,555.977539 C221.253906,556.223634 221.163901,556.432128 220.983887,556.603027 C220.803873,556.773927 220.595379,556.859375 220.358398,556.859375 C220.116861,556.859375 219.907227,556.772787 219.729492,556.599609 C219.551757,556.426431 219.462891,556.219077 219.462891,555.977539 C219.462891,555.736001 219.550618,555.526368 219.726074,555.348633 C219.901531,555.170898 220.112303,555.082031 220.358398,555.082031 C220.599936,555.082031 220.809569,555.170898 220.987305,555.348633 C221.16504,555.526368 221.253906,555.736001 221.253906,555.977539 Z M217.487305,555.977539 C217.487305,556.223634 217.397299,556.432128 217.217285,556.603027 C217.037271,556.773927 216.828777,556.859375 216.591797,556.859375 C216.350259,556.859375 216.140626,556.772787 215.962891,556.599609 C215.785155,556.426431 215.696289,556.219077 215.696289,555.977539 C215.696289,555.736001 215.784016,555.526368 215.959473,555.348633 C216.134929,555.170898 216.345702,555.082031 216.591797,555.082031 C216.833335,555.082031 217.042968,555.170898 217.220703,555.348633 C217.398438,555.526368 217.487305,555.736001 217.487305,555.977539 Z M236.320312,555.977539 C236.320312,556.219077 236.231446,556.426431 236.053711,556.599609 C235.875976,556.772787 235.666342,556.859375 235.424805,556.859375 C235.183267,556.859375 234.973634,556.772787 234.795898,556.599609 C234.618163,556.426431 234.529297,556.219077 234.529297,555.977539 C234.529297,555.736001 234.617024,555.526368 234.79248,555.348633 C234.967937,555.170898 235.17871,555.082031 235.424805,555.082031 C235.6709,555.082031 235.881672,555.170898 236.057129,555.348633 C236.232586,555.526368 236.320312,555.736001 236.320312,555.977539 Z M232.553711,555.977539 C232.553711,556.223634 232.463705,556.432128 232.283691,556.603027 C232.103677,556.773927 231.895183,556.859375 231.658203,556.859375 C231.416665,556.859375 231.207032,556.772787 231.029297,556.599609 C230.851562,556.426431 230.762695,556.219077 230.762695,555.977539 C230.762695,555.736001 230.850422,555.526368 231.025879,555.348633 C231.201336,555.170898 231.412108,555.082031 231.658203,555.082031 C231.899741,555.082031 232.109374,555.170898 232.287109,555.348633 C232.464845,555.526368 232.553711,555.736001 232.553711,555.977539 Z M228.787109,555.977539 C228.787109,556.223634 228.697104,556.432128 228.51709,556.603027 C228.337076,556.773927 228.128582,556.859375 227.891602,556.859375 C227.650064,556.859375 227.440431,556.772787 227.262695,556.599609 C227.08496,556.426431 226.996094,556.219077 226.996094,555.977539 C226.996094,555.736001 227.083821,555.526368 227.259277,555.348633 C227.434734,555.170898 227.645507,555.082031 227.891602,555.082031 C228.133139,555.082031 228.342773,555.170898 228.520508,555.348633 C228.698243,555.526368 228.787109,555.736001 228.787109,555.977539 Z M247.620117,555.977539 C247.620117,556.219077 247.531251,556.426431 247.353516,556.599609 C247.17578,556.772787 246.966147,556.859375 246.724609,556.859375 C246.483072,556.859375 246.273438,556.772787 246.095703,556.599609 C245.917968,556.426431 245.829102,556.219077 245.829102,555.977539 C245.829102,555.736001 245.916829,555.526368 246.092285,555.348633 C246.267742,555.170898 246.478514,555.082031 246.724609,555.082031 C246.970704,555.082031 247.181477,555.170898 247.356934,555.348633 C247.53239,555.526368 247.620117,555.736001 247.620117,555.977539 Z M243.853516,555.977539 C243.853516,556.223634 243.76351,556.432128 243.583496,556.603027 C243.403482,556.773927 243.194988,556.859375 242.958008,556.859375 C242.71647,556.859375 242.506837,556.772787 242.329102,556.599609 C242.151366,556.426431 242.0625,556.219077 242.0625,555.977539 C242.0625,555.736001 242.150227,555.526368 242.325684,555.348633 C242.50114,555.170898 242.711913,555.082031 242.958008,555.082031 C243.199545,555.082031 243.409179,555.170898 243.586914,555.348633 C243.764649,555.526368 243.853516,555.736001 243.853516,555.977539 Z M240.086914,555.977539 C240.086914,556.223634 239.996908,556.432128 239.816895,556.603027 C239.636881,556.773927 239.428387,556.859375 239.191406,556.859375 C238.949869,556.859375 238.740235,556.772787 238.5625,556.599609 C238.384765,556.426431 238.295898,556.219077 238.295898,555.977539 C238.295898,555.736001 238.383625,555.526368 238.559082,555.348633 C238.734539,555.170898 238.945311,555.082031 239.191406,555.082031 C239.432944,555.082031 239.642577,555.170898 239.820312,555.348633 C239.998048,555.526368 240.086914,555.736001 240.086914,555.977539 Z M258.919922,555.977539 C258.919922,556.219077 258.831056,556.426431 258.65332,556.599609 C258.475585,556.772787 258.265952,556.859375 258.024414,556.859375 C257.782876,556.859375 257.573243,556.772787 257.395508,556.599609 C257.217773,556.426431 257.128906,556.219077 257.128906,555.977539 C257.128906,555.736001 257.216633,555.526368 257.39209,555.348633 C257.567546,555.170898 257.778319,555.082031 258.024414,555.082031 C258.270509,555.082031 258.481282,555.170898 258.656738,555.348633 C258.832195,555.526368 258.919922,555.736001 258.919922,555.977539 Z M255.15332,555.977539 C255.15332,556.223634 255.063315,556.432128 254.883301,556.603027 C254.703287,556.773927 254.494793,556.859375 254.257812,556.859375 C254.016275,556.859375 253.806642,556.772787 253.628906,556.599609 C253.451171,556.426431 253.362305,556.219077 253.362305,555.977539 C253.362305,555.736001 253.450032,555.526368 253.625488,555.348633 C253.800945,555.170898 254.011718,555.082031 254.257812,555.082031 C254.49935,555.082031 254.708983,555.170898 254.886719,555.348633 C255.064454,555.526368 255.15332,555.736001 255.15332,555.977539 Z M251.386719,555.977539 C251.386719,556.223634 251.296713,556.432128 251.116699,556.603027 C250.936685,556.773927 250.728191,556.859375 250.491211,556.859375 C250.249673,556.859375 250.04004,556.772787 249.862305,556.599609 C249.684569,556.426431 249.595703,556.219077 249.595703,555.977539 C249.595703,555.736001 249.68343,555.526368 249.858887,555.348633 C250.034343,555.170898 250.245116,555.082031 250.491211,555.082031 C250.732749,555.082031 250.942382,555.170898 251.120117,555.348633 C251.297852,555.526368 251.386719,555.736001 251.386719,555.977539 Z M270.219727,555.977539 C270.219727,556.219077 270.13086,556.426431 269.953125,556.599609 C269.77539,556.772787 269.565756,556.859375 269.324219,556.859375 C269.082681,556.859375 268.873048,556.772787 268.695312,556.599609 C268.517577,556.426431 268.428711,556.219077 268.428711,555.977539 C268.428711,555.736001 268.516438,555.526368 268.691895,555.348633 C268.867351,555.170898 269.078124,555.082031 269.324219,555.082031 C269.570314,555.082031 269.781086,555.170898 269.956543,555.348633 C270.132,555.526368 270.219727,555.736001 270.219727,555.977539 Z M266.453125,555.977539 C266.453125,556.223634 266.363119,556.432128 266.183105,556.603027 C266.003092,556.773927 265.794598,556.859375 265.557617,556.859375 C265.31608,556.859375 265.106446,556.772787 264.928711,556.599609 C264.750976,556.426431 264.662109,556.219077 264.662109,555.977539 C264.662109,555.736001 264.749836,555.526368 264.925293,555.348633 C265.10075,555.170898 265.311522,555.082031 265.557617,555.082031 C265.799155,555.082031 266.008788,555.170898 266.186523,555.348633 C266.364259,555.526368 266.453125,555.736001 266.453125,555.977539 Z M262.686523,555.977539 C262.686523,556.223634 262.596518,556.432128 262.416504,556.603027 C262.23649,556.773927 262.027996,556.859375 261.791016,556.859375 C261.549478,556.859375 261.339845,556.772787 261.162109,556.599609 C260.984374,556.426431 260.895508,556.219077 260.895508,555.977539 C260.895508,555.736001 260.983235,555.526368 261.158691,555.348633 C261.334148,555.170898 261.544921,555.082031 261.791016,555.082031 C262.032553,555.082031 262.242187,555.170898 262.419922,555.348633 C262.597657,555.526368 262.686523,555.736001 262.686523,555.977539 Z M281.519531,555.977539 C281.519531,556.219077 281.430665,556.426431 281.25293,556.599609 C281.075194,556.772787 280.865561,556.859375 280.624023,556.859375 C280.382486,556.859375 280.172852,556.772787 279.995117,556.599609 C279.817382,556.426431 279.728516,556.219077 279.728516,555.977539 C279.728516,555.736001 279.816243,555.526368 279.991699,555.348633 C280.167156,555.170898 280.377928,555.082031 280.624023,555.082031 C280.870118,555.082031 281.080891,555.170898 281.256348,555.348633 C281.431804,555.526368 281.519531,555.736001 281.519531,555.977539 Z M277.75293,555.977539 C277.75293,556.223634 277.662924,556.432128 277.48291,556.603027 C277.302896,556.773927 277.094402,556.859375 276.857422,556.859375 C276.615884,556.859375 276.406251,556.772787 276.228516,556.599609 C276.05078,556.426431 275.961914,556.219077 275.961914,555.977539 C275.961914,555.736001 276.049641,555.526368 276.225098,555.348633 C276.400554,555.170898 276.611327,555.082031 276.857422,555.082031 C277.09896,555.082031 277.308593,555.170898 277.486328,555.348633 C277.664063,555.526368 277.75293,555.736001 277.75293,555.977539 Z M273.986328,555.977539 C273.986328,556.223634 273.896323,556.432128 273.716309,556.603027 C273.536295,556.773927 273.327801,556.859375 273.09082,556.859375 C272.849283,556.859375 272.639649,556.772787 272.461914,556.599609 C272.284179,556.426431 272.195312,556.219077 272.195312,555.977539 C272.195312,555.736001 272.283039,555.526368 272.458496,555.348633 C272.633953,555.170898 272.844725,555.082031 273.09082,555.082031 C273.332358,555.082031 273.541991,555.170898 273.719727,555.348633 C273.897462,555.526368 273.986328,555.736001 273.986328,555.977539 Z M292.819336,555.977539 C292.819336,556.219077 292.73047,556.426431 292.552734,556.599609 C292.374999,556.772787 292.165366,556.859375 291.923828,556.859375 C291.68229,556.859375 291.472657,556.772787 291.294922,556.599609 C291.117187,556.426431 291.02832,556.219077 291.02832,555.977539 C291.02832,555.736001 291.116047,555.526368 291.291504,555.348633 C291.466961,555.170898 291.677733,555.082031 291.923828,555.082031 C292.169923,555.082031 292.380696,555.170898 292.556152,555.348633 C292.731609,555.526368 292.819336,555.736001 292.819336,555.977539 Z M289.052734,555.977539 C289.052734,556.223634 288.962729,556.432128 288.782715,556.603027 C288.602701,556.773927 288.394207,556.859375 288.157227,556.859375 C287.915689,556.859375 287.706056,556.772787 287.52832,556.599609 C287.350585,556.426431 287.261719,556.219077 287.261719,555.977539 C287.261719,555.736001 287.349446,555.526368 287.524902,555.348633 C287.700359,555.170898 287.911132,555.082031 288.157227,555.082031 C288.398764,555.082031 288.608398,555.170898 288.786133,555.348633 C288.963868,555.526368 289.052734,555.736001 289.052734,555.977539 Z M285.286133,555.977539 C285.286133,556.223634 285.196127,556.432128 285.016113,556.603027 C284.836099,556.773927 284.627605,556.859375 284.390625,556.859375 C284.149087,556.859375 283.939454,556.772787 283.761719,556.599609 C283.583983,556.426431 283.495117,556.219077 283.495117,555.977539 C283.495117,555.736001 283.582844,555.526368 283.758301,555.348633 C283.933757,555.170898 284.14453,555.082031 284.390625,555.082031 C284.632163,555.082031 284.841796,555.170898 285.019531,555.348633 C285.197267,555.526368 285.286133,555.736001 285.286133,555.977539 Z M304.119141,555.977539 C304.119141,556.219077 304.030274,556.426431 303.852539,556.599609 C303.674804,556.772787 303.46517,556.859375 303.223633,556.859375 C302.982095,556.859375 302.772462,556.772787 302.594727,556.599609 C302.416991,556.426431 302.328125,556.219077 302.328125,555.977539 C302.328125,555.736001 302.415852,555.526368 302.591309,555.348633 C302.766765,555.170898 302.977538,555.082031 303.223633,555.082031 C303.469728,555.082031 303.6805,555.170898 303.855957,555.348633 C304.031414,555.526368 304.119141,555.736001 304.119141,555.977539 Z M300.352539,555.977539 C300.352539,556.223634 300.262533,556.432128 300.08252,556.603027 C299.902506,556.773927 299.694012,556.859375 299.457031,556.859375 C299.215494,556.859375 299.00586,556.772787 298.828125,556.599609 C298.65039,556.426431 298.561523,556.219077 298.561523,555.977539 C298.561523,555.736001 298.64925,555.526368 298.824707,555.348633 C299.000164,555.170898 299.210936,555.082031 299.457031,555.082031 C299.698569,555.082031 299.908202,555.170898 300.085938,555.348633 C300.263673,555.526368 300.352539,555.736001 300.352539,555.977539 Z M296.585938,555.977539 C296.585938,556.223634 296.495932,556.432128 296.315918,556.603027 C296.135904,556.773927 295.92741,556.859375 295.69043,556.859375 C295.448892,556.859375 295.239259,556.772787 295.061523,556.599609 C294.883788,556.426431 294.794922,556.219077 294.794922,555.977539 C294.794922,555.736001 294.882649,555.526368 295.058105,555.348633 C295.233562,555.170898 295.444335,555.082031 295.69043,555.082031 C295.931967,555.082031 296.141601,555.170898 296.319336,555.348633 C296.497071,555.526368 296.585938,555.736001 296.585938,555.977539 Z M315.418945,555.977539 C315.418945,556.219077 315.330079,556.426431 315.152344,556.599609 C314.974608,556.772787 314.764975,556.859375 314.523438,556.859375 C314.2819,556.859375 314.072267,556.772787 313.894531,556.599609 C313.716796,556.426431 313.62793,556.219077 313.62793,555.977539 C313.62793,555.736001 313.715657,555.526368 313.891113,555.348633 C314.06657,555.170898 314.277343,555.082031 314.523438,555.082031 C314.769532,555.082031 314.980305,555.170898 315.155762,555.348633 C315.331218,555.526368 315.418945,555.736001 315.418945,555.977539 Z M311.652344,555.977539 C311.652344,556.223634 311.562338,556.432128 311.382324,556.603027 C311.20231,556.773927 310.993816,556.859375 310.756836,556.859375 C310.515298,556.859375 310.305665,556.772787 310.12793,556.599609 C309.950194,556.426431 309.861328,556.219077 309.861328,555.977539 C309.861328,555.736001 309.949055,555.526368 310.124512,555.348633 C310.299968,555.170898 310.510741,555.082031 310.756836,555.082031 C310.998374,555.082031 311.208007,555.170898 311.385742,555.348633 C311.563477,555.526368 311.652344,555.736001 311.652344,555.977539 Z M307.885742,555.977539 C307.885742,556.223634 307.795737,556.432128 307.615723,556.603027 C307.435709,556.773927 307.227215,556.859375 306.990234,556.859375 C306.748697,556.859375 306.539063,556.772787 306.361328,556.599609 C306.183593,556.426431 306.094727,556.219077 306.094727,555.977539 C306.094727,555.736001 306.182454,555.526368 306.35791,555.348633 C306.533367,555.170898 306.744139,555.082031 306.990234,555.082031 C307.231772,555.082031 307.441405,555.170898 307.619141,555.348633 C307.796876,555.526368 307.885742,555.736001 307.885742,555.977539 Z M319.219727,555.936523 C319.219727,556.191733 319.127442,556.409342 318.942871,556.589355 C318.7583,556.769369 318.538413,556.859375 318.283203,556.859375 C318.027994,556.859375 317.808106,556.769369 317.623535,556.589355 C317.438964,556.409342 317.34668,556.191733 317.34668,555.936523 C317.34668,555.681314 317.438964,555.461427 317.623535,555.276855 C317.808106,555.092284 318.027994,555 318.283203,555 C318.538413,555 318.7583,555.092284 318.942871,555.276855 C319.127442,555.461427 319.219727,555.681314 319.219727,555.936523 Z" id="…………………………………………………………………………." fill="#DADFE7" fill-rule="nonzero"></path>
    </g>
</svg>