<?xml version="1.0" encoding="UTF-8"?>
<svg width="320px" height="546px" viewBox="0 0 320 546" version="1.1" xmlns="http://www.w3.org/2000/svg" xmlns:xlink="http://www.w3.org/1999/xlink">
    <!-- Generator: Sketch 54.1 (76490) - https://sketchapp.com -->
    <title>hongvan_overlay_end</title>
    <desc>Created with Sketch.</desc>
    <g id="hongvan_overlay_end" stroke="none" stroke-width="1" fill="none" fill-rule="evenodd">
        <path d="M-9.1944495e-05,-0.000731759581 L319.999908,-0.000731759581 L319.999908,545.999268 L-9.1944495e-05,545.999268 L-9.1944495e-05,-0.000731759581 Z M24.9986208,42.2180069 C22.2371971,42.2180069 19.9986208,44.4565832 19.9986208,47.2180069 L19.9986208,512.999268 C19.9986208,515.760692 22.2371971,517.999268 24.9986208,517.999268 L294.999908,517.999268 C297.761332,517.999268 299.999908,515.760692 299.999908,512.999268 L299.999908,47.2180069 C299.999908,44.4565832 297.761332,42.2180069 294.999908,42.2180069 L24.9986208,42.2180069 Z" id="Rectangle-3" fill="#ECF5FA"></path>
        <path d="M3.04720534,542 C3.01573507,542.166826 3,542.339903 3,542.519231 C3,543.198721 3.22884537,543.782049 3.68654298,544.269231 C4.14424058,544.756413 4.68408094,545 5.30608025,545 C5.91634372,545 6.45325017,544.759618 6.91681569,544.278846 C7.38038122,543.798075 7.6121605,543.211542 7.6121605,542.519231 C7.6121605,542.339903 7.59622108,542.166826 7.5643421,542 L12.7468253,542 C12.7153551,542.166826 12.69962,542.339903 12.69962,542.519231 C12.69962,543.198721 12.9284654,543.782049 13.386163,544.269231 C13.8438606,544.756413 14.3837009,545 15.0057002,545 C15.6159637,545 16.1528702,544.759618 16.6164357,544.278846 C17.0800012,543.798075 17.3117805,543.211542 17.3117805,542.519231 C17.3117805,542.339903 17.2958411,542.166826 17.2639621,542 L22.4464453,542 C22.414975,542.166826 22.39924,542.339903 22.39924,542.519231 C22.39924,543.198721 22.6280853,543.782049 23.0857829,544.269231 C23.5434805,544.756413 24.0833209,545 24.7053202,545 C25.3273195,545 25.8671599,544.756413 26.3248575,544.269231 C26.7825551,543.782049 27.0114005,543.198721 27.0114005,542.519231 C27.0114005,542.339903 26.9956654,542.166826 26.9641951,542 L32.1460653,542 C32.114595,542.166826 32.09886,542.339903 32.09886,542.519231 C32.09886,543.198721 32.3277053,543.782049 32.7854029,544.269231 C33.2431005,544.756413 33.7829409,545 34.4049402,545 C35.0152037,545 35.5521101,544.759618 36.0156756,544.278846 C36.4792412,543.798075 36.7110205,543.211542 36.7110205,542.519231 C36.7110205,542.339903 36.695081,542.166826 36.6632021,542 L41.8456853,542 C41.814215,542.166826 41.7984799,542.339903 41.7984799,542.519231 C41.7984799,543.198721 42.0273253,543.782049 42.4850229,544.269231 C42.9427205,544.756413 43.4825609,545 44.1045602,545 C44.7148237,545 45.2517301,544.759618 45.7152956,544.278846 C46.1788612,543.798075 46.4106404,543.211542 46.4106404,542.519231 C46.4106404,542.339903 46.394701,542.166826 46.362822,542 L51.5453053,542 C51.513835,542.166826 51.4980999,542.339903 51.4980999,542.519231 C51.4980999,543.198721 51.7269453,543.782049 52.1846429,544.269231 C52.6423405,544.756413 53.1821809,545 53.8041802,545 C54.4261795,545 54.9660198,544.756413 55.4237174,544.269231 C55.8814151,543.782049 56.1102604,543.198721 56.1102604,542.519231 C56.1102604,542.339903 56.0945254,542.166826 56.0630551,542 L61.2449252,542 C61.213455,542.166826 61.1977199,542.339903 61.1977199,542.519231 C61.1977199,543.198721 61.4265653,543.782049 61.8842629,544.269231 C62.3419605,544.756413 62.8818008,545 63.5038002,545 C64.1140636,545 64.6509701,544.759618 65.1145356,544.278846 C65.5781011,543.798075 65.8098804,543.211542 65.8098804,542.519231 C65.8098804,542.339903 65.793941,542.166826 65.762062,542 L70.9445452,542 C70.913075,542.166826 70.8973399,542.339903 70.8973399,542.519231 C70.8973399,543.198721 71.1261853,543.782049 71.5838829,544.269231 C72.0415805,544.756413 72.5814208,545 73.2034201,545 C73.8136836,545 74.3505901,544.759618 74.8141556,544.278846 C75.2777211,543.798075 75.5095004,543.211542 75.5095004,542.519231 C75.5095004,542.339903 75.493561,542.166826 75.461682,542 L80.6441652,542 C80.6126949,542.166826 80.5969599,542.339903 80.5969599,542.519231 C80.5969599,543.198721 80.8258052,543.782049 81.2835029,544.269231 C81.7412005,544.756413 82.2810408,545 82.9030401,545 C83.5250394,545 84.0648798,544.756413 84.5225774,544.269231 C84.980275,543.782049 85.2091204,543.198721 85.2091204,542.519231 C85.2091204,542.339903 85.1933853,542.166826 85.161915,542 L90.3437852,542 C90.3123149,542.166826 90.2965799,542.339903 90.2965799,542.519231 C90.2965799,543.198721 90.5254252,543.782049 90.9831228,544.269231 C91.4408204,544.756413 91.9806608,545 92.6026601,545 C93.2129236,545 93.74983,544.759618 94.2133956,544.278846 C94.6769611,543.798075 94.9087404,543.211542 94.9087404,542.519231 C94.9087404,542.339903 94.8928009,542.166826 94.860922,542 L100.043405,542 C100.011935,542.166826 99.9961998,542.339903 99.9961998,542.519231 C99.9961998,543.198721 100.225045,543.782049 100.682743,544.269231 C101.14044,544.756413 101.680281,545 102.30228,545 C102.912544,545 103.44945,544.759618 103.913016,544.278846 C104.376581,543.798075 104.60836,543.211542 104.60836,542.519231 C104.60836,542.339903 104.592421,542.166826 104.560542,542 L109.743025,542 C109.711555,542.166826 109.69582,542.339903 109.69582,542.519231 C109.69582,543.198721 109.924665,543.782049 110.382363,544.269231 C110.84006,544.756413 111.379901,545 112.0019,545 C112.623899,545 113.16374,544.756413 113.621437,544.269231 C114.079135,543.782049 114.30798,543.198721 114.30798,542.519231 C114.30798,542.339903 114.292245,542.166826 114.260775,542 L119.442645,542 C119.411175,542.166826 119.39544,542.339903 119.39544,542.519231 C119.39544,543.198721 119.624285,543.782049 120.081983,544.269231 C120.53968,544.756413 121.079521,545 121.70152,545 C122.311784,545 122.84869,544.759618 123.312256,544.278846 C123.775821,543.798075 124.0076,543.211542 124.0076,542.519231 C124.0076,542.339903 123.991661,542.166826 123.959782,542 L129.142265,542 C129.110795,542.166826 129.09506,542.339903 129.09506,542.519231 C129.09506,543.198721 129.323905,543.782049 129.781603,544.269231 C130.2393,544.756413 130.779141,545 131.40114,545 C132.011404,545 132.54831,544.759618 133.011875,544.278846 C133.475441,543.798075 133.70722,543.211542 133.70722,542.519231 C133.70722,542.339903 133.691281,542.166826 133.659402,542 L138.841885,542 C138.810415,542.166826 138.79468,542.339903 138.79468,542.519231 C138.79468,543.198721 139.023525,543.782049 139.481223,544.269231 C139.93892,544.756413 140.478761,545 141.10076,545 C141.722759,545 142.2626,544.756413 142.720297,544.269231 C143.177995,543.782049 143.40684,543.198721 143.40684,542.519231 C143.40684,542.339903 143.391105,542.166826 143.359635,542 L148.541505,542 C148.510035,542.166826 148.4943,542.339903 148.4943,542.519231 C148.4943,543.198721 148.723145,543.782049 149.180843,544.269231 C149.63854,544.756413 150.178381,545 150.80038,545 C151.410643,545 151.94755,544.759618 152.411115,544.278846 C152.874681,543.798075 153.10646,543.211542 153.10646,542.519231 C153.10646,542.339903 153.090521,542.166826 153.058642,542 L158.241125,542 C158.209655,542.166826 158.19392,542.339903 158.19392,542.519231 C158.19392,543.198721 158.422765,543.782049 158.880463,544.269231 C159.33816,544.756413 159.878001,545 160.5,545 C161.110263,545 161.64717,544.759618 162.110735,544.278846 C162.574301,543.798075 162.80608,543.211542 162.80608,542.519231 C162.80608,542.339903 162.790141,542.166826 162.758262,542 L167.940745,542 C167.909275,542.166826 167.89354,542.339903 167.89354,542.519231 C167.89354,543.198721 168.122385,543.782049 168.580083,544.269231 C169.03778,544.756413 169.577621,545 170.19962,545 C170.821619,545 171.36146,544.756413 171.819157,544.269231 C172.276855,543.782049 172.5057,543.198721 172.5057,542.519231 C172.5057,542.339903 172.489965,542.166826 172.458495,542 L177.640365,542 C177.608895,542.166826 177.59316,542.339903 177.59316,542.519231 C177.59316,543.198721 177.822005,543.782049 178.279703,544.269231 C178.7374,544.756413 179.277241,545 179.89924,545 C180.509503,545 181.04641,544.759618 181.509975,544.278846 C181.973541,543.798075 182.20532,543.211542 182.20532,542.519231 C182.20532,542.339903 182.189381,542.166826 182.157502,542 L187.339985,542 C187.308515,542.166826 187.29278,542.339903 187.29278,542.519231 C187.29278,543.198721 187.521625,543.782049 187.979323,544.269231 C188.43702,544.756413 188.976861,545 189.59886,545 C190.209123,545 190.74603,544.759618 191.209595,544.278846 C191.673161,543.798075 191.90494,543.211542 191.90494,542.519231 C191.90494,542.339903 191.889001,542.166826 191.857122,542 L197.039605,542 C197.008135,542.166826 196.9924,542.339903 196.9924,542.519231 C196.9924,543.198721 197.221245,543.782049 197.678943,544.269231 C198.13664,544.756413 198.676481,545 199.29848,545 C199.920479,545 200.46032,544.756413 200.918017,544.269231 C201.375715,543.782049 201.60456,543.198721 201.60456,542.519231 C201.60456,542.339903 201.588825,542.166826 201.557355,542 L206.739225,542 C206.707755,542.166826 206.69202,542.339903 206.69202,542.519231 C206.69202,543.198721 206.920865,543.782049 207.378563,544.269231 C207.83626,544.756413 208.376101,545 208.9981,545 C209.608363,545 210.14527,544.759618 210.608835,544.278846 C211.072401,543.798075 211.30418,543.211542 211.30418,542.519231 C211.30418,542.339903 211.288241,542.166826 211.256362,542 L216.438845,542 C216.407375,542.166826 216.39164,542.339903 216.39164,542.519231 C216.39164,543.198721 216.620485,543.782049 217.078183,544.269231 C217.53588,544.756413 218.075721,545 218.69772,545 C219.307983,545 219.84489,544.759618 220.308455,544.278846 C220.772021,543.798075 221.0038,543.211542 221.0038,542.519231 C221.0038,542.339903 220.987861,542.166826 220.955982,542 L226.138465,542 C226.106995,542.166826 226.09126,542.339903 226.09126,542.519231 C226.09126,543.198721 226.320105,543.782049 226.777803,544.269231 C227.2355,544.756413 227.775341,545 228.39734,545 C229.019339,545 229.55918,544.756413 230.016877,544.269231 C230.474575,543.782049 230.70342,543.198721 230.70342,542.519231 C230.70342,542.339903 230.687685,542.166826 230.656215,542 L235.838085,542 C235.806615,542.166826 235.79088,542.339903 235.79088,542.519231 C235.79088,543.198721 236.019725,543.782049 236.477423,544.269231 C236.93512,544.756413 237.474961,545 238.09696,545 C238.707223,545 239.24413,544.759618 239.707695,544.278846 C240.171261,543.798075 240.40304,543.211542 240.40304,542.519231 C240.40304,542.339903 240.387101,542.166826 240.355222,542 L245.537705,542 C245.506235,542.166826 245.4905,542.339903 245.4905,542.519231 C245.4905,543.198721 245.719345,543.782049 246.177043,544.269231 C246.63474,544.756413 247.174581,545 247.79658,545 C248.406843,545 248.94375,544.759618 249.407315,544.278846 C249.870881,543.798075 250.10266,543.211542 250.10266,542.519231 C250.10266,542.339903 250.086721,542.166826 250.054842,542 L255.237325,542 C255.205855,542.166826 255.19012,542.339903 255.19012,542.519231 C255.19012,543.198721 255.418965,543.782049 255.876663,544.269231 C256.33436,544.756413 256.874201,545 257.4962,545 C258.118199,545 258.65804,544.756413 259.115737,544.269231 C259.573435,543.782049 259.80228,543.198721 259.80228,542.519231 C259.80228,542.339903 259.786545,542.166826 259.755075,542 L264.936945,542 C264.905475,542.166826 264.88974,542.339903 264.88974,542.519231 C264.88974,543.198721 265.118585,543.782049 265.576283,544.269231 C266.03398,544.756413 266.573821,545 267.19582,545 C267.806083,545 268.34299,544.759618 268.806555,544.278846 C269.270121,543.798075 269.5019,543.211542 269.5019,542.519231 C269.5019,542.339903 269.485961,542.166826 269.454082,542 L274.636565,542 C274.605095,542.166826 274.58936,542.339903 274.58936,542.519231 C274.58936,543.198721 274.818205,543.782049 275.275903,544.269231 C275.7336,544.756413 276.273441,545 276.89544,545 C277.505703,545 278.04261,544.759618 278.506175,544.278846 C278.969741,543.798075 279.20152,543.211542 279.20152,542.519231 C279.20152,542.339903 279.185581,542.166826 279.153702,542 L284.336185,542 C284.304715,542.166826 284.28898,542.339903 284.28898,542.519231 C284.28898,543.198721 284.517825,543.782049 284.975523,544.269231 C285.43322,544.756413 285.97306,545 286.59506,545 C287.217059,545 287.756899,544.756413 288.214597,544.269231 C288.672295,543.782049 288.90114,543.198721 288.90114,542.519231 C288.90114,542.339903 288.885405,542.166826 288.853935,542 L294.035805,542 C294.004335,542.166826 293.9886,542.339903 293.9886,542.519231 C293.9886,543.198721 294.217445,543.782049 294.675143,544.269231 C295.13284,544.756413 295.67268,545 296.29468,545 C296.904943,545 297.44185,544.759618 297.905415,544.278846 C298.368981,543.798075 298.60076,543.211542 298.60076,542.519231 C298.60076,542.339903 298.584821,542.166826 298.552942,542 L303.735425,542 C303.703955,542.166826 303.68822,542.339903 303.68822,542.519231 C303.68822,543.198721 303.917065,543.782049 304.374762,544.269231 C304.83246,544.756413 305.3723,545 305.9943,545 C306.604563,545 307.14147,544.759618 307.605035,544.278846 C308.068601,543.798075 308.30038,543.211542 308.30038,542.519231 C308.30038,542.339903 308.284441,542.166826 308.252562,542 L313.435045,542 C313.403575,542.166826 313.387839,542.339903 313.387839,542.519231 C313.387839,543.198721 313.616685,543.782049 314.074382,544.269231 C314.53208,544.756413 315.07192,545 315.69392,545 C316.315919,545 316.855759,544.756413 317.313457,544.269231 C317.771155,543.782049 318,543.198721 318,542.519231 C318,542.339903 317.984265,542.166826 317.952795,542 L320,542 L320,546 L0,546 L0,542 L3.04720534,542 Z" id="Rectangle-2" fill="#FFFFFF"></path>
    </g>
</svg>