<?xml version="1.0" encoding="UTF-8"?>
<svg width="320px" height="546px" viewBox="0 0 320 546" version="1.1" xmlns="http://www.w3.org/2000/svg" xmlns:xlink="http://www.w3.org/1999/xlink">
    <!-- Generator: Sketch 54.1 (76490) - https://sketchapp.com -->
    <title>hongvan_overlay_end</title>
    <desc>Created with Sketch.</desc>
    <g id="hongvan_overlay_end" stroke="none" stroke-width="1" fill="none" fill-rule="evenodd">
        <path d="M4.99990806,-0.000731759581 L314.999908,-0.000731759581 C317.761332,-0.000731759581 319.999908,2.23784449 319.999908,4.99926824 L319.999908,540.999268 C319.999908,543.760692 317.761332,545.999268 314.999908,545.999268 L4.99990806,545.999268 C2.23848431,545.999268 -9.1944495e-05,543.760692 -9.1944495e-05,540.999268 L-9.1944495e-05,4.99926824 C-9.1944495e-05,2.23784449 2.23848431,-0.000731759581 4.99990806,-0.000731759581 Z M24.9986208,42.2180069 C22.2371971,42.2180069 19.9986208,44.4565832 19.9986208,47.2180069 L19.9986208,512.999268 C19.9986208,515.760692 22.2371971,517.999268 24.9986208,517.999268 L294.999908,517.999268 C297.761332,517.999268 299.999908,515.760692 299.999908,512.999268 L299.999908,47.2180069 C299.999908,44.4565832 297.761332,42.2180069 294.999908,42.2180069 L24.9986208,42.2180069 Z" id="Rectangle-3" fill="#E1F5FE"></path>
    </g>
</svg>