<?xml version="1.0" encoding="UTF-8"?>
<svg width="320px" height="537px" viewBox="0 0 320 537" version="1.1" xmlns="http://www.w3.org/2000/svg" xmlns:xlink="http://www.w3.org/1999/xlink">
    <!-- Generator: Sketch 54.1 (76490) - https://sketchapp.com -->
    <title>hongvan_overlay</title>
    <desc>Created with Sketch.</desc>
    <g id="hongvan_overlay" stroke="none" stroke-width="1" fill="none" fill-rule="evenodd">
        <path d="M0,0 L320,0 L320,537 L0,537 L0,0 Z M25,37 C22.2385763,37 20,39.2385763 20,42 L20,500 C20,502.761424 22.2385763,505 25,505 L295,505 C297.761424,505 300,502.761424 300,500 L300,42 C300,39.2385763 297.761424,37 295,37 L25,37 Z" id="Rectangle-2" fill="#F0F6FA"></path>
        <path d="M30.2333984,534.254883 C30.2333984,534.49642 30.1445321,534.703775 29.9667969,534.876953 C29.7890616,535.050131 29.5794283,535.136719 29.3378906,535.136719 C29.096353,535.136719 28.8867196,535.050131 28.7089844,534.876953 C28.5312491,534.703775 28.4423828,534.49642 28.4423828,534.254883 C28.4423828,534.013345 28.5301098,533.803712 28.7055664,533.625977 C28.881023,533.448241 29.0917956,533.359375 29.3378906,533.359375 C29.5839856,533.359375 29.7947582,533.448241 29.9702148,533.625977 C30.1456715,533.803712 30.2333984,534.013345 30.2333984,534.254883 Z M26.4667969,534.254883 C26.4667969,534.500978 26.3767913,534.709472 26.1967773,534.880371 C26.0167634,535.05127 25.8082694,535.136719 25.5712891,535.136719 C25.3297514,535.136719 25.1201181,535.050131 24.9423828,534.876953 C24.7646475,534.703775 24.6757812,534.49642 24.6757812,534.254883 C24.6757812,534.013345 24.7635082,533.803712 24.9389648,533.625977 C25.1144215,533.448241 25.3251941,533.359375 25.5712891,533.359375 C25.8128267,533.359375 26.02246,533.448241 26.2001953,533.625977 C26.3779306,533.803712 26.4667969,534.013345 26.4667969,534.254883 Z M22.7001953,534.254883 C22.7001953,534.500978 22.6101897,534.709472 22.4301758,534.880371 C22.2501619,535.05127 22.0416679,535.136719 21.8046875,535.136719 C21.5631498,535.136719 21.3535165,535.050131 21.1757812,534.876953 C20.998046,534.703775 20.9091797,534.49642 20.9091797,534.254883 C20.9091797,534.013345 20.9969067,533.803712 21.1723633,533.625977 C21.3478199,533.448241 21.5585925,533.359375 21.8046875,533.359375 C22.0462252,533.359375 22.2558585,533.448241 22.4335938,533.625977 C22.611329,533.803712 22.7001953,534.013345 22.7001953,534.254883 Z M41.5332031,534.254883 C41.5332031,534.49642 41.4443368,534.703775 41.2666016,534.876953 C41.0888663,535.050131 40.879233,535.136719 40.6376953,535.136719 C40.3961576,535.136719 40.1865243,535.050131 40.0087891,534.876953 C39.8310538,534.703775 39.7421875,534.49642 39.7421875,534.254883 C39.7421875,534.013345 39.8299145,533.803712 40.0053711,533.625977 C40.1808277,533.448241 40.3916003,533.359375 40.6376953,533.359375 C40.8837903,533.359375 41.0945629,533.448241 41.2700195,533.625977 C41.4454761,533.803712 41.5332031,534.013345 41.5332031,534.254883 Z M37.7666016,534.254883 C37.7666016,534.500978 37.676596,534.709472 37.496582,534.880371 C37.3165681,535.05127 37.1080741,535.136719 36.8710938,535.136719 C36.6295561,535.136719 36.4199228,535.050131 36.2421875,534.876953 C36.0644522,534.703775 35.9755859,534.49642 35.9755859,534.254883 C35.9755859,534.013345 36.0633129,533.803712 36.2387695,533.625977 C36.4142261,533.448241 36.6249988,533.359375 36.8710938,533.359375 C37.1126314,533.359375 37.3222647,533.448241 37.5,533.625977 C37.6777353,533.803712 37.7666016,534.013345 37.7666016,534.254883 Z M34,534.254883 C34,534.500978 33.9099944,534.709472 33.7299805,534.880371 C33.5499665,535.05127 33.3414725,535.136719 33.1044922,535.136719 C32.8629545,535.136719 32.6533212,535.050131 32.4755859,534.876953 C32.2978507,534.703775 32.2089844,534.49642 32.2089844,534.254883 C32.2089844,534.013345 32.2967114,533.803712 32.472168,533.625977 C32.6476246,533.448241 32.8583972,533.359375 33.1044922,533.359375 C33.3460299,533.359375 33.5556632,533.448241 33.7333984,533.625977 C33.9111337,533.803712 34,534.013345 34,534.254883 Z M52.8330078,534.254883 C52.8330078,534.49642 52.7441415,534.703775 52.5664062,534.876953 C52.388671,535.050131 52.1790377,535.136719 51.9375,535.136719 C51.6959623,535.136719 51.486329,535.050131 51.3085938,534.876953 C51.1308585,534.703775 51.0419922,534.49642 51.0419922,534.254883 C51.0419922,534.013345 51.1297192,533.803712 51.3051758,533.625977 C51.4806324,533.448241 51.691405,533.359375 51.9375,533.359375 C52.183595,533.359375 52.3943676,533.448241 52.5698242,533.625977 C52.7452808,533.803712 52.8330078,534.013345 52.8330078,534.254883 Z M49.0664062,534.254883 C49.0664062,534.500978 48.9764006,534.709472 48.7963867,534.880371 C48.6163728,535.05127 48.4078788,535.136719 48.1708984,535.136719 C47.9293608,535.136719 47.7197275,535.050131 47.5419922,534.876953 C47.3642569,534.703775 47.2753906,534.49642 47.2753906,534.254883 C47.2753906,534.013345 47.3631176,533.803712 47.5385742,533.625977 C47.7140308,533.448241 47.9248035,533.359375 48.1708984,533.359375 C48.4124361,533.359375 48.6220694,533.448241 48.7998047,533.625977 C48.97754,533.803712 49.0664062,534.013345 49.0664062,534.254883 Z M45.2998047,534.254883 C45.2998047,534.500978 45.2097991,534.709472 45.0297852,534.880371 C44.8497712,535.05127 44.6412772,535.136719 44.4042969,535.136719 C44.1627592,535.136719 43.9531259,535.050131 43.7753906,534.876953 C43.5976554,534.703775 43.5087891,534.49642 43.5087891,534.254883 C43.5087891,534.013345 43.596516,533.803712 43.7719727,533.625977 C43.9474293,533.448241 44.1582019,533.359375 44.4042969,533.359375 C44.6458345,533.359375 44.8554679,533.448241 45.0332031,533.625977 C45.2109384,533.803712 45.2998047,534.013345 45.2998047,534.254883 Z M64.1328125,534.254883 C64.1328125,534.49642 64.0439462,534.703775 63.8662109,534.876953 C63.6884757,535.050131 63.4788424,535.136719 63.2373047,535.136719 C62.995767,535.136719 62.7861337,535.050131 62.6083984,534.876953 C62.4306632,534.703775 62.3417969,534.49642 62.3417969,534.254883 C62.3417969,534.013345 62.4295239,533.803712 62.6049805,533.625977 C62.7804371,533.448241 62.9912097,533.359375 63.2373047,533.359375 C63.4833997,533.359375 63.6941723,533.448241 63.8696289,533.625977 C64.0450855,533.803712 64.1328125,534.013345 64.1328125,534.254883 Z M60.3662109,534.254883 C60.3662109,534.500978 60.2762053,534.709472 60.0961914,534.880371 C59.9161775,535.05127 59.7076835,535.136719 59.4707031,535.136719 C59.2291655,535.136719 59.0195321,535.050131 58.8417969,534.876953 C58.6640616,534.703775 58.5751953,534.49642 58.5751953,534.254883 C58.5751953,534.013345 58.6629223,533.803712 58.8383789,533.625977 C59.0138355,533.448241 59.2246081,533.359375 59.4707031,533.359375 C59.7122408,533.359375 59.9218741,533.448241 60.0996094,533.625977 C60.2773446,533.803712 60.3662109,534.013345 60.3662109,534.254883 Z M56.5996094,534.254883 C56.5996094,534.500978 56.5096038,534.709472 56.3295898,534.880371 C56.1495759,535.05127 55.9410819,535.136719 55.7041016,535.136719 C55.4625639,535.136719 55.2529306,535.050131 55.0751953,534.876953 C54.89746,534.703775 54.8085938,534.49642 54.8085938,534.254883 C54.8085938,534.013345 54.8963207,533.803712 55.0717773,533.625977 C55.247234,533.448241 55.4580066,533.359375 55.7041016,533.359375 C55.9456392,533.359375 56.1552725,533.448241 56.3330078,533.625977 C56.5107431,533.803712 56.5996094,534.013345 56.5996094,534.254883 Z M75.4326172,534.254883 C75.4326172,534.49642 75.3437509,534.703775 75.1660156,534.876953 C74.9882804,535.050131 74.778647,535.136719 74.5371094,535.136719 C74.2955717,535.136719 74.0859384,535.050131 73.9082031,534.876953 C73.7304679,534.703775 73.6416016,534.49642 73.6416016,534.254883 C73.6416016,534.013345 73.7293285,533.803712 73.9047852,533.625977 C74.0802418,533.448241 74.2910144,533.359375 74.5371094,533.359375 C74.7832044,533.359375 74.993977,533.448241 75.1694336,533.625977 C75.3448902,533.803712 75.4326172,534.013345 75.4326172,534.254883 Z M71.6660156,534.254883 C71.6660156,534.500978 71.57601,534.709472 71.3959961,534.880371 C71.2159822,535.05127 71.0074882,535.136719 70.7705078,535.136719 C70.5289701,535.136719 70.3193368,535.050131 70.1416016,534.876953 C69.9638663,534.703775 69.875,534.49642 69.875,534.254883 C69.875,534.013345 69.962727,533.803712 70.1381836,533.625977 C70.3136402,533.448241 70.5244128,533.359375 70.7705078,533.359375 C71.0120455,533.359375 71.2216788,533.448241 71.3994141,533.625977 C71.5771493,533.803712 71.6660156,534.013345 71.6660156,534.254883 Z M67.8994141,534.254883 C67.8994141,534.500978 67.8094085,534.709472 67.6293945,534.880371 C67.4493806,535.05127 67.2408866,535.136719 67.0039062,535.136719 C66.7623686,535.136719 66.5527353,535.050131 66.375,534.876953 C66.1972647,534.703775 66.1083984,534.49642 66.1083984,534.254883 C66.1083984,534.013345 66.1961254,533.803712 66.371582,533.625977 C66.5470386,533.448241 66.7578113,533.359375 67.0039062,533.359375 C67.2454439,533.359375 67.4550772,533.448241 67.6328125,533.625977 C67.8105478,533.803712 67.8994141,534.013345 67.8994141,534.254883 Z M86.7324219,534.254883 C86.7324219,534.49642 86.6435556,534.703775 86.4658203,534.876953 C86.288085,535.050131 86.0784517,535.136719 85.8369141,535.136719 C85.5953764,535.136719 85.3857431,535.050131 85.2080078,534.876953 C85.0302725,534.703775 84.9414062,534.49642 84.9414062,534.254883 C84.9414062,534.013345 85.0291332,533.803712 85.2045898,533.625977 C85.3800465,533.448241 85.5908191,533.359375 85.8369141,533.359375 C86.083009,533.359375 86.2937817,533.448241 86.4692383,533.625977 C86.6446949,533.803712 86.7324219,534.013345 86.7324219,534.254883 Z M82.9658203,534.254883 C82.9658203,534.500978 82.8758147,534.709472 82.6958008,534.880371 C82.5157869,535.05127 82.3072929,535.136719 82.0703125,535.136719 C81.8287748,535.136719 81.6191415,535.050131 81.4414062,534.876953 C81.263671,534.703775 81.1748047,534.49642 81.1748047,534.254883 C81.1748047,534.013345 81.2625317,533.803712 81.4379883,533.625977 C81.6134449,533.448241 81.8242175,533.359375 82.0703125,533.359375 C82.3118502,533.359375 82.5214835,533.448241 82.6992188,533.625977 C82.876954,533.803712 82.9658203,534.013345 82.9658203,534.254883 Z M79.1992188,534.254883 C79.1992188,534.500978 79.1092131,534.709472 78.9291992,534.880371 C78.7491853,535.05127 78.5406913,535.136719 78.3037109,535.136719 C78.0621733,535.136719 77.85254,535.050131 77.6748047,534.876953 C77.4970694,534.703775 77.4082031,534.49642 77.4082031,534.254883 C77.4082031,534.013345 77.4959301,533.803712 77.6713867,533.625977 C77.8468433,533.448241 78.057616,533.359375 78.3037109,533.359375 C78.5452486,533.359375 78.7548819,533.448241 78.9326172,533.625977 C79.1103525,533.803712 79.1992188,534.013345 79.1992188,534.254883 Z M98.0322266,534.254883 C98.0322266,534.49642 97.9433603,534.703775 97.765625,534.876953 C97.5878897,535.050131 97.3782564,535.136719 97.1367188,535.136719 C96.8951811,535.136719 96.6855478,535.050131 96.5078125,534.876953 C96.3300772,534.703775 96.2412109,534.49642 96.2412109,534.254883 C96.2412109,534.013345 96.3289379,533.803712 96.5043945,533.625977 C96.6798511,533.448241 96.8906238,533.359375 97.1367188,533.359375 C97.3828137,533.359375 97.5935864,533.448241 97.769043,533.625977 C97.9444996,533.803712 98.0322266,534.013345 98.0322266,534.254883 Z M94.265625,534.254883 C94.265625,534.500978 94.1756194,534.709472 93.9956055,534.880371 C93.8155915,535.05127 93.6070975,535.136719 93.3701172,535.136719 C93.1285795,535.136719 92.9189462,535.050131 92.7412109,534.876953 C92.5634757,534.703775 92.4746094,534.49642 92.4746094,534.254883 C92.4746094,534.013345 92.5623364,533.803712 92.737793,533.625977 C92.9132496,533.448241 93.1240222,533.359375 93.3701172,533.359375 C93.6116549,533.359375 93.8212882,533.448241 93.9990234,533.625977 C94.1767587,533.803712 94.265625,534.013345 94.265625,534.254883 Z M90.4990234,534.254883 C90.4990234,534.500978 90.4090178,534.709472 90.2290039,534.880371 C90.04899,535.05127 89.840496,535.136719 89.6035156,535.136719 C89.361978,535.136719 89.1523446,535.050131 88.9746094,534.876953 C88.7968741,534.703775 88.7080078,534.49642 88.7080078,534.254883 C88.7080078,534.013345 88.7957348,533.803712 88.9711914,533.625977 C89.146648,533.448241 89.3574206,533.359375 89.6035156,533.359375 C89.8450533,533.359375 90.0546866,533.448241 90.2324219,533.625977 C90.4101571,533.803712 90.4990234,534.013345 90.4990234,534.254883 Z M109.332031,534.254883 C109.332031,534.49642 109.243165,534.703775 109.06543,534.876953 C108.887694,535.050131 108.678061,535.136719 108.436523,535.136719 C108.194986,535.136719 107.985352,535.050131 107.807617,534.876953 C107.629882,534.703775 107.541016,534.49642 107.541016,534.254883 C107.541016,534.013345 107.628743,533.803712 107.804199,533.625977 C107.979656,533.448241 108.190428,533.359375 108.436523,533.359375 C108.682618,533.359375 108.893391,533.448241 109.068848,533.625977 C109.244304,533.803712 109.332031,534.013345 109.332031,534.254883 Z M105.56543,534.254883 C105.56543,534.500978 105.475424,534.709472 105.29541,534.880371 C105.115396,535.05127 104.906902,535.136719 104.669922,535.136719 C104.428384,535.136719 104.218751,535.050131 104.041016,534.876953 C103.86328,534.703775 103.774414,534.49642 103.774414,534.254883 C103.774414,534.013345 103.862141,533.803712 104.037598,533.625977 C104.213054,533.448241 104.423827,533.359375 104.669922,533.359375 C104.91146,533.359375 105.121093,533.448241 105.298828,533.625977 C105.476563,533.803712 105.56543,534.013345 105.56543,534.254883 Z M101.798828,534.254883 C101.798828,534.500978 101.708823,534.709472 101.528809,534.880371 C101.348795,535.05127 101.140301,535.136719 100.90332,535.136719 C100.661783,535.136719 100.452149,535.050131 100.274414,534.876953 C100.096679,534.703775 100.007812,534.49642 100.007812,534.254883 C100.007812,534.013345 100.095539,533.803712 100.270996,533.625977 C100.446453,533.448241 100.657225,533.359375 100.90332,533.359375 C101.144858,533.359375 101.354491,533.448241 101.532227,533.625977 C101.709962,533.803712 101.798828,534.013345 101.798828,534.254883 Z M120.631836,534.254883 C120.631836,534.49642 120.54297,534.703775 120.365234,534.876953 C120.187499,535.050131 119.977866,535.136719 119.736328,535.136719 C119.49479,535.136719 119.285157,535.050131 119.107422,534.876953 C118.929687,534.703775 118.84082,534.49642 118.84082,534.254883 C118.84082,534.013345 118.928547,533.803712 119.104004,533.625977 C119.279461,533.448241 119.490233,533.359375 119.736328,533.359375 C119.982423,533.359375 120.193196,533.448241 120.368652,533.625977 C120.544109,533.803712 120.631836,534.013345 120.631836,534.254883 Z M116.865234,534.254883 C116.865234,534.500978 116.775229,534.709472 116.595215,534.880371 C116.415201,535.05127 116.206707,535.136719 115.969727,535.136719 C115.728189,535.136719 115.518556,535.050131 115.34082,534.876953 C115.163085,534.703775 115.074219,534.49642 115.074219,534.254883 C115.074219,534.013345 115.161946,533.803712 115.337402,533.625977 C115.512859,533.448241 115.723632,533.359375 115.969727,533.359375 C116.211264,533.359375 116.420898,533.448241 116.598633,533.625977 C116.776368,533.803712 116.865234,534.013345 116.865234,534.254883 Z M113.098633,534.254883 C113.098633,534.500978 113.008627,534.709472 112.828613,534.880371 C112.648599,535.05127 112.440105,535.136719 112.203125,535.136719 C111.961587,535.136719 111.751954,535.050131 111.574219,534.876953 C111.396483,534.703775 111.307617,534.49642 111.307617,534.254883 C111.307617,534.013345 111.395344,533.803712 111.570801,533.625977 C111.746257,533.448241 111.95703,533.359375 112.203125,533.359375 C112.444663,533.359375 112.654296,533.448241 112.832031,533.625977 C113.009767,533.803712 113.098633,534.013345 113.098633,534.254883 Z M131.931641,534.254883 C131.931641,534.49642 131.842774,534.703775 131.665039,534.876953 C131.487304,535.050131 131.27767,535.136719 131.036133,535.136719 C130.794595,535.136719 130.584962,535.050131 130.407227,534.876953 C130.229491,534.703775 130.140625,534.49642 130.140625,534.254883 C130.140625,534.013345 130.228352,533.803712 130.403809,533.625977 C130.579265,533.448241 130.790038,533.359375 131.036133,533.359375 C131.282228,533.359375 131.493,533.448241 131.668457,533.625977 C131.843914,533.803712 131.931641,534.013345 131.931641,534.254883 Z M128.165039,534.254883 C128.165039,534.500978 128.075033,534.709472 127.89502,534.880371 C127.715006,535.05127 127.506512,535.136719 127.269531,535.136719 C127.027994,535.136719 126.81836,535.050131 126.640625,534.876953 C126.46289,534.703775 126.374023,534.49642 126.374023,534.254883 C126.374023,534.013345 126.46175,533.803712 126.637207,533.625977 C126.812664,533.448241 127.023436,533.359375 127.269531,533.359375 C127.511069,533.359375 127.720702,533.448241 127.898438,533.625977 C128.076173,533.803712 128.165039,534.013345 128.165039,534.254883 Z M124.398438,534.254883 C124.398438,534.500978 124.308432,534.709472 124.128418,534.880371 C123.948404,535.05127 123.73991,535.136719 123.50293,535.136719 C123.261392,535.136719 123.051759,535.050131 122.874023,534.876953 C122.696288,534.703775 122.607422,534.49642 122.607422,534.254883 C122.607422,534.013345 122.695149,533.803712 122.870605,533.625977 C123.046062,533.448241 123.256835,533.359375 123.50293,533.359375 C123.744467,533.359375 123.954101,533.448241 124.131836,533.625977 C124.309571,533.803712 124.398438,534.013345 124.398438,534.254883 Z M143.231445,534.254883 C143.231445,534.49642 143.142579,534.703775 142.964844,534.876953 C142.787108,535.050131 142.577475,535.136719 142.335938,535.136719 C142.0944,535.136719 141.884767,535.050131 141.707031,534.876953 C141.529296,534.703775 141.44043,534.49642 141.44043,534.254883 C141.44043,534.013345 141.528157,533.803712 141.703613,533.625977 C141.87907,533.448241 142.089843,533.359375 142.335938,533.359375 C142.582032,533.359375 142.792805,533.448241 142.968262,533.625977 C143.143718,533.803712 143.231445,534.013345 143.231445,534.254883 Z M139.464844,534.254883 C139.464844,534.500978 139.374838,534.709472 139.194824,534.880371 C139.01481,535.05127 138.806316,535.136719 138.569336,535.136719 C138.327798,535.136719 138.118165,535.050131 137.94043,534.876953 C137.762694,534.703775 137.673828,534.49642 137.673828,534.254883 C137.673828,534.013345 137.761555,533.803712 137.937012,533.625977 C138.112468,533.448241 138.323241,533.359375 138.569336,533.359375 C138.810874,533.359375 139.020507,533.448241 139.198242,533.625977 C139.375977,533.803712 139.464844,534.013345 139.464844,534.254883 Z M135.698242,534.254883 C135.698242,534.500978 135.608237,534.709472 135.428223,534.880371 C135.248209,535.05127 135.039715,535.136719 134.802734,535.136719 C134.561197,535.136719 134.351563,535.050131 134.173828,534.876953 C133.996093,534.703775 133.907227,534.49642 133.907227,534.254883 C133.907227,534.013345 133.994954,533.803712 134.17041,533.625977 C134.345867,533.448241 134.556639,533.359375 134.802734,533.359375 C135.044272,533.359375 135.253905,533.448241 135.431641,533.625977 C135.609376,533.803712 135.698242,534.013345 135.698242,534.254883 Z M154.53125,534.254883 C154.53125,534.49642 154.442384,534.703775 154.264648,534.876953 C154.086913,535.050131 153.87728,535.136719 153.635742,535.136719 C153.394205,535.136719 153.184571,535.050131 153.006836,534.876953 C152.829101,534.703775 152.740234,534.49642 152.740234,534.254883 C152.740234,534.013345 152.827961,533.803712 153.003418,533.625977 C153.178875,533.448241 153.389647,533.359375 153.635742,533.359375 C153.881837,533.359375 154.09261,533.448241 154.268066,533.625977 C154.443523,533.803712 154.53125,534.013345 154.53125,534.254883 Z M150.764648,534.254883 C150.764648,534.500978 150.674643,534.709472 150.494629,534.880371 C150.314615,535.05127 150.106121,535.136719 149.869141,535.136719 C149.627603,535.136719 149.41797,535.050131 149.240234,534.876953 C149.062499,534.703775 148.973633,534.49642 148.973633,534.254883 C148.973633,534.013345 149.06136,533.803712 149.236816,533.625977 C149.412273,533.448241 149.623046,533.359375 149.869141,533.359375 C150.110678,533.359375 150.320312,533.448241 150.498047,533.625977 C150.675782,533.803712 150.764648,534.013345 150.764648,534.254883 Z M146.998047,534.254883 C146.998047,534.500978 146.908041,534.709472 146.728027,534.880371 C146.548013,535.05127 146.339519,535.136719 146.102539,535.136719 C145.861001,535.136719 145.651368,535.050131 145.473633,534.876953 C145.295898,534.703775 145.207031,534.49642 145.207031,534.254883 C145.207031,534.013345 145.294758,533.803712 145.470215,533.625977 C145.645671,533.448241 145.856444,533.359375 146.102539,533.359375 C146.344077,533.359375 146.55371,533.448241 146.731445,533.625977 C146.909181,533.803712 146.998047,534.013345 146.998047,534.254883 Z M165.831055,534.254883 C165.831055,534.49642 165.742188,534.703775 165.564453,534.876953 C165.386718,535.050131 165.177085,535.136719 164.935547,535.136719 C164.694009,535.136719 164.484376,535.050131 164.306641,534.876953 C164.128905,534.703775 164.040039,534.49642 164.040039,534.254883 C164.040039,534.013345 164.127766,533.803712 164.303223,533.625977 C164.478679,533.448241 164.689452,533.359375 164.935547,533.359375 C165.181642,533.359375 165.392414,533.448241 165.567871,533.625977 C165.743328,533.803712 165.831055,534.013345 165.831055,534.254883 Z M162.064453,534.254883 C162.064453,534.500978 161.974448,534.709472 161.794434,534.880371 C161.61442,535.05127 161.405926,535.136719 161.168945,535.136719 C160.927408,535.136719 160.717774,535.050131 160.540039,534.876953 C160.362304,534.703775 160.273438,534.49642 160.273438,534.254883 C160.273438,534.013345 160.361164,533.803712 160.536621,533.625977 C160.712078,533.448241 160.92285,533.359375 161.168945,533.359375 C161.410483,533.359375 161.620116,533.448241 161.797852,533.625977 C161.975587,533.803712 162.064453,534.013345 162.064453,534.254883 Z M158.297852,534.254883 C158.297852,534.500978 158.207846,534.709472 158.027832,534.880371 C157.847818,535.05127 157.639324,535.136719 157.402344,535.136719 C157.160806,535.136719 156.951173,535.050131 156.773438,534.876953 C156.595702,534.703775 156.506836,534.49642 156.506836,534.254883 C156.506836,534.013345 156.594563,533.803712 156.77002,533.625977 C156.945476,533.448241 157.156249,533.359375 157.402344,533.359375 C157.643881,533.359375 157.853515,533.448241 158.03125,533.625977 C158.208985,533.803712 158.297852,534.013345 158.297852,534.254883 Z M177.130859,534.254883 C177.130859,534.49642 177.041993,534.703775 176.864258,534.876953 C176.686523,535.050131 176.476889,535.136719 176.235352,535.136719 C175.993814,535.136719 175.784181,535.050131 175.606445,534.876953 C175.42871,534.703775 175.339844,534.49642 175.339844,534.254883 C175.339844,534.013345 175.427571,533.803712 175.603027,533.625977 C175.778484,533.448241 175.989257,533.359375 176.235352,533.359375 C176.481447,533.359375 176.692219,533.448241 176.867676,533.625977 C177.043132,533.803712 177.130859,534.013345 177.130859,534.254883 Z M173.364258,534.254883 C173.364258,534.500978 173.274252,534.709472 173.094238,534.880371 C172.914224,535.05127 172.70573,535.136719 172.46875,535.136719 C172.227212,535.136719 172.017579,535.050131 171.839844,534.876953 C171.662108,534.703775 171.573242,534.49642 171.573242,534.254883 C171.573242,534.013345 171.660969,533.803712 171.836426,533.625977 C172.011882,533.448241 172.222655,533.359375 172.46875,533.359375 C172.710288,533.359375 172.919921,533.448241 173.097656,533.625977 C173.275392,533.803712 173.364258,534.013345 173.364258,534.254883 Z M169.597656,534.254883 C169.597656,534.500978 169.507651,534.709472 169.327637,534.880371 C169.147623,535.05127 168.939129,535.136719 168.702148,535.136719 C168.460611,535.136719 168.250977,535.050131 168.073242,534.876953 C167.895507,534.703775 167.806641,534.49642 167.806641,534.254883 C167.806641,534.013345 167.894368,533.803712 168.069824,533.625977 C168.245281,533.448241 168.456053,533.359375 168.702148,533.359375 C168.943686,533.359375 169.153319,533.448241 169.331055,533.625977 C169.50879,533.803712 169.597656,534.013345 169.597656,534.254883 Z M188.430664,534.254883 C188.430664,534.49642 188.341798,534.703775 188.164062,534.876953 C187.986327,535.050131 187.776694,535.136719 187.535156,535.136719 C187.293619,535.136719 187.083985,535.050131 186.90625,534.876953 C186.728515,534.703775 186.639648,534.49642 186.639648,534.254883 C186.639648,534.013345 186.727375,533.803712 186.902832,533.625977 C187.078289,533.448241 187.289061,533.359375 187.535156,533.359375 C187.781251,533.359375 187.992024,533.448241 188.16748,533.625977 C188.342937,533.803712 188.430664,534.013345 188.430664,534.254883 Z M184.664062,534.254883 C184.664062,534.500978 184.574057,534.709472 184.394043,534.880371 C184.214029,535.05127 184.005535,535.136719 183.768555,535.136719 C183.527017,535.136719 183.317384,535.050131 183.139648,534.876953 C182.961913,534.703775 182.873047,534.49642 182.873047,534.254883 C182.873047,534.013345 182.960774,533.803712 183.13623,533.625977 C183.311687,533.448241 183.52246,533.359375 183.768555,533.359375 C184.010092,533.359375 184.219726,533.448241 184.397461,533.625977 C184.575196,533.803712 184.664062,534.013345 184.664062,534.254883 Z M180.897461,534.254883 C180.897461,534.500978 180.807455,534.709472 180.627441,534.880371 C180.447427,535.05127 180.238933,535.136719 180.001953,535.136719 C179.760415,535.136719 179.550782,535.050131 179.373047,534.876953 C179.195312,534.703775 179.106445,534.49642 179.106445,534.254883 C179.106445,534.013345 179.194172,533.803712 179.369629,533.625977 C179.545086,533.448241 179.755858,533.359375 180.001953,533.359375 C180.243491,533.359375 180.453124,533.448241 180.630859,533.625977 C180.808595,533.803712 180.897461,534.013345 180.897461,534.254883 Z M199.730469,534.254883 C199.730469,534.49642 199.641602,534.703775 199.463867,534.876953 C199.286132,535.050131 199.076499,535.136719 198.834961,535.136719 C198.593423,535.136719 198.38379,535.050131 198.206055,534.876953 C198.028319,534.703775 197.939453,534.49642 197.939453,534.254883 C197.939453,534.013345 198.02718,533.803712 198.202637,533.625977 C198.378093,533.448241 198.588866,533.359375 198.834961,533.359375 C199.081056,533.359375 199.291829,533.448241 199.467285,533.625977 C199.642742,533.803712 199.730469,534.013345 199.730469,534.254883 Z M195.963867,534.254883 C195.963867,534.500978 195.873862,534.709472 195.693848,534.880371 C195.513834,535.05127 195.30534,535.136719 195.068359,535.136719 C194.826822,535.136719 194.617188,535.050131 194.439453,534.876953 C194.261718,534.703775 194.172852,534.49642 194.172852,534.254883 C194.172852,534.013345 194.260579,533.803712 194.436035,533.625977 C194.611492,533.448241 194.822264,533.359375 195.068359,533.359375 C195.309897,533.359375 195.51953,533.448241 195.697266,533.625977 C195.875001,533.803712 195.963867,534.013345 195.963867,534.254883 Z M192.197266,534.254883 C192.197266,534.500978 192.10726,534.709472 191.927246,534.880371 C191.747232,535.05127 191.538738,535.136719 191.301758,535.136719 C191.06022,535.136719 190.850587,535.050131 190.672852,534.876953 C190.495116,534.703775 190.40625,534.49642 190.40625,534.254883 C190.40625,534.013345 190.493977,533.803712 190.669434,533.625977 C190.84489,533.448241 191.055663,533.359375 191.301758,533.359375 C191.543295,533.359375 191.752929,533.448241 191.930664,533.625977 C192.108399,533.803712 192.197266,534.013345 192.197266,534.254883 Z M211.030273,534.254883 C211.030273,534.49642 210.941407,534.703775 210.763672,534.876953 C210.585937,535.050131 210.376303,535.136719 210.134766,535.136719 C209.893228,535.136719 209.683595,535.050131 209.505859,534.876953 C209.328124,534.703775 209.239258,534.49642 209.239258,534.254883 C209.239258,534.013345 209.326985,533.803712 209.502441,533.625977 C209.677898,533.448241 209.888671,533.359375 210.134766,533.359375 C210.380861,533.359375 210.591633,533.448241 210.76709,533.625977 C210.942546,533.803712 211.030273,534.013345 211.030273,534.254883 Z M207.263672,534.254883 C207.263672,534.500978 207.173666,534.709472 206.993652,534.880371 C206.813638,535.05127 206.605144,535.136719 206.368164,535.136719 C206.126626,535.136719 205.916993,535.050131 205.739258,534.876953 C205.561523,534.703775 205.472656,534.49642 205.472656,534.254883 C205.472656,534.013345 205.560383,533.803712 205.73584,533.625977 C205.911296,533.448241 206.122069,533.359375 206.368164,533.359375 C206.609702,533.359375 206.819335,533.448241 206.99707,533.625977 C207.174806,533.803712 207.263672,534.013345 207.263672,534.254883 Z M203.49707,534.254883 C203.49707,534.500978 203.407065,534.709472 203.227051,534.880371 C203.047037,535.05127 202.838543,535.136719 202.601562,535.136719 C202.360025,535.136719 202.150392,535.050131 201.972656,534.876953 C201.794921,534.703775 201.706055,534.49642 201.706055,534.254883 C201.706055,534.013345 201.793782,533.803712 201.969238,533.625977 C202.144695,533.448241 202.355468,533.359375 202.601562,533.359375 C202.8431,533.359375 203.052733,533.448241 203.230469,533.625977 C203.408204,533.803712 203.49707,534.013345 203.49707,534.254883 Z M222.330078,534.254883 C222.330078,534.49642 222.241212,534.703775 222.063477,534.876953 C221.885741,535.050131 221.676108,535.136719 221.43457,535.136719 C221.193033,535.136719 220.983399,535.050131 220.805664,534.876953 C220.627929,534.703775 220.539062,534.49642 220.539062,534.254883 C220.539062,534.013345 220.626789,533.803712 220.802246,533.625977 C220.977703,533.448241 221.188475,533.359375 221.43457,533.359375 C221.680665,533.359375 221.891438,533.448241 222.066895,533.625977 C222.242351,533.803712 222.330078,534.013345 222.330078,534.254883 Z M218.563477,534.254883 C218.563477,534.500978 218.473471,534.709472 218.293457,534.880371 C218.113443,535.05127 217.904949,535.136719 217.667969,535.136719 C217.426431,535.136719 217.216798,535.050131 217.039062,534.876953 C216.861327,534.703775 216.772461,534.49642 216.772461,534.254883 C216.772461,534.013345 216.860188,533.803712 217.035645,533.625977 C217.211101,533.448241 217.421874,533.359375 217.667969,533.359375 C217.909506,533.359375 218.11914,533.448241 218.296875,533.625977 C218.47461,533.803712 218.563477,534.013345 218.563477,534.254883 Z M214.796875,534.254883 C214.796875,534.500978 214.706869,534.709472 214.526855,534.880371 C214.346842,535.05127 214.138348,535.136719 213.901367,535.136719 C213.65983,535.136719 213.450196,535.050131 213.272461,534.876953 C213.094726,534.703775 213.005859,534.49642 213.005859,534.254883 C213.005859,534.013345 213.093586,533.803712 213.269043,533.625977 C213.4445,533.448241 213.655272,533.359375 213.901367,533.359375 C214.142905,533.359375 214.352538,533.448241 214.530273,533.625977 C214.708009,533.803712 214.796875,534.013345 214.796875,534.254883 Z M233.629883,534.254883 C233.629883,534.49642 233.541017,534.703775 233.363281,534.876953 C233.185546,535.050131 232.975913,535.136719 232.734375,535.136719 C232.492837,535.136719 232.283204,535.050131 232.105469,534.876953 C231.927733,534.703775 231.838867,534.49642 231.838867,534.254883 C231.838867,534.013345 231.926594,533.803712 232.102051,533.625977 C232.277507,533.448241 232.48828,533.359375 232.734375,533.359375 C232.98047,533.359375 233.191243,533.448241 233.366699,533.625977 C233.542156,533.803712 233.629883,534.013345 233.629883,534.254883 Z M229.863281,534.254883 C229.863281,534.500978 229.773276,534.709472 229.593262,534.880371 C229.413248,535.05127 229.204754,535.136719 228.967773,535.136719 C228.726236,535.136719 228.516602,535.050131 228.338867,534.876953 C228.161132,534.703775 228.072266,534.49642 228.072266,534.254883 C228.072266,534.013345 228.159993,533.803712 228.335449,533.625977 C228.510906,533.448241 228.721678,533.359375 228.967773,533.359375 C229.209311,533.359375 229.418944,533.448241 229.59668,533.625977 C229.774415,533.803712 229.863281,534.013345 229.863281,534.254883 Z M226.09668,534.254883 C226.09668,534.500978 226.006674,534.709472 225.82666,534.880371 C225.646646,535.05127 225.438152,535.136719 225.201172,535.136719 C224.959634,535.136719 224.750001,535.050131 224.572266,534.876953 C224.39453,534.703775 224.305664,534.49642 224.305664,534.254883 C224.305664,534.013345 224.393391,533.803712 224.568848,533.625977 C224.744304,533.448241 224.955077,533.359375 225.201172,533.359375 C225.44271,533.359375 225.652343,533.448241 225.830078,533.625977 C226.007813,533.803712 226.09668,534.013345 226.09668,534.254883 Z M244.929688,534.254883 C244.929688,534.49642 244.840821,534.703775 244.663086,534.876953 C244.485351,535.050131 244.275717,535.136719 244.03418,535.136719 C243.792642,535.136719 243.583009,535.050131 243.405273,534.876953 C243.227538,534.703775 243.138672,534.49642 243.138672,534.254883 C243.138672,534.013345 243.226399,533.803712 243.401855,533.625977 C243.577312,533.448241 243.788085,533.359375 244.03418,533.359375 C244.280275,533.359375 244.491047,533.448241 244.666504,533.625977 C244.841961,533.803712 244.929688,534.013345 244.929688,534.254883 Z M241.163086,534.254883 C241.163086,534.500978 241.07308,534.709472 240.893066,534.880371 C240.713052,535.05127 240.504558,535.136719 240.267578,535.136719 C240.02604,535.136719 239.816407,535.050131 239.638672,534.876953 C239.460937,534.703775 239.37207,534.49642 239.37207,534.254883 C239.37207,534.013345 239.459797,533.803712 239.635254,533.625977 C239.810711,533.448241 240.021483,533.359375 240.267578,533.359375 C240.509116,533.359375 240.718749,533.448241 240.896484,533.625977 C241.07422,533.803712 241.163086,534.013345 241.163086,534.254883 Z M237.396484,534.254883 C237.396484,534.500978 237.306479,534.709472 237.126465,534.880371 C236.946451,535.05127 236.737957,535.136719 236.500977,535.136719 C236.259439,535.136719 236.049806,535.050131 235.87207,534.876953 C235.694335,534.703775 235.605469,534.49642 235.605469,534.254883 C235.605469,534.013345 235.693196,533.803712 235.868652,533.625977 C236.044109,533.448241 236.254882,533.359375 236.500977,533.359375 C236.742514,533.359375 236.952148,533.448241 237.129883,533.625977 C237.307618,533.803712 237.396484,534.013345 237.396484,534.254883 Z M256.229492,534.254883 C256.229492,534.49642 256.140626,534.703775 255.962891,534.876953 C255.785155,535.050131 255.575522,535.136719 255.333984,535.136719 C255.092447,535.136719 254.882813,535.050131 254.705078,534.876953 C254.527343,534.703775 254.438477,534.49642 254.438477,534.254883 C254.438477,534.013345 254.526204,533.803712 254.70166,533.625977 C254.877117,533.448241 255.087889,533.359375 255.333984,533.359375 C255.580079,533.359375 255.790852,533.448241 255.966309,533.625977 C256.141765,533.803712 256.229492,534.013345 256.229492,534.254883 Z M252.462891,534.254883 C252.462891,534.500978 252.372885,534.709472 252.192871,534.880371 C252.012857,535.05127 251.804363,535.136719 251.567383,535.136719 C251.325845,535.136719 251.116212,535.050131 250.938477,534.876953 C250.760741,534.703775 250.671875,534.49642 250.671875,534.254883 C250.671875,534.013345 250.759602,533.803712 250.935059,533.625977 C251.110515,533.448241 251.321288,533.359375 251.567383,533.359375 C251.80892,533.359375 252.018554,533.448241 252.196289,533.625977 C252.374024,533.803712 252.462891,534.013345 252.462891,534.254883 Z M248.696289,534.254883 C248.696289,534.500978 248.606283,534.709472 248.42627,534.880371 C248.246256,535.05127 248.037762,535.136719 247.800781,535.136719 C247.559244,535.136719 247.34961,535.050131 247.171875,534.876953 C246.99414,534.703775 246.905273,534.49642 246.905273,534.254883 C246.905273,534.013345 246.993,533.803712 247.168457,533.625977 C247.343914,533.448241 247.554686,533.359375 247.800781,533.359375 C248.042319,533.359375 248.251952,533.448241 248.429688,533.625977 C248.607423,533.803712 248.696289,534.013345 248.696289,534.254883 Z M267.529297,534.254883 C267.529297,534.49642 267.440431,534.703775 267.262695,534.876953 C267.08496,535.050131 266.875327,535.136719 266.633789,535.136719 C266.392251,535.136719 266.182618,535.050131 266.004883,534.876953 C265.827148,534.703775 265.738281,534.49642 265.738281,534.254883 C265.738281,534.013345 265.826008,533.803712 266.001465,533.625977 C266.176921,533.448241 266.387694,533.359375 266.633789,533.359375 C266.879884,533.359375 267.090657,533.448241 267.266113,533.625977 C267.44157,533.803712 267.529297,534.013345 267.529297,534.254883 Z M263.762695,534.254883 C263.762695,534.500978 263.67269,534.709472 263.492676,534.880371 C263.312662,535.05127 263.104168,535.136719 262.867188,535.136719 C262.62565,535.136719 262.416017,535.050131 262.238281,534.876953 C262.060546,534.703775 261.97168,534.49642 261.97168,534.254883 C261.97168,534.013345 262.059407,533.803712 262.234863,533.625977 C262.41032,533.448241 262.621093,533.359375 262.867188,533.359375 C263.108725,533.359375 263.318358,533.448241 263.496094,533.625977 C263.673829,533.803712 263.762695,534.013345 263.762695,534.254883 Z M259.996094,534.254883 C259.996094,534.500978 259.906088,534.709472 259.726074,534.880371 C259.54606,535.05127 259.337566,535.136719 259.100586,535.136719 C258.859048,535.136719 258.649415,535.050131 258.47168,534.876953 C258.293944,534.703775 258.205078,534.49642 258.205078,534.254883 C258.205078,534.013345 258.292805,533.803712 258.468262,533.625977 C258.643718,533.448241 258.854491,533.359375 259.100586,533.359375 C259.342124,533.359375 259.551757,533.448241 259.729492,533.625977 C259.907227,533.803712 259.996094,534.013345 259.996094,534.254883 Z M278.829102,534.254883 C278.829102,534.49642 278.740235,534.703775 278.5625,534.876953 C278.384765,535.050131 278.175131,535.136719 277.933594,535.136719 C277.692056,535.136719 277.482423,535.050131 277.304688,534.876953 C277.126952,534.703775 277.038086,534.49642 277.038086,534.254883 C277.038086,534.013345 277.125813,533.803712 277.30127,533.625977 C277.476726,533.448241 277.687499,533.359375 277.933594,533.359375 C278.179689,533.359375 278.390461,533.448241 278.565918,533.625977 C278.741375,533.803712 278.829102,534.013345 278.829102,534.254883 Z M275.0625,534.254883 C275.0625,534.500978 274.972494,534.709472 274.79248,534.880371 C274.612467,535.05127 274.403973,535.136719 274.166992,535.136719 C273.925455,535.136719 273.715821,535.050131 273.538086,534.876953 C273.360351,534.703775 273.271484,534.49642 273.271484,534.254883 C273.271484,534.013345 273.359211,533.803712 273.534668,533.625977 C273.710125,533.448241 273.920897,533.359375 274.166992,533.359375 C274.40853,533.359375 274.618163,533.448241 274.795898,533.625977 C274.973634,533.803712 275.0625,534.013345 275.0625,534.254883 Z M271.295898,534.254883 C271.295898,534.500978 271.205893,534.709472 271.025879,534.880371 C270.845865,535.05127 270.637371,535.136719 270.400391,535.136719 C270.158853,535.136719 269.94922,535.050131 269.771484,534.876953 C269.593749,534.703775 269.504883,534.49642 269.504883,534.254883 C269.504883,534.013345 269.59261,533.803712 269.768066,533.625977 C269.943523,533.448241 270.154296,533.359375 270.400391,533.359375 C270.641928,533.359375 270.851562,533.448241 271.029297,533.625977 C271.207032,533.803712 271.295898,534.013345 271.295898,534.254883 Z M290.128906,534.254883 C290.128906,534.49642 290.04004,534.703775 289.862305,534.876953 C289.684569,535.050131 289.474936,535.136719 289.233398,535.136719 C288.991861,535.136719 288.782227,535.050131 288.604492,534.876953 C288.426757,534.703775 288.337891,534.49642 288.337891,534.254883 C288.337891,534.013345 288.425618,533.803712 288.601074,533.625977 C288.776531,533.448241 288.987303,533.359375 289.233398,533.359375 C289.479493,533.359375 289.690266,533.448241 289.865723,533.625977 C290.041179,533.803712 290.128906,534.013345 290.128906,534.254883 Z M286.362305,534.254883 C286.362305,534.500978 286.272299,534.709472 286.092285,534.880371 C285.912271,535.05127 285.703777,535.136719 285.466797,535.136719 C285.225259,535.136719 285.015626,535.050131 284.837891,534.876953 C284.660155,534.703775 284.571289,534.49642 284.571289,534.254883 C284.571289,534.013345 284.659016,533.803712 284.834473,533.625977 C285.009929,533.448241 285.220702,533.359375 285.466797,533.359375 C285.708335,533.359375 285.917968,533.448241 286.095703,533.625977 C286.273438,533.803712 286.362305,534.013345 286.362305,534.254883 Z M282.595703,534.254883 C282.595703,534.500978 282.505698,534.709472 282.325684,534.880371 C282.14567,535.05127 281.937176,535.136719 281.700195,535.136719 C281.458658,535.136719 281.249024,535.050131 281.071289,534.876953 C280.893554,534.703775 280.804688,534.49642 280.804688,534.254883 C280.804688,534.013345 280.892414,533.803712 281.067871,533.625977 C281.243328,533.448241 281.4541,533.359375 281.700195,533.359375 C281.941733,533.359375 282.151366,533.448241 282.329102,533.625977 C282.506837,533.803712 282.595703,534.013345 282.595703,534.254883 Z M293.929688,534.213867 C293.929688,534.469077 293.837403,534.686685 293.652832,534.866699 C293.468261,535.046713 293.248374,535.136719 292.993164,535.136719 C292.737954,535.136719 292.518067,535.046713 292.333496,534.866699 C292.148925,534.686685 292.056641,534.469077 292.056641,534.213867 C292.056641,533.958658 292.148925,533.73877 292.333496,533.554199 C292.518067,533.369628 292.737954,533.277344 292.993164,533.277344 C293.248374,533.277344 293.468261,533.369628 293.652832,533.554199 C293.837403,533.73877 293.929688,533.958658 293.929688,534.213867 Z M297.703125,534.213867 C297.703125,534.469077 297.610841,534.686685 297.42627,534.866699 C297.241698,535.046713 297.021811,535.136719 296.766602,535.136719 C296.511392,535.136719 296.291505,535.046713 296.106934,534.866699 C295.922362,534.686685 295.830078,534.469077 295.830078,534.213867 C295.830078,533.958658 295.922362,533.73877 296.106934,533.554199 C296.291505,533.369628 296.511392,533.277344 296.766602,533.277344 C297.021811,533.277344 297.241698,533.369628 297.42627,533.554199 C297.610841,533.73877 297.703125,533.958658 297.703125,534.213867 Z" id="……………………………………………………………….." fill="#DADFE7" fill-rule="nonzero"></path>
    </g>
</svg>