<?xml version="1.0" encoding="UTF-8"?>
<svg width="320px" height="256px" viewBox="0 0 320 256" version="1.1" xmlns="http://www.w3.org/2000/svg" xmlns:xlink="http://www.w3.org/1999/xlink">
    <!-- Generator: Sketch 54.1 (76490) - https://sketchapp.com -->
    <title>hongvan_vmt_pre</title>
    <desc>Created with Sketch.</desc>
    <defs>
        <path d="M32,41.8293352 L32,41.2864976 C32,39.4729267 33.0610293,38.2021933 34.8454876,38.2021933 C36.4611458,38.2021933 37.4438036,39.2508568 37.479975,40.5092529 L36.0150312,40.5092529 C35.9306312,39.9664154 35.5086309,39.4976011 34.9178305,39.4976011 C34.0919157,39.4976011 33.5915439,40.1884853 33.5915439,41.3050034 L33.5915439,41.8231666 C33.5915439,42.9766964 34.1039728,43.6799178 34.9238591,43.6799178 C35.6292024,43.6799178 35.9728312,43.2419465 36.0451741,42.7422892 L37.5101179,42.7422892 C37.3774892,44.2042495 36.3526314,44.9814942 34.839459,44.9814942 C33.0730864,44.9814942 32,43.7354352 32,41.8293352 Z M37.7642827,44.8642906 L37.7642827,36 L39.349798,36 L39.349798,39.2755312 L39.4161124,39.2755312 C39.6210839,38.8252228 40.18777,38.2145305 41.2487993,38.2145305 C42.5389144,38.2145305 43.4612864,39.0472927 43.4612864,40.6511309 L43.4612864,44.8642906 L41.8757711,44.8642906 L41.8757711,41.0027416 C41.8757711,39.9972584 41.3151136,39.5962988 40.6218274,39.5962988 C39.8019412,39.5962988 39.349798,40.2008225 39.349798,41.027416 L39.349798,44.8642906 L37.7642827,44.8642906 Z M47.4712537,44.0685401 C47.2180535,44.5496916 46.6754818,44.9629883 45.735024,44.9629883 C44.4871089,44.9629883 43.6310512,44.2104181 43.6310512,42.9766964 C43.6310512,41.8046607 44.4268231,41.0520905 45.9098527,41.0520905 L47.4712537,41.0520905 L47.4712537,40.459904 C47.4712537,39.8060315 47.0854249,39.4420836 46.416253,39.4420836 C45.7651669,39.4420836 45.3913952,39.7936943 45.3491952,40.318026 L43.8661656,40.318026 C43.9143942,39.2261823 44.6016518,38.2145305 46.4463959,38.2145305 C47.9173683,38.2145305 49.0386833,38.9177519 49.0386833,40.4413982 L49.0386833,44.8642906 L47.537568,44.8642906 L47.537568,44.0685401 L47.4712537,44.0685401 Z M46.2474529,43.7786155 C46.9286819,43.7786155 47.4712537,43.3529815 47.4712537,42.7176148 L47.4712537,42.0267306 L46.2534815,42.0267306 C45.5541667,42.0267306 45.2105379,42.3721727 45.2105379,42.87183 C45.2105379,43.4825223 45.7169383,43.7786155 46.2474529,43.7786155 Z M49.5701626,44.8642906 L49.5701626,38.3193968 L51.1134779,38.3193968 L51.1134779,39.2755312 L51.1797922,39.2755312 C51.3847638,38.8252228 51.9695356,38.2145305 53.0365934,38.2145305 C54.3387657,38.2145305 55.2490806,39.0472927 55.2490806,40.6511309 L55.2490806,44.8642906 L53.6635653,44.8642906 L53.6635653,41.0027416 C53.6635653,39.9972584 53.0968792,39.5962988 52.4156502,39.5962988 C51.5957639,39.5962988 51.1496493,40.2008225 51.1496493,41.027416 L51.1496493,44.8642906 L49.5701626,44.8642906 Z M55.5032454,41.8293352 L55.5032454,41.2864976 C55.5032454,39.4729267 56.5642747,38.2021933 58.348733,38.2021933 C59.9643912,38.2021933 60.947049,39.2508568 60.9832204,40.5092529 L59.5182766,40.5092529 C59.4338765,39.9664154 59.0118763,39.4976011 58.4210759,39.4976011 C57.595161,39.4976011 57.0947893,40.1884853 57.0947893,41.3050034 L57.0947893,41.8231666 C57.0947893,42.9766964 57.6072182,43.6799178 58.4271045,43.6799178 C59.1324478,43.6799178 59.4760766,43.2419465 59.5484195,42.7422892 L61.0133633,42.7422892 C60.8807346,44.2042495 59.8558768,44.9814942 58.3427044,44.9814942 C56.5763318,44.9814942 55.5032454,43.7354352 55.5032454,41.8293352 Z M61.2675281,44.8642906 L61.2675281,36 L62.8530434,36 L62.8530434,39.2755312 L62.9193577,39.2755312 C63.1243293,38.8252228 63.6910154,38.2145305 64.7520447,38.2145305 C66.0421598,38.2145305 66.9645318,39.0472927 66.9645318,40.6511309 L66.9645318,44.8642906 L65.3790165,44.8642906 L65.3790165,41.0027416 C65.3790165,39.9972584 64.818359,39.5962988 64.1250728,39.5962988 C63.3051866,39.5962988 62.8530434,40.2008225 62.8530434,41.027416 L62.8530434,44.8642906 L61.2675281,44.8642906 Z M70.9744991,44.0685401 C70.7212989,44.5496916 70.1787271,44.9629883 69.2382694,44.9629883 C67.9903543,44.9629883 67.1342966,44.2104181 67.1342966,42.9766964 C67.1342966,41.8046607 67.9300685,41.0520905 69.4130981,41.0520905 L70.9744991,41.0520905 L70.9744991,40.459904 C70.9744991,39.8060315 70.5886703,39.4420836 69.9194984,39.4420836 C69.2684123,39.4420836 68.8946406,39.7936943 68.8524406,40.318026 L67.369411,40.318026 C67.4176396,39.2261823 68.1048972,38.2145305 69.9496413,38.2145305 C71.4206137,38.2145305 72.5419287,38.9177519 72.5419287,40.4413982 L72.5419287,44.8642906 L71.0408134,44.8642906 L71.0408134,44.0685401 L70.9744991,44.0685401 Z M69.7506983,43.7786155 C70.4319273,43.7786155 70.9744991,43.3529815 70.9744991,42.7176148 L70.9744991,42.0267306 L69.7567269,42.0267306 C69.0574121,42.0267306 68.7137833,42.3721727 68.7137833,42.87183 C68.7137833,43.4825223 69.2201837,43.7786155 69.7506983,43.7786155 Z M73.073408,44.8642906 L73.073408,38.3193968 L74.6167233,38.3193968 L74.6167233,39.2755312 L74.6830376,39.2755312 C74.8880092,38.8252228 75.472781,38.2145305 76.5398388,38.2145305 C77.8420111,38.2145305 78.752326,39.0472927 78.752326,40.6511309 L78.752326,44.8642906 L77.1668107,44.8642906 L77.1668107,41.0027416 C77.1668107,39.9972584 76.6001246,39.5962988 75.9188955,39.5962988 C75.0990093,39.5962988 74.6528947,40.2008225 74.6528947,41.027416 L74.6528947,44.8642906 L73.073408,44.8642906 Z M79.1511766,44.0376971 C79.1511766,43.5133653 79.5731769,43.0815627 80.0856058,43.0815627 C80.5980347,43.0815627 81.020035,43.5133653 81.020035,44.0376971 C81.020035,44.5681974 80.5980347,45 80.0856058,45 C79.5731769,45 79.1511766,44.5681974 79.1511766,44.0376971 Z M82.335229,44.8642906 L80.2252276,38.3193968 L81.9192573,38.3193968 L83.2214296,43.2481151 L83.2817154,43.2481151 L84.7225449,38.3193968 L86.3562888,38.3193968 L84.1377731,44.8642906 L82.335229,44.8642906 Z M86.321082,44.8642906 L86.321082,38.3193968 L87.8643973,38.3193968 L87.8643973,39.2755312 L87.9307116,39.2755312 C88.1356832,38.8252228 88.720455,38.2145305 89.7875128,38.2145305 C91.0896851,38.2145305 92,39.0472927 92,40.6511309 L92,44.8642906 L90.4144847,44.8642906 L90.4144847,41.0027416 C90.4144847,39.9972584 89.8477986,39.5962988 89.1665696,39.5962988 C88.3466833,39.5962988 87.9005687,40.2008225 87.9005687,41.027416 L87.9005687,44.8642906 L86.321082,44.8642906 Z" id="path-1"></path>
        <filter x="-7.5%" y="-27.8%" width="111.7%" height="177.8%" filterUnits="objectBoundingBox" id="filter-2">
            <feOffset dx="-1" dy="1" in="SourceAlpha" result="shadowOffsetOuter1"></feOffset>
            <feGaussianBlur stdDeviation="1" in="shadowOffsetOuter1" result="shadowBlurOuter1"></feGaussianBlur>
            <feColorMatrix values="0 0 0 0 0   0 0 0 0 0   0 0 0 0 0  0 0 0 0.5 0" type="matrix" in="shadowBlurOuter1"></feColorMatrix>
        </filter>
    </defs>
    <g id="hongvan_vmt_pre" stroke="none" stroke-width="1" fill="none" fill-rule="evenodd">
        <path d="M0,0 L320,0 L320,256 L0,256 L0,0 Z M23,22 C20.2385763,22 18,24.2385763 18,27 L18,229 C18,231.761424 20.2385763,234 23,234 L297,234 C299.761424,234 302,231.761424 302,229 L302,27 C302,24.2385763 299.761424,22 297,22 L23,22 Z" id="Rectangle-2" fill="#FFFFFF"></path>
        <g id="chanchan.vn" opacity="0.8" fill-rule="nonzero">
            <use fill="black" fill-opacity="1" filter="url(#filter-2)" xlink:href="#path-1"></use>
            <use fill="#FFFFFF" xlink:href="#path-1"></use>
        </g>
    </g>
</svg>