<?xml version="1.0" encoding="UTF-8"?>
<svg width="320px" height="273px" viewBox="0 0 320 273" version="1.1" xmlns="http://www.w3.org/2000/svg" xmlns:xlink="http://www.w3.org/1999/xlink">
    <!-- Generator: Sketch 54.1 (76490) - https://sketchapp.com -->
    <title>hongvan_vmt_pre</title>
    <desc>Created with Sketch.</desc>
    <defs>
        <path d="M31.6445312,48.1721014 L31.6445312,47.6415868 C31.6445312,45.8691856 32.7055605,44.6272991 34.4900188,44.6272991 C36.105677,44.6272991 37.0883348,45.6521569 37.1245063,46.8819863 L35.6595625,46.8819863 C35.5751624,46.3514716 35.1531621,45.8932999 34.5623617,45.8932999 C33.7364469,45.8932999 33.2360752,46.5685003 33.2360752,47.6596725 L33.2360752,48.1660728 C33.2360752,49.2934164 33.7485041,49.980674 34.5683903,49.980674 C35.2737336,49.980674 35.6173624,49.5526452 35.6897053,49.0643306 L37.1546492,49.0643306 C37.0220205,50.4931029 35.9971627,51.2527034 34.4839903,51.2527034 C32.7176177,51.2527034 31.6445312,50.0349312 31.6445312,48.1721014 Z M37.408814,51.1381605 L37.408814,42.4750977 L38.9943293,42.4750977 L38.9943293,45.6762712 L39.0606436,45.6762712 C39.2656152,45.2361852 39.8323013,44.6393562 40.8933305,44.6393562 C42.1834457,44.6393562 43.1058177,45.4532139 43.1058177,47.0206435 L43.1058177,51.1381605 L41.5203024,51.1381605 L41.5203024,47.3642723 C41.5203024,46.3816145 40.9596449,45.9897571 40.2663587,45.9897571 C39.4464724,45.9897571 38.9943293,46.5805575 38.9943293,47.3883866 L38.9943293,51.1381605 L37.408814,51.1381605 Z M47.115785,50.3604743 C46.8625848,50.8307031 46.320013,51.2346177 45.3795552,51.2346177 C44.1316401,51.2346177 43.2755824,50.4991315 43.2755824,49.2934164 C43.2755824,48.1479871 44.0713544,47.4125009 45.5543839,47.4125009 L47.115785,47.4125009 L47.115785,46.8337577 C47.115785,46.1947287 46.7299561,45.8390427 46.0607843,45.8390427 C45.4096981,45.8390427 45.0359264,46.1826715 44.9937264,46.6951004 L43.5106969,46.6951004 C43.5589255,45.6280426 44.2461831,44.6393562 46.0909271,44.6393562 C47.5618995,44.6393562 48.6832146,45.3266138 48.6832146,46.8156719 L48.6832146,51.1381605 L47.1820993,51.1381605 L47.1820993,50.3604743 L47.115785,50.3604743 Z M45.8919842,50.0771312 C46.5732132,50.0771312 47.115785,49.6611595 47.115785,49.0402163 L47.115785,48.3650158 L45.8980127,48.3650158 C45.198698,48.3650158 44.8550692,48.702616 44.8550692,49.1909306 C44.8550692,49.7877596 45.3614695,50.0771312 45.8919842,50.0771312 Z M49.2146938,51.1381605 L49.2146938,44.741842 L50.7580091,44.741842 L50.7580091,45.6762712 L50.8243235,45.6762712 C51.029295,45.2361852 51.6140668,44.6393562 52.6811247,44.6393562 C53.983297,44.6393562 54.8936118,45.4532139 54.8936118,47.0206435 L54.8936118,51.1381605 L53.3080965,51.1381605 L53.3080965,47.3642723 C53.3080965,46.3816145 52.7414104,45.9897571 52.0601814,45.9897571 C51.2402952,45.9897571 50.7941806,46.5805575 50.7941806,47.3883866 L50.7941806,51.1381605 L49.2146938,51.1381605 Z M55.1477766,48.1721014 L55.1477766,47.6415868 C55.1477766,45.8691856 56.2088059,44.6272991 57.9932642,44.6272991 C59.6089224,44.6272991 60.5915802,45.6521569 60.6277517,46.8819863 L59.1628078,46.8819863 C59.0784078,46.3514716 58.6564075,45.8932999 58.0656071,45.8932999 C57.2396923,45.8932999 56.7393205,46.5685003 56.7393205,47.6596725 L56.7393205,48.1660728 C56.7393205,49.2934164 57.2517494,49.980674 58.0716357,49.980674 C58.776979,49.980674 59.1206078,49.5526452 59.1929507,49.0643306 L60.6578945,49.0643306 C60.5252659,50.4931029 59.5004081,51.2527034 57.9872356,51.2527034 C56.2208631,51.2527034 55.1477766,50.0349312 55.1477766,48.1721014 Z M60.9120593,51.1381605 L60.9120593,42.4750977 L62.4975747,42.4750977 L62.4975747,45.6762712 L62.563889,45.6762712 C62.7688606,45.2361852 63.3355466,44.6393562 64.3965759,44.6393562 C65.686691,44.6393562 66.6090631,45.4532139 66.6090631,47.0206435 L66.6090631,51.1381605 L65.0235478,51.1381605 L65.0235478,47.3642723 C65.0235478,46.3816145 64.4628902,45.9897571 63.7696041,45.9897571 C62.9497178,45.9897571 62.4975747,46.5805575 62.4975747,47.3883866 L62.4975747,51.1381605 L60.9120593,51.1381605 Z M70.6190303,50.3604743 C70.3658302,50.8307031 69.8232584,51.2346177 68.8828006,51.2346177 C67.6348855,51.2346177 66.7788278,50.4991315 66.7788278,49.2934164 C66.7788278,48.1479871 67.5745998,47.4125009 69.0576293,47.4125009 L70.6190303,47.4125009 L70.6190303,46.8337577 C70.6190303,46.1947287 70.2332015,45.8390427 69.5640297,45.8390427 C68.9129435,45.8390427 68.5391718,46.1826715 68.4969718,46.6951004 L67.0139423,46.6951004 C67.0621709,45.6280426 67.7494285,44.6393562 69.5941725,44.6393562 C71.0651449,44.6393562 72.1864599,45.3266138 72.1864599,46.8156719 L72.1864599,51.1381605 L70.6853447,51.1381605 L70.6853447,50.3604743 L70.6190303,50.3604743 Z M69.3952295,50.0771312 C70.0764586,50.0771312 70.6190303,49.6611595 70.6190303,49.0402163 L70.6190303,48.3650158 L69.4012581,48.3650158 C68.7019434,48.3650158 68.3583146,48.702616 68.3583146,49.1909306 C68.3583146,49.7877596 68.8647149,50.0771312 69.3952295,50.0771312 Z M72.7179392,51.1381605 L72.7179392,44.741842 L74.2612545,44.741842 L74.2612545,45.6762712 L74.3275688,45.6762712 C74.5325404,45.2361852 75.1173122,44.6393562 76.1843701,44.6393562 C77.4865423,44.6393562 78.3968572,45.4532139 78.3968572,47.0206435 L78.3968572,51.1381605 L76.8113419,51.1381605 L76.8113419,47.3642723 C76.8113419,46.3816145 76.2446558,45.9897571 75.5634268,45.9897571 C74.7435405,45.9897571 74.297426,46.5805575 74.297426,47.3883866 L74.297426,51.1381605 L72.7179392,51.1381605 Z M78.7957078,50.3303314 C78.7957078,49.8179025 79.2177081,49.3959022 79.730137,49.3959022 C80.2425659,49.3959022 80.6645662,49.8179025 80.6645662,50.3303314 C80.6645662,50.8487889 80.2425659,51.2707891 79.730137,51.2707891 C79.2177081,51.2707891 78.7957078,50.8487889 78.7957078,50.3303314 Z M81.9797603,51.1381605 L79.8697589,44.741842 L81.5637886,44.741842 L82.8659609,49.5586737 L82.9262466,49.5586737 L84.3670761,44.741842 L86.0008201,44.741842 L83.7823043,51.1381605 L81.9797603,51.1381605 Z M85.9656132,51.1381605 L85.9656132,44.741842 L87.5089285,44.741842 L87.5089285,45.6762712 L87.5752429,45.6762712 C87.7802144,45.2361852 88.3649862,44.6393562 89.4320441,44.6393562 C90.7342164,44.6393562 91.6445312,45.4532139 91.6445312,47.0206435 L91.6445312,51.1381605 L90.0590159,51.1381605 L90.0590159,47.3642723 C90.0590159,46.3816145 89.4923298,45.9897571 88.8111008,45.9897571 C87.9912146,45.9897571 87.5451,46.5805575 87.5451,47.3883866 L87.5451,51.1381605 L85.9656132,51.1381605 Z" id="path-1"></path>
        <filter x="-7.5%" y="-28.4%" width="111.7%" height="179.6%" filterUnits="objectBoundingBox" id="filter-2">
            <feOffset dx="-1" dy="1" in="SourceAlpha" result="shadowOffsetOuter1"></feOffset>
            <feGaussianBlur stdDeviation="1" in="shadowOffsetOuter1" result="shadowBlurOuter1"></feGaussianBlur>
            <feColorMatrix values="0 0 0 0 0   0 0 0 0 0   0 0 0 0 0  0 0 0 0.5 0" type="matrix" in="shadowBlurOuter1"></feColorMatrix>
        </filter>
    </defs>
    <g id="hongvan_vmt_pre" stroke="none" stroke-width="1" fill="none" fill-rule="evenodd">
        <path d="M0,0 L320,0 L320,273 L0,273 L0,0 Z M23,30.5 C20.2385763,30.5 18,32.7385763 18,35.5 L18,237.5 C18,240.261424 20.2385763,242.5 23,242.5 L297,242.5 C299.761424,242.5 302,240.261424 302,237.5 L302,35.5 C302,32.7385763 299.761424,30.5 297,30.5 L23,30.5 Z" id="Rectangle-2" fill="#FFFFFF"></path>
        <g id="chanchan.vn" opacity="0.8" fill-rule="nonzero">
            <use fill="black" fill-opacity="1" filter="url(#filter-2)" xlink:href="#path-1"></use>
            <use fill="#FFFFFF" xlink:href="#path-1"></use>
        </g>
    </g>
</svg>