<?xml version="1.0" encoding="UTF-8"?>
<svg width="320px" height="1510px" viewBox="0 0 320 1510" version="1.1" xmlns="http://www.w3.org/2000/svg" xmlns:xlink="http://www.w3.org/1999/xlink">
    <title>2</title>
    <defs>
        <rect id="path-1" x="15" y="2109" width="290" height="540" rx="19"></rect>
        <filter x="-17.6%" y="-8.0%" width="132.4%" height="117.4%" filterUnits="objectBoundingBox" id="filter-2">
            <feOffset dx="-4" dy="4" in="SourceAlpha" result="shadowOffsetOuter1"></feOffset>
            <feGaussianBlur stdDeviation="15" in="shadowOffsetOuter1" result="shadowBlurOuter1"></feGaussianBlur>
            <feColorMatrix values="0 0 0 0 0.0588235294   0 0 0 0 0.611764706   0 0 0 0 1  0 0 0 0.210049716 0" type="matrix" in="shadowBlurOuter1"></feColorMatrix>
        </filter>
        <rect id="path-3" x="3" y="0" width="4.8" height="6.6"></rect>
        <linearGradient x1="-41.2211541%" y1="158.95067%" x2="184.057905%" y2="0%" id="linearGradient-5">
            <stop stop-color="#277AFF" offset="0%"></stop>
            <stop stop-color="#03A9F4" offset="100%"></stop>
        </linearGradient>
        <linearGradient x1="-19.7158884%" y1="56.73876%" x2="121.647364%" y2="39.200064%" id="linearGradient-6">
            <stop stop-color="#3D5AFE" offset="0%"></stop>
            <stop stop-color="#00B0FF" offset="100%"></stop>
        </linearGradient>
        <filter x="-13.0%" y="-44.1%" width="126.1%" height="188.2%" filterUnits="objectBoundingBox" id="filter-7">
            <feGaussianBlur stdDeviation="10" in="SourceGraphic"></feGaussianBlur>
        </filter>
        <linearGradient x1="-19.7158884%" y1="55.7036865%" x2="121.647364%" y2="40.8589342%" id="linearGradient-8">
            <stop stop-color="#3D5AFE" offset="0%"></stop>
            <stop stop-color="#00B0FF" offset="100%"></stop>
        </linearGradient>
        <rect id="path-9" x="0.783956537" y="0" width="319.003115" height="490"></rect>
        <linearGradient x1="-19.7158884%" y1="127.093513%" x2="121.647364%" y2="-73.554631%" id="linearGradient-11">
            <stop stop-color="#3D5AFE" offset="0%"></stop>
            <stop stop-color="#00B0FF" offset="100%"></stop>
        </linearGradient>
    </defs>
    <g id="Chanchan-8" stroke="none" stroke-width="1" fill="none" fill-rule="evenodd">
        <g id="tangtoc" transform="translate(0.000000, -1498.000000)">
            <g id="Rectangle">
                <use fill="black" fill-opacity="1" filter="url(#filter-2)" xlink:href="#path-1"></use>
                <use fill="#FFFFFF" fill-rule="evenodd" xlink:href="#path-1"></use>
            </g>
            <g id="shield" transform="translate(35.000000, 2297.000000)">
                <path d="M17.9939861,3.54032019 L17.9939861,10.3134988 C17.9939861,14.277174 15.9838329,18.1068306 12.5772807,19.9328492 L10.6728724,20.9535452 C9.6367239,21.5087471 8.39718794,21.5109606 7.35686311,20.9535452 L5.45245476,19.9328492 C2.04506729,18.1063712 0.03574942,14.2762552 0.03574942,10.3134988 L0.03574942,3.54032019 C0.03574942,2.60983295 0.6492529,1.79753596 1.49496056,1.60876566 L8.00962413,0.112385151 C8.67767053,-0.0370858469 9.35085383,-0.0374199536 10.0163527,0.111549884 L16.5385336,1.60960093 C17.3804826,1.79753596 17.9939861,2.60983295 17.9939861,3.54032019 Z" id="Path" fill="#03A9F4" fill-rule="nonzero"></path>
                <path d="M17.9939861,3.54032019 L17.9939861,10.3134988 C17.9939861,14.277174 15.9838329,18.1068306 12.5772807,19.9328492 L10.6728724,20.9535452 C10.1537541,21.2316891 9.58410209,21.370761 9.01486775,21.370761 L9.01486775,-1.636449e-05 C9.72054292,-1.636449e-05 9.37862645,-0.0349141531 16.5385336,1.60960093 C17.3804826,1.79753596 17.9939861,2.60983295 17.9939861,3.54032019 Z" id="Path" fill="#277AFF" fill-rule="nonzero"></path>
                <path d="M15.3211323,5.66022738 L15.3211323,10.2658886 C15.3211323,11.6896009 14.9494385,13.0606914 14.2895777,14.230065 C13.1185754,16.30658 11.6851323,16.9018329 10.2368631,17.6780464 C9.47271926,18.0876195 8.55801856,18.0881624 7.79287239,17.6780464 L6.49779118,16.9839397 C4.19579582,15.7502506 2.70860325,13.1133132 2.70860325,10.2658886 L2.70860325,5.66022738 C2.70860325,4.93438051 3.1918051,4.29999536 3.85751276,4.15131787 C8.69295592,3.04049652 8.50873782,3.05251891 9.01486775,3.05251891 C9.52358701,3.05251891 9.33640371,3.04045476 14.1759814,4.15215313 C14.8379304,4.29999536 15.3211323,4.93438051 15.3211323,5.66022738 Z" id="Path" fill="#ECF9FD" fill-rule="nonzero"></path>
                <path d="M15.3211323,5.66022738 L15.3211323,10.2658886 C15.3211323,11.6896009 14.9494385,13.0606914 14.2895777,14.230065 C13.1185754,16.30658 11.6851323,16.9018329 10.2368631,17.6780464 C9.8543109,17.8831044 9.43458933,17.9854246 9.01486775,17.9854246 L9.01486775,3.05251891 C9.52358701,3.05251891 9.33640371,3.04045476 14.1759814,4.15215313 C14.8379304,4.29999536 15.3211323,4.93438051 15.3211323,5.66022738 Z" id="Path" fill="#D9F3FC" fill-rule="nonzero"></path>
                <g id="correct" transform="translate(6.000000, 7.200000)">
                    <path d="M2.75701023,6.08998909 C2.68828187,6.15912134 2.59451243,6.19769269 2.49710798,6.19769269 C2.39970353,6.19769269 2.30593409,6.15912134 2.23720573,6.08998909 L0.161555401,4.01400219 C-0.0538518003,3.79859499 -0.0538518003,3.44929875 0.161555401,3.23429545 L0.421457648,2.97432587 C0.636932176,2.75891867 0.985824515,2.75891867 1.20123172,2.97432587 L2.49710798,4.27026945 L5.99875398,0.768556135 C6.21422849,0.553148934 6.56345742,0.553148934 6.77852805,0.768556135 L7.0384303,1.02852571 C7.2538375,1.24393291 7.2538375,1.59316182 7.0384303,1.80823245 L2.75701023,6.08998909 Z" id="Path" fill="#03A9F4" fill-rule="nonzero"></path>
                    <g id="Group-7">
                        <mask id="mask-4" fill="white">
                            <use xlink:href="#path-3"></use>
                        </mask>
                        <g id="Rectangle"></g>
                        <path d="M2.75701023,6.08998909 C2.68828187,6.15912134 2.59451243,6.19769269 2.49710798,6.19769269 C2.39970353,6.19769269 2.30593409,6.15912134 2.23720573,6.08998909 L0.161555401,4.01400219 C-0.0538518003,3.79859499 -0.0538518003,3.44929875 0.161555401,3.23429545 L0.421457648,2.97432587 C0.636932176,2.75891867 0.985824515,2.75891867 1.20123172,2.97432587 L2.49710798,4.27026945 L5.99875398,0.768556135 C6.21422849,0.553148934 6.56345742,0.553148934 6.77852805,0.768556135 L7.0384303,1.02852571 C7.2538375,1.24393291 7.2538375,1.59316182 7.0384303,1.80823245 L2.75701023,6.08998909 Z" id="Path" fill="#1976D2" fill-rule="nonzero" mask="url(#mask-4)"></path>
                    </g>
                </g>
            </g>
            <path d="M44,2474 C48.9705627,2474 53,2478.02944 53,2483 C53,2487.97056 48.9705627,2492 44,2492 C39.0294373,2492 35,2487.97056 35,2483 C35,2478.02944 39.0294373,2474 44,2474 Z M48.8401618,2482.67968 L45.2288098,2478.77274 C45.1257212,2478.66121 44.988324,2478.6 44.8418212,2478.6 C44.6951557,2478.6 44.5578398,2478.6613 44.4547512,2478.77274 L44.1268678,2479.12754 C44.0238605,2479.23889 43.967113,2479.38761 43.967113,2479.54619 C43.967113,2479.70468 44.0238605,2479.85842 44.1268678,2479.96977 L46.2336795,2482.25399 L39.5402394,2482.25399 C39.2384533,2482.25399 39,2482.50958 39,2482.83614 L39,2483.33774 C39,2483.6643 39.2384533,2483.94566 39.5402394,2483.94566 L46.2575817,2483.94566 L44.1269491,2486.24263 C44.0239418,2486.35415 43.9671943,2486.49884 43.9671943,2486.65741 C43.9671943,2486.81582 44.0239418,2486.96261 44.1269491,2487.07404 L44.4548325,2487.4277 C44.5579211,2487.53922 44.695237,2487.6 44.8419025,2487.6 C44.9884053,2487.6 45.1258025,2487.53843 45.2288911,2487.42691 L48.8402431,2483.52006 C48.9435755,2483.40819 49.0004043,2483.25884 49,2483.10009 C49.000323,2482.94081 48.9435755,2482.79137 48.8401618,2482.67968 Z" id="Rectangle-2" fill="url(#linearGradient-5)"></path>
            <path d="M44,2225 C48.9705627,2225 53,2229.02944 53,2234 C53,2238.97056 48.9705627,2243 44,2243 C39.0294373,2243 35,2238.97056 35,2234 C35,2229.02944 39.0294373,2225 44,2225 Z M48.414641,2230.23118 C48.1159312,2229.92294 47.6308901,2229.92294 47.3316193,2230.23118 L47.3316193,2230.23118 L42.4682124,2235.24195 L40.6683807,2233.38752 C40.3692034,2233.07929 39.8846298,2233.07929 39.585359,2233.38752 L39.585359,2233.38752 L39.2243829,2233.75953 C38.9252057,2234.06719 38.9252057,2234.56701 39.2243829,2234.87525 L39.2243829,2234.87525 L42.1072364,2237.84588 C42.2026926,2237.94481 42.3329282,2238 42.4682124,2238 C42.6034966,2238 42.7337322,2237.94481 42.8291885,2237.84588 L42.8291885,2237.84588 L48.7756171,2231.7189 C49.0747943,2231.41115 49.0747943,2230.91142 48.7756171,2230.60318 L48.7756171,2230.60318 Z" id="Rectangle-2" fill="url(#linearGradient-5)" opacity="0.4"></path>
            <rect id="Rectangle" fill-opacity="0.5" fill="url(#linearGradient-6)" filter="url(#filter-7)" x="45" y="2562" width="230" height="68" rx="10"></rect>
            <rect id="Rectangle" fill="url(#linearGradient-8)" x="35" y="2554" width="250" height="68" rx="10"></rect>
            <path d="M256,2579 C260.970563,2579 265,2583.02944 265,2588 C265,2592.97056 260.970563,2597 256,2597 C251.029437,2597 247,2592.97056 247,2588 C247,2583.02944 251.029437,2579 256,2579 Z M256.841821,2583.6 C256.695156,2583.6 256.55784,2583.6613 256.454751,2583.77274 L256.126868,2584.12754 C256.023861,2584.23889 255.967113,2584.38761 255.967113,2584.54619 C255.967113,2584.70468 256.023861,2584.85842 256.126868,2584.96977 L258.233679,2587.25399 L251.540239,2587.25399 C251.238453,2587.25399 251,2587.50958 251,2587.83614 L251,2588.33774 C251,2588.6643 251.238453,2588.94566 251.540239,2588.94566 L258.257582,2588.94566 L256.126949,2591.24263 C256.023942,2591.35415 255.967194,2591.49884 255.967194,2591.65741 C255.967194,2591.81582 256.023942,2591.96261 256.126949,2592.07404 L256.454833,2592.4277 C256.557921,2592.53922 256.695237,2592.6 256.841902,2592.6 C256.988405,2592.6 257.125803,2592.53843 257.228891,2592.42691 L260.840243,2588.52006 C260.943576,2588.40819 261.000404,2588.25884 261,2588.10009 C261.000323,2587.94081 260.943576,2587.79137 260.840162,2587.67968 L257.22881,2583.77274 C257.125721,2583.66121 256.988324,2583.6 256.841821,2583.6 Z" id="Rectangle-2" fill="#FFFFFF" opacity="0.414276482"></path>
            <text id="360.000đ-cho-03-thán" font-family="SFCompactDisplay-Light, SF Compact Display" font-size="16" font-weight="300" line-spacing="24" fill="#556279">
                <tspan x="70" y="2265">360.000đ cho 03 tháng</tspan>
            </text>
            <text id="Thời-điểm-thanh-toán" font-family="SFCompactDisplay-Semibold, SF Compact Display" font-size="18" font-weight="500" letter-spacing="-0.72" fill="#1E2432">
                <tspan x="70" y="2488">Thời điểm thanh toán</tspan>
            </text>
            <text id="Thanh-toán-ngay" font-family="SFCompactDisplay-Light, SF Compact Display" font-size="16" font-weight="300" line-spacing="24" fill="#556279">
                <tspan x="70" y="2515">Thanh toán ngay</tspan>
            </text>
            <text id="Đảm-bảo" font-family="SFCompactDisplay-Semibold, SF Compact Display" font-size="18" font-weight="500" letter-spacing="-0.72" fill="#1E2432">
                <tspan x="70" y="2311">Đảm bảo</tspan>
            </text>
            <text id="Hoàn-phí-sau-03-thán" font-family="SFCompactDisplay-Light, SF Compact Display" font-size="16" font-weight="300" line-spacing="24" fill="#556279">
                <tspan x="70" y="2338">Hoàn phí sau 03 tháng nếu </tspan>
                <tspan x="70" y="2362">không có kết nối thành công</tspan>
            </text>
            <text id="Kết-nối-thành-công-l" font-family="SFCompactText-LightItalic, SF Compact Text" font-size="16" font-style="italic" font-weight="300" line-spacing="24" fill="#556279">
                <tspan x="70" y="2394">Kết nối thành công là khi bạn </tspan>
                <tspan x="70" y="2418">và đối phương cả hai đồng ý </tspan>
                <tspan x="70" y="2442">hẹn hò, gặp gỡ</tspan>
            </text>
            <text id="Đăng-ký" opacity="0.9" font-family="SFCompactDisplay-Semibold, SF Compact Display" font-size="18" font-weight="500" letter-spacing="-0.72" fill="#FFFFFF">
                <tspan x="130.285137" y="2592">Đăng ký</tspan>
            </text>
            <text id="Mức-phí-tượng-trưng" font-family="SFCompactDisplay-Semibold, SF Compact Display" font-size="18" font-weight="500" letter-spacing="-0.72" fill="#1E2432">
                <tspan x="70" y="2238">Mức phí tượng trưng</tspan>
            </text>
            <text id="Đăng-ký" font-family="GMVDINPro-CondBlack, GMV DIN Cond" font-size="30" font-style="condensed" font-weight="800" fill="#1976D2">
                <tspan x="35" y="2182">Đăng ký</tspan>
            </text>
            <g id="Group" transform="translate(0.000000, 1637.000000)">
                <mask id="mask-10" fill="white">
                    <use xlink:href="#path-9"></use>
                </mask>
                <g id="Rectangle"></g>
                <polygon id="Rectangle" fill="#912A8F" mask="url(#mask-10)" transform="translate(91.833340, 469.738780) rotate(111.000000) translate(-91.833340, -469.738780) " points="81.4088 451.836374 97.3686302 453.660842 102.332805 480.090966 81.3338742 487.641186"></polygon>
                <polygon id="Triangle" fill="#F15C25" mask="url(#mask-10)" transform="translate(257.309798, 82.618858) rotate(56.000000) translate(-257.309798, -82.618858) " points="252.80409 76.1462844 261.815505 86.1580628 253.093881 89.0914307"></polygon>
                <polygon id="Rectangle" fill="#03AEEE" mask="url(#mask-10)" transform="translate(187.807868, 431.879269) rotate(17.000000) translate(-187.807868, -431.879269) " points="176.227002 427.381662 199.388733 428.497446 198.819228 435.341101 176.242656 436.376876"></polygon>
                <path d="M-17.9496696,17.9827207 C-6.82907796,24.3379715 6.74350491,24.6688298 18.1605473,18.862978 L19.819724,18.0192452 L19.819724,18.0192452 L19.8305736,29.3054584 L19.2723439,29.5865809 C7.54435896,35.4927546 -6.31337096,35.3744604 -17.93882,29.2689339 L-17.93882,29.2689339 L-17.93882,29.2689339 L-17.9496696,17.9827207 Z" id="Rectangle" fill="#FCBB65" mask="url(#mask-10)" transform="translate(0.940452, 28.490074) rotate(9.000000) translate(-0.940452, -28.490074) "></path>
                <polygon id="Triangle" fill="#39B34C" mask="url(#mask-10)" transform="translate(5.736126, 327.611575) rotate(-22.000000) translate(-5.736126, -327.611575) " points="-1.77321777 318.161796 17.485454 312.998515 17.5247814 340.566096 -6.05252929 342.224636"></polygon>
                <polygon id="Rectangle" fill="#03AEEE" mask="url(#mask-10)" transform="translate(5.768774, 185.502210) rotate(77.000000) translate(-5.768774, -185.502210) " points="-7.22794915 180.53174 18.7654962 181.755512 18.1233599 189.31892 -7.214314 190.47268"></polygon>
                <polygon id="Triangle" fill="#F15C25" mask="url(#mask-10)" transform="translate(220.973871, 325.367366) rotate(-41.000000) translate(-220.973871, -325.367366) " points="218.735372 314.09721 231.212466 334.773706 210.735276 336.637522"></polygon>
            </g>
            <text id="Nếu-bạn-có-gì-băn-kh" font-family="SFCompactDisplay-Light, SF Compact Display" font-size="16" font-weight="300" line-spacing="24" fill="#5D6A80">
                <tspan x="35" y="2758">Nếu bạn có gì băn khoăn, chưa rõ </tspan>
                <tspan x="35" y="2782">đừng ngần ngại kết nối và đặt câu </tspan>
                <tspan x="35" y="2806">hỏi cho chúng tôi qua Messenger. </tspan>
                <tspan x="35" y="2830">Thông thường chúng tôi trả lời sau ít </tspan>
                <tspan x="35" y="2854">phút trong các khung giờ làm việc</tspan>
            </text>
            <text id="Hoặc" font-family="GMVDINPro-CondBold, GMV DIN Cond" font-size="22" font-style="condensed" font-weight="bold" fill="#5D6A80">
                <tspan x="35" y="2726">Hoặc </tspan>
            </text>
            <g id="Group-4" transform="translate(35.000000, 2889.000000)">
                <rect id="Rectangle" stroke="#DADFE7" x="0" y="0" width="250" height="59" rx="10"></rect>
                <text id="Đặt-câu-hỏi" opacity="0.9" font-family="SFCompactDisplay-Semibold, SF Compact Display" font-size="18" font-weight="500" letter-spacing="-0.72" fill="#5D6A80">
                    <tspan x="84.1479883" y="35">Đặt câu hỏi</tspan>
                </text>
                <path d="M219,18 C212.92525,18 208,22.5595 208,28.184625 C208,31.38975 209.599125,34.248375 212.098875,36.115625 L212.098875,40 L215.844375,37.944375 C216.844,38.22075 217.90275,38.370625 219,38.370625 C225.07475,38.370625 230,33.811125 230,28.186 C230,22.560875 225.07475,18 219,18 Z M220.093125,31.715625 L217.29225,28.72775 L211.826625,31.715625 L217.8395,25.332875 L220.709125,28.32075 L226.106,25.332875 L220.093125,31.715625 Z" id="Shape" fill="url(#linearGradient-11)"></path>
            </g>
            <text id="Như-bất-kỳ-Sản-phẩm" font-family="SFCompactDisplay-Light, SF Compact Display" font-size="16" font-weight="300" line-spacing="24" fill="#121721">
                <tspan x="35" y="1756">Như bất kỳ Sản phẩm mới nào, </tspan>
                <tspan x="35" y="1780">sự thành công luôn cần bắt </tspan>
                <tspan x="35" y="1804">đầu từ lớp người dùng đầu </tspan>
                <tspan x="35" y="1828">tiên. Chúng tôi mong qua </tspan>
                <tspan x="35" y="1852">những chia sẻ trên sẽ </tspan>
                <tspan x="35" y="1876">nhận được sự đồng </tspan>
                <tspan x="35" y="1900">hành, ủng hộ cũng như</tspan>
                <tspan x="35" y="1924">những ý kiến đóng góp </tspan>
                <tspan x="35" y="1948">của bạn. </tspan>
            </text>
            <text id="Chúng-tôi-có-chính-s" font-family="SFCompactText-LightItalic, SF Compact Text" font-size="16" font-style="italic" font-weight="300" line-spacing="24" fill="#121721">
                <tspan x="35" y="1668">Chúng tôi có chính sách Ưu tiên và </tspan>
                <tspan x="35" y="1692">Đảm bảo áp dụng với Thành viên </tspan>
                <tspan x="35" y="1716">trong giai đoạn này</tspan>
            </text>
            <text id="Chính-sách-thành-viê" font-family="GMVDINPro-CondBold, GMV DIN Cond" font-size="22" font-style="condensed" font-weight="bold" fill="#121721">
                <tspan x="35" y="1543">Chính sách thành viên</tspan>
            </text>
            <text id="Chanchan-là-nền-tảng" font-family="SFCompactDisplay-Light, SF Compact Display" font-size="16" font-weight="300" line-spacing="23" fill="#121721">
                <tspan x="35" y="1583">Chanchan là nền tảng trả phí, đồng </tspan>
                <tspan x="35" y="1606">thời cũng là sản phẩm mới đang </tspan>
                <tspan x="35" y="1629">trong giai đoạn ra mắt.</tspan>
            </text>
            <text id="Cảm-ơn-bạn-đã-dành-t" font-family="SFCompactText-LightItalic, SF Compact Text" font-size="16" font-style="italic" font-weight="300" line-spacing="24" fill="#121721">
                <tspan x="35" y="1988">Cảm ơn bạn đã dành </tspan>
                <tspan x="35" y="2012">thời gian! Sau đây bạn</tspan>
                <tspan x="35" y="2036">có thể tiếp tục bằng cách </tspan>
                <tspan x="35" y="2060">Đăng ký</tspan>
            </text>
        </g>
    </g>
</svg>