<?xml version="1.0" encoding="UTF-8"?>
<svg width="320px" height="325px" viewBox="0 0 320 325" version="1.1" xmlns="http://www.w3.org/2000/svg" xmlns:xlink="http://www.w3.org/1999/xlink">
    <title>6</title>
    <defs>
        <linearGradient x1="100%" y1="49.99875%" x2="0%" y2="50.00125%" id="linearGradient-1">
            <stop stop-color="#B9C0CF" stop-opacity="0" offset="0%"></stop>
            <stop stop-color="#B9C0CF" offset="19.2362325%"></stop>
            <stop stop-color="#B9C0CF" offset="80.7391827%"></stop>
            <stop stop-color="#B9C0CF" stop-opacity="0" offset="100%"></stop>
        </linearGradient>
    </defs>
    <g id="6" stroke="none" stroke-width="1" fill="none" fill-rule="evenodd">
        <rect fill="#262626" x="0" y="0" width="320" height="325"></rect>
        <text id="Admin@chanchan.vn" font-family="SFCompactDisplay-Semibold, SF Compact Display" font-size="18" font-weight="500" line-spacing="22" fill="#8C96A8">
            <tspan x="85" y="162">Admin@chanchan.vn</tspan>
        </text>
        <text id="096-900-1816" font-family="SFCompactDisplay-Light, SF Compact Display" font-size="16" font-weight="300" line-spacing="22" fill="#5D6A80">
            <tspan x="85" y="187">096 900 1816</tspan>
        </text>
        <text id="fb.com/hello.chancha" font-family="SFCompactDisplay-Semibold, SF Compact Display" font-size="16" font-weight="500" line-spacing="22" fill="#8C96A8">
            <tspan x="85" y="260">fb.com/hello.chanchan</tspan>
        </text>
        <text id="Espace-coworking" font-family="SFCompactDisplay-Semibold, SF Compact Display" font-size="18" font-weight="500" line-spacing="22" fill="#8C96A8">
            <tspan x="85" y="40">Espace coworking</tspan>
        </text>
        <text id="01-Đinh-Lễ,-Hoàn-Kiế" font-family="SFCompactDisplay-Light, SF Compact Display" font-size="16" font-weight="300" line-spacing="22" fill="#5D6A80">
            <tspan x="85" y="65">01 Đinh Lễ, Hoàn Kiếm, Hà </tspan>
            <tspan x="85" y="87">Nội</tspan>
        </text>
        <g id="facebook" transform="translate(35.000000, 249.000000)">
            <path d="M16.4227295,19.6575928 C12.1452332,20.1141357 7.85476684,20.1141357 3.57727051,19.6575928 C1.87164305,19.4755554 0.52444457,18.128357 0.342407227,16.4225769 C-0.114135742,12.1450805 -0.114135742,7.85476684 0.342407227,3.57727051 C0.52444457,1.87164305 1.87164305,0.52444457 3.57727051,0.342407227 C7.85476684,-0.114135742 12.1450805,-0.114135742 16.4225769,0.342407227 C18.128357,0.52444457 19.4755554,1.87164305 19.6575928,3.57727051 C20.1141357,7.85476684 20.1141357,12.1450805 19.6575928,16.4225769 C19.4755554,18.128357 18.1285095,19.4755554 16.4227295,19.6575928 Z" id="Path" fill="#5D6A80"></path>
            <path d="M10.2908325,19.9990845 C11.4561463,19.9934387 12.6213074,19.9539184 13.7860107,19.8806763 L13.7860107,11.7607117 L16.1050415,11.7607117 L16.3851929,8.84277344 L13.7860107,8.84277344 L13.7860107,6.98989867 C13.7860107,6.58065797 14.1177368,6.24893187 14.5269775,6.24893187 L16.3851929,6.24893187 L16.3851929,3.33084105 L13.4458923,3.33084105 C11.7033386,3.33084105 10.2908325,4.74349977 10.2908325,6.48605348 L10.2908325,8.84277344 L8.59283445,8.84277344 L8.59283445,11.7607117 L10.2908325,11.7607117 L10.2908325,19.9990845 Z" id="Path" fill="#DADFE7"></path>
        </g>
        <path d="M44.4996039,27 C49.7376958,27 53.9994718,31.2941297 54,36.5722532 C54,37.948993 53.7205999,39.2634682 53.169194,40.4794907 C50.7932367,45.7169027 46.2393845,51.2456812 44.9004823,52.8150688 C44.8001307,52.9324136 44.6538285,53 44.499868,53 C44.3459074,53 44.1996053,52.9324136 44.0992536,52.8150688 C42.7598232,51.2454151 38.2059711,45.7163706 35.830806,40.4794907 C35.2796642,39.2634682 35,37.948993 35,36.5722532 C35,31.2941297 39.261776,27 44.4996039,27 Z M44.4996039,31.5995988 C41.7787538,31.5995988 39.5649436,33.8302153 39.5649436,36.5719871 C39.5649436,39.3134927 41.7787538,41.5441092 44.4996039,41.5441092 C47.220718,41.5441092 49.4345282,39.3134927 49.4342641,36.5719871 C49.4342641,33.8302153 47.2204539,31.5995988 44.4996039,31.5995988 Z" id="Path-4" fill="#5D6A80"></path>
        <path d="M45.5,149 C49.9272842,149 53.5294495,152.602165 53.5294495,157.029449 L53.5294495,157.029449 L53.5294495,166.911812 C53.5294495,167.933517 52.6982422,168.764725 51.6765366,168.764725 L51.6765366,168.764725 L47.2391586,168.764725 C46.9832916,169.482018 46.3041306,170 45.5,170 C44.4782944,170 43.6470871,169.168793 43.6470871,168.147087 C43.6470871,167.125381 44.4782944,166.294174 45.5,166.294174 C46.3041306,166.294174 46.9832916,166.811996 47.2391586,167.529449 L47.2391586,167.529449 L51.6765366,167.529449 C52.0166778,167.529449 52.2941742,167.252594 52.2941742,166.911812 L52.2941742,166.911812 L52.2941742,166.18042 C52.0999908,166.249634 51.8941116,166.294174 51.6765366,166.294174 C50.6546707,166.294174 49.8234634,165.462967 49.8234634,164.441101 L49.8234634,164.441101 L49.8234634,158.264725 C49.8234634,157.243019 50.6546707,156.411812 51.6765366,156.411812 C51.8841782,156.411812 52.0820465,156.448822 52.2678985,156.512428 C52.0019379,153.007515 49.0710831,150.235275 45.5,150.235275 C41.9269943,150.235275 38.9953384,153.010078 38.731781,156.517395 C38.9187546,156.453949 39.1155014,156.411812 39.3234634,156.411812 C40.3453293,156.411812 41.1765366,157.243019 41.1765366,158.264725 L41.1765366,158.264725 L41.1765366,164.441101 C41.1765366,165.462967 40.3453293,166.294174 39.3234634,166.294174 C38.3017578,166.294174 37.4705505,165.462967 37.4705505,164.441101 L37.4705505,164.441101 L37.4705505,157.029449 C37.4705505,152.602165 41.0727158,149 45.5,149 L45.5,149 Z M54.7647247,157.760841 C55.4820175,158.016708 56,158.695869 56,159.5 L56,159.5 L56,163.205826 C56,164.010117 55.4820175,164.689278 54.7647247,164.944984 L54.7647247,164.944984 Z M36.2352753,157.760841 L36.2352753,164.944984 C35.5179825,164.689278 35,164.010117 35,163.205826 L35,163.205826 L35,159.5 C35,158.695869 35.5179825,158.016708 36.2352753,157.760841 L36.2352753,157.760841 Z" id="Path-2" fill="#5D6A80"></path>
        <rect id="Rectangle" fill="url(#linearGradient-1)" opacity="0.119791667" x="85" y="119" width="200" height="1"></rect>
        <rect id="Rectangle" fill="url(#linearGradient-1)" opacity="0.119791667" x="85" y="219" width="200" height="1"></rect>
    </g>
</svg>