<?xml version="1.0" encoding="UTF-8"?>
<svg width="721px" height="1317px" viewBox="0 0 721 1317" version="1.1" xmlns="http://www.w3.org/2000/svg" xmlns:xlink="http://www.w3.org/1999/xlink">
    <!-- Generator: Sketch 61.1 (89650) - https://sketch.com -->
    <title>1</title>
    <desc>Created with Sketch.</desc>
    <defs>
        <path d="M176.275,360 L176.275,332.25 L186.225,360 L189.125,360 L189.125,324.4 L186.175,324.4 L186.175,352.15 L176.275,324.4 L173.325,324.4 L173.325,360 L176.275,360 Z M201.275,370.55 C202.208333,370.55 203.066667,370.383333 203.85,370.05 C204.633333,369.716667 205.291667,369.266667 205.825,368.7 C206.191667,368.3 206.491667,367.883333 206.725,367.45 C206.958333,367.016667 207.15,366.5 207.3,365.9 C207.45,365.3 207.558333,364.608333 207.625,363.825 C207.691667,363.041667 207.725,362.116667 207.725,361.05 L207.725,361.05 L207.725,334.55 L204.975,334.55 L204.975,336.5 C204.508333,335.7 203.908333,335.108333 203.175,334.725 C202.441667,334.341667 201.625,334.15 200.725,334.15 C199.158333,334.15 197.841667,334.75 196.775,335.95 C196.375,336.383333 196.05,336.908333 195.8,337.525 C195.55,338.141667 195.35,338.883333 195.2,339.75 C195.05,340.616667 194.95,341.65 194.9,342.85 C194.85,344.05 194.825,345.466667 194.825,347.1 C194.825,348.733333 194.85,350.158333 194.9,351.375 C194.95,352.591667 195.05,353.641667 195.2,354.525 C195.35,355.408333 195.55,356.15 195.8,356.75 C196.05,357.35 196.375,357.866667 196.775,358.3 C197.841667,359.466667 199.158333,360.05 200.725,360.05 C201.891667,360.05 202.841667,359.766667 203.575,359.2 C203.841667,359.033333 204.091667,358.816667 204.325,358.55 C204.558333,358.283333 204.758333,358.016667 204.925,357.75 L204.925,357.75 L204.925,361.1 C204.925,362.7 204.841667,363.958333 204.675,364.875 C204.508333,365.791667 204.191667,366.5 203.725,367 C203.458333,367.333333 203.125,367.6 202.725,367.8 C202.325,368 201.841667,368.1 201.275,368.1 C200.575,368.1 199.991667,367.975 199.525,367.725 C199.058333,367.475 198.683333,367.141667 198.4,366.725 C198.116667,366.308333 197.925,365.816667 197.825,365.25 C197.725,364.683333 197.675,364.1 197.675,363.5 L197.675,363.5 L194.925,363.5 C194.925,365.6 195.425,367.3 196.425,368.6 C197.425,369.9 199.041667,370.55 201.275,370.55 Z M201.325,357.6 C200.825,357.6 200.366667,357.491667 199.95,357.275 C199.533333,357.058333 199.191667,356.8 198.925,356.5 C198.625,356.166667 198.391667,355.758333 198.225,355.275 C198.058333,354.791667 197.933333,354.183333 197.85,353.45 C197.766667,352.716667 197.708333,351.833333 197.675,350.8 C197.641667,349.766667 197.625,348.55 197.625,347.15 C197.625,345.716667 197.633333,344.483333 197.65,343.45 C197.666667,342.416667 197.725,341.541667 197.825,340.825 C197.925,340.108333 198.058333,339.508333 198.225,339.025 C198.391667,338.541667 198.625,338.133333 198.925,337.8 C199.191667,337.466667 199.533333,337.191667 199.95,336.975 C200.366667,336.758333 200.825,336.65 201.325,336.65 C202.625,336.65 203.55,337.1 204.1,338 C204.65,338.9 204.925,339.933333 204.925,341.1 L204.925,341.1 L204.925,353.15 C204.925,354.316667 204.65,355.35 204.1,356.25 C203.55,357.15 202.625,357.6 201.325,357.6 Z M219.275,360.4 C220.175,360.4 221.008333,360.183333 221.775,359.75 C222.541667,359.316667 223.158333,358.716667 223.625,357.95 L223.625,357.95 L223.625,360 L226.375,360 L226.375,340.55 L226.975,340.55 C229.841667,340.55 231.275,338.816667 231.275,335.35 L231.275,335.35 L231.275,333.15 L228.925,333.15 L228.925,334.95 C228.925,336.016667 228.75,336.866667 228.4,337.5 C228.05,338.133333 227.491667,338.45 226.725,338.45 L226.725,338.45 L226.375,338.45 L226.375,334.55 L223.575,334.55 L223.575,353.7 C223.575,355.1 223.225,356.15 222.525,356.85 C221.825,357.55 220.991667,357.9 220.025,357.9 C219.058333,357.9 218.233333,357.55 217.55,356.85 C216.866667,356.15 216.525,355.1 216.525,353.7 L216.525,353.7 L216.525,334.55 L213.725,334.55 L213.725,353.65 C213.725,354.55 213.825,355.4 214.025,356.2 C214.225,357 214.55,357.716667 215,358.35 C215.45,358.983333 216.025,359.483333 216.725,359.85 C217.425,360.216667 218.275,360.4 219.275,360.4 Z M240.125,330.7 L236.825,324.2 L233.925,324.2 L237.675,330.7 L240.125,330.7 Z M238.725,360.4 C240.758333,360.4 242.325,359.733333 243.425,358.4 C244.191667,357.466667 244.7,356.133333 244.95,354.4 C245.2,352.666667 245.325,350.3 245.325,347.3 C245.325,344.566667 245.225,342.316667 245.025,340.55 C246.491667,340.483333 247.575,340.033333 248.275,339.2 C248.975,338.366667 249.325,337.083333 249.325,335.35 L249.325,335.35 L249.325,333.15 L246.975,333.15 L246.975,334.95 C246.975,336.016667 246.8,336.866667 246.45,337.5 C246.1,338.133333 245.541667,338.45 244.775,338.45 L244.775,338.45 L244.575,338.45 C244.408333,337.983333 244.241667,337.566667 244.075,337.2 C243.908333,336.833333 243.691667,336.5 243.425,336.2 C242.325,334.833333 240.758333,334.15 238.725,334.15 C236.691667,334.15 235.125,334.833333 234.025,336.2 C233.258333,337.133333 232.75,338.466667 232.5,340.2 C232.25,341.933333 232.125,344.3 232.125,347.3 C232.125,350.3 232.25,352.666667 232.5,354.4 C232.75,356.133333 233.258333,357.466667 234.025,358.4 C235.125,359.733333 236.691667,360.4 238.725,360.4 Z M238.725,357.9 C238.158333,357.9 237.658333,357.791667 237.225,357.575 C236.791667,357.358333 236.441667,357.083333 236.175,356.75 C235.608333,356.05 235.258333,354.983333 235.125,353.55 C234.991667,352.116667 234.925,350.033333 234.925,347.3 C234.925,344.566667 234.991667,342.475 235.125,341.025 C235.258333,339.575 235.608333,338.5 236.175,337.8 C236.441667,337.466667 236.791667,337.191667 237.225,336.975 C237.658333,336.758333 238.158333,336.65 238.725,336.65 C239.291667,336.65 239.783333,336.758333 240.2,336.975 C240.616667,337.191667 240.958333,337.466667 241.225,337.8 C241.791667,338.5 242.15,339.575 242.3,341.025 C242.45,342.475 242.525,344.566667 242.525,347.3 L242.524221,347.775606 C242.515917,350.276182 242.441176,352.20098 242.3,353.55 C242.15,354.983333 241.791667,356.05 241.225,356.75 C240.958333,357.083333 240.616667,357.358333 240.2,357.575 C239.783333,357.791667 239.291667,357.9 238.725,357.9 Z M254.175,328.7 L254.175,325.1 L250.575,325.1 L250.575,328.7 L254.175,328.7 Z M253.775,360 L253.775,334.55 L250.975,334.55 L250.975,360 L253.775,360 Z M275.425,360.4 C277.325,360.4 278.825,359.85 279.925,358.75 C280.591667,358.083333 281.05,357.308333 281.3,356.425 C281.55,355.541667 281.691667,354.5 281.725,353.3 L281.725,353.3 L278.975,353.3 C278.975,354.066667 278.908333,354.741667 278.775,355.325 C278.641667,355.908333 278.358333,356.433333 277.925,356.9 C277.258333,357.566667 276.441667,357.9 275.475,357.9 C274.341667,357.9 273.475,357.516667 272.875,356.75 C272.308333,356.05 271.958333,354.983333 271.825,353.55 C271.691667,352.116667 271.625,350.033333 271.625,347.3 C271.625,344.566667 271.691667,342.475 271.825,341.025 C271.958333,339.575 272.308333,338.5 272.875,337.8 C273.475,337.033333 274.341667,336.65 275.475,336.65 C276.541667,336.65 277.375,337 277.975,337.7 C278.441667,338.2 278.725,338.758333 278.825,339.375 C278.925,339.991667 278.975,340.633333 278.975,341.3 L278.975,341.3 L281.725,341.3 C281.691667,340.233333 281.575,339.225 281.375,338.275 C281.175,337.325 280.691667,336.483333 279.925,335.75 C279.358333,335.183333 278.708333,334.775 277.975,334.525 C277.241667,334.275 276.391667,334.15 275.425,334.15 C273.391667,334.15 271.825,334.833333 270.725,336.2 C269.958333,337.1 269.45,338.425 269.2,340.175 C268.95,341.925 268.825,344.3 268.825,347.3 C268.825,350.3 268.95,352.675 269.2,354.425 C269.45,356.175 269.958333,357.5 270.725,358.4 C271.858333,359.733333 273.425,360.4 275.425,360.4 Z M289.475,360 L289.475,340.85 C289.475,339.45 289.825,338.4 290.525,337.7 C291.225,337 292.058333,336.65 293.025,336.65 C293.991667,336.65 294.816667,337 295.5,337.7 C296.183333,338.4 296.525,339.45 296.525,340.85 L296.525,340.85 L296.525,360 L299.325,360 L299.325,340.9 C299.325,340 299.225,339.15 299.025,338.35 C298.825,337.55 298.5,336.833333 298.05,336.2 C297.6,335.566667 297.025,335.066667 296.325,334.7 C295.625,334.333333 294.775,334.15 293.775,334.15 C293.375,334.15 292.958333,334.208333 292.525,334.325 C292.091667,334.441667 291.675,334.6 291.275,334.8 C290.875,335 290.516667,335.25 290.2,335.55 C289.883333,335.85 289.641667,336.183333 289.475,336.55 L289.475,336.55 L289.475,324.4 L286.675,324.4 L286.675,360 L289.475,360 Z M310.625,325.15 C312.025,325.15 313.141667,324.741667 313.975,323.925 C314.808333,323.108333 315.225,322.066667 315.225,320.8 C315.225,319.566667 314.808333,318.533333 313.975,317.7 C313.141667,316.866667 312.025,316.45 310.625,316.45 L310.625,316.45 L310.625,318.4 C311.325,318.4 311.916667,318.633333 312.4,319.1 C312.883333,319.566667 313.125,320.133333 313.125,320.8 C313.125,321.5 312.883333,322.083333 312.4,322.55 C311.916667,323.016667 311.325,323.25 310.625,323.25 L310.625,323.25 L310.625,325.15 Z M310.875,331 C314.241667,331 316.075,329.266667 316.375,325.8 L316.375,325.8 L314.125,325.8 C313.825,327.8 312.741667,328.8 310.875,328.8 C308.975,328.8 307.891667,327.8 307.625,325.8 L307.625,325.8 L305.325,325.8 C305.691667,329.266667 307.541667,331 310.875,331 Z M309.775,360.4 C310.708333,360.4 311.583333,360.166667 312.4,359.7 C313.216667,359.233333 313.825,358.566667 314.225,357.7 L314.225,357.7 L314.225,360 L316.925,360 L316.925,341.05 C316.925,338.916667 316.425,337.233333 315.425,336 C314.425,334.766667 312.825,334.15 310.625,334.15 C309.591667,334.15 308.683333,334.325 307.9,334.675 C307.116667,335.025 306.466667,335.516667 305.95,336.15 C305.433333,336.783333 305.041667,337.516667 304.775,338.35 C304.508333,339.183333 304.375,340.1 304.375,341.1 L304.375,341.1 L307.175,341.1 C307.175,340.533333 307.233333,339.983333 307.35,339.45 C307.466667,338.916667 307.666667,338.441667 307.95,338.025 C308.233333,337.608333 308.591667,337.266667 309.025,337 C309.458333,336.733333 309.991667,336.6 310.625,336.6 C311.791667,336.6 312.666667,336.975 313.25,337.725 C313.833333,338.475 314.125,339.55 314.125,340.95 L314.125,340.95 L314.125,345.5 L311.225,345.5 C308.891667,345.5 307.116667,346.166667 305.9,347.5 C304.683333,348.833333 304.075,350.65 304.075,352.95 C304.075,353.883333 304.166667,354.8 304.35,355.7 C304.533333,356.6 304.85,357.4 305.3,358.1 C305.75,358.8 306.333333,359.358333 307.05,359.775 C307.766667,360.191667 308.675,360.4 309.775,360.4 Z M310.425,357.9 C309.191667,357.9 308.291667,357.45 307.725,356.55 C307.158333,355.65 306.875,354.433333 306.875,352.9 C306.875,351.4 307.216667,350.158333 307.9,349.175 C308.583333,348.191667 309.725,347.7 311.325,347.7 L311.325,347.7 L314.125,347.7 L314.125,353.3 C314.125,354.633333 313.791667,355.733333 313.125,356.6 C312.458333,357.466667 311.558333,357.9 310.425,357.9 Z M325.725,360 L325.725,340.85 C325.725,339.45 326.075,338.4 326.775,337.7 C327.475,337 328.308333,336.65 329.275,336.65 C330.241667,336.65 331.066667,337 331.75,337.7 C332.433333,338.4 332.775,339.45 332.775,340.85 L332.775,340.85 L332.775,360 L335.575,360 L335.575,340.9 C335.575,340 335.475,339.15 335.275,338.35 C335.075,337.55 334.75,336.833333 334.3,336.2 C333.85,335.566667 333.275,335.066667 332.575,334.7 C331.875,334.333333 331.025,334.15 330.025,334.15 C329.125,334.15 328.291667,334.366667 327.525,334.8 C326.758333,335.233333 326.141667,335.833333 325.675,336.6 L325.675,336.6 L325.675,334.55 L322.925,334.55 L322.925,360 L325.725,360 Z M347.175,370.55 C348.108333,370.55 348.966667,370.383333 349.75,370.05 C350.533333,369.716667 351.191667,369.266667 351.725,368.7 C352.091667,368.3 352.391667,367.883333 352.625,367.45 C352.858333,367.016667 353.05,366.5 353.2,365.9 C353.35,365.3 353.458333,364.608333 353.525,363.825 C353.591667,363.041667 353.625,362.116667 353.625,361.05 L353.625,361.05 L353.625,334.55 L350.875,334.55 L350.875,336.5 C350.408333,335.7 349.808333,335.108333 349.075,334.725 C348.341667,334.341667 347.525,334.15 346.625,334.15 C345.058333,334.15 343.741667,334.75 342.675,335.95 C342.275,336.383333 341.95,336.908333 341.7,337.525 C341.45,338.141667 341.25,338.883333 341.1,339.75 C340.95,340.616667 340.85,341.65 340.8,342.85 C340.75,344.05 340.725,345.466667 340.725,347.1 L340.725926,347.636728 C340.730864,349.047428 340.755556,350.293519 340.8,351.375 C340.85,352.591667 340.95,353.641667 341.1,354.525 C341.25,355.408333 341.45,356.15 341.7,356.75 C341.95,357.35 342.275,357.866667 342.675,358.3 C343.741667,359.466667 345.058333,360.05 346.625,360.05 C347.791667,360.05 348.741667,359.766667 349.475,359.2 C349.741667,359.033333 349.991667,358.816667 350.225,358.55 C350.458333,358.283333 350.658333,358.016667 350.825,357.75 L350.825,357.75 L350.825,361.1 C350.825,362.7 350.741667,363.958333 350.575,364.875 C350.408333,365.791667 350.091667,366.5 349.625,367 C349.358333,367.333333 349.025,367.6 348.625,367.8 C348.225,368 347.741667,368.1 347.175,368.1 C346.475,368.1 345.891667,367.975 345.425,367.725 C344.958333,367.475 344.583333,367.141667 344.3,366.725 C344.016667,366.308333 343.825,365.816667 343.725,365.25 C343.625,364.683333 343.575,364.1 343.575,363.5 L343.575,363.5 L340.825,363.5 C340.825,365.6 341.325,367.3 342.325,368.6 C343.325,369.9 344.941667,370.55 347.175,370.55 Z M347.225,357.6 C346.725,357.6 346.266667,357.491667 345.85,357.275 C345.433333,357.058333 345.091667,356.8 344.825,356.5 C344.525,356.166667 344.291667,355.758333 344.125,355.275 C343.958333,354.791667 343.833333,354.183333 343.75,353.45 C343.666667,352.716667 343.608333,351.833333 343.575,350.8 C343.541667,349.766667 343.525,348.55 343.525,347.15 L343.525309,346.67963 C343.526955,345.445062 343.535185,344.368519 343.55,343.45 C343.566667,342.416667 343.625,341.541667 343.725,340.825 C343.825,340.108333 343.958333,339.508333 344.125,339.025 C344.291667,338.541667 344.525,338.133333 344.825,337.8 C345.091667,337.466667 345.433333,337.191667 345.85,336.975 C346.266667,336.758333 346.725,336.65 347.225,336.65 C348.525,336.65 349.45,337.1 350,338 C350.55,338.9 350.825,339.933333 350.825,341.1 L350.825,341.1 L350.825,353.15 C350.825,354.316667 350.55,355.35 350,356.25 C349.45,357.15 348.525,357.6 347.225,357.6 Z M372.325,360 L372.325,340.85 C372.325,339.45 372.675,338.4 373.375,337.7 C374.075,337 374.908333,336.65 375.875,336.65 C376.841667,336.65 377.666667,337 378.35,337.7 C379.033333,338.4 379.375,339.45 379.375,340.85 L379.375,340.85 L379.375,360 L382.175,360 L382.175,340.9 C382.175,340 382.075,339.15 381.875,338.35 C381.675,337.55 381.35,336.833333 380.9,336.2 C380.45,335.566667 379.875,335.066667 379.175,334.7 C378.475,334.333333 377.625,334.15 376.625,334.15 C376.225,334.15 375.808333,334.208333 375.375,334.325 C374.941667,334.441667 374.525,334.6 374.125,334.8 C373.725,335 373.366667,335.25 373.05,335.55 C372.733333,335.85 372.491667,336.183333 372.325,336.55 L372.325,336.55 L372.325,324.4 L369.525,324.4 L369.525,360 L372.325,360 Z M393.975,360.4 C395.908333,360.4 397.441667,359.816667 398.575,358.65 C399.241667,357.983333 399.716667,357.233333 400,356.4 C400.283333,355.566667 400.425,354.533333 400.425,353.3 L400.425,353.3 L397.675,353.3 C397.675,354.933333 397.308333,356.133333 396.575,356.9 C396.241667,357.266667 395.85,357.525 395.4,357.675 C394.95,357.825 394.475,357.9 393.975,357.9 C393.408333,357.9 392.908333,357.791667 392.475,357.575 C392.041667,357.358333 391.691667,357.083333 391.425,356.75 C390.858333,356.083333 390.5,355.058333 390.35,353.675 C390.2,352.291667 390.125,350.3 390.125,347.7 L390.125,347.7 L400.525,347.7 C400.525,344.466667 400.391667,341.941667 400.125,340.125 C399.858333,338.308333 399.308333,336.933333 398.475,336 C397.341667,334.766667 395.825,334.15 393.925,334.15 C392.025,334.15 390.508333,334.766667 389.375,336 C388.508333,336.933333 387.95,338.283333 387.7,340.05 C387.45,341.816667 387.325,344.233333 387.325,347.3 C387.325,350.333333 387.458333,352.741667 387.725,354.525 C387.991667,356.308333 388.541667,357.65 389.375,358.55 C390.541667,359.783333 392.075,360.4 393.975,360.4 Z M397.725,345.45 L390.125,345.45 C390.158333,343.25 390.25,341.566667 390.4,340.4 C390.55,339.233333 390.875,338.366667 391.375,337.8 C391.641667,337.466667 391.991667,337.191667 392.425,336.975 C392.858333,336.758333 393.358333,336.65 393.925,336.65 C394.491667,336.65 394.983333,336.758333 395.4,336.975 C395.816667,337.191667 396.158333,337.466667 396.425,337.8 C396.925,338.366667 397.258333,339.233333 397.425,340.4 C397.591667,341.566667 397.691667,343.25 397.725,345.45 L397.725,345.45 Z M395.475,366.45 L395.475,363.3 L392.325,363.3 L392.325,366.45 L395.475,366.45 Z M408.675,360 L408.675,340.85 C408.675,339.45 409.025,338.4 409.725,337.7 C410.425,337 411.258333,336.65 412.225,336.65 C413.191667,336.65 414.016667,337 414.7,337.7 C415.383333,338.4 415.725,339.45 415.725,340.85 L415.725,340.85 L415.725,360 L418.525,360 L418.525,340.9 C418.525,340 418.425,339.15 418.225,338.35 C418.025,337.55 417.7,336.833333 417.25,336.2 C416.8,335.566667 416.225,335.066667 415.525,334.7 C414.825,334.333333 413.975,334.15 412.975,334.15 C412.075,334.15 411.241667,334.366667 410.475,334.8 C409.708333,335.233333 409.091667,335.833333 408.625,336.6 L408.625,336.6 L408.625,334.55 L405.875,334.55 L405.875,360 L408.675,360 Z M437.025,360 L437.025,340.85 C437.025,339.45 437.375,338.4 438.075,337.7 C438.775,337 439.608333,336.65 440.575,336.65 C441.541667,336.65 442.366667,337 443.05,337.7 C443.733333,338.4 444.075,339.45 444.075,340.85 L444.075,340.85 L444.075,360 L446.875,360 L446.875,340.85 C446.875,339.45 447.225,338.4 447.925,337.7 C448.625,337 449.458333,336.65 450.425,336.65 C451.391667,336.65 452.216667,337 452.9,337.7 C453.583333,338.4 453.925,339.45 453.925,340.85 L453.925,340.85 L453.925,360 L456.725,360 L456.725,340.9 C456.725,338.966667 456.275,337.358333 455.375,336.075 C454.475,334.791667 452.975,334.15 450.875,334.15 C449.808333,334.15 448.883333,334.383333 448.1,334.85 C447.316667,335.316667 446.641667,335.983333 446.075,336.85 C445.575,336.083333 444.9,335.441667 444.05,334.925 C443.2,334.408333 442.291667,334.15 441.325,334.15 C440.425,334.15 439.591667,334.366667 438.825,334.8 C438.058333,335.233333 437.441667,335.833333 436.975,336.6 L436.975,336.6 L436.975,334.55 L434.225,334.55 L434.225,360 L437.025,360 Z M469.675,330.7 L466.375,324.2 L463.475,324.2 L467.225,330.7 L469.675,330.7 Z M467.175,360.4 C468.108333,360.4 468.983333,360.166667 469.8,359.7 C470.616667,359.233333 471.225,358.566667 471.625,357.7 L471.625,357.7 L471.625,360 L474.325,360 L474.325,341.05 C474.325,338.916667 473.825,337.233333 472.825,336 C471.825,334.766667 470.225,334.15 468.025,334.15 C466.991667,334.15 466.083333,334.325 465.3,334.675 C464.516667,335.025 463.866667,335.516667 463.35,336.15 C462.833333,336.783333 462.441667,337.516667 462.175,338.35 C461.908333,339.183333 461.775,340.1 461.775,341.1 L461.775,341.1 L464.575,341.1 C464.575,340.533333 464.633333,339.983333 464.75,339.45 C464.866667,338.916667 465.066667,338.441667 465.35,338.025 C465.633333,337.608333 465.991667,337.266667 466.425,337 C466.858333,336.733333 467.391667,336.6 468.025,336.6 C469.191667,336.6 470.066667,336.975 470.65,337.725 C471.233333,338.475 471.525,339.55 471.525,340.95 L471.525,340.95 L471.525,345.5 L468.625,345.5 C466.291667,345.5 464.516667,346.166667 463.3,347.5 C462.083333,348.833333 461.475,350.65 461.475,352.95 C461.475,353.883333 461.566667,354.8 461.75,355.7 C461.933333,356.6 462.25,357.4 462.7,358.1 C463.15,358.8 463.733333,359.358333 464.45,359.775 C465.166667,360.191667 466.075,360.4 467.175,360.4 Z M467.825,357.9 C466.591667,357.9 465.691667,357.45 465.125,356.55 C464.558333,355.65 464.275,354.433333 464.275,352.9 C464.275,351.4 464.616667,350.158333 465.3,349.175 C465.983333,348.191667 467.125,347.7 468.725,347.7 L468.725,347.7 L471.525,347.7 L471.525,353.3 C471.525,354.633333 471.191667,355.733333 470.525,356.6 C469.858333,357.466667 468.958333,357.9 467.825,357.9 Z M495.625,370.55 C496.558333,370.55 497.416667,370.383333 498.2,370.05 C498.983333,369.716667 499.641667,369.266667 500.175,368.7 C500.541667,368.3 500.841667,367.883333 501.075,367.45 C501.308333,367.016667 501.5,366.5 501.65,365.9 C501.8,365.3 501.908333,364.608333 501.975,363.825 C502.041667,363.041667 502.075,362.116667 502.075,361.05 L502.075,361.05 L502.075,334.55 L499.325,334.55 L499.325,336.5 C498.858333,335.7 498.258333,335.108333 497.525,334.725 C496.791667,334.341667 495.975,334.15 495.075,334.15 C493.508333,334.15 492.191667,334.75 491.125,335.95 C490.725,336.383333 490.4,336.908333 490.15,337.525 C489.9,338.141667 489.7,338.883333 489.55,339.75 C489.4,340.616667 489.3,341.65 489.25,342.85 C489.2,344.05 489.175,345.466667 489.175,347.1 C489.175,348.733333 489.2,350.158333 489.25,351.375 C489.3,352.591667 489.4,353.641667 489.55,354.525 C489.7,355.408333 489.9,356.15 490.15,356.75 C490.4,357.35 490.725,357.866667 491.125,358.3 C492.191667,359.466667 493.508333,360.05 495.075,360.05 C496.241667,360.05 497.191667,359.766667 497.925,359.2 C498.191667,359.033333 498.441667,358.816667 498.675,358.55 C498.908333,358.283333 499.108333,358.016667 499.275,357.75 L499.275,357.75 L499.275,361.1 C499.275,362.7 499.191667,363.958333 499.025,364.875 C498.858333,365.791667 498.541667,366.5 498.075,367 C497.808333,367.333333 497.475,367.6 497.075,367.8 C496.675,368 496.191667,368.1 495.625,368.1 C494.925,368.1 494.341667,367.975 493.875,367.725 C493.408333,367.475 493.033333,367.141667 492.75,366.725 C492.466667,366.308333 492.275,365.816667 492.175,365.25 C492.075,364.683333 492.025,364.1 492.025,363.5 L492.025,363.5 L489.275,363.5 C489.275,365.6 489.775,367.3 490.775,368.6 C491.775,369.9 493.391667,370.55 495.625,370.55 Z M495.675,357.6 C495.175,357.6 494.716667,357.491667 494.3,357.275 C493.883333,357.058333 493.541667,356.8 493.275,356.5 C492.975,356.166667 492.741667,355.758333 492.575,355.275 C492.408333,354.791667 492.283333,354.183333 492.2,353.45 C492.116667,352.716667 492.058333,351.833333 492.025,350.8 C491.991667,349.766667 491.975,348.55 491.975,347.15 C491.975,345.716667 491.983333,344.483333 492,343.45 C492.016667,342.416667 492.075,341.541667 492.175,340.825 C492.275,340.108333 492.408333,339.508333 492.575,339.025 C492.741667,338.541667 492.975,338.133333 493.275,337.8 C493.541667,337.466667 493.883333,337.191667 494.3,336.975 C494.716667,336.758333 495.175,336.65 495.675,336.65 C496.975,336.65 497.9,337.1 498.45,338 C499,338.9 499.275,339.933333 499.275,341.1 L499.275,341.1 L499.275,353.15 C499.275,354.316667 499,355.35 498.45,356.25 C497.9,357.15 496.975,357.6 495.675,357.6 Z M513.825,331 C517.191667,331 519.025,329.266667 519.325,325.8 L519.325,325.8 L517.075,325.8 C516.775,327.8 515.691667,328.8 513.825,328.8 C511.925,328.8 510.841667,327.8 510.575,325.8 L510.575,325.8 L508.275,325.8 C508.641667,329.266667 510.491667,331 513.825,331 Z M512.725,360.4 C513.658333,360.4 514.533333,360.166667 515.35,359.7 C516.166667,359.233333 516.775,358.566667 517.175,357.7 L517.175,357.7 L517.175,360 L519.875,360 L519.875,341.05 C519.875,338.916667 519.375,337.233333 518.375,336 C517.375,334.766667 515.775,334.15 513.575,334.15 C512.541667,334.15 511.633333,334.325 510.85,334.675 C510.066667,335.025 509.416667,335.516667 508.9,336.15 C508.383333,336.783333 507.991667,337.516667 507.725,338.35 C507.458333,339.183333 507.325,340.1 507.325,341.1 L507.325,341.1 L510.125,341.1 C510.125,340.533333 510.183333,339.983333 510.3,339.45 C510.416667,338.916667 510.616667,338.441667 510.9,338.025 C511.183333,337.608333 511.541667,337.266667 511.975,337 C512.408333,336.733333 512.941667,336.6 513.575,336.6 C514.741667,336.6 515.616667,336.975 516.2,337.725 C516.783333,338.475 517.075,339.55 517.075,340.95 L517.075,340.95 L517.075,345.5 L514.175,345.5 C511.841667,345.5 510.066667,346.166667 508.85,347.5 C507.633333,348.833333 507.025,350.65 507.025,352.95 C507.025,353.883333 507.116667,354.8 507.3,355.7 C507.483333,356.6 507.8,357.4 508.25,358.1 C508.7,358.8 509.283333,359.358333 510,359.775 C510.716667,360.191667 511.625,360.4 512.725,360.4 Z M513.375,357.9 C512.141667,357.9 511.241667,357.45 510.675,356.55 C510.108333,355.65 509.825,354.433333 509.825,352.9 C509.825,351.4 510.166667,350.158333 510.85,349.175 C511.533333,348.191667 512.675,347.7 514.275,347.7 L514.275,347.7 L517.075,347.7 L517.075,353.3 C517.075,354.633333 516.741667,355.733333 516.075,356.6 C515.408333,357.466667 514.508333,357.9 513.375,357.9 Z M515.375,366.45 L515.375,363.3 L512.225,363.3 L512.225,366.45 L515.375,366.45 Z M528.675,370.15 L528.675,358.1 C529.641667,359.633333 531.075,360.4 532.975,360.4 C533.841667,360.4 534.583333,360.25 535.2,359.95 C535.816667,359.65 536.391667,359.2 536.925,358.6 C537.691667,357.7 538.2,356.383333 538.45,354.65 C538.7,352.916667 538.825,350.466667 538.825,347.3 C538.825,344.133333 538.7,341.675 538.45,339.925 C538.2,338.175 537.691667,336.85 536.925,335.95 C535.891667,334.75 534.575,334.15 532.975,334.15 C532.375,334.15 531.841667,334.233333 531.375,334.4 C530.908333,334.566667 530.475,334.783333 530.075,335.05 C529.841667,335.216667 529.575,335.45 529.275,335.75 C528.975,336.05 528.758333,336.333333 528.625,336.6 L528.625,336.6 L528.625,334.55 L525.875,334.55 L525.875,370.15 L528.675,370.15 Z M532.275,357.9 C531.008333,357.9 530.091667,357.45 529.525,356.55 C528.958333,355.65 528.675,354.616667 528.675,353.45 L528.675,353.45 L528.675,341.1 C528.675,339.933333 528.958333,338.9 529.525,338 C530.091667,337.1 531.008333,336.65 532.275,336.65 C532.808333,336.65 533.283333,336.758333 533.7,336.975 C534.116667,337.191667 534.458333,337.466667 534.725,337.8 C535.291667,338.433333 535.65,339.458333 535.8,340.875 C535.95,342.291667 536.025,344.433333 536.025,347.3 C536.025,348.733333 536.016667,349.975 536,351.025 C535.983333,352.075 535.925,352.975 535.825,353.725 C535.725,354.475 535.591667,355.091667 535.425,355.575 C535.258333,356.058333 535.025,356.466667 534.725,356.8 C534.458333,357.133333 534.116667,357.4 533.7,357.6 C533.283333,357.8 532.808333,357.9 532.275,357.9 Z M547.975,360 L547.975,356.25 L544.225,356.25 L544.225,360 L547.975,360 Z M182.175,417 C183.341667,417 184.366667,416.816667 185.25,416.45 C186.133333,416.083333 186.875,415.583333 187.475,414.95 C188.008333,414.383333 188.441667,413.766667 188.775,413.1 C189.108333,412.433333 189.358333,411.533333 189.525,410.4 C189.691667,409.266667 189.808333,407.808333 189.875,406.025 C189.941667,404.241667 189.975,401.966667 189.975,399.2 L189.974556,398.653222 C189.970407,396.132185 189.937222,394.039444 189.875,392.375 C189.808333,390.591667 189.691667,389.133333 189.525,388 C189.358333,386.866667 189.108333,385.966667 188.775,385.3 C188.441667,384.633333 188.008333,384.016667 187.475,383.45 C186.875,382.816667 186.133333,382.316667 185.25,381.95 C184.366667,381.583333 183.341667,381.4 182.175,381.4 L182.175,381.4 L174.875,381.4 L174.875,417 L182.175,417 Z M182.025,414.35 L177.825,414.35 L177.825,384.05 L182.025,384.05 C183.458333,384.05 184.541667,384.466667 185.275,385.3 C185.675,385.7 185.983333,386.175 186.2,386.725 C186.416667,387.275 186.591667,388.05 186.725,389.05 C186.858333,390.05 186.941667,391.358333 186.975,392.975 C187.008333,394.591667 187.025,396.666667 187.025,399.2 L187.024745,399.735842 C187.022534,402.027423 187.005952,403.92381 186.975,405.425 C186.941667,407.041667 186.858333,408.35 186.725,409.35 C186.591667,410.35 186.416667,411.125 186.2,411.675 C185.983333,412.225 185.675,412.7 185.275,413.1 C184.541667,413.933333 183.458333,414.35 182.025,414.35 L182.025,414.35 Z M201.125,417.4 C202.025,417.4 202.858333,417.183333 203.625,416.75 C204.391667,416.316667 205.008333,415.716667 205.475,414.95 L205.475,414.95 L205.475,417 L208.225,417 L208.225,391.55 L205.425,391.55 L205.425,410.7 C205.425,412.1 205.075,413.15 204.375,413.85 C203.675,414.55 202.841667,414.9 201.875,414.9 C200.908333,414.9 200.083333,414.55 199.4,413.85 C198.716667,413.15 198.375,412.1 198.375,410.7 L198.375,410.7 L198.375,391.55 L195.575,391.55 L195.575,410.65 C195.575,411.55 195.675,412.4 195.875,413.2 C196.075,414 196.4,414.716667 196.85,415.35 C197.3,415.983333 197.875,416.483333 198.575,416.85 C199.275,417.216667 200.125,417.4 201.125,417.4 Z M211.775,427.15 C213.708333,427.15 215.308333,426.775 216.575,426.025 C217.841667,425.275 218.708333,423.916667 219.175,421.95 L219.175,421.95 L226.375,391.55 L223.325,391.55 L218.975,412.35 L214.575,391.55 L211.525,391.55 L217.575,416.9 L216.225,421.75 C215.958333,422.616667 215.5,423.325 214.85,423.875 C214.2,424.425 213.175,424.7 211.775,424.7 L211.775,424.7 L211.775,427.15 Z M232.375,387.7 L235.375,383.1 L238.375,387.7 L240.925,387.7 L236.625,381.2 L234.125,381.2 L229.775,387.7 L232.375,387.7 Z M235.425,417.4 C237.358333,417.4 238.891667,416.816667 240.025,415.65 C240.691667,414.983333 241.166667,414.233333 241.45,413.4 C241.733333,412.566667 241.875,411.533333 241.875,410.3 L241.875,410.3 L239.125,410.3 C239.125,411.933333 238.758333,413.133333 238.025,413.9 C237.691667,414.266667 237.3,414.525 236.85,414.675 C236.4,414.825 235.925,414.9 235.425,414.9 C234.858333,414.9 234.358333,414.791667 233.925,414.575 C233.491667,414.358333 233.141667,414.083333 232.875,413.75 C232.308333,413.083333 231.95,412.058333 231.8,410.675 C231.65,409.291667 231.575,407.3 231.575,404.7 L231.575,404.7 L241.975,404.7 C241.975,401.466667 241.841667,398.941667 241.575,397.125 C241.308333,395.308333 240.758333,393.933333 239.925,393 C238.791667,391.766667 237.275,391.15 235.375,391.15 C233.475,391.15 231.958333,391.766667 230.825,393 C229.958333,393.933333 229.4,395.283333 229.15,397.05 C228.9,398.816667 228.775,401.233333 228.775,404.3 C228.775,407.333333 228.908333,409.741667 229.175,411.525 C229.441667,413.308333 229.991667,414.65 230.825,415.55 C231.991667,416.783333 233.525,417.4 235.425,417.4 Z M239.175,402.45 L231.575,402.45 C231.608333,400.25 231.7,398.566667 231.85,397.4 C232,396.233333 232.325,395.366667 232.825,394.8 C233.091667,394.466667 233.441667,394.191667 233.875,393.975 C234.308333,393.758333 234.808333,393.65 235.375,393.65 C235.941667,393.65 236.433333,393.758333 236.85,393.975 C237.266667,394.191667 237.608333,394.466667 237.875,394.8 C238.375,395.366667 238.708333,396.233333 238.875,397.4 C239.041667,398.566667 239.141667,400.25 239.175,402.45 L239.175,402.45 Z M250.125,417 L250.125,397.85 C250.125,396.45 250.475,395.4 251.175,394.7 C251.875,394 252.708333,393.65 253.675,393.65 C254.641667,393.65 255.466667,394 256.15,394.7 C256.833333,395.4 257.175,396.45 257.175,397.85 L257.175,397.85 L257.175,417 L259.975,417 L259.975,397.9 C259.975,397 259.875,396.15 259.675,395.35 C259.475,394.55 259.15,393.833333 258.7,393.2 C258.25,392.566667 257.675,392.066667 256.975,391.7 C256.275,391.333333 255.425,391.15 254.425,391.15 C253.525,391.15 252.691667,391.366667 251.925,391.8 C251.158333,392.233333 250.541667,392.833333 250.075,393.6 L250.075,393.6 L250.075,391.55 L247.325,391.55 L247.325,417 L250.125,417 Z M278.475,417 L278.475,409.05 L281.825,403.75 L287.325,417 L290.425,417 L283.575,401.3 L289.575,391.55 L286.525,391.55 L278.475,404.9 L278.475,381.4 L275.675,381.4 L275.675,417 L278.475,417 Z M297.175,417 L297.175,397.85 C297.175,396.45 297.525,395.4 298.225,394.7 C298.925,394 299.758333,393.65 300.725,393.65 C301.691667,393.65 302.516667,394 303.2,394.7 C303.883333,395.4 304.225,396.45 304.225,397.85 L304.225,397.85 L304.225,417 L307.025,417 L307.025,397.9 C307.025,397 306.925,396.15 306.725,395.35 C306.525,394.55 306.2,393.833333 305.75,393.2 C305.3,392.566667 304.725,392.066667 304.025,391.7 C303.325,391.333333 302.475,391.15 301.475,391.15 C301.075,391.15 300.658333,391.208333 300.225,391.325 C299.791667,391.441667 299.375,391.6 298.975,391.8 C298.575,392 298.216667,392.25 297.9,392.55 C297.583333,392.85 297.341667,393.183333 297.175,393.55 L297.175,393.55 L297.175,381.4 L294.375,381.4 L294.375,417 L297.175,417 Z M315.775,387.7 L318.775,383.1 L321.775,387.7 L324.325,387.7 L320.025,381.2 L317.525,381.2 L313.175,387.7 L315.775,387.7 Z M318.775,417.4 C320.808333,417.4 322.375,416.733333 323.475,415.4 C324.241667,414.466667 324.75,413.133333 325,411.4 C325.25,409.666667 325.375,407.3 325.375,404.3 C325.375,401.3 325.25,398.933333 325,397.2 C324.75,395.466667 324.241667,394.133333 323.475,393.2 C322.375,391.833333 320.808333,391.15 318.775,391.15 C316.741667,391.15 315.175,391.833333 314.075,393.2 C313.308333,394.133333 312.8,395.466667 312.55,397.2 C312.3,398.933333 312.175,401.3 312.175,404.3 C312.175,407.3 312.3,409.666667 312.55,411.4 C312.8,413.133333 313.308333,414.466667 314.075,415.4 C315.175,416.733333 316.741667,417.4 318.775,417.4 Z M318.775,414.9 C318.208333,414.9 317.708333,414.791667 317.275,414.575 C316.841667,414.358333 316.491667,414.083333 316.225,413.75 C315.658333,413.05 315.308333,411.983333 315.175,410.55 C315.041667,409.116667 314.975,407.033333 314.975,404.3 L314.975692,403.824308 C314.983074,401.322809 315.04951,399.389706 315.175,398.025 C315.308333,396.575 315.658333,395.5 316.225,394.8 C316.491667,394.466667 316.841667,394.191667 317.275,393.975 C317.708333,393.758333 318.208333,393.65 318.775,393.65 C319.341667,393.65 319.833333,393.758333 320.25,393.975 C320.666667,394.191667 321.008333,394.466667 321.275,394.8 C321.841667,395.5 322.2,396.575 322.35,398.025 C322.5,399.475 322.575,401.566667 322.575,404.3 C322.575,407.033333 322.5,409.116667 322.35,410.55 C322.2,411.983333 321.841667,413.05 321.275,413.75 C321.008333,414.083333 320.666667,414.358333 320.25,414.575 C319.833333,414.791667 319.341667,414.9 318.775,414.9 Z M333.525,417 L333.525,397.85 C333.525,396.45 333.875,395.4 334.575,394.7 C335.275,394 336.108333,393.65 337.075,393.65 C338.041667,393.65 338.866667,394 339.55,394.7 C340.233333,395.4 340.575,396.45 340.575,397.85 L340.575,397.85 L340.575,417 L343.375,417 L343.375,397.9 C343.375,397 343.275,396.15 343.075,395.35 C342.875,394.55 342.55,393.833333 342.1,393.2 C341.65,392.566667 341.075,392.066667 340.375,391.7 C339.675,391.333333 338.825,391.15 337.825,391.15 C336.925,391.15 336.091667,391.366667 335.325,391.8 C334.558333,392.233333 333.941667,392.833333 333.475,393.6 L333.475,393.6 L333.475,391.55 L330.725,391.55 L330.725,417 L333.525,417 Z M354.975,427.55 C355.908333,427.55 356.766667,427.383333 357.55,427.05 C358.333333,426.716667 358.991667,426.266667 359.525,425.7 C359.891667,425.3 360.191667,424.883333 360.425,424.45 C360.658333,424.016667 360.85,423.5 361,422.9 C361.15,422.3 361.258333,421.608333 361.325,420.825 C361.391667,420.041667 361.425,419.116667 361.425,418.05 L361.425,418.05 L361.425,391.55 L358.675,391.55 L358.675,393.5 C358.208333,392.7 357.608333,392.108333 356.875,391.725 C356.141667,391.341667 355.325,391.15 354.425,391.15 C352.858333,391.15 351.541667,391.75 350.475,392.95 C350.075,393.383333 349.75,393.908333 349.5,394.525 C349.25,395.141667 349.05,395.883333 348.9,396.75 C348.75,397.616667 348.65,398.65 348.6,399.85 C348.55,401.05 348.525,402.466667 348.525,404.1 L348.525926,404.636728 C348.530864,406.047428 348.555556,407.293519 348.6,408.375 C348.65,409.591667 348.75,410.641667 348.9,411.525 C349.05,412.408333 349.25,413.15 349.5,413.75 C349.75,414.35 350.075,414.866667 350.475,415.3 C351.541667,416.466667 352.858333,417.05 354.425,417.05 C355.591667,417.05 356.541667,416.766667 357.275,416.2 C357.541667,416.033333 357.791667,415.816667 358.025,415.55 C358.258333,415.283333 358.458333,415.016667 358.625,414.75 L358.625,414.75 L358.625,418.1 C358.625,419.7 358.541667,420.958333 358.375,421.875 C358.208333,422.791667 357.891667,423.5 357.425,424 C357.158333,424.333333 356.825,424.6 356.425,424.8 C356.025,425 355.541667,425.1 354.975,425.1 C354.275,425.1 353.691667,424.975 353.225,424.725 C352.758333,424.475 352.383333,424.141667 352.1,423.725 C351.816667,423.308333 351.625,422.816667 351.525,422.25 C351.425,421.683333 351.375,421.1 351.375,420.5 L351.375,420.5 L348.625,420.5 C348.625,422.6 349.125,424.3 350.125,425.6 C351.125,426.9 352.741667,427.55 354.975,427.55 Z M355.025,414.6 C354.525,414.6 354.066667,414.491667 353.65,414.275 C353.233333,414.058333 352.891667,413.8 352.625,413.5 C352.325,413.166667 352.091667,412.758333 351.925,412.275 C351.758333,411.791667 351.633333,411.183333 351.55,410.45 C351.466667,409.716667 351.408333,408.833333 351.375,407.8 C351.341667,406.766667 351.325,405.55 351.325,404.15 L351.325309,403.67963 C351.326955,402.445062 351.335185,401.368519 351.35,400.45 C351.366667,399.416667 351.425,398.541667 351.525,397.825 C351.625,397.108333 351.758333,396.508333 351.925,396.025 C352.091667,395.541667 352.325,395.133333 352.625,394.8 C352.891667,394.466667 353.233333,394.191667 353.65,393.975 C354.066667,393.758333 354.525,393.65 355.025,393.65 C356.325,393.65 357.25,394.1 357.8,395 C358.35,395.9 358.625,396.933333 358.625,398.1 L358.625,398.1 L358.625,410.15 C358.625,411.316667 358.35,412.35 357.8,413.25 C357.25,414.15 356.325,414.6 355.025,414.6 Z M380.125,417 L380.125,397.85 C380.125,396.45 380.475,395.4 381.175,394.7 C381.875,394 382.708333,393.65 383.675,393.65 C384.641667,393.65 385.466667,394 386.15,394.7 C386.833333,395.4 387.175,396.45 387.175,397.85 L387.175,397.85 L387.175,417 L389.975,417 L389.975,397.85 C389.975,396.45 390.325,395.4 391.025,394.7 C391.725,394 392.558333,393.65 393.525,393.65 C394.491667,393.65 395.316667,394 396,394.7 C396.683333,395.4 397.025,396.45 397.025,397.85 L397.025,397.85 L397.025,417 L399.825,417 L399.825,397.9 C399.825,395.966667 399.375,394.358333 398.475,393.075 C397.575,391.791667 396.075,391.15 393.975,391.15 C392.908333,391.15 391.983333,391.383333 391.2,391.85 C390.416667,392.316667 389.741667,392.983333 389.175,393.85 C388.675,393.083333 388,392.441667 387.15,391.925 C386.3,391.408333 385.391667,391.15 384.425,391.15 C383.525,391.15 382.691667,391.366667 381.925,391.8 C381.158333,392.233333 380.541667,392.833333 380.075,393.6 L380.075,393.6 L380.075,391.55 L377.325,391.55 L377.325,417 L380.125,417 Z M419.975,384.15 L416.075,377.65 L413.175,377.65 L417.525,384.15 L419.975,384.15 Z M408.575,387.7 L411.575,383.1 L414.575,387.7 L417.125,387.7 L412.825,381.2 L410.325,381.2 L405.975,387.7 L408.575,387.7 Z M411.575,417.4 C413.608333,417.4 415.175,416.733333 416.275,415.4 C417.041667,414.466667 417.55,413.133333 417.8,411.4 C418.05,409.666667 418.175,407.3 418.175,404.3 C418.175,401.3 418.05,398.933333 417.8,397.2 C417.55,395.466667 417.041667,394.133333 416.275,393.2 C415.175,391.833333 413.608333,391.15 411.575,391.15 C409.541667,391.15 407.975,391.833333 406.875,393.2 C406.108333,394.133333 405.6,395.466667 405.35,397.2 C405.1,398.933333 404.975,401.3 404.975,404.3 C404.975,407.3 405.1,409.666667 405.35,411.4 C405.6,413.133333 406.108333,414.466667 406.875,415.4 C407.975,416.733333 409.541667,417.4 411.575,417.4 Z M411.575,414.9 C411.008333,414.9 410.508333,414.791667 410.075,414.575 C409.641667,414.358333 409.291667,414.083333 409.025,413.75 C408.458333,413.05 408.108333,411.983333 407.975,410.55 C407.841667,409.116667 407.775,407.033333 407.775,404.3 L407.775692,403.824308 C407.783074,401.322809 407.84951,399.389706 407.975,398.025 C408.108333,396.575 408.458333,395.5 409.025,394.8 C409.291667,394.466667 409.641667,394.191667 410.075,393.975 C410.508333,393.758333 411.008333,393.65 411.575,393.65 C412.141667,393.65 412.633333,393.758333 413.05,393.975 C413.466667,394.191667 413.808333,394.466667 414.075,394.8 C414.641667,395.5 415,396.575 415.15,398.025 C415.3,399.475 415.375,401.566667 415.375,404.3 C415.375,407.033333 415.3,409.116667 415.15,410.55 C415,411.983333 414.641667,413.05 414.075,413.75 C413.808333,414.083333 413.466667,414.358333 413.05,414.575 C412.633333,414.791667 412.141667,414.9 411.575,414.9 Z M426.725,385.7 L426.725,382.1 L423.125,382.1 L423.125,385.7 L426.725,385.7 Z M426.325,417 L426.325,391.55 L423.525,391.55 L423.525,417 L426.325,417 Z M445.025,417 L445.025,397.85 C445.025,396.45 445.375,395.4 446.075,394.7 C446.775,394 447.608333,393.65 448.575,393.65 C449.541667,393.65 450.366667,394 451.05,394.7 C451.733333,395.4 452.075,396.45 452.075,397.85 L452.075,397.85 L452.075,417 L454.875,417 L454.875,397.85 C454.875,396.45 455.225,395.4 455.925,394.7 C456.625,394 457.458333,393.65 458.425,393.65 C459.391667,393.65 460.216667,394 460.9,394.7 C461.583333,395.4 461.925,396.45 461.925,397.85 L461.925,397.85 L461.925,417 L464.725,417 L464.725,397.9 C464.725,395.966667 464.275,394.358333 463.375,393.075 C462.475,391.791667 460.975,391.15 458.875,391.15 C457.808333,391.15 456.883333,391.383333 456.1,391.85 C455.316667,392.316667 454.641667,392.983333 454.075,393.85 C453.575,393.083333 452.9,392.441667 452.05,391.925 C451.2,391.408333 450.291667,391.15 449.325,391.15 C448.425,391.15 447.591667,391.366667 446.825,391.8 C446.058333,392.233333 445.441667,392.833333 444.975,393.6 L444.975,393.6 L444.975,391.55 L442.225,391.55 L442.225,417 L445.025,417 Z M477.675,387.7 L474.375,381.2 L471.475,381.2 L475.225,387.7 L477.675,387.7 Z M475.175,417.4 C476.108333,417.4 476.983333,417.166667 477.8,416.7 C478.616667,416.233333 479.225,415.566667 479.625,414.7 L479.625,414.7 L479.625,417 L482.325,417 L482.325,398.05 C482.325,395.916667 481.825,394.233333 480.825,393 C479.825,391.766667 478.225,391.15 476.025,391.15 C474.991667,391.15 474.083333,391.325 473.3,391.675 C472.516667,392.025 471.866667,392.516667 471.35,393.15 C470.833333,393.783333 470.441667,394.516667 470.175,395.35 C469.908333,396.183333 469.775,397.1 469.775,398.1 L469.775,398.1 L472.575,398.1 C472.575,397.533333 472.633333,396.983333 472.75,396.45 C472.866667,395.916667 473.066667,395.441667 473.35,395.025 C473.633333,394.608333 473.991667,394.266667 474.425,394 C474.858333,393.733333 475.391667,393.6 476.025,393.6 C477.191667,393.6 478.066667,393.975 478.65,394.725 C479.233333,395.475 479.525,396.55 479.525,397.95 L479.525,397.95 L479.525,402.5 L476.625,402.5 C474.291667,402.5 472.516667,403.166667 471.3,404.5 C470.083333,405.833333 469.475,407.65 469.475,409.95 C469.475,410.883333 469.566667,411.8 469.75,412.7 C469.933333,413.6 470.25,414.4 470.7,415.1 C471.15,415.8 471.733333,416.358333 472.45,416.775 C473.166667,417.191667 474.075,417.4 475.175,417.4 Z M475.825,414.9 C474.591667,414.9 473.691667,414.45 473.125,413.55 C472.558333,412.65 472.275,411.433333 472.275,409.9 C472.275,408.4 472.616667,407.158333 473.3,406.175 C473.983333,405.191667 475.125,404.7 476.725,404.7 L476.725,404.7 L479.525,404.7 L479.525,410.3 C479.525,411.633333 479.191667,412.733333 478.525,413.6 C477.858333,414.466667 476.958333,414.9 475.825,414.9 Z M505.075,417.4 C506.708333,417.4 508.041667,416.8 509.075,415.6 C509.875,414.733333 510.391667,413.433333 510.625,411.7 C510.858333,409.966667 510.975,407.5 510.975,404.3 C510.975,402.7 510.95,401.291667 510.9,400.075 C510.85,398.858333 510.758333,397.8 510.625,396.9 C510.491667,396 510.3,395.233333 510.05,394.6 C509.8,393.966667 509.475,393.416667 509.075,392.95 C508.041667,391.75 506.708333,391.15 505.075,391.15 C503.941667,391.15 502.991667,391.433333 502.225,392 C501.958333,392.166667 501.7,392.391667 501.45,392.675 C501.2,392.958333 500.991667,393.233333 500.825,393.5 L500.825,393.5 L500.825,381.4 L498.025,381.4 L498.025,417 L500.775,417 L500.775,415 C500.941667,415.266667 501.158333,415.55 501.425,415.85 C501.691667,416.15 501.958333,416.383333 502.225,416.55 C502.991667,417.116667 503.941667,417.4 505.075,417.4 Z M504.425,414.9 C503.158333,414.9 502.241667,414.45 501.675,413.55 C501.108333,412.65 500.825,411.616667 500.825,410.45 L500.825,410.45 L500.825,398.1 C500.825,396.933333 501.108333,395.9 501.675,395 C502.241667,394.1 503.158333,393.65 504.425,393.65 C504.958333,393.65 505.433333,393.758333 505.85,393.975 C506.266667,394.191667 506.608333,394.466667 506.875,394.8 C507.175,395.133333 507.408333,395.55 507.575,396.05 C507.741667,396.55 507.866667,397.175 507.95,397.925 C508.033333,398.675 508.091667,399.575 508.125,400.625 C508.158333,401.675 508.175,402.9 508.175,404.3 C508.175,405.7 508.158333,406.925 508.125,407.975 C508.091667,409.025 508.033333,409.925 507.95,410.675 C507.866667,411.425 507.741667,412.05 507.575,412.55 C507.408333,413.05 507.175,413.466667 506.875,413.8 C506.608333,414.133333 506.266667,414.4 505.85,414.6 C505.433333,414.8 504.958333,414.9 504.425,414.9 Z M523.125,387.7 L526.825,381.2 L523.925,381.2 L520.675,387.7 L523.125,387.7 Z M522.125,417.4 C524.058333,417.4 525.591667,416.816667 526.725,415.65 C527.391667,414.983333 527.866667,414.233333 528.15,413.4 C528.433333,412.566667 528.575,411.533333 528.575,410.3 L528.575,410.3 L525.825,410.3 C525.825,411.933333 525.458333,413.133333 524.725,413.9 C524.391667,414.266667 524,414.525 523.55,414.675 C523.1,414.825 522.625,414.9 522.125,414.9 C521.558333,414.9 521.058333,414.791667 520.625,414.575 C520.191667,414.358333 519.841667,414.083333 519.575,413.75 C519.008333,413.083333 518.65,412.058333 518.5,410.675 C518.35,409.291667 518.275,407.3 518.275,404.7 L518.275,404.7 L528.675,404.7 C528.675,401.466667 528.541667,398.941667 528.275,397.125 C528.008333,395.308333 527.458333,393.933333 526.625,393 C525.491667,391.766667 523.975,391.15 522.075,391.15 C520.175,391.15 518.658333,391.766667 517.525,393 C516.658333,393.933333 516.1,395.283333 515.85,397.05 C515.6,398.816667 515.475,401.233333 515.475,404.3 C515.475,407.333333 515.608333,409.741667 515.875,411.525 C516.141667,413.308333 516.691667,414.65 517.525,415.55 C518.691667,416.783333 520.225,417.4 522.125,417.4 Z M525.875,402.45 L518.275,402.45 C518.308333,400.25 518.4,398.566667 518.55,397.4 C518.7,396.233333 519.025,395.366667 519.525,394.8 C519.791667,394.466667 520.141667,394.191667 520.575,393.975 C521.008333,393.758333 521.508333,393.65 522.075,393.65 C522.641667,393.65 523.133333,393.758333 523.55,393.975 C523.966667,394.191667 524.308333,394.466667 524.575,394.8 C525.075,395.366667 525.408333,396.233333 525.575,397.4 C525.741667,398.566667 525.841667,400.25 525.875,402.45 L525.875,402.45 Z M536.825,417 L536.825,397.85 C536.825,396.45 537.175,395.4 537.875,394.7 C538.575,394 539.408333,393.65 540.375,393.65 C541.341667,393.65 542.166667,394 542.85,394.7 C543.533333,395.4 543.875,396.45 543.875,397.85 L543.875,397.85 L543.875,417 L546.675,417 L546.675,397.9 C546.675,397 546.575,396.15 546.375,395.35 C546.175,394.55 545.85,393.833333 545.4,393.2 C544.95,392.566667 544.375,392.066667 543.675,391.7 C542.975,391.333333 542.125,391.15 541.125,391.15 C540.225,391.15 539.391667,391.366667 538.625,391.8 C537.858333,392.233333 537.241667,392.833333 536.775,393.6 L536.775,393.6 L536.775,391.55 L534.025,391.55 L534.025,417 L536.825,417 Z" id="path-1"></path>
        <filter x="-1.9%" y="-4.5%" width="103.7%" height="112.6%" filterUnits="objectBoundingBox" id="filter-2">
            <feOffset dx="0" dy="2" in="SourceAlpha" result="shadowOffsetOuter1"></feOffset>
            <feGaussianBlur stdDeviation="2" in="shadowOffsetOuter1" result="shadowBlurOuter1"></feGaussianBlur>
            <feColorMatrix values="0 0 0 0 0   0 0 0 0 0   0 0 0 0 0  0 0 0 0.25 0" type="matrix" in="shadowBlurOuter1"></feColorMatrix>
        </filter>
        <path d="M237.3,197.64 C239.7,197.64 241.766667,197.306667 243.5,196.64 C245.233333,195.973333 246.82,194.946667 248.26,193.56 C249.753333,192.173333 250.953333,190.373333 251.86,188.16 C252.766667,185.946667 253.273333,183.48 253.38,180.76 L253.38,180.76 L242.02,180.76 C241.966667,181.56 241.886667,182.346667 241.78,183.12 C241.673333,183.893333 241.46,184.573333 241.14,185.16 C240.82,185.853333 240.366667,186.4 239.78,186.8 C239.193333,187.2 238.366667,187.4 237.3,187.4 C236.233333,187.4 235.406667,187.186667 234.82,186.76 C234.233333,186.333333 233.78,185.8 233.46,185.16 C233.14,184.52 232.873333,183.613333 232.66,182.44 C232.446667,181.266667 232.286667,179.933333 232.18,178.44 C232.073333,176.946667 232.006667,175.346667 231.98,173.64 C231.953333,171.933333 231.94,170.226667 231.94,168.52 C231.94,166.813333 231.953333,165.106667 231.98,163.4 C232.006667,161.693333 232.073333,160.093333 232.18,158.6 C232.286667,157.106667 232.446667,155.773333 232.66,154.6 C232.873333,153.426667 233.14,152.52 233.46,151.88 C233.78,151.24 234.233333,150.706667 234.82,150.28 C235.406667,149.853333 236.233333,149.64 237.3,149.64 C238.366667,149.64 239.193333,149.826667 239.78,150.2 C240.366667,150.573333 240.82,151.106667 241.14,151.8 C241.46,152.386667 241.673333,153.066667 241.78,153.84 C241.886667,154.613333 241.966667,155.4 242.02,156.2 L242.02,156.2 L253.38,156.2 C253.273333,153.48 252.766667,151.026667 251.86,148.84 C250.953333,146.653333 249.753333,144.866667 248.26,143.48 C246.82,142.093333 245.233333,141.066667 243.5,140.4 C241.766667,139.733333 239.7,139.4 237.3,139.4 C234.206667,139.4 231.673333,139.96 229.7,141.08 C227.726667,142.2 226.1,143.56 224.82,145.16 C223.806667,146.386667 223.02,147.773333 222.46,149.32 C221.9,150.866667 221.473333,152.613333 221.18,154.56 C220.886667,156.506667 220.713333,158.64 220.66,160.96 C220.606667,163.28 220.58,165.8 220.58,168.52 L220.580988,169.419259 C220.586255,171.797531 220.612593,174.017778 220.66,176.08 C220.713333,178.4 220.886667,180.533333 221.18,182.48 C221.473333,184.426667 221.9,186.173333 222.46,187.72 C223.02,189.266667 223.806667,190.653333 224.82,191.88 C226.1,193.48 227.726667,194.84 229.7,195.96 C231.673333,197.08 234.206667,197.64 237.3,197.64 Z M270.18,197 L270.18,166.84 C270.18,165.506667 270.5,164.52 271.14,163.88 C271.78,163.24 272.58,162.92 273.54,162.92 C274.5,162.92 275.3,163.24 275.94,163.88 C276.58,164.52 276.9,165.506667 276.9,166.84 L276.9,166.84 L276.9,197 L287.62,197 L287.62,166.68 C287.62,164.813333 287.46,163.066667 287.14,161.44 C286.82,159.813333 286.26,158.4 285.46,157.2 C284.66,156 283.566667,155.053333 282.18,154.36 C280.793333,153.666667 279.033333,153.32 276.9,153.32 C275.406667,153.32 274.166667,153.6 273.18,154.16 C272.193333,154.72 271.193333,155.506667 270.18,156.52 L270.18,156.52 L270.18,140.04 L259.46,140.04 L259.46,197 L270.18,197 Z M304.1,197.64 C305.166667,197.64 306.06,197.52 306.78,197.28 C307.5,197.04 308.18,196.706667 308.82,196.28 C309.406667,195.906667 309.913333,195.48 310.34,195 C310.766667,194.52 311.193333,194.013333 311.62,193.48 L311.62,193.48 L311.62,197 L321.62,197 L321.62,167.56 C321.62,163.186667 320.38,159.72 317.9,157.16 C315.42,154.6 311.993333,153.32 307.62,153.32 C305.7,153.32 303.886667,153.653333 302.18,154.32 C300.473333,154.986667 298.993333,155.92 297.74,157.12 C296.486667,158.32 295.5,159.733333 294.78,161.36 C294.06,162.986667 293.7,164.786667 293.7,166.76 L293.7,166.76 L304.42,166.76 C304.42,165.746667 304.686667,164.826667 305.22,164 C305.753333,163.173333 306.58,162.76 307.7,162.76 C309.833333,162.76 310.9,164.013333 310.9,166.52 L310.9,166.52 L310.9,171.48 L307.62,171.48 C305.54,171.48 303.606667,171.706667 301.82,172.16 C300.033333,172.613333 298.486667,173.346667 297.18,174.36 C295.873333,175.373333 294.833333,176.68 294.06,178.28 C293.286667,179.88 292.9,181.826667 292.9,184.12 C292.9,185.986667 293.086667,187.733333 293.46,189.36 C293.833333,190.986667 294.46,192.413333 295.34,193.64 C296.22,194.866667 297.38,195.84 298.82,196.56 C300.26,197.28 302.02,197.64 304.1,197.64 Z M307.3,188.28 C306.18,188.28 305.286667,187.893333 304.62,187.12 C303.953333,186.346667 303.62,185.186667 303.62,183.64 C303.62,183.053333 303.74,182.4 303.98,181.68 C304.22,180.96 304.553333,180.386667 304.98,179.96 C305.566667,179.426667 306.166667,179.12 306.78,179.04 C307.393333,178.96 308.153333,178.92 309.06,178.92 L309.06,178.92 L310.9,178.92 L310.9,183.64 C310.9,185.186667 310.54,186.346667 309.82,187.12 C309.1,187.893333 308.26,188.28 307.3,188.28 Z M339.54,197 L339.54,166.84 C339.54,165.506667 339.86,164.52 340.5,163.88 C341.14,163.24 341.94,162.92 342.9,162.92 C343.86,162.92 344.66,163.24 345.3,163.88 C345.94,164.52 346.26,165.506667 346.26,166.84 L346.26,166.84 L346.26,197 L356.98,197 L356.98,166.68 C356.98,164.813333 356.82,163.066667 356.5,161.44 C356.18,159.813333 355.62,158.4 354.82,157.2 C354.02,156 352.926667,155.053333 351.54,154.36 C350.153333,153.666667 348.393333,153.32 346.26,153.32 C344.713333,153.32 343.366667,153.653333 342.22,154.32 C341.073333,154.986667 340.02,155.906667 339.06,157.08 L339.06,157.08 L339.06,153.96 L328.82,153.96 L328.82,197 L339.54,197 Z M379.94,197.64 C382.34,197.64 384.406667,197.306667 386.14,196.64 C387.873333,195.973333 389.46,194.946667 390.9,193.56 C392.393333,192.173333 393.593333,190.373333 394.5,188.16 C395.406667,185.946667 395.913333,183.48 396.02,180.76 L396.02,180.76 L384.66,180.76 C384.606667,181.56 384.526667,182.346667 384.42,183.12 C384.313333,183.893333 384.1,184.573333 383.78,185.16 C383.46,185.853333 383.006667,186.4 382.42,186.8 C381.833333,187.2 381.006667,187.4 379.94,187.4 C378.873333,187.4 378.046667,187.186667 377.46,186.76 C376.873333,186.333333 376.42,185.8 376.1,185.16 C375.78,184.52 375.513333,183.613333 375.3,182.44 C375.086667,181.266667 374.926667,179.933333 374.82,178.44 C374.713333,176.946667 374.646667,175.346667 374.62,173.64 C374.593333,171.933333 374.58,170.226667 374.58,168.52 C374.58,166.813333 374.593333,165.106667 374.62,163.4 C374.646667,161.693333 374.713333,160.093333 374.82,158.6 C374.926667,157.106667 375.086667,155.773333 375.3,154.6 C375.513333,153.426667 375.78,152.52 376.1,151.88 C376.42,151.24 376.873333,150.706667 377.46,150.28 C378.046667,149.853333 378.873333,149.64 379.94,149.64 C381.006667,149.64 381.833333,149.826667 382.42,150.2 C383.006667,150.573333 383.46,151.106667 383.78,151.8 C384.1,152.386667 384.313333,153.066667 384.42,153.84 C384.526667,154.613333 384.606667,155.4 384.66,156.2 L384.66,156.2 L396.02,156.2 C395.913333,153.48 395.406667,151.026667 394.5,148.84 C393.593333,146.653333 392.393333,144.866667 390.9,143.48 C389.46,142.093333 387.873333,141.066667 386.14,140.4 C384.406667,139.733333 382.34,139.4 379.94,139.4 C376.846667,139.4 374.313333,139.96 372.34,141.08 C370.366667,142.2 368.74,143.56 367.46,145.16 C366.446667,146.386667 365.66,147.773333 365.1,149.32 C364.54,150.866667 364.113333,152.613333 363.82,154.56 C363.526667,156.506667 363.353333,158.64 363.3,160.96 C363.246667,163.28 363.22,165.8 363.22,168.52 L363.220988,169.419259 C363.226255,171.797531 363.252593,174.017778 363.3,176.08 C363.353333,178.4 363.526667,180.533333 363.82,182.48 C364.113333,184.426667 364.54,186.173333 365.1,187.72 C365.66,189.266667 366.446667,190.653333 367.46,191.88 C368.74,193.48 370.366667,194.84 372.34,195.96 C374.313333,197.08 376.846667,197.64 379.94,197.64 Z M412.82,197 L412.82,166.84 C412.82,165.506667 413.14,164.52 413.78,163.88 C414.42,163.24 415.22,162.92 416.18,162.92 C417.14,162.92 417.94,163.24 418.58,163.88 C419.22,164.52 419.54,165.506667 419.54,166.84 L419.54,166.84 L419.54,197 L430.26,197 L430.26,166.68 C430.26,164.813333 430.1,163.066667 429.78,161.44 C429.46,159.813333 428.9,158.4 428.1,157.2 C427.3,156 426.206667,155.053333 424.82,154.36 C423.433333,153.666667 421.673333,153.32 419.54,153.32 C418.046667,153.32 416.806667,153.6 415.82,154.16 C414.833333,154.72 413.833333,155.506667 412.82,156.52 L412.82,156.52 L412.82,140.04 L402.1,140.04 L402.1,197 L412.82,197 Z M446.74,197.64 C447.806667,197.64 448.7,197.52 449.42,197.28 C450.14,197.04 450.82,196.706667 451.46,196.28 C452.046667,195.906667 452.553333,195.48 452.98,195 C453.406667,194.52 453.833333,194.013333 454.26,193.48 L454.26,193.48 L454.26,197 L464.26,197 L464.26,167.56 C464.26,163.186667 463.02,159.72 460.54,157.16 C458.06,154.6 454.633333,153.32 450.26,153.32 C448.34,153.32 446.526667,153.653333 444.82,154.32 C443.113333,154.986667 441.633333,155.92 440.38,157.12 C439.126667,158.32 438.14,159.733333 437.42,161.36 C436.7,162.986667 436.34,164.786667 436.34,166.76 L436.34,166.76 L447.06,166.76 C447.06,165.746667 447.326667,164.826667 447.86,164 C448.393333,163.173333 449.22,162.76 450.34,162.76 C452.473333,162.76 453.54,164.013333 453.54,166.52 L453.54,166.52 L453.54,171.48 L450.26,171.48 C448.18,171.48 446.246667,171.706667 444.46,172.16 C442.673333,172.613333 441.126667,173.346667 439.82,174.36 C438.513333,175.373333 437.473333,176.68 436.7,178.28 C435.926667,179.88 435.54,181.826667 435.54,184.12 C435.54,185.986667 435.726667,187.733333 436.1,189.36 C436.473333,190.986667 437.1,192.413333 437.98,193.64 C438.86,194.866667 440.02,195.84 441.46,196.56 C442.9,197.28 444.66,197.64 446.74,197.64 Z M449.94,188.28 C448.82,188.28 447.926667,187.893333 447.26,187.12 C446.593333,186.346667 446.26,185.186667 446.26,183.64 C446.26,183.053333 446.38,182.4 446.62,181.68 C446.86,180.96 447.193333,180.386667 447.62,179.96 C448.206667,179.426667 448.806667,179.12 449.42,179.04 C450.033333,178.96 450.793333,178.92 451.7,178.92 L451.7,178.92 L453.54,178.92 L453.54,183.64 C453.54,185.186667 453.18,186.346667 452.46,187.12 C451.74,187.893333 450.9,188.28 449.94,188.28 Z M482.18,197 L482.18,166.84 C482.18,165.506667 482.5,164.52 483.14,163.88 C483.78,163.24 484.58,162.92 485.54,162.92 C486.5,162.92 487.3,163.24 487.94,163.88 C488.58,164.52 488.9,165.506667 488.9,166.84 L488.9,166.84 L488.9,197 L499.62,197 L499.62,166.68 C499.62,164.813333 499.46,163.066667 499.14,161.44 C498.82,159.813333 498.26,158.4 497.46,157.2 C496.66,156 495.566667,155.053333 494.18,154.36 C492.793333,153.666667 491.033333,153.32 488.9,153.32 C487.353333,153.32 486.006667,153.653333 484.86,154.32 C483.713333,154.986667 482.66,155.906667 481.7,157.08 L481.7,157.08 L481.7,153.96 L471.46,153.96 L471.46,197 L482.18,197 Z" id="path-3"></path>
        <filter x="-2.5%" y="-8.6%" width="105.0%" height="124.0%" filterUnits="objectBoundingBox" id="filter-4">
            <feOffset dx="0" dy="2" in="SourceAlpha" result="shadowOffsetOuter1"></feOffset>
            <feGaussianBlur stdDeviation="2" in="shadowOffsetOuter1" result="shadowBlurOuter1"></feGaussianBlur>
            <feColorMatrix values="0 0 0 0 0   0 0 0 0 0   0 0 0 0 0  0 0 0 0.25 0" type="matrix" in="shadowBlurOuter1"></feColorMatrix>
        </filter>
    </defs>
    <g id="1" stroke="none" stroke-width="1" fill="none" fill-rule="evenodd">
        <g id="Ngichnghnmgp.Duynkhngmimbn" fill-rule="nonzero">
            <use fill="black" fill-opacity="1" filter="url(#filter-2)" xlink:href="#path-1"></use>
            <use fill="#FFFFFF" xlink:href="#path-1"></use>
        </g>
        <path d="M248.75,263 L250.2,251.5 L255.3,251.5 L253.85,263 L256.55,263 L258,251.5 L262.05,251.5 L262.05,248.95 L258.4,248.95 L259.4,240.8 L263.35,240.8 L263.35,238.3 L259.75,238.3 L261.15,227.4 L258.45,227.4 L257.05,238.3 L251.95,238.3 L253.35,227.4 L250.65,227.4 L249.25,238.3 L245.25,238.3 L245.25,240.8 L248.9,240.8 L247.85,248.95 L243.9,248.95 L243.9,251.5 L247.5,251.5 L246.05,263 L248.75,263 Z M255.65,248.95 L250.55,248.95 L251.6,240.8 L256.7,240.8 L255.65,248.95 Z M272.45,263 L272.45,246.2 L281.25,246.2 L281.25,263 L284.2,263 L284.2,227.4 L281.25,227.4 L281.25,243.55 L272.45,243.55 L272.45,227.4 L269.5,227.4 L269.5,263 L272.45,263 Z M296.55,263.4 C298.483333,263.4 300.016667,262.816667 301.15,261.65 C301.816667,260.983333 302.291667,260.233333 302.575,259.4 C302.858333,258.566667 303,257.533333 303,256.3 L303,256.3 L300.25,256.3 C300.25,257.933333 299.883333,259.133333 299.15,259.9 C298.816667,260.266667 298.425,260.525 297.975,260.675 C297.525,260.825 297.05,260.9 296.55,260.9 C295.983333,260.9 295.483333,260.791667 295.05,260.575 C294.616667,260.358333 294.266667,260.083333 294,259.75 C293.433333,259.083333 293.075,258.058333 292.925,256.675 C292.775,255.291667 292.7,253.3 292.7,250.7 L292.7,250.7 L303.1,250.7 C303.1,247.466667 302.966667,244.941667 302.7,243.125 C302.433333,241.308333 301.883333,239.933333 301.05,239 C299.916667,237.766667 298.4,237.15 296.5,237.15 C294.6,237.15 293.083333,237.766667 291.95,239 C291.083333,239.933333 290.525,241.283333 290.275,243.05 C290.025,244.816667 289.9,247.233333 289.9,250.3 C289.9,253.333333 290.033333,255.741667 290.3,257.525 C290.566667,259.308333 291.116667,260.65 291.95,261.55 C293.116667,262.783333 294.65,263.4 296.55,263.4 Z M300.3,248.45 L292.7,248.45 C292.733333,246.25 292.825,244.566667 292.975,243.4 C293.125,242.233333 293.45,241.366667 293.95,240.8 C294.216667,240.466667 294.566667,240.191667 295,239.975 C295.433333,239.758333 295.933333,239.65 296.5,239.65 C297.066667,239.65 297.558333,239.758333 297.975,239.975 C298.391667,240.191667 298.733333,240.466667 299,240.8 C299.5,241.366667 299.833333,242.233333 300,243.4 C300.166667,244.566667 300.266667,246.25 300.3,248.45 L300.3,248.45 Z M311.25,263 L311.25,243.85 C311.25,242.45 311.6,241.4 312.3,240.7 C313,240 313.833333,239.65 314.8,239.65 C315.766667,239.65 316.591667,240 317.275,240.7 C317.958333,241.4 318.3,242.45 318.3,243.85 L318.3,243.85 L318.3,263 L321.1,263 L321.1,243.9 C321.1,243 321,242.15 320.8,241.35 C320.6,240.55 320.275,239.833333 319.825,239.2 C319.375,238.566667 318.8,238.066667 318.1,237.7 C317.4,237.333333 316.55,237.15 315.55,237.15 C314.65,237.15 313.816667,237.366667 313.05,237.8 C312.283333,238.233333 311.666667,238.833333 311.2,239.6 L311.2,239.6 L311.2,237.55 L308.45,237.55 L308.45,263 L311.25,263 Z M329.9,263 L329.9,243.85 C329.9,242.45 330.25,241.4 330.95,240.7 C331.65,240 332.483333,239.65 333.45,239.65 C334.416667,239.65 335.241667,240 335.925,240.7 C336.608333,241.4 336.95,242.45 336.95,243.85 L336.95,243.85 L336.95,263 L339.75,263 L339.75,243.9 C339.75,243 339.65,242.15 339.45,241.35 C339.25,240.55 338.925,239.833333 338.475,239.2 C338.025,238.566667 337.45,238.066667 336.75,237.7 C336.05,237.333333 335.2,237.15 334.2,237.15 C333.3,237.15 332.466667,237.366667 331.7,237.8 C330.933333,238.233333 330.316667,238.833333 329.85,239.6 L329.85,239.6 L329.85,237.55 L327.1,237.55 L327.1,263 L329.9,263 Z M351.35,273.55 C352.283333,273.55 353.141667,273.383333 353.925,273.05 C354.708333,272.716667 355.366667,272.266667 355.9,271.7 C356.266667,271.3 356.566667,270.883333 356.8,270.45 C357.033333,270.016667 357.225,269.5 357.375,268.9 C357.525,268.3 357.633333,267.608333 357.7,266.825 C357.766667,266.041667 357.8,265.116667 357.8,264.05 L357.8,264.05 L357.8,237.55 L355.05,237.55 L355.05,239.5 C354.583333,238.7 353.983333,238.108333 353.25,237.725 C352.516667,237.341667 351.7,237.15 350.8,237.15 C349.233333,237.15 347.916667,237.75 346.85,238.95 C346.45,239.383333 346.125,239.908333 345.875,240.525 C345.625,241.141667 345.425,241.883333 345.275,242.75 C345.125,243.616667 345.025,244.65 344.975,245.85 C344.925,247.05 344.9,248.466667 344.9,250.1 L344.900926,250.636728 C344.905864,252.047428 344.930556,253.293519 344.975,254.375 C345.025,255.591667 345.125,256.641667 345.275,257.525 C345.425,258.408333 345.625,259.15 345.875,259.75 C346.125,260.35 346.45,260.866667 346.85,261.3 C347.916667,262.466667 349.233333,263.05 350.8,263.05 C351.966667,263.05 352.916667,262.766667 353.65,262.2 C353.916667,262.033333 354.166667,261.816667 354.4,261.55 C354.633333,261.283333 354.833333,261.016667 355,260.75 L355,260.75 L355,264.1 C355,265.7 354.916667,266.958333 354.75,267.875 C354.583333,268.791667 354.266667,269.5 353.8,270 C353.533333,270.333333 353.2,270.6 352.8,270.8 C352.4,271 351.916667,271.1 351.35,271.1 C350.65,271.1 350.066667,270.975 349.6,270.725 C349.133333,270.475 348.758333,270.141667 348.475,269.725 C348.191667,269.308333 348,268.816667 347.9,268.25 C347.8,267.683333 347.75,267.1 347.75,266.5 L347.75,266.5 L345,266.5 C345,268.6 345.5,270.3 346.5,271.6 C347.5,272.9 349.116667,273.55 351.35,273.55 Z M351.4,260.6 C350.9,260.6 350.441667,260.491667 350.025,260.275 C349.608333,260.058333 349.266667,259.8 349,259.5 C348.7,259.166667 348.466667,258.758333 348.3,258.275 C348.133333,257.791667 348.008333,257.183333 347.925,256.45 C347.841667,255.716667 347.783333,254.833333 347.75,253.8 C347.716667,252.766667 347.7,251.55 347.7,250.15 L347.700309,249.67963 C347.701955,248.445062 347.710185,247.368519 347.725,246.45 C347.741667,245.416667 347.8,244.541667 347.9,243.825 C348,243.108333 348.133333,242.508333 348.3,242.025 C348.466667,241.541667 348.7,241.133333 349,240.8 C349.266667,240.466667 349.608333,240.191667 350.025,239.975 C350.441667,239.758333 350.9,239.65 351.4,239.65 C352.7,239.65 353.625,240.1 354.175,241 C354.725,241.9 355,242.933333 355,244.1 L355,244.1 L355,256.15 C355,257.316667 354.725,258.35 354.175,259.25 C353.625,260.15 352.7,260.6 351.4,260.6 Z M368.45,263.4 C369.383333,263.4 370.258333,263.166667 371.075,262.7 C371.891667,262.233333 372.5,261.566667 372.9,260.7 L372.9,260.7 L372.9,263 L375.6,263 L375.6,244.05 C375.6,241.916667 375.1,240.233333 374.1,239 C373.1,237.766667 371.5,237.15 369.3,237.15 C368.266667,237.15 367.358333,237.325 366.575,237.675 C365.791667,238.025 365.141667,238.516667 364.625,239.15 C364.108333,239.783333 363.716667,240.516667 363.45,241.35 C363.183333,242.183333 363.05,243.1 363.05,244.1 L363.05,244.1 L365.85,244.1 C365.85,243.533333 365.908333,242.983333 366.025,242.45 C366.141667,241.916667 366.341667,241.441667 366.625,241.025 C366.908333,240.608333 367.266667,240.266667 367.7,240 C368.133333,239.733333 368.666667,239.6 369.3,239.6 C370.466667,239.6 371.341667,239.975 371.925,240.725 C372.508333,241.475 372.8,242.55 372.8,243.95 L372.8,243.95 L372.8,248.5 L369.9,248.5 C367.566667,248.5 365.791667,249.166667 364.575,250.5 C363.358333,251.833333 362.75,253.65 362.75,255.95 C362.75,256.883333 362.841667,257.8 363.025,258.7 C363.208333,259.6 363.525,260.4 363.975,261.1 C364.425,261.8 365.008333,262.358333 365.725,262.775 C366.441667,263.191667 367.35,263.4 368.45,263.4 Z M369.1,260.9 C367.866667,260.9 366.966667,260.45 366.4,259.55 C365.833333,258.65 365.55,257.433333 365.55,255.9 C365.55,254.4 365.891667,253.158333 366.575,252.175 C367.258333,251.191667 368.4,250.7 370,250.7 L370,250.7 L372.8,250.7 L372.8,256.3 C372.8,257.633333 372.466667,258.733333 371.8,259.6 C371.133333,260.466667 370.233333,260.9 369.1,260.9 Z M386.95,263.4 C387.85,263.4 388.683333,263.183333 389.45,262.75 C390.216667,262.316667 390.833333,261.716667 391.3,260.95 L391.3,260.95 L391.3,263 L394.05,263 L394.05,237.55 L391.25,237.55 L391.25,256.7 C391.25,258.1 390.9,259.15 390.2,259.85 C389.5,260.55 388.666667,260.9 387.7,260.9 C386.733333,260.9 385.908333,260.55 385.225,259.85 C384.541667,259.15 384.2,258.1 384.2,256.7 L384.2,256.7 L384.2,237.55 L381.4,237.55 L381.4,256.65 C381.4,257.55 381.5,258.4 381.7,259.2 C381.9,260 382.225,260.716667 382.675,261.35 C383.125,261.983333 383.7,262.483333 384.4,262.85 C385.1,263.216667 385.95,263.4 386.95,263.4 Z M403.05,263 L403.05,243.85 C403.05,242.45 403.4,241.4 404.1,240.7 C404.8,240 405.633333,239.65 406.6,239.65 C407.566667,239.65 408.391667,240 409.075,240.7 C409.758333,241.4 410.1,242.45 410.1,243.85 L410.1,243.85 L410.1,263 L412.9,263 L412.9,243.9 C412.9,243 412.8,242.15 412.6,241.35 C412.4,240.55 412.075,239.833333 411.625,239.2 C411.175,238.566667 410.6,238.066667 409.9,237.7 C409.2,237.333333 408.35,237.15 407.35,237.15 C406.45,237.15 405.616667,237.366667 404.85,237.8 C404.083333,238.233333 403.466667,238.833333 403,239.6 L403,239.6 L403,237.55 L400.25,237.55 L400.25,263 L403.05,263 Z M421.7,263 L421.7,243.85 C421.7,242.45 422.05,241.4 422.75,240.7 C423.45,240 424.283333,239.65 425.25,239.65 C426.216667,239.65 427.041667,240 427.725,240.7 C428.408333,241.4 428.75,242.45 428.75,243.85 L428.75,243.85 L428.75,263 L431.55,263 L431.55,243.9 C431.55,243 431.45,242.15 431.25,241.35 C431.05,240.55 430.725,239.833333 430.275,239.2 C429.825,238.566667 429.25,238.066667 428.55,237.7 C427.85,237.333333 427,237.15 426,237.15 C425.6,237.15 425.183333,237.208333 424.75,237.325 C424.316667,237.441667 423.9,237.6 423.5,237.8 C423.1,238 422.741667,238.25 422.425,238.55 C422.108333,238.85 421.866667,239.183333 421.7,239.55 L421.7,239.55 L421.7,227.4 L418.9,227.4 L418.9,263 L421.7,263 Z M440.75,231.7 L440.75,228.1 L437.15,228.1 L437.15,231.7 L440.75,231.7 Z M440.35,263 L440.35,237.55 L437.55,237.55 L437.55,263 L440.35,263 Z M452.35,263.4 C454.283333,263.4 455.816667,262.816667 456.95,261.65 C457.616667,260.983333 458.091667,260.233333 458.375,259.4 C458.658333,258.566667 458.8,257.533333 458.8,256.3 L458.8,256.3 L456.05,256.3 C456.05,257.933333 455.683333,259.133333 454.95,259.9 C454.616667,260.266667 454.225,260.525 453.775,260.675 C453.325,260.825 452.85,260.9 452.35,260.9 C451.783333,260.9 451.283333,260.791667 450.85,260.575 C450.416667,260.358333 450.066667,260.083333 449.8,259.75 C449.233333,259.083333 448.875,258.058333 448.725,256.675 C448.575,255.291667 448.5,253.3 448.5,250.7 L448.5,250.7 L458.9,250.7 C458.9,247.466667 458.766667,244.941667 458.5,243.125 C458.233333,241.308333 457.683333,239.933333 456.85,239 C455.716667,237.766667 454.2,237.15 452.3,237.15 C450.4,237.15 448.883333,237.766667 447.75,239 C446.883333,239.933333 446.325,241.283333 446.075,243.05 C445.825,244.816667 445.7,247.233333 445.7,250.3 C445.7,253.333333 445.833333,255.741667 446.1,257.525 C446.366667,259.308333 446.916667,260.65 447.75,261.55 C448.916667,262.783333 450.45,263.4 452.35,263.4 Z M456.1,248.45 L448.5,248.45 C448.533333,246.25 448.625,244.566667 448.775,243.4 C448.925,242.233333 449.25,241.366667 449.75,240.8 C450.016667,240.466667 450.366667,240.191667 450.8,239.975 C451.233333,239.758333 451.733333,239.65 452.3,239.65 C452.866667,239.65 453.358333,239.758333 453.775,239.975 C454.191667,240.191667 454.533333,240.466667 454.8,240.8 C455.3,241.366667 455.633333,242.233333 455.8,243.4 C455.966667,244.566667 456.066667,246.25 456.1,248.45 L456.1,248.45 Z M467.05,263 L467.05,243.85 C467.05,242.45 467.4,241.4 468.1,240.7 C468.8,240 469.633333,239.65 470.6,239.65 C471.566667,239.65 472.391667,240 473.075,240.7 C473.758333,241.4 474.1,242.45 474.1,243.85 L474.1,243.85 L474.1,263 L476.9,263 L476.9,243.9 C476.9,243 476.8,242.15 476.6,241.35 C476.4,240.55 476.075,239.833333 475.625,239.2 C475.175,238.566667 474.6,238.066667 473.9,237.7 C473.2,237.333333 472.35,237.15 471.35,237.15 C470.45,237.15 469.616667,237.366667 468.85,237.8 C468.083333,238.233333 467.466667,238.833333 467,239.6 L467,239.6 L467,237.55 L464.25,237.55 L464.25,263 L467.05,263 Z" id="#Henngaunhien" fill-opacity="0.5" fill="#FFFFFF" fill-rule="nonzero"></path>
        <g id="ChanChan" fill-rule="nonzero">
            <use fill="black" fill-opacity="1" filter="url(#filter-4)" xlink:href="#path-3"></use>
            <use fill="#FFFFFF" xlink:href="#path-3"></use>
        </g>
        <path d="M197.13,583 L198.3,577.15 L203.31,577.15 L204.48,583 L206.37,583 L201.63,561.64 L199.98,561.64 L195.24,583 L197.13,583 Z M202.98,575.56 L198.63,575.56 L200.79,564.82 L202.98,575.56 Z M211.47,583 L215.07,567.73 L213.24,567.73 L210.63,580.18 L207.99,567.73 L206.16,567.73 L209.76,583 L211.47,583 Z M219.57,583.24 C220.13,583.24 220.655,583.1 221.145,582.82 C221.635,582.54 222,582.14 222.24,581.62 L222.24,581.62 L222.24,583 L223.86,583 L223.86,571.63 C223.86,570.35 223.56,569.34 222.96,568.6 C222.36,567.86 221.4,567.49 220.08,567.49 C219.46,567.49 218.915,567.595 218.445,567.805 C217.975,568.015 217.585,568.31 217.275,568.69 C216.965,569.07 216.73,569.51 216.57,570.01 C216.41,570.51 216.33,571.06 216.33,571.66 L216.33,571.66 L218.01,571.66 C218.01,571.32 218.045,570.99 218.115,570.67 C218.185,570.35 218.305,570.065 218.475,569.815 C218.645,569.565 218.86,569.36 219.12,569.2 C219.38,569.04 219.7,568.96 220.08,568.96 C220.78,568.96 221.305,569.185 221.655,569.635 C222.005,570.085 222.18,570.73 222.18,571.57 L222.18,571.57 L222.18,574.3 L220.44,574.3 C219.04,574.3 217.975,574.7 217.245,575.5 C216.515,576.3 216.15,577.39 216.15,578.77 C216.15,579.33 216.205,579.88 216.315,580.42 C216.425,580.96 216.615,581.44 216.885,581.86 C217.155,582.28 217.505,582.615 217.935,582.865 C218.365,583.115 218.91,583.24 219.57,583.24 Z M219.96,581.74 C219.22,581.74 218.68,581.47 218.34,580.93 C218,580.39 217.83,579.66 217.83,578.74 C217.83,577.84 218.035,577.095 218.445,576.505 C218.855,575.915 219.54,575.62 220.5,575.62 L220.5,575.62 L222.18,575.62 L222.18,578.98 C222.18,579.78 221.98,580.44 221.58,580.96 C221.18,581.48 220.64,581.74 219.96,581.74 Z M229.38,564.22 L229.38,562.06 L227.22,562.06 L227.22,564.22 L229.38,564.22 Z M229.14,583 L229.14,567.73 L227.46,567.73 L227.46,583 L229.14,583 Z M236.88,583 L236.88,581.5 C235.22,581.5 234.39,580.64 234.39,578.92 L234.39,578.92 L234.39,561.64 L232.71,561.64 L232.71,578.92 C232.71,579.68 232.81,580.305 233.01,580.795 C233.21,581.285 233.49,581.7 233.85,582.04 C234.27,582.44 234.735,582.7 235.245,582.82 C235.755,582.94 236.3,583 236.88,583 L236.88,583 Z M241.89,583.24 C242.45,583.24 242.975,583.1 243.465,582.82 C243.955,582.54 244.32,582.14 244.56,581.62 L244.56,581.62 L244.56,583 L246.18,583 L246.18,571.63 C246.18,570.35 245.88,569.34 245.28,568.6 C244.68,567.86 243.72,567.49 242.4,567.49 C241.78,567.49 241.235,567.595 240.765,567.805 C240.295,568.015 239.905,568.31 239.595,568.69 C239.285,569.07 239.05,569.51 238.89,570.01 C238.73,570.51 238.65,571.06 238.65,571.66 L238.65,571.66 L240.33,571.66 C240.33,571.32 240.365,570.99 240.435,570.67 C240.505,570.35 240.625,570.065 240.795,569.815 C240.965,569.565 241.18,569.36 241.44,569.2 C241.7,569.04 242.02,568.96 242.4,568.96 C243.1,568.96 243.625,569.185 243.975,569.635 C244.325,570.085 244.5,570.73 244.5,571.57 L244.5,571.57 L244.5,574.3 L242.76,574.3 C241.36,574.3 240.295,574.7 239.565,575.5 C238.835,576.3 238.47,577.39 238.47,578.77 C238.47,579.33 238.525,579.88 238.635,580.42 C238.745,580.96 238.935,581.44 239.205,581.86 C239.475,582.28 239.825,582.615 240.255,582.865 C240.685,583.115 241.23,583.24 241.89,583.24 Z M242.28,581.74 C241.54,581.74 241,581.47 240.66,580.93 C240.32,580.39 240.15,579.66 240.15,578.74 C240.15,577.84 240.355,577.095 240.765,576.505 C241.175,575.915 241.86,575.62 242.82,575.62 L242.82,575.62 L244.5,575.62 L244.5,578.98 C244.5,579.78 244.3,580.44 243.9,580.96 C243.5,581.48 242.96,581.74 242.28,581.74 Z M254.01,583.24 C254.99,583.24 255.79,582.88 256.41,582.16 C256.89,581.64 257.2,580.86 257.34,579.82 C257.48,578.78 257.55,577.3 257.55,575.38 C257.55,574.42 257.535,573.575 257.505,572.845 C257.475,572.115 257.42,571.48 257.34,570.94 C257.26,570.4 257.145,569.94 256.995,569.56 C256.845,569.18 256.65,568.85 256.41,568.57 C255.79,567.85 254.99,567.49 254.01,567.49 C253.33,567.49 252.76,567.66 252.3,568 C252.14,568.1 251.985,568.235 251.835,568.405 C251.685,568.575 251.56,568.74 251.46,568.9 L251.46,568.9 L251.46,561.64 L249.78,561.64 L249.78,583 L251.43,583 L251.43,581.8 C251.53,581.96 251.66,582.13 251.82,582.31 C251.98,582.49 252.14,582.63 252.3,582.73 C252.76,583.07 253.33,583.24 254.01,583.24 Z M253.62,581.74 C252.86,581.74 252.31,581.47 251.97,580.93 C251.63,580.39 251.46,579.77 251.46,579.07 L251.46,579.07 L251.46,571.66 C251.46,570.96 251.63,570.34 251.97,569.8 C252.31,569.26 252.86,568.99 253.62,568.99 C253.94,568.99 254.225,569.055 254.475,569.185 C254.725,569.315 254.93,569.48 255.09,569.68 C255.27,569.88 255.41,570.13 255.51,570.43 C255.61,570.73 255.685,571.105 255.735,571.555 C255.785,572.005 255.82,572.545 255.84,573.175 C255.86,573.805 255.87,574.54 255.87,575.38 C255.87,576.22 255.86,576.955 255.84,577.585 C255.82,578.215 255.785,578.755 255.735,579.205 C255.685,579.655 255.61,580.03 255.51,580.33 C255.41,580.63 255.27,580.88 255.09,581.08 C254.93,581.28 254.725,581.44 254.475,581.56 C254.225,581.68 253.94,581.74 253.62,581.74 Z M264.78,583 L264.78,581.5 C263.12,581.5 262.29,580.64 262.29,578.92 L262.29,578.92 L262.29,561.64 L260.61,561.64 L260.61,578.92 C260.61,579.68 260.71,580.305 260.91,580.795 C261.11,581.285 261.39,581.7 261.75,582.04 C262.17,582.44 262.635,582.7 263.145,582.82 C263.655,582.94 264.2,583 264.78,583 L264.78,583 Z M270.3,583.24 C271.46,583.24 272.38,582.89 273.06,582.19 C273.46,581.79 273.745,581.34 273.915,580.84 C274.085,580.34 274.17,579.72 274.17,578.98 L274.17,578.98 L272.52,578.98 C272.52,579.96 272.3,580.68 271.86,581.14 C271.66,581.36 271.425,581.515 271.155,581.605 C270.885,581.695 270.6,581.74 270.3,581.74 C269.96,581.74 269.66,581.675 269.4,581.545 C269.14,581.415 268.93,581.25 268.77,581.05 C268.43,580.65 268.215,580.035 268.125,579.205 C268.035,578.375 267.99,577.18 267.99,575.62 L267.99,575.62 L274.23,575.62 C274.23,573.68 274.15,572.165 273.99,571.075 C273.83,569.985 273.5,569.16 273,568.6 C272.32,567.86 271.41,567.49 270.27,567.49 C269.13,567.49 268.22,567.86 267.54,568.6 C267.02,569.16 266.685,569.97 266.535,571.03 C266.385,572.09 266.31,573.54 266.31,575.38 C266.31,577.2 266.39,578.645 266.55,579.715 C266.71,580.785 267.04,581.59 267.54,582.13 C268.24,582.87 269.16,583.24 270.3,583.24 Z M272.55,574.27 L267.99,574.27 C268.01,572.95 268.065,571.94 268.155,571.24 C268.245,570.54 268.44,570.02 268.74,569.68 C268.9,569.48 269.11,569.315 269.37,569.185 C269.63,569.055 269.93,568.99 270.27,568.99 C270.61,568.99 270.905,569.055 271.155,569.185 C271.405,569.315 271.61,569.48 271.77,569.68 C272.07,570.02 272.27,570.54 272.37,571.24 C272.47,571.94 272.53,572.95 272.55,574.27 L272.55,574.27 Z M286.71,583.24 C287.93,583.24 288.87,582.84 289.53,582.04 C289.99,581.48 290.295,580.68 290.445,579.64 C290.595,578.6 290.67,577.18 290.67,575.38 C290.67,573.58 290.595,572.16 290.445,571.12 C290.295,570.08 289.99,569.28 289.53,568.72 C288.87,567.9 287.93,567.49 286.71,567.49 C285.49,567.49 284.55,567.9 283.89,568.72 C283.43,569.28 283.125,570.08 282.975,571.12 C282.825,572.16 282.75,573.58 282.75,575.38 C282.75,577.18 282.825,578.6 282.975,579.64 C283.125,580.68 283.43,581.48 283.89,582.04 C284.55,582.84 285.49,583.24 286.71,583.24 Z M286.71,581.74 C286.37,581.74 286.07,581.675 285.81,581.545 C285.55,581.415 285.34,581.25 285.18,581.05 C284.84,580.63 284.63,579.99 284.55,579.13 C284.47,578.27 284.43,577.02 284.43,575.38 L284.43071,575.008373 C284.436391,573.549201 284.476154,572.418077 284.55,571.615 C284.63,570.745 284.84,570.1 285.18,569.68 C285.34,569.48 285.55,569.315 285.81,569.185 C286.07,569.055 286.37,568.99 286.71,568.99 C287.05,568.99 287.345,569.055 287.595,569.185 C287.845,569.315 288.05,569.48 288.21,569.68 C288.55,570.1 288.765,570.745 288.855,571.615 C288.945,572.485 288.99,573.74 288.99,575.38 C288.99,577.02 288.945,578.27 288.855,579.13 C288.765,579.99 288.55,580.63 288.21,581.05 C288.05,581.25 287.845,581.415 287.595,581.545 C287.345,581.675 287.05,581.74 286.71,581.74 Z M295.56,583 L295.56,571.51 C295.56,570.67 295.77,570.04 296.19,569.62 C296.61,569.2 297.11,568.99 297.69,568.99 C298.27,568.99 298.765,569.2 299.175,569.62 C299.585,570.04 299.79,570.67 299.79,571.51 L299.79,571.51 L299.79,583 L301.47,583 L301.47,571.54 C301.47,571 301.41,570.49 301.29,570.01 C301.17,569.53 300.975,569.1 300.705,568.72 C300.435,568.34 300.09,568.04 299.67,567.82 C299.25,567.6 298.74,567.49 298.14,567.49 C297.6,567.49 297.1,567.62 296.64,567.88 C296.18,568.14 295.81,568.5 295.53,568.96 L295.53,568.96 L295.53,567.73 L293.88,567.73 L293.88,583 L295.56,583 Z M315.78,583 L315.78,581.5 C314.88,581.5 314.2,581.3 313.74,580.9 C313.28,580.5 313.05,579.84 313.05,578.92 L313.05,578.92 L313.05,569.05 L315.66,569.05 L315.66,567.73 L313.05,567.73 L313.05,563.26 L311.37,563.26 L311.37,567.73 L309.51,567.73 L309.51,569.05 L311.37,569.05 L311.37,578.92 C311.37,580.4 311.755,581.45 312.525,582.07 C313.295,582.69 314.38,583 315.78,583 L315.78,583 Z M319.92,583 L319.92,571.51 C319.92,570.67 320.13,570.04 320.55,569.62 C320.97,569.2 321.47,568.99 322.05,568.99 C322.63,568.99 323.125,569.2 323.535,569.62 C323.945,570.04 324.15,570.67 324.15,571.51 L324.15,571.51 L324.15,583 L325.83,583 L325.83,571.54 C325.83,571 325.77,570.49 325.65,570.01 C325.53,569.53 325.335,569.1 325.065,568.72 C324.795,568.34 324.45,568.04 324.03,567.82 C323.61,567.6 323.1,567.49 322.5,567.49 C322.26,567.49 322.01,567.525 321.75,567.595 C321.49,567.665 321.24,567.76 321,567.88 C320.76,568 320.545,568.15 320.355,568.33 C320.165,568.51 320.02,568.71 319.92,568.93 L319.92,568.93 L319.92,561.64 L318.24,561.64 L318.24,583 L319.92,583 Z M332.91,583.24 C334.07,583.24 334.99,582.89 335.67,582.19 C336.07,581.79 336.355,581.34 336.525,580.84 C336.695,580.34 336.78,579.72 336.78,578.98 L336.78,578.98 L335.13,578.98 C335.13,579.96 334.91,580.68 334.47,581.14 C334.27,581.36 334.035,581.515 333.765,581.605 C333.495,581.695 333.21,581.74 332.91,581.74 C332.57,581.74 332.27,581.675 332.01,581.545 C331.75,581.415 331.54,581.25 331.38,581.05 C331.04,580.65 330.825,580.035 330.735,579.205 C330.645,578.375 330.6,577.18 330.6,575.62 L330.6,575.62 L336.84,575.62 C336.84,573.68 336.76,572.165 336.6,571.075 C336.44,569.985 336.11,569.16 335.61,568.6 C334.93,567.86 334.02,567.49 332.88,567.49 C331.74,567.49 330.83,567.86 330.15,568.6 C329.63,569.16 329.295,569.97 329.145,571.03 C328.995,572.09 328.92,573.54 328.92,575.38 C328.92,577.2 329,578.645 329.16,579.715 C329.32,580.785 329.65,581.59 330.15,582.13 C330.85,582.87 331.77,583.24 332.91,583.24 Z M335.16,574.27 L330.6,574.27 C330.62,572.95 330.675,571.94 330.765,571.24 C330.855,570.54 331.05,570.02 331.35,569.68 C331.51,569.48 331.72,569.315 331.98,569.185 C332.24,569.055 332.54,568.99 332.88,568.99 C333.22,568.99 333.515,569.055 333.765,569.185 C334.015,569.315 334.22,569.48 334.38,569.68 C334.68,570.02 334.88,570.54 334.98,571.24 C335.08,571.94 335.14,572.95 335.16,574.27 L335.16,574.27 Z M347.85,583 L347.85,561.64 L346.08,561.64 L346.08,583 L347.85,583 Z M353.46,589.09 L353.46,581.86 C354.04,582.78 354.9,583.24 356.04,583.24 C356.56,583.24 357.005,583.15 357.375,582.97 C357.745,582.79 358.09,582.52 358.41,582.16 C358.87,581.62 359.175,580.83 359.325,579.79 C359.475,578.75 359.55,577.28 359.55,575.38 C359.55,573.48 359.475,572.005 359.325,570.955 C359.175,569.905 358.87,569.11 358.41,568.57 C357.79,567.85 357,567.49 356.04,567.49 C355.68,567.49 355.36,567.54 355.08,567.64 C354.8,567.74 354.54,567.87 354.3,568.03 C354.16,568.13 354,568.27 353.82,568.45 C353.64,568.63 353.51,568.8 353.43,568.96 L353.43,568.96 L353.43,567.73 L351.78,567.73 L351.78,589.09 L353.46,589.09 Z M355.62,581.74 C354.86,581.74 354.31,581.47 353.97,580.93 C353.63,580.39 353.46,579.77 353.46,579.07 L353.46,579.07 L353.46,571.66 C353.46,570.96 353.63,570.34 353.97,569.8 C354.31,569.26 354.86,568.99 355.62,568.99 C355.94,568.99 356.225,569.055 356.475,569.185 C356.725,569.315 356.93,569.48 357.09,569.68 C357.43,570.06 357.645,570.675 357.735,571.525 C357.825,572.375 357.87,573.66 357.87,575.38 L357.869694,575.741531 C357.868469,576.45051 357.863571,577.075 357.855,577.615 C357.845,578.245 357.81,578.785 357.75,579.235 C357.69,579.685 357.61,580.055 357.51,580.345 C357.41,580.635 357.27,580.88 357.09,581.08 C356.93,581.28 356.725,581.44 356.475,581.56 C356.225,581.68 355.94,581.74 355.62,581.74 Z M364.44,583 L364.44,571.51 C364.44,570.67 364.65,570.04 365.07,569.62 C365.49,569.2 365.99,568.99 366.57,568.99 C367.15,568.99 367.645,569.2 368.055,569.62 C368.465,570.04 368.67,570.67 368.67,571.51 L368.67,571.51 L368.67,583 L370.35,583 L370.35,571.54 C370.35,571 370.29,570.49 370.17,570.01 C370.05,569.53 369.855,569.1 369.585,568.72 C369.315,568.34 368.97,568.04 368.55,567.82 C368.13,567.6 367.62,567.49 367.02,567.49 C366.78,567.49 366.53,567.525 366.27,567.595 C366.01,567.665 365.76,567.76 365.52,567.88 C365.28,568 365.065,568.15 364.875,568.33 C364.685,568.51 364.54,568.71 364.44,568.93 L364.44,568.93 L364.44,561.64 L362.76,561.64 L362.76,583 L364.44,583 Z M377.4,583.24 C378.62,583.24 379.56,582.84 380.22,582.04 C380.68,581.48 380.985,580.68 381.135,579.64 C381.285,578.6 381.36,577.18 381.36,575.38 C381.36,573.58 381.285,572.16 381.135,571.12 C380.985,570.08 380.68,569.28 380.22,568.72 C379.56,567.9 378.62,567.49 377.4,567.49 C376.18,567.49 375.24,567.9 374.58,568.72 C374.12,569.28 373.815,570.08 373.665,571.12 C373.515,572.16 373.44,573.58 373.44,575.38 C373.44,577.18 373.515,578.6 373.665,579.64 C373.815,580.68 374.12,581.48 374.58,582.04 C375.24,582.84 376.18,583.24 377.4,583.24 Z M377.4,581.74 C377.06,581.74 376.76,581.675 376.5,581.545 C376.24,581.415 376.03,581.25 375.87,581.05 C375.53,580.63 375.32,579.99 375.24,579.13 C375.16,578.27 375.12,577.02 375.12,575.38 C375.12,573.74 375.16,572.485 375.24,571.615 C375.32,570.745 375.53,570.1 375.87,569.68 C376.03,569.48 376.24,569.315 376.5,569.185 C376.76,569.055 377.06,568.99 377.4,568.99 C377.74,568.99 378.035,569.055 378.285,569.185 C378.535,569.315 378.74,569.48 378.9,569.68 C379.24,570.1 379.455,570.745 379.545,571.615 C379.635,572.485 379.68,573.74 379.68,575.38 L379.679201,575.751538 C379.672811,577.21 379.628077,578.336154 379.545,579.13 C379.455,579.99 379.24,580.63 378.9,581.05 C378.74,581.25 378.535,581.415 378.285,581.545 C378.035,581.675 377.74,581.74 377.4,581.74 Z M386.25,583 L386.25,571.51 C386.25,570.67 386.46,570.04 386.88,569.62 C387.3,569.2 387.8,568.99 388.38,568.99 C388.96,568.99 389.455,569.2 389.865,569.62 C390.275,570.04 390.48,570.67 390.48,571.51 L390.48,571.51 L390.48,583 L392.16,583 L392.16,571.54 C392.16,571 392.1,570.49 391.98,570.01 C391.86,569.53 391.665,569.1 391.395,568.72 C391.125,568.34 390.78,568.04 390.36,567.82 C389.94,567.6 389.43,567.49 388.83,567.49 C388.29,567.49 387.79,567.62 387.33,567.88 C386.87,568.14 386.5,568.5 386.22,568.96 L386.22,568.96 L386.22,567.73 L384.57,567.73 L384.57,583 L386.25,583 Z M399.24,583.24 C400.4,583.24 401.32,582.89 402,582.19 C402.4,581.79 402.685,581.34 402.855,580.84 C403.025,580.34 403.11,579.72 403.11,578.98 L403.11,578.98 L401.46,578.98 C401.46,579.96 401.24,580.68 400.8,581.14 C400.6,581.36 400.365,581.515 400.095,581.605 C399.825,581.695 399.54,581.74 399.24,581.74 C398.9,581.74 398.6,581.675 398.34,581.545 C398.08,581.415 397.87,581.25 397.71,581.05 C397.37,580.65 397.155,580.035 397.065,579.205 C396.975,578.375 396.93,577.18 396.93,575.62 L396.93,575.62 L403.17,575.62 C403.17,573.68 403.09,572.165 402.93,571.075 C402.77,569.985 402.44,569.16 401.94,568.6 C401.26,567.86 400.35,567.49 399.21,567.49 C398.07,567.49 397.16,567.86 396.48,568.6 C395.96,569.16 395.625,569.97 395.475,571.03 C395.325,572.09 395.25,573.54 395.25,575.38 C395.25,577.2 395.33,578.645 395.49,579.715 C395.65,580.785 395.98,581.59 396.48,582.13 C397.18,582.87 398.1,583.24 399.24,583.24 Z M401.49,574.27 L396.93,574.27 C396.95,572.95 397.005,571.94 397.095,571.24 C397.185,570.54 397.38,570.02 397.68,569.68 C397.84,569.48 398.05,569.315 398.31,569.185 C398.57,569.055 398.87,568.99 399.21,568.99 C399.55,568.99 399.845,569.055 400.095,569.185 C400.345,569.315 400.55,569.48 400.71,569.68 C401.01,570.02 401.21,570.54 401.31,571.24 C401.41,571.94 401.47,572.95 401.49,574.27 L401.49,574.27 Z M414.87,583.24 C415.43,583.24 415.955,583.1 416.445,582.82 C416.935,582.54 417.3,582.14 417.54,581.62 L417.54,581.62 L417.54,583 L419.16,583 L419.16,571.63 C419.16,570.35 418.86,569.34 418.26,568.6 C417.66,567.86 416.7,567.49 415.38,567.49 C414.76,567.49 414.215,567.595 413.745,567.805 C413.275,568.015 412.885,568.31 412.575,568.69 C412.265,569.07 412.03,569.51 411.87,570.01 C411.71,570.51 411.63,571.06 411.63,571.66 L411.63,571.66 L413.31,571.66 C413.31,571.32 413.345,570.99 413.415,570.67 C413.485,570.35 413.605,570.065 413.775,569.815 C413.945,569.565 414.16,569.36 414.42,569.2 C414.68,569.04 415,568.96 415.38,568.96 C416.08,568.96 416.605,569.185 416.955,569.635 C417.305,570.085 417.48,570.73 417.48,571.57 L417.48,571.57 L417.48,574.3 L415.74,574.3 C414.34,574.3 413.275,574.7 412.545,575.5 C411.815,576.3 411.45,577.39 411.45,578.77 C411.45,579.33 411.505,579.88 411.615,580.42 C411.725,580.96 411.915,581.44 412.185,581.86 C412.455,582.28 412.805,582.615 413.235,582.865 C413.665,583.115 414.21,583.24 414.87,583.24 Z M415.26,581.74 C414.52,581.74 413.98,581.47 413.64,580.93 C413.3,580.39 413.13,579.66 413.13,578.74 C413.13,577.84 413.335,577.095 413.745,576.505 C414.155,575.915 414.84,575.62 415.8,575.62 L415.8,575.62 L417.48,575.62 L417.48,578.98 C417.48,579.78 417.28,580.44 416.88,580.96 C416.48,581.48 415.94,581.74 415.26,581.74 Z M424.44,583 L424.44,571.51 C424.44,570.67 424.65,570.04 425.07,569.62 C425.49,569.2 425.99,568.99 426.57,568.99 C427.15,568.99 427.645,569.2 428.055,569.62 C428.465,570.04 428.67,570.67 428.67,571.51 L428.67,571.51 L428.67,583 L430.35,583 L430.35,571.54 C430.35,571 430.29,570.49 430.17,570.01 C430.05,569.53 429.855,569.1 429.585,568.72 C429.315,568.34 428.97,568.04 428.55,567.82 C428.13,567.6 427.62,567.49 427.02,567.49 C426.48,567.49 425.98,567.62 425.52,567.88 C425.06,568.14 424.69,568.5 424.41,568.96 L424.41,568.96 L424.41,567.73 L422.76,567.73 L422.76,583 L424.44,583 Z M436.95,583.24 C437.31,583.24 437.63,583.19 437.91,583.09 C438.19,582.99 438.45,582.86 438.69,582.7 C438.83,582.6 438.99,582.46 439.17,582.28 C439.35,582.1 439.48,581.93 439.56,581.77 L439.56,581.77 L439.56,583 L441.21,583 L441.21,561.64 L439.53,561.64 L439.53,568.87 C438.95,567.95 438.09,567.49 436.95,567.49 C436.43,567.49 435.985,567.58 435.615,567.76 C435.245,567.94 434.9,568.21 434.58,568.57 C434.12,569.11 433.815,569.9 433.665,570.94 C433.515,571.98 433.44,573.45 433.44,575.35 C433.44,577.25 433.515,578.725 433.665,579.775 C433.815,580.825 434.12,581.62 434.58,582.16 C435.22,582.88 436.01,583.24 436.95,583.24 Z M437.37,581.74 C437.05,581.74 436.765,581.675 436.515,581.545 C436.265,581.415 436.06,581.25 435.9,581.05 C435.72,580.87 435.58,580.63 435.48,580.33 C435.38,580.03 435.305,579.655 435.255,579.205 C435.205,578.755 435.17,578.215 435.15,577.585 C435.13,576.955 435.12,576.21 435.12,575.35 C435.12,574.49 435.125,573.75 435.135,573.13 C435.145,572.51 435.18,571.975 435.24,571.525 C435.3,571.075 435.38,570.7 435.48,570.4 C435.58,570.1 435.72,569.85 435.9,569.65 C436.06,569.45 436.265,569.29 436.515,569.17 C436.765,569.05 437.05,568.99 437.37,568.99 C438.13,568.99 438.68,569.26 439.02,569.8 C439.36,570.34 439.53,570.96 439.53,571.66 L439.53,571.66 L439.53,579.07 C439.53,579.77 439.36,580.39 439.02,580.93 C438.68,581.47 438.13,581.74 437.37,581.74 Z M450.9,583 L452.07,577.15 L457.08,577.15 L458.25,583 L460.14,583 L455.4,561.64 L453.75,561.64 L449.01,583 L450.9,583 Z M456.75,575.56 L452.4,575.56 L454.56,564.82 L456.75,575.56 Z M463.8,583 L463.8,571.51 C463.8,570.67 464.01,570.04 464.43,569.62 C464.85,569.2 465.35,568.99 465.93,568.99 C466.51,568.99 467.005,569.2 467.415,569.62 C467.825,570.04 468.03,570.67 468.03,571.51 L468.03,571.51 L468.03,583 L469.71,583 L469.71,571.54 C469.71,571 469.65,570.49 469.53,570.01 C469.41,569.53 469.215,569.1 468.945,568.72 C468.675,568.34 468.33,568.04 467.91,567.82 C467.49,567.6 466.98,567.49 466.38,567.49 C465.84,567.49 465.34,567.62 464.88,567.88 C464.42,568.14 464.05,568.5 463.77,568.96 L463.77,568.96 L463.77,567.73 L462.12,567.73 L462.12,583 L463.8,583 Z M476.31,583.24 C476.67,583.24 476.99,583.19 477.27,583.09 C477.55,582.99 477.81,582.86 478.05,582.7 C478.19,582.6 478.35,582.46 478.53,582.28 C478.71,582.1 478.84,581.93 478.92,581.77 L478.92,581.77 L478.92,583 L480.57,583 L480.57,561.64 L478.89,561.64 L478.89,568.87 C478.31,567.95 477.45,567.49 476.31,567.49 C475.79,567.49 475.345,567.58 474.975,567.76 C474.605,567.94 474.26,568.21 473.94,568.57 C473.48,569.11 473.175,569.9 473.025,570.94 C472.875,571.98 472.8,573.45 472.8,575.35 C472.8,577.25 472.875,578.725 473.025,579.775 C473.175,580.825 473.48,581.62 473.94,582.16 C474.58,582.88 475.37,583.24 476.31,583.24 Z M476.73,581.74 C476.41,581.74 476.125,581.675 475.875,581.545 C475.625,581.415 475.42,581.25 475.26,581.05 C475.08,580.87 474.94,580.63 474.84,580.33 C474.74,580.03 474.665,579.655 474.615,579.205 C474.565,578.755 474.53,578.215 474.51,577.585 C474.49,576.955 474.48,576.21 474.48,575.35 C474.48,574.49 474.485,573.75 474.495,573.13 C474.505,572.51 474.54,571.975 474.6,571.525 C474.66,571.075 474.74,570.7 474.84,570.4 C474.94,570.1 475.08,569.85 475.26,569.65 C475.42,569.45 475.625,569.29 475.875,569.17 C476.125,569.05 476.41,568.99 476.73,568.99 C477.49,568.99 478.04,569.26 478.38,569.8 C478.72,570.34 478.89,570.96 478.89,571.66 L478.89,571.66 L478.89,579.07 C478.89,579.77 478.72,580.39 478.38,580.93 C478.04,581.47 477.49,581.74 476.73,581.74 Z M485.97,583 L485.97,572.05 C485.97,571.13 486.24,570.405 486.78,569.875 C487.32,569.345 488.04,569.08 488.94,569.08 L488.94,569.08 L489.3,569.08 L489.3,567.49 C488.22,567.49 487.35,567.79 486.69,568.39 C486.57,568.49 486.435,568.635 486.285,568.825 C486.135,569.015 486.02,569.19 485.94,569.35 L485.94,569.35 L485.94,567.73 L484.29,567.73 L484.29,583 L485.97,583 Z M494.19,583.24 C495.41,583.24 496.35,582.84 497.01,582.04 C497.47,581.48 497.775,580.68 497.925,579.64 C498.075,578.6 498.15,577.18 498.15,575.38 C498.15,573.58 498.075,572.16 497.925,571.12 C497.775,570.08 497.47,569.28 497.01,568.72 C496.35,567.9 495.41,567.49 494.19,567.49 C492.97,567.49 492.03,567.9 491.37,568.72 C490.91,569.28 490.605,570.08 490.455,571.12 C490.305,572.16 490.23,573.58 490.23,575.38 C490.23,577.18 490.305,578.6 490.455,579.64 C490.605,580.68 490.91,581.48 491.37,582.04 C492.03,582.84 492.97,583.24 494.19,583.24 Z M494.19,581.74 C493.85,581.74 493.55,581.675 493.29,581.545 C493.03,581.415 492.82,581.25 492.66,581.05 C492.32,580.63 492.11,579.99 492.03,579.13 C491.95,578.27 491.91,577.02 491.91,575.38 C491.91,573.74 491.95,572.485 492.03,571.615 C492.11,570.745 492.32,570.1 492.66,569.68 C492.82,569.48 493.03,569.315 493.29,569.185 C493.55,569.055 493.85,568.99 494.19,568.99 C494.53,568.99 494.825,569.055 495.075,569.185 C495.325,569.315 495.53,569.48 495.69,569.68 C496.03,570.1 496.245,570.745 496.335,571.615 C496.425,572.485 496.47,573.74 496.47,575.38 L496.469201,575.751538 C496.462811,577.21 496.418077,578.336154 496.335,579.13 C496.245,579.99 496.03,580.63 495.69,581.05 C495.53,581.25 495.325,581.415 495.075,581.545 C494.825,581.675 494.53,581.74 494.19,581.74 Z M503.28,564.22 L503.28,562.06 L501.12,562.06 L501.12,564.22 L503.28,564.22 Z M503.04,583 L503.04,567.73 L501.36,567.73 L501.36,583 L503.04,583 Z M509.76,583.24 C510.12,583.24 510.44,583.19 510.72,583.09 C511,582.99 511.26,582.86 511.5,582.7 C511.64,582.6 511.8,582.46 511.98,582.28 C512.16,582.1 512.29,581.93 512.37,581.77 L512.37,581.77 L512.37,583 L514.02,583 L514.02,561.64 L512.34,561.64 L512.34,568.87 C511.76,567.95 510.9,567.49 509.76,567.49 C509.24,567.49 508.795,567.58 508.425,567.76 C508.055,567.94 507.71,568.21 507.39,568.57 C506.93,569.11 506.625,569.9 506.475,570.94 C506.325,571.98 506.25,573.45 506.25,575.35 C506.25,577.25 506.325,578.725 506.475,579.775 C506.625,580.825 506.93,581.62 507.39,582.16 C508.03,582.88 508.82,583.24 509.76,583.24 Z M510.18,581.74 C509.86,581.74 509.575,581.675 509.325,581.545 C509.075,581.415 508.87,581.25 508.71,581.05 C508.53,580.87 508.39,580.63 508.29,580.33 C508.19,580.03 508.115,579.655 508.065,579.205 C508.015,578.755 507.98,578.215 507.96,577.585 C507.94,576.955 507.93,576.21 507.93,575.35 C507.93,574.49 507.935,573.75 507.945,573.13 C507.955,572.51 507.99,571.975 508.05,571.525 C508.11,571.075 508.19,570.7 508.29,570.4 C508.39,570.1 508.53,569.85 508.71,569.65 C508.87,569.45 509.075,569.29 509.325,569.17 C509.575,569.05 509.86,568.99 510.18,568.99 C510.94,568.99 511.49,569.26 511.83,569.8 C512.17,570.34 512.34,570.96 512.34,571.66 L512.34,571.66 L512.34,579.07 C512.34,579.77 512.17,580.39 511.83,580.93 C511.49,581.47 510.94,581.74 510.18,581.74 Z" id="AvailableontheIphoneandAndroid" fill-opacity="0.5" fill="#000000" fill-rule="nonzero"></path>
    </g>
</svg>