<?xml version="1.0" encoding="UTF-8"?>
<svg width="320px" height="211px" viewBox="0 0 320 211" version="1.1" xmlns="http://www.w3.org/2000/svg" xmlns:xlink="http://www.w3.org/1999/xlink">
    <!-- Generator: Sketch 54.1 (76490) - https://sketchapp.com -->
    <title>vetrangdangky</title>
    <desc>Created with Sketch.</desc>
    <defs>
        <linearGradient x1="-69.8246243%" y1="219.251809%" x2="229.335428%" y2="-228.278237%" id="linearGradient-1">
            <stop stop-color="#BE1D78" offset="0%"></stop>
            <stop stop-color="#AA00FF" offset="100%"></stop>
        </linearGradient>
        <path d="M40,178 C34.4771525,178 30,173.522847 30,168 C30,162.477153 34.4771525,158 40,158 C45.5228475,158 50,162.477153 50,168 C50,173.522847 45.5228475,178 40,178 Z M42.75,168.000015 C42.75,167.835791 42.6901123,167.671526 42.5702981,167.546212 L38.7987138,163.604805 C38.5587943,163.353954 38.1698058,163.353954 37.9299833,163.604805 C37.6901609,163.855412 37.6901609,164.261804 37.9299833,164.512533 L41.2671733,168.000015 L37.9298669,171.487477 C37.6900444,171.738227 37.6900444,172.144659 37.9298669,172.395287 C38.1696894,172.646016 38.5586778,172.646016 38.7985973,172.395287 L42.5701817,168.453818 C42.6899764,168.328566 42.75,168.164301 42.75,168.000015 Z" id="path-2"></path>
        <filter x="-10.0%" y="-10.0%" width="120.0%" height="120.0%" filterUnits="objectBoundingBox" id="filter-3">
            <feGaussianBlur stdDeviation="1.5" in="SourceAlpha" result="shadowBlurInner1"></feGaussianBlur>
            <feOffset dx="1" dy="1" in="shadowBlurInner1" result="shadowOffsetInner1"></feOffset>
            <feComposite in="shadowOffsetInner1" in2="SourceAlpha" operator="arithmetic" k2="-1" k3="1" result="shadowInnerInner1"></feComposite>
            <feColorMatrix values="0 0 0 0 0   0 0 0 0 0   0 0 0 0 0  0 0 0 0.25 0" type="matrix" in="shadowInnerInner1"></feColorMatrix>
        </filter>
    </defs>
    <g id="vetrangdangky" stroke="none" stroke-width="1" fill="none" fill-rule="evenodd">
        <text id="Trong-trường-hợp-bạn" font-family="SFCompactDisplay-Regular, SF Compact Display" font-size="16" font-weight="normal" line-spacing="21" fill="#343D51">
            <tspan x="30" y="51">Trong trường hợp bạn cần hỗ trợ bạn </tspan>
            <tspan x="30" y="72">hãy liên hệ với chúng tôi qua các </tspan>
            <tspan x="30" y="93">kênh dưới đây.</tspan>
        </text>
        <text id="Về-trang-Đăng-ký" font-family="SFCompactDisplay-Semibold, SF Compact Display" font-size="20" font-weight="500" letter-spacing="-1" fill="#343D51">
            <tspan x="64" y="174">Về trang Đăng ký</tspan>
        </text>
        <g id="Oval-2" transform="translate(40.000000, 168.000000) scale(-1, 1) translate(-40.000000, -168.000000) ">
            <use fill="url(#linearGradient-1)" fill-rule="evenodd" xlink:href="#path-2"></use>
            <use fill="black" fill-opacity="1" filter="url(#filter-3)" xlink:href="#path-2"></use>
        </g>
        <text id="……………………………………………………" font-family="Georgia-Italic, Georgia" font-size="14" font-style="italic" font-weight="normal" fill="#DADFE7">
            <tspan x="30" y="128">……………………………………………………………</tspan>
        </text>
    </g>
</svg>