<?xml version="1.0" encoding="UTF-8"?>
<svg width="366px" height="624px" viewBox="0 0 366 624" version="1.1" xmlns="http://www.w3.org/2000/svg" xmlns:xlink="http://www.w3.org/1999/xlink">
    <!-- Generator: Sketch 54.1 (76490) - https://sketchapp.com -->
    <title>speed</title>
    <desc>Created with Sketch.</desc>
    <g id="speed" stroke="none" stroke-width="1" fill="none" fill-rule="evenodd">
        <text id="Tăng-tốc" font-family="GMVDINPro-Bold, GMV DIN Pro" font-size="20" font-style="expanded" font-weight="bold" letter-spacing="-1" fill="#343D51">
            <tspan x="53" y="361">Tăng tố</tspan>
            <tspan x="112.22" y="361">c</tspan>
        </text>
        <g id="move" transform="translate(53.000000, 381.000000)" fill="#4D5B72" font-size="16" font-weight="normal" letter-spacing="-0.319999993" line-spacing="21">
            <text id="Để-có-cơ-hội-gặp-cô" font-family="GMVDINPro, GMV DIN Pro">
                <tspan x="0" y="12">Để có cơ hội gặp cô ấy nhiều hơn bạn </tspan>
                <tspan x="0" y="33">cần chấp nhận bỏ đi đáng kể cơ hội </tspan>
                <tspan x="0" y="54">gặp gỡ những triển vọng còn lại.</tspan>
            </text>
            <text id="Đừng-ngại-ngùng!-Cô" font-family="GMVDINPro-Italic, GMV DIN Pro" font-style="italic">
                <tspan x="0" y="83">Đừng ngại ngùng! Cô ấy không biết điều </tspan>
                <tspan x="0" y="104">này. Luôn là gặp ngẫu nhiên.</tspan>
            </text>
        </g>
        <text id="Tôi-đồng-ý" font-family="GMVDINPro-Italic, GMV DIN Pro" font-size="16" font-style="italic" font-weight="normal" letter-spacing="-0.319999993" fill="#4D5B72">
            <tspan x="77" y="515">Tôi đồng ý</tspan>
        </text>
        <path d="M65.0855143,506.189825 L59.4769231,512.007692 C59.3923077,512.092308 59.2653846,512.092308 59.1807692,512.007692 L56.8538462,509.511538 L56.8115385,509.469231 C56.6423077,509.3 56.3884615,509.3 56.2192308,509.469231 L55.6269231,510.061538 C55.5423077,510.146154 55.5,510.273077 55.5,510.357692 C55.5,510.442308 55.5423077,510.569231 55.6269231,510.653846 L55.7115385,510.780769 L59.0115385,514.334615 C59.0961538,514.419231 59.1807692,514.461538 59.3076923,514.461538 C59.4346154,514.461538 59.5192308,514.419231 59.6038462,514.334615 L66.1110204,507.583422 C66.6772073,508.593957 67,509.759282 67,511 C67,514.865993 63.8659932,518 60,518 C56.1340068,518 53,514.865993 53,511 C53,507.134007 56.1340068,504 60,504 C62.0030296,504 63.8095623,504.841303 65.0855143,506.189825 Z" id="checked" fill="#304FFE"></path>
    </g>
</svg>