<?xml version="1.0" encoding="UTF-8"?>
<svg width="320px" height="100px" viewBox="0 0 320 100" version="1.1" xmlns="http://www.w3.org/2000/svg" xmlns:xlink="http://www.w3.org/1999/xlink">
    <!-- Generator: Sketch 54.1 (76490) - https://sketchapp.com -->
    <title>bg_info_btn</title>
    <desc>Created with Sketch.</desc>
    <defs>
        <linearGradient x1="50%" y1="0%" x2="50%" y2="100%" id="linearGradient-1">
            <stop stop-color="#FFFFFF" stop-opacity="0.5" offset="0%"></stop>
            <stop stop-color="#FFFFFF" offset="100%"></stop>
        </linearGradient>
        <linearGradient x1="92.8335337%" y1="57.0650077%" x2="26.0731807%" y2="44.4444444%" id="linearGradient-2">
            <stop stop-color="#1BC4C0" offset="0%"></stop>
            <stop stop-color="#02AEC0" offset="100%"></stop>
        </linearGradient>
        <rect id="path-3" x="140" y="30" width="132" height="44" rx="22"></rect>
        <filter x="-18.2%" y="-54.5%" width="136.4%" height="209.1%" filterUnits="objectBoundingBox" id="filter-4">
            <feGaussianBlur stdDeviation="8" in="SourceGraphic"></feGaussianBlur>
        </filter>
        <linearGradient x1="92.8335337%" y1="57.4744898%" x2="26.0731807%" y2="44.122449%" id="linearGradient-5">
            <stop stop-color="#1BC4C0" offset="0%"></stop>
            <stop stop-color="#02AEC0" offset="100%"></stop>
        </linearGradient>
        <rect id="path-6" x="140" y="20" width="140" height="48" rx="24"></rect>
        <path d="M184.251953,49 L181.615234,49 L181.615234,37.8769531 L177.826172,37.8769531 L177.826172,35.6699219 L188.041016,35.6699219 L188.041016,37.8769531 L184.251953,37.8769531 L184.251953,49 Z M188.369141,49 L188.369141,38.6386719 L190.9375,38.6386719 L190.9375,49 L188.369141,49 Z M188.193359,36.0703125 C188.193359,35.2695312 188.857422,34.7128906 189.648438,34.7128906 C190.449219,34.7128906 191.103516,35.2695312 191.103516,36.0703125 C191.103516,36.8710938 190.449219,37.4179688 189.648438,37.4179688 C188.857422,37.4179688 188.193359,36.8710938 188.193359,36.0703125 Z M196.871094,49.1855469 C194.029297,49.1855469 192.173828,47.4082031 192.173828,44.234375 L192.173828,43.2871094 C192.173828,40.25 194.039062,38.453125 196.763672,38.453125 C199.585938,38.453125 201.333984,40.3769531 201.333984,43.3554688 L201.333984,44.3710938 L194.693359,44.3710938 L194.693359,44.6542969 C194.693359,46.2265625 195.582031,47.2226562 196.890625,47.2226562 C197.916016,47.2226562 198.638672,46.7148438 198.853516,45.875 L201.236328,45.875 C200.992188,47.5351562 199.644531,49.1855469 196.871094,49.1855469 Z M194.693359,42.7402344 L198.84375,42.7402344 L198.84375,42.7207031 C198.84375,41.3828125 198.033203,40.3671875 196.783203,40.3671875 C195.523438,40.3671875 194.693359,41.3925781 194.693359,42.7207031 L194.693359,42.7402344 Z M200.767578,35.2109375 L198.960938,35.2109375 L200.943359,32.3789062 L203.208984,32.3789062 L200.767578,35.2109375 Z M193.658203,37.3984375 L195.894531,34.3710938 L197.623047,34.3710938 L199.849609,37.3984375 L197.896484,37.3984375 L196.783203,35.6992188 L196.734375,35.6992188 L195.611328,37.3984375 L193.658203,37.3984375 Z M208.048828,49.1367188 C206.671875,49.1367188 205.646484,48.4824219 205.138672,47.5058594 L205.03125,47.5058594 L205.03125,52.4375 L202.453125,52.4375 L202.453125,38.6386719 L204.982422,38.6386719 L204.982422,40.1816406 L205.089844,40.1816406 C205.617188,39.1757812 206.671875,38.5019531 208.087891,38.5019531 C210.392578,38.5019531 211.994141,40.2304688 211.994141,43.3652344 L211.994141,44.2539062 C211.994141,47.3691406 210.402344,49.1367188 208.048828,49.1367188 Z M207.257812,47.0859375 C208.507812,47.0859375 209.367188,46.0703125 209.367188,44.1367188 L209.367188,43.453125 C209.367188,41.5878906 208.556641,40.5527344 207.228516,40.5527344 C205.880859,40.5527344 205.011719,41.6464844 205.011719,43.4433594 L205.011719,44.1367188 C205.011719,45.9726562 205.890625,47.0859375 207.257812,47.0859375 Z M216.898438,38.6386719 L216.898438,36.1582031 L219.398438,36.1582031 L219.398438,38.6386719 L221.410156,38.6386719 L221.410156,40.6308594 L219.398438,40.6308594 L219.398438,45.7382812 C219.398438,46.7734375 219.837891,47.0859375 220.902344,47.0859375 C221.117188,47.0859375 221.332031,47.0761719 221.449219,47.0664062 L221.449219,48.9707031 C221.253906,49.0097656 220.794922,49.0585938 220.277344,49.0585938 C217.699219,49.0585938 216.849609,48.1894531 216.849609,46.0703125 L216.849609,40.6308594 L215.384766,40.6308594 L215.384766,38.6386719 L216.898438,38.6386719 Z M231.5625,38.6386719 L231.5625,49 L229.052734,49 L229.052734,47.4863281 L228.935547,47.4863281 C228.613281,48.296875 227.65625,49.15625 225.947266,49.15625 C223.828125,49.15625 222.402344,47.9257812 222.402344,45.484375 L222.402344,38.6386719 L224.970703,38.6386719 L224.970703,44.8007812 C224.970703,46.5097656 225.9375,46.9785156 226.953125,46.9785156 C228.105469,46.9785156 228.984375,46.2265625 228.984375,44.7714844 L228.984375,38.6386719 L231.5625,38.6386719 Z M225.908203,51.5488281 C225.908203,50.8945312 226.40625,50.3964844 227.021484,50.3964844 C227.65625,50.3964844 228.144531,50.8945312 228.144531,51.5488281 C228.144531,52.1738281 227.65625,52.6816406 227.021484,52.6816406 C226.40625,52.6816406 225.908203,52.1738281 225.908203,51.5488281 Z M232.691406,44.1953125 L232.691406,43.3359375 C232.691406,40.4648438 234.410156,38.453125 237.300781,38.453125 C239.917969,38.453125 241.509766,40.1132812 241.568359,42.1054688 L239.195312,42.1054688 C239.058594,41.2460938 238.375,40.5039062 237.417969,40.5039062 C236.080078,40.5039062 235.269531,41.5976562 235.269531,43.3652344 L235.269531,44.1855469 C235.269531,46.0117188 236.099609,47.125 237.427734,47.125 C238.570312,47.125 239.126953,46.4316406 239.244141,45.640625 L241.617188,45.640625 C241.402344,47.9550781 239.742188,49.1855469 237.291016,49.1855469 C234.429688,49.1855469 232.691406,47.2128906 232.691406,44.1953125 Z" id="path-7"></path>
        <filter x="-11.8%" y="-27.1%" width="120.4%" height="164.0%" filterUnits="objectBoundingBox" id="filter-8">
            <feOffset dx="-1" dy="1" in="SourceAlpha" result="shadowOffsetOuter1"></feOffset>
            <feGaussianBlur stdDeviation="2" in="shadowOffsetOuter1" result="shadowBlurOuter1"></feGaussianBlur>
            <feColorMatrix values="0 0 0 0 0   0 0 0 0 0   0 0 0 0 0  0 0 0 0.25 0" type="matrix" in="shadowBlurOuter1"></feColorMatrix>
        </filter>
    </defs>
    <g id="bg_info_btn" stroke="none" stroke-width="1" fill="none" fill-rule="evenodd">
        <rect id="Rectangle" fill="url(#linearGradient-1)" x="0" y="0" width="320" height="100"></rect>
        <polygon id="Line-2" fill="#8C96A8" fill-rule="nonzero" points="49 44 71 44 71 45 49 45 49 49 40 44.5 49 40"></polygon>
        <g id="Rectangle" opacity="0.5" filter="url(#filter-4)">
            <use fill="url(#linearGradient-2)" xlink:href="#path-3"></use>
            <use fill-opacity="0.1" fill="#00B0FF" xlink:href="#path-3"></use>
        </g>
        <g id="Rectangle">
            <use fill="url(#linearGradient-5)" xlink:href="#path-6"></use>
            <use fill-opacity="0.1" fill="#00B0FF" xlink:href="#path-6"></use>
        </g>
        <g id="Tiếptục" fill-rule="nonzero">
            <use fill="black" fill-opacity="1" filter="url(#filter-8)" xlink:href="#path-7"></use>
            <use fill="#FFFFFF" xlink:href="#path-7"></use>
        </g>
    </g>
</svg>