<?xml version="1.0" encoding="UTF-8"?>
<svg width="320px" height="110px" viewBox="0 0 320 110" version="1.1" xmlns="http://www.w3.org/2000/svg" xmlns:xlink="http://www.w3.org/1999/xlink">
    <!-- Generator: Sketch 54.1 (76490) - https://sketchapp.com -->
    <title>bg_info_btn03</title>
    <desc>Created with Sketch.</desc>
    <defs>
        <linearGradient x1="76.3639937%" y1="56.4257743%" x2="26.0731807%" y2="43.5742257%" id="linearGradient-1">
            <stop stop-color="#1BC4C0" offset="0%"></stop>
            <stop stop-color="#02AEC0" offset="100%"></stop>
        </linearGradient>
        <filter x="-8.5%" y="-23.7%" width="117.0%" height="147.4%" filterUnits="objectBoundingBox" id="filter-2">
            <feGaussianBlur stdDeviation="3" in="SourceGraphic"></feGaussianBlur>
        </filter>
        <path d="M205.375,55 L201.476562,55 L201.476562,50.5 L200.53125,50.5 L200.53125,48.671875 L201.476562,48.671875 L201.476562,44.3359375 L205.375,44.3359375 C208.617188,44.3359375 210.140625,46.265625 210.140625,49.640625 C210.140625,53.03125 208.59375,55 205.375,55 Z M203.585938,53.234375 L205.078125,53.234375 C206.851562,53.234375 207.960938,52.3359375 207.960938,49.640625 C207.960938,47.4375 207.1875,46.0234375 205.078125,46.0234375 L203.585938,46.0234375 L203.585938,48.671875 L205.851562,48.671875 L205.851562,50.5 L203.585938,50.5 L203.585938,53.234375 Z M214.823675,46.5625 C217.261175,46.5625 218.612738,48.234375 218.612738,50.5234375 L218.612738,51.1328125 C218.612738,53.546875 217.268988,55.1484375 214.823675,55.1484375 C212.378363,55.1484375 211.0268,53.546875 211.0268,51.140625 L211.0268,50.53125 C211.0268,48.2421875 212.378363,46.5625 214.823675,46.5625 Z M214.823675,48.15625 C213.636175,48.15625 213.104925,49.1796875 213.104925,50.5234375 L213.104925,51.1640625 C213.104925,52.46875 213.62055,53.546875 214.823675,53.546875 C216.018988,53.546875 216.534613,52.4765625 216.534613,51.1640625 L216.534613,50.5234375 C216.534613,49.171875 216.011175,48.15625 214.823675,48.15625 Z M215.456488,45.71875 L214.011175,45.71875 L215.597113,43.4453125 L217.409613,43.4453125 L215.456488,45.71875 Z M219.600475,55 L219.600475,46.7109375 L221.600475,46.7109375 L221.600475,47.921875 L221.686412,47.921875 C221.952037,47.3515625 222.70985,46.578125 224.092662,46.578125 C225.780162,46.578125 226.95985,47.6328125 226.95985,49.6640625 L226.95985,55 L224.905162,55 L224.905162,50.109375 C224.905162,48.8359375 224.170787,48.328125 223.287975,48.328125 C222.225475,48.328125 221.64735,49.09375 221.64735,50.140625 L221.64735,55 L219.600475,55 Z M231.689775,56.5234375 C232.791337,56.5234375 233.4554,55.8828125 233.4554,54.765625 L233.4554,53.5859375 L233.369462,53.5859375 C233.056962,54.3125 232.189775,54.890625 231.033525,54.890625 C229.150712,54.890625 227.869462,53.5390625 227.869462,50.9921875 L227.869462,50.4765625 C227.869462,47.9609375 229.1429,46.6015625 231.033525,46.6015625 C232.17415,46.6015625 233.056962,47.171875 233.3929,47.9296875 L233.478837,47.9296875 L233.478837,46.7109375 L235.510087,46.7109375 L235.510087,54.8984375 C235.510087,57.1640625 233.533525,58.03125 231.658525,58.03125 C229.275712,58.03125 228.166337,56.8984375 228.04915,55.515625 L230.041337,55.515625 C230.17415,56.1015625 230.783525,56.5234375 231.689775,56.5234375 Z M231.73665,48.2421875 C230.6429,48.2421875 229.978837,49.0546875 229.978837,50.546875 L229.978837,51.03125 C229.978837,52.515625 230.6429,53.34375 231.73665,53.34375 C232.79915,53.34375 233.4554,52.5078125 233.4554,51.03125 L233.4554,50.546875 C233.4554,49.0859375 232.7679,48.2421875 231.73665,48.2421875 Z M239.3215,55 L239.3215,43.7734375 L241.384,43.7734375 L241.384,55 L239.3215,55 Z M247.309237,53.9921875 C246.981112,54.6015625 246.277987,55.125 245.059237,55.125 C243.44205,55.125 242.332675,54.171875 242.332675,52.609375 C242.332675,51.125 243.363925,50.171875 245.2858,50.171875 L247.309237,50.171875 L247.309237,49.421875 C247.309237,48.59375 246.809237,48.1328125 245.94205,48.1328125 C245.0983,48.1328125 244.613925,48.578125 244.559237,49.2421875 L242.637362,49.2421875 C242.699862,47.859375 243.590487,46.578125 245.981112,46.578125 C247.887362,46.578125 249.340487,47.46875 249.340487,49.3984375 L249.340487,55 L247.395175,55 L247.395175,53.9921875 L247.309237,53.9921875 Z M245.7233,53.625 C246.606112,53.625 247.309237,53.0859375 247.309237,52.28125 L247.309237,51.40625 L245.731112,51.40625 C244.824862,51.40625 244.37955,51.84375 244.37955,52.4765625 C244.37955,53.25 245.0358,53.625 245.7233,53.625 Z M245.137362,57.0390625 C245.137362,56.515625 245.5358,56.1171875 246.027987,56.1171875 C246.5358,56.1171875 246.926425,56.515625 246.926425,57.0390625 C246.926425,57.5390625 246.5358,57.9453125 246.027987,57.9453125 C245.5358,57.9453125 245.137362,57.5390625 245.137362,57.0390625 Z M250.664163,55 L250.664163,46.7109375 L252.71885,46.7109375 L252.71885,55 L250.664163,55 Z M250.523538,44.65625 C250.523538,44.015625 251.054788,43.5703125 251.6876,43.5703125 C252.328225,43.5703125 252.851663,44.015625 252.851663,44.65625 C252.851663,45.296875 252.328225,45.734375 251.6876,45.734375 C251.054788,45.734375 250.523538,45.296875 250.523538,44.65625 Z" id="path-3"></path>
        <filter x="-11.5%" y="-41.1%" width="122.9%" height="182.3%" filterUnits="objectBoundingBox" id="filter-4">
            <feOffset dx="0" dy="0" in="SourceAlpha" result="shadowOffsetOuter1"></feOffset>
            <feGaussianBlur stdDeviation="2" in="shadowOffsetOuter1" result="shadowBlurOuter1"></feGaussianBlur>
            <feColorMatrix values="0 0 0 0 0   0 0 0 0 0   0 0 0 0 0  0 0 0 0.2 0" type="matrix" in="shadowBlurOuter1"></feColorMatrix>
        </filter>
    </defs>
    <g id="bg_info_btn03" stroke="none" stroke-width="1" fill="none" fill-rule="evenodd">
        <rect fill="#FFFFFF" x="0" y="0" width="320" height="110"></rect>
        <rect id="Rectangle" fill-opacity="0.27" fill="url(#linearGradient-1)" filter="url(#filter-2)" x="172" y="35" width="106" height="38" rx="18"></rect>
        <rect id="Rectangle" fill="url(#linearGradient-1)" x="174" y="32" width="106" height="38" rx="18"></rect>
        <g id="Đónglại" fill-rule="nonzero">
            <use fill="black" fill-opacity="1" filter="url(#filter-4)" xlink:href="#path-3"></use>
            <use fill="#FFFFFF" xlink:href="#path-3"></use>
        </g>
    </g>
</svg>