<?xml version="1.0" encoding="UTF-8"?>
<svg width="320px" height="100px" viewBox="0 0 320 100" version="1.1" xmlns="http://www.w3.org/2000/svg" xmlns:xlink="http://www.w3.org/1999/xlink">
    <!-- Generator: Sketch 54.1 (76490) - https://sketchapp.com -->
    <title>bg_info_btn02</title>
    <desc>Created with Sketch.</desc>
    <defs>
        <linearGradient x1="50%" y1="0%" x2="50%" y2="100%" id="linearGradient-1">
            <stop stop-color="#FFFFFF" stop-opacity="0.5" offset="0%"></stop>
            <stop stop-color="#FFFFFF" offset="100%"></stop>
        </linearGradient>
        <linearGradient x1="92.8335337%" y1="57.0650077%" x2="26.0731807%" y2="44.4444444%" id="linearGradient-2">
            <stop stop-color="#1BC4C0" offset="0%"></stop>
            <stop stop-color="#02AEC0" offset="100%"></stop>
        </linearGradient>
        <rect id="path-3" x="140" y="30" width="132" height="44" rx="22"></rect>
        <filter x="-18.2%" y="-54.5%" width="136.4%" height="209.1%" filterUnits="objectBoundingBox" id="filter-4">
            <feGaussianBlur stdDeviation="8" in="SourceGraphic"></feGaussianBlur>
        </filter>
        <linearGradient x1="92.8335337%" y1="57.4744898%" x2="26.0731807%" y2="44.122449%" id="linearGradient-5">
            <stop stop-color="#1BC4C0" offset="0%"></stop>
            <stop stop-color="#02AEC0" offset="100%"></stop>
        </linearGradient>
        <rect id="path-6" x="140" y="20" width="140" height="48" rx="24"></rect>
        <path d="M187.179492,49 L184.533008,49 L184.533008,43.2871094 L178.937305,43.2871094 L178.937305,49 L176.300586,49 L176.300586,35.6699219 L178.937305,35.6699219 L178.937305,41.0898438 L184.533008,41.0898438 L184.533008,35.6699219 L187.179492,35.6699219 L187.179492,49 Z M193.400977,38.453125 C196.447852,38.453125 198.137305,40.5429688 198.137305,43.4042969 L198.137305,44.1660156 C198.137305,47.1835938 196.457617,49.1855469 193.400977,49.1855469 C190.344336,49.1855469 188.654883,47.1835938 188.654883,44.1757812 L188.654883,43.4140625 C188.654883,40.5527344 190.344336,38.453125 193.400977,38.453125 Z M193.400977,40.4453125 C191.916602,40.4453125 191.252539,41.7246094 191.252539,43.4042969 L191.252539,44.2050781 C191.252539,45.8359375 191.89707,47.1835938 193.400977,47.1835938 C194.895117,47.1835938 195.539648,45.8457031 195.539648,44.2050781 L195.539648,43.4042969 C195.539648,41.7148438 194.885352,40.4453125 193.400977,40.4453125 Z M205.15957,47.7402344 C204.749414,48.5019531 203.870508,49.15625 202.34707,49.15625 C200.325586,49.15625 198.938867,47.9648438 198.938867,46.0117188 C198.938867,44.15625 200.22793,42.9648438 202.630273,42.9648438 L205.15957,42.9648438 L205.15957,42.0273438 C205.15957,40.9921875 204.53457,40.4160156 203.450586,40.4160156 C202.395898,40.4160156 201.79043,40.9726562 201.72207,41.8027344 L199.319727,41.8027344 C199.397852,40.0742188 200.511133,38.4726562 203.499414,38.4726562 C205.882227,38.4726562 207.698633,39.5859375 207.698633,41.9980469 L207.698633,49 L205.266992,49 L205.266992,47.7402344 L205.15957,47.7402344 Z M203.177148,47.28125 C204.280664,47.28125 205.15957,46.6074219 205.15957,45.6015625 L205.15957,44.5078125 L203.186914,44.5078125 C202.054102,44.5078125 201.497461,45.0546875 201.497461,45.8457031 C201.497461,46.8125 202.317773,47.28125 203.177148,47.28125 Z M204.573633,37.3984375 L202.766992,37.3984375 L200.325586,34.5566406 L202.591211,34.5566406 L204.573633,37.3984375 Z M209.35957,49 L209.35957,38.6386719 L211.85957,38.6386719 L211.85957,40.1523438 L211.966992,40.1523438 C212.299023,39.4394531 213.246289,38.4726562 214.974805,38.4726562 C217.08418,38.4726562 218.558789,39.7910156 218.558789,42.3300781 L218.558789,49 L215.99043,49 L215.99043,42.8867188 C215.99043,41.2949219 215.072461,40.6601562 213.968945,40.6601562 C212.64082,40.6601562 211.918164,41.6171875 211.918164,42.9257812 L211.918164,49 L209.35957,49 Z M224.136523,38.6386719 L224.136523,36.1582031 L226.636523,36.1582031 L226.636523,38.6386719 L228.648242,38.6386719 L228.648242,40.6308594 L226.636523,40.6308594 L226.636523,45.7382812 C226.636523,46.7734375 227.075977,47.0859375 228.14043,47.0859375 C228.355273,47.0859375 228.570117,47.0761719 228.687305,47.0664062 L228.687305,48.9707031 C228.491992,49.0097656 228.033008,49.0585938 227.51543,49.0585938 C224.937305,49.0585938 224.087695,48.1894531 224.087695,46.0703125 L224.087695,40.6308594 L222.622852,40.6308594 L222.622852,38.6386719 L224.136523,38.6386719 Z M235.602148,47.7402344 C235.191992,48.5019531 234.313086,49.15625 232.789648,49.15625 C230.768164,49.15625 229.381445,47.9648438 229.381445,46.0117188 C229.381445,44.15625 230.670508,42.9648438 233.072852,42.9648438 L235.602148,42.9648438 L235.602148,42.0273438 C235.602148,40.9921875 234.977148,40.4160156 233.893164,40.4160156 C232.838477,40.4160156 232.233008,40.9726562 232.164648,41.8027344 L229.762305,41.8027344 C229.84043,40.0742188 230.953711,38.4726562 233.941992,38.4726562 C236.324805,38.4726562 238.141211,39.5859375 238.141211,41.9980469 L238.141211,49 L235.70957,49 L235.70957,47.7402344 L235.602148,47.7402344 Z M233.619727,47.28125 C234.723242,47.28125 235.602148,46.6074219 235.602148,45.6015625 L235.602148,44.5078125 L233.629492,44.5078125 C232.49668,44.5078125 231.940039,45.0546875 231.940039,45.8457031 C231.940039,46.8125 232.760352,47.28125 233.619727,47.28125 Z M238.004492,35.2109375 L236.197852,35.2109375 L238.180273,32.3789062 L240.445898,32.3789062 L238.004492,35.2109375 Z M230.895117,37.3984375 L233.131445,34.3710938 L234.859961,34.3710938 L237.086523,37.3984375 L235.133398,37.3984375 L234.020117,35.6992188 L233.971289,35.6992188 L232.848242,37.3984375 L230.895117,37.3984375 Z M240.573633,38.6386719 L240.573633,36.1582031 L243.073633,36.1582031 L243.073633,38.6386719 L245.085352,38.6386719 L245.085352,40.6308594 L243.073633,40.6308594 L243.073633,45.7382812 C243.073633,46.7734375 243.513086,47.0859375 244.577539,47.0859375 C244.792383,47.0859375 245.007227,47.0761719 245.124414,47.0664062 L245.124414,48.9707031 C244.929102,49.0097656 244.470117,49.0585938 243.952539,49.0585938 C241.374414,49.0585938 240.524805,48.1894531 240.524805,46.0703125 L240.524805,40.6308594 L239.059961,40.6308594 L239.059961,38.6386719 L240.573633,38.6386719 Z" id="path-7"></path>
        <filter x="-10.9%" y="-32.7%" width="118.9%" height="177.4%" filterUnits="objectBoundingBox" id="filter-8">
            <feOffset dx="-1" dy="1" in="SourceAlpha" result="shadowOffsetOuter1"></feOffset>
            <feGaussianBlur stdDeviation="2" in="shadowOffsetOuter1" result="shadowBlurOuter1"></feGaussianBlur>
            <feColorMatrix values="0 0 0 0 0   0 0 0 0 0   0 0 0 0 0  0 0 0 0.25 0" type="matrix" in="shadowBlurOuter1"></feColorMatrix>
        </filter>
    </defs>
    <g id="bg_info_btn02" stroke="none" stroke-width="1" fill="none" fill-rule="evenodd">
        <rect id="Rectangle" fill="url(#linearGradient-1)" x="0" y="0" width="320" height="100"></rect>
        <polygon id="Line-2" fill="#8C96A8" fill-rule="nonzero" points="49 44 71 44 71 45 49 45 49 49 40 44.5 49 40"></polygon>
        <g id="Rectangle" opacity="0.5" filter="url(#filter-4)">
            <use fill="url(#linearGradient-2)" xlink:href="#path-3"></use>
            <use fill-opacity="0.1" fill="#00B0FF" xlink:href="#path-3"></use>
        </g>
        <g id="Rectangle">
            <use fill="url(#linearGradient-5)" xlink:href="#path-6"></use>
            <use fill-opacity="0.1" fill="#00B0FF" xlink:href="#path-6"></use>
        </g>
        <g id="Hoàntất" fill-rule="nonzero">
            <use fill="black" fill-opacity="1" filter="url(#filter-8)" xlink:href="#path-7"></use>
            <use fill="#FFFFFF" xlink:href="#path-7"></use>
        </g>
    </g>
</svg>