<?xml version="1.0" encoding="UTF-8"?>
<svg width="320px" height="100px" viewBox="0 0 320 100" version="1.1" xmlns="http://www.w3.org/2000/svg" xmlns:xlink="http://www.w3.org/1999/xlink">
    <!-- Generator: Sketch 54.1 (76490) - https://sketchapp.com -->
    <title>bg_info_btn03</title>
    <desc>Created with Sketch.</desc>
    <defs>
        <linearGradient x1="50%" y1="0%" x2="50%" y2="100%" id="linearGradient-1">
            <stop stop-color="#FFFFFF" stop-opacity="0.5" offset="0%"></stop>
            <stop stop-color="#FFFFFF" offset="100%"></stop>
        </linearGradient>
        <linearGradient x1="76.3639937%" y1="56.4257743%" x2="26.0731807%" y2="43.5742257%" id="linearGradient-2">
            <stop stop-color="#1BC4C0" offset="0%"></stop>
            <stop stop-color="#02AEC0" offset="100%"></stop>
        </linearGradient>
        <filter x="-8.5%" y="-23.7%" width="117.0%" height="147.4%" filterUnits="objectBoundingBox" id="filter-3">
            <feGaussianBlur stdDeviation="3" in="SourceGraphic"></feGaussianBlur>
        </filter>
        <path d="M205.814087,48.8826995 L201.939523,48.8826995 L201.939523,44.2549545 L201,44.2549545 L201,42.374933 L201.939523,42.374933 L201.939523,37.9159079 L205.814087,37.9159079 C209.036419,37.9159079 210.550527,39.9003749 210.550527,43.3711837 C210.550527,46.8580611 209.013125,48.8826995 205.814087,48.8826995 Z M204.03598,47.0669523 L205.51903,47.0669523 C207.281607,47.0669523 208.384188,46.1430102 208.384188,43.3711837 C208.384188,41.1055169 207.615487,39.6513123 205.51903,39.6513123 L204.03598,39.6513123 L204.03598,42.374933 L206.287731,42.374933 L206.287731,44.2549545 L204.03598,44.2549545 L204.03598,47.0669523 Z M215.204898,40.2056776 C217.62747,40.2056776 218.970756,41.9250134 218.970756,44.2790573 L218.970756,44.9057311 C218.970756,47.3883235 217.635235,49.0353508 215.204898,49.0353508 C212.77456,49.0353508 211.431275,47.3883235 211.431275,44.9137654 L211.431275,44.2870916 C211.431275,41.9330477 212.77456,40.2056776 215.204898,40.2056776 Z M215.204898,41.8446706 C214.02467,41.8446706 213.496673,42.8971612 213.496673,44.2790573 L213.496673,44.9378682 C213.496673,46.2795929 214.009141,47.3883235 215.204898,47.3883235 C216.39289,47.3883235 216.905357,46.2876272 216.905357,44.9378682 L216.905357,44.2790573 C216.905357,42.8891269 216.385125,41.8446706 215.204898,41.8446706 Z M215.833835,39.3379754 L214.397373,39.3379754 L215.973598,37 L217.774999,37 L215.833835,39.3379754 Z M219.952444,48.8826995 L219.952444,40.3583289 L221.940196,40.3583289 L221.940196,41.6036422 L222.025607,41.6036422 C222.289606,41.0171398 223.042777,40.2217461 224.417121,40.2217461 C226.094287,40.2217461 227.26675,41.3063739 227.26675,43.3952866 L227.26675,48.8826995 L225.224646,48.8826995 L225.224646,43.8532405 C225.224646,42.5436529 224.494768,42.0214247 223.617362,42.0214247 C222.561369,42.0214247 221.986784,42.8087841 221.986784,43.8853776 L221.986784,48.8826995 L219.952444,48.8826995 Z M231.967709,50.449384 C233.062525,50.449384 233.722521,49.7905731 233.722521,48.6416711 L233.722521,47.4284949 L233.63711,47.4284949 C233.326524,48.1756829 232.464647,48.7702196 231.315478,48.7702196 C229.444196,48.7702196 228.170792,47.3802892 228.170792,44.7611141 L228.170792,44.2308516 C228.170792,41.6438136 229.436431,40.245849 231.315478,40.245849 C232.449117,40.245849 233.326524,40.8323514 233.660404,41.6116765 L233.745815,41.6116765 L233.745815,40.3583289 L235.764626,40.3583289 L235.764626,48.7782539 C235.764626,51.108195 233.800168,52 231.93665,52 C229.56843,52 228.465849,50.8350295 228.349379,49.412962 L230.329366,49.412962 C230.461366,50.0155329 231.067009,50.449384 231.967709,50.449384 Z M232.014297,41.9330477 C230.927245,41.9330477 230.267249,42.7686127 230.267249,44.3031601 L230.267249,44.8012855 C230.267249,46.3277986 230.927245,47.1794322 232.014297,47.1794322 C233.07029,47.1794322 233.722521,46.3197643 233.722521,44.8012855 L233.722521,44.3031601 C233.722521,42.8007499 233.039231,41.9330477 232.014297,41.9330477 Z M239.552697,48.8826995 L239.552697,37.3374397 L241.602566,37.3374397 L241.602566,48.8826995 L239.552697,48.8826995 Z M247.491517,47.8462775 C247.165402,48.4729513 246.466582,49.011248 245.255296,49.011248 C243.648012,49.011248 242.545431,48.0310659 242.545431,46.42421 C242.545431,44.8976968 243.570366,43.9175147 245.480471,43.9175147 L247.491517,43.9175147 L247.491517,43.1462239 C247.491517,42.2945903 246.994579,41.8205678 246.132702,41.8205678 C245.294119,41.8205678 244.812711,42.2785217 244.758358,42.9614355 L242.848253,42.9614355 C242.91037,41.539368 243.795541,40.2217461 246.171526,40.2217461 C248.066102,40.2217461 249.510328,41.137654 249.510328,43.122121 L249.510328,48.8826995 L247.576928,48.8826995 L247.576928,47.8462775 L247.491517,47.8462775 Z M245.915292,47.4686663 C246.792698,47.4686663 247.491517,46.914301 247.491517,46.0867702 L247.491517,45.1869309 L245.923057,45.1869309 C245.022356,45.1869309 244.579771,45.6368506 244.579771,46.2876272 C244.579771,47.0830209 245.232002,47.4686663 245.915292,47.4686663 Z M245.332943,50.9796465 C245.332943,50.4413498 245.72894,50.0316015 246.218113,50.0316015 C246.722816,50.0316015 247.111049,50.4413498 247.111049,50.9796465 C247.111049,51.4938404 246.722816,51.9116229 246.218113,51.9116229 C245.72894,51.9116229 245.332943,51.4938404 245.332943,50.9796465 Z M250.825896,48.8826995 L250.825896,40.3583289 L252.868001,40.3583289 L252.868001,48.8826995 L250.825896,48.8826995 Z M250.686133,38.2453133 C250.686133,37.5865024 251.214129,37.1285485 251.843066,37.1285485 C252.479768,37.1285485 253,37.5865024 253,38.2453133 C253,38.9041243 252.479768,39.3540439 251.843066,39.3540439 C251.214129,39.3540439 250.686133,38.9041243 250.686133,38.2453133 Z" id="path-4"></path>
        <filter x="-11.5%" y="-40.0%" width="123.1%" height="180.0%" filterUnits="objectBoundingBox" id="filter-5">
            <feOffset dx="0" dy="0" in="SourceAlpha" result="shadowOffsetOuter1"></feOffset>
            <feGaussianBlur stdDeviation="2" in="shadowOffsetOuter1" result="shadowBlurOuter1"></feGaussianBlur>
            <feColorMatrix values="0 0 0 0 0   0 0 0 0 0   0 0 0 0 0  0 0 0 0.2 0" type="matrix" in="shadowBlurOuter1"></feColorMatrix>
        </filter>
    </defs>
    <g id="bg_info_btn03" stroke="none" stroke-width="1" fill="none" fill-rule="evenodd">
        <rect id="Rectangle" fill="url(#linearGradient-1)" x="0" y="0" width="320" height="100"></rect>
        <rect id="Rectangle" fill-opacity="0.27" fill="url(#linearGradient-2)" filter="url(#filter-3)" x="172" y="29" width="106" height="38" rx="18"></rect>
        <rect id="Rectangle" fill="url(#linearGradient-2)" x="174" y="26" width="106" height="38" rx="18"></rect>
        <g id="Đónglại" fill-rule="nonzero">
            <use fill="black" fill-opacity="1" filter="url(#filter-5)" xlink:href="#path-4"></use>
            <use fill="#FFFFFF" xlink:href="#path-4"></use>
        </g>
    </g>
</svg>