<?xml version="1.0" encoding="UTF-8"?>
<svg width="320px" height="100px" viewBox="0 0 320 100" version="1.1" xmlns="http://www.w3.org/2000/svg" xmlns:xlink="http://www.w3.org/1999/xlink">
    <!-- Generator: Sketch 54.1 (76490) - https://sketchapp.com -->
    <title>bg_info_btn02</title>
    <desc>Created with Sketch.</desc>
    <defs>
        <linearGradient x1="50%" y1="0%" x2="50%" y2="100%" id="linearGradient-1">
            <stop stop-color="#FFFFFF" stop-opacity="0.5" offset="0%"></stop>
            <stop stop-color="#FFFFFF" offset="100%"></stop>
        </linearGradient>
        <linearGradient x1="76.3639937%" y1="56.4257743%" x2="26.0731807%" y2="43.5742257%" id="linearGradient-2">
            <stop stop-color="#1BC4C0" offset="0%"></stop>
            <stop stop-color="#02AEC0" offset="100%"></stop>
        </linearGradient>
        <filter x="-8.5%" y="-23.7%" width="117.0%" height="147.4%" filterUnits="objectBoundingBox" id="filter-3">
            <feGaussianBlur stdDeviation="3" in="SourceGraphic"></feGaussianBlur>
        </filter>
        <path d="M208.626974,48.8564788 L206.528312,48.8564788 L206.528312,44.4375363 L202.090918,44.4375363 L202.090918,48.8564788 L200,48.8564788 L200,38.545613 L202.090918,38.545613 L202.090918,42.7379431 L206.528312,42.7379431 L206.528312,38.545613 L208.626974,38.545613 L208.626974,48.8564788 Z M213.47814,40.6984311 C215.894312,40.6984311 217.234049,42.3149332 217.234049,44.5281813 L217.234049,45.1173736 C217.234049,47.4514817 215.902056,49 213.47814,49 C211.054223,49 209.714487,47.4514817 209.714487,45.1249274 L209.714487,44.535735 C209.714487,42.3224869 211.054223,40.6984311 213.47814,40.6984311 Z M213.47814,42.2393957 C212.30103,42.2393957 211.774429,43.2289367 211.774429,44.5281813 L211.774429,45.1475886 C211.774429,46.4090645 212.285542,47.4514817 213.47814,47.4514817 C214.662994,47.4514817 215.174107,46.4166182 215.174107,45.1475886 L215.174107,44.5281813 C215.174107,43.2213829 214.655249,42.2393957 213.47814,42.2393957 Z M222.720234,47.8820453 C222.39498,48.4712377 221.698007,48.9773388 220.489921,48.9773388 C218.886884,48.9773388 217.787216,48.0557815 217.787216,46.545032 C217.787216,45.1098199 218.809442,44.1882626 220.714501,44.1882626 L222.720234,44.1882626 L222.720234,43.4631028 C222.720234,42.6624056 222.224609,42.2167345 221.365009,42.2167345 C220.528642,42.2167345 220.048505,42.6472981 219.994296,43.2893666 L218.089237,43.2893666 C218.15119,41.9523533 219.034023,40.7135386 221.40373,40.7135386 C223.293301,40.7135386 224.733711,41.5746659 224.733711,43.4404416 L224.733711,48.8564788 L222.80542,48.8564788 L222.80542,47.8820453 L222.720234,47.8820453 Z M221.148173,47.5270192 C222.023261,47.5270192 222.720234,47.0058106 222.720234,46.2277745 L222.720234,45.3817548 L221.155917,45.3817548 C220.257597,45.3817548 219.816181,45.8047647 219.816181,46.4166182 C219.816181,47.1644393 220.466689,47.5270192 221.148173,47.5270192 Z M222.255586,39.8826264 L220.822919,39.8826264 L218.886884,37.6844858 L220.683525,37.6844858 L222.255586,39.8826264 Z M225.968363,48.8564788 L225.968363,40.8419524 L227.950863,40.8419524 L227.950863,42.0127833 L228.036048,42.0127833 C228.299349,41.4613597 229.050531,40.7135386 230.421244,40.7135386 C232.093979,40.7135386 233.263344,41.7332946 233.263344,43.697269 L233.263344,48.8564788 L231.226635,48.8564788 L231.226635,44.1278327 C231.226635,42.8965718 230.498686,42.4055782 229.623598,42.4055782 C228.570394,42.4055782 227.997328,43.1458454 227.997328,44.1580476 L227.997328,48.8564788 L225.968363,48.8564788 Z M237.521544,40.8419524 L237.521544,38.9233004 L239.504045,38.9233004 L239.504045,40.8419524 L241.099338,40.8419524 L241.099338,42.3829169 L239.504045,42.3829169 L239.504045,46.333527 C239.504045,47.1342243 239.852531,47.3759442 240.696642,47.3759442 C240.867013,47.3759442 241.037385,47.3683905 241.130314,47.3608367 L241.130314,48.8338175 C240.975431,48.8640325 240.611457,48.9018013 240.201017,48.9018013 C238.156564,48.9018013 237.482823,48.2295177 237.482823,46.5903544 L237.482823,42.3829169 L236.321202,42.3829169 L236.321202,40.8419524 L237.521544,40.8419524 Z M246.531314,47.8820453 C246.20606,48.4712377 245.509087,48.9773388 244.301001,48.9773388 C242.697964,48.9773388 241.598296,48.0557815 241.598296,46.545032 C241.598296,45.1098199 242.620523,44.1882626 244.525581,44.1882626 L246.531314,44.1882626 L246.531314,43.4631028 C246.531314,42.6624056 246.035689,42.2167345 245.176089,42.2167345 C244.339722,42.2167345 243.859585,42.6472981 243.805376,43.2893666 L241.900317,43.2893666 C241.962271,41.9523533 242.845103,40.7135386 245.21481,40.7135386 C247.104381,40.7135386 248.544791,41.5746659 248.544791,43.4404416 L248.544791,48.8564788 L246.6165,48.8564788 L246.6165,47.8820453 L246.531314,47.8820453 Z M244.959253,47.5270192 C245.834341,47.5270192 246.531314,47.0058106 246.531314,46.2277745 L246.531314,45.3817548 L244.966998,45.3817548 C244.068677,45.3817548 243.627261,45.8047647 243.627261,46.4166182 C243.627261,47.1644393 244.277769,47.5270192 244.959253,47.5270192 Z M248.436373,38.1905869 L247.003707,38.1905869 L248.575768,36 L250.372409,36 L248.436373,38.1905869 Z M242.798638,39.8826264 L244.572046,37.5409646 L245.942759,37.5409646 L247.708424,39.8826264 L246.159595,39.8826264 L245.276763,38.5682743 L245.238043,38.5682743 L244.347466,39.8826264 L242.798638,39.8826264 Z M250.39123,40.8419524 L250.39123,38.9233004 L252.37373,38.9233004 L252.37373,40.8419524 L253.969023,40.8419524 L253.969023,42.3829169 L252.37373,42.3829169 L252.37373,46.333527 C252.37373,47.1342243 252.722217,47.3759442 253.566328,47.3759442 C253.736699,47.3759442 253.90707,47.3683905 254,47.3608367 L254,48.8338175 C253.845117,48.8640325 253.481142,48.9018013 253.070703,48.9018013 C251.02625,48.9018013 250.352509,48.2295177 250.352509,46.5903544 L250.352509,42.3829169 L249.190888,42.3829169 L249.190888,40.8419524 L250.39123,40.8419524 Z" id="path-4"></path>
        <filter x="-11.1%" y="-46.2%" width="122.2%" height="192.3%" filterUnits="objectBoundingBox" id="filter-5">
            <feOffset dx="0" dy="0" in="SourceAlpha" result="shadowOffsetOuter1"></feOffset>
            <feGaussianBlur stdDeviation="2" in="shadowOffsetOuter1" result="shadowBlurOuter1"></feGaussianBlur>
            <feColorMatrix values="0 0 0 0 0   0 0 0 0 0   0 0 0 0 0  0 0 0 0.2 0" type="matrix" in="shadowBlurOuter1"></feColorMatrix>
        </filter>
    </defs>
    <g id="bg_info_btn02" stroke="none" stroke-width="1" fill="none" fill-rule="evenodd">
        <rect id="Rectangle" fill="url(#linearGradient-1)" x="0" y="0" width="320" height="100"></rect>
        <polygon id="Line-2" fill="#8C96A8" fill-rule="nonzero" points="49 46 71 46 71 47 49 47 49 51 40 46.5 49 42"></polygon>
        <rect id="Rectangle" fill-opacity="0.27" fill="url(#linearGradient-2)" filter="url(#filter-3)" x="172" y="29" width="106" height="38" rx="18"></rect>
        <rect id="Rectangle" fill="url(#linearGradient-2)" x="174" y="26" width="106" height="38" rx="18"></rect>
        <g id="Hoàntất" fill-rule="nonzero">
            <use fill="black" fill-opacity="1" filter="url(#filter-5)" xlink:href="#path-4"></use>
            <use fill="#FFFFFF" xlink:href="#path-4"></use>
        </g>
    </g>
</svg>