<?xml version="1.0" encoding="UTF-8"?>
<svg width="320px" height="100px" viewBox="0 0 320 100" version="1.1" xmlns="http://www.w3.org/2000/svg" xmlns:xlink="http://www.w3.org/1999/xlink">
    <!-- Generator: Sketch 54.1 (76490) - https://sketchapp.com -->
    <title>bg_info_btn03</title>
    <desc>Created with Sketch.</desc>
    <defs>
        <linearGradient x1="50%" y1="0%" x2="50%" y2="100%" id="linearGradient-1">
            <stop stop-color="#FFFFFF" stop-opacity="0.5" offset="0%"></stop>
            <stop stop-color="#FFFFFF" offset="100%"></stop>
        </linearGradient>
        <linearGradient x1="92.8335337%" y1="57.0650077%" x2="26.0731807%" y2="44.4444444%" id="linearGradient-2">
            <stop stop-color="#1BC4C0" offset="0%"></stop>
            <stop stop-color="#02AEC0" offset="100%"></stop>
        </linearGradient>
        <rect id="path-3" x="140" y="30" width="132" height="44" rx="22"></rect>
        <filter x="-18.2%" y="-54.5%" width="136.4%" height="209.1%" filterUnits="objectBoundingBox" id="filter-4">
            <feGaussianBlur stdDeviation="8" in="SourceGraphic"></feGaussianBlur>
        </filter>
        <linearGradient x1="92.8335337%" y1="57.4744898%" x2="26.0731807%" y2="44.122449%" id="linearGradient-5">
            <stop stop-color="#1BC4C0" offset="0%"></stop>
            <stop stop-color="#02AEC0" offset="100%"></stop>
        </linearGradient>
        <rect id="path-6" x="140" y="20" width="140" height="48" rx="24"></rect>
        <path d="M183.116992,49 L178.243945,49 L178.243945,43.375 L177.062305,43.375 L177.062305,41.0898438 L178.243945,41.0898438 L178.243945,35.6699219 L183.116992,35.6699219 C187.169727,35.6699219 189.074023,38.0820312 189.074023,42.3007812 C189.074023,46.5390625 187.14043,49 183.116992,49 Z M180.880664,46.7929688 L182.745898,46.7929688 C184.962695,46.7929688 186.349414,45.6699219 186.349414,42.3007812 C186.349414,39.546875 185.382617,37.7792969 182.745898,37.7792969 L180.880664,37.7792969 L180.880664,41.0898438 L183.712695,41.0898438 L183.712695,43.375 L180.880664,43.375 L180.880664,46.7929688 Z M195.031836,38.453125 C198.078711,38.453125 199.768164,40.5429688 199.768164,43.4042969 L199.768164,44.1660156 C199.768164,47.1835938 198.088477,49.1855469 195.031836,49.1855469 C191.975195,49.1855469 190.285742,47.1835938 190.285742,44.1757812 L190.285742,43.4140625 C190.285742,40.5527344 191.975195,38.453125 195.031836,38.453125 Z M195.031836,40.4453125 C193.547461,40.4453125 192.883398,41.7246094 192.883398,43.4042969 L192.883398,44.2050781 C192.883398,45.8359375 193.52793,47.1835938 195.031836,47.1835938 C196.525977,47.1835938 197.170508,45.8457031 197.170508,44.2050781 L197.170508,43.4042969 C197.170508,41.7148438 196.516211,40.4453125 195.031836,40.4453125 Z M195.822852,37.3984375 L194.016211,37.3984375 L195.998633,34.5566406 L198.264258,34.5566406 L195.822852,37.3984375 Z M201.106836,49 L201.106836,38.6386719 L203.606836,38.6386719 L203.606836,40.1523438 L203.714258,40.1523438 C204.046289,39.4394531 204.993555,38.4726562 206.72207,38.4726562 C208.831445,38.4726562 210.306055,39.7910156 210.306055,42.3300781 L210.306055,49 L207.737695,49 L207.737695,42.8867188 C207.737695,41.2949219 206.819727,40.6601562 205.716211,40.6601562 C204.388086,40.6601562 203.66543,41.6171875 203.66543,42.9257812 L203.66543,49 L201.106836,49 Z M216.322461,50.9042969 C217.699414,50.9042969 218.529492,50.1035156 218.529492,48.7070312 L218.529492,47.2324219 L218.42207,47.2324219 C218.031445,48.140625 216.947461,48.8632812 215.502148,48.8632812 C213.148633,48.8632812 211.54707,47.1738281 211.54707,43.9902344 L211.54707,43.3457031 C211.54707,40.2011719 213.138867,38.5019531 215.502148,38.5019531 C216.92793,38.5019531 218.031445,39.2148438 218.451367,40.1621094 L218.558789,40.1621094 L218.558789,38.6386719 L221.097852,38.6386719 L221.097852,48.8730469 C221.097852,51.7050781 218.627148,52.7890625 216.283398,52.7890625 C213.304883,52.7890625 211.918164,51.3730469 211.77168,49.6445312 L214.261914,49.6445312 C214.42793,50.3769531 215.189648,50.9042969 216.322461,50.9042969 Z M216.381055,40.5527344 C215.013867,40.5527344 214.183789,41.5683594 214.183789,43.4335938 L214.183789,44.0390625 C214.183789,45.8945312 215.013867,46.9296875 216.381055,46.9296875 C217.70918,46.9296875 218.529492,45.8847656 218.529492,44.0390625 L218.529492,43.4335938 C218.529492,41.6074219 217.670117,40.5527344 216.381055,40.5527344 Z M226.070117,49 L226.070117,34.9667969 L228.648242,34.9667969 L228.648242,49 L226.070117,49 Z M236.158789,47.7402344 C235.748633,48.5019531 234.869727,49.15625 233.346289,49.15625 C231.324805,49.15625 229.938086,47.9648438 229.938086,46.0117188 C229.938086,44.15625 231.227148,42.9648438 233.629492,42.9648438 L236.158789,42.9648438 L236.158789,42.0273438 C236.158789,40.9921875 235.533789,40.4160156 234.449805,40.4160156 C233.395117,40.4160156 232.789648,40.9726562 232.721289,41.8027344 L230.318945,41.8027344 C230.39707,40.0742188 231.510352,38.4726562 234.498633,38.4726562 C236.881445,38.4726562 238.697852,39.5859375 238.697852,41.9980469 L238.697852,49 L236.266211,49 L236.266211,47.7402344 L236.158789,47.7402344 Z M234.176367,47.28125 C235.279883,47.28125 236.158789,46.6074219 236.158789,45.6015625 L236.158789,44.5078125 L234.186133,44.5078125 C233.05332,44.5078125 232.49668,45.0546875 232.49668,45.8457031 C232.49668,46.8125 233.316992,47.28125 234.176367,47.28125 Z M233.443945,51.5488281 C233.443945,50.8945312 233.941992,50.3964844 234.557227,50.3964844 C235.191992,50.3964844 235.680273,50.8945312 235.680273,51.5488281 C235.680273,52.1738281 235.191992,52.6816406 234.557227,52.6816406 C233.941992,52.6816406 233.443945,52.1738281 233.443945,51.5488281 Z M240.456445,49 L240.456445,38.6386719 L243.024805,38.6386719 L243.024805,49 L240.456445,49 Z M240.280664,36.0703125 C240.280664,35.2695312 240.944727,34.7128906 241.735742,34.7128906 C242.536523,34.7128906 243.19082,35.2695312 243.19082,36.0703125 C243.19082,36.8710938 242.536523,37.4179688 241.735742,37.4179688 C240.944727,37.4179688 240.280664,36.8710938 240.280664,36.0703125 Z" id="path-7"></path>
        <filter x="-11.3%" y="-30.2%" width="119.7%" height="171.3%" filterUnits="objectBoundingBox" id="filter-8">
            <feOffset dx="-1" dy="1" in="SourceAlpha" result="shadowOffsetOuter1"></feOffset>
            <feGaussianBlur stdDeviation="2" in="shadowOffsetOuter1" result="shadowBlurOuter1"></feGaussianBlur>
            <feColorMatrix values="0 0 0 0 0   0 0 0 0 0   0 0 0 0 0  0 0 0 0.25 0" type="matrix" in="shadowBlurOuter1"></feColorMatrix>
        </filter>
    </defs>
    <g id="bg_info_btn03" stroke="none" stroke-width="1" fill="none" fill-rule="evenodd">
        <rect id="Rectangle" fill="url(#linearGradient-1)" x="0" y="0" width="320" height="100"></rect>
        <g id="Rectangle" opacity="0.5" filter="url(#filter-4)">
            <use fill="url(#linearGradient-2)" xlink:href="#path-3"></use>
            <use fill-opacity="0.1" fill="#00B0FF" xlink:href="#path-3"></use>
        </g>
        <g id="Rectangle">
            <use fill="url(#linearGradient-5)" xlink:href="#path-6"></use>
            <use fill-opacity="0.1" fill="#00B0FF" xlink:href="#path-6"></use>
        </g>
        <g id="Đónglại" fill-rule="nonzero">
            <use fill="black" fill-opacity="1" filter="url(#filter-8)" xlink:href="#path-7"></use>
            <use fill="#FFFFFF" xlink:href="#path-7"></use>
        </g>
    </g>
</svg>