<?xml version="1.0" encoding="UTF-8"?>
<svg width="320px" height="100px" viewBox="0 0 320 100" version="1.1" xmlns="http://www.w3.org/2000/svg" xmlns:xlink="http://www.w3.org/1999/xlink">
    <!-- Generator: Sketch 54.1 (76490) - https://sketchapp.com -->
    <title>bg_info_btn</title>
    <desc>Created with Sketch.</desc>
    <defs>
        <linearGradient x1="50%" y1="0%" x2="50%" y2="100%" id="linearGradient-1">
            <stop stop-color="#FFFFFF" stop-opacity="0.5" offset="0%"></stop>
            <stop stop-color="#FFFFFF" offset="100%"></stop>
        </linearGradient>
        <linearGradient x1="92.8335337%" y1="57.0650077%" x2="26.0731807%" y2="44.4444444%" id="linearGradient-2">
            <stop stop-color="#1BC4C0" offset="0%"></stop>
            <stop stop-color="#02AEC0" offset="100%"></stop>
        </linearGradient>
        <rect id="path-3" x="140" y="30" width="132" height="44" rx="22"></rect>
        <filter x="-18.2%" y="-54.5%" width="136.4%" height="209.1%" filterUnits="objectBoundingBox" id="filter-4">
            <feGaussianBlur stdDeviation="8" in="SourceGraphic"></feGaussianBlur>
        </filter>
        <linearGradient x1="92.8335337%" y1="57.4744898%" x2="26.0731807%" y2="44.122449%" id="linearGradient-5">
            <stop stop-color="#1BC4C0" offset="0%"></stop>
            <stop stop-color="#02AEC0" offset="100%"></stop>
        </linearGradient>
        <rect id="path-6" x="140" y="20" width="140" height="48" rx="24"></rect>
        <path d="M186.196758,48 L183.823711,48 L183.823711,37.9892578 L180.413555,37.9892578 L180.413555,36.0029297 L189.606914,36.0029297 L189.606914,37.9892578 L186.196758,37.9892578 L186.196758,48 Z M190.082227,48 L190.082227,38.6748047 L192.39375,38.6748047 L192.39375,48 L190.082227,48 Z M189.924024,36.3632812 C189.924024,35.6425781 190.52168,35.1416016 191.233594,35.1416016 C191.954297,35.1416016 192.543164,35.6425781 192.543164,36.3632812 C192.543164,37.0839844 191.954297,37.5761719 191.233594,37.5761719 C190.52168,37.5761719 189.924024,37.0839844 189.924024,36.3632812 Z M197.913984,48.1669922 C195.356367,48.1669922 193.686445,46.5673828 193.686445,43.7109375 L193.686445,42.8583984 C193.686445,40.125 195.365156,38.5078125 197.817305,38.5078125 C200.357344,38.5078125 201.930586,40.2392578 201.930586,42.9199219 L201.930586,43.8339844 L195.954023,43.8339844 L195.954023,44.0888672 C195.954023,45.5039062 196.753828,46.4003906 197.931563,46.4003906 C198.854414,46.4003906 199.504805,45.9433594 199.698164,45.1875 L201.842695,45.1875 C201.622969,46.6816406 200.410078,48.1669922 197.913984,48.1669922 Z M195.954023,42.3662109 L199.689375,42.3662109 L199.689375,42.3486328 C199.689375,41.1445312 198.959883,40.2304688 197.834883,40.2304688 C196.701094,40.2304688 195.954023,41.1533203 195.954023,42.3486328 L195.954023,42.3662109 Z M201.42082,35.5898438 L199.794844,35.5898438 L201.579023,33.0410156 L203.618086,33.0410156 L201.42082,35.5898438 Z M195.022383,37.5585938 L197.035078,34.8339844 L198.590742,34.8339844 L200.594648,37.5585938 L198.836836,37.5585938 L197.834883,36.0292969 L197.790938,36.0292969 L196.780195,37.5585938 L195.022383,37.5585938 Z M208.153945,48.1230469 C206.914688,48.1230469 205.991836,47.5341797 205.534805,46.6552734 L205.438125,46.6552734 L205.438125,51.09375 L203.117813,51.09375 L203.117813,38.6748047 L205.39418,38.6748047 L205.39418,40.0634766 L205.490859,40.0634766 C205.965469,39.1582031 206.914688,38.5517578 208.189102,38.5517578 C210.26332,38.5517578 211.704727,40.1074219 211.704727,42.9287109 L211.704727,43.7285156 C211.704727,46.5322266 210.272109,48.1230469 208.153945,48.1230469 Z M207.442031,46.2773438 C208.567031,46.2773438 209.340469,45.3632812 209.340469,43.6230469 L209.340469,43.0078125 C209.340469,41.3291016 208.610977,40.3974609 207.415664,40.3974609 C206.202773,40.3974609 205.420547,41.3818359 205.420547,42.9990234 L205.420547,43.6230469 C205.420547,45.2753906 206.211563,46.2773438 207.442031,46.2773438 Z M216.478594,38.6748047 L216.478594,36.4423828 L218.728594,36.4423828 L218.728594,38.6748047 L220.539141,38.6748047 L220.539141,40.4677734 L218.728594,40.4677734 L218.728594,45.0644531 C218.728594,45.9960938 219.124102,46.2773438 220.082109,46.2773438 C220.275469,46.2773438 220.468828,46.2685547 220.574297,46.2597656 L220.574297,47.9736328 C220.398516,48.0087891 219.98543,48.0527344 219.519609,48.0527344 C217.199297,48.0527344 216.434648,47.2705078 216.434648,45.3632812 L216.434648,40.4677734 L215.116289,40.4677734 L215.116289,38.6748047 L216.478594,38.6748047 Z M229.85625,38.6748047 L229.85625,48 L227.597461,48 L227.597461,46.6376953 L227.491992,46.6376953 C227.201953,47.3671875 226.340625,48.140625 224.802539,48.140625 C222.895312,48.140625 221.612109,47.0332031 221.612109,44.8359375 L221.612109,38.6748047 L223.923633,38.6748047 L223.923633,44.2207031 C223.923633,45.7587891 224.79375,46.1806641 225.707812,46.1806641 C226.744922,46.1806641 227.535937,45.5039062 227.535937,44.1943359 L227.535937,38.6748047 L229.85625,38.6748047 Z M224.767383,50.2939453 C224.767383,49.7050781 225.215625,49.2568359 225.769336,49.2568359 C226.340625,49.2568359 226.780078,49.7050781 226.780078,50.2939453 C226.780078,50.8564453 226.340625,51.3134766 225.769336,51.3134766 C225.215625,51.3134766 224.767383,50.8564453 224.767383,50.2939453 Z M231.052266,43.6757812 L231.052266,42.9023438 C231.052266,40.3183594 232.599141,38.5078125 235.200703,38.5078125 C237.556172,38.5078125 238.988789,40.0019531 239.041523,41.7949219 L236.905781,41.7949219 C236.782734,41.0214844 236.1675,40.3535156 235.306172,40.3535156 C234.10207,40.3535156 233.372578,41.3378906 233.372578,42.9287109 L233.372578,43.6669922 C233.372578,45.3105469 234.119648,46.3125 235.314961,46.3125 C236.343281,46.3125 236.844258,45.6884766 236.949726,44.9765625 L239.085469,44.9765625 C238.892109,47.0595703 237.397969,48.1669922 235.191914,48.1669922 C232.616719,48.1669922 231.052266,46.3916016 231.052266,43.6757812 Z" id="path-7"></path>
        <filter x="-12.8%" y="-30.1%" width="122.2%" height="171.1%" filterUnits="objectBoundingBox" id="filter-8">
            <feOffset dx="-1" dy="1" in="SourceAlpha" result="shadowOffsetOuter1"></feOffset>
            <feGaussianBlur stdDeviation="2" in="shadowOffsetOuter1" result="shadowBlurOuter1"></feGaussianBlur>
            <feColorMatrix values="0 0 0 0 0   0 0 0 0 0   0 0 0 0 0  0 0 0 0.25 0" type="matrix" in="shadowBlurOuter1"></feColorMatrix>
        </filter>
    </defs>
    <g id="bg_info_btn" stroke="none" stroke-width="1" fill="none" fill-rule="evenodd">
        <rect id="Rectangle" fill="url(#linearGradient-1)" x="0" y="0" width="320" height="100"></rect>
        <polygon id="Line-2" fill="#8C96A8" fill-rule="nonzero" points="49 44 71 44 71 45 49 45 49 49 40 44.5 49 40"></polygon>
        <g id="Rectangle" opacity="0.5" filter="url(#filter-4)">
            <use fill="url(#linearGradient-2)" xlink:href="#path-3"></use>
            <use fill-opacity="0.1" fill="#00B0FF" xlink:href="#path-3"></use>
        </g>
        <g id="Rectangle">
            <use fill="url(#linearGradient-5)" xlink:href="#path-6"></use>
            <use fill-opacity="0.1" fill="#00B0FF" xlink:href="#path-6"></use>
        </g>
        <g id="Tiếptục" fill-rule="nonzero">
            <use fill="black" fill-opacity="1" filter="url(#filter-8)" xlink:href="#path-7"></use>
            <use fill="#FFFFFF" xlink:href="#path-7"></use>
        </g>
    </g>
</svg>