<?xml version="1.0" encoding="UTF-8"?>
<svg width="320px" height="110px" viewBox="0 0 320 110" version="1.1" xmlns="http://www.w3.org/2000/svg" xmlns:xlink="http://www.w3.org/1999/xlink">
    <!-- Generator: Sketch 54.1 (76490) - https://sketchapp.com -->
    <title>bg_info_btn</title>
    <desc>Created with Sketch.</desc>
    <defs>
        <linearGradient x1="76.3639937%" y1="56.4257743%" x2="26.0731807%" y2="43.5742257%" id="linearGradient-1">
            <stop stop-color="#1BC4C0" offset="0%"></stop>
            <stop stop-color="#02AEC0" offset="100%"></stop>
        </linearGradient>
        <filter x="-8.5%" y="-23.7%" width="117.0%" height="147.4%" filterUnits="objectBoundingBox" id="filter-2">
            <feGaussianBlur stdDeviation="3" in="SourceGraphic"></feGaussianBlur>
        </filter>
        <path d="M206.257812,55 L204.148438,55 L204.148438,46.1015625 L201.117188,46.1015625 L201.117188,44.3359375 L209.289062,44.3359375 L209.289062,46.1015625 L206.257812,46.1015625 L206.257812,55 Z M209.628363,55 L209.628363,46.7109375 L211.68305,46.7109375 L211.68305,55 L209.628363,55 Z M209.487738,44.65625 C209.487738,44.015625 210.018988,43.5703125 210.6518,43.5703125 C211.292425,43.5703125 211.815863,44.015625 211.815863,44.65625 C211.815863,45.296875 211.292425,45.734375 210.6518,45.734375 C210.018988,45.734375 209.487738,45.296875 209.487738,44.65625 Z M216.506725,55.1484375 C214.233287,55.1484375 212.748912,53.7265625 212.748912,51.1875 L212.748912,50.4296875 C212.748912,48 214.2411,46.5625 216.420787,46.5625 C218.6786,46.5625 220.077037,48.1015625 220.077037,50.484375 L220.077037,51.296875 L214.764537,51.296875 L214.764537,51.5234375 C214.764537,52.78125 215.475475,53.578125 216.52235,53.578125 C217.342662,53.578125 217.920787,53.171875 218.092662,52.5 L219.998912,52.5 C219.8036,53.828125 218.725475,55.1484375 216.506725,55.1484375 Z M214.764537,49.9921875 L218.08485,49.9921875 L218.08485,49.9765625 C218.08485,48.90625 217.436412,48.09375 216.436412,48.09375 C215.4286,48.09375 214.764537,48.9140625 214.764537,49.9765625 L214.764537,49.9921875 Z M219.623912,43.96875 L218.1786,43.96875 L219.764537,41.703125 L221.577037,41.703125 L219.623912,43.96875 Z M213.936412,45.71875 L215.725475,43.296875 L217.108287,43.296875 L218.889537,45.71875 L217.327037,45.71875 L216.436412,44.359375 L216.39735,44.359375 L215.498912,45.71875 L213.936412,45.71875 Z M225.525712,55.109375 C224.42415,55.109375 223.603837,54.5859375 223.197587,53.8046875 L223.11165,53.8046875 L223.11165,57.75 L221.04915,57.75 L221.04915,46.7109375 L223.072587,46.7109375 L223.072587,47.9453125 L223.158525,47.9453125 C223.5804,47.140625 224.42415,46.6015625 225.556962,46.6015625 C227.400712,46.6015625 228.681962,47.984375 228.681962,50.4921875 L228.681962,51.203125 C228.681962,53.6953125 227.408525,55.109375 225.525712,55.109375 Z M224.8929,53.46875 C225.8929,53.46875 226.5804,52.65625 226.5804,51.109375 L226.5804,50.5625 C226.5804,49.0703125 225.931962,48.2421875 224.869462,48.2421875 C223.791337,48.2421875 223.096025,49.1171875 223.096025,50.5546875 L223.096025,51.109375 C223.096025,52.578125 223.79915,53.46875 224.8929,53.46875 Z M232.759,46.7109375 L232.759,44.7265625 L234.759,44.7265625 L234.759,46.7109375 L236.368375,46.7109375 L236.368375,48.3046875 L234.759,48.3046875 L234.759,52.390625 C234.759,53.21875 235.110563,53.46875 235.962125,53.46875 C236.134,53.46875 236.305875,53.4609375 236.399625,53.453125 L236.399625,54.9765625 C236.243375,55.0078125 235.876188,55.046875 235.462125,55.046875 C233.399625,55.046875 232.719938,54.3515625 232.719938,52.65625 L232.719938,48.3046875 L231.548063,48.3046875 L231.548063,46.7109375 L232.759,46.7109375 Z M244.56705,46.7109375 L244.56705,55 L242.559237,55 L242.559237,53.7890625 L242.465487,53.7890625 C242.207675,54.4375 241.44205,55.125 240.074862,55.125 C238.37955,55.125 237.238925,54.140625 237.238925,52.1875 L237.238925,46.7109375 L239.293612,46.7109375 L239.293612,51.640625 C239.293612,53.0078125 240.06705,53.3828125 240.87955,53.3828125 C241.801425,53.3828125 242.50455,52.78125 242.50455,51.6171875 L242.50455,46.7109375 L244.56705,46.7109375 Z M240.043612,57.0390625 C240.043612,56.515625 240.44205,56.1171875 240.934237,56.1171875 C241.44205,56.1171875 241.832675,56.515625 241.832675,57.0390625 C241.832675,57.5390625 241.44205,57.9453125 240.934237,57.9453125 C240.44205,57.9453125 240.043612,57.5390625 240.043612,57.0390625 Z M245.546975,51.15625 L245.546975,50.46875 C245.546975,48.171875 246.921975,46.5625 249.234475,46.5625 C251.328225,46.5625 252.601663,47.890625 252.648538,49.484375 L250.7501,49.484375 C250.640725,48.796875 250.09385,48.203125 249.328225,48.203125 C248.257913,48.203125 247.609475,49.078125 247.609475,50.4921875 L247.609475,51.1484375 C247.609475,52.609375 248.273538,53.5 249.336038,53.5 C250.2501,53.5 250.695413,52.9453125 250.789163,52.3125 L252.6876,52.3125 C252.515725,54.1640625 251.1876,55.1484375 249.226663,55.1484375 C246.9376,55.1484375 245.546975,53.5703125 245.546975,51.15625 Z" id="path-3"></path>
        <filter x="-11.6%" y="-36.9%" width="123.3%" height="173.9%" filterUnits="objectBoundingBox" id="filter-4">
            <feOffset dx="0" dy="0" in="SourceAlpha" result="shadowOffsetOuter1"></feOffset>
            <feGaussianBlur stdDeviation="2" in="shadowOffsetOuter1" result="shadowBlurOuter1"></feGaussianBlur>
            <feColorMatrix values="0 0 0 0 0   0 0 0 0 0   0 0 0 0 0  0 0 0 0.2 0" type="matrix" in="shadowBlurOuter1"></feColorMatrix>
        </filter>
    </defs>
    <g id="bg_info_btn" stroke="none" stroke-width="1" fill="none" fill-rule="evenodd">
        <rect fill="#FFFFFF" x="0" y="0" width="320" height="110"></rect>
        <polygon id="Line-2" fill="#8C96A8" fill-rule="nonzero" points="48.5 52.5 70.5 52.5 70.5 53.5 48.5 53.5 48.5 57.5 39.5 53 48.5 48.5"></polygon>
        <rect id="Rectangle" fill-opacity="0.27" fill="url(#linearGradient-1)" filter="url(#filter-2)" x="172" y="35" width="106" height="38" rx="18"></rect>
        <rect id="Rectangle" fill="url(#linearGradient-1)" x="174" y="32" width="106" height="38" rx="18"></rect>
        <g id="Tiếptục" fill-rule="nonzero">
            <use fill="black" fill-opacity="1" filter="url(#filter-4)" xlink:href="#path-3"></use>
            <use fill="#FFFFFF" xlink:href="#path-3"></use>
        </g>
    </g>
</svg>