<?xml version="1.0" encoding="UTF-8"?>
<svg width="320px" height="100px" viewBox="0 0 320 100" version="1.1" xmlns="http://www.w3.org/2000/svg" xmlns:xlink="http://www.w3.org/1999/xlink">
    <!-- Generator: Sketch 54.1 (76490) - https://sketchapp.com -->
    <title>bg_info_btn03</title>
    <desc>Created with Sketch.</desc>
    <defs>
        <linearGradient x1="50%" y1="0%" x2="50%" y2="100%" id="linearGradient-1">
            <stop stop-color="#FFFFFF" stop-opacity="0.5" offset="0%"></stop>
            <stop stop-color="#FFFFFF" offset="100%"></stop>
        </linearGradient>
        <linearGradient x1="92.8335337%" y1="57.0650077%" x2="26.0731807%" y2="44.4444444%" id="linearGradient-2">
            <stop stop-color="#1BC4C0" offset="0%"></stop>
            <stop stop-color="#02AEC0" offset="100%"></stop>
        </linearGradient>
        <rect id="path-3" x="140" y="30" width="132" height="44" rx="22"></rect>
        <filter x="-18.2%" y="-54.5%" width="136.4%" height="209.1%" filterUnits="objectBoundingBox" id="filter-4">
            <feGaussianBlur stdDeviation="8" in="SourceGraphic"></feGaussianBlur>
        </filter>
        <linearGradient x1="92.8335337%" y1="57.4744898%" x2="26.0731807%" y2="44.122449%" id="linearGradient-5">
            <stop stop-color="#1BC4C0" offset="0%"></stop>
            <stop stop-color="#02AEC0" offset="100%"></stop>
        </linearGradient>
        <rect id="path-6" x="140" y="20" width="140" height="48" rx="24"></rect>
        <path d="M185.805293,48 L181.419551,48 L181.419551,42.9375 L180.356074,42.9375 L180.356074,40.8808594 L181.419551,40.8808594 L181.419551,36.0029297 L185.805293,36.0029297 C189.452754,36.0029297 191.166621,38.1738281 191.166621,41.9707031 C191.166621,45.7851562 189.426387,48 185.805293,48 Z M183.792598,46.0136719 L185.471309,46.0136719 C187.466426,46.0136719 188.714473,45.0029297 188.714473,41.9707031 C188.714473,39.4921875 187.844356,37.9013672 185.471309,37.9013672 L183.792598,37.9013672 L183.792598,40.8808594 L186.341426,40.8808594 L186.341426,42.9375 L183.792598,42.9375 L183.792598,46.0136719 Z M196.528652,38.5078125 C199.27084,38.5078125 200.791348,40.3886719 200.791348,42.9638672 L200.791348,43.6494141 C200.791348,46.3652344 199.279629,48.1669922 196.528652,48.1669922 C193.777676,48.1669922 192.257168,46.3652344 192.257168,43.6582031 L192.257168,42.9726562 C192.257168,40.3974609 193.777676,38.5078125 196.528652,38.5078125 Z M196.528652,40.3007812 C195.192715,40.3007812 194.595059,41.4521484 194.595059,42.9638672 L194.595059,43.6845703 C194.595059,45.1523438 195.175137,46.3652344 196.528652,46.3652344 C197.873379,46.3652344 198.453457,45.1611328 198.453457,43.6845703 L198.453457,42.9638672 C198.453457,41.4433594 197.86459,40.3007812 196.528652,40.3007812 Z M197.240566,37.5585938 L195.61459,37.5585938 L197.39877,35.0009766 L199.437832,35.0009766 L197.240566,37.5585938 Z M201.996152,48 L201.996152,38.6748047 L204.246152,38.6748047 L204.246152,40.0371094 L204.342832,40.0371094 C204.64166,39.3955078 205.494199,38.5253906 207.049863,38.5253906 C208.948301,38.5253906 210.275449,39.7119141 210.275449,41.9970703 L210.275449,48 L207.963926,48 L207.963926,42.4980469 C207.963926,41.0654297 207.137754,40.4941406 206.14459,40.4941406 C204.949277,40.4941406 204.298887,41.3554688 204.298887,42.5332031 L204.298887,48 L201.996152,48 Z M215.690215,49.7138672 C216.929473,49.7138672 217.676543,48.9931641 217.676543,47.7363281 L217.676543,46.4091797 L217.579863,46.4091797 C217.228301,47.2265625 216.252715,47.8769531 214.951934,47.8769531 C212.83377,47.8769531 211.392363,46.3564453 211.392363,43.4912109 L211.392363,42.9111328 C211.392363,40.0810547 212.82498,38.5517578 214.951934,38.5517578 C216.235137,38.5517578 217.228301,39.1933594 217.60623,40.0458984 L217.70291,40.0458984 L217.70291,38.6748047 L219.988066,38.6748047 L219.988066,47.8857422 C219.988066,50.4345703 217.764434,51.4101562 215.655059,51.4101562 C212.974395,51.4101562 211.726348,50.1357422 211.594512,48.5800781 L213.835723,48.5800781 C213.985137,49.2392578 214.670684,49.7138672 215.690215,49.7138672 Z M215.742949,40.3974609 C214.51248,40.3974609 213.76541,41.3115234 213.76541,42.9902344 L213.76541,43.5351562 C213.76541,45.2050781 214.51248,46.1367188 215.742949,46.1367188 C216.938262,46.1367188 217.676543,45.1962891 217.676543,43.5351562 L217.676543,42.9902344 C217.676543,41.3466797 216.903105,40.3974609 215.742949,40.3974609 Z M224.463105,48 L224.463105,35.3701172 L226.783418,35.3701172 L226.783418,48 L224.463105,48 Z M233.54291,46.8662109 C233.173769,47.5517578 232.382754,48.140625 231.01166,48.140625 C229.192324,48.140625 227.944277,47.0683594 227.944277,45.3105469 C227.944277,43.640625 229.104434,42.5683594 231.266543,42.5683594 L233.54291,42.5683594 L233.54291,41.7246094 C233.54291,40.7929688 232.98041,40.2744141 232.004824,40.2744141 C231.055605,40.2744141 230.510684,40.7753906 230.44916,41.5224609 L228.287051,41.5224609 C228.357363,39.9667969 229.359316,38.5253906 232.048769,38.5253906 C234.193301,38.5253906 235.828066,39.5273438 235.828066,41.6982422 L235.828066,48 L233.63959,48 L233.63959,46.8662109 L233.54291,46.8662109 Z M231.75873,46.453125 C232.751894,46.453125 233.54291,45.8466797 233.54291,44.9414062 L233.54291,43.9570312 L231.767519,43.9570312 C230.747988,43.9570312 230.247012,44.4492188 230.247012,45.1611328 C230.247012,46.03125 230.985293,46.453125 231.75873,46.453125 Z M231.099551,50.2939453 C231.099551,49.7050781 231.547793,49.2568359 232.101504,49.2568359 C232.672793,49.2568359 233.112246,49.7050781 233.112246,50.2939453 C233.112246,50.8564453 232.672793,51.3134766 232.101504,51.3134766 C231.547793,51.3134766 231.099551,50.8564453 231.099551,50.2939453 Z M237.410801,48 L237.410801,38.6748047 L239.722324,38.6748047 L239.722324,48 L237.410801,48 Z M237.252598,36.3632812 C237.252598,35.6425781 237.850254,35.1416016 238.562168,35.1416016 C239.282871,35.1416016 239.871738,35.6425781 239.871738,36.3632812 C239.871738,37.0839844 239.282871,37.5761719 238.562168,37.5761719 C237.850254,37.5761719 237.252598,37.0839844 237.252598,36.3632812 Z" id="path-7"></path>
        <filter x="-12.6%" y="-33.5%" width="121.8%" height="179.2%" filterUnits="objectBoundingBox" id="filter-8">
            <feOffset dx="-1" dy="1" in="SourceAlpha" result="shadowOffsetOuter1"></feOffset>
            <feGaussianBlur stdDeviation="2" in="shadowOffsetOuter1" result="shadowBlurOuter1"></feGaussianBlur>
            <feColorMatrix values="0 0 0 0 0   0 0 0 0 0   0 0 0 0 0  0 0 0 0.25 0" type="matrix" in="shadowBlurOuter1"></feColorMatrix>
        </filter>
    </defs>
    <g id="bg_info_btn03" stroke="none" stroke-width="1" fill="none" fill-rule="evenodd">
        <rect id="Rectangle" fill="url(#linearGradient-1)" x="0" y="0" width="320" height="100"></rect>
        <g id="Rectangle" opacity="0.5" filter="url(#filter-4)">
            <use fill="url(#linearGradient-2)" xlink:href="#path-3"></use>
            <use fill-opacity="0.1" fill="#00B0FF" xlink:href="#path-3"></use>
        </g>
        <g id="Rectangle">
            <use fill="url(#linearGradient-5)" xlink:href="#path-6"></use>
            <use fill-opacity="0.1" fill="#00B0FF" xlink:href="#path-6"></use>
        </g>
        <g id="Đónglại" fill-rule="nonzero">
            <use fill="black" fill-opacity="1" filter="url(#filter-8)" xlink:href="#path-7"></use>
            <use fill="#FFFFFF" xlink:href="#path-7"></use>
        </g>
    </g>
</svg>