<?xml version="1.0" encoding="UTF-8"?>
<svg width="320px" height="100px" viewBox="0 0 320 100" version="1.1" xmlns="http://www.w3.org/2000/svg" xmlns:xlink="http://www.w3.org/1999/xlink">
    <!-- Generator: Sketch 54.1 (76490) - https://sketchapp.com -->
    <title>bg_info_btn02</title>
    <desc>Created with Sketch.</desc>
    <defs>
        <linearGradient x1="50%" y1="0%" x2="50%" y2="100%" id="linearGradient-1">
            <stop stop-color="#FFFFFF" stop-opacity="0.5" offset="0%"></stop>
            <stop stop-color="#FFFFFF" offset="100%"></stop>
        </linearGradient>
        <linearGradient x1="92.8335337%" y1="57.0650077%" x2="26.0731807%" y2="44.4444444%" id="linearGradient-2">
            <stop stop-color="#1BC4C0" offset="0%"></stop>
            <stop stop-color="#02AEC0" offset="100%"></stop>
        </linearGradient>
        <rect id="path-3" x="140" y="30" width="132" height="44" rx="22"></rect>
        <filter x="-18.2%" y="-54.5%" width="136.4%" height="209.1%" filterUnits="objectBoundingBox" id="filter-4">
            <feGaussianBlur stdDeviation="8" in="SourceGraphic"></feGaussianBlur>
        </filter>
        <linearGradient x1="92.8335337%" y1="57.4744898%" x2="26.0731807%" y2="44.122449%" id="linearGradient-5">
            <stop stop-color="#1BC4C0" offset="0%"></stop>
            <stop stop-color="#02AEC0" offset="100%"></stop>
        </linearGradient>
        <rect id="path-6" x="140" y="20" width="140" height="48" rx="24"></rect>
        <path d="M189.461543,48 L187.079707,48 L187.079707,42.8583984 L182.043574,42.8583984 L182.043574,48 L179.670527,48 L179.670527,36.0029297 L182.043574,36.0029297 L182.043574,40.8808594 L187.079707,40.8808594 L187.079707,36.0029297 L189.461543,36.0029297 L189.461543,48 Z M195.060879,38.5078125 C197.803066,38.5078125 199.323574,40.3886719 199.323574,42.9638672 L199.323574,43.6494141 C199.323574,46.3652344 197.811856,48.1669922 195.060879,48.1669922 C192.309902,48.1669922 190.789395,46.3652344 190.789395,43.6582031 L190.789395,42.9726562 C190.789395,40.3974609 192.309902,38.5078125 195.060879,38.5078125 Z M195.060879,40.3007812 C193.724941,40.3007812 193.127285,41.4521484 193.127285,42.9638672 L193.127285,43.6845703 C193.127285,45.1523438 193.707363,46.3652344 195.060879,46.3652344 C196.405606,46.3652344 196.985684,45.1611328 196.985684,43.6845703 L196.985684,42.9638672 C196.985684,41.4433594 196.396816,40.3007812 195.060879,40.3007812 Z M205.643613,46.8662109 C205.274473,47.5517578 204.483457,48.140625 203.112363,48.140625 C201.293027,48.140625 200.044981,47.0683594 200.044981,45.3105469 C200.044981,43.640625 201.205137,42.5683594 203.367246,42.5683594 L205.643613,42.5683594 L205.643613,41.7246094 C205.643613,40.7929688 205.081113,40.2744141 204.105527,40.2744141 C203.156309,40.2744141 202.611387,40.7753906 202.549863,41.5224609 L200.387754,41.5224609 C200.458066,39.9667969 201.46002,38.5253906 204.149473,38.5253906 C206.294004,38.5253906 207.92877,39.5273438 207.92877,41.6982422 L207.92877,48 L205.740293,48 L205.740293,46.8662109 L205.643613,46.8662109 Z M203.859434,46.453125 C204.852598,46.453125 205.643613,45.8466797 205.643613,44.9414062 L205.643613,43.9570312 L203.868223,43.9570312 C202.848691,43.9570312 202.347715,44.4492188 202.347715,45.1611328 C202.347715,46.03125 203.085996,46.453125 203.859434,46.453125 Z M205.11627,37.5585938 L203.490293,37.5585938 L201.293027,35.0009766 L203.33209,35.0009766 L205.11627,37.5585938 Z M209.423613,48 L209.423613,38.6748047 L211.673613,38.6748047 L211.673613,40.0371094 L211.770293,40.0371094 C212.069121,39.3955078 212.92166,38.5253906 214.477324,38.5253906 C216.375762,38.5253906 217.70291,39.7119141 217.70291,41.9970703 L217.70291,48 L215.391387,48 L215.391387,42.4980469 C215.391387,41.0654297 214.565215,40.4941406 213.572051,40.4941406 C212.376738,40.4941406 211.726348,41.3554688 211.726348,42.5332031 L211.726348,48 L209.423613,48 Z M222.722871,38.6748047 L222.722871,36.4423828 L224.972871,36.4423828 L224.972871,38.6748047 L226.783418,38.6748047 L226.783418,40.4677734 L224.972871,40.4677734 L224.972871,45.0644531 C224.972871,45.9960938 225.368379,46.2773438 226.326387,46.2773438 C226.519746,46.2773438 226.713105,46.2685547 226.818574,46.2597656 L226.818574,47.9736328 C226.642793,48.0087891 226.229707,48.0527344 225.763887,48.0527344 C223.443574,48.0527344 222.678926,47.2705078 222.678926,45.3632812 L222.678926,40.4677734 L221.360566,40.4677734 L221.360566,38.6748047 L222.722871,38.6748047 Z M233.041934,46.8662109 C232.672793,47.5517578 231.881777,48.140625 230.510684,48.140625 C228.691348,48.140625 227.443301,47.0683594 227.443301,45.3105469 C227.443301,43.640625 228.603457,42.5683594 230.765566,42.5683594 L233.041934,42.5683594 L233.041934,41.7246094 C233.041934,40.7929688 232.479434,40.2744141 231.503848,40.2744141 C230.554629,40.2744141 230.009707,40.7753906 229.948184,41.5224609 L227.786074,41.5224609 C227.856387,39.9667969 228.85834,38.5253906 231.547793,38.5253906 C233.692324,38.5253906 235.32709,39.5273438 235.32709,41.6982422 L235.32709,48 L233.138613,48 L233.138613,46.8662109 L233.041934,46.8662109 Z M231.257754,46.453125 C232.250918,46.453125 233.041934,45.8466797 233.041934,44.9414062 L233.041934,43.9570312 L231.266543,43.9570312 C230.247012,43.9570312 229.746035,44.4492188 229.746035,45.1611328 C229.746035,46.03125 230.484316,46.453125 231.257754,46.453125 Z M235.204043,35.5898438 L233.578066,35.5898438 L235.362246,33.0410156 L237.401309,33.0410156 L235.204043,35.5898438 Z M228.805605,37.5585938 L230.818301,34.8339844 L232.373965,34.8339844 L234.377871,37.5585938 L232.620059,37.5585938 L231.618105,36.0292969 L231.57416,36.0292969 L230.563418,37.5585938 L228.805605,37.5585938 Z M237.516269,38.6748047 L237.516269,36.4423828 L239.766269,36.4423828 L239.766269,38.6748047 L241.576816,38.6748047 L241.576816,40.4677734 L239.766269,40.4677734 L239.766269,45.0644531 C239.766269,45.9960938 240.161777,46.2773438 241.119785,46.2773438 C241.313144,46.2773438 241.506504,46.2685547 241.611973,46.2597656 L241.611973,47.9736328 C241.436191,48.0087891 241.023105,48.0527344 240.557285,48.0527344 C238.236973,48.0527344 237.472324,47.2705078 237.472324,45.3632812 L237.472324,40.4677734 L236.153965,40.4677734 L236.153965,38.6748047 L237.516269,38.6748047 Z" id="path-7"></path>
        <filter x="-12.1%" y="-36.4%" width="121.0%" height="185.9%" filterUnits="objectBoundingBox" id="filter-8">
            <feOffset dx="-1" dy="1" in="SourceAlpha" result="shadowOffsetOuter1"></feOffset>
            <feGaussianBlur stdDeviation="2" in="shadowOffsetOuter1" result="shadowBlurOuter1"></feGaussianBlur>
            <feColorMatrix values="0 0 0 0 0   0 0 0 0 0   0 0 0 0 0  0 0 0 0.25 0" type="matrix" in="shadowBlurOuter1"></feColorMatrix>
        </filter>
    </defs>
    <g id="bg_info_btn02" stroke="none" stroke-width="1" fill="none" fill-rule="evenodd">
        <rect id="Rectangle" fill="url(#linearGradient-1)" x="0" y="0" width="320" height="100"></rect>
        <polygon id="Line-2" fill="#8C96A8" fill-rule="nonzero" points="49 44 71 44 71 45 49 45 49 49 40 44.5 49 40"></polygon>
        <g id="Rectangle" opacity="0.5" filter="url(#filter-4)">
            <use fill="url(#linearGradient-2)" xlink:href="#path-3"></use>
            <use fill-opacity="0.1" fill="#00B0FF" xlink:href="#path-3"></use>
        </g>
        <g id="Rectangle">
            <use fill="url(#linearGradient-5)" xlink:href="#path-6"></use>
            <use fill-opacity="0.1" fill="#00B0FF" xlink:href="#path-6"></use>
        </g>
        <g id="Hoàntất" fill-rule="nonzero">
            <use fill="black" fill-opacity="1" filter="url(#filter-8)" xlink:href="#path-7"></use>
            <use fill="#FFFFFF" xlink:href="#path-7"></use>
        </g>
    </g>
</svg>