<?xml version="1.0" encoding="UTF-8"?>
<svg width="320px" height="100px" viewBox="0 0 320 100" version="1.1" xmlns="http://www.w3.org/2000/svg" xmlns:xlink="http://www.w3.org/1999/xlink">
    <!-- Generator: Sketch 54.1 (76490) - https://sketchapp.com -->
    <title>bg_info_btn</title>
    <desc>Created with Sketch.</desc>
    <defs>
        <linearGradient x1="76.3639937%" y1="56.4257743%" x2="26.0731807%" y2="43.5742257%" id="linearGradient-1">
            <stop stop-color="#1BC4C0" offset="0%"></stop>
            <stop stop-color="#02AEC0" offset="100%"></stop>
        </linearGradient>
        <filter x="-8.5%" y="-23.7%" width="117.0%" height="147.4%" filterUnits="objectBoundingBox" id="filter-2">
            <feGaussianBlur stdDeviation="3" in="SourceGraphic"></feGaussianBlur>
        </filter>
        <path d="M206.183447,49.0986051 L204.056501,49.0986051 L204.056501,40.3328523 L201,40.3328523 L201,38.5935546 L209.239948,38.5935546 L209.239948,40.3328523 L206.183447,40.3328523 L206.183447,49.0986051 Z M209.582074,49.0986051 L209.582074,40.9331409 L211.653877,40.9331409 L211.653877,49.0986051 L209.582074,49.0986051 Z M209.440278,38.9090909 C209.440278,38.2780183 209.975953,37.8393458 210.614037,37.8393458 C211.259998,37.8393458 211.787796,38.2780183 211.787796,38.9090909 C211.787796,39.5401635 211.259998,39.97114 210.614037,39.97114 C209.975953,39.97114 209.440278,39.5401635 209.440278,38.9090909 Z M216.517734,49.2448292 C214.225359,49.2448292 212.728619,47.8441558 212.728619,45.3429533 L212.728619,44.5964406 C212.728619,42.2029822 214.233236,40.7869168 216.431081,40.7869168 C218.707701,40.7869168 220.117788,42.3030303 220.117788,44.6503127 L220.117788,45.4506975 L214.761034,45.4506975 L214.761034,45.6738817 C214.761034,46.9129389 215.477894,47.6979317 216.533489,47.6979317 C217.360635,47.6979317 217.943576,47.2977393 218.116883,46.6358826 L220.039012,46.6358826 C219.842072,47.9442039 218.754967,49.2448292 216.517734,49.2448292 Z M214.761034,44.1654642 L218.109005,44.1654642 L218.109005,44.1500722 C218.109005,43.0957191 217.455166,42.2953343 216.446836,42.2953343 C215.430628,42.2953343 214.761034,43.1034151 214.761034,44.1500722 L214.761034,44.1654642 Z M219.660888,38.2318422 L218.203536,38.2318422 L219.802685,36 L221.630283,36 L219.660888,38.2318422 Z M213.926011,39.955748 L215.729976,37.5699856 L217.124308,37.5699856 L218.920396,39.955748 L217.34488,39.955748 L216.446836,38.6166426 L216.407448,38.6166426 L215.501526,39.955748 L213.926011,39.955748 Z M225.611851,49.2063492 C224.501112,49.2063492 223.673966,48.6907167 223.264332,47.9211159 L223.177679,47.9211159 L223.177679,51.8075998 L221.097998,51.8075998 L221.097998,40.9331409 L223.138291,40.9331409 L223.138291,42.1491101 L223.224944,42.1491101 C223.650334,41.3564214 224.501112,40.8253968 225.643361,40.8253968 C227.50247,40.8253968 228.794393,42.1875902 228.794393,44.6580087 L228.794393,45.3583454 C228.794393,47.8133718 227.510347,49.2063492 225.611851,49.2063492 Z M224.973767,47.5901876 C225.982097,47.5901876 226.675324,46.7898028 226.675324,45.2659933 L226.675324,44.7272727 C226.675324,43.2573353 226.021485,42.4415584 224.950134,42.4415584 C223.863028,42.4415584 223.161924,43.3035113 223.161924,44.7195767 L223.161924,45.2659933 C223.161924,46.7128427 223.870906,47.5901876 224.973767,47.5901876 Z M232.905392,40.9331409 L232.905392,38.978355 L234.922053,38.978355 L234.922053,40.9331409 L236.544834,40.9331409 L236.544834,42.5031265 L234.922053,42.5031265 L234.922053,46.5281385 C234.922053,47.3439153 235.276544,47.5901876 236.1352,47.5901876 C236.308507,47.5901876 236.481813,47.5824916 236.576344,47.5747956 L236.576344,49.0755171 C236.418793,49.1063011 236.048546,49.1447811 235.631035,49.1447811 C233.551354,49.1447811 232.866005,48.4598365 232.866005,46.7898028 L232.866005,42.5031265 L231.684368,42.5031265 L231.684368,40.9331409 L232.905392,40.9331409 Z M244.811805,40.9331409 L244.811805,49.0986051 L242.787267,49.0986051 L242.787267,47.9057239 L242.692736,47.9057239 C242.432776,48.5444925 241.660773,49.2217412 240.282197,49.2217412 C238.572762,49.2217412 237.422636,48.2520443 237.422636,46.3280423 L237.422636,40.9331409 L239.494439,40.9331409 L239.494439,45.7893218 C239.494439,47.1361231 240.274319,47.5055315 241.093588,47.5055315 C242.023142,47.5055315 242.732124,46.9129389 242.732124,45.7662338 L242.732124,40.9331409 L244.811805,40.9331409 Z M240.250687,51.1072631 C240.250687,50.5916306 240.652443,50.1991342 241.148731,50.1991342 C241.660773,50.1991342 242.054652,50.5916306 242.054652,51.1072631 C242.054652,51.5998076 241.660773,52 241.148731,52 C240.652443,52 240.250687,51.5998076 240.250687,51.1072631 Z M245.799893,45.3121693 L245.799893,44.6349206 C245.799893,42.3722944 247.186347,40.7869168 249.51811,40.7869168 C251.629301,40.7869168 252.913347,42.0952381 252.960612,43.6652237 L251.04636,43.6652237 C250.936074,42.987975 250.384644,42.4030784 249.612641,42.4030784 C248.533413,42.4030784 247.879574,43.2650313 247.879574,44.6580087 L247.879574,45.3044733 C247.879574,46.7436267 248.549168,47.6209716 249.620519,47.6209716 C250.542195,47.6209716 250.991217,47.0745551 251.085748,46.4511785 L253,46.4511785 C252.826693,48.2751323 251.487505,49.2448292 249.510232,49.2448292 C247.202102,49.2448292 245.799893,47.6902357 245.799893,45.3121693 Z" id="path-3"></path>
        <filter x="-11.5%" y="-37.5%" width="123.1%" height="175.0%" filterUnits="objectBoundingBox" id="filter-4">
            <feOffset dx="0" dy="0" in="SourceAlpha" result="shadowOffsetOuter1"></feOffset>
            <feGaussianBlur stdDeviation="2" in="shadowOffsetOuter1" result="shadowBlurOuter1"></feGaussianBlur>
            <feColorMatrix values="0 0 0 0 0   0 0 0 0 0   0 0 0 0 0  0 0 0 0.2 0" type="matrix" in="shadowBlurOuter1"></feColorMatrix>
        </filter>
    </defs>
    <g id="bg_info_btn" stroke="none" stroke-width="1" fill="none" fill-rule="evenodd">
        <polygon id="Line-2" fill="#8C96A8" fill-rule="nonzero" points="49 46 71 46 71 47 49 47 49 51 40 46.5 49 42"></polygon>
        <rect id="Rectangle" fill-opacity="0.27" fill="url(#linearGradient-1)" filter="url(#filter-2)" x="172" y="29" width="106" height="38" rx="18"></rect>
        <rect id="Rectangle" fill="url(#linearGradient-1)" x="174" y="26" width="106" height="38" rx="18"></rect>
        <g id="Tiếptục" fill-rule="nonzero">
            <use fill="black" fill-opacity="1" filter="url(#filter-4)" xlink:href="#path-3"></use>
            <use fill="#FFFFFF" xlink:href="#path-3"></use>
        </g>
    </g>
</svg>