<?xml version="1.0" encoding="UTF-8"?>
<svg width="320px" height="305px" viewBox="0 0 320 305" version="1.1" xmlns="http://www.w3.org/2000/svg" xmlns:xlink="http://www.w3.org/1999/xlink">
    <!-- Generator: Sketch 54.1 (76490) - https://sketchapp.com -->
    <title>overlay_register_popup</title>
    <desc>Created with Sketch.</desc>
    <defs>
        <linearGradient x1="13.729807%" y1="100%" x2="116.141476%" y2="-195.319758%" id="linearGradient-1">
            <stop stop-color="#F50057" offset="0%"></stop>
            <stop stop-color="#AA00FF" offset="100%"></stop>
        </linearGradient>
        <circle id="path-2" cx="44.5" cy="195.5" r="4.5"></circle>
        <filter x="-16.7%" y="-16.7%" width="133.3%" height="133.3%" filterUnits="objectBoundingBox" id="filter-3">
            <feGaussianBlur stdDeviation="1" in="SourceAlpha" result="shadowBlurInner1"></feGaussianBlur>
            <feOffset dx="-1" dy="1" in="shadowBlurInner1" result="shadowOffsetInner1"></feOffset>
            <feComposite in="shadowOffsetInner1" in2="SourceAlpha" operator="arithmetic" k2="-1" k3="1" result="shadowInnerInner1"></feComposite>
            <feColorMatrix values="0 0 0 0 0   0 0 0 0 0   0 0 0 0 0  0 0 0 0.3 0" type="matrix" in="shadowInnerInner1"></feColorMatrix>
        </filter>
        <circle id="path-4" cx="44.5" cy="261.5" r="4.5"></circle>
        <filter x="-16.7%" y="-16.7%" width="133.3%" height="133.3%" filterUnits="objectBoundingBox" id="filter-5">
            <feGaussianBlur stdDeviation="1" in="SourceAlpha" result="shadowBlurInner1"></feGaussianBlur>
            <feOffset dx="-1" dy="1" in="shadowBlurInner1" result="shadowOffsetInner1"></feOffset>
            <feComposite in="shadowOffsetInner1" in2="SourceAlpha" operator="arithmetic" k2="-1" k3="1" result="shadowInnerInner1"></feComposite>
            <feColorMatrix values="0 0 0 0 0   0 0 0 0 0   0 0 0 0 0  0 0 0 0.3 0" type="matrix" in="shadowInnerInner1"></feColorMatrix>
        </filter>
    </defs>
    <g id="overlay_register_popup" stroke="none" stroke-width="1" fill="none" fill-rule="evenodd">
        <rect id="Rectangle" fill="#FFFFFF" x="0" y="51" width="320" height="254"></rect>
        <path d="M3.04720534,293 C3.01573507,293.166826 3,293.339903 3,293.519231 C3,294.198721 3.22884537,294.782049 3.68654298,295.269231 C4.14424058,295.756413 4.68408094,296 5.30608025,296 C5.91634372,296 6.45325017,295.759618 6.91681569,295.278846 C7.38038122,294.798075 7.6121605,294.211542 7.6121605,293.519231 C7.6121605,293.339903 7.59622108,293.166826 7.5643421,293 L12.7468253,293 C12.7153551,293.166826 12.69962,293.339903 12.69962,293.519231 C12.69962,294.198721 12.9284654,294.782049 13.386163,295.269231 C13.8438606,295.756413 14.3837009,296 15.0057002,296 C15.6159637,296 16.1528702,295.759618 16.6164357,295.278846 C17.0800012,294.798075 17.3117805,294.211542 17.3117805,293.519231 C17.3117805,293.339903 17.2958411,293.166826 17.2639621,293 L22.4464453,293 C22.414975,293.166826 22.39924,293.339903 22.39924,293.519231 C22.39924,294.198721 22.6280853,294.782049 23.0857829,295.269231 C23.5434805,295.756413 24.0833209,296 24.7053202,296 C25.3273195,296 25.8671599,295.756413 26.3248575,295.269231 C26.7825551,294.782049 27.0114005,294.198721 27.0114005,293.519231 C27.0114005,293.339903 26.9956654,293.166826 26.9641951,293 L32.1460653,293 C32.114595,293.166826 32.09886,293.339903 32.09886,293.519231 C32.09886,294.198721 32.3277053,294.782049 32.7854029,295.269231 C33.2431005,295.756413 33.7829409,296 34.4049402,296 C35.0152037,296 35.5521101,295.759618 36.0156756,295.278846 C36.4792412,294.798075 36.7110205,294.211542 36.7110205,293.519231 C36.7110205,293.339903 36.695081,293.166826 36.6632021,293 L41.8456853,293 C41.814215,293.166826 41.7984799,293.339903 41.7984799,293.519231 C41.7984799,294.198721 42.0273253,294.782049 42.4850229,295.269231 C42.9427205,295.756413 43.4825609,296 44.1045602,296 C44.7148237,296 45.2517301,295.759618 45.7152956,295.278846 C46.1788612,294.798075 46.4106404,294.211542 46.4106404,293.519231 C46.4106404,293.339903 46.394701,293.166826 46.362822,293 L51.5453053,293 C51.513835,293.166826 51.4980999,293.339903 51.4980999,293.519231 C51.4980999,294.198721 51.7269453,294.782049 52.1846429,295.269231 C52.6423405,295.756413 53.1821809,296 53.8041802,296 C54.4261795,296 54.9660198,295.756413 55.4237174,295.269231 C55.8814151,294.782049 56.1102604,294.198721 56.1102604,293.519231 C56.1102604,293.339903 56.0945254,293.166826 56.0630551,293 L61.2449252,293 C61.213455,293.166826 61.1977199,293.339903 61.1977199,293.519231 C61.1977199,294.198721 61.4265653,294.782049 61.8842629,295.269231 C62.3419605,295.756413 62.8818008,296 63.5038002,296 C64.1140636,296 64.6509701,295.759618 65.1145356,295.278846 C65.5781011,294.798075 65.8098804,294.211542 65.8098804,293.519231 C65.8098804,293.339903 65.793941,293.166826 65.762062,293 L70.9445452,293 C70.913075,293.166826 70.8973399,293.339903 70.8973399,293.519231 C70.8973399,294.198721 71.1261853,294.782049 71.5838829,295.269231 C72.0415805,295.756413 72.5814208,296 73.2034201,296 C73.8136836,296 74.3505901,295.759618 74.8141556,295.278846 C75.2777211,294.798075 75.5095004,294.211542 75.5095004,293.519231 C75.5095004,293.339903 75.493561,293.166826 75.461682,293 L80.6441652,293 C80.6126949,293.166826 80.5969599,293.339903 80.5969599,293.519231 C80.5969599,294.198721 80.8258052,294.782049 81.2835029,295.269231 C81.7412005,295.756413 82.2810408,296 82.9030401,296 C83.5250394,296 84.0648798,295.756413 84.5225774,295.269231 C84.980275,294.782049 85.2091204,294.198721 85.2091204,293.519231 C85.2091204,293.339903 85.1933853,293.166826 85.161915,293 L90.3437852,293 C90.3123149,293.166826 90.2965799,293.339903 90.2965799,293.519231 C90.2965799,294.198721 90.5254252,294.782049 90.9831228,295.269231 C91.4408204,295.756413 91.9806608,296 92.6026601,296 C93.2129236,296 93.74983,295.759618 94.2133956,295.278846 C94.6769611,294.798075 94.9087404,294.211542 94.9087404,293.519231 C94.9087404,293.339903 94.8928009,293.166826 94.860922,293 L100.043405,293 C100.011935,293.166826 99.9961998,293.339903 99.9961998,293.519231 C99.9961998,294.198721 100.225045,294.782049 100.682743,295.269231 C101.14044,295.756413 101.680281,296 102.30228,296 C102.912544,296 103.44945,295.759618 103.913016,295.278846 C104.376581,294.798075 104.60836,294.211542 104.60836,293.519231 C104.60836,293.339903 104.592421,293.166826 104.560542,293 L109.743025,293 C109.711555,293.166826 109.69582,293.339903 109.69582,293.519231 C109.69582,294.198721 109.924665,294.782049 110.382363,295.269231 C110.84006,295.756413 111.379901,296 112.0019,296 C112.623899,296 113.16374,295.756413 113.621437,295.269231 C114.079135,294.782049 114.30798,294.198721 114.30798,293.519231 C114.30798,293.339903 114.292245,293.166826 114.260775,293 L119.442645,293 C119.411175,293.166826 119.39544,293.339903 119.39544,293.519231 C119.39544,294.198721 119.624285,294.782049 120.081983,295.269231 C120.53968,295.756413 121.079521,296 121.70152,296 C122.311784,296 122.84869,295.759618 123.312256,295.278846 C123.775821,294.798075 124.0076,294.211542 124.0076,293.519231 C124.0076,293.339903 123.991661,293.166826 123.959782,293 L129.142265,293 C129.110795,293.166826 129.09506,293.339903 129.09506,293.519231 C129.09506,294.198721 129.323905,294.782049 129.781603,295.269231 C130.2393,295.756413 130.779141,296 131.40114,296 C132.011404,296 132.54831,295.759618 133.011875,295.278846 C133.475441,294.798075 133.70722,294.211542 133.70722,293.519231 C133.70722,293.339903 133.691281,293.166826 133.659402,293 L138.841885,293 C138.810415,293.166826 138.79468,293.339903 138.79468,293.519231 C138.79468,294.198721 139.023525,294.782049 139.481223,295.269231 C139.93892,295.756413 140.478761,296 141.10076,296 C141.722759,296 142.2626,295.756413 142.720297,295.269231 C143.177995,294.782049 143.40684,294.198721 143.40684,293.519231 C143.40684,293.339903 143.391105,293.166826 143.359635,293 L148.541505,293 C148.510035,293.166826 148.4943,293.339903 148.4943,293.519231 C148.4943,294.198721 148.723145,294.782049 149.180843,295.269231 C149.63854,295.756413 150.178381,296 150.80038,296 C151.410643,296 151.94755,295.759618 152.411115,295.278846 C152.874681,294.798075 153.10646,294.211542 153.10646,293.519231 C153.10646,293.339903 153.090521,293.166826 153.058642,293 L158.241125,293 C158.209655,293.166826 158.19392,293.339903 158.19392,293.519231 C158.19392,294.198721 158.422765,294.782049 158.880463,295.269231 C159.33816,295.756413 159.878001,296 160.5,296 C161.110263,296 161.64717,295.759618 162.110735,295.278846 C162.574301,294.798075 162.80608,294.211542 162.80608,293.519231 C162.80608,293.339903 162.790141,293.166826 162.758262,293 L167.940745,293 C167.909275,293.166826 167.89354,293.339903 167.89354,293.519231 C167.89354,294.198721 168.122385,294.782049 168.580083,295.269231 C169.03778,295.756413 169.577621,296 170.19962,296 C170.821619,296 171.36146,295.756413 171.819157,295.269231 C172.276855,294.782049 172.5057,294.198721 172.5057,293.519231 C172.5057,293.339903 172.489965,293.166826 172.458495,293 L177.640365,293 C177.608895,293.166826 177.59316,293.339903 177.59316,293.519231 C177.59316,294.198721 177.822005,294.782049 178.279703,295.269231 C178.7374,295.756413 179.277241,296 179.89924,296 C180.509503,296 181.04641,295.759618 181.509975,295.278846 C181.973541,294.798075 182.20532,294.211542 182.20532,293.519231 C182.20532,293.339903 182.189381,293.166826 182.157502,293 L187.339985,293 C187.308515,293.166826 187.29278,293.339903 187.29278,293.519231 C187.29278,294.198721 187.521625,294.782049 187.979323,295.269231 C188.43702,295.756413 188.976861,296 189.59886,296 C190.209123,296 190.74603,295.759618 191.209595,295.278846 C191.673161,294.798075 191.90494,294.211542 191.90494,293.519231 C191.90494,293.339903 191.889001,293.166826 191.857122,293 L197.039605,293 C197.008135,293.166826 196.9924,293.339903 196.9924,293.519231 C196.9924,294.198721 197.221245,294.782049 197.678943,295.269231 C198.13664,295.756413 198.676481,296 199.29848,296 C199.920479,296 200.46032,295.756413 200.918017,295.269231 C201.375715,294.782049 201.60456,294.198721 201.60456,293.519231 C201.60456,293.339903 201.588825,293.166826 201.557355,293 L206.739225,293 C206.707755,293.166826 206.69202,293.339903 206.69202,293.519231 C206.69202,294.198721 206.920865,294.782049 207.378563,295.269231 C207.83626,295.756413 208.376101,296 208.9981,296 C209.608363,296 210.14527,295.759618 210.608835,295.278846 C211.072401,294.798075 211.30418,294.211542 211.30418,293.519231 C211.30418,293.339903 211.288241,293.166826 211.256362,293 L216.438845,293 C216.407375,293.166826 216.39164,293.339903 216.39164,293.519231 C216.39164,294.198721 216.620485,294.782049 217.078183,295.269231 C217.53588,295.756413 218.075721,296 218.69772,296 C219.307983,296 219.84489,295.759618 220.308455,295.278846 C220.772021,294.798075 221.0038,294.211542 221.0038,293.519231 C221.0038,293.339903 220.987861,293.166826 220.955982,293 L226.138465,293 C226.106995,293.166826 226.09126,293.339903 226.09126,293.519231 C226.09126,294.198721 226.320105,294.782049 226.777803,295.269231 C227.2355,295.756413 227.775341,296 228.39734,296 C229.019339,296 229.55918,295.756413 230.016877,295.269231 C230.474575,294.782049 230.70342,294.198721 230.70342,293.519231 C230.70342,293.339903 230.687685,293.166826 230.656215,293 L235.838085,293 C235.806615,293.166826 235.79088,293.339903 235.79088,293.519231 C235.79088,294.198721 236.019725,294.782049 236.477423,295.269231 C236.93512,295.756413 237.474961,296 238.09696,296 C238.707223,296 239.24413,295.759618 239.707695,295.278846 C240.171261,294.798075 240.40304,294.211542 240.40304,293.519231 C240.40304,293.339903 240.387101,293.166826 240.355222,293 L245.537705,293 C245.506235,293.166826 245.4905,293.339903 245.4905,293.519231 C245.4905,294.198721 245.719345,294.782049 246.177043,295.269231 C246.63474,295.756413 247.174581,296 247.79658,296 C248.406843,296 248.94375,295.759618 249.407315,295.278846 C249.870881,294.798075 250.10266,294.211542 250.10266,293.519231 C250.10266,293.339903 250.086721,293.166826 250.054842,293 L255.237325,293 C255.205855,293.166826 255.19012,293.339903 255.19012,293.519231 C255.19012,294.198721 255.418965,294.782049 255.876663,295.269231 C256.33436,295.756413 256.874201,296 257.4962,296 C258.118199,296 258.65804,295.756413 259.115737,295.269231 C259.573435,294.782049 259.80228,294.198721 259.80228,293.519231 C259.80228,293.339903 259.786545,293.166826 259.755075,293 L264.936945,293 C264.905475,293.166826 264.88974,293.339903 264.88974,293.519231 C264.88974,294.198721 265.118585,294.782049 265.576283,295.269231 C266.03398,295.756413 266.573821,296 267.19582,296 C267.806083,296 268.34299,295.759618 268.806555,295.278846 C269.270121,294.798075 269.5019,294.211542 269.5019,293.519231 C269.5019,293.339903 269.485961,293.166826 269.454082,293 L274.636565,293 C274.605095,293.166826 274.58936,293.339903 274.58936,293.519231 C274.58936,294.198721 274.818205,294.782049 275.275903,295.269231 C275.7336,295.756413 276.273441,296 276.89544,296 C277.505703,296 278.04261,295.759618 278.506175,295.278846 C278.969741,294.798075 279.20152,294.211542 279.20152,293.519231 C279.20152,293.339903 279.185581,293.166826 279.153702,293 L284.336185,293 C284.304715,293.166826 284.28898,293.339903 284.28898,293.519231 C284.28898,294.198721 284.517825,294.782049 284.975523,295.269231 C285.43322,295.756413 285.97306,296 286.59506,296 C287.217059,296 287.756899,295.756413 288.214597,295.269231 C288.672295,294.782049 288.90114,294.198721 288.90114,293.519231 C288.90114,293.339903 288.885405,293.166826 288.853935,293 L294.035805,293 C294.004335,293.166826 293.9886,293.339903 293.9886,293.519231 C293.9886,294.198721 294.217445,294.782049 294.675143,295.269231 C295.13284,295.756413 295.67268,296 296.29468,296 C296.904943,296 297.44185,295.759618 297.905415,295.278846 C298.368981,294.798075 298.60076,294.211542 298.60076,293.519231 C298.60076,293.339903 298.584821,293.166826 298.552942,293 L303.735425,293 C303.703955,293.166826 303.68822,293.339903 303.68822,293.519231 C303.68822,294.198721 303.917065,294.782049 304.374762,295.269231 C304.83246,295.756413 305.3723,296 305.9943,296 C306.604563,296 307.14147,295.759618 307.605035,295.278846 C308.068601,294.798075 308.30038,294.211542 308.30038,293.519231 C308.30038,293.339903 308.284441,293.166826 308.252562,293 L313.435045,293 C313.403575,293.166826 313.387839,293.339903 313.387839,293.519231 C313.387839,294.198721 313.616685,294.782049 314.074382,295.269231 C314.53208,295.756413 315.07192,296 315.69392,296 C316.315919,296 316.855759,295.756413 317.313457,295.269231 C317.771155,294.782049 318,294.198721 318,293.519231 C318,293.339903 317.984265,293.166826 317.952795,293 L320,293 L320,302 L0,302 L0,293 L3.04720534,293 Z" id="Rectangle-2" fill="#FFFFFF"></path>
        <text id="…………………………….……………………" font-family="SFCompactDisplay-Regular, SF Compact Display" font-size="13.5" font-weight="normal" line-spacing="19" letter-spacing="-0.135" fill="#DADFE7">
            <tspan x="60" y="227">…………………………….…………………………….…….</tspan>
        </text>
        <text id="Đăng-ký" font-family="SFCompactDisplay-Semibold, SF Compact Display" font-size="24" font-weight="500" letter-spacing="-1.676471" fill="#343D51">
            <tspan x="40" y="106">Đăng ký</tspan>
        </text>
        <text id="Cho-Chanchan-biết-lự" font-family="SFCompactDisplay-Regular, SF Compact Display" font-size="13.5" font-weight="normal" line-spacing="19" letter-spacing="-0.140000001" fill="#5D6A80">
            <tspan x="40" y="137">Cho Chanchan biết lựa chọn nào dưới đây </tspan>
            <tspan x="40" y="156">phù hợp với bạn</tspan>
        </text>
        <text id="Cần-tư-vấn-thêm-về-c" font-family="SFCompactDisplay-Semibold, SF Compact Display" font-size="15" font-weight="500" letter-spacing="-0.678" fill="#343D51">
            <tspan x="60" y="200">Cần tư vấn thêm về chương trình</tspan>
        </text>
        <text id="Đăng-ký-ngay" font-family="SFCompactDisplay-Semibold, SF Compact Display" font-size="15" font-weight="500" letter-spacing="-0.678" fill="#343D51">
            <tspan x="60" y="266">Đăng ký ngay</tspan>
        </text>
        <g id="Oval">
            <use fill="url(#linearGradient-1)" fill-rule="evenodd" xlink:href="#path-2"></use>
            <use fill="black" fill-opacity="1" filter="url(#filter-3)" xlink:href="#path-2"></use>
        </g>
        <g id="Oval">
            <use fill="url(#linearGradient-1)" fill-rule="evenodd" xlink:href="#path-4"></use>
            <use fill="black" fill-opacity="1" filter="url(#filter-5)" xlink:href="#path-4"></use>
        </g>
    </g>
</svg>