<?xml version="1.0" encoding="UTF-8"?>
<svg width="320px" height="558px" viewBox="0 0 320 558" version="1.1" xmlns="http://www.w3.org/2000/svg" xmlns:xlink="http://www.w3.org/1999/xlink">
    <!-- Generator: Sketch 54.1 (76490) - https://sketchapp.com -->
    <title>hongvan_overlay_end</title>
    <desc>Created with Sketch.</desc>
    <g id="hongvan_overlay_end" stroke="none" stroke-width="1" fill="none" fill-rule="evenodd">
        <path d="M-9.1944495e-05,-0.000731759581 L319.999908,-0.000731759581 L319.999908,557.999268 L-9.1944495e-05,557.999268 L-9.1944495e-05,-0.000731759581 Z M24.9986208,42.2180069 C22.2371971,42.2180069 19.9986208,44.4565832 19.9986208,47.2180069 L19.9986208,512.999268 C19.9986208,515.760692 22.2371971,517.999268 24.9986208,517.999268 L294.999908,517.999268 C297.761332,517.999268 299.999908,515.760692 299.999908,512.999268 L299.999908,47.2180069 C299.999908,44.4565832 297.761332,42.2180069 294.999908,42.2180069 L24.9986208,42.2180069 Z" id="Rectangle-3" fill="#ECF5FA"></path>
        <path d="M3.04720534,554 C3.01573507,554.166826 3,554.339903 3,554.519231 C3,555.198721 3.22884537,555.782049 3.68654298,556.269231 C4.14424058,556.756413 4.68408094,557 5.30608025,557 C5.91634372,557 6.45325017,556.759618 6.91681569,556.278846 C7.38038122,555.798075 7.6121605,555.211542 7.6121605,554.519231 C7.6121605,554.339903 7.59622108,554.166826 7.5643421,554 L12.7468253,554 C12.7153551,554.166826 12.69962,554.339903 12.69962,554.519231 C12.69962,555.198721 12.9284654,555.782049 13.386163,556.269231 C13.8438606,556.756413 14.3837009,557 15.0057002,557 C15.6159637,557 16.1528702,556.759618 16.6164357,556.278846 C17.0800012,555.798075 17.3117805,555.211542 17.3117805,554.519231 C17.3117805,554.339903 17.2958411,554.166826 17.2639621,554 L22.4464453,554 C22.414975,554.166826 22.39924,554.339903 22.39924,554.519231 C22.39924,555.198721 22.6280853,555.782049 23.0857829,556.269231 C23.5434805,556.756413 24.0833209,557 24.7053202,557 C25.3273195,557 25.8671599,556.756413 26.3248575,556.269231 C26.7825551,555.782049 27.0114005,555.198721 27.0114005,554.519231 C27.0114005,554.339903 26.9956654,554.166826 26.9641951,554 L32.1460653,554 C32.114595,554.166826 32.09886,554.339903 32.09886,554.519231 C32.09886,555.198721 32.3277053,555.782049 32.7854029,556.269231 C33.2431005,556.756413 33.7829409,557 34.4049402,557 C35.0152037,557 35.5521101,556.759618 36.0156756,556.278846 C36.4792412,555.798075 36.7110205,555.211542 36.7110205,554.519231 C36.7110205,554.339903 36.695081,554.166826 36.6632021,554 L41.8456853,554 C41.814215,554.166826 41.7984799,554.339903 41.7984799,554.519231 C41.7984799,555.198721 42.0273253,555.782049 42.4850229,556.269231 C42.9427205,556.756413 43.4825609,557 44.1045602,557 C44.7148237,557 45.2517301,556.759618 45.7152956,556.278846 C46.1788612,555.798075 46.4106404,555.211542 46.4106404,554.519231 C46.4106404,554.339903 46.394701,554.166826 46.362822,554 L51.5453053,554 C51.513835,554.166826 51.4980999,554.339903 51.4980999,554.519231 C51.4980999,555.198721 51.7269453,555.782049 52.1846429,556.269231 C52.6423405,556.756413 53.1821809,557 53.8041802,557 C54.4261795,557 54.9660198,556.756413 55.4237174,556.269231 C55.8814151,555.782049 56.1102604,555.198721 56.1102604,554.519231 C56.1102604,554.339903 56.0945254,554.166826 56.0630551,554 L61.2449252,554 C61.213455,554.166826 61.1977199,554.339903 61.1977199,554.519231 C61.1977199,555.198721 61.4265653,555.782049 61.8842629,556.269231 C62.3419605,556.756413 62.8818008,557 63.5038002,557 C64.1140636,557 64.6509701,556.759618 65.1145356,556.278846 C65.5781011,555.798075 65.8098804,555.211542 65.8098804,554.519231 C65.8098804,554.339903 65.793941,554.166826 65.762062,554 L70.9445452,554 C70.913075,554.166826 70.8973399,554.339903 70.8973399,554.519231 C70.8973399,555.198721 71.1261853,555.782049 71.5838829,556.269231 C72.0415805,556.756413 72.5814208,557 73.2034201,557 C73.8136836,557 74.3505901,556.759618 74.8141556,556.278846 C75.2777211,555.798075 75.5095004,555.211542 75.5095004,554.519231 C75.5095004,554.339903 75.493561,554.166826 75.461682,554 L80.6441652,554 C80.6126949,554.166826 80.5969599,554.339903 80.5969599,554.519231 C80.5969599,555.198721 80.8258052,555.782049 81.2835029,556.269231 C81.7412005,556.756413 82.2810408,557 82.9030401,557 C83.5250394,557 84.0648798,556.756413 84.5225774,556.269231 C84.980275,555.782049 85.2091204,555.198721 85.2091204,554.519231 C85.2091204,554.339903 85.1933853,554.166826 85.161915,554 L90.3437852,554 C90.3123149,554.166826 90.2965799,554.339903 90.2965799,554.519231 C90.2965799,555.198721 90.5254252,555.782049 90.9831228,556.269231 C91.4408204,556.756413 91.9806608,557 92.6026601,557 C93.2129236,557 93.74983,556.759618 94.2133956,556.278846 C94.6769611,555.798075 94.9087404,555.211542 94.9087404,554.519231 C94.9087404,554.339903 94.8928009,554.166826 94.860922,554 L100.043405,554 C100.011935,554.166826 99.9961998,554.339903 99.9961998,554.519231 C99.9961998,555.198721 100.225045,555.782049 100.682743,556.269231 C101.14044,556.756413 101.680281,557 102.30228,557 C102.912544,557 103.44945,556.759618 103.913016,556.278846 C104.376581,555.798075 104.60836,555.211542 104.60836,554.519231 C104.60836,554.339903 104.592421,554.166826 104.560542,554 L109.743025,554 C109.711555,554.166826 109.69582,554.339903 109.69582,554.519231 C109.69582,555.198721 109.924665,555.782049 110.382363,556.269231 C110.84006,556.756413 111.379901,557 112.0019,557 C112.623899,557 113.16374,556.756413 113.621437,556.269231 C114.079135,555.782049 114.30798,555.198721 114.30798,554.519231 C114.30798,554.339903 114.292245,554.166826 114.260775,554 L119.442645,554 C119.411175,554.166826 119.39544,554.339903 119.39544,554.519231 C119.39544,555.198721 119.624285,555.782049 120.081983,556.269231 C120.53968,556.756413 121.079521,557 121.70152,557 C122.311784,557 122.84869,556.759618 123.312256,556.278846 C123.775821,555.798075 124.0076,555.211542 124.0076,554.519231 C124.0076,554.339903 123.991661,554.166826 123.959782,554 L129.142265,554 C129.110795,554.166826 129.09506,554.339903 129.09506,554.519231 C129.09506,555.198721 129.323905,555.782049 129.781603,556.269231 C130.2393,556.756413 130.779141,557 131.40114,557 C132.011404,557 132.54831,556.759618 133.011875,556.278846 C133.475441,555.798075 133.70722,555.211542 133.70722,554.519231 C133.70722,554.339903 133.691281,554.166826 133.659402,554 L138.841885,554 C138.810415,554.166826 138.79468,554.339903 138.79468,554.519231 C138.79468,555.198721 139.023525,555.782049 139.481223,556.269231 C139.93892,556.756413 140.478761,557 141.10076,557 C141.722759,557 142.2626,556.756413 142.720297,556.269231 C143.177995,555.782049 143.40684,555.198721 143.40684,554.519231 C143.40684,554.339903 143.391105,554.166826 143.359635,554 L148.541505,554 C148.510035,554.166826 148.4943,554.339903 148.4943,554.519231 C148.4943,555.198721 148.723145,555.782049 149.180843,556.269231 C149.63854,556.756413 150.178381,557 150.80038,557 C151.410643,557 151.94755,556.759618 152.411115,556.278846 C152.874681,555.798075 153.10646,555.211542 153.10646,554.519231 C153.10646,554.339903 153.090521,554.166826 153.058642,554 L158.241125,554 C158.209655,554.166826 158.19392,554.339903 158.19392,554.519231 C158.19392,555.198721 158.422765,555.782049 158.880463,556.269231 C159.33816,556.756413 159.878001,557 160.5,557 C161.110263,557 161.64717,556.759618 162.110735,556.278846 C162.574301,555.798075 162.80608,555.211542 162.80608,554.519231 C162.80608,554.339903 162.790141,554.166826 162.758262,554 L167.940745,554 C167.909275,554.166826 167.89354,554.339903 167.89354,554.519231 C167.89354,555.198721 168.122385,555.782049 168.580083,556.269231 C169.03778,556.756413 169.577621,557 170.19962,557 C170.821619,557 171.36146,556.756413 171.819157,556.269231 C172.276855,555.782049 172.5057,555.198721 172.5057,554.519231 C172.5057,554.339903 172.489965,554.166826 172.458495,554 L177.640365,554 C177.608895,554.166826 177.59316,554.339903 177.59316,554.519231 C177.59316,555.198721 177.822005,555.782049 178.279703,556.269231 C178.7374,556.756413 179.277241,557 179.89924,557 C180.509503,557 181.04641,556.759618 181.509975,556.278846 C181.973541,555.798075 182.20532,555.211542 182.20532,554.519231 C182.20532,554.339903 182.189381,554.166826 182.157502,554 L187.339985,554 C187.308515,554.166826 187.29278,554.339903 187.29278,554.519231 C187.29278,555.198721 187.521625,555.782049 187.979323,556.269231 C188.43702,556.756413 188.976861,557 189.59886,557 C190.209123,557 190.74603,556.759618 191.209595,556.278846 C191.673161,555.798075 191.90494,555.211542 191.90494,554.519231 C191.90494,554.339903 191.889001,554.166826 191.857122,554 L197.039605,554 C197.008135,554.166826 196.9924,554.339903 196.9924,554.519231 C196.9924,555.198721 197.221245,555.782049 197.678943,556.269231 C198.13664,556.756413 198.676481,557 199.29848,557 C199.920479,557 200.46032,556.756413 200.918017,556.269231 C201.375715,555.782049 201.60456,555.198721 201.60456,554.519231 C201.60456,554.339903 201.588825,554.166826 201.557355,554 L206.739225,554 C206.707755,554.166826 206.69202,554.339903 206.69202,554.519231 C206.69202,555.198721 206.920865,555.782049 207.378563,556.269231 C207.83626,556.756413 208.376101,557 208.9981,557 C209.608363,557 210.14527,556.759618 210.608835,556.278846 C211.072401,555.798075 211.30418,555.211542 211.30418,554.519231 C211.30418,554.339903 211.288241,554.166826 211.256362,554 L216.438845,554 C216.407375,554.166826 216.39164,554.339903 216.39164,554.519231 C216.39164,555.198721 216.620485,555.782049 217.078183,556.269231 C217.53588,556.756413 218.075721,557 218.69772,557 C219.307983,557 219.84489,556.759618 220.308455,556.278846 C220.772021,555.798075 221.0038,555.211542 221.0038,554.519231 C221.0038,554.339903 220.987861,554.166826 220.955982,554 L226.138465,554 C226.106995,554.166826 226.09126,554.339903 226.09126,554.519231 C226.09126,555.198721 226.320105,555.782049 226.777803,556.269231 C227.2355,556.756413 227.775341,557 228.39734,557 C229.019339,557 229.55918,556.756413 230.016877,556.269231 C230.474575,555.782049 230.70342,555.198721 230.70342,554.519231 C230.70342,554.339903 230.687685,554.166826 230.656215,554 L235.838085,554 C235.806615,554.166826 235.79088,554.339903 235.79088,554.519231 C235.79088,555.198721 236.019725,555.782049 236.477423,556.269231 C236.93512,556.756413 237.474961,557 238.09696,557 C238.707223,557 239.24413,556.759618 239.707695,556.278846 C240.171261,555.798075 240.40304,555.211542 240.40304,554.519231 C240.40304,554.339903 240.387101,554.166826 240.355222,554 L245.537705,554 C245.506235,554.166826 245.4905,554.339903 245.4905,554.519231 C245.4905,555.198721 245.719345,555.782049 246.177043,556.269231 C246.63474,556.756413 247.174581,557 247.79658,557 C248.406843,557 248.94375,556.759618 249.407315,556.278846 C249.870881,555.798075 250.10266,555.211542 250.10266,554.519231 C250.10266,554.339903 250.086721,554.166826 250.054842,554 L255.237325,554 C255.205855,554.166826 255.19012,554.339903 255.19012,554.519231 C255.19012,555.198721 255.418965,555.782049 255.876663,556.269231 C256.33436,556.756413 256.874201,557 257.4962,557 C258.118199,557 258.65804,556.756413 259.115737,556.269231 C259.573435,555.782049 259.80228,555.198721 259.80228,554.519231 C259.80228,554.339903 259.786545,554.166826 259.755075,554 L264.936945,554 C264.905475,554.166826 264.88974,554.339903 264.88974,554.519231 C264.88974,555.198721 265.118585,555.782049 265.576283,556.269231 C266.03398,556.756413 266.573821,557 267.19582,557 C267.806083,557 268.34299,556.759618 268.806555,556.278846 C269.270121,555.798075 269.5019,555.211542 269.5019,554.519231 C269.5019,554.339903 269.485961,554.166826 269.454082,554 L274.636565,554 C274.605095,554.166826 274.58936,554.339903 274.58936,554.519231 C274.58936,555.198721 274.818205,555.782049 275.275903,556.269231 C275.7336,556.756413 276.273441,557 276.89544,557 C277.505703,557 278.04261,556.759618 278.506175,556.278846 C278.969741,555.798075 279.20152,555.211542 279.20152,554.519231 C279.20152,554.339903 279.185581,554.166826 279.153702,554 L284.336185,554 C284.304715,554.166826 284.28898,554.339903 284.28898,554.519231 C284.28898,555.198721 284.517825,555.782049 284.975523,556.269231 C285.43322,556.756413 285.97306,557 286.59506,557 C287.217059,557 287.756899,556.756413 288.214597,556.269231 C288.672295,555.782049 288.90114,555.198721 288.90114,554.519231 C288.90114,554.339903 288.885405,554.166826 288.853935,554 L294.035805,554 C294.004335,554.166826 293.9886,554.339903 293.9886,554.519231 C293.9886,555.198721 294.217445,555.782049 294.675143,556.269231 C295.13284,556.756413 295.67268,557 296.29468,557 C296.904943,557 297.44185,556.759618 297.905415,556.278846 C298.368981,555.798075 298.60076,555.211542 298.60076,554.519231 C298.60076,554.339903 298.584821,554.166826 298.552942,554 L303.735425,554 C303.703955,554.166826 303.68822,554.339903 303.68822,554.519231 C303.68822,555.198721 303.917065,555.782049 304.374762,556.269231 C304.83246,556.756413 305.3723,557 305.9943,557 C306.604563,557 307.14147,556.759618 307.605035,556.278846 C308.068601,555.798075 308.30038,555.211542 308.30038,554.519231 C308.30038,554.339903 308.284441,554.166826 308.252562,554 L313.435045,554 C313.403575,554.166826 313.387839,554.339903 313.387839,554.519231 C313.387839,555.198721 313.616685,555.782049 314.074382,556.269231 C314.53208,556.756413 315.07192,557 315.69392,557 C316.315919,557 316.855759,556.756413 317.313457,556.269231 C317.771155,555.782049 318,555.198721 318,554.519231 C318,554.339903 317.984265,554.166826 317.952795,554 L320,554 L320,558 L0,558 L0,554 L3.04720534,554 Z" id="Rectangle-2" fill="#FFFFFF"></path>
    </g>
</svg>